<?xml version="1.0" encoding="UTF-8" standalone="no"?>
<!DOCTYPE svg PUBLIC "-//W3C//DTD SVG 1.1//EN"
 "http://www.w3.org/Graphics/SVG/1.1/DTD/svg11.dtd">
<!-- Generated by graphviz version 9.0.0 (20230911.1827)
 -->
<!-- Title: /github/workspace/dev_area/sourcecode/appdal/include/appdal/appdalIssues.hpp Pages: 1 -->
<svg width="1549pt" height="205pt"
 viewBox="0.00 0.00 1549.12 205.25" xmlns="http://www.w3.org/2000/svg" xmlns:xlink="http://www.w3.org/1999/xlink">
<g id="graph0" class="graph" transform="scale(1 1) rotate(0) translate(4 201.25)">
<title>/github/workspace/dev_area/sourcecode/appdal/include/appdal/appdalIssues.hpp</title>
<!-- Node1 -->
<g id="Node000001" class="node">
<title>Node1</title>
<g id="a_Node000001"><a xlink:title=" ">
<polygon fill="#999999" stroke="#666666" points="851.38,-197.25 691.38,-197.25 691.38,-155.5 851.38,-155.5 851.38,-197.25"/>
<text text-anchor="start" x="699.38" y="-183.75" font-family="Helvetica,sans-Serif" font-size="10.00">/github/workspace/dev</text>
<text text-anchor="start" x="699.38" y="-172.5" font-family="Helvetica,sans-Serif" font-size="10.00">_area/sourcecode/appdal</text>
<text text-anchor="middle" x="771.38" y="-161.25" font-family="Helvetica,sans-Serif" font-size="10.00">/include/appdal/appdalIssues.hpp</text>
</a>
</g>
</g>
<!-- Node2 -->
<g id="Node000002" class="node">
<title>Node2</title>
<g id="a_Node000002"><a xlink:href="sourcecode_2appdal_2src_2DFApplication_8cpp.html" target="_top" xlink:title=" ">
<polygon fill="white" stroke="#666666" points="124.75,-41.75 0,-41.75 0,0 124.75,0 124.75,-41.75"/>
<text text-anchor="start" x="8" y="-28.25" font-family="Helvetica,sans-Serif" font-size="10.00">/github/workspace/dev</text>
<text text-anchor="start" x="8" y="-17" font-family="Helvetica,sans-Serif" font-size="10.00">_area/sourcecode/appdal</text>
<text text-anchor="middle" x="62.38" y="-5.75" font-family="Helvetica,sans-Serif" font-size="10.00">/src/DFApplication.cpp</text>
</a>
</g>
</g>
<!-- Node1&#45;&gt;Node2 -->
<g id="edge1_Node000001_Node000002" class="edge">
<title>Node1&#45;&gt;Node2</title>
<g id="a_edge1_Node000001_Node000002"><a xlink:title=" ">
<path fill="none" stroke="#63b8ff" d="M679.57,-167.23C597.15,-158.85 473.21,-143.57 367.38,-119.5 277.65,-99.1 176.47,-64.27 116.14,-42.2"/>
<polygon fill="#63b8ff" stroke="#63b8ff" points="679.11,-170.7 689.41,-168.22 679.81,-163.74 679.11,-170.7"/>
</a>
</g>
</g>
<!-- Node3 -->
<g id="Node000003" class="node">
<title>Node3</title>
<g id="a_Node000003"><a xlink:href="sourcecode_2appdal_2src_2DFOApplication_8cpp.html" target="_top" xlink:title=" ">
<polygon fill="white" stroke="#666666" points="267.75,-41.75 143,-41.75 143,0 267.75,0 267.75,-41.75"/>
<text text-anchor="start" x="151" y="-28.25" font-family="Helvetica,sans-Serif" font-size="10.00">/github/workspace/dev</text>
<text text-anchor="start" x="151" y="-17" font-family="Helvetica,sans-Serif" font-size="10.00">_area/sourcecode/appdal</text>
<text text-anchor="middle" x="205.38" y="-5.75" font-family="Helvetica,sans-Serif" font-size="10.00">/src/DFOApplication.cpp</text>
</a>
</g>
</g>
<!-- Node1&#45;&gt;Node3 -->
<g id="edge2_Node000001_Node000003" class="edge">
<title>Node1&#45;&gt;Node3</title>
<g id="a_edge2_Node000001_Node000003"><a xlink:title=" ">
<path fill="none" stroke="#63b8ff" d="M679.8,-159.01C627.49,-149 560.87,-135.13 502.38,-119.5 417.04,-96.69 320.17,-63.43 260.92,-42.22"/>
<polygon fill="#63b8ff" stroke="#63b8ff" points="679.11,-162.44 689.59,-160.87 680.42,-155.57 679.11,-162.44"/>
</a>
</g>
</g>
<!-- Node4 -->
<g id="Node000004" class="node">
<title>Node4</title>
<g id="a_Node000004"><a xlink:href="sourcecode_2appdal_2src_2FakeDataApplication_8cpp.html" target="_top" xlink:title=" ">
<polygon fill="white" stroke="#666666" points="429.12,-41.75 285.62,-41.75 285.62,0 429.12,0 429.12,-41.75"/>
<text text-anchor="start" x="293.62" y="-28.25" font-family="Helvetica,sans-Serif" font-size="10.00">/github/workspace/dev</text>
<text text-anchor="start" x="293.62" y="-17" font-family="Helvetica,sans-Serif" font-size="10.00">_area/sourcecode/appdal</text>
<text text-anchor="middle" x="357.38" y="-5.75" font-family="Helvetica,sans-Serif" font-size="10.00">/src/FakeDataApplication.cpp</text>
</a>
</g>
</g>
<!-- Node1&#45;&gt;Node4 -->
<g id="edge3_Node000001_Node000004" class="edge">
<title>Node1&#45;&gt;Node4</title>
<g id="a_edge3_Node000001_Node000004"><a xlink:title=" ">
<path fill="none" stroke="#63b8ff" d="M700.63,-151.41C672.46,-141.71 639.81,-130.28 610.38,-119.5 540.09,-93.75 459.51,-62.33 408.54,-42.21"/>
<polygon fill="#63b8ff" stroke="#63b8ff" points="699.16,-154.6 709.75,-154.54 701.43,-147.98 699.16,-154.6"/>
</a>
</g>
</g>
<!-- Node5 -->
<g id="Node000005" class="node">
<title>Node5</title>
<g id="a_Node000005"><a xlink:href="sourcecode_2appdal_2src_2FakeHSIApplication_8cpp.html" target="_top" xlink:title=" ">
<polygon fill="white" stroke="#666666" points="587.62,-41.75 447.12,-41.75 447.12,0 587.62,0 587.62,-41.75"/>
<text text-anchor="start" x="455.12" y="-28.25" font-family="Helvetica,sans-Serif" font-size="10.00">/github/workspace/dev</text>
<text text-anchor="start" x="455.12" y="-17" font-family="Helvetica,sans-Serif" font-size="10.00">_area/sourcecode/appdal</text>
<text text-anchor="middle" x="517.38" y="-5.75" font-family="Helvetica,sans-Serif" font-size="10.00">/src/FakeHSIApplication.cpp</text>
</a>
</g>
</g>
<!-- Node1&#45;&gt;Node5 -->
<g id="edge4_Node000001_Node000005" class="edge">
<title>Node1&#45;&gt;Node5</title>
<g id="a_edge4_Node000001_Node000005"><a xlink:title=" ">
<path fill="none" stroke="#63b8ff" d="M728.33,-149.36C678.23,-119.08 596.55,-69.72 550.92,-42.15"/>
<polygon fill="#63b8ff" stroke="#63b8ff" points="726.24,-152.19 736.61,-154.37 729.86,-146.2 726.24,-152.19"/>
</a>
</g>
</g>
<!-- Node6 -->
<g id="Node000006" class="node">
<title>Node6</title>
<g id="a_Node000006"><a xlink:href="sourcecode_2appdal_2src_2HSIEventToTCApplication_8cpp.html" target="_top" xlink:title=" ">
<polygon fill="white" stroke="#666666" points="773.12,-41.75 605.62,-41.75 605.62,0 773.12,0 773.12,-41.75"/>
<text text-anchor="start" x="613.62" y="-28.25" font-family="Helvetica,sans-Serif" font-size="10.00">/github/workspace/dev</text>
<text text-anchor="start" x="613.62" y="-17" font-family="Helvetica,sans-Serif" font-size="10.00">_area/sourcecode/appdal</text>
<text text-anchor="middle" x="689.38" y="-5.75" font-family="Helvetica,sans-Serif" font-size="10.00">/src/HSIEventToTCApplication.cpp</text>
</a>
</g>
</g>
<!-- Node1&#45;&gt;Node6 -->
<g id="edge5_Node000001_Node000006" class="edge">
<title>Node1&#45;&gt;Node6</title>
<g id="a_edge5_Node000001_Node000006"><a xlink:title=" ">
<path fill="none" stroke="#63b8ff" d="M725.64,-148.12C715.79,-140.12 706.51,-130.52 700.38,-119.5 686.93,-95.36 686.1,-62.68 687.3,-41.93"/>
<polygon fill="#63b8ff" stroke="#63b8ff" points="723.47,-150.87 733.57,-154.1 727.69,-145.28 723.47,-150.87"/>
</a>
</g>
</g>
<!-- Node7 -->
<g id="Node000007" class="node">
<title>Node7</title>
<g id="a_Node000007"><a xlink:href="sourcecode_2appdal_2src_2MLTApplication_8cpp.html" target="_top" xlink:title=" ">
<polygon fill="white" stroke="#666666" points="915.75,-41.75 791,-41.75 791,0 915.75,0 915.75,-41.75"/>
<text text-anchor="start" x="799" y="-28.25" font-family="Helvetica,sans-Serif" font-size="10.00">/github/workspace/dev</text>
<text text-anchor="start" x="799" y="-17" font-family="Helvetica,sans-Serif" font-size="10.00">_area/sourcecode/appdal</text>
<text text-anchor="middle" x="853.38" y="-5.75" font-family="Helvetica,sans-Serif" font-size="10.00">/src/MLTApplication.cpp</text>
</a>
</g>
</g>
<!-- Node1&#45;&gt;Node7 -->
<g id="edge6_Node000001_Node000007" class="edge">
<title>Node1&#45;&gt;Node7</title>
<g id="a_edge6_Node000001_Node000007"><a xlink:title=" ">
<path fill="none" stroke="#63b8ff" d="M817.11,-148.12C826.96,-140.12 836.24,-130.52 842.38,-119.5 855.82,-95.36 856.65,-62.68 855.45,-41.93"/>
<polygon fill="#63b8ff" stroke="#63b8ff" points="815.06,-145.28 809.18,-154.1 819.28,-150.87 815.06,-145.28"/>
</a>
</g>
</g>
<!-- Node8 -->
<g id="Node000008" class="node">
<title>Node8</title>
<g id="a_Node000008"><a xlink:href="ModuleFactory_8hpp.html" target="_top" xlink:title=" ">
<polygon fill="white" stroke="#666666" points="833.75,-119.5 709,-119.5 709,-77.75 833.75,-77.75 833.75,-119.5"/>
<text text-anchor="start" x="717" y="-106" font-family="Helvetica,sans-Serif" font-size="10.00">/github/workspace/dev</text>
<text text-anchor="start" x="717" y="-94.75" font-family="Helvetica,sans-Serif" font-size="10.00">_area/sourcecode/appdal</text>
<text text-anchor="middle" x="771.38" y="-83.5" font-family="Helvetica,sans-Serif" font-size="10.00">/src/ModuleFactory.hpp</text>
</a>
</g>
</g>
<!-- Node1&#45;&gt;Node8 -->
<g id="edge7_Node000001_Node000008" class="edge">
<title>Node1&#45;&gt;Node8</title>
<g id="a_edge7_Node000001_Node000008"><a xlink:title=" ">
<path fill="none" stroke="#63b8ff" d="M771.38,-143.75C771.38,-135.71 771.38,-127.29 771.38,-119.98"/>
<polygon fill="#63b8ff" stroke="#63b8ff" points="767.88,-143.56 771.38,-153.56 774.88,-143.56 767.88,-143.56"/>
</a>
</g>
</g>
<!-- Node9 -->
<g id="Node000009" class="node">
<title>Node9</title>
<g id="a_Node000009"><a xlink:href="sourcecode_2appdal_2src_2ReadoutApplication_8cpp.html" target="_top" xlink:title=" ">
<polygon fill="white" stroke="#666666" points="1071.12,-41.75 933.62,-41.75 933.62,0 1071.12,0 1071.12,-41.75"/>
<text text-anchor="start" x="941.62" y="-28.25" font-family="Helvetica,sans-Serif" font-size="10.00">/github/workspace/dev</text>
<text text-anchor="start" x="941.62" y="-17" font-family="Helvetica,sans-Serif" font-size="10.00">_area/sourcecode/appdal</text>
<text text-anchor="middle" x="1002.38" y="-5.75" font-family="Helvetica,sans-Serif" font-size="10.00">/src/ReadoutApplication.cpp</text>
</a>
</g>
</g>
<!-- Node1&#45;&gt;Node9 -->
<g id="edge18_Node000001_Node000009" class="edge">
<title>Node1&#45;&gt;Node9</title>
<g id="a_edge18_Node000001_Node000009"><a xlink:title=" ">
<path fill="none" stroke="#63b8ff" d="M815.53,-149.37C830.82,-140.15 847.98,-129.57 863.38,-119.5 902.74,-93.76 947.01,-62.2 974.79,-42.06"/>
<polygon fill="#63b8ff" stroke="#63b8ff" points="813.86,-146.29 807.09,-154.43 817.46,-152.29 813.86,-146.29"/>
</a>
</g>
</g>
<!-- Node10 -->
<g id="Node000010" class="node">
<title>Node10</title>
<g id="a_Node000010"><a xlink:href="sourcecode_2appdal_2src_2SmartDaqApplication_8cpp.html" target="_top" xlink:title=" ">
<polygon fill="white" stroke="#666666" points="1233.88,-41.75 1088.88,-41.75 1088.88,0 1233.88,0 1233.88,-41.75"/>
<text text-anchor="start" x="1096.88" y="-28.25" font-family="Helvetica,sans-Serif" font-size="10.00">/github/workspace/dev</text>
<text text-anchor="start" x="1096.88" y="-17" font-family="Helvetica,sans-Serif" font-size="10.00">_area/sourcecode/appdal</text>
<text text-anchor="middle" x="1161.38" y="-5.75" font-family="Helvetica,sans-Serif" font-size="10.00">/src/SmartDaqApplication.cpp</text>
</a>
</g>
</g>
<!-- Node1&#45;&gt;Node10 -->
<g id="edge19_Node000001_Node000010" class="edge">
<title>Node1&#45;&gt;Node10</title>
<g id="a_edge19_Node000001_Node000010"><a xlink:title=" ">
<path fill="none" stroke="#63b8ff" d="M833.19,-151.04C909.68,-120.94 1038.5,-70.24 1109.87,-42.15"/>
<polygon fill="#63b8ff" stroke="#63b8ff" points="832.19,-147.68 824.17,-154.6 834.76,-154.19 832.19,-147.68"/>
</a>
</g>
</g>
<!-- Node11 -->
<g id="Node000011" class="node">
<title>Node11</title>
<g id="a_Node000011"><a xlink:href="TPWriterApplication_8cpp.html" target="_top" xlink:title=" ">
<polygon fill="white" stroke="#666666" points="1391.25,-41.75 1251.5,-41.75 1251.5,0 1391.25,0 1391.25,-41.75"/>
<text text-anchor="start" x="1259.5" y="-28.25" font-family="Helvetica,sans-Serif" font-size="10.00">/github/workspace/dev</text>
<text text-anchor="start" x="1259.5" y="-17" font-family="Helvetica,sans-Serif" font-size="10.00">_area/sourcecode/appdal</text>
<text text-anchor="middle" x="1321.38" y="-5.75" font-family="Helvetica,sans-Serif" font-size="10.00">/src/TPWriterApplication.cpp</text>
</a>
</g>
</g>
<!-- Node1&#45;&gt;Node11 -->
<g id="edge20_Node000001_Node000011" class="edge">
<title>Node1&#45;&gt;Node11</title>
<g id="a_edge20_Node000001_Node000011"><a xlink:title=" ">
<path fill="none" stroke="#63b8ff" d="M859.72,-152.13C897,-142.22 940.84,-130.44 980.38,-119.5 1074.44,-93.46 1182.74,-62.24 1251.6,-42.24"/>
<polygon fill="#63b8ff" stroke="#63b8ff" points="859.11,-148.67 850.34,-154.61 860.91,-155.43 859.11,-148.67"/>
</a>
</g>
</g>
<!-- Node12 -->
<g id="Node000012" class="node">
<title>Node12</title>
<g id="a_Node000012"><a xlink:href="sourcecode_2appdal_2src_2TriggerApplication_8cpp.html" target="_top" xlink:title=" ">
<polygon fill="white" stroke="#666666" points="1541.12,-41.75 1409.62,-41.75 1409.62,0 1541.12,0 1541.12,-41.75"/>
<text text-anchor="start" x="1417.62" y="-28.25" font-family="Helvetica,sans-Serif" font-size="10.00">/github/workspace/dev</text>
<text text-anchor="start" x="1417.62" y="-17" font-family="Helvetica,sans-Serif" font-size="10.00">_area/sourcecode/appdal</text>
<text text-anchor="middle" x="1475.38" y="-5.75" font-family="Helvetica,sans-Serif" font-size="10.00">/src/TriggerApplication.cpp</text>
</a>
</g>
</g>
<!-- Node1&#45;&gt;Node12 -->
<g id="edge21_Node000001_Node000012" class="edge">
<title>Node1&#45;&gt;Node12</title>
<g id="a_edge21_Node000001_Node000012"><a xlink:title=" ">
<path fill="none" stroke="#63b8ff" d="M862.72,-158.99C920.86,-148.33 997.68,-133.78 1065.38,-119.5 1214.93,-87.95 1252.04,-78.61 1400.38,-41.75 1403.25,-41.04 1406.19,-40.3 1409.15,-39.54"/>
<polygon fill="#63b8ff" stroke="#63b8ff" points="862.42,-155.49 853.21,-160.73 863.68,-162.38 862.42,-155.49"/>
</a>
</g>
</g>
<!-- Node8&#45;&gt;Node2 -->
<g id="edge8_Node000008_Node000002" class="edge">
<title>Node8&#45;&gt;Node2</title>
<g id="a_edge8_Node000008_Node000002"><a xlink:title=" ">
<path fill="none" stroke="#63b8ff" d="M697.79,-95.51C578.6,-91.12 336.26,-78.16 134.38,-41.75 131.31,-41.2 128.19,-40.57 125.05,-39.9"/>
<polygon fill="#63b8ff" stroke="#63b8ff" points="697.31,-99 707.43,-95.86 697.56,-92 697.31,-99"/>
</a>
</g>
</g>
<!-- Node8&#45;&gt;Node3 -->
<g id="edge9_Node000008_Node000003" class="edge">
<title>Node8&#45;&gt;Node3</title>
<g id="a_edge9_Node000008_Node000003"><a xlink:title=" ">
<path fill="none" stroke="#63b8ff" d="M697.3,-92.99C600.01,-86.05 424.22,-70.59 276.38,-41.75 273.61,-41.21 270.8,-40.62 267.96,-39.98"/>
<polygon fill="#63b8ff" stroke="#63b8ff" points="697.03,-96.48 707.25,-93.69 697.52,-89.5 697.03,-96.48"/>
</a>
</g>
</g>
<!-- Node8&#45;&gt;Node4 -->
<g id="edge10_Node000008_Node000004" class="edge">
<title>Node8&#45;&gt;Node4</title>
<g id="a_edge10_Node000008_Node000004"><a xlink:title=" ">
<path fill="none" stroke="#63b8ff" d="M697.55,-86.85C629.87,-76.59 527.02,-60.04 438.38,-41.75 435.4,-41.14 432.36,-40.49 429.3,-39.82"/>
<polygon fill="#63b8ff" stroke="#63b8ff" points="696.61,-90.25 707.02,-88.28 697.65,-83.33 696.61,-90.25"/>
</a>
</g>
</g>
<!-- Node8&#45;&gt;Node5 -->
<g id="edge11_Node000008_Node000005" class="edge">
<title>Node8&#45;&gt;Node5</title>
<g id="a_edge11_Node000008_Node000005"><a xlink:title=" ">
<path fill="none" stroke="#63b8ff" d="M697.84,-75.7C662.48,-65.15 620.34,-52.58 585.68,-42.24"/>
<polygon fill="#63b8ff" stroke="#63b8ff" points="696.55,-78.96 707.14,-78.47 698.56,-72.26 696.55,-78.96"/>
</a>
</g>
</g>
<!-- Node8&#45;&gt;Node6 -->
<g id="edge12_Node000008_Node000006" class="edge">
<title>Node8&#45;&gt;Node6</title>
<g id="a_edge12_Node000008_Node000006"><a xlink:title=" ">
<path fill="none" stroke="#63b8ff" d="M741.05,-69.61C731.22,-60.53 720.52,-50.64 711.41,-42.23"/>
<polygon fill="#63b8ff" stroke="#63b8ff" points="738.57,-72.08 748.29,-76.3 743.32,-66.94 738.57,-72.08"/>
</a>
</g>
</g>
<!-- Node8&#45;&gt;Node7 -->
<g id="edge13_Node000008_Node000007" class="edge">
<title>Node8&#45;&gt;Node7</title>
<g id="a_edge13_Node000008_Node000007"><a xlink:title=" ">
<path fill="none" stroke="#63b8ff" d="M801.7,-69.61C811.53,-60.53 822.23,-50.64 831.34,-42.23"/>
<polygon fill="#63b8ff" stroke="#63b8ff" points="799.43,-66.94 794.46,-76.3 804.18,-72.08 799.43,-66.94"/>
</a>
</g>
</g>
<!-- Node8&#45;&gt;Node9 -->
<g id="edge14_Node000008_Node000009" class="edge">
<title>Node8&#45;&gt;Node9</title>
<g id="a_edge14_Node000008_Node000009"><a xlink:title=" ">
<path fill="none" stroke="#63b8ff" d="M844,-73.81C874.93,-63.67 910.63,-51.96 940.3,-42.23"/>
<polygon fill="#63b8ff" stroke="#63b8ff" points="843.13,-70.41 834.72,-76.85 845.31,-77.06 843.13,-70.41"/>
</a>
</g>
</g>
<!-- Node8&#45;&gt;Node10 -->
<g id="edge15_Node000008_Node000010" class="edge">
<title>Node8&#45;&gt;Node10</title>
<g id="a_edge15_Node000008_Node000010"><a xlink:title=" ">
<path fill="none" stroke="#63b8ff" d="M845.01,-85.63C907.77,-75.08 1000.27,-58.8 1080.38,-41.75 1083.07,-41.18 1085.8,-40.58 1088.57,-39.96"/>
<polygon fill="#63b8ff" stroke="#63b8ff" points="844.81,-82.11 835.53,-87.21 845.97,-89.01 844.81,-82.11"/>
</a>
</g>
</g>
<!-- Node8&#45;&gt;Node11 -->
<g id="edge16_Node000008_Node000011" class="edge">
<title>Node8&#45;&gt;Node11</title>
<g id="a_edge16_Node000008_Node000011"><a xlink:title=" ">
<path fill="none" stroke="#63b8ff" d="M845.51,-91.79C938.67,-83.79 1103.22,-67.4 1242.38,-41.75 1245.3,-41.21 1248.27,-40.63 1251.27,-40.01"/>
<polygon fill="#63b8ff" stroke="#63b8ff" points="845.41,-88.29 835.74,-92.62 846,-95.27 845.41,-88.29"/>
</a>
</g>
</g>
<!-- Node8&#45;&gt;Node12 -->
<g id="edge17_Node000008_Node000012" class="edge">
<title>Node8&#45;&gt;Node12</title>
<g id="a_edge17_Node000008_Node000012"><a xlink:title=" ">
<path fill="none" stroke="#63b8ff" d="M845.28,-95.14C963.37,-90.26 1201.56,-76.66 1400.38,-41.75 1403.29,-41.24 1406.26,-40.67 1409.26,-40.05"/>
<polygon fill="#63b8ff" stroke="#63b8ff" points="845.25,-91.64 835.4,-95.54 845.53,-98.63 845.25,-91.64"/>
</a>
</g>
</g>
</g>
</svg>
