<?xml version="1.0" encoding="UTF-8" standalone="no"?>
<!DOCTYPE svg PUBLIC "-//W3C//DTD SVG 1.1//EN"
 "http://www.w3.org/Graphics/SVG/1.1/DTD/svg11.dtd">
<!-- Generated by graphviz version 9.0.0 (20230911.1827)
 -->
<!-- Title: /github/workspace/dev_area/build/appfwk/codegen/include/appfwk/app/Structs.hpp Pages: 1 -->
<svg width="347pt" height="172pt"
 viewBox="0.00 0.00 346.96 171.50" xmlns="http://www.w3.org/2000/svg" xmlns:xlink="http://www.w3.org/1999/xlink">
<g id="graph0" class="graph" transform="scale(1 1) rotate(0) translate(4 167.5)">
<title>/github/workspace/dev_area/build/appfwk/codegen/include/appfwk/app/Structs.hpp</title>
<!-- Node1 -->
<g id="Node000001" class="node">
<title>Node1</title>
<g id="a_Node000001"><a xlink:title=" ">
<polygon fill="#999999" stroke="#666666" points="262.12,-163.5 106.62,-163.5 106.62,-121.75 262.12,-121.75 262.12,-163.5"/>
<text text-anchor="start" x="114.62" y="-150" font-family="Helvetica,sans-Serif" font-size="10.00">/github/workspace/dev</text>
<text text-anchor="start" x="114.62" y="-138.75" font-family="Helvetica,sans-Serif" font-size="10.00">_area/build/appfwk/codegen</text>
<text text-anchor="middle" x="184.38" y="-127.5" font-family="Helvetica,sans-Serif" font-size="10.00">/include/appfwk/app/Structs.hpp</text>
</a>
</g>
</g>
<!-- Node2 -->
<g id="Node000002" class="node">
<title>Node2</title>
<g id="a_Node000002"><a xlink:title=" ">
<polygon fill="#e0e0e0" stroke="#999999" points="169,-19.25 123.75,-19.25 123.75,0 169,0 169,-19.25"/>
<text text-anchor="middle" x="146.38" y="-5.75" font-family="Helvetica,sans-Serif" font-size="10.00">cstdint</text>
</a>
</g>
</g>
<!-- Node1&#45;&gt;Node2 -->
<g id="edge1_Node000001_Node000002" class="edge">
<title>Node1&#45;&gt;Node2</title>
<g id="a_edge1_Node000001_Node000002"><a xlink:title=" ">
<path fill="none" stroke="#63b8ff" d="M178.52,-121.44C171.33,-96.64 159.2,-54.83 152.07,-30.27"/>
<polygon fill="#63b8ff" stroke="#63b8ff" points="155.51,-29.55 149.36,-20.92 148.79,-31.5 155.51,-29.55"/>
</a>
</g>
</g>
<!-- Node3 -->
<g id="Node000003" class="node">
<title>Node3</title>
<g id="a_Node000003"><a xlink:href="cmdlib_2codegen_2include_2cmdlib_2cmd_2Structs_8hpp.html" target="_top" xlink:title=" ">
<polygon fill="white" stroke="#666666" points="118.75,-80.12 0,-80.12 0,-60.88 118.75,-60.88 118.75,-80.12"/>
<text text-anchor="middle" x="59.38" y="-66.62" font-family="Helvetica,sans-Serif" font-size="10.00">cmdlib/cmd/Structs.hpp</text>
</a>
</g>
</g>
<!-- Node1&#45;&gt;Node3 -->
<g id="edge2_Node000001_Node000003" class="edge">
<title>Node1&#45;&gt;Node3</title>
<g id="a_edge2_Node000001_Node000003"><a xlink:title=" ">
<path fill="none" stroke="#63b8ff" d="M148.22,-121.34C128.09,-110.05 103.49,-96.25 85.29,-86.04"/>
<polygon fill="#63b8ff" stroke="#63b8ff" points="87.14,-83.07 76.71,-81.23 83.72,-89.17 87.14,-83.07"/>
</a>
</g>
</g>
<!-- Node5 -->
<g id="Node000005" class="node">
<title>Node5</title>
<g id="a_Node000005"><a xlink:title=" ">
<polygon fill="#e0e0e0" stroke="#999999" points="227.38,-19.25 187.38,-19.25 187.38,0 227.38,0 227.38,-19.25"/>
<text text-anchor="middle" x="207.38" y="-5.75" font-family="Helvetica,sans-Serif" font-size="10.00">string</text>
</a>
</g>
</g>
<!-- Node1&#45;&gt;Node5 -->
<g id="edge11_Node000001_Node000005" class="edge">
<title>Node1&#45;&gt;Node5</title>
<g id="a_edge11_Node000001_Node000005"><a xlink:title=" ">
<path fill="none" stroke="#63b8ff" d="M187.92,-121.44C192.25,-96.75 199.55,-55.21 203.87,-30.61"/>
<polygon fill="#63b8ff" stroke="#63b8ff" points="207.28,-31.41 205.56,-20.96 200.38,-30.2 207.28,-31.41"/>
</a>
</g>
</g>
<!-- Node6 -->
<g id="Node000006" class="node">
<title>Node6</title>
<g id="a_Node000006"><a xlink:href="iomanager_2codegen_2include_2iomanager_2connection_2Structs_8hpp.html" target="_top" xlink:title=" ">
<polygon fill="white" stroke="#666666" points="324,-85.75 212.75,-85.75 212.75,-55.25 324,-55.25 324,-85.75"/>
<text text-anchor="start" x="220.75" y="-72.25" font-family="Helvetica,sans-Serif" font-size="10.00">iomanager/connection</text>
<text text-anchor="middle" x="268.38" y="-61" font-family="Helvetica,sans-Serif" font-size="10.00">/Structs.hpp</text>
</a>
</g>
</g>
<!-- Node1&#45;&gt;Node6 -->
<g id="edge6_Node000001_Node000006" class="edge">
<title>Node1&#45;&gt;Node6</title>
<g id="a_edge6_Node000001_Node000006"><a xlink:title=" ">
<path fill="none" stroke="#63b8ff" d="M208.67,-121.34C219.19,-112.56 231.53,-102.26 242.25,-93.31"/>
<polygon fill="#63b8ff" stroke="#63b8ff" points="244.21,-96.24 249.64,-87.14 239.72,-90.86 244.21,-96.24"/>
</a>
</g>
</g>
<!-- Node7 -->
<g id="Node000007" class="node">
<title>Node7</title>
<g id="a_Node000007"><a xlink:title=" ">
<polygon fill="#e0e0e0" stroke="#999999" points="331.88,-19.25 288.88,-19.25 288.88,0 331.88,0 331.88,-19.25"/>
<text text-anchor="middle" x="310.38" y="-5.75" font-family="Helvetica,sans-Serif" font-size="10.00">vector</text>
</a>
</g>
</g>
<!-- Node1&#45;&gt;Node7 -->
<g id="edge10_Node000001_Node000007" class="edge">
<title>Node1&#45;&gt;Node7</title>
<g id="a_edge10_Node000001_Node000007"><a xlink:title=" ">
<path fill="none" stroke="#63b8ff" d="M262.27,-130.9C289.35,-123.02 317.01,-109.37 333.38,-85.75 345.23,-68.64 334.78,-45.24 324.41,-29.13"/>
<polygon fill="#63b8ff" stroke="#63b8ff" points="327.3,-27.16 318.7,-20.97 321.56,-31.17 327.3,-27.16"/>
</a>
</g>
</g>
<!-- Node3&#45;&gt;Node2 -->
<g id="edge3_Node000003_Node000002" class="edge">
<title>Node3&#45;&gt;Node2</title>
<g id="a_edge3_Node000003_Node000002"><a xlink:title=" ">
<path fill="none" stroke="#63b8ff" d="M72.59,-60.56C86.13,-51.39 107.45,-36.97 123.69,-25.98"/>
<polygon fill="#63b8ff" stroke="#63b8ff" points="125.46,-29 131.78,-20.5 121.54,-23.21 125.46,-29"/>
</a>
</g>
</g>
<!-- Node4 -->
<g id="Node000004" class="node">
<title>Node4</title>
<g id="a_Node000004"><a xlink:title=" ">
<polygon fill="#e0e0e0" stroke="#999999" points="105.88,-19.25 8.88,-19.25 8.88,0 105.88,0 105.88,-19.25"/>
<text text-anchor="middle" x="57.38" y="-5.75" font-family="Helvetica,sans-Serif" font-size="10.00">nlohmann/json.hpp</text>
</a>
</g>
</g>
<!-- Node3&#45;&gt;Node4 -->
<g id="edge4_Node000003_Node000004" class="edge">
<title>Node3&#45;&gt;Node4</title>
<g id="a_edge4_Node000003_Node000004"><a xlink:title=" ">
<path fill="none" stroke="#63b8ff" d="M59.07,-60.56C58.8,-52.69 58.41,-40.95 58.06,-30.82"/>
<polygon fill="#63b8ff" stroke="#63b8ff" points="61.57,-31.04 57.73,-21.16 54.57,-31.28 61.57,-31.04"/>
</a>
</g>
</g>
<!-- Node3&#45;&gt;Node5 -->
<g id="edge5_Node000003_Node000005" class="edge">
<title>Node3&#45;&gt;Node5</title>
<g id="a_edge5_Node000003_Node000005"><a xlink:title=" ">
<path fill="none" stroke="#63b8ff" d="M82.18,-60.43C107.52,-50.35 148.57,-34.02 176.71,-22.82"/>
<polygon fill="#63b8ff" stroke="#63b8ff" points="177.76,-26.17 185.76,-19.22 175.17,-19.67 177.76,-26.17"/>
</a>
</g>
</g>
<!-- Node6&#45;&gt;Node2 -->
<g id="edge7_Node000006_Node000002" class="edge">
<title>Node6&#45;&gt;Node2</title>
<g id="a_edge7_Node000006_Node000002"><a xlink:title=" ">
<path fill="none" stroke="#63b8ff" d="M237.9,-54.8C218.79,-45.57 194.28,-33.75 175.44,-24.65"/>
<polygon fill="#63b8ff" stroke="#63b8ff" points="176.98,-21.51 166.45,-20.31 173.93,-27.81 176.98,-21.51"/>
</a>
</g>
</g>
<!-- Node6&#45;&gt;Node5 -->
<g id="edge8_Node000006_Node000005" class="edge">
<title>Node6&#45;&gt;Node5</title>
<g id="a_edge8_Node000006_Node000005"><a xlink:title=" ">
<path fill="none" stroke="#63b8ff" d="M253.3,-54.95C244.72,-46.67 233.94,-36.27 224.98,-27.62"/>
<polygon fill="#63b8ff" stroke="#63b8ff" points="227.49,-25.18 217.87,-20.75 222.63,-30.22 227.49,-25.18"/>
</a>
</g>
</g>
<!-- Node6&#45;&gt;Node7 -->
<g id="edge9_Node000006_Node000007" class="edge">
<title>Node6&#45;&gt;Node7</title>
<g id="a_edge9_Node000006_Node000007"><a xlink:title=" ">
<path fill="none" stroke="#63b8ff" d="M278.76,-54.95C284.35,-47.1 291.31,-37.35 297.28,-28.99"/>
<polygon fill="#63b8ff" stroke="#63b8ff" points="300.06,-31.11 303.02,-20.93 294.36,-27.04 300.06,-31.11"/>
</a>
</g>
</g>
</g>
</svg>
