<?xml version="1.0" encoding="UTF-8" standalone="no"?>
<!DOCTYPE svg PUBLIC "-//W3C//DTD SVG 1.1//EN"
 "http://www.w3.org/Graphics/SVG/1.1/DTD/svg11.dtd">
<!-- Generated by graphviz version 9.0.0 (20230911.1827)
 -->
<!-- Title: /github/workspace/dev_area/build/appfwk/codegen/include/appfwk/cmd/Structs.hpp Pages: 1 -->
<svg width="616pt" height="361pt"
 viewBox="0.00 0.00 615.84 360.75" xmlns="http://www.w3.org/2000/svg" xmlns:xlink="http://www.w3.org/1999/xlink">
<g id="graph0" class="graph" transform="scale(1 1) rotate(0) translate(4 356.75)">
<title>/github/workspace/dev_area/build/appfwk/codegen/include/appfwk/cmd/Structs.hpp</title>
<!-- Node1 -->
<g id="Node000001" class="node">
<title>Node1</title>
<g id="a_Node000001"><a xlink:title=" ">
<polygon fill="#999999" stroke="#666666" points="560.12,-352.75 401.62,-352.75 401.62,-311 560.12,-311 560.12,-352.75"/>
<text text-anchor="start" x="409.62" y="-339.25" font-family="Helvetica,sans-Serif" font-size="10.00">/github/workspace/dev</text>
<text text-anchor="start" x="409.62" y="-328" font-family="Helvetica,sans-Serif" font-size="10.00">_area/build/appfwk/codegen</text>
<text text-anchor="middle" x="480.88" y="-316.75" font-family="Helvetica,sans-Serif" font-size="10.00">/include/appfwk/cmd/Structs.hpp</text>
</a>
</g>
</g>
<!-- Node2 -->
<g id="Node000002" class="node">
<title>Node2</title>
<g id="a_Node000002"><a xlink:href="appfwk_2codegen_2include_2appfwk_2cmd_2Nljs_8hpp.html" target="_top" xlink:title=" ">
<polygon fill="white" stroke="#666666" points="419,-275 274.75,-275 274.75,-233.25 419,-233.25 419,-275"/>
<text text-anchor="start" x="282.75" y="-261.5" font-family="Helvetica,sans-Serif" font-size="10.00">/github/workspace/dev</text>
<text text-anchor="start" x="282.75" y="-250.25" font-family="Helvetica,sans-Serif" font-size="10.00">_area/build/appfwk/codegen</text>
<text text-anchor="middle" x="346.88" y="-239" font-family="Helvetica,sans-Serif" font-size="10.00">/include/appfwk/cmd/Nljs.hpp</text>
</a>
</g>
</g>
<!-- Node1&#45;&gt;Node2 -->
<g id="edge1_Node000001_Node000002" class="edge">
<title>Node1&#45;&gt;Node2</title>
<g id="a_edge1_Node000001_Node000002"><a xlink:title=" ">
<path fill="none" stroke="#63b8ff" d="M435.19,-305.05C418.11,-295.39 398.97,-284.57 382.88,-275.48"/>
<polygon fill="#63b8ff" stroke="#63b8ff" points="433.22,-307.96 443.65,-309.83 436.66,-301.86 433.22,-307.96"/>
</a>
</g>
</g>
<!-- Node4 -->
<g id="Node000004" class="node">
<title>Node4</title>
<g id="a_Node000004"><a xlink:href="sourcecode_2appfwk_2src_2Application_8hpp.html" target="_top" xlink:title=" ">
<polygon fill="white" stroke="#666666" points="281.75,-41.75 154,-41.75 154,0 281.75,0 281.75,-41.75"/>
<text text-anchor="start" x="162" y="-28.25" font-family="Helvetica,sans-Serif" font-size="10.00">/github/workspace/dev</text>
<text text-anchor="start" x="162" y="-17" font-family="Helvetica,sans-Serif" font-size="10.00">_area/sourcecode/appfwk</text>
<text text-anchor="middle" x="217.88" y="-5.75" font-family="Helvetica,sans-Serif" font-size="10.00">/src/Application.hpp</text>
</a>
</g>
</g>
<!-- Node1&#45;&gt;Node4 -->
<g id="edge9_Node000001_Node000004" class="edge">
<title>Node1&#45;&gt;Node4</title>
<g id="a_edge9_Node000001_Node000004"><a xlink:title=" ">
<path fill="none" stroke="#63b8ff" d="M520.99,-303.83C567.5,-269.07 633.38,-207.07 596.88,-155.5 525.13,-54.13 369.92,-29.13 282.01,-23.3"/>
<polygon fill="#63b8ff" stroke="#63b8ff" points="518.93,-300.99 512.92,-309.72 523.06,-306.65 518.93,-300.99"/>
</a>
</g>
</g>
<!-- Node3 -->
<g id="Node000003" class="node">
<title>Node3</title>
<g id="a_Node000003"><a xlink:href="Application_8hxx.html" target="_top" xlink:title=" ">
<polygon fill="white" stroke="#666666" points="127.75,-119.5 0,-119.5 0,-77.75 127.75,-77.75 127.75,-119.5"/>
<text text-anchor="start" x="8" y="-106" font-family="Helvetica,sans-Serif" font-size="10.00">/github/workspace/dev</text>
<text text-anchor="start" x="8" y="-94.75" font-family="Helvetica,sans-Serif" font-size="10.00">_area/sourcecode/appfwk</text>
<text text-anchor="middle" x="63.88" y="-83.5" font-family="Helvetica,sans-Serif" font-size="10.00">/src/detail/Application.hxx</text>
</a>
</g>
</g>
<!-- Node2&#45;&gt;Node3 -->
<g id="edge2_Node000002_Node000003" class="edge">
<title>Node2&#45;&gt;Node3</title>
<g id="a_edge2_Node000002_Node000003"><a xlink:title=" ">
<path fill="none" stroke="#63b8ff" d="M263.34,-245.45C195.73,-237.48 107.77,-222.56 82.88,-197.25 62.77,-176.82 60.75,-141.83 61.82,-119.76"/>
<polygon fill="#63b8ff" stroke="#63b8ff" points="262.6,-248.89 272.93,-246.55 263.39,-241.93 262.6,-248.89"/>
</a>
</g>
</g>
<!-- Node5 -->
<g id="Node000005" class="node">
<title>Node5</title>
<g id="a_Node000005"><a xlink:href="DAQModuleManager_8hxx.html" target="_top" xlink:title=" ">
<polygon fill="white" stroke="#666666" points="260,-197.25 91.75,-197.25 91.75,-155.5 260,-155.5 260,-197.25"/>
<text text-anchor="start" x="99.75" y="-183.75" font-family="Helvetica,sans-Serif" font-size="10.00">/github/workspace/dev</text>
<text text-anchor="start" x="99.75" y="-172.5" font-family="Helvetica,sans-Serif" font-size="10.00">_area/sourcecode/appfwk</text>
<text text-anchor="middle" x="175.88" y="-161.25" font-family="Helvetica,sans-Serif" font-size="10.00">/src/detail/DAQModuleManager.hxx</text>
</a>
</g>
</g>
<!-- Node2&#45;&gt;Node5 -->
<g id="edge4_Node000002_Node000005" class="edge">
<title>Node2&#45;&gt;Node5</title>
<g id="a_edge4_Node000002_Node000005"><a xlink:title=" ">
<path fill="none" stroke="#63b8ff" d="M290.7,-228.24C268.38,-218.35 243.02,-207.12 221.83,-197.73"/>
<polygon fill="#63b8ff" stroke="#63b8ff" points="289.11,-231.36 299.67,-232.21 291.94,-224.96 289.11,-231.36"/>
</a>
</g>
</g>
<!-- Node7 -->
<g id="Node000007" class="node">
<title>Node7</title>
<g id="a_Node000007"><a xlink:href="sourcecode_2timinglibs_2src_2TimingController_8cpp.html" target="_top" xlink:title=" ">
<polygon fill="white" stroke="#666666" points="415.62,-197.25 278.12,-197.25 278.12,-155.5 415.62,-155.5 415.62,-197.25"/>
<text text-anchor="start" x="286.12" y="-183.75" font-family="Helvetica,sans-Serif" font-size="10.00">/github/workspace/dev</text>
<text text-anchor="start" x="286.12" y="-172.5" font-family="Helvetica,sans-Serif" font-size="10.00">_area/sourcecode/timinglibs</text>
<text text-anchor="middle" x="346.88" y="-161.25" font-family="Helvetica,sans-Serif" font-size="10.00">/src/TimingController.cpp</text>
</a>
</g>
</g>
<!-- Node2&#45;&gt;Node7 -->
<g id="edge7_Node000002_Node000007" class="edge">
<title>Node2&#45;&gt;Node7</title>
<g id="a_edge7_Node000002_Node000007"><a xlink:title=" ">
<path fill="none" stroke="#63b8ff" d="M346.88,-221.5C346.88,-213.46 346.88,-205.04 346.88,-197.73"/>
<polygon fill="#63b8ff" stroke="#63b8ff" points="343.38,-221.31 346.88,-231.31 350.38,-221.31 343.38,-221.31"/>
</a>
</g>
</g>
<!-- Node8 -->
<g id="Node000008" class="node">
<title>Node8</title>
<g id="a_Node000008"><a xlink:href="sourcecode_2timinglibs_2src_2TimingMasterController_8cpp.html" target="_top" xlink:title=" ">
<polygon fill="white" stroke="#666666" points="587.88,-197.25 433.88,-197.25 433.88,-155.5 587.88,-155.5 587.88,-197.25"/>
<text text-anchor="start" x="441.88" y="-183.75" font-family="Helvetica,sans-Serif" font-size="10.00">/github/workspace/dev</text>
<text text-anchor="start" x="441.88" y="-172.5" font-family="Helvetica,sans-Serif" font-size="10.00">_area/sourcecode/timinglibs</text>
<text text-anchor="middle" x="510.88" y="-161.25" font-family="Helvetica,sans-Serif" font-size="10.00">/src/TimingMasterController.cpp</text>
</a>
</g>
</g>
<!-- Node2&#45;&gt;Node8 -->
<g id="edge8_Node000002_Node000008" class="edge">
<title>Node2&#45;&gt;Node8</title>
<g id="a_edge8_Node000002_Node000008"><a xlink:title=" ">
<path fill="none" stroke="#63b8ff" d="M401.04,-228.11C422.38,-218.25 446.57,-207.08 466.8,-197.73"/>
<polygon fill="#63b8ff" stroke="#63b8ff" points="399.81,-224.82 392.2,-232.19 402.74,-231.17 399.81,-224.82"/>
</a>
</g>
</g>
<!-- Node3&#45;&gt;Node4 -->
<g id="edge3_Node000003_Node000004" class="edge">
<title>Node3&#45;&gt;Node4</title>
<g id="a_edge3_Node000003_Node000004"><a xlink:title=" ">
<path fill="none" stroke="#63b8ff" d="M115.28,-72.34C135.19,-62.55 157.66,-51.49 176.49,-42.23"/>
<polygon fill="#63b8ff" stroke="#63b8ff" points="113.93,-69.1 106.5,-76.66 117.02,-75.38 113.93,-69.1"/>
</a>
</g>
</g>
<!-- Node6 -->
<g id="Node000006" class="node">
<title>Node6</title>
<g id="a_Node000006"><a xlink:href="DAQModuleManager_8hpp.html" target="_top" xlink:title=" ">
<polygon fill="white" stroke="#666666" points="289.62,-119.5 146.12,-119.5 146.12,-77.75 289.62,-77.75 289.62,-119.5"/>
<text text-anchor="start" x="154.12" y="-106" font-family="Helvetica,sans-Serif" font-size="10.00">/github/workspace/dev</text>
<text text-anchor="start" x="154.12" y="-94.75" font-family="Helvetica,sans-Serif" font-size="10.00">_area/sourcecode/appfwk</text>
<text text-anchor="middle" x="217.88" y="-83.5" font-family="Helvetica,sans-Serif" font-size="10.00">/src/DAQModuleManager.hpp</text>
</a>
</g>
</g>
<!-- Node5&#45;&gt;Node6 -->
<g id="edge5_Node000005_Node000006" class="edge">
<title>Node5&#45;&gt;Node6</title>
<g id="a_edge5_Node000005_Node000006"><a xlink:title=" ">
<path fill="none" stroke="#63b8ff" d="M192.63,-145.15C197.32,-136.7 202.3,-127.71 206.59,-119.98"/>
<polygon fill="#63b8ff" stroke="#63b8ff" points="189.65,-143.31 187.86,-153.75 195.77,-146.7 189.65,-143.31"/>
</a>
</g>
</g>
<!-- Node6&#45;&gt;Node4 -->
<g id="edge6_Node000006_Node000004" class="edge">
<title>Node6&#45;&gt;Node4</title>
<g id="a_edge6_Node000006_Node000004"><a xlink:title=" ">
<path fill="none" stroke="#63b8ff" d="M217.88,-66C217.88,-57.96 217.88,-49.54 217.88,-42.23"/>
<polygon fill="#63b8ff" stroke="#63b8ff" points="214.38,-65.81 217.88,-75.81 221.38,-65.81 214.38,-65.81"/>
</a>
</g>
</g>
</g>
</svg>
