<?xml version="1.0" encoding="UTF-8" standalone="no"?>
<!DOCTYPE svg PUBLIC "-//W3C//DTD SVG 1.1//EN"
 "http://www.w3.org/Graphics/SVG/1.1/DTD/svg11.dtd">
<!-- Generated by graphviz version 9.0.0 (20230911.1827)
 -->
<!-- Title: /github/workspace/dev_area/sourcecode/appfwk/include/appfwk/Issues.hpp Pages: 1 -->
<svg width="1321pt" height="383pt"
 viewBox="0.00 0.00 1320.75 383.25" xmlns="http://www.w3.org/2000/svg" xmlns:xlink="http://www.w3.org/1999/xlink">
<g id="graph0" class="graph" transform="scale(1 1) rotate(0) translate(4 379.25)">
<title>/github/workspace/dev_area/sourcecode/appfwk/include/appfwk/Issues.hpp</title>
<!-- Node1 -->
<g id="Node000001" class="node">
<title>Node1</title>
<g id="a_Node000001"><a xlink:title=" ">
<polygon fill="#999999" stroke="#666666" points="451.12,-375.25 316.62,-375.25 316.62,-333.5 451.12,-333.5 451.12,-375.25"/>
<text text-anchor="start" x="324.62" y="-361.75" font-family="Helvetica,sans-Serif" font-size="10.00">/github/workspace/dev</text>
<text text-anchor="start" x="324.62" y="-350.5" font-family="Helvetica,sans-Serif" font-size="10.00">_area/sourcecode/appfwk</text>
<text text-anchor="middle" x="383.88" y="-339.25" font-family="Helvetica,sans-Serif" font-size="10.00">/include/appfwk/Issues.hpp</text>
</a>
</g>
</g>
<!-- Node2 -->
<g id="Node000002" class="node">
<title>Node2</title>
<g id="a_Node000002"><a xlink:href="daq__application_8cxx.html" target="_top" xlink:title=" ">
<polygon fill="white" stroke="#666666" points="127.75,-291.88 0,-291.88 0,-250.12 127.75,-250.12 127.75,-291.88"/>
<text text-anchor="start" x="8" y="-278.38" font-family="Helvetica,sans-Serif" font-size="10.00">/github/workspace/dev</text>
<text text-anchor="start" x="8" y="-267.12" font-family="Helvetica,sans-Serif" font-size="10.00">_area/sourcecode/appfwk</text>
<text text-anchor="middle" x="63.88" y="-255.88" font-family="Helvetica,sans-Serif" font-size="10.00">/apps/daq_application.cxx</text>
</a>
</g>
</g>
<!-- Node1&#45;&gt;Node2 -->
<g id="edge1_Node000001_Node000002" class="edge">
<title>Node1&#45;&gt;Node2</title>
<g id="a_edge1_Node000001_Node000002"><a xlink:title=" ">
<path fill="none" stroke="#63b8ff" d="M305.14,-337.95C256.33,-327.8 192.55,-313.47 136.88,-297.5 131.33,-295.91 125.58,-294.13 119.86,-292.28"/>
<polygon fill="#63b8ff" stroke="#63b8ff" points="304.27,-341.34 314.78,-339.93 305.69,-334.49 304.27,-341.34"/>
</a>
</g>
</g>
<!-- Node3 -->
<g id="Node000003" class="node">
<title>Node3</title>
<g id="a_Node000003"><a xlink:href="ConfFacility_8hpp.html" target="_top" xlink:title=" ">
<polygon fill="white" stroke="#666666" points="302,-291.88 145.75,-291.88 145.75,-250.12 302,-250.12 302,-291.88"/>
<text text-anchor="start" x="153.75" y="-278.38" font-family="Helvetica,sans-Serif" font-size="10.00">/github/workspace/dev</text>
<text text-anchor="start" x="153.75" y="-267.12" font-family="Helvetica,sans-Serif" font-size="10.00">_area/sourcecode/appfwk</text>
<text text-anchor="middle" x="223.88" y="-255.88" font-family="Helvetica,sans-Serif" font-size="10.00">/include/appfwk/ConfFacility.hpp</text>
</a>
</g>
</g>
<!-- Node1&#45;&gt;Node3 -->
<g id="edge2_Node000001_Node000003" class="edge">
<title>Node1&#45;&gt;Node3</title>
<g id="a_edge2_Node000001_Node000003"><a xlink:title=" ">
<path fill="none" stroke="#63b8ff" d="M333.85,-327.93C311.32,-316.47 285.08,-303.13 263.88,-292.35"/>
<polygon fill="#63b8ff" stroke="#63b8ff" points="332.06,-330.95 342.56,-332.36 335.24,-324.71 332.06,-330.95"/>
</a>
</g>
</g>
<!-- Node5 -->
<g id="Node000005" class="node">
<title>Node5</title>
<g id="a_Node000005"><a xlink:href="Application_8hxx.html" target="_top" xlink:title=" ">
<polygon fill="white" stroke="#666666" points="447.75,-291.88 320,-291.88 320,-250.12 447.75,-250.12 447.75,-291.88"/>
<text text-anchor="start" x="328" y="-278.38" font-family="Helvetica,sans-Serif" font-size="10.00">/github/workspace/dev</text>
<text text-anchor="start" x="328" y="-267.12" font-family="Helvetica,sans-Serif" font-size="10.00">_area/sourcecode/appfwk</text>
<text text-anchor="middle" x="383.88" y="-255.88" font-family="Helvetica,sans-Serif" font-size="10.00">/src/detail/Application.hxx</text>
</a>
</g>
</g>
<!-- Node1&#45;&gt;Node5 -->
<g id="edge4_Node000001_Node000005" class="edge">
<title>Node1&#45;&gt;Node5</title>
<g id="a_edge4_Node000001_Node000005"><a xlink:title=" ">
<path fill="none" stroke="#63b8ff" d="M383.88,-322.02C383.88,-311.99 383.88,-301.17 383.88,-292.17"/>
<polygon fill="#63b8ff" stroke="#63b8ff" points="380.38,-321.75 383.88,-331.75 387.38,-321.75 380.38,-321.75"/>
</a>
</g>
</g>
<!-- Node6 -->
<g id="Node000006" class="node">
<title>Node6</title>
<g id="a_Node000006"><a xlink:href="DAQModuleManager_8hxx.html" target="_top" xlink:title=" ">
<polygon fill="white" stroke="#666666" points="634,-291.88 465.75,-291.88 465.75,-250.12 634,-250.12 634,-291.88"/>
<text text-anchor="start" x="473.75" y="-278.38" font-family="Helvetica,sans-Serif" font-size="10.00">/github/workspace/dev</text>
<text text-anchor="start" x="473.75" y="-267.12" font-family="Helvetica,sans-Serif" font-size="10.00">_area/sourcecode/appfwk</text>
<text text-anchor="middle" x="549.88" y="-255.88" font-family="Helvetica,sans-Serif" font-size="10.00">/src/detail/DAQModuleManager.hxx</text>
</a>
</g>
</g>
<!-- Node1&#45;&gt;Node6 -->
<g id="edge6_Node000001_Node000006" class="edge">
<title>Node1&#45;&gt;Node6</title>
<g id="a_edge6_Node000001_Node000006"><a xlink:title=" ">
<path fill="none" stroke="#63b8ff" d="M435.46,-328.09C458.9,-316.59 486.28,-303.18 508.37,-292.35"/>
<polygon fill="#63b8ff" stroke="#63b8ff" points="434.13,-324.84 426.69,-332.38 437.21,-331.13 434.13,-324.84"/>
</a>
</g>
</g>
<!-- Node8 -->
<g id="Node000008" class="node">
<title>Node8</title>
<g id="a_Node000008"><a xlink:href="DefaultRequestHandlerModel_8hpp.html" target="_top" xlink:title=" ">
<polygon fill="white" stroke="#666666" points="917.75,-297.5 754,-297.5 754,-244.5 917.75,-244.5 917.75,-297.5"/>
<text text-anchor="start" x="762" y="-284" font-family="Helvetica,sans-Serif" font-size="10.00">/github/workspace/dev</text>
<text text-anchor="start" x="762" y="-272.75" font-family="Helvetica,sans-Serif" font-size="10.00">_area/sourcecode/readoutlibs</text>
<text text-anchor="start" x="762" y="-261.5" font-family="Helvetica,sans-Serif" font-size="10.00">/include/readoutlibs/models</text>
<text text-anchor="middle" x="835.88" y="-250.25" font-family="Helvetica,sans-Serif" font-size="10.00">/DefaultRequestHandlerModel.hpp</text>
</a>
</g>
</g>
<!-- Node1&#45;&gt;Node8 -->
<g id="edge9_Node000001_Node000008" class="edge">
<title>Node1&#45;&gt;Node8</title>
<g id="a_edge9_Node000001_Node000008"><a xlink:title=" ">
<path fill="none" stroke="#63b8ff" d="M462.73,-339.18C544.21,-324.51 670.81,-301.72 753.54,-286.82"/>
<polygon fill="#63b8ff" stroke="#63b8ff" points="462.26,-335.71 453.03,-340.92 463.5,-342.6 462.26,-335.71"/>
</a>
</g>
</g>
<!-- Node4 -->
<g id="Node000004" class="node">
<title>Node4</title>
<g id="a_Node000004"><a xlink:href="sourcecode_2appfwk_2src_2Application_8hpp.html" target="_top" xlink:title=" ">
<polygon fill="white" stroke="#666666" points="315.75,-119.5 188,-119.5 188,-77.75 315.75,-77.75 315.75,-119.5"/>
<text text-anchor="start" x="196" y="-106" font-family="Helvetica,sans-Serif" font-size="10.00">/github/workspace/dev</text>
<text text-anchor="start" x="196" y="-94.75" font-family="Helvetica,sans-Serif" font-size="10.00">_area/sourcecode/appfwk</text>
<text text-anchor="middle" x="251.88" y="-83.5" font-family="Helvetica,sans-Serif" font-size="10.00">/src/Application.hpp</text>
</a>
</g>
</g>
<!-- Node3&#45;&gt;Node4 -->
<g id="edge3_Node000003_Node000004" class="edge">
<title>Node3&#45;&gt;Node4</title>
<g id="a_edge3_Node000003_Node000004"><a xlink:title=" ">
<path fill="none" stroke="#63b8ff" d="M229.06,-238.43C234.76,-203.76 243.74,-149.13 248.56,-119.81"/>
<polygon fill="#63b8ff" stroke="#63b8ff" points="225.61,-237.86 227.44,-248.29 232.52,-238.99 225.61,-237.86"/>
</a>
</g>
</g>
<!-- Node5&#45;&gt;Node4 -->
<g id="edge5_Node000005_Node000004" class="edge">
<title>Node5&#45;&gt;Node4</title>
<g id="a_edge5_Node000005_Node000004"><a xlink:title=" ">
<path fill="none" stroke="#63b8ff" d="M332.77,-243.93C317.99,-234.42 302.89,-222.49 291.88,-208.5 270.95,-181.92 260.26,-143.34 255.39,-119.95"/>
<polygon fill="#63b8ff" stroke="#63b8ff" points="330.75,-246.8 341.11,-249.05 334.41,-240.83 330.75,-246.8"/>
</a>
</g>
</g>
<!-- Node7 -->
<g id="Node000007" class="node">
<title>Node7</title>
<g id="a_Node000007"><a xlink:href="DAQModuleManager_8hpp.html" target="_top" xlink:title=" ">
<polygon fill="white" stroke="#666666" points="444.62,-202.88 301.12,-202.88 301.12,-161.12 444.62,-161.12 444.62,-202.88"/>
<text text-anchor="start" x="309.12" y="-189.38" font-family="Helvetica,sans-Serif" font-size="10.00">/github/workspace/dev</text>
<text text-anchor="start" x="309.12" y="-178.12" font-family="Helvetica,sans-Serif" font-size="10.00">_area/sourcecode/appfwk</text>
<text text-anchor="middle" x="372.88" y="-166.88" font-family="Helvetica,sans-Serif" font-size="10.00">/src/DAQModuleManager.hpp</text>
</a>
</g>
</g>
<!-- Node6&#45;&gt;Node7 -->
<g id="edge7_Node000006_Node000007" class="edge">
<title>Node6&#45;&gt;Node7</title>
<g id="a_edge7_Node000006_Node000007"><a xlink:title=" ">
<path fill="none" stroke="#63b8ff" d="M498.49,-244.74C471.74,-231.59 439.46,-215.73 414.32,-203.37"/>
<polygon fill="#63b8ff" stroke="#63b8ff" points="496.95,-247.88 507.46,-249.15 500.03,-241.6 496.95,-247.88"/>
</a>
</g>
</g>
<!-- Node7&#45;&gt;Node4 -->
<g id="edge8_Node000007_Node000004" class="edge">
<title>Node7&#45;&gt;Node4</title>
<g id="a_edge8_Node000007_Node000004"><a xlink:title=" ">
<path fill="none" stroke="#63b8ff" d="M333.19,-154.31C316.58,-143.14 297.58,-130.36 282.13,-119.97"/>
<polygon fill="#63b8ff" stroke="#63b8ff" points="331.15,-157.15 341.4,-159.83 335.05,-151.35 331.15,-157.15"/>
</a>
</g>
</g>
<!-- Node9 -->
<g id="Node000009" class="node">
<title>Node9</title>
<g id="a_Node000009"><a xlink:href="DAPHNEListRequestHandler_8hpp.html" target="_top" xlink:title=" ">
<polygon fill="white" stroke="#666666" points="628.12,-208.5 463.62,-208.5 463.62,-155.5 628.12,-155.5 628.12,-208.5"/>
<text text-anchor="start" x="471.62" y="-195" font-family="Helvetica,sans-Serif" font-size="10.00">/github/workspace/dev</text>
<text text-anchor="start" x="471.62" y="-183.75" font-family="Helvetica,sans-Serif" font-size="10.00">_area/sourcecode/fdreadoutlibs</text>
<text text-anchor="start" x="471.62" y="-172.5" font-family="Helvetica,sans-Serif" font-size="10.00">/include/fdreadoutlibs/daphne</text>
<text text-anchor="middle" x="545.88" y="-161.25" font-family="Helvetica,sans-Serif" font-size="10.00">/DAPHNEListRequestHandler.hpp</text>
</a>
</g>
</g>
<!-- Node8&#45;&gt;Node9 -->
<g id="edge10_Node000008_Node000009" class="edge">
<title>Node8&#45;&gt;Node9</title>
<g id="a_edge10_Node000008_Node000009"><a xlink:title=" ">
<path fill="none" stroke="#63b8ff" d="M742.81,-242.08C706.03,-231.05 664.1,-218.47 628.41,-207.76"/>
<polygon fill="#63b8ff" stroke="#63b8ff" points="741.51,-245.35 752.1,-244.87 743.53,-238.64 741.51,-245.35"/>
</a>
</g>
</g>
<!-- Node12 -->
<g id="Node000012" class="node">
<title>Node12</title>
<g id="a_Node000012"><a xlink:href="DefaultSkipListRequestHandler_8hpp.html" target="_top" xlink:title=" ">
<polygon fill="white" stroke="#666666" points="819.62,-208.5 646.12,-208.5 646.12,-155.5 819.62,-155.5 819.62,-208.5"/>
<text text-anchor="start" x="654.12" y="-195" font-family="Helvetica,sans-Serif" font-size="10.00">/github/workspace/dev</text>
<text text-anchor="start" x="654.12" y="-183.75" font-family="Helvetica,sans-Serif" font-size="10.00">_area/sourcecode/readoutlibs</text>
<text text-anchor="start" x="654.12" y="-172.5" font-family="Helvetica,sans-Serif" font-size="10.00">/include/readoutlibs/models</text>
<text text-anchor="middle" x="732.88" y="-161.25" font-family="Helvetica,sans-Serif" font-size="10.00">/DefaultSkipListRequestHandler.hpp</text>
</a>
</g>
</g>
<!-- Node8&#45;&gt;Node12 -->
<g id="edge13_Node000008_Node000012" class="edge">
<title>Node8&#45;&gt;Node12</title>
<g id="a_edge13_Node000008_Node000012"><a xlink:title=" ">
<path fill="none" stroke="#63b8ff" d="M796.67,-236.88C785.71,-227.62 773.95,-217.7 763.56,-208.92"/>
<polygon fill="#63b8ff" stroke="#63b8ff" points="794.2,-239.38 804.09,-243.16 798.71,-234.03 794.2,-239.38"/>
</a>
</g>
</g>
<!-- Node15 -->
<g id="Node000015" class="node">
<title>Node15</title>
<g id="a_Node000015"><a xlink:href="EmptyFragmentRequestHandlerModel_8hpp.html" target="_top" xlink:title=" ">
<polygon fill="white" stroke="#666666" points="1038.5,-208.5 837.25,-208.5 837.25,-155.5 1038.5,-155.5 1038.5,-208.5"/>
<text text-anchor="start" x="845.25" y="-195" font-family="Helvetica,sans-Serif" font-size="10.00">/github/workspace/dev</text>
<text text-anchor="start" x="845.25" y="-183.75" font-family="Helvetica,sans-Serif" font-size="10.00">_area/sourcecode/readoutlibs</text>
<text text-anchor="start" x="845.25" y="-172.5" font-family="Helvetica,sans-Serif" font-size="10.00">/include/readoutlibs/models</text>
<text text-anchor="middle" x="937.88" y="-161.25" font-family="Helvetica,sans-Serif" font-size="10.00">/EmptyFragmentRequestHandlerModel.hpp</text>
</a>
</g>
</g>
<!-- Node8&#45;&gt;Node15 -->
<g id="edge16_Node000008_Node000015" class="edge">
<title>Node8&#45;&gt;Node15</title>
<g id="a_edge16_Node000008_Node000015"><a xlink:title=" ">
<path fill="none" stroke="#63b8ff" d="M874.7,-236.88C885.56,-227.62 897.2,-217.7 907.49,-208.92"/>
<polygon fill="#63b8ff" stroke="#63b8ff" points="872.69,-234 867.35,-243.15 877.23,-239.32 872.69,-234"/>
</a>
</g>
</g>
<!-- Node16 -->
<g id="Node000016" class="node">
<title>Node16</title>
<g id="a_Node000016"><a xlink:href="Readoutlibs_8cpp.html" target="_top" xlink:title=" ">
<polygon fill="white" stroke="#666666" points="1138.62,-119.5 995.12,-119.5 995.12,-77.75 1138.62,-77.75 1138.62,-119.5"/>
<text text-anchor="start" x="1003.12" y="-106" font-family="Helvetica,sans-Serif" font-size="10.00">/github/workspace/dev</text>
<text text-anchor="start" x="1003.12" y="-94.75" font-family="Helvetica,sans-Serif" font-size="10.00">_area/sourcecode/readoutlibs</text>
<text text-anchor="middle" x="1066.88" y="-83.5" font-family="Helvetica,sans-Serif" font-size="10.00">/src/Readoutlibs.cpp</text>
</a>
</g>
</g>
<!-- Node8&#45;&gt;Node16 -->
<g id="edge20_Node000008_Node000016" class="edge">
<title>Node8&#45;&gt;Node16</title>
<g id="a_edge20_Node000008_Node000016"><a xlink:title=" ">
<path fill="none" stroke="#63b8ff" d="M929.24,-264.8C971.25,-257.56 1018,-241.84 1047.88,-208.5 1069.77,-184.06 1070.89,-143.69 1069.22,-119.58"/>
<polygon fill="#63b8ff" stroke="#63b8ff" points="928.95,-261.3 919.61,-266.31 930.03,-268.22 928.95,-261.3"/>
</a>
</g>
</g>
<!-- Node17 -->
<g id="Node000017" class="node">
<title>Node17</title>
<g id="a_Node000017"><a xlink:href="ZeroCopyRecordingRequestHandlerModel_8hpp.html" target="_top" xlink:title=" ">
<polygon fill="white" stroke="#666666" points="1312.75,-208.5 1095,-208.5 1095,-155.5 1312.75,-155.5 1312.75,-208.5"/>
<text text-anchor="start" x="1103" y="-195" font-family="Helvetica,sans-Serif" font-size="10.00">/github/workspace/dev</text>
<text text-anchor="start" x="1103" y="-183.75" font-family="Helvetica,sans-Serif" font-size="10.00">_area/sourcecode/readoutlibs</text>
<text text-anchor="start" x="1103" y="-172.5" font-family="Helvetica,sans-Serif" font-size="10.00">/include/readoutlibs/models</text>
<text text-anchor="middle" x="1203.88" y="-161.25" font-family="Helvetica,sans-Serif" font-size="10.00">/ZeroCopyRecordingRequestHandlerModel.hpp</text>
</a>
</g>
</g>
<!-- Node8&#45;&gt;Node17 -->
<g id="edge18_Node000008_Node000017" class="edge">
<title>Node8&#45;&gt;Node17</title>
<g id="a_edge18_Node000008_Node000017"><a xlink:title=" ">
<path fill="none" stroke="#63b8ff" d="M928.9,-248.01C979.36,-236.08 1042.01,-221.27 1094.76,-208.8"/>
<polygon fill="#63b8ff" stroke="#63b8ff" points="928.4,-244.53 919.48,-250.24 930.01,-251.34 928.4,-244.53"/>
</a>
</g>
</g>
<!-- Node10 -->
<g id="Node000010" class="node">
<title>Node10</title>
<g id="a_Node000010"><a xlink:href="FDReadoutlibs_8cpp.html" target="_top" xlink:title=" ">
<polygon fill="white" stroke="#666666" points="485.75,-119.5 334,-119.5 334,-77.75 485.75,-77.75 485.75,-119.5"/>
<text text-anchor="start" x="342" y="-106" font-family="Helvetica,sans-Serif" font-size="10.00">/github/workspace/dev</text>
<text text-anchor="start" x="342" y="-94.75" font-family="Helvetica,sans-Serif" font-size="10.00">_area/sourcecode/fdreadoutlibs</text>
<text text-anchor="middle" x="409.88" y="-83.5" font-family="Helvetica,sans-Serif" font-size="10.00">/src/FDReadoutlibs.cpp</text>
</a>
</g>
</g>
<!-- Node9&#45;&gt;Node10 -->
<g id="edge11_Node000009_Node000010" class="edge">
<title>Node9&#45;&gt;Node10</title>
<g id="a_edge11_Node000009_Node000010"><a xlink:title=" ">
<path fill="none" stroke="#63b8ff" d="M492.93,-149.32C476.42,-139.44 458.67,-128.82 443.83,-119.94"/>
<polygon fill="#63b8ff" stroke="#63b8ff" points="490.79,-152.12 501.17,-154.25 494.39,-146.11 490.79,-152.12"/>
</a>
</g>
</g>
<!-- Node11 -->
<g id="Node000011" class="node">
<title>Node11</title>
<g id="a_Node000011"><a xlink:href="DAPHNEListRequestHandler_8cpp.html" target="_top" xlink:title=" ">
<polygon fill="white" stroke="#666666" points="719.62,-119.5 504.12,-119.5 504.12,-77.75 719.62,-77.75 719.62,-119.5"/>
<text text-anchor="start" x="512.12" y="-106" font-family="Helvetica,sans-Serif" font-size="10.00">/github/workspace/dev</text>
<text text-anchor="start" x="512.12" y="-94.75" font-family="Helvetica,sans-Serif" font-size="10.00">_area/sourcecode/fdreadoutlibs</text>
<text text-anchor="middle" x="611.88" y="-83.5" font-family="Helvetica,sans-Serif" font-size="10.00">/src/daphne/DAPHNEListRequestHandler.cpp</text>
</a>
</g>
</g>
<!-- Node9&#45;&gt;Node11 -->
<g id="edge12_Node000009_Node000011" class="edge">
<title>Node9&#45;&gt;Node11</title>
<g id="a_edge12_Node000009_Node000011"><a xlink:title=" ">
<path fill="none" stroke="#63b8ff" d="M573.95,-146.39C581.31,-137.31 589,-127.83 595.52,-119.79"/>
<polygon fill="#63b8ff" stroke="#63b8ff" points="571.29,-144.11 567.71,-154.08 576.73,-148.52 571.29,-144.11"/>
</a>
</g>
</g>
<!-- Node13 -->
<g id="Node000013" class="node">
<title>Node13</title>
<g id="a_Node000013"><a xlink:href="TPRequestHandler_8hpp.html" target="_top" xlink:title=" ">
<polygon fill="white" stroke="#666666" points="903.88,-119.5 737.88,-119.5 737.88,-77.75 903.88,-77.75 903.88,-119.5"/>
<text text-anchor="start" x="745.88" y="-106" font-family="Helvetica,sans-Serif" font-size="10.00">/github/workspace/dev</text>
<text text-anchor="start" x="745.88" y="-94.75" font-family="Helvetica,sans-Serif" font-size="10.00">_area/sourcecode/trigger</text>
<text text-anchor="middle" x="820.88" y="-83.5" font-family="Helvetica,sans-Serif" font-size="10.00">/src/trigger/TPRequestHandler.hpp</text>
</a>
</g>
</g>
<!-- Node12&#45;&gt;Node13 -->
<g id="edge14_Node000012_Node000013" class="edge">
<title>Node12&#45;&gt;Node13</title>
<g id="a_edge14_Node000012_Node000013"><a xlink:title=" ">
<path fill="none" stroke="#63b8ff" d="M769.08,-147.52C779.26,-138.11 790.01,-128.16 799.07,-119.79"/>
<polygon fill="#63b8ff" stroke="#63b8ff" points="766.8,-144.87 761.83,-154.22 771.55,-150.01 766.8,-144.87"/>
</a>
</g>
</g>
<!-- Node14 -->
<g id="Node000014" class="node">
<title>Node14</title>
<g id="a_Node000014"><a xlink:href="TPRequestHandler_8cpp.html" target="_top" xlink:title=" ">
<polygon fill="white" stroke="#666666" points="888.88,-41.75 752.88,-41.75 752.88,0 888.88,0 888.88,-41.75"/>
<text text-anchor="start" x="760.88" y="-28.25" font-family="Helvetica,sans-Serif" font-size="10.00">/github/workspace/dev</text>
<text text-anchor="start" x="760.88" y="-17" font-family="Helvetica,sans-Serif" font-size="10.00">_area/sourcecode/trigger</text>
<text text-anchor="middle" x="820.88" y="-5.75" font-family="Helvetica,sans-Serif" font-size="10.00">/src/TPRequestHandler.cpp</text>
</a>
</g>
</g>
<!-- Node13&#45;&gt;Node14 -->
<g id="edge15_Node000013_Node000014" class="edge">
<title>Node13&#45;&gt;Node14</title>
<g id="a_edge15_Node000013_Node000014"><a xlink:title=" ">
<path fill="none" stroke="#63b8ff" d="M820.88,-66C820.88,-57.96 820.88,-49.54 820.88,-42.23"/>
<polygon fill="#63b8ff" stroke="#63b8ff" points="817.38,-65.81 820.88,-75.81 824.38,-65.81 817.38,-65.81"/>
</a>
</g>
</g>
<!-- Node15&#45;&gt;Node16 -->
<g id="edge17_Node000015_Node000016" class="edge">
<title>Node15&#45;&gt;Node16</title>
<g id="a_edge17_Node000015_Node000016"><a xlink:title=" ">
<path fill="none" stroke="#63b8ff" d="M988.54,-149.04C1004.07,-139.24 1020.72,-128.74 1034.66,-119.94"/>
<polygon fill="#63b8ff" stroke="#63b8ff" points="986.92,-145.93 980.33,-154.22 990.65,-151.85 986.92,-145.93"/>
</a>
</g>
</g>
<!-- Node17&#45;&gt;Node16 -->
<g id="edge19_Node000017_Node000016" class="edge">
<title>Node17&#45;&gt;Node16</title>
<g id="a_edge19_Node000017_Node000016"><a xlink:title=" ">
<path fill="none" stroke="#63b8ff" d="M1150.54,-149.32C1133.91,-139.44 1116.03,-128.82 1101.08,-119.94"/>
<polygon fill="#63b8ff" stroke="#63b8ff" points="1148.46,-152.16 1158.85,-154.26 1152.04,-146.14 1148.46,-152.16"/>
</a>
</g>
</g>
</g>
</svg>
