<?xml version="1.0" encoding="UTF-8" standalone="no"?>
<!DOCTYPE svg PUBLIC "-//W3C//DTD SVG 1.1//EN"
 "http://www.w3.org/Graphics/SVG/1.1/DTD/svg11.dtd">
<!-- Generated by graphviz version 9.0.0 (20230911.1827)
 -->
<!-- Title: /github/workspace/dev_area/build/appfwk/codegen/include/appfwk/cmd/Nljs.hpp Pages: 1 -->
<svg width="627pt" height="283pt"
 viewBox="0.00 0.00 626.88 283.00" xmlns="http://www.w3.org/2000/svg" xmlns:xlink="http://www.w3.org/1999/xlink">
<g id="graph0" class="graph" transform="scale(1 1) rotate(0) translate(4 279)">
<title>/github/workspace/dev_area/build/appfwk/codegen/include/appfwk/cmd/Nljs.hpp</title>
<!-- Node1 -->
<g id="Node000001" class="node">
<title>Node1</title>
<g id="a_Node000001"><a xlink:title=" ">
<polygon fill="#999999" stroke="#666666" points="364,-275 219.75,-275 219.75,-233.25 364,-233.25 364,-275"/>
<text text-anchor="start" x="227.75" y="-261.5" font-family="Helvetica,sans-Serif" font-size="10.00">/github/workspace/dev</text>
<text text-anchor="start" x="227.75" y="-250.25" font-family="Helvetica,sans-Serif" font-size="10.00">_area/build/appfwk/codegen</text>
<text text-anchor="middle" x="291.88" y="-239" font-family="Helvetica,sans-Serif" font-size="10.00">/include/appfwk/cmd/Nljs.hpp</text>
</a>
</g>
</g>
<!-- Node2 -->
<g id="Node000002" class="node">
<title>Node2</title>
<g id="a_Node000002"><a xlink:href="Application_8hxx.html" target="_top" xlink:title=" ">
<polygon fill="white" stroke="#666666" points="127.75,-119.5 0,-119.5 0,-77.75 127.75,-77.75 127.75,-119.5"/>
<text text-anchor="start" x="8" y="-106" font-family="Helvetica,sans-Serif" font-size="10.00">/github/workspace/dev</text>
<text text-anchor="start" x="8" y="-94.75" font-family="Helvetica,sans-Serif" font-size="10.00">_area/sourcecode/appfwk</text>
<text text-anchor="middle" x="63.88" y="-83.5" font-family="Helvetica,sans-Serif" font-size="10.00">/src/detail/Application.hxx</text>
</a>
</g>
</g>
<!-- Node1&#45;&gt;Node2 -->
<g id="edge1_Node000001_Node000002" class="edge">
<title>Node1&#45;&gt;Node2</title>
<g id="a_edge1_Node000001_Node000002"><a xlink:title=" ">
<path fill="none" stroke="#63b8ff" d="M208.42,-241.17C176.05,-233.12 140.45,-219.67 113.88,-197.25 89.71,-176.87 75.86,-141.87 69.11,-119.78"/>
<polygon fill="#63b8ff" stroke="#63b8ff" points="207.25,-244.49 217.78,-243.35 208.84,-237.67 207.25,-244.49"/>
</a>
</g>
</g>
<!-- Node4 -->
<g id="Node000004" class="node">
<title>Node4</title>
<g id="a_Node000004"><a xlink:href="DAQModuleManager_8hxx.html" target="_top" xlink:title=" ">
<polygon fill="white" stroke="#666666" points="291,-197.25 122.75,-197.25 122.75,-155.5 291,-155.5 291,-197.25"/>
<text text-anchor="start" x="130.75" y="-183.75" font-family="Helvetica,sans-Serif" font-size="10.00">/github/workspace/dev</text>
<text text-anchor="start" x="130.75" y="-172.5" font-family="Helvetica,sans-Serif" font-size="10.00">_area/sourcecode/appfwk</text>
<text text-anchor="middle" x="206.88" y="-161.25" font-family="Helvetica,sans-Serif" font-size="10.00">/src/detail/DAQModuleManager.hxx</text>
</a>
</g>
</g>
<!-- Node1&#45;&gt;Node4 -->
<g id="edge3_Node000001_Node000004" class="edge">
<title>Node1&#45;&gt;Node4</title>
<g id="a_edge3_Node000001_Node000004"><a xlink:title=" ">
<path fill="none" stroke="#63b8ff" d="M260.75,-225.39C250.48,-216.23 239.25,-206.23 229.72,-197.73"/>
<polygon fill="#63b8ff" stroke="#63b8ff" points="258.17,-227.78 267.97,-231.82 262.83,-222.55 258.17,-227.78"/>
</a>
</g>
</g>
<!-- Node6 -->
<g id="Node000006" class="node">
<title>Node6</title>
<g id="a_Node000006"><a xlink:href="sourcecode_2timinglibs_2src_2TimingController_8cpp.html" target="_top" xlink:title=" ">
<polygon fill="white" stroke="#666666" points="446.62,-197.25 309.12,-197.25 309.12,-155.5 446.62,-155.5 446.62,-197.25"/>
<text text-anchor="start" x="317.12" y="-183.75" font-family="Helvetica,sans-Serif" font-size="10.00">/github/workspace/dev</text>
<text text-anchor="start" x="317.12" y="-172.5" font-family="Helvetica,sans-Serif" font-size="10.00">_area/sourcecode/timinglibs</text>
<text text-anchor="middle" x="377.88" y="-161.25" font-family="Helvetica,sans-Serif" font-size="10.00">/src/TimingController.cpp</text>
</a>
</g>
</g>
<!-- Node1&#45;&gt;Node6 -->
<g id="edge6_Node000001_Node000006" class="edge">
<title>Node1&#45;&gt;Node6</title>
<g id="a_edge6_Node000001_Node000006"><a xlink:title=" ">
<path fill="none" stroke="#63b8ff" d="M323.36,-225.39C333.76,-216.23 345.12,-206.23 354.76,-197.73"/>
<polygon fill="#63b8ff" stroke="#63b8ff" points="321.25,-222.59 316.06,-231.82 325.87,-227.84 321.25,-222.59"/>
</a>
</g>
</g>
<!-- Node7 -->
<g id="Node000007" class="node">
<title>Node7</title>
<g id="a_Node000007"><a xlink:href="sourcecode_2timinglibs_2src_2TimingMasterController_8cpp.html" target="_top" xlink:title=" ">
<polygon fill="white" stroke="#666666" points="618.88,-197.25 464.88,-197.25 464.88,-155.5 618.88,-155.5 618.88,-197.25"/>
<text text-anchor="start" x="472.88" y="-183.75" font-family="Helvetica,sans-Serif" font-size="10.00">/github/workspace/dev</text>
<text text-anchor="start" x="472.88" y="-172.5" font-family="Helvetica,sans-Serif" font-size="10.00">_area/sourcecode/timinglibs</text>
<text text-anchor="middle" x="541.88" y="-161.25" font-family="Helvetica,sans-Serif" font-size="10.00">/src/TimingMasterController.cpp</text>
</a>
</g>
</g>
<!-- Node1&#45;&gt;Node7 -->
<g id="edge7_Node000001_Node000007" class="edge">
<title>Node1&#45;&gt;Node7</title>
<g id="a_edge7_Node000001_Node000007"><a xlink:title=" ">
<path fill="none" stroke="#63b8ff" d="M369.6,-229.57C403.27,-219.37 442.3,-207.55 474.69,-197.73"/>
<polygon fill="#63b8ff" stroke="#63b8ff" points="368.87,-226.14 360.32,-232.39 370.9,-232.84 368.87,-226.14"/>
</a>
</g>
</g>
<!-- Node3 -->
<g id="Node000003" class="node">
<title>Node3</title>
<g id="a_Node000003"><a xlink:href="sourcecode_2appfwk_2src_2Application_8hpp.html" target="_top" xlink:title=" ">
<polygon fill="white" stroke="#666666" points="204.75,-41.75 77,-41.75 77,0 204.75,0 204.75,-41.75"/>
<text text-anchor="start" x="85" y="-28.25" font-family="Helvetica,sans-Serif" font-size="10.00">/github/workspace/dev</text>
<text text-anchor="start" x="85" y="-17" font-family="Helvetica,sans-Serif" font-size="10.00">_area/sourcecode/appfwk</text>
<text text-anchor="middle" x="140.88" y="-5.75" font-family="Helvetica,sans-Serif" font-size="10.00">/src/Application.hpp</text>
</a>
</g>
</g>
<!-- Node2&#45;&gt;Node3 -->
<g id="edge2_Node000002_Node000003" class="edge">
<title>Node2&#45;&gt;Node3</title>
<g id="a_edge2_Node000002_Node000003"><a xlink:title=" ">
<path fill="none" stroke="#63b8ff" d="M92.63,-69.34C101.78,-60.34 111.72,-50.56 120.18,-42.23"/>
<polygon fill="#63b8ff" stroke="#63b8ff" points="90.26,-66.76 85.59,-76.26 95.17,-71.75 90.26,-66.76"/>
</a>
</g>
</g>
<!-- Node5 -->
<g id="Node000005" class="node">
<title>Node5</title>
<g id="a_Node000005"><a xlink:href="DAQModuleManager_8hpp.html" target="_top" xlink:title=" ">
<polygon fill="white" stroke="#666666" points="289.62,-119.5 146.12,-119.5 146.12,-77.75 289.62,-77.75 289.62,-119.5"/>
<text text-anchor="start" x="154.12" y="-106" font-family="Helvetica,sans-Serif" font-size="10.00">/github/workspace/dev</text>
<text text-anchor="start" x="154.12" y="-94.75" font-family="Helvetica,sans-Serif" font-size="10.00">_area/sourcecode/appfwk</text>
<text text-anchor="middle" x="217.88" y="-83.5" font-family="Helvetica,sans-Serif" font-size="10.00">/src/DAQModuleManager.hpp</text>
</a>
</g>
</g>
<!-- Node4&#45;&gt;Node5 -->
<g id="edge4_Node000004_Node000005" class="edge">
<title>Node4&#45;&gt;Node5</title>
<g id="a_edge4_Node000004_Node000005"><a xlink:title=" ">
<path fill="none" stroke="#63b8ff" d="M211.47,-143.75C212.63,-135.71 213.86,-127.29 214.92,-119.98"/>
<polygon fill="#63b8ff" stroke="#63b8ff" points="208.01,-143.18 210.04,-153.58 214.94,-144.18 208.01,-143.18"/>
</a>
</g>
</g>
<!-- Node5&#45;&gt;Node3 -->
<g id="edge5_Node000005_Node000003" class="edge">
<title>Node5&#45;&gt;Node3</title>
<g id="a_edge5_Node000005_Node000003"><a xlink:title=" ">
<path fill="none" stroke="#63b8ff" d="M189.12,-69.34C179.97,-60.34 170.03,-50.56 161.57,-42.23"/>
<polygon fill="#63b8ff" stroke="#63b8ff" points="186.58,-71.75 196.16,-76.26 191.49,-66.76 186.58,-71.75"/>
</a>
</g>
</g>
</g>
</svg>
