<?xml version="1.0" encoding="UTF-8" standalone="no"?>
<!DOCTYPE svg PUBLIC "-//W3C//DTD SVG 1.1//EN"
 "http://www.w3.org/Graphics/SVG/1.1/DTD/svg11.dtd">
<!-- Generated by graphviz version 9.0.0 (20230911.1827)
 -->
<!-- Title: /github/workspace/dev_area/build/appfwk/codegen/include/appfwk/app/Nljs.hpp Pages: 1 -->
<svg width="447pt" height="238pt"
 viewBox="0.00 0.00 447.12 238.00" xmlns="http://www.w3.org/2000/svg" xmlns:xlink="http://www.w3.org/1999/xlink">
<g id="graph0" class="graph" transform="scale(1 1) rotate(0) translate(4 234)">
<title>/github/workspace/dev_area/build/appfwk/codegen/include/appfwk/app/Nljs.hpp</title>
<!-- Node1 -->
<g id="Node000001" class="node">
<title>Node1</title>
<g id="a_Node000001"><a xlink:title=" ">
<polygon fill="#999999" stroke="#666666" points="376.12,-230 234.88,-230 234.88,-188.25 376.12,-188.25 376.12,-230"/>
<text text-anchor="start" x="242.88" y="-216.5" font-family="Helvetica,sans-Serif" font-size="10.00">/github/workspace/dev</text>
<text text-anchor="start" x="242.88" y="-205.25" font-family="Helvetica,sans-Serif" font-size="10.00">_area/build/appfwk/codegen</text>
<text text-anchor="middle" x="305.5" y="-194" font-family="Helvetica,sans-Serif" font-size="10.00">/include/appfwk/app/Nljs.hpp</text>
</a>
</g>
</g>
<!-- Node2 -->
<g id="Node000002" class="node">
<title>Node2</title>
<g id="a_Node000002"><a xlink:href="appfwk_2codegen_2include_2appfwk_2app_2Structs_8hpp.html" target="_top" xlink:title=" ">
<polygon fill="white" stroke="#666666" points="168.88,-146.62 50.12,-146.62 50.12,-127.38 168.88,-127.38 168.88,-146.62"/>
<text text-anchor="middle" x="109.5" y="-133.12" font-family="Helvetica,sans-Serif" font-size="10.00">appfwk/app/Structs.hpp</text>
</a>
</g>
</g>
<!-- Node1&#45;&gt;Node2 -->
<g id="edge1_Node000001_Node000002" class="edge">
<title>Node1&#45;&gt;Node2</title>
<g id="a_edge1_Node000001_Node000002"><a xlink:title=" ">
<path fill="none" stroke="#63b8ff" d="M248.81,-187.84C215.57,-175.95 174.58,-161.28 145.69,-150.95"/>
<polygon fill="#63b8ff" stroke="#63b8ff" points="146.89,-147.66 136.3,-147.59 144.53,-154.25 146.89,-147.66"/>
</a>
</g>
</g>
<!-- Node5 -->
<g id="Node000005" class="node">
<title>Node5</title>
<g id="a_Node000005"><a xlink:title=" ">
<polygon fill="#e0e0e0" stroke="#999999" points="438,-19.25 341,-19.25 341,0 438,0 438,-19.25"/>
<text text-anchor="middle" x="389.5" y="-5.75" font-family="Helvetica,sans-Serif" font-size="10.00">nlohmann/json.hpp</text>
</a>
</g>
</g>
<!-- Node1&#45;&gt;Node5 -->
<g id="edge19_Node000001_Node000005" class="edge">
<title>Node1&#45;&gt;Node5</title>
<g id="a_edge19_Node000001_Node000005"><a xlink:title=" ">
<path fill="none" stroke="#63b8ff" d="M376.5,-191.98C397.11,-183.64 417.32,-171.09 429.5,-152.25 454.94,-112.88 423.37,-57.2 403.44,-28.81"/>
<polygon fill="#63b8ff" stroke="#63b8ff" points="406.37,-26.89 397.64,-20.89 400.72,-31.02 406.37,-26.89"/>
</a>
</g>
</g>
<!-- Node9 -->
<g id="Node000009" class="node">
<title>Node9</title>
<g id="a_Node000009"><a xlink:href="cmdlib_2codegen_2include_2cmdlib_2cmd_2Nljs_8hpp.html" target="_top" xlink:title=" ">
<polygon fill="white" stroke="#666666" points="420.75,-146.62 316.25,-146.62 316.25,-127.38 420.75,-127.38 420.75,-146.62"/>
<text text-anchor="middle" x="368.5" y="-133.12" font-family="Helvetica,sans-Serif" font-size="10.00">cmdlib/cmd/Nljs.hpp</text>
</a>
</g>
</g>
<!-- Node1&#45;&gt;Node9 -->
<g id="edge13_Node000001_Node000009" class="edge">
<title>Node1&#45;&gt;Node9</title>
<g id="a_edge13_Node000001_Node000009"><a xlink:title=" ">
<path fill="none" stroke="#63b8ff" d="M323.72,-187.84C332.98,-177.54 344.1,-165.16 352.95,-155.31"/>
<polygon fill="#63b8ff" stroke="#63b8ff" points="355.5,-157.71 359.58,-147.93 350.29,-153.03 355.5,-157.71"/>
</a>
</g>
</g>
<!-- Node10 -->
<g id="Node000010" class="node">
<title>Node10</title>
<g id="a_Node000010"><a xlink:href="iomanager_2codegen_2include_2iomanager_2connection_2Nljs_8hpp.html" target="_top" xlink:title=" ">
<polygon fill="white" stroke="#666666" points="298.12,-152.25 186.88,-152.25 186.88,-121.75 298.12,-121.75 298.12,-152.25"/>
<text text-anchor="start" x="194.88" y="-138.75" font-family="Helvetica,sans-Serif" font-size="10.00">iomanager/connection</text>
<text text-anchor="middle" x="242.5" y="-127.5" font-family="Helvetica,sans-Serif" font-size="10.00">/Nljs.hpp</text>
</a>
</g>
</g>
<!-- Node1&#45;&gt;Node10 -->
<g id="edge16_Node000001_Node000010" class="edge">
<title>Node1&#45;&gt;Node10</title>
<g id="a_edge16_Node000001_Node000010"><a xlink:title=" ">
<path fill="none" stroke="#63b8ff" d="M287.28,-187.84C279.73,-179.44 270.93,-169.64 263.14,-160.97"/>
<polygon fill="#63b8ff" stroke="#63b8ff" points="265.78,-158.68 256.49,-153.58 260.57,-163.35 265.78,-158.68"/>
</a>
</g>
</g>
<!-- Node3 -->
<g id="Node000003" class="node">
<title>Node3</title>
<g id="a_Node000003"><a xlink:title=" ">
<polygon fill="#e0e0e0" stroke="#999999" points="219.12,-19.25 173.88,-19.25 173.88,0 219.12,0 219.12,-19.25"/>
<text text-anchor="middle" x="196.5" y="-5.75" font-family="Helvetica,sans-Serif" font-size="10.00">cstdint</text>
</a>
</g>
</g>
<!-- Node2&#45;&gt;Node3 -->
<g id="edge2_Node000002_Node000003" class="edge">
<title>Node2&#45;&gt;Node3</title>
<g id="a_edge2_Node000002_Node000003"><a xlink:title=" ">
<path fill="none" stroke="#63b8ff" d="M127.89,-127.03C143.43,-118.52 165.07,-104.28 177.5,-85.75 188.5,-69.35 193.13,-47.07 195.08,-31.03"/>
<polygon fill="#63b8ff" stroke="#63b8ff" points="198.55,-31.53 196,-21.25 191.58,-30.88 198.55,-31.53"/>
</a>
</g>
</g>
<!-- Node4 -->
<g id="Node000004" class="node">
<title>Node4</title>
<g id="a_Node000004"><a xlink:href="cmdlib_2codegen_2include_2cmdlib_2cmd_2Structs_8hpp.html" target="_top" xlink:title=" ">
<polygon fill="white" stroke="#666666" points="342.88,-80.12 224.12,-80.12 224.12,-60.88 342.88,-60.88 342.88,-80.12"/>
<text text-anchor="middle" x="283.5" y="-66.62" font-family="Helvetica,sans-Serif" font-size="10.00">cmdlib/cmd/Structs.hpp</text>
</a>
</g>
</g>
<!-- Node2&#45;&gt;Node4 -->
<g id="edge3_Node000002_Node000004" class="edge">
<title>Node2&#45;&gt;Node4</title>
<g id="a_edge3_Node000002_Node000004"><a xlink:title=" ">
<path fill="none" stroke="#63b8ff" d="M134.06,-126.9C163.98,-115.8 214.74,-96.99 248.68,-84.41"/>
<polygon fill="#63b8ff" stroke="#63b8ff" points="249.48,-87.84 257.64,-81.08 247.05,-81.28 249.48,-87.84"/>
</a>
</g>
</g>
<!-- Node6 -->
<g id="Node000006" class="node">
<title>Node6</title>
<g id="a_Node000006"><a xlink:title=" ">
<polygon fill="#e0e0e0" stroke="#999999" points="132.5,-19.25 92.5,-19.25 92.5,0 132.5,0 132.5,-19.25"/>
<text text-anchor="middle" x="112.5" y="-5.75" font-family="Helvetica,sans-Serif" font-size="10.00">string</text>
</a>
</g>
</g>
<!-- Node2&#45;&gt;Node6 -->
<g id="edge12_Node000002_Node000006" class="edge">
<title>Node2&#45;&gt;Node6</title>
<g id="a_edge12_Node000002_Node000006"><a xlink:title=" ">
<path fill="none" stroke="#63b8ff" d="M91.01,-126.94C76.19,-118.54 56.44,-104.51 47.5,-85.75 41.67,-73.51 41.19,-67.24 47.5,-55.25 54.9,-41.2 68.93,-30.72 82.08,-23.46"/>
<polygon fill="#63b8ff" stroke="#63b8ff" points="83.57,-26.63 90.93,-19 80.42,-20.38 83.57,-26.63"/>
</a>
</g>
</g>
<!-- Node7 -->
<g id="Node000007" class="node">
<title>Node7</title>
<g id="a_Node000007"><a xlink:href="iomanager_2codegen_2include_2iomanager_2connection_2Structs_8hpp.html" target="_top" xlink:title=" ">
<polygon fill="white" stroke="#666666" points="168.12,-85.75 56.88,-85.75 56.88,-55.25 168.12,-55.25 168.12,-85.75"/>
<text text-anchor="start" x="64.88" y="-72.25" font-family="Helvetica,sans-Serif" font-size="10.00">iomanager/connection</text>
<text text-anchor="middle" x="112.5" y="-61" font-family="Helvetica,sans-Serif" font-size="10.00">/Structs.hpp</text>
</a>
</g>
</g>
<!-- Node2&#45;&gt;Node7 -->
<g id="edge7_Node000002_Node000007" class="edge">
<title>Node2&#45;&gt;Node7</title>
<g id="a_edge7_Node000002_Node000007"><a xlink:title=" ">
<path fill="none" stroke="#63b8ff" d="M109.92,-127.03C110.28,-119.29 110.82,-107.7 111.31,-97.12"/>
<polygon fill="#63b8ff" stroke="#63b8ff" points="114.79,-97.51 111.76,-87.36 107.8,-97.18 114.79,-97.51"/>
</a>
</g>
</g>
<!-- Node8 -->
<g id="Node000008" class="node">
<title>Node8</title>
<g id="a_Node000008"><a xlink:title=" ">
<polygon fill="#e0e0e0" stroke="#999999" points="43,-19.25 0,-19.25 0,0 43,0 43,-19.25"/>
<text text-anchor="middle" x="21.5" y="-5.75" font-family="Helvetica,sans-Serif" font-size="10.00">vector</text>
</a>
</g>
</g>
<!-- Node2&#45;&gt;Node8 -->
<g id="edge11_Node000002_Node000008" class="edge">
<title>Node2&#45;&gt;Node8</title>
<g id="a_edge11_Node000002_Node000008"><a xlink:title=" ">
<path fill="none" stroke="#63b8ff" d="M89.53,-126.98C73.29,-118.6 51.08,-104.59 38.5,-85.75 27.48,-69.25 23.53,-46.65 22.15,-30.56"/>
<polygon fill="#63b8ff" stroke="#63b8ff" points="25.65,-30.58 21.59,-20.8 18.67,-30.98 25.65,-30.58"/>
</a>
</g>
</g>
<!-- Node4&#45;&gt;Node3 -->
<g id="edge4_Node000004_Node000003" class="edge">
<title>Node4&#45;&gt;Node3</title>
<g id="a_edge4_Node000004_Node000003"><a xlink:title=" ">
<path fill="none" stroke="#63b8ff" d="M270.29,-60.56C256.75,-51.39 235.43,-36.97 219.18,-25.98"/>
<polygon fill="#63b8ff" stroke="#63b8ff" points="221.33,-23.21 211.09,-20.5 217.41,-29 221.33,-23.21"/>
</a>
</g>
</g>
<!-- Node4&#45;&gt;Node5 -->
<g id="edge5_Node000004_Node000005" class="edge">
<title>Node4&#45;&gt;Node5</title>
<g id="a_edge5_Node000004_Node000005"><a xlink:title=" ">
<path fill="none" stroke="#63b8ff" d="M299.6,-60.56C316.49,-51.18 343.3,-36.29 363.25,-25.2"/>
<polygon fill="#63b8ff" stroke="#63b8ff" points="364.88,-28.3 371.93,-20.39 361.48,-22.18 364.88,-28.3"/>
</a>
</g>
</g>
<!-- Node4&#45;&gt;Node6 -->
<g id="edge6_Node000004_Node000006" class="edge">
<title>Node4&#45;&gt;Node6</title>
<g id="a_edge6_Node000004_Node000006"><a xlink:title=" ">
<path fill="none" stroke="#63b8ff" d="M257.16,-60.43C226.57,-49.9 176.17,-32.54 143.66,-21.35"/>
<polygon fill="#63b8ff" stroke="#63b8ff" points="145,-18.11 134.4,-18.17 142.72,-24.73 145,-18.11"/>
</a>
</g>
</g>
<!-- Node7&#45;&gt;Node3 -->
<g id="edge8_Node000007_Node000003" class="edge">
<title>Node7&#45;&gt;Node3</title>
<g id="a_edge8_Node000007_Node000003"><a xlink:title=" ">
<path fill="none" stroke="#63b8ff" d="M133.26,-54.95C145.68,-46.24 161.47,-35.18 174.16,-26.28"/>
<polygon fill="#63b8ff" stroke="#63b8ff" points="176.13,-29.18 182.31,-20.57 172.11,-23.44 176.13,-29.18"/>
</a>
</g>
</g>
<!-- Node7&#45;&gt;Node6 -->
<g id="edge9_Node000007_Node000006" class="edge">
<title>Node7&#45;&gt;Node6</title>
<g id="a_edge9_Node000007_Node000006"><a xlink:title=" ">
<path fill="none" stroke="#63b8ff" d="M112.5,-54.95C112.5,-47.71 112.5,-38.84 112.5,-30.94"/>
<polygon fill="#63b8ff" stroke="#63b8ff" points="116,-31.21 112.5,-21.21 109,-31.21 116,-31.21"/>
</a>
</g>
</g>
<!-- Node7&#45;&gt;Node8 -->
<g id="edge10_Node000007_Node000008" class="edge">
<title>Node7&#45;&gt;Node8</title>
<g id="a_edge10_Node000007_Node000008"><a xlink:title=" ">
<path fill="none" stroke="#63b8ff" d="M90.01,-54.95C76.28,-46.07 58.77,-34.74 44.89,-25.76"/>
<polygon fill="#63b8ff" stroke="#63b8ff" points="47.1,-23.02 36.8,-20.52 43.29,-28.89 47.1,-23.02"/>
</a>
</g>
</g>
<!-- Node9&#45;&gt;Node4 -->
<g id="edge14_Node000009_Node000004" class="edge">
<title>Node9&#45;&gt;Node4</title>
<g id="a_edge14_Node000009_Node000004"><a xlink:title=" ">
<path fill="none" stroke="#63b8ff" d="M356.68,-127.03C343.18,-116.79 320.84,-99.84 304.39,-87.35"/>
<polygon fill="#63b8ff" stroke="#63b8ff" points="306.78,-84.77 296.7,-81.52 302.55,-90.35 306.78,-84.77"/>
</a>
</g>
</g>
<!-- Node9&#45;&gt;Node5 -->
<g id="edge15_Node000009_Node000005" class="edge">
<title>Node9&#45;&gt;Node5</title>
<g id="a_edge15_Node000009_Node000005"><a xlink:title=" ">
<path fill="none" stroke="#63b8ff" d="M372.13,-126.91C375.92,-116.98 381.7,-100.5 384.5,-85.75 388,-67.29 389.15,-45.87 389.48,-30.64"/>
<polygon fill="#63b8ff" stroke="#63b8ff" points="392.97,-31.05 389.58,-21.02 385.97,-30.98 392.97,-31.05"/>
</a>
</g>
</g>
<!-- Node10&#45;&gt;Node5 -->
<g id="edge18_Node000010_Node000005" class="edge">
<title>Node10&#45;&gt;Node5</title>
<g id="a_edge18_Node000010_Node000005"><a xlink:title=" ">
<path fill="none" stroke="#63b8ff" d="M291.77,-121.35C312.15,-113.39 334.85,-101.81 351.5,-85.75 367.42,-70.4 377.79,-46.96 383.62,-30.35"/>
<polygon fill="#63b8ff" stroke="#63b8ff" points="386.86,-31.71 386.6,-21.11 380.2,-29.55 386.86,-31.71"/>
</a>
</g>
</g>
<!-- Node10&#45;&gt;Node7 -->
<g id="edge17_Node000010_Node000007" class="edge">
<title>Node10&#45;&gt;Node7</title>
<g id="a_edge17_Node000010_Node000007"><a xlink:title=" ">
<path fill="none" stroke="#63b8ff" d="M213,-121.36C194.97,-112.42 171.67,-100.86 152.05,-91.12"/>
<polygon fill="#63b8ff" stroke="#63b8ff" points="153.75,-88.06 143.24,-86.75 150.64,-94.33 153.75,-88.06"/>
</a>
</g>
</g>
</g>
</svg>
