<?xml version="1.0" encoding="UTF-8" standalone="no"?>
<!DOCTYPE svg PUBLIC "-//W3C//DTD SVG 1.1//EN"
 "http://www.w3.org/Graphics/SVG/1.1/DTD/svg11.dtd">
<!-- Generated by graphviz version 9.0.0 (20230911.1827)
 -->
<!-- Title: /github/workspace/dev_area/build/appfwk/codegen/include/appfwk/appinfo/InfoStructs.hpp Pages: 1 -->
<svg width="196pt" height="283pt"
 viewBox="0.00 0.00 195.75 283.00" xmlns="http://www.w3.org/2000/svg" xmlns:xlink="http://www.w3.org/1999/xlink">
<g id="graph0" class="graph" transform="scale(1 1) rotate(0) translate(4 279)">
<title>/github/workspace/dev_area/build/appfwk/codegen/include/appfwk/appinfo/InfoStructs.hpp</title>
<!-- Node1 -->
<g id="Node000001" class="node">
<title>Node1</title>
<g id="a_Node000001"><a xlink:title=" ">
<polygon fill="#999999" stroke="#666666" points="187.75,-275 0,-275 0,-233.25 187.75,-233.25 187.75,-275"/>
<text text-anchor="start" x="8" y="-261.5" font-family="Helvetica,sans-Serif" font-size="10.00">/github/workspace/dev</text>
<text text-anchor="start" x="8" y="-250.25" font-family="Helvetica,sans-Serif" font-size="10.00">_area/build/appfwk/codegen</text>
<text text-anchor="middle" x="93.88" y="-239" font-family="Helvetica,sans-Serif" font-size="10.00">/include/appfwk/appinfo/InfoStructs.hpp</text>
</a>
</g>
</g>
<!-- Node2 -->
<g id="Node000002" class="node">
<title>Node2</title>
<g id="a_Node000002"><a xlink:href="appfwk_2codegen_2include_2appfwk_2appinfo_2InfoNljs_8hpp.html" target="_top" xlink:title=" ">
<polygon fill="white" stroke="#666666" points="180.62,-197.25 7.12,-197.25 7.12,-155.5 180.62,-155.5 180.62,-197.25"/>
<text text-anchor="start" x="15.12" y="-183.75" font-family="Helvetica,sans-Serif" font-size="10.00">/github/workspace/dev</text>
<text text-anchor="start" x="15.12" y="-172.5" font-family="Helvetica,sans-Serif" font-size="10.00">_area/build/appfwk/codegen</text>
<text text-anchor="middle" x="93.88" y="-161.25" font-family="Helvetica,sans-Serif" font-size="10.00">/include/appfwk/appinfo/InfoNljs.hpp</text>
</a>
</g>
</g>
<!-- Node1&#45;&gt;Node2 -->
<g id="edge1_Node000001_Node000002" class="edge">
<title>Node1&#45;&gt;Node2</title>
<g id="a_edge1_Node000001_Node000002"><a xlink:title=" ">
<path fill="none" stroke="#63b8ff" d="M93.88,-221.5C93.88,-213.46 93.88,-205.04 93.88,-197.73"/>
<polygon fill="#63b8ff" stroke="#63b8ff" points="90.38,-221.31 93.88,-231.31 97.38,-221.31 90.38,-221.31"/>
</a>
</g>
</g>
<!-- Node3 -->
<g id="Node000003" class="node">
<title>Node3</title>
<g id="a_Node000003"><a xlink:href="Application_8hxx.html" target="_top" xlink:title=" ">
<polygon fill="white" stroke="#666666" points="157.75,-119.5 30,-119.5 30,-77.75 157.75,-77.75 157.75,-119.5"/>
<text text-anchor="start" x="38" y="-106" font-family="Helvetica,sans-Serif" font-size="10.00">/github/workspace/dev</text>
<text text-anchor="start" x="38" y="-94.75" font-family="Helvetica,sans-Serif" font-size="10.00">_area/sourcecode/appfwk</text>
<text text-anchor="middle" x="93.88" y="-83.5" font-family="Helvetica,sans-Serif" font-size="10.00">/src/detail/Application.hxx</text>
</a>
</g>
</g>
<!-- Node2&#45;&gt;Node3 -->
<g id="edge2_Node000002_Node000003" class="edge">
<title>Node2&#45;&gt;Node3</title>
<g id="a_edge2_Node000002_Node000003"><a xlink:title=" ">
<path fill="none" stroke="#63b8ff" d="M93.88,-143.75C93.88,-135.71 93.88,-127.29 93.88,-119.98"/>
<polygon fill="#63b8ff" stroke="#63b8ff" points="90.38,-143.56 93.88,-153.56 97.38,-143.56 90.38,-143.56"/>
</a>
</g>
</g>
<!-- Node4 -->
<g id="Node000004" class="node">
<title>Node4</title>
<g id="a_Node000004"><a xlink:href="sourcecode_2appfwk_2src_2Application_8hpp.html" target="_top" xlink:title=" ">
<polygon fill="white" stroke="#666666" points="157.75,-41.75 30,-41.75 30,0 157.75,0 157.75,-41.75"/>
<text text-anchor="start" x="38" y="-28.25" font-family="Helvetica,sans-Serif" font-size="10.00">/github/workspace/dev</text>
<text text-anchor="start" x="38" y="-17" font-family="Helvetica,sans-Serif" font-size="10.00">_area/sourcecode/appfwk</text>
<text text-anchor="middle" x="93.88" y="-5.75" font-family="Helvetica,sans-Serif" font-size="10.00">/src/Application.hpp</text>
</a>
</g>
</g>
<!-- Node3&#45;&gt;Node4 -->
<g id="edge3_Node000003_Node000004" class="edge">
<title>Node3&#45;&gt;Node4</title>
<g id="a_edge3_Node000003_Node000004"><a xlink:title=" ">
<path fill="none" stroke="#63b8ff" d="M93.88,-66C93.88,-57.96 93.88,-49.54 93.88,-42.23"/>
<polygon fill="#63b8ff" stroke="#63b8ff" points="90.38,-65.81 93.88,-75.81 97.38,-65.81 90.38,-65.81"/>
</a>
</g>
</g>
</g>
</svg>
