<?xml version="1.0" encoding="UTF-8" standalone="no"?>
<!DOCTYPE svg PUBLIC "-//W3C//DTD SVG 1.1//EN"
 "http://www.w3.org/Graphics/SVG/1.1/DTD/svg11.dtd">
<!-- Generated by graphviz version 9.0.0 (20230911.1827)
 -->
<!-- Title: /github/workspace/dev_area/build/appfwk/codegen/include/appfwk/app/Structs.hpp Pages: 1 -->
<svg width="929pt" height="361pt"
 viewBox="0.00 0.00 928.88 360.75" xmlns="http://www.w3.org/2000/svg" xmlns:xlink="http://www.w3.org/1999/xlink">
<g id="graph0" class="graph" transform="scale(1 1) rotate(0) translate(4 356.75)">
<title>/github/workspace/dev_area/build/appfwk/codegen/include/appfwk/app/Structs.hpp</title>
<!-- Node1 -->
<g id="Node000001" class="node">
<title>Node1</title>
<g id="a_Node000001"><a xlink:title=" ">
<polygon fill="#999999" stroke="#666666" points="605.5,-352.75 450,-352.75 450,-311 605.5,-311 605.5,-352.75"/>
<text text-anchor="start" x="458" y="-339.25" font-family="Helvetica,sans-Serif" font-size="10.00">/github/workspace/dev</text>
<text text-anchor="start" x="458" y="-328" font-family="Helvetica,sans-Serif" font-size="10.00">_area/build/appfwk/codegen</text>
<text text-anchor="middle" x="527.75" y="-316.75" font-family="Helvetica,sans-Serif" font-size="10.00">/include/appfwk/app/Structs.hpp</text>
</a>
</g>
</g>
<!-- Node2 -->
<g id="Node000002" class="node">
<title>Node2</title>
<g id="a_Node000002"><a xlink:href="appfwk_2codegen_2include_2appfwk_2app_2Nljs_8hpp.html" target="_top" xlink:title=" ">
<polygon fill="white" stroke="#666666" points="549.38,-275 408.12,-275 408.12,-233.25 549.38,-233.25 549.38,-275"/>
<text text-anchor="start" x="416.12" y="-261.5" font-family="Helvetica,sans-Serif" font-size="10.00">/github/workspace/dev</text>
<text text-anchor="start" x="416.12" y="-250.25" font-family="Helvetica,sans-Serif" font-size="10.00">_area/build/appfwk/codegen</text>
<text text-anchor="middle" x="478.75" y="-239" font-family="Helvetica,sans-Serif" font-size="10.00">/include/appfwk/app/Nljs.hpp</text>
</a>
</g>
</g>
<!-- Node1&#45;&gt;Node2 -->
<g id="edge1_Node000001_Node000002" class="edge">
<title>Node1&#45;&gt;Node2</title>
<g id="a_edge1_Node000001_Node000002"><a xlink:title=" ">
<path fill="none" stroke="#63b8ff" d="M508.38,-300.93C502.86,-292.39 496.97,-283.3 491.92,-275.48"/>
<polygon fill="#63b8ff" stroke="#63b8ff" points="505.43,-302.81 513.8,-309.3 511.3,-299.01 505.43,-302.81"/>
</a>
</g>
</g>
<!-- Node4 -->
<g id="Node000004" class="node">
<title>Node4</title>
<g id="a_Node000004"><a xlink:href="DAQModuleManager_8hpp.html" target="_top" xlink:title=" ">
<polygon fill="white" stroke="#666666" points="143.5,-119.5 0,-119.5 0,-77.75 143.5,-77.75 143.5,-119.5"/>
<text text-anchor="start" x="8" y="-106" font-family="Helvetica,sans-Serif" font-size="10.00">/github/workspace/dev</text>
<text text-anchor="start" x="8" y="-94.75" font-family="Helvetica,sans-Serif" font-size="10.00">_area/sourcecode/appfwk</text>
<text text-anchor="middle" x="71.75" y="-83.5" font-family="Helvetica,sans-Serif" font-size="10.00">/src/DAQModuleManager.hpp</text>
</a>
</g>
</g>
<!-- Node1&#45;&gt;Node4 -->
<g id="edge13_Node000001_Node000004" class="edge">
<title>Node1&#45;&gt;Node4</title>
<g id="a_edge13_Node000001_Node000004"><a xlink:title=" ">
<path fill="none" stroke="#63b8ff" d="M438.23,-319.61C309.86,-301.41 83.52,-261 34.75,-197.25 16.8,-173.79 36.71,-140.62 53.54,-119.63"/>
<polygon fill="#63b8ff" stroke="#63b8ff" points="437.69,-323.07 448.08,-320.99 438.66,-316.14 437.69,-323.07"/>
</a>
</g>
</g>
<!-- Node7 -->
<g id="Node000007" class="node">
<title>Node7</title>
<g id="a_Node000007"><a xlink:href="sourcecode_2timinglibs_2include_2timinglibs_2TimingController_8hpp.html" target="_top" xlink:title=" ">
<polygon fill="white" stroke="#666666" points="740.5,-197.25 555,-197.25 555,-155.5 740.5,-155.5 740.5,-197.25"/>
<text text-anchor="start" x="563" y="-183.75" font-family="Helvetica,sans-Serif" font-size="10.00">/github/workspace/dev</text>
<text text-anchor="start" x="563" y="-172.5" font-family="Helvetica,sans-Serif" font-size="10.00">_area/sourcecode/timinglibs</text>
<text text-anchor="middle" x="647.75" y="-161.25" font-family="Helvetica,sans-Serif" font-size="10.00">/include/timinglibs/TimingController.hpp</text>
</a>
</g>
</g>
<!-- Node1&#45;&gt;Node7 -->
<g id="edge14_Node000001_Node000007" class="edge">
<title>Node1&#45;&gt;Node7</title>
<g id="a_edge14_Node000001_Node000007"><a xlink:title=" ">
<path fill="none" stroke="#63b8ff" d="M550.39,-301.91C574.26,-271.39 611.21,-224.11 632.06,-197.45"/>
<polygon fill="#63b8ff" stroke="#63b8ff" points="547.77,-299.58 544.37,-309.62 553.29,-303.89 547.77,-299.58"/>
</a>
</g>
</g>
<!-- Node12 -->
<g id="Node000012" class="node">
<title>Node12</title>
<g id="a_Node000012"><a xlink:href="sourcecode_2timinglibs_2src_2TimingHardwareManager_8hpp.html" target="_top" xlink:title=" ">
<polygon fill="white" stroke="#666666" points="920.88,-197.25 758.62,-197.25 758.62,-155.5 920.88,-155.5 920.88,-197.25"/>
<text text-anchor="start" x="766.62" y="-183.75" font-family="Helvetica,sans-Serif" font-size="10.00">/github/workspace/dev</text>
<text text-anchor="start" x="766.62" y="-172.5" font-family="Helvetica,sans-Serif" font-size="10.00">_area/sourcecode/timinglibs</text>
<text text-anchor="middle" x="839.75" y="-161.25" font-family="Helvetica,sans-Serif" font-size="10.00">/src/TimingHardwareManager.hpp</text>
</a>
</g>
</g>
<!-- Node1&#45;&gt;Node12 -->
<g id="edge15_Node000001_Node000012" class="edge">
<title>Node1&#45;&gt;Node12</title>
<g id="a_edge15_Node000001_Node000012"><a xlink:title=" ">
<path fill="none" stroke="#63b8ff" d="M579.1,-305.61C640.49,-275.41 742.03,-225.45 798.55,-197.65"/>
<polygon fill="#63b8ff" stroke="#63b8ff" points="577.65,-302.43 570.22,-309.98 580.74,-308.71 577.65,-302.43"/>
</a>
</g>
</g>
<!-- Node3 -->
<g id="Node000003" class="node">
<title>Node3</title>
<g id="a_Node000003"><a xlink:href="DAQModuleManager_8hxx.html" target="_top" xlink:title=" ">
<polygon fill="white" stroke="#666666" points="211.88,-197.25 43.62,-197.25 43.62,-155.5 211.88,-155.5 211.88,-197.25"/>
<text text-anchor="start" x="51.62" y="-183.75" font-family="Helvetica,sans-Serif" font-size="10.00">/github/workspace/dev</text>
<text text-anchor="start" x="51.62" y="-172.5" font-family="Helvetica,sans-Serif" font-size="10.00">_area/sourcecode/appfwk</text>
<text text-anchor="middle" x="127.75" y="-161.25" font-family="Helvetica,sans-Serif" font-size="10.00">/src/detail/DAQModuleManager.hxx</text>
</a>
</g>
</g>
<!-- Node2&#45;&gt;Node3 -->
<g id="edge2_Node000002_Node000003" class="edge">
<title>Node2&#45;&gt;Node3</title>
<g id="a_edge2_Node000002_Node000003"><a xlink:title=" ">
<path fill="none" stroke="#63b8ff" d="M396.53,-235.38C341.1,-223.42 268.18,-207.68 212.28,-195.62"/>
<polygon fill="#63b8ff" stroke="#63b8ff" points="395.73,-238.79 406.24,-237.48 397.2,-231.95 395.73,-238.79"/>
</a>
</g>
</g>
<!-- Node6 -->
<g id="Node000006" class="node">
<title>Node6</title>
<g id="a_Node000006"><a xlink:href="sourcecode_2hsilibs_2src_2HSIEventSender_8cpp.html" target="_top" xlink:title=" ">
<polygon fill="white" stroke="#666666" points="355.88,-197.25 229.62,-197.25 229.62,-155.5 355.88,-155.5 355.88,-197.25"/>
<text text-anchor="start" x="237.62" y="-183.75" font-family="Helvetica,sans-Serif" font-size="10.00">/github/workspace/dev</text>
<text text-anchor="start" x="237.62" y="-172.5" font-family="Helvetica,sans-Serif" font-size="10.00">_area/sourcecode/hsilibs</text>
<text text-anchor="middle" x="292.75" y="-161.25" font-family="Helvetica,sans-Serif" font-size="10.00">/src/HSIEventSender.cpp</text>
</a>
</g>
</g>
<!-- Node2&#45;&gt;Node6 -->
<g id="edge5_Node000002_Node000006" class="edge">
<title>Node2&#45;&gt;Node6</title>
<g id="a_edge5_Node000002_Node000006"><a xlink:title=" ">
<path fill="none" stroke="#63b8ff" d="M418.31,-228.51C393.87,-218.56 366,-207.21 342.73,-197.73"/>
<polygon fill="#63b8ff" stroke="#63b8ff" points="416.92,-231.72 427.5,-232.25 419.56,-225.24 416.92,-231.72"/>
</a>
</g>
</g>
<!-- Node2&#45;&gt;Node7 -->
<g id="edge6_Node000002_Node000007" class="edge">
<title>Node2&#45;&gt;Node7</title>
<g id="a_edge6_Node000002_Node000007"><a xlink:title=" ">
<path fill="none" stroke="#63b8ff" d="M534.27,-228.24C556.33,-218.35 581.39,-207.12 602.34,-197.73"/>
<polygon fill="#63b8ff" stroke="#63b8ff" points="533.11,-224.92 525.42,-232.21 535.98,-231.31 533.11,-224.92"/>
</a>
</g>
</g>
<!-- Node11 -->
<g id="Node000011" class="node">
<title>Node11</title>
<g id="a_Node000011"><a xlink:href="sourcecode_2timinglibs_2src_2TimingHardwareInterface_8cpp.html" target="_top" xlink:title=" ">
<polygon fill="white" stroke="#666666" points="537.25,-197.25 374.25,-197.25 374.25,-155.5 537.25,-155.5 537.25,-197.25"/>
<text text-anchor="start" x="382.25" y="-183.75" font-family="Helvetica,sans-Serif" font-size="10.00">/github/workspace/dev</text>
<text text-anchor="start" x="382.25" y="-172.5" font-family="Helvetica,sans-Serif" font-size="10.00">_area/sourcecode/timinglibs</text>
<text text-anchor="middle" x="455.75" y="-161.25" font-family="Helvetica,sans-Serif" font-size="10.00">/src/TimingHardwareInterface.cpp</text>
</a>
</g>
</g>
<!-- Node2&#45;&gt;Node11 -->
<g id="edge10_Node000002_Node000011" class="edge">
<title>Node2&#45;&gt;Node11</title>
<g id="a_edge10_Node000002_Node000011"><a xlink:title=" ">
<path fill="none" stroke="#63b8ff" d="M469.32,-222.06C466.83,-213.86 464.2,-205.21 461.93,-197.73"/>
<polygon fill="#63b8ff" stroke="#63b8ff" points="465.89,-222.83 472.15,-231.38 472.59,-220.79 465.89,-222.83"/>
</a>
</g>
</g>
<!-- Node2&#45;&gt;Node12 -->
<g id="edge11_Node000002_Node000012" class="edge">
<title>Node2&#45;&gt;Node12</title>
<g id="a_edge11_Node000002_Node000012"><a xlink:title=" ">
<path fill="none" stroke="#63b8ff" d="M561.03,-236.47C614.78,-225.52 686.48,-210.76 749.75,-197.25 752.57,-196.65 755.43,-196.03 758.33,-195.41"/>
<polygon fill="#63b8ff" stroke="#63b8ff" points="560.43,-233.02 551.33,-238.45 561.83,-239.88 560.43,-233.02"/>
</a>
</g>
</g>
<!-- Node3&#45;&gt;Node4 -->
<g id="edge3_Node000003_Node000004" class="edge">
<title>Node3&#45;&gt;Node4</title>
<g id="a_edge3_Node000003_Node000004"><a xlink:title=" ">
<path fill="none" stroke="#63b8ff" d="M106.02,-145.98C99.59,-137.29 92.7,-127.97 86.8,-119.98"/>
<polygon fill="#63b8ff" stroke="#63b8ff" points="103.08,-147.9 111.84,-153.86 108.71,-143.74 103.08,-147.9"/>
</a>
</g>
</g>
<!-- Node5 -->
<g id="Node000005" class="node">
<title>Node5</title>
<g id="a_Node000005"><a xlink:href="sourcecode_2appfwk_2src_2Application_8hpp.html" target="_top" xlink:title=" ">
<polygon fill="white" stroke="#666666" points="135.62,-41.75 7.88,-41.75 7.88,0 135.62,0 135.62,-41.75"/>
<text text-anchor="start" x="15.88" y="-28.25" font-family="Helvetica,sans-Serif" font-size="10.00">/github/workspace/dev</text>
<text text-anchor="start" x="15.88" y="-17" font-family="Helvetica,sans-Serif" font-size="10.00">_area/sourcecode/appfwk</text>
<text text-anchor="middle" x="71.75" y="-5.75" font-family="Helvetica,sans-Serif" font-size="10.00">/src/Application.hpp</text>
</a>
</g>
</g>
<!-- Node4&#45;&gt;Node5 -->
<g id="edge4_Node000004_Node000005" class="edge">
<title>Node4&#45;&gt;Node5</title>
<g id="a_edge4_Node000004_Node000005"><a xlink:title=" ">
<path fill="none" stroke="#63b8ff" d="M71.75,-66C71.75,-57.96 71.75,-49.54 71.75,-42.23"/>
<polygon fill="#63b8ff" stroke="#63b8ff" points="68.25,-65.81 71.75,-75.81 75.25,-65.81 68.25,-65.81"/>
</a>
</g>
</g>
<!-- Node8 -->
<g id="Node000008" class="node">
<title>Node8</title>
<g id="a_Node000008"><a xlink:href="sourcecode_2timinglibs_2src_2TimingController_8cpp.html" target="_top" xlink:title=" ">
<polygon fill="white" stroke="#666666" points="560.5,-119.5 423,-119.5 423,-77.75 560.5,-77.75 560.5,-119.5"/>
<text text-anchor="start" x="431" y="-106" font-family="Helvetica,sans-Serif" font-size="10.00">/github/workspace/dev</text>
<text text-anchor="start" x="431" y="-94.75" font-family="Helvetica,sans-Serif" font-size="10.00">_area/sourcecode/timinglibs</text>
<text text-anchor="middle" x="491.75" y="-83.5" font-family="Helvetica,sans-Serif" font-size="10.00">/src/TimingController.cpp</text>
</a>
</g>
</g>
<!-- Node7&#45;&gt;Node8 -->
<g id="edge7_Node000007_Node000008" class="edge">
<title>Node7&#45;&gt;Node8</title>
<g id="a_edge7_Node000007_Node000008"><a xlink:title=" ">
<path fill="none" stroke="#63b8ff" d="M595.67,-150.09C575.51,-140.3 552.75,-129.24 533.67,-119.98"/>
<polygon fill="#63b8ff" stroke="#63b8ff" points="594.06,-153.19 604.58,-154.41 597.12,-146.9 594.06,-153.19"/>
</a>
</g>
</g>
<!-- Node9 -->
<g id="Node000009" class="node">
<title>Node9</title>
<g id="a_Node000009"><a xlink:href="sourcecode_2timinglibs_2src_2TimingMasterController_8hpp.html" target="_top" xlink:title=" ">
<polygon fill="white" stroke="#666666" points="732.75,-119.5 578.75,-119.5 578.75,-77.75 732.75,-77.75 732.75,-119.5"/>
<text text-anchor="start" x="586.75" y="-106" font-family="Helvetica,sans-Serif" font-size="10.00">/github/workspace/dev</text>
<text text-anchor="start" x="586.75" y="-94.75" font-family="Helvetica,sans-Serif" font-size="10.00">_area/sourcecode/timinglibs</text>
<text text-anchor="middle" x="655.75" y="-83.5" font-family="Helvetica,sans-Serif" font-size="10.00">/src/TimingMasterController.hpp</text>
</a>
</g>
</g>
<!-- Node7&#45;&gt;Node9 -->
<g id="edge8_Node000007_Node000009" class="edge">
<title>Node7&#45;&gt;Node9</title>
<g id="a_edge8_Node000007_Node000009"><a xlink:title=" ">
<path fill="none" stroke="#63b8ff" d="M651.09,-143.75C651.94,-135.71 652.83,-127.29 653.6,-119.98"/>
<polygon fill="#63b8ff" stroke="#63b8ff" points="647.62,-143.26 650.05,-153.57 654.58,-143.99 647.62,-143.26"/>
</a>
</g>
</g>
<!-- Node10 -->
<g id="Node000010" class="node">
<title>Node10</title>
<g id="a_Node000010"><a xlink:href="sourcecode_2timinglibs_2src_2TimingMasterController_8cpp.html" target="_top" xlink:title=" ">
<polygon fill="white" stroke="#666666" points="732.75,-41.75 578.75,-41.75 578.75,0 732.75,0 732.75,-41.75"/>
<text text-anchor="start" x="586.75" y="-28.25" font-family="Helvetica,sans-Serif" font-size="10.00">/github/workspace/dev</text>
<text text-anchor="start" x="586.75" y="-17" font-family="Helvetica,sans-Serif" font-size="10.00">_area/sourcecode/timinglibs</text>
<text text-anchor="middle" x="655.75" y="-5.75" font-family="Helvetica,sans-Serif" font-size="10.00">/src/TimingMasterController.cpp</text>
</a>
</g>
</g>
<!-- Node9&#45;&gt;Node10 -->
<g id="edge9_Node000009_Node000010" class="edge">
<title>Node9&#45;&gt;Node10</title>
<g id="a_edge9_Node000009_Node000010"><a xlink:title=" ">
<path fill="none" stroke="#63b8ff" d="M655.75,-66C655.75,-57.96 655.75,-49.54 655.75,-42.23"/>
<polygon fill="#63b8ff" stroke="#63b8ff" points="652.25,-65.81 655.75,-75.81 659.25,-65.81 652.25,-65.81"/>
</a>
</g>
</g>
<!-- Node13 -->
<g id="Node000013" class="node">
<title>Node13</title>
<g id="a_Node000013"><a xlink:href="sourcecode_2timinglibs_2src_2TimingHardwareManager_8cpp.html" target="_top" xlink:title=" ">
<polygon fill="white" stroke="#666666" points="920.88,-119.5 758.62,-119.5 758.62,-77.75 920.88,-77.75 920.88,-119.5"/>
<text text-anchor="start" x="766.62" y="-106" font-family="Helvetica,sans-Serif" font-size="10.00">/github/workspace/dev</text>
<text text-anchor="start" x="766.62" y="-94.75" font-family="Helvetica,sans-Serif" font-size="10.00">_area/sourcecode/timinglibs</text>
<text text-anchor="middle" x="839.75" y="-83.5" font-family="Helvetica,sans-Serif" font-size="10.00">/src/TimingHardwareManager.cpp</text>
</a>
</g>
</g>
<!-- Node12&#45;&gt;Node13 -->
<g id="edge12_Node000012_Node000013" class="edge">
<title>Node12&#45;&gt;Node13</title>
<g id="a_edge12_Node000012_Node000013"><a xlink:title=" ">
<path fill="none" stroke="#63b8ff" d="M839.75,-143.75C839.75,-135.71 839.75,-127.29 839.75,-119.98"/>
<polygon fill="#63b8ff" stroke="#63b8ff" points="836.25,-143.56 839.75,-153.56 843.25,-143.56 836.25,-143.56"/>
</a>
</g>
</g>
</g>
</svg>
