<?xml version="1.0" encoding="UTF-8" standalone="no"?>
<!DOCTYPE svg PUBLIC "-//W3C//DTD SVG 1.1//EN"
 "http://www.w3.org/Graphics/SVG/1.1/DTD/svg11.dtd">
<!-- Generated by graphviz version 9.0.0 (20230911.1827)
 -->
<!-- Title: /github/workspace/dev_area/sourcecode/readoutlibs/include/readoutlibs/utils/BufferedFileWriter.hpp Pages: 1 -->
<svg width="1076pt" height="395pt"
 viewBox="0.00 0.00 1075.75 394.50" xmlns="http://www.w3.org/2000/svg" xmlns:xlink="http://www.w3.org/1999/xlink">
<g id="graph0" class="graph" transform="scale(1 1) rotate(0) translate(4 390.5)">
<title>/github/workspace/dev_area/sourcecode/readoutlibs/include/readoutlibs/utils/BufferedFileWriter.hpp</title>
<!-- Node1 -->
<g id="Node000001" class="node">
<title>Node1</title>
<g id="a_Node000001"><a xlink:title=" ">
<polygon fill="#999999" stroke="#666666" points="243.5,-386.5 100,-386.5 100,-333.5 243.5,-333.5 243.5,-386.5"/>
<text text-anchor="start" x="108" y="-373" font-family="Helvetica,sans-Serif" font-size="10.00">/github/workspace/dev</text>
<text text-anchor="start" x="108" y="-361.75" font-family="Helvetica,sans-Serif" font-size="10.00">_area/sourcecode/readoutlibs</text>
<text text-anchor="start" x="108" y="-350.5" font-family="Helvetica,sans-Serif" font-size="10.00">/include/readoutlibs/utils</text>
<text text-anchor="middle" x="171.75" y="-339.25" font-family="Helvetica,sans-Serif" font-size="10.00">/BufferedFileWriter.hpp</text>
</a>
</g>
</g>
<!-- Node2 -->
<g id="Node000002" class="node">
<title>Node2</title>
<g id="a_Node000002"><a xlink:href="RecorderConcept_8hpp.html" target="_top" xlink:title=" ">
<polygon fill="white" stroke="#666666" points="243.5,-297.5 100,-297.5 100,-244.5 243.5,-244.5 243.5,-297.5"/>
<text text-anchor="start" x="108" y="-284" font-family="Helvetica,sans-Serif" font-size="10.00">/github/workspace/dev</text>
<text text-anchor="start" x="108" y="-272.75" font-family="Helvetica,sans-Serif" font-size="10.00">_area/sourcecode/readoutlibs</text>
<text text-anchor="start" x="108" y="-261.5" font-family="Helvetica,sans-Serif" font-size="10.00">/include/readoutlibs/concepts</text>
<text text-anchor="middle" x="171.75" y="-250.25" font-family="Helvetica,sans-Serif" font-size="10.00">/RecorderConcept.hpp</text>
</a>
</g>
</g>
<!-- Node1&#45;&gt;Node2 -->
<g id="edge1_Node000001_Node000002" class="edge">
<title>Node1&#45;&gt;Node2</title>
<g id="a_edge1_Node000001_Node000002"><a xlink:title=" ">
<path fill="none" stroke="#63b8ff" d="M171.75,-322.11C171.75,-313.91 171.75,-305.39 171.75,-297.75"/>
<polygon fill="#63b8ff" stroke="#63b8ff" points="168.25,-321.85 171.75,-331.85 175.25,-321.85 168.25,-321.85"/>
</a>
</g>
</g>
<!-- Node3 -->
<g id="Node000003" class="node">
<title>Node3</title>
<g id="a_Node000003"><a xlink:href="RecorderModel_8hpp.html" target="_top" xlink:title=" ">
<polygon fill="white" stroke="#666666" points="143.5,-208.5 0,-208.5 0,-155.5 143.5,-155.5 143.5,-208.5"/>
<text text-anchor="start" x="8" y="-195" font-family="Helvetica,sans-Serif" font-size="10.00">/github/workspace/dev</text>
<text text-anchor="start" x="8" y="-183.75" font-family="Helvetica,sans-Serif" font-size="10.00">_area/sourcecode/readoutlibs</text>
<text text-anchor="start" x="8" y="-172.5" font-family="Helvetica,sans-Serif" font-size="10.00">/include/readoutlibs/models</text>
<text text-anchor="middle" x="71.75" y="-161.25" font-family="Helvetica,sans-Serif" font-size="10.00">/RecorderModel.hpp</text>
</a>
</g>
</g>
<!-- Node1&#45;&gt;Node3 -->
<g id="edge17_Node000001_Node000003" class="edge">
<title>Node1&#45;&gt;Node3</title>
<g id="a_edge17_Node000001_Node000003"><a xlink:title=" ">
<path fill="none" stroke="#63b8ff" d="M116.52,-326.2C106.58,-317.99 97.31,-308.37 90.75,-297.5 74.41,-270.41 70.96,-233.48 70.74,-208.97"/>
<polygon fill="#63b8ff" stroke="#63b8ff" points="114.12,-328.78 124.17,-332.13 118.41,-323.24 114.12,-328.78"/>
</a>
</g>
</g>
<!-- Node5 -->
<g id="Node000005" class="node">
<title>Node5</title>
<g id="a_Node000005"><a xlink:href="DefaultRequestHandlerModel_8hpp.html" target="_top" xlink:title=" ">
<polygon fill="white" stroke="#666666" points="536.62,-297.5 372.88,-297.5 372.88,-244.5 536.62,-244.5 536.62,-297.5"/>
<text text-anchor="start" x="380.88" y="-284" font-family="Helvetica,sans-Serif" font-size="10.00">/github/workspace/dev</text>
<text text-anchor="start" x="380.88" y="-272.75" font-family="Helvetica,sans-Serif" font-size="10.00">_area/sourcecode/readoutlibs</text>
<text text-anchor="start" x="380.88" y="-261.5" font-family="Helvetica,sans-Serif" font-size="10.00">/include/readoutlibs/models</text>
<text text-anchor="middle" x="454.75" y="-250.25" font-family="Helvetica,sans-Serif" font-size="10.00">/DefaultRequestHandlerModel.hpp</text>
</a>
</g>
</g>
<!-- Node1&#45;&gt;Node5 -->
<g id="edge5_Node000001_Node000005" class="edge">
<title>Node1&#45;&gt;Node5</title>
<g id="a_edge5_Node000001_Node000005"><a xlink:title=" ">
<path fill="none" stroke="#63b8ff" d="M254.68,-333.5C291.8,-322.1 335.44,-308.68 372.47,-297.29"/>
<polygon fill="#63b8ff" stroke="#63b8ff" points="253.87,-330.09 245.34,-336.38 255.93,-336.78 253.87,-330.09"/>
</a>
</g>
</g>
<!-- Node2&#45;&gt;Node3 -->
<g id="edge2_Node000002_Node000003" class="edge">
<title>Node2&#45;&gt;Node3</title>
<g id="a_edge2_Node000002_Node000003"><a xlink:title=" ">
<path fill="none" stroke="#63b8ff" d="M133.37,-236.61C122.82,-227.43 111.53,-217.61 101.54,-208.92"/>
<polygon fill="#63b8ff" stroke="#63b8ff" points="131.03,-239.22 140.88,-243.14 135.63,-233.94 131.03,-239.22"/>
</a>
</g>
</g>
<!-- Node4 -->
<g id="Node000004" class="node">
<title>Node4</title>
<g id="a_Node000004"><a xlink:href="Readoutlibs_8cpp.html" target="_top" xlink:title=" ">
<polygon fill="white" stroke="#666666" points="281.5,-119.5 138,-119.5 138,-77.75 281.5,-77.75 281.5,-119.5"/>
<text text-anchor="start" x="146" y="-106" font-family="Helvetica,sans-Serif" font-size="10.00">/github/workspace/dev</text>
<text text-anchor="start" x="146" y="-94.75" font-family="Helvetica,sans-Serif" font-size="10.00">_area/sourcecode/readoutlibs</text>
<text text-anchor="middle" x="209.75" y="-83.5" font-family="Helvetica,sans-Serif" font-size="10.00">/src/Readoutlibs.cpp</text>
</a>
</g>
</g>
<!-- Node2&#45;&gt;Node4 -->
<g id="edge4_Node000002_Node000004" class="edge">
<title>Node2&#45;&gt;Node4</title>
<g id="a_edge4_Node000002_Node000004"><a xlink:title=" ">
<path fill="none" stroke="#63b8ff" d="M179.14,-232.94C183.71,-210.49 189.82,-181.29 195.75,-155.5 198.48,-143.61 201.79,-130.36 204.51,-119.75"/>
<polygon fill="#63b8ff" stroke="#63b8ff" points="175.75,-232.04 177.2,-242.53 182.61,-233.43 175.75,-232.04"/>
</a>
</g>
</g>
<!-- Node3&#45;&gt;Node4 -->
<g id="edge3_Node000003_Node000004" class="edge">
<title>Node3&#45;&gt;Node4</title>
<g id="a_edge3_Node000003_Node000004"><a xlink:title=" ">
<path fill="none" stroke="#63b8ff" d="M125.48,-149.32C142.22,-139.44 160.24,-128.82 175.29,-119.94"/>
<polygon fill="#63b8ff" stroke="#63b8ff" points="123.93,-146.17 117.1,-154.26 127.49,-152.2 123.93,-146.17"/>
</a>
</g>
</g>
<!-- Node5&#45;&gt;Node4 -->
<g id="edge16_Node000005_Node000004" class="edge">
<title>Node5&#45;&gt;Node4</title>
<g id="a_edge16_Node000005_Node000004"><a xlink:title=" ">
<path fill="none" stroke="#63b8ff" d="M361.36,-254.97C307.54,-244.38 247.01,-228.54 228.75,-208.5 206.65,-184.25 205.6,-143.82 207.33,-119.64"/>
<polygon fill="#63b8ff" stroke="#63b8ff" points="360.41,-258.35 370.89,-256.8 361.73,-251.48 360.41,-258.35"/>
</a>
</g>
</g>
<!-- Node6 -->
<g id="Node000006" class="node">
<title>Node6</title>
<g id="a_Node000006"><a xlink:href="DAPHNEListRequestHandler_8hpp.html" target="_top" xlink:title=" ">
<polygon fill="white" stroke="#666666" points="858,-208.5 693.5,-208.5 693.5,-155.5 858,-155.5 858,-208.5"/>
<text text-anchor="start" x="701.5" y="-195" font-family="Helvetica,sans-Serif" font-size="10.00">/github/workspace/dev</text>
<text text-anchor="start" x="701.5" y="-183.75" font-family="Helvetica,sans-Serif" font-size="10.00">_area/sourcecode/fdreadoutlibs</text>
<text text-anchor="start" x="701.5" y="-172.5" font-family="Helvetica,sans-Serif" font-size="10.00">/include/fdreadoutlibs/daphne</text>
<text text-anchor="middle" x="775.75" y="-161.25" font-family="Helvetica,sans-Serif" font-size="10.00">/DAPHNEListRequestHandler.hpp</text>
</a>
</g>
</g>
<!-- Node5&#45;&gt;Node6 -->
<g id="edge6_Node000005_Node000006" class="edge">
<title>Node5&#45;&gt;Node6</title>
<g id="a_edge6_Node000005_Node000006"><a xlink:title=" ">
<path fill="none" stroke="#63b8ff" d="M548.06,-245.32C589.89,-234.19 639.83,-220.8 684.75,-208.5 687.6,-207.72 690.5,-206.92 693.42,-206.12"/>
<polygon fill="#63b8ff" stroke="#63b8ff" points="547.27,-241.91 538.51,-247.86 549.07,-248.67 547.27,-241.91"/>
</a>
</g>
</g>
<!-- Node9 -->
<g id="Node000009" class="node">
<title>Node9</title>
<g id="a_Node000009"><a xlink:href="DefaultSkipListRequestHandler_8hpp.html" target="_top" xlink:title=" ">
<polygon fill="white" stroke="#666666" points="1060.5,-208.5 887,-208.5 887,-155.5 1060.5,-155.5 1060.5,-208.5"/>
<text text-anchor="start" x="895" y="-195" font-family="Helvetica,sans-Serif" font-size="10.00">/github/workspace/dev</text>
<text text-anchor="start" x="895" y="-183.75" font-family="Helvetica,sans-Serif" font-size="10.00">_area/sourcecode/readoutlibs</text>
<text text-anchor="start" x="895" y="-172.5" font-family="Helvetica,sans-Serif" font-size="10.00">/include/readoutlibs/models</text>
<text text-anchor="middle" x="973.75" y="-161.25" font-family="Helvetica,sans-Serif" font-size="10.00">/DefaultSkipListRequestHandler.hpp</text>
</a>
</g>
</g>
<!-- Node5&#45;&gt;Node9 -->
<g id="edge9_Node000005_Node000009" class="edge">
<title>Node5&#45;&gt;Node9</title>
<g id="a_edge9_Node000005_Node000009"><a xlink:title=" ">
<path fill="none" stroke="#63b8ff" d="M548.07,-258.39C631.83,-247.42 757.97,-229.54 866.75,-208.5 873.22,-207.25 879.89,-205.87 886.58,-204.43"/>
<polygon fill="#63b8ff" stroke="#63b8ff" points="547.76,-254.9 538.29,-259.67 548.66,-261.85 547.76,-254.9"/>
</a>
</g>
</g>
<!-- Node12 -->
<g id="Node000012" class="node">
<title>Node12</title>
<g id="a_Node000012"><a xlink:href="EmptyFragmentRequestHandlerModel_8hpp.html" target="_top" xlink:title=" ">
<polygon fill="white" stroke="#666666" points="439.38,-208.5 238.12,-208.5 238.12,-155.5 439.38,-155.5 439.38,-208.5"/>
<text text-anchor="start" x="246.12" y="-195" font-family="Helvetica,sans-Serif" font-size="10.00">/github/workspace/dev</text>
<text text-anchor="start" x="246.12" y="-183.75" font-family="Helvetica,sans-Serif" font-size="10.00">_area/sourcecode/readoutlibs</text>
<text text-anchor="start" x="246.12" y="-172.5" font-family="Helvetica,sans-Serif" font-size="10.00">/include/readoutlibs/models</text>
<text text-anchor="middle" x="338.75" y="-161.25" font-family="Helvetica,sans-Serif" font-size="10.00">/EmptyFragmentRequestHandlerModel.hpp</text>
</a>
</g>
</g>
<!-- Node5&#45;&gt;Node12 -->
<g id="edge12_Node000005_Node000012" class="edge">
<title>Node5&#45;&gt;Node12</title>
<g id="a_edge12_Node000005_Node000012"><a xlink:title=" ">
<path fill="none" stroke="#63b8ff" d="M411.33,-237.43C398.77,-228.02 385.24,-217.87 373.31,-208.92"/>
<polygon fill="#63b8ff" stroke="#63b8ff" points="408.95,-240.02 419.05,-243.22 413.15,-234.42 408.95,-240.02"/>
</a>
</g>
</g>
<!-- Node13 -->
<g id="Node000013" class="node">
<title>Node13</title>
<g id="a_Node000013"><a xlink:href="ZeroCopyRecordingRequestHandlerModel_8hpp.html" target="_top" xlink:title=" ">
<polygon fill="white" stroke="#666666" points="675.62,-208.5 457.88,-208.5 457.88,-155.5 675.62,-155.5 675.62,-208.5"/>
<text text-anchor="start" x="465.88" y="-195" font-family="Helvetica,sans-Serif" font-size="10.00">/github/workspace/dev</text>
<text text-anchor="start" x="465.88" y="-183.75" font-family="Helvetica,sans-Serif" font-size="10.00">_area/sourcecode/readoutlibs</text>
<text text-anchor="start" x="465.88" y="-172.5" font-family="Helvetica,sans-Serif" font-size="10.00">/include/readoutlibs/models</text>
<text text-anchor="middle" x="566.75" y="-161.25" font-family="Helvetica,sans-Serif" font-size="10.00">/ZeroCopyRecordingRequestHandlerModel.hpp</text>
</a>
</g>
</g>
<!-- Node5&#45;&gt;Node13 -->
<g id="edge14_Node000005_Node000013" class="edge">
<title>Node5&#45;&gt;Node13</title>
<g id="a_edge14_Node000005_Node000013"><a xlink:title=" ">
<path fill="none" stroke="#63b8ff" d="M497.03,-237.16C509.05,-227.82 521.97,-217.78 533.38,-208.92"/>
<polygon fill="#63b8ff" stroke="#63b8ff" points="495,-234.31 489.25,-243.2 499.29,-239.83 495,-234.31"/>
</a>
</g>
</g>
<!-- Node7 -->
<g id="Node000007" class="node">
<title>Node7</title>
<g id="a_Node000007"><a xlink:href="FDReadoutlibs_8cpp.html" target="_top" xlink:title=" ">
<polygon fill="white" stroke="#666666" points="649.62,-119.5 497.88,-119.5 497.88,-77.75 649.62,-77.75 649.62,-119.5"/>
<text text-anchor="start" x="505.88" y="-106" font-family="Helvetica,sans-Serif" font-size="10.00">/github/workspace/dev</text>
<text text-anchor="start" x="505.88" y="-94.75" font-family="Helvetica,sans-Serif" font-size="10.00">_area/sourcecode/fdreadoutlibs</text>
<text text-anchor="middle" x="573.75" y="-83.5" font-family="Helvetica,sans-Serif" font-size="10.00">/src/FDReadoutlibs.cpp</text>
</a>
</g>
</g>
<!-- Node6&#45;&gt;Node7 -->
<g id="edge7_Node000006_Node000007" class="edge">
<title>Node6&#45;&gt;Node7</title>
<g id="a_edge7_Node000006_Node000007"><a xlink:title=" ">
<path fill="none" stroke="#63b8ff" d="M700.87,-150.84C675.31,-140.54 647.36,-129.28 624.19,-119.94"/>
<polygon fill="#63b8ff" stroke="#63b8ff" points="699.29,-153.97 709.88,-154.46 701.91,-147.48 699.29,-153.97"/>
</a>
</g>
</g>
<!-- Node8 -->
<g id="Node000008" class="node">
<title>Node8</title>
<g id="a_Node000008"><a xlink:href="DAPHNEListRequestHandler_8cpp.html" target="_top" xlink:title=" ">
<polygon fill="white" stroke="#666666" points="883.5,-119.5 668,-119.5 668,-77.75 883.5,-77.75 883.5,-119.5"/>
<text text-anchor="start" x="676" y="-106" font-family="Helvetica,sans-Serif" font-size="10.00">/github/workspace/dev</text>
<text text-anchor="start" x="676" y="-94.75" font-family="Helvetica,sans-Serif" font-size="10.00">_area/sourcecode/fdreadoutlibs</text>
<text text-anchor="middle" x="775.75" y="-83.5" font-family="Helvetica,sans-Serif" font-size="10.00">/src/daphne/DAPHNEListRequestHandler.cpp</text>
</a>
</g>
</g>
<!-- Node6&#45;&gt;Node8 -->
<g id="edge8_Node000006_Node000008" class="edge">
<title>Node6&#45;&gt;Node8</title>
<g id="a_edge8_Node000006_Node000008"><a xlink:title=" ">
<path fill="none" stroke="#63b8ff" d="M775.75,-143.83C775.75,-135.55 775.75,-127.08 775.75,-119.79"/>
<polygon fill="#63b8ff" stroke="#63b8ff" points="772.25,-143.74 775.75,-153.74 779.25,-143.74 772.25,-143.74"/>
</a>
</g>
</g>
<!-- Node10 -->
<g id="Node000010" class="node">
<title>Node10</title>
<g id="a_Node000010"><a xlink:href="TPRequestHandler_8hpp.html" target="_top" xlink:title=" ">
<polygon fill="white" stroke="#666666" points="1067.75,-119.5 901.75,-119.5 901.75,-77.75 1067.75,-77.75 1067.75,-119.5"/>
<text text-anchor="start" x="909.75" y="-106" font-family="Helvetica,sans-Serif" font-size="10.00">/github/workspace/dev</text>
<text text-anchor="start" x="909.75" y="-94.75" font-family="Helvetica,sans-Serif" font-size="10.00">_area/sourcecode/trigger</text>
<text text-anchor="middle" x="984.75" y="-83.5" font-family="Helvetica,sans-Serif" font-size="10.00">/src/trigger/TPRequestHandler.hpp</text>
</a>
</g>
</g>
<!-- Node9&#45;&gt;Node10 -->
<g id="edge10_Node000009_Node000010" class="edge">
<title>Node9&#45;&gt;Node10</title>
<g id="a_edge10_Node000009_Node000010"><a xlink:title=" ">
<path fill="none" stroke="#63b8ff" d="M978.74,-144.11C979.87,-135.74 981.03,-127.16 982.02,-119.79"/>
<polygon fill="#63b8ff" stroke="#63b8ff" points="975.3,-143.37 977.43,-153.75 982.24,-144.31 975.3,-143.37"/>
</a>
</g>
</g>
<!-- Node11 -->
<g id="Node000011" class="node">
<title>Node11</title>
<g id="a_Node000011"><a xlink:href="TPRequestHandler_8cpp.html" target="_top" xlink:title=" ">
<polygon fill="white" stroke="#666666" points="1052.75,-41.75 916.75,-41.75 916.75,0 1052.75,0 1052.75,-41.75"/>
<text text-anchor="start" x="924.75" y="-28.25" font-family="Helvetica,sans-Serif" font-size="10.00">/github/workspace/dev</text>
<text text-anchor="start" x="924.75" y="-17" font-family="Helvetica,sans-Serif" font-size="10.00">_area/sourcecode/trigger</text>
<text text-anchor="middle" x="984.75" y="-5.75" font-family="Helvetica,sans-Serif" font-size="10.00">/src/TPRequestHandler.cpp</text>
</a>
</g>
</g>
<!-- Node10&#45;&gt;Node11 -->
<g id="edge11_Node000010_Node000011" class="edge">
<title>Node10&#45;&gt;Node11</title>
<g id="a_edge11_Node000010_Node000011"><a xlink:title=" ">
<path fill="none" stroke="#63b8ff" d="M984.75,-66C984.75,-57.96 984.75,-49.54 984.75,-42.23"/>
<polygon fill="#63b8ff" stroke="#63b8ff" points="981.25,-65.81 984.75,-75.81 988.25,-65.81 981.25,-65.81"/>
</a>
</g>
</g>
<!-- Node12&#45;&gt;Node4 -->
<g id="edge13_Node000012_Node000004" class="edge">
<title>Node12&#45;&gt;Node4</title>
<g id="a_edge13_Node000012_Node000004"><a xlink:title=" ">
<path fill="none" stroke="#63b8ff" d="M288.09,-149.04C272.56,-139.24 255.9,-128.74 241.96,-119.94"/>
<polygon fill="#63b8ff" stroke="#63b8ff" points="285.97,-151.85 296.3,-154.22 289.71,-145.93 285.97,-151.85"/>
</a>
</g>
</g>
<!-- Node13&#45;&gt;Node4 -->
<g id="edge15_Node000013_Node000004" class="edge">
<title>Node13&#45;&gt;Node4</title>
<g id="a_edge15_Node000013_Node000004"><a xlink:title=" ">
<path fill="none" stroke="#63b8ff" d="M446.52,-153.6C391.86,-141.13 329,-126.81 281.79,-116.05"/>
<polygon fill="#63b8ff" stroke="#63b8ff" points="445.69,-157 456.22,-155.81 447.25,-150.17 445.69,-157"/>
</a>
</g>
</g>
</g>
</svg>
