<?xml version="1.0" encoding="UTF-8" standalone="no"?>
<!DOCTYPE svg PUBLIC "-//W3C//DTD SVG 1.1//EN"
 "http://www.w3.org/Graphics/SVG/1.1/DTD/svg11.dtd">
<!-- Generated by graphviz version 9.0.0 (20230911.1827)
 -->
<!-- Title: /github/workspace/dev_area/build/timinglibs/codegen/include/timinglibs/dal/HSIEventSender.hpp Pages: 1 -->
<svg width="602pt" height="239pt"
 viewBox="0.00 0.00 601.50 239.00" xmlns="http://www.w3.org/2000/svg" xmlns:xlink="http://www.w3.org/1999/xlink">
<g id="graph0" class="graph" transform="scale(1 1) rotate(0) translate(4 235)">
<title>/github/workspace/dev_area/build/timinglibs/codegen/include/timinglibs/dal/HSIEventSender.hpp</title>
<!-- Node1 -->
<g id="Node000001" class="node">
<title>Node1</title>
<g id="a_Node000001"><a xlink:title=" ">
<polygon fill="#999999" stroke="#666666" points="357.12,-231 223.38,-231 223.38,-178 357.12,-178 357.12,-231"/>
<text text-anchor="start" x="231.38" y="-217.5" font-family="Helvetica,sans-Serif" font-size="10.00">/github/workspace/dev</text>
<text text-anchor="start" x="231.38" y="-206.25" font-family="Helvetica,sans-Serif" font-size="10.00">_area/build/timinglibs</text>
<text text-anchor="start" x="231.38" y="-195" font-family="Helvetica,sans-Serif" font-size="10.00">/codegen/include/timinglibs</text>
<text text-anchor="middle" x="290.25" y="-183.75" font-family="Helvetica,sans-Serif" font-size="10.00">/dal/HSIEventSender.hpp</text>
</a>
</g>
</g>
<!-- Node2 -->
<g id="Node000002" class="node">
<title>Node2</title>
<g id="a_Node000002"><a xlink:href="include_2timinglibs_2dal_2HSIReadout_8hpp.html" target="_top" xlink:title=" ">
<polygon fill="white" stroke="#666666" points="207.12,-142 73.38,-142 73.38,-89 207.12,-89 207.12,-142"/>
<text text-anchor="start" x="81.38" y="-128.5" font-family="Helvetica,sans-Serif" font-size="10.00">/github/workspace/dev</text>
<text text-anchor="start" x="81.38" y="-117.25" font-family="Helvetica,sans-Serif" font-size="10.00">_area/build/timinglibs</text>
<text text-anchor="start" x="81.38" y="-106" font-family="Helvetica,sans-Serif" font-size="10.00">/codegen/include/timinglibs</text>
<text text-anchor="middle" x="140.25" y="-94.75" font-family="Helvetica,sans-Serif" font-size="10.00">/dal/HSIReadout.hpp</text>
</a>
</g>
</g>
<!-- Node1&#45;&gt;Node2 -->
<g id="edge1_Node000001_Node000002" class="edge">
<title>Node1&#45;&gt;Node2</title>
<g id="a_edge1_Node000001_Node000002"><a xlink:title=" ">
<path fill="none" stroke="#63b8ff" d="M235.99,-172.03C219.23,-162.31 200.97,-151.72 184.94,-142.42"/>
<polygon fill="#63b8ff" stroke="#63b8ff" points="233.94,-174.88 244.34,-176.87 237.45,-168.83 233.94,-174.88"/>
</a>
</g>
</g>
<!-- Node4 -->
<g id="Node000004" class="node">
<title>Node4</title>
<g id="a_Node000004"><a xlink:href="dump__dunedaq____timinglibs____dal_8cpp.html" target="_top" xlink:title=" ">
<polygon fill="white" stroke="#666666" points="305.88,-53 164.62,-53 164.62,0 305.88,0 305.88,-53"/>
<text text-anchor="start" x="172.62" y="-39.5" font-family="Helvetica,sans-Serif" font-size="10.00">/github/workspace/dev</text>
<text text-anchor="start" x="172.62" y="-28.25" font-family="Helvetica,sans-Serif" font-size="10.00">_area/build/timinglibs</text>
<text text-anchor="start" x="172.62" y="-17" font-family="Helvetica,sans-Serif" font-size="10.00">/codegen/src/dump_dunedaq</text>
<text text-anchor="middle" x="235.25" y="-5.75" font-family="Helvetica,sans-Serif" font-size="10.00">__timinglibs__dal.cpp</text>
</a>
</g>
</g>
<!-- Node1&#45;&gt;Node4 -->
<g id="edge6_Node000001_Node000004" class="edge">
<title>Node1&#45;&gt;Node4</title>
<g id="a_edge6_Node000001_Node000004"><a xlink:title=" ">
<path fill="none" stroke="#63b8ff" d="M266.51,-167.95C261.84,-159.7 257.42,-150.77 254.25,-142 243.63,-112.63 238.9,-76.85 236.83,-53.19"/>
<polygon fill="#63b8ff" stroke="#63b8ff" points="263.36,-169.49 271.48,-176.3 269.37,-165.92 263.36,-169.49"/>
</a>
</g>
</g>
<!-- Node5 -->
<g id="Node000005" class="node">
<title>Node5</title>
<g id="a_Node000005"><a xlink:href="build_2timinglibs_2codegen_2src_2HSIEventSender_8cpp.html" target="_top" xlink:title=" ">
<polygon fill="white" stroke="#666666" points="429.25,-136.38 263.25,-136.38 263.25,-94.62 429.25,-94.62 429.25,-136.38"/>
<text text-anchor="start" x="271.25" y="-122.88" font-family="Helvetica,sans-Serif" font-size="10.00">/github/workspace/dev</text>
<text text-anchor="start" x="271.25" y="-111.62" font-family="Helvetica,sans-Serif" font-size="10.00">_area/build/timinglibs</text>
<text text-anchor="middle" x="346.25" y="-100.38" font-family="Helvetica,sans-Serif" font-size="10.00">/codegen/src/HSIEventSender.cpp</text>
</a>
</g>
</g>
<!-- Node1&#45;&gt;Node5 -->
<g id="edge4_Node000001_Node000005" class="edge">
<title>Node1&#45;&gt;Node5</title>
<g id="a_edge4_Node000001_Node000005"><a xlink:title=" ">
<path fill="none" stroke="#63b8ff" d="M312.92,-168.28C319.83,-157.54 327.2,-146.1 333.24,-136.71"/>
<polygon fill="#63b8ff" stroke="#63b8ff" points="310.04,-166.29 307.57,-176.6 315.92,-170.08 310.04,-166.29"/>
</a>
</g>
</g>
<!-- Node6 -->
<g id="Node000006" class="node">
<title>Node6</title>
<g id="a_Node000006"><a xlink:href="src_2HSIReadout_8hpp.html" target="_top" xlink:title=" ">
<polygon fill="white" stroke="#666666" points="593.5,-136.38 447,-136.38 447,-94.62 593.5,-94.62 593.5,-136.38"/>
<text text-anchor="start" x="455" y="-122.88" font-family="Helvetica,sans-Serif" font-size="10.00">/github/workspace/dev</text>
<text text-anchor="start" x="455" y="-111.62" font-family="Helvetica,sans-Serif" font-size="10.00">_area/build/timinglibs</text>
<text text-anchor="middle" x="520.25" y="-100.38" font-family="Helvetica,sans-Serif" font-size="10.00">/codegen/src/HSIReadout.hpp</text>
</a>
</g>
</g>
<!-- Node1&#45;&gt;Node6 -->
<g id="edge5_Node000001_Node000006" class="edge">
<title>Node1&#45;&gt;Node6</title>
<g id="a_edge5_Node000001_Node000006"><a xlink:title=" ">
<path fill="none" stroke="#63b8ff" d="M367.76,-174.18C400.21,-161.9 437.14,-147.94 466.53,-136.82"/>
<polygon fill="#63b8ff" stroke="#63b8ff" points="366.92,-170.75 358.81,-177.57 369.4,-177.3 366.92,-170.75"/>
</a>
</g>
</g>
<!-- Node3 -->
<g id="Node000003" class="node">
<title>Node3</title>
<g id="a_Node000003"><a xlink:href="HSIReadout_8cpp.html" target="_top" xlink:title=" ">
<polygon fill="white" stroke="#666666" points="146.5,-47.38 0,-47.38 0,-5.62 146.5,-5.62 146.5,-47.38"/>
<text text-anchor="start" x="8" y="-33.88" font-family="Helvetica,sans-Serif" font-size="10.00">/github/workspace/dev</text>
<text text-anchor="start" x="8" y="-22.62" font-family="Helvetica,sans-Serif" font-size="10.00">_area/build/timinglibs</text>
<text text-anchor="middle" x="73.25" y="-11.38" font-family="Helvetica,sans-Serif" font-size="10.00">/codegen/src/HSIReadout.cpp</text>
</a>
</g>
</g>
<!-- Node2&#45;&gt;Node3 -->
<g id="edge2_Node000002_Node000003" class="edge">
<title>Node2&#45;&gt;Node3</title>
<g id="a_edge2_Node000002_Node000003"><a xlink:title=" ">
<path fill="none" stroke="#63b8ff" d="M113.63,-79.94C105.22,-69.01 96.19,-57.29 88.82,-47.71"/>
<polygon fill="#63b8ff" stroke="#63b8ff" points="110.71,-81.88 119.59,-87.67 116.26,-77.61 110.71,-81.88"/>
</a>
</g>
</g>
<!-- Node2&#45;&gt;Node4 -->
<g id="edge3_Node000002_Node000004" class="edge">
<title>Node2&#45;&gt;Node4</title>
<g id="a_edge3_Node000002_Node000004"><a xlink:title=" ">
<path fill="none" stroke="#63b8ff" d="M176.71,-81.11C186.74,-71.93 197.46,-62.11 206.95,-53.42"/>
<polygon fill="#63b8ff" stroke="#63b8ff" points="174.62,-78.28 169.61,-87.61 179.35,-83.44 174.62,-78.28"/>
</a>
</g>
</g>
</g>
</svg>
