<?xml version="1.0" encoding="UTF-8" standalone="no"?>
<!DOCTYPE svg PUBLIC "-//W3C//DTD SVG 1.1//EN"
 "http://www.w3.org/Graphics/SVG/1.1/DTD/svg11.dtd">
<!-- Generated by graphviz version 9.0.0 (20230911.1827)
 -->
<!-- Title: /github/workspace/dev_area/build/coredal/codegen/include/coredal/Queue.hpp Pages: 1 -->
<svg width="918pt" height="217pt"
 viewBox="0.00 0.00 918.38 216.50" xmlns="http://www.w3.org/2000/svg" xmlns:xlink="http://www.w3.org/1999/xlink">
<g id="graph0" class="graph" transform="scale(1 1) rotate(0) translate(4 212.5)">
<title>/github/workspace/dev_area/build/coredal/codegen/include/coredal/Queue.hpp</title>
<!-- Node1 -->
<g id="Node000001" class="node">
<title>Node1</title>
<g id="a_Node000001"><a xlink:title=" ">
<polygon fill="#999999" stroke="#666666" points="595.5,-208.5 458,-208.5 458,-166.75 595.5,-166.75 595.5,-208.5"/>
<text text-anchor="start" x="466" y="-195" font-family="Helvetica,sans-Serif" font-size="10.00">/github/workspace/dev</text>
<text text-anchor="start" x="466" y="-183.75" font-family="Helvetica,sans-Serif" font-size="10.00">_area/build/coredal/codegen</text>
<text text-anchor="middle" x="526.75" y="-172.5" font-family="Helvetica,sans-Serif" font-size="10.00">/include/coredal/Queue.hpp</text>
</a>
</g>
</g>
<!-- Node2 -->
<g id="Node000002" class="node">
<title>Node2</title>
<g id="a_Node000002"><a xlink:href="include_2coredal_2QueueWithId_8hpp.html" target="_top" xlink:title=" ">
<polygon fill="white" stroke="#666666" points="379.5,-130.75 218,-130.75 218,-89 379.5,-89 379.5,-130.75"/>
<text text-anchor="start" x="226" y="-117.25" font-family="Helvetica,sans-Serif" font-size="10.00">/github/workspace/dev</text>
<text text-anchor="start" x="226" y="-106" font-family="Helvetica,sans-Serif" font-size="10.00">_area/build/coredal/codegen</text>
<text text-anchor="middle" x="298.75" y="-94.75" font-family="Helvetica,sans-Serif" font-size="10.00">/include/coredal/QueueWithId.hpp</text>
</a>
</g>
</g>
<!-- Node1&#45;&gt;Node2 -->
<g id="edge1_Node000001_Node000002" class="edge">
<title>Node1&#45;&gt;Node2</title>
<g id="a_edge1_Node000001_Node000002"><a xlink:title=" ">
<path fill="none" stroke="#63b8ff" d="M455.07,-162.81C424.54,-152.67 389.3,-140.96 360.02,-131.23"/>
<polygon fill="#63b8ff" stroke="#63b8ff" points="453.62,-166.02 464.21,-165.85 455.83,-159.37 453.62,-166.02"/>
</a>
</g>
</g>
<!-- Node4 -->
<g id="Node000004" class="node">
<title>Node4</title>
<g id="a_Node000004"><a xlink:href="dump__dunedaq____coredal_8cpp.html" target="_top" xlink:title=" ">
<polygon fill="white" stroke="#666666" points="533.5,-47.38 372,-47.38 372,-5.62 533.5,-5.62 533.5,-47.38"/>
<text text-anchor="start" x="380" y="-33.88" font-family="Helvetica,sans-Serif" font-size="10.00">/github/workspace/dev</text>
<text text-anchor="start" x="380" y="-22.62" font-family="Helvetica,sans-Serif" font-size="10.00">_area/build/coredal/codegen</text>
<text text-anchor="middle" x="452.75" y="-11.38" font-family="Helvetica,sans-Serif" font-size="10.00">/src/dump_dunedaq__coredal.cpp</text>
</a>
</g>
</g>
<!-- Node1&#45;&gt;Node4 -->
<g id="edge7_Node000001_Node000004" class="edge">
<title>Node1&#45;&gt;Node4</title>
<g id="a_edge7_Node000001_Node000004"><a xlink:title=" ">
<path fill="none" stroke="#63b8ff" d="M474.72,-159.95C464.28,-152.04 454.7,-142.32 448.75,-130.75 435.31,-104.58 440.73,-69.57 446.36,-47.78"/>
<polygon fill="#63b8ff" stroke="#63b8ff" points="472.6,-162.74 482.81,-165.57 476.6,-156.99 472.6,-162.74"/>
</a>
</g>
</g>
<!-- Node6 -->
<g id="Node000006" class="node">
<title>Node6</title>
<g id="a_Node000006"><a xlink:href="Queue_8cpp.html" target="_top" xlink:title=" ">
<polygon fill="white" stroke="#666666" points="595.5,-130.75 458,-130.75 458,-89 595.5,-89 595.5,-130.75"/>
<text text-anchor="start" x="466" y="-117.25" font-family="Helvetica,sans-Serif" font-size="10.00">/github/workspace/dev</text>
<text text-anchor="start" x="466" y="-106" font-family="Helvetica,sans-Serif" font-size="10.00">_area/build/coredal/codegen</text>
<text text-anchor="middle" x="526.75" y="-94.75" font-family="Helvetica,sans-Serif" font-size="10.00">/src/Queue.cpp</text>
</a>
</g>
</g>
<!-- Node1&#45;&gt;Node6 -->
<g id="edge5_Node000001_Node000006" class="edge">
<title>Node1&#45;&gt;Node6</title>
<g id="a_edge5_Node000001_Node000006"><a xlink:title=" ">
<path fill="none" stroke="#63b8ff" d="M526.75,-155C526.75,-146.96 526.75,-138.54 526.75,-131.23"/>
<polygon fill="#63b8ff" stroke="#63b8ff" points="523.25,-154.81 526.75,-164.81 530.25,-154.81 523.25,-154.81"/>
</a>
</g>
</g>
<!-- Node7 -->
<g id="Node000007" class="node">
<title>Node7</title>
<g id="a_Node000007"><a xlink:href="src_2QueueWithId_8hpp.html" target="_top" xlink:title=" ">
<polygon fill="white" stroke="#666666" points="751.5,-130.75 614,-130.75 614,-89 751.5,-89 751.5,-130.75"/>
<text text-anchor="start" x="622" y="-117.25" font-family="Helvetica,sans-Serif" font-size="10.00">/github/workspace/dev</text>
<text text-anchor="start" x="622" y="-106" font-family="Helvetica,sans-Serif" font-size="10.00">_area/build/coredal/codegen</text>
<text text-anchor="middle" x="682.75" y="-94.75" font-family="Helvetica,sans-Serif" font-size="10.00">/src/QueueWithId.hpp</text>
</a>
</g>
</g>
<!-- Node1&#45;&gt;Node7 -->
<g id="edge6_Node000001_Node000007" class="edge">
<title>Node1&#45;&gt;Node7</title>
<g id="a_edge6_Node000001_Node000007"><a xlink:title=" ">
<path fill="none" stroke="#63b8ff" d="M578.83,-161.34C598.99,-151.55 621.75,-140.49 640.83,-131.23"/>
<polygon fill="#63b8ff" stroke="#63b8ff" points="577.38,-158.15 569.92,-165.66 580.44,-164.44 577.38,-158.15"/>
</a>
</g>
</g>
<!-- Node8 -->
<g id="Node000008" class="node">
<title>Node8</title>
<g id="a_Node000008"><a xlink:href="ModuleConfiguration_8cpp.html" target="_top" xlink:title=" ">
<polygon fill="white" stroke="#666666" points="910.38,-130.75 769.12,-130.75 769.12,-89 910.38,-89 910.38,-130.75"/>
<text text-anchor="start" x="777.12" y="-117.25" font-family="Helvetica,sans-Serif" font-size="10.00">/github/workspace/dev</text>
<text text-anchor="start" x="777.12" y="-106" font-family="Helvetica,sans-Serif" font-size="10.00">_area/sourcecode/appfwk</text>
<text text-anchor="middle" x="839.75" y="-94.75" font-family="Helvetica,sans-Serif" font-size="10.00">/src/ModuleConfiguration.cpp</text>
</a>
</g>
</g>
<!-- Node1&#45;&gt;Node8 -->
<g id="edge8_Node000001_Node000008" class="edge">
<title>Node1&#45;&gt;Node8</title>
<g id="a_edge8_Node000001_Node000008"><a xlink:title=" ">
<path fill="none" stroke="#63b8ff" d="M606.84,-167.75C652.06,-157.04 709.6,-143.29 760.75,-130.75 763.36,-130.11 766.02,-129.46 768.7,-128.79"/>
<polygon fill="#63b8ff" stroke="#63b8ff" points="606.31,-164.28 597.39,-169.99 607.93,-171.09 606.31,-164.28"/>
</a>
</g>
</g>
<!-- Node3 -->
<g id="Node000003" class="node">
<title>Node3</title>
<g id="a_Node000003"><a xlink:href="QueueWithId_8cpp.html" target="_top" xlink:title=" ">
<polygon fill="white" stroke="#666666" points="137.5,-47.38 0,-47.38 0,-5.62 137.5,-5.62 137.5,-47.38"/>
<text text-anchor="start" x="8" y="-33.88" font-family="Helvetica,sans-Serif" font-size="10.00">/github/workspace/dev</text>
<text text-anchor="start" x="8" y="-22.62" font-family="Helvetica,sans-Serif" font-size="10.00">_area/build/coredal/codegen</text>
<text text-anchor="middle" x="68.75" y="-11.38" font-family="Helvetica,sans-Serif" font-size="10.00">/src/QueueWithId.cpp</text>
</a>
</g>
</g>
<!-- Node2&#45;&gt;Node3 -->
<g id="edge2_Node000002_Node000003" class="edge">
<title>Node2&#45;&gt;Node3</title>
<g id="a_edge2_Node000002_Node000003"><a xlink:title=" ">
<path fill="none" stroke="#63b8ff" d="M230.76,-84.82C197.52,-73.06 157.97,-59.07 126.26,-47.85"/>
<polygon fill="#63b8ff" stroke="#63b8ff" points="229.28,-88.01 239.88,-88.05 231.62,-81.41 229.28,-88.01"/>
</a>
</g>
</g>
<!-- Node2&#45;&gt;Node4 -->
<g id="edge3_Node000002_Node000004" class="edge">
<title>Node2&#45;&gt;Node4</title>
<g id="a_edge3_Node000002_Node000004"><a xlink:title=" ">
<path fill="none" stroke="#63b8ff" d="M347.19,-83.28C368.81,-71.85 393.93,-58.58 414.24,-47.85"/>
<polygon fill="#63b8ff" stroke="#63b8ff" points="345.76,-80.08 338.55,-87.84 349.03,-86.27 345.76,-80.08"/>
</a>
</g>
</g>
<!-- Node5 -->
<g id="Node000005" class="node">
<title>Node5</title>
<g id="a_Node000005"><a xlink:href="FakeCardReaderBase_8hpp.html" target="_top" xlink:title=" ">
<polygon fill="white" stroke="#666666" points="353.5,-53 156,-53 156,0 353.5,0 353.5,-53"/>
<text text-anchor="start" x="164" y="-39.5" font-family="Helvetica,sans-Serif" font-size="10.00">/github/workspace/dev</text>
<text text-anchor="start" x="164" y="-28.25" font-family="Helvetica,sans-Serif" font-size="10.00">_area/sourcecode/readoutmodules</text>
<text text-anchor="start" x="164" y="-17" font-family="Helvetica,sans-Serif" font-size="10.00">/include/readoutmodules/FakeCardReader</text>
<text text-anchor="middle" x="254.75" y="-5.75" font-family="Helvetica,sans-Serif" font-size="10.00">Base.hpp</text>
</a>
</g>
</g>
<!-- Node2&#45;&gt;Node5 -->
<g id="edge4_Node000002_Node000005" class="edge">
<title>Node2&#45;&gt;Node5</title>
<g id="a_edge4_Node000002_Node000005"><a xlink:title=" ">
<path fill="none" stroke="#63b8ff" d="M282.4,-78.63C277.88,-70.28 273.03,-61.3 268.66,-53.23"/>
<polygon fill="#63b8ff" stroke="#63b8ff" points="279.32,-80.3 287.15,-87.43 285.48,-76.97 279.32,-80.3"/>
</a>
</g>
</g>
</g>
</svg>
