<?xml version="1.0" encoding="UTF-8" standalone="no"?>
<!DOCTYPE svg PUBLIC "-//W3C//DTD SVG 1.1//EN"
 "http://www.w3.org/Graphics/SVG/1.1/DTD/svg11.dtd">
<!-- Generated by graphviz version 9.0.0 (20230911.1827)
 -->
<!-- Title: /github/workspace/dev_area/build/timinglibs/codegen/include/timinglibs/dal/TimingHardwareInterface.hpp Pages: 1 -->
<svg width="1199pt" height="306pt"
 viewBox="0.00 0.00 1199.00 305.50" xmlns="http://www.w3.org/2000/svg" xmlns:xlink="http://www.w3.org/1999/xlink">
<g id="graph0" class="graph" transform="scale(1 1) rotate(0) translate(4 301.5)">
<title>/github/workspace/dev_area/build/timinglibs/codegen/include/timinglibs/dal/TimingHardwareInterface.hpp</title>
<!-- Node1 -->
<g id="Node000001" class="node">
<title>Node1</title>
<g id="a_Node000001"><a xlink:title=" ">
<polygon fill="#999999" stroke="#666666" points="627,-297.5 464.75,-297.5 464.75,-244.5 627,-244.5 627,-297.5"/>
<text text-anchor="start" x="472.75" y="-284" font-family="Helvetica,sans-Serif" font-size="10.00">/github/workspace/dev</text>
<text text-anchor="start" x="472.75" y="-272.75" font-family="Helvetica,sans-Serif" font-size="10.00">_area/build/timinglibs</text>
<text text-anchor="start" x="472.75" y="-261.5" font-family="Helvetica,sans-Serif" font-size="10.00">/codegen/include/timinglibs</text>
<text text-anchor="middle" x="545.88" y="-250.25" font-family="Helvetica,sans-Serif" font-size="10.00">/dal/TimingHardwareInterface.hpp</text>
</a>
</g>
</g>
<!-- Node2 -->
<g id="Node000002" class="node">
<title>Node2</title>
<g id="a_Node000002"><a xlink:href="HSIController_8cpp.html" target="_top" xlink:title=" ">
<polygon fill="white" stroke="#666666" points="151.75,-202.88 0,-202.88 0,-161.12 151.75,-161.12 151.75,-202.88"/>
<text text-anchor="start" x="8" y="-189.38" font-family="Helvetica,sans-Serif" font-size="10.00">/github/workspace/dev</text>
<text text-anchor="start" x="8" y="-178.12" font-family="Helvetica,sans-Serif" font-size="10.00">_area/build/timinglibs</text>
<text text-anchor="middle" x="75.88" y="-166.88" font-family="Helvetica,sans-Serif" font-size="10.00">/codegen/src/HSIController.cpp</text>
</a>
</g>
</g>
<!-- Node1&#45;&gt;Node2 -->
<g id="edge1_Node000001_Node000002" class="edge">
<title>Node1&#45;&gt;Node2</title>
<g id="a_edge1_Node000001_Node000002"><a xlink:title=" ">
<path fill="none" stroke="#63b8ff" d="M453.23,-258.72C374.83,-248.34 259.77,-231.13 160.88,-208.5 154.12,-206.95 147.11,-205.16 140.15,-203.26"/>
<polygon fill="#63b8ff" stroke="#63b8ff" points="452.66,-262.18 463.03,-260.01 453.57,-255.24 452.66,-262.18"/>
</a>
</g>
</g>
<!-- Node3 -->
<g id="Node000003" class="node">
<title>Node3</title>
<g id="a_Node000003"><a xlink:href="HSIReadout_8cpp.html" target="_top" xlink:title=" ">
<polygon fill="white" stroke="#666666" points="316.12,-202.88 169.62,-202.88 169.62,-161.12 316.12,-161.12 316.12,-202.88"/>
<text text-anchor="start" x="177.62" y="-189.38" font-family="Helvetica,sans-Serif" font-size="10.00">/github/workspace/dev</text>
<text text-anchor="start" x="177.62" y="-178.12" font-family="Helvetica,sans-Serif" font-size="10.00">_area/build/timinglibs</text>
<text text-anchor="middle" x="242.88" y="-166.88" font-family="Helvetica,sans-Serif" font-size="10.00">/codegen/src/HSIReadout.cpp</text>
</a>
</g>
</g>
<!-- Node1&#45;&gt;Node3 -->
<g id="edge2_Node000001_Node000003" class="edge">
<title>Node1&#45;&gt;Node3</title>
<g id="a_edge2_Node000001_Node000003"><a xlink:title=" ">
<path fill="none" stroke="#63b8ff" d="M453.58,-244.76C414.17,-233.84 367.7,-220.77 325.88,-208.5 320.23,-206.85 314.38,-205.1 308.52,-203.34"/>
<polygon fill="#63b8ff" stroke="#63b8ff" points="452.47,-248.09 463.04,-247.38 454.34,-241.34 452.47,-248.09"/>
</a>
</g>
</g>
<!-- Node4 -->
<g id="Node000004" class="node">
<title>Node4</title>
<g id="a_Node000004"><a xlink:href="build_2timinglibs_2codegen_2src_2TimingHardwareInterface_8cpp.html" target="_top" xlink:title=" ">
<polygon fill="white" stroke="#666666" points="537.25,-202.88 334.5,-202.88 334.5,-161.12 537.25,-161.12 537.25,-202.88"/>
<text text-anchor="start" x="342.5" y="-189.38" font-family="Helvetica,sans-Serif" font-size="10.00">/github/workspace/dev</text>
<text text-anchor="start" x="342.5" y="-178.12" font-family="Helvetica,sans-Serif" font-size="10.00">_area/build/timinglibs</text>
<text text-anchor="middle" x="435.88" y="-166.88" font-family="Helvetica,sans-Serif" font-size="10.00">/codegen/src/TimingHardwareInterface.cpp</text>
</a>
</g>
</g>
<!-- Node1&#45;&gt;Node4 -->
<g id="edge3_Node000001_Node000004" class="edge">
<title>Node1&#45;&gt;Node4</title>
<g id="a_edge3_Node000001_Node000004"><a xlink:title=" ">
<path fill="none" stroke="#63b8ff" d="M504.36,-237.17C489.88,-225.72 474.07,-213.21 461.3,-203.11"/>
<polygon fill="#63b8ff" stroke="#63b8ff" points="501.97,-239.74 511.98,-243.19 506.31,-234.25 501.97,-239.74"/>
</a>
</g>
</g>
<!-- Node5 -->
<g id="Node000005" class="node">
<title>Node5</title>
<g id="a_Node000005"><a xlink:href="build_2timinglibs_2codegen_2src_2TimingHardwareManager_8cpp.html" target="_top" xlink:title=" ">
<polygon fill="white" stroke="#666666" points="756.88,-202.88 554.88,-202.88 554.88,-161.12 756.88,-161.12 756.88,-202.88"/>
<text text-anchor="start" x="562.88" y="-189.38" font-family="Helvetica,sans-Serif" font-size="10.00">/github/workspace/dev</text>
<text text-anchor="start" x="562.88" y="-178.12" font-family="Helvetica,sans-Serif" font-size="10.00">_area/build/timinglibs</text>
<text text-anchor="middle" x="655.88" y="-166.88" font-family="Helvetica,sans-Serif" font-size="10.00">/codegen/src/TimingHardwareManager.cpp</text>
</a>
</g>
</g>
<!-- Node1&#45;&gt;Node5 -->
<g id="edge4_Node000001_Node000005" class="edge">
<title>Node1&#45;&gt;Node5</title>
<g id="a_edge4_Node000001_Node000005"><a xlink:title=" ">
<path fill="none" stroke="#63b8ff" d="M587.39,-237.17C601.87,-225.72 617.68,-213.21 630.45,-203.11"/>
<polygon fill="#63b8ff" stroke="#63b8ff" points="585.44,-234.25 579.77,-243.19 589.78,-239.74 585.44,-234.25"/>
</a>
</g>
</g>
<!-- Node6 -->
<g id="Node000006" class="node">
<title>Node6</title>
<g id="a_Node000006"><a xlink:href="dump__dunedaq____timinglibs____dal_8cpp.html" target="_top" xlink:title=" ">
<polygon fill="white" stroke="#666666" points="916.5,-208.5 775.25,-208.5 775.25,-155.5 916.5,-155.5 916.5,-208.5"/>
<text text-anchor="start" x="783.25" y="-195" font-family="Helvetica,sans-Serif" font-size="10.00">/github/workspace/dev</text>
<text text-anchor="start" x="783.25" y="-183.75" font-family="Helvetica,sans-Serif" font-size="10.00">_area/build/timinglibs</text>
<text text-anchor="start" x="783.25" y="-172.5" font-family="Helvetica,sans-Serif" font-size="10.00">/codegen/src/dump_dunedaq</text>
<text text-anchor="middle" x="845.88" y="-161.25" font-family="Helvetica,sans-Serif" font-size="10.00">__timinglibs__dal.cpp</text>
</a>
</g>
</g>
<!-- Node1&#45;&gt;Node6 -->
<g id="edge5_Node000001_Node000006" class="edge">
<title>Node1&#45;&gt;Node6</title>
<g id="a_edge5_Node000001_Node000006"><a xlink:title=" ">
<path fill="none" stroke="#63b8ff" d="M638.23,-244.98C677.65,-234.09 724.11,-220.99 765.88,-208.5 768.81,-207.62 771.8,-206.72 774.82,-205.8"/>
<polygon fill="#63b8ff" stroke="#63b8ff" points="637.48,-241.55 628.77,-247.58 639.34,-248.3 637.48,-241.55"/>
</a>
</g>
</g>
<!-- Node7 -->
<g id="Node000007" class="node">
<title>Node7</title>
<g id="a_Node000007"><a xlink:href="sourcecode_2timinglibs_2include_2timinglibs_2TimingHardwareInterface_8hpp.html" target="_top" xlink:title=" ">
<polygon fill="white" stroke="#666666" points="1103,-208.5 934.75,-208.5 934.75,-155.5 1103,-155.5 1103,-208.5"/>
<text text-anchor="start" x="942.75" y="-195" font-family="Helvetica,sans-Serif" font-size="10.00">/github/workspace/dev</text>
<text text-anchor="start" x="942.75" y="-183.75" font-family="Helvetica,sans-Serif" font-size="10.00">_area/sourcecode/timinglibs</text>
<text text-anchor="start" x="942.75" y="-172.5" font-family="Helvetica,sans-Serif" font-size="10.00">/include/timinglibs/TimingHardware</text>
<text text-anchor="middle" x="1018.88" y="-161.25" font-family="Helvetica,sans-Serif" font-size="10.00">Interface.hpp</text>
</a>
</g>
</g>
<!-- Node1&#45;&gt;Node7 -->
<g id="edge6_Node000001_Node000007" class="edge">
<title>Node1&#45;&gt;Node7</title>
<g id="a_edge6_Node000001_Node000007"><a xlink:title=" ">
<path fill="none" stroke="#63b8ff" d="M638.28,-257.87C715.56,-247.05 828.46,-229.67 925.88,-208.5 928.66,-207.9 931.48,-207.26 934.32,-206.6"/>
<polygon fill="#63b8ff" stroke="#63b8ff" points="638.07,-254.37 628.65,-259.21 639.03,-261.3 638.07,-254.37"/>
</a>
</g>
</g>
<!-- Node8 -->
<g id="Node000008" class="node">
<title>Node8</title>
<g id="a_Node000008"><a xlink:href="sourcecode_2timinglibs_2src_2TimingHardwareInterface_8cpp.html" target="_top" xlink:title=" ">
<polygon fill="white" stroke="#666666" points="1010.38,-119.5 847.38,-119.5 847.38,-77.75 1010.38,-77.75 1010.38,-119.5"/>
<text text-anchor="start" x="855.38" y="-106" font-family="Helvetica,sans-Serif" font-size="10.00">/github/workspace/dev</text>
<text text-anchor="start" x="855.38" y="-94.75" font-family="Helvetica,sans-Serif" font-size="10.00">_area/sourcecode/timinglibs</text>
<text text-anchor="middle" x="928.88" y="-83.5" font-family="Helvetica,sans-Serif" font-size="10.00">/src/TimingHardwareInterface.cpp</text>
</a>
</g>
</g>
<!-- Node7&#45;&gt;Node8 -->
<g id="edge7_Node000007_Node000008" class="edge">
<title>Node7&#45;&gt;Node8</title>
<g id="a_edge7_Node000007_Node000008"><a xlink:title=" ">
<path fill="none" stroke="#63b8ff" d="M982.16,-147.8C971.66,-138.31 960.53,-128.25 951.18,-119.79"/>
<polygon fill="#63b8ff" stroke="#63b8ff" points="979.51,-150.13 989.28,-154.24 984.21,-144.93 979.51,-150.13"/>
</a>
</g>
</g>
<!-- Node9 -->
<g id="Node000009" class="node">
<title>Node9</title>
<g id="a_Node000009"><a xlink:href="sourcecode_2timinglibs_2src_2TimingHardwareManager_8hpp.html" target="_top" xlink:title=" ">
<polygon fill="white" stroke="#666666" points="1191,-119.5 1028.75,-119.5 1028.75,-77.75 1191,-77.75 1191,-119.5"/>
<text text-anchor="start" x="1036.75" y="-106" font-family="Helvetica,sans-Serif" font-size="10.00">/github/workspace/dev</text>
<text text-anchor="start" x="1036.75" y="-94.75" font-family="Helvetica,sans-Serif" font-size="10.00">_area/sourcecode/timinglibs</text>
<text text-anchor="middle" x="1109.88" y="-83.5" font-family="Helvetica,sans-Serif" font-size="10.00">/src/TimingHardwareManager.hpp</text>
</a>
</g>
</g>
<!-- Node7&#45;&gt;Node9 -->
<g id="edge8_Node000007_Node000009" class="edge">
<title>Node7&#45;&gt;Node9</title>
<g id="a_edge8_Node000007_Node000009"><a xlink:title=" ">
<path fill="none" stroke="#63b8ff" d="M1056.48,-147.37C1066.89,-138.06 1077.87,-128.24 1087.15,-119.94"/>
<polygon fill="#63b8ff" stroke="#63b8ff" points="1054.17,-144.74 1049.05,-154.02 1058.83,-149.96 1054.17,-144.74"/>
</a>
</g>
</g>
<!-- Node10 -->
<g id="Node000010" class="node">
<title>Node10</title>
<g id="a_Node000010"><a xlink:href="sourcecode_2timinglibs_2src_2TimingHardwareManager_8cpp.html" target="_top" xlink:title=" ">
<polygon fill="white" stroke="#666666" points="1191,-41.75 1028.75,-41.75 1028.75,0 1191,0 1191,-41.75"/>
<text text-anchor="start" x="1036.75" y="-28.25" font-family="Helvetica,sans-Serif" font-size="10.00">/github/workspace/dev</text>
<text text-anchor="start" x="1036.75" y="-17" font-family="Helvetica,sans-Serif" font-size="10.00">_area/sourcecode/timinglibs</text>
<text text-anchor="middle" x="1109.88" y="-5.75" font-family="Helvetica,sans-Serif" font-size="10.00">/src/TimingHardwareManager.cpp</text>
</a>
</g>
</g>
<!-- Node9&#45;&gt;Node10 -->
<g id="edge9_Node000009_Node000010" class="edge">
<title>Node9&#45;&gt;Node10</title>
<g id="a_edge9_Node000009_Node000010"><a xlink:title=" ">
<path fill="none" stroke="#63b8ff" d="M1109.88,-66C1109.88,-57.96 1109.88,-49.54 1109.88,-42.23"/>
<polygon fill="#63b8ff" stroke="#63b8ff" points="1106.38,-65.81 1109.88,-75.81 1113.38,-65.81 1106.38,-65.81"/>
</a>
</g>
</g>
</g>
</svg>
