<?xml version="1.0" encoding="UTF-8" standalone="no"?>
<!DOCTYPE svg PUBLIC "-//W3C//DTD SVG 1.1//EN"
 "http://www.w3.org/Graphics/SVG/1.1/DTD/svg11.dtd">
<!-- Generated by graphviz version 9.0.0 (20230911.1827)
 -->
<!-- Title: /github/workspace/dev_area/sourcecode/ipm/src/CallbackAdapter.hpp Pages: 1 -->
<svg width="1909pt" height="404pt"
 viewBox="0.00 0.00 1909.17 403.75" xmlns="http://www.w3.org/2000/svg" xmlns:xlink="http://www.w3.org/1999/xlink">
<g id="graph0" class="graph" transform="scale(1 1) rotate(0) translate(4 399.75)">
<title>/github/workspace/dev_area/sourcecode/ipm/src/CallbackAdapter.hpp</title>
<!-- Node1 -->
<g id="Node000001" class="node">
<title>Node1</title>
<g id="a_Node000001"><a xlink:title=" ">
<polygon fill="#999999" stroke="#666666" points="1527.17,-395.75 1402.42,-395.75 1402.42,-354 1527.17,-354 1527.17,-395.75"/>
<text text-anchor="start" x="1410.42" y="-382.25" font-family="Helvetica,sans-Serif" font-size="10.00">/github/workspace/dev</text>
<text text-anchor="start" x="1410.42" y="-371" font-family="Helvetica,sans-Serif" font-size="10.00">_area/sourcecode/ipm</text>
<text text-anchor="middle" x="1464.79" y="-359.75" font-family="Helvetica,sans-Serif" font-size="10.00">/src/CallbackAdapter.hpp</text>
</a>
</g>
</g>
<!-- Node2 -->
<g id="Node000002" class="node">
<title>Node2</title>
<g id="a_Node000002"><a xlink:href="ipm_2include_2ipm_2Receiver_8hpp.html" target="_top" xlink:title=" ">
<polygon fill="white" stroke="#666666" points="1408.29,-318 1317.29,-318 1317.29,-298.75 1408.29,-298.75 1408.29,-318"/>
<text text-anchor="middle" x="1362.79" y="-304.5" font-family="Helvetica,sans-Serif" font-size="10.00">ipm/Receiver.hpp</text>
</a>
</g>
</g>
<!-- Node1&#45;&gt;Node2 -->
<g id="edge1_Node000001_Node000002" class="edge">
<title>Node1&#45;&gt;Node2</title>
<g id="a_edge1_Node000001_Node000002"><a xlink:title=" ">
<path fill="none" stroke="#63b8ff" d="M1432.8,-353.64C1417.9,-344.22 1400.48,-333.21 1386.74,-324.52"/>
<polygon fill="#63b8ff" stroke="#63b8ff" points="1388.66,-321.59 1378.33,-319.2 1384.91,-327.51 1388.66,-321.59"/>
</a>
</g>
</g>
<!-- Node13 -->
<g id="Node000013" class="node">
<title>Node13</title>
<g id="a_Node000013"><a xlink:title=" ">
<polygon fill="#e0e0e0" stroke="#999999" points="1305.04,-201.88 1254.54,-201.88 1254.54,-182.62 1305.04,-182.62 1305.04,-201.88"/>
<text text-anchor="middle" x="1279.79" y="-188.38" font-family="Helvetica,sans-Serif" font-size="10.00">memory</text>
</a>
</g>
</g>
<!-- Node1&#45;&gt;Node13 -->
<g id="edge53_Node000001_Node000013" class="edge">
<title>Node1&#45;&gt;Node13</title>
<g id="a_edge53_Node000001_Node000013"><a xlink:title=" ">
<path fill="none" stroke="#63b8ff" d="M1401.98,-366.14C1369.46,-358.92 1331.67,-344.96 1307.79,-318 1281.86,-288.73 1278.36,-240.66 1278.7,-213.54"/>
<polygon fill="#63b8ff" stroke="#63b8ff" points="1282.19,-213.7 1279.04,-203.59 1275.2,-213.46 1282.19,-213.7"/>
</a>
</g>
</g>
<!-- Node35 -->
<g id="Node000035" class="node">
<title>Node35</title>
<g id="a_Node000035"><a xlink:title=" ">
<polygon fill="#e0e0e0" stroke="#999999" points="1878.42,-262.75 1833.17,-262.75 1833.17,-243.5 1878.42,-243.5 1878.42,-262.75"/>
<text text-anchor="middle" x="1855.79" y="-249.25" font-family="Helvetica,sans-Serif" font-size="10.00">atomic</text>
</a>
</g>
</g>
<!-- Node1&#45;&gt;Node35 -->
<g id="edge51_Node000001_Node000035" class="edge">
<title>Node1&#45;&gt;Node35</title>
<g id="a_edge51_Node000001_Node000035"><a xlink:title=" ">
<path fill="none" stroke="#63b8ff" d="M1454.77,-353.74C1447.99,-336.94 1442.47,-313.44 1455.79,-298.75 1508.84,-240.26 1725.1,-274.55 1821.66,-262.51"/>
<polygon fill="#63b8ff" stroke="#63b8ff" points="1821.97,-266 1831.33,-261.03 1820.91,-259.09 1821.97,-266"/>
</a>
</g>
</g>
<!-- Node36 -->
<g id="Node000036" class="node">
<title>Node36</title>
<g id="a_Node000036"><a xlink:title=" ">
<polygon fill="#e0e0e0" stroke="#999999" points="1522.79,-318 1464.79,-318 1464.79,-298.75 1522.79,-298.75 1522.79,-318"/>
<text text-anchor="middle" x="1493.79" y="-304.5" font-family="Helvetica,sans-Serif" font-size="10.00">functional</text>
</a>
</g>
</g>
<!-- Node1&#45;&gt;Node36 -->
<g id="edge52_Node000001_Node000036" class="edge">
<title>Node1&#45;&gt;Node36</title>
<g id="a_edge52_Node000001_Node000036"><a xlink:title=" ">
<path fill="none" stroke="#63b8ff" d="M1473.81,-353.82C1477.38,-345.87 1481.48,-336.76 1485.03,-328.86"/>
<polygon fill="#63b8ff" stroke="#63b8ff" points="1488.18,-330.38 1489.09,-319.83 1481.8,-327.51 1488.18,-330.38"/>
</a>
</g>
</g>
<!-- Node37 -->
<g id="Node000037" class="node">
<title>Node37</title>
<g id="a_Node000037"><a xlink:title=" ">
<polygon fill="#e0e0e0" stroke="#999999" points="1582.92,-318 1540.67,-318 1540.67,-298.75 1582.92,-298.75 1582.92,-318"/>
<text text-anchor="middle" x="1561.79" y="-304.5" font-family="Helvetica,sans-Serif" font-size="10.00">mutex</text>
</a>
</g>
</g>
<!-- Node1&#45;&gt;Node37 -->
<g id="edge54_Node000001_Node000037" class="edge">
<title>Node1&#45;&gt;Node37</title>
<g id="a_edge54_Node000001_Node000037"><a xlink:title=" ">
<path fill="none" stroke="#63b8ff" d="M1495.22,-353.64C1509.38,-344.22 1525.95,-333.21 1539.02,-324.52"/>
<polygon fill="#63b8ff" stroke="#63b8ff" points="1540.58,-327.68 1546.97,-319.23 1536.7,-321.86 1540.58,-327.68"/>
</a>
</g>
</g>
<!-- Node38 -->
<g id="Node000038" class="node">
<title>Node38</title>
<g id="a_Node000038"><a xlink:title=" ">
<polygon fill="#e0e0e0" stroke="#999999" points="1644.29,-318 1601.29,-318 1601.29,-298.75 1644.29,-298.75 1644.29,-318"/>
<text text-anchor="middle" x="1622.79" y="-304.5" font-family="Helvetica,sans-Serif" font-size="10.00">thread</text>
</a>
</g>
</g>
<!-- Node1&#45;&gt;Node38 -->
<g id="edge55_Node000001_Node000038" class="edge">
<title>Node1&#45;&gt;Node38</title>
<g id="a_edge55_Node000001_Node000038"><a xlink:title=" ">
<path fill="none" stroke="#63b8ff" d="M1514.35,-353.64C1539.28,-343.47 1568.77,-331.43 1590.7,-322.47"/>
<polygon fill="#63b8ff" stroke="#63b8ff" points="1591.78,-325.82 1599.71,-318.8 1589.13,-319.34 1591.78,-325.82"/>
</a>
</g>
</g>
<!-- Node3 -->
<g id="Node000003" class="node">
<title>Node3</title>
<g id="a_Node000003"><a xlink:title=" ">
<polygon fill="#e0e0e0" stroke="#999999" points="1524.67,-262.75 1390.92,-262.75 1390.92,-243.5 1524.67,-243.5 1524.67,-262.75"/>
<text text-anchor="middle" x="1457.79" y="-249.25" font-family="Helvetica,sans-Serif" font-size="10.00">cetlib/BasicPluginFactory.h</text>
</a>
</g>
</g>
<!-- Node2&#45;&gt;Node3 -->
<g id="edge2_Node000002_Node000003" class="edge">
<title>Node2&#45;&gt;Node3</title>
<g id="a_edge2_Node000002_Node000003"><a xlink:title=" ">
<path fill="none" stroke="#63b8ff" d="M1378.91,-298.34C1393.37,-290.23 1414.87,-278.18 1431.77,-268.71"/>
<polygon fill="#63b8ff" stroke="#63b8ff" points="1433.26,-271.89 1440.28,-263.94 1429.84,-265.78 1433.26,-271.89"/>
</a>
</g>
</g>
<!-- Node4 -->
<g id="Node000004" class="node">
<title>Node4</title>
<g id="a_Node000004"><a xlink:title=" ">
<polygon fill="#e0e0e0" stroke="#999999" points="1666.79,-262.75 1542.79,-262.75 1542.79,-243.5 1666.79,-243.5 1666.79,-262.75"/>
<text text-anchor="middle" x="1604.79" y="-249.25" font-family="Helvetica,sans-Serif" font-size="10.00">cetlib/compiler_macros.h</text>
</a>
</g>
</g>
<!-- Node2&#45;&gt;Node4 -->
<g id="edge3_Node000002_Node000004" class="edge">
<title>Node2&#45;&gt;Node4</title>
<g id="a_edge3_Node000002_Node000004"><a xlink:title=" ">
<path fill="none" stroke="#63b8ff" d="M1404.12,-298.28C1445.1,-289.26 1508.03,-275.42 1552.47,-265.64"/>
<polygon fill="#63b8ff" stroke="#63b8ff" points="1553.14,-269.07 1562.16,-263.51 1551.64,-262.24 1553.14,-269.07"/>
</a>
</g>
</g>
<!-- Node5 -->
<g id="Node000005" class="node">
<title>Node5</title>
<g id="a_Node000005"><a xlink:href="Issue_8hpp.html" target="_top" xlink:title=" ">
<polygon fill="white" stroke="#666666" points="941.04,-262.75 866.54,-262.75 866.54,-243.5 941.04,-243.5 941.04,-262.75"/>
<text text-anchor="middle" x="903.79" y="-249.25" font-family="Helvetica,sans-Serif" font-size="10.00">ers/Issue.hpp</text>
</a>
</g>
</g>
<!-- Node2&#45;&gt;Node5 -->
<g id="edge4_Node000002_Node000005" class="edge">
<title>Node2&#45;&gt;Node5</title>
<g id="a_edge4_Node000002_Node000005"><a xlink:title=" ">
<path fill="none" stroke="#63b8ff" d="M1317.1,-302.07C1230.3,-292 1042.24,-270.19 952.87,-259.82"/>
<polygon fill="#63b8ff" stroke="#63b8ff" points="953.29,-256.34 942.95,-258.67 952.48,-263.3 953.29,-256.34"/>
</a>
</g>
</g>
<!-- Node10 -->
<g id="Node000010" class="node">
<title>Node10</title>
<g id="a_Node000010"><a xlink:title=" ">
<polygon fill="#e0e0e0" stroke="#999999" points="1295.79,-74.5 1255.79,-74.5 1255.79,-55.25 1295.79,-55.25 1295.79,-74.5"/>
<text text-anchor="middle" x="1275.79" y="-61" font-family="Helvetica,sans-Serif" font-size="10.00">string</text>
</a>
</g>
</g>
<!-- Node2&#45;&gt;Node10 -->
<g id="edge49_Node000002_Node000010" class="edge">
<title>Node2&#45;&gt;Node10</title>
<g id="a_edge49_Node000002_Node000010"><a xlink:title=" ">
<path fill="none" stroke="#63b8ff" d="M1359.59,-298.49C1347.01,-263.58 1300.79,-135.28 1282.92,-85.65"/>
<polygon fill="#63b8ff" stroke="#63b8ff" points="1286.21,-84.48 1279.53,-76.26 1279.63,-86.86 1286.21,-84.48"/>
</a>
</g>
</g>
<!-- Node2&#45;&gt;Node13 -->
<g id="edge48_Node000002_Node000013" class="edge">
<title>Node2&#45;&gt;Node13</title>
<g id="a_edge48_Node000002_Node000013"><a xlink:title=" ">
<path fill="none" stroke="#63b8ff" d="M1349.37,-298.44C1337.9,-290.26 1321.6,-277.25 1310.79,-262.75 1299.44,-247.52 1291.06,-227.48 1285.9,-212.84"/>
<polygon fill="#63b8ff" stroke="#63b8ff" points="1289.26,-211.86 1282.8,-203.46 1282.61,-214.06 1289.26,-211.86"/>
</a>
</g>
</g>
<!-- Node17 -->
<g id="Node000017" class="node">
<title>Node17</title>
<g id="a_Node000017"><a xlink:title=" ">
<polygon fill="#e0e0e0" stroke="#999999" points="843.29,-74.5 800.29,-74.5 800.29,-55.25 843.29,-55.25 843.29,-74.5"/>
<text text-anchor="middle" x="821.79" y="-61" font-family="Helvetica,sans-Serif" font-size="10.00">vector</text>
</a>
</g>
</g>
<!-- Node2&#45;&gt;Node17 -->
<g id="edge50_Node000002_Node000017" class="edge">
<title>Node2&#45;&gt;Node17</title>
<g id="a_edge50_Node000002_Node000017"><a xlink:title=" ">
<path fill="none" stroke="#63b8ff" d="M1317.04,-306.99C1120.12,-304.82 344.54,-291.03 117.79,-207.5 70.45,-190.06 48.75,-185.93 25.79,-141 19.62,-128.93 16.48,-120.35 25.79,-110.5 52.41,-82.35 641.64,-69.3 788.75,-66.47"/>
<polygon fill="#63b8ff" stroke="#63b8ff" points="788.64,-69.98 798.57,-66.29 788.5,-62.98 788.64,-69.98"/>
</a>
</g>
</g>
<!-- Node31 -->
<g id="Node000031" class="node">
<title>Node31</title>
<g id="a_Node000031"><a xlink:title=" ">
<polygon fill="#e0e0e0" stroke="#999999" points="1543.29,-201.88 1446.29,-201.88 1446.29,-182.62 1543.29,-182.62 1543.29,-201.88"/>
<text text-anchor="middle" x="1494.79" y="-188.38" font-family="Helvetica,sans-Serif" font-size="10.00">nlohmann/json.hpp</text>
</a>
</g>
</g>
<!-- Node2&#45;&gt;Node31 -->
<g id="edge40_Node000002_Node000031" class="edge">
<title>Node2&#45;&gt;Node31</title>
<g id="a_edge40_Node000002_Node000031"><a xlink:title=" ">
<path fill="none" stroke="#63b8ff" d="M1363.15,-298.41C1364.15,-284.93 1367.89,-259.32 1381.79,-243.5 1397.73,-225.35 1421.48,-213.45 1443.1,-205.81"/>
<polygon fill="#63b8ff" stroke="#63b8ff" points="1443.98,-209.21 1452.39,-202.77 1441.8,-202.56 1443.98,-209.21"/>
</a>
</g>
</g>
<!-- Node32 -->
<g id="Node000032" class="node">
<title>Node32</title>
<g id="a_Node000032"><a xlink:href="InfoCollector_8hpp.html" target="_top" xlink:title=" ">
<polygon fill="white" stroke="#666666" points="1815.17,-262.75 1684.42,-262.75 1684.42,-243.5 1815.17,-243.5 1815.17,-262.75"/>
<text text-anchor="middle" x="1749.79" y="-249.25" font-family="Helvetica,sans-Serif" font-size="10.00">opmonlib/InfoCollector.hpp</text>
</a>
</g>
</g>
<!-- Node2&#45;&gt;Node32 -->
<g id="edge41_Node000002_Node000032" class="edge">
<title>Node2&#45;&gt;Node32</title>
<g id="a_edge41_Node000002_Node000032"><a xlink:title=" ">
<path fill="none" stroke="#63b8ff" d="M1408.65,-300.75C1413.42,-300.07 1418.2,-299.39 1422.79,-298.75 1508.35,-286.76 1606.55,-273.42 1672.83,-264.47"/>
<polygon fill="#63b8ff" stroke="#63b8ff" points="1673.06,-267.97 1682.51,-263.16 1672.13,-261.03 1673.06,-267.97"/>
</a>
</g>
</g>
<!-- Node2&#45;&gt;Node35 -->
<g id="edge47_Node000002_Node000035" class="edge">
<title>Node2&#45;&gt;Node35</title>
<g id="a_edge47_Node000002_Node000035"><a xlink:title=" ">
<path fill="none" stroke="#63b8ff" d="M1408.62,-300.53C1413.4,-299.89 1418.19,-299.29 1422.79,-298.75 1596.88,-278.44 1645.64,-293.51 1821.6,-262.82"/>
<polygon fill="#63b8ff" stroke="#63b8ff" points="1822.1,-266.28 1831.34,-261.09 1820.88,-259.39 1822.1,-266.28"/>
</a>
</g>
</g>
<!-- Node6 -->
<g id="Node000006" class="node">
<title>Node6</title>
<g id="a_Node000006"><a xlink:title=" ">
<polygon fill="#e0e0e0" stroke="#999999" points="588.42,-201.88 543.17,-201.88 543.17,-182.62 588.42,-182.62 588.42,-201.88"/>
<text text-anchor="middle" x="565.79" y="-188.38" font-family="Helvetica,sans-Serif" font-size="10.00">math.h</text>
</a>
</g>
</g>
<!-- Node5&#45;&gt;Node6 -->
<g id="edge5_Node000005_Node000006" class="edge">
<title>Node5&#45;&gt;Node6</title>
<g id="a_edge5_Node000005_Node000006"><a xlink:title=" ">
<path fill="none" stroke="#63b8ff" d="M866.36,-249.98C807.98,-245.89 692.16,-234.83 597.79,-207.5 596.62,-207.16 595.44,-206.79 594.26,-206.39"/>
<polygon fill="#63b8ff" stroke="#63b8ff" points="595.74,-203.21 585.15,-202.83 593.19,-209.73 595.74,-203.21"/>
</a>
</g>
</g>
<!-- Node7 -->
<g id="Node000007" class="node">
<title>Node7</title>
<g id="a_Node000007"><a xlink:title=" ">
<polygon fill="#e0e0e0" stroke="#999999" points="651.04,-201.88 606.54,-201.88 606.54,-182.62 651.04,-182.62 651.04,-201.88"/>
<text text-anchor="middle" x="628.79" y="-188.38" font-family="Helvetica,sans-Serif" font-size="10.00">stdio.h</text>
</a>
</g>
</g>
<!-- Node5&#45;&gt;Node7 -->
<g id="edge6_Node000005_Node000007" class="edge">
<title>Node5&#45;&gt;Node7</title>
<g id="a_edge6_Node000005_Node000007"><a xlink:title=" ">
<path fill="none" stroke="#63b8ff" d="M866.3,-248.22C817.79,-242.5 731.04,-230 659.79,-207.5 658.83,-207.2 657.85,-206.87 656.88,-206.52"/>
<polygon fill="#63b8ff" stroke="#63b8ff" points="658.51,-203.41 647.92,-202.89 655.87,-209.89 658.51,-203.41"/>
</a>
</g>
</g>
<!-- Node8 -->
<g id="Node000008" class="node">
<title>Node8</title>
<g id="a_Node000008"><a xlink:title=" ">
<polygon fill="#e0e0e0" stroke="#999999" points="716.54,-201.88 669.04,-201.88 669.04,-182.62 716.54,-182.62 716.54,-201.88"/>
<text text-anchor="middle" x="692.79" y="-188.38" font-family="Helvetica,sans-Serif" font-size="10.00">string.h</text>
</a>
</g>
</g>
<!-- Node5&#45;&gt;Node8 -->
<g id="edge7_Node000005_Node000008" class="edge">
<title>Node5&#45;&gt;Node8</title>
<g id="a_edge7_Node000005_Node000008"><a xlink:title=" ">
<path fill="none" stroke="#63b8ff" d="M866.12,-244.54C829.74,-236.78 773.32,-223.6 725.79,-207.5 724.83,-207.18 723.87,-206.84 722.89,-206.48"/>
<polygon fill="#63b8ff" stroke="#63b8ff" points="724.47,-203.34 713.89,-202.93 721.9,-209.86 724.47,-203.34"/>
</a>
</g>
</g>
<!-- Node9 -->
<g id="Node000009" class="node">
<title>Node9</title>
<g id="a_Node000009"><a xlink:title=" ">
<polygon fill="#e0e0e0" stroke="#999999" points="1023.17,-135.38 988.42,-135.38 988.42,-116.12 1023.17,-116.12 1023.17,-135.38"/>
<text text-anchor="middle" x="1005.79" y="-121.88" font-family="Helvetica,sans-Serif" font-size="10.00">map</text>
</a>
</g>
</g>
<!-- Node5&#45;&gt;Node9 -->
<g id="edge8_Node000005_Node000009" class="edge">
<title>Node5&#45;&gt;Node9</title>
<g id="a_edge8_Node000005_Node000009"><a xlink:title=" ">
<path fill="none" stroke="#63b8ff" d="M904.66,-243.36C906.53,-228.37 912.13,-197.43 927.79,-177 931.6,-172.03 959.58,-154.55 980.95,-141.59"/>
<polygon fill="#63b8ff" stroke="#63b8ff" points="982.72,-144.61 989.47,-136.45 979.1,-138.62 982.72,-144.61"/>
</a>
</g>
</g>
<!-- Node5&#45;&gt;Node10 -->
<g id="edge9_Node000005_Node000010" class="edge">
<title>Node5&#45;&gt;Node10</title>
<g id="a_edge9_Node000005_Node000010"><a xlink:title=" ">
<path fill="none" stroke="#63b8ff" d="M941.54,-252.22C996.72,-251.02 1101.57,-243.64 1181.79,-207.5 1224.26,-188.37 1239.35,-181.25 1262.79,-141 1272.57,-124.21 1275.41,-101.98 1276.05,-86.07"/>
<polygon fill="#63b8ff" stroke="#63b8ff" points="1279.55,-86.44 1276.17,-76.4 1272.55,-86.35 1279.55,-86.44"/>
</a>
</g>
</g>
<!-- Node11 -->
<g id="Node000011" class="node">
<title>Node11</title>
<g id="a_Node000011"><a xlink:title=" ">
<polygon fill="#e0e0e0" stroke="#999999" points="837.54,-19.25 784.04,-19.25 784.04,0 837.54,0 837.54,-19.25"/>
<text text-anchor="middle" x="810.79" y="-5.75" font-family="Helvetica,sans-Serif" font-size="10.00">iostream</text>
</a>
</g>
</g>
<!-- Node5&#45;&gt;Node11 -->
<g id="edge10_Node000005_Node000011" class="edge">
<title>Node5&#45;&gt;Node11</title>
<g id="a_edge10_Node000005_Node000011"><a xlink:title=" ">
<path fill="none" stroke="#63b8ff" d="M866.24,-251.23C719.4,-247.57 188.71,-232.69 117.79,-207.5 70.25,-190.61 48.75,-185.93 25.79,-141 -44.74,-2.99 29.79,-92.13 269.79,-55.25 456.81,-26.51 683.24,-15.4 772.23,-11.95"/>
<polygon fill="#63b8ff" stroke="#63b8ff" points="772.24,-15.45 782.1,-11.57 771.98,-8.45 772.24,-15.45"/>
</a>
</g>
</g>
<!-- Node12 -->
<g id="Node000012" class="node">
<title>Node12</title>
<g id="a_Node000012"><a xlink:title=" ">
<polygon fill="#e0e0e0" stroke="#999999" points="1021.42,-201.88 970.17,-201.88 970.17,-182.62 1021.42,-182.62 1021.42,-201.88"/>
<text text-anchor="middle" x="995.79" y="-188.38" font-family="Helvetica,sans-Serif" font-size="10.00">sstream</text>
</a>
</g>
</g>
<!-- Node5&#45;&gt;Node12 -->
<g id="edge11_Node000005_Node000012" class="edge">
<title>Node5&#45;&gt;Node12</title>
<g id="a_edge11_Node000005_Node000012"><a xlink:title=" ">
<path fill="none" stroke="#63b8ff" d="M917.76,-243.18C932.22,-233.93 955.05,-219.32 972.29,-208.29"/>
<polygon fill="#63b8ff" stroke="#63b8ff" points="973.88,-211.43 980.41,-203.09 970.1,-205.53 973.88,-211.43"/>
</a>
</g>
</g>
<!-- Node5&#45;&gt;Node13 -->
<g id="edge12_Node000005_Node000013" class="edge">
<title>Node5&#45;&gt;Node13</title>
<g id="a_edge12_Node000005_Node000013"><a xlink:title=" ">
<path fill="none" stroke="#63b8ff" d="M941.44,-249.83C1004.24,-245.42 1134.05,-233.73 1240.79,-207.5 1242.8,-207.01 1244.86,-206.44 1246.91,-205.83"/>
<polygon fill="#63b8ff" stroke="#63b8ff" points="1247.94,-209.18 1256.34,-202.72 1245.75,-202.53 1247.94,-209.18"/>
</a>
</g>
</g>
<!-- Node14 -->
<g id="Node000014" class="node">
<title>Node14</title>
<g id="a_Node000014"><a xlink:title=" ">
<polygon fill="#e0e0e0" stroke="#999999" points="1086.42,-135.38 1041.17,-135.38 1041.17,-116.12 1086.42,-116.12 1086.42,-135.38"/>
<text text-anchor="middle" x="1063.79" y="-121.88" font-family="Helvetica,sans-Serif" font-size="10.00">chrono</text>
</a>
</g>
</g>
<!-- Node5&#45;&gt;Node14 -->
<g id="edge13_Node000005_Node000014" class="edge">
<title>Node5&#45;&gt;Node14</title>
<g id="a_edge13_Node000005_Node000014"><a xlink:title=" ">
<path fill="none" stroke="#63b8ff" d="M908.69,-243.18C917.42,-227.9 937.01,-196.54 960.79,-177 966.96,-171.93 1005.88,-153.47 1034.06,-140.4"/>
<polygon fill="#63b8ff" stroke="#63b8ff" points="1035.26,-143.7 1042.87,-136.33 1032.32,-137.34 1035.26,-143.7"/>
</a>
</g>
</g>
<!-- Node15 -->
<g id="Node000015" class="node">
<title>Node15</title>
<g id="a_Node000015"><a xlink:title=" ">
<polygon fill="#e0e0e0" stroke="#999999" points="155.19,-201.88 126.39,-201.88 126.39,-182.62 155.19,-182.62 155.19,-201.88"/>
<text text-anchor="middle" x="140.79" y="-188.38" font-family="Helvetica,sans-Serif" font-size="10.00">list</text>
</a>
</g>
</g>
<!-- Node5&#45;&gt;Node15 -->
<g id="edge14_Node000005_Node000015" class="edge">
<title>Node5&#45;&gt;Node15</title>
<g id="a_edge14_Node000005_Node000015"><a xlink:title=" ">
<path fill="none" stroke="#63b8ff" d="M866.31,-252.28C735.04,-252.43 296.73,-249.71 163.79,-207.5 163.56,-207.43 163.32,-207.35 163.09,-207.27"/>
<polygon fill="#63b8ff" stroke="#63b8ff" points="164.77,-204.2 154.25,-202.95 161.7,-210.49 164.77,-204.2"/>
</a>
</g>
</g>
<!-- Node16 -->
<g id="Node000016" class="node">
<title>Node16</title>
<g id="a_Node000016"><a xlink:href="IssueFactory_8hpp.html" target="_top" xlink:title=" ">
<polygon fill="white" stroke="#666666" points="1149.17,-201.88 1042.42,-201.88 1042.42,-182.62 1149.17,-182.62 1149.17,-201.88"/>
<text text-anchor="middle" x="1095.79" y="-188.38" font-family="Helvetica,sans-Serif" font-size="10.00">ers/IssueFactory.hpp</text>
</a>
</g>
</g>
<!-- Node5&#45;&gt;Node16 -->
<g id="edge15_Node000005_Node000016" class="edge">
<title>Node5&#45;&gt;Node16</title>
<g id="a_edge15_Node000005_Node000016"><a xlink:title=" ">
<path fill="none" stroke="#63b8ff" d="M933.37,-243.05C966.07,-233.03 1018.93,-216.82 1055.42,-205.63"/>
<polygon fill="#63b8ff" stroke="#63b8ff" points="1056.2,-209.05 1064.73,-202.77 1054.14,-202.36 1056.2,-209.05"/>
</a>
</g>
</g>
<!-- Node18 -->
<g id="Node000018" class="node">
<title>Node18</title>
<g id="a_Node000018"><a xlink:href="Severity_8hpp.html" target="_top" xlink:title=" ">
<polygon fill="white" stroke="#666666" points="1228.67,-135.38 1142.92,-135.38 1142.92,-116.12 1228.67,-116.12 1228.67,-135.38"/>
<text text-anchor="middle" x="1185.79" y="-121.88" font-family="Helvetica,sans-Serif" font-size="10.00">ers/Severity.hpp</text>
</a>
</g>
</g>
<!-- Node5&#45;&gt;Node18 -->
<g id="edge32_Node000005_Node000018" class="edge">
<title>Node5&#45;&gt;Node18</title>
<g id="a_edge32_Node000005_Node000018"><a xlink:title=" ">
<path fill="none" stroke="#63b8ff" d="M941.5,-250.11C1004.11,-246.03 1125.79,-234.75 1157.79,-207.5 1175.5,-192.41 1182.02,-165.51 1184.42,-146.93"/>
<polygon fill="#63b8ff" stroke="#63b8ff" points="1187.88,-147.44 1185.35,-137.15 1180.91,-146.77 1187.88,-147.44"/>
</a>
</g>
</g>
<!-- Node19 -->
<g id="Node000019" class="node">
<title>Node19</title>
<g id="a_Node000019"><a xlink:href="LocalContext_8hpp.html" target="_top" xlink:title=" ">
<polygon fill="white" stroke="#666666" points="280.54,-201.88 173.04,-201.88 173.04,-182.62 280.54,-182.62 280.54,-201.88"/>
<text text-anchor="middle" x="226.79" y="-188.38" font-family="Helvetica,sans-Serif" font-size="10.00">ers/LocalContext.hpp</text>
</a>
</g>
</g>
<!-- Node5&#45;&gt;Node19 -->
<g id="edge24_Node000005_Node000019" class="edge">
<title>Node5&#45;&gt;Node19</title>
<g id="a_edge24_Node000005_Node000019"><a xlink:title=" ">
<path fill="none" stroke="#63b8ff" d="M866.43,-248.88C756.29,-239.3 431.88,-211.09 292.1,-198.93"/>
<polygon fill="#63b8ff" stroke="#63b8ff" points="292.53,-195.45 282.26,-198.07 291.92,-202.43 292.53,-195.45"/>
</a>
</g>
</g>
<!-- Node24 -->
<g id="Node000024" class="node">
<title>Node24</title>
<g id="a_Node000024"><a xlink:href="IssueDeclarationMacro_8hpp.html" target="_top" xlink:title=" ">
<polygon fill="white" stroke="#666666" points="874.67,-207.5 734.92,-207.5 734.92,-177 874.67,-177 874.67,-207.5"/>
<text text-anchor="start" x="742.92" y="-194" font-family="Helvetica,sans-Serif" font-size="10.00">ers/internal/IssueDeclaration</text>
<text text-anchor="middle" x="804.79" y="-182.75" font-family="Helvetica,sans-Serif" font-size="10.00">Macro.hpp</text>
</a>
</g>
</g>
<!-- Node5&#45;&gt;Node24 -->
<g id="edge33_Node000005_Node000024" class="edge">
<title>Node5&#45;&gt;Node24</title>
<g id="a_edge33_Node000005_Node000024"><a xlink:title=" ">
<path fill="none" stroke="#63b8ff" d="M888.75,-243.18C875.55,-235.33 855.85,-223.62 838.85,-213.51"/>
<polygon fill="#63b8ff" stroke="#63b8ff" points="840.91,-210.66 830.53,-208.56 837.33,-216.68 840.91,-210.66"/>
</a>
</g>
</g>
<!-- Node16&#45;&gt;Node9 -->
<g id="edge19_Node000016_Node000009" class="edge">
<title>Node16&#45;&gt;Node9</title>
<g id="a_edge19_Node000016_Node000009"><a xlink:title=" ">
<path fill="none" stroke="#63b8ff" d="M1083.28,-182.28C1068.85,-171.94 1044.89,-154.77 1027.42,-142.25"/>
<polygon fill="#63b8ff" stroke="#63b8ff" points="1029.89,-139.71 1019.72,-136.73 1025.81,-145.4 1029.89,-139.71"/>
</a>
</g>
</g>
<!-- Node16&#45;&gt;Node10 -->
<g id="edge17_Node000016_Node000010" class="edge">
<title>Node16&#45;&gt;Node10</title>
<g id="a_edge17_Node000016_Node000010"><a xlink:title=" ">
<path fill="none" stroke="#63b8ff" d="M1149.66,-182.28C1178.54,-175.17 1213.15,-162.67 1237.79,-141 1254.57,-126.24 1264.86,-102.32 1270.43,-85.44"/>
<polygon fill="#63b8ff" stroke="#63b8ff" points="1273.72,-86.66 1273.24,-76.07 1267.01,-84.65 1273.72,-86.66"/>
</a>
</g>
</g>
<!-- Node16&#45;&gt;Node14 -->
<g id="edge16_Node000016_Node000014" class="edge">
<title>Node16&#45;&gt;Node14</title>
<g id="a_edge16_Node000016_Node000014"><a xlink:title=" ">
<path fill="none" stroke="#63b8ff" d="M1091.34,-182.28C1086.66,-172.85 1079.16,-157.72 1073.16,-145.63"/>
<polygon fill="#63b8ff" stroke="#63b8ff" points="1076.45,-144.4 1068.87,-137 1070.18,-147.51 1076.45,-144.4"/>
</a>
</g>
</g>
<!-- Node16&#45;&gt;Node17 -->
<g id="edge18_Node000016_Node000017" class="edge">
<title>Node16&#45;&gt;Node17</title>
<g id="a_edge18_Node000016_Node000017"><a xlink:title=" ">
<path fill="none" stroke="#63b8ff" d="M1099.15,-182.22C1104.6,-165.81 1113.14,-130.9 1095.79,-110.5 1080.3,-92.28 924.07,-75.48 854.69,-68.86"/>
<polygon fill="#63b8ff" stroke="#63b8ff" points="855.35,-65.41 845.07,-67.95 854.7,-72.37 855.35,-65.41"/>
</a>
</g>
</g>
<!-- Node16&#45;&gt;Node18 -->
<g id="edge20_Node000016_Node000018" class="edge">
<title>Node16&#45;&gt;Node18</title>
<g id="a_edge20_Node000016_Node000018"><a xlink:title=" ">
<path fill="none" stroke="#63b8ff" d="M1108.3,-182.28C1122.73,-171.94 1146.7,-154.77 1164.16,-142.25"/>
<polygon fill="#63b8ff" stroke="#63b8ff" points="1165.77,-145.4 1171.86,-136.73 1161.7,-139.71 1165.77,-145.4"/>
</a>
</g>
</g>
<!-- Node18&#45;&gt;Node10 -->
<g id="edge21_Node000018_Node000010" class="edge">
<title>Node18&#45;&gt;Node10</title>
<g id="a_edge21_Node000018_Node000010"><a xlink:title=" ">
<path fill="none" stroke="#63b8ff" d="M1199.46,-115.81C1213.6,-106.56 1235.94,-91.95 1252.8,-80.92"/>
<polygon fill="#63b8ff" stroke="#63b8ff" points="1254.27,-84.13 1260.73,-75.73 1250.44,-78.28 1254.27,-84.13"/>
</a>
</g>
</g>
<!-- Node18&#45;&gt;Node11 -->
<g id="edge23_Node000018_Node000011" class="edge">
<title>Node18&#45;&gt;Node11</title>
<g id="a_edge23_Node000018_Node000011"><a xlink:title=" ">
<path fill="none" stroke="#63b8ff" d="M1156.05,-115.7C1088.49,-95.14 923.55,-44.94 848.76,-22.18"/>
<polygon fill="#63b8ff" stroke="#63b8ff" points="850.02,-18.9 839.43,-19.34 847.98,-25.6 850.02,-18.9"/>
</a>
</g>
</g>
<!-- Node18&#45;&gt;Node17 -->
<g id="edge22_Node000018_Node000017" class="edge">
<title>Node18&#45;&gt;Node17</title>
<g id="a_edge22_Node000018_Node000017"><a xlink:title=" ">
<path fill="none" stroke="#63b8ff" d="M1151.86,-115.67C1144.3,-113.82 1136.3,-111.98 1128.79,-110.5 1029.84,-90.99 911.38,-76.15 854.91,-69.58"/>
<polygon fill="#63b8ff" stroke="#63b8ff" points="855.34,-66.11 845.01,-68.44 854.54,-73.06 855.34,-66.11"/>
</a>
</g>
</g>
<!-- Node20 -->
<g id="Node000020" class="node">
<title>Node20</title>
<g id="a_Node000020"><a xlink:title=" ">
<polygon fill="#e0e0e0" stroke="#999999" points="167.17,-135.38 102.42,-135.38 102.42,-116.12 167.17,-116.12 167.17,-135.38"/>
<text text-anchor="middle" x="134.79" y="-121.88" font-family="Helvetica,sans-Serif" font-size="10.00">sys/types.h</text>
</a>
</g>
</g>
<!-- Node19&#45;&gt;Node20 -->
<g id="edge25_Node000019_Node000020" class="edge">
<title>Node19&#45;&gt;Node20</title>
<g id="a_edge25_Node000019_Node000020"><a xlink:title=" ">
<path fill="none" stroke="#63b8ff" d="M214,-182.28C199.32,-171.99 174.98,-154.93 157.15,-142.43"/>
<polygon fill="#63b8ff" stroke="#63b8ff" points="159.21,-139.59 149.01,-136.72 155.19,-145.33 159.21,-139.59"/>
</a>
</g>
</g>
<!-- Node21 -->
<g id="Node000021" class="node">
<title>Node21</title>
<g id="a_Node000021"><a xlink:title=" ">
<polygon fill="#e0e0e0" stroke="#999999" points="84.67,-135.38 34.92,-135.38 34.92,-116.12 84.67,-116.12 84.67,-135.38"/>
<text text-anchor="middle" x="59.79" y="-121.88" font-family="Helvetica,sans-Serif" font-size="10.00">unistd.h</text>
</a>
</g>
</g>
<!-- Node19&#45;&gt;Node21 -->
<g id="edge26_Node000019_Node000021" class="edge">
<title>Node19&#45;&gt;Node21</title>
<g id="a_edge26_Node000019_Node000021"><a xlink:title=" ">
<path fill="none" stroke="#63b8ff" d="M202.18,-182.25C175.4,-172.39 131.4,-155.98 93.79,-141 93.01,-140.69 92.22,-140.37 91.42,-140.05"/>
<polygon fill="#63b8ff" stroke="#63b8ff" points="92.94,-136.89 82.36,-136.34 90.29,-143.37 92.94,-136.89"/>
</a>
</g>
</g>
<!-- Node22 -->
<g id="Node000022" class="node">
<title>Node22</title>
<g id="a_Node000022"><a xlink:href="Context_8hpp.html" target="_top" xlink:title=" ">
<polygon fill="white" stroke="#666666" points="268.54,-135.38 185.04,-135.38 185.04,-116.12 268.54,-116.12 268.54,-135.38"/>
<text text-anchor="middle" x="226.79" y="-121.88" font-family="Helvetica,sans-Serif" font-size="10.00">ers/Context.hpp</text>
</a>
</g>
</g>
<!-- Node19&#45;&gt;Node22 -->
<g id="edge27_Node000019_Node000022" class="edge">
<title>Node19&#45;&gt;Node22</title>
<g id="a_edge27_Node000019_Node000022"><a xlink:title=" ">
<path fill="none" stroke="#63b8ff" d="M226.79,-182.28C226.79,-173.23 226.79,-158.95 226.79,-147.13"/>
<polygon fill="#63b8ff" stroke="#63b8ff" points="230.29,-147.16 226.79,-137.16 223.29,-147.16 230.29,-147.16"/>
</a>
</g>
</g>
<!-- Node22&#45;&gt;Node10 -->
<g id="edge28_Node000022_Node000010" class="edge">
<title>Node22&#45;&gt;Node10</title>
<g id="a_edge28_Node000022_Node000010"><a xlink:title=" ">
<path fill="none" stroke="#63b8ff" d="M254.3,-115.67C261.54,-113.62 269.4,-111.7 276.79,-110.5 469.72,-79.14 1096.13,-68.42 1244.21,-66.3"/>
<polygon fill="#63b8ff" stroke="#63b8ff" points="1244.08,-69.8 1254.03,-66.16 1243.98,-62.8 1244.08,-69.8"/>
</a>
</g>
</g>
<!-- Node22&#45;&gt;Node17 -->
<g id="edge29_Node000022_Node000017" class="edge">
<title>Node22&#45;&gt;Node17</title>
<g id="a_edge29_Node000022_Node000017"><a xlink:title=" ">
<path fill="none" stroke="#63b8ff" d="M255.12,-115.63C262.14,-113.67 269.69,-111.79 276.79,-110.5 468.62,-75.66 703.41,-68 788.78,-66.33"/>
<polygon fill="#63b8ff" stroke="#63b8ff" points="788.59,-69.84 798.53,-66.16 788.47,-62.84 788.59,-69.84"/>
</a>
</g>
</g>
<!-- Node23 -->
<g id="Node000023" class="node">
<title>Node23</title>
<g id="a_Node000023"><a xlink:href="ers_2include_2ers_2Configuration_8hpp.html" target="_top" xlink:title=" ">
<polygon fill="white" stroke="#666666" points="385.17,-74.5 278.42,-74.5 278.42,-55.25 385.17,-55.25 385.17,-74.5"/>
<text text-anchor="middle" x="331.79" y="-61" font-family="Helvetica,sans-Serif" font-size="10.00">ers/Configuration.hpp</text>
</a>
</g>
</g>
<!-- Node22&#45;&gt;Node23 -->
<g id="edge30_Node000022_Node000023" class="edge">
<title>Node22&#45;&gt;Node23</title>
<g id="a_edge30_Node000022_Node000023"><a xlink:title=" ">
<path fill="none" stroke="#63b8ff" d="M242.74,-115.81C259.47,-106.43 286.03,-91.54 305.79,-80.45"/>
<polygon fill="#63b8ff" stroke="#63b8ff" points="307.36,-83.58 314.37,-75.64 303.94,-77.48 307.36,-83.58"/>
</a>
</g>
</g>
<!-- Node23&#45;&gt;Node11 -->
<g id="edge31_Node000023_Node000011" class="edge">
<title>Node23&#45;&gt;Node11</title>
<g id="a_edge31_Node000023_Node000011"><a xlink:title=" ">
<path fill="none" stroke="#63b8ff" d="M385.34,-57.92C482.82,-47.08 687.01,-24.39 772.19,-14.92"/>
<polygon fill="#63b8ff" stroke="#63b8ff" points="772.57,-18.4 782.13,-13.81 771.8,-11.44 772.57,-18.4"/>
</a>
</g>
</g>
<!-- Node25 -->
<g id="Node000025" class="node">
<title>Node25</title>
<g id="a_Node000025"><a xlink:title=" ">
<polygon fill="#e0e0e0" stroke="#999999" points="619.42,-141 520.17,-141 520.17,-110.5 619.42,-110.5 619.42,-141"/>
<text text-anchor="start" x="528.17" y="-127.5" font-family="Helvetica,sans-Serif" font-size="10.00">boost/preprocessor</text>
<text text-anchor="middle" x="569.79" y="-116.25" font-family="Helvetica,sans-Serif" font-size="10.00">/if.hpp</text>
</a>
</g>
</g>
<!-- Node24&#45;&gt;Node25 -->
<g id="edge34_Node000024_Node000025" class="edge">
<title>Node24&#45;&gt;Node25</title>
<g id="a_edge34_Node000024_Node000025"><a xlink:title=" ">
<path fill="none" stroke="#63b8ff" d="M751.17,-176.53C715.17,-166.65 667.67,-153.62 630.31,-143.36"/>
<polygon fill="#63b8ff" stroke="#63b8ff" points="631.6,-140.08 621.03,-140.81 629.74,-146.83 631.6,-140.08"/>
</a>
</g>
</g>
<!-- Node26 -->
<g id="Node000026" class="node">
<title>Node26</title>
<g id="a_Node000026"><a xlink:title=" ">
<polygon fill="#e0e0e0" stroke="#999999" points="736.42,-141 637.17,-141 637.17,-110.5 736.42,-110.5 736.42,-141"/>
<text text-anchor="start" x="645.17" y="-127.5" font-family="Helvetica,sans-Serif" font-size="10.00">boost/preprocessor</text>
<text text-anchor="middle" x="686.79" y="-116.25" font-family="Helvetica,sans-Serif" font-size="10.00">/seq.hpp</text>
</a>
</g>
</g>
<!-- Node24&#45;&gt;Node26 -->
<g id="edge35_Node000024_Node000026" class="edge">
<title>Node24&#45;&gt;Node26</title>
<g id="a_edge35_Node000024_Node000026"><a xlink:title=" ">
<path fill="none" stroke="#63b8ff" d="M778.01,-176.61C761.87,-167.79 741.09,-156.43 723.43,-146.78"/>
<polygon fill="#63b8ff" stroke="#63b8ff" points="725.24,-143.78 714.79,-142.05 721.88,-149.92 725.24,-143.78"/>
</a>
</g>
</g>
<!-- Node27 -->
<g id="Node000027" class="node">
<title>Node27</title>
<g id="a_Node000027"><a xlink:title=" ">
<polygon fill="#e0e0e0" stroke="#999999" points="853.42,-141 754.17,-141 754.17,-110.5 853.42,-110.5 853.42,-141"/>
<text text-anchor="start" x="762.17" y="-127.5" font-family="Helvetica,sans-Serif" font-size="10.00">boost/preprocessor</text>
<text text-anchor="middle" x="803.79" y="-116.25" font-family="Helvetica,sans-Serif" font-size="10.00">/tuple.hpp</text>
</a>
</g>
</g>
<!-- Node24&#45;&gt;Node27 -->
<g id="edge36_Node000024_Node000027" class="edge">
<title>Node24&#45;&gt;Node27</title>
<g id="a_edge36_Node000024_Node000027"><a xlink:title=" ">
<path fill="none" stroke="#63b8ff" d="M804.56,-176.61C804.45,-169.52 804.32,-160.79 804.19,-152.63"/>
<polygon fill="#63b8ff" stroke="#63b8ff" points="807.69,-152.79 804.04,-142.84 800.7,-152.89 807.69,-152.79"/>
</a>
</g>
</g>
<!-- Node28 -->
<g id="Node000028" class="node">
<title>Node28</title>
<g id="a_Node000028"><a xlink:title=" ">
<polygon fill="#e0e0e0" stroke="#999999" points="970.42,-141 871.17,-141 871.17,-110.5 970.42,-110.5 970.42,-141"/>
<text text-anchor="start" x="879.17" y="-127.5" font-family="Helvetica,sans-Serif" font-size="10.00">boost/preprocessor</text>
<text text-anchor="middle" x="920.79" y="-116.25" font-family="Helvetica,sans-Serif" font-size="10.00">/logical.hpp</text>
</a>
</g>
</g>
<!-- Node24&#45;&gt;Node28 -->
<g id="edge37_Node000024_Node000028" class="edge">
<title>Node24&#45;&gt;Node28</title>
<g id="a_edge37_Node000024_Node000028"><a xlink:title=" ">
<path fill="none" stroke="#63b8ff" d="M831.11,-176.61C846.98,-167.79 867.42,-156.43 884.77,-146.78"/>
<polygon fill="#63b8ff" stroke="#63b8ff" points="886.21,-149.98 893.25,-142.06 882.81,-143.86 886.21,-149.98"/>
</a>
</g>
</g>
<!-- Node29 -->
<g id="Node000029" class="node">
<title>Node29</title>
<g id="a_Node000029"><a xlink:title=" ">
<polygon fill="#e0e0e0" stroke="#999999" points="385.42,-141 286.17,-141 286.17,-110.5 385.42,-110.5 385.42,-141"/>
<text text-anchor="start" x="294.17" y="-127.5" font-family="Helvetica,sans-Serif" font-size="10.00">boost/preprocessor</text>
<text text-anchor="middle" x="335.79" y="-116.25" font-family="Helvetica,sans-Serif" font-size="10.00">/stringize.hpp</text>
</a>
</g>
</g>
<!-- Node24&#45;&gt;Node29 -->
<g id="edge38_Node000024_Node000029" class="edge">
<title>Node24&#45;&gt;Node29</title>
<g id="a_edge38_Node000024_Node000029"><a xlink:title=" ">
<path fill="none" stroke="#63b8ff" d="M734.62,-178.33C731.64,-177.86 728.69,-177.42 725.79,-177 582.48,-156.33 541.92,-166.25 396.78,-141.39"/>
<polygon fill="#63b8ff" stroke="#63b8ff" points="397.63,-137.98 387.18,-139.72 396.43,-144.88 397.63,-137.98"/>
</a>
</g>
</g>
<!-- Node30 -->
<g id="Node000030" class="node">
<title>Node30</title>
<g id="a_Node000030"><a xlink:title=" ">
<polygon fill="#e0e0e0" stroke="#999999" points="502.42,-141 403.17,-141 403.17,-110.5 502.42,-110.5 502.42,-141"/>
<text text-anchor="start" x="411.17" y="-127.5" font-family="Helvetica,sans-Serif" font-size="10.00">boost/preprocessor</text>
<text text-anchor="middle" x="452.79" y="-116.25" font-family="Helvetica,sans-Serif" font-size="10.00">/comparison.hpp</text>
</a>
</g>
</g>
<!-- Node24&#45;&gt;Node30 -->
<g id="edge39_Node000024_Node000030" class="edge">
<title>Node24&#45;&gt;Node30</title>
<g id="a_edge39_Node000024_Node000030"><a xlink:title=" ">
<path fill="none" stroke="#63b8ff" d="M734.59,-178.54C731.62,-178.02 728.67,-177.5 725.79,-177 633.88,-161.02 607.61,-160.58 513.87,-141.55"/>
<polygon fill="#63b8ff" stroke="#63b8ff" points="514.71,-138.15 504.21,-139.57 513.3,-145.01 514.71,-138.15"/>
</a>
</g>
</g>
<!-- Node32&#45;&gt;Node10 -->
<g id="edge45_Node000032_Node000010" class="edge">
<title>Node32&#45;&gt;Node10</title>
<g id="a_edge45_Node000032_Node000010"><a xlink:title=" ">
<path fill="none" stroke="#63b8ff" d="M1726.61,-243.02C1648.62,-212.37 1395.67,-112.98 1306.91,-78.1"/>
<polygon fill="#63b8ff" stroke="#63b8ff" points="1308.21,-74.85 1297.63,-74.46 1305.65,-81.37 1308.21,-74.85"/>
</a>
</g>
</g>
<!-- Node32&#45;&gt;Node11 -->
<g id="edge44_Node000032_Node000011" class="edge">
<title>Node32&#45;&gt;Node11</title>
<g id="a_edge44_Node000032_Node000011"><a xlink:title=" ">
<path fill="none" stroke="#63b8ff" d="M1734.66,-243.19C1709.45,-228.47 1657.01,-198.6 1610.79,-177 1538.42,-143.17 1518.02,-140.03 1443.79,-110.5 1382.02,-85.93 1369.45,-70.68 1304.79,-55.25 1138.73,-15.63 933.61,-10.61 849.51,-10.36"/>
<polygon fill="#63b8ff" stroke="#63b8ff" points="849.52,-6.86 839.52,-10.36 849.52,-13.86 849.52,-6.86"/>
</a>
</g>
</g>
<!-- Node32&#45;&gt;Node31 -->
<g id="edge42_Node000032_Node000031" class="edge">
<title>Node32&#45;&gt;Node31</title>
<g id="a_edge42_Node000032_Node000031"><a xlink:title=" ">
<path fill="none" stroke="#63b8ff" d="M1710.51,-243.05C1666.14,-232.81 1593.83,-216.12 1545.31,-204.91"/>
<polygon fill="#63b8ff" stroke="#63b8ff" points="1546.13,-201.51 1535.59,-202.67 1544.55,-208.33 1546.13,-201.51"/>
</a>
</g>
</g>
<!-- Node33 -->
<g id="Node000033" class="node">
<title>Node33</title>
<g id="a_Node000033"><a xlink:title=" ">
<polygon fill="#e0e0e0" stroke="#999999" points="1758.79,-201.88 1718.79,-201.88 1718.79,-182.62 1758.79,-182.62 1758.79,-201.88"/>
<text text-anchor="middle" x="1738.79" y="-188.38" font-family="Helvetica,sans-Serif" font-size="10.00">ctime</text>
</a>
</g>
</g>
<!-- Node32&#45;&gt;Node33 -->
<g id="edge43_Node000032_Node000033" class="edge">
<title>Node32&#45;&gt;Node33</title>
<g id="a_edge43_Node000032_Node000033"><a xlink:title=" ">
<path fill="none" stroke="#63b8ff" d="M1748.12,-243.18C1746.65,-235.32 1744.46,-223.57 1742.56,-213.45"/>
<polygon fill="#63b8ff" stroke="#63b8ff" points="1746.03,-212.95 1740.75,-203.76 1739.15,-214.24 1746.03,-212.95"/>
</a>
</g>
</g>
<!-- Node34 -->
<g id="Node000034" class="node">
<title>Node34</title>
<g id="a_Node000034"><a xlink:href="JSONTags_8hpp.html" target="_top" xlink:title=" ">
<polygon fill="white" stroke="#666666" points="1901.17,-201.88 1776.42,-201.88 1776.42,-182.62 1901.17,-182.62 1901.17,-201.88"/>
<text text-anchor="middle" x="1838.79" y="-188.38" font-family="Helvetica,sans-Serif" font-size="10.00">opmonlib/JSONTags.hpp</text>
</a>
</g>
</g>
<!-- Node32&#45;&gt;Node34 -->
<g id="edge46_Node000032_Node000034" class="edge">
<title>Node32&#45;&gt;Node34</title>
<g id="a_edge46_Node000032_Node000034"><a xlink:title=" ">
<path fill="none" stroke="#63b8ff" d="M1763.31,-243.18C1777.16,-234.02 1798.97,-219.59 1815.59,-208.6"/>
<polygon fill="#63b8ff" stroke="#63b8ff" points="1817.47,-211.55 1823.88,-203.11 1813.61,-205.71 1817.47,-211.55"/>
</a>
</g>
</g>
</g>
</svg>
