<?xml version="1.0" encoding="UTF-8" standalone="no"?>
<!DOCTYPE svg PUBLIC "-//W3C//DTD SVG 1.1//EN"
 "http://www.w3.org/Graphics/SVG/1.1/DTD/svg11.dtd">
<!-- Generated by graphviz version 9.0.0 (20230911.1827)
 -->
<!-- Title: dbse::SchemaTab Pages: 1 -->
<svg width="872pt" height="595pt"
 viewBox="0.00 0.00 872.38 595.00" xmlns="http://www.w3.org/2000/svg" xmlns:xlink="http://www.w3.org/1999/xlink">
<g id="graph0" class="graph" transform="scale(1 1) rotate(0) translate(4 591)">
<title>dbse::SchemaTab</title>
<!-- Node1 -->
<g id="Node000001" class="node">
<title>Node1</title>
<g id="a_Node000001"><a xlink:title=" ">
<polygon fill="#999999" stroke="#666666" points="168.38,-97 74.38,-97 74.38,-77.75 168.38,-77.75 168.38,-97"/>
<text text-anchor="middle" x="121.38" y="-83.5" font-family="Helvetica,sans-Serif" font-size="10.00">dbse::SchemaTab</text>
</a>
</g>
</g>
<!-- Node2 -->
<g id="Node000002" class="node">
<title>Node2</title>
<g id="a_Node000002"><a xlink:title=" ">
<polygon fill="white" stroke="#666666" points="110.12,-208.5 56.62,-208.5 56.62,-189.25 110.12,-189.25 110.12,-208.5"/>
<text text-anchor="middle" x="83.38" y="-195" font-family="Helvetica,sans-Serif" font-size="10.00">QWidget</text>
</a>
</g>
</g>
<!-- Node2&#45;&gt;Node1 -->
<g id="edge1_Node000001_Node000002" class="edge">
<title>Node2&#45;&gt;Node1</title>
<g id="a_edge1_Node000001_Node000002"><a xlink:title=" ">
<path fill="none" stroke="#63b8ff" d="M90.16,-178.33C98.44,-154.47 112.09,-115.13 118.22,-97.46"/>
<polygon fill="#63b8ff" stroke="#63b8ff" points="86.95,-176.89 86.98,-187.48 93.57,-179.18 86.95,-176.89"/>
</a>
</g>
</g>
<!-- Node3 -->
<g id="Node000003" class="node">
<title>Node3</title>
<g id="a_Node000003"><a xlink:href="classdbse_1_1SchemaGraphicsScene.html" target="_top" xlink:title=" ">
<polygon fill="white" stroke="#666666" points="272.5,-208.5 128.25,-208.5 128.25,-189.25 272.5,-189.25 272.5,-208.5"/>
<text text-anchor="middle" x="200.38" y="-195" font-family="Helvetica,sans-Serif" font-size="10.00">dbse::SchemaGraphicsScene</text>
</a>
</g>
</g>
<!-- Node3&#45;&gt;Node1 -->
<g id="edge2_Node000001_Node000003" class="edge">
<title>Node3&#45;&gt;Node1</title>
<g id="a_edge2_Node000001_Node000003"><a xlink:title=" ">
<path fill="none" stroke="#9a32cd" stroke-dasharray="5,2" d="M187.2,-179.62C170.1,-155.91 140.91,-115.45 127.93,-97.46"/>
<polygon fill="#9a32cd" stroke="#9a32cd" points="184.34,-181.62 193.02,-187.69 190.01,-177.53 184.34,-181.62"/>
</a>
</g>
<text text-anchor="middle" x="207.5" y="-139.25" font-family="Helvetica,sans-Serif" font-size="10.00" fill="grey"> GraphScene</text>
</g>
<!-- Node4 -->
<g id="Node000004" class="node">
<title>Node4</title>
<g id="a_Node000004"><a xlink:title=" ">
<polygon fill="white" stroke="#666666" points="245.5,-275 155.25,-275 155.25,-255.75 245.5,-255.75 245.5,-275"/>
<text text-anchor="middle" x="200.38" y="-261.5" font-family="Helvetica,sans-Serif" font-size="10.00">QGraphicsScene</text>
</a>
</g>
</g>
<!-- Node4&#45;&gt;Node3 -->
<g id="edge3_Node000003_Node000004" class="edge">
<title>Node4&#45;&gt;Node3</title>
<g id="a_edge3_Node000003_Node000004"><a xlink:title=" ">
<path fill="none" stroke="#63b8ff" d="M200.38,-243.9C200.38,-232.07 200.38,-217.79 200.38,-208.77"/>
<polygon fill="#63b8ff" stroke="#63b8ff" points="196.88,-243.89 200.38,-253.89 203.88,-243.89 196.88,-243.89"/>
</a>
</g>
</g>
<!-- Node5 -->
<g id="Node000005" class="node">
<title>Node5</title>
<g id="a_Node000005"><a xlink:href="classdbse_1_1SchemaGraphicObject.html" target="_top" xlink:title=" ">
<polygon fill="white" stroke="#666666" points="346.25,-358.38 206.5,-358.38 206.5,-339.12 346.25,-339.12 346.25,-358.38"/>
<text text-anchor="middle" x="276.38" y="-344.88" font-family="Helvetica,sans-Serif" font-size="10.00">dbse::SchemaGraphicObject</text>
</a>
</g>
</g>
<!-- Node5&#45;&gt;Node3 -->
<g id="edge4_Node000003_Node000005" class="edge">
<title>Node5&#45;&gt;Node3</title>
<g id="a_edge4_Node000003_Node000005"><a xlink:title=" ">
<path fill="none" stroke="#9a32cd" stroke-dasharray="5,2" d="M274.64,-327.47C272.28,-308.05 266.82,-278.44 254.38,-255.75 243.74,-236.35 224.57,-218.88 212.16,-208.82"/>
<polygon fill="#9a32cd" stroke="#9a32cd" points="271.14,-327.73 275.65,-337.32 278.11,-327.02 271.14,-327.73"/>
</a>
</g>
<text text-anchor="middle" x="294.5" y="-261.5" font-family="Helvetica,sans-Serif" font-size="10.00" fill="grey"> CurrentObject</text>
</g>
<!-- Node20 -->
<g id="Node000020" class="node">
<title>Node20</title>
<g id="a_Node000020"><a xlink:href="classdbse_1_1SchemaGraphicArrow.html" target="_top" xlink:title=" ">
<polygon fill="white" stroke="#666666" points="136.75,-275 0,-275 0,-255.75 136.75,-255.75 136.75,-275"/>
<text text-anchor="middle" x="68.38" y="-261.5" font-family="Helvetica,sans-Serif" font-size="10.00">dbse::SchemaGraphicArrow</text>
</a>
</g>
</g>
<!-- Node5&#45;&gt;Node20 -->
<g id="edge28_Node000020_Node000005" class="edge">
<title>Node5&#45;&gt;Node20</title>
<g id="a_edge28_Node000020_Node000005"><a xlink:title=" ">
<path fill="none" stroke="#9a32cd" stroke-dasharray="5,2" d="M242.68,-334.57C200.21,-317.95 128.3,-289.82 91.53,-275.43"/>
<polygon fill="#9a32cd" stroke="#9a32cd" points="241.32,-337.8 251.91,-338.18 243.87,-331.28 241.32,-337.8"/>
</a>
</g>
<text text-anchor="middle" x="201.88" y="-306" font-family="Helvetica,sans-Serif" font-size="10.00" fill="grey"> End</text>
<text text-anchor="middle" x="201.88" y="-294.75" font-family="Helvetica,sans-Serif" font-size="10.00" fill="grey">Start</text>
</g>
<!-- Node6 -->
<g id="Node000006" class="node">
<title>Node6</title>
<g id="a_Node000006"><a xlink:title=" ">
<polygon fill="white" stroke="#666666" points="317.88,-453 226.88,-453 226.88,-433.75 317.88,-433.75 317.88,-453"/>
<text text-anchor="middle" x="272.38" y="-439.5" font-family="Helvetica,sans-Serif" font-size="10.00">QGraphicsObject</text>
</a>
</g>
</g>
<!-- Node6&#45;&gt;Node5 -->
<g id="edge5_Node000005_Node000006" class="edge">
<title>Node6&#45;&gt;Node5</title>
<g id="a_edge5_Node000005_Node000006"><a xlink:title=" ">
<path fill="none" stroke="#63b8ff" d="M273.25,-422.12C274.1,-402.39 275.36,-373.3 275.99,-358.74"/>
<polygon fill="#63b8ff" stroke="#63b8ff" points="269.76,-421.84 272.82,-431.98 276.75,-422.14 269.76,-421.84"/>
</a>
</g>
</g>
<!-- Node7 -->
<g id="Node000007" class="node">
<title>Node7</title>
<g id="a_Node000007"><a xlink:href="classdunedaq_1_1oks_1_1OksClass.html" target="_top" xlink:title="The OKS class.">
<polygon fill="white" stroke="#666666" points="471.5,-453 351.25,-453 351.25,-433.75 471.5,-433.75 471.5,-453"/>
<text text-anchor="middle" x="411.38" y="-439.5" font-family="Helvetica,sans-Serif" font-size="10.00">dunedaq::oks::OksClass</text>
</a>
</g>
</g>
<!-- Node7&#45;&gt;Node5 -->
<g id="edge6_Node000005_Node000007" class="edge">
<title>Node7&#45;&gt;Node5</title>
<g id="a_edge6_Node000005_Node000007"><a xlink:title=" ">
<path fill="none" stroke="#9a32cd" stroke-dasharray="5,2" d="M340.15,-433.53C327.94,-429.55 316.08,-423.87 306.38,-415.75 288.41,-400.74 280.72,-372.7 277.85,-358.49"/>
<polygon fill="#9a32cd" stroke="#9a32cd" points="338.89,-436.81 349.47,-436.19 340.81,-430.08 338.89,-436.81"/>
</a>
</g>
<text text-anchor="middle" x="336.38" y="-395" font-family="Helvetica,sans-Serif" font-size="10.00" fill="grey"> m_class_info</text>
</g>
<!-- Node15 -->
<g id="Node000015" class="node">
<title>Node15</title>
<g id="a_Node000015"><a xlink:href="uniondunedaq_1_1oks_1_1OksData_1_1Data.html" target="_top" xlink:title=" ">
<polygon fill="white" stroke="#666666" points="781.25,-364 665.5,-364 665.5,-333.5 781.25,-333.5 781.25,-364"/>
<text text-anchor="start" x="673.5" y="-350.5" font-family="Helvetica,sans-Serif" font-size="10.00">dunedaq::oks::OksData</text>
<text text-anchor="middle" x="723.38" y="-339.25" font-family="Helvetica,sans-Serif" font-size="10.00">::Data</text>
</a>
</g>
</g>
<!-- Node7&#45;&gt;Node15 -->
<g id="edge17_Node000015_Node000007" class="edge">
<title>Node7&#45;&gt;Node15</title>
<g id="a_edge17_Node000015_Node000007"><a xlink:title=" ">
<path fill="none" stroke="#9a32cd" stroke-dasharray="5,2" d="M452.64,-430.12C509.75,-413.17 612.73,-382.6 673.89,-364.44"/>
<polygon fill="#9a32cd" stroke="#9a32cd" points="451.9,-426.69 443.31,-432.89 453.89,-433.4 451.9,-426.69"/>
</a>
</g>
<text text-anchor="middle" x="631.38" y="-400.62" font-family="Helvetica,sans-Serif" font-size="10.00" fill="grey"> CLASS</text>
<text text-anchor="middle" x="631.38" y="-389.38" font-family="Helvetica,sans-Serif" font-size="10.00" fill="grey">class_id</text>
</g>
<!-- Node8 -->
<g id="Node000008" class="node">
<title>Node8</title>
<g id="a_Node000008"><a xlink:href="classdunedaq_1_1oks_1_1OksFile.html" target="_top" xlink:title="Provides interface to the OKS XML schema and data files.">
<polygon fill="white" stroke="#666666" points="611,-19.25 499.75,-19.25 499.75,0 611,0 611,-19.25"/>
<text text-anchor="middle" x="555.38" y="-5.75" font-family="Helvetica,sans-Serif" font-size="10.00">dunedaq::oks::OksFile</text>
</a>
</g>
</g>
<!-- Node8&#45;&gt;Node7 -->
<g id="edge7_Node000007_Node000008" class="edge">
<title>Node8&#45;&gt;Node7</title>
<g id="a_edge7_Node000007_Node000008"><a xlink:title=" ">
<path fill="none" stroke="#9a32cd" stroke-dasharray="5,2" d="M488.19,-13.54C438.84,-19.72 380.38,-37.39 380.38,-86.38 380.38,-349.75 380.38,-349.75 380.38,-349.75 380.38,-381.97 397.45,-417.38 406.26,-433.5"/>
<polygon fill="#9a32cd" stroke="#9a32cd" points="488.46,-17.03 498.02,-12.46 487.7,-10.07 488.46,-17.03"/>
</a>
</g>
<text text-anchor="middle" x="392.75" y="-228.25" font-family="Helvetica,sans-Serif" font-size="10.00" fill="grey"> p_file</text>
</g>
<!-- Node8&#45;&gt;Node8 -->
<g id="edge8_Node000008_Node000008" class="edge">
<title>Node8&#45;&gt;Node8</title>
<g id="a_edge8_Node000008_Node000008"><a xlink:title=" ">
<path fill="none" stroke="#9a32cd" stroke-dasharray="5,2" d="M622.46,-14.69C626.55,-13.48 629,-11.8 629,-9.62 629,-5.87 621.66,-3.56 611.24,-2.71"/>
<polygon fill="#9a32cd" stroke="#9a32cd" points="622.03,-11.21 612.73,-16.29 623.17,-18.12 622.03,-11.21"/>
</a>
</g>
<text text-anchor="middle" x="660.88" y="-5.75" font-family="Helvetica,sans-Serif" font-size="10.00" fill="grey"> p_included_by</text>
</g>
<!-- Node9 -->
<g id="Node000009" class="node">
<title>Node9</title>
<g id="a_Node000009"><a xlink:href="classdunedaq_1_1oks_1_1OksKernel.html" target="_top" xlink:title="Provides interface to the OKS kernel.">
<polygon fill="white" stroke="#666666" points="617,-97 493.75,-97 493.75,-77.75 617,-77.75 617,-97"/>
<text text-anchor="middle" x="555.38" y="-83.5" font-family="Helvetica,sans-Serif" font-size="10.00">dunedaq::oks::OksKernel</text>
</a>
</g>
</g>
<!-- Node8&#45;&gt;Node9 -->
<g id="edge10_Node000009_Node000008" class="edge">
<title>Node8&#45;&gt;Node9</title>
<g id="a_edge10_Node000009_Node000008"><a xlink:title=" ">
<path fill="none" stroke="#9a32cd" stroke-dasharray="5,2" d="M562.79,-30.22C563.44,-32.56 563.99,-34.94 564.38,-37.25 566,-47.12 566,-49.88 564.38,-59.75 563.36,-65.91 561.11,-72.57 559.11,-77.68"/>
<polygon fill="#9a32cd" stroke="#9a32cd" points="566.11,-29.11 559.6,-20.75 559.48,-31.34 566.11,-29.11"/>
</a>
</g>
<text text-anchor="middle" x="603.62" y="-50.25" font-family="Helvetica,sans-Serif" font-size="10.00" fill="grey"> p_active_data</text>
<text text-anchor="middle" x="603.62" y="-39" font-family="Helvetica,sans-Serif" font-size="10.00" fill="grey">p_active_schema</text>
</g>
<!-- Node12 -->
<g id="Node000012" class="node">
<title>Node12</title>
<g id="a_Node000012"><a xlink:href="classdunedaq_1_1oks_1_1OksObject.html" target="_top" xlink:title="OksObject describes instance of OksClass.">
<polygon fill="white" stroke="#666666" points="864.38,-208.5 740.38,-208.5 740.38,-189.25 864.38,-189.25 864.38,-208.5"/>
<text text-anchor="middle" x="802.38" y="-195" font-family="Helvetica,sans-Serif" font-size="10.00">dunedaq::oks::OksObject</text>
</a>
</g>
</g>
<!-- Node8&#45;&gt;Node12 -->
<g id="edge22_Node000012_Node000008" class="edge">
<title>Node8&#45;&gt;Node12</title>
<g id="a_edge22_Node000012_Node000008"><a xlink:title=" ">
<path fill="none" stroke="#9a32cd" stroke-dasharray="5,2" d="M622.39,-21.65C676.53,-34.34 749.84,-60.86 788.38,-115 804.54,-137.71 804.38,-172.66 803.25,-188.95"/>
<polygon fill="#9a32cd" stroke="#9a32cd" points="623.49,-18.31 612.97,-19.55 621.97,-25.14 623.49,-18.31"/>
</a>
</g>
<text text-anchor="middle" x="777.5" y="-83.5" font-family="Helvetica,sans-Serif" font-size="10.00" fill="grey"> file</text>
</g>
<!-- Node9&#45;&gt;Node7 -->
<g id="edge23_Node000007_Node000009" class="edge">
<title>Node9&#45;&gt;Node7</title>
<g id="a_edge23_Node000007_Node000009"><a xlink:title=" ">
<path fill="none" stroke="#9a32cd" stroke-dasharray="5,2" d="M518.05,-101.68C479.96,-117.93 426.38,-149.41 426.38,-197.88 426.38,-349.75 426.38,-349.75 426.38,-349.75 426.38,-380.7 418.11,-416.73 413.85,-433.25"/>
<polygon fill="#9a32cd" stroke="#9a32cd" points="518.99,-105.08 526.93,-98.06 516.35,-98.59 518.99,-105.08"/>
</a>
</g>
<text text-anchor="middle" x="445.88" y="-261.5" font-family="Helvetica,sans-Serif" font-size="10.00" fill="grey"> p_kernel</text>
</g>
<!-- Node9&#45;&gt;Node8 -->
<g id="edge9_Node000008_Node000009" class="edge">
<title>Node9&#45;&gt;Node8</title>
<g id="a_edge9_Node000008_Node000009"><a xlink:title=" ">
<path fill="none" stroke="#9a32cd" stroke-dasharray="5,2" d="M532.23,-69.8C529.46,-66.79 527.02,-63.42 525.38,-59.75 521.27,-50.63 521.27,-46.37 525.38,-37.25 528.57,-30.14 534.71,-24.15 540.61,-19.67"/>
<polygon fill="#9a32cd" stroke="#9a32cd" points="529.71,-72.24 539.49,-76.32 534.39,-67.03 529.71,-72.24"/>
</a>
</g>
<text text-anchor="middle" x="544.88" y="-44.62" font-family="Helvetica,sans-Serif" font-size="10.00" fill="grey"> p_kernel</text>
</g>
<!-- Node10 -->
<g id="Node000010" class="node">
<title>Node10</title>
<g id="a_Node000010"><a xlink:href="classdunedaq_1_1oks_1_1OksProfiler.html" target="_top" xlink:title=" ">
<polygon fill="white" stroke="#666666" points="580.12,-208.5 454.62,-208.5 454.62,-189.25 580.12,-189.25 580.12,-208.5"/>
<text text-anchor="middle" x="517.38" y="-195" font-family="Helvetica,sans-Serif" font-size="10.00">dunedaq::oks::OksProfiler</text>
</a>
</g>
</g>
<!-- Node10&#45;&gt;Node9 -->
<g id="edge11_Node000009_Node000010" class="edge">
<title>Node10&#45;&gt;Node9</title>
<g id="a_edge11_Node000009_Node000010"><a xlink:title=" ">
<path fill="none" stroke="#9a32cd" stroke-dasharray="5,2" d="M521.55,-178.12C525.48,-161.05 532.04,-135.91 540.62,-115 543.11,-108.94 546.65,-102.5 549.64,-97.48"/>
<polygon fill="#9a32cd" stroke="#9a32cd" points="518.23,-176.94 519.49,-187.46 525.06,-178.45 518.23,-176.94"/>
</a>
</g>
<text text-anchor="middle" x="555.75" y="-139.25" font-family="Helvetica,sans-Serif" font-size="10.00" fill="grey"> profiler</text>
</g>
<!-- Node11 -->
<g id="Node000011" class="node">
<title>Node11</title>
<g id="a_Node000011"><a xlink:href="structdunedaq_1_1oks_1_1LoadErrors.html" target="_top" xlink:title=" ">
<polygon fill="white" stroke="#666666" points="722.75,-208.5 598,-208.5 598,-189.25 722.75,-189.25 722.75,-208.5"/>
<text text-anchor="middle" x="660.38" y="-195" font-family="Helvetica,sans-Serif" font-size="10.00">dunedaq::oks::LoadErrors</text>
</a>
</g>
</g>
<!-- Node11&#45;&gt;Node9 -->
<g id="edge12_Node000009_Node000011" class="edge">
<title>Node11&#45;&gt;Node9</title>
<g id="a_edge12_Node000009_Node000011"><a xlink:title=" ">
<path fill="none" stroke="#9a32cd" stroke-dasharray="5,2" d="M613.37,-184.3C606.51,-180.84 599.97,-176.56 594.62,-171.25 575.43,-152.19 583.54,-139.16 571.38,-115 568.27,-108.83 564.27,-102.18 561.05,-97.06"/>
<polygon fill="#9a32cd" stroke="#9a32cd" points="611.61,-187.35 622.17,-188.18 614.43,-180.94 611.61,-187.35"/>
</a>
</g>
<text text-anchor="middle" x="624.75" y="-139.25" font-family="Helvetica,sans-Serif" font-size="10.00" fill="grey"> p_load_errors</text>
</g>
<!-- Node12&#45;&gt;Node9 -->
<g id="edge13_Node000009_Node000012" class="edge">
<title>Node12&#45;&gt;Node9</title>
<g id="a_edge13_Node000009_Node000012"><a xlink:title=" ">
<path fill="none" stroke="#9a32cd" stroke-dasharray="5,2" d="M728.8,-188.02C706.88,-183.83 686.47,-178.26 678.12,-171.25 657.48,-153.9 675.59,-132.85 655.38,-115 644.74,-105.61 631.14,-99.47 617.43,-95.49"/>
<polygon fill="#9a32cd" stroke="#9a32cd" points="728.04,-191.44 738.5,-189.76 729.28,-184.55 728.04,-191.44"/>
</a>
</g>
<text text-anchor="start" x="677.38" y="-161.75" font-family="Helvetica,sans-Serif" font-size="10.00" fill="grey"> p_change_object_notify</text>
<text text-anchor="middle" x="732.5" y="-150.5" font-family="Helvetica,sans-Serif" font-size="10.00" fill="grey">_fn</text>
<text text-anchor="start" x="677.38" y="-139.25" font-family="Helvetica,sans-Serif" font-size="10.00" fill="grey">p_create_object_notify</text>
<text text-anchor="middle" x="732.5" y="-128" font-family="Helvetica,sans-Serif" font-size="10.00" fill="grey">_fn</text>
<text text-anchor="middle" x="732.5" y="-116.75" font-family="Helvetica,sans-Serif" font-size="10.00" fill="grey">p_delete_object_notify_fn</text>
</g>
<!-- Node12&#45;&gt;Node15 -->
<g id="edge18_Node000015_Node000012" class="edge">
<title>Node12&#45;&gt;Node15</title>
<g id="a_edge18_Node000015_Node000012"><a xlink:title=" ">
<path fill="none" stroke="#9a32cd" stroke-dasharray="5,2" d="M792.18,-218.96C776.21,-248.85 745.63,-306.08 731.24,-333.03"/>
<polygon fill="#9a32cd" stroke="#9a32cd" points="795.18,-220.76 796.81,-210.29 789.01,-217.46 795.18,-220.76"/>
</a>
</g>
<text text-anchor="middle" x="791.62" y="-261.5" font-family="Helvetica,sans-Serif" font-size="10.00" fill="grey"> OBJECT</text>
</g>
<!-- Node13 -->
<g id="Node000013" class="node">
<title>Node13</title>
<g id="a_Node000013"><a xlink:title=" ">
<polygon fill="white" stroke="#666666" points="845.75,-453 805,-453 805,-433.75 845.75,-433.75 845.75,-453"/>
<text text-anchor="middle" x="825.38" y="-439.5" font-family="Helvetica,sans-Serif" font-size="10.00">struct</text>
</a>
</g>
</g>
<!-- Node13&#45;&gt;Node12 -->
<g id="edge14_Node000012_Node000013" class="edge">
<title>Node13&#45;&gt;Node12</title>
<g id="a_edge14_Node000012_Node000013"><a xlink:title=" ">
<path fill="none" stroke="#9a32cd" stroke-dasharray="5,2" d="M825.7,-422.14C825.96,-387.75 825.26,-315.79 816.38,-255.75 813.89,-238.93 808.53,-219.81 805.21,-208.86"/>
<polygon fill="#9a32cd" stroke="#9a32cd" points="822.2,-421.82 825.58,-431.87 829.2,-421.91 822.2,-421.82"/>
</a>
</g>
<text text-anchor="middle" x="829.88" y="-300.38" font-family="Helvetica,sans-Serif" font-size="10.00" fill="grey"> uid</text>
</g>
<!-- Node13&#45;&gt;Node15 -->
<g id="edge21_Node000015_Node000013" class="edge">
<title>Node13&#45;&gt;Node15</title>
<g id="a_edge21_Node000015_Node000013"><a xlink:title=" ">
<path fill="none" stroke="#9a32cd" stroke-dasharray="5,2" d="M809.29,-425.56C792.52,-408.04 768.51,-382.99 767.38,-382 760.39,-375.89 752.31,-369.73 744.99,-364.45"/>
<polygon fill="#9a32cd" stroke="#9a32cd" points="806.32,-427.52 815.76,-432.32 811.37,-422.68 806.32,-427.52"/>
</a>
</g>
<text text-anchor="middle" x="809.62" y="-400.62" font-family="Helvetica,sans-Serif" font-size="10.00" fill="grey"> UID</text>
<text text-anchor="middle" x="809.62" y="-389.38" font-family="Helvetica,sans-Serif" font-size="10.00" fill="grey">UID2</text>
</g>
<!-- Node14 -->
<g id="Node000014" class="node">
<title>Node14</title>
<g id="a_Node000014"><a xlink:href="structdunedaq_1_1oks_1_1OksData.html" target="_top" xlink:title="the structure to pass common parameters to various read() methods of OksData and OksObject class">
<polygon fill="white" stroke="#666666" points="731.25,-275 615.5,-275 615.5,-255.75 731.25,-255.75 731.25,-275"/>
<text text-anchor="middle" x="673.38" y="-261.5" font-family="Helvetica,sans-Serif" font-size="10.00">dunedaq::oks::OksData</text>
</a>
</g>
</g>
<!-- Node14&#45;&gt;Node12 -->
<g id="edge15_Node000012_Node000014" class="edge">
<title>Node14&#45;&gt;Node12</title>
<g id="a_edge15_Node000012_Node000014"><a xlink:title=" ">
<path fill="none" stroke="#9a32cd" stroke-dasharray="5,2" d="M694.75,-249.13C705.68,-241.73 719.39,-233.05 732.38,-226.5 745.84,-219.71 761.48,-213.61 774.55,-208.96"/>
<polygon fill="#9a32cd" stroke="#9a32cd" points="693.07,-246.04 686.83,-254.61 697.05,-251.79 693.07,-246.04"/>
</a>
</g>
<text text-anchor="middle" x="742.88" y="-228.25" font-family="Helvetica,sans-Serif" font-size="10.00" fill="grey"> data</text>
</g>
<!-- Node15&#45;&gt;Node14 -->
<g id="edge16_Node000014_Node000015" class="edge">
<title>Node15&#45;&gt;Node14</title>
<g id="a_edge16_Node000014_Node000015"><a xlink:title=" ">
<path fill="none" stroke="#9a32cd" stroke-dasharray="5,2" d="M708.62,-323.73C698.6,-307.43 685.94,-286.82 678.84,-275.27"/>
<polygon fill="#9a32cd" stroke="#9a32cd" points="705.43,-325.22 713.64,-331.91 711.39,-321.56 705.43,-325.22"/>
</a>
</g>
<text text-anchor="middle" x="712.88" y="-300.38" font-family="Helvetica,sans-Serif" font-size="10.00" fill="grey"> data</text>
</g>
<!-- Node16 -->
<g id="Node000016" class="node">
<title>Node16</title>
<g id="a_Node000016"><a xlink:href="classdunedaq_1_1oks_1_1OksString.html" target="_top" xlink:title="Class OKS string.">
<polygon fill="white" stroke="#666666" points="783.88,-453 662.88,-453 662.88,-433.75 783.88,-433.75 783.88,-453"/>
<text text-anchor="middle" x="723.38" y="-439.5" font-family="Helvetica,sans-Serif" font-size="10.00">dunedaq::oks::OksString</text>
</a>
</g>
</g>
<!-- Node16&#45;&gt;Node15 -->
<g id="edge19_Node000015_Node000016" class="edge">
<title>Node16&#45;&gt;Node15</title>
<g id="a_edge19_Node000015_Node000016"><a xlink:title=" ">
<path fill="none" stroke="#9a32cd" stroke-dasharray="5,2" d="M723.38,-422.04C723.38,-404.53 723.38,-379.7 723.38,-364.17"/>
<polygon fill="#9a32cd" stroke="#9a32cd" points="719.88,-421.98 723.38,-431.98 726.88,-421.98 719.88,-421.98"/>
</a>
</g>
<text text-anchor="middle" x="743.25" y="-406.25" font-family="Helvetica,sans-Serif" font-size="10.00" fill="grey"> STRING</text>
<text text-anchor="middle" x="743.25" y="-395" font-family="Helvetica,sans-Serif" font-size="10.00" fill="grey">class_id</text>
<text text-anchor="middle" x="743.25" y="-383.75" font-family="Helvetica,sans-Serif" font-size="10.00" fill="grey">object_id</text>
</g>
<!-- Node17 -->
<g id="Node000017" class="node">
<title>Node17</title>
<g id="a_Node000017"><a xlink:title=" ">
<polygon fill="white" stroke="#666666" points="752.38,-519.5 694.38,-519.5 694.38,-500.25 752.38,-500.25 752.38,-519.5"/>
<text text-anchor="middle" x="723.38" y="-506" font-family="Helvetica,sans-Serif" font-size="10.00">std::string</text>
</a>
</g>
</g>
<!-- Node17&#45;&gt;Node16 -->
<g id="edge20_Node000016_Node000017" class="edge">
<title>Node17&#45;&gt;Node16</title>
<g id="a_edge20_Node000016_Node000017"><a xlink:title=" ">
<path fill="none" stroke="#63b8ff" d="M723.38,-488.4C723.38,-476.57 723.38,-462.29 723.38,-453.27"/>
<polygon fill="#63b8ff" stroke="#63b8ff" points="719.88,-488.39 723.38,-498.39 726.88,-488.39 719.88,-488.39"/>
</a>
</g>
</g>
<!-- Node18 -->
<g id="Node000018" class="node">
<title>Node18</title>
<g id="a_Node000018"><a xlink:href="classdunedaq_1_1conffwk_1_1map.html" target="_top" xlink:title=" ">
<polygon fill="white" stroke="#666666" points="479.75,-519.5 343,-519.5 343,-500.25 479.75,-500.25 479.75,-519.5"/>
<text text-anchor="middle" x="411.38" y="-506" font-family="Helvetica,sans-Serif" font-size="10.00">dunedaq::conffwk::map&lt; T &gt;</text>
</a>
</g>
</g>
<!-- Node18&#45;&gt;Node7 -->
<g id="edge24_Node000007_Node000018" class="edge">
<title>Node18&#45;&gt;Node7</title>
<g id="a_edge24_Node000007_Node000018"><a xlink:title=" ">
<path fill="none" stroke="#9a32cd" stroke-dasharray="5,2" d="M411.38,-488.4C411.38,-476.57 411.38,-462.29 411.38,-453.27"/>
<polygon fill="#9a32cd" stroke="#9a32cd" points="407.88,-488.39 411.38,-498.39 414.88,-488.39 407.88,-488.39"/>
</a>
</g>
<text text-anchor="middle" x="437.62" y="-472.75" font-family="Helvetica,sans-Serif" font-size="10.00" fill="grey"> p_data_info</text>
</g>
<!-- Node19 -->
<g id="Node000019" class="node">
<title>Node19</title>
<g id="a_Node000019"><a xlink:title=" ">
<polygon fill="white" stroke="#666666" points="461.75,-587 361,-587 361,-556.5 461.75,-556.5 461.75,-587"/>
<text text-anchor="start" x="369" y="-573.5" font-family="Helvetica,sans-Serif" font-size="10.00">std::unordered_map</text>
<text text-anchor="middle" x="411.38" y="-562.25" font-family="Helvetica,sans-Serif" font-size="10.00">&lt; std::string, T &gt;</text>
</a>
</g>
</g>
<!-- Node19&#45;&gt;Node18 -->
<g id="edge25_Node000018_Node000019" class="edge">
<title>Node19&#45;&gt;Node18</title>
<g id="a_edge25_Node000018_Node000019"><a xlink:title=" ">
<path fill="none" stroke="#63b8ff" d="M411.38,-545.02C411.38,-536.04 411.38,-526.54 411.38,-519.85"/>
<polygon fill="#63b8ff" stroke="#63b8ff" points="407.88,-544.74 411.38,-554.74 414.88,-544.74 407.88,-544.74"/>
</a>
</g>
</g>
<!-- Node20&#45;&gt;Node3 -->
<g id="edge26_Node000003_Node000020" class="edge">
<title>Node20&#45;&gt;Node3</title>
<g id="a_edge26_Node000003_Node000020"><a xlink:title=" ">
<path fill="none" stroke="#9a32cd" stroke-dasharray="5,2" d="M93.66,-249.61C106.51,-242.33 122.46,-233.6 137.12,-226.5 150.21,-220.16 165.19,-213.82 177.28,-208.92"/>
<polygon fill="#9a32cd" stroke="#9a32cd" points="91.94,-246.56 85.01,-254.58 95.42,-252.64 91.94,-246.56"/>
</a>
</g>
<text text-anchor="middle" x="167" y="-228.25" font-family="Helvetica,sans-Serif" font-size="10.00" fill="grey"> CurrentArrow</text>
</g>
<!-- Node21 -->
<g id="Node000021" class="node">
<title>Node21</title>
<g id="a_Node000021"><a xlink:title=" ">
<polygon fill="white" stroke="#666666" points="118.75,-358.38 18,-358.38 18,-339.12 118.75,-339.12 118.75,-358.38"/>
<text text-anchor="middle" x="68.38" y="-344.88" font-family="Helvetica,sans-Serif" font-size="10.00">QGraphicsLineItem</text>
</a>
</g>
</g>
<!-- Node21&#45;&gt;Node20 -->
<g id="edge27_Node000020_Node000021" class="edge">
<title>Node21&#45;&gt;Node20</title>
<g id="a_edge27_Node000020_Node000021"><a xlink:title=" ">
<path fill="none" stroke="#63b8ff" d="M68.38,-327.38C68.38,-310.6 68.38,-287.6 68.38,-275.19"/>
<polygon fill="#63b8ff" stroke="#63b8ff" points="64.88,-327.22 68.38,-337.22 71.88,-327.22 64.88,-327.22"/>
</a>
</g>
</g>
</g>
</svg>
