<?xml version="1.0" encoding="UTF-8" standalone="no"?>
<!DOCTYPE svg PUBLIC "-//W3C//DTD SVG 1.1//EN"
 "http://www.w3.org/Graphics/SVG/1.1/DTD/svg11.dtd">
<!-- Generated by graphviz version 9.0.0 (20230911.1827)
 -->
<!-- Title: dunedaq::timing::PDIEndpointNode Pages: 1 -->
<svg width="173pt" height="204pt"
 viewBox="0.00 0.00 173.25 204.25" xmlns="http://www.w3.org/2000/svg" xmlns:xlink="http://www.w3.org/1999/xlink">
<g id="graph0" class="graph" transform="scale(1 1) rotate(0) translate(4 200.25)">
<title>dunedaq::timing::PDIEndpointNode</title>
<!-- Node1 -->
<g id="Node000001" class="node">
<title>Node1</title>
<g id="a_Node000001"><a xlink:title="Base class for timing IO nodes.">
<polygon fill="#999999" stroke="#666666" points="165.25,-19.25 0,-19.25 0,0 165.25,0 165.25,-19.25"/>
<text text-anchor="middle" x="82.62" y="-5.75" font-family="Helvetica,sans-Serif" font-size="10.00">dunedaq::timing::PDIEndpointNode</text>
</a>
</g>
</g>
<!-- Node2 -->
<g id="Node000002" class="node">
<title>Node2</title>
<g id="a_Node000002"><a xlink:href="classdunedaq_1_1timing_1_1EndpointNodeInterface.html" target="_top" xlink:title="Base class for timing IO nodes.">
<polygon fill="white" stroke="#666666" points="145.38,-85.75 19.88,-85.75 19.88,-55.25 145.38,-55.25 145.38,-85.75"/>
<text text-anchor="start" x="27.88" y="-72.25" font-family="Helvetica,sans-Serif" font-size="10.00">dunedaq::timing::Endpoint</text>
<text text-anchor="middle" x="82.62" y="-61" font-family="Helvetica,sans-Serif" font-size="10.00">NodeInterface</text>
</a>
</g>
</g>
<!-- Node2&#45;&gt;Node1 -->
<g id="edge1_Node000001_Node000002" class="edge">
<title>Node2&#45;&gt;Node1</title>
<g id="a_edge1_Node000001_Node000002"><a xlink:title=" ">
<path fill="none" stroke="#63b8ff" d="M82.62,-43.48C82.62,-34.98 82.62,-26.09 82.62,-19.7"/>
<polygon fill="#63b8ff" stroke="#63b8ff" points="79.13,-43.43 82.63,-53.43 86.13,-43.43 79.13,-43.43"/>
</a>
</g>
</g>
<!-- Node3 -->
<g id="Node000003" class="node">
<title>Node3</title>
<g id="a_Node000003"><a xlink:href="classdunedaq_1_1timing_1_1TimingNode.html" target="_top" xlink:title="Base class for timing nodes.">
<polygon fill="white" stroke="#666666" points="152.88,-141 12.38,-141 12.38,-121.75 152.88,-121.75 152.88,-141"/>
<text text-anchor="middle" x="82.62" y="-127.5" font-family="Helvetica,sans-Serif" font-size="10.00">dunedaq::timing::TimingNode</text>
</a>
</g>
</g>
<!-- Node3&#45;&gt;Node2 -->
<g id="edge2_Node000002_Node000003" class="edge">
<title>Node3&#45;&gt;Node2</title>
<g id="a_edge2_Node000002_Node000003"><a xlink:title=" ">
<path fill="none" stroke="#63b8ff" d="M82.62,-110.17C82.62,-102.24 82.62,-93.31 82.62,-86.03"/>
<polygon fill="#63b8ff" stroke="#63b8ff" points="79.13,-109.92 82.63,-119.92 86.13,-109.92 79.13,-109.92"/>
</a>
</g>
</g>
<!-- Node4 -->
<g id="Node000004" class="node">
<title>Node4</title>
<g id="a_Node000004"><a xlink:title=" ">
<polygon fill="white" stroke="#666666" points="113.5,-196.25 51.75,-196.25 51.75,-177 113.5,-177 113.5,-196.25"/>
<text text-anchor="middle" x="82.62" y="-182.75" font-family="Helvetica,sans-Serif" font-size="10.00">uhal::Node</text>
</a>
</g>
</g>
<!-- Node4&#45;&gt;Node3 -->
<g id="edge3_Node000003_Node000004" class="edge">
<title>Node4&#45;&gt;Node3</title>
<g id="a_edge3_Node000003_Node000004"><a xlink:title=" ">
<path fill="none" stroke="#63b8ff" d="M82.62,-165.38C82.62,-157.09 82.62,-147.92 82.62,-141.36"/>
<polygon fill="#63b8ff" stroke="#63b8ff" points="79.13,-165.32 82.63,-175.32 86.13,-165.32 79.13,-165.32"/>
</a>
</g>
</g>
</g>
</svg>
