<?xml version="1.0" encoding="UTF-8" standalone="no"?>
<!DOCTYPE svg PUBLIC "-//W3C//DTD SVG 1.1//EN"
 "http://www.w3.org/Graphics/SVG/1.1/DTD/svg11.dtd">
<!-- Generated by graphviz version 9.0.0 (20230911.1827)
 -->
<!-- Title: dunedaq::fdreadoutlibs::DAPHNEListRequestHandler Pages: 1 -->
<svg width="731pt" height="221pt"
 viewBox="0.00 0.00 730.50 221.12" xmlns="http://www.w3.org/2000/svg" xmlns:xlink="http://www.w3.org/1999/xlink">
<g id="graph0" class="graph" transform="scale(1 1) rotate(0) translate(4 217.12)">
<title>dunedaq::fdreadoutlibs::DAPHNEListRequestHandler</title>
<!-- Node1 -->
<g id="Node000001" class="node">
<title>Node1</title>
<g id="a_Node000001"><a xlink:title=" ">
<polygon fill="#999999" stroke="#666666" points="722.5,-113.5 574.5,-113.5 574.5,-83 722.5,-83 722.5,-113.5"/>
<text text-anchor="start" x="582.5" y="-100" font-family="Helvetica,sans-Serif" font-size="10.00">dunedaq::fdreadoutlibs</text>
<text text-anchor="middle" x="648.5" y="-88.75" font-family="Helvetica,sans-Serif" font-size="10.00">::DAPHNEListRequestHandler</text>
</a>
</g>
</g>
<!-- Node2 -->
<g id="Node000002" class="node">
<title>Node2</title>
<g id="a_Node000002"><a xlink:href="classdunedaq_1_1readoutlibs_1_1DefaultRequestHandlerModel.html" target="_top" xlink:title=" ">
<polygon fill="white" stroke="#666666" points="537.5,-130.38 319.75,-130.38 319.75,-66.12 537.5,-66.12 537.5,-130.38"/>
<text text-anchor="start" x="327.75" y="-116.88" font-family="Helvetica,sans-Serif" font-size="10.00">dunedaq::readoutlibs</text>
<text text-anchor="start" x="327.75" y="-105.62" font-family="Helvetica,sans-Serif" font-size="10.00">::DefaultRequestHandlerModel</text>
<text text-anchor="start" x="327.75" y="-94.38" font-family="Helvetica,sans-Serif" font-size="10.00">&lt; types::DAPHNESuperChunkTypeAdapter,</text>
<text text-anchor="start" x="327.75" y="-83.12" font-family="Helvetica,sans-Serif" font-size="10.00"> readoutlibs::SkipListLatencyBufferModel</text>
<text text-anchor="middle" x="428.62" y="-71.88" font-family="Helvetica,sans-Serif" font-size="10.00">&lt; types::DAPHNESuperChunkTypeAdapter &gt; &gt;</text>
</a>
</g>
</g>
<!-- Node2&#45;&gt;Node1 -->
<g id="edge1_Node000001_Node000002" class="edge">
<title>Node2&#45;&gt;Node1</title>
<g id="a_edge1_Node000001_Node000002"><a xlink:title=" ">
<path fill="none" stroke="#63b8ff" d="M549.42,-98.25C557.83,-98.25 566.15,-98.25 574.18,-98.25"/>
<polygon fill="#63b8ff" stroke="#63b8ff" points="549.44,-94.75 539.44,-98.25 549.44,-101.75 549.44,-94.75"/>
</a>
</g>
</g>
<!-- Node3 -->
<g id="Node000003" class="node">
<title>Node3</title>
<g id="a_Node000003"><a xlink:href="classdunedaq_1_1readoutlibs_1_1RequestHandlerConcept.html" target="_top" xlink:title=" ">
<polygon fill="white" stroke="#666666" points="175.75,-213.12 0,-213.12 0,-171.38 175.75,-171.38 175.75,-213.12"/>
<text text-anchor="start" x="8" y="-199.62" font-family="Helvetica,sans-Serif" font-size="10.00">dunedaq::readoutlibs</text>
<text text-anchor="start" x="8" y="-188.38" font-family="Helvetica,sans-Serif" font-size="10.00">::RequestHandlerConcept</text>
<text text-anchor="middle" x="87.88" y="-177.12" font-family="Helvetica,sans-Serif" font-size="10.00">&lt; ReadoutType, LatencyBufferType &gt;</text>
</a>
</g>
</g>
<!-- Node3&#45;&gt;Node2 -->
<g id="edge2_Node000002_Node000003" class="edge">
<title>Node3&#45;&gt;Node2</title>
<g id="a_edge2_Node000002_Node000003"><a xlink:title=" ">
<path fill="none" stroke="#63b8ff" d="M183.5,-168.14C220.47,-158.51 263.17,-147.14 301.75,-136.25 307.9,-134.51 314.21,-132.7 320.58,-130.85"/>
<polygon fill="#63b8ff" stroke="#63b8ff" points="182.99,-164.65 174.19,-170.55 184.75,-171.43 182.99,-164.65"/>
</a>
</g>
</g>
<!-- Node4 -->
<g id="Node000004" class="node">
<title>Node4</title>
<g id="a_Node000004"><a xlink:href="classdunedaq_1_1readoutlibs_1_1BufferedFileWriter.html" target="_top" xlink:title=" ">
<polygon fill="white" stroke="#666666" points="140.12,-153.12 35.62,-153.12 35.62,-111.38 140.12,-111.38 140.12,-153.12"/>
<text text-anchor="start" x="43.62" y="-139.62" font-family="Helvetica,sans-Serif" font-size="10.00">dunedaq::readoutlibs</text>
<text text-anchor="start" x="43.62" y="-128.38" font-family="Helvetica,sans-Serif" font-size="10.00">::BufferedFileWriter</text>
<text text-anchor="middle" x="87.88" y="-117.12" font-family="Helvetica,sans-Serif" font-size="10.00">&lt; Alignment &gt;</text>
</a>
</g>
</g>
<!-- Node4&#45;&gt;Node2 -->
<g id="edge3_Node000002_Node000004" class="edge">
<title>Node4&#45;&gt;Node2</title>
<g id="a_edge3_Node000002_Node000004"><a xlink:title=" ">
<path fill="none" stroke="#9a32cd" stroke-dasharray="5,2" d="M151.56,-125.96C198.58,-121.24 264.1,-114.66 319.51,-109.1"/>
<polygon fill="#9a32cd" stroke="#9a32cd" points="151.43,-122.45 141.83,-126.93 152.13,-129.42 151.43,-122.45"/>
</a>
</g>
<text text-anchor="middle" x="247.75" y="-123" font-family="Helvetica,sans-Serif" font-size="10.00" fill="grey"> m_buffered_writer</text>
</g>
<!-- Node5 -->
<g id="Node000005" class="node">
<title>Node5</title>
<g id="a_Node000005"><a xlink:href="classdunedaq_1_1readoutlibs_1_1ReusableThread.html" target="_top" xlink:title=" ">
<polygon fill="white" stroke="#666666" points="140.12,-79.5 35.62,-79.5 35.62,-49 140.12,-49 140.12,-79.5"/>
<text text-anchor="start" x="43.62" y="-66" font-family="Helvetica,sans-Serif" font-size="10.00">dunedaq::readoutlibs</text>
<text text-anchor="middle" x="87.88" y="-54.75" font-family="Helvetica,sans-Serif" font-size="10.00">::ReusableThread</text>
</a>
</g>
</g>
<!-- Node5&#45;&gt;Node2 -->
<g id="edge4_Node000002_Node000005" class="edge">
<title>Node5&#45;&gt;Node2</title>
<g id="a_edge4_Node000002_Node000005"><a xlink:title=" ">
<path fill="none" stroke="#9a32cd" stroke-dasharray="5,2" d="M151.97,-62.15C165.74,-61.78 180.23,-61.44 193.75,-61.25 241.75,-60.56 254.24,-54.41 301.75,-61.25 309.64,-62.39 317.73,-63.9 325.81,-65.67"/>
<polygon fill="#9a32cd" stroke="#9a32cd" points="152.02,-58.65 142.12,-62.43 152.22,-65.65 152.02,-58.65"/>
</a>
</g>
<text text-anchor="middle" x="247.75" y="-96.75" font-family="Helvetica,sans-Serif" font-size="10.00" fill="grey"> m_cleanup_thread</text>
<text text-anchor="start" x="193.75" y="-85.5" font-family="Helvetica,sans-Serif" font-size="10.00" fill="grey">m_periodic_transmission</text>
<text text-anchor="middle" x="247.75" y="-74.25" font-family="Helvetica,sans-Serif" font-size="10.00" fill="grey">_thread</text>
<text text-anchor="middle" x="247.75" y="-63" font-family="Helvetica,sans-Serif" font-size="10.00" fill="grey">m_recording_thread</text>
</g>
<!-- Node6 -->
<g id="Node000006" class="node">
<title>Node6</title>
<g id="a_Node000006"><a xlink:href="structdunedaq_1_1daqdataformats_1_1SourceID.html" target="_top" xlink:title="SourceID is a generalized representation of the source of a piece of data in the DAQ....">
<polygon fill="white" stroke="#666666" points="150.25,-30.5 25.5,-30.5 25.5,0 150.25,0 150.25,-30.5"/>
<text text-anchor="start" x="33.5" y="-17" font-family="Helvetica,sans-Serif" font-size="10.00">dunedaq::daqdataformats</text>
<text text-anchor="middle" x="87.88" y="-5.75" font-family="Helvetica,sans-Serif" font-size="10.00">::SourceID</text>
</a>
</g>
</g>
<!-- Node6&#45;&gt;Node2 -->
<g id="edge5_Node000002_Node000006" class="edge">
<title>Node6&#45;&gt;Node2</title>
<g id="a_edge5_Node000002_Node000006"><a xlink:title=" ">
<path fill="none" stroke="#9a32cd" stroke-dasharray="5,2" d="M161.8,-19.07C203.4,-22.57 256.17,-29.26 301.75,-42 322.84,-47.9 344.94,-56.76 364.62,-65.73"/>
<polygon fill="#9a32cd" stroke="#9a32cd" points="162.13,-15.59 151.89,-18.29 161.58,-22.57 162.13,-15.59"/>
</a>
</g>
<text text-anchor="middle" x="247.75" y="-44" font-family="Helvetica,sans-Serif" font-size="10.00" fill="grey"> m_sourceid</text>
</g>
</g>
</svg>
