<?xml version="1.0" encoding="UTF-8" standalone="no"?>
<!DOCTYPE svg PUBLIC "-//W3C//DTD SVG 1.1//EN"
 "http://www.w3.org/Graphics/SVG/1.1/DTD/svg11.dtd">
<!-- Generated by graphviz version 9.0.0 (20230911.1827)
 -->
<!-- Title: dunedaq::trigger::TPRequestHandler Pages: 1 -->
<svg width="762pt" height="50pt"
 viewBox="0.00 0.00 762.00 49.75" xmlns="http://www.w3.org/2000/svg" xmlns:xlink="http://www.w3.org/1999/xlink">
<g id="graph0" class="graph" transform="scale(1 1) rotate(0) translate(4 45.75)">
<title>dunedaq::trigger::TPRequestHandler</title>
<!-- Node1 -->
<g id="Node000001" class="node">
<title>Node1</title>
<g id="a_Node000001"><a xlink:title=" ">
<polygon fill="#999999" stroke="#666666" points="754,-36.12 616.5,-36.12 616.5,-5.62 754,-5.62 754,-36.12"/>
<text text-anchor="start" x="624.5" y="-22.62" font-family="Helvetica,sans-Serif" font-size="10.00">dunedaq::trigger::TPRequest</text>
<text text-anchor="middle" x="685.25" y="-11.38" font-family="Helvetica,sans-Serif" font-size="10.00">Handler</text>
</a>
</g>
</g>
<!-- Node2 -->
<g id="Node000002" class="node">
<title>Node2</title>
<g id="a_Node000002"><a xlink:href="classdunedaq_1_1readoutlibs_1_1DefaultSkipListRequestHandler.html" target="_top" xlink:title=" ">
<polygon fill="white" stroke="#666666" points="580.5,-41.75 423.5,-41.75 423.5,0 580.5,0 580.5,-41.75"/>
<text text-anchor="start" x="431.5" y="-28.25" font-family="Helvetica,sans-Serif" font-size="10.00">dunedaq::readoutlibs</text>
<text text-anchor="start" x="431.5" y="-17" font-family="Helvetica,sans-Serif" font-size="10.00">::DefaultSkipListRequestHandler</text>
<text text-anchor="middle" x="502" y="-5.75" font-family="Helvetica,sans-Serif" font-size="10.00">&lt; TriggerPrimitiveTypeAdapter &gt;</text>
</a>
</g>
</g>
<!-- Node2&#45;&gt;Node1 -->
<g id="edge1_Node000001_Node000002" class="edge">
<title>Node2&#45;&gt;Node1</title>
<g id="a_edge1_Node000001_Node000002"><a xlink:title=" ">
<path fill="none" stroke="#63b8ff" d="M592.23,-20.88C600.25,-20.88 608.3,-20.88 616.1,-20.88"/>
<polygon fill="#63b8ff" stroke="#63b8ff" points="592.43,-17.38 582.43,-20.88 592.43,-24.38 592.43,-17.38"/>
</a>
</g>
</g>
<!-- Node3 -->
<g id="Node000003" class="node">
<title>Node3</title>
<g id="a_Node000003"><a xlink:href="classdunedaq_1_1readoutlibs_1_1DefaultRequestHandlerModel.html" target="_top" xlink:title=" ">
<polygon fill="white" stroke="#666666" points="387.5,-41.75 211.75,-41.75 211.75,0 387.5,0 387.5,-41.75"/>
<text text-anchor="start" x="219.75" y="-28.25" font-family="Helvetica,sans-Serif" font-size="10.00">dunedaq::readoutlibs</text>
<text text-anchor="start" x="219.75" y="-17" font-family="Helvetica,sans-Serif" font-size="10.00">::DefaultRequestHandlerModel</text>
<text text-anchor="middle" x="299.62" y="-5.75" font-family="Helvetica,sans-Serif" font-size="10.00">&lt; ReadoutType, LatencyBufferType &gt;</text>
</a>
</g>
</g>
<!-- Node3&#45;&gt;Node2 -->
<g id="edge2_Node000002_Node000003" class="edge">
<title>Node3&#45;&gt;Node2</title>
<g id="a_edge2_Node000002_Node000003"><a xlink:title=" ">
<path fill="none" stroke="#63b8ff" d="M399.23,-20.88C407.25,-20.88 415.27,-20.88 423.11,-20.88"/>
<polygon fill="#63b8ff" stroke="#63b8ff" points="399.44,-17.38 389.44,-20.88 399.44,-24.38 399.44,-17.38"/>
</a>
</g>
</g>
<!-- Node4 -->
<g id="Node000004" class="node">
<title>Node4</title>
<g id="a_Node000004"><a xlink:href="classdunedaq_1_1readoutlibs_1_1RequestHandlerConcept.html" target="_top" xlink:title=" ">
<polygon fill="white" stroke="#666666" points="175.75,-41.75 0,-41.75 0,0 175.75,0 175.75,-41.75"/>
<text text-anchor="start" x="8" y="-28.25" font-family="Helvetica,sans-Serif" font-size="10.00">dunedaq::readoutlibs</text>
<text text-anchor="start" x="8" y="-17" font-family="Helvetica,sans-Serif" font-size="10.00">::RequestHandlerConcept</text>
<text text-anchor="middle" x="87.88" y="-5.75" font-family="Helvetica,sans-Serif" font-size="10.00">&lt; ReadoutType, LatencyBufferType &gt;</text>
</a>
</g>
</g>
<!-- Node4&#45;&gt;Node3 -->
<g id="edge3_Node000003_Node000004" class="edge">
<title>Node4&#45;&gt;Node3</title>
<g id="a_edge3_Node000003_Node000004"><a xlink:title=" ">
<path fill="none" stroke="#63b8ff" d="M187.33,-20.88C195.37,-20.88 203.47,-20.88 211.43,-20.88"/>
<polygon fill="#63b8ff" stroke="#63b8ff" points="187.52,-17.38 177.52,-20.88 187.52,-24.38 187.52,-17.38"/>
</a>
</g>
</g>
</g>
</svg>
