<?xml version="1.0" encoding="UTF-8" standalone="no"?>
<!DOCTYPE svg PUBLIC "-//W3C//DTD SVG 1.1//EN"
 "http://www.w3.org/Graphics/SVG/1.1/DTD/svg11.dtd">
<!-- Generated by graphviz version 9.0.0 (20230911.1827)
 -->
<!-- Title: dunedaq::appdal::FakeHSIApplication Pages: 1 -->
<svg width="185pt" height="204pt"
 viewBox="0.00 0.00 185.25 204.25" xmlns="http://www.w3.org/2000/svg" xmlns:xlink="http://www.w3.org/1999/xlink">
<g id="graph0" class="graph" transform="scale(1 1) rotate(0) translate(4 200.25)">
<title>dunedaq::appdal::FakeHSIApplication</title>
<!-- Node1 -->
<g id="Node000001" class="node">
<title>Node1</title>
<g id="a_Node000001"><a xlink:title=" ">
<polygon fill="#999999" stroke="#666666" points="177.25,-19.25 0,-19.25 0,0 177.25,0 177.25,-19.25"/>
<text text-anchor="middle" x="88.62" y="-5.75" font-family="Helvetica,sans-Serif" font-size="10.00">dunedaq::appdal::FakeHSIApplication</text>
</a>
</g>
</g>
<!-- Node2 -->
<g id="Node000002" class="node">
<title>Node2</title>
<g id="a_Node000002"><a xlink:href="classdunedaq_1_1appdal_1_1SmartDaqApplication.html" target="_top" xlink:title=" ">
<polygon fill="white" stroke="#666666" points="155.5,-85.75 21.75,-85.75 21.75,-55.25 155.5,-55.25 155.5,-85.75"/>
<text text-anchor="start" x="29.75" y="-72.25" font-family="Helvetica,sans-Serif" font-size="10.00">dunedaq::appdal::SmartDaq</text>
<text text-anchor="middle" x="88.62" y="-61" font-family="Helvetica,sans-Serif" font-size="10.00">Application</text>
</a>
</g>
</g>
<!-- Node2&#45;&gt;Node1 -->
<g id="edge1_Node000001_Node000002" class="edge">
<title>Node2&#45;&gt;Node1</title>
<g id="a_edge1_Node000001_Node000002"><a xlink:title=" ">
<path fill="none" stroke="#63b8ff" d="M81.92,-43.48C81.71,-34.98 82.27,-26.09 83.59,-19.7"/>
<polygon fill="#63b8ff" stroke="#63b8ff" points="78.42,-43.7 82.6,-53.44 85.41,-43.22 78.42,-43.7"/>
</a>
</g>
</g>
<!-- Node2&#45;&gt;Node1 -->
<g id="edge6_Node000001_Node000002" class="edge">
<title>Node2&#45;&gt;Node1</title>
<g id="a_edge6_Node000001_Node000002"><a xlink:title=" ">
<path fill="none" stroke="#63b8ff" d="M95.33,-43.48C95.54,-34.98 94.98,-26.09 93.66,-19.7"/>
<polygon fill="#63b8ff" stroke="#63b8ff" points="91.84,-43.22 94.65,-53.44 98.83,-43.7 91.84,-43.22"/>
</a>
</g>
</g>
<!-- Node3 -->
<g id="Node000003" class="node">
<title>Node3</title>
<g id="a_Node000003"><a xlink:href="classdunedaq_1_1coredal_1_1Application.html" target="_top" xlink:title=" ">
<polygon fill="white" stroke="#666666" points="159.25,-141 18,-141 18,-121.75 159.25,-121.75 159.25,-141"/>
<text text-anchor="middle" x="88.62" y="-127.5" font-family="Helvetica,sans-Serif" font-size="10.00">dunedaq::coredal::Application</text>
</a>
</g>
</g>
<!-- Node3&#45;&gt;Node2 -->
<g id="edge2_Node000002_Node000003" class="edge">
<title>Node3&#45;&gt;Node2</title>
<g id="a_edge2_Node000002_Node000003"><a xlink:title=" ">
<path fill="none" stroke="#63b8ff" d="M82.18,-110.17C81.64,-102.24 81.82,-93.31 82.71,-86.03"/>
<polygon fill="#63b8ff" stroke="#63b8ff" points="78.69,-110.45 83.42,-119.93 85.63,-109.57 78.69,-110.45"/>
</a>
</g>
</g>
<!-- Node3&#45;&gt;Node2 -->
<g id="edge5_Node000002_Node000003" class="edge">
<title>Node3&#45;&gt;Node2</title>
<g id="a_edge5_Node000002_Node000003"><a xlink:title=" ">
<path fill="none" stroke="#63b8ff" d="M95.07,-110.17C95.61,-102.24 95.43,-93.31 94.54,-86.03"/>
<polygon fill="#63b8ff" stroke="#63b8ff" points="91.62,-109.57 93.83,-119.93 98.56,-110.45 91.62,-109.57"/>
</a>
</g>
</g>
<!-- Node4 -->
<g id="Node000004" class="node">
<title>Node4</title>
<g id="a_Node000004"><a xlink:href="classdunedaq_1_1conffwk_1_1DalObject.html" target="_top" xlink:title="The base class for any generated DAL object.">
<polygon fill="white" stroke="#666666" points="157.75,-196.25 19.5,-196.25 19.5,-177 157.75,-177 157.75,-196.25"/>
<text text-anchor="middle" x="88.62" y="-182.75" font-family="Helvetica,sans-Serif" font-size="10.00">dunedaq::conffwk::DalObject</text>
</a>
</g>
</g>
<!-- Node4&#45;&gt;Node3 -->
<g id="edge3_Node000003_Node000004" class="edge">
<title>Node4&#45;&gt;Node3</title>
<g id="a_edge3_Node000003_Node000004"><a xlink:title=" ">
<path fill="none" stroke="#63b8ff" d="M82.07,-165.67C81.58,-157.3 82.03,-148 83.42,-141.36"/>
<polygon fill="#63b8ff" stroke="#63b8ff" points="78.56,-165.84 83.27,-175.33 85.51,-164.97 78.56,-165.84"/>
</a>
</g>
</g>
<!-- Node4&#45;&gt;Node3 -->
<g id="edge4_Node000003_Node000004" class="edge">
<title>Node4&#45;&gt;Node3</title>
<g id="a_edge4_Node000003_Node000004"><a xlink:title=" ">
<path fill="none" stroke="#63b8ff" d="M95.18,-165.67C95.67,-157.3 95.22,-148 93.83,-141.36"/>
<polygon fill="#63b8ff" stroke="#63b8ff" points="91.74,-164.97 93.98,-175.33 98.69,-165.84 91.74,-164.97"/>
</a>
</g>
</g>
</g>
</svg>
