<?xml version="1.0" encoding="UTF-8" standalone="no"?>
<!DOCTYPE svg PUBLIC "-//W3C//DTD SVG 1.1//EN"
 "http://www.w3.org/Graphics/SVG/1.1/DTD/svg11.dtd">
<!-- Generated by graphviz version 9.0.0 (20230911.1827)
 -->
<!-- Title: dunedaq::coredal::StreamParameters Pages: 1 -->
<svg width="304pt" height="160pt"
 viewBox="0.00 0.00 304.00 160.25" xmlns="http://www.w3.org/2000/svg" xmlns:xlink="http://www.w3.org/1999/xlink">
<g id="graph0" class="graph" transform="scale(1 1) rotate(0) translate(4 156.25)">
<title>dunedaq::coredal::StreamParameters</title>
<!-- Node1 -->
<g id="Node000001" class="node">
<title>Node1</title>
<g id="a_Node000001"><a xlink:title=" ">
<polygon fill="#999999" stroke="#666666" points="208.38,-97 83.62,-97 83.62,-66.5 208.38,-66.5 208.38,-97"/>
<text text-anchor="start" x="91.62" y="-83.5" font-family="Helvetica,sans-Serif" font-size="10.00">dunedaq::coredal::Stream</text>
<text text-anchor="middle" x="146" y="-72.25" font-family="Helvetica,sans-Serif" font-size="10.00">Parameters</text>
</a>
</g>
</g>
<!-- Node3 -->
<g id="Node000003" class="node">
<title>Node3</title>
<g id="a_Node000003"><a xlink:href="classdunedaq_1_1appdal_1_1EthStreamParameters.html" target="_top" xlink:title=" ">
<polygon fill="white" stroke="#666666" points="136,-30.5 0,-30.5 0,0 136,0 136,-30.5"/>
<text text-anchor="start" x="8" y="-17" font-family="Helvetica,sans-Serif" font-size="10.00">dunedaq::appdal::EthStream</text>
<text text-anchor="middle" x="68" y="-5.75" font-family="Helvetica,sans-Serif" font-size="10.00">Parameters</text>
</a>
</g>
</g>
<!-- Node1&#45;&gt;Node3 -->
<g id="edge3_Node000001_Node000003" class="edge">
<title>Node1&#45;&gt;Node3</title>
<g id="a_edge3_Node000001_Node000003"><a xlink:title=" ">
<path fill="none" stroke="#63b8ff" d="M113.65,-59.29C101.72,-49.94 88.98,-39.23 79.88,-30.83"/>
<polygon fill="#63b8ff" stroke="#63b8ff" points="111.27,-61.88 121.34,-65.19 115.54,-56.33 111.27,-61.88"/>
</a>
</g>
</g>
<!-- Node1&#45;&gt;Node3 -->
<g id="edge4_Node000001_Node000003" class="edge">
<title>Node1&#45;&gt;Node3</title>
<g id="a_edge4_Node000001_Node000003"><a xlink:title=" ">
<path fill="none" stroke="#63b8ff" d="M125.51,-58.46C115,-49.32 102.27,-38.98 91.38,-30.83"/>
<polygon fill="#63b8ff" stroke="#63b8ff" points="123.15,-61.05 132.93,-65.11 127.81,-55.83 123.15,-61.05"/>
</a>
</g>
</g>
<!-- Node4 -->
<g id="Node000004" class="node">
<title>Node4</title>
<g id="a_Node000004"><a xlink:href="classdunedaq_1_1appdal_1_1FelixStreamParameters.html" target="_top" xlink:title=" ">
<polygon fill="white" stroke="#666666" points="296,-30.5 154,-30.5 154,0 296,0 296,-30.5"/>
<text text-anchor="start" x="162" y="-17" font-family="Helvetica,sans-Serif" font-size="10.00">dunedaq::appdal::FelixStream</text>
<text text-anchor="middle" x="225" y="-5.75" font-family="Helvetica,sans-Serif" font-size="10.00">Parameters</text>
</a>
</g>
</g>
<!-- Node1&#45;&gt;Node4 -->
<g id="edge5_Node000001_Node000004" class="edge">
<title>Node1&#45;&gt;Node4</title>
<g id="a_edge5_Node000001_Node000004"><a xlink:title=" ">
<path fill="none" stroke="#63b8ff" d="M166.52,-58.74C177.23,-49.53 190.27,-39.06 201.39,-30.83"/>
<polygon fill="#63b8ff" stroke="#63b8ff" points="164.48,-55.87 159.3,-65.11 169.11,-61.12 164.48,-55.87"/>
</a>
</g>
</g>
<!-- Node1&#45;&gt;Node4 -->
<g id="edge6_Node000001_Node000004" class="edge">
<title>Node1&#45;&gt;Node4</title>
<g id="a_edge6_Node000001_Node000004"><a xlink:title=" ">
<path fill="none" stroke="#63b8ff" d="M178.68,-59.29C190.76,-49.94 203.67,-39.23 212.9,-30.83"/>
<polygon fill="#63b8ff" stroke="#63b8ff" points="176.75,-56.37 170.89,-65.2 180.98,-61.95 176.75,-56.37"/>
</a>
</g>
</g>
<!-- Node2 -->
<g id="Node000002" class="node">
<title>Node2</title>
<g id="a_Node000002"><a xlink:href="classdunedaq_1_1conffwk_1_1DalObject.html" target="_top" xlink:title="The base class for any generated DAL object.">
<polygon fill="white" stroke="#666666" points="215.12,-152.25 76.88,-152.25 76.88,-133 215.12,-133 215.12,-152.25"/>
<text text-anchor="middle" x="146" y="-138.75" font-family="Helvetica,sans-Serif" font-size="10.00">dunedaq::conffwk::DalObject</text>
</a>
</g>
</g>
<!-- Node2&#45;&gt;Node1 -->
<g id="edge1_Node000001_Node000002" class="edge">
<title>Node2&#45;&gt;Node1</title>
<g id="a_edge1_Node000001_Node000002"><a xlink:title=" ">
<path fill="none" stroke="#63b8ff" d="M139.55,-121.42C139.02,-113.49 139.19,-104.56 140.09,-97.28"/>
<polygon fill="#63b8ff" stroke="#63b8ff" points="136.06,-121.7 140.8,-131.18 143.01,-120.82 136.06,-121.7"/>
</a>
</g>
</g>
<!-- Node2&#45;&gt;Node1 -->
<g id="edge2_Node000001_Node000002" class="edge">
<title>Node2&#45;&gt;Node1</title>
<g id="a_edge2_Node000001_Node000002"><a xlink:title=" ">
<path fill="none" stroke="#63b8ff" d="M152.45,-121.42C152.98,-113.49 152.81,-104.56 151.91,-97.28"/>
<polygon fill="#63b8ff" stroke="#63b8ff" points="148.99,-120.82 151.2,-131.18 155.94,-121.7 148.99,-120.82"/>
</a>
</g>
</g>
</g>
</svg>
