<?xml version="1.0" encoding="UTF-8" standalone="no"?>
<!DOCTYPE svg PUBLIC "-//W3C//DTD SVG 1.1//EN"
 "http://www.w3.org/Graphics/SVG/1.1/DTD/svg11.dtd">
<!-- Generated by graphviz version 9.0.0 (20230911.1827)
 -->
<!-- Title: dunedaq::readoutlibs::SourceEmulatorModel&lt; ReadoutType &gt; Pages: 1 -->
<svg width="420pt" height="235pt"
 viewBox="0.00 0.00 420.25 234.50" xmlns="http://www.w3.org/2000/svg" xmlns:xlink="http://www.w3.org/1999/xlink">
<g id="graph0" class="graph" transform="scale(1 1) rotate(0) translate(4 230.5)">
<title>dunedaq::readoutlibs::SourceEmulatorModel&lt; ReadoutType &gt;</title>
<!-- Node1 -->
<g id="Node000001" class="node">
<title>Node1</title>
<g id="a_Node000001"><a xlink:title=" ">
<polygon fill="#999999" stroke="#666666" points="412.25,-134.12 296.5,-134.12 296.5,-92.38 412.25,-92.38 412.25,-134.12"/>
<text text-anchor="start" x="304.5" y="-120.62" font-family="Helvetica,sans-Serif" font-size="10.00">dunedaq::readoutlibs</text>
<text text-anchor="start" x="304.5" y="-109.38" font-family="Helvetica,sans-Serif" font-size="10.00">::SourceEmulatorModel</text>
<text text-anchor="middle" x="354.38" y="-98.12" font-family="Helvetica,sans-Serif" font-size="10.00">&lt; ReadoutType &gt;</text>
</a>
</g>
</g>
<!-- Node2 -->
<g id="Node000002" class="node">
<title>Node2</title>
<g id="a_Node000002"><a xlink:href="classdunedaq_1_1readoutlibs_1_1SourceEmulatorConcept.html" target="_top" xlink:title=" ">
<polygon fill="white" stroke="#666666" points="144.62,-226.5 19.12,-226.5 19.12,-196 144.62,-196 144.62,-226.5"/>
<text text-anchor="start" x="27.12" y="-213" font-family="Helvetica,sans-Serif" font-size="10.00">dunedaq::readoutlibs</text>
<text text-anchor="middle" x="81.88" y="-201.75" font-family="Helvetica,sans-Serif" font-size="10.00">::SourceEmulatorConcept</text>
</a>
</g>
</g>
<!-- Node2&#45;&gt;Node1 -->
<g id="edge1_Node000001_Node000002" class="edge">
<title>Node2&#45;&gt;Node1</title>
<g id="a_edge1_Node000001_Node000002"><a xlink:title=" ">
<path fill="none" stroke="#63b8ff" d="M155.71,-197.82C193.3,-189.51 239.35,-177.16 278.5,-160.25 294.42,-153.37 310.88,-143.41 324.29,-134.42"/>
<polygon fill="#63b8ff" stroke="#63b8ff" points="155.36,-194.31 146.32,-199.84 156.83,-201.15 155.36,-194.31"/>
</a>
</g>
</g>
<!-- Node3 -->
<g id="Node000003" class="node">
<title>Node3</title>
<g id="a_Node000003"><a xlink:href="classdunedaq_1_1readoutlibs_1_1ErrorBitGenerator.html" target="_top" xlink:title=" ">
<polygon fill="white" stroke="#666666" points="134.12,-177.5 29.62,-177.5 29.62,-147 134.12,-147 134.12,-177.5"/>
<text text-anchor="start" x="37.62" y="-164" font-family="Helvetica,sans-Serif" font-size="10.00">dunedaq::readoutlibs</text>
<text text-anchor="middle" x="81.88" y="-152.75" font-family="Helvetica,sans-Serif" font-size="10.00">::ErrorBitGenerator</text>
</a>
</g>
</g>
<!-- Node3&#45;&gt;Node1 -->
<g id="edge2_Node000001_Node000003" class="edge">
<title>Node3&#45;&gt;Node1</title>
<g id="a_edge2_Node000001_Node000003"><a xlink:title=" ">
<path fill="none" stroke="#9a32cd" stroke-dasharray="5,2" d="M145.45,-151.8C183.88,-145.27 234.09,-136.56 278.5,-128.25 284.23,-127.18 290.21,-126.03 296.17,-124.87"/>
<polygon fill="#9a32cd" stroke="#9a32cd" points="145.19,-148.29 135.92,-153.41 146.36,-155.19 145.19,-148.29"/>
</a>
</g>
<text text-anchor="middle" x="230.12" y="-147" font-family="Helvetica,sans-Serif" font-size="10.00" fill="grey"> m_error_bit_generator</text>
</g>
<!-- Node4 -->
<g id="Node000004" class="node">
<title>Node4</title>
<g id="a_Node000004"><a xlink:href="classdunedaq_1_1readoutlibs_1_1ReusableThread.html" target="_top" xlink:title=" ">
<polygon fill="white" stroke="#666666" points="134.12,-128.5 29.62,-128.5 29.62,-98 134.12,-98 134.12,-128.5"/>
<text text-anchor="start" x="37.62" y="-115" font-family="Helvetica,sans-Serif" font-size="10.00">dunedaq::readoutlibs</text>
<text text-anchor="middle" x="81.88" y="-103.75" font-family="Helvetica,sans-Serif" font-size="10.00">::ReusableThread</text>
</a>
</g>
</g>
<!-- Node4&#45;&gt;Node1 -->
<g id="edge3_Node000001_Node000004" class="edge">
<title>Node4&#45;&gt;Node1</title>
<g id="a_edge3_Node000001_Node000004"><a xlink:title=" ">
<path fill="none" stroke="#9a32cd" stroke-dasharray="5,2" d="M145.62,-113.25C191.17,-113.25 252.29,-113.25 296.44,-113.25"/>
<polygon fill="#9a32cd" stroke="#9a32cd" points="145.9,-109.75 135.9,-113.25 145.9,-116.75 145.9,-109.75"/>
</a>
</g>
<text text-anchor="middle" x="230.12" y="-115" font-family="Helvetica,sans-Serif" font-size="10.00" fill="grey"> m_producer_thread</text>
</g>
<!-- Node5 -->
<g id="Node000005" class="node">
<title>Node5</title>
<g id="a_Node000005"><a xlink:href="structdunedaq_1_1daqdataformats_1_1SourceID.html" target="_top" xlink:title="SourceID is a generalized representation of the source of a piece of data in the DAQ....">
<polygon fill="white" stroke="#666666" points="144.25,-79.5 19.5,-79.5 19.5,-49 144.25,-49 144.25,-79.5"/>
<text text-anchor="start" x="27.5" y="-66" font-family="Helvetica,sans-Serif" font-size="10.00">dunedaq::daqdataformats</text>
<text text-anchor="middle" x="81.88" y="-54.75" font-family="Helvetica,sans-Serif" font-size="10.00">::SourceID</text>
</a>
</g>
</g>
<!-- Node5&#45;&gt;Node1 -->
<g id="edge4_Node000001_Node000005" class="edge">
<title>Node5&#45;&gt;Node1</title>
<g id="a_edge4_Node000001_Node000005"><a xlink:title=" ">
<path fill="none" stroke="#9a32cd" stroke-dasharray="5,2" d="M155.78,-76.29C192.62,-82.51 237.98,-90.38 278.5,-98 284.24,-99.08 290.21,-100.24 296.18,-101.42"/>
<polygon fill="#9a32cd" stroke="#9a32cd" points="156.57,-72.88 146.13,-74.67 155.41,-79.78 156.57,-72.88"/>
</a>
</g>
<text text-anchor="middle" x="230.12" y="-99" font-family="Helvetica,sans-Serif" font-size="10.00" fill="grey"> m_sourceid</text>
</g>
<!-- Node6 -->
<g id="Node000006" class="node">
<title>Node6</title>
<g id="a_Node000006"><a xlink:href="classdunedaq_1_1readoutlibs_1_1SourceEmulatorPatternGenerator.html" target="_top" xlink:title=" ">
<polygon fill="white" stroke="#666666" points="163.75,-30.5 0,-30.5 0,0 163.75,0 163.75,-30.5"/>
<text text-anchor="start" x="8" y="-17" font-family="Helvetica,sans-Serif" font-size="10.00">dunedaq::readoutlibs</text>
<text text-anchor="middle" x="81.88" y="-5.75" font-family="Helvetica,sans-Serif" font-size="10.00">::SourceEmulatorPatternGenerator</text>
</a>
</g>
</g>
<!-- Node6&#45;&gt;Node1 -->
<g id="edge5_Node000001_Node000006" class="edge">
<title>Node6&#45;&gt;Node1</title>
<g id="a_edge5_Node000001_Node000006"><a xlink:title=" ">
<path fill="none" stroke="#9a32cd" stroke-dasharray="5,2" d="M174.97,-32.22C208.37,-40.03 245.88,-50.79 278.5,-65 294.8,-72.1 311.57,-82.56 325.09,-91.92"/>
<polygon fill="#9a32cd" stroke="#9a32cd" points="175.82,-28.82 165.29,-30.01 174.27,-35.64 175.82,-28.82"/>
</a>
</g>
<text text-anchor="middle" x="230.12" y="-66" font-family="Helvetica,sans-Serif" font-size="10.00" fill="grey"> m_pattern_generator</text>
</g>
</g>
</svg>
