<?xml version="1.0" encoding="UTF-8" standalone="no"?>
<!DOCTYPE svg PUBLIC "-//W3C//DTD SVG 1.1//EN"
 "http://www.w3.org/Graphics/SVG/1.1/DTD/svg11.dtd">
<!-- Generated by graphviz version 9.0.0 (20230911.1827)
 -->
<!-- Title: dunedaq::appdal::FDFakeCardReader Pages: 1 -->
<svg width="153pt" height="204pt"
 viewBox="0.00 0.00 153.00 204.25" xmlns="http://www.w3.org/2000/svg" xmlns:xlink="http://www.w3.org/1999/xlink">
<g id="graph0" class="graph" transform="scale(1 1) rotate(0) translate(4 200.25)">
<title>dunedaq::appdal::FDFakeCardReader</title>
<!-- Node1 -->
<g id="Node000001" class="node">
<title>Node1</title>
<g id="a_Node000001"><a xlink:title=" ">
<polygon fill="#999999" stroke="#666666" points="145,-30.5 0,-30.5 0,0 145,0 145,-30.5"/>
<text text-anchor="start" x="8" y="-17" font-family="Helvetica,sans-Serif" font-size="10.00">dunedaq::appdal::FDFakeCard</text>
<text text-anchor="middle" x="72.5" y="-5.75" font-family="Helvetica,sans-Serif" font-size="10.00">Reader</text>
</a>
</g>
</g>
<!-- Node2 -->
<g id="Node000002" class="node">
<title>Node2</title>
<g id="a_Node000002"><a xlink:href="classdunedaq_1_1appdal_1_1DataReader.html" target="_top" xlink:title=" ">
<polygon fill="white" stroke="#666666" points="143.12,-85.75 1.88,-85.75 1.88,-66.5 143.12,-66.5 143.12,-85.75"/>
<text text-anchor="middle" x="72.5" y="-72.25" font-family="Helvetica,sans-Serif" font-size="10.00">dunedaq::appdal::DataReader</text>
</a>
</g>
</g>
<!-- Node2&#45;&gt;Node1 -->
<g id="edge1_Node000001_Node000002" class="edge">
<title>Node2&#45;&gt;Node1</title>
<g id="a_edge1_Node000001_Node000002"><a xlink:title=" ">
<path fill="none" stroke="#63b8ff" d="M66.05,-54.92C65.52,-46.99 65.69,-38.06 66.59,-30.78"/>
<polygon fill="#63b8ff" stroke="#63b8ff" points="62.56,-55.2 67.3,-64.68 69.51,-54.32 62.56,-55.2"/>
</a>
</g>
</g>
<!-- Node2&#45;&gt;Node1 -->
<g id="edge6_Node000001_Node000002" class="edge">
<title>Node2&#45;&gt;Node1</title>
<g id="a_edge6_Node000001_Node000002"><a xlink:title=" ">
<path fill="none" stroke="#63b8ff" d="M78.95,-54.92C79.48,-46.99 79.31,-38.06 78.41,-30.78"/>
<polygon fill="#63b8ff" stroke="#63b8ff" points="75.49,-54.32 77.7,-64.68 82.44,-55.2 75.49,-54.32"/>
</a>
</g>
</g>
<!-- Node3 -->
<g id="Node000003" class="node">
<title>Node3</title>
<g id="a_Node000003"><a xlink:href="classdunedaq_1_1coredal_1_1DaqModule.html" target="_top" xlink:title=" ">
<polygon fill="white" stroke="#666666" points="143.5,-141 1.5,-141 1.5,-121.75 143.5,-121.75 143.5,-141"/>
<text text-anchor="middle" x="72.5" y="-127.5" font-family="Helvetica,sans-Serif" font-size="10.00">dunedaq::coredal::DaqModule</text>
</a>
</g>
</g>
<!-- Node3&#45;&gt;Node2 -->
<g id="edge2_Node000002_Node000003" class="edge">
<title>Node3&#45;&gt;Node2</title>
<g id="a_edge2_Node000002_Node000003"><a xlink:title=" ">
<path fill="none" stroke="#63b8ff" d="M65.94,-110.42C65.45,-102.05 65.9,-92.75 67.29,-86.11"/>
<polygon fill="#63b8ff" stroke="#63b8ff" points="62.44,-110.59 67.15,-120.08 69.38,-109.72 62.44,-110.59"/>
</a>
</g>
</g>
<!-- Node3&#45;&gt;Node2 -->
<g id="edge5_Node000002_Node000003" class="edge">
<title>Node3&#45;&gt;Node2</title>
<g id="a_edge5_Node000002_Node000003"><a xlink:title=" ">
<path fill="none" stroke="#63b8ff" d="M79.06,-110.42C79.55,-102.05 79.1,-92.75 77.71,-86.11"/>
<polygon fill="#63b8ff" stroke="#63b8ff" points="75.62,-109.72 77.85,-120.08 82.56,-110.59 75.62,-109.72"/>
</a>
</g>
</g>
<!-- Node4 -->
<g id="Node000004" class="node">
<title>Node4</title>
<g id="a_Node000004"><a xlink:href="classdunedaq_1_1conffwk_1_1DalObject.html" target="_top" xlink:title="The base class for any generated DAL object.">
<polygon fill="white" stroke="#666666" points="141.62,-196.25 3.38,-196.25 3.38,-177 141.62,-177 141.62,-196.25"/>
<text text-anchor="middle" x="72.5" y="-182.75" font-family="Helvetica,sans-Serif" font-size="10.00">dunedaq::conffwk::DalObject</text>
</a>
</g>
</g>
<!-- Node4&#45;&gt;Node3 -->
<g id="edge3_Node000003_Node000004" class="edge">
<title>Node4&#45;&gt;Node3</title>
<g id="a_edge3_Node000003_Node000004"><a xlink:title=" ">
<path fill="none" stroke="#63b8ff" d="M65.94,-165.67C65.45,-157.3 65.9,-148 67.29,-141.36"/>
<polygon fill="#63b8ff" stroke="#63b8ff" points="62.44,-165.84 67.15,-175.33 69.38,-164.97 62.44,-165.84"/>
</a>
</g>
</g>
<!-- Node4&#45;&gt;Node3 -->
<g id="edge4_Node000003_Node000004" class="edge">
<title>Node4&#45;&gt;Node3</title>
<g id="a_edge4_Node000003_Node000004"><a xlink:title=" ">
<path fill="none" stroke="#63b8ff" d="M79.06,-165.67C79.55,-157.3 79.1,-148 77.71,-141.36"/>
<polygon fill="#63b8ff" stroke="#63b8ff" points="75.62,-164.97 77.85,-175.33 82.56,-165.84 75.62,-164.97"/>
</a>
</g>
</g>
</g>
</svg>
