<?xml version="1.0" encoding="UTF-8" standalone="no"?>
<!DOCTYPE svg PUBLIC "-//W3C//DTD SVG 1.1//EN"
 "http://www.w3.org/Graphics/SVG/1.1/DTD/svg11.dtd">
<!-- Generated by graphviz version 9.0.0 (20230911.1827)
 -->
<!-- Title: dunedaq::coredal::ResourceSetOR Pages: 1 -->
<svg width="165pt" height="260pt"
 viewBox="0.00 0.00 165.00 259.50" xmlns="http://www.w3.org/2000/svg" xmlns:xlink="http://www.w3.org/1999/xlink">
<g id="graph0" class="graph" transform="scale(1 1) rotate(0) translate(4 255.5)">
<title>dunedaq::coredal::ResourceSetOR</title>
<!-- Node1 -->
<g id="Node000001" class="node">
<title>Node1</title>
<g id="a_Node000001"><a xlink:title=" ">
<polygon fill="#999999" stroke="#666666" points="145.75,-30.5 11.25,-30.5 11.25,0 145.75,0 145.75,-30.5"/>
<text text-anchor="start" x="19.25" y="-17" font-family="Helvetica,sans-Serif" font-size="10.00">dunedaq::coredal::Resource</text>
<text text-anchor="middle" x="78.5" y="-5.75" font-family="Helvetica,sans-Serif" font-size="10.00">SetOR</text>
</a>
</g>
</g>
<!-- Node2 -->
<g id="Node000002" class="node">
<title>Node2</title>
<g id="a_Node000002"><a xlink:href="classdunedaq_1_1coredal_1_1ResourceSet.html" target="_top" xlink:title=" ">
<polygon fill="white" stroke="#666666" points="153.25,-85.75 3.75,-85.75 3.75,-66.5 153.25,-66.5 153.25,-85.75"/>
<text text-anchor="middle" x="78.5" y="-72.25" font-family="Helvetica,sans-Serif" font-size="10.00">dunedaq::coredal::ResourceSet</text>
</a>
</g>
</g>
<!-- Node2&#45;&gt;Node1 -->
<g id="edge1_Node000001_Node000002" class="edge">
<title>Node2&#45;&gt;Node1</title>
<g id="a_edge1_Node000001_Node000002"><a xlink:title=" ">
<path fill="none" stroke="#63b8ff" d="M72.05,-54.92C71.52,-46.99 71.69,-38.06 72.59,-30.78"/>
<polygon fill="#63b8ff" stroke="#63b8ff" points="68.56,-55.2 73.3,-64.68 75.51,-54.32 68.56,-55.2"/>
</a>
</g>
</g>
<!-- Node2&#45;&gt;Node1 -->
<g id="edge8_Node000001_Node000002" class="edge">
<title>Node2&#45;&gt;Node1</title>
<g id="a_edge8_Node000001_Node000002"><a xlink:title=" ">
<path fill="none" stroke="#63b8ff" d="M84.95,-54.92C85.48,-46.99 85.31,-38.06 84.41,-30.78"/>
<polygon fill="#63b8ff" stroke="#63b8ff" points="81.49,-54.32 83.7,-64.68 88.44,-55.2 81.49,-54.32"/>
</a>
</g>
</g>
<!-- Node3 -->
<g id="Node000003" class="node">
<title>Node3</title>
<g id="a_Node000003"><a xlink:href="classdunedaq_1_1coredal_1_1ResourceBase.html" target="_top" xlink:title=" ">
<polygon fill="white" stroke="#666666" points="157,-141 0,-141 0,-121.75 157,-121.75 157,-141"/>
<text text-anchor="middle" x="78.5" y="-127.5" font-family="Helvetica,sans-Serif" font-size="10.00">dunedaq::coredal::ResourceBase</text>
</a>
</g>
</g>
<!-- Node3&#45;&gt;Node2 -->
<g id="edge2_Node000002_Node000003" class="edge">
<title>Node3&#45;&gt;Node2</title>
<g id="a_edge2_Node000002_Node000003"><a xlink:title=" ">
<path fill="none" stroke="#63b8ff" d="M71.94,-110.42C71.45,-102.05 71.9,-92.75 73.29,-86.11"/>
<polygon fill="#63b8ff" stroke="#63b8ff" points="68.44,-110.59 73.15,-120.08 75.38,-109.72 68.44,-110.59"/>
</a>
</g>
</g>
<!-- Node3&#45;&gt;Node2 -->
<g id="edge7_Node000002_Node000003" class="edge">
<title>Node3&#45;&gt;Node2</title>
<g id="a_edge7_Node000002_Node000003"><a xlink:title=" ">
<path fill="none" stroke="#63b8ff" d="M85.06,-110.42C85.55,-102.05 85.1,-92.75 83.71,-86.11"/>
<polygon fill="#63b8ff" stroke="#63b8ff" points="81.62,-109.72 83.85,-120.08 88.56,-110.59 81.62,-109.72"/>
</a>
</g>
</g>
<!-- Node4 -->
<g id="Node000004" class="node">
<title>Node4</title>
<g id="a_Node000004"><a xlink:href="classdunedaq_1_1coredal_1_1Component.html" target="_top" xlink:title=" ">
<polygon fill="white" stroke="#666666" points="149.88,-196.25 7.12,-196.25 7.12,-177 149.88,-177 149.88,-196.25"/>
<text text-anchor="middle" x="78.5" y="-182.75" font-family="Helvetica,sans-Serif" font-size="10.00">dunedaq::coredal::Component</text>
</a>
</g>
</g>
<!-- Node4&#45;&gt;Node3 -->
<g id="edge3_Node000003_Node000004" class="edge">
<title>Node4&#45;&gt;Node3</title>
<g id="a_edge3_Node000003_Node000004"><a xlink:title=" ">
<path fill="none" stroke="#63b8ff" d="M71.94,-165.67C71.45,-157.3 71.9,-148 73.29,-141.36"/>
<polygon fill="#63b8ff" stroke="#63b8ff" points="68.44,-165.84 73.15,-175.33 75.38,-164.97 68.44,-165.84"/>
</a>
</g>
</g>
<!-- Node4&#45;&gt;Node3 -->
<g id="edge6_Node000003_Node000004" class="edge">
<title>Node4&#45;&gt;Node3</title>
<g id="a_edge6_Node000003_Node000004"><a xlink:title=" ">
<path fill="none" stroke="#63b8ff" d="M85.06,-165.67C85.55,-157.3 85.1,-148 83.71,-141.36"/>
<polygon fill="#63b8ff" stroke="#63b8ff" points="81.62,-164.97 83.85,-175.33 88.56,-165.84 81.62,-164.97"/>
</a>
</g>
</g>
<!-- Node5 -->
<g id="Node000005" class="node">
<title>Node5</title>
<g id="a_Node000005"><a xlink:href="classdunedaq_1_1conffwk_1_1DalObject.html" target="_top" xlink:title="The base class for any generated DAL object.">
<polygon fill="white" stroke="#666666" points="147.62,-251.5 9.38,-251.5 9.38,-232.25 147.62,-232.25 147.62,-251.5"/>
<text text-anchor="middle" x="78.5" y="-238" font-family="Helvetica,sans-Serif" font-size="10.00">dunedaq::conffwk::DalObject</text>
</a>
</g>
</g>
<!-- Node5&#45;&gt;Node4 -->
<g id="edge4_Node000004_Node000005" class="edge">
<title>Node5&#45;&gt;Node4</title>
<g id="a_edge4_Node000004_Node000005"><a xlink:title=" ">
<path fill="none" stroke="#63b8ff" d="M71.94,-220.92C71.45,-212.55 71.9,-203.25 73.29,-196.61"/>
<polygon fill="#63b8ff" stroke="#63b8ff" points="68.44,-221.09 73.15,-230.58 75.38,-220.22 68.44,-221.09"/>
</a>
</g>
</g>
<!-- Node5&#45;&gt;Node4 -->
<g id="edge5_Node000004_Node000005" class="edge">
<title>Node5&#45;&gt;Node4</title>
<g id="a_edge5_Node000004_Node000005"><a xlink:title=" ">
<path fill="none" stroke="#63b8ff" d="M85.06,-220.92C85.55,-212.55 85.1,-203.25 83.71,-196.61"/>
<polygon fill="#63b8ff" stroke="#63b8ff" points="81.62,-220.22 83.85,-230.58 88.56,-221.09 81.62,-220.22"/>
</a>
</g>
</g>
</g>
</svg>
