<?xml version="1.0" encoding="UTF-8" standalone="no"?>
<!DOCTYPE svg PUBLIC "-//W3C//DTD SVG 1.1//EN"
 "http://www.w3.org/Graphics/SVG/1.1/DTD/svg11.dtd">
<!-- Generated by graphviz version 9.0.0 (20230911.1827)
 -->
<!-- Title: dunedaq::fdreadoutlibs::DAPHNEStreamFrameProcessor Pages: 1 -->
<svg width="585pt" height="61pt"
 viewBox="0.00 0.00 584.75 61.00" xmlns="http://www.w3.org/2000/svg" xmlns:xlink="http://www.w3.org/1999/xlink">
<g id="graph0" class="graph" transform="scale(1 1) rotate(0) translate(4 57)">
<title>dunedaq::fdreadoutlibs::DAPHNEStreamFrameProcessor</title>
<!-- Node1 -->
<g id="Node000001" class="node">
<title>Node1</title>
<g id="a_Node000001"><a xlink:title=" ">
<polygon fill="#999999" stroke="#666666" points="576.75,-41.75 411.5,-41.75 411.5,-11.25 576.75,-11.25 576.75,-41.75"/>
<text text-anchor="start" x="419.5" y="-28.25" font-family="Helvetica,sans-Serif" font-size="10.00">dunedaq::fdreadoutlibs</text>
<text text-anchor="middle" x="494.12" y="-17" font-family="Helvetica,sans-Serif" font-size="10.00">::DAPHNEStreamFrameProcessor</text>
</a>
</g>
</g>
<!-- Node2 -->
<g id="Node000002" class="node">
<title>Node2</title>
<g id="a_Node000002"><a xlink:href="classdunedaq_1_1readoutlibs_1_1TaskRawDataProcessorModel.html" target="_top" xlink:title=" ">
<polygon fill="white" stroke="#666666" points="375.5,-53 176.5,-53 176.5,0 375.5,0 375.5,-53"/>
<text text-anchor="start" x="184.5" y="-39.5" font-family="Helvetica,sans-Serif" font-size="10.00">dunedaq::readoutlibs</text>
<text text-anchor="start" x="184.5" y="-28.25" font-family="Helvetica,sans-Serif" font-size="10.00">::TaskRawDataProcessorModel</text>
<text text-anchor="start" x="184.5" y="-17" font-family="Helvetica,sans-Serif" font-size="10.00">&lt; types::DAPHNEStreamSuperChunkType</text>
<text text-anchor="middle" x="276" y="-5.75" font-family="Helvetica,sans-Serif" font-size="10.00">Adapter &gt;</text>
</a>
</g>
</g>
<!-- Node2&#45;&gt;Node1 -->
<g id="edge1_Node000001_Node000002" class="edge">
<title>Node2&#45;&gt;Node1</title>
<g id="a_edge1_Node000001_Node000002"><a xlink:title=" ">
<path fill="none" stroke="#63b8ff" d="M387.24,-26.5C395.27,-26.5 403.29,-26.5 411.11,-26.5"/>
<polygon fill="#63b8ff" stroke="#63b8ff" points="387.4,-23 377.4,-26.5 387.4,-30 387.4,-23"/>
</a>
</g>
</g>
<!-- Node3 -->
<g id="Node000003" class="node">
<title>Node3</title>
<g id="a_Node000003"><a xlink:href="classdunedaq_1_1readoutlibs_1_1RawDataProcessorConcept.html" target="_top" xlink:title=" ">
<polygon fill="white" stroke="#666666" points="140.5,-47.38 0,-47.38 0,-5.62 140.5,-5.62 140.5,-47.38"/>
<text text-anchor="start" x="8" y="-33.88" font-family="Helvetica,sans-Serif" font-size="10.00">dunedaq::readoutlibs</text>
<text text-anchor="start" x="8" y="-22.62" font-family="Helvetica,sans-Serif" font-size="10.00">::RawDataProcessorConcept</text>
<text text-anchor="middle" x="70.25" y="-11.38" font-family="Helvetica,sans-Serif" font-size="10.00">&lt; ReadoutType &gt;</text>
</a>
</g>
</g>
<!-- Node3&#45;&gt;Node2 -->
<g id="edge2_Node000002_Node000003" class="edge">
<title>Node3&#45;&gt;Node2</title>
<g id="a_edge2_Node000002_Node000003"><a xlink:title=" ">
<path fill="none" stroke="#63b8ff" d="M152.21,-26.5C160.09,-26.5 168.15,-26.5 176.19,-26.5"/>
<polygon fill="#63b8ff" stroke="#63b8ff" points="152.31,-23 142.31,-26.5 152.31,-30 152.31,-23"/>
</a>
</g>
</g>
</g>
</svg>
