<?xml version="1.0" encoding="UTF-8" standalone="no"?>
<!DOCTYPE svg PUBLIC "-//W3C//DTD SVG 1.1//EN"
 "http://www.w3.org/Graphics/SVG/1.1/DTD/svg11.dtd">
<!-- Generated by graphviz version 9.0.0 (20230911.1827)
 -->
<!-- Title: dunedaq::appdal::TADataProcessor Pages: 1 -->
<svg width="176pt" height="138pt"
 viewBox="0.00 0.00 175.50 137.75" xmlns="http://www.w3.org/2000/svg" xmlns:xlink="http://www.w3.org/1999/xlink">
<g id="graph0" class="graph" transform="scale(1 1) rotate(0) translate(4 133.75)">
<title>dunedaq::appdal::TADataProcessor</title>
<!-- Node1 -->
<g id="Node000001" class="node">
<title>Node1</title>
<g id="a_Node000001"><a xlink:title=" ">
<polygon fill="#999999" stroke="#666666" points="167.5,-19.25 0,-19.25 0,0 167.5,0 167.5,-19.25"/>
<text text-anchor="middle" x="83.75" y="-5.75" font-family="Helvetica,sans-Serif" font-size="10.00">dunedaq::appdal::TADataProcessor</text>
</a>
</g>
</g>
<!-- Node2 -->
<g id="Node000002" class="node">
<title>Node2</title>
<g id="a_Node000002"><a xlink:href="classdunedaq_1_1appdal_1_1DataProcessor.html" target="_top" xlink:title=" ">
<polygon fill="white" stroke="#666666" points="161.12,-74.5 6.38,-74.5 6.38,-55.25 161.12,-55.25 161.12,-74.5"/>
<text text-anchor="middle" x="83.75" y="-61" font-family="Helvetica,sans-Serif" font-size="10.00">dunedaq::appdal::DataProcessor</text>
</a>
</g>
</g>
<!-- Node2&#45;&gt;Node1 -->
<g id="edge1_Node000001_Node000002" class="edge">
<title>Node2&#45;&gt;Node1</title>
<g id="a_edge1_Node000001_Node000002"><a xlink:title=" ">
<path fill="none" stroke="#63b8ff" d="M77.19,-43.92C76.7,-35.55 77.15,-26.25 78.54,-19.61"/>
<polygon fill="#63b8ff" stroke="#63b8ff" points="73.69,-44.09 78.4,-53.58 80.63,-43.22 73.69,-44.09"/>
</a>
</g>
</g>
<!-- Node2&#45;&gt;Node1 -->
<g id="edge4_Node000001_Node000002" class="edge">
<title>Node2&#45;&gt;Node1</title>
<g id="a_edge4_Node000001_Node000002"><a xlink:title=" ">
<path fill="none" stroke="#63b8ff" d="M90.31,-43.92C90.8,-35.55 90.35,-26.25 88.96,-19.61"/>
<polygon fill="#63b8ff" stroke="#63b8ff" points="86.87,-43.22 89.1,-53.58 93.81,-44.09 86.87,-43.22"/>
</a>
</g>
</g>
<!-- Node3 -->
<g id="Node000003" class="node">
<title>Node3</title>
<g id="a_Node000003"><a xlink:href="classdunedaq_1_1conffwk_1_1DalObject.html" target="_top" xlink:title="The base class for any generated DAL object.">
<polygon fill="white" stroke="#666666" points="152.88,-129.75 14.62,-129.75 14.62,-110.5 152.88,-110.5 152.88,-129.75"/>
<text text-anchor="middle" x="83.75" y="-116.25" font-family="Helvetica,sans-Serif" font-size="10.00">dunedaq::conffwk::DalObject</text>
</a>
</g>
</g>
<!-- Node3&#45;&gt;Node2 -->
<g id="edge2_Node000002_Node000003" class="edge">
<title>Node3&#45;&gt;Node2</title>
<g id="a_edge2_Node000002_Node000003"><a xlink:title=" ">
<path fill="none" stroke="#63b8ff" d="M77.19,-99.17C76.7,-90.8 77.15,-81.5 78.54,-74.86"/>
<polygon fill="#63b8ff" stroke="#63b8ff" points="73.69,-99.34 78.4,-108.83 80.63,-98.47 73.69,-99.34"/>
</a>
</g>
</g>
<!-- Node3&#45;&gt;Node2 -->
<g id="edge3_Node000002_Node000003" class="edge">
<title>Node3&#45;&gt;Node2</title>
<g id="a_edge3_Node000002_Node000003"><a xlink:title=" ">
<path fill="none" stroke="#63b8ff" d="M90.31,-99.17C90.8,-90.8 90.35,-81.5 88.96,-74.86"/>
<polygon fill="#63b8ff" stroke="#63b8ff" points="86.87,-98.47 89.1,-108.83 93.81,-99.34 86.87,-98.47"/>
</a>
</g>
</g>
</g>
</svg>
