<?xml version="1.0" encoding="UTF-8" standalone="no"?>
<!DOCTYPE svg PUBLIC "-//W3C//DTD SVG 1.1//EN"
 "http://www.w3.org/Graphics/SVG/1.1/DTD/svg11.dtd">
<!-- Generated by graphviz version 9.0.0 (20230911.1827)
 -->
<!-- Title: dunedaq::fdreadoutlibs::SSPFrameProcessor Pages: 1 -->
<svg width="171pt" height="194pt"
 viewBox="0.00 0.00 171.00 194.00" xmlns="http://www.w3.org/2000/svg" xmlns:xlink="http://www.w3.org/1999/xlink">
<g id="graph0" class="graph" transform="scale(1 1) rotate(0) translate(4 190)">
<title>dunedaq::fdreadoutlibs::SSPFrameProcessor</title>
<!-- Node1 -->
<g id="Node000001" class="node">
<title>Node1</title>
<g id="a_Node000001"><a xlink:title=" ">
<polygon fill="#999999" stroke="#666666" points="137.88,-30.5 25.12,-30.5 25.12,0 137.88,0 137.88,-30.5"/>
<text text-anchor="start" x="33.12" y="-17" font-family="Helvetica,sans-Serif" font-size="10.00">dunedaq::fdreadoutlibs</text>
<text text-anchor="middle" x="81.5" y="-5.75" font-family="Helvetica,sans-Serif" font-size="10.00">::SSPFrameProcessor</text>
</a>
</g>
</g>
<!-- Node2 -->
<g id="Node000002" class="node">
<title>Node2</title>
<g id="a_Node000002"><a xlink:href="classdunedaq_1_1readoutlibs_1_1TaskRawDataProcessorModel.html" target="_top" xlink:title=" ">
<polygon fill="white" stroke="#666666" points="163,-108.25 0,-108.25 0,-66.5 163,-66.5 163,-108.25"/>
<text text-anchor="start" x="8" y="-94.75" font-family="Helvetica,sans-Serif" font-size="10.00">dunedaq::readoutlibs</text>
<text text-anchor="start" x="8" y="-83.5" font-family="Helvetica,sans-Serif" font-size="10.00">::TaskRawDataProcessorModel</text>
<text text-anchor="middle" x="81.5" y="-72.25" font-family="Helvetica,sans-Serif" font-size="10.00">&lt; types::SSPFrameTypeAdapter &gt;</text>
</a>
</g>
</g>
<!-- Node2&#45;&gt;Node1 -->
<g id="edge1_Node000001_Node000002" class="edge">
<title>Node2&#45;&gt;Node1</title>
<g id="a_edge1_Node000001_Node000002"><a xlink:title=" ">
<path fill="none" stroke="#63b8ff" d="M81.5,-54.63C81.5,-46.27 81.5,-37.65 81.5,-30.7"/>
<polygon fill="#63b8ff" stroke="#63b8ff" points="78,-54.58 81.5,-64.58 85,-54.58 78,-54.58"/>
</a>
</g>
</g>
<!-- Node3 -->
<g id="Node000003" class="node">
<title>Node3</title>
<g id="a_Node000003"><a xlink:href="classdunedaq_1_1readoutlibs_1_1RawDataProcessorConcept.html" target="_top" xlink:title=" ">
<polygon fill="white" stroke="#666666" points="151.75,-186 11.25,-186 11.25,-144.25 151.75,-144.25 151.75,-186"/>
<text text-anchor="start" x="19.25" y="-172.5" font-family="Helvetica,sans-Serif" font-size="10.00">dunedaq::readoutlibs</text>
<text text-anchor="start" x="19.25" y="-161.25" font-family="Helvetica,sans-Serif" font-size="10.00">::RawDataProcessorConcept</text>
<text text-anchor="middle" x="81.5" y="-150" font-family="Helvetica,sans-Serif" font-size="10.00">&lt; ReadoutType &gt;</text>
</a>
</g>
</g>
<!-- Node3&#45;&gt;Node2 -->
<g id="edge2_Node000002_Node000003" class="edge">
<title>Node3&#45;&gt;Node2</title>
<g id="a_edge2_Node000002_Node000003"><a xlink:title=" ">
<path fill="none" stroke="#63b8ff" d="M81.5,-132.5C81.5,-124.46 81.5,-116.04 81.5,-108.73"/>
<polygon fill="#63b8ff" stroke="#63b8ff" points="78,-132.31 81.5,-142.31 85,-132.31 78,-132.31"/>
</a>
</g>
</g>
</g>
</svg>
