<?xml version="1.0" encoding="UTF-8" standalone="no"?>
<!DOCTYPE svg PUBLIC "-//W3C//DTD SVG 1.1//EN"
 "http://www.w3.org/Graphics/SVG/1.1/DTD/svg11.dtd">
<!-- Generated by graphviz version 9.0.0 (20230911.1827)
 -->
<!-- Title: dunedaq::timing::FanoutDesign Pages: 1 -->
<svg width="1141pt" height="143pt"
 viewBox="0.00 0.00 1140.75 143.11" xmlns="http://www.w3.org/2000/svg" xmlns:xlink="http://www.w3.org/1999/xlink">
<g id="graph0" class="graph" transform="scale(1 1) rotate(0) translate(4 139.11)">
<title>dunedaq::timing::FanoutDesign</title>
<!-- Node1 -->
<g id="Node000001" class="node">
<title>Node1</title>
<g id="a_Node000001"><a xlink:title="Class for timing fanout designs.">
<polygon fill="#999999" stroke="#666666" points="1132.75,-49.49 984.75,-49.49 984.75,-30.24 1132.75,-30.24 1132.75,-49.49"/>
<text text-anchor="middle" x="1058.75" y="-35.99" font-family="Helvetica,sans-Serif" font-size="10.00">dunedaq::timing::FanoutDesign</text>
</a>
</g>
</g>
<!-- Node2 -->
<g id="Node000002" class="node">
<title>Node2</title>
<g id="a_Node000002"><a xlink:href="classdunedaq_1_1timing_1_1MasterMuxDesign.html" target="_top" xlink:title="Class for PDI timing master design on mux board.">
<polygon fill="white" stroke="#666666" points="948.75,-88.11 812.75,-88.11 812.75,-57.61 948.75,-57.61 948.75,-88.11"/>
<text text-anchor="start" x="820.75" y="-74.61" font-family="Helvetica,sans-Serif" font-size="10.00">dunedaq::timing::MasterMux</text>
<text text-anchor="middle" x="880.75" y="-63.36" font-family="Helvetica,sans-Serif" font-size="10.00">Design</text>
</a>
</g>
</g>
<!-- Node2&#45;&gt;Node1 -->
<g id="edge1_Node000001_Node000002" class="edge">
<title>Node2&#45;&gt;Node1</title>
<g id="a_edge1_Node000001_Node000002"><a xlink:title=" ">
<path fill="none" stroke="#63b8ff" d="M960.23,-58.15C974.98,-55.38 990.1,-52.55 1003.89,-49.96"/>
<polygon fill="#63b8ff" stroke="#63b8ff" points="959.71,-54.68 950.53,-59.96 961,-61.56 959.71,-54.68"/>
</a>
</g>
</g>
<!-- Node3 -->
<g id="Node000003" class="node">
<title>Node3</title>
<g id="a_Node000003"><a xlink:href="classdunedaq_1_1timing_1_1MuxDesignInterface.html" target="_top" xlink:title="Class for timing fanout designs.">
<polygon fill="white" stroke="#666666" points="770.75,-135.11 634.75,-135.11 634.75,-104.61 770.75,-104.61 770.75,-135.11"/>
<text text-anchor="start" x="642.75" y="-121.61" font-family="Helvetica,sans-Serif" font-size="10.00">dunedaq::timing::MuxDesign</text>
<text text-anchor="middle" x="702.75" y="-110.36" font-family="Helvetica,sans-Serif" font-size="10.00">Interface</text>
</a>
</g>
</g>
<!-- Node3&#45;&gt;Node2 -->
<g id="edge2_Node000002_Node000003" class="edge">
<title>Node3&#45;&gt;Node2</title>
<g id="a_edge2_Node000002_Node000003"><a xlink:title=" ">
<path fill="none" stroke="#63b8ff" d="M773.12,-101.34C788.89,-97.12 805.51,-92.69 820.8,-88.6"/>
<polygon fill="#63b8ff" stroke="#63b8ff" points="772.58,-97.86 763.82,-103.82 774.38,-104.62 772.58,-97.86"/>
</a>
</g>
</g>
<!-- Node4 -->
<g id="Node000004" class="node">
<title>Node4</title>
<g id="a_Node000004"><a xlink:href="classdunedaq_1_1timing_1_1TopDesignInterface.html" target="_top" xlink:title="Base class for timing top design nodes.">
<polygon fill="white" stroke="#666666" points="408.75,-79.11 274.25,-79.11 274.25,-48.61 408.75,-48.61 408.75,-79.11"/>
<text text-anchor="start" x="282.25" y="-65.61" font-family="Helvetica,sans-Serif" font-size="10.00">dunedaq::timing::TopDesign</text>
<text text-anchor="middle" x="341.5" y="-54.36" font-family="Helvetica,sans-Serif" font-size="10.00">Interface</text>
</a>
</g>
</g>
<!-- Node4&#45;&gt;Node3 -->
<g id="edge3_Node000003_Node000004" class="edge">
<title>Node4&#45;&gt;Node3</title>
<g id="a_edge3_Node000003_Node000004"><a xlink:title=" ">
<path fill="none" stroke="#63b8ff" d="M384.39,-84.22C402.52,-92.08 424.25,-100.28 444.75,-104.86 508,-118.99 582.05,-121.93 634.37,-121.82"/>
<polygon fill="#63b8ff" stroke="#63b8ff" points="385.83,-81.03 375.27,-80.14 382.97,-87.42 385.83,-81.03"/>
</a>
</g>
</g>
<!-- Node8 -->
<g id="Node000008" class="node">
<title>Node8</title>
<g id="a_Node000008"><a xlink:href="classdunedaq_1_1timing_1_1TopDesign.html" target="_top" xlink:title="Base class for timing top design nodes with IO class.">
<polygon fill="white" stroke="#666666" points="586,-95.49 451.5,-95.49 451.5,-76.24 586,-76.24 586,-95.49"/>
<text text-anchor="middle" x="518.75" y="-81.99" font-family="Helvetica,sans-Serif" font-size="10.00">dunedaq::timing::TopDesign</text>
</a>
</g>
</g>
<!-- Node4&#45;&gt;Node8 -->
<g id="edge8_Node000008_Node000004" class="edge">
<title>Node4&#45;&gt;Node8</title>
<g id="a_edge8_Node000008_Node000004"><a xlink:title=" ">
<path fill="none" stroke="#63b8ff" d="M419.93,-73.58C430.33,-74.89 440.92,-76.22 451.11,-77.5"/>
<polygon fill="#63b8ff" stroke="#63b8ff" points="420.61,-70.14 410.26,-72.37 419.74,-77.08 420.61,-70.14"/>
</a>
</g>
</g>
<!-- Node9 -->
<g id="Node000009" class="node">
<title>Node9</title>
<g id="a_Node000009"><a xlink:href="classdunedaq_1_1timing_1_1MasterDesignInterface.html" target="_top" xlink:title="Base class for timing master designs.">
<polygon fill="white" stroke="#666666" points="592.75,-58.11 444.75,-58.11 444.75,-27.61 592.75,-27.61 592.75,-58.11"/>
<text text-anchor="start" x="452.75" y="-44.61" font-family="Helvetica,sans-Serif" font-size="10.00">dunedaq::timing::MasterDesign</text>
<text text-anchor="middle" x="518.75" y="-33.36" font-family="Helvetica,sans-Serif" font-size="10.00">Interface</text>
</a>
</g>
</g>
<!-- Node4&#45;&gt;Node9 -->
<g id="edge10_Node000009_Node000004" class="edge">
<title>Node4&#45;&gt;Node9</title>
<g id="a_edge10_Node000009_Node000004"><a xlink:title=" ">
<path fill="none" stroke="#63b8ff" d="M420.07,-54.57C428.14,-53.6 436.34,-52.62 444.36,-51.65"/>
<polygon fill="#63b8ff" stroke="#63b8ff" points="419.77,-51.08 410.26,-55.74 420.6,-58.03 419.77,-51.08"/>
</a>
</g>
</g>
<!-- Node10 -->
<g id="Node000010" class="node">
<title>Node10</title>
<g id="a_Node000010"><a xlink:href="classdunedaq_1_1timing_1_1EndpointDesignInterface.html" target="_top" xlink:title="Base class for timing endpoint design nodes.">
<polygon fill="white" stroke="#666666" points="943.5,-31.11 818,-31.11 818,-0.61 943.5,-0.61 943.5,-31.11"/>
<text text-anchor="start" x="826" y="-17.61" font-family="Helvetica,sans-Serif" font-size="10.00">dunedaq::timing::Endpoint</text>
<text text-anchor="middle" x="880.75" y="-6.36" font-family="Helvetica,sans-Serif" font-size="10.00">DesignInterface</text>
</a>
</g>
</g>
<!-- Node4&#45;&gt;Node10 -->
<g id="edge12_Node000010_Node000004" class="edge">
<title>Node4&#45;&gt;Node10</title>
<g id="a_edge12_Node000010_Node000004"><a xlink:title=" ">
<path fill="none" stroke="#63b8ff" d="M379.89,-43C398.73,-33.65 422.29,-23.66 444.75,-18.86 575.1,9.02 732.48,-0.12 817.66,-8.48"/>
<polygon fill="#63b8ff" stroke="#63b8ff" points="378.32,-39.87 371.02,-47.55 381.52,-46.1 378.32,-39.87"/>
</a>
</g>
</g>
<!-- Node5 -->
<g id="Node000005" class="node">
<title>Node5</title>
<g id="a_Node000005"><a xlink:href="classdunedaq_1_1timing_1_1TimingNode.html" target="_top" xlink:title="Base class for timing nodes.">
<polygon fill="white" stroke="#666666" points="238.25,-73.49 97.75,-73.49 97.75,-54.24 238.25,-54.24 238.25,-73.49"/>
<text text-anchor="middle" x="168" y="-59.99" font-family="Helvetica,sans-Serif" font-size="10.00">dunedaq::timing::TimingNode</text>
</a>
</g>
</g>
<!-- Node5&#45;&gt;Node4 -->
<g id="edge4_Node000004_Node000005" class="edge">
<title>Node5&#45;&gt;Node4</title>
<g id="a_edge4_Node000004_Node000005"><a xlink:title=" ">
<path fill="none" stroke="#63b8ff" d="M249.62,-63.86C257.7,-63.86 265.85,-63.86 273.76,-63.86"/>
<polygon fill="#63b8ff" stroke="#63b8ff" points="249.77,-60.36 239.77,-63.86 249.77,-67.36 249.77,-60.36"/>
</a>
</g>
</g>
<!-- Node6 -->
<g id="Node000006" class="node">
<title>Node6</title>
<g id="a_Node000006"><a xlink:title=" ">
<polygon fill="white" stroke="#666666" points="61.75,-73.49 0,-73.49 0,-54.24 61.75,-54.24 61.75,-73.49"/>
<text text-anchor="middle" x="30.88" y="-59.99" font-family="Helvetica,sans-Serif" font-size="10.00">uhal::Node</text>
</a>
</g>
</g>
<!-- Node6&#45;&gt;Node5 -->
<g id="edge5_Node000005_Node000006" class="edge">
<title>Node6&#45;&gt;Node5</title>
<g id="a_edge5_Node000005_Node000006"><a xlink:title=" ">
<path fill="none" stroke="#63b8ff" d="M73.58,-63.86C81.14,-63.86 89.2,-63.86 97.3,-63.86"/>
<polygon fill="#63b8ff" stroke="#63b8ff" points="73.71,-60.36 63.71,-63.86 73.71,-67.36 73.71,-60.36"/>
</a>
</g>
</g>
<!-- Node7 -->
<g id="Node000007" class="node">
<title>Node7</title>
<g id="a_Node000007"><a xlink:href="classdunedaq_1_1timing_1_1MasterDesign.html" target="_top" xlink:title="Base class for timing master designs.">
<polygon fill="white" stroke="#666666" points="776.75,-82.49 628.75,-82.49 628.75,-63.24 776.75,-63.24 776.75,-82.49"/>
<text text-anchor="middle" x="702.75" y="-68.99" font-family="Helvetica,sans-Serif" font-size="10.00">dunedaq::timing::MasterDesign</text>
</a>
</g>
</g>
<!-- Node7&#45;&gt;Node2 -->
<g id="edge6_Node000002_Node000007" class="edge">
<title>Node7&#45;&gt;Node2</title>
<g id="a_edge6_Node000002_Node000007"><a xlink:title=" ">
<path fill="none" stroke="#63b8ff" d="M788.44,-72.86C796.48,-72.86 804.56,-72.86 812.41,-72.86"/>
<polygon fill="#63b8ff" stroke="#63b8ff" points="788.63,-69.36 778.63,-72.86 788.63,-76.36 788.63,-69.36"/>
</a>
</g>
</g>
<!-- Node8&#45;&gt;Node7 -->
<g id="edge7_Node000007_Node000008" class="edge">
<title>Node8&#45;&gt;Node7</title>
<g id="a_edge7_Node000007_Node000008"><a xlink:title=" ">
<path fill="none" stroke="#63b8ff" d="M597.79,-80.29C607.9,-79.56 618.23,-78.83 628.27,-78.11"/>
<polygon fill="#63b8ff" stroke="#63b8ff" points="597.72,-76.78 588,-80.99 598.22,-83.76 597.72,-76.78"/>
</a>
</g>
</g>
<!-- Node9&#45;&gt;Node7 -->
<g id="edge9_Node000007_Node000009" class="edge">
<title>Node9&#45;&gt;Node7</title>
<g id="a_edge9_Node000007_Node000009"><a xlink:title=" ">
<path fill="none" stroke="#63b8ff" d="M604.13,-56.77C616.33,-58.78 628.7,-60.82 640.34,-62.74"/>
<polygon fill="#63b8ff" stroke="#63b8ff" points="604.92,-53.35 594.48,-55.18 603.78,-60.26 604.92,-53.35"/>
</a>
</g>
</g>
<!-- Node10&#45;&gt;Node1 -->
<g id="edge11_Node000001_Node000010" class="edge">
<title>Node10&#45;&gt;Node1</title>
<g id="a_edge11_Node000001_Node000010"><a xlink:title=" ">
<path fill="none" stroke="#63b8ff" d="M955.08,-25.86C964.81,-27.19 974.78,-28.55 984.51,-29.87"/>
<polygon fill="#63b8ff" stroke="#63b8ff" points="955.68,-22.41 945.3,-24.53 954.74,-29.35 955.68,-22.41"/>
</a>
</g>
</g>
</g>
</svg>
