<?xml version="1.0" encoding="UTF-8" standalone="no"?>
<!DOCTYPE svg PUBLIC "-//W3C//DTD SVG 1.1//EN"
 "http://www.w3.org/Graphics/SVG/1.1/DTD/svg11.dtd">
<!-- Generated by graphviz version 9.0.0 (20230911.1827)
 -->
<!-- Title: dunedaq::appdal::DFOApplication Pages: 1 -->
<svg width="167pt" height="204pt"
 viewBox="0.00 0.00 166.50 204.25" xmlns="http://www.w3.org/2000/svg" xmlns:xlink="http://www.w3.org/1999/xlink">
<g id="graph0" class="graph" transform="scale(1 1) rotate(0) translate(4 200.25)">
<title>dunedaq::appdal::DFOApplication</title>
<!-- Node1 -->
<g id="Node000001" class="node">
<title>Node1</title>
<g id="a_Node000001"><a xlink:title=" ">
<polygon fill="#999999" stroke="#666666" points="158.5,-19.25 0,-19.25 0,0 158.5,0 158.5,-19.25"/>
<text text-anchor="middle" x="79.25" y="-5.75" font-family="Helvetica,sans-Serif" font-size="10.00">dunedaq::appdal::DFOApplication</text>
</a>
</g>
</g>
<!-- Node2 -->
<g id="Node000002" class="node">
<title>Node2</title>
<g id="a_Node000002"><a xlink:href="classdunedaq_1_1appdal_1_1SmartDaqApplication.html" target="_top" xlink:title=" ">
<polygon fill="white" stroke="#666666" points="146.12,-85.75 12.38,-85.75 12.38,-55.25 146.12,-55.25 146.12,-85.75"/>
<text text-anchor="start" x="20.38" y="-72.25" font-family="Helvetica,sans-Serif" font-size="10.00">dunedaq::appdal::SmartDaq</text>
<text text-anchor="middle" x="79.25" y="-61" font-family="Helvetica,sans-Serif" font-size="10.00">Application</text>
</a>
</g>
</g>
<!-- Node2&#45;&gt;Node1 -->
<g id="edge1_Node000001_Node000002" class="edge">
<title>Node2&#45;&gt;Node1</title>
<g id="a_edge1_Node000001_Node000002"><a xlink:title=" ">
<path fill="none" stroke="#63b8ff" d="M72.54,-43.48C72.34,-34.98 72.89,-26.09 74.21,-19.7"/>
<polygon fill="#63b8ff" stroke="#63b8ff" points="69.05,-43.7 73.23,-53.44 76.03,-43.22 69.05,-43.7"/>
</a>
</g>
</g>
<!-- Node2&#45;&gt;Node1 -->
<g id="edge6_Node000001_Node000002" class="edge">
<title>Node2&#45;&gt;Node1</title>
<g id="a_edge6_Node000001_Node000002"><a xlink:title=" ">
<path fill="none" stroke="#63b8ff" d="M85.96,-43.48C86.16,-34.98 85.61,-26.09 84.29,-19.7"/>
<polygon fill="#63b8ff" stroke="#63b8ff" points="82.47,-43.22 85.27,-53.44 89.45,-43.7 82.47,-43.22"/>
</a>
</g>
</g>
<!-- Node3 -->
<g id="Node000003" class="node">
<title>Node3</title>
<g id="a_Node000003"><a xlink:href="classdunedaq_1_1coredal_1_1Application.html" target="_top" xlink:title=" ">
<polygon fill="white" stroke="#666666" points="149.88,-141 8.62,-141 8.62,-121.75 149.88,-121.75 149.88,-141"/>
<text text-anchor="middle" x="79.25" y="-127.5" font-family="Helvetica,sans-Serif" font-size="10.00">dunedaq::coredal::Application</text>
</a>
</g>
</g>
<!-- Node3&#45;&gt;Node2 -->
<g id="edge2_Node000002_Node000003" class="edge">
<title>Node3&#45;&gt;Node2</title>
<g id="a_edge2_Node000002_Node000003"><a xlink:title=" ">
<path fill="none" stroke="#63b8ff" d="M72.8,-110.17C72.27,-102.24 72.44,-93.31 73.34,-86.03"/>
<polygon fill="#63b8ff" stroke="#63b8ff" points="69.31,-110.45 74.05,-119.93 76.26,-109.57 69.31,-110.45"/>
</a>
</g>
</g>
<!-- Node3&#45;&gt;Node2 -->
<g id="edge5_Node000002_Node000003" class="edge">
<title>Node3&#45;&gt;Node2</title>
<g id="a_edge5_Node000002_Node000003"><a xlink:title=" ">
<path fill="none" stroke="#63b8ff" d="M85.7,-110.17C86.23,-102.24 86.06,-93.31 85.16,-86.03"/>
<polygon fill="#63b8ff" stroke="#63b8ff" points="82.24,-109.57 84.45,-119.93 89.19,-110.45 82.24,-109.57"/>
</a>
</g>
</g>
<!-- Node4 -->
<g id="Node000004" class="node">
<title>Node4</title>
<g id="a_Node000004"><a xlink:href="classdunedaq_1_1conffwk_1_1DalObject.html" target="_top" xlink:title="The base class for any generated DAL object.">
<polygon fill="white" stroke="#666666" points="148.38,-196.25 10.12,-196.25 10.12,-177 148.38,-177 148.38,-196.25"/>
<text text-anchor="middle" x="79.25" y="-182.75" font-family="Helvetica,sans-Serif" font-size="10.00">dunedaq::conffwk::DalObject</text>
</a>
</g>
</g>
<!-- Node4&#45;&gt;Node3 -->
<g id="edge3_Node000003_Node000004" class="edge">
<title>Node4&#45;&gt;Node3</title>
<g id="a_edge3_Node000003_Node000004"><a xlink:title=" ">
<path fill="none" stroke="#63b8ff" d="M72.69,-165.67C72.2,-157.3 72.65,-148 74.04,-141.36"/>
<polygon fill="#63b8ff" stroke="#63b8ff" points="69.19,-165.84 73.9,-175.33 76.13,-164.97 69.19,-165.84"/>
</a>
</g>
</g>
<!-- Node4&#45;&gt;Node3 -->
<g id="edge4_Node000003_Node000004" class="edge">
<title>Node4&#45;&gt;Node3</title>
<g id="a_edge4_Node000003_Node000004"><a xlink:title=" ">
<path fill="none" stroke="#63b8ff" d="M85.81,-165.67C86.3,-157.3 85.85,-148 84.46,-141.36"/>
<polygon fill="#63b8ff" stroke="#63b8ff" points="82.37,-164.97 84.6,-175.33 89.31,-165.84 82.37,-164.97"/>
</a>
</g>
</g>
</g>
</svg>
