<?xml version="1.0" encoding="UTF-8" standalone="no"?>
<!DOCTYPE svg PUBLIC "-//W3C//DTD SVG 1.1//EN"
 "http://www.w3.org/Graphics/SVG/1.1/DTD/svg11.dtd">
<!-- Generated by graphviz version 9.0.0 (20230911.1827)
 -->
<!-- Title: dunedaq::timing::EndpointNodeInterface Pages: 1 -->
<svg width="626pt" height="138pt"
 viewBox="0.00 0.00 626.25 138.25" xmlns="http://www.w3.org/2000/svg" xmlns:xlink="http://www.w3.org/1999/xlink">
<g id="graph0" class="graph" transform="scale(1 1) rotate(0) translate(4 134.25)">
<title>dunedaq::timing::EndpointNodeInterface</title>
<!-- Node1 -->
<g id="Node000001" class="node">
<title>Node1</title>
<g id="a_Node000001"><a xlink:title="Base class for timing IO nodes.">
<polygon fill="#999999" stroke="#666666" points="399.75,-79.88 274.25,-79.88 274.25,-49.38 399.75,-49.38 399.75,-79.88"/>
<text text-anchor="start" x="282.25" y="-66.38" font-family="Helvetica,sans-Serif" font-size="10.00">dunedaq::timing::Endpoint</text>
<text text-anchor="middle" x="337" y="-55.12" font-family="Helvetica,sans-Serif" font-size="10.00">NodeInterface</text>
</a>
</g>
</g>
<!-- Node4 -->
<g id="Node000004" class="node">
<title>Node4</title>
<g id="a_Node000004"><a xlink:href="classdunedaq_1_1timing_1_1CRTNode.html" target="_top" xlink:title="Base class for timing IO nodes.">
<polygon fill="white" stroke="#666666" points="592.38,-130.25 461.62,-130.25 461.62,-111 592.38,-111 592.38,-130.25"/>
<text text-anchor="middle" x="527" y="-116.75" font-family="Helvetica,sans-Serif" font-size="10.00">dunedaq::timing::CRTNode</text>
</a>
</g>
</g>
<!-- Node1&#45;&gt;Node4 -->
<g id="edge3_Node000001_Node000004" class="edge">
<title>Node1&#45;&gt;Node4</title>
<g id="a_edge3_Node000001_Node000004"><a xlink:title=" ">
<path fill="none" stroke="#63b8ff" d="M383.95,-84.39C400.12,-90.83 418.54,-97.61 435.75,-102.62 446.03,-105.62 457.11,-108.28 467.86,-110.58"/>
<polygon fill="#63b8ff" stroke="#63b8ff" points="385.68,-81.31 375.09,-80.79 383.04,-87.8 385.68,-81.31"/>
</a>
</g>
</g>
<!-- Node5 -->
<g id="Node000005" class="node">
<title>Node5</title>
<g id="a_Node000005"><a xlink:href="classdunedaq_1_1timing_1_1EndpointNode.html" target="_top" xlink:title="Base class for timing IO nodes.">
<polygon fill="white" stroke="#666666" points="601.38,-93.25 452.62,-93.25 452.62,-74 601.38,-74 601.38,-93.25"/>
<text text-anchor="middle" x="527" y="-79.75" font-family="Helvetica,sans-Serif" font-size="10.00">dunedaq::timing::EndpointNode</text>
</a>
</g>
</g>
<!-- Node1&#45;&gt;Node5 -->
<g id="edge4_Node000001_Node000005" class="edge">
<title>Node1&#45;&gt;Node5</title>
<g id="a_edge4_Node000001_Node000005"><a xlink:title=" ">
<path fill="none" stroke="#63b8ff" d="M411.22,-72.03C424.68,-73.39 438.75,-74.81 452.22,-76.17"/>
<polygon fill="#63b8ff" stroke="#63b8ff" points="411.89,-68.57 401.59,-71.05 411.18,-75.54 411.89,-68.57"/>
</a>
</g>
</g>
<!-- Node6 -->
<g id="Node000006" class="node">
<title>Node6</title>
<g id="a_Node000006"><a xlink:href="classdunedaq_1_1timing_1_1PDIEndpointNode.html" target="_top" xlink:title="Base class for timing IO nodes.">
<polygon fill="white" stroke="#666666" points="609.62,-56.25 444.38,-56.25 444.38,-37 609.62,-37 609.62,-56.25"/>
<text text-anchor="middle" x="527" y="-42.75" font-family="Helvetica,sans-Serif" font-size="10.00">dunedaq::timing::PDIEndpointNode</text>
</a>
</g>
</g>
<!-- Node1&#45;&gt;Node6 -->
<g id="edge5_Node000001_Node000006" class="edge">
<title>Node1&#45;&gt;Node6</title>
<g id="a_edge5_Node000001_Node000006"><a xlink:title=" ">
<path fill="none" stroke="#63b8ff" d="M411.53,-57.58C422.25,-56.56 433.34,-55.5 444.2,-54.46"/>
<polygon fill="#63b8ff" stroke="#63b8ff" points="411.21,-54.1 401.59,-58.54 411.87,-61.07 411.21,-54.1"/>
</a>
</g>
</g>
<!-- Node7 -->
<g id="Node000007" class="node">
<title>Node7</title>
<g id="a_Node000007"><a xlink:href="classdunedaq_1_1timing_1_1PDIHSIEndpointNode.html" target="_top" xlink:title="Base class for timing IO nodes.">
<polygon fill="white" stroke="#666666" points="618.25,-19.25 435.75,-19.25 435.75,0 618.25,0 618.25,-19.25"/>
<text text-anchor="middle" x="527" y="-5.75" font-family="Helvetica,sans-Serif" font-size="10.00">dunedaq::timing::PDIHSIEndpointNode</text>
</a>
</g>
</g>
<!-- Node1&#45;&gt;Node7 -->
<g id="edge6_Node000001_Node000007" class="edge">
<title>Node1&#45;&gt;Node7</title>
<g id="a_edge6_Node000001_Node000007"><a xlink:title=" ">
<path fill="none" stroke="#63b8ff" d="M385.66,-44.78C401.42,-38.71 419.17,-32.38 435.75,-27.62 446.04,-24.67 457.13,-22.03 467.89,-19.75"/>
<polygon fill="#63b8ff" stroke="#63b8ff" points="384.55,-41.46 376.52,-48.37 387.11,-47.97 384.55,-41.46"/>
</a>
</g>
</g>
<!-- Node2 -->
<g id="Node000002" class="node">
<title>Node2</title>
<g id="a_Node000002"><a xlink:href="classdunedaq_1_1timing_1_1TimingNode.html" target="_top" xlink:title="Base class for timing nodes.">
<polygon fill="white" stroke="#666666" points="238.25,-74.25 97.75,-74.25 97.75,-55 238.25,-55 238.25,-74.25"/>
<text text-anchor="middle" x="168" y="-60.75" font-family="Helvetica,sans-Serif" font-size="10.00">dunedaq::timing::TimingNode</text>
</a>
</g>
</g>
<!-- Node2&#45;&gt;Node1 -->
<g id="edge1_Node000001_Node000002" class="edge">
<title>Node2&#45;&gt;Node1</title>
<g id="a_edge1_Node000001_Node000002"><a xlink:title=" ">
<path fill="none" stroke="#63b8ff" d="M249.74,-64.62C257.82,-64.62 265.93,-64.62 273.78,-64.62"/>
<polygon fill="#63b8ff" stroke="#63b8ff" points="249.89,-61.13 239.89,-64.63 249.89,-68.13 249.89,-61.13"/>
</a>
</g>
</g>
<!-- Node3 -->
<g id="Node000003" class="node">
<title>Node3</title>
<g id="a_Node000003"><a xlink:title=" ">
<polygon fill="white" stroke="#666666" points="61.75,-74.25 0,-74.25 0,-55 61.75,-55 61.75,-74.25"/>
<text text-anchor="middle" x="30.88" y="-60.75" font-family="Helvetica,sans-Serif" font-size="10.00">uhal::Node</text>
</a>
</g>
</g>
<!-- Node3&#45;&gt;Node2 -->
<g id="edge2_Node000002_Node000003" class="edge">
<title>Node3&#45;&gt;Node2</title>
<g id="a_edge2_Node000002_Node000003"><a xlink:title=" ">
<path fill="none" stroke="#63b8ff" d="M73.58,-64.62C81.14,-64.62 89.2,-64.62 97.3,-64.62"/>
<polygon fill="#63b8ff" stroke="#63b8ff" points="73.71,-61.13 63.71,-64.63 73.71,-68.13 73.71,-61.13"/>
</a>
</g>
</g>
</g>
</svg>
