<?xml version="1.0" encoding="UTF-8" standalone="no"?>
<!DOCTYPE svg PUBLIC "-//W3C//DTD SVG 1.1//EN"
 "http://www.w3.org/Graphics/SVG/1.1/DTD/svg11.dtd">
<!-- Generated by graphviz version 9.0.0 (20230911.1827)
 -->
<!-- Title: dunedaq::fdreadoutlibs::WIBEthFrameProcessor Pages: 1 -->
<svg width="575pt" height="100pt"
 viewBox="0.00 0.00 575.25 100.12" xmlns="http://www.w3.org/2000/svg" xmlns:xlink="http://www.w3.org/1999/xlink">
<g id="graph0" class="graph" transform="scale(1 1) rotate(0) translate(4 96.12)">
<title>dunedaq::fdreadoutlibs::WIBEthFrameProcessor</title>
<!-- Node1 -->
<g id="Node000001" class="node">
<title>Node1</title>
<g id="a_Node000001"><a xlink:title=" ">
<polygon fill="#999999" stroke="#666666" points="567.25,-45.5 441.75,-45.5 441.75,-15 567.25,-15 567.25,-45.5"/>
<text text-anchor="start" x="449.75" y="-32" font-family="Helvetica,sans-Serif" font-size="10.00">dunedaq::fdreadoutlibs</text>
<text text-anchor="middle" x="504.5" y="-20.75" font-family="Helvetica,sans-Serif" font-size="10.00">::WIBEthFrameProcessor</text>
</a>
</g>
</g>
<!-- Node2 -->
<g id="Node000002" class="node">
<title>Node2</title>
<g id="a_Node000002"><a xlink:href="classdunedaq_1_1readoutlibs_1_1TaskRawDataProcessorModel.html" target="_top" xlink:title=" ">
<polygon fill="white" stroke="#666666" points="404.75,-83.12 229,-83.12 229,-41.38 404.75,-41.38 404.75,-83.12"/>
<text text-anchor="start" x="237" y="-69.62" font-family="Helvetica,sans-Serif" font-size="10.00">dunedaq::readoutlibs</text>
<text text-anchor="start" x="237" y="-58.38" font-family="Helvetica,sans-Serif" font-size="10.00">::TaskRawDataProcessorModel</text>
<text text-anchor="middle" x="316.88" y="-47.12" font-family="Helvetica,sans-Serif" font-size="10.00">&lt; types::DUNEWIBEthTypeAdapter &gt;</text>
</a>
</g>
</g>
<!-- Node2&#45;&gt;Node1 -->
<g id="edge1_Node000001_Node000002" class="edge">
<title>Node2&#45;&gt;Node1</title>
<g id="a_edge1_Node000001_Node000002"><a xlink:title=" ">
<path fill="none" stroke="#63b8ff" d="M416.19,-45.3C424.7,-43.83 433.16,-42.38 441.26,-40.98"/>
<polygon fill="#63b8ff" stroke="#63b8ff" points="415.73,-41.83 406.47,-46.98 416.92,-48.73 415.73,-41.83"/>
</a>
</g>
</g>
<!-- Node3 -->
<g id="Node000003" class="node">
<title>Node3</title>
<g id="a_Node000003"><a xlink:href="classdunedaq_1_1readoutlibs_1_1RawDataProcessorConcept.html" target="_top" xlink:title=" ">
<polygon fill="white" stroke="#666666" points="140.5,-92.12 0,-92.12 0,-50.38 140.5,-50.38 140.5,-92.12"/>
<text text-anchor="start" x="8" y="-78.62" font-family="Helvetica,sans-Serif" font-size="10.00">dunedaq::readoutlibs</text>
<text text-anchor="start" x="8" y="-67.38" font-family="Helvetica,sans-Serif" font-size="10.00">::RawDataProcessorConcept</text>
<text text-anchor="middle" x="70.25" y="-56.12" font-family="Helvetica,sans-Serif" font-size="10.00">&lt; ReadoutType &gt;</text>
</a>
</g>
</g>
<!-- Node3&#45;&gt;Node2 -->
<g id="edge2_Node000002_Node000003" class="edge">
<title>Node3&#45;&gt;Node2</title>
<g id="a_edge2_Node000002_Node000003"><a xlink:title=" ">
<path fill="none" stroke="#63b8ff" d="M152.16,-68.27C176.74,-67.37 203.84,-66.37 228.8,-65.45"/>
<polygon fill="#63b8ff" stroke="#63b8ff" points="152.07,-64.77 142.21,-68.64 152.33,-71.77 152.07,-64.77"/>
</a>
</g>
</g>
<!-- Node4 -->
<g id="Node000004" class="node">
<title>Node4</title>
<g id="a_Node000004"><a xlink:href="structdunedaq_1_1daqdataformats_1_1SourceID.html" target="_top" xlink:title="SourceID is a generalized representation of the source of a piece of data in the DAQ....">
<polygon fill="white" stroke="#666666" points="132.62,-30.5 7.88,-30.5 7.88,0 132.62,0 132.62,-30.5"/>
<text text-anchor="start" x="15.88" y="-17" font-family="Helvetica,sans-Serif" font-size="10.00">dunedaq::daqdataformats</text>
<text text-anchor="middle" x="70.25" y="-5.75" font-family="Helvetica,sans-Serif" font-size="10.00">::SourceID</text>
</a>
</g>
</g>
<!-- Node4&#45;&gt;Node1 -->
<g id="edge4_Node000001_Node000004" class="edge">
<title>Node4&#45;&gt;Node1</title>
<g id="a_edge4_Node000001_Node000004"><a xlink:title=" ">
<path fill="none" stroke="#9a32cd" stroke-dasharray="5,2" d="M144.44,-14.91C212.05,-14.98 315.25,-16.04 404.75,-21 416.61,-21.66 429.26,-22.63 441.39,-23.71"/>
<polygon fill="#9a32cd" stroke="#9a32cd" points="144.59,-11.41 134.59,-14.91 144.59,-18.41 144.59,-11.41"/>
</a>
</g>
<text text-anchor="middle" x="316.88" y="-22" font-family="Helvetica,sans-Serif" font-size="10.00" fill="grey"> m_sourceid</text>
</g>
<!-- Node4&#45;&gt;Node2 -->
<g id="edge3_Node000002_Node000004" class="edge">
<title>Node4&#45;&gt;Node2</title>
<g id="a_edge3_Node000002_Node000004"><a xlink:title=" ">
<path fill="none" stroke="#9a32cd" stroke-dasharray="5,2" d="M144.13,-29.25C170.72,-34.36 201.05,-40.19 228.76,-45.51"/>
<polygon fill="#9a32cd" stroke="#9a32cd" points="144.95,-25.85 134.47,-27.4 143.63,-32.72 144.95,-25.85"/>
</a>
</g>
<text text-anchor="middle" x="184.75" y="-43" font-family="Helvetica,sans-Serif" font-size="10.00" fill="grey"> m_sourceid</text>
</g>
</g>
</svg>
