<?xml version="1.0" encoding="UTF-8" standalone="no"?>
<!DOCTYPE svg PUBLIC "-//W3C//DTD SVG 1.1//EN"
 "http://www.w3.org/Graphics/SVG/1.1/DTD/svg11.dtd">
<!-- Generated by graphviz version 9.0.0 (20230911.1827)
 -->
<!-- Title: dunedaq::appdal::RawDataProcessor Pages: 1 -->
<svg width="163pt" height="149pt"
 viewBox="0.00 0.00 162.75 149.00" xmlns="http://www.w3.org/2000/svg" xmlns:xlink="http://www.w3.org/1999/xlink">
<g id="graph0" class="graph" transform="scale(1 1) rotate(0) translate(4 145)">
<title>dunedaq::appdal::RawDataProcessor</title>
<!-- Node1 -->
<g id="Node000001" class="node">
<title>Node1</title>
<g id="a_Node000001"><a xlink:title=" ">
<polygon fill="#999999" stroke="#666666" points="142.38,-30.5 12.38,-30.5 12.38,0 142.38,0 142.38,-30.5"/>
<text text-anchor="start" x="20.38" y="-17" font-family="Helvetica,sans-Serif" font-size="10.00">dunedaq::appdal::RawData</text>
<text text-anchor="middle" x="77.38" y="-5.75" font-family="Helvetica,sans-Serif" font-size="10.00">Processor</text>
</a>
</g>
</g>
<!-- Node2 -->
<g id="Node000002" class="node">
<title>Node2</title>
<g id="a_Node000002"><a xlink:href="classdunedaq_1_1appdal_1_1DataProcessor.html" target="_top" xlink:title=" ">
<polygon fill="white" stroke="#666666" points="154.75,-85.75 0,-85.75 0,-66.5 154.75,-66.5 154.75,-85.75"/>
<text text-anchor="middle" x="77.38" y="-72.25" font-family="Helvetica,sans-Serif" font-size="10.00">dunedaq::appdal::DataProcessor</text>
</a>
</g>
</g>
<!-- Node2&#45;&gt;Node1 -->
<g id="edge1_Node000001_Node000002" class="edge">
<title>Node2&#45;&gt;Node1</title>
<g id="a_edge1_Node000001_Node000002"><a xlink:title=" ">
<path fill="none" stroke="#63b8ff" d="M70.93,-54.92C70.39,-46.99 70.57,-38.06 71.46,-30.78"/>
<polygon fill="#63b8ff" stroke="#63b8ff" points="67.44,-55.2 72.17,-64.68 74.38,-54.32 67.44,-55.2"/>
</a>
</g>
</g>
<!-- Node2&#45;&gt;Node1 -->
<g id="edge4_Node000001_Node000002" class="edge">
<title>Node2&#45;&gt;Node1</title>
<g id="a_edge4_Node000001_Node000002"><a xlink:title=" ">
<path fill="none" stroke="#63b8ff" d="M83.82,-54.92C84.36,-46.99 84.18,-38.06 83.29,-30.78"/>
<polygon fill="#63b8ff" stroke="#63b8ff" points="80.37,-54.32 82.58,-64.68 87.31,-55.2 80.37,-54.32"/>
</a>
</g>
</g>
<!-- Node3 -->
<g id="Node000003" class="node">
<title>Node3</title>
<g id="a_Node000003"><a xlink:href="classdunedaq_1_1conffwk_1_1DalObject.html" target="_top" xlink:title="The base class for any generated DAL object.">
<polygon fill="white" stroke="#666666" points="146.5,-141 8.25,-141 8.25,-121.75 146.5,-121.75 146.5,-141"/>
<text text-anchor="middle" x="77.38" y="-127.5" font-family="Helvetica,sans-Serif" font-size="10.00">dunedaq::conffwk::DalObject</text>
</a>
</g>
</g>
<!-- Node3&#45;&gt;Node2 -->
<g id="edge2_Node000002_Node000003" class="edge">
<title>Node3&#45;&gt;Node2</title>
<g id="a_edge2_Node000002_Node000003"><a xlink:title=" ">
<path fill="none" stroke="#63b8ff" d="M70.82,-110.42C70.33,-102.05 70.78,-92.75 72.17,-86.11"/>
<polygon fill="#63b8ff" stroke="#63b8ff" points="67.31,-110.59 72.02,-120.08 74.26,-109.72 67.31,-110.59"/>
</a>
</g>
</g>
<!-- Node3&#45;&gt;Node2 -->
<g id="edge3_Node000002_Node000003" class="edge">
<title>Node3&#45;&gt;Node2</title>
<g id="a_edge3_Node000002_Node000003"><a xlink:title=" ">
<path fill="none" stroke="#63b8ff" d="M83.93,-110.42C84.42,-102.05 83.97,-92.75 82.58,-86.11"/>
<polygon fill="#63b8ff" stroke="#63b8ff" points="80.49,-109.72 82.73,-120.08 87.44,-110.59 80.49,-109.72"/>
</a>
</g>
</g>
</g>
</svg>
