<?xml version="1.0" encoding="UTF-8" standalone="no"?>
<!DOCTYPE svg PUBLIC "-//W3C//DTD SVG 1.1//EN"
 "http://www.w3.org/Graphics/SVG/1.1/DTD/svg11.dtd">
<!-- Generated by graphviz version 9.0.0 (20230911.1827)
 -->
<!-- Title: dunedaq::iomanager::ReceiverConcept&lt; Datatype &gt; Pages: 1 -->
<svg width="244pt" height="251pt"
 viewBox="0.00 0.00 243.62 251.25" xmlns="http://www.w3.org/2000/svg" xmlns:xlink="http://www.w3.org/1999/xlink">
<g id="graph0" class="graph" transform="scale(1 1) rotate(0) translate(4 247.25)">
<title>dunedaq::iomanager::ReceiverConcept&lt; Datatype &gt;</title>
<!-- Node1 -->
<g id="Node000001" class="node">
<title>Node1</title>
<g id="a_Node000001"><a xlink:title=" ">
<polygon fill="#999999" stroke="#666666" points="181.75,-30.5 32.25,-30.5 32.25,0 181.75,0 181.75,-30.5"/>
<text text-anchor="start" x="40.25" y="-17" font-family="Helvetica,sans-Serif" font-size="10.00">dunedaq::iomanager</text>
<text text-anchor="middle" x="107" y="-5.75" font-family="Helvetica,sans-Serif" font-size="10.00">::ReceiverConcept&lt; Datatype &gt;</text>
</a>
</g>
</g>
<!-- Node2 -->
<g id="Node000002" class="node">
<title>Node2</title>
<g id="a_Node000002"><a xlink:href="classdunedaq_1_1iomanager_1_1Receiver.html" target="_top" xlink:title=" ">
<polygon fill="white" stroke="#666666" points="158.12,-98 55.88,-98 55.88,-67.5 158.12,-67.5 158.12,-98"/>
<text text-anchor="start" x="63.88" y="-84.5" font-family="Helvetica,sans-Serif" font-size="10.00">dunedaq::iomanager</text>
<text text-anchor="middle" x="107" y="-73.25" font-family="Helvetica,sans-Serif" font-size="10.00">::Receiver</text>
</a>
</g>
</g>
<!-- Node2&#45;&gt;Node1 -->
<g id="edge1_Node000001_Node000002" class="edge">
<title>Node2&#45;&gt;Node1</title>
<g id="a_edge1_Node000001_Node000002"><a xlink:title=" ">
<path fill="none" stroke="#63b8ff" d="M107,-55.84C107,-47.3 107,-38.12 107,-30.75"/>
<polygon fill="#63b8ff" stroke="#63b8ff" points="103.5,-55.7 107,-65.7 110.5,-55.7 103.5,-55.7"/>
</a>
</g>
</g>
<!-- Node3 -->
<g id="Node000003" class="node">
<title>Node3</title>
<g id="a_Node000003"><a xlink:href="classdunedaq_1_1utilities_1_1NamedObject.html" target="_top" xlink:title="Implements the Named interface.">
<polygon fill="white" stroke="#666666" points="88,-175.75 0,-175.75 0,-145.25 88,-145.25 88,-175.75"/>
<text text-anchor="start" x="8" y="-162.25" font-family="Helvetica,sans-Serif" font-size="10.00">dunedaq::utilities</text>
<text text-anchor="middle" x="44" y="-151" font-family="Helvetica,sans-Serif" font-size="10.00">::NamedObject</text>
</a>
</g>
</g>
<!-- Node3&#45;&gt;Node2 -->
<g id="edge2_Node000002_Node000003" class="edge">
<title>Node3&#45;&gt;Node2</title>
<g id="a_edge2_Node000002_Node000003"><a xlink:title=" ">
<path fill="none" stroke="#63b8ff" d="M63.21,-136.4C73.52,-124 85.92,-109.09 94.89,-98.31"/>
<polygon fill="#63b8ff" stroke="#63b8ff" points="60.82,-133.8 57.11,-143.73 66.2,-138.28 60.82,-133.8"/>
</a>
</g>
</g>
<!-- Node4 -->
<g id="Node000004" class="node">
<title>Node4</title>
<g id="a_Node000004"><a xlink:href="classdunedaq_1_1utilities_1_1Named.html" target="_top" xlink:title="A Named is a DAQ object (Queue or DAQModule) which has an instance name.">
<polygon fill="white" stroke="#666666" points="88,-243.25 0,-243.25 0,-212.75 88,-212.75 88,-243.25"/>
<text text-anchor="start" x="8" y="-229.75" font-family="Helvetica,sans-Serif" font-size="10.00">dunedaq::utilities</text>
<text text-anchor="middle" x="44" y="-218.5" font-family="Helvetica,sans-Serif" font-size="10.00">::Named</text>
</a>
</g>
</g>
<!-- Node4&#45;&gt;Node3 -->
<g id="edge3_Node000003_Node000004" class="edge">
<title>Node4&#45;&gt;Node3</title>
<g id="a_edge3_Node000003_Node000004"><a xlink:title=" ">
<path fill="none" stroke="#63b8ff" d="M44,-201.09C44,-192.55 44,-183.37 44,-176"/>
<polygon fill="#63b8ff" stroke="#63b8ff" points="40.5,-200.95 44,-210.95 47.5,-200.95 40.5,-200.95"/>
</a>
</g>
</g>
<!-- Node5 -->
<g id="Node000005" class="node">
<title>Node5</title>
<g id="a_Node000005"><a xlink:href="structdunedaq_1_1iomanager_1_1connection_1_1ConnectionId.html" target="_top" xlink:title=" ">
<polygon fill="white" stroke="#666666" points="235.62,-175.75 106.38,-175.75 106.38,-145.25 235.62,-145.25 235.62,-175.75"/>
<text text-anchor="start" x="114.38" y="-162.25" font-family="Helvetica,sans-Serif" font-size="10.00">dunedaq::iomanager</text>
<text text-anchor="middle" x="171" y="-151" font-family="Helvetica,sans-Serif" font-size="10.00">::connection::ConnectionId</text>
</a>
</g>
</g>
<!-- Node5&#45;&gt;Node2 -->
<g id="edge4_Node000002_Node000005" class="edge">
<title>Node5&#45;&gt;Node2</title>
<g id="a_edge4_Node000002_Node000005"><a xlink:title=" ">
<path fill="none" stroke="#9a32cd" stroke-dasharray="5,2" d="M151.49,-136.4C141.01,-124 128.41,-109.09 119.3,-98.31"/>
<polygon fill="#9a32cd" stroke="#9a32cd" points="148.56,-138.36 157.68,-143.74 153.9,-133.84 148.56,-138.36"/>
</a>
</g>
<text text-anchor="middle" x="160.38" y="-117.75" font-family="Helvetica,sans-Serif" font-size="10.00" fill="grey"> m_conn</text>
</g>
</g>
</svg>
