<?xml version="1.0" encoding="UTF-8" standalone="no"?>
<!DOCTYPE svg PUBLIC "-//W3C//DTD SVG 1.1//EN"
 "http://www.w3.org/Graphics/SVG/1.1/DTD/svg11.dtd">
<!-- Generated by graphviz version 9.0.0 (20230911.1827)
 -->
<!-- Title: dunedaq::iomanager::QueueReceiverModel&lt; Datatype &gt; Pages: 1 -->
<svg width="244pt" height="330pt"
 viewBox="0.00 0.00 243.62 330.00" xmlns="http://www.w3.org/2000/svg" xmlns:xlink="http://www.w3.org/1999/xlink">
<g id="graph0" class="graph" transform="scale(1 1) rotate(0) translate(4 326)">
<title>dunedaq::iomanager::QueueReceiverModel&lt; Datatype &gt;</title>
<!-- Node1 -->
<g id="Node000001" class="node">
<title>Node1</title>
<g id="a_Node000001"><a xlink:title=" ">
<polygon fill="#999999" stroke="#666666" points="163.75,-41.75 50.25,-41.75 50.25,0 163.75,0 163.75,-41.75"/>
<text text-anchor="start" x="58.25" y="-28.25" font-family="Helvetica,sans-Serif" font-size="10.00">dunedaq::iomanager</text>
<text text-anchor="start" x="58.25" y="-17" font-family="Helvetica,sans-Serif" font-size="10.00">::QueueReceiverModel</text>
<text text-anchor="middle" x="107" y="-5.75" font-family="Helvetica,sans-Serif" font-size="10.00">&lt; Datatype &gt;</text>
</a>
</g>
</g>
<!-- Node2 -->
<g id="Node000002" class="node">
<title>Node2</title>
<g id="a_Node000002"><a xlink:href="classdunedaq_1_1iomanager_1_1ReceiverConcept.html" target="_top" xlink:title=" ">
<polygon fill="white" stroke="#666666" points="181.75,-109.25 32.25,-109.25 32.25,-78.75 181.75,-78.75 181.75,-109.25"/>
<text text-anchor="start" x="40.25" y="-95.75" font-family="Helvetica,sans-Serif" font-size="10.00">dunedaq::iomanager</text>
<text text-anchor="middle" x="107" y="-84.5" font-family="Helvetica,sans-Serif" font-size="10.00">::ReceiverConcept&lt; Datatype &gt;</text>
</a>
</g>
</g>
<!-- Node2&#45;&gt;Node1 -->
<g id="edge1_Node000001_Node000002" class="edge">
<title>Node2&#45;&gt;Node1</title>
<g id="a_edge1_Node000001_Node000002"><a xlink:title=" ">
<path fill="none" stroke="#63b8ff" d="M107,-66.95C107,-58.71 107,-49.74 107,-41.99"/>
<polygon fill="#63b8ff" stroke="#63b8ff" points="103.5,-66.75 107,-76.75 110.5,-66.75 103.5,-66.75"/>
</a>
</g>
</g>
<!-- Node3 -->
<g id="Node000003" class="node">
<title>Node3</title>
<g id="a_Node000003"><a xlink:href="classdunedaq_1_1iomanager_1_1Receiver.html" target="_top" xlink:title=" ">
<polygon fill="white" stroke="#666666" points="158.12,-176.75 55.88,-176.75 55.88,-146.25 158.12,-146.25 158.12,-176.75"/>
<text text-anchor="start" x="63.88" y="-163.25" font-family="Helvetica,sans-Serif" font-size="10.00">dunedaq::iomanager</text>
<text text-anchor="middle" x="107" y="-152" font-family="Helvetica,sans-Serif" font-size="10.00">::Receiver</text>
</a>
</g>
</g>
<!-- Node3&#45;&gt;Node2 -->
<g id="edge2_Node000002_Node000003" class="edge">
<title>Node3&#45;&gt;Node2</title>
<g id="a_edge2_Node000002_Node000003"><a xlink:title=" ">
<path fill="none" stroke="#63b8ff" d="M107,-134.59C107,-126.05 107,-116.87 107,-109.5"/>
<polygon fill="#63b8ff" stroke="#63b8ff" points="103.5,-134.45 107,-144.45 110.5,-134.45 103.5,-134.45"/>
</a>
</g>
</g>
<!-- Node4 -->
<g id="Node000004" class="node">
<title>Node4</title>
<g id="a_Node000004"><a xlink:href="classdunedaq_1_1utilities_1_1NamedObject.html" target="_top" xlink:title="Implements the Named interface.">
<polygon fill="white" stroke="#666666" points="88,-254.5 0,-254.5 0,-224 88,-224 88,-254.5"/>
<text text-anchor="start" x="8" y="-241" font-family="Helvetica,sans-Serif" font-size="10.00">dunedaq::utilities</text>
<text text-anchor="middle" x="44" y="-229.75" font-family="Helvetica,sans-Serif" font-size="10.00">::NamedObject</text>
</a>
</g>
</g>
<!-- Node4&#45;&gt;Node3 -->
<g id="edge3_Node000003_Node000004" class="edge">
<title>Node4&#45;&gt;Node3</title>
<g id="a_edge3_Node000003_Node000004"><a xlink:title=" ">
<path fill="none" stroke="#63b8ff" d="M63.21,-215.15C73.52,-202.75 85.92,-187.84 94.89,-177.06"/>
<polygon fill="#63b8ff" stroke="#63b8ff" points="60.82,-212.55 57.11,-222.48 66.2,-217.03 60.82,-212.55"/>
</a>
</g>
</g>
<!-- Node5 -->
<g id="Node000005" class="node">
<title>Node5</title>
<g id="a_Node000005"><a xlink:href="classdunedaq_1_1utilities_1_1Named.html" target="_top" xlink:title="A Named is a DAQ object (Queue or DAQModule) which has an instance name.">
<polygon fill="white" stroke="#666666" points="88,-322 0,-322 0,-291.5 88,-291.5 88,-322"/>
<text text-anchor="start" x="8" y="-308.5" font-family="Helvetica,sans-Serif" font-size="10.00">dunedaq::utilities</text>
<text text-anchor="middle" x="44" y="-297.25" font-family="Helvetica,sans-Serif" font-size="10.00">::Named</text>
</a>
</g>
</g>
<!-- Node5&#45;&gt;Node4 -->
<g id="edge4_Node000004_Node000005" class="edge">
<title>Node5&#45;&gt;Node4</title>
<g id="a_edge4_Node000004_Node000005"><a xlink:title=" ">
<path fill="none" stroke="#63b8ff" d="M44,-279.84C44,-271.3 44,-262.12 44,-254.75"/>
<polygon fill="#63b8ff" stroke="#63b8ff" points="40.5,-279.7 44,-289.7 47.5,-279.7 40.5,-279.7"/>
</a>
</g>
</g>
<!-- Node6 -->
<g id="Node000006" class="node">
<title>Node6</title>
<g id="a_Node000006"><a xlink:href="structdunedaq_1_1iomanager_1_1connection_1_1ConnectionId.html" target="_top" xlink:title=" ">
<polygon fill="white" stroke="#666666" points="235.62,-254.5 106.38,-254.5 106.38,-224 235.62,-224 235.62,-254.5"/>
<text text-anchor="start" x="114.38" y="-241" font-family="Helvetica,sans-Serif" font-size="10.00">dunedaq::iomanager</text>
<text text-anchor="middle" x="171" y="-229.75" font-family="Helvetica,sans-Serif" font-size="10.00">::connection::ConnectionId</text>
</a>
</g>
</g>
<!-- Node6&#45;&gt;Node3 -->
<g id="edge5_Node000003_Node000006" class="edge">
<title>Node6&#45;&gt;Node3</title>
<g id="a_edge5_Node000003_Node000006"><a xlink:title=" ">
<path fill="none" stroke="#9a32cd" stroke-dasharray="5,2" d="M151.49,-215.15C141.01,-202.75 128.41,-187.84 119.3,-177.06"/>
<polygon fill="#9a32cd" stroke="#9a32cd" points="148.56,-217.11 157.68,-222.49 153.9,-212.59 148.56,-217.11"/>
</a>
</g>
<text text-anchor="middle" x="160.38" y="-196.5" font-family="Helvetica,sans-Serif" font-size="10.00" fill="grey"> m_conn</text>
</g>
</g>
</svg>
