<?xml version="1.0" encoding="UTF-8" standalone="no"?>
<!DOCTYPE svg PUBLIC "-//W3C//DTD SVG 1.1//EN"
 "http://www.w3.org/Graphics/SVG/1.1/DTD/svg11.dtd">
<!-- Generated by graphviz version 9.0.0 (20230911.1827)
 -->
<!-- Title: dunedaq::coredal::VariableSet Pages: 1 -->
<svg width="159pt" height="138pt"
 viewBox="0.00 0.00 159.00 137.75" xmlns="http://www.w3.org/2000/svg" xmlns:xlink="http://www.w3.org/1999/xlink">
<g id="graph0" class="graph" transform="scale(1 1) rotate(0) translate(4 133.75)">
<title>dunedaq::coredal::VariableSet</title>
<!-- Node1 -->
<g id="Node000001" class="node">
<title>Node1</title>
<g id="a_Node000001"><a xlink:title=" ">
<polygon fill="#999999" stroke="#666666" points="147.25,-19.25 3.75,-19.25 3.75,0 147.25,0 147.25,-19.25"/>
<text text-anchor="middle" x="75.5" y="-5.75" font-family="Helvetica,sans-Serif" font-size="10.00">dunedaq::coredal::VariableSet</text>
</a>
</g>
</g>
<!-- Node2 -->
<g id="Node000002" class="node">
<title>Node2</title>
<g id="a_Node000002"><a xlink:href="classdunedaq_1_1coredal_1_1VariableBase.html" target="_top" xlink:title=" ">
<polygon fill="white" stroke="#666666" points="151,-74.5 0,-74.5 0,-55.25 151,-55.25 151,-74.5"/>
<text text-anchor="middle" x="75.5" y="-61" font-family="Helvetica,sans-Serif" font-size="10.00">dunedaq::coredal::VariableBase</text>
</a>
</g>
</g>
<!-- Node2&#45;&gt;Node1 -->
<g id="edge1_Node000001_Node000002" class="edge">
<title>Node2&#45;&gt;Node1</title>
<g id="a_edge1_Node000001_Node000002"><a xlink:title=" ">
<path fill="none" stroke="#63b8ff" d="M68.94,-43.92C68.45,-35.55 68.9,-26.25 70.29,-19.61"/>
<polygon fill="#63b8ff" stroke="#63b8ff" points="65.44,-44.09 70.15,-53.58 72.38,-43.22 65.44,-44.09"/>
</a>
</g>
</g>
<!-- Node2&#45;&gt;Node1 -->
<g id="edge4_Node000001_Node000002" class="edge">
<title>Node2&#45;&gt;Node1</title>
<g id="a_edge4_Node000001_Node000002"><a xlink:title=" ">
<path fill="none" stroke="#63b8ff" d="M82.06,-43.92C82.55,-35.55 82.1,-26.25 80.71,-19.61"/>
<polygon fill="#63b8ff" stroke="#63b8ff" points="78.62,-43.22 80.85,-53.58 85.56,-44.09 78.62,-43.22"/>
</a>
</g>
</g>
<!-- Node3 -->
<g id="Node000003" class="node">
<title>Node3</title>
<g id="a_Node000003"><a xlink:href="classdunedaq_1_1conffwk_1_1DalObject.html" target="_top" xlink:title="The base class for any generated DAL object.">
<polygon fill="white" stroke="#666666" points="144.62,-129.75 6.38,-129.75 6.38,-110.5 144.62,-110.5 144.62,-129.75"/>
<text text-anchor="middle" x="75.5" y="-116.25" font-family="Helvetica,sans-Serif" font-size="10.00">dunedaq::conffwk::DalObject</text>
</a>
</g>
</g>
<!-- Node3&#45;&gt;Node2 -->
<g id="edge2_Node000002_Node000003" class="edge">
<title>Node3&#45;&gt;Node2</title>
<g id="a_edge2_Node000002_Node000003"><a xlink:title=" ">
<path fill="none" stroke="#63b8ff" d="M68.94,-99.17C68.45,-90.8 68.9,-81.5 70.29,-74.86"/>
<polygon fill="#63b8ff" stroke="#63b8ff" points="65.44,-99.34 70.15,-108.83 72.38,-98.47 65.44,-99.34"/>
</a>
</g>
</g>
<!-- Node3&#45;&gt;Node2 -->
<g id="edge3_Node000002_Node000003" class="edge">
<title>Node3&#45;&gt;Node2</title>
<g id="a_edge3_Node000002_Node000003"><a xlink:title=" ">
<path fill="none" stroke="#63b8ff" d="M82.06,-99.17C82.55,-90.8 82.1,-81.5 80.71,-74.86"/>
<polygon fill="#63b8ff" stroke="#63b8ff" points="78.62,-98.47 80.85,-108.83 85.56,-99.34 78.62,-98.47"/>
</a>
</g>
</g>
</g>
</svg>
