<?xml version="1.0" encoding="UTF-8" standalone="no"?>
<!DOCTYPE svg PUBLIC "-//W3C//DTD SVG 1.1//EN"
 "http://www.w3.org/Graphics/SVG/1.1/DTD/svg11.dtd">
<!-- Generated by graphviz version 9.0.0 (20230911.1827)
 -->
<!-- Title: dunedaq::appdal::NICReceiver Pages: 1 -->
<svg width="154pt" height="193pt"
 viewBox="0.00 0.00 153.75 193.00" xmlns="http://www.w3.org/2000/svg" xmlns:xlink="http://www.w3.org/1999/xlink">
<g id="graph0" class="graph" transform="scale(1 1) rotate(0) translate(4 189)">
<title>dunedaq::appdal::NICReceiver</title>
<!-- Node1 -->
<g id="Node000001" class="node">
<title>Node1</title>
<g id="a_Node000001"><a xlink:title=" ">
<polygon fill="#999999" stroke="#666666" points="145.75,-19.25 0,-19.25 0,0 145.75,0 145.75,-19.25"/>
<text text-anchor="middle" x="72.88" y="-5.75" font-family="Helvetica,sans-Serif" font-size="10.00">dunedaq::appdal::NICReceiver</text>
</a>
</g>
</g>
<!-- Node2 -->
<g id="Node000002" class="node">
<title>Node2</title>
<g id="a_Node000002"><a xlink:href="classdunedaq_1_1appdal_1_1DataReader.html" target="_top" xlink:title=" ">
<polygon fill="white" stroke="#666666" points="143.5,-74.5 2.25,-74.5 2.25,-55.25 143.5,-55.25 143.5,-74.5"/>
<text text-anchor="middle" x="72.88" y="-61" font-family="Helvetica,sans-Serif" font-size="10.00">dunedaq::appdal::DataReader</text>
</a>
</g>
</g>
<!-- Node2&#45;&gt;Node1 -->
<g id="edge1_Node000001_Node000002" class="edge">
<title>Node2&#45;&gt;Node1</title>
<g id="a_edge1_Node000001_Node000002"><a xlink:title=" ">
<path fill="none" stroke="#63b8ff" d="M66.32,-43.92C65.83,-35.55 66.28,-26.25 67.67,-19.61"/>
<polygon fill="#63b8ff" stroke="#63b8ff" points="62.81,-44.09 67.52,-53.58 69.76,-43.22 62.81,-44.09"/>
</a>
</g>
</g>
<!-- Node2&#45;&gt;Node1 -->
<g id="edge6_Node000001_Node000002" class="edge">
<title>Node2&#45;&gt;Node1</title>
<g id="a_edge6_Node000001_Node000002"><a xlink:title=" ">
<path fill="none" stroke="#63b8ff" d="M79.43,-43.92C79.92,-35.55 79.47,-26.25 78.08,-19.61"/>
<polygon fill="#63b8ff" stroke="#63b8ff" points="75.99,-43.22 78.23,-53.58 82.94,-44.09 75.99,-43.22"/>
</a>
</g>
</g>
<!-- Node3 -->
<g id="Node000003" class="node">
<title>Node3</title>
<g id="a_Node000003"><a xlink:href="classdunedaq_1_1coredal_1_1DaqModule.html" target="_top" xlink:title=" ">
<polygon fill="white" stroke="#666666" points="143.88,-129.75 1.88,-129.75 1.88,-110.5 143.88,-110.5 143.88,-129.75"/>
<text text-anchor="middle" x="72.88" y="-116.25" font-family="Helvetica,sans-Serif" font-size="10.00">dunedaq::coredal::DaqModule</text>
</a>
</g>
</g>
<!-- Node3&#45;&gt;Node2 -->
<g id="edge2_Node000002_Node000003" class="edge">
<title>Node3&#45;&gt;Node2</title>
<g id="a_edge2_Node000002_Node000003"><a xlink:title=" ">
<path fill="none" stroke="#63b8ff" d="M66.32,-99.17C65.83,-90.8 66.28,-81.5 67.67,-74.86"/>
<polygon fill="#63b8ff" stroke="#63b8ff" points="62.81,-99.34 67.52,-108.83 69.76,-98.47 62.81,-99.34"/>
</a>
</g>
</g>
<!-- Node3&#45;&gt;Node2 -->
<g id="edge5_Node000002_Node000003" class="edge">
<title>Node3&#45;&gt;Node2</title>
<g id="a_edge5_Node000002_Node000003"><a xlink:title=" ">
<path fill="none" stroke="#63b8ff" d="M79.43,-99.17C79.92,-90.8 79.47,-81.5 78.08,-74.86"/>
<polygon fill="#63b8ff" stroke="#63b8ff" points="75.99,-98.47 78.23,-108.83 82.94,-99.34 75.99,-98.47"/>
</a>
</g>
</g>
<!-- Node4 -->
<g id="Node000004" class="node">
<title>Node4</title>
<g id="a_Node000004"><a xlink:href="classdunedaq_1_1conffwk_1_1DalObject.html" target="_top" xlink:title="The base class for any generated DAL object.">
<polygon fill="white" stroke="#666666" points="142,-185 3.75,-185 3.75,-165.75 142,-165.75 142,-185"/>
<text text-anchor="middle" x="72.88" y="-171.5" font-family="Helvetica,sans-Serif" font-size="10.00">dunedaq::conffwk::DalObject</text>
</a>
</g>
</g>
<!-- Node4&#45;&gt;Node3 -->
<g id="edge3_Node000003_Node000004" class="edge">
<title>Node4&#45;&gt;Node3</title>
<g id="a_edge3_Node000003_Node000004"><a xlink:title=" ">
<path fill="none" stroke="#63b8ff" d="M66.32,-154.42C65.83,-146.05 66.28,-136.75 67.67,-130.11"/>
<polygon fill="#63b8ff" stroke="#63b8ff" points="62.81,-154.59 67.52,-164.08 69.76,-153.72 62.81,-154.59"/>
</a>
</g>
</g>
<!-- Node4&#45;&gt;Node3 -->
<g id="edge4_Node000003_Node000004" class="edge">
<title>Node4&#45;&gt;Node3</title>
<g id="a_edge4_Node000003_Node000004"><a xlink:title=" ">
<path fill="none" stroke="#63b8ff" d="M79.43,-154.42C79.92,-146.05 79.47,-136.75 78.08,-130.11"/>
<polygon fill="#63b8ff" stroke="#63b8ff" points="75.99,-153.72 78.23,-164.08 82.94,-154.59 75.99,-153.72"/>
</a>
</g>
</g>
</g>
</svg>
