<?xml version="1.0" encoding="UTF-8" standalone="no"?>
<!DOCTYPE svg PUBLIC "-//W3C//DTD SVG 1.1//EN"
 "http://www.w3.org/Graphics/SVG/1.1/DTD/svg11.dtd">
<!-- Generated by graphviz version 9.0.0 (20230911.1827)
 -->
<!-- Title: dunedaq::appdal::ModuleLevelTrigger Pages: 1 -->
<svg width="154pt" height="149pt"
 viewBox="0.00 0.00 153.75 149.00" xmlns="http://www.w3.org/2000/svg" xmlns:xlink="http://www.w3.org/1999/xlink">
<g id="graph0" class="graph" transform="scale(1 1) rotate(0) translate(4 145)">
<title>dunedaq::appdal::ModuleLevelTrigger</title>
<!-- Node1 -->
<g id="Node000001" class="node">
<title>Node1</title>
<g id="a_Node000001"><a xlink:title=" ">
<polygon fill="#999999" stroke="#666666" points="145.75,-30.5 0,-30.5 0,0 145.75,0 145.75,-30.5"/>
<text text-anchor="start" x="8" y="-17" font-family="Helvetica,sans-Serif" font-size="10.00">dunedaq::appdal::ModuleLevel</text>
<text text-anchor="middle" x="72.88" y="-5.75" font-family="Helvetica,sans-Serif" font-size="10.00">Trigger</text>
</a>
</g>
</g>
<!-- Node2 -->
<g id="Node000002" class="node">
<title>Node2</title>
<g id="a_Node000002"><a xlink:href="classdunedaq_1_1coredal_1_1DaqModule.html" target="_top" xlink:title=" ">
<polygon fill="white" stroke="#666666" points="143.88,-85.75 1.88,-85.75 1.88,-66.5 143.88,-66.5 143.88,-85.75"/>
<text text-anchor="middle" x="72.88" y="-72.25" font-family="Helvetica,sans-Serif" font-size="10.00">dunedaq::coredal::DaqModule</text>
</a>
</g>
</g>
<!-- Node2&#45;&gt;Node1 -->
<g id="edge1_Node000001_Node000002" class="edge">
<title>Node2&#45;&gt;Node1</title>
<g id="a_edge1_Node000001_Node000002"><a xlink:title=" ">
<path fill="none" stroke="#63b8ff" d="M66.43,-54.92C65.89,-46.99 66.07,-38.06 66.96,-30.78"/>
<polygon fill="#63b8ff" stroke="#63b8ff" points="62.94,-55.2 67.67,-64.68 69.88,-54.32 62.94,-55.2"/>
</a>
</g>
</g>
<!-- Node2&#45;&gt;Node1 -->
<g id="edge4_Node000001_Node000002" class="edge">
<title>Node2&#45;&gt;Node1</title>
<g id="a_edge4_Node000001_Node000002"><a xlink:title=" ">
<path fill="none" stroke="#63b8ff" d="M79.32,-54.92C79.86,-46.99 79.68,-38.06 78.79,-30.78"/>
<polygon fill="#63b8ff" stroke="#63b8ff" points="75.87,-54.32 78.08,-64.68 82.81,-55.2 75.87,-54.32"/>
</a>
</g>
</g>
<!-- Node3 -->
<g id="Node000003" class="node">
<title>Node3</title>
<g id="a_Node000003"><a xlink:href="classdunedaq_1_1conffwk_1_1DalObject.html" target="_top" xlink:title="The base class for any generated DAL object.">
<polygon fill="white" stroke="#666666" points="142,-141 3.75,-141 3.75,-121.75 142,-121.75 142,-141"/>
<text text-anchor="middle" x="72.88" y="-127.5" font-family="Helvetica,sans-Serif" font-size="10.00">dunedaq::conffwk::DalObject</text>
</a>
</g>
</g>
<!-- Node3&#45;&gt;Node2 -->
<g id="edge2_Node000002_Node000003" class="edge">
<title>Node3&#45;&gt;Node2</title>
<g id="a_edge2_Node000002_Node000003"><a xlink:title=" ">
<path fill="none" stroke="#63b8ff" d="M66.32,-110.42C65.83,-102.05 66.28,-92.75 67.67,-86.11"/>
<polygon fill="#63b8ff" stroke="#63b8ff" points="62.81,-110.59 67.52,-120.08 69.76,-109.72 62.81,-110.59"/>
</a>
</g>
</g>
<!-- Node3&#45;&gt;Node2 -->
<g id="edge3_Node000002_Node000003" class="edge">
<title>Node3&#45;&gt;Node2</title>
<g id="a_edge3_Node000002_Node000003"><a xlink:title=" ">
<path fill="none" stroke="#63b8ff" d="M79.43,-110.42C79.92,-102.05 79.47,-92.75 78.08,-86.11"/>
<polygon fill="#63b8ff" stroke="#63b8ff" points="75.99,-109.72 78.23,-120.08 82.94,-110.59 75.99,-109.72"/>
</a>
</g>
</g>
</g>
</svg>
