<?xml version="1.0" encoding="UTF-8" standalone="no"?>
<!DOCTYPE svg PUBLIC "-//W3C//DTD SVG 1.1//EN"
 "http://www.w3.org/Graphics/SVG/1.1/DTD/svg11.dtd">
<!-- Generated by graphviz version 9.0.0 (20230911.1827)
 -->
<!-- Title: dbse::SchemaGraphicsScene Pages: 1 -->
<svg width="861pt" height="595pt"
 viewBox="0.00 0.00 861.38 595.00" xmlns="http://www.w3.org/2000/svg" xmlns:xlink="http://www.w3.org/1999/xlink">
<g id="graph0" class="graph" transform="scale(1 1) rotate(0) translate(4 591)">
<title>dbse::SchemaGraphicsScene</title>
<!-- Node1 -->
<g id="Node000001" class="node">
<title>Node1</title>
<g id="a_Node000001"><a xlink:title=" ">
<polygon fill="#999999" stroke="#666666" points="272.5,-208.5 128.25,-208.5 128.25,-189.25 272.5,-189.25 272.5,-208.5"/>
<text text-anchor="middle" x="200.38" y="-195" font-family="Helvetica,sans-Serif" font-size="10.00">dbse::SchemaGraphicsScene</text>
</a>
</g>
</g>
<!-- Node2 -->
<g id="Node000002" class="node">
<title>Node2</title>
<g id="a_Node000002"><a xlink:title=" ">
<polygon fill="white" stroke="#666666" points="245.5,-275 155.25,-275 155.25,-255.75 245.5,-255.75 245.5,-275"/>
<text text-anchor="middle" x="200.38" y="-261.5" font-family="Helvetica,sans-Serif" font-size="10.00">QGraphicsScene</text>
</a>
</g>
</g>
<!-- Node2&#45;&gt;Node1 -->
<g id="edge1_Node000001_Node000002" class="edge">
<title>Node2&#45;&gt;Node1</title>
<g id="a_edge1_Node000001_Node000002"><a xlink:title=" ">
<path fill="none" stroke="#63b8ff" d="M200.38,-243.9C200.38,-232.07 200.38,-217.79 200.38,-208.77"/>
<polygon fill="#63b8ff" stroke="#63b8ff" points="196.88,-243.89 200.38,-253.89 203.88,-243.89 196.88,-243.89"/>
</a>
</g>
</g>
<!-- Node3 -->
<g id="Node000003" class="node">
<title>Node3</title>
<g id="a_Node000003"><a xlink:href="classdbse_1_1SchemaGraphicObject.html" target="_top" xlink:title=" ">
<polygon fill="white" stroke="#666666" points="344.25,-358.38 204.5,-358.38 204.5,-339.12 344.25,-339.12 344.25,-358.38"/>
<text text-anchor="middle" x="274.38" y="-344.88" font-family="Helvetica,sans-Serif" font-size="10.00">dbse::SchemaGraphicObject</text>
</a>
</g>
</g>
<!-- Node3&#45;&gt;Node1 -->
<g id="edge2_Node000001_Node000003" class="edge">
<title>Node3&#45;&gt;Node1</title>
<g id="a_edge2_Node000001_Node000003"><a xlink:title=" ">
<path fill="none" stroke="#9a32cd" stroke-dasharray="5,2" d="M273.17,-327.48C271.29,-308.07 266.52,-278.46 254.38,-255.75 243.94,-236.24 224.71,-218.8 212.24,-208.78"/>
<polygon fill="#9a32cd" stroke="#9a32cd" points="269.67,-327.62 273.92,-337.32 276.65,-327.08 269.67,-327.62"/>
</a>
</g>
<text text-anchor="middle" x="293.5" y="-261.5" font-family="Helvetica,sans-Serif" font-size="10.00" fill="grey"> CurrentObject</text>
</g>
<!-- Node18 -->
<g id="Node000018" class="node">
<title>Node18</title>
<g id="a_Node000018"><a xlink:href="classdbse_1_1SchemaGraphicArrow.html" target="_top" xlink:title=" ">
<polygon fill="white" stroke="#666666" points="136.75,-275 0,-275 0,-255.75 136.75,-255.75 136.75,-275"/>
<text text-anchor="middle" x="68.38" y="-261.5" font-family="Helvetica,sans-Serif" font-size="10.00">dbse::SchemaGraphicArrow</text>
</a>
</g>
</g>
<!-- Node3&#45;&gt;Node18 -->
<g id="edge26_Node000018_Node000003" class="edge">
<title>Node3&#45;&gt;Node18</title>
<g id="a_edge26_Node000018_Node000003"><a xlink:title=" ">
<path fill="none" stroke="#9a32cd" stroke-dasharray="5,2" d="M241.01,-334.57C198.94,-317.95 127.72,-289.82 91.31,-275.43"/>
<polygon fill="#9a32cd" stroke="#9a32cd" points="239.55,-337.76 250.13,-338.17 242.12,-331.25 239.55,-337.76"/>
</a>
</g>
<text text-anchor="middle" x="200.88" y="-306" font-family="Helvetica,sans-Serif" font-size="10.00" fill="grey"> End</text>
<text text-anchor="middle" x="200.88" y="-294.75" font-family="Helvetica,sans-Serif" font-size="10.00" fill="grey">Start</text>
</g>
<!-- Node4 -->
<g id="Node000004" class="node">
<title>Node4</title>
<g id="a_Node000004"><a xlink:title=" ">
<polygon fill="white" stroke="#666666" points="314.88,-453 223.88,-453 223.88,-433.75 314.88,-433.75 314.88,-453"/>
<text text-anchor="middle" x="269.38" y="-439.5" font-family="Helvetica,sans-Serif" font-size="10.00">QGraphicsObject</text>
</a>
</g>
</g>
<!-- Node4&#45;&gt;Node3 -->
<g id="edge3_Node000003_Node000004" class="edge">
<title>Node4&#45;&gt;Node3</title>
<g id="a_edge3_Node000003_Node000004"><a xlink:title=" ">
<path fill="none" stroke="#63b8ff" d="M270.47,-422.12C271.53,-402.39 273.1,-373.3 273.89,-358.74"/>
<polygon fill="#63b8ff" stroke="#63b8ff" points="266.98,-421.81 269.94,-431.98 273.97,-422.19 266.98,-421.81"/>
</a>
</g>
</g>
<!-- Node5 -->
<g id="Node000005" class="node">
<title>Node5</title>
<g id="a_Node000005"><a xlink:href="classdunedaq_1_1oks_1_1OksClass.html" target="_top" xlink:title="The OKS class.">
<polygon fill="white" stroke="#666666" points="558.5,-453 438.25,-453 438.25,-433.75 558.5,-433.75 558.5,-453"/>
<text text-anchor="middle" x="498.38" y="-439.5" font-family="Helvetica,sans-Serif" font-size="10.00">dunedaq::oks::OksClass</text>
</a>
</g>
</g>
<!-- Node5&#45;&gt;Node3 -->
<g id="edge4_Node000003_Node000005" class="edge">
<title>Node5&#45;&gt;Node3</title>
<g id="a_edge4_Node000003_Node000005"><a xlink:title=" ">
<path fill="none" stroke="#9a32cd" stroke-dasharray="5,2" d="M426.27,-439.8C378.97,-436.76 322.46,-430.15 303.38,-415.75 284.79,-401.73 277.9,-373.24 275.53,-358.71"/>
<polygon fill="#9a32cd" stroke="#9a32cd" points="426.05,-443.29 436.24,-440.39 426.47,-436.3 426.05,-443.29"/>
</a>
</g>
<text text-anchor="middle" x="333.38" y="-395" font-family="Helvetica,sans-Serif" font-size="10.00" fill="grey"> m_class_info</text>
</g>
<!-- Node13 -->
<g id="Node000013" class="node">
<title>Node13</title>
<g id="a_Node000013"><a xlink:href="uniondunedaq_1_1oks_1_1OksData_1_1Data.html" target="_top" xlink:title=" ">
<polygon fill="white" stroke="#666666" points="765.25,-364 649.5,-364 649.5,-333.5 765.25,-333.5 765.25,-364"/>
<text text-anchor="start" x="657.5" y="-350.5" font-family="Helvetica,sans-Serif" font-size="10.00">dunedaq::oks::OksData</text>
<text text-anchor="middle" x="707.38" y="-339.25" font-family="Helvetica,sans-Serif" font-size="10.00">::Data</text>
</a>
</g>
</g>
<!-- Node5&#45;&gt;Node13 -->
<g id="edge15_Node000013_Node000005" class="edge">
<title>Node5&#45;&gt;Node13</title>
<g id="a_edge15_Node000013_Node000005"><a xlink:title=" ">
<path fill="none" stroke="#9a32cd" stroke-dasharray="5,2" d="M535.91,-429.51C547.39,-425.36 559.99,-420.58 571.38,-415.75 609.43,-399.62 652.14,-378.36 679.37,-364.38"/>
<polygon fill="#9a32cd" stroke="#9a32cd" points="535,-426.12 526.75,-432.78 537.35,-432.72 535,-426.12"/>
</a>
</g>
<text text-anchor="middle" x="660.38" y="-400.62" font-family="Helvetica,sans-Serif" font-size="10.00" fill="grey"> CLASS</text>
<text text-anchor="middle" x="660.38" y="-389.38" font-family="Helvetica,sans-Serif" font-size="10.00" fill="grey">class_id</text>
</g>
<!-- Node6 -->
<g id="Node000006" class="node">
<title>Node6</title>
<g id="a_Node000006"><a xlink:href="classdunedaq_1_1oks_1_1OksFile.html" target="_top" xlink:title="Provides interface to the OKS XML schema and data files.">
<polygon fill="white" stroke="#666666" points="640,-19.25 528.75,-19.25 528.75,0 640,0 640,-19.25"/>
<text text-anchor="middle" x="584.38" y="-5.75" font-family="Helvetica,sans-Serif" font-size="10.00">dunedaq::oks::OksFile</text>
</a>
</g>
</g>
<!-- Node6&#45;&gt;Node5 -->
<g id="edge5_Node000005_Node000006" class="edge">
<title>Node6&#45;&gt;Node5</title>
<g id="a_edge5_Node000005_Node000006"><a xlink:title=" ">
<path fill="none" stroke="#9a32cd" stroke-dasharray="5,2" d="M517.85,-21.88C457.32,-34.07 377.38,-55.93 377.38,-86.38 377.38,-349.75 377.38,-349.75 377.38,-349.75 377.38,-394.72 430.73,-420.81 466.58,-433.27"/>
<polygon fill="#9a32cd" stroke="#9a32cd" points="518.28,-25.37 527.42,-20.01 516.93,-18.5 518.28,-25.37"/>
</a>
</g>
<text text-anchor="middle" x="389.75" y="-228.25" font-family="Helvetica,sans-Serif" font-size="10.00" fill="grey"> p_file</text>
</g>
<!-- Node6&#45;&gt;Node6 -->
<g id="edge6_Node000006_Node000006" class="edge">
<title>Node6&#45;&gt;Node6</title>
<g id="a_edge6_Node000006_Node000006"><a xlink:title=" ">
<path fill="none" stroke="#9a32cd" stroke-dasharray="5,2" d="M651.46,-14.69C655.55,-13.48 658,-11.8 658,-9.62 658,-5.87 650.66,-3.56 640.24,-2.71"/>
<polygon fill="#9a32cd" stroke="#9a32cd" points="651.03,-11.21 641.73,-16.29 652.17,-18.12 651.03,-11.21"/>
</a>
</g>
<text text-anchor="middle" x="689.88" y="-5.75" font-family="Helvetica,sans-Serif" font-size="10.00" fill="grey"> p_included_by</text>
</g>
<!-- Node7 -->
<g id="Node000007" class="node">
<title>Node7</title>
<g id="a_Node000007"><a xlink:href="classdunedaq_1_1oks_1_1OksKernel.html" target="_top" xlink:title="Provides interface to the OKS kernel.">
<polygon fill="white" stroke="#666666" points="646,-97 522.75,-97 522.75,-77.75 646,-77.75 646,-97"/>
<text text-anchor="middle" x="584.38" y="-83.5" font-family="Helvetica,sans-Serif" font-size="10.00">dunedaq::oks::OksKernel</text>
</a>
</g>
</g>
<!-- Node6&#45;&gt;Node7 -->
<g id="edge8_Node000007_Node000006" class="edge">
<title>Node6&#45;&gt;Node7</title>
<g id="a_edge8_Node000007_Node000006"><a xlink:title=" ">
<path fill="none" stroke="#9a32cd" stroke-dasharray="5,2" d="M591.79,-30.22C592.44,-32.56 592.99,-34.94 593.38,-37.25 595,-47.12 595,-49.88 593.38,-59.75 592.36,-65.91 590.11,-72.57 588.11,-77.68"/>
<polygon fill="#9a32cd" stroke="#9a32cd" points="595.11,-29.11 588.6,-20.75 588.48,-31.34 595.11,-29.11"/>
</a>
</g>
<text text-anchor="middle" x="632.62" y="-50.25" font-family="Helvetica,sans-Serif" font-size="10.00" fill="grey"> p_active_data</text>
<text text-anchor="middle" x="632.62" y="-39" font-family="Helvetica,sans-Serif" font-size="10.00" fill="grey">p_active_schema</text>
</g>
<!-- Node10 -->
<g id="Node000010" class="node">
<title>Node10</title>
<g id="a_Node000010"><a xlink:href="classdunedaq_1_1oks_1_1OksObject.html" target="_top" xlink:title="OksObject describes instance of OksClass.">
<polygon fill="white" stroke="#666666" points="853.38,-208.5 729.38,-208.5 729.38,-189.25 853.38,-189.25 853.38,-208.5"/>
<text text-anchor="middle" x="791.38" y="-195" font-family="Helvetica,sans-Serif" font-size="10.00">dunedaq::oks::OksObject</text>
</a>
</g>
</g>
<!-- Node6&#45;&gt;Node10 -->
<g id="edge20_Node000010_Node000006" class="edge">
<title>Node6&#45;&gt;Node10</title>
<g id="a_edge20_Node000010_Node000006"><a xlink:title=" ">
<path fill="none" stroke="#9a32cd" stroke-dasharray="5,2" d="M636.36,-22.89C682.36,-36.79 746.81,-64.4 777.38,-115 791.71,-138.73 792.48,-172.89 791.92,-188.92"/>
<polygon fill="#9a32cd" stroke="#9a32cd" points="637.42,-19.55 626.84,-20.15 635.48,-26.28 637.42,-19.55"/>
</a>
</g>
<text text-anchor="middle" x="770.5" y="-83.5" font-family="Helvetica,sans-Serif" font-size="10.00" fill="grey"> file</text>
</g>
<!-- Node7&#45;&gt;Node5 -->
<g id="edge21_Node000005_Node000007" class="edge">
<title>Node7&#45;&gt;Node5</title>
<g id="a_edge21_Node000005_Node000007"><a xlink:title=" ">
<path fill="none" stroke="#9a32cd" stroke-dasharray="5,2" d="M576.51,-107.95C568.54,-129.59 557.38,-165.64 557.38,-197.88 557.38,-349.75 557.38,-349.75 557.38,-349.75 557.38,-385.21 526.23,-418.04 509.2,-433.34"/>
<polygon fill="#9a32cd" stroke="#9a32cd" points="579.75,-109.28 580.08,-98.69 573.22,-106.76 579.75,-109.28"/>
</a>
</g>
<text text-anchor="middle" x="576.88" y="-261.5" font-family="Helvetica,sans-Serif" font-size="10.00" fill="grey"> p_kernel</text>
</g>
<!-- Node7&#45;&gt;Node6 -->
<g id="edge7_Node000006_Node000007" class="edge">
<title>Node7&#45;&gt;Node6</title>
<g id="a_edge7_Node000006_Node000007"><a xlink:title=" ">
<path fill="none" stroke="#9a32cd" stroke-dasharray="5,2" d="M561.23,-69.8C558.46,-66.79 556.02,-63.42 554.38,-59.75 550.27,-50.63 550.27,-46.37 554.38,-37.25 557.57,-30.14 563.71,-24.15 569.61,-19.67"/>
<polygon fill="#9a32cd" stroke="#9a32cd" points="558.71,-72.24 568.49,-76.32 563.39,-67.03 558.71,-72.24"/>
</a>
</g>
<text text-anchor="middle" x="573.88" y="-44.62" font-family="Helvetica,sans-Serif" font-size="10.00" fill="grey"> p_kernel</text>
</g>
<!-- Node8 -->
<g id="Node000008" class="node">
<title>Node8</title>
<g id="a_Node000008"><a xlink:href="classdunedaq_1_1oks_1_1OksProfiler.html" target="_top" xlink:title=" ">
<polygon fill="white" stroke="#666666" points="711.12,-208.5 585.62,-208.5 585.62,-189.25 711.12,-189.25 711.12,-208.5"/>
<text text-anchor="middle" x="648.38" y="-195" font-family="Helvetica,sans-Serif" font-size="10.00">dunedaq::oks::OksProfiler</text>
</a>
</g>
</g>
<!-- Node8&#45;&gt;Node7 -->
<g id="edge9_Node000007_Node000008" class="edge">
<title>Node8&#45;&gt;Node7</title>
<g id="a_edge9_Node000007_Node000008"><a xlink:title=" ">
<path fill="none" stroke="#9a32cd" stroke-dasharray="5,2" d="M623.9,-182.07C620.1,-178.83 616.49,-175.19 613.62,-171.25 596.59,-147.79 588.73,-113.5 585.81,-97.38"/>
<polygon fill="#9a32cd" stroke="#9a32cd" points="621.57,-184.7 631.65,-187.94 625.8,-179.12 621.57,-184.7"/>
</a>
</g>
<text text-anchor="middle" x="628.75" y="-139.25" font-family="Helvetica,sans-Serif" font-size="10.00" fill="grey"> profiler</text>
</g>
<!-- Node9 -->
<g id="Node000009" class="node">
<title>Node9</title>
<g id="a_Node000009"><a xlink:href="structdunedaq_1_1oks_1_1LoadErrors.html" target="_top" xlink:title=" ">
<polygon fill="white" stroke="#666666" points="529.75,-208.5 405,-208.5 405,-189.25 529.75,-189.25 529.75,-208.5"/>
<text text-anchor="middle" x="467.38" y="-195" font-family="Helvetica,sans-Serif" font-size="10.00">dunedaq::oks::LoadErrors</text>
</a>
</g>
</g>
<!-- Node9&#45;&gt;Node7 -->
<g id="edge10_Node000007_Node000009" class="edge">
<title>Node9&#45;&gt;Node7</title>
<g id="a_edge10_Node000007_Node000009"><a xlink:title=" ">
<path fill="none" stroke="#9a32cd" stroke-dasharray="5,2" d="M465.43,-177.47C464.83,-158.84 467.09,-131.72 482.62,-115 493.06,-103.76 507.61,-97.03 522.44,-93.06"/>
<polygon fill="#9a32cd" stroke="#9a32cd" points="461.92,-177.53 466.07,-187.27 468.91,-177.07 461.92,-177.53"/>
</a>
</g>
<text text-anchor="middle" x="513.75" y="-139.25" font-family="Helvetica,sans-Serif" font-size="10.00" fill="grey"> p_load_errors</text>
</g>
<!-- Node10&#45;&gt;Node7 -->
<g id="edge11_Node000007_Node000010" class="edge">
<title>Node10&#45;&gt;Node7</title>
<g id="a_edge11_Node000007_Node000010"><a xlink:title=" ">
<path fill="none" stroke="#9a32cd" stroke-dasharray="5,2" d="M717.8,-188.02C695.88,-183.83 675.47,-178.26 667.12,-171.25 646.48,-153.9 663.12,-134.38 644.38,-115 636.85,-107.22 626.64,-101.55 616.79,-97.49"/>
<polygon fill="#9a32cd" stroke="#9a32cd" points="717.04,-191.44 727.5,-189.76 718.28,-184.55 717.04,-191.44"/>
</a>
</g>
<text text-anchor="start" x="666.38" y="-161.75" font-family="Helvetica,sans-Serif" font-size="10.00" fill="grey"> p_change_object_notify</text>
<text text-anchor="middle" x="721.5" y="-150.5" font-family="Helvetica,sans-Serif" font-size="10.00" fill="grey">_fn</text>
<text text-anchor="start" x="666.38" y="-139.25" font-family="Helvetica,sans-Serif" font-size="10.00" fill="grey">p_create_object_notify</text>
<text text-anchor="middle" x="721.5" y="-128" font-family="Helvetica,sans-Serif" font-size="10.00" fill="grey">_fn</text>
<text text-anchor="middle" x="721.5" y="-116.75" font-family="Helvetica,sans-Serif" font-size="10.00" fill="grey">p_delete_object_notify_fn</text>
</g>
<!-- Node10&#45;&gt;Node13 -->
<g id="edge16_Node000013_Node000010" class="edge">
<title>Node10&#45;&gt;Node13</title>
<g id="a_edge16_Node000013_Node000010"><a xlink:title=" ">
<path fill="none" stroke="#9a32cd" stroke-dasharray="5,2" d="M781.57,-218.98C773.64,-234.26 762.08,-256.16 751.38,-275 739.78,-295.41 725.62,-318.53 716.55,-333.12"/>
<polygon fill="#9a32cd" stroke="#9a32cd" points="784.68,-220.59 786.16,-210.09 778.46,-217.38 784.68,-220.59"/>
</a>
</g>
<text text-anchor="middle" x="781.62" y="-261.5" font-family="Helvetica,sans-Serif" font-size="10.00" fill="grey"> OBJECT</text>
</g>
<!-- Node11 -->
<g id="Node000011" class="node">
<title>Node11</title>
<g id="a_Node000011"><a xlink:title=" ">
<polygon fill="white" stroke="#666666" points="847.75,-453 807,-453 807,-433.75 847.75,-433.75 847.75,-453"/>
<text text-anchor="middle" x="827.38" y="-439.5" font-family="Helvetica,sans-Serif" font-size="10.00">struct</text>
</a>
</g>
</g>
<!-- Node11&#45;&gt;Node10 -->
<g id="edge12_Node000010_Node000011" class="edge">
<title>Node11&#45;&gt;Node10</title>
<g id="a_edge12_Node000010_Node000011"><a xlink:title=" ">
<path fill="none" stroke="#9a32cd" stroke-dasharray="5,2" d="M826.1,-422.12C823.7,-387.7 817.73,-315.69 806.38,-255.75 803.2,-238.97 797.63,-219.84 794.24,-208.88"/>
<polygon fill="#9a32cd" stroke="#9a32cd" points="822.59,-422.11 826.74,-431.86 829.57,-421.65 822.59,-422.11"/>
</a>
</g>
<text text-anchor="middle" x="822.88" y="-300.38" font-family="Helvetica,sans-Serif" font-size="10.00" fill="grey"> uid</text>
</g>
<!-- Node11&#45;&gt;Node13 -->
<g id="edge19_Node000013_Node000011" class="edge">
<title>Node11&#45;&gt;Node13</title>
<g id="a_edge19_Node000013_Node000011"><a xlink:title=" ">
<path fill="none" stroke="#9a32cd" stroke-dasharray="5,2" d="M807.83,-426.51C792.58,-414.21 770.79,-396.82 751.38,-382 743.7,-376.14 735.15,-369.83 727.65,-364.36"/>
<polygon fill="#9a32cd" stroke="#9a32cd" points="805.25,-428.92 815.23,-432.49 809.65,-423.48 805.25,-428.92"/>
</a>
</g>
<text text-anchor="middle" x="803.62" y="-400.62" font-family="Helvetica,sans-Serif" font-size="10.00" fill="grey"> UID</text>
<text text-anchor="middle" x="803.62" y="-389.38" font-family="Helvetica,sans-Serif" font-size="10.00" fill="grey">UID2</text>
</g>
<!-- Node12 -->
<g id="Node000012" class="node">
<title>Node12</title>
<g id="a_Node000012"><a xlink:href="structdunedaq_1_1oks_1_1OksData.html" target="_top" xlink:title="the structure to pass common parameters to various read() methods of OksData and OksObject class">
<polygon fill="white" stroke="#666666" points="742.25,-275 626.5,-275 626.5,-255.75 742.25,-255.75 742.25,-275"/>
<text text-anchor="middle" x="684.38" y="-261.5" font-family="Helvetica,sans-Serif" font-size="10.00">dunedaq::oks::OksData</text>
</a>
</g>
</g>
<!-- Node12&#45;&gt;Node10 -->
<g id="edge13_Node000010_Node000012" class="edge">
<title>Node12&#45;&gt;Node10</title>
<g id="a_edge13_Node000010_Node000012"><a xlink:title=" ">
<path fill="none" stroke="#9a32cd" stroke-dasharray="5,2" d="M707.36,-249.13C718.19,-242.08 731.34,-233.69 743.38,-226.5 753.52,-220.44 765.1,-214 774.34,-208.98"/>
<polygon fill="#9a32cd" stroke="#9a32cd" points="705.52,-246.16 699.08,-254.57 709.36,-252.01 705.52,-246.16"/>
</a>
</g>
<text text-anchor="middle" x="753.88" y="-228.25" font-family="Helvetica,sans-Serif" font-size="10.00" fill="grey"> data</text>
</g>
<!-- Node13&#45;&gt;Node12 -->
<g id="edge14_Node000012_Node000013" class="edge">
<title>Node13&#45;&gt;Node12</title>
<g id="a_edge14_Node000012_Node000013"><a xlink:title=" ">
<path fill="none" stroke="#9a32cd" stroke-dasharray="5,2" d="M700.19,-322.34C695.65,-306.27 690.06,-286.49 686.89,-275.27"/>
<polygon fill="#9a32cd" stroke="#9a32cd" points="696.76,-323.07 702.85,-331.75 703.5,-321.17 696.76,-323.07"/>
</a>
</g>
<text text-anchor="middle" x="707.88" y="-300.38" font-family="Helvetica,sans-Serif" font-size="10.00" fill="grey"> data</text>
</g>
<!-- Node14 -->
<g id="Node000014" class="node">
<title>Node14</title>
<g id="a_Node000014"><a xlink:href="classdunedaq_1_1oks_1_1OksString.html" target="_top" xlink:title="Class OKS string.">
<polygon fill="white" stroke="#666666" points="767.88,-453 646.88,-453 646.88,-433.75 767.88,-433.75 767.88,-453"/>
<text text-anchor="middle" x="707.38" y="-439.5" font-family="Helvetica,sans-Serif" font-size="10.00">dunedaq::oks::OksString</text>
</a>
</g>
</g>
<!-- Node14&#45;&gt;Node13 -->
<g id="edge17_Node000013_Node000014" class="edge">
<title>Node14&#45;&gt;Node13</title>
<g id="a_edge17_Node000013_Node000014"><a xlink:title=" ">
<path fill="none" stroke="#9a32cd" stroke-dasharray="5,2" d="M707.38,-422.04C707.38,-404.53 707.38,-379.7 707.38,-364.17"/>
<polygon fill="#9a32cd" stroke="#9a32cd" points="703.88,-421.98 707.38,-431.98 710.88,-421.98 703.88,-421.98"/>
</a>
</g>
<text text-anchor="middle" x="727.25" y="-406.25" font-family="Helvetica,sans-Serif" font-size="10.00" fill="grey"> STRING</text>
<text text-anchor="middle" x="727.25" y="-395" font-family="Helvetica,sans-Serif" font-size="10.00" fill="grey">class_id</text>
<text text-anchor="middle" x="727.25" y="-383.75" font-family="Helvetica,sans-Serif" font-size="10.00" fill="grey">object_id</text>
</g>
<!-- Node15 -->
<g id="Node000015" class="node">
<title>Node15</title>
<g id="a_Node000015"><a xlink:title=" ">
<polygon fill="white" stroke="#666666" points="736.38,-519.5 678.38,-519.5 678.38,-500.25 736.38,-500.25 736.38,-519.5"/>
<text text-anchor="middle" x="707.38" y="-506" font-family="Helvetica,sans-Serif" font-size="10.00">std::string</text>
</a>
</g>
</g>
<!-- Node15&#45;&gt;Node14 -->
<g id="edge18_Node000014_Node000015" class="edge">
<title>Node15&#45;&gt;Node14</title>
<g id="a_edge18_Node000014_Node000015"><a xlink:title=" ">
<path fill="none" stroke="#63b8ff" d="M707.38,-488.4C707.38,-476.57 707.38,-462.29 707.38,-453.27"/>
<polygon fill="#63b8ff" stroke="#63b8ff" points="703.88,-488.39 707.38,-498.39 710.88,-488.39 703.88,-488.39"/>
</a>
</g>
</g>
<!-- Node16 -->
<g id="Node000016" class="node">
<title>Node16</title>
<g id="a_Node000016"><a xlink:href="classdunedaq_1_1conffwk_1_1map.html" target="_top" xlink:title=" ">
<polygon fill="white" stroke="#666666" points="566.75,-519.5 430,-519.5 430,-500.25 566.75,-500.25 566.75,-519.5"/>
<text text-anchor="middle" x="498.38" y="-506" font-family="Helvetica,sans-Serif" font-size="10.00">dunedaq::conffwk::map&lt; T &gt;</text>
</a>
</g>
</g>
<!-- Node16&#45;&gt;Node5 -->
<g id="edge22_Node000005_Node000016" class="edge">
<title>Node16&#45;&gt;Node5</title>
<g id="a_edge22_Node000005_Node000016"><a xlink:title=" ">
<path fill="none" stroke="#9a32cd" stroke-dasharray="5,2" d="M498.38,-488.4C498.38,-476.57 498.38,-462.29 498.38,-453.27"/>
<polygon fill="#9a32cd" stroke="#9a32cd" points="494.88,-488.39 498.38,-498.39 501.88,-488.39 494.88,-488.39"/>
</a>
</g>
<text text-anchor="middle" x="524.62" y="-472.75" font-family="Helvetica,sans-Serif" font-size="10.00" fill="grey"> p_data_info</text>
</g>
<!-- Node17 -->
<g id="Node000017" class="node">
<title>Node17</title>
<g id="a_Node000017"><a xlink:title=" ">
<polygon fill="white" stroke="#666666" points="548.75,-587 448,-587 448,-556.5 548.75,-556.5 548.75,-587"/>
<text text-anchor="start" x="456" y="-573.5" font-family="Helvetica,sans-Serif" font-size="10.00">std::unordered_map</text>
<text text-anchor="middle" x="498.38" y="-562.25" font-family="Helvetica,sans-Serif" font-size="10.00">&lt; std::string, T &gt;</text>
</a>
</g>
</g>
<!-- Node17&#45;&gt;Node16 -->
<g id="edge23_Node000016_Node000017" class="edge">
<title>Node17&#45;&gt;Node16</title>
<g id="a_edge23_Node000016_Node000017"><a xlink:title=" ">
<path fill="none" stroke="#63b8ff" d="M498.38,-545.02C498.38,-536.04 498.38,-526.54 498.38,-519.85"/>
<polygon fill="#63b8ff" stroke="#63b8ff" points="494.88,-544.74 498.38,-554.74 501.88,-544.74 494.88,-544.74"/>
</a>
</g>
</g>
<!-- Node18&#45;&gt;Node1 -->
<g id="edge24_Node000001_Node000018" class="edge">
<title>Node18&#45;&gt;Node1</title>
<g id="a_edge24_Node000001_Node000018"><a xlink:title=" ">
<path fill="none" stroke="#9a32cd" stroke-dasharray="5,2" d="M93.66,-249.61C106.51,-242.33 122.46,-233.6 137.12,-226.5 150.21,-220.16 165.19,-213.82 177.28,-208.92"/>
<polygon fill="#9a32cd" stroke="#9a32cd" points="91.94,-246.56 85.01,-254.58 95.42,-252.64 91.94,-246.56"/>
</a>
</g>
<text text-anchor="middle" x="167" y="-228.25" font-family="Helvetica,sans-Serif" font-size="10.00" fill="grey"> CurrentArrow</text>
</g>
<!-- Node19 -->
<g id="Node000019" class="node">
<title>Node19</title>
<g id="a_Node000019"><a xlink:title=" ">
<polygon fill="white" stroke="#666666" points="118.75,-358.38 18,-358.38 18,-339.12 118.75,-339.12 118.75,-358.38"/>
<text text-anchor="middle" x="68.38" y="-344.88" font-family="Helvetica,sans-Serif" font-size="10.00">QGraphicsLineItem</text>
</a>
</g>
</g>
<!-- Node19&#45;&gt;Node18 -->
<g id="edge25_Node000018_Node000019" class="edge">
<title>Node19&#45;&gt;Node18</title>
<g id="a_edge25_Node000018_Node000019"><a xlink:title=" ">
<path fill="none" stroke="#63b8ff" d="M68.38,-327.38C68.38,-310.6 68.38,-287.6 68.38,-275.19"/>
<polygon fill="#63b8ff" stroke="#63b8ff" points="64.88,-327.22 68.38,-337.22 71.88,-327.22 64.88,-327.22"/>
</a>
</g>
</g>
</g>
</svg>
