<?xml version="1.0" encoding="UTF-8" standalone="no"?>
<!DOCTYPE svg PUBLIC "-//W3C//DTD SVG 1.1//EN"
 "http://www.w3.org/Graphics/SVG/1.1/DTD/svg11.dtd">
<!-- Generated by graphviz version 9.0.0 (20230911.1827)
 -->
<!-- Title: dunedaq::appdal::TriggerActivityMakerPrescalePlugin Pages: 1 -->
<svg width="152pt" height="204pt"
 viewBox="0.00 0.00 152.25 204.25" xmlns="http://www.w3.org/2000/svg" xmlns:xlink="http://www.w3.org/1999/xlink">
<g id="graph0" class="graph" transform="scale(1 1) rotate(0) translate(4 200.25)">
<title>dunedaq::appdal::TriggerActivityMakerPrescalePlugin</title>
<!-- Node1 -->
<g id="Node000001" class="node">
<title>Node1</title>
<g id="a_Node000001"><a xlink:title=" ">
<polygon fill="#999999" stroke="#666666" points="142.38,-30.5 1.88,-30.5 1.88,0 142.38,0 142.38,-30.5"/>
<text text-anchor="start" x="9.88" y="-17" font-family="Helvetica,sans-Serif" font-size="10.00">dunedaq::appdal::Trigger</text>
<text text-anchor="middle" x="72.12" y="-5.75" font-family="Helvetica,sans-Serif" font-size="10.00">ActivityMakerPrescalePlugin</text>
</a>
</g>
</g>
<!-- Node2 -->
<g id="Node000002" class="node">
<title>Node2</title>
<g id="a_Node000002"><a xlink:href="classdunedaq_1_1appdal_1_1TAAlgorithm.html" target="_top" xlink:title=" ">
<polygon fill="white" stroke="#666666" points="144.25,-85.75 0,-85.75 0,-66.5 144.25,-66.5 144.25,-85.75"/>
<text text-anchor="middle" x="72.12" y="-72.25" font-family="Helvetica,sans-Serif" font-size="10.00">dunedaq::appdal::TAAlgorithm</text>
</a>
</g>
</g>
<!-- Node2&#45;&gt;Node1 -->
<g id="edge1_Node000001_Node000002" class="edge">
<title>Node2&#45;&gt;Node1</title>
<g id="a_edge1_Node000001_Node000002"><a xlink:title=" ">
<path fill="none" stroke="#63b8ff" d="M65.68,-54.92C65.14,-46.99 65.32,-38.06 66.21,-30.78"/>
<polygon fill="#63b8ff" stroke="#63b8ff" points="62.19,-55.2 66.92,-64.68 69.13,-54.32 62.19,-55.2"/>
</a>
</g>
</g>
<!-- Node2&#45;&gt;Node1 -->
<g id="edge6_Node000001_Node000002" class="edge">
<title>Node2&#45;&gt;Node1</title>
<g id="a_edge6_Node000001_Node000002"><a xlink:title=" ">
<path fill="none" stroke="#63b8ff" d="M78.57,-54.92C79.11,-46.99 78.93,-38.06 78.04,-30.78"/>
<polygon fill="#63b8ff" stroke="#63b8ff" points="75.12,-54.32 77.33,-64.68 82.06,-55.2 75.12,-54.32"/>
</a>
</g>
</g>
<!-- Node3 -->
<g id="Node000003" class="node">
<title>Node3</title>
<g id="a_Node000003"><a xlink:href="classdunedaq_1_1coredal_1_1Jsonable.html" target="_top" xlink:title=" ">
<polygon fill="white" stroke="#666666" points="138.25,-141 6,-141 6,-121.75 138.25,-121.75 138.25,-141"/>
<text text-anchor="middle" x="72.12" y="-127.5" font-family="Helvetica,sans-Serif" font-size="10.00">dunedaq::coredal::Jsonable</text>
</a>
</g>
</g>
<!-- Node3&#45;&gt;Node2 -->
<g id="edge2_Node000002_Node000003" class="edge">
<title>Node3&#45;&gt;Node2</title>
<g id="a_edge2_Node000002_Node000003"><a xlink:title=" ">
<path fill="none" stroke="#63b8ff" d="M65.57,-110.42C65.08,-102.05 65.53,-92.75 66.92,-86.11"/>
<polygon fill="#63b8ff" stroke="#63b8ff" points="62.06,-110.59 66.77,-120.08 69.01,-109.72 62.06,-110.59"/>
</a>
</g>
</g>
<!-- Node3&#45;&gt;Node2 -->
<g id="edge5_Node000002_Node000003" class="edge">
<title>Node3&#45;&gt;Node2</title>
<g id="a_edge5_Node000002_Node000003"><a xlink:title=" ">
<path fill="none" stroke="#63b8ff" d="M78.68,-110.42C79.17,-102.05 78.72,-92.75 77.33,-86.11"/>
<polygon fill="#63b8ff" stroke="#63b8ff" points="75.24,-109.72 77.48,-120.08 82.19,-110.59 75.24,-109.72"/>
</a>
</g>
</g>
<!-- Node4 -->
<g id="Node000004" class="node">
<title>Node4</title>
<g id="a_Node000004"><a xlink:href="classdunedaq_1_1conffwk_1_1DalObject.html" target="_top" xlink:title="The base class for any generated DAL object.">
<polygon fill="white" stroke="#666666" points="141.25,-196.25 3,-196.25 3,-177 141.25,-177 141.25,-196.25"/>
<text text-anchor="middle" x="72.12" y="-182.75" font-family="Helvetica,sans-Serif" font-size="10.00">dunedaq::conffwk::DalObject</text>
</a>
</g>
</g>
<!-- Node4&#45;&gt;Node3 -->
<g id="edge3_Node000003_Node000004" class="edge">
<title>Node4&#45;&gt;Node3</title>
<g id="a_edge3_Node000003_Node000004"><a xlink:title=" ">
<path fill="none" stroke="#63b8ff" d="M65.57,-165.67C65.08,-157.3 65.53,-148 66.92,-141.36"/>
<polygon fill="#63b8ff" stroke="#63b8ff" points="62.06,-165.84 66.77,-175.33 69.01,-164.97 62.06,-165.84"/>
</a>
</g>
</g>
<!-- Node4&#45;&gt;Node3 -->
<g id="edge4_Node000003_Node000004" class="edge">
<title>Node4&#45;&gt;Node3</title>
<g id="a_edge4_Node000003_Node000004"><a xlink:title=" ">
<path fill="none" stroke="#63b8ff" d="M78.68,-165.67C79.17,-157.3 78.72,-148 77.33,-141.36"/>
<polygon fill="#63b8ff" stroke="#63b8ff" points="75.24,-164.97 77.48,-175.33 82.19,-165.84 75.24,-164.97"/>
</a>
</g>
</g>
</g>
</svg>
