<?xml version="1.0" encoding="UTF-8" standalone="no"?>
<!DOCTYPE svg PUBLIC "-//W3C//DTD SVG 1.1//EN"
 "http://www.w3.org/Graphics/SVG/1.1/DTD/svg11.dtd">
<!-- Generated by graphviz version 9.0.0 (20230911.1827)
 -->
<!-- Title: dunedaq::timinglibs::dal::TimingHardwareManagerPDI Pages: 1 -->
<svg width="171pt" height="149pt"
 viewBox="0.00 0.00 171.00 149.00" xmlns="http://www.w3.org/2000/svg" xmlns:xlink="http://www.w3.org/1999/xlink">
<g id="graph0" class="graph" transform="scale(1 1) rotate(0) translate(4 145)">
<title>dunedaq::timinglibs::dal::TimingHardwareManagerPDI</title>
<!-- Node1 -->
<g id="Node000001" class="node">
<title>Node1</title>
<g id="a_Node000001"><a xlink:title=" ">
<polygon fill="#999999" stroke="#666666" points="163,-30.5 0,-30.5 0,0 163,0 163,-30.5"/>
<text text-anchor="start" x="8" y="-17" font-family="Helvetica,sans-Serif" font-size="10.00">dunedaq::timinglibs</text>
<text text-anchor="middle" x="81.5" y="-5.75" font-family="Helvetica,sans-Serif" font-size="10.00">::dal::TimingHardwareManagerPDI</text>
</a>
</g>
</g>
<!-- Node2 -->
<g id="Node000002" class="node">
<title>Node2</title>
<g id="a_Node000002"><a xlink:href="classdunedaq_1_1coredal_1_1DaqModule.html" target="_top" xlink:title=" ">
<polygon fill="white" stroke="#666666" points="152.5,-85.75 10.5,-85.75 10.5,-66.5 152.5,-66.5 152.5,-85.75"/>
<text text-anchor="middle" x="81.5" y="-72.25" font-family="Helvetica,sans-Serif" font-size="10.00">dunedaq::coredal::DaqModule</text>
</a>
</g>
</g>
<!-- Node2&#45;&gt;Node1 -->
<g id="edge1_Node000001_Node000002" class="edge">
<title>Node2&#45;&gt;Node1</title>
<g id="a_edge1_Node000001_Node000002"><a xlink:title=" ">
<path fill="none" stroke="#63b8ff" d="M75.05,-54.92C74.52,-46.99 74.69,-38.06 75.59,-30.78"/>
<polygon fill="#63b8ff" stroke="#63b8ff" points="71.56,-55.2 76.3,-64.68 78.51,-54.32 71.56,-55.2"/>
</a>
</g>
</g>
<!-- Node2&#45;&gt;Node1 -->
<g id="edge4_Node000001_Node000002" class="edge">
<title>Node2&#45;&gt;Node1</title>
<g id="a_edge4_Node000001_Node000002"><a xlink:title=" ">
<path fill="none" stroke="#63b8ff" d="M87.95,-54.92C88.48,-46.99 88.31,-38.06 87.41,-30.78"/>
<polygon fill="#63b8ff" stroke="#63b8ff" points="84.49,-54.32 86.7,-64.68 91.44,-55.2 84.49,-54.32"/>
</a>
</g>
</g>
<!-- Node3 -->
<g id="Node000003" class="node">
<title>Node3</title>
<g id="a_Node000003"><a xlink:href="classdunedaq_1_1conffwk_1_1DalObject.html" target="_top" xlink:title="The base class for any generated DAL object.">
<polygon fill="white" stroke="#666666" points="150.62,-141 12.38,-141 12.38,-121.75 150.62,-121.75 150.62,-141"/>
<text text-anchor="middle" x="81.5" y="-127.5" font-family="Helvetica,sans-Serif" font-size="10.00">dunedaq::conffwk::DalObject</text>
</a>
</g>
</g>
<!-- Node3&#45;&gt;Node2 -->
<g id="edge2_Node000002_Node000003" class="edge">
<title>Node3&#45;&gt;Node2</title>
<g id="a_edge2_Node000002_Node000003"><a xlink:title=" ">
<path fill="none" stroke="#63b8ff" d="M74.94,-110.42C74.45,-102.05 74.9,-92.75 76.29,-86.11"/>
<polygon fill="#63b8ff" stroke="#63b8ff" points="71.44,-110.59 76.15,-120.08 78.38,-109.72 71.44,-110.59"/>
</a>
</g>
</g>
<!-- Node3&#45;&gt;Node2 -->
<g id="edge3_Node000002_Node000003" class="edge">
<title>Node3&#45;&gt;Node2</title>
<g id="a_edge3_Node000002_Node000003"><a xlink:title=" ">
<path fill="none" stroke="#63b8ff" d="M88.06,-110.42C88.55,-102.05 88.1,-92.75 86.71,-86.11"/>
<polygon fill="#63b8ff" stroke="#63b8ff" points="84.62,-109.72 86.85,-120.08 91.56,-110.59 84.62,-109.72"/>
</a>
</g>
</g>
</g>
</svg>
