<?xml version="1.0" encoding="UTF-8" standalone="no"?>
<!DOCTYPE svg PUBLIC "-//W3C//DTD SVG 1.1//EN"
 "http://www.w3.org/Graphics/SVG/1.1/DTD/svg11.dtd">
<!-- Generated by graphviz version 9.0.0 (20230911.1827)
 -->
<!-- Title: dunedaq::iomanager::Queue&lt; T &gt; Pages: 1 -->
<svg width="670pt" height="98pt"
 viewBox="0.00 0.00 670.00 98.12" xmlns="http://www.w3.org/2000/svg" xmlns:xlink="http://www.w3.org/1999/xlink">
<g id="graph0" class="graph" transform="scale(1 1) rotate(0) translate(4 94.12)">
<title>dunedaq::iomanager::Queue&lt; T &gt;</title>
<!-- Node1 -->
<g id="Node000001" class="node">
<title>Node1</title>
<g id="a_Node000001"><a xlink:title="Implementations of the Queue class are responsible for relaying data between DAQModules within a DAQ ...">
<polygon fill="#999999" stroke="#666666" points="488.5,-57.5 386.25,-57.5 386.25,-27 488.5,-27 488.5,-57.5"/>
<text text-anchor="start" x="394.25" y="-44" font-family="Helvetica,sans-Serif" font-size="10.00">dunedaq::iomanager</text>
<text text-anchor="middle" x="437.38" y="-32.75" font-family="Helvetica,sans-Serif" font-size="10.00">::Queue&lt; T &gt;</text>
</a>
</g>
</g>
<!-- Node5 -->
<g id="Node000005" class="node">
<title>Node5</title>
<g id="a_Node000005"><a xlink:href="classdunedaq_1_1iomanager_1_1FollyQueue.html" target="_top" xlink:title=" ">
<polygon fill="white" stroke="#666666" points="662,-90.12 524.5,-90.12 524.5,-48.38 662,-48.38 662,-90.12"/>
<text text-anchor="start" x="532.5" y="-76.62" font-family="Helvetica,sans-Serif" font-size="10.00">dunedaq::iomanager</text>
<text text-anchor="start" x="532.5" y="-65.38" font-family="Helvetica,sans-Serif" font-size="10.00">::FollyQueue&lt; T, FollyQueue</text>
<text text-anchor="middle" x="593.25" y="-54.12" font-family="Helvetica,sans-Serif" font-size="10.00">Type &gt;</text>
</a>
</g>
</g>
<!-- Node1&#45;&gt;Node5 -->
<g id="edge4_Node000001_Node000005" class="edge">
<title>Node1&#45;&gt;Node5</title>
<g id="a_edge4_Node000001_Node000005"><a xlink:title=" ">
<path fill="none" stroke="#63b8ff" d="M499.85,-53.04C507.84,-54.44 516.05,-55.88 524.14,-57.3"/>
<polygon fill="#63b8ff" stroke="#63b8ff" points="500.7,-49.63 490.25,-51.35 499.49,-56.53 500.7,-49.63"/>
</a>
</g>
</g>
<!-- Node6 -->
<g id="Node000006" class="node">
<title>Node6</title>
<g id="a_Node000006"><a xlink:href="classdunedaq_1_1iomanager_1_1StdDeQueue.html" target="_top" xlink:title="A Queue Implementation that uses a std::deque as its backend.">
<polygon fill="white" stroke="#666666" points="644.38,-30.5 542.12,-30.5 542.12,0 644.38,0 644.38,-30.5"/>
<text text-anchor="start" x="550.12" y="-17" font-family="Helvetica,sans-Serif" font-size="10.00">dunedaq::iomanager</text>
<text text-anchor="middle" x="593.25" y="-5.75" font-family="Helvetica,sans-Serif" font-size="10.00">::StdDeQueue&lt; T &gt;</text>
</a>
</g>
</g>
<!-- Node1&#45;&gt;Node6 -->
<g id="edge5_Node000001_Node000006" class="edge">
<title>Node1&#45;&gt;Node6</title>
<g id="a_edge5_Node000001_Node000006"><a xlink:title=" ">
<path fill="none" stroke="#63b8ff" d="M499.75,-31.48C513.68,-29.04 528.33,-26.47 541.75,-24.11"/>
<polygon fill="#63b8ff" stroke="#63b8ff" points="499.49,-27.97 490.25,-33.15 500.7,-34.87 499.49,-27.97"/>
</a>
</g>
</g>
<!-- Node2 -->
<g id="Node000002" class="node">
<title>Node2</title>
<g id="a_Node000002"><a xlink:href="classdunedaq_1_1iomanager_1_1QueueBase.html" target="_top" xlink:title="The QueueBase class allows to address generic behavior of any Queue implementation.">
<polygon fill="white" stroke="#666666" points="350.25,-57.5 248,-57.5 248,-27 350.25,-27 350.25,-57.5"/>
<text text-anchor="start" x="256" y="-44" font-family="Helvetica,sans-Serif" font-size="10.00">dunedaq::iomanager</text>
<text text-anchor="middle" x="299.12" y="-32.75" font-family="Helvetica,sans-Serif" font-size="10.00">::QueueBase</text>
</a>
</g>
</g>
<!-- Node2&#45;&gt;Node1 -->
<g id="edge1_Node000001_Node000002" class="edge">
<title>Node2&#45;&gt;Node1</title>
<g id="a_edge1_Node000001_Node000002"><a xlink:title=" ">
<path fill="none" stroke="#63b8ff" d="M361.72,-42.25C369.77,-42.25 377.94,-42.25 385.78,-42.25"/>
<polygon fill="#63b8ff" stroke="#63b8ff" points="361.99,-38.75 351.99,-42.25 361.99,-45.75 361.99,-38.75"/>
</a>
</g>
</g>
<!-- Node3 -->
<g id="Node000003" class="node">
<title>Node3</title>
<g id="a_Node000003"><a xlink:href="classdunedaq_1_1utilities_1_1NamedObject.html" target="_top" xlink:title="Implements the Named interface.">
<polygon fill="white" stroke="#666666" points="212,-57.5 124,-57.5 124,-27 212,-27 212,-57.5"/>
<text text-anchor="start" x="132" y="-44" font-family="Helvetica,sans-Serif" font-size="10.00">dunedaq::utilities</text>
<text text-anchor="middle" x="168" y="-32.75" font-family="Helvetica,sans-Serif" font-size="10.00">::NamedObject</text>
</a>
</g>
</g>
<!-- Node3&#45;&gt;Node2 -->
<g id="edge2_Node000002_Node000003" class="edge">
<title>Node3&#45;&gt;Node2</title>
<g id="a_edge2_Node000002_Node000003"><a xlink:title=" ">
<path fill="none" stroke="#63b8ff" d="M223.72,-42.25C231.61,-42.25 239.71,-42.25 247.52,-42.25"/>
<polygon fill="#63b8ff" stroke="#63b8ff" points="223.87,-38.75 213.87,-42.25 223.87,-45.75 223.87,-38.75"/>
</a>
</g>
</g>
<!-- Node4 -->
<g id="Node000004" class="node">
<title>Node4</title>
<g id="a_Node000004"><a xlink:href="classdunedaq_1_1utilities_1_1Named.html" target="_top" xlink:title="A Named is a DAQ object (Queue or DAQModule) which has an instance name.">
<polygon fill="white" stroke="#666666" points="88,-57.5 0,-57.5 0,-27 88,-27 88,-57.5"/>
<text text-anchor="start" x="8" y="-44" font-family="Helvetica,sans-Serif" font-size="10.00">dunedaq::utilities</text>
<text text-anchor="middle" x="44" y="-32.75" font-family="Helvetica,sans-Serif" font-size="10.00">::Named</text>
</a>
</g>
</g>
<!-- Node4&#45;&gt;Node3 -->
<g id="edge3_Node000003_Node000004" class="edge">
<title>Node4&#45;&gt;Node3</title>
<g id="a_edge3_Node000003_Node000004"><a xlink:title=" ">
<path fill="none" stroke="#63b8ff" d="M99.63,-42.25C107.73,-42.25 115.97,-42.25 123.78,-42.25"/>
<polygon fill="#63b8ff" stroke="#63b8ff" points="99.87,-38.75 89.87,-42.25 99.87,-45.75 99.87,-38.75"/>
</a>
</g>
</g>
</g>
</svg>
