<?xml version="1.0" encoding="UTF-8" standalone="no"?>
<!DOCTYPE svg PUBLIC "-//W3C//DTD SVG 1.1//EN"
 "http://www.w3.org/Graphics/SVG/1.1/DTD/svg11.dtd">
<!-- Generated by graphviz version 9.0.0 (20230911.1827)
 -->
<!-- Title: dunedaq::coredal::RCApplication Pages: 1 -->
<svg width="163pt" height="138pt"
 viewBox="0.00 0.00 162.75 137.75" xmlns="http://www.w3.org/2000/svg" xmlns:xlink="http://www.w3.org/1999/xlink">
<g id="graph0" class="graph" transform="scale(1 1) rotate(0) translate(4 133.75)">
<title>dunedaq::coredal::RCApplication</title>
<!-- Node1 -->
<g id="Node000001" class="node">
<title>Node1</title>
<g id="a_Node000001"><a xlink:title=" ">
<polygon fill="#999999" stroke="#666666" points="154.75,-19.25 0,-19.25 0,0 154.75,0 154.75,-19.25"/>
<text text-anchor="middle" x="77.38" y="-5.75" font-family="Helvetica,sans-Serif" font-size="10.00">dunedaq::coredal::RCApplication</text>
</a>
</g>
</g>
<!-- Node2 -->
<g id="Node000002" class="node">
<title>Node2</title>
<g id="a_Node000002"><a xlink:href="classdunedaq_1_1coredal_1_1Application.html" target="_top" xlink:title=" ">
<polygon fill="white" stroke="#666666" points="148,-74.5 6.75,-74.5 6.75,-55.25 148,-55.25 148,-74.5"/>
<text text-anchor="middle" x="77.38" y="-61" font-family="Helvetica,sans-Serif" font-size="10.00">dunedaq::coredal::Application</text>
</a>
</g>
</g>
<!-- Node2&#45;&gt;Node1 -->
<g id="edge1_Node000001_Node000002" class="edge">
<title>Node2&#45;&gt;Node1</title>
<g id="a_edge1_Node000001_Node000002"><a xlink:title=" ">
<path fill="none" stroke="#63b8ff" d="M70.82,-43.92C70.33,-35.55 70.78,-26.25 72.17,-19.61"/>
<polygon fill="#63b8ff" stroke="#63b8ff" points="67.31,-44.09 72.02,-53.58 74.26,-43.22 67.31,-44.09"/>
</a>
</g>
</g>
<!-- Node2&#45;&gt;Node1 -->
<g id="edge4_Node000001_Node000002" class="edge">
<title>Node2&#45;&gt;Node1</title>
<g id="a_edge4_Node000001_Node000002"><a xlink:title=" ">
<path fill="none" stroke="#63b8ff" d="M83.93,-43.92C84.42,-35.55 83.97,-26.25 82.58,-19.61"/>
<polygon fill="#63b8ff" stroke="#63b8ff" points="80.49,-43.22 82.73,-53.58 87.44,-44.09 80.49,-43.22"/>
</a>
</g>
</g>
<!-- Node3 -->
<g id="Node000003" class="node">
<title>Node3</title>
<g id="a_Node000003"><a xlink:href="classdunedaq_1_1conffwk_1_1DalObject.html" target="_top" xlink:title="The base class for any generated DAL object.">
<polygon fill="white" stroke="#666666" points="146.5,-129.75 8.25,-129.75 8.25,-110.5 146.5,-110.5 146.5,-129.75"/>
<text text-anchor="middle" x="77.38" y="-116.25" font-family="Helvetica,sans-Serif" font-size="10.00">dunedaq::conffwk::DalObject</text>
</a>
</g>
</g>
<!-- Node3&#45;&gt;Node2 -->
<g id="edge2_Node000002_Node000003" class="edge">
<title>Node3&#45;&gt;Node2</title>
<g id="a_edge2_Node000002_Node000003"><a xlink:title=" ">
<path fill="none" stroke="#63b8ff" d="M70.82,-99.17C70.33,-90.8 70.78,-81.5 72.17,-74.86"/>
<polygon fill="#63b8ff" stroke="#63b8ff" points="67.31,-99.34 72.02,-108.83 74.26,-98.47 67.31,-99.34"/>
</a>
</g>
</g>
<!-- Node3&#45;&gt;Node2 -->
<g id="edge3_Node000002_Node000003" class="edge">
<title>Node3&#45;&gt;Node2</title>
<g id="a_edge3_Node000002_Node000003"><a xlink:title=" ">
<path fill="none" stroke="#63b8ff" d="M83.93,-99.17C84.42,-90.8 83.97,-81.5 82.58,-74.86"/>
<polygon fill="#63b8ff" stroke="#63b8ff" points="80.49,-98.47 82.73,-108.83 87.44,-99.34 80.49,-98.47"/>
</a>
</g>
</g>
</g>
</svg>
