<?xml version="1.0" encoding="UTF-8" standalone="no"?>
<!DOCTYPE svg PUBLIC "-//W3C//DTD SVG 1.1//EN"
 "http://www.w3.org/Graphics/SVG/1.1/DTD/svg11.dtd">
<!-- Generated by graphviz version 9.0.0 (20230911.1827)
 -->
<!-- Title: dunedaq::appdal::FakeHSIEventGeneratorConf Pages: 1 -->
<svg width="162pt" height="94pt"
 viewBox="0.00 0.00 162.00 93.75" xmlns="http://www.w3.org/2000/svg" xmlns:xlink="http://www.w3.org/1999/xlink">
<g id="graph0" class="graph" transform="scale(1 1) rotate(0) translate(4 89.75)">
<title>dunedaq::appdal::FakeHSIEventGeneratorConf</title>
<!-- Node1 -->
<g id="Node000001" class="node">
<title>Node1</title>
<g id="a_Node000001"><a xlink:title=" ">
<polygon fill="#999999" stroke="#666666" points="154,-30.5 0,-30.5 0,0 154,0 154,-30.5"/>
<text text-anchor="start" x="8" y="-17" font-family="Helvetica,sans-Serif" font-size="10.00">dunedaq::appdal::FakeHSIEvent</text>
<text text-anchor="middle" x="77" y="-5.75" font-family="Helvetica,sans-Serif" font-size="10.00">GeneratorConf</text>
</a>
</g>
</g>
<!-- Node2 -->
<g id="Node000002" class="node">
<title>Node2</title>
<g id="a_Node000002"><a xlink:href="classdunedaq_1_1conffwk_1_1DalObject.html" target="_top" xlink:title="The base class for any generated DAL object.">
<polygon fill="white" stroke="#666666" points="146.12,-85.75 7.88,-85.75 7.88,-66.5 146.12,-66.5 146.12,-85.75"/>
<text text-anchor="middle" x="77" y="-72.25" font-family="Helvetica,sans-Serif" font-size="10.00">dunedaq::conffwk::DalObject</text>
</a>
</g>
</g>
<!-- Node2&#45;&gt;Node1 -->
<g id="edge1_Node000001_Node000002" class="edge">
<title>Node2&#45;&gt;Node1</title>
<g id="a_edge1_Node000001_Node000002"><a xlink:title=" ">
<path fill="none" stroke="#63b8ff" d="M70.55,-54.92C70.02,-46.99 70.19,-38.06 71.09,-30.78"/>
<polygon fill="#63b8ff" stroke="#63b8ff" points="67.06,-55.2 71.8,-64.68 74.01,-54.32 67.06,-55.2"/>
</a>
</g>
</g>
<!-- Node2&#45;&gt;Node1 -->
<g id="edge2_Node000001_Node000002" class="edge">
<title>Node2&#45;&gt;Node1</title>
<g id="a_edge2_Node000001_Node000002"><a xlink:title=" ">
<path fill="none" stroke="#63b8ff" d="M83.45,-54.92C83.98,-46.99 83.81,-38.06 82.91,-30.78"/>
<polygon fill="#63b8ff" stroke="#63b8ff" points="79.99,-54.32 82.2,-64.68 86.94,-55.2 79.99,-54.32"/>
</a>
</g>
</g>
</g>
</svg>
