<?xml version="1.0" encoding="UTF-8" standalone="no"?>
<!DOCTYPE svg PUBLIC "-//W3C//DTD SVG 1.1//EN"
 "http://www.w3.org/Graphics/SVG/1.1/DTD/svg11.dtd">
<!-- Generated by graphviz version 9.0.0 (20230911.1827)
 -->
<!-- Title: dunedaq::appdal::TPStreamWriterApplication Pages: 1 -->
<svg width="2610pt" height="387pt"
 viewBox="0.00 0.00 2610.00 386.99" xmlns="http://www.w3.org/2000/svg" xmlns:xlink="http://www.w3.org/1999/xlink">
<g id="graph0" class="graph" transform="scale(1 1) rotate(0) translate(4 382.99)">
<title>dunedaq::appdal::TPStreamWriterApplication</title>
<!-- Node1 -->
<g id="Node000001" class="node">
<title>Node1</title>
<g id="a_Node000001"><a xlink:title=" ">
<polygon fill="#999999" stroke="#666666" points="2602,-255.5 2467.5,-255.5 2467.5,-225 2602,-225 2602,-255.5"/>
<text text-anchor="start" x="2475.5" y="-242" font-family="Helvetica,sans-Serif" font-size="10.00">dunedaq::appdal::TPStream</text>
<text text-anchor="middle" x="2534.75" y="-230.75" font-family="Helvetica,sans-Serif" font-size="10.00">WriterApplication</text>
</a>
</g>
</g>
<!-- Node2 -->
<g id="Node000002" class="node">
<title>Node2</title>
<g id="a_Node000002"><a xlink:href="classdunedaq_1_1appdal_1_1SmartDaqApplication.html" target="_top" xlink:title=" ">
<polygon fill="white" stroke="#666666" points="2430.5,-255.5 2296.75,-255.5 2296.75,-225 2430.5,-225 2430.5,-255.5"/>
<text text-anchor="start" x="2304.75" y="-242" font-family="Helvetica,sans-Serif" font-size="10.00">dunedaq::appdal::SmartDaq</text>
<text text-anchor="middle" x="2363.62" y="-230.75" font-family="Helvetica,sans-Serif" font-size="10.00">Application</text>
</a>
</g>
</g>
<!-- Node2&#45;&gt;Node1 -->
<g id="edge1_Node000001_Node000002" class="edge">
<title>Node2&#45;&gt;Node1</title>
<g id="a_edge1_Node000001_Node000002"><a xlink:title=" ">
<path fill="none" stroke="#63b8ff" d="M2442.49,-233.52C2450.69,-233.47 2458.97,-233.51 2467.03,-233.64"/>
<polygon fill="#63b8ff" stroke="#63b8ff" points="2442.46,-230.02 2432.5,-233.62 2442.53,-237.02 2442.46,-230.02"/>
</a>
</g>
</g>
<!-- Node2&#45;&gt;Node1 -->
<g id="edge31_Node000001_Node000002" class="edge">
<title>Node2&#45;&gt;Node1</title>
<g id="a_edge31_Node000001_Node000002"><a xlink:title=" ">
<path fill="none" stroke="#63b8ff" d="M2442.49,-246.98C2450.69,-247.03 2458.97,-246.99 2467.03,-246.86"/>
<polygon fill="#63b8ff" stroke="#63b8ff" points="2442.53,-243.48 2432.5,-246.88 2442.46,-250.48 2442.53,-243.48"/>
</a>
</g>
</g>
<!-- Node3 -->
<g id="Node000003" class="node">
<title>Node3</title>
<g id="a_Node000003"><a xlink:href="classdunedaq_1_1coredal_1_1Application.html" target="_top" xlink:title=" ">
<polygon fill="white" stroke="#666666" points="2259.75,-312.88 2118.5,-312.88 2118.5,-293.62 2259.75,-293.62 2259.75,-312.88"/>
<text text-anchor="middle" x="2189.12" y="-299.38" font-family="Helvetica,sans-Serif" font-size="10.00">dunedaq::coredal::Application</text>
</a>
</g>
</g>
<!-- Node3&#45;&gt;Node2 -->
<g id="edge2_Node000002_Node000003" class="edge">
<title>Node3&#45;&gt;Node2</title>
<g id="a_edge2_Node000002_Node000003"><a xlink:title=" ">
<path fill="none" stroke="#63b8ff" d="M2216.83,-288.45C2239.44,-278.61 2272.72,-265.97 2301.77,-255.99"/>
<polygon fill="#63b8ff" stroke="#63b8ff" points="2215.41,-285.25 2207.73,-292.55 2218.29,-291.63 2215.41,-285.25"/>
</a>
</g>
</g>
<!-- Node3&#45;&gt;Node2 -->
<g id="edge27_Node000002_Node000003" class="edge">
<title>Node3&#45;&gt;Node2</title>
<g id="a_edge27_Node000002_Node000003"><a xlink:title=" ">
<path fill="none" stroke="#63b8ff" d="M2244.71,-289.64C2274.3,-279.66 2309.66,-266.36 2333.89,-255.93"/>
<polygon fill="#63b8ff" stroke="#63b8ff" points="2243.93,-286.21 2235.54,-292.68 2246.13,-292.86 2243.93,-286.21"/>
</a>
</g>
</g>
<!-- Node4 -->
<g id="Node000004" class="node">
<title>Node4</title>
<g id="a_Node000004"><a xlink:href="classdunedaq_1_1conffwk_1_1DalObject.html" target="_top" xlink:title="The base class for any generated DAL object.">
<polygon fill="white" stroke="#666666" points="1509.5,-202.88 1371.25,-202.88 1371.25,-183.62 1509.5,-183.62 1509.5,-202.88"/>
<text text-anchor="middle" x="1440.38" y="-189.38" font-family="Helvetica,sans-Serif" font-size="10.00">dunedaq::conffwk::DalObject</text>
</a>
</g>
</g>
<!-- Node4&#45;&gt;Node3 -->
<g id="edge3_Node000003_Node000004" class="edge">
<title>Node4&#45;&gt;Node3</title>
<g id="a_edge3_Node000003_Node000004"><a xlink:title=" ">
<path fill="none" stroke="#63b8ff" d="M1455.49,-212.32C1472.83,-238.42 1505.12,-283.66 1546.5,-305.25 1747.27,-409.98 2033.69,-341.47 2143.2,-313.3"/>
<polygon fill="#63b8ff" stroke="#63b8ff" points="1458.64,-210.73 1450.22,-204.3 1452.79,-214.58 1458.64,-210.73"/>
</a>
</g>
</g>
<!-- Node4&#45;&gt;Node3 -->
<g id="edge20_Node000003_Node000004" class="edge">
<title>Node4&#45;&gt;Node3</title>
<g id="a_edge20_Node000003_Node000004"><a xlink:title=" ">
<path fill="none" stroke="#63b8ff" d="M1449.23,-213.37C1464.18,-243.62 1499.46,-298.71 1546.5,-323.25 1765.05,-437.25 2085.09,-345.98 2167.95,-313.29"/>
<polygon fill="#63b8ff" stroke="#63b8ff" points="1452.51,-212.11 1445.15,-204.48 1446.15,-215.03 1452.51,-212.11"/>
</a>
</g>
</g>
<!-- Node19 -->
<g id="Node000019" class="node">
<title>Node19</title>
<g id="a_Node000019"><a xlink:href="classdunedaq_1_1coredal_1_1VirtualHost.html" target="_top" xlink:title=" ">
<polygon fill="white" stroke="#666666" points="1977.5,-312.88 1835.5,-312.88 1835.5,-293.62 1977.5,-293.62 1977.5,-312.88"/>
<text text-anchor="middle" x="1906.5" y="-299.38" font-family="Helvetica,sans-Serif" font-size="10.00">dunedaq::coredal::VirtualHost</text>
</a>
</g>
</g>
<!-- Node4&#45;&gt;Node19 -->
<g id="edge22_Node000019_Node000004" class="edge">
<title>Node4&#45;&gt;Node19</title>
<g id="a_edge22_Node000019_Node000004"><a xlink:title=" ">
<path fill="none" stroke="#63b8ff" d="M1464.82,-210.98C1484.57,-228.52 1514.64,-253.89 1546.5,-266.25 1641.35,-303.06 1760.7,-304.38 1835.06,-302.77"/>
<polygon fill="#63b8ff" stroke="#63b8ff" points="1467.16,-208.38 1457.37,-204.32 1462.5,-213.6 1467.16,-208.38"/>
</a>
</g>
</g>
<!-- Node4&#45;&gt;Node19 -->
<g id="edge23_Node000019_Node000004" class="edge">
<title>Node4&#45;&gt;Node19</title>
<g id="a_edge23_Node000019_Node000004"><a xlink:title=" ">
<path fill="none" stroke="#63b8ff" d="M1453.04,-212.09C1470.99,-234.31 1507.4,-269.08 1546.5,-284.25 1653.88,-325.92 1792.66,-322.11 1862.01,-313.35"/>
<polygon fill="#63b8ff" stroke="#63b8ff" points="1456.05,-210.26 1447.25,-204.36 1450.45,-214.46 1456.05,-210.26"/>
</a>
</g>
</g>
<!-- Node20 -->
<g id="Node000020" class="node">
<title>Node20</title>
<g id="a_Node000020"><a xlink:href="classdunedaq_1_1coredal_1_1PhysicalHost.html" target="_top" xlink:title=" ">
<polygon fill="white" stroke="#666666" points="1697.5,-265.88 1546.5,-265.88 1546.5,-246.62 1697.5,-246.62 1697.5,-265.88"/>
<text text-anchor="middle" x="1622" y="-252.38" font-family="Helvetica,sans-Serif" font-size="10.00">dunedaq::coredal::PhysicalHost</text>
</a>
</g>
</g>
<!-- Node4&#45;&gt;Node20 -->
<g id="edge25_Node000020_Node000004" class="edge">
<title>Node4&#45;&gt;Node20</title>
<g id="a_edge25_Node000020_Node000004"><a xlink:title=" ">
<path fill="none" stroke="#63b8ff" d="M1489.81,-207.53C1507.42,-214.72 1527.62,-222.98 1546.5,-229.25 1566.2,-235.79 1589.55,-241.05 1604.8,-246.19"/>
<polygon fill="#63b8ff" stroke="#63b8ff" points="1491.21,-204.32 1480.63,-203.8 1488.57,-210.81 1491.21,-204.32"/>
</a>
</g>
</g>
<!-- Node4&#45;&gt;Node20 -->
<g id="edge26_Node000020_Node000004" class="edge">
<title>Node4&#45;&gt;Node20</title>
<g id="a_edge26_Node000020_Node000004"><a xlink:title=" ">
<path fill="none" stroke="#63b8ff" d="M1460.52,-209.25C1481.22,-221.42 1515.36,-236.87 1546.08,-247.11"/>
<polygon fill="#63b8ff" stroke="#63b8ff" points="1462.62,-206.43 1452.3,-204.04 1458.87,-212.35 1462.62,-206.43"/>
</a>
</g>
</g>
<!-- Node21 -->
<g id="Node000021" class="node">
<title>Node21</title>
<g id="a_Node000021"><a xlink:href="classdunedaq_1_1appdal_1_1SourceIDConf.html" target="_top" xlink:title=" ">
<polygon fill="white" stroke="#666666" points="1697.5,-228.88 1546.5,-228.88 1546.5,-209.62 1697.5,-209.62 1697.5,-228.88"/>
<text text-anchor="middle" x="1622" y="-215.38" font-family="Helvetica,sans-Serif" font-size="10.00">dunedaq::appdal::SourceIDConf</text>
</a>
</g>
</g>
<!-- Node4&#45;&gt;Node21 -->
<g id="edge29_Node000021_Node000004" class="edge">
<title>Node4&#45;&gt;Node21</title>
<g id="a_edge29_Node000021_Node000004"><a xlink:title=" ">
<path fill="none" stroke="#63b8ff" d="M1520.98,-198.06C1544.74,-201.32 1569.46,-205.35 1588.38,-209.18"/>
<polygon fill="#63b8ff" stroke="#63b8ff" points="1521.67,-194.62 1511.3,-196.78 1520.75,-201.56 1521.67,-194.62"/>
</a>
</g>
</g>
<!-- Node4&#45;&gt;Node21 -->
<g id="edge30_Node000021_Node000004" class="edge">
<title>Node4&#45;&gt;Node21</title>
<g id="a_edge30_Node000021_Node000004"><a xlink:title=" ">
<path fill="none" stroke="#63b8ff" d="M1485.14,-205.47C1503.52,-208.89 1525.43,-212.32 1546.23,-215.09"/>
<polygon fill="#63b8ff" stroke="#63b8ff" points="1485.87,-202.05 1475.39,-203.59 1484.54,-208.92 1485.87,-202.05"/>
</a>
</g>
</g>
<!-- Node22 -->
<g id="Node000022" class="node">
<title>Node22</title>
<g id="a_Node000022"><a xlink:href="classdunedaq_1_1appdal_1_1TPStreamWriterConf.html" target="_top" xlink:title=" ">
<polygon fill="white" stroke="#666666" points="2256.38,-187.5 2121.88,-187.5 2121.88,-157 2256.38,-157 2256.38,-187.5"/>
<text text-anchor="start" x="2129.88" y="-174" font-family="Helvetica,sans-Serif" font-size="10.00">dunedaq::appdal::TPStream</text>
<text text-anchor="middle" x="2189.12" y="-162.75" font-family="Helvetica,sans-Serif" font-size="10.00">WriterConf</text>
</a>
</g>
</g>
<!-- Node4&#45;&gt;Node22 -->
<g id="edge33_Node000022_Node000004" class="edge">
<title>Node4&#45;&gt;Node22</title>
<g id="a_edge33_Node000022_Node000004"><a xlink:title=" ">
<path fill="none" stroke="#63b8ff" d="M1521.18,-186.64C1669.25,-179.2 1983.92,-170.45 2121.45,-170.07"/>
<polygon fill="#63b8ff" stroke="#63b8ff" points="1521.27,-183.13 1511.47,-187.14 1521.63,-190.12 1521.27,-183.13"/>
</a>
</g>
</g>
<!-- Node4&#45;&gt;Node22 -->
<g id="edge34_Node000022_Node000004" class="edge">
<title>Node4&#45;&gt;Node22</title>
<g id="a_edge34_Node000022_Node000004"><a xlink:title=" ">
<path fill="none" stroke="#63b8ff" d="M1521.18,-195.37C1669.25,-194.49 1983.92,-185.53 2121.45,-178.18"/>
<polygon fill="#63b8ff" stroke="#63b8ff" points="1521.45,-191.87 1511.47,-195.42 1521.49,-198.87 1521.45,-191.87"/>
</a>
</g>
</g>
<!-- Node23 -->
<g id="Node000023" class="node">
<title>Node23</title>
<g id="a_Node000023"><a xlink:href="classdunedaq_1_1appdal_1_1DataStoreConf.html" target="_top" xlink:title=" ">
<polygon fill="white" stroke="#666666" points="1983.5,-125.88 1829.5,-125.88 1829.5,-106.62 1983.5,-106.62 1983.5,-125.88"/>
<text text-anchor="middle" x="1906.5" y="-112.38" font-family="Helvetica,sans-Serif" font-size="10.00">dunedaq::appdal::DataStoreConf</text>
</a>
</g>
</g>
<!-- Node4&#45;&gt;Node23 -->
<g id="edge36_Node000023_Node000004" class="edge">
<title>Node4&#45;&gt;Node23</title>
<g id="a_edge36_Node000023_Node000004"><a xlink:title=" ">
<path fill="none" stroke="#63b8ff" d="M1457.06,-176.17C1473.75,-163.42 1501.33,-147.77 1527.5,-140.25 1629.12,-111.06 1751.9,-105.5 1829.36,-107.63"/>
<polygon fill="#63b8ff" stroke="#63b8ff" points="1455.16,-173.19 1449.74,-182.29 1459.65,-178.56 1455.16,-173.19"/>
</a>
</g>
</g>
<!-- Node4&#45;&gt;Node23 -->
<g id="edge37_Node000023_Node000004" class="edge">
<title>Node4&#45;&gt;Node23</title>
<g id="a_edge37_Node000023_Node000004"><a xlink:title=" ">
<path fill="none" stroke="#63b8ff" d="M1479.77,-178.07C1494.23,-170.83 1511.14,-162.95 1527.5,-158.25 1629.12,-129.06 1751.9,-123.5 1829.36,-121.2"/>
<polygon fill="#63b8ff" stroke="#63b8ff" points="1478.39,-174.84 1471.07,-182.49 1481.57,-181.08 1478.39,-174.84"/>
</a>
</g>
</g>
<!-- Node24 -->
<g id="Node000024" class="node">
<title>Node24</title>
<g id="a_Node000024"><a xlink:href="classdunedaq_1_1appdal_1_1HDF5FileLayoutParams.html" target="_top" xlink:title=" ">
<polygon fill="white" stroke="#666666" points="1687.75,-79.5 1556.25,-79.5 1556.25,-49 1687.75,-49 1687.75,-79.5"/>
<text text-anchor="start" x="1564.25" y="-66" font-family="Helvetica,sans-Serif" font-size="10.00">dunedaq::appdal::HDF5File</text>
<text text-anchor="middle" x="1622" y="-54.75" font-family="Helvetica,sans-Serif" font-size="10.00">LayoutParams</text>
</a>
</g>
</g>
<!-- Node4&#45;&gt;Node24 -->
<g id="edge39_Node000024_Node000004" class="edge">
<title>Node4&#45;&gt;Node24</title>
<g id="a_edge39_Node000024_Node000004"><a xlink:title=" ">
<path fill="none" stroke="#63b8ff" d="M1450.04,-173.02C1463.77,-148.06 1492.6,-107.13 1527.5,-84.25 1536.17,-78.57 1546.02,-73.94 1555.99,-70.32"/>
<polygon fill="#63b8ff" stroke="#63b8ff" points="1446.94,-171.4 1445.51,-181.9 1453.17,-174.58 1446.94,-171.4"/>
</a>
</g>
</g>
<!-- Node4&#45;&gt;Node24 -->
<g id="edge40_Node000024_Node000004" class="edge">
<title>Node4&#45;&gt;Node24</title>
<g id="a_edge40_Node000024_Node000004"><a xlink:title=" ">
<path fill="none" stroke="#63b8ff" d="M1457.75,-174.11C1473.16,-153.42 1498.19,-121.47 1527.5,-102.25 1543.28,-91.91 1562.95,-85.08 1580.18,-79.93"/>
<polygon fill="#63b8ff" stroke="#63b8ff" points="1455.02,-171.92 1451.89,-182.04 1460.65,-176.08 1455.02,-171.92"/>
</a>
</g>
</g>
<!-- Node25 -->
<g id="Node000025" class="node">
<title>Node25</title>
<g id="a_Node000025"><a xlink:href="classdunedaq_1_1appdal_1_1FilenameParams.html" target="_top" xlink:title=" ">
<polygon fill="white" stroke="#666666" points="1687,-30.5 1557,-30.5 1557,0 1687,0 1687,-30.5"/>
<text text-anchor="start" x="1565" y="-17" font-family="Helvetica,sans-Serif" font-size="10.00">dunedaq::appdal::Filename</text>
<text text-anchor="middle" x="1622" y="-5.75" font-family="Helvetica,sans-Serif" font-size="10.00">Params</text>
</a>
</g>
</g>
<!-- Node4&#45;&gt;Node25 -->
<g id="edge42_Node000025_Node000004" class="edge">
<title>Node4&#45;&gt;Node25</title>
<g id="a_edge42_Node000025_Node000004"><a xlink:title=" ">
<path fill="none" stroke="#63b8ff" d="M1447.89,-172.76C1461.59,-138.06 1496.33,-69.1 1546.5,-31.25 1549.66,-28.87 1553.06,-26.7 1556.6,-24.75"/>
<polygon fill="#63b8ff" stroke="#63b8ff" points="1444.63,-171.48 1444.45,-182.07 1451.2,-173.9 1444.63,-171.48"/>
</a>
</g>
</g>
<!-- Node4&#45;&gt;Node25 -->
<g id="edge43_Node000025_Node000004" class="edge">
<title>Node4&#45;&gt;Node25</title>
<g id="a_edge43_Node000025_Node000004"><a xlink:title=" ">
<path fill="none" stroke="#63b8ff" d="M1452.89,-173.08C1469.05,-141.95 1501.59,-83.13 1546.5,-49.25 1557.5,-40.95 1571.42,-35.31 1584.24,-30.97"/>
<polygon fill="#63b8ff" stroke="#63b8ff" points="1449.83,-171.37 1448.37,-181.86 1456.06,-174.57 1449.83,-171.37"/>
</a>
</g>
</g>
<!-- Node5 -->
<g id="Node000005" class="node">
<title>Node5</title>
<g id="a_Node000005"><a xlink:href="classdunedaq_1_1conffwk_1_1Configuration.html" target="_top" xlink:title=" ">
<polygon fill="white" stroke="#666666" points="644.5,-202.88 492.75,-202.88 492.75,-183.62 644.5,-183.62 644.5,-202.88"/>
<text text-anchor="middle" x="568.62" y="-189.38" font-family="Helvetica,sans-Serif" font-size="10.00">dunedaq::conffwk::Configuration</text>
</a>
</g>
</g>
<!-- Node5&#45;&gt;Node4 -->
<g id="edge4_Node000004_Node000005" class="edge">
<title>Node5&#45;&gt;Node4</title>
<g id="a_edge4_Node000004_Node000005"><a xlink:title=" ">
<path fill="none" stroke="#9a32cd" stroke-dasharray="5,2" d="M656.09,-185.5C708.88,-181.42 777.79,-177.25 839,-177.25 839,-177.25 839,-177.25 1249.5,-177.25 1289.86,-177.25 1334.87,-180.88 1370.94,-184.69"/>
<polygon fill="#9a32cd" stroke="#9a32cd" points="655.94,-182 646.25,-186.28 656.49,-188.98 655.94,-182"/>
</a>
</g>
<text text-anchor="middle" x="1056.25" y="-179" font-family="Helvetica,sans-Serif" font-size="10.00" fill="grey"> p_db</text>
</g>
<!-- Node14 -->
<g id="Node000014" class="node">
<title>Node14</title>
<g id="a_Node000014"><a xlink:href="classdunedaq_1_1conffwk_1_1ConfigurationImpl.html" target="_top" xlink:title="Provides pure virtual interface used by the Configuration class.">
<polygon fill="white" stroke="#666666" points="925.25,-250.88 754.75,-250.88 754.75,-231.62 925.25,-231.62 925.25,-250.88"/>
<text text-anchor="middle" x="840" y="-237.38" font-family="Helvetica,sans-Serif" font-size="10.00">dunedaq::conffwk::ConfigurationImpl</text>
</a>
</g>
</g>
<!-- Node5&#45;&gt;Node14 -->
<g id="edge16_Node000014_Node000005" class="edge">
<title>Node5&#45;&gt;Node14</title>
<g id="a_edge16_Node000014_Node000005"><a xlink:title=" ">
<path fill="none" stroke="#9a32cd" stroke-dasharray="5,2" d="M608.91,-206.81C626.29,-212.35 647.1,-218.36 666.25,-222.25 694.78,-228.05 726.35,-232.18 754.61,-235.07"/>
<polygon fill="#9a32cd" stroke="#9a32cd" points="610.06,-203.5 599.47,-203.73 607.89,-210.16 610.06,-203.5"/>
</a>
</g>
<text text-anchor="middle" x="701.5" y="-234" font-family="Helvetica,sans-Serif" font-size="10.00" fill="grey"> m_conf</text>
</g>
<!-- Node6 -->
<g id="Node000006" class="node">
<title>Node6</title>
<g id="a_Node000006"><a xlink:href="classdunedaq_1_1conffwk_1_1map.html" target="_top" xlink:title=" ">
<polygon fill="white" stroke="#666666" points="355.88,-257.5 206.38,-257.5 206.38,-227 355.88,-227 355.88,-257.5"/>
<text text-anchor="start" x="214.38" y="-244" font-family="Helvetica,sans-Serif" font-size="10.00">dunedaq::conffwk::map</text>
<text text-anchor="middle" x="281.12" y="-232.75" font-family="Helvetica,sans-Serif" font-size="10.00">&lt; dunedaq::conffwk::class_t * &gt;</text>
</a>
</g>
</g>
<!-- Node6&#45;&gt;Node5 -->
<g id="edge5_Node000005_Node000006" class="edge">
<title>Node6&#45;&gt;Node5</title>
<g id="a_edge5_Node000005_Node000006"><a xlink:title=" ">
<path fill="none" stroke="#9a32cd" stroke-dasharray="5,2" d="M367.37,-234.46C399.95,-230.81 437.35,-225.79 471,-219.25 492.49,-215.07 516.23,-208.71 534.8,-203.32"/>
<polygon fill="#9a32cd" stroke="#9a32cd" points="367.12,-230.97 357.56,-235.53 367.88,-237.93 367.12,-230.97"/>
</a>
</g>
<text text-anchor="start" x="383.25" y="-267.75" font-family="Helvetica,sans-Serif" font-size="10.00" fill="grey"> p_all_classes_desc</text>
<text text-anchor="middle" x="427.12" y="-256.5" font-family="Helvetica,sans-Serif" font-size="10.00" fill="grey">_cache</text>
<text text-anchor="start" x="383.25" y="-245.25" font-family="Helvetica,sans-Serif" font-size="10.00" fill="grey">p_direct_classes</text>
<text text-anchor="middle" x="427.12" y="-234" font-family="Helvetica,sans-Serif" font-size="10.00" fill="grey">_desc_cache</text>
</g>
<!-- Node7 -->
<g id="Node000007" class="node">
<title>Node7</title>
<g id="a_Node000007"><a xlink:title=" ">
<polygon fill="white" stroke="#666666" points="134.12,-285.12 25.88,-285.12 25.88,-243.38 134.12,-243.38 134.12,-285.12"/>
<text text-anchor="start" x="33.88" y="-271.62" font-family="Helvetica,sans-Serif" font-size="10.00">std::unordered_map</text>
<text text-anchor="start" x="33.88" y="-260.38" font-family="Helvetica,sans-Serif" font-size="10.00">&lt; std::string, dunedaq</text>
<text text-anchor="middle" x="80" y="-249.12" font-family="Helvetica,sans-Serif" font-size="10.00">::conffwk::class_t * &gt;</text>
</a>
</g>
</g>
<!-- Node7&#45;&gt;Node6 -->
<g id="edge6_Node000006_Node000007" class="edge">
<title>Node7&#45;&gt;Node6</title>
<g id="a_edge6_Node000006_Node000007"><a xlink:title=" ">
<path fill="none" stroke="#63b8ff" d="M146.01,-257.07C165.25,-254.94 186.45,-252.6 206.21,-250.42"/>
<polygon fill="#63b8ff" stroke="#63b8ff" points="145.68,-253.58 136.13,-258.16 146.45,-260.54 145.68,-253.58"/>
</a>
</g>
</g>
<!-- Node8 -->
<g id="Node000008" class="node">
<title>Node8</title>
<g id="a_Node000008"><a xlink:href="classdunedaq_1_1conffwk_1_1fmap.html" target="_top" xlink:title=" ">
<polygon fill="white" stroke="#666666" points="339.75,-208.5 222.5,-208.5 222.5,-178 339.75,-178 339.75,-208.5"/>
<text text-anchor="start" x="230.5" y="-195" font-family="Helvetica,sans-Serif" font-size="10.00">dunedaq::conffwk::fmap</text>
<text text-anchor="middle" x="281.12" y="-183.75" font-family="Helvetica,sans-Serif" font-size="10.00">&lt; conffwk::fset &gt;</text>
</a>
</g>
</g>
<!-- Node8&#45;&gt;Node5 -->
<g id="edge7_Node000005_Node000008" class="edge">
<title>Node8&#45;&gt;Node5</title>
<g id="a_edge7_Node000005_Node000008"><a xlink:title=" ">
<path fill="none" stroke="#9a32cd" stroke-dasharray="5,2" d="M351.65,-193.25C394.28,-193.25 448.86,-193.25 492.49,-193.25"/>
<polygon fill="#9a32cd" stroke="#9a32cd" points="351.76,-189.75 341.76,-193.25 351.76,-196.75 351.76,-189.75"/>
</a>
</g>
<text text-anchor="middle" x="427.12" y="-206.25" font-family="Helvetica,sans-Serif" font-size="10.00" fill="grey"> p_subclasses</text>
<text text-anchor="middle" x="427.12" y="-195" font-family="Helvetica,sans-Serif" font-size="10.00" fill="grey">p_superclasses</text>
</g>
<!-- Node9 -->
<g id="Node000009" class="node">
<title>Node9</title>
<g id="a_Node000009"><a xlink:title=" ">
<polygon fill="white" stroke="#666666" points="136.75,-225.75 23.25,-225.75 23.25,-172.75 136.75,-172.75 136.75,-225.75"/>
<text text-anchor="start" x="31.25" y="-212.25" font-family="Helvetica,sans-Serif" font-size="10.00">std::unordered_map</text>
<text text-anchor="start" x="31.25" y="-201" font-family="Helvetica,sans-Serif" font-size="10.00">&lt; const std::string</text>
<text text-anchor="start" x="31.25" y="-189.75" font-family="Helvetica,sans-Serif" font-size="10.00"> *, conffwk::fset , string</text>
<text text-anchor="middle" x="80" y="-178.5" font-family="Helvetica,sans-Serif" font-size="10.00">_ptr_hash &gt;</text>
</a>
</g>
</g>
<!-- Node9&#45;&gt;Node8 -->
<g id="edge8_Node000008_Node000009" class="edge">
<title>Node9&#45;&gt;Node8</title>
<g id="a_edge8_Node000008_Node000009"><a xlink:title=" ">
<path fill="none" stroke="#63b8ff" d="M148.49,-197.22C172.4,-196.5 199.07,-195.69 222.12,-195"/>
<polygon fill="#63b8ff" stroke="#63b8ff" points="148.4,-193.72 138.51,-197.52 148.61,-200.71 148.4,-193.72"/>
</a>
</g>
</g>
<!-- Node10 -->
<g id="Node000010" class="node">
<title>Node10</title>
<g id="a_Node000010"><a xlink:href="classdunedaq_1_1conffwk_1_1map.html" target="_top" xlink:title=" ">
<polygon fill="white" stroke="#666666" points="342,-157.38 220.25,-157.38 220.25,-93.12 342,-93.12 342,-157.38"/>
<text text-anchor="start" x="228.25" y="-143.88" font-family="Helvetica,sans-Serif" font-size="10.00">dunedaq::conffwk::map</text>
<text text-anchor="start" x="228.25" y="-132.62" font-family="Helvetica,sans-Serif" font-size="10.00">&lt; std::list&lt; dunedaq</text>
<text text-anchor="start" x="228.25" y="-121.38" font-family="Helvetica,sans-Serif" font-size="10.00">::conffwk::Configuration</text>
<text text-anchor="start" x="228.25" y="-110.12" font-family="Helvetica,sans-Serif" font-size="10.00">::AttributeConverterBase</text>
<text text-anchor="middle" x="281.12" y="-98.88" font-family="Helvetica,sans-Serif" font-size="10.00"> * &gt; * &gt;</text>
</a>
</g>
</g>
<!-- Node10&#45;&gt;Node5 -->
<g id="edge9_Node000005_Node000010" class="edge">
<title>Node10&#45;&gt;Node5</title>
<g id="a_edge9_Node000005_Node000010"><a xlink:title=" ">
<path fill="none" stroke="#9a32cd" stroke-dasharray="5,2" d="M353.25,-142.19C407.46,-155.1 480.26,-172.44 525.55,-183.23"/>
<polygon fill="#9a32cd" stroke="#9a32cd" points="354.33,-138.85 343.8,-139.94 352.71,-145.66 354.33,-138.85"/>
</a>
</g>
<text text-anchor="middle" x="427.12" y="-171" font-family="Helvetica,sans-Serif" font-size="10.00" fill="grey"> m_convert_map</text>
</g>
<!-- Node11 -->
<g id="Node000011" class="node">
<title>Node11</title>
<g id="a_Node000011"><a xlink:title=" ">
<polygon fill="white" stroke="#666666" points="160,-154.38 0,-154.38 0,-90.12 160,-90.12 160,-154.38"/>
<text text-anchor="start" x="8" y="-140.88" font-family="Helvetica,sans-Serif" font-size="10.00">std::unordered_map</text>
<text text-anchor="start" x="8" y="-129.62" font-family="Helvetica,sans-Serif" font-size="10.00">&lt; std::string, std::</text>
<text text-anchor="start" x="8" y="-118.38" font-family="Helvetica,sans-Serif" font-size="10.00">list&lt; dunedaq::conffwk</text>
<text text-anchor="start" x="8" y="-107.12" font-family="Helvetica,sans-Serif" font-size="10.00">::Configuration::AttributeConverter</text>
<text text-anchor="middle" x="80" y="-95.88" font-family="Helvetica,sans-Serif" font-size="10.00">Base * &gt; * &gt;</text>
</a>
</g>
</g>
<!-- Node11&#45;&gt;Node10 -->
<g id="edge10_Node000010_Node000011" class="edge">
<title>Node11&#45;&gt;Node10</title>
<g id="a_edge10_Node000010_Node000011"><a xlink:title=" ">
<path fill="none" stroke="#63b8ff" d="M171.53,-123.61C187.91,-123.86 204.61,-124.11 219.85,-124.34"/>
<polygon fill="#63b8ff" stroke="#63b8ff" points="171.84,-120.12 161.78,-123.47 171.73,-127.12 171.84,-120.12"/>
</a>
</g>
</g>
<!-- Node12 -->
<g id="Node000012" class="node">
<title>Node12</title>
<g id="a_Node000012"><a xlink:href="classdunedaq_1_1conffwk_1_1fmap.html" target="_top" xlink:title=" ">
<polygon fill="white" stroke="#666666" points="365.25,-67.5 197,-67.5 197,-37 365.25,-37 365.25,-67.5"/>
<text text-anchor="start" x="205" y="-54" font-family="Helvetica,sans-Serif" font-size="10.00">dunedaq::conffwk::fmap</text>
<text text-anchor="middle" x="281.12" y="-42.75" font-family="Helvetica,sans-Serif" font-size="10.00">&lt; dunedaq::conffwk::CacheBase * &gt;</text>
</a>
</g>
</g>
<!-- Node12&#45;&gt;Node5 -->
<g id="edge11_Node000005_Node000012" class="edge">
<title>Node12&#45;&gt;Node5</title>
<g id="a_edge11_Node000005_Node000012"><a xlink:title=" ">
<path fill="none" stroke="#9a32cd" stroke-dasharray="5,2" d="M335.34,-72.01C345.34,-75.93 355.66,-80.11 365.25,-84.25 413.11,-104.91 425.12,-110.24 471,-135 500.3,-150.82 533.3,-171.31 552.16,-183.3"/>
<polygon fill="#9a32cd" stroke="#9a32cd" points="336.68,-68.77 326.09,-68.43 334.15,-75.3 336.68,-68.77"/>
</a>
</g>
<text text-anchor="middle" x="427.12" y="-136" font-family="Helvetica,sans-Serif" font-size="10.00" fill="grey"> m_cache_map</text>
</g>
<!-- Node13 -->
<g id="Node000013" class="node">
<title>Node13</title>
<g id="a_Node000013"><a xlink:title=" ">
<polygon fill="white" stroke="#666666" points="133,-72.38 27,-72.38 27,-8.12 133,-8.12 133,-72.38"/>
<text text-anchor="start" x="35" y="-58.88" font-family="Helvetica,sans-Serif" font-size="10.00">std::unordered_map</text>
<text text-anchor="start" x="35" y="-47.62" font-family="Helvetica,sans-Serif" font-size="10.00">&lt; const std::string</text>
<text text-anchor="start" x="35" y="-36.38" font-family="Helvetica,sans-Serif" font-size="10.00"> *, dunedaq::conffwk</text>
<text text-anchor="start" x="35" y="-25.12" font-family="Helvetica,sans-Serif" font-size="10.00">::CacheBase *, string</text>
<text text-anchor="middle" x="80" y="-13.88" font-family="Helvetica,sans-Serif" font-size="10.00">_ptr_hash &gt;</text>
</a>
</g>
</g>
<!-- Node13&#45;&gt;Node12 -->
<g id="edge12_Node000012_Node000013" class="edge">
<title>Node13&#45;&gt;Node12</title>
<g id="a_edge12_Node000012_Node000013"><a xlink:title=" ">
<path fill="none" stroke="#63b8ff" d="M144.51,-44.08C161.06,-45.07 179.16,-46.17 196.58,-47.22"/>
<polygon fill="#63b8ff" stroke="#63b8ff" points="145.02,-40.6 134.83,-43.49 144.6,-47.59 145.02,-40.6"/>
</a>
</g>
</g>
<!-- Node14&#45;&gt;Node5 -->
<g id="edge13_Node000005_Node000014" class="edge">
<title>Node14&#45;&gt;Node5</title>
<g id="a_edge13_Node000005_Node000014"><a xlink:title=" ">
<path fill="none" stroke="#9a32cd" stroke-dasharray="5,2" d="M799.43,-227.72C780.64,-221.76 757.75,-215.18 736.75,-211 706.99,-205.07 673.83,-201.03 644.94,-198.32"/>
<polygon fill="#9a32cd" stroke="#9a32cd" points="798.23,-231.01 808.82,-230.76 800.39,-224.35 798.23,-231.01"/>
</a>
</g>
<text text-anchor="middle" x="701.5" y="-212" font-family="Helvetica,sans-Serif" font-size="10.00" fill="grey"> m_impl</text>
</g>
<!-- Node18 -->
<g id="Node000018" class="node">
<title>Node18</title>
<g id="a_Node000018"><a xlink:href="classdunedaq_1_1conffwk_1_1ConfigObjectImpl.html" target="_top" xlink:title="Implements database objects.">
<polygon fill="white" stroke="#666666" points="1117.5,-248.5 995,-248.5 995,-218 1117.5,-218 1117.5,-248.5"/>
<text text-anchor="start" x="1003" y="-235" font-family="Helvetica,sans-Serif" font-size="10.00">dunedaq::conffwk::Config</text>
<text text-anchor="middle" x="1056.25" y="-223.75" font-family="Helvetica,sans-Serif" font-size="10.00">ObjectImpl</text>
</a>
</g>
</g>
<!-- Node14&#45;&gt;Node18 -->
<g id="edge19_Node000018_Node000014" class="edge">
<title>Node14&#45;&gt;Node18</title>
<g id="a_edge19_Node000018_Node000014"><a xlink:title=" ">
<path fill="none" stroke="#9a32cd" stroke-dasharray="5,2" d="M937.12,-237.66C956.67,-236.93 976.73,-236.18 994.63,-235.51"/>
<polygon fill="#9a32cd" stroke="#9a32cd" points="937.05,-234.16 927.19,-238.03 937.31,-241.16 937.05,-234.16"/>
</a>
</g>
<text text-anchor="middle" x="960.12" y="-239" font-family="Helvetica,sans-Serif" font-size="10.00" fill="grey"> m_impl</text>
</g>
<!-- Node15 -->
<g id="Node000015" class="node">
<title>Node15</title>
<g id="a_Node000015"><a xlink:href="classdunedaq_1_1conffwk_1_1pmap.html" target="_top" xlink:title=" ">
<polygon fill="white" stroke="#666666" points="648.25,-325.75 489,-325.75 489,-272.75 648.25,-272.75 648.25,-325.75"/>
<text text-anchor="start" x="497" y="-312.25" font-family="Helvetica,sans-Serif" font-size="10.00">dunedaq::conffwk::pmap</text>
<text text-anchor="start" x="497" y="-301" font-family="Helvetica,sans-Serif" font-size="10.00">&lt; dunedaq::conffwk::map</text>
<text text-anchor="start" x="497" y="-289.75" font-family="Helvetica,sans-Serif" font-size="10.00">&lt; dunedaq::conffwk::ConfigObject</text>
<text text-anchor="middle" x="568.62" y="-278.5" font-family="Helvetica,sans-Serif" font-size="10.00">Impl * &gt; * &gt;</text>
</a>
</g>
</g>
<!-- Node15&#45;&gt;Node14 -->
<g id="edge14_Node000014_Node000015" class="edge">
<title>Node15&#45;&gt;Node14</title>
<g id="a_edge14_Node000014_Node000015"><a xlink:title=" ">
<path fill="none" stroke="#9a32cd" stroke-dasharray="5,2" d="M659.73,-279.85C704.05,-270.31 755.64,-259.2 792.07,-251.36"/>
<polygon fill="#9a32cd" stroke="#9a32cd" points="659.15,-276.39 650.11,-281.92 660.62,-283.24 659.15,-276.39"/>
</a>
</g>
<text text-anchor="middle" x="701.5" y="-278" font-family="Helvetica,sans-Serif" font-size="10.00" fill="grey"> m_impl_objects</text>
</g>
<!-- Node16 -->
<g id="Node000016" class="node">
<title>Node16</title>
<g id="a_Node000016"><a xlink:title=" ">
<polygon fill="white" stroke="#666666" points="348.75,-339.38 213.5,-339.38 213.5,-275.12 348.75,-275.12 348.75,-339.38"/>
<text text-anchor="start" x="221.5" y="-325.88" font-family="Helvetica,sans-Serif" font-size="10.00">std::map&lt; const std</text>
<text text-anchor="start" x="221.5" y="-314.62" font-family="Helvetica,sans-Serif" font-size="10.00">::string *, dunedaq</text>
<text text-anchor="start" x="221.5" y="-303.38" font-family="Helvetica,sans-Serif" font-size="10.00">::conffwk::map&lt; dunedaq</text>
<text text-anchor="start" x="221.5" y="-292.12" font-family="Helvetica,sans-Serif" font-size="10.00">::conffwk::ConfigObjectImpl</text>
<text text-anchor="middle" x="281.12" y="-280.88" font-family="Helvetica,sans-Serif" font-size="10.00"> * &gt; * , string_ptr_compare &gt;</text>
</a>
</g>
</g>
<!-- Node16&#45;&gt;Node15 -->
<g id="edge15_Node000015_Node000016" class="edge">
<title>Node16&#45;&gt;Node15</title>
<g id="a_edge15_Node000015_Node000016"><a xlink:title=" ">
<path fill="none" stroke="#63b8ff" d="M360.35,-305.06C400.25,-303.94 448.68,-302.58 488.69,-301.46"/>
<polygon fill="#63b8ff" stroke="#63b8ff" points="360.47,-301.55 350.58,-305.33 360.67,-308.55 360.47,-301.55"/>
</a>
</g>
</g>
<!-- Node17 -->
<g id="Node000017" class="node">
<title>Node17</title>
<g id="a_Node000017"><a xlink:href="classdunedaq_1_1conffwk_1_1ConfigObject.html" target="_top" xlink:title="Represents database objects.">
<polygon fill="white" stroke="#666666" points="1309.75,-236.5 1187.25,-236.5 1187.25,-206 1309.75,-206 1309.75,-236.5"/>
<text text-anchor="start" x="1195.25" y="-223" font-family="Helvetica,sans-Serif" font-size="10.00">dunedaq::conffwk::Config</text>
<text text-anchor="middle" x="1248.5" y="-211.75" font-family="Helvetica,sans-Serif" font-size="10.00">Object</text>
</a>
</g>
</g>
<!-- Node17&#45;&gt;Node4 -->
<g id="edge17_Node000004_Node000017" class="edge">
<title>Node17&#45;&gt;Node4</title>
<g id="a_edge17_Node000004_Node000017"><a xlink:title=" ">
<path fill="none" stroke="#9a32cd" stroke-dasharray="5,2" d="M1321.17,-210.68C1337.43,-208.28 1354.65,-205.74 1370.77,-203.37"/>
<polygon fill="#9a32cd" stroke="#9a32cd" points="1320.98,-207.17 1311.6,-212.09 1322,-214.1 1320.98,-207.17"/>
</a>
</g>
<text text-anchor="middle" x="1340.5" y="-210" font-family="Helvetica,sans-Serif" font-size="10.00" fill="grey"> p_obj</text>
</g>
<!-- Node18&#45;&gt;Node17 -->
<g id="edge18_Node000017_Node000018" class="edge">
<title>Node18&#45;&gt;Node17</title>
<g id="a_edge18_Node000017_Node000018"><a xlink:title=" ">
<path fill="none" stroke="#9a32cd" stroke-dasharray="5,2" d="M1129.31,-228.7C1148.34,-227.5 1168.68,-226.22 1187.03,-225.06"/>
<polygon fill="#9a32cd" stroke="#9a32cd" points="1129.24,-225.2 1119.48,-229.32 1129.68,-232.19 1129.24,-225.2"/>
</a>
</g>
<text text-anchor="middle" x="1152.38" y="-229" font-family="Helvetica,sans-Serif" font-size="10.00" fill="grey"> m_impl</text>
</g>
<!-- Node19&#45;&gt;Node3 -->
<g id="edge21_Node000003_Node000019" class="edge">
<title>Node19&#45;&gt;Node3</title>
<g id="a_edge21_Node000003_Node000019"><a xlink:title=" ">
<path fill="none" stroke="#9a32cd" stroke-dasharray="5,2" d="M1989.25,-303.25C2030.1,-303.25 2079.03,-303.25 2118.13,-303.25"/>
<polygon fill="#9a32cd" stroke="#9a32cd" points="1989.46,-299.75 1979.46,-303.25 1989.46,-306.75 1989.46,-299.75"/>
</a>
</g>
<text text-anchor="middle" x="2051" y="-305" font-family="Helvetica,sans-Serif" font-size="10.00" fill="grey"> m_runs_on</text>
</g>
<!-- Node20&#45;&gt;Node19 -->
<g id="edge24_Node000019_Node000020" class="edge">
<title>Node20&#45;&gt;Node19</title>
<g id="a_edge24_Node000019_Node000020"><a xlink:title=" ">
<path fill="none" stroke="#9a32cd" stroke-dasharray="5,2" d="M1709.21,-256.98C1741.57,-258.59 1778.49,-262.02 1811.5,-269 1836.99,-274.39 1864.88,-285.22 1883.61,-293.27"/>
<polygon fill="#9a32cd" stroke="#9a32cd" points="1709.63,-253.5 1699.49,-256.55 1709.32,-260.49 1709.63,-253.5"/>
</a>
</g>
<text text-anchor="middle" x="1763.5" y="-270" font-family="Helvetica,sans-Serif" font-size="10.00" fill="grey"> m_runs_on</text>
</g>
<!-- Node21&#45;&gt;Node2 -->
<g id="edge28_Node000002_Node000021" class="edge">
<title>Node21&#45;&gt;Node2</title>
<g id="a_edge28_Node000002_Node000021"><a xlink:title=" ">
<path fill="none" stroke="#9a32cd" stroke-dasharray="5,2" d="M1709.34,-221.7C1858.71,-225.94 2162.16,-234.56 2296.31,-238.37"/>
<polygon fill="#9a32cd" stroke="#9a32cd" points="1709.6,-218.21 1699.5,-221.42 1709.4,-225.2 1709.6,-218.21"/>
</a>
</g>
<text text-anchor="middle" x="2051" y="-234" font-family="Helvetica,sans-Serif" font-size="10.00" fill="grey"> m_source_id</text>
</g>
<!-- Node22&#45;&gt;Node1 -->
<g id="edge32_Node000001_Node000022" class="edge">
<title>Node22&#45;&gt;Node1</title>
<g id="a_edge32_Node000001_Node000022"><a xlink:title=" ">
<path fill="none" stroke="#9a32cd" stroke-dasharray="5,2" d="M2268.24,-179.03C2315.6,-184.09 2377.02,-192.35 2430.5,-205 2451.7,-210.01 2474.69,-217.64 2493.58,-224.51"/>
<polygon fill="#9a32cd" stroke="#9a32cd" points="2268.63,-175.55 2258.33,-178 2267.91,-182.51 2268.63,-175.55"/>
</a>
</g>
<text text-anchor="middle" x="2363.62" y="-206" font-family="Helvetica,sans-Serif" font-size="10.00" fill="grey"> m_tp_writer</text>
</g>
<!-- Node23&#45;&gt;Node22 -->
<g id="edge35_Node000022_Node000023" class="edge">
<title>Node23&#45;&gt;Node22</title>
<g id="a_edge35_Node000022_Node000023"><a xlink:title=" ">
<path fill="none" stroke="#9a32cd" stroke-dasharray="5,2" d="M1995.04,-121.27C2028.39,-124.44 2066.53,-129.6 2100.5,-138 2118.73,-142.51 2138.27,-149.88 2154.26,-156.63"/>
<polygon fill="#9a32cd" stroke="#9a32cd" points="1995.71,-117.81 1985.43,-120.4 1995.08,-124.78 1995.71,-117.81"/>
</a>
</g>
<text text-anchor="middle" x="2051" y="-139" font-family="Helvetica,sans-Serif" font-size="10.00" fill="grey"> m_data_store_params</text>
</g>
<!-- Node24&#45;&gt;Node23 -->
<g id="edge38_Node000023_Node000024" class="edge">
<title>Node24&#45;&gt;Node23</title>
<g id="a_edge38_Node000023_Node000024"><a xlink:title=" ">
<path fill="none" stroke="#9a32cd" stroke-dasharray="5,2" d="M1699.64,-67.02C1734.14,-69.4 1775.2,-73.82 1811.5,-82 1836.75,-87.69 1864.45,-98.36 1883.19,-106.28"/>
<polygon fill="#9a32cd" stroke="#9a32cd" points="1699.92,-63.53 1689.71,-66.39 1699.47,-70.52 1699.92,-63.53"/>
</a>
</g>
<text text-anchor="middle" x="1763.5" y="-83" font-family="Helvetica,sans-Serif" font-size="10.00" fill="grey"> m_file_layout_params</text>
</g>
<!-- Node25&#45;&gt;Node23 -->
<g id="edge41_Node000023_Node000025" class="edge">
<title>Node25&#45;&gt;Node23</title>
<g id="a_edge41_Node000023_Node000025"><a xlink:title=" ">
<path fill="none" stroke="#9a32cd" stroke-dasharray="5,2" d="M1698.45,-23.41C1733.75,-28.96 1775.78,-38.11 1811.5,-53 1844,-66.55 1877.01,-92.07 1893.92,-106.2"/>
<polygon fill="#9a32cd" stroke="#9a32cd" points="1699.15,-19.98 1688.74,-21.96 1698.11,-26.9 1699.15,-19.98"/>
</a>
</g>
<text text-anchor="middle" x="1763.5" y="-55" font-family="Helvetica,sans-Serif" font-size="10.00" fill="grey"> m_filename_params</text>
</g>
</g>
</svg>
