<?xml version="1.0" encoding="UTF-8" standalone="no"?>
<!DOCTYPE svg PUBLIC "-//W3C//DTD SVG 1.1//EN"
 "http://www.w3.org/Graphics/SVG/1.1/DTD/svg11.dtd">
<!-- Generated by graphviz version 9.0.0 (20230911.1827)
 -->
<!-- Title: dunedaq::appdal::NICReceiverConf Pages: 1 -->
<svg width="174pt" height="138pt"
 viewBox="0.00 0.00 174.00 137.75" xmlns="http://www.w3.org/2000/svg" xmlns:xlink="http://www.w3.org/1999/xlink">
<g id="graph0" class="graph" transform="scale(1 1) rotate(0) translate(4 133.75)">
<title>dunedaq::appdal::NICReceiverConf</title>
<!-- Node1 -->
<g id="Node000001" class="node">
<title>Node1</title>
<g id="a_Node000001"><a xlink:title=" ">
<polygon fill="#999999" stroke="#666666" points="166,-19.25 0,-19.25 0,0 166,0 166,-19.25"/>
<text text-anchor="middle" x="83" y="-5.75" font-family="Helvetica,sans-Serif" font-size="10.00">dunedaq::appdal::NICReceiverConf</text>
</a>
</g>
</g>
<!-- Node2 -->
<g id="Node000002" class="node">
<title>Node2</title>
<g id="a_Node000002"><a xlink:href="classdunedaq_1_1appdal_1_1DataReaderConf.html" target="_top" xlink:title=" ">
<polygon fill="white" stroke="#666666" points="163.75,-74.5 2.25,-74.5 2.25,-55.25 163.75,-55.25 163.75,-74.5"/>
<text text-anchor="middle" x="83" y="-61" font-family="Helvetica,sans-Serif" font-size="10.00">dunedaq::appdal::DataReaderConf</text>
</a>
</g>
</g>
<!-- Node2&#45;&gt;Node1 -->
<g id="edge1_Node000001_Node000002" class="edge">
<title>Node2&#45;&gt;Node1</title>
<g id="a_edge1_Node000001_Node000002"><a xlink:title=" ">
<path fill="none" stroke="#63b8ff" d="M76.44,-43.92C75.95,-35.55 76.4,-26.25 77.79,-19.61"/>
<polygon fill="#63b8ff" stroke="#63b8ff" points="72.94,-44.09 77.65,-53.58 79.88,-43.22 72.94,-44.09"/>
</a>
</g>
</g>
<!-- Node2&#45;&gt;Node1 -->
<g id="edge4_Node000001_Node000002" class="edge">
<title>Node2&#45;&gt;Node1</title>
<g id="a_edge4_Node000001_Node000002"><a xlink:title=" ">
<path fill="none" stroke="#63b8ff" d="M89.56,-43.92C90.05,-35.55 89.6,-26.25 88.21,-19.61"/>
<polygon fill="#63b8ff" stroke="#63b8ff" points="86.12,-43.22 88.35,-53.58 93.06,-44.09 86.12,-43.22"/>
</a>
</g>
</g>
<!-- Node3 -->
<g id="Node000003" class="node">
<title>Node3</title>
<g id="a_Node000003"><a xlink:href="classdunedaq_1_1conffwk_1_1DalObject.html" target="_top" xlink:title="The base class for any generated DAL object.">
<polygon fill="white" stroke="#666666" points="152.12,-129.75 13.88,-129.75 13.88,-110.5 152.12,-110.5 152.12,-129.75"/>
<text text-anchor="middle" x="83" y="-116.25" font-family="Helvetica,sans-Serif" font-size="10.00">dunedaq::conffwk::DalObject</text>
</a>
</g>
</g>
<!-- Node3&#45;&gt;Node2 -->
<g id="edge2_Node000002_Node000003" class="edge">
<title>Node3&#45;&gt;Node2</title>
<g id="a_edge2_Node000002_Node000003"><a xlink:title=" ">
<path fill="none" stroke="#63b8ff" d="M76.44,-99.17C75.95,-90.8 76.4,-81.5 77.79,-74.86"/>
<polygon fill="#63b8ff" stroke="#63b8ff" points="72.94,-99.34 77.65,-108.83 79.88,-98.47 72.94,-99.34"/>
</a>
</g>
</g>
<!-- Node3&#45;&gt;Node2 -->
<g id="edge3_Node000002_Node000003" class="edge">
<title>Node3&#45;&gt;Node2</title>
<g id="a_edge3_Node000002_Node000003"><a xlink:title=" ">
<path fill="none" stroke="#63b8ff" d="M89.56,-99.17C90.05,-90.8 89.6,-81.5 88.21,-74.86"/>
<polygon fill="#63b8ff" stroke="#63b8ff" points="86.12,-98.47 88.35,-108.83 93.06,-99.34 86.12,-98.47"/>
</a>
</g>
</g>
</g>
</svg>
