<?xml version="1.0" encoding="UTF-8" standalone="no"?>
<!DOCTYPE svg PUBLIC "-//W3C//DTD SVG 1.1//EN"
 "http://www.w3.org/Graphics/SVG/1.1/DTD/svg11.dtd">
<!-- Generated by graphviz version 9.0.0 (20230911.1827)
 -->
<!-- Title: dunedaq::appdal::ReadoutModuleConf Pages: 1 -->
<svg width="2209pt" height="339pt"
 viewBox="0.00 0.00 2208.50 339.25" xmlns="http://www.w3.org/2000/svg" xmlns:xlink="http://www.w3.org/1999/xlink">
<g id="graph0" class="graph" transform="scale(1 1) rotate(0) translate(4 335.25)">
<title>dunedaq::appdal::ReadoutModuleConf</title>
<!-- Node1 -->
<g id="Node000001" class="node">
<title>Node1</title>
<g id="a_Node000001"><a xlink:title=" ">
<polygon fill="#999999" stroke="#666666" points="2200.5,-247.38 2074.25,-247.38 2074.25,-216.88 2200.5,-216.88 2200.5,-247.38"/>
<text text-anchor="start" x="2082.25" y="-233.88" font-family="Helvetica,sans-Serif" font-size="10.00">dunedaq::appdal::Readout</text>
<text text-anchor="middle" x="2137.38" y="-222.62" font-family="Helvetica,sans-Serif" font-size="10.00">ModuleConf</text>
</a>
</g>
</g>
<!-- Node2 -->
<g id="Node000002" class="node">
<title>Node2</title>
<g id="a_Node000002"><a xlink:href="classdunedaq_1_1conffwk_1_1DalObject.html" target="_top" xlink:title="The base class for any generated DAL object.">
<polygon fill="white" stroke="#666666" points="1509.5,-194.75 1371.25,-194.75 1371.25,-175.5 1509.5,-175.5 1509.5,-194.75"/>
<text text-anchor="middle" x="1440.38" y="-181.25" font-family="Helvetica,sans-Serif" font-size="10.00">dunedaq::conffwk::DalObject</text>
</a>
</g>
</g>
<!-- Node2&#45;&gt;Node1 -->
<g id="edge1_Node000001_Node000002" class="edge">
<title>Node2&#45;&gt;Node1</title>
<g id="a_edge1_Node000001_Node000002"><a xlink:title=" ">
<path fill="none" stroke="#63b8ff" d="M1475.28,-200.63C1495.1,-211.91 1521.15,-225.97 1546.5,-233.12 1732.56,-285.63 1964.92,-255.27 2074.16,-239.31"/>
<polygon fill="#63b8ff" stroke="#63b8ff" points="1477.25,-197.73 1466.83,-195.8 1473.77,-203.8 1477.25,-197.73"/>
</a>
</g>
</g>
<!-- Node2&#45;&gt;Node1 -->
<g id="edge18_Node000001_Node000002" class="edge">
<title>Node2&#45;&gt;Node1</title>
<g id="a_edge18_Node000001_Node000002"><a xlink:title=" ">
<path fill="none" stroke="#63b8ff" d="M1456.84,-202.68C1476.54,-219.06 1512.16,-241.43 1546.5,-251.12 1738.72,-305.37 1980.36,-271.17 2084.6,-247.82"/>
<polygon fill="#63b8ff" stroke="#63b8ff" points="1459.43,-200.3 1449.65,-196.22 1454.75,-205.51 1459.43,-200.3"/>
</a>
</g>
</g>
<!-- Node17 -->
<g id="Node000017" class="node">
<title>Node17</title>
<g id="a_Node000017"><a xlink:href="classdunedaq_1_1appdal_1_1RequestHandler.html" target="_top" xlink:title=" ">
<polygon fill="white" stroke="#666666" points="1953.5,-247.38 1827.25,-247.38 1827.25,-216.88 1953.5,-216.88 1953.5,-247.38"/>
<text text-anchor="start" x="1835.25" y="-233.88" font-family="Helvetica,sans-Serif" font-size="10.00">dunedaq::appdal::Request</text>
<text text-anchor="middle" x="1890.38" y="-222.62" font-family="Helvetica,sans-Serif" font-size="10.00">Handler</text>
</a>
</g>
</g>
<!-- Node2&#45;&gt;Node17 -->
<g id="edge20_Node000017_Node000002" class="edge">
<title>Node2&#45;&gt;Node17</title>
<g id="a_edge20_Node000017_Node000002"><a xlink:title=" ">
<path fill="none" stroke="#63b8ff" d="M1518.46,-197.49C1521.5,-198.08 1524.52,-198.63 1527.5,-199.12 1631.56,-216.3 1754.37,-221.28 1826.84,-225.18"/>
<polygon fill="#63b8ff" stroke="#63b8ff" points="1519.38,-194.11 1508.87,-195.5 1517.95,-200.96 1519.38,-194.11"/>
</a>
</g>
</g>
<!-- Node2&#45;&gt;Node17 -->
<g id="edge21_Node000017_Node000002" class="edge">
<title>Node2&#45;&gt;Node17</title>
<g id="a_edge21_Node000017_Node000002"><a xlink:title=" ">
<path fill="none" stroke="#63b8ff" d="M1463.64,-199.74C1480.88,-206.64 1505.45,-213.49 1527.5,-217.12 1631.56,-234.3 1754.37,-239.28 1826.84,-238.14"/>
<polygon fill="#63b8ff" stroke="#63b8ff" points="1465.42,-196.7 1454.86,-195.85 1462.59,-203.1 1465.42,-196.7"/>
</a>
</g>
</g>
<!-- Node18 -->
<g id="Node000018" class="node">
<title>Node18</title>
<g id="a_Node000018"><a xlink:href="classdunedaq_1_1appdal_1_1DataRecorderConf.html" target="_top" xlink:title=" ">
<polygon fill="white" stroke="#666666" points="1716.25,-194.75 1546.5,-194.75 1546.5,-175.5 1716.25,-175.5 1716.25,-194.75"/>
<text text-anchor="middle" x="1631.38" y="-181.25" font-family="Helvetica,sans-Serif" font-size="10.00">dunedaq::appdal::DataRecorderConf</text>
</a>
</g>
</g>
<!-- Node2&#45;&gt;Node18 -->
<g id="edge23_Node000018_Node000002" class="edge">
<title>Node2&#45;&gt;Node18</title>
<g id="a_edge23_Node000018_Node000002"><a xlink:title=" ">
<path fill="none" stroke="#63b8ff" d="M1521.12,-178.45C1529.45,-178.36 1537.94,-178.35 1546.32,-178.41"/>
<polygon fill="#63b8ff" stroke="#63b8ff" points="1521.34,-174.95 1511.39,-178.59 1521.44,-181.94 1521.34,-174.95"/>
</a>
</g>
</g>
<!-- Node2&#45;&gt;Node18 -->
<g id="edge24_Node000018_Node000002" class="edge">
<title>Node2&#45;&gt;Node18</title>
<g id="a_edge24_Node000018_Node000002"><a xlink:title=" ">
<path fill="none" stroke="#63b8ff" d="M1521.12,-191.8C1529.45,-191.89 1537.94,-191.9 1546.32,-191.84"/>
<polygon fill="#63b8ff" stroke="#63b8ff" points="1521.44,-188.31 1511.39,-191.66 1521.34,-195.3 1521.44,-188.31"/>
</a>
</g>
</g>
<!-- Node19 -->
<g id="Node000019" class="node">
<title>Node19</title>
<g id="a_Node000019"><a xlink:href="classdunedaq_1_1appdal_1_1LatencyBuffer.html" target="_top" xlink:title=" ">
<polygon fill="white" stroke="#666666" points="1693.75,-157.38 1569,-157.38 1569,-126.88 1693.75,-126.88 1693.75,-157.38"/>
<text text-anchor="start" x="1577" y="-143.88" font-family="Helvetica,sans-Serif" font-size="10.00">dunedaq::appdal::Latency</text>
<text text-anchor="middle" x="1631.38" y="-132.62" font-family="Helvetica,sans-Serif" font-size="10.00">Buffer</text>
</a>
</g>
</g>
<!-- Node2&#45;&gt;Node19 -->
<g id="edge26_Node000019_Node000002" class="edge">
<title>Node2&#45;&gt;Node19</title>
<g id="a_edge26_Node000019_Node000002"><a xlink:title=" ">
<path fill="none" stroke="#63b8ff" d="M1476.06,-171.87C1501.89,-164.59 1537.84,-156.07 1568.55,-149.81"/>
<polygon fill="#63b8ff" stroke="#63b8ff" points="1475.38,-168.42 1466.76,-174.58 1477.35,-175.14 1475.38,-168.42"/>
</a>
</g>
</g>
<!-- Node2&#45;&gt;Node19 -->
<g id="edge27_Node000019_Node000002" class="edge">
<title>Node2&#45;&gt;Node19</title>
<g id="a_edge27_Node000019_Node000002"><a xlink:title=" ">
<path fill="none" stroke="#63b8ff" d="M1520.85,-173.72C1543.44,-168.81 1567.2,-163.11 1586.8,-157.83"/>
<polygon fill="#63b8ff" stroke="#63b8ff" points="1520.41,-170.23 1511.36,-175.74 1521.87,-177.08 1520.41,-170.23"/>
</a>
</g>
</g>
<!-- Node20 -->
<g id="Node000020" class="node">
<title>Node20</title>
<g id="a_Node000020"><a xlink:href="classdunedaq_1_1appdal_1_1DataProcessor.html" target="_top" xlink:title=" ">
<polygon fill="white" stroke="#666666" points="1708.75,-108.75 1554,-108.75 1554,-89.5 1708.75,-89.5 1708.75,-108.75"/>
<text text-anchor="middle" x="1631.38" y="-95.25" font-family="Helvetica,sans-Serif" font-size="10.00">dunedaq::appdal::DataProcessor</text>
</a>
</g>
</g>
<!-- Node2&#45;&gt;Node20 -->
<g id="edge29_Node000020_Node000002" class="edge">
<title>Node2&#45;&gt;Node20</title>
<g id="a_edge29_Node000020_Node000002"><a xlink:title=" ">
<path fill="none" stroke="#63b8ff" d="M1456.26,-167.07C1475.84,-149.24 1511.82,-123.59 1546.5,-109.12 1548.84,-108.15 1551.24,-107.22 1553.69,-106.33"/>
<polygon fill="#63b8ff" stroke="#63b8ff" points="1453.83,-164.55 1449.13,-174.05 1458.72,-169.56 1453.83,-164.55"/>
</a>
</g>
</g>
<!-- Node2&#45;&gt;Node20 -->
<g id="edge30_Node000020_Node000002" class="edge">
<title>Node2&#45;&gt;Node20</title>
<g id="a_edge30_Node000020_Node000002"><a xlink:title=" ">
<path fill="none" stroke="#63b8ff" d="M1472.64,-168.88C1492.76,-155.75 1520.01,-138.17 1546.5,-127.12 1566.76,-118.68 1591.41,-113.67 1608.72,-109.23"/>
<polygon fill="#63b8ff" stroke="#63b8ff" points="1470.83,-165.88 1464.36,-174.27 1474.65,-171.75 1470.83,-165.88"/>
</a>
</g>
</g>
<!-- Node3 -->
<g id="Node000003" class="node">
<title>Node3</title>
<g id="a_Node000003"><a xlink:href="classdunedaq_1_1conffwk_1_1Configuration.html" target="_top" xlink:title=" ">
<polygon fill="white" stroke="#666666" points="644.5,-194.75 492.75,-194.75 492.75,-175.5 644.5,-175.5 644.5,-194.75"/>
<text text-anchor="middle" x="568.62" y="-181.25" font-family="Helvetica,sans-Serif" font-size="10.00">dunedaq::conffwk::Configuration</text>
</a>
</g>
</g>
<!-- Node3&#45;&gt;Node2 -->
<g id="edge2_Node000002_Node000003" class="edge">
<title>Node3&#45;&gt;Node2</title>
<g id="a_edge2_Node000002_Node000003"><a xlink:title=" ">
<path fill="none" stroke="#9a32cd" stroke-dasharray="5,2" d="M656.09,-177.37C708.88,-173.29 777.79,-169.12 839,-169.12 839,-169.12 839,-169.12 1249.5,-169.12 1289.86,-169.12 1334.87,-172.76 1370.94,-176.56"/>
<polygon fill="#9a32cd" stroke="#9a32cd" points="655.94,-173.88 646.25,-178.15 656.49,-180.85 655.94,-173.88"/>
</a>
</g>
<text text-anchor="middle" x="1056.25" y="-170.88" font-family="Helvetica,sans-Serif" font-size="10.00" fill="grey"> p_db</text>
</g>
<!-- Node12 -->
<g id="Node000012" class="node">
<title>Node12</title>
<g id="a_Node000012"><a xlink:href="classdunedaq_1_1conffwk_1_1ConfigurationImpl.html" target="_top" xlink:title="Provides pure virtual interface used by the Configuration class.">
<polygon fill="white" stroke="#666666" points="925.25,-242.75 754.75,-242.75 754.75,-223.5 925.25,-223.5 925.25,-242.75"/>
<text text-anchor="middle" x="840" y="-229.25" font-family="Helvetica,sans-Serif" font-size="10.00">dunedaq::conffwk::ConfigurationImpl</text>
</a>
</g>
</g>
<!-- Node3&#45;&gt;Node12 -->
<g id="edge14_Node000012_Node000003" class="edge">
<title>Node3&#45;&gt;Node12</title>
<g id="a_edge14_Node000012_Node000003"><a xlink:title=" ">
<path fill="none" stroke="#9a32cd" stroke-dasharray="5,2" d="M608.91,-198.69C626.29,-204.22 647.1,-210.23 666.25,-214.12 694.78,-219.93 726.35,-224.05 754.61,-226.94"/>
<polygon fill="#9a32cd" stroke="#9a32cd" points="610.06,-195.38 599.47,-195.61 607.89,-202.04 610.06,-195.38"/>
</a>
</g>
<text text-anchor="middle" x="701.5" y="-225.88" font-family="Helvetica,sans-Serif" font-size="10.00" fill="grey"> m_conf</text>
</g>
<!-- Node4 -->
<g id="Node000004" class="node">
<title>Node4</title>
<g id="a_Node000004"><a xlink:href="classdunedaq_1_1conffwk_1_1map.html" target="_top" xlink:title=" ">
<polygon fill="white" stroke="#666666" points="355.88,-249.38 206.38,-249.38 206.38,-218.88 355.88,-218.88 355.88,-249.38"/>
<text text-anchor="start" x="214.38" y="-235.88" font-family="Helvetica,sans-Serif" font-size="10.00">dunedaq::conffwk::map</text>
<text text-anchor="middle" x="281.12" y="-224.62" font-family="Helvetica,sans-Serif" font-size="10.00">&lt; dunedaq::conffwk::class_t * &gt;</text>
</a>
</g>
</g>
<!-- Node4&#45;&gt;Node3 -->
<g id="edge3_Node000003_Node000004" class="edge">
<title>Node4&#45;&gt;Node3</title>
<g id="a_edge3_Node000003_Node000004"><a xlink:title=" ">
<path fill="none" stroke="#9a32cd" stroke-dasharray="5,2" d="M367.37,-226.34C399.95,-222.68 437.35,-217.67 471,-211.12 492.49,-206.95 516.23,-200.58 534.8,-195.2"/>
<polygon fill="#9a32cd" stroke="#9a32cd" points="367.12,-222.84 357.56,-227.41 367.88,-229.8 367.12,-222.84"/>
</a>
</g>
<text text-anchor="start" x="383.25" y="-259.62" font-family="Helvetica,sans-Serif" font-size="10.00" fill="grey"> p_all_classes_desc</text>
<text text-anchor="middle" x="427.12" y="-248.38" font-family="Helvetica,sans-Serif" font-size="10.00" fill="grey">_cache</text>
<text text-anchor="start" x="383.25" y="-237.12" font-family="Helvetica,sans-Serif" font-size="10.00" fill="grey">p_direct_classes</text>
<text text-anchor="middle" x="427.12" y="-225.88" font-family="Helvetica,sans-Serif" font-size="10.00" fill="grey">_desc_cache</text>
</g>
<!-- Node5 -->
<g id="Node000005" class="node">
<title>Node5</title>
<g id="a_Node000005"><a xlink:title=" ">
<polygon fill="white" stroke="#666666" points="134.12,-277 25.88,-277 25.88,-235.25 134.12,-235.25 134.12,-277"/>
<text text-anchor="start" x="33.88" y="-263.5" font-family="Helvetica,sans-Serif" font-size="10.00">std::unordered_map</text>
<text text-anchor="start" x="33.88" y="-252.25" font-family="Helvetica,sans-Serif" font-size="10.00">&lt; std::string, dunedaq</text>
<text text-anchor="middle" x="80" y="-241" font-family="Helvetica,sans-Serif" font-size="10.00">::conffwk::class_t * &gt;</text>
</a>
</g>
</g>
<!-- Node5&#45;&gt;Node4 -->
<g id="edge4_Node000004_Node000005" class="edge">
<title>Node5&#45;&gt;Node4</title>
<g id="a_edge4_Node000004_Node000005"><a xlink:title=" ">
<path fill="none" stroke="#63b8ff" d="M146.01,-248.94C165.25,-246.82 186.45,-244.47 206.21,-242.29"/>
<polygon fill="#63b8ff" stroke="#63b8ff" points="145.68,-245.46 136.13,-250.03 146.45,-252.41 145.68,-245.46"/>
</a>
</g>
</g>
<!-- Node6 -->
<g id="Node000006" class="node">
<title>Node6</title>
<g id="a_Node000006"><a xlink:href="classdunedaq_1_1conffwk_1_1fmap.html" target="_top" xlink:title=" ">
<polygon fill="white" stroke="#666666" points="339.75,-200.38 222.5,-200.38 222.5,-169.88 339.75,-169.88 339.75,-200.38"/>
<text text-anchor="start" x="230.5" y="-186.88" font-family="Helvetica,sans-Serif" font-size="10.00">dunedaq::conffwk::fmap</text>
<text text-anchor="middle" x="281.12" y="-175.62" font-family="Helvetica,sans-Serif" font-size="10.00">&lt; conffwk::fset &gt;</text>
</a>
</g>
</g>
<!-- Node6&#45;&gt;Node3 -->
<g id="edge5_Node000003_Node000006" class="edge">
<title>Node6&#45;&gt;Node3</title>
<g id="a_edge5_Node000003_Node000006"><a xlink:title=" ">
<path fill="none" stroke="#9a32cd" stroke-dasharray="5,2" d="M351.65,-185.12C394.28,-185.12 448.86,-185.12 492.49,-185.12"/>
<polygon fill="#9a32cd" stroke="#9a32cd" points="351.76,-181.63 341.76,-185.13 351.76,-188.63 351.76,-181.63"/>
</a>
</g>
<text text-anchor="middle" x="427.12" y="-198.12" font-family="Helvetica,sans-Serif" font-size="10.00" fill="grey"> p_subclasses</text>
<text text-anchor="middle" x="427.12" y="-186.88" font-family="Helvetica,sans-Serif" font-size="10.00" fill="grey">p_superclasses</text>
</g>
<!-- Node7 -->
<g id="Node000007" class="node">
<title>Node7</title>
<g id="a_Node000007"><a xlink:title=" ">
<polygon fill="white" stroke="#666666" points="136.75,-217.62 23.25,-217.62 23.25,-164.62 136.75,-164.62 136.75,-217.62"/>
<text text-anchor="start" x="31.25" y="-204.12" font-family="Helvetica,sans-Serif" font-size="10.00">std::unordered_map</text>
<text text-anchor="start" x="31.25" y="-192.88" font-family="Helvetica,sans-Serif" font-size="10.00">&lt; const std::string</text>
<text text-anchor="start" x="31.25" y="-181.62" font-family="Helvetica,sans-Serif" font-size="10.00"> *, conffwk::fset , string</text>
<text text-anchor="middle" x="80" y="-170.38" font-family="Helvetica,sans-Serif" font-size="10.00">_ptr_hash &gt;</text>
</a>
</g>
</g>
<!-- Node7&#45;&gt;Node6 -->
<g id="edge6_Node000006_Node000007" class="edge">
<title>Node7&#45;&gt;Node6</title>
<g id="a_edge6_Node000006_Node000007"><a xlink:title=" ">
<path fill="none" stroke="#63b8ff" d="M148.49,-189.09C172.4,-188.37 199.07,-187.57 222.12,-186.87"/>
<polygon fill="#63b8ff" stroke="#63b8ff" points="148.4,-185.59 138.51,-189.39 148.61,-192.59 148.4,-185.59"/>
</a>
</g>
</g>
<!-- Node8 -->
<g id="Node000008" class="node">
<title>Node8</title>
<g id="a_Node000008"><a xlink:href="classdunedaq_1_1conffwk_1_1map.html" target="_top" xlink:title=" ">
<polygon fill="white" stroke="#666666" points="342,-149.25 220.25,-149.25 220.25,-85 342,-85 342,-149.25"/>
<text text-anchor="start" x="228.25" y="-135.75" font-family="Helvetica,sans-Serif" font-size="10.00">dunedaq::conffwk::map</text>
<text text-anchor="start" x="228.25" y="-124.5" font-family="Helvetica,sans-Serif" font-size="10.00">&lt; std::list&lt; dunedaq</text>
<text text-anchor="start" x="228.25" y="-113.25" font-family="Helvetica,sans-Serif" font-size="10.00">::conffwk::Configuration</text>
<text text-anchor="start" x="228.25" y="-102" font-family="Helvetica,sans-Serif" font-size="10.00">::AttributeConverterBase</text>
<text text-anchor="middle" x="281.12" y="-90.75" font-family="Helvetica,sans-Serif" font-size="10.00"> * &gt; * &gt;</text>
</a>
</g>
</g>
<!-- Node8&#45;&gt;Node3 -->
<g id="edge7_Node000003_Node000008" class="edge">
<title>Node8&#45;&gt;Node3</title>
<g id="a_edge7_Node000003_Node000008"><a xlink:title=" ">
<path fill="none" stroke="#9a32cd" stroke-dasharray="5,2" d="M353.25,-134.06C407.46,-146.98 480.26,-164.32 525.55,-175.1"/>
<polygon fill="#9a32cd" stroke="#9a32cd" points="354.33,-130.73 343.8,-131.81 352.71,-137.54 354.33,-130.73"/>
</a>
</g>
<text text-anchor="middle" x="427.12" y="-162.88" font-family="Helvetica,sans-Serif" font-size="10.00" fill="grey"> m_convert_map</text>
</g>
<!-- Node9 -->
<g id="Node000009" class="node">
<title>Node9</title>
<g id="a_Node000009"><a xlink:title=" ">
<polygon fill="white" stroke="#666666" points="160,-146.25 0,-146.25 0,-82 160,-82 160,-146.25"/>
<text text-anchor="start" x="8" y="-132.75" font-family="Helvetica,sans-Serif" font-size="10.00">std::unordered_map</text>
<text text-anchor="start" x="8" y="-121.5" font-family="Helvetica,sans-Serif" font-size="10.00">&lt; std::string, std::</text>
<text text-anchor="start" x="8" y="-110.25" font-family="Helvetica,sans-Serif" font-size="10.00">list&lt; dunedaq::conffwk</text>
<text text-anchor="start" x="8" y="-99" font-family="Helvetica,sans-Serif" font-size="10.00">::Configuration::AttributeConverter</text>
<text text-anchor="middle" x="80" y="-87.75" font-family="Helvetica,sans-Serif" font-size="10.00">Base * &gt; * &gt;</text>
</a>
</g>
</g>
<!-- Node9&#45;&gt;Node8 -->
<g id="edge8_Node000008_Node000009" class="edge">
<title>Node9&#45;&gt;Node8</title>
<g id="a_edge8_Node000008_Node000009"><a xlink:title=" ">
<path fill="none" stroke="#63b8ff" d="M171.53,-115.49C187.91,-115.74 204.61,-115.99 219.85,-116.22"/>
<polygon fill="#63b8ff" stroke="#63b8ff" points="171.84,-111.99 161.78,-115.34 171.73,-118.99 171.84,-111.99"/>
</a>
</g>
</g>
<!-- Node10 -->
<g id="Node000010" class="node">
<title>Node10</title>
<g id="a_Node000010"><a xlink:href="classdunedaq_1_1conffwk_1_1fmap.html" target="_top" xlink:title=" ">
<polygon fill="white" stroke="#666666" points="365.25,-59.38 197,-59.38 197,-28.88 365.25,-28.88 365.25,-59.38"/>
<text text-anchor="start" x="205" y="-45.88" font-family="Helvetica,sans-Serif" font-size="10.00">dunedaq::conffwk::fmap</text>
<text text-anchor="middle" x="281.12" y="-34.62" font-family="Helvetica,sans-Serif" font-size="10.00">&lt; dunedaq::conffwk::CacheBase * &gt;</text>
</a>
</g>
</g>
<!-- Node10&#45;&gt;Node3 -->
<g id="edge9_Node000003_Node000010" class="edge">
<title>Node10&#45;&gt;Node3</title>
<g id="a_edge9_Node000003_Node000010"><a xlink:title=" ">
<path fill="none" stroke="#9a32cd" stroke-dasharray="5,2" d="M335.34,-63.89C345.34,-67.8 355.66,-71.98 365.25,-76.12 413.11,-96.78 425.12,-102.11 471,-126.88 500.3,-142.69 533.3,-163.19 552.16,-175.18"/>
<polygon fill="#9a32cd" stroke="#9a32cd" points="336.68,-60.65 326.09,-60.3 334.15,-67.18 336.68,-60.65"/>
</a>
</g>
<text text-anchor="middle" x="427.12" y="-127.88" font-family="Helvetica,sans-Serif" font-size="10.00" fill="grey"> m_cache_map</text>
</g>
<!-- Node11 -->
<g id="Node000011" class="node">
<title>Node11</title>
<g id="a_Node000011"><a xlink:title=" ">
<polygon fill="white" stroke="#666666" points="133,-64.25 27,-64.25 27,0 133,0 133,-64.25"/>
<text text-anchor="start" x="35" y="-50.75" font-family="Helvetica,sans-Serif" font-size="10.00">std::unordered_map</text>
<text text-anchor="start" x="35" y="-39.5" font-family="Helvetica,sans-Serif" font-size="10.00">&lt; const std::string</text>
<text text-anchor="start" x="35" y="-28.25" font-family="Helvetica,sans-Serif" font-size="10.00"> *, dunedaq::conffwk</text>
<text text-anchor="start" x="35" y="-17" font-family="Helvetica,sans-Serif" font-size="10.00">::CacheBase *, string</text>
<text text-anchor="middle" x="80" y="-5.75" font-family="Helvetica,sans-Serif" font-size="10.00">_ptr_hash &gt;</text>
</a>
</g>
</g>
<!-- Node11&#45;&gt;Node10 -->
<g id="edge10_Node000010_Node000011" class="edge">
<title>Node11&#45;&gt;Node10</title>
<g id="a_edge10_Node000010_Node000011"><a xlink:title=" ">
<path fill="none" stroke="#63b8ff" d="M144.51,-35.95C161.06,-36.95 179.16,-38.04 196.58,-39.09"/>
<polygon fill="#63b8ff" stroke="#63b8ff" points="145.02,-32.48 134.83,-35.37 144.6,-39.46 145.02,-32.48"/>
</a>
</g>
</g>
<!-- Node12&#45;&gt;Node3 -->
<g id="edge11_Node000003_Node000012" class="edge">
<title>Node12&#45;&gt;Node3</title>
<g id="a_edge11_Node000003_Node000012"><a xlink:title=" ">
<path fill="none" stroke="#9a32cd" stroke-dasharray="5,2" d="M799.43,-219.59C780.64,-213.64 757.75,-207.06 736.75,-202.88 706.99,-196.94 673.83,-192.9 644.94,-190.19"/>
<polygon fill="#9a32cd" stroke="#9a32cd" points="798.23,-222.88 808.82,-222.63 800.39,-216.22 798.23,-222.88"/>
</a>
</g>
<text text-anchor="middle" x="701.5" y="-203.88" font-family="Helvetica,sans-Serif" font-size="10.00" fill="grey"> m_impl</text>
</g>
<!-- Node16 -->
<g id="Node000016" class="node">
<title>Node16</title>
<g id="a_Node000016"><a xlink:href="classdunedaq_1_1conffwk_1_1ConfigObjectImpl.html" target="_top" xlink:title="Implements database objects.">
<polygon fill="white" stroke="#666666" points="1117.5,-240.38 995,-240.38 995,-209.88 1117.5,-209.88 1117.5,-240.38"/>
<text text-anchor="start" x="1003" y="-226.88" font-family="Helvetica,sans-Serif" font-size="10.00">dunedaq::conffwk::Config</text>
<text text-anchor="middle" x="1056.25" y="-215.62" font-family="Helvetica,sans-Serif" font-size="10.00">ObjectImpl</text>
</a>
</g>
</g>
<!-- Node12&#45;&gt;Node16 -->
<g id="edge17_Node000016_Node000012" class="edge">
<title>Node12&#45;&gt;Node16</title>
<g id="a_edge17_Node000016_Node000012"><a xlink:title=" ">
<path fill="none" stroke="#9a32cd" stroke-dasharray="5,2" d="M937.12,-229.54C956.67,-228.81 976.73,-228.06 994.63,-227.39"/>
<polygon fill="#9a32cd" stroke="#9a32cd" points="937.05,-226.04 927.19,-229.91 937.31,-233.03 937.05,-226.04"/>
</a>
</g>
<text text-anchor="middle" x="960.12" y="-230.88" font-family="Helvetica,sans-Serif" font-size="10.00" fill="grey"> m_impl</text>
</g>
<!-- Node13 -->
<g id="Node000013" class="node">
<title>Node13</title>
<g id="a_Node000013"><a xlink:href="classdunedaq_1_1conffwk_1_1pmap.html" target="_top" xlink:title=" ">
<polygon fill="white" stroke="#666666" points="648.25,-317.62 489,-317.62 489,-264.62 648.25,-264.62 648.25,-317.62"/>
<text text-anchor="start" x="497" y="-304.12" font-family="Helvetica,sans-Serif" font-size="10.00">dunedaq::conffwk::pmap</text>
<text text-anchor="start" x="497" y="-292.88" font-family="Helvetica,sans-Serif" font-size="10.00">&lt; dunedaq::conffwk::map</text>
<text text-anchor="start" x="497" y="-281.62" font-family="Helvetica,sans-Serif" font-size="10.00">&lt; dunedaq::conffwk::ConfigObject</text>
<text text-anchor="middle" x="568.62" y="-270.38" font-family="Helvetica,sans-Serif" font-size="10.00">Impl * &gt; * &gt;</text>
</a>
</g>
</g>
<!-- Node13&#45;&gt;Node12 -->
<g id="edge12_Node000012_Node000013" class="edge">
<title>Node13&#45;&gt;Node12</title>
<g id="a_edge12_Node000012_Node000013"><a xlink:title=" ">
<path fill="none" stroke="#9a32cd" stroke-dasharray="5,2" d="M659.73,-271.73C704.05,-262.18 755.64,-251.07 792.07,-243.23"/>
<polygon fill="#9a32cd" stroke="#9a32cd" points="659.15,-268.27 650.11,-273.8 660.62,-275.11 659.15,-268.27"/>
</a>
</g>
<text text-anchor="middle" x="701.5" y="-269.88" font-family="Helvetica,sans-Serif" font-size="10.00" fill="grey"> m_impl_objects</text>
</g>
<!-- Node14 -->
<g id="Node000014" class="node">
<title>Node14</title>
<g id="a_Node000014"><a xlink:title=" ">
<polygon fill="white" stroke="#666666" points="348.75,-331.25 213.5,-331.25 213.5,-267 348.75,-267 348.75,-331.25"/>
<text text-anchor="start" x="221.5" y="-317.75" font-family="Helvetica,sans-Serif" font-size="10.00">std::map&lt; const std</text>
<text text-anchor="start" x="221.5" y="-306.5" font-family="Helvetica,sans-Serif" font-size="10.00">::string *, dunedaq</text>
<text text-anchor="start" x="221.5" y="-295.25" font-family="Helvetica,sans-Serif" font-size="10.00">::conffwk::map&lt; dunedaq</text>
<text text-anchor="start" x="221.5" y="-284" font-family="Helvetica,sans-Serif" font-size="10.00">::conffwk::ConfigObjectImpl</text>
<text text-anchor="middle" x="281.12" y="-272.75" font-family="Helvetica,sans-Serif" font-size="10.00"> * &gt; * , string_ptr_compare &gt;</text>
</a>
</g>
</g>
<!-- Node14&#45;&gt;Node13 -->
<g id="edge13_Node000013_Node000014" class="edge">
<title>Node14&#45;&gt;Node13</title>
<g id="a_edge13_Node000013_Node000014"><a xlink:title=" ">
<path fill="none" stroke="#63b8ff" d="M360.35,-296.93C400.25,-295.81 448.68,-294.46 488.69,-293.34"/>
<polygon fill="#63b8ff" stroke="#63b8ff" points="360.47,-293.43 350.58,-297.21 360.67,-300.43 360.47,-293.43"/>
</a>
</g>
</g>
<!-- Node15 -->
<g id="Node000015" class="node">
<title>Node15</title>
<g id="a_Node000015"><a xlink:href="classdunedaq_1_1conffwk_1_1ConfigObject.html" target="_top" xlink:title="Represents database objects.">
<polygon fill="white" stroke="#666666" points="1309.75,-228.38 1187.25,-228.38 1187.25,-197.88 1309.75,-197.88 1309.75,-228.38"/>
<text text-anchor="start" x="1195.25" y="-214.88" font-family="Helvetica,sans-Serif" font-size="10.00">dunedaq::conffwk::Config</text>
<text text-anchor="middle" x="1248.5" y="-203.62" font-family="Helvetica,sans-Serif" font-size="10.00">Object</text>
</a>
</g>
</g>
<!-- Node15&#45;&gt;Node2 -->
<g id="edge15_Node000002_Node000015" class="edge">
<title>Node15&#45;&gt;Node2</title>
<g id="a_edge15_Node000002_Node000015"><a xlink:title=" ">
<path fill="none" stroke="#9a32cd" stroke-dasharray="5,2" d="M1321.17,-202.56C1337.43,-200.16 1354.65,-197.62 1370.77,-195.24"/>
<polygon fill="#9a32cd" stroke="#9a32cd" points="1320.98,-199.05 1311.6,-203.97 1322,-205.97 1320.98,-199.05"/>
</a>
</g>
<text text-anchor="middle" x="1340.5" y="-201.88" font-family="Helvetica,sans-Serif" font-size="10.00" fill="grey"> p_obj</text>
</g>
<!-- Node16&#45;&gt;Node15 -->
<g id="edge16_Node000015_Node000016" class="edge">
<title>Node16&#45;&gt;Node15</title>
<g id="a_edge16_Node000015_Node000016"><a xlink:title=" ">
<path fill="none" stroke="#9a32cd" stroke-dasharray="5,2" d="M1129.31,-220.58C1148.34,-219.38 1168.68,-218.1 1187.03,-216.94"/>
<polygon fill="#9a32cd" stroke="#9a32cd" points="1129.24,-217.08 1119.48,-221.2 1129.68,-224.06 1129.24,-217.08"/>
</a>
</g>
<text text-anchor="middle" x="1152.38" y="-220.88" font-family="Helvetica,sans-Serif" font-size="10.00" fill="grey"> m_impl</text>
</g>
<!-- Node17&#45;&gt;Node1 -->
<g id="edge19_Node000001_Node000017" class="edge">
<title>Node17&#45;&gt;Node1</title>
<g id="a_edge19_Node000001_Node000017"><a xlink:title=" ">
<path fill="none" stroke="#9a32cd" stroke-dasharray="5,2" d="M1965.34,-232.12C2000.04,-232.12 2040.93,-232.12 2074.03,-232.12"/>
<polygon fill="#9a32cd" stroke="#9a32cd" points="1965.35,-228.63 1955.35,-232.13 1965.35,-235.63 1965.35,-228.63"/>
</a>
</g>
<text text-anchor="middle" x="2013.88" y="-233.88" font-family="Helvetica,sans-Serif" font-size="10.00" fill="grey"> m_request_handler</text>
</g>
<!-- Node18&#45;&gt;Node17 -->
<g id="edge22_Node000017_Node000018" class="edge">
<title>Node18&#45;&gt;Node17</title>
<g id="a_edge22_Node000017_Node000018"><a xlink:title=" ">
<path fill="none" stroke="#9a32cd" stroke-dasharray="5,2" d="M1727.76,-186.2C1754.41,-188.06 1783.2,-191.56 1809.25,-197.88 1826.45,-202.05 1844.67,-209.56 1859.37,-216.49"/>
<polygon fill="#9a32cd" stroke="#9a32cd" points="1728.19,-182.72 1717.99,-185.59 1727.76,-189.71 1728.19,-182.72"/>
</a>
</g>
<text text-anchor="middle" x="1771.75" y="-198.88" font-family="Helvetica,sans-Serif" font-size="10.00" fill="grey"> m_data_recorder</text>
</g>
<!-- Node19&#45;&gt;Node1 -->
<g id="edge25_Node000001_Node000019" class="edge">
<title>Node19&#45;&gt;Node1</title>
<g id="a_edge25_Node000001_Node000019"><a xlink:title=" ">
<path fill="none" stroke="#9a32cd" stroke-dasharray="5,2" d="M1704.97,-154.04C1770.11,-164.85 1868.28,-181.4 1953.5,-196.88 1993.58,-204.15 2038.51,-212.81 2073.8,-219.72"/>
<polygon fill="#9a32cd" stroke="#9a32cd" points="1705.94,-150.66 1695.5,-152.48 1704.79,-157.56 1705.94,-150.66"/>
</a>
</g>
<text text-anchor="middle" x="1890.38" y="-197.88" font-family="Helvetica,sans-Serif" font-size="10.00" fill="grey"> m_latency_buffer</text>
</g>
<!-- Node20&#45;&gt;Node1 -->
<g id="edge28_Node000001_Node000020" class="edge">
<title>Node20&#45;&gt;Node1</title>
<g id="a_edge28_Node000001_Node000020"><a xlink:title=" ">
<path fill="none" stroke="#9a32cd" stroke-dasharray="5,2" d="M1713.34,-110.94C1778.74,-121.32 1872.83,-138.15 1953.5,-159.88 2000.26,-172.47 2011.29,-178.13 2056.25,-196.12 2071.82,-202.36 2088.81,-209.88 2103.11,-216.44"/>
<polygon fill="#9a32cd" stroke="#9a32cd" points="1714.2,-107.53 1703.78,-109.44 1713.11,-114.45 1714.2,-107.53"/>
</a>
</g>
<text text-anchor="middle" x="1890.38" y="-160.88" font-family="Helvetica,sans-Serif" font-size="10.00" fill="grey"> m_data_processor</text>
</g>
</g>
</svg>
