<?xml version="1.0" encoding="UTF-8" standalone="no"?>
<!DOCTYPE svg PUBLIC "-//W3C//DTD SVG 1.1//EN"
 "http://www.w3.org/Graphics/SVG/1.1/DTD/svg11.dtd">
<!-- Generated by graphviz version 9.0.0 (20230911.1827)
 -->
<!-- Title: dunedaq::appdal::HSIEventToTCApplication Pages: 1 -->
<svg width="2621pt" height="342pt"
 viewBox="0.00 0.00 2621.25 342.25" xmlns="http://www.w3.org/2000/svg" xmlns:xlink="http://www.w3.org/1999/xlink">
<g id="graph0" class="graph" transform="scale(1 1) rotate(0) translate(4 338.25)">
<title>dunedaq::appdal::HSIEventToTCApplication</title>
<!-- Node1 -->
<g id="Node000001" class="node">
<title>Node1</title>
<g id="a_Node000001"><a xlink:title=" ">
<polygon fill="#999999" stroke="#666666" points="2613.25,-202.38 2481,-202.38 2481,-171.88 2613.25,-171.88 2613.25,-202.38"/>
<text text-anchor="start" x="2489" y="-188.88" font-family="Helvetica,sans-Serif" font-size="10.00">dunedaq::appdal::HSIEvent</text>
<text text-anchor="middle" x="2547.12" y="-177.62" font-family="Helvetica,sans-Serif" font-size="10.00">ToTCApplication</text>
</a>
</g>
</g>
<!-- Node2 -->
<g id="Node000002" class="node">
<title>Node2</title>
<g id="a_Node000002"><a xlink:href="classdunedaq_1_1appdal_1_1SmartDaqApplication.html" target="_top" xlink:title=" ">
<polygon fill="white" stroke="#666666" points="2444,-202.38 2310.25,-202.38 2310.25,-171.88 2444,-171.88 2444,-202.38"/>
<text text-anchor="start" x="2318.25" y="-188.88" font-family="Helvetica,sans-Serif" font-size="10.00">dunedaq::appdal::SmartDaq</text>
<text text-anchor="middle" x="2377.12" y="-177.62" font-family="Helvetica,sans-Serif" font-size="10.00">Application</text>
</a>
</g>
</g>
<!-- Node2&#45;&gt;Node1 -->
<g id="edge1_Node000001_Node000002" class="edge">
<title>Node2&#45;&gt;Node1</title>
<g id="a_edge1_Node000001_Node000002"><a xlink:title=" ">
<path fill="none" stroke="#63b8ff" d="M2455.45,-180.39C2463.88,-180.35 2472.41,-180.39 2480.67,-180.52"/>
<polygon fill="#63b8ff" stroke="#63b8ff" points="2455.52,-176.89 2445.55,-180.5 2455.59,-183.89 2455.52,-176.89"/>
</a>
</g>
</g>
<!-- Node2&#45;&gt;Node1 -->
<g id="edge31_Node000001_Node000002" class="edge">
<title>Node2&#45;&gt;Node1</title>
<g id="a_edge31_Node000001_Node000002"><a xlink:title=" ">
<path fill="none" stroke="#63b8ff" d="M2455.45,-193.86C2463.88,-193.9 2472.41,-193.86 2480.67,-193.73"/>
<polygon fill="#63b8ff" stroke="#63b8ff" points="2455.59,-190.36 2445.55,-193.75 2455.52,-197.36 2455.59,-190.36"/>
</a>
</g>
</g>
<!-- Node3 -->
<g id="Node000003" class="node">
<title>Node3</title>
<g id="a_Node000003"><a xlink:href="classdunedaq_1_1coredal_1_1Application.html" target="_top" xlink:title=" ">
<polygon fill="white" stroke="#666666" points="2249.25,-262.75 2108,-262.75 2108,-243.5 2249.25,-243.5 2249.25,-262.75"/>
<text text-anchor="middle" x="2178.62" y="-249.25" font-family="Helvetica,sans-Serif" font-size="10.00">dunedaq::coredal::Application</text>
</a>
</g>
</g>
<!-- Node3&#45;&gt;Node2 -->
<g id="edge2_Node000002_Node000003" class="edge">
<title>Node3&#45;&gt;Node2</title>
<g id="a_edge2_Node000002_Node000003"><a xlink:title=" ">
<path fill="none" stroke="#63b8ff" d="M2207.9,-238.72C2234.55,-228.02 2275.48,-213.77 2310.3,-202.82"/>
<polygon fill="#63b8ff" stroke="#63b8ff" points="2206.7,-235.43 2198.81,-242.49 2209.39,-241.89 2206.7,-235.43"/>
</a>
</g>
</g>
<!-- Node3&#45;&gt;Node2 -->
<g id="edge27_Node000002_Node000003" class="edge">
<title>Node3&#45;&gt;Node2</title>
<g id="a_edge27_Node000002_Node000003"><a xlink:title=" ">
<path fill="none" stroke="#63b8ff" d="M2237.76,-239.82C2272.74,-229.04 2315.91,-214.17 2344.63,-202.81"/>
<polygon fill="#63b8ff" stroke="#63b8ff" points="2237.19,-236.34 2228.64,-242.59 2239.23,-243.03 2237.19,-236.34"/>
</a>
</g>
</g>
<!-- Node4 -->
<g id="Node000004" class="node">
<title>Node4</title>
<g id="a_Node000004"><a xlink:href="classdunedaq_1_1conffwk_1_1DalObject.html" target="_top" xlink:title="The base class for any generated DAL object.">
<polygon fill="white" stroke="#666666" points="1509.5,-196.75 1371.25,-196.75 1371.25,-177.5 1509.5,-177.5 1509.5,-196.75"/>
<text text-anchor="middle" x="1440.38" y="-183.25" font-family="Helvetica,sans-Serif" font-size="10.00">dunedaq::conffwk::DalObject</text>
</a>
</g>
</g>
<!-- Node4&#45;&gt;Node3 -->
<g id="edge3_Node000003_Node000004" class="edge">
<title>Node4&#45;&gt;Node3</title>
<g id="a_edge3_Node000003_Node000004"><a xlink:title=" ">
<path fill="none" stroke="#63b8ff" d="M1468.17,-203.91C1488.2,-218.99 1517.09,-239.77 1546.5,-250.12 1740.81,-318.54 1990.1,-283.23 2108.82,-263.22"/>
<polygon fill="#63b8ff" stroke="#63b8ff" points="1470.38,-201.19 1460.3,-197.95 1466.16,-206.78 1470.38,-201.19"/>
</a>
</g>
</g>
<!-- Node4&#45;&gt;Node3 -->
<g id="edge20_Node000003_Node000004" class="edge">
<title>Node4&#45;&gt;Node3</title>
<g id="a_edge20_Node000003_Node000004"><a xlink:title=" ">
<path fill="none" stroke="#63b8ff" d="M1454.69,-205.78C1473.46,-225.69 1509.57,-255.12 1546.5,-268.12 1768.71,-346.37 2062.83,-288.95 2151.34,-263.23"/>
<polygon fill="#63b8ff" stroke="#63b8ff" points="1457.35,-203.51 1448.13,-198.28 1452.08,-208.12 1457.35,-203.51"/>
</a>
</g>
</g>
<!-- Node19 -->
<g id="Node000019" class="node">
<title>Node19</title>
<g id="a_Node000019"><a xlink:href="classdunedaq_1_1coredal_1_1VirtualHost.html" target="_top" xlink:title=" ">
<polygon fill="white" stroke="#666666" points="1980.5,-262.75 1838.5,-262.75 1838.5,-243.5 1980.5,-243.5 1980.5,-262.75"/>
<text text-anchor="middle" x="1909.5" y="-249.25" font-family="Helvetica,sans-Serif" font-size="10.00">dunedaq::coredal::VirtualHost</text>
</a>
</g>
</g>
<!-- Node4&#45;&gt;Node19 -->
<g id="edge22_Node000019_Node000004" class="edge">
<title>Node4&#45;&gt;Node19</title>
<g id="a_edge22_Node000019_Node000004"><a xlink:title=" ">
<path fill="none" stroke="#63b8ff" d="M1494.33,-200.82C1510.77,-206.47 1529.15,-212.39 1546.5,-216.12 1646.33,-237.61 1764.78,-243.12 1838.3,-246.54"/>
<polygon fill="#63b8ff" stroke="#63b8ff" points="1495.85,-197.64 1485.25,-197.67 1493.55,-204.26 1495.85,-197.64"/>
</a>
</g>
</g>
<!-- Node4&#45;&gt;Node19 -->
<g id="edge23_Node000019_Node000004" class="edge">
<title>Node4&#45;&gt;Node19</title>
<g id="a_edge23_Node000019_Node000004"><a xlink:title=" ">
<path fill="none" stroke="#63b8ff" d="M1461.42,-202.97C1482.23,-214.21 1515.94,-227.55 1546.5,-234.12 1646.33,-255.61 1764.78,-261.12 1838.3,-259.98"/>
<polygon fill="#63b8ff" stroke="#63b8ff" points="1463.25,-199.99 1452.85,-197.94 1459.7,-206.02 1463.25,-199.99"/>
</a>
</g>
</g>
<!-- Node20 -->
<g id="Node000020" class="node">
<title>Node20</title>
<g id="a_Node000020"><a xlink:href="classdunedaq_1_1coredal_1_1PhysicalHost.html" target="_top" xlink:title=" ">
<polygon fill="white" stroke="#666666" points="1704.25,-215.75 1553.25,-215.75 1553.25,-196.5 1704.25,-196.5 1704.25,-215.75"/>
<text text-anchor="middle" x="1628.75" y="-202.25" font-family="Helvetica,sans-Serif" font-size="10.00">dunedaq::coredal::PhysicalHost</text>
</a>
</g>
</g>
<!-- Node4&#45;&gt;Node20 -->
<g id="edge25_Node000020_Node000004" class="edge">
<title>Node4&#45;&gt;Node20</title>
<g id="a_edge25_Node000020_Node000004"><a xlink:title=" ">
<path fill="none" stroke="#63b8ff" d="M1521.36,-188.59C1543.34,-190.63 1566.31,-193.28 1585.27,-196.03"/>
<polygon fill="#63b8ff" stroke="#63b8ff" points="1521.76,-185.11 1511.49,-187.72 1521.14,-192.08 1521.76,-185.11"/>
</a>
</g>
</g>
<!-- Node4&#45;&gt;Node20 -->
<g id="edge26_Node000020_Node000004" class="edge">
<title>Node4&#45;&gt;Node20</title>
<g id="a_edge26_Node000020_Node000004"><a xlink:title=" ">
<path fill="none" stroke="#63b8ff" d="M1494.89,-198.75C1513.01,-201.16 1533.59,-203.41 1553.05,-205.14"/>
<polygon fill="#63b8ff" stroke="#63b8ff" points="1495.55,-195.31 1485.17,-197.41 1494.59,-202.25 1495.55,-195.31"/>
</a>
</g>
</g>
<!-- Node21 -->
<g id="Node000021" class="node">
<title>Node21</title>
<g id="a_Node000021"><a xlink:href="classdunedaq_1_1appdal_1_1SourceIDConf.html" target="_top" xlink:title=" ">
<polygon fill="white" stroke="#666666" points="1704.25,-178.75 1553.25,-178.75 1553.25,-159.5 1704.25,-159.5 1704.25,-178.75"/>
<text text-anchor="middle" x="1628.75" y="-165.25" font-family="Helvetica,sans-Serif" font-size="10.00">dunedaq::appdal::SourceIDConf</text>
</a>
</g>
</g>
<!-- Node4&#45;&gt;Node21 -->
<g id="edge29_Node000021_Node000004" class="edge">
<title>Node4&#45;&gt;Node21</title>
<g id="a_edge29_Node000021_Node000004"><a xlink:title=" ">
<path fill="none" stroke="#63b8ff" d="M1496.77,-175.54C1514.39,-173.33 1534.18,-171.29 1552.93,-169.72"/>
<polygon fill="#63b8ff" stroke="#63b8ff" points="1496.5,-172.05 1487.04,-176.82 1497.41,-178.99 1496.5,-172.05"/>
</a>
</g>
</g>
<!-- Node4&#45;&gt;Node21 -->
<g id="edge30_Node000021_Node000004" class="edge">
<title>Node4&#45;&gt;Node21</title>
<g id="a_edge30_Node000021_Node000004"><a xlink:title=" ">
<path fill="none" stroke="#63b8ff" d="M1521.37,-186.09C1542.71,-184.22 1564.99,-181.79 1583.61,-179.23"/>
<polygon fill="#63b8ff" stroke="#63b8ff" points="1521.16,-182.59 1511.49,-186.91 1521.74,-189.57 1521.16,-182.59"/>
</a>
</g>
</g>
<!-- Node23 -->
<g id="Node000023" class="node">
<title>Node23</title>
<g id="a_Node000023"><a xlink:href="classdunedaq_1_1appdal_1_1DataReaderConf.html" target="_top" xlink:title=" ">
<polygon fill="white" stroke="#666666" points="1990.25,-131.75 1828.75,-131.75 1828.75,-112.5 1990.25,-112.5 1990.25,-131.75"/>
<text text-anchor="middle" x="1909.5" y="-118.25" font-family="Helvetica,sans-Serif" font-size="10.00">dunedaq::appdal::DataReaderConf</text>
</a>
</g>
</g>
<!-- Node4&#45;&gt;Node23 -->
<g id="edge34_Node000023_Node000004" class="edge">
<title>Node4&#45;&gt;Node23</title>
<g id="a_edge34_Node000023_Node000004"><a xlink:title=" ">
<path fill="none" stroke="#63b8ff" d="M1461.78,-171.35C1482.63,-160.4 1516.17,-147.52 1546.5,-141.12 1642.1,-120.97 1754.64,-114.95 1828.56,-115.35"/>
<polygon fill="#63b8ff" stroke="#63b8ff" points="1460.12,-168.27 1453.17,-176.27 1463.59,-174.35 1460.12,-168.27"/>
</a>
</g>
</g>
<!-- Node4&#45;&gt;Node23 -->
<g id="edge35_Node000023_Node000004" class="edge">
<title>Node4&#45;&gt;Node23</title>
<g id="a_edge35_Node000023_Node000004"><a xlink:title=" ">
<path fill="none" stroke="#63b8ff" d="M1496.16,-173.44C1512.15,-168.13 1529.81,-162.64 1546.5,-159.12 1642.1,-138.97 1754.64,-132.95 1828.56,-129.35"/>
<polygon fill="#63b8ff" stroke="#63b8ff" points="1495.19,-170.07 1486.83,-176.58 1497.43,-176.7 1495.19,-170.07"/>
</a>
</g>
</g>
<!-- Node24 -->
<g id="Node000024" class="node">
<title>Node24</title>
<g id="a_Node000024"><a xlink:href="classdunedaq_1_1appdal_1_1StreamEmulationParameters.html" target="_top" xlink:title=" ">
<polygon fill="white" stroke="#666666" points="1711,-85.38 1546.5,-85.38 1546.5,-54.88 1711,-54.88 1711,-85.38"/>
<text text-anchor="start" x="1554.5" y="-71.88" font-family="Helvetica,sans-Serif" font-size="10.00">dunedaq::appdal::StreamEmulation</text>
<text text-anchor="middle" x="1628.75" y="-60.62" font-family="Helvetica,sans-Serif" font-size="10.00">Parameters</text>
</a>
</g>
</g>
<!-- Node4&#45;&gt;Node24 -->
<g id="edge37_Node000024_Node000004" class="edge">
<title>Node4&#45;&gt;Node24</title>
<g id="a_edge37_Node000024_Node000004"><a xlink:title=" ">
<path fill="none" stroke="#63b8ff" d="M1451.01,-167.65C1465.45,-145.18 1494.55,-109.82 1527.5,-90.12 1533.33,-86.64 1539.61,-83.55 1546.07,-80.85"/>
<polygon fill="#63b8ff" stroke="#63b8ff" points="1448.19,-165.56 1446.07,-175.94 1454.2,-169.14 1448.19,-165.56"/>
</a>
</g>
</g>
<!-- Node4&#45;&gt;Node24 -->
<g id="edge38_Node000024_Node000004" class="edge">
<title>Node4&#45;&gt;Node24</title>
<g id="a_edge38_Node000024_Node000004"><a xlink:title=" ">
<path fill="none" stroke="#63b8ff" d="M1460.42,-168.72C1476.31,-150.68 1500.63,-124.19 1527.5,-108.12 1544.76,-97.8 1565.9,-90.98 1584.31,-85.83"/>
<polygon fill="#63b8ff" stroke="#63b8ff" points="1457.87,-166.32 1453.91,-176.15 1463.14,-170.93 1457.87,-166.32"/>
</a>
</g>
</g>
<!-- Node5 -->
<g id="Node000005" class="node">
<title>Node5</title>
<g id="a_Node000005"><a xlink:href="classdunedaq_1_1conffwk_1_1Configuration.html" target="_top" xlink:title=" ">
<polygon fill="white" stroke="#666666" points="644.5,-197.75 492.75,-197.75 492.75,-178.5 644.5,-178.5 644.5,-197.75"/>
<text text-anchor="middle" x="568.62" y="-184.25" font-family="Helvetica,sans-Serif" font-size="10.00">dunedaq::conffwk::Configuration</text>
</a>
</g>
</g>
<!-- Node5&#45;&gt;Node4 -->
<g id="edge4_Node000004_Node000005" class="edge">
<title>Node5&#45;&gt;Node4</title>
<g id="a_edge4_Node000004_Node000005"><a xlink:title=" ">
<path fill="none" stroke="#9a32cd" stroke-dasharray="5,2" d="M656.08,-179.89C708.87,-175.55 777.77,-171.12 839,-171.12 839,-171.12 839,-171.12 1249.5,-171.12 1289.86,-171.12 1334.87,-174.76 1370.94,-178.56"/>
<polygon fill="#9a32cd" stroke="#9a32cd" points="655.91,-176.39 646.24,-180.72 656.49,-183.37 655.91,-176.39"/>
</a>
</g>
<text text-anchor="middle" x="1056.25" y="-172.88" font-family="Helvetica,sans-Serif" font-size="10.00" fill="grey"> p_db</text>
</g>
<!-- Node14 -->
<g id="Node000014" class="node">
<title>Node14</title>
<g id="a_Node000014"><a xlink:href="classdunedaq_1_1conffwk_1_1ConfigurationImpl.html" target="_top" xlink:title="Provides pure virtual interface used by the Configuration class.">
<polygon fill="white" stroke="#666666" points="925.25,-244.75 754.75,-244.75 754.75,-225.5 925.25,-225.5 925.25,-244.75"/>
<text text-anchor="middle" x="840" y="-231.25" font-family="Helvetica,sans-Serif" font-size="10.00">dunedaq::conffwk::ConfigurationImpl</text>
</a>
</g>
</g>
<!-- Node5&#45;&gt;Node14 -->
<g id="edge16_Node000014_Node000005" class="edge">
<title>Node5&#45;&gt;Node14</title>
<g id="a_edge16_Node000014_Node000005"><a xlink:title=" ">
<path fill="none" stroke="#9a32cd" stroke-dasharray="5,2" d="M610.1,-201.54C627.25,-206.78 647.56,-212.42 666.25,-216.12 694.81,-221.79 726.38,-225.88 754.64,-228.79"/>
<polygon fill="#9a32cd" stroke="#9a32cd" points="611.36,-198.27 600.77,-198.63 609.27,-204.95 611.36,-198.27"/>
</a>
</g>
<text text-anchor="middle" x="701.5" y="-227.88" font-family="Helvetica,sans-Serif" font-size="10.00" fill="grey"> m_conf</text>
</g>
<!-- Node6 -->
<g id="Node000006" class="node">
<title>Node6</title>
<g id="a_Node000006"><a xlink:href="classdunedaq_1_1conffwk_1_1map.html" target="_top" xlink:title=" ">
<polygon fill="white" stroke="#666666" points="355.88,-252.38 206.38,-252.38 206.38,-221.88 355.88,-221.88 355.88,-252.38"/>
<text text-anchor="start" x="214.38" y="-238.88" font-family="Helvetica,sans-Serif" font-size="10.00">dunedaq::conffwk::map</text>
<text text-anchor="middle" x="281.12" y="-227.62" font-family="Helvetica,sans-Serif" font-size="10.00">&lt; dunedaq::conffwk::class_t * &gt;</text>
</a>
</g>
</g>
<!-- Node6&#45;&gt;Node5 -->
<g id="edge5_Node000005_Node000006" class="edge">
<title>Node6&#45;&gt;Node5</title>
<g id="a_edge5_Node000005_Node000006"><a xlink:title=" ">
<path fill="none" stroke="#9a32cd" stroke-dasharray="5,2" d="M367.37,-229.34C399.95,-225.68 437.35,-220.67 471,-214.12 492.49,-209.95 516.23,-203.58 534.8,-198.2"/>
<polygon fill="#9a32cd" stroke="#9a32cd" points="367.12,-225.84 357.56,-230.41 367.88,-232.8 367.12,-225.84"/>
</a>
</g>
<text text-anchor="start" x="383.25" y="-262.62" font-family="Helvetica,sans-Serif" font-size="10.00" fill="grey"> p_all_classes_desc</text>
<text text-anchor="middle" x="427.12" y="-251.38" font-family="Helvetica,sans-Serif" font-size="10.00" fill="grey">_cache</text>
<text text-anchor="start" x="383.25" y="-240.12" font-family="Helvetica,sans-Serif" font-size="10.00" fill="grey">p_direct_classes</text>
<text text-anchor="middle" x="427.12" y="-228.88" font-family="Helvetica,sans-Serif" font-size="10.00" fill="grey">_desc_cache</text>
</g>
<!-- Node7 -->
<g id="Node000007" class="node">
<title>Node7</title>
<g id="a_Node000007"><a xlink:title=" ">
<polygon fill="white" stroke="#666666" points="134.12,-277 25.88,-277 25.88,-235.25 134.12,-235.25 134.12,-277"/>
<text text-anchor="start" x="33.88" y="-263.5" font-family="Helvetica,sans-Serif" font-size="10.00">std::unordered_map</text>
<text text-anchor="start" x="33.88" y="-252.25" font-family="Helvetica,sans-Serif" font-size="10.00">&lt; std::string, dunedaq</text>
<text text-anchor="middle" x="80" y="-241" font-family="Helvetica,sans-Serif" font-size="10.00">::conffwk::class_t * &gt;</text>
</a>
</g>
</g>
<!-- Node7&#45;&gt;Node6 -->
<g id="edge6_Node000006_Node000007" class="edge">
<title>Node7&#45;&gt;Node6</title>
<g id="a_edge6_Node000006_Node000007"><a xlink:title=" ">
<path fill="none" stroke="#63b8ff" d="M146.01,-249.92C165.25,-248.09 186.45,-246.06 206.21,-244.18"/>
<polygon fill="#63b8ff" stroke="#63b8ff" points="145.75,-246.43 136.13,-250.86 146.42,-253.4 145.75,-246.43"/>
</a>
</g>
</g>
<!-- Node8 -->
<g id="Node000008" class="node">
<title>Node8</title>
<g id="a_Node000008"><a xlink:href="classdunedaq_1_1conffwk_1_1fmap.html" target="_top" xlink:title=" ">
<polygon fill="white" stroke="#666666" points="339.75,-203.38 222.5,-203.38 222.5,-172.88 339.75,-172.88 339.75,-203.38"/>
<text text-anchor="start" x="230.5" y="-189.88" font-family="Helvetica,sans-Serif" font-size="10.00">dunedaq::conffwk::fmap</text>
<text text-anchor="middle" x="281.12" y="-178.62" font-family="Helvetica,sans-Serif" font-size="10.00">&lt; conffwk::fset &gt;</text>
</a>
</g>
</g>
<!-- Node8&#45;&gt;Node5 -->
<g id="edge7_Node000005_Node000008" class="edge">
<title>Node8&#45;&gt;Node5</title>
<g id="a_edge7_Node000005_Node000008"><a xlink:title=" ">
<path fill="none" stroke="#9a32cd" stroke-dasharray="5,2" d="M351.65,-188.12C394.28,-188.12 448.86,-188.12 492.49,-188.12"/>
<polygon fill="#9a32cd" stroke="#9a32cd" points="351.76,-184.63 341.76,-188.13 351.76,-191.63 351.76,-184.63"/>
</a>
</g>
<text text-anchor="middle" x="427.12" y="-201.12" font-family="Helvetica,sans-Serif" font-size="10.00" fill="grey"> p_subclasses</text>
<text text-anchor="middle" x="427.12" y="-189.88" font-family="Helvetica,sans-Serif" font-size="10.00" fill="grey">p_superclasses</text>
</g>
<!-- Node9 -->
<g id="Node000009" class="node">
<title>Node9</title>
<g id="a_Node000009"><a xlink:title=" ">
<polygon fill="white" stroke="#666666" points="136.75,-217.62 23.25,-217.62 23.25,-164.62 136.75,-164.62 136.75,-217.62"/>
<text text-anchor="start" x="31.25" y="-204.12" font-family="Helvetica,sans-Serif" font-size="10.00">std::unordered_map</text>
<text text-anchor="start" x="31.25" y="-192.88" font-family="Helvetica,sans-Serif" font-size="10.00">&lt; const std::string</text>
<text text-anchor="start" x="31.25" y="-181.62" font-family="Helvetica,sans-Serif" font-size="10.00"> *, conffwk::fset , string</text>
<text text-anchor="middle" x="80" y="-170.38" font-family="Helvetica,sans-Serif" font-size="10.00">_ptr_hash &gt;</text>
</a>
</g>
</g>
<!-- Node9&#45;&gt;Node8 -->
<g id="edge8_Node000008_Node000009" class="edge">
<title>Node9&#45;&gt;Node8</title>
<g id="a_edge8_Node000008_Node000009"><a xlink:title=" ">
<path fill="none" stroke="#63b8ff" d="M148.49,-190.11C172.4,-189.75 199.07,-189.35 222.12,-189"/>
<polygon fill="#63b8ff" stroke="#63b8ff" points="148.46,-186.61 138.51,-190.26 148.56,-193.61 148.46,-186.61"/>
</a>
</g>
</g>
<!-- Node10 -->
<g id="Node000010" class="node">
<title>Node10</title>
<g id="a_Node000010"><a xlink:href="classdunedaq_1_1conffwk_1_1map.html" target="_top" xlink:title=" ">
<polygon fill="white" stroke="#666666" points="342,-149.25 220.25,-149.25 220.25,-85 342,-85 342,-149.25"/>
<text text-anchor="start" x="228.25" y="-135.75" font-family="Helvetica,sans-Serif" font-size="10.00">dunedaq::conffwk::map</text>
<text text-anchor="start" x="228.25" y="-124.5" font-family="Helvetica,sans-Serif" font-size="10.00">&lt; std::list&lt; dunedaq</text>
<text text-anchor="start" x="228.25" y="-113.25" font-family="Helvetica,sans-Serif" font-size="10.00">::conffwk::Configuration</text>
<text text-anchor="start" x="228.25" y="-102" font-family="Helvetica,sans-Serif" font-size="10.00">::AttributeConverterBase</text>
<text text-anchor="middle" x="281.12" y="-90.75" font-family="Helvetica,sans-Serif" font-size="10.00"> * &gt; * &gt;</text>
</a>
</g>
</g>
<!-- Node10&#45;&gt;Node5 -->
<g id="edge9_Node000005_Node000010" class="edge">
<title>Node10&#45;&gt;Node5</title>
<g id="a_edge9_Node000005_Node000010"><a xlink:title=" ">
<path fill="none" stroke="#9a32cd" stroke-dasharray="5,2" d="M353.38,-134.85C408.26,-148.49 482.16,-166.87 527.26,-178.09"/>
<polygon fill="#9a32cd" stroke="#9a32cd" points="354.34,-131.48 343.79,-132.46 352.65,-138.27 354.34,-131.48"/>
</a>
</g>
<text text-anchor="middle" x="427.12" y="-164.88" font-family="Helvetica,sans-Serif" font-size="10.00" fill="grey"> m_convert_map</text>
</g>
<!-- Node11 -->
<g id="Node000011" class="node">
<title>Node11</title>
<g id="a_Node000011"><a xlink:title=" ">
<polygon fill="white" stroke="#666666" points="160,-146.25 0,-146.25 0,-82 160,-82 160,-146.25"/>
<text text-anchor="start" x="8" y="-132.75" font-family="Helvetica,sans-Serif" font-size="10.00">std::unordered_map</text>
<text text-anchor="start" x="8" y="-121.5" font-family="Helvetica,sans-Serif" font-size="10.00">&lt; std::string, std::</text>
<text text-anchor="start" x="8" y="-110.25" font-family="Helvetica,sans-Serif" font-size="10.00">list&lt; dunedaq::conffwk</text>
<text text-anchor="start" x="8" y="-99" font-family="Helvetica,sans-Serif" font-size="10.00">::Configuration::AttributeConverter</text>
<text text-anchor="middle" x="80" y="-87.75" font-family="Helvetica,sans-Serif" font-size="10.00">Base * &gt; * &gt;</text>
</a>
</g>
</g>
<!-- Node11&#45;&gt;Node10 -->
<g id="edge10_Node000010_Node000011" class="edge">
<title>Node11&#45;&gt;Node10</title>
<g id="a_edge10_Node000010_Node000011"><a xlink:title=" ">
<path fill="none" stroke="#63b8ff" d="M171.53,-115.49C187.91,-115.74 204.61,-115.99 219.85,-116.22"/>
<polygon fill="#63b8ff" stroke="#63b8ff" points="171.84,-111.99 161.78,-115.34 171.73,-118.99 171.84,-111.99"/>
</a>
</g>
</g>
<!-- Node12 -->
<g id="Node000012" class="node">
<title>Node12</title>
<g id="a_Node000012"><a xlink:href="classdunedaq_1_1conffwk_1_1fmap.html" target="_top" xlink:title=" ">
<polygon fill="white" stroke="#666666" points="365.25,-59.38 197,-59.38 197,-28.88 365.25,-28.88 365.25,-59.38"/>
<text text-anchor="start" x="205" y="-45.88" font-family="Helvetica,sans-Serif" font-size="10.00">dunedaq::conffwk::fmap</text>
<text text-anchor="middle" x="281.12" y="-34.62" font-family="Helvetica,sans-Serif" font-size="10.00">&lt; dunedaq::conffwk::CacheBase * &gt;</text>
</a>
</g>
</g>
<!-- Node12&#45;&gt;Node5 -->
<g id="edge11_Node000005_Node000012" class="edge">
<title>Node12&#45;&gt;Node5</title>
<g id="a_edge11_Node000005_Node000012"><a xlink:title=" ">
<path fill="none" stroke="#9a32cd" stroke-dasharray="5,2" d="M335.72,-63.89C345.61,-67.79 355.79,-71.96 365.25,-76.12 413.31,-97.31 425.07,-103.4 471,-128.88 500.25,-145.1 533.26,-165.9 552.14,-178.05"/>
<polygon fill="#9a32cd" stroke="#9a32cd" points="337.16,-60.7 326.57,-60.34 334.63,-67.22 337.16,-60.7"/>
</a>
</g>
<text text-anchor="middle" x="427.12" y="-129.88" font-family="Helvetica,sans-Serif" font-size="10.00" fill="grey"> m_cache_map</text>
</g>
<!-- Node13 -->
<g id="Node000013" class="node">
<title>Node13</title>
<g id="a_Node000013"><a xlink:title=" ">
<polygon fill="white" stroke="#666666" points="133,-64.25 27,-64.25 27,0 133,0 133,-64.25"/>
<text text-anchor="start" x="35" y="-50.75" font-family="Helvetica,sans-Serif" font-size="10.00">std::unordered_map</text>
<text text-anchor="start" x="35" y="-39.5" font-family="Helvetica,sans-Serif" font-size="10.00">&lt; const std::string</text>
<text text-anchor="start" x="35" y="-28.25" font-family="Helvetica,sans-Serif" font-size="10.00"> *, dunedaq::conffwk</text>
<text text-anchor="start" x="35" y="-17" font-family="Helvetica,sans-Serif" font-size="10.00">::CacheBase *, string</text>
<text text-anchor="middle" x="80" y="-5.75" font-family="Helvetica,sans-Serif" font-size="10.00">_ptr_hash &gt;</text>
</a>
</g>
</g>
<!-- Node13&#45;&gt;Node12 -->
<g id="edge12_Node000012_Node000013" class="edge">
<title>Node13&#45;&gt;Node12</title>
<g id="a_edge12_Node000012_Node000013"><a xlink:title=" ">
<path fill="none" stroke="#63b8ff" d="M144.51,-35.95C161.06,-36.95 179.16,-38.04 196.58,-39.09"/>
<polygon fill="#63b8ff" stroke="#63b8ff" points="145.02,-32.48 134.83,-35.37 144.6,-39.46 145.02,-32.48"/>
</a>
</g>
</g>
<!-- Node14&#45;&gt;Node5 -->
<g id="edge13_Node000005_Node000014" class="edge">
<title>Node14&#45;&gt;Node5</title>
<g id="a_edge13_Node000005_Node000014"><a xlink:title=" ">
<path fill="none" stroke="#9a32cd" stroke-dasharray="5,2" d="M799.44,-221.54C780.65,-215.57 757.76,-209 736.75,-204.88 706.99,-199.04 673.83,-195.18 644.94,-192.65"/>
<polygon fill="#9a32cd" stroke="#9a32cd" points="798.24,-224.82 808.83,-224.58 800.4,-218.17 798.24,-224.82"/>
</a>
</g>
<text text-anchor="middle" x="701.5" y="-205.88" font-family="Helvetica,sans-Serif" font-size="10.00" fill="grey"> m_impl</text>
</g>
<!-- Node18 -->
<g id="Node000018" class="node">
<title>Node18</title>
<g id="a_Node000018"><a xlink:href="classdunedaq_1_1conffwk_1_1ConfigObjectImpl.html" target="_top" xlink:title="Implements database objects.">
<polygon fill="white" stroke="#666666" points="1117.5,-242.38 995,-242.38 995,-211.88 1117.5,-211.88 1117.5,-242.38"/>
<text text-anchor="start" x="1003" y="-228.88" font-family="Helvetica,sans-Serif" font-size="10.00">dunedaq::conffwk::Config</text>
<text text-anchor="middle" x="1056.25" y="-217.62" font-family="Helvetica,sans-Serif" font-size="10.00">ObjectImpl</text>
</a>
</g>
</g>
<!-- Node14&#45;&gt;Node18 -->
<g id="edge19_Node000018_Node000014" class="edge">
<title>Node14&#45;&gt;Node18</title>
<g id="a_edge19_Node000018_Node000014"><a xlink:title=" ">
<path fill="none" stroke="#9a32cd" stroke-dasharray="5,2" d="M937.12,-231.54C956.67,-230.81 976.73,-230.06 994.63,-229.39"/>
<polygon fill="#9a32cd" stroke="#9a32cd" points="937.05,-228.04 927.19,-231.91 937.31,-235.03 937.05,-228.04"/>
</a>
</g>
<text text-anchor="middle" x="960.12" y="-232.88" font-family="Helvetica,sans-Serif" font-size="10.00" fill="grey"> m_impl</text>
</g>
<!-- Node15 -->
<g id="Node000015" class="node">
<title>Node15</title>
<g id="a_Node000015"><a xlink:href="classdunedaq_1_1conffwk_1_1pmap.html" target="_top" xlink:title=" ">
<polygon fill="white" stroke="#666666" points="648.25,-320.62 489,-320.62 489,-267.62 648.25,-267.62 648.25,-320.62"/>
<text text-anchor="start" x="497" y="-307.12" font-family="Helvetica,sans-Serif" font-size="10.00">dunedaq::conffwk::pmap</text>
<text text-anchor="start" x="497" y="-295.88" font-family="Helvetica,sans-Serif" font-size="10.00">&lt; dunedaq::conffwk::map</text>
<text text-anchor="start" x="497" y="-284.62" font-family="Helvetica,sans-Serif" font-size="10.00">&lt; dunedaq::conffwk::ConfigObject</text>
<text text-anchor="middle" x="568.62" y="-273.38" font-family="Helvetica,sans-Serif" font-size="10.00">Impl * &gt; * &gt;</text>
</a>
</g>
</g>
<!-- Node15&#45;&gt;Node14 -->
<g id="edge14_Node000014_Node000015" class="edge">
<title>Node15&#45;&gt;Node14</title>
<g id="a_edge14_Node000014_Node000015"><a xlink:title=" ">
<path fill="none" stroke="#9a32cd" stroke-dasharray="5,2" d="M659.8,-274.37C704.43,-264.6 756.41,-253.21 792.85,-245.23"/>
<polygon fill="#9a32cd" stroke="#9a32cd" points="659.12,-270.94 650.1,-276.5 660.62,-277.78 659.12,-270.94"/>
</a>
</g>
<text text-anchor="middle" x="701.5" y="-272.88" font-family="Helvetica,sans-Serif" font-size="10.00" fill="grey"> m_impl_objects</text>
</g>
<!-- Node16 -->
<g id="Node000016" class="node">
<title>Node16</title>
<g id="a_Node000016"><a xlink:title=" ">
<polygon fill="white" stroke="#666666" points="348.75,-334.25 213.5,-334.25 213.5,-270 348.75,-270 348.75,-334.25"/>
<text text-anchor="start" x="221.5" y="-320.75" font-family="Helvetica,sans-Serif" font-size="10.00">std::map&lt; const std</text>
<text text-anchor="start" x="221.5" y="-309.5" font-family="Helvetica,sans-Serif" font-size="10.00">::string *, dunedaq</text>
<text text-anchor="start" x="221.5" y="-298.25" font-family="Helvetica,sans-Serif" font-size="10.00">::conffwk::map&lt; dunedaq</text>
<text text-anchor="start" x="221.5" y="-287" font-family="Helvetica,sans-Serif" font-size="10.00">::conffwk::ConfigObjectImpl</text>
<text text-anchor="middle" x="281.12" y="-275.75" font-family="Helvetica,sans-Serif" font-size="10.00"> * &gt; * , string_ptr_compare &gt;</text>
</a>
</g>
</g>
<!-- Node16&#45;&gt;Node15 -->
<g id="edge15_Node000015_Node000016" class="edge">
<title>Node16&#45;&gt;Node15</title>
<g id="a_edge15_Node000015_Node000016"><a xlink:title=" ">
<path fill="none" stroke="#63b8ff" d="M360.35,-299.93C400.25,-298.81 448.68,-297.46 488.69,-296.34"/>
<polygon fill="#63b8ff" stroke="#63b8ff" points="360.47,-296.43 350.58,-300.21 360.67,-303.43 360.47,-296.43"/>
</a>
</g>
</g>
<!-- Node17 -->
<g id="Node000017" class="node">
<title>Node17</title>
<g id="a_Node000017"><a xlink:href="classdunedaq_1_1conffwk_1_1ConfigObject.html" target="_top" xlink:title="Represents database objects.">
<polygon fill="white" stroke="#666666" points="1309.75,-230.38 1187.25,-230.38 1187.25,-199.88 1309.75,-199.88 1309.75,-230.38"/>
<text text-anchor="start" x="1195.25" y="-216.88" font-family="Helvetica,sans-Serif" font-size="10.00">dunedaq::conffwk::Config</text>
<text text-anchor="middle" x="1248.5" y="-205.62" font-family="Helvetica,sans-Serif" font-size="10.00">Object</text>
</a>
</g>
</g>
<!-- Node17&#45;&gt;Node4 -->
<g id="edge17_Node000004_Node000017" class="edge">
<title>Node17&#45;&gt;Node4</title>
<g id="a_edge17_Node000004_Node000017"><a xlink:title=" ">
<path fill="none" stroke="#9a32cd" stroke-dasharray="5,2" d="M1321.17,-204.56C1337.43,-202.16 1354.65,-199.62 1370.77,-197.24"/>
<polygon fill="#9a32cd" stroke="#9a32cd" points="1320.98,-201.05 1311.6,-205.97 1322,-207.97 1320.98,-201.05"/>
</a>
</g>
<text text-anchor="middle" x="1340.5" y="-203.88" font-family="Helvetica,sans-Serif" font-size="10.00" fill="grey"> p_obj</text>
</g>
<!-- Node18&#45;&gt;Node17 -->
<g id="edge18_Node000017_Node000018" class="edge">
<title>Node18&#45;&gt;Node17</title>
<g id="a_edge18_Node000017_Node000018"><a xlink:title=" ">
<path fill="none" stroke="#9a32cd" stroke-dasharray="5,2" d="M1129.31,-222.58C1148.34,-221.38 1168.68,-220.1 1187.03,-218.94"/>
<polygon fill="#9a32cd" stroke="#9a32cd" points="1129.24,-219.08 1119.48,-223.2 1129.68,-226.06 1129.24,-219.08"/>
</a>
</g>
<text text-anchor="middle" x="1152.38" y="-222.88" font-family="Helvetica,sans-Serif" font-size="10.00" fill="grey"> m_impl</text>
</g>
<!-- Node19&#45;&gt;Node3 -->
<g id="edge21_Node000003_Node000019" class="edge">
<title>Node19&#45;&gt;Node3</title>
<g id="a_edge21_Node000003_Node000019"><a xlink:title=" ">
<path fill="none" stroke="#9a32cd" stroke-dasharray="5,2" d="M1991.96,-253.12C2029.01,-253.12 2072.4,-253.12 2107.91,-253.12"/>
<polygon fill="#9a32cd" stroke="#9a32cd" points="1992.2,-249.63 1982.2,-253.13 1992.2,-256.63 1992.2,-249.63"/>
</a>
</g>
<text text-anchor="middle" x="2037.12" y="-254.88" font-family="Helvetica,sans-Serif" font-size="10.00" fill="grey"> m_runs_on</text>
</g>
<!-- Node20&#45;&gt;Node19 -->
<g id="edge24_Node000019_Node000020" class="edge">
<title>Node20&#45;&gt;Node19</title>
<g id="a_edge24_Node000019_Node000020"><a xlink:title=" ">
<path fill="none" stroke="#9a32cd" stroke-dasharray="5,2" d="M1715.73,-207.5C1746.01,-209.21 1780.11,-212.55 1810.75,-218.88 1836.99,-224.29 1865.8,-235.01 1885.3,-243.02"/>
<polygon fill="#9a32cd" stroke="#9a32cd" points="1716.01,-204.01 1705.84,-206.99 1715.65,-211 1716.01,-204.01"/>
</a>
</g>
<text text-anchor="middle" x="1769.88" y="-219.88" font-family="Helvetica,sans-Serif" font-size="10.00" fill="grey"> m_runs_on</text>
</g>
<!-- Node21&#45;&gt;Node2 -->
<g id="edge28_Node000002_Node000021" class="edge">
<title>Node21&#45;&gt;Node2</title>
<g id="a_edge28_Node000002_Node000021"><a xlink:title=" ">
<path fill="none" stroke="#9a32cd" stroke-dasharray="5,2" d="M1716.19,-171.21C1866.9,-174.84 2174.6,-182.26 2309.84,-185.53"/>
<polygon fill="#9a32cd" stroke="#9a32cd" points="1716.33,-167.71 1706.25,-170.97 1716.16,-174.71 1716.33,-167.71"/>
</a>
</g>
<text text-anchor="middle" x="2037.12" y="-180.88" font-family="Helvetica,sans-Serif" font-size="10.00" fill="grey"> m_source_id</text>
</g>
<!-- Node22 -->
<g id="Node000022" class="node">
<title>Node22</title>
<g id="a_Node000022"><a xlink:href="classdunedaq_1_1appdal_1_1HSI2TCTranslatorConf.html" target="_top" xlink:title=" ">
<polygon fill="white" stroke="#666666" points="2273.25,-131.75 2084,-131.75 2084,-112.5 2273.25,-112.5 2273.25,-131.75"/>
<text text-anchor="middle" x="2178.62" y="-118.25" font-family="Helvetica,sans-Serif" font-size="10.00">dunedaq::appdal::HSI2TCTranslatorConf</text>
</a>
</g>
</g>
<!-- Node22&#45;&gt;Node1 -->
<g id="edge32_Node000001_Node000022" class="edge">
<title>Node22&#45;&gt;Node1</title>
<g id="a_edge32_Node000001_Node000022"><a xlink:title=" ">
<path fill="none" stroke="#9a32cd" stroke-dasharray="5,2" d="M2284.68,-128.6C2333.54,-132.97 2392.17,-140.16 2444,-151.88 2465.41,-156.71 2488.58,-164.49 2507.43,-171.51"/>
<polygon fill="#9a32cd" stroke="#9a32cd" points="2285.22,-125.13 2274.96,-127.76 2284.62,-132.11 2285.22,-125.13"/>
</a>
</g>
<text text-anchor="middle" x="2377.12" y="-152.88" font-family="Helvetica,sans-Serif" font-size="10.00" fill="grey"> m_hsevent_to_tc_conf</text>
</g>
<!-- Node23&#45;&gt;Node22 -->
<g id="edge33_Node000022_Node000023" class="edge">
<title>Node23&#45;&gt;Node22</title>
<g id="a_edge33_Node000022_Node000023"><a xlink:title=" ">
<path fill="none" stroke="#63b8ff" d="M2001.83,-115.68C2028.32,-115.28 2057.28,-115.27 2083.91,-115.65"/>
<polygon fill="#63b8ff" stroke="#63b8ff" points="2002.1,-112.18 1992.16,-115.85 2002.22,-119.18 2002.1,-112.18"/>
</a>
</g>
</g>
<!-- Node23&#45;&gt;Node22 -->
<g id="edge39_Node000022_Node000023" class="edge">
<title>Node23&#45;&gt;Node22</title>
<g id="a_edge39_Node000022_Node000023"><a xlink:title=" ">
<path fill="none" stroke="#63b8ff" d="M2001.83,-128.57C2028.32,-128.97 2057.28,-128.98 2083.91,-128.6"/>
<polygon fill="#63b8ff" stroke="#63b8ff" points="2002.22,-125.07 1992.16,-128.4 2002.1,-132.07 2002.22,-125.07"/>
</a>
</g>
</g>
<!-- Node24&#45;&gt;Node23 -->
<g id="edge36_Node000023_Node000024" class="edge">
<title>Node24&#45;&gt;Node23</title>
<g id="a_edge36_Node000023_Node000024"><a xlink:title=" ">
<path fill="none" stroke="#9a32cd" stroke-dasharray="5,2" d="M1722.67,-74.95C1751.16,-77.57 1782.44,-81.62 1810.75,-87.88 1836.74,-93.61 1865.35,-104.17 1884.86,-112.05"/>
<polygon fill="#9a32cd" stroke="#9a32cd" points="1723.27,-71.49 1713,-74.11 1722.66,-78.46 1723.27,-71.49"/>
</a>
</g>
<text text-anchor="middle" x="1769.88" y="-88.88" font-family="Helvetica,sans-Serif" font-size="10.00" fill="grey"> m_emulation_conf</text>
</g>
</g>
</svg>
