<?xml version="1.0" encoding="UTF-8" standalone="no"?>
<!DOCTYPE svg PUBLIC "-//W3C//DTD SVG 1.1//EN"
 "http://www.w3.org/Graphics/SVG/1.1/DTD/svg11.dtd">
<!-- Generated by graphviz version 9.0.0 (20230911.1827)
 -->
<!-- Title: dunedaq::timinglibs::dal::TimingHardwareManagerPDII Pages: 1 -->
<svg width="174pt" height="149pt"
 viewBox="0.00 0.00 174.00 149.00" xmlns="http://www.w3.org/2000/svg" xmlns:xlink="http://www.w3.org/1999/xlink">
<g id="graph0" class="graph" transform="scale(1 1) rotate(0) translate(4 145)">
<title>dunedaq::timinglibs::dal::TimingHardwareManagerPDII</title>
<!-- Node1 -->
<g id="Node000001" class="node">
<title>Node1</title>
<g id="a_Node000001"><a xlink:title=" ">
<polygon fill="#999999" stroke="#666666" points="166,-30.5 0,-30.5 0,0 166,0 166,-30.5"/>
<text text-anchor="start" x="8" y="-17" font-family="Helvetica,sans-Serif" font-size="10.00">dunedaq::timinglibs</text>
<text text-anchor="middle" x="83" y="-5.75" font-family="Helvetica,sans-Serif" font-size="10.00">::dal::TimingHardwareManagerPDII</text>
</a>
</g>
</g>
<!-- Node2 -->
<g id="Node000002" class="node">
<title>Node2</title>
<g id="a_Node000002"><a xlink:href="classdunedaq_1_1coredal_1_1DaqModule.html" target="_top" xlink:title=" ">
<polygon fill="white" stroke="#666666" points="154,-85.75 12,-85.75 12,-66.5 154,-66.5 154,-85.75"/>
<text text-anchor="middle" x="83" y="-72.25" font-family="Helvetica,sans-Serif" font-size="10.00">dunedaq::coredal::DaqModule</text>
</a>
</g>
</g>
<!-- Node2&#45;&gt;Node1 -->
<g id="edge1_Node000001_Node000002" class="edge">
<title>Node2&#45;&gt;Node1</title>
<g id="a_edge1_Node000001_Node000002"><a xlink:title=" ">
<path fill="none" stroke="#63b8ff" d="M76.55,-54.92C76.02,-46.99 76.19,-38.06 77.09,-30.78"/>
<polygon fill="#63b8ff" stroke="#63b8ff" points="73.06,-55.2 77.8,-64.68 80.01,-54.32 73.06,-55.2"/>
</a>
</g>
</g>
<!-- Node2&#45;&gt;Node1 -->
<g id="edge4_Node000001_Node000002" class="edge">
<title>Node2&#45;&gt;Node1</title>
<g id="a_edge4_Node000001_Node000002"><a xlink:title=" ">
<path fill="none" stroke="#63b8ff" d="M89.45,-54.92C89.98,-46.99 89.81,-38.06 88.91,-30.78"/>
<polygon fill="#63b8ff" stroke="#63b8ff" points="85.99,-54.32 88.2,-64.68 92.94,-55.2 85.99,-54.32"/>
</a>
</g>
</g>
<!-- Node3 -->
<g id="Node000003" class="node">
<title>Node3</title>
<g id="a_Node000003"><a xlink:href="classdunedaq_1_1conffwk_1_1DalObject.html" target="_top" xlink:title="The base class for any generated DAL object.">
<polygon fill="white" stroke="#666666" points="152.12,-141 13.88,-141 13.88,-121.75 152.12,-121.75 152.12,-141"/>
<text text-anchor="middle" x="83" y="-127.5" font-family="Helvetica,sans-Serif" font-size="10.00">dunedaq::conffwk::DalObject</text>
</a>
</g>
</g>
<!-- Node3&#45;&gt;Node2 -->
<g id="edge2_Node000002_Node000003" class="edge">
<title>Node3&#45;&gt;Node2</title>
<g id="a_edge2_Node000002_Node000003"><a xlink:title=" ">
<path fill="none" stroke="#63b8ff" d="M76.44,-110.42C75.95,-102.05 76.4,-92.75 77.79,-86.11"/>
<polygon fill="#63b8ff" stroke="#63b8ff" points="72.94,-110.59 77.65,-120.08 79.88,-109.72 72.94,-110.59"/>
</a>
</g>
</g>
<!-- Node3&#45;&gt;Node2 -->
<g id="edge3_Node000002_Node000003" class="edge">
<title>Node3&#45;&gt;Node2</title>
<g id="a_edge3_Node000002_Node000003"><a xlink:title=" ">
<path fill="none" stroke="#63b8ff" d="M89.56,-110.42C90.05,-102.05 89.6,-92.75 88.21,-86.11"/>
<polygon fill="#63b8ff" stroke="#63b8ff" points="86.12,-109.72 88.35,-120.08 93.06,-110.59 86.12,-109.72"/>
</a>
</g>
</g>
</g>
</svg>
