<?xml version="1.0" encoding="UTF-8" standalone="no"?>
<!DOCTYPE svg PUBLIC "-//W3C//DTD SVG 1.1//EN"
 "http://www.w3.org/Graphics/SVG/1.1/DTD/svg11.dtd">
<!-- Generated by graphviz version 9.0.0 (20230911.1827)
 -->
<!-- Title: dunedaq::coredal::RCApplication Pages: 1 -->
<svg width="2388pt" height="342pt"
 viewBox="0.00 0.00 2387.50 342.25" xmlns="http://www.w3.org/2000/svg" xmlns:xlink="http://www.w3.org/1999/xlink">
<g id="graph0" class="graph" transform="scale(1 1) rotate(0) translate(4 338.25)">
<title>dunedaq::coredal::RCApplication</title>
<!-- Node1 -->
<g id="Node000001" class="node">
<title>Node1</title>
<g id="a_Node000001"><a xlink:title=" ">
<polygon fill="#999999" stroke="#666666" points="2379.5,-179.75 2224.75,-179.75 2224.75,-160.5 2379.5,-160.5 2379.5,-179.75"/>
<text text-anchor="middle" x="2302.12" y="-166.25" font-family="Helvetica,sans-Serif" font-size="10.00">dunedaq::coredal::RCApplication</text>
</a>
</g>
</g>
<!-- Node2 -->
<g id="Node000002" class="node">
<title>Node2</title>
<g id="a_Node000002"><a xlink:href="classdunedaq_1_1coredal_1_1Application.html" target="_top" xlink:title=" ">
<polygon fill="white" stroke="#666666" points="2187.75,-239.75 2046.5,-239.75 2046.5,-220.5 2187.75,-220.5 2187.75,-239.75"/>
<text text-anchor="middle" x="2117.12" y="-226.25" font-family="Helvetica,sans-Serif" font-size="10.00">dunedaq::coredal::Application</text>
</a>
</g>
</g>
<!-- Node2&#45;&gt;Node1 -->
<g id="edge1_Node000001_Node000002" class="edge">
<title>Node2&#45;&gt;Node1</title>
<g id="a_edge1_Node000001_Node000002"><a xlink:title=" ">
<path fill="none" stroke="#63b8ff" d="M2146.31,-215.85C2174.41,-204.77 2218.14,-190.09 2251.97,-180.18"/>
<polygon fill="#63b8ff" stroke="#63b8ff" points="2145.34,-212.46 2137.41,-219.48 2147.99,-218.94 2145.34,-212.46"/>
</a>
</g>
</g>
<!-- Node2&#45;&gt;Node1 -->
<g id="edge26_Node000001_Node000002" class="edge">
<title>Node2&#45;&gt;Node1</title>
<g id="a_edge26_Node000001_Node000002"><a xlink:title=" ">
<path fill="none" stroke="#63b8ff" d="M2177.78,-216.94C2214.48,-205.81 2258.98,-190.5 2283.24,-180.2"/>
<polygon fill="#63b8ff" stroke="#63b8ff" points="2177.2,-213.46 2168.62,-219.67 2179.2,-220.17 2177.2,-213.46"/>
</a>
</g>
</g>
<!-- Node3 -->
<g id="Node000003" class="node">
<title>Node3</title>
<g id="a_Node000003"><a xlink:href="classdunedaq_1_1conffwk_1_1DalObject.html" target="_top" xlink:title="The base class for any generated DAL object.">
<polygon fill="white" stroke="#666666" points="1509.5,-196.75 1371.25,-196.75 1371.25,-177.5 1509.5,-177.5 1509.5,-196.75"/>
<text text-anchor="middle" x="1440.38" y="-183.25" font-family="Helvetica,sans-Serif" font-size="10.00">dunedaq::conffwk::DalObject</text>
</a>
</g>
</g>
<!-- Node3&#45;&gt;Node2 -->
<g id="edge2_Node000002_Node000003" class="edge">
<title>Node3&#45;&gt;Node2</title>
<g id="a_edge2_Node000002_Node000003"><a xlink:title=" ">
<path fill="none" stroke="#63b8ff" d="M1478.2,-202.38C1497.72,-212.53 1522.56,-224.75 1546.5,-231.12 1721.41,-277.69 1937.33,-252.57 2046.25,-237.75"/>
<polygon fill="#63b8ff" stroke="#63b8ff" points="1480.05,-199.4 1469.57,-197.86 1476.81,-205.6 1480.05,-199.4"/>
</a>
</g>
</g>
<!-- Node3&#45;&gt;Node2 -->
<g id="edge19_Node000002_Node000003" class="edge">
<title>Node3&#45;&gt;Node2</title>
<g id="a_edge19_Node000002_Node000003"><a xlink:title=" ">
<path fill="none" stroke="#63b8ff" d="M1457.54,-204.32C1477.48,-219.69 1512.88,-240.17 1546.5,-249.12 1747.22,-302.56 2001.94,-261.6 2087,-240.19"/>
<polygon fill="#63b8ff" stroke="#63b8ff" points="1459.92,-201.75 1450,-198.02 1455.43,-207.12 1459.92,-201.75"/>
</a>
</g>
</g>
<!-- Node18 -->
<g id="Node000018" class="node">
<title>Node18</title>
<g id="a_Node000018"><a xlink:href="classdunedaq_1_1coredal_1_1VirtualHost.html" target="_top" xlink:title=" ">
<polygon fill="white" stroke="#666666" points="1943.75,-239.75 1801.75,-239.75 1801.75,-220.5 1943.75,-220.5 1943.75,-239.75"/>
<text text-anchor="middle" x="1872.75" y="-226.25" font-family="Helvetica,sans-Serif" font-size="10.00">dunedaq::coredal::VirtualHost</text>
</a>
</g>
</g>
<!-- Node3&#45;&gt;Node18 -->
<g id="edge21_Node000018_Node000003" class="edge">
<title>Node3&#45;&gt;Node18</title>
<g id="a_edge21_Node000018_Node000003"><a xlink:title=" ">
<path fill="none" stroke="#63b8ff" d="M1520.94,-197.09C1523.15,-197.46 1525.34,-197.8 1527.5,-198.12 1621.71,-212.12 1731.69,-217.6 1801.51,-221.9"/>
<polygon fill="#63b8ff" stroke="#63b8ff" points="1521.77,-193.68 1511.31,-195.37 1520.54,-200.57 1521.77,-193.68"/>
</a>
</g>
</g>
<!-- Node3&#45;&gt;Node18 -->
<g id="edge22_Node000018_Node000003" class="edge">
<title>Node3&#45;&gt;Node18</title>
<g id="a_edge22_Node000018_Node000003"><a xlink:title=" ">
<path fill="none" stroke="#63b8ff" d="M1465.4,-201.34C1482.56,-207.3 1506.28,-212.97 1527.5,-216.12 1621.71,-230.12 1731.69,-235.6 1801.51,-235.59"/>
<polygon fill="#63b8ff" stroke="#63b8ff" points="1466.67,-198.08 1456.08,-197.74 1464.15,-204.61 1466.67,-198.08"/>
</a>
</g>
</g>
<!-- Node19 -->
<g id="Node000019" class="node">
<title>Node19</title>
<g id="a_Node000019"><a xlink:href="classdunedaq_1_1coredal_1_1PhysicalHost.html" target="_top" xlink:title=" ">
<polygon fill="white" stroke="#666666" points="1706.5,-192.75 1555.5,-192.75 1555.5,-173.5 1706.5,-173.5 1706.5,-192.75"/>
<text text-anchor="middle" x="1631" y="-179.25" font-family="Helvetica,sans-Serif" font-size="10.00">dunedaq::coredal::PhysicalHost</text>
</a>
</g>
</g>
<!-- Node3&#45;&gt;Node19 -->
<g id="edge24_Node000019_Node000003" class="edge">
<title>Node3&#45;&gt;Node19</title>
<g id="a_edge24_Node000019_Node000003"><a xlink:title=" ">
<path fill="none" stroke="#63b8ff" d="M1520.96,-178.76C1532.3,-178.41 1543.93,-178.18 1555.17,-178.09"/>
<polygon fill="#63b8ff" stroke="#63b8ff" points="1521.12,-175.25 1511.25,-179.1 1521.37,-182.25 1521.12,-175.25"/>
</a>
</g>
</g>
<!-- Node3&#45;&gt;Node19 -->
<g id="edge25_Node000019_Node000003" class="edge">
<title>Node3&#45;&gt;Node19</title>
<g id="a_edge25_Node000019_Node000003"><a xlink:title=" ">
<path fill="none" stroke="#63b8ff" d="M1520.96,-192.11C1532.3,-191.99 1543.93,-191.72 1555.17,-191.33"/>
<polygon fill="#63b8ff" stroke="#63b8ff" points="1521.23,-188.61 1511.25,-192.18 1521.28,-195.61 1521.23,-188.61"/>
</a>
</g>
</g>
<!-- Node20 -->
<g id="Node000020" class="node">
<title>Node20</title>
<g id="a_Node000020"><a xlink:href="classdunedaq_1_1coredal_1_1FSMconfiguration.html" target="_top" xlink:title=" ">
<polygon fill="white" stroke="#666666" points="1715.5,-153.75 1546.5,-153.75 1546.5,-134.5 1715.5,-134.5 1715.5,-153.75"/>
<text text-anchor="middle" x="1631" y="-140.25" font-family="Helvetica,sans-Serif" font-size="10.00">dunedaq::coredal::FSMconfiguration</text>
</a>
</g>
</g>
<!-- Node3&#45;&gt;Node20 -->
<g id="edge28_Node000020_Node000003" class="edge">
<title>Node3&#45;&gt;Node20</title>
<g id="a_edge28_Node000020_Node000003"><a xlink:title=" ">
<path fill="none" stroke="#63b8ff" d="M1476.31,-173.78C1498.87,-167.42 1529.06,-160.13 1556.72,-154.23"/>
<polygon fill="#63b8ff" stroke="#63b8ff" points="1475.33,-170.42 1466.72,-176.58 1477.3,-177.14 1475.33,-170.42"/>
</a>
</g>
</g>
<!-- Node3&#45;&gt;Node20 -->
<g id="edge29_Node000020_Node000003" class="edge">
<title>Node3&#45;&gt;Node20</title>
<g id="a_edge29_Node000020_Node000003"><a xlink:title=" ">
<path fill="none" stroke="#63b8ff" d="M1520.96,-175.66C1551.74,-168.95 1584.66,-160.78 1606.18,-154.22"/>
<polygon fill="#63b8ff" stroke="#63b8ff" points="1520.27,-172.23 1511.22,-177.74 1521.73,-179.07 1520.27,-172.23"/>
</a>
</g>
</g>
<!-- Node21 -->
<g id="Node000021" class="node">
<title>Node21</title>
<g id="a_Node000021"><a xlink:href="classdunedaq_1_1coredal_1_1RCBroadcaster.html" target="_top" xlink:title=" ">
<polygon fill="white" stroke="#666666" points="1710.62,-110.75 1551.38,-110.75 1551.38,-91.5 1710.62,-91.5 1710.62,-110.75"/>
<text text-anchor="middle" x="1631" y="-97.25" font-family="Helvetica,sans-Serif" font-size="10.00">dunedaq::coredal::RCBroadcaster</text>
</a>
</g>
</g>
<!-- Node3&#45;&gt;Node21 -->
<g id="edge31_Node000021_Node000003" class="edge">
<title>Node3&#45;&gt;Node21</title>
<g id="a_edge31_Node000021_Node000003"><a xlink:title=" ">
<path fill="none" stroke="#63b8ff" d="M1457.13,-169.83C1477.13,-153.53 1513.05,-130.52 1546.5,-116.12 1550.52,-114.4 1554.7,-112.75 1558.95,-111.21"/>
<polygon fill="#63b8ff" stroke="#63b8ff" points="1455.04,-167.01 1449.82,-176.22 1459.65,-172.28 1455.04,-167.01"/>
</a>
</g>
</g>
<!-- Node3&#45;&gt;Node21 -->
<g id="edge32_Node000021_Node000003" class="edge">
<title>Node3&#45;&gt;Node21</title>
<g id="a_edge32_Node000021_Node000003"><a xlink:title=" ">
<path fill="none" stroke="#63b8ff" d="M1476.18,-171.5C1496.11,-159.87 1521.97,-144.68 1546.5,-134.12 1569.08,-124.41 1596.76,-117.33 1613.89,-111.15"/>
<polygon fill="#63b8ff" stroke="#63b8ff" points="1474.54,-168.4 1467.65,-176.45 1478.05,-174.46 1474.54,-168.4"/>
</a>
</g>
</g>
<!-- Node4 -->
<g id="Node000004" class="node">
<title>Node4</title>
<g id="a_Node000004"><a xlink:href="classdunedaq_1_1conffwk_1_1Configuration.html" target="_top" xlink:title=" ">
<polygon fill="white" stroke="#666666" points="644.5,-197.75 492.75,-197.75 492.75,-178.5 644.5,-178.5 644.5,-197.75"/>
<text text-anchor="middle" x="568.62" y="-184.25" font-family="Helvetica,sans-Serif" font-size="10.00">dunedaq::conffwk::Configuration</text>
</a>
</g>
</g>
<!-- Node4&#45;&gt;Node3 -->
<g id="edge3_Node000003_Node000004" class="edge">
<title>Node4&#45;&gt;Node3</title>
<g id="a_edge3_Node000003_Node000004"><a xlink:title=" ">
<path fill="none" stroke="#9a32cd" stroke-dasharray="5,2" d="M656.08,-179.89C708.87,-175.55 777.77,-171.12 839,-171.12 839,-171.12 839,-171.12 1249.5,-171.12 1289.86,-171.12 1334.87,-174.76 1370.94,-178.56"/>
<polygon fill="#9a32cd" stroke="#9a32cd" points="655.91,-176.39 646.24,-180.72 656.49,-183.37 655.91,-176.39"/>
</a>
</g>
<text text-anchor="middle" x="1056.25" y="-172.88" font-family="Helvetica,sans-Serif" font-size="10.00" fill="grey"> p_db</text>
</g>
<!-- Node13 -->
<g id="Node000013" class="node">
<title>Node13</title>
<g id="a_Node000013"><a xlink:href="classdunedaq_1_1conffwk_1_1ConfigurationImpl.html" target="_top" xlink:title="Provides pure virtual interface used by the Configuration class.">
<polygon fill="white" stroke="#666666" points="925.25,-244.75 754.75,-244.75 754.75,-225.5 925.25,-225.5 925.25,-244.75"/>
<text text-anchor="middle" x="840" y="-231.25" font-family="Helvetica,sans-Serif" font-size="10.00">dunedaq::conffwk::ConfigurationImpl</text>
</a>
</g>
</g>
<!-- Node4&#45;&gt;Node13 -->
<g id="edge15_Node000013_Node000004" class="edge">
<title>Node4&#45;&gt;Node13</title>
<g id="a_edge15_Node000013_Node000004"><a xlink:title=" ">
<path fill="none" stroke="#9a32cd" stroke-dasharray="5,2" d="M610.1,-201.54C627.25,-206.78 647.56,-212.42 666.25,-216.12 694.81,-221.79 726.38,-225.88 754.64,-228.79"/>
<polygon fill="#9a32cd" stroke="#9a32cd" points="611.36,-198.27 600.77,-198.63 609.27,-204.95 611.36,-198.27"/>
</a>
</g>
<text text-anchor="middle" x="701.5" y="-227.88" font-family="Helvetica,sans-Serif" font-size="10.00" fill="grey"> m_conf</text>
</g>
<!-- Node5 -->
<g id="Node000005" class="node">
<title>Node5</title>
<g id="a_Node000005"><a xlink:href="classdunedaq_1_1conffwk_1_1map.html" target="_top" xlink:title=" ">
<polygon fill="white" stroke="#666666" points="355.88,-252.38 206.38,-252.38 206.38,-221.88 355.88,-221.88 355.88,-252.38"/>
<text text-anchor="start" x="214.38" y="-238.88" font-family="Helvetica,sans-Serif" font-size="10.00">dunedaq::conffwk::map</text>
<text text-anchor="middle" x="281.12" y="-227.62" font-family="Helvetica,sans-Serif" font-size="10.00">&lt; dunedaq::conffwk::class_t * &gt;</text>
</a>
</g>
</g>
<!-- Node5&#45;&gt;Node4 -->
<g id="edge4_Node000004_Node000005" class="edge">
<title>Node5&#45;&gt;Node4</title>
<g id="a_edge4_Node000004_Node000005"><a xlink:title=" ">
<path fill="none" stroke="#9a32cd" stroke-dasharray="5,2" d="M367.37,-229.34C399.95,-225.68 437.35,-220.67 471,-214.12 492.49,-209.95 516.23,-203.58 534.8,-198.2"/>
<polygon fill="#9a32cd" stroke="#9a32cd" points="367.12,-225.84 357.56,-230.41 367.88,-232.8 367.12,-225.84"/>
</a>
</g>
<text text-anchor="start" x="383.25" y="-262.62" font-family="Helvetica,sans-Serif" font-size="10.00" fill="grey"> p_all_classes_desc</text>
<text text-anchor="middle" x="427.12" y="-251.38" font-family="Helvetica,sans-Serif" font-size="10.00" fill="grey">_cache</text>
<text text-anchor="start" x="383.25" y="-240.12" font-family="Helvetica,sans-Serif" font-size="10.00" fill="grey">p_direct_classes</text>
<text text-anchor="middle" x="427.12" y="-228.88" font-family="Helvetica,sans-Serif" font-size="10.00" fill="grey">_desc_cache</text>
</g>
<!-- Node6 -->
<g id="Node000006" class="node">
<title>Node6</title>
<g id="a_Node000006"><a xlink:title=" ">
<polygon fill="white" stroke="#666666" points="134.12,-277 25.88,-277 25.88,-235.25 134.12,-235.25 134.12,-277"/>
<text text-anchor="start" x="33.88" y="-263.5" font-family="Helvetica,sans-Serif" font-size="10.00">std::unordered_map</text>
<text text-anchor="start" x="33.88" y="-252.25" font-family="Helvetica,sans-Serif" font-size="10.00">&lt; std::string, dunedaq</text>
<text text-anchor="middle" x="80" y="-241" font-family="Helvetica,sans-Serif" font-size="10.00">::conffwk::class_t * &gt;</text>
</a>
</g>
</g>
<!-- Node6&#45;&gt;Node5 -->
<g id="edge5_Node000005_Node000006" class="edge">
<title>Node6&#45;&gt;Node5</title>
<g id="a_edge5_Node000005_Node000006"><a xlink:title=" ">
<path fill="none" stroke="#63b8ff" d="M146.01,-249.92C165.25,-248.09 186.45,-246.06 206.21,-244.18"/>
<polygon fill="#63b8ff" stroke="#63b8ff" points="145.75,-246.43 136.13,-250.86 146.42,-253.4 145.75,-246.43"/>
</a>
</g>
</g>
<!-- Node7 -->
<g id="Node000007" class="node">
<title>Node7</title>
<g id="a_Node000007"><a xlink:href="classdunedaq_1_1conffwk_1_1fmap.html" target="_top" xlink:title=" ">
<polygon fill="white" stroke="#666666" points="339.75,-203.38 222.5,-203.38 222.5,-172.88 339.75,-172.88 339.75,-203.38"/>
<text text-anchor="start" x="230.5" y="-189.88" font-family="Helvetica,sans-Serif" font-size="10.00">dunedaq::conffwk::fmap</text>
<text text-anchor="middle" x="281.12" y="-178.62" font-family="Helvetica,sans-Serif" font-size="10.00">&lt; conffwk::fset &gt;</text>
</a>
</g>
</g>
<!-- Node7&#45;&gt;Node4 -->
<g id="edge6_Node000004_Node000007" class="edge">
<title>Node7&#45;&gt;Node4</title>
<g id="a_edge6_Node000004_Node000007"><a xlink:title=" ">
<path fill="none" stroke="#9a32cd" stroke-dasharray="5,2" d="M351.65,-188.12C394.28,-188.12 448.86,-188.12 492.49,-188.12"/>
<polygon fill="#9a32cd" stroke="#9a32cd" points="351.76,-184.63 341.76,-188.13 351.76,-191.63 351.76,-184.63"/>
</a>
</g>
<text text-anchor="middle" x="427.12" y="-201.12" font-family="Helvetica,sans-Serif" font-size="10.00" fill="grey"> p_subclasses</text>
<text text-anchor="middle" x="427.12" y="-189.88" font-family="Helvetica,sans-Serif" font-size="10.00" fill="grey">p_superclasses</text>
</g>
<!-- Node8 -->
<g id="Node000008" class="node">
<title>Node8</title>
<g id="a_Node000008"><a xlink:title=" ">
<polygon fill="white" stroke="#666666" points="136.75,-217.62 23.25,-217.62 23.25,-164.62 136.75,-164.62 136.75,-217.62"/>
<text text-anchor="start" x="31.25" y="-204.12" font-family="Helvetica,sans-Serif" font-size="10.00">std::unordered_map</text>
<text text-anchor="start" x="31.25" y="-192.88" font-family="Helvetica,sans-Serif" font-size="10.00">&lt; const std::string</text>
<text text-anchor="start" x="31.25" y="-181.62" font-family="Helvetica,sans-Serif" font-size="10.00"> *, conffwk::fset , string</text>
<text text-anchor="middle" x="80" y="-170.38" font-family="Helvetica,sans-Serif" font-size="10.00">_ptr_hash &gt;</text>
</a>
</g>
</g>
<!-- Node8&#45;&gt;Node7 -->
<g id="edge7_Node000007_Node000008" class="edge">
<title>Node8&#45;&gt;Node7</title>
<g id="a_edge7_Node000007_Node000008"><a xlink:title=" ">
<path fill="none" stroke="#63b8ff" d="M148.49,-190.11C172.4,-189.75 199.07,-189.35 222.12,-189"/>
<polygon fill="#63b8ff" stroke="#63b8ff" points="148.46,-186.61 138.51,-190.26 148.56,-193.61 148.46,-186.61"/>
</a>
</g>
</g>
<!-- Node9 -->
<g id="Node000009" class="node">
<title>Node9</title>
<g id="a_Node000009"><a xlink:href="classdunedaq_1_1conffwk_1_1map.html" target="_top" xlink:title=" ">
<polygon fill="white" stroke="#666666" points="342,-149.25 220.25,-149.25 220.25,-85 342,-85 342,-149.25"/>
<text text-anchor="start" x="228.25" y="-135.75" font-family="Helvetica,sans-Serif" font-size="10.00">dunedaq::conffwk::map</text>
<text text-anchor="start" x="228.25" y="-124.5" font-family="Helvetica,sans-Serif" font-size="10.00">&lt; std::list&lt; dunedaq</text>
<text text-anchor="start" x="228.25" y="-113.25" font-family="Helvetica,sans-Serif" font-size="10.00">::conffwk::Configuration</text>
<text text-anchor="start" x="228.25" y="-102" font-family="Helvetica,sans-Serif" font-size="10.00">::AttributeConverterBase</text>
<text text-anchor="middle" x="281.12" y="-90.75" font-family="Helvetica,sans-Serif" font-size="10.00"> * &gt; * &gt;</text>
</a>
</g>
</g>
<!-- Node9&#45;&gt;Node4 -->
<g id="edge8_Node000004_Node000009" class="edge">
<title>Node9&#45;&gt;Node4</title>
<g id="a_edge8_Node000004_Node000009"><a xlink:title=" ">
<path fill="none" stroke="#9a32cd" stroke-dasharray="5,2" d="M353.38,-134.85C408.26,-148.49 482.16,-166.87 527.26,-178.09"/>
<polygon fill="#9a32cd" stroke="#9a32cd" points="354.34,-131.48 343.79,-132.46 352.65,-138.27 354.34,-131.48"/>
</a>
</g>
<text text-anchor="middle" x="427.12" y="-164.88" font-family="Helvetica,sans-Serif" font-size="10.00" fill="grey"> m_convert_map</text>
</g>
<!-- Node10 -->
<g id="Node000010" class="node">
<title>Node10</title>
<g id="a_Node000010"><a xlink:title=" ">
<polygon fill="white" stroke="#666666" points="160,-146.25 0,-146.25 0,-82 160,-82 160,-146.25"/>
<text text-anchor="start" x="8" y="-132.75" font-family="Helvetica,sans-Serif" font-size="10.00">std::unordered_map</text>
<text text-anchor="start" x="8" y="-121.5" font-family="Helvetica,sans-Serif" font-size="10.00">&lt; std::string, std::</text>
<text text-anchor="start" x="8" y="-110.25" font-family="Helvetica,sans-Serif" font-size="10.00">list&lt; dunedaq::conffwk</text>
<text text-anchor="start" x="8" y="-99" font-family="Helvetica,sans-Serif" font-size="10.00">::Configuration::AttributeConverter</text>
<text text-anchor="middle" x="80" y="-87.75" font-family="Helvetica,sans-Serif" font-size="10.00">Base * &gt; * &gt;</text>
</a>
</g>
</g>
<!-- Node10&#45;&gt;Node9 -->
<g id="edge9_Node000009_Node000010" class="edge">
<title>Node10&#45;&gt;Node9</title>
<g id="a_edge9_Node000009_Node000010"><a xlink:title=" ">
<path fill="none" stroke="#63b8ff" d="M171.53,-115.49C187.91,-115.74 204.61,-115.99 219.85,-116.22"/>
<polygon fill="#63b8ff" stroke="#63b8ff" points="171.84,-111.99 161.78,-115.34 171.73,-118.99 171.84,-111.99"/>
</a>
</g>
</g>
<!-- Node11 -->
<g id="Node000011" class="node">
<title>Node11</title>
<g id="a_Node000011"><a xlink:href="classdunedaq_1_1conffwk_1_1fmap.html" target="_top" xlink:title=" ">
<polygon fill="white" stroke="#666666" points="365.25,-59.38 197,-59.38 197,-28.88 365.25,-28.88 365.25,-59.38"/>
<text text-anchor="start" x="205" y="-45.88" font-family="Helvetica,sans-Serif" font-size="10.00">dunedaq::conffwk::fmap</text>
<text text-anchor="middle" x="281.12" y="-34.62" font-family="Helvetica,sans-Serif" font-size="10.00">&lt; dunedaq::conffwk::CacheBase * &gt;</text>
</a>
</g>
</g>
<!-- Node11&#45;&gt;Node4 -->
<g id="edge10_Node000004_Node000011" class="edge">
<title>Node11&#45;&gt;Node4</title>
<g id="a_edge10_Node000004_Node000011"><a xlink:title=" ">
<path fill="none" stroke="#9a32cd" stroke-dasharray="5,2" d="M335.72,-63.89C345.61,-67.79 355.79,-71.96 365.25,-76.12 413.31,-97.31 425.07,-103.4 471,-128.88 500.25,-145.1 533.26,-165.9 552.14,-178.05"/>
<polygon fill="#9a32cd" stroke="#9a32cd" points="337.16,-60.7 326.57,-60.34 334.63,-67.22 337.16,-60.7"/>
</a>
</g>
<text text-anchor="middle" x="427.12" y="-129.88" font-family="Helvetica,sans-Serif" font-size="10.00" fill="grey"> m_cache_map</text>
</g>
<!-- Node12 -->
<g id="Node000012" class="node">
<title>Node12</title>
<g id="a_Node000012"><a xlink:title=" ">
<polygon fill="white" stroke="#666666" points="133,-64.25 27,-64.25 27,0 133,0 133,-64.25"/>
<text text-anchor="start" x="35" y="-50.75" font-family="Helvetica,sans-Serif" font-size="10.00">std::unordered_map</text>
<text text-anchor="start" x="35" y="-39.5" font-family="Helvetica,sans-Serif" font-size="10.00">&lt; const std::string</text>
<text text-anchor="start" x="35" y="-28.25" font-family="Helvetica,sans-Serif" font-size="10.00"> *, dunedaq::conffwk</text>
<text text-anchor="start" x="35" y="-17" font-family="Helvetica,sans-Serif" font-size="10.00">::CacheBase *, string</text>
<text text-anchor="middle" x="80" y="-5.75" font-family="Helvetica,sans-Serif" font-size="10.00">_ptr_hash &gt;</text>
</a>
</g>
</g>
<!-- Node12&#45;&gt;Node11 -->
<g id="edge11_Node000011_Node000012" class="edge">
<title>Node12&#45;&gt;Node11</title>
<g id="a_edge11_Node000011_Node000012"><a xlink:title=" ">
<path fill="none" stroke="#63b8ff" d="M144.51,-35.95C161.06,-36.95 179.16,-38.04 196.58,-39.09"/>
<polygon fill="#63b8ff" stroke="#63b8ff" points="145.02,-32.48 134.83,-35.37 144.6,-39.46 145.02,-32.48"/>
</a>
</g>
</g>
<!-- Node13&#45;&gt;Node4 -->
<g id="edge12_Node000004_Node000013" class="edge">
<title>Node13&#45;&gt;Node4</title>
<g id="a_edge12_Node000004_Node000013"><a xlink:title=" ">
<path fill="none" stroke="#9a32cd" stroke-dasharray="5,2" d="M799.44,-221.54C780.65,-215.57 757.76,-209 736.75,-204.88 706.99,-199.04 673.83,-195.18 644.94,-192.65"/>
<polygon fill="#9a32cd" stroke="#9a32cd" points="798.24,-224.82 808.83,-224.58 800.4,-218.17 798.24,-224.82"/>
</a>
</g>
<text text-anchor="middle" x="701.5" y="-205.88" font-family="Helvetica,sans-Serif" font-size="10.00" fill="grey"> m_impl</text>
</g>
<!-- Node17 -->
<g id="Node000017" class="node">
<title>Node17</title>
<g id="a_Node000017"><a xlink:href="classdunedaq_1_1conffwk_1_1ConfigObjectImpl.html" target="_top" xlink:title="Implements database objects.">
<polygon fill="white" stroke="#666666" points="1117.5,-242.38 995,-242.38 995,-211.88 1117.5,-211.88 1117.5,-242.38"/>
<text text-anchor="start" x="1003" y="-228.88" font-family="Helvetica,sans-Serif" font-size="10.00">dunedaq::conffwk::Config</text>
<text text-anchor="middle" x="1056.25" y="-217.62" font-family="Helvetica,sans-Serif" font-size="10.00">ObjectImpl</text>
</a>
</g>
</g>
<!-- Node13&#45;&gt;Node17 -->
<g id="edge18_Node000017_Node000013" class="edge">
<title>Node13&#45;&gt;Node17</title>
<g id="a_edge18_Node000017_Node000013"><a xlink:title=" ">
<path fill="none" stroke="#9a32cd" stroke-dasharray="5,2" d="M937.12,-231.54C956.67,-230.81 976.73,-230.06 994.63,-229.39"/>
<polygon fill="#9a32cd" stroke="#9a32cd" points="937.05,-228.04 927.19,-231.91 937.31,-235.03 937.05,-228.04"/>
</a>
</g>
<text text-anchor="middle" x="960.12" y="-232.88" font-family="Helvetica,sans-Serif" font-size="10.00" fill="grey"> m_impl</text>
</g>
<!-- Node14 -->
<g id="Node000014" class="node">
<title>Node14</title>
<g id="a_Node000014"><a xlink:href="classdunedaq_1_1conffwk_1_1pmap.html" target="_top" xlink:title=" ">
<polygon fill="white" stroke="#666666" points="648.25,-320.62 489,-320.62 489,-267.62 648.25,-267.62 648.25,-320.62"/>
<text text-anchor="start" x="497" y="-307.12" font-family="Helvetica,sans-Serif" font-size="10.00">dunedaq::conffwk::pmap</text>
<text text-anchor="start" x="497" y="-295.88" font-family="Helvetica,sans-Serif" font-size="10.00">&lt; dunedaq::conffwk::map</text>
<text text-anchor="start" x="497" y="-284.62" font-family="Helvetica,sans-Serif" font-size="10.00">&lt; dunedaq::conffwk::ConfigObject</text>
<text text-anchor="middle" x="568.62" y="-273.38" font-family="Helvetica,sans-Serif" font-size="10.00">Impl * &gt; * &gt;</text>
</a>
</g>
</g>
<!-- Node14&#45;&gt;Node13 -->
<g id="edge13_Node000013_Node000014" class="edge">
<title>Node14&#45;&gt;Node13</title>
<g id="a_edge13_Node000013_Node000014"><a xlink:title=" ">
<path fill="none" stroke="#9a32cd" stroke-dasharray="5,2" d="M659.8,-274.37C704.43,-264.6 756.41,-253.21 792.85,-245.23"/>
<polygon fill="#9a32cd" stroke="#9a32cd" points="659.12,-270.94 650.1,-276.5 660.62,-277.78 659.12,-270.94"/>
</a>
</g>
<text text-anchor="middle" x="701.5" y="-272.88" font-family="Helvetica,sans-Serif" font-size="10.00" fill="grey"> m_impl_objects</text>
</g>
<!-- Node15 -->
<g id="Node000015" class="node">
<title>Node15</title>
<g id="a_Node000015"><a xlink:title=" ">
<polygon fill="white" stroke="#666666" points="348.75,-334.25 213.5,-334.25 213.5,-270 348.75,-270 348.75,-334.25"/>
<text text-anchor="start" x="221.5" y="-320.75" font-family="Helvetica,sans-Serif" font-size="10.00">std::map&lt; const std</text>
<text text-anchor="start" x="221.5" y="-309.5" font-family="Helvetica,sans-Serif" font-size="10.00">::string *, dunedaq</text>
<text text-anchor="start" x="221.5" y="-298.25" font-family="Helvetica,sans-Serif" font-size="10.00">::conffwk::map&lt; dunedaq</text>
<text text-anchor="start" x="221.5" y="-287" font-family="Helvetica,sans-Serif" font-size="10.00">::conffwk::ConfigObjectImpl</text>
<text text-anchor="middle" x="281.12" y="-275.75" font-family="Helvetica,sans-Serif" font-size="10.00"> * &gt; * , string_ptr_compare &gt;</text>
</a>
</g>
</g>
<!-- Node15&#45;&gt;Node14 -->
<g id="edge14_Node000014_Node000015" class="edge">
<title>Node15&#45;&gt;Node14</title>
<g id="a_edge14_Node000014_Node000015"><a xlink:title=" ">
<path fill="none" stroke="#63b8ff" d="M360.35,-299.93C400.25,-298.81 448.68,-297.46 488.69,-296.34"/>
<polygon fill="#63b8ff" stroke="#63b8ff" points="360.47,-296.43 350.58,-300.21 360.67,-303.43 360.47,-296.43"/>
</a>
</g>
</g>
<!-- Node16 -->
<g id="Node000016" class="node">
<title>Node16</title>
<g id="a_Node000016"><a xlink:href="classdunedaq_1_1conffwk_1_1ConfigObject.html" target="_top" xlink:title="Represents database objects.">
<polygon fill="white" stroke="#666666" points="1309.75,-230.38 1187.25,-230.38 1187.25,-199.88 1309.75,-199.88 1309.75,-230.38"/>
<text text-anchor="start" x="1195.25" y="-216.88" font-family="Helvetica,sans-Serif" font-size="10.00">dunedaq::conffwk::Config</text>
<text text-anchor="middle" x="1248.5" y="-205.62" font-family="Helvetica,sans-Serif" font-size="10.00">Object</text>
</a>
</g>
</g>
<!-- Node16&#45;&gt;Node3 -->
<g id="edge16_Node000003_Node000016" class="edge">
<title>Node16&#45;&gt;Node3</title>
<g id="a_edge16_Node000003_Node000016"><a xlink:title=" ">
<path fill="none" stroke="#9a32cd" stroke-dasharray="5,2" d="M1321.17,-204.56C1337.43,-202.16 1354.65,-199.62 1370.77,-197.24"/>
<polygon fill="#9a32cd" stroke="#9a32cd" points="1320.98,-201.05 1311.6,-205.97 1322,-207.97 1320.98,-201.05"/>
</a>
</g>
<text text-anchor="middle" x="1340.5" y="-203.88" font-family="Helvetica,sans-Serif" font-size="10.00" fill="grey"> p_obj</text>
</g>
<!-- Node17&#45;&gt;Node16 -->
<g id="edge17_Node000016_Node000017" class="edge">
<title>Node17&#45;&gt;Node16</title>
<g id="a_edge17_Node000016_Node000017"><a xlink:title=" ">
<path fill="none" stroke="#9a32cd" stroke-dasharray="5,2" d="M1129.31,-222.58C1148.34,-221.38 1168.68,-220.1 1187.03,-218.94"/>
<polygon fill="#9a32cd" stroke="#9a32cd" points="1129.24,-219.08 1119.48,-223.2 1129.68,-226.06 1129.24,-219.08"/>
</a>
</g>
<text text-anchor="middle" x="1152.38" y="-222.88" font-family="Helvetica,sans-Serif" font-size="10.00" fill="grey"> m_impl</text>
</g>
<!-- Node18&#45;&gt;Node2 -->
<g id="edge20_Node000002_Node000018" class="edge">
<title>Node18&#45;&gt;Node2</title>
<g id="a_edge20_Node000002_Node000018"><a xlink:title=" ">
<path fill="none" stroke="#9a32cd" stroke-dasharray="5,2" d="M1955.31,-230.12C1984.85,-230.12 2017.92,-230.12 2046.36,-230.12"/>
<polygon fill="#9a32cd" stroke="#9a32cd" points="1955.69,-226.63 1945.69,-230.13 1955.69,-233.63 1955.69,-226.63"/>
</a>
</g>
<text text-anchor="middle" x="1995.12" y="-231.88" font-family="Helvetica,sans-Serif" font-size="10.00" fill="grey"> m_runs_on</text>
</g>
<!-- Node19&#45;&gt;Node18 -->
<g id="edge23_Node000018_Node000019" class="edge">
<title>Node19&#45;&gt;Node18</title>
<g id="a_edge23_Node000018_Node000019"><a xlink:title=" ">
<path fill="none" stroke="#9a32cd" stroke-dasharray="5,2" d="M1717.94,-186.03C1739.61,-187.94 1762.69,-191 1783.75,-195.88 1807.55,-201.38 1833.45,-212.08 1850.95,-220.06"/>
<polygon fill="#9a32cd" stroke="#9a32cd" points="1718.52,-182.56 1708.27,-185.25 1717.96,-189.54 1718.52,-182.56"/>
</a>
</g>
<text text-anchor="middle" x="1758.62" y="-196.88" font-family="Helvetica,sans-Serif" font-size="10.00" fill="grey"> m_runs_on</text>
</g>
<!-- Node20&#45;&gt;Node1 -->
<g id="edge27_Node000001_Node000020" class="edge">
<title>Node20&#45;&gt;Node1</title>
<g id="a_edge27_Node000001_Node000020"><a xlink:title=" ">
<path fill="none" stroke="#9a32cd" stroke-dasharray="5,2" d="M1727.13,-147.82C1860.74,-153.01 2101.36,-162.36 2224.29,-167.14"/>
<polygon fill="#9a32cd" stroke="#9a32cd" points="1727.37,-144.33 1717.24,-147.44 1727.1,-151.32 1727.37,-144.33"/>
</a>
</g>
<text text-anchor="middle" x="1995.12" y="-160.88" font-family="Helvetica,sans-Serif" font-size="10.00" fill="grey"> m_fsm</text>
</g>
<!-- Node21&#45;&gt;Node1 -->
<g id="edge30_Node000001_Node000021" class="edge">
<title>Node21&#45;&gt;Node1</title>
<g id="a_edge30_Node000001_Node000021"><a xlink:title=" ">
<path fill="none" stroke="#9a32cd" stroke-dasharray="5,2" d="M1722.12,-109.37C1832.1,-119.58 2023.72,-137.88 2187.75,-156.12 2199.58,-157.44 2212.09,-158.91 2224.31,-160.38"/>
<polygon fill="#9a32cd" stroke="#9a32cd" points="1722.54,-105.89 1712.26,-108.45 1721.89,-112.86 1722.54,-105.89"/>
</a>
</g>
<text text-anchor="middle" x="1995.12" y="-139.88" font-family="Helvetica,sans-Serif" font-size="10.00" fill="grey"> m_broadcaster</text>
</g>
</g>
</svg>
