<?xml version="1.0" encoding="UTF-8" standalone="no"?>
<!DOCTYPE svg PUBLIC "-//W3C//DTD SVG 1.1//EN"
 "http://www.w3.org/Graphics/SVG/1.1/DTD/svg11.dtd">
<!-- Generated by graphviz version 9.0.0 (20230911.1827)
 -->
<!-- Title: dunedaq::coredal::VariableBase Pages: 1 -->
<svg width="298pt" height="138pt"
 viewBox="0.00 0.00 298.00 137.75" xmlns="http://www.w3.org/2000/svg" xmlns:xlink="http://www.w3.org/1999/xlink">
<g id="graph0" class="graph" transform="scale(1 1) rotate(0) translate(4 133.75)">
<title>dunedaq::coredal::VariableBase</title>
<!-- Node1 -->
<g id="Node000001" class="node">
<title>Node1</title>
<g id="a_Node000001"><a xlink:title=" ">
<polygon fill="#999999" stroke="#666666" points="216.75,-74.5 65.75,-74.5 65.75,-55.25 216.75,-55.25 216.75,-74.5"/>
<text text-anchor="middle" x="141.25" y="-61" font-family="Helvetica,sans-Serif" font-size="10.00">dunedaq::coredal::VariableBase</text>
</a>
</g>
</g>
<!-- Node3 -->
<g id="Node000003" class="node">
<title>Node3</title>
<g id="a_Node000003"><a xlink:href="classdunedaq_1_1coredal_1_1Variable.html" target="_top" xlink:title=" ">
<polygon fill="white" stroke="#666666" points="128.5,-19.25 0,-19.25 0,0 128.5,0 128.5,-19.25"/>
<text text-anchor="middle" x="64.25" y="-5.75" font-family="Helvetica,sans-Serif" font-size="10.00">dunedaq::coredal::Variable</text>
</a>
</g>
</g>
<!-- Node1&#45;&gt;Node3 -->
<g id="edge3_Node000001_Node000003" class="edge">
<title>Node1&#45;&gt;Node3</title>
<g id="a_edge3_Node000001_Node000003"><a xlink:title=" ">
<path fill="none" stroke="#63b8ff" d="M113.25,-48.76C98.55,-39.32 81.76,-27.49 71.93,-19.52"/>
<polygon fill="#63b8ff" stroke="#63b8ff" points="111.35,-51.71 121.69,-54.04 115.06,-45.77 111.35,-51.71"/>
</a>
</g>
</g>
<!-- Node1&#45;&gt;Node3 -->
<g id="edge4_Node000001_Node000003" class="edge">
<title>Node1&#45;&gt;Node3</title>
<g id="a_edge4_Node000001_Node000003"><a xlink:title=" ">
<path fill="none" stroke="#63b8ff" d="M124.51,-47.99C112.09,-38.75 95.4,-27.44 82.6,-19.7"/>
<polygon fill="#63b8ff" stroke="#63b8ff" points="122.15,-50.58 132.21,-53.92 126.42,-45.04 122.15,-50.58"/>
</a>
</g>
</g>
<!-- Node4 -->
<g id="Node000004" class="node">
<title>Node4</title>
<g id="a_Node000004"><a xlink:href="classdunedaq_1_1coredal_1_1VariableSet.html" target="_top" xlink:title=" ">
<polygon fill="white" stroke="#666666" points="290,-19.25 146.5,-19.25 146.5,0 290,0 290,-19.25"/>
<text text-anchor="middle" x="218.25" y="-5.75" font-family="Helvetica,sans-Serif" font-size="10.00">dunedaq::coredal::VariableSet</text>
</a>
</g>
</g>
<!-- Node1&#45;&gt;Node4 -->
<g id="edge5_Node000001_Node000004" class="edge">
<title>Node1&#45;&gt;Node4</title>
<g id="a_edge5_Node000001_Node000004"><a xlink:title=" ">
<path fill="none" stroke="#63b8ff" d="M157.99,-47.99C170.41,-38.75 187.1,-27.44 199.9,-19.7"/>
<polygon fill="#63b8ff" stroke="#63b8ff" points="156.08,-45.04 150.29,-53.92 160.35,-50.58 156.08,-45.04"/>
</a>
</g>
</g>
<!-- Node1&#45;&gt;Node4 -->
<g id="edge6_Node000001_Node000004" class="edge">
<title>Node1&#45;&gt;Node4</title>
<g id="a_edge6_Node000001_Node000004"><a xlink:title=" ">
<path fill="none" stroke="#63b8ff" d="M169.25,-48.76C183.95,-39.32 200.74,-27.49 210.57,-19.52"/>
<polygon fill="#63b8ff" stroke="#63b8ff" points="167.44,-45.77 160.81,-54.04 171.15,-51.71 167.44,-45.77"/>
</a>
</g>
</g>
<!-- Node2 -->
<g id="Node000002" class="node">
<title>Node2</title>
<g id="a_Node000002"><a xlink:href="classdunedaq_1_1conffwk_1_1DalObject.html" target="_top" xlink:title="The base class for any generated DAL object.">
<polygon fill="white" stroke="#666666" points="210.38,-129.75 72.12,-129.75 72.12,-110.5 210.38,-110.5 210.38,-129.75"/>
<text text-anchor="middle" x="141.25" y="-116.25" font-family="Helvetica,sans-Serif" font-size="10.00">dunedaq::conffwk::DalObject</text>
</a>
</g>
</g>
<!-- Node2&#45;&gt;Node1 -->
<g id="edge1_Node000001_Node000002" class="edge">
<title>Node2&#45;&gt;Node1</title>
<g id="a_edge1_Node000001_Node000002"><a xlink:title=" ">
<path fill="none" stroke="#63b8ff" d="M134.69,-99.17C134.2,-90.8 134.65,-81.5 136.04,-74.86"/>
<polygon fill="#63b8ff" stroke="#63b8ff" points="131.19,-99.34 135.9,-108.83 138.13,-98.47 131.19,-99.34"/>
</a>
</g>
</g>
<!-- Node2&#45;&gt;Node1 -->
<g id="edge2_Node000001_Node000002" class="edge">
<title>Node2&#45;&gt;Node1</title>
<g id="a_edge2_Node000001_Node000002"><a xlink:title=" ">
<path fill="none" stroke="#63b8ff" d="M147.81,-99.17C148.3,-90.8 147.85,-81.5 146.46,-74.86"/>
<polygon fill="#63b8ff" stroke="#63b8ff" points="144.37,-98.47 146.6,-108.83 151.31,-99.34 144.37,-98.47"/>
</a>
</g>
</g>
</g>
</svg>
