<?xml version="1.0" encoding="UTF-8" standalone="no"?>
<!DOCTYPE svg PUBLIC "-//W3C//DTD SVG 1.1//EN"
 "http://www.w3.org/Graphics/SVG/1.1/DTD/svg11.dtd">
<!-- Generated by graphviz version 9.0.0 (20230911.1827)
 -->
<!-- Title: dunedaq::timing::TimingNode Pages: 1 -->
<svg width="1044pt" height="807pt"
 viewBox="0.00 0.00 1043.75 806.88" xmlns="http://www.w3.org/2000/svg" xmlns:xlink="http://www.w3.org/1999/xlink">
<g id="graph0" class="graph" transform="scale(1 1) rotate(0) translate(4 802.88)">
<title>dunedaq::timing::TimingNode</title>
<!-- Node1 -->
<g id="Node000001" class="node">
<title>Node1</title>
<g id="a_Node000001"><a xlink:title="Base class for timing nodes.">
<polygon fill="#999999" stroke="#666666" points="238.25,-356.25 97.75,-356.25 97.75,-337 238.25,-337 238.25,-356.25"/>
<text text-anchor="middle" x="168" y="-342.75" font-family="Helvetica,sans-Serif" font-size="10.00">dunedaq::timing::TimingNode</text>
</a>
</g>
</g>
<!-- Node3 -->
<g id="Node000003" class="node">
<title>Node3</title>
<g id="a_Node000003"><a xlink:href="classdunedaq_1_1timing_1_1EchoMonitorNode.html" target="_top" xlink:title="Class for master global node.">
<polygon fill="white" stroke="#666666" points="450.38,-756.25 285.12,-756.25 285.12,-737 450.38,-737 450.38,-756.25"/>
<text text-anchor="middle" x="367.75" y="-742.75" font-family="Helvetica,sans-Serif" font-size="10.00">dunedaq::timing::EchoMonitorNode</text>
</a>
</g>
</g>
<!-- Node1&#45;&gt;Node3 -->
<g id="edge2_Node000001_Node000003" class="edge">
<title>Node1&#45;&gt;Node3</title>
<g id="a_edge2_Node000001_Node000003"><a xlink:title=" ">
<path fill="none" stroke="#63b8ff" d="M170.31,-367.74C174.88,-425.43 194.51,-588.24 274.25,-690.62 291.21,-712.4 319.19,-727.63 339.94,-736.65"/>
<polygon fill="#63b8ff" stroke="#63b8ff" points="173.82,-367.76 169.62,-358.03 166.84,-368.26 173.82,-367.76"/>
</a>
</g>
</g>
<!-- Node5 -->
<g id="Node000005" class="node">
<title>Node5</title>
<g id="a_Node000005"><a xlink:href="classdunedaq_1_1timing_1_1EndpointNodeInterface.html" target="_top" xlink:title="Base class for timing IO nodes.">
<polygon fill="white" stroke="#666666" points="430.5,-681.88 305,-681.88 305,-651.38 430.5,-651.38 430.5,-681.88"/>
<text text-anchor="start" x="313" y="-668.38" font-family="Helvetica,sans-Serif" font-size="10.00">dunedaq::timing::Endpoint</text>
<text text-anchor="middle" x="367.75" y="-657.12" font-family="Helvetica,sans-Serif" font-size="10.00">NodeInterface</text>
</a>
</g>
</g>
<!-- Node1&#45;&gt;Node5 -->
<g id="edge4_Node000001_Node000005" class="edge">
<title>Node1&#45;&gt;Node5</title>
<g id="a_edge4_Node000001_Node000005"><a xlink:title=" ">
<path fill="none" stroke="#63b8ff" d="M173.89,-367.73C185.25,-413.33 216.93,-522.88 274.25,-596.62 291.92,-619.36 318.72,-638.54 338.92,-651.04"/>
<polygon fill="#63b8ff" stroke="#63b8ff" points="177.32,-367.02 171.57,-358.12 170.51,-368.66 177.32,-367.02"/>
</a>
</g>
</g>
<!-- Node10 -->
<g id="Node000010" class="node">
<title>Node10</title>
<g id="a_Node000010"><a xlink:href="classdunedaq_1_1timing_1_1FLCmdGeneratorNode.html" target="_top" xlink:title="Class for master global node.">
<polygon fill="white" stroke="#666666" points="460.88,-587.25 274.62,-587.25 274.62,-568 460.88,-568 460.88,-587.25"/>
<text text-anchor="middle" x="367.75" y="-573.75" font-family="Helvetica,sans-Serif" font-size="10.00">dunedaq::timing::FLCmdGeneratorNode</text>
</a>
</g>
</g>
<!-- Node1&#45;&gt;Node10 -->
<g id="edge9_Node000001_Node000010" class="edge">
<title>Node1&#45;&gt;Node10</title>
<g id="a_edge9_Node000001_Node000010"><a xlink:title=" ">
<path fill="none" stroke="#63b8ff" d="M173.31,-367.44C183.22,-409.8 211.73,-506.2 274.25,-555.62 280.6,-560.64 287.9,-564.54 295.57,-567.57"/>
<polygon fill="#63b8ff" stroke="#63b8ff" points="176.77,-366.84 171.19,-357.83 169.93,-368.35 176.77,-366.84"/>
</a>
</g>
</g>
<!-- Node12 -->
<g id="Node000012" class="node">
<title>Node12</title>
<g id="a_Node000012"><a xlink:href="classdunedaq_1_1timing_1_1FrequencyCounterNode.html" target="_top" xlink:title="Base class for timing IO nodes.">
<polygon fill="white" stroke="#666666" points="434.25,-546.88 301.25,-546.88 301.25,-516.38 434.25,-516.38 434.25,-546.88"/>
<text text-anchor="start" x="309.25" y="-533.38" font-family="Helvetica,sans-Serif" font-size="10.00">dunedaq::timing::Frequency</text>
<text text-anchor="middle" x="367.75" y="-522.12" font-family="Helvetica,sans-Serif" font-size="10.00">CounterNode</text>
</a>
</g>
</g>
<!-- Node1&#45;&gt;Node12 -->
<g id="edge11_Node000001_Node000012" class="edge">
<title>Node1&#45;&gt;Node12</title>
<g id="a_edge11_Node000001_Node000012"><a xlink:title=" ">
<path fill="none" stroke="#63b8ff" d="M176.57,-367C190.45,-401.45 223.3,-471.03 274.25,-507.62 282.2,-513.34 291.4,-517.69 300.85,-521.01"/>
<polygon fill="#63b8ff" stroke="#63b8ff" points="179.88,-365.86 173,-357.8 173.36,-368.39 179.88,-365.86"/>
</a>
</g>
</g>
<!-- Node13 -->
<g id="Node000013" class="node">
<title>Node13</title>
<g id="a_Node000013"><a xlink:href="classdunedaq_1_1timing_1_1HSINode.html" target="_top" xlink:title="Class for HSI nodes.">
<polygon fill="white" stroke="#666666" points="432,-498.25 303.5,-498.25 303.5,-479 432,-479 432,-498.25"/>
<text text-anchor="middle" x="367.75" y="-484.75" font-family="Helvetica,sans-Serif" font-size="10.00">dunedaq::timing::HSINode</text>
</a>
</g>
</g>
<!-- Node1&#45;&gt;Node13 -->
<g id="edge12_Node000001_Node000013" class="edge">
<title>Node1&#45;&gt;Node13</title>
<g id="a_edge12_Node000001_Node000013"><a xlink:title=" ">
<path fill="none" stroke="#63b8ff" d="M179.94,-366.5C196.47,-394.52 230.58,-445.06 274.25,-470.62 283.15,-475.83 293.26,-479.57 303.47,-482.24"/>
<polygon fill="#63b8ff" stroke="#63b8ff" points="183.06,-364.9 175.06,-357.96 176.98,-368.38 183.06,-364.9"/>
</a>
</g>
</g>
<!-- Node14 -->
<g id="Node000014" class="node">
<title>Node14</title>
<g id="a_Node000014"><a xlink:href="classdunedaq_1_1timing_1_1IONode.html" target="_top" xlink:title="Base class for timing IO nodes.">
<polygon fill="white" stroke="#666666" points="428.62,-461.25 306.88,-461.25 306.88,-442 428.62,-442 428.62,-461.25"/>
<text text-anchor="middle" x="367.75" y="-447.75" font-family="Helvetica,sans-Serif" font-size="10.00">dunedaq::timing::IONode</text>
</a>
</g>
</g>
<!-- Node1&#45;&gt;Node14 -->
<g id="edge13_Node000001_Node000014" class="edge">
<title>Node1&#45;&gt;Node14</title>
<g id="a_edge13_Node000001_Node000014"><a xlink:title=" ">
<path fill="none" stroke="#63b8ff" d="M185.51,-364.91C204.77,-385.03 238.56,-416.76 274.25,-433.62 284.31,-438.38 295.55,-441.88 306.64,-444.45"/>
<polygon fill="#63b8ff" stroke="#63b8ff" points="188.15,-362.6 178.76,-357.68 183.03,-367.38 188.15,-362.6"/>
</a>
</g>
</g>
<!-- Node24 -->
<g id="Node000024" class="node">
<title>Node24</title>
<g id="a_Node000024"><a xlink:href="classdunedaq_1_1timing_1_1MasterGlobalNode.html" target="_top" xlink:title="Class for master global node.">
<polygon fill="white" stroke="#666666" points="452.25,-424.25 283.25,-424.25 283.25,-405 452.25,-405 452.25,-424.25"/>
<text text-anchor="middle" x="367.75" y="-410.75" font-family="Helvetica,sans-Serif" font-size="10.00">dunedaq::timing::MasterGlobalNode</text>
</a>
</g>
</g>
<!-- Node1&#45;&gt;Node24 -->
<g id="edge23_Node000001_Node000024" class="edge">
<title>Node1&#45;&gt;Node24</title>
<g id="a_edge23_Node000001_Node000024"><a xlink:title=" ">
<path fill="none" stroke="#63b8ff" d="M197.14,-361.93C217.93,-372.68 247.2,-386.69 274.25,-395.62 284.84,-399.12 296.32,-402.1 307.49,-404.59"/>
<polygon fill="#63b8ff" stroke="#63b8ff" points="198.92,-358.91 188.44,-357.35 195.66,-365.1 198.92,-358.91"/>
</a>
</g>
</g>
<!-- Node25 -->
<g id="Node000025" class="node">
<title>Node25</title>
<g id="a_Node000025"><a xlink:href="classdunedaq_1_1timing_1_1MasterNodeInterface.html" target="_top" xlink:title="Base class for timing IO nodes.">
<polygon fill="white" stroke="#666666" points="438.38,-386.88 297.12,-386.88 297.12,-356.38 438.38,-356.38 438.38,-386.88"/>
<text text-anchor="start" x="305.12" y="-373.38" font-family="Helvetica,sans-Serif" font-size="10.00">dunedaq::timing::MasterNode</text>
<text text-anchor="middle" x="367.75" y="-362.12" font-family="Helvetica,sans-Serif" font-size="10.00">Interface</text>
</a>
</g>
</g>
<!-- Node1&#45;&gt;Node25 -->
<g id="edge24_Node000001_Node000025" class="edge">
<title>Node1&#45;&gt;Node25</title>
<g id="a_edge24_Node000001_Node000025"><a xlink:title=" ">
<path fill="none" stroke="#63b8ff" d="M249.88,-356.85C265.4,-358.81 281.52,-360.85 296.66,-362.76"/>
<polygon fill="#63b8ff" stroke="#63b8ff" points="250.58,-353.41 240.22,-355.63 249.7,-360.36 250.58,-353.41"/>
</a>
</g>
</g>
<!-- Node28 -->
<g id="Node000028" class="node">
<title>Node28</title>
<g id="a_Node000028"><a xlink:href="classdunedaq_1_1timing_1_1PDIMasterGlobalNode.html" target="_top" xlink:title="Class for master global node.">
<polygon fill="white" stroke="#666666" points="435,-337.88 300.5,-337.88 300.5,-307.38 435,-307.38 435,-337.88"/>
<text text-anchor="start" x="308.5" y="-324.38" font-family="Helvetica,sans-Serif" font-size="10.00">dunedaq::timing::PDIMaster</text>
<text text-anchor="middle" x="367.75" y="-313.12" font-family="Helvetica,sans-Serif" font-size="10.00">GlobalNode</text>
</a>
</g>
</g>
<!-- Node1&#45;&gt;Node28 -->
<g id="edge27_Node000001_Node000028" class="edge">
<title>Node1&#45;&gt;Node28</title>
<g id="a_edge27_Node000001_Node000028"><a xlink:title=" ">
<path fill="none" stroke="#63b8ff" d="M250.14,-336.78C266.83,-334.75 284.22,-332.64 300.31,-330.69"/>
<polygon fill="#63b8ff" stroke="#63b8ff" points="249.73,-333.3 240.22,-337.98 250.57,-340.25 249.73,-333.3"/>
</a>
</g>
</g>
<!-- Node29 -->
<g id="Node000029" class="node">
<title>Node29</title>
<g id="a_Node000029"><a xlink:href="classdunedaq_1_1timing_1_1SpillInterfaceNode.html" target="_top" xlink:title="Class for master global node.">
<polygon fill="white" stroke="#666666" points="451.88,-289.25 283.62,-289.25 283.62,-270 451.88,-270 451.88,-289.25"/>
<text text-anchor="middle" x="367.75" y="-275.75" font-family="Helvetica,sans-Serif" font-size="10.00">dunedaq::timing::SpillInterfaceNode</text>
</a>
</g>
</g>
<!-- Node1&#45;&gt;Node29 -->
<g id="edge28_Node000001_Node000029" class="edge">
<title>Node1&#45;&gt;Node29</title>
<g id="a_edge28_Node000001_Node000029"><a xlink:title=" ">
<path fill="none" stroke="#63b8ff" d="M197.56,-331.47C218.34,-320.98 247.42,-307.37 274.25,-298.62 284.85,-295.17 296.34,-292.21 307.51,-289.72"/>
<polygon fill="#63b8ff" stroke="#63b8ff" points="196.14,-328.26 188.85,-335.94 199.34,-334.49 196.14,-328.26"/>
</a>
</g>
</g>
<!-- Node30 -->
<g id="Node000030" class="node">
<title>Node30</title>
<g id="a_Node000030"><a xlink:href="classdunedaq_1_1timing_1_1SwitchyardNode.html" target="_top" xlink:title="Class for master global node.">
<polygon fill="white" stroke="#666666" points="447.38,-252.25 288.12,-252.25 288.12,-233 447.38,-233 447.38,-252.25"/>
<text text-anchor="middle" x="367.75" y="-238.75" font-family="Helvetica,sans-Serif" font-size="10.00">dunedaq::timing::SwitchyardNode</text>
</a>
</g>
</g>
<!-- Node1&#45;&gt;Node30 -->
<g id="edge29_Node000001_Node000030" class="edge">
<title>Node1&#45;&gt;Node30</title>
<g id="a_edge29_Node000001_Node000030"><a xlink:title=" ">
<path fill="none" stroke="#63b8ff" d="M185.86,-328.25C205.21,-308.34 238.87,-277.22 274.25,-260.62 281.06,-257.43 288.41,-254.8 295.89,-252.64"/>
<polygon fill="#63b8ff" stroke="#63b8ff" points="183.4,-325.75 179.06,-335.41 188.48,-330.57 183.4,-325.75"/>
</a>
</g>
</g>
<!-- Node31 -->
<g id="Node000031" class="node">
<title>Node31</title>
<g id="a_Node000031"><a xlink:href="classdunedaq_1_1timing_1_1TimestampGeneratorNode.html" target="_top" xlink:title="Class for timestamp generator node.">
<polygon fill="white" stroke="#666666" points="436.12,-214.88 299.38,-214.88 299.38,-184.38 436.12,-184.38 436.12,-214.88"/>
<text text-anchor="start" x="307.38" y="-201.38" font-family="Helvetica,sans-Serif" font-size="10.00">dunedaq::timing::Timestamp</text>
<text text-anchor="middle" x="367.75" y="-190.12" font-family="Helvetica,sans-Serif" font-size="10.00">GeneratorNode</text>
</a>
</g>
</g>
<!-- Node1&#45;&gt;Node31 -->
<g id="edge30_Node000001_Node000031" class="edge">
<title>Node1&#45;&gt;Node31</title>
<g id="a_edge30_Node000001_Node000031"><a xlink:title=" ">
<path fill="none" stroke="#63b8ff" d="M180.45,-326.86C197.39,-299.42 231.74,-250.18 274.25,-223.62 281.85,-218.88 290.36,-215.07 299.05,-212.01"/>
<polygon fill="#63b8ff" stroke="#63b8ff" points="177.57,-324.86 175.43,-335.23 183.57,-328.46 177.57,-324.86"/>
</a>
</g>
</g>
<!-- Node32 -->
<g id="Node000032" class="node">
<title>Node32</title>
<g id="a_Node000032"><a xlink:href="classdunedaq_1_1timing_1_1TopDesignInterface.html" target="_top" xlink:title="Base class for timing top design nodes.">
<polygon fill="white" stroke="#666666" points="435,-165.88 300.5,-165.88 300.5,-135.38 435,-135.38 435,-165.88"/>
<text text-anchor="start" x="308.5" y="-152.38" font-family="Helvetica,sans-Serif" font-size="10.00">dunedaq::timing::TopDesign</text>
<text text-anchor="middle" x="367.75" y="-141.12" font-family="Helvetica,sans-Serif" font-size="10.00">Interface</text>
</a>
</g>
</g>
<!-- Node1&#45;&gt;Node32 -->
<g id="edge31_Node000001_Node000032" class="edge">
<title>Node1&#45;&gt;Node32</title>
<g id="a_edge31_Node000001_Node000032"><a xlink:title=" ">
<path fill="none" stroke="#63b8ff" d="M175.89,-326.05C189.06,-289.92 221.3,-215.17 274.25,-175.62 281.98,-169.85 290.96,-165.41 300.22,-162"/>
<polygon fill="#63b8ff" stroke="#63b8ff" points="172.65,-324.69 172.65,-335.28 179.26,-327 172.65,-324.69"/>
</a>
</g>
</g>
<!-- Node52 -->
<g id="Node000052" class="node">
<title>Node52</title>
<g id="a_Node000052"><a xlink:href="classdunedaq_1_1timing_1_1TriggerReceiverNode.html" target="_top" xlink:title="Class for master global node.">
<polygon fill="white" stroke="#666666" points="426.75,-116.88 308.75,-116.88 308.75,-86.38 426.75,-86.38 426.75,-116.88"/>
<text text-anchor="start" x="316.75" y="-103.38" font-family="Helvetica,sans-Serif" font-size="10.00">dunedaq::timing::Trigger</text>
<text text-anchor="middle" x="367.75" y="-92.12" font-family="Helvetica,sans-Serif" font-size="10.00">ReceiverNode</text>
</a>
</g>
</g>
<!-- Node1&#45;&gt;Node52 -->
<g id="edge50_Node000001_Node000052" class="edge">
<title>Node1&#45;&gt;Node52</title>
<g id="a_edge50_Node000001_Node000052"><a xlink:title=" ">
<path fill="none" stroke="#63b8ff" d="M172.91,-325.8C182.23,-282.02 209.98,-180.13 274.25,-126.62 283.97,-118.54 296.07,-113.05 308.28,-109.33"/>
<polygon fill="#63b8ff" stroke="#63b8ff" points="169.5,-324.98 170.97,-335.47 176.37,-326.36 169.5,-324.98"/>
</a>
</g>
</g>
<!-- Node53 -->
<g id="Node000053" class="node">
<title>Node53</title>
<g id="a_Node000053"><a xlink:href="classdunedaq_1_1timing_1_1UpstreamCDRNode.html" target="_top" xlink:title="Class for master global node.">
<polygon fill="white" stroke="#666666" points="433.12,-67.88 302.38,-67.88 302.38,-37.38 433.12,-37.38 433.12,-67.88"/>
<text text-anchor="start" x="310.38" y="-54.38" font-family="Helvetica,sans-Serif" font-size="10.00">dunedaq::timing::Upstream</text>
<text text-anchor="middle" x="367.75" y="-43.12" font-family="Helvetica,sans-Serif" font-size="10.00">CDRNode</text>
</a>
</g>
</g>
<!-- Node1&#45;&gt;Node53 -->
<g id="edge51_Node000001_Node000053" class="edge">
<title>Node1&#45;&gt;Node53</title>
<g id="a_edge51_Node000001_Node000053"><a xlink:title=" ">
<path fill="none" stroke="#63b8ff" d="M170.97,-325.08C176.82,-274.12 198.68,-145.38 274.25,-77.62 282.18,-70.52 291.92,-65.4 302.08,-61.73"/>
<polygon fill="#63b8ff" stroke="#63b8ff" points="167.49,-324.72 169.94,-335.03 174.45,-325.44 167.49,-324.72"/>
</a>
</g>
</g>
<!-- Node54 -->
<g id="Node000054" class="node">
<title>Node54</title>
<g id="a_Node000054"><a xlink:href="classdunedaq_1_1timing_1_1VLCmdGeneratorNode.html" target="_top" xlink:title="Class for master global node.">
<polygon fill="white" stroke="#666666" points="461.25,-19.25 274.25,-19.25 274.25,0 461.25,0 461.25,-19.25"/>
<text text-anchor="middle" x="367.75" y="-5.75" font-family="Helvetica,sans-Serif" font-size="10.00">dunedaq::timing::VLCmdGeneratorNode</text>
</a>
</g>
</g>
<!-- Node1&#45;&gt;Node54 -->
<g id="edge52_Node000001_Node000054" class="edge">
<title>Node1&#45;&gt;Node54</title>
<g id="a_edge52_Node000001_Node000054"><a xlink:title=" ">
<path fill="none" stroke="#63b8ff" d="M169.2,-325.22C170.96,-267.7 184.15,-108.76 274.25,-28.62 278.29,-25.03 282.83,-22.05 287.67,-19.57"/>
<polygon fill="#63b8ff" stroke="#63b8ff" points="165.7,-325.14 168.99,-335.21 172.7,-325.29 165.7,-325.14"/>
</a>
</g>
</g>
<!-- Node2 -->
<g id="Node000002" class="node">
<title>Node2</title>
<g id="a_Node000002"><a xlink:title=" ">
<polygon fill="white" stroke="#666666" points="61.75,-356.25 0,-356.25 0,-337 61.75,-337 61.75,-356.25"/>
<text text-anchor="middle" x="30.88" y="-342.75" font-family="Helvetica,sans-Serif" font-size="10.00">uhal::Node</text>
</a>
</g>
</g>
<!-- Node2&#45;&gt;Node1 -->
<g id="edge1_Node000001_Node000002" class="edge">
<title>Node2&#45;&gt;Node1</title>
<g id="a_edge1_Node000001_Node000002"><a xlink:title=" ">
<path fill="none" stroke="#63b8ff" d="M73.58,-346.62C81.14,-346.62 89.2,-346.62 97.3,-346.62"/>
<polygon fill="#63b8ff" stroke="#63b8ff" points="73.71,-343.13 63.71,-346.63 73.71,-350.13 73.71,-343.13"/>
</a>
</g>
</g>
<!-- Node4 -->
<g id="Node000004" class="node">
<title>Node4</title>
<g id="a_Node000004"><a xlink:href="classdunedaq_1_1timing_1_1PDIEchoMonitorNode.html" target="_top" xlink:title="Class for master global node.">
<polygon fill="white" stroke="#666666" points="651.62,-798.88 525.38,-798.88 525.38,-768.38 651.62,-768.38 651.62,-798.88"/>
<text text-anchor="start" x="533.38" y="-785.38" font-family="Helvetica,sans-Serif" font-size="10.00">dunedaq::timing::PDIEcho</text>
<text text-anchor="middle" x="588.5" y="-774.12" font-family="Helvetica,sans-Serif" font-size="10.00">MonitorNode</text>
</a>
</g>
</g>
<!-- Node3&#45;&gt;Node4 -->
<g id="edge3_Node000003_Node000004" class="edge">
<title>Node3&#45;&gt;Node4</title>
<g id="a_edge3_Node000003_Node000004"><a xlink:title=" ">
<path fill="none" stroke="#63b8ff" d="M439.67,-758.62C467.21,-763.28 498.47,-768.57 525.13,-773.07"/>
<polygon fill="#63b8ff" stroke="#63b8ff" points="440.46,-755.2 430.02,-756.99 439.29,-762.11 440.46,-755.2"/>
</a>
</g>
</g>
<!-- Node6 -->
<g id="Node000006" class="node">
<title>Node6</title>
<g id="a_Node000006"><a xlink:href="classdunedaq_1_1timing_1_1CRTNode.html" target="_top" xlink:title="Base class for timing IO nodes.">
<polygon fill="white" stroke="#666666" points="653.88,-676.25 523.12,-676.25 523.12,-657 653.88,-657 653.88,-676.25"/>
<text text-anchor="middle" x="588.5" y="-662.75" font-family="Helvetica,sans-Serif" font-size="10.00">dunedaq::timing::CRTNode</text>
</a>
</g>
</g>
<!-- Node5&#45;&gt;Node6 -->
<g id="edge5_Node000005_Node000006" class="edge">
<title>Node5&#45;&gt;Node6</title>
<g id="a_edge5_Node000005_Node000006"><a xlink:title=" ">
<path fill="none" stroke="#63b8ff" d="M442.23,-666.62C468.38,-666.62 497.61,-666.62 522.96,-666.62"/>
<polygon fill="#63b8ff" stroke="#63b8ff" points="442.36,-663.13 432.36,-666.63 442.36,-670.13 442.36,-663.13"/>
</a>
</g>
</g>
<!-- Node7 -->
<g id="Node000007" class="node">
<title>Node7</title>
<g id="a_Node000007"><a xlink:href="classdunedaq_1_1timing_1_1EndpointNode.html" target="_top" xlink:title="Base class for timing IO nodes.">
<polygon fill="white" stroke="#666666" points="662.88,-639.25 514.12,-639.25 514.12,-620 662.88,-620 662.88,-639.25"/>
<text text-anchor="middle" x="588.5" y="-625.75" font-family="Helvetica,sans-Serif" font-size="10.00">dunedaq::timing::EndpointNode</text>
</a>
</g>
</g>
<!-- Node5&#45;&gt;Node7 -->
<g id="edge6_Node000005_Node000007" class="edge">
<title>Node5&#45;&gt;Node7</title>
<g id="a_edge6_Node000005_Node000007"><a xlink:title=" ">
<path fill="none" stroke="#63b8ff" d="M442.15,-654.21C470.04,-649.49 501.43,-644.18 527.88,-639.71"/>
<polygon fill="#63b8ff" stroke="#63b8ff" points="441.62,-650.75 432.34,-655.87 442.79,-657.65 441.62,-650.75"/>
</a>
</g>
</g>
<!-- Node8 -->
<g id="Node000008" class="node">
<title>Node8</title>
<g id="a_Node000008"><a xlink:href="classdunedaq_1_1timing_1_1PDIEndpointNode.html" target="_top" xlink:title="Base class for timing IO nodes.">
<polygon fill="white" stroke="#666666" points="671.12,-750.25 505.88,-750.25 505.88,-731 671.12,-731 671.12,-750.25"/>
<text text-anchor="middle" x="588.5" y="-736.75" font-family="Helvetica,sans-Serif" font-size="10.00">dunedaq::timing::PDIEndpointNode</text>
</a>
</g>
</g>
<!-- Node5&#45;&gt;Node8 -->
<g id="edge7_Node000005_Node000008" class="edge">
<title>Node5&#45;&gt;Node8</title>
<g id="a_edge7_Node000005_Node000008"><a xlink:title=" ">
<path fill="none" stroke="#63b8ff" d="M409.84,-687.22C434.65,-698.97 467.18,-713.19 497.25,-722.62 507.01,-725.69 517.53,-728.34 527.82,-730.6"/>
<polygon fill="#63b8ff" stroke="#63b8ff" points="411.61,-684.19 401.08,-683.02 408.58,-690.5 411.61,-684.19"/>
</a>
</g>
</g>
<!-- Node9 -->
<g id="Node000009" class="node">
<title>Node9</title>
<g id="a_Node000009"><a xlink:href="classdunedaq_1_1timing_1_1PDIHSIEndpointNode.html" target="_top" xlink:title="Base class for timing IO nodes.">
<polygon fill="white" stroke="#666666" points="679.75,-713.25 497.25,-713.25 497.25,-694 679.75,-694 679.75,-713.25"/>
<text text-anchor="middle" x="588.5" y="-699.75" font-family="Helvetica,sans-Serif" font-size="10.00">dunedaq::timing::PDIHSIEndpointNode</text>
</a>
</g>
</g>
<!-- Node5&#45;&gt;Node9 -->
<g id="edge8_Node000005_Node000009" class="edge">
<title>Node5&#45;&gt;Node9</title>
<g id="a_edge8_Node000005_Node000009"><a xlink:title=" ">
<path fill="none" stroke="#63b8ff" d="M442.15,-679.04C470.04,-683.76 501.43,-689.07 527.88,-693.54"/>
<polygon fill="#63b8ff" stroke="#63b8ff" points="442.79,-675.6 432.34,-677.38 441.62,-682.5 442.79,-675.6"/>
</a>
</g>
</g>
<!-- Node11 -->
<g id="Node000011" class="node">
<title>Node11</title>
<g id="a_Node000011"><a xlink:href="classdunedaq_1_1timing_1_1PDIFLCmdGeneratorNode.html" target="_top" xlink:title="Class for master global node.">
<polygon fill="white" stroke="#666666" points="656.88,-601.88 520.12,-601.88 520.12,-571.38 656.88,-571.38 656.88,-601.88"/>
<text text-anchor="start" x="528.12" y="-588.38" font-family="Helvetica,sans-Serif" font-size="10.00">dunedaq::timing::PDIFLCmd</text>
<text text-anchor="middle" x="588.5" y="-577.12" font-family="Helvetica,sans-Serif" font-size="10.00">GeneratorNode</text>
</a>
</g>
</g>
<!-- Node10&#45;&gt;Node11 -->
<g id="edge10_Node000010_Node000011" class="edge">
<title>Node10&#45;&gt;Node11</title>
<g id="a_edge10_Node000010_Node000011"><a xlink:title=" ">
<path fill="none" stroke="#63b8ff" d="M472.35,-581.89C488.51,-582.55 504.85,-583.22 519.93,-583.85"/>
<polygon fill="#63b8ff" stroke="#63b8ff" points="472.85,-578.41 462.71,-581.49 472.56,-585.4 472.85,-578.41"/>
</a>
</g>
</g>
<!-- Node15 -->
<g id="Node000015" class="node">
<title>Node15</title>
<g id="a_Node000015"><a xlink:href="classdunedaq_1_1timing_1_1FMCIONode.html" target="_top" xlink:title="Class for the timing FMC board.">
<polygon fill="white" stroke="#666666" points="659.88,-553.25 517.12,-553.25 517.12,-534 659.88,-534 659.88,-553.25"/>
<text text-anchor="middle" x="588.5" y="-539.75" font-family="Helvetica,sans-Serif" font-size="10.00">dunedaq::timing::FMCIONode</text>
</a>
</g>
</g>
<!-- Node14&#45;&gt;Node15 -->
<g id="edge14_Node000014_Node000015" class="edge">
<title>Node14&#45;&gt;Node15</title>
<g id="a_edge14_Node000014_Node000015"><a xlink:title=" ">
<path fill="none" stroke="#63b8ff" d="M439.72,-459.19C447.36,-461.79 454.72,-465.19 461.25,-469.62 485.74,-486.23 472.8,-508.96 497.25,-525.62 503.19,-529.67 509.83,-532.86 516.74,-535.35"/>
<polygon fill="#63b8ff" stroke="#63b8ff" points="440.82,-455.87 430.24,-456.45 438.87,-462.59 440.82,-455.87"/>
</a>
</g>
</g>
<!-- Node16 -->
<g id="Node000016" class="node">
<title>Node16</title>
<g id="a_Node000016"><a xlink:href="classdunedaq_1_1timing_1_1FanoutIONode.html" target="_top" xlink:title="Base class for the fanout boards.">
<polygon fill="white" stroke="#666666" points="664.38,-516.25 512.62,-516.25 512.62,-497 664.38,-497 664.38,-516.25"/>
<text text-anchor="middle" x="588.5" y="-502.75" font-family="Helvetica,sans-Serif" font-size="10.00">dunedaq::timing::FanoutIONode</text>
</a>
</g>
</g>
<!-- Node14&#45;&gt;Node16 -->
<g id="edge15_Node000014_Node000016" class="edge">
<title>Node14&#45;&gt;Node16</title>
<g id="a_edge15_Node000014_Node000016"><a xlink:title=" ">
<path fill="none" stroke="#63b8ff" d="M439.78,-463.23C447.11,-465.08 454.39,-467.21 461.25,-469.62 478.31,-475.64 480.2,-482.57 497.25,-488.62 505.98,-491.73 515.39,-494.35 524.72,-496.54"/>
<polygon fill="#63b8ff" stroke="#63b8ff" points="440.66,-459.84 430.13,-460.96 439.06,-466.65 440.66,-459.84"/>
</a>
</g>
</g>
<!-- Node20 -->
<g id="Node000020" class="node">
<title>Node20</title>
<g id="a_Node000020"><a xlink:href="classdunedaq_1_1timing_1_1GIBIONode.html" target="_top" xlink:title="Class for the timing FMC board.">
<polygon fill="white" stroke="#666666" points="658,-479.25 519,-479.25 519,-460 658,-460 658,-479.25"/>
<text text-anchor="middle" x="588.5" y="-465.75" font-family="Helvetica,sans-Serif" font-size="10.00">dunedaq::timing::GIBIONode</text>
</a>
</g>
</g>
<!-- Node14&#45;&gt;Node20 -->
<g id="edge19_Node000014_Node000020" class="edge">
<title>Node14&#45;&gt;Node20</title>
<g id="a_edge19_Node000014_Node000020"><a xlink:title=" ">
<path fill="none" stroke="#63b8ff" d="M440.45,-457.52C465.66,-459.6 493.9,-461.92 518.85,-463.98"/>
<polygon fill="#63b8ff" stroke="#63b8ff" points="440.87,-454.05 430.61,-456.72 440.29,-461.02 440.87,-454.05"/>
</a>
</g>
</g>
<!-- Node21 -->
<g id="Node000021" class="node">
<title>Node21</title>
<g id="a_Node000021"><a xlink:href="classdunedaq_1_1timing_1_1MIBV2IONode.html" target="_top" xlink:title="Class for the timing FMC board.">
<polygon fill="white" stroke="#666666" points="664.38,-442.25 512.62,-442.25 512.62,-423 664.38,-423 664.38,-442.25"/>
<text text-anchor="middle" x="588.5" y="-428.75" font-family="Helvetica,sans-Serif" font-size="10.00">dunedaq::timing::MIBV2IONode</text>
</a>
</g>
</g>
<!-- Node14&#45;&gt;Node21 -->
<g id="edge20_Node000014_Node000021" class="edge">
<title>Node14&#45;&gt;Node21</title>
<g id="a_edge20_Node000014_Node000021"><a xlink:title=" ">
<path fill="none" stroke="#63b8ff" d="M440.55,-445.39C463.62,-443.38 489.22,-441.16 512.51,-439.14"/>
<polygon fill="#63b8ff" stroke="#63b8ff" points="440.27,-441.9 430.61,-446.25 440.88,-448.87 440.27,-441.9"/>
</a>
</g>
</g>
<!-- Node22 -->
<g id="Node000022" class="node">
<title>Node22</title>
<g id="a_Node000022"><a xlink:href="classdunedaq_1_1timing_1_1SIMIONode.html" target="_top" xlink:title="Class for the timing simulation IO.">
<polygon fill="white" stroke="#666666" points="658.38,-405.25 518.62,-405.25 518.62,-386 658.38,-386 658.38,-405.25"/>
<text text-anchor="middle" x="588.5" y="-391.75" font-family="Helvetica,sans-Serif" font-size="10.00">dunedaq::timing::SIMIONode</text>
</a>
</g>
</g>
<!-- Node14&#45;&gt;Node22 -->
<g id="edge21_Node000014_Node000022" class="edge">
<title>Node14&#45;&gt;Node22</title>
<g id="a_edge21_Node000014_Node000022"><a xlink:title=" ">
<path fill="none" stroke="#63b8ff" d="M439.83,-440.17C447.16,-438.29 454.41,-436.12 461.25,-433.62 478.45,-427.35 480.07,-419.94 497.25,-413.62 505.8,-410.49 515.01,-407.85 524.18,-405.65"/>
<polygon fill="#63b8ff" stroke="#63b8ff" points="439.11,-436.75 430.19,-442.47 440.73,-443.56 439.11,-436.75"/>
</a>
</g>
</g>
<!-- Node23 -->
<g id="Node000023" class="node">
<title>Node23</title>
<g id="a_Node000023"><a xlink:href="classdunedaq_1_1timing_1_1TLUIONode.html" target="_top" xlink:title="Class for the TLU board.">
<polygon fill="white" stroke="#666666" points="659.12,-368.25 517.88,-368.25 517.88,-349 659.12,-349 659.12,-368.25"/>
<text text-anchor="middle" x="588.5" y="-354.75" font-family="Helvetica,sans-Serif" font-size="10.00">dunedaq::timing::TLUIONode</text>
</a>
</g>
</g>
<!-- Node14&#45;&gt;Node23 -->
<g id="edge22_Node000014_Node000023" class="edge">
<title>Node14&#45;&gt;Node23</title>
<g id="a_edge22_Node000014_Node000023"><a xlink:title=" ">
<path fill="none" stroke="#63b8ff" d="M439.75,-444.11C447.39,-441.5 454.73,-438.08 461.25,-433.62 485.98,-416.71 472.56,-393.6 497.25,-376.62 503.44,-372.37 510.4,-369.07 517.63,-366.52"/>
<polygon fill="#63b8ff" stroke="#63b8ff" points="438.91,-440.71 430.28,-446.86 440.86,-447.43 438.91,-440.71"/>
</a>
</g>
</g>
<!-- Node17 -->
<g id="Node000017" class="node">
<title>Node17</title>
<g id="a_Node000017"><a xlink:href="classdunedaq_1_1timing_1_1FIBIONode.html" target="_top" xlink:title="Class for the FIB board.">
<polygon fill="white" stroke="#666666" points="860,-561.25 722.5,-561.25 722.5,-542 860,-542 860,-561.25"/>
<text text-anchor="middle" x="791.25" y="-547.75" font-family="Helvetica,sans-Serif" font-size="10.00">dunedaq::timing::FIBIONode</text>
</a>
</g>
</g>
<!-- Node16&#45;&gt;Node17 -->
<g id="edge16_Node000016_Node000017" class="edge">
<title>Node16&#45;&gt;Node17</title>
<g id="a_edge16_Node000016_Node000017"><a xlink:title=" ">
<path fill="none" stroke="#63b8ff" d="M653.26,-518.94C662.17,-520.78 671.2,-522.7 679.75,-524.62 695.84,-528.24 699.73,-529.69 715.75,-533.62 726.35,-536.23 737.8,-539.01 748.47,-541.59"/>
<polygon fill="#63b8ff" stroke="#63b8ff" points="654.07,-515.54 643.57,-516.97 652.67,-522.4 654.07,-515.54"/>
</a>
</g>
</g>
<!-- Node18 -->
<g id="Node000018" class="node">
<title>Node18</title>
<g id="a_Node000018"><a xlink:href="classdunedaq_1_1timing_1_1MIBIONode.html" target="_top" xlink:title="Class for the timing FMC board.">
<polygon fill="white" stroke="#666666" points="861.12,-524.25 721.38,-524.25 721.38,-505 861.12,-505 861.12,-524.25"/>
<text text-anchor="middle" x="791.25" y="-510.75" font-family="Helvetica,sans-Serif" font-size="10.00">dunedaq::timing::MIBIONode</text>
</a>
</g>
</g>
<!-- Node16&#45;&gt;Node18 -->
<g id="edge17_Node000016_Node000018" class="edge">
<title>Node16&#45;&gt;Node18</title>
<g id="a_edge17_Node000016_Node000018"><a xlink:title=" ">
<path fill="none" stroke="#63b8ff" d="M676.2,-510.08C691.22,-510.68 706.66,-511.29 721.13,-511.87"/>
<polygon fill="#63b8ff" stroke="#63b8ff" points="676.47,-506.59 666.34,-509.69 676.19,-513.58 676.47,-506.59"/>
</a>
</g>
</g>
<!-- Node19 -->
<g id="Node000019" class="node">
<title>Node19</title>
<g id="a_Node000019"><a xlink:href="classdunedaq_1_1timing_1_1PC059IONode.html" target="_top" xlink:title="Class for the PC059 board.">
<polygon fill="white" stroke="#666666" points="866.75,-487.25 715.75,-487.25 715.75,-468 866.75,-468 866.75,-487.25"/>
<text text-anchor="middle" x="791.25" y="-473.75" font-family="Helvetica,sans-Serif" font-size="10.00">dunedaq::timing::PC059IONode</text>
</a>
</g>
</g>
<!-- Node16&#45;&gt;Node19 -->
<g id="edge18_Node000016_Node000019" class="edge">
<title>Node16&#45;&gt;Node19</title>
<g id="a_edge18_Node000016_Node000019"><a xlink:title=" ">
<path fill="none" stroke="#63b8ff" d="M670.67,-494.9C687.09,-492.53 704.23,-490.05 720.23,-487.74"/>
<polygon fill="#63b8ff" stroke="#63b8ff" points="670.33,-491.41 660.93,-496.31 671.33,-498.34 670.33,-491.41"/>
</a>
</g>
</g>
<!-- Node26 -->
<g id="Node000026" class="node">
<title>Node26</title>
<g id="a_Node000026"><a xlink:href="classdunedaq_1_1timing_1_1MasterNode.html" target="_top" xlink:title="Class for PD&#45;II/DUNE master timing nodes.">
<polygon fill="white" stroke="#666666" points="659.12,-331.25 517.88,-331.25 517.88,-312 659.12,-312 659.12,-331.25"/>
<text text-anchor="middle" x="588.5" y="-317.75" font-family="Helvetica,sans-Serif" font-size="10.00">dunedaq::timing::MasterNode</text>
</a>
</g>
</g>
<!-- Node25&#45;&gt;Node26 -->
<g id="edge25_Node000025_Node000026" class="edge">
<title>Node25&#45;&gt;Node26</title>
<g id="a_edge25_Node000025_Node000026"><a xlink:title=" ">
<path fill="none" stroke="#63b8ff" d="M440.4,-353.15C458.88,-348.56 478.77,-343.77 497.25,-339.62 509.41,-336.9 522.54,-334.16 534.92,-331.68"/>
<polygon fill="#63b8ff" stroke="#63b8ff" points="439.72,-349.71 430.87,-355.53 441.42,-356.5 439.72,-349.71"/>
</a>
</g>
</g>
<!-- Node27 -->
<g id="Node000027" class="node">
<title>Node27</title>
<g id="a_Node000027"><a xlink:href="classdunedaq_1_1timing_1_1PDIMasterNode.html" target="_top" xlink:title="Class for PD&#45;I master timing nodes.">
<polygon fill="white" stroke="#666666" points="667.38,-294.25 509.62,-294.25 509.62,-275 667.38,-275 667.38,-294.25"/>
<text text-anchor="middle" x="588.5" y="-280.75" font-family="Helvetica,sans-Serif" font-size="10.00">dunedaq::timing::PDIMasterNode</text>
</a>
</g>
</g>
<!-- Node25&#45;&gt;Node27 -->
<g id="edge26_Node000025_Node000027" class="edge">
<title>Node25&#45;&gt;Node27</title>
<g id="a_edge26_Node000025_Node000027"><a xlink:title=" ">
<path fill="none" stroke="#63b8ff" d="M448.81,-353.51C453.14,-351.45 457.32,-349.17 461.25,-346.62 482.46,-332.89 475.59,-315.64 497.25,-302.62 502.59,-299.42 508.4,-296.77 514.41,-294.58"/>
<polygon fill="#63b8ff" stroke="#63b8ff" points="447.71,-350.17 439.87,-357.3 450.44,-356.62 447.71,-350.17"/>
</a>
</g>
</g>
<!-- Node33 -->
<g id="Node000033" class="node">
<title>Node33</title>
<g id="a_Node000033"><a xlink:href="classdunedaq_1_1timing_1_1EndpointDesignInterface.html" target="_top" xlink:title="Base class for timing endpoint design nodes.">
<polygon fill="white" stroke="#666666" points="651.25,-241.88 525.75,-241.88 525.75,-211.38 651.25,-211.38 651.25,-241.88"/>
<text text-anchor="start" x="533.75" y="-228.38" font-family="Helvetica,sans-Serif" font-size="10.00">dunedaq::timing::Endpoint</text>
<text text-anchor="middle" x="588.5" y="-217.12" font-family="Helvetica,sans-Serif" font-size="10.00">DesignInterface</text>
</a>
</g>
</g>
<!-- Node32&#45;&gt;Node33 -->
<g id="edge32_Node000032_Node000033" class="edge">
<title>Node32&#45;&gt;Node33</title>
<g id="a_edge32_Node000032_Node000033"><a xlink:title=" ">
<path fill="none" stroke="#63b8ff" d="M441.37,-169.36C448.12,-171.37 454.83,-173.47 461.25,-175.62 492.4,-186.08 526.94,-200.22 552.01,-210.96"/>
<polygon fill="#63b8ff" stroke="#63b8ff" points="442.79,-166.13 432.21,-166.7 440.84,-172.85 442.79,-166.13"/>
</a>
</g>
</g>
<!-- Node46 -->
<g id="Node000046" class="node">
<title>Node46</title>
<g id="a_Node000046"><a xlink:href="classdunedaq_1_1timing_1_1MasterDesignInterface.html" target="_top" xlink:title="Base class for timing master designs.">
<polygon fill="#fff0f0" stroke="red" points="662.5,-62.88 514.5,-62.88 514.5,-32.38 662.5,-32.38 662.5,-62.88"/>
<text text-anchor="start" x="522.5" y="-49.38" font-family="Helvetica,sans-Serif" font-size="10.00">dunedaq::timing::MasterDesign</text>
<text text-anchor="middle" x="588.5" y="-38.12" font-family="Helvetica,sans-Serif" font-size="10.00">Interface</text>
</a>
</g>
</g>
<!-- Node32&#45;&gt;Node46 -->
<g id="edge42_Node000032_Node000046" class="edge">
<title>Node32&#45;&gt;Node46</title>
<g id="a_edge42_Node000032_Node000046"><a xlink:title=" ">
<path fill="none" stroke="#63b8ff" d="M445.39,-134.77C450.99,-132.17 456.35,-129.15 461.25,-125.62 484.67,-108.79 473.8,-88.42 497.25,-71.62 502.52,-67.85 508.35,-64.67 514.43,-61.99"/>
<polygon fill="#63b8ff" stroke="#63b8ff" points="444.42,-131.38 436.5,-138.43 447.08,-137.86 444.42,-131.38"/>
</a>
</g>
</g>
<!-- Node50 -->
<g id="Node000050" class="node">
<title>Node50</title>
<g id="a_Node000050"><a xlink:href="classdunedaq_1_1timing_1_1MuxDesignInterface.html" target="_top" xlink:title="Class for timing fanout designs.">
<polygon fill="#fff0f0" stroke="red" points="656.5,-165.88 520.5,-165.88 520.5,-135.38 656.5,-135.38 656.5,-165.88"/>
<text text-anchor="start" x="528.5" y="-152.38" font-family="Helvetica,sans-Serif" font-size="10.00">dunedaq::timing::MuxDesign</text>
<text text-anchor="middle" x="588.5" y="-141.12" font-family="Helvetica,sans-Serif" font-size="10.00">Interface</text>
</a>
</g>
</g>
<!-- Node32&#45;&gt;Node50 -->
<g id="edge46_Node000032_Node000050" class="edge">
<title>Node32&#45;&gt;Node50</title>
<g id="a_edge46_Node000032_Node000050"><a xlink:title=" ">
<path fill="none" stroke="#63b8ff" d="M446.52,-150.62C470.58,-150.62 496.87,-150.62 520.16,-150.62"/>
<polygon fill="#63b8ff" stroke="#63b8ff" points="446.79,-147.13 436.79,-150.63 446.79,-154.13 446.79,-147.13"/>
</a>
</g>
</g>
<!-- Node51 -->
<g id="Node000051" class="node">
<title>Node51</title>
<g id="a_Node000051"><a xlink:href="classdunedaq_1_1timing_1_1TopDesign.html" target="_top" xlink:title="Base class for timing top design nodes with IO class.">
<polygon fill="#fff0f0" stroke="red" points="655.75,-100.25 521.25,-100.25 521.25,-81 655.75,-81 655.75,-100.25"/>
<text text-anchor="middle" x="588.5" y="-86.75" font-family="Helvetica,sans-Serif" font-size="10.00">dunedaq::timing::TopDesign</text>
</a>
</g>
</g>
<!-- Node32&#45;&gt;Node51 -->
<g id="edge47_Node000032_Node000051" class="edge">
<title>Node32&#45;&gt;Node51</title>
<g id="a_edge47_Node000032_Node000051"><a xlink:title=" ">
<path fill="none" stroke="#63b8ff" d="M438.01,-131.96C445.85,-129.83 453.73,-127.68 461.25,-125.62 491.63,-117.31 526.09,-107.75 551.33,-100.72"/>
<polygon fill="#63b8ff" stroke="#63b8ff" points="437.19,-128.55 428.45,-134.55 439.02,-135.31 437.19,-128.55"/>
</a>
</g>
</g>
<!-- Node34 -->
<g id="Node000034" class="node">
<title>Node34</title>
<g id="a_Node000034"><a xlink:href="classdunedaq_1_1timing_1_1CRTDesignInterface.html" target="_top" xlink:title="Base class for timing hsi design nodes.">
<polygon fill="#fff0f0" stroke="red" points="860,-191.88 722.5,-191.88 722.5,-161.38 860,-161.38 860,-191.88"/>
<text text-anchor="start" x="730.5" y="-178.38" font-family="Helvetica,sans-Serif" font-size="10.00">dunedaq::timing::CRTDesign</text>
<text text-anchor="middle" x="791.25" y="-167.12" font-family="Helvetica,sans-Serif" font-size="10.00">Interface</text>
</a>
</g>
</g>
<!-- Node33&#45;&gt;Node34 -->
<g id="edge33_Node000033_Node000034" class="edge">
<title>Node33&#45;&gt;Node34</title>
<g id="a_edge33_Node000033_Node000034"><a xlink:title=" ">
<path fill="none" stroke="#63b8ff" d="M662.8,-208.37C683.86,-203.12 706.63,-197.45 727.02,-192.37"/>
<polygon fill="#63b8ff" stroke="#63b8ff" points="661.97,-204.97 653.11,-210.78 663.66,-211.76 661.97,-204.97"/>
</a>
</g>
</g>
<!-- Node36 -->
<g id="Node000036" class="node">
<title>Node36</title>
<g id="a_Node000036"><a xlink:href="classdunedaq_1_1timing_1_1EndpointDesign.html" target="_top" xlink:title="Base class for timing endpoint design nodes.">
<polygon fill="white" stroke="#666666" points="854,-105.88 728.5,-105.88 728.5,-75.38 854,-75.38 854,-105.88"/>
<text text-anchor="start" x="736.5" y="-92.38" font-family="Helvetica,sans-Serif" font-size="10.00">dunedaq::timing::Endpoint</text>
<text text-anchor="middle" x="791.25" y="-81.12" font-family="Helvetica,sans-Serif" font-size="10.00">Design</text>
</a>
</g>
</g>
<!-- Node33&#45;&gt;Node36 -->
<g id="edge34_Node000033_Node000036" class="edge">
<title>Node33&#45;&gt;Node36</title>
<g id="a_edge34_Node000033_Node000036"><a xlink:title=" ">
<path fill="none" stroke="#63b8ff" d="M634.9,-205.88C650.21,-197.54 666.7,-186.95 679.75,-174.62 700.99,-154.56 693.06,-138.02 715.75,-119.62 722.22,-114.38 729.75,-110 737.48,-106.37"/>
<polygon fill="#63b8ff" stroke="#63b8ff" points="633.63,-202.59 626.39,-210.33 636.88,-208.79 633.63,-202.59"/>
</a>
</g>
</g>
<!-- Node37 -->
<g id="Node000037" class="node">
<title>Node37</title>
<g id="a_Node000037"><a xlink:href="classdunedaq_1_1timing_1_1FanoutDesign.html" target="_top" xlink:title="Class for timing fanout designs.">
<polygon fill="#fff0f0" stroke="red" points="865.25,-450.25 717.25,-450.25 717.25,-431 865.25,-431 865.25,-450.25"/>
<text text-anchor="middle" x="791.25" y="-436.75" font-family="Helvetica,sans-Serif" font-size="10.00">dunedaq::timing::FanoutDesign</text>
</a>
</g>
</g>
<!-- Node33&#45;&gt;Node37 -->
<g id="edge35_Node000033_Node000037" class="edge">
<title>Node33&#45;&gt;Node37</title>
<g id="a_edge35_Node000033_Node000037"><a xlink:title=" ">
<path fill="none" stroke="#63b8ff" d="M657.78,-247.56C666.06,-252.42 673.71,-258.36 679.75,-265.62 725.55,-320.65 665.43,-371.71 715.75,-422.62 718.84,-425.75 722.37,-428.36 726.17,-430.55"/>
<polygon fill="#63b8ff" stroke="#63b8ff" points="659.66,-244.59 649.18,-243.05 656.41,-250.79 659.66,-244.59"/>
</a>
</g>
</g>
<!-- Node38 -->
<g id="Node000038" class="node">
<title>Node38</title>
<g id="a_Node000038"><a xlink:href="classdunedaq_1_1timing_1_1GaiaDesign.html" target="_top" xlink:title="Class for timing fanout designs.">
<polygon fill="#fff0f0" stroke="red" points="860.38,-413.25 722.12,-413.25 722.12,-394 860.38,-394 860.38,-413.25"/>
<text text-anchor="middle" x="791.25" y="-399.75" font-family="Helvetica,sans-Serif" font-size="10.00">dunedaq::timing::GaiaDesign</text>
</a>
</g>
</g>
<!-- Node33&#45;&gt;Node38 -->
<g id="edge36_Node000033_Node000038" class="edge">
<title>Node33&#45;&gt;Node38</title>
<g id="a_edge36_Node000033_Node000038"><a xlink:title=" ">
<path fill="none" stroke="#63b8ff" d="M656.4,-247.42C665.09,-252.32 673.23,-258.31 679.75,-265.62 716.53,-306.86 675.83,-346.42 715.75,-384.62 719.51,-388.22 723.86,-391.17 728.52,-393.57"/>
<polygon fill="#63b8ff" stroke="#63b8ff" points="658.25,-244.44 647.75,-243.03 655.08,-250.68 658.25,-244.44"/>
</a>
</g>
</g>
<!-- Node39 -->
<g id="Node000039" class="node">
<title>Node39</title>
<g id="a_Node000039"><a xlink:href="classdunedaq_1_1timing_1_1HSIDesignInterface.html" target="_top" xlink:title="Base class for timing hsi design nodes.">
<polygon fill="#fff0f0" stroke="red" points="858.88,-375.88 723.62,-375.88 723.62,-345.38 858.88,-345.38 858.88,-375.88"/>
<text text-anchor="start" x="731.62" y="-362.38" font-family="Helvetica,sans-Serif" font-size="10.00">dunedaq::timing::HSIDesign</text>
<text text-anchor="middle" x="791.25" y="-351.12" font-family="Helvetica,sans-Serif" font-size="10.00">Interface</text>
</a>
</g>
</g>
<!-- Node33&#45;&gt;Node39 -->
<g id="edge37_Node000033_Node000039" class="edge">
<title>Node33&#45;&gt;Node39</title>
<g id="a_edge37_Node000033_Node000039"><a xlink:title=" ">
<path fill="none" stroke="#63b8ff" d="M652.61,-247.16C662.42,-252.17 671.88,-258.27 679.75,-265.62 705.3,-289.52 689.21,-312.83 715.75,-335.62 719.99,-339.27 724.79,-342.39 729.85,-345.06"/>
<polygon fill="#63b8ff" stroke="#63b8ff" points="654.23,-244.05 643.69,-242.96 651.25,-250.39 654.23,-244.05"/>
</a>
</g>
</g>
<!-- Node42 -->
<g id="Node000042" class="node">
<title>Node42</title>
<g id="a_Node000042"><a xlink:href="classdunedaq_1_1timing_1_1KerberosDesign.html" target="_top" xlink:title="Class for timing fanout designs.">
<polygon fill="#fff0f0" stroke="red" points="854.75,-326.88 727.75,-326.88 727.75,-296.38 854.75,-296.38 854.75,-326.88"/>
<text text-anchor="start" x="735.75" y="-313.38" font-family="Helvetica,sans-Serif" font-size="10.00">dunedaq::timing::Kerberos</text>
<text text-anchor="middle" x="791.25" y="-302.12" font-family="Helvetica,sans-Serif" font-size="10.00">Design</text>
</a>
</g>
</g>
<!-- Node33&#45;&gt;Node42 -->
<g id="edge38_Node000033_Node000042" class="edge">
<title>Node33&#45;&gt;Node42</title>
<g id="a_edge38_Node000033_Node000042"><a xlink:title=" ">
<path fill="none" stroke="#63b8ff" d="M639.07,-246.78C652.43,-252.55 666.77,-259.06 679.75,-265.62 696.28,-273.98 698.88,-278.97 715.75,-286.62 723.08,-289.95 730.99,-293.07 738.82,-295.9"/>
<polygon fill="#63b8ff" stroke="#63b8ff" points="640.58,-243.62 630.01,-242.91 637.84,-250.05 640.58,-243.62"/>
</a>
</g>
</g>
<!-- Node43 -->
<g id="Node000043" class="node">
<title>Node43</title>
<g id="a_Node000043"><a xlink:href="classdunedaq_1_1timing_1_1OuroborosDesign.html" target="_top" xlink:title="Class for PDI timing master design (known as overlord).">
<polygon fill="white" stroke="#666666" points="1035.75,-194.88 902.75,-194.88 902.75,-164.38 1035.75,-164.38 1035.75,-194.88"/>
<text text-anchor="start" x="910.75" y="-181.38" font-family="Helvetica,sans-Serif" font-size="10.00">dunedaq::timing::Ouroboros</text>
<text text-anchor="middle" x="969.25" y="-170.12" font-family="Helvetica,sans-Serif" font-size="10.00">Design</text>
</a>
</g>
</g>
<!-- Node33&#45;&gt;Node43 -->
<g id="edge39_Node000033_Node000043" class="edge">
<title>Node33&#45;&gt;Node43</title>
<g id="a_edge39_Node000033_Node000043"><a xlink:title=" ">
<path fill="none" stroke="#63b8ff" d="M662.92,-221.96C718.96,-217.86 797.98,-210.93 866.75,-200.62 878.32,-198.89 890.55,-196.68 902.37,-194.36"/>
<polygon fill="#63b8ff" stroke="#63b8ff" points="662.91,-218.45 653.19,-222.66 663.41,-225.43 662.91,-218.45"/>
</a>
</g>
</g>
<!-- Node44 -->
<g id="Node000044" class="node">
<title>Node44</title>
<g id="a_Node000044"><a xlink:href="classdunedaq_1_1timing_1_1OuroborosMuxDesign.html" target="_top" xlink:title="Class for PDI ouroboros timing master design.">
<polygon fill="#fff0f0" stroke="red" points="857.75,-277.88 724.75,-277.88 724.75,-247.38 857.75,-247.38 857.75,-277.88"/>
<text text-anchor="start" x="732.75" y="-264.38" font-family="Helvetica,sans-Serif" font-size="10.00">dunedaq::timing::Ouroboros</text>
<text text-anchor="middle" x="791.25" y="-253.12" font-family="Helvetica,sans-Serif" font-size="10.00">MuxDesign</text>
</a>
</g>
</g>
<!-- Node33&#45;&gt;Node44 -->
<g id="edge40_Node000033_Node000044" class="edge">
<title>Node33&#45;&gt;Node44</title>
<g id="a_edge40_Node000033_Node000044"><a xlink:title=" ">
<path fill="none" stroke="#63b8ff" d="M662.7,-239.75C682.95,-243.38 704.79,-247.3 724.58,-250.85"/>
<polygon fill="#63b8ff" stroke="#63b8ff" points="663.59,-236.36 653.13,-238.04 662.36,-243.25 663.59,-236.36"/>
</a>
</g>
</g>
<!-- Node45 -->
<g id="Node000045" class="node">
<title>Node45</title>
<g id="a_Node000045"><a xlink:href="classdunedaq_1_1timing_1_1OverlordDesign.html" target="_top" xlink:title="Class for PDI timing master design (known as overlord).">
<polygon fill="#fff0f0" stroke="red" points="1031.62,-105.88 906.88,-105.88 906.88,-75.38 1031.62,-75.38 1031.62,-105.88"/>
<text text-anchor="start" x="914.88" y="-92.38" font-family="Helvetica,sans-Serif" font-size="10.00">dunedaq::timing::Overlord</text>
<text text-anchor="middle" x="969.25" y="-81.12" font-family="Helvetica,sans-Serif" font-size="10.00">Design</text>
</a>
</g>
</g>
<!-- Node33&#45;&gt;Node45 -->
<g id="edge41_Node000033_Node000045" class="edge">
<title>Node33&#45;&gt;Node45</title>
<g id="a_edge41_Node000033_Node000045"><a xlink:title=" ">
<path fill="none" stroke="#63b8ff" d="M626.96,-205.33C643.24,-196 662.49,-184.87 679.75,-174.62 695.87,-165.05 698.44,-159.83 715.75,-152.62 724.67,-148.91 834.65,-122.42 906.49,-105.29"/>
<polygon fill="#63b8ff" stroke="#63b8ff" points="625.51,-202.12 618.57,-210.13 628.99,-208.2 625.51,-202.12"/>
</a>
</g>
</g>
<!-- Node47 -->
<g id="Node000047" class="node">
<title>Node47</title>
<g id="a_Node000047"><a xlink:href="classdunedaq_1_1timing_1_1MasterDesign.html" target="_top" xlink:title="Base class for timing master designs.">
<polygon fill="#fff0f0" stroke="red" points="865.25,-57.25 717.25,-57.25 717.25,-38 865.25,-38 865.25,-57.25"/>
<text text-anchor="middle" x="791.25" y="-43.75" font-family="Helvetica,sans-Serif" font-size="10.00">dunedaq::timing::MasterDesign</text>
</a>
</g>
</g>
<!-- Node46&#45;&gt;Node47 -->
<g id="edge43_Node000046_Node000047" class="edge">
<title>Node46&#45;&gt;Node47</title>
<g id="a_edge43_Node000046_Node000047"><a xlink:title=" ">
<path fill="none" stroke="#63b8ff" d="M674.09,-47.62C688.28,-47.62 702.9,-47.62 716.79,-47.62"/>
<polygon fill="#63b8ff" stroke="#63b8ff" points="674.34,-44.13 664.34,-47.63 674.34,-51.13 674.34,-44.13"/>
</a>
</g>
</g>
<!-- Node47&#45;&gt;Node43 -->
<g id="edge44_Node000047_Node000043" class="edge">
<title>Node47&#45;&gt;Node43</title>
<g id="a_edge44_Node000047_Node000043"><a xlink:title=" ">
<path fill="none" stroke="#63b8ff" d="M859.28,-62.25C861.87,-63.58 864.37,-65.04 866.75,-66.62 888.93,-81.43 885.24,-94.51 902.75,-114.62 918.21,-132.39 937.52,-151.18 951.15,-163.97"/>
<polygon fill="#63b8ff" stroke="#63b8ff" points="860.88,-59.13 850.32,-58.29 858.05,-65.53 860.88,-59.13"/>
</a>
</g>
</g>
<!-- Node47&#45;&gt;Node45 -->
<g id="edge45_Node000047_Node000045" class="edge">
<title>Node47&#45;&gt;Node45</title>
<g id="a_edge45_Node000047_Node000045"><a xlink:title=" ">
<path fill="none" stroke="#63b8ff" d="M844.61,-60.42C864.07,-65.17 886.33,-70.61 906.55,-75.55"/>
<polygon fill="#63b8ff" stroke="#63b8ff" points="845.53,-57.04 834.98,-58.07 843.87,-63.84 845.53,-57.04"/>
</a>
</g>
</g>
<!-- Node51&#45;&gt;Node36 -->
<g id="edge48_Node000051_Node000036" class="edge">
<title>Node51&#45;&gt;Node36</title>
<g id="a_edge48_Node000051_Node000036"><a xlink:title=" ">
<path fill="none" stroke="#63b8ff" d="M667.44,-90.62C687.61,-90.62 709.05,-90.62 728.28,-90.62"/>
<polygon fill="#63b8ff" stroke="#63b8ff" points="667.58,-87.13 657.58,-90.63 667.58,-94.13 667.58,-87.13"/>
</a>
</g>
</g>
<!-- Node51&#45;&gt;Node47 -->
<g id="edge49_Node000051_Node000047" class="edge">
<title>Node51&#45;&gt;Node47</title>
<g id="a_edge49_Node000051_Node000047"><a xlink:title=" ">
<path fill="none" stroke="#63b8ff" d="M648.79,-78.2C659.11,-76.02 669.75,-73.76 679.75,-71.62 700.87,-67.11 724.24,-62.04 744.03,-57.73"/>
<polygon fill="#63b8ff" stroke="#63b8ff" points="648.3,-74.73 639.24,-80.21 649.74,-81.58 648.3,-74.73"/>
</a>
</g>
</g>
</g>
</svg>
