<?xml version="1.0" encoding="UTF-8" standalone="no"?>
<!DOCTYPE svg PUBLIC "-//W3C//DTD SVG 1.1//EN"
 "http://www.w3.org/Graphics/SVG/1.1/DTD/svg11.dtd">
<!-- Generated by graphviz version 9.0.0 (20230911.1827)
 -->
<!-- Title: dunedaq::hsilibs::HSIFrameProcessor Pages: 1 -->
<svg width="575pt" height="98pt"
 viewBox="0.00 0.00 574.50 98.12" xmlns="http://www.w3.org/2000/svg" xmlns:xlink="http://www.w3.org/1999/xlink">
<g id="graph0" class="graph" transform="scale(1 1) rotate(0) translate(4 94.12)">
<title>dunedaq::hsilibs::HSIFrameProcessor</title>
<!-- Node1 -->
<g id="Node000001" class="node">
<title>Node1</title>
<g id="a_Node000001"><a xlink:title=" ">
<polygon fill="#999999" stroke="#666666" points="566.5,-57.5 432,-57.5 432,-27 566.5,-27 566.5,-57.5"/>
<text text-anchor="start" x="440" y="-44" font-family="Helvetica,sans-Serif" font-size="10.00">dunedaq::hsilibs::HSIFrame</text>
<text text-anchor="middle" x="499.25" y="-32.75" font-family="Helvetica,sans-Serif" font-size="10.00">Processor</text>
</a>
</g>
</g>
<!-- Node2 -->
<g id="Node000002" class="node">
<title>Node2</title>
<g id="a_Node000002"><a xlink:href="classdunedaq_1_1readoutlibs_1_1TaskRawDataProcessorModel.html" target="_top" xlink:title=" ">
<polygon fill="white" stroke="#666666" points="395,-63.12 229,-63.12 229,-21.38 395,-21.38 395,-63.12"/>
<text text-anchor="start" x="237" y="-49.62" font-family="Helvetica,sans-Serif" font-size="10.00">dunedaq::readoutlibs</text>
<text text-anchor="start" x="237" y="-38.38" font-family="Helvetica,sans-Serif" font-size="10.00">::TaskRawDataProcessorModel</text>
<text text-anchor="middle" x="312" y="-27.12" font-family="Helvetica,sans-Serif" font-size="10.00">&lt; hsilibs::HSI_FRAME_STRUCT &gt;</text>
</a>
</g>
</g>
<!-- Node2&#45;&gt;Node1 -->
<g id="edge1_Node000001_Node000002" class="edge">
<title>Node2&#45;&gt;Node1</title>
<g id="a_edge1_Node000001_Node000002"><a xlink:title=" ">
<path fill="none" stroke="#63b8ff" d="M406.79,-42.25C415.21,-42.25 423.61,-42.25 431.72,-42.25"/>
<polygon fill="#63b8ff" stroke="#63b8ff" points="406.85,-38.75 396.85,-42.25 406.85,-45.75 406.85,-38.75"/>
</a>
</g>
</g>
<!-- Node3 -->
<g id="Node000003" class="node">
<title>Node3</title>
<g id="a_Node000003"><a xlink:href="classdunedaq_1_1readoutlibs_1_1RawDataProcessorConcept.html" target="_top" xlink:title=" ">
<polygon fill="white" stroke="#666666" points="140.5,-90.12 0,-90.12 0,-48.38 140.5,-48.38 140.5,-90.12"/>
<text text-anchor="start" x="8" y="-76.62" font-family="Helvetica,sans-Serif" font-size="10.00">dunedaq::readoutlibs</text>
<text text-anchor="start" x="8" y="-65.38" font-family="Helvetica,sans-Serif" font-size="10.00">::RawDataProcessorConcept</text>
<text text-anchor="middle" x="70.25" y="-54.12" font-family="Helvetica,sans-Serif" font-size="10.00">&lt; ReadoutType &gt;</text>
</a>
</g>
</g>
<!-- Node3&#45;&gt;Node2 -->
<g id="edge2_Node000002_Node000003" class="edge">
<title>Node3&#45;&gt;Node2</title>
<g id="a_edge2_Node000002_Node000003"><a xlink:title=" ">
<path fill="none" stroke="#63b8ff" d="M152.09,-60.15C176.83,-57.36 204.05,-54.29 228.87,-51.5"/>
<polygon fill="#63b8ff" stroke="#63b8ff" points="151.97,-56.64 142.42,-61.23 152.75,-63.59 151.97,-56.64"/>
</a>
</g>
</g>
<!-- Node4 -->
<g id="Node000004" class="node">
<title>Node4</title>
<g id="a_Node000004"><a xlink:href="structdunedaq_1_1daqdataformats_1_1SourceID.html" target="_top" xlink:title="SourceID is a generalized representation of the source of a piece of data in the DAQ....">
<polygon fill="white" stroke="#666666" points="132.62,-30.5 7.88,-30.5 7.88,0 132.62,0 132.62,-30.5"/>
<text text-anchor="start" x="15.88" y="-17" font-family="Helvetica,sans-Serif" font-size="10.00">dunedaq::daqdataformats</text>
<text text-anchor="middle" x="70.25" y="-5.75" font-family="Helvetica,sans-Serif" font-size="10.00">::SourceID</text>
</a>
</g>
</g>
<!-- Node4&#45;&gt;Node2 -->
<g id="edge3_Node000002_Node000004" class="edge">
<title>Node4&#45;&gt;Node2</title>
<g id="a_edge3_Node000002_Node000004"><a xlink:title=" ">
<path fill="none" stroke="#9a32cd" stroke-dasharray="5,2" d="M144.18,-23.46C170.86,-26.47 201.23,-29.89 228.68,-32.98"/>
<polygon fill="#9a32cd" stroke="#9a32cd" points="144.82,-20.01 134.5,-22.37 144.04,-26.97 144.82,-20.01"/>
</a>
</g>
<text text-anchor="middle" x="184.75" y="-32" font-family="Helvetica,sans-Serif" font-size="10.00" fill="grey"> m_sourceid</text>
</g>
</g>
</svg>
