<?xml version="1.0" encoding="UTF-8" standalone="no"?>
<!DOCTYPE svg PUBLIC "-//W3C//DTD SVG 1.1//EN"
 "http://www.w3.org/Graphics/SVG/1.1/DTD/svg11.dtd">
<!-- Generated by graphviz version 9.0.0 (20230911.1827)
 -->
<!-- Title: dunedaq::readoutlibs::RecorderModel&lt; ReadoutType &gt; Pages: 1 -->
<svg width="387pt" height="147pt"
 viewBox="0.00 0.00 387.25 146.50" xmlns="http://www.w3.org/2000/svg" xmlns:xlink="http://www.w3.org/1999/xlink">
<g id="graph0" class="graph" transform="scale(1 1) rotate(0) translate(4 142.5)">
<title>dunedaq::readoutlibs::RecorderModel&lt; ReadoutType &gt;</title>
<!-- Node1 -->
<g id="Node000001" class="node">
<title>Node1</title>
<g id="a_Node000001"><a xlink:title=" ">
<polygon fill="#999999" stroke="#666666" points="379.25,-84.5 220,-84.5 220,-54 379.25,-54 379.25,-84.5"/>
<text text-anchor="start" x="228" y="-71" font-family="Helvetica,sans-Serif" font-size="10.00">dunedaq::readoutlibs</text>
<text text-anchor="middle" x="299.62" y="-59.75" font-family="Helvetica,sans-Serif" font-size="10.00">::RecorderModel&lt; ReadoutType &gt;</text>
</a>
</g>
</g>
<!-- Node2 -->
<g id="Node000002" class="node">
<title>Node2</title>
<g id="a_Node000002"><a xlink:href="classdunedaq_1_1readoutlibs_1_1RecorderConcept.html" target="_top" xlink:title=" ">
<polygon fill="white" stroke="#666666" points="104.5,-138.5 0,-138.5 0,-108 104.5,-108 104.5,-138.5"/>
<text text-anchor="start" x="8" y="-125" font-family="Helvetica,sans-Serif" font-size="10.00">dunedaq::readoutlibs</text>
<text text-anchor="middle" x="52.25" y="-113.75" font-family="Helvetica,sans-Serif" font-size="10.00">::RecorderConcept</text>
</a>
</g>
</g>
<!-- Node2&#45;&gt;Node1 -->
<g id="edge1_Node000001_Node000002" class="edge">
<title>Node2&#45;&gt;Node1</title>
<g id="a_edge1_Node000001_Node000002"><a xlink:title=" ">
<path fill="none" stroke="#63b8ff" d="M116.18,-109.4C150.16,-101.92 192.24,-92.66 227.41,-84.92"/>
<polygon fill="#63b8ff" stroke="#63b8ff" points="115.48,-105.97 106.47,-111.54 116.98,-112.81 115.48,-105.97"/>
</a>
</g>
</g>
<!-- Node3 -->
<g id="Node000003" class="node">
<title>Node3</title>
<g id="a_Node000003"><a xlink:href="classdunedaq_1_1readoutlibs_1_1BufferedFileWriter.html" target="_top" xlink:title=" ">
<polygon fill="white" stroke="#666666" points="104.5,-90.12 0,-90.12 0,-48.38 104.5,-48.38 104.5,-90.12"/>
<text text-anchor="start" x="8" y="-76.62" font-family="Helvetica,sans-Serif" font-size="10.00">dunedaq::readoutlibs</text>
<text text-anchor="start" x="8" y="-65.38" font-family="Helvetica,sans-Serif" font-size="10.00">::BufferedFileWriter</text>
<text text-anchor="middle" x="52.25" y="-54.12" font-family="Helvetica,sans-Serif" font-size="10.00">&lt; Alignment &gt;</text>
</a>
</g>
</g>
<!-- Node3&#45;&gt;Node1 -->
<g id="edge2_Node000001_Node000003" class="edge">
<title>Node3&#45;&gt;Node1</title>
<g id="a_edge2_Node000001_Node000003"><a xlink:title=" ">
<path fill="none" stroke="#9a32cd" stroke-dasharray="5,2" d="M116.28,-69.25C147.85,-69.25 186.39,-69.25 219.89,-69.25"/>
<polygon fill="#9a32cd" stroke="#9a32cd" points="116.5,-65.75 106.5,-69.25 116.5,-72.75 116.5,-65.75"/>
</a>
</g>
<text text-anchor="middle" x="162.25" y="-71" font-family="Helvetica,sans-Serif" font-size="10.00" fill="grey"> m_buffered_writer</text>
</g>
<!-- Node4 -->
<g id="Node000004" class="node">
<title>Node4</title>
<g id="a_Node000004"><a xlink:href="classdunedaq_1_1readoutlibs_1_1ReusableThread.html" target="_top" xlink:title=" ">
<polygon fill="white" stroke="#666666" points="104.5,-30.5 0,-30.5 0,0 104.5,0 104.5,-30.5"/>
<text text-anchor="start" x="8" y="-17" font-family="Helvetica,sans-Serif" font-size="10.00">dunedaq::readoutlibs</text>
<text text-anchor="middle" x="52.25" y="-5.75" font-family="Helvetica,sans-Serif" font-size="10.00">::ReusableThread</text>
</a>
</g>
</g>
<!-- Node4&#45;&gt;Node1 -->
<g id="edge3_Node000001_Node000004" class="edge">
<title>Node4&#45;&gt;Node1</title>
<g id="a_edge3_Node000001_Node000004"><a xlink:title=" ">
<path fill="none" stroke="#9a32cd" stroke-dasharray="5,2" d="M116.18,-29.1C150.16,-36.58 192.24,-45.84 227.41,-53.58"/>
<polygon fill="#9a32cd" stroke="#9a32cd" points="116.98,-25.69 106.47,-26.96 115.48,-32.53 116.98,-25.69"/>
</a>
</g>
<text text-anchor="middle" x="162.25" y="-48" font-family="Helvetica,sans-Serif" font-size="10.00" fill="grey"> m_work_thread</text>
</g>
</g>
</svg>
