<?xml version="1.0" encoding="UTF-8" standalone="no"?>
<!DOCTYPE svg PUBLIC "-//W3C//DTD SVG 1.1//EN"
 "http://www.w3.org/Graphics/SVG/1.1/DTD/svg11.dtd">
<!-- Generated by graphviz version 9.0.0 (20230911.1827)
 -->
<!-- Title: dunedaq::appdal::TCAlgorithm Pages: 1 -->
<svg width="685pt" height="136pt"
 viewBox="0.00 0.00 684.75 135.88" xmlns="http://www.w3.org/2000/svg" xmlns:xlink="http://www.w3.org/1999/xlink">
<g id="graph0" class="graph" transform="scale(1 1) rotate(0) translate(4 131.88)">
<title>dunedaq::appdal::TCAlgorithm</title>
<!-- Node1 -->
<g id="Node000001" class="node">
<title>Node1</title>
<g id="a_Node000001"><a xlink:title=" ">
<polygon fill="#999999" stroke="#666666" points="486.75,-78.88 342.5,-78.88 342.5,-59.62 486.75,-59.62 486.75,-78.88"/>
<text text-anchor="middle" x="414.62" y="-65.38" font-family="Helvetica,sans-Serif" font-size="10.00">dunedaq::appdal::TCAlgorithm</text>
</a>
</g>
</g>
<!-- Node4 -->
<g id="Node000004" class="node">
<title>Node4</title>
<g id="a_Node000004"><a xlink:href="classdunedaq_1_1appdal_1_1TCCustom.html" target="_top" xlink:title=" ">
<polygon fill="white" stroke="#666666" points="668.12,-127.88 531.38,-127.88 531.38,-108.62 668.12,-108.62 668.12,-127.88"/>
<text text-anchor="middle" x="599.75" y="-114.38" font-family="Helvetica,sans-Serif" font-size="10.00">dunedaq::appdal::TCCustom</text>
</a>
</g>
</g>
<!-- Node1&#45;&gt;Node4 -->
<g id="edge5_Node000001_Node000004" class="edge">
<title>Node1&#45;&gt;Node4</title>
<g id="a_edge5_Node000001_Node000004"><a xlink:title=" ">
<path fill="none" stroke="#63b8ff" d="M493.24,-82.34C503.16,-85 513.19,-87.72 522.75,-90.25 544.31,-95.96 569.44,-102.15 584.71,-108.23"/>
<polygon fill="#63b8ff" stroke="#63b8ff" points="494.15,-78.95 483.58,-79.76 492.34,-85.72 494.15,-78.95"/>
</a>
</g>
</g>
<!-- Node1&#45;&gt;Node4 -->
<g id="edge6_Node000001_Node000004" class="edge">
<title>Node1&#45;&gt;Node4</title>
<g id="a_edge6_Node000001_Node000004"><a xlink:title=" ">
<path fill="none" stroke="#63b8ff" d="M440.36,-83.52C462.04,-91.6 494.42,-100.74 522.75,-108.25 525.51,-108.98 528.33,-109.72 531.18,-110.46"/>
<polygon fill="#63b8ff" stroke="#63b8ff" points="441.79,-80.32 431.2,-79.84 439.18,-86.81 441.79,-80.32"/>
</a>
</g>
</g>
<!-- Node5 -->
<g id="Node000005" class="node">
<title>Node5</title>
<g id="a_Node000005"><a xlink:href="classdunedaq_1_1appdal_1_1TriggerCandidateMakerHorizontalMuonPlugin.html" target="_top" xlink:title=" ">
<polygon fill="white" stroke="#666666" points="676.75,-90.12 522.75,-90.12 522.75,-48.38 676.75,-48.38 676.75,-90.12"/>
<text text-anchor="start" x="530.75" y="-76.62" font-family="Helvetica,sans-Serif" font-size="10.00">dunedaq::appdal::Trigger</text>
<text text-anchor="start" x="530.75" y="-65.38" font-family="Helvetica,sans-Serif" font-size="10.00">CandidateMakerHorizontalMuon</text>
<text text-anchor="middle" x="599.75" y="-54.12" font-family="Helvetica,sans-Serif" font-size="10.00">Plugin</text>
</a>
</g>
</g>
<!-- Node1&#45;&gt;Node5 -->
<g id="edge7_Node000001_Node000005" class="edge">
<title>Node1&#45;&gt;Node5</title>
<g id="a_edge7_Node000001_Node000005"><a xlink:title=" ">
<path fill="none" stroke="#63b8ff" d="M498.68,-62.53C506.58,-62.48 514.55,-62.5 522.37,-62.58"/>
<polygon fill="#63b8ff" stroke="#63b8ff" points="498.69,-59.03 488.73,-62.63 498.76,-66.03 498.69,-59.03"/>
</a>
</g>
</g>
<!-- Node1&#45;&gt;Node5 -->
<g id="edge8_Node000001_Node000005" class="edge">
<title>Node1&#45;&gt;Node5</title>
<g id="a_edge8_Node000001_Node000005"><a xlink:title=" ">
<path fill="none" stroke="#63b8ff" d="M498.68,-75.97C506.58,-76.02 514.55,-76 522.37,-75.92"/>
<polygon fill="#63b8ff" stroke="#63b8ff" points="498.76,-72.47 488.73,-75.87 498.69,-79.47 498.76,-72.47"/>
</a>
</g>
</g>
<!-- Node6 -->
<g id="Node000006" class="node">
<title>Node6</title>
<g id="a_Node000006"><a xlink:href="classdunedaq_1_1appdal_1_1TriggerCandidateMakerPrescalePlugin.html" target="_top" xlink:title=" ">
<polygon fill="white" stroke="#666666" points="675.62,-30.5 523.88,-30.5 523.88,0 675.62,0 675.62,-30.5"/>
<text text-anchor="start" x="531.88" y="-17" font-family="Helvetica,sans-Serif" font-size="10.00">dunedaq::appdal::Trigger</text>
<text text-anchor="middle" x="599.75" y="-5.75" font-family="Helvetica,sans-Serif" font-size="10.00">CandidateMakerPrescalePlugin</text>
</a>
</g>
</g>
<!-- Node1&#45;&gt;Node6 -->
<g id="edge9_Node000001_Node000006" class="edge">
<title>Node1&#45;&gt;Node6</title>
<g id="a_edge9_Node000001_Node000006"><a xlink:title=" ">
<path fill="none" stroke="#63b8ff" d="M445.45,-55.31C466.66,-47.72 496.15,-38.52 523.6,-30.76"/>
<polygon fill="#63b8ff" stroke="#63b8ff" points="444.46,-51.95 436.3,-58.71 446.89,-58.51 444.46,-51.95"/>
</a>
</g>
</g>
<!-- Node1&#45;&gt;Node6 -->
<g id="edge10_Node000001_Node000006" class="edge">
<title>Node1&#45;&gt;Node6</title>
<g id="a_edge10_Node000001_Node000006"><a xlink:title=" ">
<path fill="none" stroke="#63b8ff" d="M481.92,-56.22C509.68,-48.56 540.81,-39.02 563.95,-30.94"/>
<polygon fill="#63b8ff" stroke="#63b8ff" points="481.26,-52.77 472.53,-58.77 483.09,-59.53 481.26,-52.77"/>
</a>
</g>
</g>
<!-- Node2 -->
<g id="Node000002" class="node">
<title>Node2</title>
<g id="a_Node000002"><a xlink:href="classdunedaq_1_1coredal_1_1Jsonable.html" target="_top" xlink:title=" ">
<polygon fill="white" stroke="#666666" points="306.5,-78.88 174.25,-78.88 174.25,-59.62 306.5,-59.62 306.5,-78.88"/>
<text text-anchor="middle" x="240.38" y="-65.38" font-family="Helvetica,sans-Serif" font-size="10.00">dunedaq::coredal::Jsonable</text>
</a>
</g>
</g>
<!-- Node2&#45;&gt;Node1 -->
<g id="edge1_Node000001_Node000002" class="edge">
<title>Node2&#45;&gt;Node1</title>
<g id="a_edge1_Node000001_Node000002"><a xlink:title=" ">
<path fill="none" stroke="#63b8ff" d="M318.45,-62.53C326.34,-62.48 334.34,-62.49 342.17,-62.59"/>
<polygon fill="#63b8ff" stroke="#63b8ff" points="318.46,-59.03 308.5,-62.65 318.54,-66.03 318.46,-59.03"/>
</a>
</g>
</g>
<!-- Node2&#45;&gt;Node1 -->
<g id="edge4_Node000001_Node000002" class="edge">
<title>Node2&#45;&gt;Node1</title>
<g id="a_edge4_Node000001_Node000002"><a xlink:title=" ">
<path fill="none" stroke="#63b8ff" d="M318.45,-75.97C326.34,-76.02 334.34,-76.01 342.17,-75.91"/>
<polygon fill="#63b8ff" stroke="#63b8ff" points="318.54,-72.47 308.5,-75.85 318.46,-79.47 318.54,-72.47"/>
</a>
</g>
</g>
<!-- Node3 -->
<g id="Node000003" class="node">
<title>Node3</title>
<g id="a_Node000003"><a xlink:href="classdunedaq_1_1conffwk_1_1DalObject.html" target="_top" xlink:title="The base class for any generated DAL object.">
<polygon fill="white" stroke="#666666" points="138.25,-78.88 0,-78.88 0,-59.62 138.25,-59.62 138.25,-78.88"/>
<text text-anchor="middle" x="69.12" y="-65.38" font-family="Helvetica,sans-Serif" font-size="10.00">dunedaq::conffwk::DalObject</text>
</a>
</g>
</g>
<!-- Node3&#45;&gt;Node2 -->
<g id="edge2_Node000002_Node000003" class="edge">
<title>Node3&#45;&gt;Node2</title>
<g id="a_edge2_Node000002_Node000003"><a xlink:title=" ">
<path fill="none" stroke="#63b8ff" d="M149.78,-62.51C157.82,-62.48 165.92,-62.52 173.79,-62.65"/>
<polygon fill="#63b8ff" stroke="#63b8ff" points="149.96,-59.01 139.99,-62.6 150.02,-66.01 149.96,-59.01"/>
</a>
</g>
</g>
<!-- Node3&#45;&gt;Node2 -->
<g id="edge3_Node000002_Node000003" class="edge">
<title>Node3&#45;&gt;Node2</title>
<g id="a_edge3_Node000002_Node000003"><a xlink:title=" ">
<path fill="none" stroke="#63b8ff" d="M149.78,-75.99C157.82,-76.02 165.92,-75.98 173.79,-75.85"/>
<polygon fill="#63b8ff" stroke="#63b8ff" points="150.02,-72.49 139.99,-75.9 149.96,-79.49 150.02,-72.49"/>
</a>
</g>
</g>
</g>
</svg>
