<?xml version="1.0" encoding="UTF-8" standalone="no"?>
<!DOCTYPE svg PUBLIC "-//W3C//DTD SVG 1.1//EN"
 "http://www.w3.org/Graphics/SVG/1.1/DTD/svg11.dtd">
<!-- Generated by graphviz version 9.0.0 (20230911.1827)
 -->
<!-- Title: dunedaq::appdal::DFApplication Pages: 1 -->
<svg width="2642pt" height="473pt"
 viewBox="0.00 0.00 2641.50 472.94" xmlns="http://www.w3.org/2000/svg" xmlns:xlink="http://www.w3.org/1999/xlink">
<g id="graph0" class="graph" transform="scale(1 1) rotate(0) translate(4 468.94)">
<title>dunedaq::appdal::DFApplication</title>
<!-- Node1 -->
<g id="Node000001" class="node">
<title>Node1</title>
<g id="a_Node000001"><a xlink:title=" ">
<polygon fill="#999999" stroke="#666666" points="2633.5,-266.25 2482.5,-266.25 2482.5,-247 2633.5,-247 2633.5,-266.25"/>
<text text-anchor="middle" x="2558" y="-252.75" font-family="Helvetica,sans-Serif" font-size="10.00">dunedaq::appdal::DFApplication</text>
</a>
</g>
</g>
<!-- Node2 -->
<g id="Node000002" class="node">
<title>Node2</title>
<g id="a_Node000002"><a xlink:href="classdunedaq_1_1appdal_1_1SmartDaqApplication.html" target="_top" xlink:title=" ">
<polygon fill="white" stroke="#666666" points="2445.5,-314.88 2311.75,-314.88 2311.75,-284.38 2445.5,-284.38 2445.5,-314.88"/>
<text text-anchor="start" x="2319.75" y="-301.38" font-family="Helvetica,sans-Serif" font-size="10.00">dunedaq::appdal::SmartDaq</text>
<text text-anchor="middle" x="2378.62" y="-290.12" font-family="Helvetica,sans-Serif" font-size="10.00">Application</text>
</a>
</g>
</g>
<!-- Node2&#45;&gt;Node1 -->
<g id="edge1_Node000001_Node000002" class="edge">
<title>Node2&#45;&gt;Node1</title>
<g id="a_edge1_Node000001_Node000002"><a xlink:title=" ">
<path fill="none" stroke="#63b8ff" d="M2431.35,-280.89C2449.16,-276.01 2469.39,-270.97 2488.33,-266.68"/>
<polygon fill="#63b8ff" stroke="#63b8ff" points="2430.46,-277.5 2421.78,-283.57 2432.35,-284.24 2430.46,-277.5"/>
</a>
</g>
</g>
<!-- Node2&#45;&gt;Node1 -->
<g id="edge31_Node000001_Node000002" class="edge">
<title>Node2&#45;&gt;Node1</title>
<g id="a_edge31_Node000001_Node000002"><a xlink:title=" ">
<path fill="none" stroke="#63b8ff" d="M2457.06,-287.55C2485.3,-280.95 2515.09,-273.05 2534.72,-266.68"/>
<polygon fill="#63b8ff" stroke="#63b8ff" points="2456.37,-284.12 2447.4,-289.77 2457.93,-290.95 2456.37,-284.12"/>
</a>
</g>
</g>
<!-- Node3 -->
<g id="Node000003" class="node">
<title>Node3</title>
<g id="a_Node000003"><a xlink:href="classdunedaq_1_1coredal_1_1Application.html" target="_top" xlink:title=" ">
<polygon fill="white" stroke="#666666" points="2267.25,-387.25 2126,-387.25 2126,-368 2267.25,-368 2267.25,-387.25"/>
<text text-anchor="middle" x="2196.62" y="-373.75" font-family="Helvetica,sans-Serif" font-size="10.00">dunedaq::coredal::Application</text>
</a>
</g>
</g>
<!-- Node3&#45;&gt;Node2 -->
<g id="edge2_Node000002_Node000003" class="edge">
<title>Node3&#45;&gt;Node2</title>
<g id="a_edge2_Node000002_Node000003"><a xlink:title=" ">
<path fill="none" stroke="#63b8ff" d="M2221.82,-362.36C2248.74,-348.64 2292.99,-329.02 2327.46,-315.24"/>
<polygon fill="#63b8ff" stroke="#63b8ff" points="2220.31,-359.2 2213.09,-366.96 2223.57,-365.39 2220.31,-359.2"/>
</a>
</g>
</g>
<!-- Node3&#45;&gt;Node2 -->
<g id="edge27_Node000002_Node000003" class="edge">
<title>Node3&#45;&gt;Node2</title>
<g id="a_edge27_Node000002_Node000003"><a xlink:title=" ">
<path fill="none" stroke="#63b8ff" d="M2243.98,-363.53C2278.63,-349.82 2324.68,-329.48 2352.69,-315.27"/>
<polygon fill="#63b8ff" stroke="#63b8ff" points="2243.08,-360.12 2235.03,-367.01 2245.62,-366.64 2243.08,-360.12"/>
</a>
</g>
</g>
<!-- Node4 -->
<g id="Node000004" class="node">
<title>Node4</title>
<g id="a_Node000004"><a xlink:href="classdunedaq_1_1conffwk_1_1DalObject.html" target="_top" xlink:title="The base class for any generated DAL object.">
<polygon fill="white" stroke="#666666" points="1509.5,-236.25 1371.25,-236.25 1371.25,-217 1509.5,-217 1509.5,-236.25"/>
<text text-anchor="middle" x="1440.38" y="-222.75" font-family="Helvetica,sans-Serif" font-size="10.00">dunedaq::conffwk::DalObject</text>
</a>
</g>
</g>
<!-- Node4&#45;&gt;Node3 -->
<g id="edge3_Node000003_Node000004" class="edge">
<title>Node4&#45;&gt;Node3</title>
<g id="a_edge3_Node000003_Node000004"><a xlink:title=" ">
<path fill="none" stroke="#63b8ff" d="M1449.82,-246.85C1463.53,-281.39 1494.46,-350.16 1546.5,-382.62 1745.67,-506.87 2050.35,-419.71 2157.09,-387.72"/>
<polygon fill="#63b8ff" stroke="#63b8ff" points="1453.25,-246.02 1446.37,-237.96 1446.73,-248.55 1453.25,-246.02"/>
</a>
</g>
</g>
<!-- Node4&#45;&gt;Node3 -->
<g id="edge20_Node000003_Node000004" class="edge">
<title>Node4&#45;&gt;Node3</title>
<g id="a_edge20_Node000003_Node000004"><a xlink:title=" ">
<path fill="none" stroke="#63b8ff" d="M1446.24,-247.25C1457.59,-285.38 1489.29,-364.94 1546.5,-400.62 1760.25,-533.97 2095.54,-423.81 2177.23,-387.7"/>
<polygon fill="#63b8ff" stroke="#63b8ff" points="1449.7,-246.61 1443.67,-237.9 1442.95,-248.47 1449.7,-246.61"/>
</a>
</g>
</g>
<!-- Node19 -->
<g id="Node000019" class="node">
<title>Node19</title>
<g id="a_Node000019"><a xlink:href="classdunedaq_1_1coredal_1_1VirtualHost.html" target="_top" xlink:title=" ">
<polygon fill="white" stroke="#666666" points="1977.5,-387.25 1835.5,-387.25 1835.5,-368 1977.5,-368 1977.5,-387.25"/>
<text text-anchor="middle" x="1906.5" y="-373.75" font-family="Helvetica,sans-Serif" font-size="10.00">dunedaq::coredal::VirtualHost</text>
</a>
</g>
</g>
<!-- Node4&#45;&gt;Node19 -->
<g id="edge22_Node000019_Node000004" class="edge">
<title>Node4&#45;&gt;Node19</title>
<g id="a_edge22_Node000019_Node000004"><a xlink:title=" ">
<path fill="none" stroke="#63b8ff" d="M1455,-245.9C1472.07,-272.6 1504.29,-319.14 1546.5,-340.62 1637.88,-387.12 1759.51,-385.54 1835.13,-380.76"/>
<polygon fill="#63b8ff" stroke="#63b8ff" points="1458.12,-244.28 1449.82,-237.7 1452.21,-248.02 1458.12,-244.28"/>
</a>
</g>
</g>
<!-- Node4&#45;&gt;Node19 -->
<g id="edge23_Node000019_Node000004" class="edge">
<title>Node4&#45;&gt;Node19</title>
<g id="a_edge23_Node000019_Node000004"><a xlink:title=" ">
<path fill="none" stroke="#63b8ff" d="M1449.1,-247.12C1463.83,-278.01 1498.77,-334.34 1546.5,-358.62 1655.98,-414.34 1808.91,-401.02 1874.08,-387.75"/>
<polygon fill="#63b8ff" stroke="#63b8ff" points="1452.32,-245.75 1445.07,-238.02 1445.92,-248.58 1452.32,-245.75"/>
</a>
</g>
</g>
<!-- Node20 -->
<g id="Node000020" class="node">
<title>Node20</title>
<g id="a_Node000020"><a xlink:href="classdunedaq_1_1coredal_1_1PhysicalHost.html" target="_top" xlink:title=" ">
<polygon fill="white" stroke="#666666" points="1697.5,-340.25 1546.5,-340.25 1546.5,-321 1697.5,-321 1697.5,-340.25"/>
<text text-anchor="middle" x="1622" y="-326.75" font-family="Helvetica,sans-Serif" font-size="10.00">dunedaq::coredal::PhysicalHost</text>
</a>
</g>
</g>
<!-- Node4&#45;&gt;Node20 -->
<g id="edge25_Node000020_Node000004" class="edge">
<title>Node4&#45;&gt;Node20</title>
<g id="a_edge25_Node000020_Node000004"><a xlink:title=" ">
<path fill="none" stroke="#63b8ff" d="M1464.92,-243.97C1484.88,-261.67 1515.19,-288.06 1546.5,-303.62 1563.3,-311.98 1584.19,-316.59 1599.58,-320.55"/>
<polygon fill="#63b8ff" stroke="#63b8ff" points="1467.44,-241.53 1457.64,-237.52 1462.8,-246.77 1467.44,-241.53"/>
</a>
</g>
</g>
<!-- Node4&#45;&gt;Node20 -->
<g id="edge26_Node000020_Node000004" class="edge">
<title>Node4&#45;&gt;Node20</title>
<g id="a_edge26_Node000020_Node000004"><a xlink:title=" ">
<path fill="none" stroke="#63b8ff" d="M1453.51,-245.6C1471.77,-267.7 1508.25,-302.53 1546.24,-321.5"/>
<polygon fill="#63b8ff" stroke="#63b8ff" points="1456.46,-243.7 1447.58,-237.92 1450.92,-247.98 1456.46,-243.7"/>
</a>
</g>
</g>
<!-- Node21 -->
<g id="Node000021" class="node">
<title>Node21</title>
<g id="a_Node000021"><a xlink:href="classdunedaq_1_1appdal_1_1SourceIDConf.html" target="_top" xlink:title=" ">
<polygon fill="white" stroke="#666666" points="1697.5,-303.25 1546.5,-303.25 1546.5,-284 1697.5,-284 1697.5,-303.25"/>
<text text-anchor="middle" x="1622" y="-289.75" font-family="Helvetica,sans-Serif" font-size="10.00">dunedaq::appdal::SourceIDConf</text>
</a>
</g>
</g>
<!-- Node4&#45;&gt;Node21 -->
<g id="edge29_Node000021_Node000004" class="edge">
<title>Node4&#45;&gt;Node21</title>
<g id="a_edge29_Node000021_Node000004"><a xlink:title=" ">
<path fill="none" stroke="#63b8ff" d="M1485.66,-241.33C1504.12,-249.63 1526,-259.45 1546.5,-266.62 1565.84,-273.39 1588.87,-278.53 1604.16,-283.51"/>
<polygon fill="#63b8ff" stroke="#63b8ff" points="1487.16,-238.17 1476.6,-237.27 1484.3,-244.56 1487.16,-238.17"/>
</a>
</g>
</g>
<!-- Node4&#45;&gt;Node21 -->
<g id="edge30_Node000021_Node000004" class="edge">
<title>Node4&#45;&gt;Node21</title>
<g id="a_edge30_Node000021_Node000004"><a xlink:title=" ">
<path fill="none" stroke="#63b8ff" d="M1459.78,-243.15C1480.31,-256.34 1514.76,-273.47 1546.07,-284.47"/>
<polygon fill="#63b8ff" stroke="#63b8ff" points="1461.86,-240.34 1451.64,-237.53 1457.88,-246.1 1461.86,-240.34"/>
</a>
</g>
</g>
<!-- Node22 -->
<g id="Node000022" class="node">
<title>Node22</title>
<g id="a_Node000022"><a xlink:href="classdunedaq_1_1appdal_1_1TRBConf.html" target="_top" xlink:title=" ">
<polygon fill="white" stroke="#666666" points="1687,-266.25 1557,-266.25 1557,-247 1687,-247 1687,-266.25"/>
<text text-anchor="middle" x="1622" y="-252.75" font-family="Helvetica,sans-Serif" font-size="10.00">dunedaq::appdal::TRBConf</text>
</a>
</g>
</g>
<!-- Node4&#45;&gt;Node22 -->
<g id="edge33_Node000022_Node000004" class="edge">
<title>Node4&#45;&gt;Node22</title>
<g id="a_edge33_Node000022_Node000004"><a xlink:title=" ">
<path fill="none" stroke="#63b8ff" d="M1520.89,-233.19C1546.09,-237.21 1572.39,-242.12 1591.7,-246.59"/>
<polygon fill="#63b8ff" stroke="#63b8ff" points="1521.71,-229.78 1511.29,-231.71 1520.64,-236.7 1521.71,-229.78"/>
</a>
</g>
</g>
<!-- Node4&#45;&gt;Node22 -->
<g id="edge34_Node000022_Node000004" class="edge">
<title>Node4&#45;&gt;Node22</title>
<g id="a_edge34_Node000022_Node000004"><a xlink:title=" ">
<path fill="none" stroke="#63b8ff" d="M1481.99,-239.16C1504.01,-243.83 1531.73,-248.71 1556.62,-252.38"/>
<polygon fill="#63b8ff" stroke="#63b8ff" points="1483.03,-235.81 1472.51,-237.07 1481.53,-242.64 1483.03,-235.81"/>
</a>
</g>
</g>
<!-- Node23 -->
<g id="Node000023" class="node">
<title>Node23</title>
<g id="a_Node000023"><a xlink:href="classdunedaq_1_1appdal_1_1DataWriterConf.html" target="_top" xlink:title=" ">
<polygon fill="white" stroke="#666666" points="2274.75,-219.25 2118.5,-219.25 2118.5,-200 2274.75,-200 2274.75,-219.25"/>
<text text-anchor="middle" x="2196.62" y="-205.75" font-family="Helvetica,sans-Serif" font-size="10.00">dunedaq::appdal::DataWriterConf</text>
</a>
</g>
</g>
<!-- Node4&#45;&gt;Node23 -->
<g id="edge36_Node000023_Node000004" class="edge">
<title>Node4&#45;&gt;Node23</title>
<g id="a_edge36_Node000023_Node000004"><a xlink:title=" ">
<path fill="none" stroke="#63b8ff" d="M1521.46,-220.46C1667.26,-213.97 1974.22,-207.07 2118.11,-207.07"/>
<polygon fill="#63b8ff" stroke="#63b8ff" points="1521.32,-216.97 1511.49,-220.92 1521.64,-223.96 1521.32,-216.97"/>
</a>
</g>
</g>
<!-- Node4&#45;&gt;Node23 -->
<g id="edge37_Node000023_Node000004" class="edge">
<title>Node4&#45;&gt;Node23</title>
<g id="a_edge37_Node000023_Node000004"><a xlink:title=" ">
<path fill="none" stroke="#63b8ff" d="M1521.46,-229.18C1667.26,-229.1 1974.22,-222.16 2118.11,-215.67"/>
<polygon fill="#63b8ff" stroke="#63b8ff" points="1521.49,-225.68 1511.49,-229.17 1521.48,-232.68 1521.49,-225.68"/>
</a>
</g>
</g>
<!-- Node24 -->
<g id="Node000024" class="node">
<title>Node24</title>
<g id="a_Node000024"><a xlink:href="classdunedaq_1_1appdal_1_1DataStoreConf.html" target="_top" xlink:title=" ">
<polygon fill="white" stroke="#666666" points="1983.5,-163.25 1829.5,-163.25 1829.5,-144 1983.5,-144 1983.5,-163.25"/>
<text text-anchor="middle" x="1906.5" y="-149.75" font-family="Helvetica,sans-Serif" font-size="10.00">dunedaq::appdal::DataStoreConf</text>
</a>
</g>
</g>
<!-- Node4&#45;&gt;Node24 -->
<g id="edge39_Node000024_Node000004" class="edge">
<title>Node4&#45;&gt;Node24</title>
<g id="a_edge39_Node000024_Node000004"><a xlink:title=" ">
<path fill="none" stroke="#63b8ff" d="M1457.04,-209.49C1473.72,-196.69 1501.29,-181 1527.5,-173.62 1629.03,-145.04 1751.56,-140.88 1829.03,-143.97"/>
<polygon fill="#63b8ff" stroke="#63b8ff" points="1455.13,-206.52 1449.72,-215.63 1459.63,-211.88 1455.13,-206.52"/>
</a>
</g>
</g>
<!-- Node4&#45;&gt;Node24 -->
<g id="edge40_Node000024_Node000004" class="edge">
<title>Node4&#45;&gt;Node24</title>
<g id="a_edge40_Node000024_Node000004"><a xlink:title=" ">
<path fill="none" stroke="#63b8ff" d="M1479.4,-211.53C1493.93,-204.22 1510.98,-196.28 1527.5,-191.62 1629.03,-163.04 1751.56,-158.88 1829.03,-157.56"/>
<polygon fill="#63b8ff" stroke="#63b8ff" points="1477.97,-208.32 1470.65,-215.98 1481.15,-214.56 1477.97,-208.32"/>
</a>
</g>
</g>
<!-- Node25 -->
<g id="Node000025" class="node">
<title>Node25</title>
<g id="a_Node000025"><a xlink:href="classdunedaq_1_1appdal_1_1HDF5FileLayoutParams.html" target="_top" xlink:title=" ">
<polygon fill="white" stroke="#666666" points="1687.75,-116.88 1556.25,-116.88 1556.25,-86.38 1687.75,-86.38 1687.75,-116.88"/>
<text text-anchor="start" x="1564.25" y="-103.38" font-family="Helvetica,sans-Serif" font-size="10.00">dunedaq::appdal::HDF5File</text>
<text text-anchor="middle" x="1622" y="-92.12" font-family="Helvetica,sans-Serif" font-size="10.00">LayoutParams</text>
</a>
</g>
</g>
<!-- Node4&#45;&gt;Node25 -->
<g id="edge42_Node000025_Node000004" class="edge">
<title>Node4&#45;&gt;Node25</title>
<g id="a_edge42_Node000025_Node000004"><a xlink:title=" ">
<path fill="none" stroke="#63b8ff" d="M1450.44,-206.84C1464.52,-183.01 1493.58,-144.48 1527.5,-122.62 1536.24,-116.99 1546.13,-112.34 1556.11,-108.64"/>
<polygon fill="#63b8ff" stroke="#63b8ff" points="1447.53,-204.86 1445.79,-215.31 1453.67,-208.23 1447.53,-204.86"/>
</a>
</g>
</g>
<!-- Node4&#45;&gt;Node25 -->
<g id="edge43_Node000025_Node000004" class="edge">
<title>Node4&#45;&gt;Node25</title>
<g id="a_edge43_Node000025_Node000004"><a xlink:title=" ">
<path fill="none" stroke="#63b8ff" d="M1459.1,-207.63C1474.78,-188.1 1499.49,-158.68 1527.5,-140.62 1544.12,-129.91 1564.88,-122.75 1582.61,-117.28"/>
<polygon fill="#63b8ff" stroke="#63b8ff" points="1456.4,-205.4 1452.89,-215.39 1461.87,-209.77 1456.4,-205.4"/>
</a>
</g>
</g>
<!-- Node26 -->
<g id="Node000026" class="node">
<title>Node26</title>
<g id="a_Node000026"><a xlink:href="classdunedaq_1_1appdal_1_1FilenameParams.html" target="_top" xlink:title=" ">
<polygon fill="white" stroke="#666666" points="1687,-67.88 1557,-67.88 1557,-37.38 1687,-37.38 1687,-67.88"/>
<text text-anchor="start" x="1565" y="-54.38" font-family="Helvetica,sans-Serif" font-size="10.00">dunedaq::appdal::Filename</text>
<text text-anchor="middle" x="1622" y="-43.12" font-family="Helvetica,sans-Serif" font-size="10.00">Params</text>
</a>
</g>
</g>
<!-- Node4&#45;&gt;Node26 -->
<g id="edge45_Node000026_Node000004" class="edge">
<title>Node4&#45;&gt;Node26</title>
<g id="a_edge45_Node000026_Node000004"><a xlink:title=" ">
<path fill="none" stroke="#63b8ff" d="M1448.19,-206.07C1462.23,-172.04 1497.21,-105.33 1546.5,-68.62 1549.67,-66.26 1553.08,-64.11 1556.64,-62.17"/>
<polygon fill="#63b8ff" stroke="#63b8ff" points="1444.99,-204.64 1444.66,-215.23 1451.52,-207.16 1444.99,-204.64"/>
</a>
</g>
</g>
<!-- Node4&#45;&gt;Node26 -->
<g id="edge46_Node000026_Node000004" class="edge">
<title>Node4&#45;&gt;Node26</title>
<g id="a_edge46_Node000026_Node000004"><a xlink:title=" ">
<path fill="none" stroke="#63b8ff" d="M1453.32,-206.68C1469.75,-176.32 1502.4,-119.46 1546.5,-86.62 1557.66,-78.31 1571.76,-72.66 1584.67,-68.29"/>
<polygon fill="#63b8ff" stroke="#63b8ff" points="1450.37,-204.78 1448.72,-215.25 1456.53,-208.09 1450.37,-204.78"/>
</a>
</g>
</g>
<!-- Node27 -->
<g id="Node000027" class="node">
<title>Node27</title>
<g id="a_Node000027"><a xlink:href="classdunedaq_1_1appdal_1_1DFHWConf.html" target="_top" xlink:title=" ">
<polygon fill="white" stroke="#666666" points="1691.88,-19.25 1552.12,-19.25 1552.12,0 1691.88,0 1691.88,-19.25"/>
<text text-anchor="middle" x="1622" y="-5.75" font-family="Helvetica,sans-Serif" font-size="10.00">dunedaq::appdal::DFHWConf</text>
</a>
</g>
</g>
<!-- Node4&#45;&gt;Node27 -->
<g id="edge48_Node000027_Node000004" class="edge">
<title>Node4&#45;&gt;Node27</title>
<g id="a_edge48_Node000027_Node000004"><a xlink:title=" ">
<path fill="none" stroke="#63b8ff" d="M1445.24,-205.58C1455.08,-163.04 1484.81,-68.12 1546.5,-19.62 1548.18,-18.31 1549.94,-17.08 1551.76,-15.93"/>
<polygon fill="#63b8ff" stroke="#63b8ff" points="1441.83,-204.78 1443.17,-215.29 1448.68,-206.24 1441.83,-204.78"/>
</a>
</g>
</g>
<!-- Node4&#45;&gt;Node27 -->
<g id="edge49_Node000027_Node000004" class="edge">
<title>Node4&#45;&gt;Node27</title>
<g id="a_edge49_Node000027_Node000004"><a xlink:title=" ">
<path fill="none" stroke="#63b8ff" d="M1447.84,-206.07C1459.79,-166.87 1489.5,-82.43 1546.5,-37.62 1559.09,-27.73 1576.25,-22.93 1590.92,-19.71"/>
<polygon fill="#63b8ff" stroke="#63b8ff" points="1444.54,-204.86 1445.06,-215.45 1451.26,-206.85 1444.54,-204.86"/>
</a>
</g>
</g>
<!-- Node5 -->
<g id="Node000005" class="node">
<title>Node5</title>
<g id="a_Node000005"><a xlink:href="classdunedaq_1_1conffwk_1_1Configuration.html" target="_top" xlink:title=" ">
<polygon fill="white" stroke="#666666" points="644.5,-237.25 492.75,-237.25 492.75,-218 644.5,-218 644.5,-237.25"/>
<text text-anchor="middle" x="568.62" y="-223.75" font-family="Helvetica,sans-Serif" font-size="10.00">dunedaq::conffwk::Configuration</text>
</a>
</g>
</g>
<!-- Node5&#45;&gt;Node4 -->
<g id="edge4_Node000004_Node000005" class="edge">
<title>Node5&#45;&gt;Node4</title>
<g id="a_edge4_Node000004_Node000005"><a xlink:title=" ">
<path fill="none" stroke="#9a32cd" stroke-dasharray="5,2" d="M656.08,-219.39C708.87,-215.05 777.77,-210.62 839,-210.62 839,-210.62 839,-210.62 1249.5,-210.62 1289.86,-210.62 1334.87,-214.26 1370.94,-218.06"/>
<polygon fill="#9a32cd" stroke="#9a32cd" points="655.91,-215.89 646.24,-220.22 656.49,-222.87 655.91,-215.89"/>
</a>
</g>
<text text-anchor="middle" x="1056.25" y="-212.38" font-family="Helvetica,sans-Serif" font-size="10.00" fill="grey"> p_db</text>
</g>
<!-- Node14 -->
<g id="Node000014" class="node">
<title>Node14</title>
<g id="a_Node000014"><a xlink:href="classdunedaq_1_1conffwk_1_1ConfigurationImpl.html" target="_top" xlink:title="Provides pure virtual interface used by the Configuration class.">
<polygon fill="white" stroke="#666666" points="925.25,-284.25 754.75,-284.25 754.75,-265 925.25,-265 925.25,-284.25"/>
<text text-anchor="middle" x="840" y="-270.75" font-family="Helvetica,sans-Serif" font-size="10.00">dunedaq::conffwk::ConfigurationImpl</text>
</a>
</g>
</g>
<!-- Node5&#45;&gt;Node14 -->
<g id="edge16_Node000014_Node000005" class="edge">
<title>Node5&#45;&gt;Node14</title>
<g id="a_edge16_Node000014_Node000005"><a xlink:title=" ">
<path fill="none" stroke="#9a32cd" stroke-dasharray="5,2" d="M610.1,-241.04C627.25,-246.28 647.56,-251.92 666.25,-255.62 694.81,-261.29 726.38,-265.38 754.64,-268.29"/>
<polygon fill="#9a32cd" stroke="#9a32cd" points="611.36,-237.77 600.77,-238.13 609.27,-244.45 611.36,-237.77"/>
</a>
</g>
<text text-anchor="middle" x="701.5" y="-267.38" font-family="Helvetica,sans-Serif" font-size="10.00" fill="grey"> m_conf</text>
</g>
<!-- Node6 -->
<g id="Node000006" class="node">
<title>Node6</title>
<g id="a_Node000006"><a xlink:href="classdunedaq_1_1conffwk_1_1map.html" target="_top" xlink:title=" ">
<polygon fill="white" stroke="#666666" points="355.88,-291.88 206.38,-291.88 206.38,-261.38 355.88,-261.38 355.88,-291.88"/>
<text text-anchor="start" x="214.38" y="-278.38" font-family="Helvetica,sans-Serif" font-size="10.00">dunedaq::conffwk::map</text>
<text text-anchor="middle" x="281.12" y="-267.12" font-family="Helvetica,sans-Serif" font-size="10.00">&lt; dunedaq::conffwk::class_t * &gt;</text>
</a>
</g>
</g>
<!-- Node6&#45;&gt;Node5 -->
<g id="edge5_Node000005_Node000006" class="edge">
<title>Node6&#45;&gt;Node5</title>
<g id="a_edge5_Node000005_Node000006"><a xlink:title=" ">
<path fill="none" stroke="#9a32cd" stroke-dasharray="5,2" d="M367.37,-268.84C399.95,-265.18 437.35,-260.17 471,-253.62 492.49,-249.45 516.23,-243.08 534.8,-237.7"/>
<polygon fill="#9a32cd" stroke="#9a32cd" points="367.12,-265.34 357.56,-269.91 367.88,-272.3 367.12,-265.34"/>
</a>
</g>
<text text-anchor="start" x="383.25" y="-302.12" font-family="Helvetica,sans-Serif" font-size="10.00" fill="grey"> p_all_classes_desc</text>
<text text-anchor="middle" x="427.12" y="-290.88" font-family="Helvetica,sans-Serif" font-size="10.00" fill="grey">_cache</text>
<text text-anchor="start" x="383.25" y="-279.62" font-family="Helvetica,sans-Serif" font-size="10.00" fill="grey">p_direct_classes</text>
<text text-anchor="middle" x="427.12" y="-268.38" font-family="Helvetica,sans-Serif" font-size="10.00" fill="grey">_desc_cache</text>
</g>
<!-- Node7 -->
<g id="Node000007" class="node">
<title>Node7</title>
<g id="a_Node000007"><a xlink:title=" ">
<polygon fill="white" stroke="#666666" points="134.12,-319.5 25.88,-319.5 25.88,-277.75 134.12,-277.75 134.12,-319.5"/>
<text text-anchor="start" x="33.88" y="-306" font-family="Helvetica,sans-Serif" font-size="10.00">std::unordered_map</text>
<text text-anchor="start" x="33.88" y="-294.75" font-family="Helvetica,sans-Serif" font-size="10.00">&lt; std::string, dunedaq</text>
<text text-anchor="middle" x="80" y="-283.5" font-family="Helvetica,sans-Serif" font-size="10.00">::conffwk::class_t * &gt;</text>
</a>
</g>
</g>
<!-- Node7&#45;&gt;Node6 -->
<g id="edge6_Node000006_Node000007" class="edge">
<title>Node7&#45;&gt;Node6</title>
<g id="a_edge6_Node000006_Node000007"><a xlink:title=" ">
<path fill="none" stroke="#63b8ff" d="M146.01,-291.44C165.25,-289.32 186.45,-286.97 206.21,-284.79"/>
<polygon fill="#63b8ff" stroke="#63b8ff" points="145.68,-287.96 136.13,-292.53 146.45,-294.91 145.68,-287.96"/>
</a>
</g>
</g>
<!-- Node8 -->
<g id="Node000008" class="node">
<title>Node8</title>
<g id="a_Node000008"><a xlink:href="classdunedaq_1_1conffwk_1_1fmap.html" target="_top" xlink:title=" ">
<polygon fill="white" stroke="#666666" points="339.75,-242.88 222.5,-242.88 222.5,-212.38 339.75,-212.38 339.75,-242.88"/>
<text text-anchor="start" x="230.5" y="-229.38" font-family="Helvetica,sans-Serif" font-size="10.00">dunedaq::conffwk::fmap</text>
<text text-anchor="middle" x="281.12" y="-218.12" font-family="Helvetica,sans-Serif" font-size="10.00">&lt; conffwk::fset &gt;</text>
</a>
</g>
</g>
<!-- Node8&#45;&gt;Node5 -->
<g id="edge7_Node000005_Node000008" class="edge">
<title>Node8&#45;&gt;Node5</title>
<g id="a_edge7_Node000005_Node000008"><a xlink:title=" ">
<path fill="none" stroke="#9a32cd" stroke-dasharray="5,2" d="M351.65,-227.62C394.28,-227.62 448.86,-227.62 492.49,-227.62"/>
<polygon fill="#9a32cd" stroke="#9a32cd" points="351.76,-224.13 341.76,-227.63 351.76,-231.13 351.76,-224.13"/>
</a>
</g>
<text text-anchor="middle" x="427.12" y="-240.62" font-family="Helvetica,sans-Serif" font-size="10.00" fill="grey"> p_subclasses</text>
<text text-anchor="middle" x="427.12" y="-229.38" font-family="Helvetica,sans-Serif" font-size="10.00" fill="grey">p_superclasses</text>
</g>
<!-- Node9 -->
<g id="Node000009" class="node">
<title>Node9</title>
<g id="a_Node000009"><a xlink:title=" ">
<polygon fill="white" stroke="#666666" points="136.75,-260.12 23.25,-260.12 23.25,-207.12 136.75,-207.12 136.75,-260.12"/>
<text text-anchor="start" x="31.25" y="-246.62" font-family="Helvetica,sans-Serif" font-size="10.00">std::unordered_map</text>
<text text-anchor="start" x="31.25" y="-235.38" font-family="Helvetica,sans-Serif" font-size="10.00">&lt; const std::string</text>
<text text-anchor="start" x="31.25" y="-224.12" font-family="Helvetica,sans-Serif" font-size="10.00"> *, conffwk::fset , string</text>
<text text-anchor="middle" x="80" y="-212.88" font-family="Helvetica,sans-Serif" font-size="10.00">_ptr_hash &gt;</text>
</a>
</g>
</g>
<!-- Node9&#45;&gt;Node8 -->
<g id="edge8_Node000008_Node000009" class="edge">
<title>Node9&#45;&gt;Node8</title>
<g id="a_edge8_Node000008_Node000009"><a xlink:title=" ">
<path fill="none" stroke="#63b8ff" d="M148.49,-231.59C172.4,-230.87 199.07,-230.07 222.12,-229.37"/>
<polygon fill="#63b8ff" stroke="#63b8ff" points="148.4,-228.09 138.51,-231.89 148.61,-235.09 148.4,-228.09"/>
</a>
</g>
</g>
<!-- Node10 -->
<g id="Node000010" class="node">
<title>Node10</title>
<g id="a_Node000010"><a xlink:href="classdunedaq_1_1conffwk_1_1map.html" target="_top" xlink:title=" ">
<polygon fill="white" stroke="#666666" points="342,-191.75 220.25,-191.75 220.25,-127.5 342,-127.5 342,-191.75"/>
<text text-anchor="start" x="228.25" y="-178.25" font-family="Helvetica,sans-Serif" font-size="10.00">dunedaq::conffwk::map</text>
<text text-anchor="start" x="228.25" y="-167" font-family="Helvetica,sans-Serif" font-size="10.00">&lt; std::list&lt; dunedaq</text>
<text text-anchor="start" x="228.25" y="-155.75" font-family="Helvetica,sans-Serif" font-size="10.00">::conffwk::Configuration</text>
<text text-anchor="start" x="228.25" y="-144.5" font-family="Helvetica,sans-Serif" font-size="10.00">::AttributeConverterBase</text>
<text text-anchor="middle" x="281.12" y="-133.25" font-family="Helvetica,sans-Serif" font-size="10.00"> * &gt; * &gt;</text>
</a>
</g>
</g>
<!-- Node10&#45;&gt;Node5 -->
<g id="edge9_Node000005_Node000010" class="edge">
<title>Node10&#45;&gt;Node5</title>
<g id="a_edge9_Node000005_Node000010"><a xlink:title=" ">
<path fill="none" stroke="#9a32cd" stroke-dasharray="5,2" d="M353.25,-176.56C407.46,-189.48 480.26,-206.82 525.55,-217.6"/>
<polygon fill="#9a32cd" stroke="#9a32cd" points="354.33,-173.23 343.8,-174.31 352.71,-180.04 354.33,-173.23"/>
</a>
</g>
<text text-anchor="middle" x="427.12" y="-205.38" font-family="Helvetica,sans-Serif" font-size="10.00" fill="grey"> m_convert_map</text>
</g>
<!-- Node11 -->
<g id="Node000011" class="node">
<title>Node11</title>
<g id="a_Node000011"><a xlink:title=" ">
<polygon fill="white" stroke="#666666" points="160,-188.75 0,-188.75 0,-124.5 160,-124.5 160,-188.75"/>
<text text-anchor="start" x="8" y="-175.25" font-family="Helvetica,sans-Serif" font-size="10.00">std::unordered_map</text>
<text text-anchor="start" x="8" y="-164" font-family="Helvetica,sans-Serif" font-size="10.00">&lt; std::string, std::</text>
<text text-anchor="start" x="8" y="-152.75" font-family="Helvetica,sans-Serif" font-size="10.00">list&lt; dunedaq::conffwk</text>
<text text-anchor="start" x="8" y="-141.5" font-family="Helvetica,sans-Serif" font-size="10.00">::Configuration::AttributeConverter</text>
<text text-anchor="middle" x="80" y="-130.25" font-family="Helvetica,sans-Serif" font-size="10.00">Base * &gt; * &gt;</text>
</a>
</g>
</g>
<!-- Node11&#45;&gt;Node10 -->
<g id="edge10_Node000010_Node000011" class="edge">
<title>Node11&#45;&gt;Node10</title>
<g id="a_edge10_Node000010_Node000011"><a xlink:title=" ">
<path fill="none" stroke="#63b8ff" d="M171.53,-157.99C187.91,-158.24 204.61,-158.49 219.85,-158.72"/>
<polygon fill="#63b8ff" stroke="#63b8ff" points="171.84,-154.49 161.78,-157.84 171.73,-161.49 171.84,-154.49"/>
</a>
</g>
</g>
<!-- Node12 -->
<g id="Node000012" class="node">
<title>Node12</title>
<g id="a_Node000012"><a xlink:href="classdunedaq_1_1conffwk_1_1fmap.html" target="_top" xlink:title=" ">
<polygon fill="white" stroke="#666666" points="365.25,-101.88 197,-101.88 197,-71.38 365.25,-71.38 365.25,-101.88"/>
<text text-anchor="start" x="205" y="-88.38" font-family="Helvetica,sans-Serif" font-size="10.00">dunedaq::conffwk::fmap</text>
<text text-anchor="middle" x="281.12" y="-77.12" font-family="Helvetica,sans-Serif" font-size="10.00">&lt; dunedaq::conffwk::CacheBase * &gt;</text>
</a>
</g>
</g>
<!-- Node12&#45;&gt;Node5 -->
<g id="edge11_Node000005_Node000012" class="edge">
<title>Node12&#45;&gt;Node5</title>
<g id="a_edge11_Node000005_Node000012"><a xlink:title=" ">
<path fill="none" stroke="#9a32cd" stroke-dasharray="5,2" d="M335.34,-106.39C345.34,-110.3 355.66,-114.48 365.25,-118.62 413.11,-139.28 425.12,-144.61 471,-169.38 500.3,-185.19 533.3,-205.69 552.16,-217.68"/>
<polygon fill="#9a32cd" stroke="#9a32cd" points="336.68,-103.15 326.09,-102.8 334.15,-109.68 336.68,-103.15"/>
</a>
</g>
<text text-anchor="middle" x="427.12" y="-170.38" font-family="Helvetica,sans-Serif" font-size="10.00" fill="grey"> m_cache_map</text>
</g>
<!-- Node13 -->
<g id="Node000013" class="node">
<title>Node13</title>
<g id="a_Node000013"><a xlink:title=" ">
<polygon fill="white" stroke="#666666" points="133,-106.75 27,-106.75 27,-42.5 133,-42.5 133,-106.75"/>
<text text-anchor="start" x="35" y="-93.25" font-family="Helvetica,sans-Serif" font-size="10.00">std::unordered_map</text>
<text text-anchor="start" x="35" y="-82" font-family="Helvetica,sans-Serif" font-size="10.00">&lt; const std::string</text>
<text text-anchor="start" x="35" y="-70.75" font-family="Helvetica,sans-Serif" font-size="10.00"> *, dunedaq::conffwk</text>
<text text-anchor="start" x="35" y="-59.5" font-family="Helvetica,sans-Serif" font-size="10.00">::CacheBase *, string</text>
<text text-anchor="middle" x="80" y="-48.25" font-family="Helvetica,sans-Serif" font-size="10.00">_ptr_hash &gt;</text>
</a>
</g>
</g>
<!-- Node13&#45;&gt;Node12 -->
<g id="edge12_Node000012_Node000013" class="edge">
<title>Node13&#45;&gt;Node12</title>
<g id="a_edge12_Node000012_Node000013"><a xlink:title=" ">
<path fill="none" stroke="#63b8ff" d="M144.51,-78.45C161.06,-79.45 179.16,-80.54 196.58,-81.59"/>
<polygon fill="#63b8ff" stroke="#63b8ff" points="145.02,-74.98 134.83,-77.87 144.6,-81.96 145.02,-74.98"/>
</a>
</g>
</g>
<!-- Node14&#45;&gt;Node5 -->
<g id="edge13_Node000005_Node000014" class="edge">
<title>Node14&#45;&gt;Node5</title>
<g id="a_edge13_Node000005_Node000014"><a xlink:title=" ">
<path fill="none" stroke="#9a32cd" stroke-dasharray="5,2" d="M799.44,-261.04C780.65,-255.07 757.76,-248.5 736.75,-244.38 706.99,-238.54 673.83,-234.68 644.94,-232.15"/>
<polygon fill="#9a32cd" stroke="#9a32cd" points="798.24,-264.32 808.83,-264.08 800.4,-257.67 798.24,-264.32"/>
</a>
</g>
<text text-anchor="middle" x="701.5" y="-245.38" font-family="Helvetica,sans-Serif" font-size="10.00" fill="grey"> m_impl</text>
</g>
<!-- Node18 -->
<g id="Node000018" class="node">
<title>Node18</title>
<g id="a_Node000018"><a xlink:href="classdunedaq_1_1conffwk_1_1ConfigObjectImpl.html" target="_top" xlink:title="Implements database objects.">
<polygon fill="white" stroke="#666666" points="1117.5,-281.88 995,-281.88 995,-251.38 1117.5,-251.38 1117.5,-281.88"/>
<text text-anchor="start" x="1003" y="-268.38" font-family="Helvetica,sans-Serif" font-size="10.00">dunedaq::conffwk::Config</text>
<text text-anchor="middle" x="1056.25" y="-257.12" font-family="Helvetica,sans-Serif" font-size="10.00">ObjectImpl</text>
</a>
</g>
</g>
<!-- Node14&#45;&gt;Node18 -->
<g id="edge19_Node000018_Node000014" class="edge">
<title>Node14&#45;&gt;Node18</title>
<g id="a_edge19_Node000018_Node000014"><a xlink:title=" ">
<path fill="none" stroke="#9a32cd" stroke-dasharray="5,2" d="M937.12,-271.04C956.67,-270.31 976.73,-269.56 994.63,-268.89"/>
<polygon fill="#9a32cd" stroke="#9a32cd" points="937.05,-267.54 927.19,-271.41 937.31,-274.53 937.05,-267.54"/>
</a>
</g>
<text text-anchor="middle" x="960.12" y="-272.38" font-family="Helvetica,sans-Serif" font-size="10.00" fill="grey"> m_impl</text>
</g>
<!-- Node15 -->
<g id="Node000015" class="node">
<title>Node15</title>
<g id="a_Node000015"><a xlink:href="classdunedaq_1_1conffwk_1_1pmap.html" target="_top" xlink:title=" ">
<polygon fill="white" stroke="#666666" points="648.25,-360.12 489,-360.12 489,-307.12 648.25,-307.12 648.25,-360.12"/>
<text text-anchor="start" x="497" y="-346.62" font-family="Helvetica,sans-Serif" font-size="10.00">dunedaq::conffwk::pmap</text>
<text text-anchor="start" x="497" y="-335.38" font-family="Helvetica,sans-Serif" font-size="10.00">&lt; dunedaq::conffwk::map</text>
<text text-anchor="start" x="497" y="-324.12" font-family="Helvetica,sans-Serif" font-size="10.00">&lt; dunedaq::conffwk::ConfigObject</text>
<text text-anchor="middle" x="568.62" y="-312.88" font-family="Helvetica,sans-Serif" font-size="10.00">Impl * &gt; * &gt;</text>
</a>
</g>
</g>
<!-- Node15&#45;&gt;Node14 -->
<g id="edge14_Node000014_Node000015" class="edge">
<title>Node15&#45;&gt;Node14</title>
<g id="a_edge14_Node000014_Node000015"><a xlink:title=" ">
<path fill="none" stroke="#9a32cd" stroke-dasharray="5,2" d="M659.8,-313.87C704.43,-304.1 756.41,-292.71 792.85,-284.73"/>
<polygon fill="#9a32cd" stroke="#9a32cd" points="659.12,-310.44 650.1,-316 660.62,-317.28 659.12,-310.44"/>
</a>
</g>
<text text-anchor="middle" x="701.5" y="-312.38" font-family="Helvetica,sans-Serif" font-size="10.00" fill="grey"> m_impl_objects</text>
</g>
<!-- Node16 -->
<g id="Node000016" class="node">
<title>Node16</title>
<g id="a_Node000016"><a xlink:title=" ">
<polygon fill="white" stroke="#666666" points="348.75,-373.75 213.5,-373.75 213.5,-309.5 348.75,-309.5 348.75,-373.75"/>
<text text-anchor="start" x="221.5" y="-360.25" font-family="Helvetica,sans-Serif" font-size="10.00">std::map&lt; const std</text>
<text text-anchor="start" x="221.5" y="-349" font-family="Helvetica,sans-Serif" font-size="10.00">::string *, dunedaq</text>
<text text-anchor="start" x="221.5" y="-337.75" font-family="Helvetica,sans-Serif" font-size="10.00">::conffwk::map&lt; dunedaq</text>
<text text-anchor="start" x="221.5" y="-326.5" font-family="Helvetica,sans-Serif" font-size="10.00">::conffwk::ConfigObjectImpl</text>
<text text-anchor="middle" x="281.12" y="-315.25" font-family="Helvetica,sans-Serif" font-size="10.00"> * &gt; * , string_ptr_compare &gt;</text>
</a>
</g>
</g>
<!-- Node16&#45;&gt;Node15 -->
<g id="edge15_Node000015_Node000016" class="edge">
<title>Node16&#45;&gt;Node15</title>
<g id="a_edge15_Node000015_Node000016"><a xlink:title=" ">
<path fill="none" stroke="#63b8ff" d="M360.35,-339.43C400.25,-338.31 448.68,-336.96 488.69,-335.84"/>
<polygon fill="#63b8ff" stroke="#63b8ff" points="360.47,-335.93 350.58,-339.71 360.67,-342.93 360.47,-335.93"/>
</a>
</g>
</g>
<!-- Node17 -->
<g id="Node000017" class="node">
<title>Node17</title>
<g id="a_Node000017"><a xlink:href="classdunedaq_1_1conffwk_1_1ConfigObject.html" target="_top" xlink:title="Represents database objects.">
<polygon fill="white" stroke="#666666" points="1309.75,-269.88 1187.25,-269.88 1187.25,-239.38 1309.75,-239.38 1309.75,-269.88"/>
<text text-anchor="start" x="1195.25" y="-256.38" font-family="Helvetica,sans-Serif" font-size="10.00">dunedaq::conffwk::Config</text>
<text text-anchor="middle" x="1248.5" y="-245.12" font-family="Helvetica,sans-Serif" font-size="10.00">Object</text>
</a>
</g>
</g>
<!-- Node17&#45;&gt;Node4 -->
<g id="edge17_Node000004_Node000017" class="edge">
<title>Node17&#45;&gt;Node4</title>
<g id="a_edge17_Node000004_Node000017"><a xlink:title=" ">
<path fill="none" stroke="#9a32cd" stroke-dasharray="5,2" d="M1321.17,-244.06C1337.43,-241.66 1354.65,-239.12 1370.77,-236.74"/>
<polygon fill="#9a32cd" stroke="#9a32cd" points="1320.98,-240.55 1311.6,-245.47 1322,-247.47 1320.98,-240.55"/>
</a>
</g>
<text text-anchor="middle" x="1340.5" y="-243.38" font-family="Helvetica,sans-Serif" font-size="10.00" fill="grey"> p_obj</text>
</g>
<!-- Node18&#45;&gt;Node17 -->
<g id="edge18_Node000017_Node000018" class="edge">
<title>Node18&#45;&gt;Node17</title>
<g id="a_edge18_Node000017_Node000018"><a xlink:title=" ">
<path fill="none" stroke="#9a32cd" stroke-dasharray="5,2" d="M1129.31,-262.08C1148.34,-260.88 1168.68,-259.6 1187.03,-258.44"/>
<polygon fill="#9a32cd" stroke="#9a32cd" points="1129.24,-258.58 1119.48,-262.7 1129.68,-265.56 1129.24,-258.58"/>
</a>
</g>
<text text-anchor="middle" x="1152.38" y="-262.38" font-family="Helvetica,sans-Serif" font-size="10.00" fill="grey"> m_impl</text>
</g>
<!-- Node19&#45;&gt;Node3 -->
<g id="edge21_Node000003_Node000019" class="edge">
<title>Node19&#45;&gt;Node3</title>
<g id="a_edge21_Node000003_Node000019"><a xlink:title=" ">
<path fill="none" stroke="#9a32cd" stroke-dasharray="5,2" d="M1989.3,-377.62C2032.4,-377.62 2084.71,-377.62 2125.87,-377.62"/>
<polygon fill="#9a32cd" stroke="#9a32cd" points="1989.5,-374.13 1979.5,-377.63 1989.5,-381.13 1989.5,-374.13"/>
</a>
</g>
<text text-anchor="middle" x="2051" y="-379.38" font-family="Helvetica,sans-Serif" font-size="10.00" fill="grey"> m_runs_on</text>
</g>
<!-- Node20&#45;&gt;Node19 -->
<g id="edge24_Node000019_Node000020" class="edge">
<title>Node20&#45;&gt;Node19</title>
<g id="a_edge24_Node000019_Node000020"><a xlink:title=" ">
<path fill="none" stroke="#9a32cd" stroke-dasharray="5,2" d="M1709.21,-331.36C1741.57,-332.96 1778.49,-336.39 1811.5,-343.38 1836.99,-348.77 1864.88,-359.6 1883.61,-367.65"/>
<polygon fill="#9a32cd" stroke="#9a32cd" points="1709.63,-327.87 1699.49,-330.93 1709.32,-334.87 1709.63,-327.87"/>
</a>
</g>
<text text-anchor="middle" x="1763.5" y="-344.38" font-family="Helvetica,sans-Serif" font-size="10.00" fill="grey"> m_runs_on</text>
</g>
<!-- Node21&#45;&gt;Node2 -->
<g id="edge28_Node000002_Node000021" class="edge">
<title>Node21&#45;&gt;Node2</title>
<g id="a_edge28_Node000002_Node000021"><a xlink:title=" ">
<path fill="none" stroke="#9a32cd" stroke-dasharray="5,2" d="M1708.88,-294.31C1861.02,-295.52 2174.69,-298.01 2311.45,-299.1"/>
<polygon fill="#9a32cd" stroke="#9a32cd" points="1709.31,-290.81 1699.28,-294.23 1709.25,-297.81 1709.31,-290.81"/>
</a>
</g>
<text text-anchor="middle" x="2051" y="-298.38" font-family="Helvetica,sans-Serif" font-size="10.00" fill="grey"> m_source_id</text>
</g>
<!-- Node22&#45;&gt;Node1 -->
<g id="edge32_Node000001_Node000022" class="edge">
<title>Node22&#45;&gt;Node1</title>
<g id="a_edge32_Node000001_Node000022"><a xlink:title=" ">
<path fill="none" stroke="#9a32cd" stroke-dasharray="5,2" d="M1698.65,-256.62C1755.54,-256.62 1835.41,-256.62 1905.5,-256.62 1905.5,-256.62 1905.5,-256.62 2379.62,-256.62 2413.34,-256.62 2450.67,-256.62 2482.35,-256.62"/>
<polygon fill="#9a32cd" stroke="#9a32cd" points="1698.75,-253.13 1688.75,-256.63 1698.75,-260.13 1698.75,-253.13"/>
</a>
</g>
<text text-anchor="middle" x="2196.62" y="-258.38" font-family="Helvetica,sans-Serif" font-size="10.00" fill="grey"> m_trb</text>
</g>
<!-- Node23&#45;&gt;Node1 -->
<g id="edge35_Node000001_Node000023" class="edge">
<title>Node23&#45;&gt;Node1</title>
<g id="a_edge35_Node000001_Node000023"><a xlink:title=" ">
<path fill="none" stroke="#9a32cd" stroke-dasharray="5,2" d="M2286.46,-214.5C2333.86,-217.84 2393.06,-223.17 2445.5,-231.38 2469.91,-235.19 2496.95,-241.27 2518.29,-246.5"/>
<polygon fill="#9a32cd" stroke="#9a32cd" points="2286.72,-211.01 2276.5,-213.82 2286.24,-217.99 2286.72,-211.01"/>
</a>
</g>
<text text-anchor="middle" x="2378.62" y="-232.38" font-family="Helvetica,sans-Serif" font-size="10.00" fill="grey"> m_data_writer</text>
</g>
<!-- Node24&#45;&gt;Node23 -->
<g id="edge38_Node000023_Node000024" class="edge">
<title>Node24&#45;&gt;Node23</title>
<g id="a_edge38_Node000023_Node000024"><a xlink:title=" ">
<path fill="none" stroke="#9a32cd" stroke-dasharray="5,2" d="M1994.92,-159.13C2028.26,-162.36 2066.42,-167.44 2100.5,-175.38 2125.8,-181.27 2153.64,-191.8 2172.63,-199.63"/>
<polygon fill="#9a32cd" stroke="#9a32cd" points="1995.6,-155.68 1985.32,-158.24 1994.96,-162.65 1995.6,-155.68"/>
</a>
</g>
<text text-anchor="middle" x="2051" y="-176.38" font-family="Helvetica,sans-Serif" font-size="10.00" fill="grey"> m_data_store_params</text>
</g>
<!-- Node25&#45;&gt;Node24 -->
<g id="edge41_Node000024_Node000025" class="edge">
<title>Node25&#45;&gt;Node24</title>
<g id="a_edge41_Node000024_Node000025"><a xlink:title=" ">
<path fill="none" stroke="#9a32cd" stroke-dasharray="5,2" d="M1699.64,-104.4C1734.14,-106.78 1775.2,-111.19 1811.5,-119.38 1836.75,-125.06 1864.45,-135.73 1883.19,-143.66"/>
<polygon fill="#9a32cd" stroke="#9a32cd" points="1699.92,-100.91 1689.71,-103.76 1699.47,-107.89 1699.92,-100.91"/>
</a>
</g>
<text text-anchor="middle" x="1763.5" y="-120.38" font-family="Helvetica,sans-Serif" font-size="10.00" fill="grey"> m_file_layout_params</text>
</g>
<!-- Node26&#45;&gt;Node24 -->
<g id="edge44_Node000024_Node000026" class="edge">
<title>Node26&#45;&gt;Node24</title>
<g id="a_edge44_Node000024_Node000026"><a xlink:title=" ">
<path fill="none" stroke="#9a32cd" stroke-dasharray="5,2" d="M1698.45,-60.79C1733.75,-66.34 1775.78,-75.48 1811.5,-90.38 1844,-103.92 1877.01,-129.45 1893.92,-143.58"/>
<polygon fill="#9a32cd" stroke="#9a32cd" points="1699.15,-57.35 1688.74,-59.33 1698.11,-64.28 1699.15,-57.35"/>
</a>
</g>
<text text-anchor="middle" x="1763.5" y="-92.38" font-family="Helvetica,sans-Serif" font-size="10.00" fill="grey"> m_filename_params</text>
</g>
<!-- Node27&#45;&gt;Node1 -->
<g id="edge47_Node000001_Node000027" class="edge">
<title>Node27&#45;&gt;Node1</title>
<g id="a_edge47_Node000001_Node000027"><a xlink:title=" ">
<path fill="none" stroke="#9a32cd" stroke-dasharray="5,2" d="M1703.73,-12.25C1760.23,-13.86 1837.46,-15.63 1905.5,-15.62 1905.5,-15.62 1905.5,-15.62 2379.62,-15.62 2496.25,-15.62 2544.74,-200.97 2554.9,-246.58"/>
<polygon fill="#9a32cd" stroke="#9a32cd" points="1703.97,-8.76 1693.87,-11.96 1703.77,-15.75 1703.97,-8.76"/>
</a>
</g>
<text text-anchor="middle" x="2196.62" y="-17.38" font-family="Helvetica,sans-Serif" font-size="10.00" fill="grey"> m_uses</text>
</g>
</g>
</svg>
