<?xml version="1.0" encoding="UTF-8" standalone="no"?>
<!DOCTYPE svg PUBLIC "-//W3C//DTD SVG 1.1//EN"
 "http://www.w3.org/Graphics/SVG/1.1/DTD/svg11.dtd">
<!-- Generated by graphviz version 9.0.0 (20230911.1827)
 -->
<!-- Title: dunedaq::coredal::Queue Pages: 1 -->
<svg width="158pt" height="193pt"
 viewBox="0.00 0.00 157.50 193.00" xmlns="http://www.w3.org/2000/svg" xmlns:xlink="http://www.w3.org/1999/xlink">
<g id="graph0" class="graph" transform="scale(1 1) rotate(0) translate(4 189)">
<title>dunedaq::coredal::Queue</title>
<!-- Node1 -->
<g id="Node000001" class="node">
<title>Node1</title>
<g id="a_Node000001"><a xlink:title=" ">
<polygon fill="#999999" stroke="#666666" points="135.62,-74.5 13.87,-74.5 13.87,-55.25 135.62,-55.25 135.62,-74.5"/>
<text text-anchor="middle" x="74.75" y="-61" font-family="Helvetica,sans-Serif" font-size="10.00">dunedaq::coredal::Queue</text>
</a>
</g>
</g>
<!-- Node4 -->
<g id="Node000004" class="node">
<title>Node4</title>
<g id="a_Node000004"><a xlink:href="classdunedaq_1_1coredal_1_1QueueWithId.html" target="_top" xlink:title=" ">
<polygon fill="white" stroke="#666666" points="149.5,-19.25 0,-19.25 0,0 149.5,0 149.5,-19.25"/>
<text text-anchor="middle" x="74.75" y="-5.75" font-family="Helvetica,sans-Serif" font-size="10.00">dunedaq::coredal::QueueWithId</text>
</a>
</g>
</g>
<!-- Node1&#45;&gt;Node4 -->
<g id="edge5_Node000001_Node000004" class="edge">
<title>Node1&#45;&gt;Node4</title>
<g id="a_edge5_Node000001_Node000004"><a xlink:title=" ">
<path fill="none" stroke="#63b8ff" d="M68.19,-43.92C67.7,-35.55 68.15,-26.25 69.54,-19.61"/>
<polygon fill="#63b8ff" stroke="#63b8ff" points="64.69,-44.09 69.4,-53.58 71.63,-43.22 64.69,-44.09"/>
</a>
</g>
</g>
<!-- Node1&#45;&gt;Node4 -->
<g id="edge6_Node000001_Node000004" class="edge">
<title>Node1&#45;&gt;Node4</title>
<g id="a_edge6_Node000001_Node000004"><a xlink:title=" ">
<path fill="none" stroke="#63b8ff" d="M81.31,-43.92C81.8,-35.55 81.35,-26.25 79.96,-19.61"/>
<polygon fill="#63b8ff" stroke="#63b8ff" points="77.87,-43.22 80.1,-53.58 84.81,-44.09 77.87,-43.22"/>
</a>
</g>
</g>
<!-- Node2 -->
<g id="Node000002" class="node">
<title>Node2</title>
<g id="a_Node000002"><a xlink:href="classdunedaq_1_1coredal_1_1Connection.html" target="_top" xlink:title=" ">
<polygon fill="white" stroke="#666666" points="145.75,-129.75 3.75,-129.75 3.75,-110.5 145.75,-110.5 145.75,-129.75"/>
<text text-anchor="middle" x="74.75" y="-116.25" font-family="Helvetica,sans-Serif" font-size="10.00">dunedaq::coredal::Connection</text>
</a>
</g>
</g>
<!-- Node2&#45;&gt;Node1 -->
<g id="edge1_Node000001_Node000002" class="edge">
<title>Node2&#45;&gt;Node1</title>
<g id="a_edge1_Node000001_Node000002"><a xlink:title=" ">
<path fill="none" stroke="#63b8ff" d="M68.19,-99.17C67.7,-90.8 68.15,-81.5 69.54,-74.86"/>
<polygon fill="#63b8ff" stroke="#63b8ff" points="64.69,-99.34 69.4,-108.83 71.63,-98.47 64.69,-99.34"/>
</a>
</g>
</g>
<!-- Node2&#45;&gt;Node1 -->
<g id="edge4_Node000001_Node000002" class="edge">
<title>Node2&#45;&gt;Node1</title>
<g id="a_edge4_Node000001_Node000002"><a xlink:title=" ">
<path fill="none" stroke="#63b8ff" d="M81.31,-99.17C81.8,-90.8 81.35,-81.5 79.96,-74.86"/>
<polygon fill="#63b8ff" stroke="#63b8ff" points="77.87,-98.47 80.1,-108.83 84.81,-99.34 77.87,-98.47"/>
</a>
</g>
</g>
<!-- Node3 -->
<g id="Node000003" class="node">
<title>Node3</title>
<g id="a_Node000003"><a xlink:href="classdunedaq_1_1conffwk_1_1DalObject.html" target="_top" xlink:title="The base class for any generated DAL object.">
<polygon fill="white" stroke="#666666" points="143.88,-185 5.62,-185 5.62,-165.75 143.88,-165.75 143.88,-185"/>
<text text-anchor="middle" x="74.75" y="-171.5" font-family="Helvetica,sans-Serif" font-size="10.00">dunedaq::conffwk::DalObject</text>
</a>
</g>
</g>
<!-- Node3&#45;&gt;Node2 -->
<g id="edge2_Node000002_Node000003" class="edge">
<title>Node3&#45;&gt;Node2</title>
<g id="a_edge2_Node000002_Node000003"><a xlink:title=" ">
<path fill="none" stroke="#63b8ff" d="M68.19,-154.42C67.7,-146.05 68.15,-136.75 69.54,-130.11"/>
<polygon fill="#63b8ff" stroke="#63b8ff" points="64.69,-154.59 69.4,-164.08 71.63,-153.72 64.69,-154.59"/>
</a>
</g>
</g>
<!-- Node3&#45;&gt;Node2 -->
<g id="edge3_Node000002_Node000003" class="edge">
<title>Node3&#45;&gt;Node2</title>
<g id="a_edge3_Node000002_Node000003"><a xlink:title=" ">
<path fill="none" stroke="#63b8ff" d="M81.31,-154.42C81.8,-146.05 81.35,-136.75 79.96,-130.11"/>
<polygon fill="#63b8ff" stroke="#63b8ff" points="77.87,-153.72 80.1,-164.08 84.81,-154.59 77.87,-153.72"/>
</a>
</g>
</g>
</g>
</svg>
