<?xml version="1.0" encoding="UTF-8" standalone="no"?>
<!DOCTYPE svg PUBLIC "-//W3C//DTD SVG 1.1//EN"
 "http://www.w3.org/Graphics/SVG/1.1/DTD/svg11.dtd">
<!-- Generated by graphviz version 9.0.0 (20230911.1827)
 -->
<!-- Title: dunedaq::readoutlibs::SourceConcept Pages: 1 -->
<svg width="298pt" height="218pt"
 viewBox="0.00 0.00 298.00 218.38" xmlns="http://www.w3.org/2000/svg" xmlns:xlink="http://www.w3.org/1999/xlink">
<g id="graph0" class="graph" transform="scale(1 1) rotate(0) translate(4 214.38)">
<title>dunedaq::readoutlibs::SourceConcept</title>
<!-- Node1 -->
<g id="Node000001" class="node">
<title>Node1</title>
<g id="a_Node000001"><a xlink:title=" ">
<polygon fill="#999999" stroke="#666666" points="104.5,-114.12 0,-114.12 0,-83.62 104.5,-83.62 104.5,-114.12"/>
<text text-anchor="start" x="8" y="-100.62" font-family="Helvetica,sans-Serif" font-size="10.00">dunedaq::readoutlibs</text>
<text text-anchor="middle" x="52.25" y="-89.38" font-family="Helvetica,sans-Serif" font-size="10.00">::SourceConcept</text>
</a>
</g>
</g>
<!-- Node2 -->
<g id="Node000002" class="node">
<title>Node2</title>
<g id="a_Node000002"><a xlink:href="classdunedaq_1_1readoutlibs_1_1DataSubscriberModel.html" target="_top" xlink:title=" ">
<polygon fill="white" stroke="#666666" points="273.12,-210.38 157.38,-210.38 157.38,-157.38 273.12,-157.38 273.12,-210.38"/>
<text text-anchor="start" x="165.38" y="-196.88" font-family="Helvetica,sans-Serif" font-size="10.00">dunedaq::readoutlibs</text>
<text text-anchor="start" x="165.38" y="-185.62" font-family="Helvetica,sans-Serif" font-size="10.00">::DataSubscriberModel</text>
<text text-anchor="start" x="165.38" y="-174.38" font-family="Helvetica,sans-Serif" font-size="10.00">&lt; OriginalPayloadType,</text>
<text text-anchor="middle" x="215.25" y="-163.12" font-family="Helvetica,sans-Serif" font-size="10.00"> TargetPayloadType &gt;</text>
</a>
</g>
</g>
<!-- Node1&#45;&gt;Node2 -->
<g id="edge1_Node000001_Node000002" class="edge">
<title>Node1&#45;&gt;Node2</title>
<g id="a_edge1_Node000001_Node000002"><a xlink:title=" ">
<path fill="none" stroke="#63b8ff" d="M89.88,-120.07C105.39,-128.87 123.71,-139.07 140.5,-147.88 146.18,-150.85 152.14,-153.9 158.11,-156.89"/>
<polygon fill="#63b8ff" stroke="#63b8ff" points="91.88,-117.18 81.46,-115.26 88.41,-123.26 91.88,-117.18"/>
</a>
</g>
</g>
<!-- Node3 -->
<g id="Node000003" class="node">
<title>Node3</title>
<g id="a_Node000003"><a xlink:href="classdunedaq_1_1trigger_1_1HSISourceModel.html" target="_top" xlink:title=" ">
<polygon fill="white" stroke="#666666" points="283.62,-139.12 146.88,-139.12 146.88,-108.62 283.62,-108.62 283.62,-139.12"/>
<text text-anchor="start" x="154.88" y="-125.62" font-family="Helvetica,sans-Serif" font-size="10.00">dunedaq::trigger::HSISource</text>
<text text-anchor="middle" x="215.25" y="-114.38" font-family="Helvetica,sans-Serif" font-size="10.00">Model</text>
</a>
</g>
</g>
<!-- Node1&#45;&gt;Node3 -->
<g id="edge2_Node000001_Node000003" class="edge">
<title>Node1&#45;&gt;Node3</title>
<g id="a_edge2_Node000001_Node000003"><a xlink:title=" ">
<path fill="none" stroke="#63b8ff" d="M115.82,-108.59C125.91,-110.16 136.4,-111.79 146.6,-113.37"/>
<polygon fill="#63b8ff" stroke="#63b8ff" points="116.55,-105.16 106.13,-107.09 115.47,-112.08 116.55,-105.16"/>
</a>
</g>
</g>
<!-- Node4 -->
<g id="Node000004" class="node">
<title>Node4</title>
<g id="a_Node000004"><a xlink:href="classdunedaq_1_1trigger_1_1TPSetSourceModel.html" target="_top" xlink:title=" ">
<polygon fill="white" stroke="#666666" points="288.88,-90.12 141.62,-90.12 141.62,-59.62 288.88,-59.62 288.88,-90.12"/>
<text text-anchor="start" x="149.62" y="-76.62" font-family="Helvetica,sans-Serif" font-size="10.00">dunedaq::trigger::TPSetSource</text>
<text text-anchor="middle" x="215.25" y="-65.38" font-family="Helvetica,sans-Serif" font-size="10.00">Model</text>
</a>
</g>
</g>
<!-- Node1&#45;&gt;Node4 -->
<g id="edge3_Node000001_Node000004" class="edge">
<title>Node1&#45;&gt;Node4</title>
<g id="a_edge3_Node000001_Node000004"><a xlink:title=" ">
<path fill="none" stroke="#63b8ff" d="M115.83,-89.55C124.19,-88.3 132.83,-87.01 141.35,-85.74"/>
<polygon fill="#63b8ff" stroke="#63b8ff" points="115.51,-86.06 106.13,-90.99 116.54,-92.98 115.51,-86.06"/>
</a>
</g>
</g>
<!-- Node5 -->
<g id="Node000005" class="node">
<title>Node5</title>
<g id="a_Node000005"><a xlink:href="classdunedaq_1_1trigger_1_1TriggerSourceModel.html" target="_top" xlink:title=" ">
<polygon fill="white" stroke="#666666" points="290,-41.75 140.5,-41.75 140.5,0 290,0 290,-41.75"/>
<text text-anchor="start" x="148.5" y="-28.25" font-family="Helvetica,sans-Serif" font-size="10.00">dunedaq::trigger::Trigger</text>
<text text-anchor="start" x="148.5" y="-17" font-family="Helvetica,sans-Serif" font-size="10.00">SourceModel&lt; TriggerXObject,</text>
<text text-anchor="middle" x="215.25" y="-5.75" font-family="Helvetica,sans-Serif" font-size="10.00"> TXWrapper &gt;</text>
</a>
</g>
</g>
<!-- Node1&#45;&gt;Node5 -->
<g id="edge4_Node000001_Node000005" class="edge">
<title>Node1&#45;&gt;Node5</title>
<g id="a_edge4_Node000001_Node000005"><a xlink:title=" ">
<path fill="none" stroke="#63b8ff" d="M89.65,-77.61C105.11,-68.9 123.47,-58.99 140.5,-50.88 146.74,-47.9 153.35,-44.95 159.96,-42.11"/>
<polygon fill="#63b8ff" stroke="#63b8ff" points="88.22,-74.4 81.26,-82.38 91.68,-80.48 88.22,-74.4"/>
</a>
</g>
</g>
</g>
</svg>
