<?xml version="1.0" encoding="UTF-8" standalone="no"?>
<!DOCTYPE svg PUBLIC "-//W3C//DTD SVG 1.1//EN"
 "http://www.w3.org/Graphics/SVG/1.1/DTD/svg11.dtd">
<!-- Generated by graphviz version 9.0.0 (20230911.1827)
 -->
<!-- Title: dunedaq::dpdklibs::IfaceWrapper Pages: 1 -->
<svg width="131pt" height="194pt"
 viewBox="0.00 0.00 131.12 194.00" xmlns="http://www.w3.org/2000/svg" xmlns:xlink="http://www.w3.org/1999/xlink">
<g id="graph0" class="graph" transform="scale(1 1) rotate(0) translate(4 190)">
<title>dunedaq::dpdklibs::IfaceWrapper</title>
<!-- Node1 -->
<g id="Node000001" class="node">
<title>Node1</title>
<g id="a_Node000001"><a xlink:title=" ">
<polygon fill="#999999" stroke="#666666" points="97.75,-30.5 0,-30.5 0,0 97.75,0 97.75,-30.5"/>
<text text-anchor="start" x="8" y="-17" font-family="Helvetica,sans-Serif" font-size="10.00">dunedaq::dpdklibs::</text>
<text text-anchor="middle" x="48.88" y="-5.75" font-family="Helvetica,sans-Serif" font-size="10.00">IfaceWrapper</text>
</a>
</g>
</g>
<!-- Node2 -->
<g id="Node000002" class="node">
<title>Node2</title>
<g id="a_Node000002"><a xlink:href="structdunedaq_1_1dpdklibs_1_1IfaceXstats.html" target="_top" xlink:title=" ">
<polygon fill="white" stroke="#666666" points="97.75,-108.25 0,-108.25 0,-77.75 97.75,-77.75 97.75,-108.25"/>
<text text-anchor="start" x="8" y="-94.75" font-family="Helvetica,sans-Serif" font-size="10.00">dunedaq::dpdklibs::</text>
<text text-anchor="middle" x="48.88" y="-83.5" font-family="Helvetica,sans-Serif" font-size="10.00">IfaceXstats</text>
</a>
</g>
</g>
<!-- Node2&#45;&gt;Node1 -->
<g id="edge1_Node000001_Node000002" class="edge">
<title>Node2&#45;&gt;Node1</title>
<g id="a_edge1_Node000001_Node000002"><a xlink:title=" ">
<path fill="none" stroke="#9a32cd" stroke-dasharray="5,2" d="M48.88,-65.97C48.88,-54.21 48.88,-40.76 48.88,-30.81"/>
<polygon fill="#9a32cd" stroke="#9a32cd" points="45.38,-65.88 48.88,-75.88 52.38,-65.88 45.38,-65.88"/>
</a>
</g>
<text text-anchor="middle" x="83" y="-50.25" font-family="Helvetica,sans-Serif" font-size="10.00" fill="grey"> m_iface_xstats</text>
</g>
<!-- Node3 -->
<g id="Node000003" class="node">
<title>Node3</title>
<g id="a_Node000003"><a xlink:title=" ">
<polygon fill="white" stroke="#666666" points="69.25,-186 28.5,-186 28.5,-166.75 69.25,-166.75 69.25,-186"/>
<text text-anchor="middle" x="48.88" y="-172.5" font-family="Helvetica,sans-Serif" font-size="10.00">struct</text>
</a>
</g>
</g>
<!-- Node3&#45;&gt;Node2 -->
<g id="edge2_Node000002_Node000003" class="edge">
<title>Node3&#45;&gt;Node2</title>
<g id="a_edge2_Node000002_Node000003"><a xlink:title=" ">
<path fill="none" stroke="#9a32cd" stroke-dasharray="5,2" d="M48.88,-155.11C48.88,-140.64 48.88,-121.52 48.88,-108.54"/>
<polygon fill="#9a32cd" stroke="#9a32cd" points="45.38,-154.84 48.88,-164.84 52.38,-154.84 45.38,-154.84"/>
</a>
</g>
<text text-anchor="middle" x="86" y="-139.25" font-family="Helvetica,sans-Serif" font-size="10.00" fill="grey"> m_eth_stats</text>
<text text-anchor="middle" x="86" y="-128" font-family="Helvetica,sans-Serif" font-size="10.00" fill="grey">m_xstats_names</text>
</g>
</g>
</svg>
