<?xml version="1.0" encoding="UTF-8" standalone="no"?>
<!DOCTYPE svg PUBLIC "-//W3C//DTD SVG 1.1//EN"
 "http://www.w3.org/Graphics/SVG/1.1/DTD/svg11.dtd">
<!-- Generated by graphviz version 9.0.0 (20230911.1827)
 -->
<!-- Title: dunedaq::listrev::dal::ListRevModule Pages: 1 -->
<svg width="633pt" height="137pt"
 viewBox="0.00 0.00 633.00 136.50" xmlns="http://www.w3.org/2000/svg" xmlns:xlink="http://www.w3.org/1999/xlink">
<g id="graph0" class="graph" transform="scale(1 1) rotate(0) translate(4 132.5)">
<title>dunedaq::listrev::dal::ListRevModule</title>
<!-- Node1 -->
<g id="Node000001" class="node">
<title>Node1</title>
<g id="a_Node000001"><a xlink:title=" ">
<polygon fill="#999999" stroke="#666666" points="453,-79.5 352.25,-79.5 352.25,-49 453,-49 453,-79.5"/>
<text text-anchor="start" x="360.25" y="-66" font-family="Helvetica,sans-Serif" font-size="10.00">dunedaq::listrev::dal</text>
<text text-anchor="middle" x="402.62" y="-54.75" font-family="Helvetica,sans-Serif" font-size="10.00">::ListRevModule</text>
</a>
</g>
</g>
<!-- Node4 -->
<g id="Node000004" class="node">
<title>Node4</title>
<g id="a_Node000004"><a xlink:href="classdunedaq_1_1listrev_1_1dal_1_1ListReverser.html" target="_top" xlink:title=" ">
<polygon fill="white" stroke="#666666" points="607.38,-128.5 506.62,-128.5 506.62,-98 607.38,-98 607.38,-128.5"/>
<text text-anchor="start" x="514.62" y="-115" font-family="Helvetica,sans-Serif" font-size="10.00">dunedaq::listrev::dal</text>
<text text-anchor="middle" x="557" y="-103.75" font-family="Helvetica,sans-Serif" font-size="10.00">::ListReverser</text>
</a>
</g>
</g>
<!-- Node1&#45;&gt;Node4 -->
<g id="edge5_Node000001_Node000004" class="edge">
<title>Node1&#45;&gt;Node4</title>
<g id="a_edge5_Node000001_Node000004"><a xlink:title=" ">
<path fill="none" stroke="#63b8ff" d="M464.05,-77.06C484.73,-83.37 507.03,-90.88 524.49,-97.53"/>
<polygon fill="#63b8ff" stroke="#63b8ff" points="465.13,-73.73 454.55,-74.23 463.13,-80.44 465.13,-73.73"/>
</a>
</g>
</g>
<!-- Node1&#45;&gt;Node4 -->
<g id="edge6_Node000001_Node000004" class="edge">
<title>Node1&#45;&gt;Node4</title>
<g id="a_edge6_Node000001_Node000004"><a xlink:title=" ">
<path fill="none" stroke="#63b8ff" d="M445.77,-83.91C464.48,-90.68 486.64,-97.9 506.17,-103.6"/>
<polygon fill="#63b8ff" stroke="#63b8ff" points="447.21,-80.72 436.62,-80.52 444.78,-87.28 447.21,-80.72"/>
</a>
</g>
</g>
<!-- Node5 -->
<g id="Node000005" class="node">
<title>Node5</title>
<g id="a_Node000005"><a xlink:href="classdunedaq_1_1listrev_1_1dal_1_1RandomDataListGenerator.html" target="_top" xlink:title=" ">
<polygon fill="white" stroke="#666666" points="625,-79.5 489,-79.5 489,-49 625,-49 625,-79.5"/>
<text text-anchor="start" x="497" y="-66" font-family="Helvetica,sans-Serif" font-size="10.00">dunedaq::listrev::dal</text>
<text text-anchor="middle" x="557" y="-54.75" font-family="Helvetica,sans-Serif" font-size="10.00">::RandomDataListGenerator</text>
</a>
</g>
</g>
<!-- Node1&#45;&gt;Node5 -->
<g id="edge7_Node000001_Node000005" class="edge">
<title>Node1&#45;&gt;Node5</title>
<g id="a_edge7_Node000001_Node000005"><a xlink:title=" ">
<path fill="none" stroke="#63b8ff" d="M464.55,-57.62C472.52,-57.49 480.71,-57.47 488.77,-57.54"/>
<polygon fill="#63b8ff" stroke="#63b8ff" points="464.53,-54.12 454.61,-57.85 464.69,-61.12 464.53,-54.12"/>
</a>
</g>
</g>
<!-- Node1&#45;&gt;Node5 -->
<g id="edge8_Node000001_Node000005" class="edge">
<title>Node1&#45;&gt;Node5</title>
<g id="a_edge8_Node000001_Node000005"><a xlink:title=" ">
<path fill="none" stroke="#63b8ff" d="M464.55,-70.88C472.52,-71.01 480.71,-71.03 488.77,-70.96"/>
<polygon fill="#63b8ff" stroke="#63b8ff" points="464.69,-67.38 454.61,-70.65 464.53,-74.38 464.69,-67.38"/>
</a>
</g>
</g>
<!-- Node6 -->
<g id="Node000006" class="node">
<title>Node6</title>
<g id="a_Node000006"><a xlink:href="classdunedaq_1_1listrev_1_1dal_1_1ReversedListValidator.html" target="_top" xlink:title=" ">
<polygon fill="white" stroke="#666666" points="615.25,-30.5 498.75,-30.5 498.75,0 615.25,0 615.25,-30.5"/>
<text text-anchor="start" x="506.75" y="-17" font-family="Helvetica,sans-Serif" font-size="10.00">dunedaq::listrev::dal</text>
<text text-anchor="middle" x="557" y="-5.75" font-family="Helvetica,sans-Serif" font-size="10.00">::ReversedListValidator</text>
</a>
</g>
</g>
<!-- Node1&#45;&gt;Node6 -->
<g id="edge9_Node000001_Node000006" class="edge">
<title>Node1&#45;&gt;Node6</title>
<g id="a_edge9_Node000001_Node000006"><a xlink:title=" ">
<path fill="none" stroke="#63b8ff" d="M445.95,-44.52C462.15,-38.67 480.9,-32.48 498.29,-27.24"/>
<polygon fill="#63b8ff" stroke="#63b8ff" points="444.78,-41.22 436.62,-47.98 447.21,-47.79 444.78,-41.22"/>
</a>
</g>
</g>
<!-- Node1&#45;&gt;Node6 -->
<g id="edge10_Node000001_Node000006" class="edge">
<title>Node1&#45;&gt;Node6</title>
<g id="a_edge10_Node000001_Node000006"><a xlink:title=" ">
<path fill="none" stroke="#63b8ff" d="M464.05,-51.44C484.73,-45.13 507.03,-37.62 524.49,-30.97"/>
<polygon fill="#63b8ff" stroke="#63b8ff" points="463.13,-48.06 454.55,-54.27 465.13,-54.77 463.13,-48.06"/>
</a>
</g>
</g>
<!-- Node2 -->
<g id="Node000002" class="node">
<title>Node2</title>
<g id="a_Node000002"><a xlink:href="classdunedaq_1_1coredal_1_1DaqModule.html" target="_top" xlink:title=" ">
<polygon fill="white" stroke="#666666" points="316.25,-73.88 174.25,-73.88 174.25,-54.62 316.25,-54.62 316.25,-73.88"/>
<text text-anchor="middle" x="245.25" y="-60.38" font-family="Helvetica,sans-Serif" font-size="10.00">dunedaq::coredal::DaqModule</text>
</a>
</g>
</g>
<!-- Node2&#45;&gt;Node1 -->
<g id="edge1_Node000001_Node000002" class="edge">
<title>Node2&#45;&gt;Node1</title>
<g id="a_edge1_Node000001_Node000002"><a xlink:title=" ">
<path fill="none" stroke="#63b8ff" d="M328.12,-57.51C336.21,-57.54 344.25,-57.67 351.88,-57.9"/>
<polygon fill="#63b8ff" stroke="#63b8ff" points="328.17,-54.01 318.18,-57.52 328.18,-61.01 328.17,-54.01"/>
</a>
</g>
</g>
<!-- Node2&#45;&gt;Node1 -->
<g id="edge4_Node000001_Node000002" class="edge">
<title>Node2&#45;&gt;Node1</title>
<g id="a_edge4_Node000001_Node000002"><a xlink:title=" ">
<path fill="none" stroke="#63b8ff" d="M328.12,-70.99C336.21,-70.96 344.25,-70.83 351.88,-70.6"/>
<polygon fill="#63b8ff" stroke="#63b8ff" points="328.18,-67.49 318.18,-70.98 328.17,-74.49 328.18,-67.49"/>
</a>
</g>
</g>
<!-- Node3 -->
<g id="Node000003" class="node">
<title>Node3</title>
<g id="a_Node000003"><a xlink:href="classdunedaq_1_1conffwk_1_1DalObject.html" target="_top" xlink:title="The base class for any generated DAL object.">
<polygon fill="white" stroke="#666666" points="138.25,-73.88 0,-73.88 0,-54.62 138.25,-54.62 138.25,-73.88"/>
<text text-anchor="middle" x="69.12" y="-60.38" font-family="Helvetica,sans-Serif" font-size="10.00">dunedaq::conffwk::DalObject</text>
</a>
</g>
</g>
<!-- Node3&#45;&gt;Node2 -->
<g id="edge2_Node000002_Node000003" class="edge">
<title>Node3&#45;&gt;Node2</title>
<g id="a_edge2_Node000002_Node000003"><a xlink:title=" ">
<path fill="none" stroke="#63b8ff" d="M149.73,-57.52C157.77,-57.47 165.9,-57.5 173.84,-57.61"/>
<polygon fill="#63b8ff" stroke="#63b8ff" points="149.92,-54.02 139.96,-57.63 149.99,-61.02 149.92,-54.02"/>
</a>
</g>
</g>
<!-- Node3&#45;&gt;Node2 -->
<g id="edge3_Node000002_Node000003" class="edge">
<title>Node3&#45;&gt;Node2</title>
<g id="a_edge3_Node000002_Node000003"><a xlink:title=" ">
<path fill="none" stroke="#63b8ff" d="M149.73,-70.98C157.77,-71.03 165.9,-71 173.84,-70.89"/>
<polygon fill="#63b8ff" stroke="#63b8ff" points="149.99,-67.48 139.96,-70.87 149.92,-74.48 149.99,-67.48"/>
</a>
</g>
</g>
</g>
</svg>
