<?xml version="1.0" encoding="UTF-8" standalone="no"?>
<!DOCTYPE svg PUBLIC "-//W3C//DTD SVG 1.1//EN"
 "http://www.w3.org/Graphics/SVG/1.1/DTD/svg11.dtd">
<!-- Generated by graphviz version 9.0.0 (20230911.1827)
 -->
<!-- Title: dunedaq::coredal::Application Pages: 1 -->
<svg width="926pt" height="346pt"
 viewBox="0.00 0.00 925.75 345.88" xmlns="http://www.w3.org/2000/svg" xmlns:xlink="http://www.w3.org/1999/xlink">
<g id="graph0" class="graph" transform="scale(1 1) rotate(0) translate(4 341.88)">
<title>dunedaq::coredal::Application</title>
<!-- Node1 -->
<g id="Node000001" class="node">
<title>Node1</title>
<g id="a_Node000001"><a xlink:title=" ">
<polygon fill="#999999" stroke="#666666" points="315.5,-100.88 174.25,-100.88 174.25,-81.62 315.5,-81.62 315.5,-100.88"/>
<text text-anchor="middle" x="244.88" y="-87.38" font-family="Helvetica,sans-Serif" font-size="10.00">dunedaq::coredal::Application</text>
</a>
</g>
</g>
<!-- Node3 -->
<g id="Node000003" class="node">
<title>Node3</title>
<g id="a_Node000003"><a xlink:href="classdunedaq_1_1appdal_1_1SmartDaqApplication.html" target="_top" xlink:title=" ">
<polygon fill="white" stroke="#666666" points="497.62,-198.5 363.88,-198.5 363.88,-168 497.62,-168 497.62,-198.5"/>
<text text-anchor="start" x="371.88" y="-185" font-family="Helvetica,sans-Serif" font-size="10.00">dunedaq::appdal::SmartDaq</text>
<text text-anchor="middle" x="430.75" y="-173.75" font-family="Helvetica,sans-Serif" font-size="10.00">Application</text>
</a>
</g>
</g>
<!-- Node1&#45;&gt;Node3 -->
<g id="edge3_Node000001_Node000003" class="edge">
<title>Node1&#45;&gt;Node3</title>
<g id="a_edge3_Node000001_Node000003"><a xlink:title=" ">
<path fill="none" stroke="#63b8ff" d="M278.45,-107.2C298.72,-119.97 325.75,-137.21 351.5,-149.25 366.87,-156.44 384.86,-162.34 399.71,-167.51"/>
<polygon fill="#63b8ff" stroke="#63b8ff" points="280.41,-104.29 270.08,-101.95 276.7,-110.23 280.41,-104.29"/>
</a>
</g>
</g>
<!-- Node1&#45;&gt;Node3 -->
<g id="edge22_Node000001_Node000003" class="edge">
<title>Node1&#45;&gt;Node3</title>
<g id="a_edge22_Node000001_Node000003"><a xlink:title=" ">
<path fill="none" stroke="#63b8ff" d="M261.05,-108.84C280.95,-126.17 317.35,-151.29 351.5,-167.25 355.38,-169.06 359.42,-170.79 363.53,-172.42"/>
<polygon fill="#63b8ff" stroke="#63b8ff" points="263.49,-106.33 253.79,-102.07 258.71,-111.45 263.49,-106.33"/>
</a>
</g>
</g>
<!-- Node13 -->
<g id="Node000013" class="node">
<title>Node13</title>
<g id="a_Node000013"><a xlink:href="classdunedaq_1_1coredal_1_1ConnectionService.html" target="_top" xlink:title=" ">
<polygon fill="white" stroke="#666666" points="501.75,-149.5 359.75,-149.5 359.75,-119 501.75,-119 501.75,-149.5"/>
<text text-anchor="start" x="367.75" y="-136" font-family="Helvetica,sans-Serif" font-size="10.00">dunedaq::coredal::Connection</text>
<text text-anchor="middle" x="430.75" y="-124.75" font-family="Helvetica,sans-Serif" font-size="10.00">Service</text>
</a>
</g>
</g>
<!-- Node1&#45;&gt;Node13 -->
<g id="edge23_Node000001_Node000013" class="edge">
<title>Node1&#45;&gt;Node13</title>
<g id="a_edge23_Node000001_Node000013"><a xlink:title=" ">
<path fill="none" stroke="#63b8ff" d="M327.03,-103.52C347.83,-108.22 369.37,-113.57 387.32,-118.54"/>
<polygon fill="#63b8ff" stroke="#63b8ff" points="327.91,-100.13 317.39,-101.38 326.4,-106.96 327.91,-100.13"/>
</a>
</g>
</g>
<!-- Node1&#45;&gt;Node13 -->
<g id="edge24_Node000001_Node000013" class="edge">
<title>Node1&#45;&gt;Node13</title>
<g id="a_edge24_Node000001_Node000013"><a xlink:title=" ">
<path fill="none" stroke="#63b8ff" d="M280.08,-104.64C302.39,-111.08 332.31,-118.48 359.54,-124.41"/>
<polygon fill="#63b8ff" stroke="#63b8ff" points="281.2,-101.32 270.61,-101.8 279.19,-108.03 281.2,-101.32"/>
</a>
</g>
</g>
<!-- Node14 -->
<g id="Node000014" class="node">
<title>Node14</title>
<g id="a_Node000014"><a xlink:href="classdunedaq_1_1coredal_1_1DaqApplication.html" target="_top" xlink:title=" ">
<polygon fill="white" stroke="#666666" points="510,-100.88 351.5,-100.88 351.5,-81.62 510,-81.62 510,-100.88"/>
<text text-anchor="middle" x="430.75" y="-87.38" font-family="Helvetica,sans-Serif" font-size="10.00">dunedaq::coredal::DaqApplication</text>
</a>
</g>
</g>
<!-- Node1&#45;&gt;Node14 -->
<g id="edge25_Node000001_Node000014" class="edge">
<title>Node1&#45;&gt;Node14</title>
<g id="a_edge25_Node000001_Node000014"><a xlink:title=" ">
<path fill="none" stroke="#63b8ff" d="M327.16,-84.54C335.18,-84.48 343.31,-84.49 351.31,-84.57"/>
<polygon fill="#63b8ff" stroke="#63b8ff" points="327.39,-81.04 317.43,-84.66 327.47,-88.04 327.39,-81.04"/>
</a>
</g>
</g>
<!-- Node1&#45;&gt;Node14 -->
<g id="edge26_Node000001_Node000014" class="edge">
<title>Node1&#45;&gt;Node14</title>
<g id="a_edge26_Node000001_Node000014"><a xlink:title=" ">
<path fill="none" stroke="#63b8ff" d="M327.16,-97.96C335.18,-98.02 343.31,-98.01 351.31,-97.93"/>
<polygon fill="#63b8ff" stroke="#63b8ff" points="327.47,-94.46 317.43,-97.84 327.39,-101.46 327.47,-94.46"/>
</a>
</g>
</g>
<!-- Node15 -->
<g id="Node000015" class="node">
<title>Node15</title>
<g id="a_Node000015"><a xlink:href="classdunedaq_1_1coredal_1_1OpMonService.html" target="_top" xlink:title=" ">
<polygon fill="white" stroke="#666666" points="509.62,-63.88 351.88,-63.88 351.88,-44.62 509.62,-44.62 509.62,-63.88"/>
<text text-anchor="middle" x="430.75" y="-50.38" font-family="Helvetica,sans-Serif" font-size="10.00">dunedaq::coredal::OpMonService</text>
</a>
</g>
</g>
<!-- Node1&#45;&gt;Node15 -->
<g id="edge27_Node000001_Node000015" class="edge">
<title>Node1&#45;&gt;Node15</title>
<g id="a_edge27_Node000001_Node000015"><a xlink:title=" ">
<path fill="none" stroke="#63b8ff" d="M282.78,-78.29C302.51,-73.32 327.6,-67.89 351.44,-63.33"/>
<polygon fill="#63b8ff" stroke="#63b8ff" points="282.08,-74.86 273.29,-80.77 283.85,-81.63 282.08,-74.86"/>
</a>
</g>
</g>
<!-- Node1&#45;&gt;Node15 -->
<g id="edge28_Node000001_Node000015" class="edge">
<title>Node1&#45;&gt;Node15</title>
<g id="a_edge28_Node000001_Node000015"><a xlink:title=" ">
<path fill="none" stroke="#63b8ff" d="M326.88,-81.66C354.66,-76.28 383.79,-69.81 403.93,-64.31"/>
<polygon fill="#63b8ff" stroke="#63b8ff" points="326.58,-78.15 317.4,-83.45 327.88,-85.03 326.58,-78.15"/>
</a>
</g>
</g>
<!-- Node16 -->
<g id="Node000016" class="node">
<title>Node16</title>
<g id="a_Node000016"><a xlink:href="classdunedaq_1_1coredal_1_1RCApplication.html" target="_top" xlink:title=" ">
<polygon fill="white" stroke="#666666" points="508.12,-26.88 353.38,-26.88 353.38,-7.62 508.12,-7.62 508.12,-26.88"/>
<text text-anchor="middle" x="430.75" y="-13.38" font-family="Helvetica,sans-Serif" font-size="10.00">dunedaq::coredal::RCApplication</text>
</a>
</g>
</g>
<!-- Node1&#45;&gt;Node16 -->
<g id="edge29_Node000001_Node000016" class="edge">
<title>Node1&#45;&gt;Node16</title>
<g id="a_edge29_Node000001_Node000016"><a xlink:title=" ">
<path fill="none" stroke="#63b8ff" d="M262.65,-74.18C282.97,-59.08 318.56,-38.53 351.5,-26.25 352.02,-26.06 352.55,-25.86 353.08,-25.67"/>
<polygon fill="#63b8ff" stroke="#63b8ff" points="260.56,-71.38 254.94,-80.36 264.93,-76.84 260.56,-71.38"/>
</a>
</g>
</g>
<!-- Node1&#45;&gt;Node16 -->
<g id="edge30_Node000001_Node000016" class="edge">
<title>Node1&#45;&gt;Node16</title>
<g id="a_edge30_Node000001_Node000016"><a xlink:title=" ">
<path fill="none" stroke="#63b8ff" d="M284.11,-75.94C303.69,-65.69 328.26,-52.91 351.5,-44.25 371.22,-36.9 394.9,-31.96 411.01,-27.29"/>
<polygon fill="#63b8ff" stroke="#63b8ff" points="282.65,-72.75 275.41,-80.48 285.89,-78.96 282.65,-72.75"/>
</a>
</g>
</g>
<!-- Node2 -->
<g id="Node000002" class="node">
<title>Node2</title>
<g id="a_Node000002"><a xlink:href="classdunedaq_1_1conffwk_1_1DalObject.html" target="_top" xlink:title="The base class for any generated DAL object.">
<polygon fill="white" stroke="#666666" points="138.25,-100.88 0,-100.88 0,-81.62 138.25,-81.62 138.25,-100.88"/>
<text text-anchor="middle" x="69.12" y="-87.38" font-family="Helvetica,sans-Serif" font-size="10.00">dunedaq::conffwk::DalObject</text>
</a>
</g>
</g>
<!-- Node2&#45;&gt;Node1 -->
<g id="edge1_Node000001_Node000002" class="edge">
<title>Node2&#45;&gt;Node1</title>
<g id="a_edge1_Node000001_Node000002"><a xlink:title=" ">
<path fill="none" stroke="#63b8ff" d="M149.65,-84.52C157.74,-84.47 165.92,-84.51 173.9,-84.61"/>
<polygon fill="#63b8ff" stroke="#63b8ff" points="149.77,-81.02 139.81,-84.63 149.85,-88.02 149.77,-81.02"/>
</a>
</g>
</g>
<!-- Node2&#45;&gt;Node1 -->
<g id="edge2_Node000001_Node000002" class="edge">
<title>Node2&#45;&gt;Node1</title>
<g id="a_edge2_Node000001_Node000002"><a xlink:title=" ">
<path fill="none" stroke="#63b8ff" d="M149.65,-97.98C157.74,-98.03 165.92,-97.99 173.9,-97.89"/>
<polygon fill="#63b8ff" stroke="#63b8ff" points="149.85,-94.48 139.81,-97.87 149.77,-101.48 149.85,-94.48"/>
</a>
</g>
</g>
<!-- Node4 -->
<g id="Node000004" class="node">
<title>Node4</title>
<g id="a_Node000004"><a xlink:href="classdunedaq_1_1appdal_1_1DFApplication.html" target="_top" xlink:title=" ">
<polygon fill="white" stroke="#666666" points="710.12,-337.88 559.12,-337.88 559.12,-318.62 710.12,-318.62 710.12,-337.88"/>
<text text-anchor="middle" x="634.62" y="-324.38" font-family="Helvetica,sans-Serif" font-size="10.00">dunedaq::appdal::DFApplication</text>
</a>
</g>
</g>
<!-- Node3&#45;&gt;Node4 -->
<g id="edge4_Node000003_Node000004" class="edge">
<title>Node3&#45;&gt;Node4</title>
<g id="a_edge4_Node000003_Node000004"><a xlink:title=" ">
<path fill="none" stroke="#63b8ff" d="M451.42,-207.89C471.51,-235.23 505.44,-278 546,-301.25 562.17,-310.52 582.43,-315.05 599.4,-318.18"/>
<polygon fill="#63b8ff" stroke="#63b8ff" points="454.26,-205.85 445.55,-199.81 448.6,-209.96 454.26,-205.85"/>
</a>
</g>
</g>
<!-- Node3&#45;&gt;Node4 -->
<g id="edge5_Node000003_Node000004" class="edge">
<title>Node3&#45;&gt;Node4</title>
<g id="a_edge5_Node000003_Node000004"><a xlink:title=" ">
<path fill="none" stroke="#63b8ff" d="M443.56,-208.73C461.77,-240.36 499.53,-292.62 546,-319.25 550.04,-321.57 554.34,-323.59 558.78,-325.34"/>
<polygon fill="#63b8ff" stroke="#63b8ff" points="446.75,-207.27 438.87,-200.18 440.61,-210.63 446.75,-207.27"/>
</a>
</g>
</g>
<!-- Node5 -->
<g id="Node000005" class="node">
<title>Node5</title>
<g id="a_Node000005"><a xlink:href="classdunedaq_1_1appdal_1_1DFOApplication.html" target="_top" xlink:title=" ">
<polygon fill="white" stroke="#666666" points="713.88,-300.88 555.38,-300.88 555.38,-281.62 713.88,-281.62 713.88,-300.88"/>
<text text-anchor="middle" x="634.62" y="-287.38" font-family="Helvetica,sans-Serif" font-size="10.00">dunedaq::appdal::DFOApplication</text>
</a>
</g>
</g>
<!-- Node3&#45;&gt;Node5 -->
<g id="edge6_Node000003_Node000005" class="edge">
<title>Node3&#45;&gt;Node5</title>
<g id="a_edge6_Node000003_Node000005"><a xlink:title=" ">
<path fill="none" stroke="#63b8ff" d="M462.87,-206.18C484.5,-224.37 514.91,-248.7 546,-263.25 565.6,-272.42 589.75,-277.23 607.73,-281.16"/>
<polygon fill="#63b8ff" stroke="#63b8ff" points="465.22,-203.58 455.32,-199.79 460.69,-208.92 465.22,-203.58"/>
</a>
</g>
</g>
<!-- Node3&#45;&gt;Node5 -->
<g id="edge7_Node000003_Node000005" class="edge">
<title>Node3&#45;&gt;Node5</title>
<g id="a_edge7_Node000003_Node000005"><a xlink:title=" ">
<path fill="none" stroke="#63b8ff" d="M449.18,-207.43C470.22,-230.37 507.6,-263.28 546,-281.25 548.96,-282.64 552.03,-283.92 555.16,-285.11"/>
<polygon fill="#63b8ff" stroke="#63b8ff" points="451.91,-205.24 442.69,-200.01 446.64,-209.85 451.91,-205.24"/>
</a>
</g>
</g>
<!-- Node6 -->
<g id="Node000006" class="node">
<title>Node6</title>
<g id="a_Node000006"><a xlink:href="classdunedaq_1_1appdal_1_1FakeDataApplication.html" target="_top" xlink:title=" ">
<polygon fill="white" stroke="#666666" points="700.75,-263.5 568.5,-263.5 568.5,-233 700.75,-233 700.75,-263.5"/>
<text text-anchor="start" x="576.5" y="-250" font-family="Helvetica,sans-Serif" font-size="10.00">dunedaq::appdal::FakeData</text>
<text text-anchor="middle" x="634.62" y="-238.75" font-family="Helvetica,sans-Serif" font-size="10.00">Application</text>
</a>
</g>
</g>
<!-- Node3&#45;&gt;Node6 -->
<g id="edge8_Node000003_Node000006" class="edge">
<title>Node3&#45;&gt;Node6</title>
<g id="a_edge8_Node000003_Node000006"><a xlink:title=" ">
<path fill="none" stroke="#63b8ff" d="M507.61,-202.53C520.37,-206.87 533.52,-211.31 546,-215.25 564.8,-221.19 586.13,-227.05 603.04,-232.54"/>
<polygon fill="#63b8ff" stroke="#63b8ff" points="509.03,-199.31 498.44,-199.41 506.78,-205.94 509.03,-199.31"/>
</a>
</g>
</g>
<!-- Node3&#45;&gt;Node6 -->
<g id="edge9_Node000003_Node000006" class="edge">
<title>Node3&#45;&gt;Node6</title>
<g id="a_edge9_Node000003_Node000006"><a xlink:title=" ">
<path fill="none" stroke="#63b8ff" d="M465.19,-203.65C487.85,-213.48 518.54,-224.58 546,-233.25 553.22,-235.53 560.81,-237.8 568.38,-239.92"/>
<polygon fill="#63b8ff" stroke="#63b8ff" points="466.7,-200.49 456.15,-199.57 463.82,-206.87 466.7,-200.49"/>
</a>
</g>
</g>
<!-- Node7 -->
<g id="Node000007" class="node">
<title>Node7</title>
<g id="a_Node000007"><a xlink:href="classdunedaq_1_1appdal_1_1FakeHSIApplication.html" target="_top" xlink:title=" ">
<polygon fill="white" stroke="#666666" points="723.25,-214.88 546,-214.88 546,-195.62 723.25,-195.62 723.25,-214.88"/>
<text text-anchor="middle" x="634.62" y="-201.38" font-family="Helvetica,sans-Serif" font-size="10.00">dunedaq::appdal::FakeHSIApplication</text>
</a>
</g>
</g>
<!-- Node3&#45;&gt;Node7 -->
<g id="edge10_Node000003_Node000007" class="edge">
<title>Node3&#45;&gt;Node7</title>
<g id="a_edge10_Node000003_Node000007"><a xlink:title=" ">
<path fill="none" stroke="#63b8ff" d="M508.95,-185.08C537.23,-187.75 568.14,-191.46 592.11,-195.15"/>
<polygon fill="#63b8ff" stroke="#63b8ff" points="509.63,-181.63 499.36,-184.21 509,-188.6 509.63,-181.63"/>
</a>
</g>
</g>
<!-- Node3&#45;&gt;Node7 -->
<g id="edge11_Node000003_Node000007" class="edge">
<title>Node3&#45;&gt;Node7</title>
<g id="a_edge11_Node000003_Node000007"><a xlink:title=" ">
<path fill="none" stroke="#63b8ff" d="M509.15,-198.27C521.12,-199.74 533.55,-201.14 545.72,-202.37"/>
<polygon fill="#63b8ff" stroke="#63b8ff" points="509.71,-194.81 499.35,-197.02 508.83,-201.76 509.71,-194.81"/>
</a>
</g>
</g>
<!-- Node8 -->
<g id="Node000008" class="node">
<title>Node8</title>
<g id="a_Node000008"><a xlink:href="classdunedaq_1_1appdal_1_1HSIEventToTCApplication.html" target="_top" xlink:title=" ">
<polygon fill="white" stroke="#666666" points="700.75,-177.5 568.5,-177.5 568.5,-147 700.75,-147 700.75,-177.5"/>
<text text-anchor="start" x="576.5" y="-164" font-family="Helvetica,sans-Serif" font-size="10.00">dunedaq::appdal::HSIEvent</text>
<text text-anchor="middle" x="634.62" y="-152.75" font-family="Helvetica,sans-Serif" font-size="10.00">ToTCApplication</text>
</a>
</g>
</g>
<!-- Node3&#45;&gt;Node8 -->
<g id="edge12_Node000003_Node000008" class="edge">
<title>Node3&#45;&gt;Node8</title>
<g id="a_edge12_Node000003_Node000008"><a xlink:title=" ">
<path fill="none" stroke="#63b8ff" d="M509.13,-168.62C528.58,-166.31 549.26,-164.24 568.06,-162.7"/>
<polygon fill="#63b8ff" stroke="#63b8ff" points="508.86,-165.12 499.35,-169.81 509.7,-172.07 508.86,-165.12"/>
</a>
</g>
</g>
<!-- Node3&#45;&gt;Node8 -->
<g id="edge13_Node000003_Node000008" class="edge">
<title>Node3&#45;&gt;Node8</title>
<g id="a_edge13_Node000003_Node000008"><a xlink:title=" ">
<path fill="none" stroke="#63b8ff" d="M509.13,-181.78C528.58,-180.04 549.26,-177.82 568.06,-175.44"/>
<polygon fill="#63b8ff" stroke="#63b8ff" points="509.02,-178.28 499.36,-182.62 509.62,-185.25 509.02,-178.28"/>
</a>
</g>
</g>
<!-- Node9 -->
<g id="Node000009" class="node">
<title>Node9</title>
<g id="a_Node000009"><a xlink:href="classdunedaq_1_1appdal_1_1ReadoutApplication.html" target="_top" xlink:title=" ">
<polygon fill="white" stroke="#666666" points="697.75,-128.5 571.5,-128.5 571.5,-98 697.75,-98 697.75,-128.5"/>
<text text-anchor="start" x="579.5" y="-115" font-family="Helvetica,sans-Serif" font-size="10.00">dunedaq::appdal::Readout</text>
<text text-anchor="middle" x="634.62" y="-103.75" font-family="Helvetica,sans-Serif" font-size="10.00">Application</text>
</a>
</g>
</g>
<!-- Node3&#45;&gt;Node9 -->
<g id="edge14_Node000003_Node000009" class="edge">
<title>Node3&#45;&gt;Node9</title>
<g id="a_edge14_Node000003_Node000009"><a xlink:title=" ">
<path fill="none" stroke="#63b8ff" d="M471.17,-163.77C483.77,-159.39 497.65,-154.59 510,-149.25 526.8,-141.98 529.09,-136.25 546,-129.25 554.04,-125.92 562.67,-122.87 571.26,-120.22"/>
<polygon fill="#63b8ff" stroke="#63b8ff" points="470.2,-160.41 461.93,-167.02 472.52,-167.01 470.2,-160.41"/>
</a>
</g>
</g>
<!-- Node3&#45;&gt;Node9 -->
<g id="edge15_Node000003_Node000009" class="edge">
<title>Node3&#45;&gt;Node9</title>
<g id="a_edge15_Node000003_Node000009"><a xlink:title=" ">
<path fill="none" stroke="#63b8ff" d="M508.52,-167.88C509.02,-167.67 509.51,-167.46 510,-167.25 526.8,-159.98 529.09,-154.25 546,-147.25 563.39,-140.05 583.55,-134.14 600.14,-128.98"/>
<polygon fill="#63b8ff" stroke="#63b8ff" points="507.24,-164.63 499.25,-171.59 509.84,-171.13 507.24,-164.63"/>
</a>
</g>
</g>
<!-- Node10 -->
<g id="Node000010" class="node">
<title>Node10</title>
<g id="a_Node000010"><a xlink:href="classdunedaq_1_1appdal_1_1TPStreamWriterApplication.html" target="_top" xlink:title=" ">
<polygon fill="white" stroke="#666666" points="701.88,-79.5 567.38,-79.5 567.38,-49 701.88,-49 701.88,-79.5"/>
<text text-anchor="start" x="575.38" y="-66" font-family="Helvetica,sans-Serif" font-size="10.00">dunedaq::appdal::TPStream</text>
<text text-anchor="middle" x="634.62" y="-54.75" font-family="Helvetica,sans-Serif" font-size="10.00">WriterApplication</text>
</a>
</g>
</g>
<!-- Node3&#45;&gt;Node10 -->
<g id="edge16_Node000003_Node000010" class="edge">
<title>Node3&#45;&gt;Node10</title>
<g id="a_edge16_Node000003_Node000010"><a xlink:title=" ">
<path fill="none" stroke="#63b8ff" d="M484.83,-163.69C493.89,-160.03 502.71,-155.39 510,-149.25 536.47,-126.98 519.19,-102.1 546,-80.25 552.25,-75.15 559.49,-71.09 567.08,-67.93"/>
<polygon fill="#63b8ff" stroke="#63b8ff" points="483.8,-160.34 475.6,-167.05 486.2,-166.92 483.8,-160.34"/>
</a>
</g>
</g>
<!-- Node3&#45;&gt;Node10 -->
<g id="edge17_Node000003_Node000010" class="edge">
<title>Node3&#45;&gt;Node10</title>
<g id="a_edge17_Node000003_Node000010"><a xlink:title=" ">
<path fill="none" stroke="#63b8ff" d="M507.51,-169.24C508.36,-168.6 509.19,-167.93 510,-167.25 536.47,-144.98 519.19,-120.1 546,-98.25 556.55,-89.65 569.89,-84.01 582.97,-79.97"/>
<polygon fill="#63b8ff" stroke="#63b8ff" points="505.63,-166.29 499.13,-174.66 509.43,-172.17 505.63,-166.29"/>
</a>
</g>
</g>
<!-- Node11 -->
<g id="Node000011" class="node">
<title>Node11</title>
<g id="a_Node000011"><a xlink:href="classdunedaq_1_1appdal_1_1TriggerApplication.html" target="_top" xlink:title=" ">
<polygon fill="white" stroke="#666666" points="694.75,-30.5 574.5,-30.5 574.5,0 694.75,0 694.75,-30.5"/>
<text text-anchor="start" x="582.5" y="-17" font-family="Helvetica,sans-Serif" font-size="10.00">dunedaq::appdal::Trigger</text>
<text text-anchor="middle" x="634.62" y="-5.75" font-family="Helvetica,sans-Serif" font-size="10.00">Application</text>
</a>
</g>
</g>
<!-- Node3&#45;&gt;Node11 -->
<g id="edge18_Node000003_Node000011" class="edge">
<title>Node3&#45;&gt;Node11</title>
<g id="a_edge18_Node000003_Node000011"><a xlink:title=" ">
<path fill="none" stroke="#63b8ff" d="M488.91,-163.39C496.72,-159.81 504.08,-155.25 510,-149.25 548.52,-110.23 506.88,-69.67 546,-31.25 553.79,-23.6 563.74,-18.26 574.13,-14.71"/>
<polygon fill="#63b8ff" stroke="#63b8ff" points="487.84,-160.04 479.86,-167 490.44,-166.55 487.84,-160.04"/>
</a>
</g>
</g>
<!-- Node3&#45;&gt;Node11 -->
<g id="edge21_Node000003_Node000011" class="edge">
<title>Node3&#45;&gt;Node11</title>
<g id="a_edge21_Node000003_Node000011"><a xlink:title=" ">
<path fill="none" stroke="#63b8ff" d="M506.84,-170.21C507.93,-169.26 508.99,-168.28 510,-167.25 548.52,-128.23 506.88,-87.67 546,-49.25 554.8,-40.6 566.38,-34.91 578.22,-30.91"/>
<polygon fill="#63b8ff" stroke="#63b8ff" points="505.13,-167.12 499.03,-175.78 509.2,-172.82 505.13,-167.12"/>
</a>
</g>
</g>
<!-- Node12 -->
<g id="Node000012" class="node">
<title>Node12</title>
<g id="a_Node000012"><a xlink:href="classdunedaq_1_1appdal_1_1MLTApplication.html" target="_top" xlink:title=" ">
<polygon fill="white" stroke="#666666" points="917.75,-24.88 759.25,-24.88 759.25,-5.62 917.75,-5.62 917.75,-24.88"/>
<text text-anchor="middle" x="838.5" y="-11.38" font-family="Helvetica,sans-Serif" font-size="10.00">dunedaq::appdal::MLTApplication</text>
</a>
</g>
</g>
<!-- Node11&#45;&gt;Node12 -->
<g id="edge19_Node000011_Node000012" class="edge">
<title>Node11&#45;&gt;Node12</title>
<g id="a_edge19_Node000011_Node000012"><a xlink:title=" ">
<path fill="none" stroke="#63b8ff" d="M706.61,-8.77C723.55,-8.46 741.72,-8.42 758.98,-8.65"/>
<polygon fill="#63b8ff" stroke="#63b8ff" points="706.53,-5.27 696.62,-9 706.69,-12.27 706.53,-5.27"/>
</a>
</g>
</g>
<!-- Node11&#45;&gt;Node12 -->
<g id="edge20_Node000011_Node000012" class="edge">
<title>Node11&#45;&gt;Node12</title>
<g id="a_edge20_Node000011_Node000012"><a xlink:title=" ">
<path fill="none" stroke="#63b8ff" d="M706.61,-21.73C723.55,-22.04 741.72,-22.08 758.98,-21.85"/>
<polygon fill="#63b8ff" stroke="#63b8ff" points="706.69,-18.23 696.62,-21.5 706.53,-25.23 706.69,-18.23"/>
</a>
</g>
</g>
</g>
</svg>
