<?xml version="1.0" encoding="UTF-8" standalone="no"?>
<!DOCTYPE svg PUBLIC "-//W3C//DTD SVG 1.1//EN"
 "http://www.w3.org/Graphics/SVG/1.1/DTD/svg11.dtd">
<!-- Generated by graphviz version 9.0.0 (20230911.1827)
 -->
<!-- Title: dunedaq::coredal::FSMactionFileLogbook Pages: 1 -->
<svg width="149pt" height="149pt"
 viewBox="0.00 0.00 148.50 149.00" xmlns="http://www.w3.org/2000/svg" xmlns:xlink="http://www.w3.org/1999/xlink">
<g id="graph0" class="graph" transform="scale(1 1) rotate(0) translate(4 145)">
<title>dunedaq::coredal::FSMactionFileLogbook</title>
<!-- Node1 -->
<g id="Node000001" class="node">
<title>Node1</title>
<g id="a_Node000001"><a xlink:title=" ">
<polygon fill="#999999" stroke="#666666" points="140.5,-30.5 0,-30.5 0,0 140.5,0 140.5,-30.5"/>
<text text-anchor="start" x="8" y="-17" font-family="Helvetica,sans-Serif" font-size="10.00">dunedaq::coredal::FSMaction</text>
<text text-anchor="middle" x="70.25" y="-5.75" font-family="Helvetica,sans-Serif" font-size="10.00">FileLogbook</text>
</a>
</g>
</g>
<!-- Node2 -->
<g id="Node000002" class="node">
<title>Node2</title>
<g id="a_Node000002"><a xlink:href="classdunedaq_1_1coredal_1_1FSMaction.html" target="_top" xlink:title=" ">
<polygon fill="white" stroke="#666666" points="140.5,-85.75 0,-85.75 0,-66.5 140.5,-66.5 140.5,-85.75"/>
<text text-anchor="middle" x="70.25" y="-72.25" font-family="Helvetica,sans-Serif" font-size="10.00">dunedaq::coredal::FSMaction</text>
</a>
</g>
</g>
<!-- Node2&#45;&gt;Node1 -->
<g id="edge1_Node000001_Node000002" class="edge">
<title>Node2&#45;&gt;Node1</title>
<g id="a_edge1_Node000001_Node000002"><a xlink:title=" ">
<path fill="none" stroke="#63b8ff" d="M63.8,-54.92C63.27,-46.99 63.44,-38.06 64.34,-30.78"/>
<polygon fill="#63b8ff" stroke="#63b8ff" points="60.31,-55.2 65.05,-64.68 67.26,-54.32 60.31,-55.2"/>
</a>
</g>
</g>
<!-- Node2&#45;&gt;Node1 -->
<g id="edge4_Node000001_Node000002" class="edge">
<title>Node2&#45;&gt;Node1</title>
<g id="a_edge4_Node000001_Node000002"><a xlink:title=" ">
<path fill="none" stroke="#63b8ff" d="M76.7,-54.92C77.23,-46.99 77.06,-38.06 76.16,-30.78"/>
<polygon fill="#63b8ff" stroke="#63b8ff" points="73.24,-54.32 75.45,-64.68 80.19,-55.2 73.24,-54.32"/>
</a>
</g>
</g>
<!-- Node3 -->
<g id="Node000003" class="node">
<title>Node3</title>
<g id="a_Node000003"><a xlink:href="classdunedaq_1_1conffwk_1_1DalObject.html" target="_top" xlink:title="The base class for any generated DAL object.">
<polygon fill="white" stroke="#666666" points="139.38,-141 1.12,-141 1.12,-121.75 139.38,-121.75 139.38,-141"/>
<text text-anchor="middle" x="70.25" y="-127.5" font-family="Helvetica,sans-Serif" font-size="10.00">dunedaq::conffwk::DalObject</text>
</a>
</g>
</g>
<!-- Node3&#45;&gt;Node2 -->
<g id="edge2_Node000002_Node000003" class="edge">
<title>Node3&#45;&gt;Node2</title>
<g id="a_edge2_Node000002_Node000003"><a xlink:title=" ">
<path fill="none" stroke="#63b8ff" d="M63.69,-110.42C63.2,-102.05 63.65,-92.75 65.04,-86.11"/>
<polygon fill="#63b8ff" stroke="#63b8ff" points="60.19,-110.59 64.9,-120.08 67.13,-109.72 60.19,-110.59"/>
</a>
</g>
</g>
<!-- Node3&#45;&gt;Node2 -->
<g id="edge3_Node000002_Node000003" class="edge">
<title>Node3&#45;&gt;Node2</title>
<g id="a_edge3_Node000002_Node000003"><a xlink:title=" ">
<path fill="none" stroke="#63b8ff" d="M76.81,-110.42C77.3,-102.05 76.85,-92.75 75.46,-86.11"/>
<polygon fill="#63b8ff" stroke="#63b8ff" points="73.37,-109.72 75.6,-120.08 80.31,-110.59 73.37,-109.72"/>
</a>
</g>
</g>
</g>
</svg>
