<?xml version="1.0" encoding="UTF-8" standalone="no"?>
<!DOCTYPE svg PUBLIC "-//W3C//DTD SVG 1.1//EN"
 "http://www.w3.org/Graphics/SVG/1.1/DTD/svg11.dtd">
<!-- Generated by graphviz version 9.0.0 (20230911.1827)
 -->
<!-- Title: dunedaq::appdal::TPStreamWriterApplication Pages: 1 -->
<svg width="149pt" height="216pt"
 viewBox="0.00 0.00 149.25 215.50" xmlns="http://www.w3.org/2000/svg" xmlns:xlink="http://www.w3.org/1999/xlink">
<g id="graph0" class="graph" transform="scale(1 1) rotate(0) translate(4 211.5)">
<title>dunedaq::appdal::TPStreamWriterApplication</title>
<!-- Node1 -->
<g id="Node000001" class="node">
<title>Node1</title>
<g id="a_Node000001"><a xlink:title=" ">
<polygon fill="#999999" stroke="#666666" points="137.88,-30.5 3.38,-30.5 3.38,0 137.88,0 137.88,-30.5"/>
<text text-anchor="start" x="11.38" y="-17" font-family="Helvetica,sans-Serif" font-size="10.00">dunedaq::appdal::TPStream</text>
<text text-anchor="middle" x="70.62" y="-5.75" font-family="Helvetica,sans-Serif" font-size="10.00">WriterApplication</text>
</a>
</g>
</g>
<!-- Node2 -->
<g id="Node000002" class="node">
<title>Node2</title>
<g id="a_Node000002"><a xlink:href="classdunedaq_1_1appdal_1_1SmartDaqApplication.html" target="_top" xlink:title=" ">
<polygon fill="white" stroke="#666666" points="137.5,-97 3.75,-97 3.75,-66.5 137.5,-66.5 137.5,-97"/>
<text text-anchor="start" x="11.75" y="-83.5" font-family="Helvetica,sans-Serif" font-size="10.00">dunedaq::appdal::SmartDaq</text>
<text text-anchor="middle" x="70.62" y="-72.25" font-family="Helvetica,sans-Serif" font-size="10.00">Application</text>
</a>
</g>
</g>
<!-- Node2&#45;&gt;Node1 -->
<g id="edge1_Node000001_Node000002" class="edge">
<title>Node2&#45;&gt;Node1</title>
<g id="a_edge1_Node000001_Node000002"><a xlink:title=" ">
<path fill="none" stroke="#63b8ff" d="M63.99,-54.81C63.69,-46.64 63.98,-37.91 64.87,-30.83"/>
<polygon fill="#63b8ff" stroke="#63b8ff" points="60.49,-54.9 64.75,-64.6 67.47,-54.37 60.49,-54.9"/>
</a>
</g>
</g>
<!-- Node2&#45;&gt;Node1 -->
<g id="edge6_Node000001_Node000002" class="edge">
<title>Node2&#45;&gt;Node1</title>
<g id="a_edge6_Node000001_Node000002"><a xlink:title=" ">
<path fill="none" stroke="#63b8ff" d="M77.26,-54.81C77.56,-46.64 77.27,-37.91 76.38,-30.83"/>
<polygon fill="#63b8ff" stroke="#63b8ff" points="73.78,-54.37 76.5,-64.6 80.76,-54.9 73.78,-54.37"/>
</a>
</g>
</g>
<!-- Node3 -->
<g id="Node000003" class="node">
<title>Node3</title>
<g id="a_Node000003"><a xlink:href="classdunedaq_1_1coredal_1_1Application.html" target="_top" xlink:title=" ">
<polygon fill="white" stroke="#666666" points="141.25,-152.25 0,-152.25 0,-133 141.25,-133 141.25,-152.25"/>
<text text-anchor="middle" x="70.62" y="-138.75" font-family="Helvetica,sans-Serif" font-size="10.00">dunedaq::coredal::Application</text>
</a>
</g>
</g>
<!-- Node3&#45;&gt;Node2 -->
<g id="edge2_Node000002_Node000003" class="edge">
<title>Node3&#45;&gt;Node2</title>
<g id="a_edge2_Node000002_Node000003"><a xlink:title=" ">
<path fill="none" stroke="#63b8ff" d="M64.18,-121.42C63.64,-113.49 63.82,-104.56 64.71,-97.28"/>
<polygon fill="#63b8ff" stroke="#63b8ff" points="60.69,-121.7 65.42,-131.18 67.63,-120.82 60.69,-121.7"/>
</a>
</g>
</g>
<!-- Node3&#45;&gt;Node2 -->
<g id="edge5_Node000002_Node000003" class="edge">
<title>Node3&#45;&gt;Node2</title>
<g id="a_edge5_Node000002_Node000003"><a xlink:title=" ">
<path fill="none" stroke="#63b8ff" d="M77.07,-121.42C77.61,-113.49 77.43,-104.56 76.54,-97.28"/>
<polygon fill="#63b8ff" stroke="#63b8ff" points="73.62,-120.82 75.83,-131.18 80.56,-121.7 73.62,-120.82"/>
</a>
</g>
</g>
<!-- Node4 -->
<g id="Node000004" class="node">
<title>Node4</title>
<g id="a_Node000004"><a xlink:href="classdunedaq_1_1conffwk_1_1DalObject.html" target="_top" xlink:title="The base class for any generated DAL object.">
<polygon fill="white" stroke="#666666" points="139.75,-207.5 1.5,-207.5 1.5,-188.25 139.75,-188.25 139.75,-207.5"/>
<text text-anchor="middle" x="70.62" y="-194" font-family="Helvetica,sans-Serif" font-size="10.00">dunedaq::conffwk::DalObject</text>
</a>
</g>
</g>
<!-- Node4&#45;&gt;Node3 -->
<g id="edge3_Node000003_Node000004" class="edge">
<title>Node4&#45;&gt;Node3</title>
<g id="a_edge3_Node000003_Node000004"><a xlink:title=" ">
<path fill="none" stroke="#63b8ff" d="M64.07,-176.92C63.58,-168.55 64.03,-159.25 65.42,-152.61"/>
<polygon fill="#63b8ff" stroke="#63b8ff" points="60.56,-177.09 65.27,-186.58 67.51,-176.22 60.56,-177.09"/>
</a>
</g>
</g>
<!-- Node4&#45;&gt;Node3 -->
<g id="edge4_Node000003_Node000004" class="edge">
<title>Node4&#45;&gt;Node3</title>
<g id="a_edge4_Node000003_Node000004"><a xlink:title=" ">
<path fill="none" stroke="#63b8ff" d="M77.18,-176.92C77.67,-168.55 77.22,-159.25 75.83,-152.61"/>
<polygon fill="#63b8ff" stroke="#63b8ff" points="73.74,-176.22 75.98,-186.58 80.69,-177.09 73.74,-176.22"/>
</a>
</g>
</g>
</g>
</svg>
