<?xml version="1.0" encoding="UTF-8" standalone="no"?>
<!DOCTYPE svg PUBLIC "-//W3C//DTD SVG 1.1//EN"
 "http://www.w3.org/Graphics/SVG/1.1/DTD/svg11.dtd">
<!-- Generated by graphviz version 9.0.0 (20230911.1827)
 -->
<!-- Title: dunedaq::appdal::StandaloneCandidateMakerConf Pages: 1 -->
<svg width="514pt" height="88pt"
 viewBox="0.00 0.00 513.50 87.50" xmlns="http://www.w3.org/2000/svg" xmlns:xlink="http://www.w3.org/1999/xlink">
<g id="graph0" class="graph" transform="scale(1 1) rotate(0) translate(4 83.5)">
<title>dunedaq::appdal::StandaloneCandidateMakerConf</title>
<!-- Node1 -->
<g id="Node000001" class="node">
<title>Node1</title>
<g id="a_Node000001"><a xlink:title=" ">
<polygon fill="#999999" stroke="#666666" points="313.25,-54.5 174.25,-54.5 174.25,-24 313.25,-24 313.25,-54.5"/>
<text text-anchor="start" x="182.25" y="-41" font-family="Helvetica,sans-Serif" font-size="10.00">dunedaq::appdal::Standalone</text>
<text text-anchor="middle" x="243.75" y="-29.75" font-family="Helvetica,sans-Serif" font-size="10.00">CandidateMakerConf</text>
</a>
</g>
</g>
<!-- Node3 -->
<g id="Node000003" class="node">
<title>Node3</title>
<g id="a_Node000003"><a xlink:href="classdunedaq_1_1appdal_1_1CustomTriggerCandidateMakerConf.html" target="_top" xlink:title=" ">
<polygon fill="white" stroke="#666666" points="504.38,-79.5 350.38,-79.5 350.38,-49 504.38,-49 504.38,-79.5"/>
<text text-anchor="start" x="358.38" y="-66" font-family="Helvetica,sans-Serif" font-size="10.00">dunedaq::appdal::CustomTrigger</text>
<text text-anchor="middle" x="427.38" y="-54.75" font-family="Helvetica,sans-Serif" font-size="10.00">CandidateMakerConf</text>
</a>
</g>
</g>
<!-- Node1&#45;&gt;Node3 -->
<g id="edge3_Node000001_Node000003" class="edge">
<title>Node1&#45;&gt;Node3</title>
<g id="a_edge3_Node000001_Node000003"><a xlink:title=" ">
<path fill="none" stroke="#63b8ff" d="M325.1,-43.6C336.62,-45.1 348.37,-46.77 359.6,-48.52"/>
<polygon fill="#63b8ff" stroke="#63b8ff" points="325.53,-40.13 315.18,-42.35 324.66,-47.07 325.53,-40.13"/>
</a>
</g>
</g>
<!-- Node1&#45;&gt;Node3 -->
<g id="edge4_Node000001_Node000003" class="edge">
<title>Node1&#45;&gt;Node3</title>
<g id="a_edge4_Node000001_Node000003"><a xlink:title=" ">
<path fill="none" stroke="#63b8ff" d="M322.92,-56.7C331.95,-58.03 341.15,-59.29 350.15,-60.43"/>
<polygon fill="#63b8ff" stroke="#63b8ff" points="323.51,-53.25 313.1,-55.22 322.47,-60.17 323.51,-53.25"/>
</a>
</g>
</g>
<!-- Node4 -->
<g id="Node000004" class="node">
<title>Node4</title>
<g id="a_Node000004"><a xlink:href="classdunedaq_1_1appdal_1_1RandomTriggerCandidateMakerConf.html" target="_top" xlink:title=" ">
<polygon fill="white" stroke="#666666" points="505.5,-30.5 349.25,-30.5 349.25,0 505.5,0 505.5,-30.5"/>
<text text-anchor="start" x="357.25" y="-17" font-family="Helvetica,sans-Serif" font-size="10.00">dunedaq::appdal::RandomTrigger</text>
<text text-anchor="middle" x="427.38" y="-5.75" font-family="Helvetica,sans-Serif" font-size="10.00">CandidateMakerConf</text>
</a>
</g>
</g>
<!-- Node1&#45;&gt;Node4 -->
<g id="edge5_Node000001_Node000004" class="edge">
<title>Node1&#45;&gt;Node4</title>
<g id="a_edge5_Node000001_Node000004"><a xlink:title=" ">
<path fill="none" stroke="#63b8ff" d="M324.89,-21.95C332.9,-20.83 341.02,-19.77 348.99,-18.79"/>
<polygon fill="#63b8ff" stroke="#63b8ff" points="324.57,-18.46 315.17,-23.35 325.57,-25.39 324.57,-18.46"/>
</a>
</g>
</g>
<!-- Node1&#45;&gt;Node4 -->
<g id="edge6_Node000001_Node000004" class="edge">
<title>Node1&#45;&gt;Node4</title>
<g id="a_edge6_Node000001_Node000004"><a xlink:title=" ">
<path fill="none" stroke="#63b8ff" d="M324.82,-35.38C335.62,-34.04 346.61,-32.54 357.2,-30.97"/>
<polygon fill="#63b8ff" stroke="#63b8ff" points="324.69,-31.87 315.18,-36.53 325.52,-38.82 324.69,-31.87"/>
</a>
</g>
</g>
<!-- Node2 -->
<g id="Node000002" class="node">
<title>Node2</title>
<g id="a_Node000002"><a xlink:href="classdunedaq_1_1conffwk_1_1DalObject.html" target="_top" xlink:title="The base class for any generated DAL object.">
<polygon fill="white" stroke="#666666" points="138.25,-48.88 0,-48.88 0,-29.62 138.25,-29.62 138.25,-48.88"/>
<text text-anchor="middle" x="69.12" y="-35.38" font-family="Helvetica,sans-Serif" font-size="10.00">dunedaq::conffwk::DalObject</text>
</a>
</g>
</g>
<!-- Node2&#45;&gt;Node1 -->
<g id="edge1_Node000001_Node000002" class="edge">
<title>Node2&#45;&gt;Node1</title>
<g id="a_edge1_Node000001_Node000002"><a xlink:title=" ">
<path fill="none" stroke="#63b8ff" d="M149.69,-32.52C157.77,-32.47 165.93,-32.51 173.89,-32.62"/>
<polygon fill="#63b8ff" stroke="#63b8ff" points="149.83,-29.02 139.86,-32.62 149.9,-36.02 149.83,-29.02"/>
</a>
</g>
</g>
<!-- Node2&#45;&gt;Node1 -->
<g id="edge2_Node000001_Node000002" class="edge">
<title>Node2&#45;&gt;Node1</title>
<g id="a_edge2_Node000001_Node000002"><a xlink:title=" ">
<path fill="none" stroke="#63b8ff" d="M149.69,-45.98C157.77,-46.03 165.93,-45.99 173.89,-45.88"/>
<polygon fill="#63b8ff" stroke="#63b8ff" points="149.9,-42.48 139.86,-45.88 149.83,-49.48 149.9,-42.48"/>
</a>
</g>
</g>
</g>
</svg>
