<?xml version="1.0" encoding="UTF-8" standalone="no"?>
<!DOCTYPE svg PUBLIC "-//W3C//DTD SVG 1.1//EN"
 "http://www.w3.org/Graphics/SVG/1.1/DTD/svg11.dtd">
<!-- Generated by graphviz version 9.0.0 (20230911.1827)
 -->
<!-- Title: dunedaq::appdal::FakeHSIApplication Pages: 1 -->
<svg width="2624pt" height="471pt"
 viewBox="0.00 0.00 2624.25 471.10" xmlns="http://www.w3.org/2000/svg" xmlns:xlink="http://www.w3.org/1999/xlink">
<g id="graph0" class="graph" transform="scale(1 1) rotate(0) translate(4 467.1)">
<title>dunedaq::appdal::FakeHSIApplication</title>
<!-- Node1 -->
<g id="Node000001" class="node">
<title>Node1</title>
<g id="a_Node000001"><a xlink:title=" ">
<polygon fill="#999999" stroke="#666666" points="2616.25,-247.88 2439,-247.88 2439,-228.62 2616.25,-228.62 2616.25,-247.88"/>
<text text-anchor="middle" x="2527.62" y="-234.38" font-family="Helvetica,sans-Serif" font-size="10.00">dunedaq::appdal::FakeHSIApplication</text>
</a>
</g>
</g>
<!-- Node2 -->
<g id="Node000002" class="node">
<title>Node2</title>
<g id="a_Node000002"><a xlink:href="classdunedaq_1_1appdal_1_1SmartDaqApplication.html" target="_top" xlink:title=" ">
<polygon fill="white" stroke="#666666" points="2402,-309.5 2268.25,-309.5 2268.25,-279 2402,-279 2402,-309.5"/>
<text text-anchor="start" x="2276.25" y="-296" font-family="Helvetica,sans-Serif" font-size="10.00">dunedaq::appdal::SmartDaq</text>
<text text-anchor="middle" x="2335.12" y="-284.75" font-family="Helvetica,sans-Serif" font-size="10.00">Application</text>
</a>
</g>
</g>
<!-- Node2&#45;&gt;Node1 -->
<g id="edge1_Node000001_Node000002" class="edge">
<title>Node2&#45;&gt;Node1</title>
<g id="a_edge1_Node000001_Node000002"><a xlink:title=" ">
<path fill="none" stroke="#63b8ff" d="M2381.74,-274.98C2408.65,-266.01 2442.9,-255.83 2471.34,-248.31"/>
<polygon fill="#63b8ff" stroke="#63b8ff" points="2380.84,-271.59 2372.5,-278.13 2383.09,-278.22 2380.84,-271.59"/>
</a>
</g>
</g>
<!-- Node2&#45;&gt;Node1 -->
<g id="edge31_Node000001_Node000002" class="edge">
<title>Node2&#45;&gt;Node1</title>
<g id="a_edge31_Node000001_Node000002"><a xlink:title=" ">
<path fill="none" stroke="#63b8ff" d="M2413.47,-278.16C2447.71,-268.51 2485.15,-256.71 2507.23,-248.23"/>
<polygon fill="#63b8ff" stroke="#63b8ff" points="2412.64,-274.75 2403.94,-280.8 2414.52,-281.5 2412.64,-274.75"/>
</a>
</g>
</g>
<!-- Node3 -->
<g id="Node000003" class="node">
<title>Node3</title>
<g id="a_Node000003"><a xlink:href="classdunedaq_1_1coredal_1_1Application.html" target="_top" xlink:title=" ">
<polygon fill="white" stroke="#666666" points="2231.25,-387.88 2090,-387.88 2090,-368.62 2231.25,-368.62 2231.25,-387.88"/>
<text text-anchor="middle" x="2160.62" y="-374.38" font-family="Helvetica,sans-Serif" font-size="10.00">dunedaq::coredal::Application</text>
</a>
</g>
</g>
<!-- Node3&#45;&gt;Node2 -->
<g id="edge2_Node000002_Node000003" class="edge">
<title>Node3&#45;&gt;Node2</title>
<g id="a_edge2_Node000002_Node000003"><a xlink:title=" ">
<path fill="none" stroke="#63b8ff" d="M2184.19,-362.53C2210.91,-347.35 2256.04,-324.95 2289.82,-309.84"/>
<polygon fill="#63b8ff" stroke="#63b8ff" points="2182.75,-359.32 2175.9,-367.4 2186.29,-365.35 2182.75,-359.32"/>
</a>
</g>
</g>
<!-- Node3&#45;&gt;Node2 -->
<g id="edge27_Node000002_Node000003" class="edge">
<title>Node3&#45;&gt;Node2</title>
<g id="a_edge27_Node000002_Node000003"><a xlink:title=" ">
<path fill="none" stroke="#63b8ff" d="M2203.4,-363.79C2237.5,-348.65 2284.38,-325.43 2311.74,-309.87"/>
<polygon fill="#63b8ff" stroke="#63b8ff" points="2202.42,-360.4 2194.65,-367.6 2205.22,-366.81 2202.42,-360.4"/>
</a>
</g>
</g>
<!-- Node4 -->
<g id="Node000004" class="node">
<title>Node4</title>
<g id="a_Node000004"><a xlink:href="classdunedaq_1_1conffwk_1_1DalObject.html" target="_top" xlink:title="The base class for any generated DAL object.">
<polygon fill="white" stroke="#666666" points="1509.5,-227.88 1371.25,-227.88 1371.25,-208.62 1509.5,-208.62 1509.5,-227.88"/>
<text text-anchor="middle" x="1440.38" y="-214.38" font-family="Helvetica,sans-Serif" font-size="10.00">dunedaq::conffwk::DalObject</text>
</a>
</g>
</g>
<!-- Node4&#45;&gt;Node3 -->
<g id="edge3_Node000003_Node000004" class="edge">
<title>Node4&#45;&gt;Node3</title>
<g id="a_edge3_Node000003_Node000004"><a xlink:title=" ">
<path fill="none" stroke="#63b8ff" d="M1448.89,-239.04C1461.7,-275.59 1491.83,-349.77 1546.5,-384.25 1732.92,-501.83 2018.74,-419.46 2121.33,-388.37"/>
<polygon fill="#63b8ff" stroke="#63b8ff" points="1452.22,-237.97 1445.69,-229.63 1445.6,-240.23 1452.22,-237.97"/>
</a>
</g>
</g>
<!-- Node4&#45;&gt;Node3 -->
<g id="edge20_Node000003_Node000004" class="edge">
<title>Node4&#45;&gt;Node3</title>
<g id="a_edge20_Node000003_Node000004"><a xlink:title=" ">
<path fill="none" stroke="#63b8ff" d="M1445.68,-239.08C1456.15,-279.02 1486.59,-364.46 1546.5,-402.25 1747.33,-528.92 2063.52,-423.53 2141.7,-388.3"/>
<polygon fill="#63b8ff" stroke="#63b8ff" points="1449.12,-238.41 1443.37,-229.51 1442.32,-240.05 1449.12,-238.41"/>
</a>
</g>
</g>
<!-- Node19 -->
<g id="Node000019" class="node">
<title>Node19</title>
<g id="a_Node000019"><a xlink:href="classdunedaq_1_1coredal_1_1VirtualHost.html" target="_top" xlink:title=" ">
<polygon fill="white" stroke="#666666" points="1969.25,-387.88 1827.25,-387.88 1827.25,-368.62 1969.25,-368.62 1969.25,-387.88"/>
<text text-anchor="middle" x="1898.25" y="-374.38" font-family="Helvetica,sans-Serif" font-size="10.00">dunedaq::coredal::VirtualHost</text>
</a>
</g>
</g>
<!-- Node4&#45;&gt;Node19 -->
<g id="edge22_Node000019_Node000004" class="edge">
<title>Node4&#45;&gt;Node19</title>
<g id="a_edge22_Node000019_Node000004"><a xlink:title=" ">
<path fill="none" stroke="#63b8ff" d="M1453.78,-238.07C1470.17,-266.65 1502.24,-317.7 1546.5,-341.25 1634.41,-388.02 1752.57,-386.58 1826.82,-381.69"/>
<polygon fill="#63b8ff" stroke="#63b8ff" points="1456.98,-236.63 1449.02,-229.65 1450.89,-240.07 1456.98,-236.63"/>
</a>
</g>
</g>
<!-- Node4&#45;&gt;Node19 -->
<g id="edge23_Node000019_Node000004" class="edge">
<title>Node4&#45;&gt;Node19</title>
<g id="a_edge23_Node000019_Node000004"><a xlink:title=" ">
<path fill="none" stroke="#63b8ff" d="M1448.41,-238.93C1462.4,-271.55 1496.75,-332.78 1546.5,-359.25 1653.01,-415.92 1803.94,-401.81 1867.36,-388.28"/>
<polygon fill="#63b8ff" stroke="#63b8ff" points="1451.7,-237.73 1444.74,-229.73 1445.19,-240.32 1451.7,-237.73"/>
</a>
</g>
</g>
<!-- Node20 -->
<g id="Node000020" class="node">
<title>Node20</title>
<g id="a_Node000020"><a xlink:href="classdunedaq_1_1coredal_1_1PhysicalHost.html" target="_top" xlink:title=" ">
<polygon fill="white" stroke="#666666" points="1706.88,-340.88 1555.88,-340.88 1555.88,-321.62 1706.88,-321.62 1706.88,-340.88"/>
<text text-anchor="middle" x="1631.38" y="-327.38" font-family="Helvetica,sans-Serif" font-size="10.00">dunedaq::coredal::PhysicalHost</text>
</a>
</g>
</g>
<!-- Node4&#45;&gt;Node20 -->
<g id="edge25_Node000020_Node000004" class="edge">
<title>Node4&#45;&gt;Node20</title>
<g id="a_edge25_Node000020_Node000004"><a xlink:title=" ">
<path fill="none" stroke="#63b8ff" d="M1462.01,-236.14C1481.51,-256.04 1512.74,-286.97 1546.5,-304.25 1563.87,-313.14 1585.42,-317.65 1602.33,-321.13"/>
<polygon fill="#63b8ff" stroke="#63b8ff" points="1464.71,-233.9 1455.22,-229.2 1459.71,-238.79 1464.71,-233.9"/>
</a>
</g>
</g>
<!-- Node4&#45;&gt;Node20 -->
<g id="edge26_Node000020_Node000004" class="edge">
<title>Node4&#45;&gt;Node20</title>
<g id="a_edge26_Node000020_Node000004"><a xlink:title=" ">
<path fill="none" stroke="#63b8ff" d="M1452.15,-237.43C1469.63,-261.68 1506.26,-301.65 1546.5,-322.25 1549.42,-323.74 1552.45,-325.11 1555.56,-326.36"/>
<polygon fill="#63b8ff" stroke="#63b8ff" points="1455.21,-235.7 1446.73,-229.36 1449.4,-239.61 1455.21,-235.7"/>
</a>
</g>
</g>
<!-- Node21 -->
<g id="Node000021" class="node">
<title>Node21</title>
<g id="a_Node000021"><a xlink:href="classdunedaq_1_1appdal_1_1SourceIDConf.html" target="_top" xlink:title=" ">
<polygon fill="white" stroke="#666666" points="1706.88,-303.88 1555.88,-303.88 1555.88,-284.62 1706.88,-284.62 1706.88,-303.88"/>
<text text-anchor="middle" x="1631.38" y="-290.38" font-family="Helvetica,sans-Serif" font-size="10.00">dunedaq::appdal::SourceIDConf</text>
</a>
</g>
</g>
<!-- Node4&#45;&gt;Node21 -->
<g id="edge29_Node000021_Node000004" class="edge">
<title>Node4&#45;&gt;Node21</title>
<g id="a_edge29_Node000021_Node000004"><a xlink:title=" ">
<path fill="none" stroke="#63b8ff" d="M1480.52,-233.58C1494.94,-241.14 1511.63,-249.78 1527.5,-256.25 1556.54,-268.09 1592.07,-276.94 1612.87,-284.17"/>
<polygon fill="#63b8ff" stroke="#63b8ff" points="1482.29,-230.55 1471.8,-229.01 1479.04,-236.75 1482.29,-230.55"/>
</a>
</g>
</g>
<!-- Node4&#45;&gt;Node21 -->
<g id="edge30_Node000021_Node000004" class="edge">
<title>Node4&#45;&gt;Node21</title>
<g id="a_edge30_Node000021_Node000004"><a xlink:title=" ">
<path fill="none" stroke="#63b8ff" d="M1457.29,-235.07C1474.19,-247.74 1501.92,-263.82 1527.5,-274.25 1536.44,-277.89 1545.98,-281.25 1555.53,-284.22"/>
<polygon fill="#63b8ff" stroke="#63b8ff" points="1459.84,-232.63 1449.87,-229.03 1455.42,-238.06 1459.84,-232.63"/>
</a>
</g>
</g>
<!-- Node22 -->
<g id="Node000022" class="node">
<title>Node22</title>
<g id="a_Node000022"><a xlink:href="classdunedaq_1_1appdal_1_1ReadoutModuleConf.html" target="_top" xlink:title=" ">
<polygon fill="white" stroke="#666666" points="2223.75,-219.5 2097.5,-219.5 2097.5,-189 2223.75,-189 2223.75,-219.5"/>
<text text-anchor="start" x="2105.5" y="-206" font-family="Helvetica,sans-Serif" font-size="10.00">dunedaq::appdal::Readout</text>
<text text-anchor="middle" x="2160.62" y="-194.75" font-family="Helvetica,sans-Serif" font-size="10.00">ModuleConf</text>
</a>
</g>
</g>
<!-- Node4&#45;&gt;Node22 -->
<g id="edge33_Node000022_Node000004" class="edge">
<title>Node4&#45;&gt;Node22</title>
<g id="a_edge33_Node000022_Node000004"><a xlink:title=" ">
<path fill="none" stroke="#63b8ff" d="M1521.03,-214.33C1529.62,-214.68 1538.24,-215.01 1546.5,-215.25 1780,-221.91 1838.99,-221.79 2072,-205.25 2080.25,-204.66 2088.91,-203.88 2097.46,-203.09"/>
<polygon fill="#63b8ff" stroke="#63b8ff" points="1521.42,-210.84 1511.29,-213.93 1521.14,-217.83 1521.42,-210.84"/>
</a>
</g>
</g>
<!-- Node4&#45;&gt;Node22 -->
<g id="edge34_Node000022_Node000004" class="edge">
<title>Node4&#45;&gt;Node22</title>
<g id="a_edge34_Node000022_Node000004"><a xlink:title=" ">
<path fill="none" stroke="#63b8ff" d="M1485.27,-229.6C1504.11,-231.49 1526.37,-232.68 1546.5,-233.25 1780,-239.91 1838.99,-239.79 2072,-223.25 2082.84,-222.48 2094.41,-221.37 2105.47,-219.97"/>
<polygon fill="#63b8ff" stroke="#63b8ff" points="1485.86,-226.14 1475.53,-228.5 1485.08,-233.1 1485.86,-226.14"/>
</a>
</g>
</g>
<!-- Node23 -->
<g id="Node000023" class="node">
<title>Node23</title>
<g id="a_Node000023"><a xlink:href="classdunedaq_1_1appdal_1_1RequestHandler.html" target="_top" xlink:title=" ">
<polygon fill="white" stroke="#666666" points="1961.38,-206.5 1835.12,-206.5 1835.12,-176 1961.38,-176 1961.38,-206.5"/>
<text text-anchor="start" x="1843.12" y="-193" font-family="Helvetica,sans-Serif" font-size="10.00">dunedaq::appdal::Request</text>
<text text-anchor="middle" x="1898.25" y="-181.75" font-family="Helvetica,sans-Serif" font-size="10.00">Handler</text>
</a>
</g>
</g>
<!-- Node4&#45;&gt;Node23 -->
<g id="edge36_Node000023_Node000004" class="edge">
<title>Node4&#45;&gt;Node23</title>
<g id="a_edge36_Node000023_Node000004"><a xlink:title=" ">
<path fill="none" stroke="#63b8ff" d="M1521.05,-208.26C1610.32,-200.86 1753.2,-192.55 1834.77,-190.13"/>
<polygon fill="#63b8ff" stroke="#63b8ff" points="1520.8,-204.77 1511.13,-209.1 1521.39,-211.74 1520.8,-204.77"/>
</a>
</g>
</g>
<!-- Node4&#45;&gt;Node23 -->
<g id="edge37_Node000023_Node000004" class="edge">
<title>Node4&#45;&gt;Node23</title>
<g id="a_edge37_Node000023_Node000004"><a xlink:title=" ">
<path fill="none" stroke="#63b8ff" d="M1521.05,-218.8C1610.32,-215.63 1753.2,-207.01 1834.77,-199.77"/>
<polygon fill="#63b8ff" stroke="#63b8ff" points="1521.01,-215.3 1511.14,-219.14 1521.25,-222.3 1521.01,-215.3"/>
</a>
</g>
</g>
<!-- Node24 -->
<g id="Node000024" class="node">
<title>Node24</title>
<g id="a_Node000024"><a xlink:href="classdunedaq_1_1appdal_1_1DataRecorderConf.html" target="_top" xlink:title=" ">
<polygon fill="white" stroke="#666666" points="1716.25,-153.88 1546.5,-153.88 1546.5,-134.62 1716.25,-134.62 1716.25,-153.88"/>
<text text-anchor="middle" x="1631.38" y="-140.38" font-family="Helvetica,sans-Serif" font-size="10.00">dunedaq::appdal::DataRecorderConf</text>
</a>
</g>
</g>
<!-- Node4&#45;&gt;Node24 -->
<g id="edge39_Node000024_Node000004" class="edge">
<title>Node4&#45;&gt;Node24</title>
<g id="a_edge39_Node000024_Node000004"><a xlink:title=" ">
<path fill="none" stroke="#63b8ff" d="M1457.26,-201.33C1474.12,-188.59 1501.83,-172.45 1527.5,-162.25 1534.71,-159.39 1542.32,-156.74 1550.01,-154.35"/>
<polygon fill="#63b8ff" stroke="#63b8ff" points="1455.36,-198.37 1449.85,-207.42 1459.8,-203.78 1455.36,-198.37"/>
</a>
</g>
</g>
<!-- Node4&#45;&gt;Node24 -->
<g id="edge40_Node000024_Node000004" class="edge">
<title>Node4&#45;&gt;Node24</title>
<g id="a_edge40_Node000024_Node000004"><a xlink:title=" ">
<path fill="none" stroke="#63b8ff" d="M1480.11,-202.95C1494.6,-195.32 1511.45,-186.63 1527.5,-180.25 1555.99,-168.93 1590.79,-160.94 1611.73,-154.27"/>
<polygon fill="#63b8ff" stroke="#63b8ff" points="1478.57,-199.8 1471.36,-207.55 1481.83,-205.99 1478.57,-199.8"/>
</a>
</g>
</g>
<!-- Node25 -->
<g id="Node000025" class="node">
<title>Node25</title>
<g id="a_Node000025"><a xlink:href="classdunedaq_1_1appdal_1_1LatencyBuffer.html" target="_top" xlink:title=" ">
<polygon fill="white" stroke="#666666" points="1693.75,-116.5 1569,-116.5 1569,-86 1693.75,-86 1693.75,-116.5"/>
<text text-anchor="start" x="1577" y="-103" font-family="Helvetica,sans-Serif" font-size="10.00">dunedaq::appdal::Latency</text>
<text text-anchor="middle" x="1631.38" y="-91.75" font-family="Helvetica,sans-Serif" font-size="10.00">Buffer</text>
</a>
</g>
</g>
<!-- Node4&#45;&gt;Node25 -->
<g id="edge42_Node000025_Node000004" class="edge">
<title>Node4&#45;&gt;Node25</title>
<g id="a_edge42_Node000025_Node000004"><a xlink:title=" ">
<path fill="none" stroke="#63b8ff" d="M1452.88,-199.03C1470.86,-175.61 1507.6,-137.58 1546.5,-116.25 1553.41,-112.46 1560.97,-109.23 1568.63,-106.54"/>
<polygon fill="#63b8ff" stroke="#63b8ff" points="1450.05,-196.97 1447.07,-207.14 1455.74,-201.05 1450.05,-196.97"/>
</a>
</g>
</g>
<!-- Node4&#45;&gt;Node25 -->
<g id="edge43_Node000025_Node000004" class="edge">
<title>Node4&#45;&gt;Node25</title>
<g id="a_edge43_Node000025_Node000004"><a xlink:title=" ">
<path fill="none" stroke="#63b8ff" d="M1463.42,-200.44C1483.23,-181.34 1514.11,-152.01 1546.5,-134.25 1560.31,-126.68 1576.74,-121.3 1591.39,-116.97"/>
<polygon fill="#63b8ff" stroke="#63b8ff" points="1461.24,-197.68 1456.47,-207.14 1466.1,-202.72 1461.24,-197.68"/>
</a>
</g>
</g>
<!-- Node26 -->
<g id="Node000026" class="node">
<title>Node26</title>
<g id="a_Node000026"><a xlink:href="classdunedaq_1_1appdal_1_1DataProcessor.html" target="_top" xlink:title=" ">
<polygon fill="white" stroke="#666666" points="1708.75,-67.88 1554,-67.88 1554,-48.62 1708.75,-48.62 1708.75,-67.88"/>
<text text-anchor="middle" x="1631.38" y="-54.38" font-family="Helvetica,sans-Serif" font-size="10.00">dunedaq::appdal::DataProcessor</text>
</a>
</g>
</g>
<!-- Node4&#45;&gt;Node26 -->
<g id="edge45_Node000026_Node000004" class="edge">
<title>Node4&#45;&gt;Node26</title>
<g id="a_edge45_Node000026_Node000004"><a xlink:title=" ">
<path fill="none" stroke="#63b8ff" d="M1448.12,-198.1C1462.03,-164.94 1496.81,-100.56 1546.5,-68.25 1548.75,-66.79 1551.1,-65.43 1553.53,-64.19"/>
<polygon fill="#63b8ff" stroke="#63b8ff" points="1445.02,-196.43 1444.63,-207.02 1451.54,-198.98 1445.02,-196.43"/>
</a>
</g>
</g>
<!-- Node4&#45;&gt;Node26 -->
<g id="edge46_Node000026_Node000004" class="edge">
<title>Node4&#45;&gt;Node26</title>
<g id="a_edge46_Node000026_Node000004"><a xlink:title=" ">
<path fill="none" stroke="#63b8ff" d="M1453.67,-198.2C1470.14,-168.7 1502.46,-114.88 1546.5,-86.25 1561.65,-76.4 1581.21,-71.62 1597.64,-68.36"/>
<polygon fill="#63b8ff" stroke="#63b8ff" points="1450.65,-196.44 1448.88,-206.88 1456.78,-199.82 1450.65,-196.44"/>
</a>
</g>
</g>
<!-- Node27 -->
<g id="Node000027" class="node">
<title>Node27</title>
<g id="a_Node000027"><a xlink:href="classdunedaq_1_1appdal_1_1FakeHSIEventGeneratorConf.html" target="_top" xlink:title=" ">
<polygon fill="white" stroke="#666666" points="1708.38,-30.5 1554.38,-30.5 1554.38,0 1708.38,0 1708.38,-30.5"/>
<text text-anchor="start" x="1562.38" y="-17" font-family="Helvetica,sans-Serif" font-size="10.00">dunedaq::appdal::FakeHSIEvent</text>
<text text-anchor="middle" x="1631.38" y="-5.75" font-family="Helvetica,sans-Serif" font-size="10.00">GeneratorConf</text>
</a>
</g>
</g>
<!-- Node4&#45;&gt;Node27 -->
<g id="edge48_Node000027_Node000004" class="edge">
<title>Node4&#45;&gt;Node27</title>
<g id="a_edge48_Node000027_Node000004"><a xlink:title=" ">
<path fill="none" stroke="#63b8ff" d="M1446.27,-197.31C1457.75,-157.93 1489.82,-74.17 1546.5,-30.25 1548.89,-28.39 1551.43,-26.68 1554.06,-25.11"/>
<polygon fill="#63b8ff" stroke="#63b8ff" points="1442.94,-196.19 1443.7,-206.76 1449.7,-198.02 1442.94,-196.19"/>
</a>
</g>
</g>
<!-- Node4&#45;&gt;Node27 -->
<g id="edge49_Node000027_Node000004" class="edge">
<title>Node4&#45;&gt;Node27</title>
<g id="a_edge49_Node000027_Node000004"><a xlink:title=" ">
<path fill="none" stroke="#63b8ff" d="M1449.77,-197.56C1463.57,-161.53 1494.8,-88.31 1546.5,-48.25 1556.92,-40.18 1569.94,-34.82 1582.59,-30.91"/>
<polygon fill="#63b8ff" stroke="#63b8ff" points="1446.53,-196.24 1446.29,-206.83 1453.08,-198.7 1446.53,-196.24"/>
</a>
</g>
</g>
<!-- Node5 -->
<g id="Node000005" class="node">
<title>Node5</title>
<g id="a_Node000005"><a xlink:href="classdunedaq_1_1conffwk_1_1Configuration.html" target="_top" xlink:title=" ">
<polygon fill="white" stroke="#666666" points="644.5,-228.88 492.75,-228.88 492.75,-209.62 644.5,-209.62 644.5,-228.88"/>
<text text-anchor="middle" x="568.62" y="-215.38" font-family="Helvetica,sans-Serif" font-size="10.00">dunedaq::conffwk::Configuration</text>
</a>
</g>
</g>
<!-- Node5&#45;&gt;Node4 -->
<g id="edge4_Node000004_Node000005" class="edge">
<title>Node5&#45;&gt;Node4</title>
<g id="a_edge4_Node000004_Node000005"><a xlink:title=" ">
<path fill="none" stroke="#9a32cd" stroke-dasharray="5,2" d="M656.08,-211.02C708.87,-206.68 777.77,-202.25 839,-202.25 839,-202.25 839,-202.25 1249.5,-202.25 1289.86,-202.25 1334.87,-205.88 1370.94,-209.69"/>
<polygon fill="#9a32cd" stroke="#9a32cd" points="655.91,-207.52 646.24,-211.84 656.49,-214.49 655.91,-207.52"/>
</a>
</g>
<text text-anchor="middle" x="1056.25" y="-204" font-family="Helvetica,sans-Serif" font-size="10.00" fill="grey"> p_db</text>
</g>
<!-- Node14 -->
<g id="Node000014" class="node">
<title>Node14</title>
<g id="a_Node000014"><a xlink:href="classdunedaq_1_1conffwk_1_1ConfigurationImpl.html" target="_top" xlink:title="Provides pure virtual interface used by the Configuration class.">
<polygon fill="white" stroke="#666666" points="925.25,-275.88 754.75,-275.88 754.75,-256.62 925.25,-256.62 925.25,-275.88"/>
<text text-anchor="middle" x="840" y="-262.38" font-family="Helvetica,sans-Serif" font-size="10.00">dunedaq::conffwk::ConfigurationImpl</text>
</a>
</g>
</g>
<!-- Node5&#45;&gt;Node14 -->
<g id="edge16_Node000014_Node000005" class="edge">
<title>Node5&#45;&gt;Node14</title>
<g id="a_edge16_Node000014_Node000005"><a xlink:title=" ">
<path fill="none" stroke="#9a32cd" stroke-dasharray="5,2" d="M610.1,-232.67C627.25,-237.91 647.56,-243.54 666.25,-247.25 694.81,-252.91 726.38,-257.01 754.64,-259.91"/>
<polygon fill="#9a32cd" stroke="#9a32cd" points="611.36,-229.39 600.77,-229.75 609.27,-236.08 611.36,-229.39"/>
</a>
</g>
<text text-anchor="middle" x="701.5" y="-259" font-family="Helvetica,sans-Serif" font-size="10.00" fill="grey"> m_conf</text>
</g>
<!-- Node6 -->
<g id="Node000006" class="node">
<title>Node6</title>
<g id="a_Node000006"><a xlink:href="classdunedaq_1_1conffwk_1_1map.html" target="_top" xlink:title=" ">
<polygon fill="white" stroke="#666666" points="355.88,-283.5 206.38,-283.5 206.38,-253 355.88,-253 355.88,-283.5"/>
<text text-anchor="start" x="214.38" y="-270" font-family="Helvetica,sans-Serif" font-size="10.00">dunedaq::conffwk::map</text>
<text text-anchor="middle" x="281.12" y="-258.75" font-family="Helvetica,sans-Serif" font-size="10.00">&lt; dunedaq::conffwk::class_t * &gt;</text>
</a>
</g>
</g>
<!-- Node6&#45;&gt;Node5 -->
<g id="edge5_Node000005_Node000006" class="edge">
<title>Node6&#45;&gt;Node5</title>
<g id="a_edge5_Node000005_Node000006"><a xlink:title=" ">
<path fill="none" stroke="#9a32cd" stroke-dasharray="5,2" d="M367.33,-259.75C399.91,-255.89 437.32,-250.72 471,-244.25 491.76,-240.26 514.68,-234.4 532.98,-229.35"/>
<polygon fill="#9a32cd" stroke="#9a32cd" points="367.05,-256.26 357.52,-260.88 367.86,-263.21 367.05,-256.26"/>
</a>
</g>
<text text-anchor="start" x="383.25" y="-292.75" font-family="Helvetica,sans-Serif" font-size="10.00" fill="grey"> p_all_classes_desc</text>
<text text-anchor="middle" x="427.12" y="-281.5" font-family="Helvetica,sans-Serif" font-size="10.00" fill="grey">_cache</text>
<text text-anchor="start" x="383.25" y="-270.25" font-family="Helvetica,sans-Serif" font-size="10.00" fill="grey">p_direct_classes</text>
<text text-anchor="middle" x="427.12" y="-259" font-family="Helvetica,sans-Serif" font-size="10.00" fill="grey">_desc_cache</text>
</g>
<!-- Node7 -->
<g id="Node000007" class="node">
<title>Node7</title>
<g id="a_Node000007"><a xlink:title=" ">
<polygon fill="white" stroke="#666666" points="134.12,-311.12 25.88,-311.12 25.88,-269.38 134.12,-269.38 134.12,-311.12"/>
<text text-anchor="start" x="33.88" y="-297.62" font-family="Helvetica,sans-Serif" font-size="10.00">std::unordered_map</text>
<text text-anchor="start" x="33.88" y="-286.38" font-family="Helvetica,sans-Serif" font-size="10.00">&lt; std::string, dunedaq</text>
<text text-anchor="middle" x="80" y="-275.12" font-family="Helvetica,sans-Serif" font-size="10.00">::conffwk::class_t * &gt;</text>
</a>
</g>
</g>
<!-- Node7&#45;&gt;Node6 -->
<g id="edge6_Node000006_Node000007" class="edge">
<title>Node7&#45;&gt;Node6</title>
<g id="a_edge6_Node000006_Node000007"><a xlink:title=" ">
<path fill="none" stroke="#63b8ff" d="M146.01,-283.07C165.25,-280.94 186.45,-278.6 206.21,-276.42"/>
<polygon fill="#63b8ff" stroke="#63b8ff" points="145.68,-279.58 136.13,-284.16 146.45,-286.54 145.68,-279.58"/>
</a>
</g>
</g>
<!-- Node8 -->
<g id="Node000008" class="node">
<title>Node8</title>
<g id="a_Node000008"><a xlink:href="classdunedaq_1_1conffwk_1_1fmap.html" target="_top" xlink:title=" ">
<polygon fill="white" stroke="#666666" points="339.75,-234.5 222.5,-234.5 222.5,-204 339.75,-204 339.75,-234.5"/>
<text text-anchor="start" x="230.5" y="-221" font-family="Helvetica,sans-Serif" font-size="10.00">dunedaq::conffwk::fmap</text>
<text text-anchor="middle" x="281.12" y="-209.75" font-family="Helvetica,sans-Serif" font-size="10.00">&lt; conffwk::fset &gt;</text>
</a>
</g>
</g>
<!-- Node8&#45;&gt;Node5 -->
<g id="edge7_Node000005_Node000008" class="edge">
<title>Node8&#45;&gt;Node5</title>
<g id="a_edge7_Node000005_Node000008"><a xlink:title=" ">
<path fill="none" stroke="#9a32cd" stroke-dasharray="5,2" d="M351.65,-219.25C394.28,-219.25 448.86,-219.25 492.49,-219.25"/>
<polygon fill="#9a32cd" stroke="#9a32cd" points="351.76,-215.75 341.76,-219.25 351.76,-222.75 351.76,-215.75"/>
</a>
</g>
<text text-anchor="middle" x="427.12" y="-232.25" font-family="Helvetica,sans-Serif" font-size="10.00" fill="grey"> p_subclasses</text>
<text text-anchor="middle" x="427.12" y="-221" font-family="Helvetica,sans-Serif" font-size="10.00" fill="grey">p_superclasses</text>
</g>
<!-- Node9 -->
<g id="Node000009" class="node">
<title>Node9</title>
<g id="a_Node000009"><a xlink:title=" ">
<polygon fill="white" stroke="#666666" points="136.75,-251.75 23.25,-251.75 23.25,-198.75 136.75,-198.75 136.75,-251.75"/>
<text text-anchor="start" x="31.25" y="-238.25" font-family="Helvetica,sans-Serif" font-size="10.00">std::unordered_map</text>
<text text-anchor="start" x="31.25" y="-227" font-family="Helvetica,sans-Serif" font-size="10.00">&lt; const std::string</text>
<text text-anchor="start" x="31.25" y="-215.75" font-family="Helvetica,sans-Serif" font-size="10.00"> *, conffwk::fset , string</text>
<text text-anchor="middle" x="80" y="-204.5" font-family="Helvetica,sans-Serif" font-size="10.00">_ptr_hash &gt;</text>
</a>
</g>
</g>
<!-- Node9&#45;&gt;Node8 -->
<g id="edge8_Node000008_Node000009" class="edge">
<title>Node9&#45;&gt;Node8</title>
<g id="a_edge8_Node000008_Node000009"><a xlink:title=" ">
<path fill="none" stroke="#63b8ff" d="M148.49,-223.22C172.4,-222.5 199.07,-221.69 222.12,-221"/>
<polygon fill="#63b8ff" stroke="#63b8ff" points="148.4,-219.72 138.51,-223.52 148.61,-226.71 148.4,-219.72"/>
</a>
</g>
</g>
<!-- Node10 -->
<g id="Node000010" class="node">
<title>Node10</title>
<g id="a_Node000010"><a xlink:href="classdunedaq_1_1conffwk_1_1map.html" target="_top" xlink:title=" ">
<polygon fill="white" stroke="#666666" points="342,-183.38 220.25,-183.38 220.25,-119.12 342,-119.12 342,-183.38"/>
<text text-anchor="start" x="228.25" y="-169.88" font-family="Helvetica,sans-Serif" font-size="10.00">dunedaq::conffwk::map</text>
<text text-anchor="start" x="228.25" y="-158.62" font-family="Helvetica,sans-Serif" font-size="10.00">&lt; std::list&lt; dunedaq</text>
<text text-anchor="start" x="228.25" y="-147.38" font-family="Helvetica,sans-Serif" font-size="10.00">::conffwk::Configuration</text>
<text text-anchor="start" x="228.25" y="-136.12" font-family="Helvetica,sans-Serif" font-size="10.00">::AttributeConverterBase</text>
<text text-anchor="middle" x="281.12" y="-124.88" font-family="Helvetica,sans-Serif" font-size="10.00"> * &gt; * &gt;</text>
</a>
</g>
</g>
<!-- Node10&#45;&gt;Node5 -->
<g id="edge9_Node000005_Node000010" class="edge">
<title>Node10&#45;&gt;Node5</title>
<g id="a_edge9_Node000005_Node000010"><a xlink:title=" ">
<path fill="none" stroke="#9a32cd" stroke-dasharray="5,2" d="M353.25,-168.19C407.46,-181.1 480.26,-198.44 525.55,-209.23"/>
<polygon fill="#9a32cd" stroke="#9a32cd" points="354.33,-164.85 343.8,-165.94 352.71,-171.66 354.33,-164.85"/>
</a>
</g>
<text text-anchor="middle" x="427.12" y="-197" font-family="Helvetica,sans-Serif" font-size="10.00" fill="grey"> m_convert_map</text>
</g>
<!-- Node11 -->
<g id="Node000011" class="node">
<title>Node11</title>
<g id="a_Node000011"><a xlink:title=" ">
<polygon fill="white" stroke="#666666" points="160,-180.38 0,-180.38 0,-116.12 160,-116.12 160,-180.38"/>
<text text-anchor="start" x="8" y="-166.88" font-family="Helvetica,sans-Serif" font-size="10.00">std::unordered_map</text>
<text text-anchor="start" x="8" y="-155.62" font-family="Helvetica,sans-Serif" font-size="10.00">&lt; std::string, std::</text>
<text text-anchor="start" x="8" y="-144.38" font-family="Helvetica,sans-Serif" font-size="10.00">list&lt; dunedaq::conffwk</text>
<text text-anchor="start" x="8" y="-133.12" font-family="Helvetica,sans-Serif" font-size="10.00">::Configuration::AttributeConverter</text>
<text text-anchor="middle" x="80" y="-121.88" font-family="Helvetica,sans-Serif" font-size="10.00">Base * &gt; * &gt;</text>
</a>
</g>
</g>
<!-- Node11&#45;&gt;Node10 -->
<g id="edge10_Node000010_Node000011" class="edge">
<title>Node11&#45;&gt;Node10</title>
<g id="a_edge10_Node000010_Node000011"><a xlink:title=" ">
<path fill="none" stroke="#63b8ff" d="M171.53,-149.61C187.91,-149.86 204.61,-150.11 219.85,-150.34"/>
<polygon fill="#63b8ff" stroke="#63b8ff" points="171.84,-146.12 161.78,-149.47 171.73,-153.12 171.84,-146.12"/>
</a>
</g>
</g>
<!-- Node12 -->
<g id="Node000012" class="node">
<title>Node12</title>
<g id="a_Node000012"><a xlink:href="classdunedaq_1_1conffwk_1_1fmap.html" target="_top" xlink:title=" ">
<polygon fill="white" stroke="#666666" points="365.25,-93.5 197,-93.5 197,-63 365.25,-63 365.25,-93.5"/>
<text text-anchor="start" x="205" y="-80" font-family="Helvetica,sans-Serif" font-size="10.00">dunedaq::conffwk::fmap</text>
<text text-anchor="middle" x="281.12" y="-68.75" font-family="Helvetica,sans-Serif" font-size="10.00">&lt; dunedaq::conffwk::CacheBase * &gt;</text>
</a>
</g>
</g>
<!-- Node12&#45;&gt;Node5 -->
<g id="edge11_Node000005_Node000012" class="edge">
<title>Node12&#45;&gt;Node5</title>
<g id="a_edge11_Node000005_Node000012"><a xlink:title=" ">
<path fill="none" stroke="#9a32cd" stroke-dasharray="5,2" d="M335.34,-98.01C345.34,-101.93 355.66,-106.11 365.25,-110.25 413.11,-130.91 425.12,-136.24 471,-161 500.3,-176.82 533.3,-197.31 552.16,-209.3"/>
<polygon fill="#9a32cd" stroke="#9a32cd" points="336.68,-94.77 326.09,-94.43 334.15,-101.3 336.68,-94.77"/>
</a>
</g>
<text text-anchor="middle" x="427.12" y="-162" font-family="Helvetica,sans-Serif" font-size="10.00" fill="grey"> m_cache_map</text>
</g>
<!-- Node13 -->
<g id="Node000013" class="node">
<title>Node13</title>
<g id="a_Node000013"><a xlink:title=" ">
<polygon fill="white" stroke="#666666" points="133,-98.38 27,-98.38 27,-34.12 133,-34.12 133,-98.38"/>
<text text-anchor="start" x="35" y="-84.88" font-family="Helvetica,sans-Serif" font-size="10.00">std::unordered_map</text>
<text text-anchor="start" x="35" y="-73.62" font-family="Helvetica,sans-Serif" font-size="10.00">&lt; const std::string</text>
<text text-anchor="start" x="35" y="-62.38" font-family="Helvetica,sans-Serif" font-size="10.00"> *, dunedaq::conffwk</text>
<text text-anchor="start" x="35" y="-51.12" font-family="Helvetica,sans-Serif" font-size="10.00">::CacheBase *, string</text>
<text text-anchor="middle" x="80" y="-39.88" font-family="Helvetica,sans-Serif" font-size="10.00">_ptr_hash &gt;</text>
</a>
</g>
</g>
<!-- Node13&#45;&gt;Node12 -->
<g id="edge12_Node000012_Node000013" class="edge">
<title>Node13&#45;&gt;Node12</title>
<g id="a_edge12_Node000012_Node000013"><a xlink:title=" ">
<path fill="none" stroke="#63b8ff" d="M144.51,-70.08C161.06,-71.07 179.16,-72.17 196.58,-73.22"/>
<polygon fill="#63b8ff" stroke="#63b8ff" points="145.02,-66.6 134.83,-69.49 144.6,-73.59 145.02,-66.6"/>
</a>
</g>
</g>
<!-- Node14&#45;&gt;Node5 -->
<g id="edge13_Node000005_Node000014" class="edge">
<title>Node14&#45;&gt;Node5</title>
<g id="a_edge13_Node000005_Node000014"><a xlink:title=" ">
<path fill="none" stroke="#9a32cd" stroke-dasharray="5,2" d="M799.44,-252.66C780.65,-246.69 757.76,-240.12 736.75,-236 706.99,-230.16 673.83,-226.3 644.94,-223.78"/>
<polygon fill="#9a32cd" stroke="#9a32cd" points="798.24,-255.95 808.83,-255.71 800.4,-249.29 798.24,-255.95"/>
</a>
</g>
<text text-anchor="middle" x="701.5" y="-237" font-family="Helvetica,sans-Serif" font-size="10.00" fill="grey"> m_impl</text>
</g>
<!-- Node18 -->
<g id="Node000018" class="node">
<title>Node18</title>
<g id="a_Node000018"><a xlink:href="classdunedaq_1_1conffwk_1_1ConfigObjectImpl.html" target="_top" xlink:title="Implements database objects.">
<polygon fill="white" stroke="#666666" points="1117.5,-273.5 995,-273.5 995,-243 1117.5,-243 1117.5,-273.5"/>
<text text-anchor="start" x="1003" y="-260" font-family="Helvetica,sans-Serif" font-size="10.00">dunedaq::conffwk::Config</text>
<text text-anchor="middle" x="1056.25" y="-248.75" font-family="Helvetica,sans-Serif" font-size="10.00">ObjectImpl</text>
</a>
</g>
</g>
<!-- Node14&#45;&gt;Node18 -->
<g id="edge19_Node000018_Node000014" class="edge">
<title>Node14&#45;&gt;Node18</title>
<g id="a_edge19_Node000018_Node000014"><a xlink:title=" ">
<path fill="none" stroke="#9a32cd" stroke-dasharray="5,2" d="M937.12,-262.66C956.67,-261.93 976.73,-261.18 994.63,-260.51"/>
<polygon fill="#9a32cd" stroke="#9a32cd" points="937.05,-259.16 927.19,-263.03 937.31,-266.16 937.05,-259.16"/>
</a>
</g>
<text text-anchor="middle" x="960.12" y="-264" font-family="Helvetica,sans-Serif" font-size="10.00" fill="grey"> m_impl</text>
</g>
<!-- Node15 -->
<g id="Node000015" class="node">
<title>Node15</title>
<g id="a_Node000015"><a xlink:href="classdunedaq_1_1conffwk_1_1pmap.html" target="_top" xlink:title=" ">
<polygon fill="white" stroke="#666666" points="648.25,-351.75 489,-351.75 489,-298.75 648.25,-298.75 648.25,-351.75"/>
<text text-anchor="start" x="497" y="-338.25" font-family="Helvetica,sans-Serif" font-size="10.00">dunedaq::conffwk::pmap</text>
<text text-anchor="start" x="497" y="-327" font-family="Helvetica,sans-Serif" font-size="10.00">&lt; dunedaq::conffwk::map</text>
<text text-anchor="start" x="497" y="-315.75" font-family="Helvetica,sans-Serif" font-size="10.00">&lt; dunedaq::conffwk::ConfigObject</text>
<text text-anchor="middle" x="568.62" y="-304.5" font-family="Helvetica,sans-Serif" font-size="10.00">Impl * &gt; * &gt;</text>
</a>
</g>
</g>
<!-- Node15&#45;&gt;Node14 -->
<g id="edge14_Node000014_Node000015" class="edge">
<title>Node15&#45;&gt;Node14</title>
<g id="a_edge14_Node000014_Node000015"><a xlink:title=" ">
<path fill="none" stroke="#9a32cd" stroke-dasharray="5,2" d="M659.8,-305.5C704.43,-295.72 756.41,-284.34 792.85,-276.36"/>
<polygon fill="#9a32cd" stroke="#9a32cd" points="659.12,-302.06 650.1,-307.62 660.62,-308.9 659.12,-302.06"/>
</a>
</g>
<text text-anchor="middle" x="701.5" y="-304" font-family="Helvetica,sans-Serif" font-size="10.00" fill="grey"> m_impl_objects</text>
</g>
<!-- Node16 -->
<g id="Node000016" class="node">
<title>Node16</title>
<g id="a_Node000016"><a xlink:title=" ">
<polygon fill="white" stroke="#666666" points="348.75,-365.38 213.5,-365.38 213.5,-301.12 348.75,-301.12 348.75,-365.38"/>
<text text-anchor="start" x="221.5" y="-351.88" font-family="Helvetica,sans-Serif" font-size="10.00">std::map&lt; const std</text>
<text text-anchor="start" x="221.5" y="-340.62" font-family="Helvetica,sans-Serif" font-size="10.00">::string *, dunedaq</text>
<text text-anchor="start" x="221.5" y="-329.38" font-family="Helvetica,sans-Serif" font-size="10.00">::conffwk::map&lt; dunedaq</text>
<text text-anchor="start" x="221.5" y="-318.12" font-family="Helvetica,sans-Serif" font-size="10.00">::conffwk::ConfigObjectImpl</text>
<text text-anchor="middle" x="281.12" y="-306.88" font-family="Helvetica,sans-Serif" font-size="10.00"> * &gt; * , string_ptr_compare &gt;</text>
</a>
</g>
</g>
<!-- Node16&#45;&gt;Node15 -->
<g id="edge15_Node000015_Node000016" class="edge">
<title>Node16&#45;&gt;Node15</title>
<g id="a_edge15_Node000015_Node000016"><a xlink:title=" ">
<path fill="none" stroke="#63b8ff" d="M360.35,-331.06C400.25,-329.94 448.68,-328.58 488.69,-327.46"/>
<polygon fill="#63b8ff" stroke="#63b8ff" points="360.47,-327.55 350.58,-331.33 360.67,-334.55 360.47,-327.55"/>
</a>
</g>
</g>
<!-- Node17 -->
<g id="Node000017" class="node">
<title>Node17</title>
<g id="a_Node000017"><a xlink:href="classdunedaq_1_1conffwk_1_1ConfigObject.html" target="_top" xlink:title="Represents database objects.">
<polygon fill="white" stroke="#666666" points="1309.75,-261.5 1187.25,-261.5 1187.25,-231 1309.75,-231 1309.75,-261.5"/>
<text text-anchor="start" x="1195.25" y="-248" font-family="Helvetica,sans-Serif" font-size="10.00">dunedaq::conffwk::Config</text>
<text text-anchor="middle" x="1248.5" y="-236.75" font-family="Helvetica,sans-Serif" font-size="10.00">Object</text>
</a>
</g>
</g>
<!-- Node17&#45;&gt;Node4 -->
<g id="edge17_Node000004_Node000017" class="edge">
<title>Node17&#45;&gt;Node4</title>
<g id="a_edge17_Node000004_Node000017"><a xlink:title=" ">
<path fill="none" stroke="#9a32cd" stroke-dasharray="5,2" d="M1321.17,-235.68C1337.43,-233.28 1354.65,-230.74 1370.77,-228.37"/>
<polygon fill="#9a32cd" stroke="#9a32cd" points="1320.98,-232.17 1311.6,-237.09 1322,-239.1 1320.98,-232.17"/>
</a>
</g>
<text text-anchor="middle" x="1340.5" y="-235" font-family="Helvetica,sans-Serif" font-size="10.00" fill="grey"> p_obj</text>
</g>
<!-- Node18&#45;&gt;Node17 -->
<g id="edge18_Node000017_Node000018" class="edge">
<title>Node18&#45;&gt;Node17</title>
<g id="a_edge18_Node000017_Node000018"><a xlink:title=" ">
<path fill="none" stroke="#9a32cd" stroke-dasharray="5,2" d="M1129.31,-253.7C1148.34,-252.5 1168.68,-251.22 1187.03,-250.06"/>
<polygon fill="#9a32cd" stroke="#9a32cd" points="1129.24,-250.2 1119.48,-254.32 1129.68,-257.19 1129.24,-250.2"/>
</a>
</g>
<text text-anchor="middle" x="1152.38" y="-254" font-family="Helvetica,sans-Serif" font-size="10.00" fill="grey"> m_impl</text>
</g>
<!-- Node19&#45;&gt;Node3 -->
<g id="edge21_Node000003_Node000019" class="edge">
<title>Node19&#45;&gt;Node3</title>
<g id="a_edge21_Node000003_Node000019"><a xlink:title=" ">
<path fill="none" stroke="#9a32cd" stroke-dasharray="5,2" d="M1980.83,-378.25C2015.72,-378.25 2056.05,-378.25 2089.56,-378.25"/>
<polygon fill="#9a32cd" stroke="#9a32cd" points="1981.22,-374.75 1971.22,-378.25 1981.22,-381.75 1981.22,-374.75"/>
</a>
</g>
<text text-anchor="middle" x="2029.62" y="-380" font-family="Helvetica,sans-Serif" font-size="10.00" fill="grey"> m_runs_on</text>
</g>
<!-- Node20&#45;&gt;Node19 -->
<g id="edge24_Node000019_Node000020" class="edge">
<title>Node20&#45;&gt;Node19</title>
<g id="a_edge24_Node000019_Node000020"><a xlink:title=" ">
<path fill="none" stroke="#9a32cd" stroke-dasharray="5,2" d="M1718.5,-332.3C1747.59,-334.01 1780.08,-337.43 1809.25,-344 1833.24,-349.4 1859.33,-360.23 1876.82,-368.28"/>
<polygon fill="#9a32cd" stroke="#9a32cd" points="1718.79,-328.81 1708.62,-331.78 1718.42,-335.8 1718.79,-328.81"/>
</a>
</g>
<text text-anchor="middle" x="1771.75" y="-345" font-family="Helvetica,sans-Serif" font-size="10.00" fill="grey"> m_runs_on</text>
</g>
<!-- Node21&#45;&gt;Node2 -->
<g id="edge28_Node000002_Node000021" class="edge">
<title>Node21&#45;&gt;Node2</title>
<g id="a_edge28_Node000002_Node000021"><a xlink:title=" ">
<path fill="none" stroke="#9a32cd" stroke-dasharray="5,2" d="M1718.35,-294.25C1860.15,-294.25 2140.02,-294.25 2267.75,-294.25"/>
<polygon fill="#9a32cd" stroke="#9a32cd" points="1718.66,-290.75 1708.66,-294.25 1718.66,-297.75 1718.66,-290.75"/>
</a>
</g>
<text text-anchor="middle" x="2029.62" y="-296" font-family="Helvetica,sans-Serif" font-size="10.00" fill="grey"> m_source_id</text>
</g>
<!-- Node22&#45;&gt;Node1 -->
<g id="edge32_Node000001_Node000022" class="edge">
<title>Node22&#45;&gt;Node1</title>
<g id="a_edge32_Node000001_Node000022"><a xlink:title=" ">
<path fill="none" stroke="#9a32cd" stroke-dasharray="5,2" d="M2235.37,-211.12C2294.07,-216.59 2376.41,-224.26 2438.56,-230.05"/>
<polygon fill="#9a32cd" stroke="#9a32cd" points="2235.74,-207.64 2225.46,-210.2 2235.1,-214.61 2235.74,-207.64"/>
</a>
</g>
<text text-anchor="middle" x="2335.12" y="-228" font-family="Helvetica,sans-Serif" font-size="10.00" fill="grey"> m_link_handler</text>
</g>
<!-- Node23&#45;&gt;Node22 -->
<g id="edge35_Node000022_Node000023" class="edge">
<title>Node23&#45;&gt;Node22</title>
<g id="a_edge35_Node000022_Node000023"><a xlink:title=" ">
<path fill="none" stroke="#9a32cd" stroke-dasharray="5,2" d="M1972.97,-194.93C2012.21,-196.89 2059.95,-199.27 2097.32,-201.14"/>
<polygon fill="#9a32cd" stroke="#9a32cd" points="1973.29,-191.44 1963.13,-194.44 1972.94,-198.43 1973.29,-191.44"/>
</a>
</g>
<text text-anchor="middle" x="2029.62" y="-201" font-family="Helvetica,sans-Serif" font-size="10.00" fill="grey"> m_request_handler</text>
</g>
<!-- Node24&#45;&gt;Node23 -->
<g id="edge38_Node000023_Node000024" class="edge">
<title>Node24&#45;&gt;Node23</title>
<g id="a_edge38_Node000023_Node000024"><a xlink:title=" ">
<path fill="none" stroke="#9a32cd" stroke-dasharray="5,2" d="M1727.63,-145.88C1754.28,-147.75 1783.1,-151.11 1809.25,-157 1827.96,-161.22 1847.95,-168.73 1864.14,-175.65"/>
<polygon fill="#9a32cd" stroke="#9a32cd" points="1728.07,-142.4 1717.87,-145.27 1727.63,-149.39 1728.07,-142.4"/>
</a>
</g>
<text text-anchor="middle" x="1771.75" y="-158" font-family="Helvetica,sans-Serif" font-size="10.00" fill="grey"> m_data_recorder</text>
</g>
<!-- Node25&#45;&gt;Node22 -->
<g id="edge41_Node000022_Node000025" class="edge">
<title>Node25&#45;&gt;Node22</title>
<g id="a_edge41_Node000022_Node000025"><a xlink:title=" ">
<path fill="none" stroke="#9a32cd" stroke-dasharray="5,2" d="M1705.23,-111.22C1773.68,-121.03 1878.85,-137.23 1969.25,-156 2014.65,-165.42 2065.54,-178.45 2103.28,-188.6"/>
<polygon fill="#9a32cd" stroke="#9a32cd" points="1706.03,-107.8 1695.64,-109.85 1705.05,-114.73 1706.03,-107.8"/>
</a>
</g>
<text text-anchor="middle" x="1898.25" y="-157" font-family="Helvetica,sans-Serif" font-size="10.00" fill="grey"> m_latency_buffer</text>
</g>
<!-- Node26&#45;&gt;Node22 -->
<g id="edge44_Node000022_Node000026" class="edge">
<title>Node26&#45;&gt;Node22</title>
<g id="a_edge44_Node000022_Node000026"><a xlink:title=" ">
<path fill="none" stroke="#9a32cd" stroke-dasharray="5,2" d="M1720.19,-67.79C1788.84,-76.51 1886.24,-91.64 1969.25,-115 2016.62,-128.33 2027.51,-135.23 2072,-156.25 2093.01,-166.18 2116.04,-178.87 2133.21,-188.7"/>
<polygon fill="#9a32cd" stroke="#9a32cd" points="1720.86,-64.35 1710.5,-66.58 1719.99,-71.29 1720.86,-64.35"/>
</a>
</g>
<text text-anchor="middle" x="1898.25" y="-116" font-family="Helvetica,sans-Serif" font-size="10.00" fill="grey"> m_data_processor</text>
</g>
<!-- Node27&#45;&gt;Node1 -->
<g id="edge47_Node000001_Node000027" class="edge">
<title>Node27&#45;&gt;Node1</title>
<g id="a_edge47_Node000001_Node000027"><a xlink:title=" ">
<path fill="none" stroke="#9a32cd" stroke-dasharray="5,2" d="M1720.03,-15.75C1771.62,-16 1838.15,-16.25 1897.25,-16.25 1897.25,-16.25 1897.25,-16.25 2336.12,-16.25 2449.38,-16.25 2509.88,-184.7 2523.59,-228.13"/>
<polygon fill="#9a32cd" stroke="#9a32cd" points="1720.12,-12.25 1710.1,-15.7 1720.08,-19.25 1720.12,-12.25"/>
</a>
</g>
<text text-anchor="middle" x="2160.62" y="-18" font-family="Helvetica,sans-Serif" font-size="10.00" fill="grey"> m_generator</text>
</g>
</g>
</svg>
