<?xml version="1.0" encoding="UTF-8" standalone="no"?>
<!DOCTYPE svg PUBLIC "-//W3C//DTD SVG 1.1//EN"
 "http://www.w3.org/Graphics/SVG/1.1/DTD/svg11.dtd">
<!-- Generated by graphviz version 9.0.0 (20230911.1827)
 -->
<!-- Title: dunedaq::coredal::Jsonable Pages: 1 -->
<svg width="701pt" height="234pt"
 viewBox="0.00 0.00 700.50 233.50" xmlns="http://www.w3.org/2000/svg" xmlns:xlink="http://www.w3.org/1999/xlink">
<g id="graph0" class="graph" transform="scale(1 1) rotate(0) translate(4 229.5)">
<title>dunedaq::coredal::Jsonable</title>
<!-- Node1 -->
<g id="Node000001" class="node">
<title>Node1</title>
<g id="a_Node000001"><a xlink:title=" ">
<polygon fill="#999999" stroke="#666666" points="306.5,-124.88 174.25,-124.88 174.25,-105.62 306.5,-105.62 306.5,-124.88"/>
<text text-anchor="middle" x="240.38" y="-111.38" font-family="Helvetica,sans-Serif" font-size="10.00">dunedaq::coredal::Jsonable</text>
</a>
</g>
</g>
<!-- Node3 -->
<g id="Node000003" class="node">
<title>Node3</title>
<g id="a_Node000003"><a xlink:href="classdunedaq_1_1appdal_1_1TAAlgorithm.html" target="_top" xlink:title=" ">
<polygon fill="white" stroke="#666666" points="486.75,-170.88 342.5,-170.88 342.5,-151.62 486.75,-151.62 486.75,-170.88"/>
<text text-anchor="middle" x="414.62" y="-157.38" font-family="Helvetica,sans-Serif" font-size="10.00">dunedaq::appdal::TAAlgorithm</text>
</a>
</g>
</g>
<!-- Node1&#45;&gt;Node3 -->
<g id="edge3_Node000001_Node000003" class="edge">
<title>Node1&#45;&gt;Node3</title>
<g id="a_edge3_Node000001_Node000003"><a xlink:title=" ">
<path fill="none" stroke="#63b8ff" d="M314.39,-128.07C342.96,-135.39 373.5,-144.25 393.04,-151.19"/>
<polygon fill="#63b8ff" stroke="#63b8ff" points="315.58,-124.76 305.03,-125.71 313.87,-131.55 315.58,-124.76"/>
</a>
</g>
</g>
<!-- Node1&#45;&gt;Node3 -->
<g id="edge8_Node000001_Node000003" class="edge">
<title>Node1&#45;&gt;Node3</title>
<g id="a_edge8_Node000001_Node000003"><a xlink:title=" ">
<path fill="none" stroke="#63b8ff" d="M272.48,-128.89C294.44,-136.09 324.6,-144.53 351.41,-151.15"/>
<polygon fill="#63b8ff" stroke="#63b8ff" points="273.84,-125.66 263.24,-125.75 271.58,-132.28 273.84,-125.66"/>
</a>
</g>
</g>
<!-- Node6 -->
<g id="Node000006" class="node">
<title>Node6</title>
<g id="a_Node000006"><a xlink:href="classdunedaq_1_1appdal_1_1TCAlgorithm.html" target="_top" xlink:title=" ">
<polygon fill="white" stroke="#666666" points="486.75,-103.88 342.5,-103.88 342.5,-84.62 486.75,-84.62 486.75,-103.88"/>
<text text-anchor="middle" x="414.62" y="-90.38" font-family="Helvetica,sans-Serif" font-size="10.00">dunedaq::appdal::TCAlgorithm</text>
</a>
</g>
</g>
<!-- Node1&#45;&gt;Node6 -->
<g id="edge9_Node000001_Node000006" class="edge">
<title>Node1&#45;&gt;Node6</title>
<g id="a_edge9_Node000001_Node000006"><a xlink:title=" ">
<path fill="none" stroke="#63b8ff" d="M288.86,-103.35C305.29,-100.77 324.09,-98.29 342.02,-96.32"/>
<polygon fill="#63b8ff" stroke="#63b8ff" points="288.7,-99.83 279.4,-104.91 289.83,-106.74 288.7,-99.83"/>
</a>
</g>
</g>
<!-- Node1&#45;&gt;Node6 -->
<g id="edge16_Node000001_Node000006" class="edge">
<title>Node1&#45;&gt;Node6</title>
<g id="a_edge16_Node000001_Node000006"><a xlink:title=" ">
<path fill="none" stroke="#63b8ff" d="M318.26,-112.59C338.74,-110.25 359.92,-107.31 377.1,-104.34"/>
<polygon fill="#63b8ff" stroke="#63b8ff" points="318.05,-109.09 308.49,-113.66 318.81,-116.05 318.05,-109.09"/>
</a>
</g>
</g>
<!-- Node2 -->
<g id="Node000002" class="node">
<title>Node2</title>
<g id="a_Node000002"><a xlink:href="classdunedaq_1_1conffwk_1_1DalObject.html" target="_top" xlink:title="The base class for any generated DAL object.">
<polygon fill="white" stroke="#666666" points="138.25,-124.88 0,-124.88 0,-105.62 138.25,-105.62 138.25,-124.88"/>
<text text-anchor="middle" x="69.12" y="-111.38" font-family="Helvetica,sans-Serif" font-size="10.00">dunedaq::conffwk::DalObject</text>
</a>
</g>
</g>
<!-- Node2&#45;&gt;Node1 -->
<g id="edge1_Node000001_Node000002" class="edge">
<title>Node2&#45;&gt;Node1</title>
<g id="a_edge1_Node000001_Node000002"><a xlink:title=" ">
<path fill="none" stroke="#63b8ff" d="M149.78,-108.51C157.82,-108.48 165.92,-108.52 173.79,-108.65"/>
<polygon fill="#63b8ff" stroke="#63b8ff" points="149.96,-105.01 139.99,-108.6 150.02,-112.01 149.96,-105.01"/>
</a>
</g>
</g>
<!-- Node2&#45;&gt;Node1 -->
<g id="edge2_Node000001_Node000002" class="edge">
<title>Node2&#45;&gt;Node1</title>
<g id="a_edge2_Node000001_Node000002"><a xlink:title=" ">
<path fill="none" stroke="#63b8ff" d="M149.78,-121.99C157.82,-122.02 165.92,-121.98 173.79,-121.85"/>
<polygon fill="#63b8ff" stroke="#63b8ff" points="150.02,-118.49 139.99,-121.9 149.96,-125.49 150.02,-118.49"/>
</a>
</g>
</g>
<!-- Node4 -->
<g id="Node000004" class="node">
<title>Node4</title>
<g id="a_Node000004"><a xlink:href="classdunedaq_1_1appdal_1_1TriggerActivityMakerHorizontalMuonPlugin.html" target="_top" xlink:title=" ">
<polygon fill="white" stroke="#666666" points="692.5,-225.5 522.75,-225.5 522.75,-195 692.5,-195 692.5,-225.5"/>
<text text-anchor="start" x="530.75" y="-212" font-family="Helvetica,sans-Serif" font-size="10.00">dunedaq::appdal::Trigger</text>
<text text-anchor="middle" x="607.62" y="-200.75" font-family="Helvetica,sans-Serif" font-size="10.00">ActivityMakerHorizontalMuonPlugin</text>
</a>
</g>
</g>
<!-- Node3&#45;&gt;Node4 -->
<g id="edge4_Node000003_Node000004" class="edge">
<title>Node3&#45;&gt;Node4</title>
<g id="a_edge4_Node000003_Node000004"><a xlink:title=" ">
<path fill="none" stroke="#63b8ff" d="M491.04,-173.98C517.11,-180.32 545.27,-187.88 567.26,-194.57"/>
<polygon fill="#63b8ff" stroke="#63b8ff" points="492.03,-170.62 481.49,-171.7 490.41,-177.43 492.03,-170.62"/>
</a>
</g>
</g>
<!-- Node3&#45;&gt;Node4 -->
<g id="edge5_Node000003_Node000004" class="edge">
<title>Node3&#45;&gt;Node4</title>
<g id="a_edge5_Node000003_Node000004"><a xlink:title=" ">
<path fill="none" stroke="#63b8ff" d="M448.42,-174.9C468.86,-181.32 496.17,-188.82 522.33,-195.33"/>
<polygon fill="#63b8ff" stroke="#63b8ff" points="449.57,-171.6 438.97,-171.83 447.4,-178.25 449.57,-171.6"/>
</a>
</g>
</g>
<!-- Node5 -->
<g id="Node000005" class="node">
<title>Node5</title>
<g id="a_Node000005"><a xlink:href="classdunedaq_1_1appdal_1_1TriggerActivityMakerPrescalePlugin.html" target="_top" xlink:title=" ">
<polygon fill="white" stroke="#666666" points="677.88,-176.5 537.38,-176.5 537.38,-146 677.88,-146 677.88,-176.5"/>
<text text-anchor="start" x="545.38" y="-163" font-family="Helvetica,sans-Serif" font-size="10.00">dunedaq::appdal::Trigger</text>
<text text-anchor="middle" x="607.62" y="-151.75" font-family="Helvetica,sans-Serif" font-size="10.00">ActivityMakerPrescalePlugin</text>
</a>
</g>
</g>
<!-- Node3&#45;&gt;Node5 -->
<g id="edge6_Node000003_Node000005" class="edge">
<title>Node3&#45;&gt;Node5</title>
<g id="a_edge6_Node000003_Node000005"><a xlink:title=" ">
<path fill="none" stroke="#63b8ff" d="M498.24,-154.55C511.13,-154.44 524.34,-154.5 536.9,-154.72"/>
<polygon fill="#63b8ff" stroke="#63b8ff" points="498.49,-151.05 488.53,-154.68 498.57,-158.05 498.49,-151.05"/>
</a>
</g>
</g>
<!-- Node3&#45;&gt;Node5 -->
<g id="edge7_Node000003_Node000005" class="edge">
<title>Node3&#45;&gt;Node5</title>
<g id="a_edge7_Node000003_Node000005"><a xlink:title=" ">
<path fill="none" stroke="#63b8ff" d="M498.24,-167.95C511.13,-168.06 524.34,-168 536.9,-167.78"/>
<polygon fill="#63b8ff" stroke="#63b8ff" points="498.57,-164.45 488.53,-167.82 498.49,-171.45 498.57,-164.45"/>
</a>
</g>
</g>
<!-- Node7 -->
<g id="Node000007" class="node">
<title>Node7</title>
<g id="a_Node000007"><a xlink:href="classdunedaq_1_1appdal_1_1TCCustom.html" target="_top" xlink:title=" ">
<polygon fill="white" stroke="#666666" points="676,-127.88 539.25,-127.88 539.25,-108.62 676,-108.62 676,-127.88"/>
<text text-anchor="middle" x="607.62" y="-114.38" font-family="Helvetica,sans-Serif" font-size="10.00">dunedaq::appdal::TCCustom</text>
</a>
</g>
</g>
<!-- Node6&#45;&gt;Node7 -->
<g id="edge10_Node000006_Node000007" class="edge">
<title>Node6&#45;&gt;Node7</title>
<g id="a_edge10_Node000006_Node000007"><a xlink:title=" ">
<path fill="none" stroke="#63b8ff" d="M498.34,-97.95C523.21,-100.86 549.26,-104.54 569.58,-108.13"/>
<polygon fill="#63b8ff" stroke="#63b8ff" points="498.85,-94.48 488.52,-96.84 498.06,-101.44 498.85,-94.48"/>
</a>
</g>
</g>
<!-- Node6&#45;&gt;Node7 -->
<g id="edge11_Node000006_Node000007" class="edge">
<title>Node6&#45;&gt;Node7</title>
<g id="a_edge11_Node000006_Node000007"><a xlink:title=" ">
<path fill="none" stroke="#63b8ff" d="M463.56,-106.22C486.38,-109.93 514.07,-113.59 538.98,-116.24"/>
<polygon fill="#63b8ff" stroke="#63b8ff" points="464.39,-102.81 453.94,-104.59 463.22,-109.71 464.39,-102.81"/>
</a>
</g>
</g>
<!-- Node8 -->
<g id="Node000008" class="node">
<title>Node8</title>
<g id="a_Node000008"><a xlink:href="classdunedaq_1_1appdal_1_1TriggerCandidateMakerHorizontalMuonPlugin.html" target="_top" xlink:title=" ">
<polygon fill="white" stroke="#666666" points="684.62,-90.12 530.62,-90.12 530.62,-48.38 684.62,-48.38 684.62,-90.12"/>
<text text-anchor="start" x="538.62" y="-76.62" font-family="Helvetica,sans-Serif" font-size="10.00">dunedaq::appdal::Trigger</text>
<text text-anchor="start" x="538.62" y="-65.38" font-family="Helvetica,sans-Serif" font-size="10.00">CandidateMakerHorizontalMuon</text>
<text text-anchor="middle" x="607.62" y="-54.12" font-family="Helvetica,sans-Serif" font-size="10.00">Plugin</text>
</a>
</g>
</g>
<!-- Node6&#45;&gt;Node8 -->
<g id="edge12_Node000006_Node000008" class="edge">
<title>Node6&#45;&gt;Node8</title>
<g id="a_edge12_Node000006_Node000008"><a xlink:title=" ">
<path fill="none" stroke="#63b8ff" d="M462.76,-82.17C483.19,-78.72 507.63,-75.28 530.51,-72.59"/>
<polygon fill="#63b8ff" stroke="#63b8ff" points="462.29,-78.7 453.04,-83.87 463.5,-85.59 462.29,-78.7"/>
</a>
</g>
</g>
<!-- Node6&#45;&gt;Node8 -->
<g id="edge13_Node000006_Node000008" class="edge">
<title>Node6&#45;&gt;Node8</title>
<g id="a_edge13_Node000006_Node000008"><a xlink:title=" ">
<path fill="none" stroke="#63b8ff" d="M498.38,-90.11C508.95,-88.82 519.74,-87.39 530.2,-85.88"/>
<polygon fill="#63b8ff" stroke="#63b8ff" points="498.04,-86.63 488.52,-91.28 498.86,-93.58 498.04,-86.63"/>
</a>
</g>
</g>
<!-- Node9 -->
<g id="Node000009" class="node">
<title>Node9</title>
<g id="a_Node000009"><a xlink:href="classdunedaq_1_1appdal_1_1TriggerCandidateMakerPrescalePlugin.html" target="_top" xlink:title=" ">
<polygon fill="white" stroke="#666666" points="683.5,-30.5 531.75,-30.5 531.75,0 683.5,0 683.5,-30.5"/>
<text text-anchor="start" x="539.75" y="-17" font-family="Helvetica,sans-Serif" font-size="10.00">dunedaq::appdal::Trigger</text>
<text text-anchor="middle" x="607.62" y="-5.75" font-family="Helvetica,sans-Serif" font-size="10.00">CandidateMakerPrescalePlugin</text>
</a>
</g>
</g>
<!-- Node6&#45;&gt;Node9 -->
<g id="edge14_Node000006_Node000009" class="edge">
<title>Node6&#45;&gt;Node9</title>
<g id="a_edge14_Node000006_Node000009"><a xlink:title=" ">
<path fill="none" stroke="#63b8ff" d="M433.12,-77.48C453.93,-62.94 489.99,-43.2 522.75,-30.25 525.57,-29.14 528.46,-28.05 531.39,-27"/>
<polygon fill="#63b8ff" stroke="#63b8ff" points="431.08,-74.64 425.18,-83.44 435.28,-80.24 431.08,-74.64"/>
</a>
</g>
</g>
<!-- Node6&#45;&gt;Node9 -->
<g id="edge15_Node000006_Node000009" class="edge">
<title>Node6&#45;&gt;Node9</title>
<g id="a_edge15_Node000006_Node000009"><a xlink:title=" ">
<path fill="none" stroke="#63b8ff" d="M455.97,-79.3C475.68,-69.5 500.01,-57.24 522.75,-48.25 539.51,-41.62 558.81,-35.97 574.67,-30.92"/>
<polygon fill="#63b8ff" stroke="#63b8ff" points="454.59,-76.08 447.18,-83.65 457.7,-82.35 454.59,-76.08"/>
</a>
</g>
</g>
</g>
</svg>
