<?xml version="1.0" encoding="UTF-8" standalone="no"?>
<!DOCTYPE svg PUBLIC "-//W3C//DTD SVG 1.1//EN"
 "http://www.w3.org/Graphics/SVG/1.1/DTD/svg11.dtd">
<!-- Generated by graphviz version 9.0.0 (20230911.1827)
 -->
<!-- Title: dunedaq::timing::TopDesign Pages: 1 -->
<svg width="1140pt" height="241pt"
 viewBox="0.00 0.00 1140.00 240.88" xmlns="http://www.w3.org/2000/svg" xmlns:xlink="http://www.w3.org/1999/xlink">
<g id="graph0" class="graph" transform="scale(1 1) rotate(0) translate(4 236.88)">
<title>dunedaq::timing::TopDesign</title>
<!-- Node1 -->
<g id="Node000001" class="node">
<title>Node1</title>
<g id="a_Node000001"><a xlink:title="Base class for timing top design nodes with IO class.">
<polygon fill="#999999" stroke="#666666" points="579.25,-164.88 444.75,-164.88 444.75,-145.62 579.25,-145.62 579.25,-164.88"/>
<text text-anchor="middle" x="512" y="-151.38" font-family="Helvetica,sans-Serif" font-size="10.00">dunedaq::timing::TopDesign</text>
</a>
</g>
</g>
<!-- Node5 -->
<g id="Node000005" class="node">
<title>Node5</title>
<g id="a_Node000005"><a xlink:href="classdunedaq_1_1timing_1_1CRTDesign.html" target="_top" xlink:title="Class for timing master with integrated HSI designs.">
<polygon fill="white" stroke="#666666" points="758,-232.88 620.5,-232.88 620.5,-213.62 758,-213.62 758,-232.88"/>
<text text-anchor="middle" x="689.25" y="-219.38" font-family="Helvetica,sans-Serif" font-size="10.00">dunedaq::timing::CRTDesign</text>
</a>
</g>
</g>
<!-- Node1&#45;&gt;Node5 -->
<g id="edge4_Node000001_Node000005" class="edge">
<title>Node1&#45;&gt;Node5</title>
<g id="a_edge4_Node000001_Node000005"><a xlink:title=" ">
<path fill="none" stroke="#63b8ff" d="M541.07,-170.51C561.27,-181.04 589.39,-194.79 615.25,-204.25 624.35,-207.58 634.29,-210.57 643.82,-213.14"/>
<polygon fill="#63b8ff" stroke="#63b8ff" points="542.83,-167.48 532.35,-165.9 539.55,-173.67 542.83,-167.48"/>
</a>
</g>
</g>
<!-- Node6 -->
<g id="Node000006" class="node">
<title>Node6</title>
<g id="a_Node000006"><a xlink:href="classdunedaq_1_1timing_1_1ChronosDesign.html" target="_top" xlink:title="Class for timing master with integrated HSI designs.">
<polygon fill="white" stroke="#666666" points="751.25,-195.5 627.25,-195.5 627.25,-165 751.25,-165 751.25,-195.5"/>
<text text-anchor="start" x="635.25" y="-182" font-family="Helvetica,sans-Serif" font-size="10.00">dunedaq::timing::Chronos</text>
<text text-anchor="middle" x="689.25" y="-170.75" font-family="Helvetica,sans-Serif" font-size="10.00">Design</text>
</a>
</g>
</g>
<!-- Node1&#45;&gt;Node6 -->
<g id="edge5_Node000001_Node000006" class="edge">
<title>Node1&#45;&gt;Node6</title>
<g id="a_edge5_Node000001_Node000006"><a xlink:title=" ">
<path fill="none" stroke="#63b8ff" d="M590.36,-166.29C602.56,-168.03 615.03,-169.81 626.81,-171.49"/>
<polygon fill="#63b8ff" stroke="#63b8ff" points="591.15,-162.86 580.75,-164.92 590.16,-169.79 591.15,-162.86"/>
</a>
</g>
</g>
<!-- Node7 -->
<g id="Node000007" class="node">
<title>Node7</title>
<g id="a_Node000007"><a xlink:href="classdunedaq_1_1timing_1_1EndpointDesign.html" target="_top" xlink:title="Base class for timing endpoint design nodes.">
<polygon fill="white" stroke="#666666" points="752,-146.5 626.5,-146.5 626.5,-116 752,-116 752,-146.5"/>
<text text-anchor="start" x="634.5" y="-133" font-family="Helvetica,sans-Serif" font-size="10.00">dunedaq::timing::Endpoint</text>
<text text-anchor="middle" x="689.25" y="-121.75" font-family="Helvetica,sans-Serif" font-size="10.00">Design</text>
</a>
</g>
</g>
<!-- Node1&#45;&gt;Node7 -->
<g id="edge6_Node000001_Node000007" class="edge">
<title>Node1&#45;&gt;Node7</title>
<g id="a_edge6_Node000001_Node000007"><a xlink:title=" ">
<path fill="none" stroke="#63b8ff" d="M590.59,-144.62C602.52,-142.99 614.7,-141.32 626.24,-139.74"/>
<polygon fill="#63b8ff" stroke="#63b8ff" points="590.19,-141.15 580.75,-145.97 591.14,-148.08 590.19,-141.15"/>
</a>
</g>
</g>
<!-- Node8 -->
<g id="Node000008" class="node">
<title>Node8</title>
<g id="a_Node000008"><a xlink:href="classdunedaq_1_1timing_1_1MasterDesign.html" target="_top" xlink:title="Base class for timing master designs.">
<polygon fill="white" stroke="#666666" points="763.25,-97.88 615.25,-97.88 615.25,-78.62 763.25,-78.62 763.25,-97.88"/>
<text text-anchor="middle" x="689.25" y="-84.38" font-family="Helvetica,sans-Serif" font-size="10.00">dunedaq::timing::MasterDesign</text>
</a>
</g>
</g>
<!-- Node1&#45;&gt;Node8 -->
<g id="edge7_Node000001_Node000008" class="edge">
<title>Node1&#45;&gt;Node8</title>
<g id="a_edge7_Node000001_Node000008"><a xlink:title=" ">
<path fill="none" stroke="#63b8ff" d="M541.85,-139.96C562.01,-129.71 589.77,-116.46 615.25,-107.25 624.49,-103.91 634.58,-100.9 644.23,-98.31"/>
<polygon fill="#63b8ff" stroke="#63b8ff" points="540.41,-136.76 533.12,-144.46 543.61,-142.98 540.41,-136.76"/>
</a>
</g>
</g>
<!-- Node2 -->
<g id="Node000002" class="node">
<title>Node2</title>
<g id="a_Node000002"><a xlink:href="classdunedaq_1_1timing_1_1TopDesignInterface.html" target="_top" xlink:title="Base class for timing top design nodes.">
<polygon fill="white" stroke="#666666" points="408.75,-170.5 274.25,-170.5 274.25,-140 408.75,-140 408.75,-170.5"/>
<text text-anchor="start" x="282.25" y="-157" font-family="Helvetica,sans-Serif" font-size="10.00">dunedaq::timing::TopDesign</text>
<text text-anchor="middle" x="341.5" y="-145.75" font-family="Helvetica,sans-Serif" font-size="10.00">Interface</text>
</a>
</g>
</g>
<!-- Node2&#45;&gt;Node1 -->
<g id="edge1_Node000001_Node000002" class="edge">
<title>Node2&#45;&gt;Node1</title>
<g id="a_edge1_Node000001_Node000002"><a xlink:title=" ">
<path fill="none" stroke="#63b8ff" d="M420.35,-155.25C428.36,-155.25 436.46,-155.25 444.34,-155.25"/>
<polygon fill="#63b8ff" stroke="#63b8ff" points="420.61,-151.75 410.61,-155.25 420.61,-158.75 420.61,-151.75"/>
</a>
</g>
</g>
<!-- Node3 -->
<g id="Node000003" class="node">
<title>Node3</title>
<g id="a_Node000003"><a xlink:href="classdunedaq_1_1timing_1_1TimingNode.html" target="_top" xlink:title="Base class for timing nodes.">
<polygon fill="white" stroke="#666666" points="238.25,-164.88 97.75,-164.88 97.75,-145.62 238.25,-145.62 238.25,-164.88"/>
<text text-anchor="middle" x="168" y="-151.38" font-family="Helvetica,sans-Serif" font-size="10.00">dunedaq::timing::TimingNode</text>
</a>
</g>
</g>
<!-- Node3&#45;&gt;Node2 -->
<g id="edge2_Node000002_Node000003" class="edge">
<title>Node3&#45;&gt;Node2</title>
<g id="a_edge2_Node000002_Node000003"><a xlink:title=" ">
<path fill="none" stroke="#63b8ff" d="M249.62,-155.25C257.7,-155.25 265.85,-155.25 273.76,-155.25"/>
<polygon fill="#63b8ff" stroke="#63b8ff" points="249.77,-151.75 239.77,-155.25 249.77,-158.75 249.77,-151.75"/>
</a>
</g>
</g>
<!-- Node4 -->
<g id="Node000004" class="node">
<title>Node4</title>
<g id="a_Node000004"><a xlink:title=" ">
<polygon fill="white" stroke="#666666" points="61.75,-164.88 0,-164.88 0,-145.62 61.75,-145.62 61.75,-164.88"/>
<text text-anchor="middle" x="30.88" y="-151.38" font-family="Helvetica,sans-Serif" font-size="10.00">uhal::Node</text>
</a>
</g>
</g>
<!-- Node4&#45;&gt;Node3 -->
<g id="edge3_Node000003_Node000004" class="edge">
<title>Node4&#45;&gt;Node3</title>
<g id="a_edge3_Node000003_Node000004"><a xlink:title=" ">
<path fill="none" stroke="#63b8ff" d="M73.58,-155.25C81.14,-155.25 89.2,-155.25 97.3,-155.25"/>
<polygon fill="#63b8ff" stroke="#63b8ff" points="73.71,-151.75 63.71,-155.25 73.71,-158.75 73.71,-151.75"/>
</a>
</g>
</g>
<!-- Node9 -->
<g id="Node000009" class="node">
<title>Node9</title>
<g id="a_Node000009"><a xlink:href="classdunedaq_1_1timing_1_1BoreasDesign.html" target="_top" xlink:title="Class for timing master with integrated HSI designs.">
<polygon fill="white" stroke="#666666" points="948,-165.88 799.25,-165.88 799.25,-146.62 948,-146.62 948,-165.88"/>
<text text-anchor="middle" x="873.62" y="-152.38" font-family="Helvetica,sans-Serif" font-size="10.00">dunedaq::timing::BoreasDesign</text>
</a>
</g>
</g>
<!-- Node8&#45;&gt;Node9 -->
<g id="edge8_Node000008_Node000009" class="edge">
<title>Node8&#45;&gt;Node9</title>
<g id="a_edge8_Node000008_Node000009"><a xlink:title=" ">
<path fill="none" stroke="#63b8ff" d="M751.6,-102.05C755.62,-103.61 759.54,-105.34 763.25,-107.25 781.77,-116.77 780.72,-127.74 799.25,-137.25 806.27,-140.85 814.04,-143.81 821.81,-146.23"/>
<polygon fill="#63b8ff" stroke="#63b8ff" points="752.83,-98.78 742.24,-98.79 750.53,-105.39 752.83,-98.78"/>
</a>
</g>
</g>
<!-- Node10 -->
<g id="Node000010" class="node">
<title>Node10</title>
<g id="a_Node000010"><a xlink:href="classdunedaq_1_1timing_1_1MasterMuxDesign.html" target="_top" xlink:title="Class for PDI timing master design on mux board.">
<polygon fill="white" stroke="#666666" points="941.62,-128.5 805.62,-128.5 805.62,-98 941.62,-98 941.62,-128.5"/>
<text text-anchor="start" x="813.62" y="-115" font-family="Helvetica,sans-Serif" font-size="10.00">dunedaq::timing::MasterMux</text>
<text text-anchor="middle" x="873.62" y="-103.75" font-family="Helvetica,sans-Serif" font-size="10.00">Design</text>
</a>
</g>
</g>
<!-- Node8&#45;&gt;Node10 -->
<g id="edge9_Node000008_Node000010" class="edge">
<title>Node8&#45;&gt;Node10</title>
<g id="a_edge9_Node000008_Node000010"><a xlink:title=" ">
<path fill="none" stroke="#63b8ff" d="M775.03,-99.87C785.17,-101.26 795.43,-102.67 805.28,-104.02"/>
<polygon fill="#63b8ff" stroke="#63b8ff" points="775.52,-96.41 765.14,-98.52 774.57,-103.34 775.52,-96.41"/>
</a>
</g>
</g>
<!-- Node15 -->
<g id="Node000015" class="node">
<title>Node15</title>
<g id="a_Node000015"><a xlink:href="classdunedaq_1_1timing_1_1OuroborosDesign.html" target="_top" xlink:title="Class for PDI timing master design (known as overlord).">
<polygon fill="white" stroke="#666666" points="940.12,-79.5 807.12,-79.5 807.12,-49 940.12,-49 940.12,-79.5"/>
<text text-anchor="start" x="815.12" y="-66" font-family="Helvetica,sans-Serif" font-size="10.00">dunedaq::timing::Ouroboros</text>
<text text-anchor="middle" x="873.62" y="-54.75" font-family="Helvetica,sans-Serif" font-size="10.00">Design</text>
</a>
</g>
</g>
<!-- Node8&#45;&gt;Node15 -->
<g id="edge14_Node000008_Node000015" class="edge">
<title>Node8&#45;&gt;Node15</title>
<g id="a_edge14_Node000008_Node000015"><a xlink:title=" ">
<path fill="none" stroke="#63b8ff" d="M774.76,-77.13C785.5,-75.72 796.36,-74.29 806.74,-72.92"/>
<polygon fill="#63b8ff" stroke="#63b8ff" points="774.6,-73.62 765.14,-78.39 775.51,-80.56 774.6,-73.62"/>
</a>
</g>
</g>
<!-- Node16 -->
<g id="Node000016" class="node">
<title>Node16</title>
<g id="a_Node000016"><a xlink:href="classdunedaq_1_1timing_1_1OverlordDesign.html" target="_top" xlink:title="Class for PDI timing master design (known as overlord).">
<polygon fill="white" stroke="#666666" points="936,-30.5 811.25,-30.5 811.25,0 936,0 936,-30.5"/>
<text text-anchor="start" x="819.25" y="-17" font-family="Helvetica,sans-Serif" font-size="10.00">dunedaq::timing::Overlord</text>
<text text-anchor="middle" x="873.62" y="-5.75" font-family="Helvetica,sans-Serif" font-size="10.00">Design</text>
</a>
</g>
</g>
<!-- Node8&#45;&gt;Node16 -->
<g id="edge15_Node000008_Node000016" class="edge">
<title>Node8&#45;&gt;Node16</title>
<g id="a_edge15_Node000008_Node000016"><a xlink:title=" ">
<path fill="none" stroke="#63b8ff" d="M721.96,-73.42C743.55,-63.54 772.88,-50.53 799.25,-40.25 807.4,-37.07 816.14,-33.9 824.65,-30.93"/>
<polygon fill="#63b8ff" stroke="#63b8ff" points="720.73,-70.13 713.11,-77.5 723.66,-76.49 720.73,-70.13"/>
</a>
</g>
</g>
<!-- Node11 -->
<g id="Node000011" class="node">
<title>Node11</title>
<g id="a_Node000011"><a xlink:href="classdunedaq_1_1timing_1_1FanoutDesign.html" target="_top" xlink:title="Class for timing fanout designs.">
<polygon fill="white" stroke="#666666" points="1132,-180.88 984,-180.88 984,-161.62 1132,-161.62 1132,-180.88"/>
<text text-anchor="middle" x="1058" y="-167.38" font-family="Helvetica,sans-Serif" font-size="10.00">dunedaq::timing::FanoutDesign</text>
</a>
</g>
</g>
<!-- Node10&#45;&gt;Node11 -->
<g id="edge10_Node000010_Node000011" class="edge">
<title>Node10&#45;&gt;Node11</title>
<g id="a_edge10_Node000010_Node000011"><a xlink:title=" ">
<path fill="none" stroke="#63b8ff" d="M935.55,-132.65C939.78,-134.16 943.96,-135.7 948,-137.25 964.34,-143.54 967.44,-147.58 984,-153.25 992.52,-156.17 1001.75,-158.82 1010.69,-161.14"/>
<polygon fill="#63b8ff" stroke="#63b8ff" points="937.02,-129.45 926.42,-129.47 934.72,-136.06 937.02,-129.45"/>
</a>
</g>
</g>
<!-- Node12 -->
<g id="Node000012" class="node">
<title>Node12</title>
<g id="a_Node000012"><a xlink:href="classdunedaq_1_1timing_1_1GaiaDesign.html" target="_top" xlink:title="Class for timing fanout designs.">
<polygon fill="white" stroke="#666666" points="1127.12,-143.88 988.88,-143.88 988.88,-124.62 1127.12,-124.62 1127.12,-143.88"/>
<text text-anchor="middle" x="1058" y="-130.38" font-family="Helvetica,sans-Serif" font-size="10.00">dunedaq::timing::GaiaDesign</text>
</a>
</g>
</g>
<!-- Node10&#45;&gt;Node12 -->
<g id="edge11_Node000010_Node000012" class="edge">
<title>Node10&#45;&gt;Node12</title>
<g id="a_edge11_Node000010_Node000012"><a xlink:title=" ">
<path fill="none" stroke="#63b8ff" d="M953.22,-122.3C965.02,-123.66 977.1,-125.05 988.67,-126.38"/>
<polygon fill="#63b8ff" stroke="#63b8ff" points="953.85,-118.85 943.52,-121.18 953.05,-125.8 953.85,-118.85"/>
</a>
</g>
</g>
<!-- Node13 -->
<g id="Node000013" class="node">
<title>Node13</title>
<g id="a_Node000013"><a xlink:href="classdunedaq_1_1timing_1_1KerberosDesign.html" target="_top" xlink:title="Class for timing fanout designs.">
<polygon fill="white" stroke="#666666" points="1121.5,-106.5 994.5,-106.5 994.5,-76 1121.5,-76 1121.5,-106.5"/>
<text text-anchor="start" x="1002.5" y="-93" font-family="Helvetica,sans-Serif" font-size="10.00">dunedaq::timing::Kerberos</text>
<text text-anchor="middle" x="1058" y="-81.75" font-family="Helvetica,sans-Serif" font-size="10.00">Design</text>
</a>
</g>
</g>
<!-- Node10&#45;&gt;Node13 -->
<g id="edge12_Node000010_Node000013" class="edge">
<title>Node10&#45;&gt;Node13</title>
<g id="a_edge12_Node000010_Node000013"><a xlink:title=" ">
<path fill="none" stroke="#63b8ff" d="M953.35,-103.75C966.97,-102.11 980.98,-100.42 994.12,-98.84"/>
<polygon fill="#63b8ff" stroke="#63b8ff" points="953.03,-100.27 943.52,-104.94 953.87,-107.22 953.03,-100.27"/>
</a>
</g>
</g>
<!-- Node14 -->
<g id="Node000014" class="node">
<title>Node14</title>
<g id="a_Node000014"><a xlink:href="classdunedaq_1_1timing_1_1OuroborosMuxDesign.html" target="_top" xlink:title="Class for PDI ouroboros timing master design.">
<polygon fill="white" stroke="#666666" points="1124.5,-57.5 991.5,-57.5 991.5,-27 1124.5,-27 1124.5,-57.5"/>
<text text-anchor="start" x="999.5" y="-44" font-family="Helvetica,sans-Serif" font-size="10.00">dunedaq::timing::Ouroboros</text>
<text text-anchor="middle" x="1058" y="-32.75" font-family="Helvetica,sans-Serif" font-size="10.00">MuxDesign</text>
</a>
</g>
</g>
<!-- Node10&#45;&gt;Node14 -->
<g id="edge13_Node000010_Node000014" class="edge">
<title>Node10&#45;&gt;Node14</title>
<g id="a_edge13_Node000010_Node000014"><a xlink:title=" ">
<path fill="none" stroke="#63b8ff" d="M935.53,-93.56C939.79,-91.86 943.98,-90.08 948,-88.25 964.85,-80.56 967.16,-74.96 984,-67.25 991.31,-63.91 999.2,-60.76 1007,-57.89"/>
<polygon fill="#63b8ff" stroke="#63b8ff" points="934.39,-90.25 926.29,-97.08 936.88,-96.79 934.39,-90.25"/>
</a>
</g>
</g>
</g>
</svg>
