<?xml version="1.0" encoding="UTF-8" standalone="no"?>
<!DOCTYPE svg PUBLIC "-//W3C//DTD SVG 1.1//EN"
 "http://www.w3.org/Graphics/SVG/1.1/DTD/svg11.dtd">
<!-- Generated by graphviz version 9.0.0 (20230911.1827)
 -->
<!-- Title: dunedaq::trigger::TCProcessor Pages: 1 -->
<svg width="677pt" height="115pt"
 viewBox="0.00 0.00 677.00 114.50" xmlns="http://www.w3.org/2000/svg" xmlns:xlink="http://www.w3.org/1999/xlink">
<g id="graph0" class="graph" transform="scale(1 1) rotate(0) translate(4 110.5)">
<title>dunedaq::trigger::TCProcessor</title>
<!-- Node1 -->
<g id="Node000001" class="node">
<title>Node1</title>
<g id="a_Node000001"><a xlink:title=" ">
<polygon fill="#999999" stroke="#666666" points="669,-38.25 523.25,-38.25 523.25,-19 669,-19 669,-38.25"/>
<text text-anchor="middle" x="596.12" y="-24.75" font-family="Helvetica,sans-Serif" font-size="10.00">dunedaq::trigger::TCProcessor</text>
</a>
</g>
</g>
<!-- Node2 -->
<g id="Node000002" class="node">
<title>Node2</title>
<g id="a_Node000002"><a xlink:href="classdunedaq_1_1readoutlibs_1_1TaskRawDataProcessorModel.html" target="_top" xlink:title=" ">
<polygon fill="white" stroke="#666666" points="381.5,-79.5 229,-79.5 229,-37.75 381.5,-37.75 381.5,-79.5"/>
<text text-anchor="start" x="237" y="-66" font-family="Helvetica,sans-Serif" font-size="10.00">dunedaq::readoutlibs</text>
<text text-anchor="start" x="237" y="-54.75" font-family="Helvetica,sans-Serif" font-size="10.00">::TaskRawDataProcessorModel</text>
<text text-anchor="middle" x="305.25" y="-43.5" font-family="Helvetica,sans-Serif" font-size="10.00">&lt; TCWrapper &gt;</text>
</a>
</g>
</g>
<!-- Node2&#45;&gt;Node1 -->
<g id="edge1_Node000001_Node000002" class="edge">
<title>Node2&#45;&gt;Node1</title>
<g id="a_edge1_Node000001_Node000002"><a xlink:title=" ">
<path fill="none" stroke="#63b8ff" d="M392.98,-50.11C427.88,-46.63 468.48,-42.52 505.25,-38.62 511.03,-38.01 517.01,-37.37 523.02,-36.72"/>
<polygon fill="#63b8ff" stroke="#63b8ff" points="392.98,-46.59 383.37,-51.07 393.67,-53.56 392.98,-46.59"/>
</a>
</g>
</g>
<!-- Node3 -->
<g id="Node000003" class="node">
<title>Node3</title>
<g id="a_Node000003"><a xlink:href="classdunedaq_1_1readoutlibs_1_1RawDataProcessorConcept.html" target="_top" xlink:title=" ">
<polygon fill="white" stroke="#666666" points="140.5,-106.5 0,-106.5 0,-64.75 140.5,-64.75 140.5,-106.5"/>
<text text-anchor="start" x="8" y="-93" font-family="Helvetica,sans-Serif" font-size="10.00">dunedaq::readoutlibs</text>
<text text-anchor="start" x="8" y="-81.75" font-family="Helvetica,sans-Serif" font-size="10.00">::RawDataProcessorConcept</text>
<text text-anchor="middle" x="70.25" y="-70.5" font-family="Helvetica,sans-Serif" font-size="10.00">&lt; ReadoutType &gt;</text>
</a>
</g>
</g>
<!-- Node3&#45;&gt;Node2 -->
<g id="edge2_Node000002_Node000003" class="edge">
<title>Node3&#45;&gt;Node2</title>
<g id="a_edge2_Node000002_Node000003"><a xlink:title=" ">
<path fill="none" stroke="#63b8ff" d="M152.05,-76.26C176.86,-73.39 204.06,-70.24 228.51,-67.4"/>
<polygon fill="#63b8ff" stroke="#63b8ff" points="151.88,-72.76 142.35,-77.39 152.68,-79.71 151.88,-72.76"/>
</a>
</g>
</g>
<!-- Node4 -->
<g id="Node000004" class="node">
<title>Node4</title>
<g id="a_Node000004"><a xlink:href="structdunedaq_1_1daqdataformats_1_1SourceID.html" target="_top" xlink:title="SourceID is a generalized representation of the source of a piece of data in the DAQ....">
<polygon fill="white" stroke="#666666" points="132.62,-46.88 7.88,-46.88 7.88,-16.38 132.62,-16.38 132.62,-46.88"/>
<text text-anchor="start" x="15.88" y="-33.38" font-family="Helvetica,sans-Serif" font-size="10.00">dunedaq::daqdataformats</text>
<text text-anchor="middle" x="70.25" y="-22.12" font-family="Helvetica,sans-Serif" font-size="10.00">::SourceID</text>
</a>
</g>
</g>
<!-- Node4&#45;&gt;Node2 -->
<g id="edge3_Node000002_Node000004" class="edge">
<title>Node4&#45;&gt;Node2</title>
<g id="a_edge3_Node000002_Node000004"><a xlink:title=" ">
<path fill="none" stroke="#9a32cd" stroke-dasharray="5,2" d="M144.36,-40.1C171.25,-43.21 201.73,-46.75 228.82,-49.88"/>
<polygon fill="#9a32cd" stroke="#9a32cd" points="144.92,-36.64 134.58,-38.96 144.11,-43.59 144.92,-36.64"/>
</a>
</g>
<text text-anchor="middle" x="184.75" y="-48.38" font-family="Helvetica,sans-Serif" font-size="10.00" fill="grey"> m_sourceid</text>
</g>
<!-- Node5 -->
<g id="Node000005" class="node">
<title>Node5</title>
<g id="a_Node000005"><a xlink:title=" ">
<polygon fill="white" stroke="#666666" points="322.25,-19.25 288.25,-19.25 288.25,0 322.25,0 322.25,-19.25"/>
<text text-anchor="middle" x="305.25" y="-5.75" font-family="Helvetica,sans-Serif" font-size="10.00">json</text>
</a>
</g>
</g>
<!-- Node5&#45;&gt;Node1 -->
<g id="edge4_Node000001_Node000005" class="edge">
<title>Node5&#45;&gt;Node1</title>
<g id="a_edge4_Node000001_Node000005"><a xlink:title=" ">
<path fill="none" stroke="#9a32cd" stroke-dasharray="5,2" d="M334.04,-9.61C372.55,-9.8 444.31,-10.91 505.25,-16.12 512.78,-16.77 520.65,-17.61 528.47,-18.56"/>
<polygon fill="#9a32cd" stroke="#9a32cd" points="334.06,-6.11 324.05,-9.58 334.04,-13.11 334.06,-6.11"/>
</a>
</g>
<text text-anchor="middle" x="452.38" y="-29.62" font-family="Helvetica,sans-Serif" font-size="10.00" fill="grey"> m_group_links_data</text>
<text text-anchor="middle" x="452.38" y="-18.38" font-family="Helvetica,sans-Serif" font-size="10.00" fill="grey">m_trigger_bitwords_json</text>
</g>
</g>
</svg>
