<?xml version="1.0" encoding="UTF-8" standalone="no"?>
<!DOCTYPE svg PUBLIC "-//W3C//DTD SVG 1.1//EN"
 "http://www.w3.org/Graphics/SVG/1.1/DTD/svg11.dtd">
<!-- Generated by graphviz version 9.0.0 (20230911.1827)
 -->
<!-- Title: dunedaq::fdreadoutlibs::DAPHNEFrameProcessor Pages: 1 -->
<svg width="564pt" height="50pt"
 viewBox="0.00 0.00 563.75 49.75" xmlns="http://www.w3.org/2000/svg" xmlns:xlink="http://www.w3.org/1999/xlink">
<g id="graph0" class="graph" transform="scale(1 1) rotate(0) translate(4 45.75)">
<title>dunedaq::fdreadoutlibs::DAPHNEFrameProcessor</title>
<!-- Node1 -->
<g id="Node000001" class="node">
<title>Node1</title>
<g id="a_Node000001"><a xlink:title=" ">
<polygon fill="#999999" stroke="#666666" points="555.75,-36.12 422,-36.12 422,-5.62 555.75,-5.62 555.75,-36.12"/>
<text text-anchor="start" x="430" y="-22.62" font-family="Helvetica,sans-Serif" font-size="10.00">dunedaq::fdreadoutlibs</text>
<text text-anchor="middle" x="488.88" y="-11.38" font-family="Helvetica,sans-Serif" font-size="10.00">::DAPHNEFrameProcessor</text>
</a>
</g>
</g>
<!-- Node2 -->
<g id="Node000002" class="node">
<title>Node2</title>
<g id="a_Node000002"><a xlink:href="classdunedaq_1_1readoutlibs_1_1TaskRawDataProcessorModel.html" target="_top" xlink:title=" ">
<polygon fill="white" stroke="#666666" points="386,-41.75 176.5,-41.75 176.5,0 386,0 386,-41.75"/>
<text text-anchor="start" x="184.5" y="-28.25" font-family="Helvetica,sans-Serif" font-size="10.00">dunedaq::readoutlibs</text>
<text text-anchor="start" x="184.5" y="-17" font-family="Helvetica,sans-Serif" font-size="10.00">::TaskRawDataProcessorModel</text>
<text text-anchor="middle" x="281.25" y="-5.75" font-family="Helvetica,sans-Serif" font-size="10.00">&lt; types::DAPHNESuperChunkTypeAdapter &gt;</text>
</a>
</g>
</g>
<!-- Node2&#45;&gt;Node1 -->
<g id="edge1_Node000001_Node000002" class="edge">
<title>Node2&#45;&gt;Node1</title>
<g id="a_edge1_Node000001_Node000002"><a xlink:title=" ">
<path fill="none" stroke="#63b8ff" d="M397.54,-20.88C405.77,-20.88 413.9,-20.88 421.7,-20.88"/>
<polygon fill="#63b8ff" stroke="#63b8ff" points="397.78,-17.38 387.78,-20.88 397.78,-24.38 397.78,-17.38"/>
</a>
</g>
</g>
<!-- Node3 -->
<g id="Node000003" class="node">
<title>Node3</title>
<g id="a_Node000003"><a xlink:href="classdunedaq_1_1readoutlibs_1_1RawDataProcessorConcept.html" target="_top" xlink:title=" ">
<polygon fill="white" stroke="#666666" points="140.5,-41.75 0,-41.75 0,0 140.5,0 140.5,-41.75"/>
<text text-anchor="start" x="8" y="-28.25" font-family="Helvetica,sans-Serif" font-size="10.00">dunedaq::readoutlibs</text>
<text text-anchor="start" x="8" y="-17" font-family="Helvetica,sans-Serif" font-size="10.00">::RawDataProcessorConcept</text>
<text text-anchor="middle" x="70.25" y="-5.75" font-family="Helvetica,sans-Serif" font-size="10.00">&lt; ReadoutType &gt;</text>
</a>
</g>
</g>
<!-- Node3&#45;&gt;Node2 -->
<g id="edge2_Node000002_Node000003" class="edge">
<title>Node3&#45;&gt;Node2</title>
<g id="a_edge2_Node000002_Node000003"><a xlink:title=" ">
<path fill="none" stroke="#63b8ff" d="M152.25,-20.88C160.13,-20.88 168.21,-20.88 176.29,-20.88"/>
<polygon fill="#63b8ff" stroke="#63b8ff" points="152.36,-17.38 142.36,-20.88 152.36,-24.38 152.36,-17.38"/>
</a>
</g>
</g>
</g>
</svg>
