<?xml version="1.0" encoding="UTF-8" standalone="no"?>
<!DOCTYPE svg PUBLIC "-//W3C//DTD SVG 1.1//EN"
 "http://www.w3.org/Graphics/SVG/1.1/DTD/svg11.dtd">
<!-- Generated by graphviz version 9.0.0 (20230911.1827)
 -->
<!-- Title: dunedaq::appdal::TAAlgorithm Pages: 1 -->
<svg width="701pt" height="88pt"
 viewBox="0.00 0.00 700.50 87.50" xmlns="http://www.w3.org/2000/svg" xmlns:xlink="http://www.w3.org/1999/xlink">
<g id="graph0" class="graph" transform="scale(1 1) rotate(0) translate(4 83.5)">
<title>dunedaq::appdal::TAAlgorithm</title>
<!-- Node1 -->
<g id="Node000001" class="node">
<title>Node1</title>
<g id="a_Node000001"><a xlink:title=" ">
<polygon fill="#999999" stroke="#666666" points="486.75,-48.88 342.5,-48.88 342.5,-29.62 486.75,-29.62 486.75,-48.88"/>
<text text-anchor="middle" x="414.62" y="-35.38" font-family="Helvetica,sans-Serif" font-size="10.00">dunedaq::appdal::TAAlgorithm</text>
</a>
</g>
</g>
<!-- Node4 -->
<g id="Node000004" class="node">
<title>Node4</title>
<g id="a_Node000004"><a xlink:href="classdunedaq_1_1appdal_1_1TriggerActivityMakerHorizontalMuonPlugin.html" target="_top" xlink:title=" ">
<polygon fill="white" stroke="#666666" points="692.5,-79.5 522.75,-79.5 522.75,-49 692.5,-49 692.5,-79.5"/>
<text text-anchor="start" x="530.75" y="-66" font-family="Helvetica,sans-Serif" font-size="10.00">dunedaq::appdal::Trigger</text>
<text text-anchor="middle" x="607.62" y="-54.75" font-family="Helvetica,sans-Serif" font-size="10.00">ActivityMakerHorizontalMuonPlugin</text>
</a>
</g>
</g>
<!-- Node1&#45;&gt;Node4 -->
<g id="edge5_Node000001_Node000004" class="edge">
<title>Node1&#45;&gt;Node4</title>
<g id="a_edge5_Node000001_Node000004"><a xlink:title=" ">
<path fill="none" stroke="#63b8ff" d="M498.09,-43.35C510.81,-44.91 523.85,-46.66 536.27,-48.5"/>
<polygon fill="#63b8ff" stroke="#63b8ff" points="498.86,-39.92 488.52,-42.22 498.04,-46.87 498.86,-39.92"/>
</a>
</g>
</g>
<!-- Node1&#45;&gt;Node4 -->
<g id="edge6_Node000001_Node000004" class="edge">
<title>Node1&#45;&gt;Node4</title>
<g id="a_edge6_Node000001_Node000004"><a xlink:title=" ">
<path fill="none" stroke="#63b8ff" d="M462.66,-51.31C480.74,-54.37 501.99,-57.42 522.52,-59.95"/>
<polygon fill="#63b8ff" stroke="#63b8ff" points="463.5,-47.91 453.04,-49.63 462.28,-54.8 463.5,-47.91"/>
</a>
</g>
</g>
<!-- Node5 -->
<g id="Node000005" class="node">
<title>Node5</title>
<g id="a_Node000005"><a xlink:href="classdunedaq_1_1appdal_1_1TriggerActivityMakerPrescalePlugin.html" target="_top" xlink:title=" ">
<polygon fill="white" stroke="#666666" points="677.88,-30.5 537.38,-30.5 537.38,0 677.88,0 677.88,-30.5"/>
<text text-anchor="start" x="545.38" y="-17" font-family="Helvetica,sans-Serif" font-size="10.00">dunedaq::appdal::Trigger</text>
<text text-anchor="middle" x="607.62" y="-5.75" font-family="Helvetica,sans-Serif" font-size="10.00">ActivityMakerPrescalePlugin</text>
</a>
</g>
</g>
<!-- Node1&#45;&gt;Node5 -->
<g id="edge7_Node000001_Node000005" class="edge">
<title>Node1&#45;&gt;Node5</title>
<g id="a_edge7_Node000001_Node000005"><a xlink:title=" ">
<path fill="none" stroke="#63b8ff" d="M463.61,-27.28C485.83,-23.66 512.66,-20.1 537.04,-17.47"/>
<polygon fill="#63b8ff" stroke="#63b8ff" points="463.22,-23.79 453.94,-28.91 464.39,-30.69 463.22,-23.79"/>
</a>
</g>
</g>
<!-- Node1&#45;&gt;Node5 -->
<g id="edge8_Node000001_Node000005" class="edge">
<title>Node1&#45;&gt;Node5</title>
<g id="a_edge8_Node000001_Node000005"><a xlink:title=" ">
<path fill="none" stroke="#63b8ff" d="M498.24,-35.56C511.13,-34.05 524.34,-32.34 536.9,-30.54"/>
<polygon fill="#63b8ff" stroke="#63b8ff" points="498.06,-32.06 488.52,-36.66 498.85,-39.02 498.06,-32.06"/>
</a>
</g>
</g>
<!-- Node2 -->
<g id="Node000002" class="node">
<title>Node2</title>
<g id="a_Node000002"><a xlink:href="classdunedaq_1_1coredal_1_1Jsonable.html" target="_top" xlink:title=" ">
<polygon fill="white" stroke="#666666" points="306.5,-48.88 174.25,-48.88 174.25,-29.62 306.5,-29.62 306.5,-48.88"/>
<text text-anchor="middle" x="240.38" y="-35.38" font-family="Helvetica,sans-Serif" font-size="10.00">dunedaq::coredal::Jsonable</text>
</a>
</g>
</g>
<!-- Node2&#45;&gt;Node1 -->
<g id="edge1_Node000001_Node000002" class="edge">
<title>Node2&#45;&gt;Node1</title>
<g id="a_edge1_Node000001_Node000002"><a xlink:title=" ">
<path fill="none" stroke="#63b8ff" d="M318.45,-32.53C326.34,-32.48 334.34,-32.49 342.17,-32.59"/>
<polygon fill="#63b8ff" stroke="#63b8ff" points="318.46,-29.03 308.5,-32.65 318.54,-36.03 318.46,-29.03"/>
</a>
</g>
</g>
<!-- Node2&#45;&gt;Node1 -->
<g id="edge4_Node000001_Node000002" class="edge">
<title>Node2&#45;&gt;Node1</title>
<g id="a_edge4_Node000001_Node000002"><a xlink:title=" ">
<path fill="none" stroke="#63b8ff" d="M318.45,-45.97C326.34,-46.02 334.34,-46.01 342.17,-45.91"/>
<polygon fill="#63b8ff" stroke="#63b8ff" points="318.54,-42.47 308.5,-45.85 318.46,-49.47 318.54,-42.47"/>
</a>
</g>
</g>
<!-- Node3 -->
<g id="Node000003" class="node">
<title>Node3</title>
<g id="a_Node000003"><a xlink:href="classdunedaq_1_1conffwk_1_1DalObject.html" target="_top" xlink:title="The base class for any generated DAL object.">
<polygon fill="white" stroke="#666666" points="138.25,-48.88 0,-48.88 0,-29.62 138.25,-29.62 138.25,-48.88"/>
<text text-anchor="middle" x="69.12" y="-35.38" font-family="Helvetica,sans-Serif" font-size="10.00">dunedaq::conffwk::DalObject</text>
</a>
</g>
</g>
<!-- Node3&#45;&gt;Node2 -->
<g id="edge2_Node000002_Node000003" class="edge">
<title>Node3&#45;&gt;Node2</title>
<g id="a_edge2_Node000002_Node000003"><a xlink:title=" ">
<path fill="none" stroke="#63b8ff" d="M149.78,-32.51C157.82,-32.48 165.92,-32.52 173.79,-32.65"/>
<polygon fill="#63b8ff" stroke="#63b8ff" points="149.96,-29.01 139.99,-32.6 150.02,-36.01 149.96,-29.01"/>
</a>
</g>
</g>
<!-- Node3&#45;&gt;Node2 -->
<g id="edge3_Node000002_Node000003" class="edge">
<title>Node3&#45;&gt;Node2</title>
<g id="a_edge3_Node000002_Node000003"><a xlink:title=" ">
<path fill="none" stroke="#63b8ff" d="M149.78,-45.99C157.82,-46.02 165.92,-45.98 173.79,-45.85"/>
<polygon fill="#63b8ff" stroke="#63b8ff" points="150.02,-42.49 139.99,-45.9 149.96,-49.49 150.02,-42.49"/>
</a>
</g>
</g>
</g>
</svg>
