<?xml version="1.0" encoding="UTF-8" standalone="no"?>
<!DOCTYPE svg PUBLIC "-//W3C//DTD SVG 1.1//EN"
 "http://www.w3.org/Graphics/SVG/1.1/DTD/svg11.dtd">
<!-- Generated by graphviz version 9.0.0 (20230911.1827)
 -->
<!-- Title: dunedaq::readoutlibs::DefaultRequestHandlerModel&lt; ReadoutType, LatencyBufferType &gt; Pages: 1 -->
<svg width="807pt" height="170pt"
 viewBox="0.00 0.00 807.00 169.75" xmlns="http://www.w3.org/2000/svg" xmlns:xlink="http://www.w3.org/1999/xlink">
<g id="graph0" class="graph" transform="scale(1 1) rotate(0) translate(4 165.75)">
<title>dunedaq::readoutlibs::DefaultRequestHandlerModel&lt; ReadoutType, LatencyBufferType &gt;</title>
<!-- Node1 -->
<g id="Node000001" class="node">
<title>Node1</title>
<g id="a_Node000001"><a xlink:title=" ">
<polygon fill="#999999" stroke="#666666" points="387.5,-101.75 211.75,-101.75 211.75,-60 387.5,-60 387.5,-101.75"/>
<text text-anchor="start" x="219.75" y="-88.25" font-family="Helvetica,sans-Serif" font-size="10.00">dunedaq::readoutlibs</text>
<text text-anchor="start" x="219.75" y="-77" font-family="Helvetica,sans-Serif" font-size="10.00">::DefaultRequestHandlerModel</text>
<text text-anchor="middle" x="299.62" y="-65.75" font-family="Helvetica,sans-Serif" font-size="10.00">&lt; ReadoutType, LatencyBufferType &gt;</text>
</a>
</g>
</g>
<!-- Node3 -->
<g id="Node000003" class="node">
<title>Node3</title>
<g id="a_Node000003"><a xlink:href="classdunedaq_1_1readoutlibs_1_1DefaultSkipListRequestHandler.html" target="_top" xlink:title=" ">
<polygon fill="white" stroke="#666666" points="603,-161.75 446,-161.75 446,-120 603,-120 603,-161.75"/>
<text text-anchor="start" x="454" y="-148.25" font-family="Helvetica,sans-Serif" font-size="10.00">dunedaq::readoutlibs</text>
<text text-anchor="start" x="454" y="-137" font-family="Helvetica,sans-Serif" font-size="10.00">::DefaultSkipListRequestHandler</text>
<text text-anchor="middle" x="524.5" y="-125.75" font-family="Helvetica,sans-Serif" font-size="10.00">&lt; TriggerPrimitiveTypeAdapter &gt;</text>
</a>
</g>
</g>
<!-- Node1&#45;&gt;Node3 -->
<g id="edge2_Node000001_Node000003" class="edge">
<title>Node1&#45;&gt;Node3</title>
<g id="a_edge2_Node000001_Node000003"><a xlink:title=" ">
<path fill="none" stroke="#63b8ff" d="M390.74,-105.14C408.94,-110.04 427.94,-115.15 445.67,-119.92"/>
<polygon fill="#63b8ff" stroke="#63b8ff" points="391.86,-101.81 381.29,-102.59 390.04,-108.57 391.86,-101.81"/>
</a>
</g>
</g>
<!-- Node5 -->
<g id="Node000005" class="node">
<title>Node5</title>
<g id="a_Node000005"><a xlink:href="classdunedaq_1_1readoutlibs_1_1EmptyFragmentRequestHandlerModel.html" target="_top" xlink:title=" ">
<polygon fill="white" stroke="#666666" points="625.5,-101.75 423.5,-101.75 423.5,-60 625.5,-60 625.5,-101.75"/>
<text text-anchor="start" x="431.5" y="-88.25" font-family="Helvetica,sans-Serif" font-size="10.00">dunedaq::readoutlibs</text>
<text text-anchor="start" x="431.5" y="-77" font-family="Helvetica,sans-Serif" font-size="10.00">::EmptyFragmentRequestHandler</text>
<text text-anchor="middle" x="524.5" y="-65.75" font-family="Helvetica,sans-Serif" font-size="10.00">Model&lt; ReadoutType, LatencyBufferType &gt;</text>
</a>
</g>
</g>
<!-- Node1&#45;&gt;Node5 -->
<g id="edge4_Node000001_Node000005" class="edge">
<title>Node1&#45;&gt;Node5</title>
<g id="a_edge4_Node000001_Node000005"><a xlink:title=" ">
<path fill="none" stroke="#63b8ff" d="M398.99,-80.88C407,-80.88 415.1,-80.88 423.12,-80.88"/>
<polygon fill="#63b8ff" stroke="#63b8ff" points="399.27,-77.38 389.27,-80.88 399.27,-84.38 399.27,-77.38"/>
</a>
</g>
</g>
<!-- Node6 -->
<g id="Node000006" class="node">
<title>Node6</title>
<g id="a_Node000006"><a xlink:href="classdunedaq_1_1readoutlibs_1_1ZeroCopyRecordingRequestHandlerModel.html" target="_top" xlink:title=" ">
<polygon fill="white" stroke="#666666" points="625.5,-41.75 423.5,-41.75 423.5,0 625.5,0 625.5,-41.75"/>
<text text-anchor="start" x="431.5" y="-28.25" font-family="Helvetica,sans-Serif" font-size="10.00">dunedaq::readoutlibs</text>
<text text-anchor="start" x="431.5" y="-17" font-family="Helvetica,sans-Serif" font-size="10.00">::ZeroCopyRecordingRequestHandler</text>
<text text-anchor="middle" x="524.5" y="-5.75" font-family="Helvetica,sans-Serif" font-size="10.00">Model&lt; ReadoutType, LatencyBufferType &gt;</text>
</a>
</g>
</g>
<!-- Node1&#45;&gt;Node6 -->
<g id="edge5_Node000001_Node000006" class="edge">
<title>Node1&#45;&gt;Node6</title>
<g id="a_edge5_Node000001_Node000006"><a xlink:title=" ">
<path fill="none" stroke="#63b8ff" d="M390.73,-56.62C408.43,-51.85 426.87,-46.89 444.17,-42.23"/>
<polygon fill="#63b8ff" stroke="#63b8ff" points="390.04,-53.18 381.29,-59.16 391.86,-59.94 390.04,-53.18"/>
</a>
</g>
</g>
<!-- Node2 -->
<g id="Node000002" class="node">
<title>Node2</title>
<g id="a_Node000002"><a xlink:href="classdunedaq_1_1readoutlibs_1_1RequestHandlerConcept.html" target="_top" xlink:title=" ">
<polygon fill="white" stroke="#666666" points="175.75,-101.75 0,-101.75 0,-60 175.75,-60 175.75,-101.75"/>
<text text-anchor="start" x="8" y="-88.25" font-family="Helvetica,sans-Serif" font-size="10.00">dunedaq::readoutlibs</text>
<text text-anchor="start" x="8" y="-77" font-family="Helvetica,sans-Serif" font-size="10.00">::RequestHandlerConcept</text>
<text text-anchor="middle" x="87.88" y="-65.75" font-family="Helvetica,sans-Serif" font-size="10.00">&lt; ReadoutType, LatencyBufferType &gt;</text>
</a>
</g>
</g>
<!-- Node2&#45;&gt;Node1 -->
<g id="edge1_Node000001_Node000002" class="edge">
<title>Node2&#45;&gt;Node1</title>
<g id="a_edge1_Node000001_Node000002"><a xlink:title=" ">
<path fill="none" stroke="#63b8ff" d="M187.33,-80.88C195.37,-80.88 203.47,-80.88 211.43,-80.88"/>
<polygon fill="#63b8ff" stroke="#63b8ff" points="187.52,-77.38 177.52,-80.88 187.52,-84.38 187.52,-77.38"/>
</a>
</g>
</g>
<!-- Node4 -->
<g id="Node000004" class="node">
<title>Node4</title>
<g id="a_Node000004"><a xlink:href="classdunedaq_1_1trigger_1_1TPRequestHandler.html" target="_top" xlink:title=" ">
<polygon fill="white" stroke="#666666" points="799,-156.12 661.5,-156.12 661.5,-125.62 799,-125.62 799,-156.12"/>
<text text-anchor="start" x="669.5" y="-142.62" font-family="Helvetica,sans-Serif" font-size="10.00">dunedaq::trigger::TPRequest</text>
<text text-anchor="middle" x="730.25" y="-131.38" font-family="Helvetica,sans-Serif" font-size="10.00">Handler</text>
</a>
</g>
</g>
<!-- Node3&#45;&gt;Node4 -->
<g id="edge3_Node000003_Node000004" class="edge">
<title>Node3&#45;&gt;Node4</title>
<g id="a_edge3_Node000003_Node000004"><a xlink:title=" ">
<path fill="none" stroke="#63b8ff" d="M614.64,-140.88C630.2,-140.88 646.16,-140.88 661.05,-140.88"/>
<polygon fill="#63b8ff" stroke="#63b8ff" points="614.91,-137.38 604.91,-140.88 614.91,-144.38 614.91,-137.38"/>
</a>
</g>
</g>
</g>
</svg>
