<?xml version="1.0" encoding="UTF-8" standalone="no"?>
<!DOCTYPE svg PUBLIC "-//W3C//DTD SVG 1.1//EN"
 "http://www.w3.org/Graphics/SVG/1.1/DTD/svg11.dtd">
<!-- Generated by graphviz version 9.0.0 (20230911.1827)
 -->
<!-- Title: dunedaq::coredal::ResourceBase Pages: 1 -->
<svg width="1253pt" height="247pt"
 viewBox="0.00 0.00 1253.25 246.88" xmlns="http://www.w3.org/2000/svg" xmlns:xlink="http://www.w3.org/1999/xlink">
<g id="graph0" class="graph" transform="scale(1 1) rotate(0) translate(4 242.88)">
<title>dunedaq::coredal::ResourceBase</title>
<!-- Node1 -->
<g id="Node000001" class="node">
<title>Node1</title>
<g id="a_Node000001"><a xlink:title=" ">
<polygon fill="#999999" stroke="#666666" points="510,-148.25 353,-148.25 353,-129 510,-129 510,-148.25"/>
<text text-anchor="middle" x="431.5" y="-134.75" font-family="Helvetica,sans-Serif" font-size="10.00">dunedaq::coredal::ResourceBase</text>
</a>
</g>
</g>
<!-- Node4 -->
<g id="Node000004" class="node">
<title>Node4</title>
<g id="a_Node000004"><a xlink:href="classdunedaq_1_1appdal_1_1FakeDataProdConf.html" target="_top" xlink:title=" ">
<polygon fill="white" stroke="#666666" points="695.12,-233.88 562.88,-233.88 562.88,-203.38 695.12,-203.38 695.12,-233.88"/>
<text text-anchor="start" x="570.88" y="-220.38" font-family="Helvetica,sans-Serif" font-size="10.00">dunedaq::appdal::FakeData</text>
<text text-anchor="middle" x="629" y="-209.12" font-family="Helvetica,sans-Serif" font-size="10.00">ProdConf</text>
</a>
</g>
</g>
<!-- Node1&#45;&gt;Node4 -->
<g id="edge5_Node000001_Node000004" class="edge">
<title>Node1&#45;&gt;Node4</title>
<g id="a_edge5_Node000001_Node000004"><a xlink:title=" ">
<path fill="none" stroke="#63b8ff" d="M474.8,-153.56C495.82,-163.57 521.83,-176.21 546,-185.62 562.59,-192.09 581.64,-197.76 597.2,-202.9"/>
<polygon fill="#63b8ff" stroke="#63b8ff" points="476.51,-150.5 465.97,-149.39 473.52,-156.83 476.51,-150.5"/>
</a>
</g>
</g>
<!-- Node1&#45;&gt;Node4 -->
<g id="edge6_Node000001_Node000004" class="edge">
<title>Node1&#45;&gt;Node4</title>
<g id="a_edge6_Node000001_Node000004"><a xlink:title=" ">
<path fill="none" stroke="#63b8ff" d="M450.51,-155.09C472.53,-169.8 511.18,-190.06 546,-203.62 551.39,-205.73 557.04,-207.74 562.75,-209.62"/>
<polygon fill="#63b8ff" stroke="#63b8ff" points="452.78,-152.42 442.61,-149.45 448.71,-158.11 452.78,-152.42"/>
</a>
</g>
</g>
<!-- Node5 -->
<g id="Node000005" class="node">
<title>Node5</title>
<g id="a_Node000005"><a xlink:href="classdunedaq_1_1coredal_1_1DROStreamConf.html" target="_top" xlink:title=" ">
<polygon fill="white" stroke="#666666" points="712,-185.25 546,-185.25 546,-166 712,-166 712,-185.25"/>
<text text-anchor="middle" x="629" y="-171.75" font-family="Helvetica,sans-Serif" font-size="10.00">dunedaq::coredal::DROStreamConf</text>
</a>
</g>
</g>
<!-- Node1&#45;&gt;Node5 -->
<g id="edge7_Node000001_Node000005" class="edge">
<title>Node1&#45;&gt;Node5</title>
<g id="a_edge7_Node000001_Node000005"><a xlink:title=" ">
<path fill="none" stroke="#63b8ff" d="M521.66,-148.77C550.3,-154.04 579.93,-160.27 600.61,-165.58"/>
<polygon fill="#63b8ff" stroke="#63b8ff" points="522.28,-145.33 511.82,-147 521.04,-152.22 522.28,-145.33"/>
</a>
</g>
</g>
<!-- Node1&#45;&gt;Node5 -->
<g id="edge8_Node000001_Node000005" class="edge">
<title>Node1&#45;&gt;Node5</title>
<g id="a_edge8_Node000001_Node000005"><a xlink:title=" ">
<path fill="none" stroke="#63b8ff" d="M471.26,-151.47C492.55,-156.53 519.81,-162.08 545.6,-166.71"/>
<polygon fill="#63b8ff" stroke="#63b8ff" points="472.11,-148.08 461.57,-149.08 470.44,-154.87 472.11,-148.08"/>
</a>
</g>
</g>
<!-- Node6 -->
<g id="Node000006" class="node">
<title>Node6</title>
<g id="a_Node000006"><a xlink:href="classdunedaq_1_1coredal_1_1Resource.html" target="_top" xlink:title=" ">
<polygon fill="white" stroke="#666666" points="696.25,-148.25 561.75,-148.25 561.75,-129 696.25,-129 696.25,-148.25"/>
<text text-anchor="middle" x="629" y="-134.75" font-family="Helvetica,sans-Serif" font-size="10.00">dunedaq::coredal::Resource</text>
</a>
</g>
</g>
<!-- Node1&#45;&gt;Node6 -->
<g id="edge9_Node000001_Node000006" class="edge">
<title>Node1&#45;&gt;Node6</title>
<g id="a_edge9_Node000001_Node000006"><a xlink:title=" ">
<path fill="none" stroke="#63b8ff" d="M521.54,-131.9C534.97,-131.83 548.62,-131.92 561.47,-132.19"/>
<polygon fill="#63b8ff" stroke="#63b8ff" points="521.81,-128.4 511.84,-131.99 521.87,-135.4 521.81,-128.4"/>
</a>
</g>
</g>
<!-- Node1&#45;&gt;Node6 -->
<g id="edge10_Node000001_Node000006" class="edge">
<title>Node1&#45;&gt;Node6</title>
<g id="a_edge10_Node000001_Node000006"><a xlink:title=" ">
<path fill="none" stroke="#63b8ff" d="M521.54,-145.35C534.97,-145.42 548.62,-145.33 561.47,-145.06"/>
<polygon fill="#63b8ff" stroke="#63b8ff" points="521.87,-141.85 511.84,-145.26 521.81,-148.85 521.87,-141.85"/>
</a>
</g>
</g>
<!-- Node7 -->
<g id="Node000007" class="node">
<title>Node7</title>
<g id="a_Node000007"><a xlink:href="classdunedaq_1_1coredal_1_1ResourceSet.html" target="_top" xlink:title=" ">
<polygon fill="white" stroke="#666666" points="703.75,-111.25 554.25,-111.25 554.25,-92 703.75,-92 703.75,-111.25"/>
<text text-anchor="middle" x="629" y="-97.75" font-family="Helvetica,sans-Serif" font-size="10.00">dunedaq::coredal::ResourceSet</text>
</a>
</g>
</g>
<!-- Node1&#45;&gt;Node7 -->
<g id="edge11_Node000001_Node000007" class="edge">
<title>Node1&#45;&gt;Node7</title>
<g id="a_edge11_Node000001_Node000007"><a xlink:title=" ">
<path fill="none" stroke="#63b8ff" d="M471.03,-125.83C494.62,-120.22 525.57,-114.01 553.76,-109.1"/>
<polygon fill="#63b8ff" stroke="#63b8ff" points="470.44,-122.38 461.57,-128.17 472.11,-129.17 470.44,-122.38"/>
</a>
</g>
</g>
<!-- Node1&#45;&gt;Node7 -->
<g id="edge32_Node000001_Node000007" class="edge">
<title>Node1&#45;&gt;Node7</title>
<g id="a_edge32_Node000001_Node000007"><a xlink:title=" ">
<path fill="none" stroke="#63b8ff" d="M521.66,-128.48C550.3,-123.21 579.93,-116.98 600.61,-111.67"/>
<polygon fill="#63b8ff" stroke="#63b8ff" points="521.04,-125.03 511.82,-130.25 522.28,-131.92 521.04,-125.03"/>
</a>
</g>
</g>
<!-- Node18 -->
<g id="Node000018" class="node">
<title>Node18</title>
<g id="a_Node000018"><a xlink:href="classdunedaq_1_1coredal_1_1Segment.html" target="_top" xlink:title=" ">
<polygon fill="white" stroke="#666666" points="695.12,-74.25 562.88,-74.25 562.88,-55 695.12,-55 695.12,-74.25"/>
<text text-anchor="middle" x="629" y="-60.75" font-family="Helvetica,sans-Serif" font-size="10.00">dunedaq::coredal::Segment</text>
</a>
</g>
</g>
<!-- Node1&#45;&gt;Node18 -->
<g id="edge33_Node000001_Node000018" class="edge">
<title>Node1&#45;&gt;Node18</title>
<g id="a_edge33_Node000001_Node000018"><a xlink:title=" ">
<path fill="none" stroke="#63b8ff" d="M450.03,-121.98C471.84,-106.85 510.56,-86.05 546,-73.62 551.36,-71.74 557,-70.02 562.69,-68.48"/>
<polygon fill="#63b8ff" stroke="#63b8ff" points="448.16,-119 442.23,-127.78 452.34,-124.62 448.16,-119"/>
</a>
</g>
</g>
<!-- Node1&#45;&gt;Node18 -->
<g id="edge34_Node000001_Node000018" class="edge">
<title>Node1&#45;&gt;Node18</title>
<g id="a_edge34_Node000001_Node000018"><a xlink:title=" ">
<path fill="none" stroke="#63b8ff" d="M473.17,-123.62C494.35,-113.33 520.99,-100.39 546,-91.62 566.77,-84.34 591.57,-79.39 608.41,-74.7"/>
<polygon fill="#63b8ff" stroke="#63b8ff" points="471.77,-120.41 464.3,-127.92 474.82,-126.71 471.77,-120.41"/>
</a>
</g>
</g>
<!-- Node2 -->
<g id="Node000002" class="node">
<title>Node2</title>
<g id="a_Node000002"><a xlink:href="classdunedaq_1_1coredal_1_1Component.html" target="_top" xlink:title=" ">
<polygon fill="white" stroke="#666666" points="317,-148.25 174.25,-148.25 174.25,-129 317,-129 317,-148.25"/>
<text text-anchor="middle" x="245.62" y="-134.75" font-family="Helvetica,sans-Serif" font-size="10.00">dunedaq::coredal::Component</text>
</a>
</g>
</g>
<!-- Node2&#45;&gt;Node1 -->
<g id="edge1_Node000001_Node000002" class="edge">
<title>Node2&#45;&gt;Node1</title>
<g id="a_edge1_Node000001_Node000002"><a xlink:title=" ">
<path fill="none" stroke="#63b8ff" d="M328.93,-131.91C336.83,-131.85 344.82,-131.87 352.68,-131.95"/>
<polygon fill="#63b8ff" stroke="#63b8ff" points="328.93,-128.41 318.97,-132.02 329,-135.41 328.93,-128.41"/>
</a>
</g>
</g>
<!-- Node2&#45;&gt;Node1 -->
<g id="edge4_Node000001_Node000002" class="edge">
<title>Node2&#45;&gt;Node1</title>
<g id="a_edge4_Node000001_Node000002"><a xlink:title=" ">
<path fill="none" stroke="#63b8ff" d="M328.93,-145.34C336.83,-145.4 344.82,-145.38 352.68,-145.3"/>
<polygon fill="#63b8ff" stroke="#63b8ff" points="329,-141.84 318.97,-145.23 328.93,-148.84 329,-141.84"/>
</a>
</g>
</g>
<!-- Node3 -->
<g id="Node000003" class="node">
<title>Node3</title>
<g id="a_Node000003"><a xlink:href="classdunedaq_1_1conffwk_1_1DalObject.html" target="_top" xlink:title="The base class for any generated DAL object.">
<polygon fill="white" stroke="#666666" points="138.25,-148.25 0,-148.25 0,-129 138.25,-129 138.25,-148.25"/>
<text text-anchor="middle" x="69.12" y="-134.75" font-family="Helvetica,sans-Serif" font-size="10.00">dunedaq::conffwk::DalObject</text>
</a>
</g>
</g>
<!-- Node3&#45;&gt;Node2 -->
<g id="edge2_Node000002_Node000003" class="edge">
<title>Node3&#45;&gt;Node2</title>
<g id="a_edge2_Node000002_Node000003"><a xlink:title=" ">
<path fill="none" stroke="#63b8ff" d="M150.08,-131.9C157.99,-131.85 165.97,-131.88 173.77,-131.98"/>
<polygon fill="#63b8ff" stroke="#63b8ff" points="150.07,-128.4 140.1,-132 150.14,-135.4 150.07,-128.4"/>
</a>
</g>
</g>
<!-- Node3&#45;&gt;Node2 -->
<g id="edge3_Node000002_Node000003" class="edge">
<title>Node3&#45;&gt;Node2</title>
<g id="a_edge3_Node000002_Node000003"><a xlink:title=" ">
<path fill="none" stroke="#63b8ff" d="M150.08,-145.35C157.99,-145.4 165.97,-145.37 173.77,-145.27"/>
<polygon fill="#63b8ff" stroke="#63b8ff" points="150.14,-141.85 140.1,-145.25 150.07,-148.85 150.14,-141.85"/>
</a>
</g>
</g>
<!-- Node8 -->
<g id="Node000008" class="node">
<title>Node8</title>
<g id="a_Node000008"><a xlink:href="classdunedaq_1_1coredal_1_1ResourceSetAND.html" target="_top" xlink:title=" ">
<polygon fill="white" stroke="#666666" points="882.5,-140.88 748,-140.88 748,-110.38 882.5,-110.38 882.5,-140.88"/>
<text text-anchor="start" x="756" y="-127.38" font-family="Helvetica,sans-Serif" font-size="10.00">dunedaq::coredal::Resource</text>
<text text-anchor="middle" x="815.25" y="-116.12" font-family="Helvetica,sans-Serif" font-size="10.00">SetAND</text>
</a>
</g>
</g>
<!-- Node7&#45;&gt;Node8 -->
<g id="edge12_Node000007_Node000008" class="edge">
<title>Node7&#45;&gt;Node8</title>
<g id="a_edge12_Node000007_Node000008"><a xlink:title=" ">
<path fill="none" stroke="#63b8ff" d="M715.38,-106.01C726.23,-107.37 737.2,-108.88 747.69,-110.44"/>
<polygon fill="#63b8ff" stroke="#63b8ff" points="716,-102.56 705.65,-104.83 715.15,-109.51 716,-102.56"/>
</a>
</g>
</g>
<!-- Node7&#45;&gt;Node8 -->
<g id="edge29_Node000007_Node000008" class="edge">
<title>Node7&#45;&gt;Node8</title>
<g id="a_edge29_Node000007_Node000008"><a xlink:title=" ">
<path fill="none" stroke="#63b8ff" d="M676.64,-113.66C698.12,-117.27 724.01,-120.83 747.5,-123.45"/>
<polygon fill="#63b8ff" stroke="#63b8ff" points="677.47,-110.25 667.02,-111.97 676.26,-117.15 677.47,-110.25"/>
</a>
</g>
</g>
<!-- Node17 -->
<g id="Node000017" class="node">
<title>Node17</title>
<g id="a_Node000017"><a xlink:href="classdunedaq_1_1coredal_1_1ResourceSetOR.html" target="_top" xlink:title=" ">
<polygon fill="white" stroke="#666666" points="882.5,-91.88 748,-91.88 748,-61.38 882.5,-61.38 882.5,-91.88"/>
<text text-anchor="start" x="756" y="-78.38" font-family="Helvetica,sans-Serif" font-size="10.00">dunedaq::coredal::Resource</text>
<text text-anchor="middle" x="815.25" y="-67.12" font-family="Helvetica,sans-Serif" font-size="10.00">SetOR</text>
</a>
</g>
</g>
<!-- Node7&#45;&gt;Node17 -->
<g id="edge30_Node000007_Node000017" class="edge">
<title>Node7&#45;&gt;Node17</title>
<g id="a_edge30_Node000007_Node000017"><a xlink:title=" ">
<path fill="none" stroke="#63b8ff" d="M675.86,-89.47C697.54,-85.69 723.84,-81.93 747.67,-79.15"/>
<polygon fill="#63b8ff" stroke="#63b8ff" points="675.36,-86.01 666.15,-91.24 676.61,-92.9 675.36,-86.01"/>
</a>
</g>
</g>
<!-- Node7&#45;&gt;Node17 -->
<g id="edge31_Node000007_Node000017" class="edge">
<title>Node7&#45;&gt;Node17</title>
<g id="a_edge31_Node000007_Node000017"><a xlink:title=" ">
<path fill="none" stroke="#63b8ff" d="M715.38,-96.77C726.23,-95.35 737.2,-93.79 747.69,-92.17"/>
<polygon fill="#63b8ff" stroke="#63b8ff" points="715.13,-93.28 705.65,-98.01 716.01,-100.22 715.13,-93.28"/>
</a>
</g>
</g>
<!-- Node9 -->
<g id="Node000009" class="node">
<title>Node9</title>
<g id="a_Node000009"><a xlink:href="classdunedaq_1_1appdal_1_1FakeDataApplication.html" target="_top" xlink:title=" ">
<polygon fill="white" stroke="#666666" points="1050.75,-238.88 918.5,-238.88 918.5,-208.38 1050.75,-208.38 1050.75,-238.88"/>
<text text-anchor="start" x="926.5" y="-225.38" font-family="Helvetica,sans-Serif" font-size="10.00">dunedaq::appdal::FakeData</text>
<text text-anchor="middle" x="984.62" y="-214.12" font-family="Helvetica,sans-Serif" font-size="10.00">Application</text>
</a>
</g>
</g>
<!-- Node8&#45;&gt;Node9 -->
<g id="edge13_Node000008_Node000009" class="edge">
<title>Node8&#45;&gt;Node9</title>
<g id="a_edge13_Node000008_Node000009"><a xlink:title=" ">
<path fill="none" stroke="#63b8ff" d="M853.82,-147.81C872.53,-161.11 895.92,-177.49 918.5,-189.62 931.51,-196.62 946.91,-202.63 959.47,-207.97"/>
<polygon fill="#63b8ff" stroke="#63b8ff" points="855.91,-145 845.73,-142.06 851.85,-150.71 855.91,-145"/>
</a>
</g>
</g>
<!-- Node8&#45;&gt;Node9 -->
<g id="edge14_Node000008_Node000009" class="edge">
<title>Node8&#45;&gt;Node9</title>
<g id="a_edge14_Node000008_Node000009"><a xlink:title=" ">
<path fill="none" stroke="#63b8ff" d="M836.12,-149C856.03,-167.11 888.01,-191.23 918.5,-207.62 918.71,-207.74 918.93,-207.85 919.14,-207.97"/>
<polygon fill="#63b8ff" stroke="#63b8ff" points="838.63,-146.55 828.97,-142.19 833.8,-151.62 838.63,-146.55"/>
</a>
</g>
</g>
<!-- Node10 -->
<g id="Node000010" class="node">
<title>Node10</title>
<g id="a_Node000010"><a xlink:href="classdunedaq_1_1appdal_1_1ReadoutApplication.html" target="_top" xlink:title=" ">
<polygon fill="white" stroke="#666666" points="1047.75,-189.88 921.5,-189.88 921.5,-159.38 1047.75,-159.38 1047.75,-189.88"/>
<text text-anchor="start" x="929.5" y="-176.38" font-family="Helvetica,sans-Serif" font-size="10.00">dunedaq::appdal::Readout</text>
<text text-anchor="middle" x="984.62" y="-165.12" font-family="Helvetica,sans-Serif" font-size="10.00">Application</text>
</a>
</g>
</g>
<!-- Node8&#45;&gt;Node10 -->
<g id="edge15_Node000008_Node000010" class="edge">
<title>Node8&#45;&gt;Node10</title>
<g id="a_edge15_Node000008_Node000010"><a xlink:title=" ">
<path fill="none" stroke="#63b8ff" d="M893.94,-141.63C913.4,-147.23 933.29,-153.44 949.39,-159.03"/>
<polygon fill="#63b8ff" stroke="#63b8ff" points="894.91,-138.27 884.34,-138.92 893.01,-145.01 894.91,-138.27"/>
</a>
</g>
</g>
<!-- Node8&#45;&gt;Node10 -->
<g id="edge16_Node000008_Node000010" class="edge">
<title>Node8&#45;&gt;Node10</title>
<g id="a_edge16_Node000008_Node000010"><a xlink:title=" ">
<path fill="none" stroke="#63b8ff" d="M861.62,-144.99C879.98,-151.05 901.46,-157.5 921.25,-162.92"/>
<polygon fill="#63b8ff" stroke="#63b8ff" points="862.96,-141.74 852.36,-141.86 860.72,-148.37 862.96,-141.74"/>
</a>
</g>
</g>
<!-- Node11 -->
<g id="Node000011" class="node">
<title>Node11</title>
<g id="a_Node000011"><a xlink:href="classdunedaq_1_1appdal_1_1TriggerApplication.html" target="_top" xlink:title=" ">
<polygon fill="white" stroke="#666666" points="1044.75,-140.88 924.5,-140.88 924.5,-110.38 1044.75,-110.38 1044.75,-140.88"/>
<text text-anchor="start" x="932.5" y="-127.38" font-family="Helvetica,sans-Serif" font-size="10.00">dunedaq::appdal::Trigger</text>
<text text-anchor="middle" x="984.62" y="-116.12" font-family="Helvetica,sans-Serif" font-size="10.00">Application</text>
</a>
</g>
</g>
<!-- Node8&#45;&gt;Node11 -->
<g id="edge17_Node000008_Node000011" class="edge">
<title>Node8&#45;&gt;Node11</title>
<g id="a_edge17_Node000008_Node000011"><a xlink:title=" ">
<path fill="none" stroke="#63b8ff" d="M894.21,-118.89C904.31,-118.84 914.53,-118.92 924.26,-119.14"/>
<polygon fill="#63b8ff" stroke="#63b8ff" points="894.36,-115.39 884.4,-118.99 894.43,-122.39 894.36,-115.39"/>
</a>
</g>
</g>
<!-- Node8&#45;&gt;Node11 -->
<g id="edge20_Node000008_Node000011" class="edge">
<title>Node8&#45;&gt;Node11</title>
<g id="a_edge20_Node000008_Node000011"><a xlink:title=" ">
<path fill="none" stroke="#63b8ff" d="M894.21,-132.36C904.31,-132.41 914.53,-132.33 924.26,-132.11"/>
<polygon fill="#63b8ff" stroke="#63b8ff" points="894.43,-128.86 884.4,-132.26 894.36,-135.86 894.43,-128.86"/>
</a>
</g>
</g>
<!-- Node13 -->
<g id="Node000013" class="node">
<title>Node13</title>
<g id="a_Node000013"><a xlink:href="classdunedaq_1_1coredal_1_1ReadoutGroup.html" target="_top" xlink:title=" ">
<polygon fill="white" stroke="#666666" points="1049.25,-91.88 920,-91.88 920,-61.38 1049.25,-61.38 1049.25,-91.88"/>
<text text-anchor="start" x="928" y="-78.38" font-family="Helvetica,sans-Serif" font-size="10.00">dunedaq::coredal::Readout</text>
<text text-anchor="middle" x="984.62" y="-67.12" font-family="Helvetica,sans-Serif" font-size="10.00">Group</text>
</a>
</g>
</g>
<!-- Node8&#45;&gt;Node13 -->
<g id="edge21_Node000008_Node000013" class="edge">
<title>Node8&#45;&gt;Node13</title>
<g id="a_edge21_Node000008_Node000013"><a xlink:title=" ">
<path fill="none" stroke="#63b8ff" d="M861.61,-106.27C879.45,-100.37 900.24,-94.12 919.56,-88.8"/>
<polygon fill="#63b8ff" stroke="#63b8ff" points="860.72,-102.88 852.36,-109.39 862.96,-109.51 860.72,-102.88"/>
</a>
</g>
</g>
<!-- Node8&#45;&gt;Node13 -->
<g id="edge22_Node000008_Node000013" class="edge">
<title>Node8&#45;&gt;Node13</title>
<g id="a_edge22_Node000008_Node000013"><a xlink:title=" ">
<path fill="none" stroke="#63b8ff" d="M893.94,-109.62C913.4,-104.02 933.29,-97.81 949.39,-92.22"/>
<polygon fill="#63b8ff" stroke="#63b8ff" points="893.01,-106.24 884.34,-112.33 894.91,-112.98 893.01,-106.24"/>
</a>
</g>
</g>
<!-- Node14 -->
<g id="Node000014" class="node">
<title>Node14</title>
<g id="a_Node000014"><a xlink:href="classdunedaq_1_1coredal_1_1ReadoutInterface.html" target="_top" xlink:title=" ">
<polygon fill="white" stroke="#666666" points="1049.25,-42.88 920,-42.88 920,-12.37 1049.25,-12.37 1049.25,-42.88"/>
<text text-anchor="start" x="928" y="-29.38" font-family="Helvetica,sans-Serif" font-size="10.00">dunedaq::coredal::Readout</text>
<text text-anchor="middle" x="984.62" y="-18.12" font-family="Helvetica,sans-Serif" font-size="10.00">Interface</text>
</a>
</g>
</g>
<!-- Node8&#45;&gt;Node14 -->
<g id="edge23_Node000008_Node000014" class="edge">
<title>Node8&#45;&gt;Node14</title>
<g id="a_edge23_Node000008_Node000014"><a xlink:title=" ">
<path fill="none" stroke="#63b8ff" d="M857.1,-105.6C865.97,-101.81 874.95,-97.29 882.5,-91.62 903.82,-75.61 897.22,-59.7 918.5,-43.62 918.89,-43.33 919.28,-43.04 919.67,-42.76"/>
<polygon fill="#63b8ff" stroke="#63b8ff" points="855.81,-102.35 847.83,-109.32 858.42,-108.84 855.81,-102.35"/>
</a>
</g>
</g>
<!-- Node8&#45;&gt;Node14 -->
<g id="edge28_Node000008_Node000014" class="edge">
<title>Node8&#45;&gt;Node14</title>
<g id="a_edge28_Node000008_Node000014"><a xlink:title=" ">
<path fill="none" stroke="#63b8ff" d="M890.31,-102.39C902.44,-88.64 900.55,-75.19 918.5,-61.62 929.03,-53.67 942.4,-47.96 954.29,-43.32"/>
<polygon fill="#63b8ff" stroke="#63b8ff" points="888.05,-99.72 883.02,-109.04 892.77,-104.88 888.05,-99.72"/>
</a>
</g>
</g>
<!-- Node12 -->
<g id="Node000012" class="node">
<title>Node12</title>
<g id="a_Node000012"><a xlink:href="classdunedaq_1_1appdal_1_1MLTApplication.html" target="_top" xlink:title=" ">
<polygon fill="white" stroke="#666666" points="1245.25,-135.25 1086.75,-135.25 1086.75,-116 1245.25,-116 1245.25,-135.25"/>
<text text-anchor="middle" x="1166" y="-121.75" font-family="Helvetica,sans-Serif" font-size="10.00">dunedaq::appdal::MLTApplication</text>
</a>
</g>
</g>
<!-- Node11&#45;&gt;Node12 -->
<g id="edge18_Node000011_Node000012" class="edge">
<title>Node11&#45;&gt;Node12</title>
<g id="a_edge18_Node000011_Node000012"><a xlink:title=" ">
<path fill="none" stroke="#63b8ff" d="M1056.26,-119.01C1066.12,-118.87 1076.31,-118.84 1086.31,-118.92"/>
<polygon fill="#63b8ff" stroke="#63b8ff" points="1056.3,-115.51 1046.37,-119.2 1056.44,-122.51 1056.3,-115.51"/>
</a>
</g>
</g>
<!-- Node11&#45;&gt;Node12 -->
<g id="edge19_Node000011_Node000012" class="edge">
<title>Node11&#45;&gt;Node12</title>
<g id="a_edge19_Node000011_Node000012"><a xlink:title=" ">
<path fill="none" stroke="#63b8ff" d="M1056.26,-132.24C1066.12,-132.38 1076.31,-132.41 1086.31,-132.33"/>
<polygon fill="#63b8ff" stroke="#63b8ff" points="1056.44,-128.74 1046.37,-132.05 1056.3,-135.74 1056.44,-128.74"/>
</a>
</g>
</g>
<!-- Node15 -->
<g id="Node000015" class="node">
<title>Node15</title>
<g id="a_Node000015"><a xlink:href="classdunedaq_1_1appdal_1_1FelixInterface.html" target="_top" xlink:title=" ">
<polygon fill="white" stroke="#666666" points="1240.38,-56.25 1091.62,-56.25 1091.62,-37 1240.38,-37 1240.38,-56.25"/>
<text text-anchor="middle" x="1166" y="-42.75" font-family="Helvetica,sans-Serif" font-size="10.00">dunedaq::appdal::FelixInterface</text>
</a>
</g>
</g>
<!-- Node14&#45;&gt;Node15 -->
<g id="edge24_Node000014_Node000015" class="edge">
<title>Node14&#45;&gt;Node15</title>
<g id="a_edge24_Node000014_Node000015"><a xlink:title=" ">
<path fill="none" stroke="#63b8ff" d="M1060.81,-28.92C1082.45,-30.97 1105.24,-33.68 1123.98,-36.5"/>
<polygon fill="#63b8ff" stroke="#63b8ff" points="1061.41,-25.46 1051.13,-28.04 1060.78,-32.43 1061.41,-25.46"/>
</a>
</g>
</g>
<!-- Node14&#45;&gt;Node15 -->
<g id="edge25_Node000014_Node000015" class="edge">
<title>Node14&#45;&gt;Node15</title>
<g id="a_edge25_Node000014_Node000015"><a xlink:title=" ">
<path fill="none" stroke="#63b8ff" d="M1060.85,-42.26C1070.9,-43.44 1081.21,-44.53 1091.24,-45.47"/>
<polygon fill="#63b8ff" stroke="#63b8ff" points="1061.48,-38.81 1051.13,-41.08 1060.63,-45.76 1061.48,-38.81"/>
</a>
</g>
</g>
<!-- Node16 -->
<g id="Node000016" class="node">
<title>Node16</title>
<g id="a_Node000016"><a xlink:href="classdunedaq_1_1appdal_1_1NICInterface.html" target="_top" xlink:title=" ">
<polygon fill="white" stroke="#666666" points="1238.88,-19.25 1093.12,-19.25 1093.12,0 1238.88,0 1238.88,-19.25"/>
<text text-anchor="middle" x="1166" y="-5.75" font-family="Helvetica,sans-Serif" font-size="10.00">dunedaq::appdal::NICInterface</text>
</a>
</g>
</g>
<!-- Node14&#45;&gt;Node16 -->
<g id="edge26_Node000014_Node000016" class="edge">
<title>Node14&#45;&gt;Node16</title>
<g id="a_edge26_Node000014_Node000016"><a xlink:title=" ">
<path fill="none" stroke="#63b8ff" d="M1060.93,-13.4C1071.48,-12.22 1082.3,-11.15 1092.78,-10.24"/>
<polygon fill="#63b8ff" stroke="#63b8ff" points="1060.66,-9.9 1051.13,-14.53 1061.46,-16.86 1060.66,-9.9"/>
</a>
</g>
</g>
<!-- Node14&#45;&gt;Node16 -->
<g id="edge27_Node000014_Node000016" class="edge">
<title>Node14&#45;&gt;Node16</title>
<g id="a_edge27_Node000014_Node000016"><a xlink:title=" ">
<path fill="none" stroke="#63b8ff" d="M1060.82,-26.75C1081.84,-24.87 1103.94,-22.38 1122.36,-19.75"/>
<polygon fill="#63b8ff" stroke="#63b8ff" points="1060.8,-23.24 1051.13,-27.57 1061.39,-30.21 1060.8,-23.24"/>
</a>
</g>
</g>
</g>
</svg>
