<?xml version="1.0" encoding="UTF-8" standalone="no"?>
<!DOCTYPE svg PUBLIC "-//W3C//DTD SVG 1.1//EN"
 "http://www.w3.org/Graphics/SVG/1.1/DTD/svg11.dtd">
<!-- Generated by graphviz version 9.0.0 (20230911.1827)
 -->
<!-- Title: dunedaq::appdal::CustomTriggerCandidateMaker Pages: 1 -->
<svg width="162pt" height="216pt"
 viewBox="0.00 0.00 162.00 215.50" xmlns="http://www.w3.org/2000/svg" xmlns:xlink="http://www.w3.org/1999/xlink">
<g id="graph0" class="graph" transform="scale(1 1) rotate(0) translate(4 211.5)">
<title>dunedaq::appdal::CustomTriggerCandidateMaker</title>
<!-- Node1 -->
<g id="Node000001" class="node">
<title>Node1</title>
<g id="a_Node000001"><a xlink:title=" ">
<polygon fill="#999999" stroke="#666666" points="154,-30.5 0,-30.5 0,0 154,0 154,-30.5"/>
<text text-anchor="start" x="8" y="-17" font-family="Helvetica,sans-Serif" font-size="10.00">dunedaq::appdal::CustomTrigger</text>
<text text-anchor="middle" x="77" y="-5.75" font-family="Helvetica,sans-Serif" font-size="10.00">CandidateMaker</text>
</a>
</g>
</g>
<!-- Node2 -->
<g id="Node000002" class="node">
<title>Node2</title>
<g id="a_Node000002"><a xlink:href="classdunedaq_1_1appdal_1_1StandaloneCandidateMaker.html" target="_top" xlink:title=" ">
<polygon fill="white" stroke="#666666" points="146.5,-97 7.5,-97 7.5,-66.5 146.5,-66.5 146.5,-97"/>
<text text-anchor="start" x="15.5" y="-83.5" font-family="Helvetica,sans-Serif" font-size="10.00">dunedaq::appdal::Standalone</text>
<text text-anchor="middle" x="77" y="-72.25" font-family="Helvetica,sans-Serif" font-size="10.00">CandidateMaker</text>
</a>
</g>
</g>
<!-- Node2&#45;&gt;Node1 -->
<g id="edge1_Node000001_Node000002" class="edge">
<title>Node2&#45;&gt;Node1</title>
<g id="a_edge1_Node000001_Node000002"><a xlink:title=" ">
<path fill="none" stroke="#63b8ff" d="M70.37,-54.81C70.06,-46.64 70.36,-37.91 71.25,-30.83"/>
<polygon fill="#63b8ff" stroke="#63b8ff" points="66.86,-54.9 71.12,-64.6 73.84,-54.37 66.86,-54.9"/>
</a>
</g>
</g>
<!-- Node2&#45;&gt;Node1 -->
<g id="edge6_Node000001_Node000002" class="edge">
<title>Node2&#45;&gt;Node1</title>
<g id="a_edge6_Node000001_Node000002"><a xlink:title=" ">
<path fill="none" stroke="#63b8ff" d="M83.63,-54.81C83.94,-46.64 83.64,-37.91 82.75,-30.83"/>
<polygon fill="#63b8ff" stroke="#63b8ff" points="80.16,-54.37 82.88,-64.6 87.14,-54.9 80.16,-54.37"/>
</a>
</g>
</g>
<!-- Node3 -->
<g id="Node000003" class="node">
<title>Node3</title>
<g id="a_Node000003"><a xlink:href="classdunedaq_1_1coredal_1_1DaqModule.html" target="_top" xlink:title=" ">
<polygon fill="white" stroke="#666666" points="148,-152.25 6,-152.25 6,-133 148,-133 148,-152.25"/>
<text text-anchor="middle" x="77" y="-138.75" font-family="Helvetica,sans-Serif" font-size="10.00">dunedaq::coredal::DaqModule</text>
</a>
</g>
</g>
<!-- Node3&#45;&gt;Node2 -->
<g id="edge2_Node000002_Node000003" class="edge">
<title>Node3&#45;&gt;Node2</title>
<g id="a_edge2_Node000002_Node000003"><a xlink:title=" ">
<path fill="none" stroke="#63b8ff" d="M70.55,-121.42C70.02,-113.49 70.19,-104.56 71.09,-97.28"/>
<polygon fill="#63b8ff" stroke="#63b8ff" points="67.06,-121.7 71.8,-131.18 74.01,-120.82 67.06,-121.7"/>
</a>
</g>
</g>
<!-- Node3&#45;&gt;Node2 -->
<g id="edge5_Node000002_Node000003" class="edge">
<title>Node3&#45;&gt;Node2</title>
<g id="a_edge5_Node000002_Node000003"><a xlink:title=" ">
<path fill="none" stroke="#63b8ff" d="M83.45,-121.42C83.98,-113.49 83.81,-104.56 82.91,-97.28"/>
<polygon fill="#63b8ff" stroke="#63b8ff" points="79.99,-120.82 82.2,-131.18 86.94,-121.7 79.99,-120.82"/>
</a>
</g>
</g>
<!-- Node4 -->
<g id="Node000004" class="node">
<title>Node4</title>
<g id="a_Node000004"><a xlink:href="classdunedaq_1_1conffwk_1_1DalObject.html" target="_top" xlink:title="The base class for any generated DAL object.">
<polygon fill="white" stroke="#666666" points="146.12,-207.5 7.88,-207.5 7.88,-188.25 146.12,-188.25 146.12,-207.5"/>
<text text-anchor="middle" x="77" y="-194" font-family="Helvetica,sans-Serif" font-size="10.00">dunedaq::conffwk::DalObject</text>
</a>
</g>
</g>
<!-- Node4&#45;&gt;Node3 -->
<g id="edge3_Node000003_Node000004" class="edge">
<title>Node4&#45;&gt;Node3</title>
<g id="a_edge3_Node000003_Node000004"><a xlink:title=" ">
<path fill="none" stroke="#63b8ff" d="M70.44,-176.92C69.95,-168.55 70.4,-159.25 71.79,-152.61"/>
<polygon fill="#63b8ff" stroke="#63b8ff" points="66.94,-177.09 71.65,-186.58 73.88,-176.22 66.94,-177.09"/>
</a>
</g>
</g>
<!-- Node4&#45;&gt;Node3 -->
<g id="edge4_Node000003_Node000004" class="edge">
<title>Node4&#45;&gt;Node3</title>
<g id="a_edge4_Node000003_Node000004"><a xlink:title=" ">
<path fill="none" stroke="#63b8ff" d="M83.56,-176.92C84.05,-168.55 83.6,-159.25 82.21,-152.61"/>
<polygon fill="#63b8ff" stroke="#63b8ff" points="80.12,-176.22 82.35,-186.58 87.06,-177.09 80.12,-176.22"/>
</a>
</g>
</g>
</g>
</svg>
