<?xml version="1.0" encoding="UTF-8" standalone="no"?>
<!DOCTYPE svg PUBLIC "-//W3C//DTD SVG 1.1//EN"
 "http://www.w3.org/Graphics/SVG/1.1/DTD/svg11.dtd">
<!-- Generated by graphviz version 9.0.0 (20230911.1827)
 -->
<!-- Title: dunedaq::timinglibs::dal::TimingEndpointController Pages: 1 -->
<svg width="154pt" height="216pt"
 viewBox="0.00 0.00 153.75 215.50" xmlns="http://www.w3.org/2000/svg" xmlns:xlink="http://www.w3.org/1999/xlink">
<g id="graph0" class="graph" transform="scale(1 1) rotate(0) translate(4 211.5)">
<title>dunedaq::timinglibs::dal::TimingEndpointController</title>
<!-- Node1 -->
<g id="Node000001" class="node">
<title>Node1</title>
<g id="a_Node000001"><a xlink:title=" ">
<polygon fill="#999999" stroke="#666666" points="145.75,-30.5 0,-30.5 0,0 145.75,0 145.75,-30.5"/>
<text text-anchor="start" x="8" y="-17" font-family="Helvetica,sans-Serif" font-size="10.00">dunedaq::timinglibs</text>
<text text-anchor="middle" x="72.88" y="-5.75" font-family="Helvetica,sans-Serif" font-size="10.00">::dal::TimingEndpointController</text>
</a>
</g>
</g>
<!-- Node2 -->
<g id="Node000002" class="node">
<title>Node2</title>
<g id="a_Node000002"><a xlink:href="classdunedaq_1_1timinglibs_1_1dal_1_1TimingController.html" target="_top" xlink:title=" ">
<polygon fill="white" stroke="#666666" points="127,-97 18.75,-97 18.75,-66.5 127,-66.5 127,-97"/>
<text text-anchor="start" x="26.75" y="-83.5" font-family="Helvetica,sans-Serif" font-size="10.00">dunedaq::timinglibs</text>
<text text-anchor="middle" x="72.88" y="-72.25" font-family="Helvetica,sans-Serif" font-size="10.00">::dal::TimingController</text>
</a>
</g>
</g>
<!-- Node2&#45;&gt;Node1 -->
<g id="edge1_Node000001_Node000002" class="edge">
<title>Node2&#45;&gt;Node1</title>
<g id="a_edge1_Node000001_Node000002"><a xlink:title=" ">
<path fill="none" stroke="#63b8ff" d="M66.24,-54.81C65.94,-46.64 66.23,-37.91 67.12,-30.83"/>
<polygon fill="#63b8ff" stroke="#63b8ff" points="62.74,-54.9 67,-64.6 69.72,-54.37 62.74,-54.9"/>
</a>
</g>
</g>
<!-- Node2&#45;&gt;Node1 -->
<g id="edge6_Node000001_Node000002" class="edge">
<title>Node2&#45;&gt;Node1</title>
<g id="a_edge6_Node000001_Node000002"><a xlink:title=" ">
<path fill="none" stroke="#63b8ff" d="M79.51,-54.81C79.81,-46.64 79.52,-37.91 78.63,-30.83"/>
<polygon fill="#63b8ff" stroke="#63b8ff" points="76.03,-54.37 78.75,-64.6 83.01,-54.9 76.03,-54.37"/>
</a>
</g>
</g>
<!-- Node3 -->
<g id="Node000003" class="node">
<title>Node3</title>
<g id="a_Node000003"><a xlink:href="classdunedaq_1_1coredal_1_1DaqModule.html" target="_top" xlink:title=" ">
<polygon fill="white" stroke="#666666" points="143.88,-152.25 1.88,-152.25 1.88,-133 143.88,-133 143.88,-152.25"/>
<text text-anchor="middle" x="72.88" y="-138.75" font-family="Helvetica,sans-Serif" font-size="10.00">dunedaq::coredal::DaqModule</text>
</a>
</g>
</g>
<!-- Node3&#45;&gt;Node2 -->
<g id="edge2_Node000002_Node000003" class="edge">
<title>Node3&#45;&gt;Node2</title>
<g id="a_edge2_Node000002_Node000003"><a xlink:title=" ">
<path fill="none" stroke="#63b8ff" d="M66.43,-121.42C65.89,-113.49 66.07,-104.56 66.96,-97.28"/>
<polygon fill="#63b8ff" stroke="#63b8ff" points="62.94,-121.7 67.67,-131.18 69.88,-120.82 62.94,-121.7"/>
</a>
</g>
</g>
<!-- Node3&#45;&gt;Node2 -->
<g id="edge5_Node000002_Node000003" class="edge">
<title>Node3&#45;&gt;Node2</title>
<g id="a_edge5_Node000002_Node000003"><a xlink:title=" ">
<path fill="none" stroke="#63b8ff" d="M79.32,-121.42C79.86,-113.49 79.68,-104.56 78.79,-97.28"/>
<polygon fill="#63b8ff" stroke="#63b8ff" points="75.87,-120.82 78.08,-131.18 82.81,-121.7 75.87,-120.82"/>
</a>
</g>
</g>
<!-- Node4 -->
<g id="Node000004" class="node">
<title>Node4</title>
<g id="a_Node000004"><a xlink:href="classdunedaq_1_1conffwk_1_1DalObject.html" target="_top" xlink:title="The base class for any generated DAL object.">
<polygon fill="white" stroke="#666666" points="142,-207.5 3.75,-207.5 3.75,-188.25 142,-188.25 142,-207.5"/>
<text text-anchor="middle" x="72.88" y="-194" font-family="Helvetica,sans-Serif" font-size="10.00">dunedaq::conffwk::DalObject</text>
</a>
</g>
</g>
<!-- Node4&#45;&gt;Node3 -->
<g id="edge3_Node000003_Node000004" class="edge">
<title>Node4&#45;&gt;Node3</title>
<g id="a_edge3_Node000003_Node000004"><a xlink:title=" ">
<path fill="none" stroke="#63b8ff" d="M66.32,-176.92C65.83,-168.55 66.28,-159.25 67.67,-152.61"/>
<polygon fill="#63b8ff" stroke="#63b8ff" points="62.81,-177.09 67.52,-186.58 69.76,-176.22 62.81,-177.09"/>
</a>
</g>
</g>
<!-- Node4&#45;&gt;Node3 -->
<g id="edge4_Node000003_Node000004" class="edge">
<title>Node4&#45;&gt;Node3</title>
<g id="a_edge4_Node000003_Node000004"><a xlink:title=" ">
<path fill="none" stroke="#63b8ff" d="M79.43,-176.92C79.92,-168.55 79.47,-159.25 78.08,-152.61"/>
<polygon fill="#63b8ff" stroke="#63b8ff" points="75.99,-176.22 78.23,-186.58 82.94,-177.09 75.99,-176.22"/>
</a>
</g>
</g>
</g>
</svg>
