<?xml version="1.0" encoding="UTF-8" standalone="no"?>
<!DOCTYPE svg PUBLIC "-//W3C//DTD SVG 1.1//EN"
 "http://www.w3.org/Graphics/SVG/1.1/DTD/svg11.dtd">
<!-- Generated by graphviz version 9.0.0 (20230911.1827)
 -->
<!-- Title: dunedaq::appfwk::ConfigurationManager Pages: 1 -->
<svg width="3325pt" height="474pt"
 viewBox="0.00 0.00 3325.00 474.25" xmlns="http://www.w3.org/2000/svg" xmlns:xlink="http://www.w3.org/1999/xlink">
<g id="graph0" class="graph" transform="scale(1 1) rotate(0) translate(4 470.25)">
<title>dunedaq::appfwk::ConfigurationManager</title>
<!-- Node1 -->
<g id="Node000001" class="node">
<title>Node1</title>
<g id="a_Node000001"><a xlink:title=" ">
<polygon fill="#999999" stroke="#666666" points="3317,-363.5 3167.5,-363.5 3167.5,-333 3317,-333 3317,-363.5"/>
<text text-anchor="start" x="3175.5" y="-350" font-family="Helvetica,sans-Serif" font-size="10.00">dunedaq::appfwk::Configuration</text>
<text text-anchor="middle" x="3242.25" y="-338.75" font-family="Helvetica,sans-Serif" font-size="10.00">Manager</text>
</a>
</g>
</g>
<!-- Node2 -->
<g id="Node000002" class="node">
<title>Node2</title>
<g id="a_Node000002"><a xlink:href="classdunedaq_1_1coredal_1_1Session.html" target="_top" xlink:title=" ">
<polygon fill="white" stroke="#666666" points="3021.25,-391.88 2892.75,-391.88 2892.75,-372.62 3021.25,-372.62 3021.25,-391.88"/>
<text text-anchor="middle" x="2957" y="-378.38" font-family="Helvetica,sans-Serif" font-size="10.00">dunedaq::coredal::Session</text>
</a>
</g>
</g>
<!-- Node2&#45;&gt;Node1 -->
<g id="edge1_Node000001_Node000002" class="edge">
<title>Node2&#45;&gt;Node1</title>
<g id="a_edge1_Node000001_Node000002"><a xlink:title=" ">
<path fill="none" stroke="#9a32cd" stroke-dasharray="5,2" d="M3032.67,-385.12C3068.27,-385.27 3111.32,-383.65 3149.5,-377.25 3166.47,-374.4 3184.64,-369.15 3200.29,-363.9"/>
<polygon fill="#9a32cd" stroke="#9a32cd" points="3032.93,-381.62 3022.9,-385.03 3032.87,-388.62 3032.93,-381.62"/>
</a>
</g>
<text text-anchor="middle" x="3094.38" y="-386" font-family="Helvetica,sans-Serif" font-size="10.00" fill="grey"> m_session</text>
</g>
<!-- Node29 -->
<g id="Node000029" class="node">
<title>Node29</title>
<g id="a_Node000029"><a xlink:href="classdunedaq_1_1coredal_1_1DisabledComponents.html" target="_top" xlink:title=" ">
<polygon fill="white" stroke="#666666" points="3307.62,-221.5 3176.88,-221.5 3176.88,-191 3307.62,-191 3307.62,-221.5"/>
<text text-anchor="start" x="3184.88" y="-208" font-family="Helvetica,sans-Serif" font-size="10.00">dunedaq::coredal::Disabled</text>
<text text-anchor="middle" x="3242.25" y="-196.75" font-family="Helvetica,sans-Serif" font-size="10.00">Components</text>
</a>
</g>
</g>
<!-- Node2&#45;&gt;Node29 -->
<g id="edge53_Node000029_Node000002" class="edge">
<title>Node2&#45;&gt;Node29</title>
<g id="a_edge53_Node000029_Node000002"><a xlink:title=" ">
<path fill="none" stroke="#9a32cd" stroke-dasharray="5,2" d="M3012.5,-369.73C3021.43,-367.76 3030.59,-365.79 3039.25,-364 3088.08,-353.92 3107.89,-370.71 3149.5,-343.25 3161.45,-335.37 3210.73,-256.18 3231.71,-221.92"/>
<polygon fill="#9a32cd" stroke="#9a32cd" points="3011.85,-366.29 3002.85,-371.88 3013.37,-373.13 3011.85,-366.29"/>
</a>
</g>
<text text-anchor="middle" x="3094.38" y="-365" font-family="Helvetica,sans-Serif" font-size="10.00" fill="grey"> m_session</text>
</g>
<!-- Node3 -->
<g id="Node000003" class="node">
<title>Node3</title>
<g id="a_Node000003"><a xlink:href="classdunedaq_1_1conffwk_1_1DalObject.html" target="_top" xlink:title="The base class for any generated DAL object.">
<polygon fill="white" stroke="#666666" points="1509.5,-277.88 1371.25,-277.88 1371.25,-258.62 1509.5,-258.62 1509.5,-277.88"/>
<text text-anchor="middle" x="1440.38" y="-264.38" font-family="Helvetica,sans-Serif" font-size="10.00">dunedaq::conffwk::DalObject</text>
</a>
</g>
</g>
<!-- Node3&#45;&gt;Node2 -->
<g id="edge2_Node000002_Node000003" class="edge">
<title>Node3&#45;&gt;Node2</title>
<g id="a_edge2_Node000002_Node000003"><a xlink:title=" ">
<path fill="none" stroke="#63b8ff" d="M1451.52,-288.41C1466.64,-320.86 1498.57,-383.41 1546.5,-416.25 1579.29,-438.71 1590.26,-448.25 1630,-448.25 1630,-448.25 1630,-448.25 2738.38,-448.25 2810.31,-448.25 2888.68,-411.17 2928.87,-392.28"/>
<polygon fill="#63b8ff" stroke="#63b8ff" points="1454.85,-287.29 1447.5,-279.66 1448.49,-290.21 1454.85,-287.29"/>
</a>
</g>
</g>
<!-- Node3&#45;&gt;Node2 -->
<g id="edge19_Node000002_Node000003" class="edge">
<title>Node3&#45;&gt;Node2</title>
<g id="a_edge19_Node000002_Node000003"><a xlink:title=" ">
<path fill="none" stroke="#63b8ff" d="M1447.28,-289.13C1460.06,-325.29 1493.5,-397.94 1546.5,-434.25 1579.29,-456.71 1590.26,-466.25 1630,-466.25 1630,-466.25 1630,-466.25 2738.38,-466.25 2822.7,-466.25 2915.86,-415.3 2946.01,-392.35"/>
<polygon fill="#63b8ff" stroke="#63b8ff" points="1450.66,-288.21 1444.21,-279.81 1444.01,-290.4 1450.66,-288.21"/>
</a>
</g>
</g>
<!-- Node20 -->
<g id="Node000020" class="node">
<title>Node20</title>
<g id="a_Node000020"><a xlink:href="classdunedaq_1_1coredal_1_1Component.html" target="_top" xlink:title=" ">
<polygon fill="white" stroke="#666666" points="1702.38,-415.88 1559.62,-415.88 1559.62,-396.62 1702.38,-396.62 1702.38,-415.88"/>
<text text-anchor="middle" x="1631" y="-402.38" font-family="Helvetica,sans-Serif" font-size="10.00">dunedaq::coredal::Component</text>
</a>
</g>
</g>
<!-- Node3&#45;&gt;Node20 -->
<g id="edge23_Node000020_Node000003" class="edge">
<title>Node3&#45;&gt;Node20</title>
<g id="a_edge23_Node000020_Node000003"><a xlink:title=" ">
<path fill="none" stroke="#63b8ff" d="M1454.58,-287.89C1468.95,-311.69 1494.39,-350.58 1527.5,-372.25 1548.19,-385.79 1575.56,-392 1596.82,-396.17"/>
<polygon fill="#63b8ff" stroke="#63b8ff" points="1457.66,-286.23 1449.54,-279.44 1451.65,-289.82 1457.66,-286.23"/>
</a>
</g>
</g>
<!-- Node3&#45;&gt;Node20 -->
<g id="edge24_Node000020_Node000003" class="edge">
<title>Node3&#45;&gt;Node20</title>
<g id="a_edge24_Node000020_Node000003"><a xlink:title=" ">
<path fill="none" stroke="#63b8ff" d="M1448.48,-288.72C1460.93,-316.67 1489.03,-365.08 1527.5,-390.25 1537.08,-396.52 1548.09,-401.22 1559.26,-404.6"/>
<polygon fill="#63b8ff" stroke="#63b8ff" points="1451.74,-287.44 1444.7,-279.52 1445.27,-290.1 1451.74,-287.44"/>
</a>
</g>
</g>
<!-- Node22 -->
<g id="Node000022" class="node">
<title>Node22</title>
<g id="a_Node000022"><a xlink:href="classdunedaq_1_1coredal_1_1Application.html" target="_top" xlink:title=" ">
<polygon fill="white" stroke="#666666" points="2278,-307.88 2136.75,-307.88 2136.75,-288.62 2278,-288.62 2278,-307.88"/>
<text text-anchor="middle" x="2207.38" y="-294.38" font-family="Helvetica,sans-Serif" font-size="10.00">dunedaq::coredal::Application</text>
</a>
</g>
</g>
<!-- Node3&#45;&gt;Node22 -->
<g id="edge29_Node000022_Node000003" class="edge">
<title>Node3&#45;&gt;Node22</title>
<g id="a_edge29_Node000022_Node000003"><a xlink:title=" ">
<path fill="none" stroke="#63b8ff" d="M1481.35,-283.12C1500.4,-291.91 1523.92,-301.85 1546.5,-306.25 1796.14,-354.92 1865.6,-328.81 2118.75,-304.25 2124.59,-303.68 2130.62,-302.96 2136.67,-302.15"/>
<polygon fill="#63b8ff" stroke="#63b8ff" points="1482.89,-279.97 1472.35,-278.9 1479.92,-286.31 1482.89,-279.97"/>
</a>
</g>
</g>
<!-- Node3&#45;&gt;Node22 -->
<g id="edge30_Node000022_Node000003" class="edge">
<title>Node3&#45;&gt;Node22</title>
<g id="a_edge30_Node000022_Node000003"><a xlink:title=" ">
<path fill="none" stroke="#63b8ff" d="M1458.23,-285.14C1478.34,-299.48 1513.43,-317.8 1546.5,-324.25 1796.14,-372.92 1865.6,-346.81 2118.75,-322.25 2143.94,-319.81 2172.82,-314.34 2190.32,-308.36"/>
<polygon fill="#63b8ff" stroke="#63b8ff" points="1460.64,-282.58 1450.59,-279.21 1456.35,-288.11 1460.64,-282.58"/>
</a>
</g>
</g>
<!-- Node23 -->
<g id="Node000023" class="node">
<title>Node23</title>
<g id="a_Node000023"><a xlink:href="classdunedaq_1_1coredal_1_1VirtualHost.html" target="_top" xlink:title=" ">
<polygon fill="white" stroke="#666666" points="1943.75,-307.88 1801.75,-307.88 1801.75,-288.62 1943.75,-288.62 1943.75,-307.88"/>
<text text-anchor="middle" x="1872.75" y="-294.38" font-family="Helvetica,sans-Serif" font-size="10.00">dunedaq::coredal::VirtualHost</text>
</a>
</g>
</g>
<!-- Node3&#45;&gt;Node23 -->
<g id="edge32_Node000023_Node000003" class="edge">
<title>Node3&#45;&gt;Node23</title>
<g id="a_edge32_Node000023_Node000003"><a xlink:title=" ">
<path fill="none" stroke="#63b8ff" d="M1521.23,-275.46C1523.34,-275.74 1525.43,-276.01 1527.5,-276.25 1621.8,-287.27 1731.53,-289.62 1801.28,-291.96"/>
<polygon fill="#63b8ff" stroke="#63b8ff" points="1521.75,-272 1511.35,-274.02 1520.75,-278.93 1521.75,-272"/>
</a>
</g>
</g>
<!-- Node3&#45;&gt;Node23 -->
<g id="edge33_Node000023_Node000003" class="edge">
<title>Node3&#45;&gt;Node23</title>
<g id="a_edge33_Node000023_Node000003"><a xlink:title=" ">
<path fill="none" stroke="#63b8ff" d="M1466.65,-281.96C1483.72,-287.16 1506.84,-291.84 1527.5,-294.25 1621.8,-305.27 1731.53,-307.62 1801.28,-305.67"/>
<polygon fill="#63b8ff" stroke="#63b8ff" points="1467.92,-278.7 1457.33,-278.79 1465.66,-285.32 1467.92,-278.7"/>
</a>
</g>
</g>
<!-- Node24 -->
<g id="Node000024" class="node">
<title>Node24</title>
<g id="a_Node000024"><a xlink:href="classdunedaq_1_1coredal_1_1PhysicalHost.html" target="_top" xlink:title=" ">
<polygon fill="white" stroke="#666666" points="1706.5,-265.88 1555.5,-265.88 1555.5,-246.62 1706.5,-246.62 1706.5,-265.88"/>
<text text-anchor="middle" x="1631" y="-252.38" font-family="Helvetica,sans-Serif" font-size="10.00">dunedaq::coredal::PhysicalHost</text>
</a>
</g>
</g>
<!-- Node3&#45;&gt;Node24 -->
<g id="edge35_Node000024_Node000003" class="edge">
<title>Node3&#45;&gt;Node24</title>
<g id="a_edge35_Node000024_Node000003"><a xlink:title=" ">
<path fill="none" stroke="#63b8ff" d="M1512.13,-257.19C1526.16,-256.06 1540.94,-255.1 1555.11,-254.39"/>
<polygon fill="#63b8ff" stroke="#63b8ff" points="1512.24,-253.67 1502.57,-258 1512.82,-260.64 1512.24,-253.67"/>
</a>
</g>
</g>
<!-- Node3&#45;&gt;Node24 -->
<g id="edge36_Node000024_Node000003" class="edge">
<title>Node3&#45;&gt;Node24</title>
<g id="a_edge36_Node000024_Node000003"><a xlink:title=" ">
<path fill="none" stroke="#63b8ff" d="M1521.1,-269.86C1537.69,-268.97 1554.89,-267.75 1570.59,-266.35"/>
<polygon fill="#63b8ff" stroke="#63b8ff" points="1521.07,-266.35 1511.25,-270.34 1521.41,-273.34 1521.07,-266.35"/>
</a>
</g>
</g>
<!-- Node25 -->
<g id="Node000025" class="node">
<title>Node25</title>
<g id="a_Node000025"><a xlink:href="classdunedaq_1_1coredal_1_1FSMconfiguration.html" target="_top" xlink:title=" ">
<polygon fill="white" stroke="#666666" points="1715.5,-228.88 1546.5,-228.88 1546.5,-209.62 1715.5,-209.62 1715.5,-228.88"/>
<text text-anchor="middle" x="1631" y="-215.38" font-family="Helvetica,sans-Serif" font-size="10.00">dunedaq::coredal::FSMconfiguration</text>
</a>
</g>
</g>
<!-- Node3&#45;&gt;Node25 -->
<g id="edge39_Node000025_Node000003" class="edge">
<title>Node3&#45;&gt;Node25</title>
<g id="a_edge39_Node000025_Node000003"><a xlink:title=" ">
<path fill="none" stroke="#63b8ff" d="M1465.1,-253.62C1486.22,-245.13 1518.02,-235.52 1546.11,-228.35"/>
<polygon fill="#63b8ff" stroke="#63b8ff" points="1463.73,-250.4 1455.95,-257.59 1466.52,-256.82 1463.73,-250.4"/>
</a>
</g>
</g>
<!-- Node3&#45;&gt;Node25 -->
<g id="edge40_Node000025_Node000003" class="edge">
<title>Node3&#45;&gt;Node25</title>
<g id="a_edge40_Node000025_Node000003"><a xlink:title=" ">
<path fill="none" stroke="#63b8ff" d="M1513.28,-255.17C1524.37,-252.11 1535.71,-249 1546.5,-246.25 1569.49,-240.39 1596.36,-234.82 1613.28,-229.28"/>
<polygon fill="#63b8ff" stroke="#63b8ff" points="1512.48,-251.76 1503.77,-257.79 1514.34,-258.51 1512.48,-251.76"/>
</a>
</g>
</g>
<!-- Node26 -->
<g id="Node000026" class="node">
<title>Node26</title>
<g id="a_Node000026"><a xlink:href="classdunedaq_1_1coredal_1_1RCBroadcaster.html" target="_top" xlink:title=" ">
<polygon fill="white" stroke="#666666" points="1710.62,-191.88 1551.38,-191.88 1551.38,-172.62 1710.62,-172.62 1710.62,-191.88"/>
<text text-anchor="middle" x="1631" y="-178.38" font-family="Helvetica,sans-Serif" font-size="10.00">dunedaq::coredal::RCBroadcaster</text>
</a>
</g>
</g>
<!-- Node3&#45;&gt;Node26 -->
<g id="edge42_Node000026_Node000003" class="edge">
<title>Node3&#45;&gt;Node26</title>
<g id="a_edge42_Node000026_Node000003"><a xlink:title=" ">
<path fill="none" stroke="#63b8ff" d="M1455.65,-250.46C1475.04,-232.32 1511.32,-205.85 1546.5,-191.25 1548.01,-190.62 1549.54,-190.02 1551.09,-189.44"/>
<polygon fill="#63b8ff" stroke="#63b8ff" points="1453.42,-247.74 1448.85,-257.3 1458.39,-252.68 1453.42,-247.74"/>
</a>
</g>
</g>
<!-- Node3&#45;&gt;Node26 -->
<g id="edge43_Node000026_Node000003" class="edge">
<title>Node3&#45;&gt;Node26</title>
<g id="a_edge43_Node000026_Node000003"><a xlink:title=" ">
<path fill="none" stroke="#63b8ff" d="M1472.16,-251.79C1492.28,-238.37 1519.71,-220.37 1546.5,-209.25 1566.09,-201.12 1589.85,-196.46 1607,-192.36"/>
<polygon fill="#63b8ff" stroke="#63b8ff" points="1470.27,-248.84 1463.89,-257.3 1474.15,-254.67 1470.27,-248.84"/>
</a>
</g>
</g>
<!-- Node27 -->
<g id="Node000027" class="node">
<title>Node27</title>
<g id="a_Node000027"><a xlink:href="classdunedaq_1_1coredal_1_1DetectorConfig.html" target="_top" xlink:title=" ">
<polygon fill="white" stroke="#666666" points="1696,-154.5 1566,-154.5 1566,-124 1696,-124 1696,-154.5"/>
<text text-anchor="start" x="1574" y="-141" font-family="Helvetica,sans-Serif" font-size="10.00">dunedaq::coredal::Detector</text>
<text text-anchor="middle" x="1631" y="-129.75" font-family="Helvetica,sans-Serif" font-size="10.00">Config</text>
</a>
</g>
</g>
<!-- Node3&#45;&gt;Node27 -->
<g id="edge45_Node000027_Node000003" class="edge">
<title>Node3&#45;&gt;Node27</title>
<g id="a_edge45_Node000027_Node000003"><a xlink:title=" ">
<path fill="none" stroke="#63b8ff" d="M1451.54,-248.67C1468.62,-222.73 1505.28,-178.53 1546.5,-154.25 1552.48,-150.73 1559,-147.7 1565.69,-145.15"/>
<polygon fill="#63b8ff" stroke="#63b8ff" points="1448.69,-246.62 1446.42,-256.97 1454.65,-250.29 1448.69,-246.62"/>
</a>
</g>
</g>
<!-- Node3&#45;&gt;Node27 -->
<g id="edge46_Node000027_Node000003" class="edge">
<title>Node3&#45;&gt;Node27</title>
<g id="a_edge46_Node000027_Node000003"><a xlink:title=" ">
<path fill="none" stroke="#63b8ff" d="M1460.22,-250C1479.42,-228.25 1511.3,-192.99 1546.5,-172.25 1559.63,-164.52 1575.39,-159.15 1589.67,-154.93"/>
<polygon fill="#63b8ff" stroke="#63b8ff" points="1457.79,-247.47 1453.8,-257.28 1463.04,-252.1 1457.79,-247.47"/>
</a>
</g>
</g>
<!-- Node28 -->
<g id="Node000028" class="node">
<title>Node28</title>
<g id="a_Node000028"><a xlink:href="classdunedaq_1_1coredal_1_1ReadoutMap.html" target="_top" xlink:title=" ">
<polygon fill="white" stroke="#666666" points="1705,-105.88 1557,-105.88 1557,-86.62 1705,-86.62 1705,-105.88"/>
<text text-anchor="middle" x="1631" y="-92.38" font-family="Helvetica,sans-Serif" font-size="10.00">dunedaq::coredal::ReadoutMap</text>
</a>
</g>
</g>
<!-- Node3&#45;&gt;Node28 -->
<g id="edge48_Node000028_Node000003" class="edge">
<title>Node3&#45;&gt;Node28</title>
<g id="a_edge48_Node000028_Node000003"><a xlink:title=" ">
<path fill="none" stroke="#63b8ff" d="M1447.41,-247.78C1460.43,-212.46 1494.27,-141.7 1546.5,-106.25 1549.7,-104.08 1553.11,-102.15 1556.65,-100.45"/>
<polygon fill="#63b8ff" stroke="#63b8ff" points="1444.22,-246.28 1444.29,-256.87 1450.84,-248.55 1444.22,-246.28"/>
</a>
</g>
</g>
<!-- Node3&#45;&gt;Node28 -->
<g id="edge49_Node000028_Node000003" class="edge">
<title>Node3&#45;&gt;Node28</title>
<g id="a_edge49_Node000028_Node000003"><a xlink:title=" ">
<path fill="none" stroke="#63b8ff" d="M1452.15,-247.88C1467.68,-216.1 1499.71,-156 1546.5,-124.25 1561.14,-114.32 1580.21,-109.51 1596.43,-106.31"/>
<polygon fill="#63b8ff" stroke="#63b8ff" points="1449.02,-246.3 1447.84,-256.83 1455.33,-249.34 1449.02,-246.3"/>
</a>
</g>
</g>
<!-- Node4 -->
<g id="Node000004" class="node">
<title>Node4</title>
<g id="a_Node000004"><a xlink:href="classdunedaq_1_1conffwk_1_1Configuration.html" target="_top" xlink:title=" ">
<polygon fill="white" stroke="#666666" points="644.5,-210.88 492.75,-210.88 492.75,-191.62 644.5,-191.62 644.5,-210.88"/>
<text text-anchor="middle" x="568.62" y="-197.38" font-family="Helvetica,sans-Serif" font-size="10.00">dunedaq::conffwk::Configuration</text>
</a>
</g>
</g>
<!-- Node4&#45;&gt;Node3 -->
<g id="edge3_Node000003_Node000004" class="edge">
<title>Node4&#45;&gt;Node3</title>
<g id="a_edge3_Node000003_Node000004"><a xlink:title=" ">
<path fill="none" stroke="#9a32cd" stroke-dasharray="5,2" d="M656.17,-201.25C708.99,-201.25 777.89,-201.25 839,-201.25 839,-201.25 839,-201.25 1249.5,-201.25 1317.32,-201.25 1391.39,-239.73 1423.29,-258.36"/>
<polygon fill="#9a32cd" stroke="#9a32cd" points="656.32,-197.75 646.32,-201.25 656.32,-204.75 656.32,-197.75"/>
</a>
</g>
<text text-anchor="middle" x="1056.25" y="-203" font-family="Helvetica,sans-Serif" font-size="10.00" fill="grey"> p_db</text>
</g>
<!-- Node13 -->
<g id="Node000013" class="node">
<title>Node13</title>
<g id="a_Node000013"><a xlink:href="classdunedaq_1_1conffwk_1_1ConfigurationImpl.html" target="_top" xlink:title="Provides pure virtual interface used by the Configuration class.">
<polygon fill="white" stroke="#666666" points="925.25,-277.88 754.75,-277.88 754.75,-258.62 925.25,-258.62 925.25,-277.88"/>
<text text-anchor="middle" x="840" y="-264.38" font-family="Helvetica,sans-Serif" font-size="10.00">dunedaq::conffwk::ConfigurationImpl</text>
</a>
</g>
</g>
<!-- Node4&#45;&gt;Node13 -->
<g id="edge15_Node000013_Node000004" class="edge">
<title>Node4&#45;&gt;Node13</title>
<g id="a_edge15_Node000013_Node000004"><a xlink:title=" ">
<path fill="none" stroke="#9a32cd" stroke-dasharray="5,2" d="M596.76,-216.66C615.66,-226.69 641.76,-239.18 666.25,-246.25 694.42,-254.39 726.05,-259.52 754.47,-262.75"/>
<polygon fill="#9a32cd" stroke="#9a32cd" points="598.58,-213.67 588.13,-211.97 595.24,-219.82 598.58,-213.67"/>
</a>
</g>
<text text-anchor="middle" x="701.5" y="-262" font-family="Helvetica,sans-Serif" font-size="10.00" fill="grey"> m_conf</text>
</g>
<!-- Node4&#45;&gt;Node29 -->
<g id="edge52_Node000029_Node000004" class="edge">
<title>Node4&#45;&gt;Node29</title>
<g id="a_edge52_Node000029_Node000004"><a xlink:title=" ">
<path fill="none" stroke="#9a32cd" stroke-dasharray="5,2" d="M587.53,-183.65C628.38,-145.43 733.17,-58.25 839,-58.25 839,-58.25 839,-58.25 2958,-58.25 3071.46,-58.25 3184.4,-152.69 3225.25,-190.69"/>
<polygon fill="#9a32cd" stroke="#9a32cd" points="585.29,-180.94 580.48,-190.38 590.13,-186 585.29,-180.94"/>
</a>
</g>
<text text-anchor="middle" x="1758.62" y="-60" font-family="Helvetica,sans-Serif" font-size="10.00" fill="grey"> m_db</text>
</g>
<!-- Node5 -->
<g id="Node000005" class="node">
<title>Node5</title>
<g id="a_Node000005"><a xlink:href="classdunedaq_1_1conffwk_1_1map.html" target="_top" xlink:title=" ">
<polygon fill="white" stroke="#666666" points="355.88,-265.5 206.38,-265.5 206.38,-235 355.88,-235 355.88,-265.5"/>
<text text-anchor="start" x="214.38" y="-252" font-family="Helvetica,sans-Serif" font-size="10.00">dunedaq::conffwk::map</text>
<text text-anchor="middle" x="281.12" y="-240.75" font-family="Helvetica,sans-Serif" font-size="10.00">&lt; dunedaq::conffwk::class_t * &gt;</text>
</a>
</g>
</g>
<!-- Node5&#45;&gt;Node4 -->
<g id="edge4_Node000004_Node000005" class="edge">
<title>Node5&#45;&gt;Node4</title>
<g id="a_edge4_Node000004_Node000005"><a xlink:title=" ">
<path fill="none" stroke="#9a32cd" stroke-dasharray="5,2" d="M367.37,-242.46C399.95,-238.81 437.35,-233.79 471,-227.25 492.49,-223.07 516.23,-216.71 534.8,-211.32"/>
<polygon fill="#9a32cd" stroke="#9a32cd" points="367.12,-238.97 357.56,-243.53 367.88,-245.93 367.12,-238.97"/>
</a>
</g>
<text text-anchor="start" x="383.25" y="-275.75" font-family="Helvetica,sans-Serif" font-size="10.00" fill="grey"> p_all_classes_desc</text>
<text text-anchor="middle" x="427.12" y="-264.5" font-family="Helvetica,sans-Serif" font-size="10.00" fill="grey">_cache</text>
<text text-anchor="start" x="383.25" y="-253.25" font-family="Helvetica,sans-Serif" font-size="10.00" fill="grey">p_direct_classes</text>
<text text-anchor="middle" x="427.12" y="-242" font-family="Helvetica,sans-Serif" font-size="10.00" fill="grey">_desc_cache</text>
</g>
<!-- Node6 -->
<g id="Node000006" class="node">
<title>Node6</title>
<g id="a_Node000006"><a xlink:title=" ">
<polygon fill="white" stroke="#666666" points="134.12,-290.12 25.88,-290.12 25.88,-248.38 134.12,-248.38 134.12,-290.12"/>
<text text-anchor="start" x="33.88" y="-276.62" font-family="Helvetica,sans-Serif" font-size="10.00">std::unordered_map</text>
<text text-anchor="start" x="33.88" y="-265.38" font-family="Helvetica,sans-Serif" font-size="10.00">&lt; std::string, dunedaq</text>
<text text-anchor="middle" x="80" y="-254.12" font-family="Helvetica,sans-Serif" font-size="10.00">::conffwk::class_t * &gt;</text>
</a>
</g>
</g>
<!-- Node6&#45;&gt;Node5 -->
<g id="edge5_Node000005_Node000006" class="edge">
<title>Node6&#45;&gt;Node5</title>
<g id="a_edge5_Node000005_Node000006"><a xlink:title=" ">
<path fill="none" stroke="#63b8ff" d="M146.01,-263.05C165.25,-261.21 186.45,-259.19 206.21,-257.3"/>
<polygon fill="#63b8ff" stroke="#63b8ff" points="145.75,-259.56 136.13,-263.99 146.42,-266.52 145.75,-259.56"/>
</a>
</g>
</g>
<!-- Node7 -->
<g id="Node000007" class="node">
<title>Node7</title>
<g id="a_Node000007"><a xlink:href="classdunedaq_1_1conffwk_1_1fmap.html" target="_top" xlink:title=" ">
<polygon fill="white" stroke="#666666" points="339.75,-216.5 222.5,-216.5 222.5,-186 339.75,-186 339.75,-216.5"/>
<text text-anchor="start" x="230.5" y="-203" font-family="Helvetica,sans-Serif" font-size="10.00">dunedaq::conffwk::fmap</text>
<text text-anchor="middle" x="281.12" y="-191.75" font-family="Helvetica,sans-Serif" font-size="10.00">&lt; conffwk::fset &gt;</text>
</a>
</g>
</g>
<!-- Node7&#45;&gt;Node4 -->
<g id="edge6_Node000004_Node000007" class="edge">
<title>Node7&#45;&gt;Node4</title>
<g id="a_edge6_Node000004_Node000007"><a xlink:title=" ">
<path fill="none" stroke="#9a32cd" stroke-dasharray="5,2" d="M351.65,-201.25C394.28,-201.25 448.86,-201.25 492.49,-201.25"/>
<polygon fill="#9a32cd" stroke="#9a32cd" points="351.76,-197.75 341.76,-201.25 351.76,-204.75 351.76,-197.75"/>
</a>
</g>
<text text-anchor="middle" x="427.12" y="-214.25" font-family="Helvetica,sans-Serif" font-size="10.00" fill="grey"> p_subclasses</text>
<text text-anchor="middle" x="427.12" y="-203" font-family="Helvetica,sans-Serif" font-size="10.00" fill="grey">p_superclasses</text>
</g>
<!-- Node8 -->
<g id="Node000008" class="node">
<title>Node8</title>
<g id="a_Node000008"><a xlink:title=" ">
<polygon fill="white" stroke="#666666" points="136.75,-230.75 23.25,-230.75 23.25,-177.75 136.75,-177.75 136.75,-230.75"/>
<text text-anchor="start" x="31.25" y="-217.25" font-family="Helvetica,sans-Serif" font-size="10.00">std::unordered_map</text>
<text text-anchor="start" x="31.25" y="-206" font-family="Helvetica,sans-Serif" font-size="10.00">&lt; const std::string</text>
<text text-anchor="start" x="31.25" y="-194.75" font-family="Helvetica,sans-Serif" font-size="10.00"> *, conffwk::fset , string</text>
<text text-anchor="middle" x="80" y="-183.5" font-family="Helvetica,sans-Serif" font-size="10.00">_ptr_hash &gt;</text>
</a>
</g>
</g>
<!-- Node8&#45;&gt;Node7 -->
<g id="edge7_Node000007_Node000008" class="edge">
<title>Node8&#45;&gt;Node7</title>
<g id="a_edge7_Node000007_Node000008"><a xlink:title=" ">
<path fill="none" stroke="#63b8ff" d="M148.49,-203.23C172.4,-202.87 199.07,-202.47 222.12,-202.12"/>
<polygon fill="#63b8ff" stroke="#63b8ff" points="148.46,-199.73 138.51,-203.38 148.56,-206.73 148.46,-199.73"/>
</a>
</g>
</g>
<!-- Node9 -->
<g id="Node000009" class="node">
<title>Node9</title>
<g id="a_Node000009"><a xlink:href="classdunedaq_1_1conffwk_1_1map.html" target="_top" xlink:title=" ">
<polygon fill="white" stroke="#666666" points="342,-162.38 220.25,-162.38 220.25,-98.12 342,-98.12 342,-162.38"/>
<text text-anchor="start" x="228.25" y="-148.88" font-family="Helvetica,sans-Serif" font-size="10.00">dunedaq::conffwk::map</text>
<text text-anchor="start" x="228.25" y="-137.62" font-family="Helvetica,sans-Serif" font-size="10.00">&lt; std::list&lt; dunedaq</text>
<text text-anchor="start" x="228.25" y="-126.38" font-family="Helvetica,sans-Serif" font-size="10.00">::conffwk::Configuration</text>
<text text-anchor="start" x="228.25" y="-115.12" font-family="Helvetica,sans-Serif" font-size="10.00">::AttributeConverterBase</text>
<text text-anchor="middle" x="281.12" y="-103.88" font-family="Helvetica,sans-Serif" font-size="10.00"> * &gt; * &gt;</text>
</a>
</g>
</g>
<!-- Node9&#45;&gt;Node4 -->
<g id="edge8_Node000004_Node000009" class="edge">
<title>Node9&#45;&gt;Node4</title>
<g id="a_edge8_Node000004_Node000009"><a xlink:title=" ">
<path fill="none" stroke="#9a32cd" stroke-dasharray="5,2" d="M353.38,-147.97C408.26,-161.62 482.16,-180 527.26,-191.21"/>
<polygon fill="#9a32cd" stroke="#9a32cd" points="354.34,-144.6 343.79,-145.59 352.65,-151.4 354.34,-144.6"/>
</a>
</g>
<text text-anchor="middle" x="427.12" y="-178" font-family="Helvetica,sans-Serif" font-size="10.00" fill="grey"> m_convert_map</text>
</g>
<!-- Node10 -->
<g id="Node000010" class="node">
<title>Node10</title>
<g id="a_Node000010"><a xlink:title=" ">
<polygon fill="white" stroke="#666666" points="160,-159.38 0,-159.38 0,-95.12 160,-95.12 160,-159.38"/>
<text text-anchor="start" x="8" y="-145.88" font-family="Helvetica,sans-Serif" font-size="10.00">std::unordered_map</text>
<text text-anchor="start" x="8" y="-134.62" font-family="Helvetica,sans-Serif" font-size="10.00">&lt; std::string, std::</text>
<text text-anchor="start" x="8" y="-123.38" font-family="Helvetica,sans-Serif" font-size="10.00">list&lt; dunedaq::conffwk</text>
<text text-anchor="start" x="8" y="-112.12" font-family="Helvetica,sans-Serif" font-size="10.00">::Configuration::AttributeConverter</text>
<text text-anchor="middle" x="80" y="-100.88" font-family="Helvetica,sans-Serif" font-size="10.00">Base * &gt; * &gt;</text>
</a>
</g>
</g>
<!-- Node10&#45;&gt;Node9 -->
<g id="edge9_Node000009_Node000010" class="edge">
<title>Node10&#45;&gt;Node9</title>
<g id="a_edge9_Node000009_Node000010"><a xlink:title=" ">
<path fill="none" stroke="#63b8ff" d="M171.53,-128.61C187.91,-128.86 204.61,-129.11 219.85,-129.34"/>
<polygon fill="#63b8ff" stroke="#63b8ff" points="171.84,-125.12 161.78,-128.47 171.73,-132.12 171.84,-125.12"/>
</a>
</g>
</g>
<!-- Node11 -->
<g id="Node000011" class="node">
<title>Node11</title>
<g id="a_Node000011"><a xlink:href="classdunedaq_1_1conffwk_1_1fmap.html" target="_top" xlink:title=" ">
<polygon fill="white" stroke="#666666" points="365.25,-72.5 197,-72.5 197,-42 365.25,-42 365.25,-72.5"/>
<text text-anchor="start" x="205" y="-59" font-family="Helvetica,sans-Serif" font-size="10.00">dunedaq::conffwk::fmap</text>
<text text-anchor="middle" x="281.12" y="-47.75" font-family="Helvetica,sans-Serif" font-size="10.00">&lt; dunedaq::conffwk::CacheBase * &gt;</text>
</a>
</g>
</g>
<!-- Node11&#45;&gt;Node4 -->
<g id="edge10_Node000004_Node000011" class="edge">
<title>Node11&#45;&gt;Node4</title>
<g id="a_edge10_Node000004_Node000011"><a xlink:title=" ">
<path fill="none" stroke="#9a32cd" stroke-dasharray="5,2" d="M335.72,-77.02C345.61,-80.91 355.79,-85.08 365.25,-89.25 413.31,-110.43 425.07,-116.53 471,-142 500.25,-158.22 533.26,-179.03 552.14,-191.18"/>
<polygon fill="#9a32cd" stroke="#9a32cd" points="337.16,-73.82 326.57,-73.47 334.63,-80.35 337.16,-73.82"/>
</a>
</g>
<text text-anchor="middle" x="427.12" y="-143" font-family="Helvetica,sans-Serif" font-size="10.00" fill="grey"> m_cache_map</text>
</g>
<!-- Node12 -->
<g id="Node000012" class="node">
<title>Node12</title>
<g id="a_Node000012"><a xlink:title=" ">
<polygon fill="white" stroke="#666666" points="133,-77.38 27,-77.38 27,-13.12 133,-13.12 133,-77.38"/>
<text text-anchor="start" x="35" y="-63.88" font-family="Helvetica,sans-Serif" font-size="10.00">std::unordered_map</text>
<text text-anchor="start" x="35" y="-52.62" font-family="Helvetica,sans-Serif" font-size="10.00">&lt; const std::string</text>
<text text-anchor="start" x="35" y="-41.38" font-family="Helvetica,sans-Serif" font-size="10.00"> *, dunedaq::conffwk</text>
<text text-anchor="start" x="35" y="-30.12" font-family="Helvetica,sans-Serif" font-size="10.00">::CacheBase *, string</text>
<text text-anchor="middle" x="80" y="-18.88" font-family="Helvetica,sans-Serif" font-size="10.00">_ptr_hash &gt;</text>
</a>
</g>
</g>
<!-- Node12&#45;&gt;Node11 -->
<g id="edge11_Node000011_Node000012" class="edge">
<title>Node12&#45;&gt;Node11</title>
<g id="a_edge11_Node000011_Node000012"><a xlink:title=" ">
<path fill="none" stroke="#63b8ff" d="M144.51,-49.08C161.06,-50.07 179.16,-51.17 196.58,-52.22"/>
<polygon fill="#63b8ff" stroke="#63b8ff" points="145.02,-45.6 134.83,-48.49 144.6,-52.59 145.02,-45.6"/>
</a>
</g>
</g>
<!-- Node13&#45;&gt;Node4 -->
<g id="edge12_Node000004_Node000013" class="edge">
<title>Node13&#45;&gt;Node4</title>
<g id="a_edge12_Node000004_Node000013"><a xlink:title=" ">
<path fill="none" stroke="#9a32cd" stroke-dasharray="5,2" d="M800.4,-254.54C781.39,-248.08 758.03,-240.59 736.75,-235 700.96,-225.6 660.28,-217.33 628.01,-211.33"/>
<polygon fill="#9a32cd" stroke="#9a32cd" points="799.02,-257.76 809.62,-257.7 801.3,-251.14 799.02,-257.76"/>
</a>
</g>
<text text-anchor="middle" x="701.5" y="-236" font-family="Helvetica,sans-Serif" font-size="10.00" fill="grey"> m_impl</text>
</g>
<!-- Node17 -->
<g id="Node000017" class="node">
<title>Node17</title>
<g id="a_Node000017"><a xlink:href="classdunedaq_1_1conffwk_1_1ConfigObjectImpl.html" target="_top" xlink:title="Implements database objects.">
<polygon fill="white" stroke="#666666" points="1117.5,-283.5 995,-283.5 995,-253 1117.5,-253 1117.5,-283.5"/>
<text text-anchor="start" x="1003" y="-270" font-family="Helvetica,sans-Serif" font-size="10.00">dunedaq::conffwk::Config</text>
<text text-anchor="middle" x="1056.25" y="-258.75" font-family="Helvetica,sans-Serif" font-size="10.00">ObjectImpl</text>
</a>
</g>
</g>
<!-- Node13&#45;&gt;Node17 -->
<g id="edge18_Node000017_Node000013" class="edge">
<title>Node13&#45;&gt;Node17</title>
<g id="a_edge18_Node000017_Node000013"><a xlink:title=" ">
<path fill="none" stroke="#9a32cd" stroke-dasharray="5,2" d="M937.12,-268.25C956.67,-268.25 976.73,-268.25 994.63,-268.25"/>
<polygon fill="#9a32cd" stroke="#9a32cd" points="937.19,-264.75 927.19,-268.25 937.19,-271.75 937.19,-264.75"/>
</a>
</g>
<text text-anchor="middle" x="960.12" y="-270" font-family="Helvetica,sans-Serif" font-size="10.00" fill="grey"> m_impl</text>
</g>
<!-- Node14 -->
<g id="Node000014" class="node">
<title>Node14</title>
<g id="a_Node000014"><a xlink:href="classdunedaq_1_1conffwk_1_1pmap.html" target="_top" xlink:title=" ">
<polygon fill="white" stroke="#666666" points="648.25,-337.75 489,-337.75 489,-284.75 648.25,-284.75 648.25,-337.75"/>
<text text-anchor="start" x="497" y="-324.25" font-family="Helvetica,sans-Serif" font-size="10.00">dunedaq::conffwk::pmap</text>
<text text-anchor="start" x="497" y="-313" font-family="Helvetica,sans-Serif" font-size="10.00">&lt; dunedaq::conffwk::map</text>
<text text-anchor="start" x="497" y="-301.75" font-family="Helvetica,sans-Serif" font-size="10.00">&lt; dunedaq::conffwk::ConfigObject</text>
<text text-anchor="middle" x="568.62" y="-290.5" font-family="Helvetica,sans-Serif" font-size="10.00">Impl * &gt; * &gt;</text>
</a>
</g>
</g>
<!-- Node14&#45;&gt;Node13 -->
<g id="edge13_Node000013_Node000014" class="edge">
<title>Node14&#45;&gt;Node13</title>
<g id="a_edge13_Node000013_Node000014"><a xlink:title=" ">
<path fill="none" stroke="#9a32cd" stroke-dasharray="5,2" d="M659.73,-296.87C697.81,-290.79 741.24,-283.86 775.81,-278.34"/>
<polygon fill="#9a32cd" stroke="#9a32cd" points="659.44,-293.37 650.12,-298.4 660.55,-300.28 659.44,-293.37"/>
</a>
</g>
<text text-anchor="middle" x="701.5" y="-296" font-family="Helvetica,sans-Serif" font-size="10.00" fill="grey"> m_impl_objects</text>
</g>
<!-- Node15 -->
<g id="Node000015" class="node">
<title>Node15</title>
<g id="a_Node000015"><a xlink:title=" ">
<polygon fill="white" stroke="#666666" points="348.75,-347.38 213.5,-347.38 213.5,-283.12 348.75,-283.12 348.75,-347.38"/>
<text text-anchor="start" x="221.5" y="-333.88" font-family="Helvetica,sans-Serif" font-size="10.00">std::map&lt; const std</text>
<text text-anchor="start" x="221.5" y="-322.62" font-family="Helvetica,sans-Serif" font-size="10.00">::string *, dunedaq</text>
<text text-anchor="start" x="221.5" y="-311.38" font-family="Helvetica,sans-Serif" font-size="10.00">::conffwk::map&lt; dunedaq</text>
<text text-anchor="start" x="221.5" y="-300.12" font-family="Helvetica,sans-Serif" font-size="10.00">::conffwk::ConfigObjectImpl</text>
<text text-anchor="middle" x="281.12" y="-288.88" font-family="Helvetica,sans-Serif" font-size="10.00"> * &gt; * , string_ptr_compare &gt;</text>
</a>
</g>
</g>
<!-- Node15&#45;&gt;Node14 -->
<g id="edge14_Node000014_Node000015" class="edge">
<title>Node15&#45;&gt;Node14</title>
<g id="a_edge14_Node000014_Node000015"><a xlink:title=" ">
<path fill="none" stroke="#63b8ff" d="M360.35,-314.15C400.25,-313.59 448.68,-312.92 488.69,-312.36"/>
<polygon fill="#63b8ff" stroke="#63b8ff" points="360.53,-310.65 350.58,-314.29 360.62,-317.65 360.53,-310.65"/>
</a>
</g>
</g>
<!-- Node16 -->
<g id="Node000016" class="node">
<title>Node16</title>
<g id="a_Node000016"><a xlink:href="classdunedaq_1_1conffwk_1_1ConfigObject.html" target="_top" xlink:title="Represents database objects.">
<polygon fill="white" stroke="#666666" points="1309.75,-283.5 1187.25,-283.5 1187.25,-253 1309.75,-253 1309.75,-283.5"/>
<text text-anchor="start" x="1195.25" y="-270" font-family="Helvetica,sans-Serif" font-size="10.00">dunedaq::conffwk::Config</text>
<text text-anchor="middle" x="1248.5" y="-258.75" font-family="Helvetica,sans-Serif" font-size="10.00">Object</text>
</a>
</g>
</g>
<!-- Node16&#45;&gt;Node3 -->
<g id="edge16_Node000003_Node000016" class="edge">
<title>Node16&#45;&gt;Node3</title>
<g id="a_edge16_Node000003_Node000016"><a xlink:title=" ">
<path fill="none" stroke="#9a32cd" stroke-dasharray="5,2" d="M1321.17,-268.25C1337.43,-268.25 1354.65,-268.25 1370.77,-268.25"/>
<polygon fill="#9a32cd" stroke="#9a32cd" points="1321.61,-264.75 1311.61,-268.25 1321.61,-271.75 1321.61,-264.75"/>
</a>
</g>
<text text-anchor="middle" x="1340.5" y="-270" font-family="Helvetica,sans-Serif" font-size="10.00" fill="grey"> p_obj</text>
</g>
<!-- Node17&#45;&gt;Node16 -->
<g id="edge17_Node000016_Node000017" class="edge">
<title>Node17&#45;&gt;Node16</title>
<g id="a_edge17_Node000016_Node000017"><a xlink:title=" ">
<path fill="none" stroke="#9a32cd" stroke-dasharray="5,2" d="M1129.31,-268.25C1148.34,-268.25 1168.68,-268.25 1187.03,-268.25"/>
<polygon fill="#9a32cd" stroke="#9a32cd" points="1129.48,-264.75 1119.48,-268.25 1129.48,-271.75 1129.48,-264.75"/>
</a>
</g>
<text text-anchor="middle" x="1152.38" y="-270" font-family="Helvetica,sans-Serif" font-size="10.00" fill="grey"> m_impl</text>
</g>
<!-- Node18 -->
<g id="Node000018" class="node">
<title>Node18</title>
<g id="a_Node000018"><a xlink:href="classdunedaq_1_1coredal_1_1Segment.html" target="_top" xlink:title=" ">
<polygon fill="white" stroke="#666666" points="2803.5,-396.88 2671.25,-396.88 2671.25,-377.62 2803.5,-377.62 2803.5,-396.88"/>
<text text-anchor="middle" x="2737.38" y="-383.38" font-family="Helvetica,sans-Serif" font-size="10.00">dunedaq::coredal::Segment</text>
</a>
</g>
</g>
<!-- Node18&#45;&gt;Node2 -->
<g id="edge20_Node000002_Node000018" class="edge">
<title>Node18&#45;&gt;Node2</title>
<g id="a_edge20_Node000002_Node000018"><a xlink:title=" ">
<path fill="none" stroke="#9a32cd" stroke-dasharray="5,2" d="M2815.35,-385.48C2840.58,-384.9 2868.3,-384.26 2892.41,-383.71"/>
<polygon fill="#9a32cd" stroke="#9a32cd" points="2815.39,-381.98 2805.48,-385.71 2815.56,-388.98 2815.39,-381.98"/>
</a>
</g>
<text text-anchor="middle" x="2848.12" y="-386" font-family="Helvetica,sans-Serif" font-size="10.00" fill="grey"> m_segment</text>
</g>
<!-- Node19 -->
<g id="Node000019" class="node">
<title>Node19</title>
<g id="a_Node000019"><a xlink:href="classdunedaq_1_1coredal_1_1ResourceBase.html" target="_top" xlink:title=" ">
<polygon fill="white" stroke="#666666" points="2118.75,-410.88 1961.75,-410.88 1961.75,-391.62 2118.75,-391.62 2118.75,-410.88"/>
<text text-anchor="middle" x="2040.25" y="-397.38" font-family="Helvetica,sans-Serif" font-size="10.00">dunedaq::coredal::ResourceBase</text>
</a>
</g>
</g>
<!-- Node19&#45;&gt;Node18 -->
<g id="edge21_Node000018_Node000019" class="edge">
<title>Node19&#45;&gt;Node18</title>
<g id="a_edge21_Node000018_Node000019"><a xlink:title=" ">
<path fill="none" stroke="#63b8ff" d="M2130.18,-394.77C2271.9,-389 2545.7,-383.66 2670.96,-384.42"/>
<polygon fill="#63b8ff" stroke="#63b8ff" points="2130.32,-391.26 2120.48,-395.17 2130.62,-398.25 2130.32,-391.26"/>
</a>
</g>
</g>
<!-- Node19&#45;&gt;Node18 -->
<g id="edge26_Node000018_Node000019" class="edge">
<title>Node19&#45;&gt;Node18</title>
<g id="a_edge26_Node000018_Node000019"><a xlink:title=" ">
<path fill="none" stroke="#63b8ff" d="M2130.18,-404.15C2271.9,-404.21 2545.7,-398.52 2670.96,-392.71"/>
<polygon fill="#63b8ff" stroke="#63b8ff" points="2130.49,-400.65 2120.48,-404.14 2130.47,-407.65 2130.49,-400.65"/>
</a>
</g>
</g>
<!-- Node20&#45;&gt;Node19 -->
<g id="edge22_Node000019_Node000020" class="edge">
<title>Node20&#45;&gt;Node19</title>
<g id="a_edge22_Node000019_Node000020"><a xlink:title=" ">
<path fill="none" stroke="#63b8ff" d="M1713.76,-399.71C1785.91,-397.18 1890.34,-395.92 1961.31,-396.76"/>
<polygon fill="#63b8ff" stroke="#63b8ff" points="1713.85,-396.21 1703.99,-400.07 1714.11,-403.2 1713.85,-396.21"/>
</a>
</g>
</g>
<!-- Node20&#45;&gt;Node19 -->
<g id="edge25_Node000019_Node000020" class="edge">
<title>Node20&#45;&gt;Node19</title>
<g id="a_edge25_Node000019_Node000020"><a xlink:title=" ">
<path fill="none" stroke="#63b8ff" d="M1713.76,-410.78C1785.91,-411.55 1890.34,-410.23 1961.31,-407.65"/>
<polygon fill="#63b8ff" stroke="#63b8ff" points="1714.03,-407.28 1703.99,-410.66 1713.94,-414.28 1714.03,-407.28"/>
</a>
</g>
</g>
<!-- Node21 -->
<g id="Node000021" class="node">
<title>Node21</title>
<g id="a_Node000021"><a xlink:href="classdunedaq_1_1coredal_1_1RCApplication.html" target="_top" xlink:title=" ">
<polygon fill="white" stroke="#666666" points="2579.75,-269.88 2425,-269.88 2425,-250.62 2579.75,-250.62 2579.75,-269.88"/>
<text text-anchor="middle" x="2502.38" y="-256.38" font-family="Helvetica,sans-Serif" font-size="10.00">dunedaq::coredal::RCApplication</text>
</a>
</g>
</g>
<!-- Node21&#45;&gt;Node18 -->
<g id="edge27_Node000018_Node000021" class="edge">
<title>Node21&#45;&gt;Node18</title>
<g id="a_edge27_Node000018_Node000021"><a xlink:title=" ">
<path fill="none" stroke="#9a32cd" stroke-dasharray="5,2" d="M2531.75,-275.72C2580.12,-302.08 2677.24,-355.02 2717.85,-377.16"/>
<polygon fill="#9a32cd" stroke="#9a32cd" points="2533.44,-272.65 2522.99,-270.94 2530.09,-278.8 2533.44,-272.65"/>
</a>
</g>
<text text-anchor="middle" x="2625.5" y="-340" font-family="Helvetica,sans-Serif" font-size="10.00" fill="grey"> m_controller</text>
</g>
<!-- Node22&#45;&gt;Node1 -->
<g id="edge54_Node000001_Node000022" class="edge">
<title>Node22&#45;&gt;Node1</title>
<g id="a_edge54_Node000001_Node000022"><a xlink:title=" ">
<path fill="none" stroke="#9a32cd" stroke-dasharray="5,2" d="M2289.68,-298.25C2348.49,-298.25 2429.84,-298.25 2501.38,-298.25 2501.38,-298.25 2501.38,-298.25 2958,-298.25 3043.34,-298.25 3066.28,-293.34 3149.5,-312.25 3169.69,-316.84 3191.29,-325.13 3208.46,-332.6"/>
<polygon fill="#9a32cd" stroke="#9a32cd" points="2289.75,-294.75 2279.75,-298.25 2289.75,-301.75 2289.75,-294.75"/>
</a>
</g>
<text text-anchor="middle" x="2737.38" y="-300" font-family="Helvetica,sans-Serif" font-size="10.00" fill="grey"> m_application</text>
</g>
<!-- Node22&#45;&gt;Node21 -->
<g id="edge28_Node000021_Node000022" class="edge">
<title>Node22&#45;&gt;Node21</title>
<g id="a_edge28_Node000021_Node000022"><a xlink:title=" ">
<path fill="none" stroke="#63b8ff" d="M2238.71,-285.6C2255.57,-281.99 2276.93,-278.82 2296,-276.25 2338.54,-270.51 2386.11,-264.68 2424.75,-261.01"/>
<polygon fill="#63b8ff" stroke="#63b8ff" points="2238.24,-282.12 2229.32,-287.82 2239.85,-288.93 2238.24,-282.12"/>
</a>
</g>
</g>
<!-- Node22&#45;&gt;Node21 -->
<g id="edge37_Node000021_Node000022" class="edge">
<title>Node22&#45;&gt;Node21</title>
<g id="a_edge37_Node000021_Node000022"><a xlink:title=" ">
<path fill="none" stroke="#63b8ff" d="M2289.41,-295.15C2291.63,-294.84 2293.83,-294.54 2296,-294.25 2356.69,-286.06 2427.64,-277.69 2468.26,-270.35"/>
<polygon fill="#63b8ff" stroke="#63b8ff" points="2289.11,-291.66 2279.68,-296.49 2290.07,-298.59 2289.11,-291.66"/>
</a>
</g>
</g>
<!-- Node23&#45;&gt;Node22 -->
<g id="edge31_Node000022_Node000023" class="edge">
<title>Node23&#45;&gt;Node22</title>
<g id="a_edge31_Node000022_Node000023"><a xlink:title=" ">
<path fill="none" stroke="#9a32cd" stroke-dasharray="5,2" d="M1955.1,-298.25C2010.62,-298.25 2083.4,-298.25 2136.34,-298.25"/>
<polygon fill="#9a32cd" stroke="#9a32cd" points="1955.4,-294.75 1945.4,-298.25 1955.4,-301.75 1955.4,-294.75"/>
</a>
</g>
<text text-anchor="middle" x="2040.25" y="-300" font-family="Helvetica,sans-Serif" font-size="10.00" fill="grey"> m_runs_on</text>
</g>
<!-- Node24&#45;&gt;Node23 -->
<g id="edge34_Node000023_Node000024" class="edge">
<title>Node24&#45;&gt;Node23</title>
<g id="a_edge34_Node000023_Node000024"><a xlink:title=" ">
<path fill="none" stroke="#9a32cd" stroke-dasharray="5,2" d="M1718.42,-259.95C1739.9,-261.84 1762.78,-264.7 1783.75,-269 1805.51,-273.47 1829.39,-281.62 1846.77,-288.18"/>
<polygon fill="#9a32cd" stroke="#9a32cd" points="1718.75,-256.46 1708.49,-259.14 1718.18,-263.44 1718.75,-256.46"/>
</a>
</g>
<text text-anchor="middle" x="1758.62" y="-270" font-family="Helvetica,sans-Serif" font-size="10.00" fill="grey"> m_runs_on</text>
</g>
<!-- Node25&#45;&gt;Node21 -->
<g id="edge38_Node000021_Node000025" class="edge">
<title>Node25&#45;&gt;Node21</title>
<g id="a_edge38_Node000021_Node000025"><a xlink:title=" ">
<path fill="none" stroke="#9a32cd" stroke-dasharray="5,2" d="M1727.16,-223.74C1900.78,-231.93 2265.65,-249.13 2424.62,-256.63"/>
<polygon fill="#9a32cd" stroke="#9a32cd" points="1727.42,-220.25 1717.27,-223.27 1727.09,-227.24 1727.42,-220.25"/>
</a>
</g>
<text text-anchor="middle" x="2040.25" y="-243" font-family="Helvetica,sans-Serif" font-size="10.00" fill="grey"> m_fsm</text>
</g>
<!-- Node26&#45;&gt;Node21 -->
<g id="edge41_Node000021_Node000026" class="edge">
<title>Node26&#45;&gt;Node21</title>
<g id="a_edge41_Node000021_Node000026"><a xlink:title=" ">
<path fill="none" stroke="#9a32cd" stroke-dasharray="5,2" d="M1722.29,-187.45C1867.09,-196.3 2160.05,-216.28 2407,-246.25 2416.54,-247.41 2426.6,-248.76 2436.45,-250.16"/>
<polygon fill="#9a32cd" stroke="#9a32cd" points="1722.56,-183.96 1712.37,-186.85 1722.14,-190.95 1722.56,-183.96"/>
</a>
</g>
<text text-anchor="middle" x="2040.25" y="-217" font-family="Helvetica,sans-Serif" font-size="10.00" fill="grey"> m_broadcaster</text>
</g>
<!-- Node27&#45;&gt;Node2 -->
<g id="edge44_Node000002_Node000027" class="edge">
<title>Node27&#45;&gt;Node2</title>
<g id="a_edge44_Node000002_Node000027"><a xlink:title=" ">
<path fill="none" stroke="#9a32cd" stroke-dasharray="5,2" d="M1707.71,-141.16C1754.89,-142.19 1816.85,-143.25 1871.75,-143.25 1871.75,-143.25 1871.75,-143.25 2738.38,-143.25 2864.36,-143.25 2936.74,-327.05 2952.65,-372.28"/>
<polygon fill="#9a32cd" stroke="#9a32cd" points="1707.95,-137.66 1697.87,-140.94 1707.79,-144.66 1707.95,-137.66"/>
</a>
</g>
<text text-anchor="middle" x="2351.5" y="-145" font-family="Helvetica,sans-Serif" font-size="10.00" fill="grey"> m_detector_configuration</text>
</g>
<!-- Node28&#45;&gt;Node2 -->
<g id="edge47_Node000002_Node000028" class="edge">
<title>Node28&#45;&gt;Node2</title>
<g id="a_edge47_Node000002_Node000028"><a xlink:title=" ">
<path fill="none" stroke="#9a32cd" stroke-dasharray="5,2" d="M1716.84,-98.88C1762.7,-100.09 1820.32,-101.25 1871.75,-101.25 1871.75,-101.25 1871.75,-101.25 2738.38,-101.25 2805.91,-101.25 2830.4,-117.32 2874.75,-168.25 2930.86,-232.69 2950.03,-339.83 2954.73,-372.5"/>
<polygon fill="#9a32cd" stroke="#9a32cd" points="1717.05,-95.39 1706.96,-98.62 1716.86,-102.38 1717.05,-95.39"/>
</a>
</g>
<text text-anchor="middle" x="2351.5" y="-103" font-family="Helvetica,sans-Serif" font-size="10.00" fill="grey"> m_readout_map</text>
</g>
<!-- Node29&#45;&gt;Node2 -->
<g id="edge50_Node000002_Node000029" class="edge">
<title>Node29&#45;&gt;Node2</title>
<g id="a_edge50_Node000002_Node000029"><a xlink:title=" ">
<path fill="none" stroke="#9a32cd" stroke-dasharray="5,2" d="M3206.38,-227.91C3144.69,-266.25 3018.61,-344.59 2974.04,-372.28"/>
<polygon fill="#9a32cd" stroke="#9a32cd" points="3208.13,-230.95 3214.78,-222.7 3204.44,-225 3208.13,-230.95"/>
</a>
</g>
<text text-anchor="middle" x="3094.38" y="-331" font-family="Helvetica,sans-Serif" font-size="10.00" fill="grey"> m_disabled_components</text>
</g>
<!-- Node30 -->
<g id="Node000030" class="node">
<title>Node30</title>
<g id="a_Node000030"><a xlink:href="classdunedaq_1_1conffwk_1_1ConfigAction.html" target="_top" xlink:title=" ">
<polygon fill="white" stroke="#666666" points="3018.25,-30.5 2895.75,-30.5 2895.75,0 3018.25,0 3018.25,-30.5"/>
<text text-anchor="start" x="2903.75" y="-17" font-family="Helvetica,sans-Serif" font-size="10.00">dunedaq::conffwk::Config</text>
<text text-anchor="middle" x="2957" y="-5.75" font-family="Helvetica,sans-Serif" font-size="10.00">Action</text>
</a>
</g>
</g>
<!-- Node30&#45;&gt;Node29 -->
<g id="edge51_Node000029_Node000030" class="edge">
<title>Node30&#45;&gt;Node29</title>
<g id="a_edge51_Node000029_Node000030"><a xlink:title=" ">
<path fill="none" stroke="#63b8ff" d="M3029.78,-11.53C3068.3,-12.93 3114.84,-20.39 3149.5,-44.25 3202.22,-80.54 3228.27,-157.6 3237.37,-190.66"/>
<polygon fill="#63b8ff" stroke="#63b8ff" points="3030.22,-8.04 3020.14,-11.32 3030.06,-15.04 3030.22,-8.04"/>
</a>
</g>
</g>
</g>
</svg>
