<?xml version="1.0" encoding="UTF-8" standalone="no"?>
<!DOCTYPE svg PUBLIC "-//W3C//DTD SVG 1.1//EN"
 "http://www.w3.org/Graphics/SVG/1.1/DTD/svg11.dtd">
<!-- Generated by graphviz version 9.0.0 (20230911.1827)
 -->
<!-- Title: dunedaq::appdal::TriggerActivityMakerHorizontalMuonPlugin Pages: 1 -->
<svg width="178pt" height="204pt"
 viewBox="0.00 0.00 177.75 204.25" xmlns="http://www.w3.org/2000/svg" xmlns:xlink="http://www.w3.org/1999/xlink">
<g id="graph0" class="graph" transform="scale(1 1) rotate(0) translate(4 200.25)">
<title>dunedaq::appdal::TriggerActivityMakerHorizontalMuonPlugin</title>
<!-- Node1 -->
<g id="Node000001" class="node">
<title>Node1</title>
<g id="a_Node000001"><a xlink:title=" ">
<polygon fill="#999999" stroke="#666666" points="169.75,-30.5 0,-30.5 0,0 169.75,0 169.75,-30.5"/>
<text text-anchor="start" x="8" y="-17" font-family="Helvetica,sans-Serif" font-size="10.00">dunedaq::appdal::Trigger</text>
<text text-anchor="middle" x="84.88" y="-5.75" font-family="Helvetica,sans-Serif" font-size="10.00">ActivityMakerHorizontalMuonPlugin</text>
</a>
</g>
</g>
<!-- Node2 -->
<g id="Node000002" class="node">
<title>Node2</title>
<g id="a_Node000002"><a xlink:href="classdunedaq_1_1appdal_1_1TAAlgorithm.html" target="_top" xlink:title=" ">
<polygon fill="white" stroke="#666666" points="157,-85.75 12.75,-85.75 12.75,-66.5 157,-66.5 157,-85.75"/>
<text text-anchor="middle" x="84.88" y="-72.25" font-family="Helvetica,sans-Serif" font-size="10.00">dunedaq::appdal::TAAlgorithm</text>
</a>
</g>
</g>
<!-- Node2&#45;&gt;Node1 -->
<g id="edge1_Node000001_Node000002" class="edge">
<title>Node2&#45;&gt;Node1</title>
<g id="a_edge1_Node000001_Node000002"><a xlink:title=" ">
<path fill="none" stroke="#63b8ff" d="M78.43,-54.92C77.89,-46.99 78.07,-38.06 78.96,-30.78"/>
<polygon fill="#63b8ff" stroke="#63b8ff" points="74.94,-55.2 79.67,-64.68 81.88,-54.32 74.94,-55.2"/>
</a>
</g>
</g>
<!-- Node2&#45;&gt;Node1 -->
<g id="edge6_Node000001_Node000002" class="edge">
<title>Node2&#45;&gt;Node1</title>
<g id="a_edge6_Node000001_Node000002"><a xlink:title=" ">
<path fill="none" stroke="#63b8ff" d="M91.32,-54.92C91.86,-46.99 91.68,-38.06 90.79,-30.78"/>
<polygon fill="#63b8ff" stroke="#63b8ff" points="87.87,-54.32 90.08,-64.68 94.81,-55.2 87.87,-54.32"/>
</a>
</g>
</g>
<!-- Node3 -->
<g id="Node000003" class="node">
<title>Node3</title>
<g id="a_Node000003"><a xlink:href="classdunedaq_1_1coredal_1_1Jsonable.html" target="_top" xlink:title=" ">
<polygon fill="white" stroke="#666666" points="151,-141 18.75,-141 18.75,-121.75 151,-121.75 151,-141"/>
<text text-anchor="middle" x="84.88" y="-127.5" font-family="Helvetica,sans-Serif" font-size="10.00">dunedaq::coredal::Jsonable</text>
</a>
</g>
</g>
<!-- Node3&#45;&gt;Node2 -->
<g id="edge2_Node000002_Node000003" class="edge">
<title>Node3&#45;&gt;Node2</title>
<g id="a_edge2_Node000002_Node000003"><a xlink:title=" ">
<path fill="none" stroke="#63b8ff" d="M78.32,-110.42C77.83,-102.05 78.28,-92.75 79.67,-86.11"/>
<polygon fill="#63b8ff" stroke="#63b8ff" points="74.81,-110.59 79.52,-120.08 81.76,-109.72 74.81,-110.59"/>
</a>
</g>
</g>
<!-- Node3&#45;&gt;Node2 -->
<g id="edge5_Node000002_Node000003" class="edge">
<title>Node3&#45;&gt;Node2</title>
<g id="a_edge5_Node000002_Node000003"><a xlink:title=" ">
<path fill="none" stroke="#63b8ff" d="M91.43,-110.42C91.92,-102.05 91.47,-92.75 90.08,-86.11"/>
<polygon fill="#63b8ff" stroke="#63b8ff" points="87.99,-109.72 90.23,-120.08 94.94,-110.59 87.99,-109.72"/>
</a>
</g>
</g>
<!-- Node4 -->
<g id="Node000004" class="node">
<title>Node4</title>
<g id="a_Node000004"><a xlink:href="classdunedaq_1_1conffwk_1_1DalObject.html" target="_top" xlink:title="The base class for any generated DAL object.">
<polygon fill="white" stroke="#666666" points="154,-196.25 15.75,-196.25 15.75,-177 154,-177 154,-196.25"/>
<text text-anchor="middle" x="84.88" y="-182.75" font-family="Helvetica,sans-Serif" font-size="10.00">dunedaq::conffwk::DalObject</text>
</a>
</g>
</g>
<!-- Node4&#45;&gt;Node3 -->
<g id="edge3_Node000003_Node000004" class="edge">
<title>Node4&#45;&gt;Node3</title>
<g id="a_edge3_Node000003_Node000004"><a xlink:title=" ">
<path fill="none" stroke="#63b8ff" d="M78.32,-165.67C77.83,-157.3 78.28,-148 79.67,-141.36"/>
<polygon fill="#63b8ff" stroke="#63b8ff" points="74.81,-165.84 79.52,-175.33 81.76,-164.97 74.81,-165.84"/>
</a>
</g>
</g>
<!-- Node4&#45;&gt;Node3 -->
<g id="edge4_Node000003_Node000004" class="edge">
<title>Node4&#45;&gt;Node3</title>
<g id="a_edge4_Node000003_Node000004"><a xlink:title=" ">
<path fill="none" stroke="#63b8ff" d="M91.43,-165.67C91.92,-157.3 91.47,-148 90.08,-141.36"/>
<polygon fill="#63b8ff" stroke="#63b8ff" points="87.99,-164.97 90.23,-175.33 94.94,-165.84 87.99,-164.97"/>
</a>
</g>
</g>
</g>
</svg>
