<?xml version="1.0" encoding="UTF-8" standalone="no"?>
<!DOCTYPE svg PUBLIC "-//W3C//DTD SVG 1.1//EN"
 "http://www.w3.org/Graphics/SVG/1.1/DTD/svg11.dtd">
<!-- Generated by graphviz version 9.0.0 (20230911.1827)
 -->
<!-- Title: dunedaq::coredal::ReadoutInterface Pages: 1 -->
<svg width="320pt" height="381pt"
 viewBox="0.00 0.00 320.25 381.25" xmlns="http://www.w3.org/2000/svg" xmlns:xlink="http://www.w3.org/1999/xlink">
<g id="graph0" class="graph" transform="scale(1 1) rotate(0) translate(4 377.25)">
<title>dunedaq::coredal::ReadoutInterface</title>
<!-- Node1 -->
<g id="Node000001" class="node">
<title>Node1</title>
<g id="a_Node000001"><a xlink:title=" ">
<polygon fill="#999999" stroke="#666666" points="221,-85.75 91.75,-85.75 91.75,-55.25 221,-55.25 221,-85.75"/>
<text text-anchor="start" x="99.75" y="-72.25" font-family="Helvetica,sans-Serif" font-size="10.00">dunedaq::coredal::Readout</text>
<text text-anchor="middle" x="156.38" y="-61" font-family="Helvetica,sans-Serif" font-size="10.00">Interface</text>
</a>
</g>
</g>
<!-- Node7 -->
<g id="Node000007" class="node">
<title>Node7</title>
<g id="a_Node000007"><a xlink:href="classdunedaq_1_1appdal_1_1FelixInterface.html" target="_top" xlink:title=" ">
<polygon fill="white" stroke="#666666" points="148.75,-19.25 0,-19.25 0,0 148.75,0 148.75,-19.25"/>
<text text-anchor="middle" x="74.38" y="-5.75" font-family="Helvetica,sans-Serif" font-size="10.00">dunedaq::appdal::FelixInterface</text>
</a>
</g>
</g>
<!-- Node1&#45;&gt;Node7 -->
<g id="edge11_Node000001_Node000007" class="edge">
<title>Node1&#45;&gt;Node7</title>
<g id="a_edge11_Node000001_Node000007"><a xlink:title=" ">
<path fill="none" stroke="#63b8ff" d="M120.9,-48.69C106.46,-38.76 91.12,-27.41 81.98,-19.7"/>
<polygon fill="#63b8ff" stroke="#63b8ff" points="118.69,-51.41 128.93,-54.1 122.6,-45.61 118.69,-51.41"/>
</a>
</g>
</g>
<!-- Node1&#45;&gt;Node7 -->
<g id="edge12_Node000001_Node000007" class="edge">
<title>Node1&#45;&gt;Node7</title>
<g id="a_edge12_Node000001_Node000007"><a xlink:title=" ">
<path fill="none" stroke="#63b8ff" d="M133.11,-48.12C120.06,-38.33 104.14,-27.26 92.05,-19.7"/>
<polygon fill="#63b8ff" stroke="#63b8ff" points="130.75,-50.72 140.82,-54.03 135.01,-45.16 130.75,-50.72"/>
</a>
</g>
</g>
<!-- Node8 -->
<g id="Node000008" class="node">
<title>Node8</title>
<g id="a_Node000008"><a xlink:href="classdunedaq_1_1appdal_1_1NICInterface.html" target="_top" xlink:title=" ">
<polygon fill="white" stroke="#666666" points="312.25,-19.25 166.5,-19.25 166.5,0 312.25,0 312.25,-19.25"/>
<text text-anchor="middle" x="239.38" y="-5.75" font-family="Helvetica,sans-Serif" font-size="10.00">dunedaq::appdal::NICInterface</text>
</a>
</g>
</g>
<!-- Node1&#45;&gt;Node8 -->
<g id="edge13_Node000001_Node000008" class="edge">
<title>Node1&#45;&gt;Node8</title>
<g id="a_edge13_Node000001_Node000008"><a xlink:title=" ">
<path fill="none" stroke="#63b8ff" d="M180,-48.12C193.22,-38.33 209.32,-27.26 221.54,-19.7"/>
<polygon fill="#63b8ff" stroke="#63b8ff" points="178.04,-45.21 172.18,-54.03 182.27,-50.79 178.04,-45.21"/>
</a>
</g>
</g>
<!-- Node1&#45;&gt;Node8 -->
<g id="edge14_Node000001_Node000008" class="edge">
<title>Node1&#45;&gt;Node8</title>
<g id="a_edge14_Node000001_Node000008"><a xlink:title=" ">
<path fill="none" stroke="#63b8ff" d="M192.2,-48.69C206.82,-38.76 222.34,-27.41 231.62,-19.7"/>
<polygon fill="#63b8ff" stroke="#63b8ff" points="190.45,-45.65 184.07,-54.11 194.33,-51.48 190.45,-45.65"/>
</a>
</g>
</g>
<!-- Node2 -->
<g id="Node000002" class="node">
<title>Node2</title>
<g id="a_Node000002"><a xlink:href="classdunedaq_1_1coredal_1_1ResourceSetAND.html" target="_top" xlink:title=" ">
<polygon fill="white" stroke="#666666" points="223.62,-152.25 89.12,-152.25 89.12,-121.75 223.62,-121.75 223.62,-152.25"/>
<text text-anchor="start" x="97.12" y="-138.75" font-family="Helvetica,sans-Serif" font-size="10.00">dunedaq::coredal::Resource</text>
<text text-anchor="middle" x="156.38" y="-127.5" font-family="Helvetica,sans-Serif" font-size="10.00">SetAND</text>
</a>
</g>
</g>
<!-- Node2&#45;&gt;Node1 -->
<g id="edge1_Node000001_Node000002" class="edge">
<title>Node2&#45;&gt;Node1</title>
<g id="a_edge1_Node000001_Node000002"><a xlink:title=" ">
<path fill="none" stroke="#63b8ff" d="M149.74,-110.06C149.44,-101.89 149.73,-93.16 150.62,-86.08"/>
<polygon fill="#63b8ff" stroke="#63b8ff" points="146.24,-110.15 150.5,-119.85 153.22,-109.62 146.24,-110.15"/>
</a>
</g>
</g>
<!-- Node2&#45;&gt;Node1 -->
<g id="edge10_Node000001_Node000002" class="edge">
<title>Node2&#45;&gt;Node1</title>
<g id="a_edge10_Node000001_Node000002"><a xlink:title=" ">
<path fill="none" stroke="#63b8ff" d="M163.01,-110.06C163.31,-101.89 163.02,-93.16 162.13,-86.08"/>
<polygon fill="#63b8ff" stroke="#63b8ff" points="159.53,-109.62 162.25,-119.85 166.51,-110.15 159.53,-109.62"/>
</a>
</g>
</g>
<!-- Node3 -->
<g id="Node000003" class="node">
<title>Node3</title>
<g id="a_Node000003"><a xlink:href="classdunedaq_1_1coredal_1_1ResourceSet.html" target="_top" xlink:title=" ">
<polygon fill="white" stroke="#666666" points="231.12,-207.5 81.62,-207.5 81.62,-188.25 231.12,-188.25 231.12,-207.5"/>
<text text-anchor="middle" x="156.38" y="-194" font-family="Helvetica,sans-Serif" font-size="10.00">dunedaq::coredal::ResourceSet</text>
</a>
</g>
</g>
<!-- Node3&#45;&gt;Node2 -->
<g id="edge2_Node000002_Node000003" class="edge">
<title>Node3&#45;&gt;Node2</title>
<g id="a_edge2_Node000002_Node000003"><a xlink:title=" ">
<path fill="none" stroke="#63b8ff" d="M149.93,-176.67C149.39,-168.74 149.57,-159.81 150.46,-152.53"/>
<polygon fill="#63b8ff" stroke="#63b8ff" points="146.44,-176.95 151.17,-186.43 153.38,-176.07 146.44,-176.95"/>
</a>
</g>
</g>
<!-- Node3&#45;&gt;Node2 -->
<g id="edge9_Node000002_Node000003" class="edge">
<title>Node3&#45;&gt;Node2</title>
<g id="a_edge9_Node000002_Node000003"><a xlink:title=" ">
<path fill="none" stroke="#63b8ff" d="M162.82,-176.67C163.36,-168.74 163.18,-159.81 162.29,-152.53"/>
<polygon fill="#63b8ff" stroke="#63b8ff" points="159.37,-176.07 161.58,-186.43 166.31,-176.95 159.37,-176.07"/>
</a>
</g>
</g>
<!-- Node4 -->
<g id="Node000004" class="node">
<title>Node4</title>
<g id="a_Node000004"><a xlink:href="classdunedaq_1_1coredal_1_1ResourceBase.html" target="_top" xlink:title=" ">
<polygon fill="white" stroke="#666666" points="234.88,-262.75 77.88,-262.75 77.88,-243.5 234.88,-243.5 234.88,-262.75"/>
<text text-anchor="middle" x="156.38" y="-249.25" font-family="Helvetica,sans-Serif" font-size="10.00">dunedaq::coredal::ResourceBase</text>
</a>
</g>
</g>
<!-- Node4&#45;&gt;Node3 -->
<g id="edge3_Node000003_Node000004" class="edge">
<title>Node4&#45;&gt;Node3</title>
<g id="a_edge3_Node000003_Node000004"><a xlink:title=" ">
<path fill="none" stroke="#63b8ff" d="M149.82,-232.17C149.33,-223.8 149.78,-214.5 151.17,-207.86"/>
<polygon fill="#63b8ff" stroke="#63b8ff" points="146.31,-232.34 151.02,-241.83 153.26,-231.47 146.31,-232.34"/>
</a>
</g>
</g>
<!-- Node4&#45;&gt;Node3 -->
<g id="edge8_Node000003_Node000004" class="edge">
<title>Node4&#45;&gt;Node3</title>
<g id="a_edge8_Node000003_Node000004"><a xlink:title=" ">
<path fill="none" stroke="#63b8ff" d="M162.93,-232.17C163.42,-223.8 162.97,-214.5 161.58,-207.86"/>
<polygon fill="#63b8ff" stroke="#63b8ff" points="159.49,-231.47 161.73,-241.83 166.44,-232.34 159.49,-231.47"/>
</a>
</g>
</g>
<!-- Node5 -->
<g id="Node000005" class="node">
<title>Node5</title>
<g id="a_Node000005"><a xlink:href="classdunedaq_1_1coredal_1_1Component.html" target="_top" xlink:title=" ">
<polygon fill="white" stroke="#666666" points="227.75,-318 85,-318 85,-298.75 227.75,-298.75 227.75,-318"/>
<text text-anchor="middle" x="156.38" y="-304.5" font-family="Helvetica,sans-Serif" font-size="10.00">dunedaq::coredal::Component</text>
</a>
</g>
</g>
<!-- Node5&#45;&gt;Node4 -->
<g id="edge4_Node000004_Node000005" class="edge">
<title>Node5&#45;&gt;Node4</title>
<g id="a_edge4_Node000004_Node000005"><a xlink:title=" ">
<path fill="none" stroke="#63b8ff" d="M149.82,-287.42C149.33,-279.05 149.78,-269.75 151.17,-263.11"/>
<polygon fill="#63b8ff" stroke="#63b8ff" points="146.31,-287.59 151.02,-297.08 153.26,-286.72 146.31,-287.59"/>
</a>
</g>
</g>
<!-- Node5&#45;&gt;Node4 -->
<g id="edge7_Node000004_Node000005" class="edge">
<title>Node5&#45;&gt;Node4</title>
<g id="a_edge7_Node000004_Node000005"><a xlink:title=" ">
<path fill="none" stroke="#63b8ff" d="M162.93,-287.42C163.42,-279.05 162.97,-269.75 161.58,-263.11"/>
<polygon fill="#63b8ff" stroke="#63b8ff" points="159.49,-286.72 161.73,-297.08 166.44,-287.59 159.49,-286.72"/>
</a>
</g>
</g>
<!-- Node6 -->
<g id="Node000006" class="node">
<title>Node6</title>
<g id="a_Node000006"><a xlink:href="classdunedaq_1_1conffwk_1_1DalObject.html" target="_top" xlink:title="The base class for any generated DAL object.">
<polygon fill="white" stroke="#666666" points="225.5,-373.25 87.25,-373.25 87.25,-354 225.5,-354 225.5,-373.25"/>
<text text-anchor="middle" x="156.38" y="-359.75" font-family="Helvetica,sans-Serif" font-size="10.00">dunedaq::conffwk::DalObject</text>
</a>
</g>
</g>
<!-- Node6&#45;&gt;Node5 -->
<g id="edge5_Node000005_Node000006" class="edge">
<title>Node6&#45;&gt;Node5</title>
<g id="a_edge5_Node000005_Node000006"><a xlink:title=" ">
<path fill="none" stroke="#63b8ff" d="M149.82,-342.67C149.33,-334.3 149.78,-325 151.17,-318.36"/>
<polygon fill="#63b8ff" stroke="#63b8ff" points="146.31,-342.84 151.02,-352.33 153.26,-341.97 146.31,-342.84"/>
</a>
</g>
</g>
<!-- Node6&#45;&gt;Node5 -->
<g id="edge6_Node000005_Node000006" class="edge">
<title>Node6&#45;&gt;Node5</title>
<g id="a_edge6_Node000005_Node000006"><a xlink:title=" ">
<path fill="none" stroke="#63b8ff" d="M162.93,-342.67C163.42,-334.3 162.97,-325 161.58,-318.36"/>
<polygon fill="#63b8ff" stroke="#63b8ff" points="159.49,-341.97 161.73,-352.33 166.44,-342.84 159.49,-341.97"/>
</a>
</g>
</g>
</g>
</svg>
