<?xml version="1.0" encoding="UTF-8" standalone="no"?>
<!DOCTYPE svg PUBLIC "-//W3C//DTD SVG 1.1//EN"
 "http://www.w3.org/Graphics/SVG/1.1/DTD/svg11.dtd">
<!-- Generated by graphviz version 9.0.0 (20230911.1827)
 -->
<!-- Title: dunedaq::readoutlibs::RawDataProcessorConcept&lt; ReadoutType &gt; Pages: 1 -->
<svg width="595pt" height="600pt"
 viewBox="0.00 0.00 595.25 599.75" xmlns="http://www.w3.org/2000/svg" xmlns:xlink="http://www.w3.org/1999/xlink">
<g id="graph0" class="graph" transform="scale(1 1) rotate(0) translate(4 595.75)">
<title>dunedaq::readoutlibs::RawDataProcessorConcept&lt; ReadoutType &gt;</title>
<!-- Node1 -->
<g id="Node000001" class="node">
<title>Node1</title>
<g id="a_Node000001"><a xlink:title=" ">
<polygon fill="#999999" stroke="#666666" points="140.5,-311.75 0,-311.75 0,-270 140.5,-270 140.5,-311.75"/>
<text text-anchor="start" x="8" y="-298.25" font-family="Helvetica,sans-Serif" font-size="10.00">dunedaq::readoutlibs</text>
<text text-anchor="start" x="8" y="-287" font-family="Helvetica,sans-Serif" font-size="10.00">::RawDataProcessorConcept</text>
<text text-anchor="middle" x="70.25" y="-275.75" font-family="Helvetica,sans-Serif" font-size="10.00">&lt; ReadoutType &gt;</text>
</a>
</g>
</g>
<!-- Node2 -->
<g id="Node000002" class="node">
<title>Node2</title>
<g id="a_Node000002"><a xlink:href="classdunedaq_1_1readoutlibs_1_1TaskRawDataProcessorModel.html" target="_top" xlink:title=" ">
<polygon fill="white" stroke="#666666" points="386,-591.75 176.5,-591.75 176.5,-550 386,-550 386,-591.75"/>
<text text-anchor="start" x="184.5" y="-578.25" font-family="Helvetica,sans-Serif" font-size="10.00">dunedaq::readoutlibs</text>
<text text-anchor="start" x="184.5" y="-567" font-family="Helvetica,sans-Serif" font-size="10.00">::TaskRawDataProcessorModel</text>
<text text-anchor="middle" x="281.25" y="-555.75" font-family="Helvetica,sans-Serif" font-size="10.00">&lt; types::DAPHNESuperChunkTypeAdapter &gt;</text>
</a>
</g>
</g>
<!-- Node1&#45;&gt;Node2 -->
<g id="edge1_Node000001_Node000002" class="edge">
<title>Node1&#45;&gt;Node2</title>
<g id="a_edge1_Node000001_Node000002"><a xlink:title=" ">
<path fill="none" stroke="#63b8ff" d="M75.65,-323.12C84.67,-376.58 110.3,-483.44 176.5,-541.88 179.73,-544.72 183.21,-547.29 186.88,-549.61"/>
<polygon fill="#63b8ff" stroke="#63b8ff" points="79.14,-322.77 74.11,-313.45 72.22,-323.87 79.14,-322.77"/>
</a>
</g>
</g>
<!-- Node4 -->
<g id="Node000004" class="node">
<title>Node4</title>
<g id="a_Node000004"><a xlink:href="classdunedaq_1_1readoutlibs_1_1TaskRawDataProcessorModel.html" target="_top" xlink:title=" ">
<polygon fill="white" stroke="#666666" points="380.75,-532.38 181.75,-532.38 181.75,-479.38 380.75,-479.38 380.75,-532.38"/>
<text text-anchor="start" x="189.75" y="-518.88" font-family="Helvetica,sans-Serif" font-size="10.00">dunedaq::readoutlibs</text>
<text text-anchor="start" x="189.75" y="-507.62" font-family="Helvetica,sans-Serif" font-size="10.00">::TaskRawDataProcessorModel</text>
<text text-anchor="start" x="189.75" y="-496.38" font-family="Helvetica,sans-Serif" font-size="10.00">&lt; types::DAPHNEStreamSuperChunkType</text>
<text text-anchor="middle" x="281.25" y="-485.12" font-family="Helvetica,sans-Serif" font-size="10.00">Adapter &gt;</text>
</a>
</g>
</g>
<!-- Node1&#45;&gt;Node4 -->
<g id="edge3_Node000001_Node000004" class="edge">
<title>Node1&#45;&gt;Node4</title>
<g id="a_edge3_Node000001_Node000004"><a xlink:title=" ">
<path fill="none" stroke="#63b8ff" d="M81.99,-323.01C97,-363.15 127.99,-431.36 176.5,-470.88 180.18,-473.88 184.14,-476.63 188.28,-479.14"/>
<polygon fill="#63b8ff" stroke="#63b8ff" points="85.31,-321.87 78.61,-313.66 78.72,-324.25 85.31,-321.87"/>
</a>
</g>
</g>
<!-- Node6 -->
<g id="Node000006" class="node">
<title>Node6</title>
<g id="a_Node000006"><a xlink:href="classdunedaq_1_1readoutlibs_1_1TaskRawDataProcessorModel.html" target="_top" xlink:title=" ">
<polygon fill="white" stroke="#666666" points="362.75,-461.75 199.75,-461.75 199.75,-420 362.75,-420 362.75,-461.75"/>
<text text-anchor="start" x="207.75" y="-448.25" font-family="Helvetica,sans-Serif" font-size="10.00">dunedaq::readoutlibs</text>
<text text-anchor="start" x="207.75" y="-437" font-family="Helvetica,sans-Serif" font-size="10.00">::TaskRawDataProcessorModel</text>
<text text-anchor="middle" x="281.25" y="-425.75" font-family="Helvetica,sans-Serif" font-size="10.00">&lt; types::SSPFrameTypeAdapter &gt;</text>
</a>
</g>
</g>
<!-- Node1&#45;&gt;Node6 -->
<g id="edge5_Node000001_Node000006" class="edge">
<title>Node1&#45;&gt;Node6</title>
<g id="a_edge5_Node000001_Node000006"><a xlink:title=" ">
<path fill="none" stroke="#63b8ff" d="M90.55,-321.43C109.32,-348.72 140.26,-387.84 176.5,-410.88 183.62,-415.4 191.44,-419.26 199.5,-422.55"/>
<polygon fill="#63b8ff" stroke="#63b8ff" points="93.52,-319.57 85.05,-313.22 87.71,-323.47 93.52,-319.57"/>
</a>
</g>
</g>
<!-- Node8 -->
<g id="Node000008" class="node">
<title>Node8</title>
<g id="a_Node000008"><a xlink:href="classdunedaq_1_1readoutlibs_1_1TaskRawDataProcessorModel.html" target="_top" xlink:title=" ">
<polygon fill="white" stroke="#666666" points="362,-401.75 200.5,-401.75 200.5,-360 362,-360 362,-401.75"/>
<text text-anchor="start" x="208.5" y="-388.25" font-family="Helvetica,sans-Serif" font-size="10.00">dunedaq::readoutlibs</text>
<text text-anchor="start" x="208.5" y="-377" font-family="Helvetica,sans-Serif" font-size="10.00">::TaskRawDataProcessorModel</text>
<text text-anchor="middle" x="281.25" y="-365.75" font-family="Helvetica,sans-Serif" font-size="10.00">&lt; types::TDEFrameTypeAdapter &gt;</text>
</a>
</g>
</g>
<!-- Node1&#45;&gt;Node8 -->
<g id="edge7_Node000001_Node000008" class="edge">
<title>Node1&#45;&gt;Node8</title>
<g id="a_edge7_Node000001_Node000008"><a xlink:title=" ">
<path fill="none" stroke="#63b8ff" d="M113.58,-318.06C132.33,-329.29 154.99,-341.78 176.5,-350.88 184.1,-354.09 192.15,-357.08 200.28,-359.84"/>
<polygon fill="#63b8ff" stroke="#63b8ff" points="115.53,-315.15 105.16,-312.94 111.89,-321.13 115.53,-315.15"/>
</a>
</g>
</g>
<!-- Node10 -->
<g id="Node000010" class="node">
<title>Node10</title>
<g id="a_Node000010"><a xlink:href="classdunedaq_1_1readoutlibs_1_1TaskRawDataProcessorModel.html" target="_top" xlink:title=" ">
<polygon fill="white" stroke="#666666" points="369.12,-341.75 193.38,-341.75 193.38,-300 369.12,-300 369.12,-341.75"/>
<text text-anchor="start" x="201.38" y="-328.25" font-family="Helvetica,sans-Serif" font-size="10.00">dunedaq::readoutlibs</text>
<text text-anchor="start" x="201.38" y="-317" font-family="Helvetica,sans-Serif" font-size="10.00">::TaskRawDataProcessorModel</text>
<text text-anchor="middle" x="281.25" y="-305.75" font-family="Helvetica,sans-Serif" font-size="10.00">&lt; types::DUNEWIBEthTypeAdapter &gt;</text>
</a>
</g>
</g>
<!-- Node1&#45;&gt;Node10 -->
<g id="edge9_Node000001_Node000010" class="edge">
<title>Node1&#45;&gt;Node10</title>
<g id="a_edge9_Node000001_Node000010"><a xlink:title=" ">
<path fill="none" stroke="#63b8ff" d="M152,-302.47C165.47,-304.4 179.49,-306.41 193.11,-308.37"/>
<polygon fill="#63b8ff" stroke="#63b8ff" points="152.74,-299.04 142.34,-301.08 151.74,-305.97 152.74,-299.04"/>
</a>
</g>
</g>
<!-- Node12 -->
<g id="Node000012" class="node">
<title>Node12</title>
<g id="a_Node000012"><a xlink:href="classdunedaq_1_1readoutlibs_1_1TaskRawDataProcessorModel.html" target="_top" xlink:title=" ">
<polygon fill="white" stroke="#666666" points="364.25,-281.75 198.25,-281.75 198.25,-240 364.25,-240 364.25,-281.75"/>
<text text-anchor="start" x="206.25" y="-268.25" font-family="Helvetica,sans-Serif" font-size="10.00">dunedaq::readoutlibs</text>
<text text-anchor="start" x="206.25" y="-257" font-family="Helvetica,sans-Serif" font-size="10.00">::TaskRawDataProcessorModel</text>
<text text-anchor="middle" x="281.25" y="-245.75" font-family="Helvetica,sans-Serif" font-size="10.00">&lt; hsilibs::HSI_FRAME_STRUCT &gt;</text>
</a>
</g>
</g>
<!-- Node1&#45;&gt;Node12 -->
<g id="edge11_Node000001_Node000012" class="edge">
<title>Node1&#45;&gt;Node12</title>
<g id="a_edge11_Node000001_Node000012"><a xlink:title=" ">
<path fill="none" stroke="#63b8ff" d="M152.17,-279.26C167.17,-277.11 182.87,-274.85 197.91,-272.69"/>
<polygon fill="#63b8ff" stroke="#63b8ff" points="151.74,-275.78 142.34,-280.67 152.74,-282.71 151.74,-275.78"/>
</a>
</g>
</g>
<!-- Node14 -->
<g id="Node000014" class="node">
<title>Node14</title>
<g id="a_Node000014"><a xlink:href="classdunedaq_1_1readoutlibs_1_1TaskRawDataProcessorModel.html" target="_top" xlink:title=" ">
<polygon fill="white" stroke="#666666" points="357.5,-221.75 205,-221.75 205,-180 357.5,-180 357.5,-221.75"/>
<text text-anchor="start" x="213" y="-208.25" font-family="Helvetica,sans-Serif" font-size="10.00">dunedaq::readoutlibs</text>
<text text-anchor="start" x="213" y="-197" font-family="Helvetica,sans-Serif" font-size="10.00">::TaskRawDataProcessorModel</text>
<text text-anchor="middle" x="281.25" y="-185.75" font-family="Helvetica,sans-Serif" font-size="10.00">&lt; TAWrapper &gt;</text>
</a>
</g>
</g>
<!-- Node1&#45;&gt;Node14 -->
<g id="edge13_Node000001_Node000014" class="edge">
<title>Node1&#45;&gt;Node14</title>
<g id="a_edge13_Node000001_Node000014"><a xlink:title=" ">
<path fill="none" stroke="#63b8ff" d="M113.58,-263.69C132.33,-252.46 154.99,-239.97 176.5,-230.88 185.48,-227.08 195.09,-223.59 204.71,-220.43"/>
<polygon fill="#63b8ff" stroke="#63b8ff" points="111.89,-260.62 105.16,-268.81 115.53,-266.6 111.89,-260.62"/>
</a>
</g>
</g>
<!-- Node16 -->
<g id="Node000016" class="node">
<title>Node16</title>
<g id="a_Node000016"><a xlink:href="classdunedaq_1_1readoutlibs_1_1TaskRawDataProcessorModel.html" target="_top" xlink:title=" ">
<polygon fill="white" stroke="#666666" points="357.5,-161.75 205,-161.75 205,-120 357.5,-120 357.5,-161.75"/>
<text text-anchor="start" x="213" y="-148.25" font-family="Helvetica,sans-Serif" font-size="10.00">dunedaq::readoutlibs</text>
<text text-anchor="start" x="213" y="-137" font-family="Helvetica,sans-Serif" font-size="10.00">::TaskRawDataProcessorModel</text>
<text text-anchor="middle" x="281.25" y="-125.75" font-family="Helvetica,sans-Serif" font-size="10.00">&lt; TCWrapper &gt;</text>
</a>
</g>
</g>
<!-- Node1&#45;&gt;Node16 -->
<g id="edge15_Node000001_Node000016" class="edge">
<title>Node1&#45;&gt;Node16</title>
<g id="a_edge15_Node000001_Node000016"><a xlink:title=" ">
<path fill="none" stroke="#63b8ff" d="M90.55,-260.32C109.32,-233.03 140.26,-193.91 176.5,-170.88 185.12,-165.39 194.78,-160.89 204.63,-157.19"/>
<polygon fill="#63b8ff" stroke="#63b8ff" points="87.71,-258.28 85.05,-268.53 93.52,-262.18 87.71,-258.28"/>
</a>
</g>
</g>
<!-- Node18 -->
<g id="Node000018" class="node">
<title>Node18</title>
<g id="a_Node000018"><a xlink:href="classdunedaq_1_1readoutlibs_1_1TaskRawDataProcessorModel.html" target="_top" xlink:title=" ">
<polygon fill="white" stroke="#666666" points="359,-101.75 203.5,-101.75 203.5,-60 359,-60 359,-101.75"/>
<text text-anchor="start" x="211.5" y="-88.25" font-family="Helvetica,sans-Serif" font-size="10.00">dunedaq::readoutlibs</text>
<text text-anchor="start" x="211.5" y="-77" font-family="Helvetica,sans-Serif" font-size="10.00">::TaskRawDataProcessorModel</text>
<text text-anchor="middle" x="281.25" y="-65.75" font-family="Helvetica,sans-Serif" font-size="10.00">&lt; TriggerPrimitiveTypeAdapter &gt;</text>
</a>
</g>
</g>
<!-- Node1&#45;&gt;Node18 -->
<g id="edge17_Node000001_Node000018" class="edge">
<title>Node1&#45;&gt;Node18</title>
<g id="a_edge17_Node000001_Node000018"><a xlink:title=" ">
<path fill="none" stroke="#63b8ff" d="M81.61,-258.72C96.29,-218.27 127,-149.42 176.5,-110.88 184.41,-104.71 193.55,-99.81 203.06,-95.92"/>
<polygon fill="#63b8ff" stroke="#63b8ff" points="78.31,-257.55 78.31,-268.15 84.92,-259.87 78.31,-257.55"/>
</a>
</g>
</g>
<!-- Node20 -->
<g id="Node000020" class="node">
<title>Node20</title>
<g id="a_Node000020"><a xlink:href="classdunedaq_1_1readoutlibs_1_1TaskRawDataProcessorModel.html" target="_top" xlink:title=" ">
<polygon fill="white" stroke="#666666" points="357.5,-41.75 205,-41.75 205,0 357.5,0 357.5,-41.75"/>
<text text-anchor="start" x="213" y="-28.25" font-family="Helvetica,sans-Serif" font-size="10.00">dunedaq::readoutlibs</text>
<text text-anchor="start" x="213" y="-17" font-family="Helvetica,sans-Serif" font-size="10.00">::TaskRawDataProcessorModel</text>
<text text-anchor="middle" x="281.25" y="-5.75" font-family="Helvetica,sans-Serif" font-size="10.00">&lt; ReadoutType &gt;</text>
</a>
</g>
</g>
<!-- Node1&#45;&gt;Node20 -->
<g id="edge19_Node000001_Node000020" class="edge">
<title>Node1&#45;&gt;Node20</title>
<g id="a_edge19_Node000001_Node000020"><a xlink:title=" ">
<path fill="none" stroke="#63b8ff" d="M76.42,-258.6C86.4,-207.07 113.16,-106.37 176.5,-50.88 184.68,-43.71 194.48,-38.25 204.74,-34.09"/>
<polygon fill="#63b8ff" stroke="#63b8ff" points="73.02,-257.75 74.66,-268.22 79.91,-259.01 73.02,-257.75"/>
</a>
</g>
</g>
<!-- Node3 -->
<g id="Node000003" class="node">
<title>Node3</title>
<g id="a_Node000003"><a xlink:href="classdunedaq_1_1fdreadoutlibs_1_1DAPHNEFrameProcessor.html" target="_top" xlink:title=" ">
<polygon fill="white" stroke="#666666" points="571.5,-586.12 437.75,-586.12 437.75,-555.62 571.5,-555.62 571.5,-586.12"/>
<text text-anchor="start" x="445.75" y="-572.62" font-family="Helvetica,sans-Serif" font-size="10.00">dunedaq::fdreadoutlibs</text>
<text text-anchor="middle" x="504.62" y="-561.38" font-family="Helvetica,sans-Serif" font-size="10.00">::DAPHNEFrameProcessor</text>
</a>
</g>
</g>
<!-- Node2&#45;&gt;Node3 -->
<g id="edge2_Node000002_Node000003" class="edge">
<title>Node2&#45;&gt;Node3</title>
<g id="a_edge2_Node000002_Node000003"><a xlink:title=" ">
<path fill="none" stroke="#63b8ff" d="M397.88,-570.88C411.46,-570.88 424.95,-570.88 437.52,-570.88"/>
<polygon fill="#63b8ff" stroke="#63b8ff" points="397.97,-567.38 387.97,-570.88 397.97,-574.38 397.97,-567.38"/>
</a>
</g>
</g>
<!-- Node5 -->
<g id="Node000005" class="node">
<title>Node5</title>
<g id="a_Node000005"><a xlink:href="classdunedaq_1_1fdreadoutlibs_1_1DAPHNEStreamFrameProcessor.html" target="_top" xlink:title=" ">
<polygon fill="white" stroke="#666666" points="587.25,-521.12 422,-521.12 422,-490.62 587.25,-490.62 587.25,-521.12"/>
<text text-anchor="start" x="430" y="-507.62" font-family="Helvetica,sans-Serif" font-size="10.00">dunedaq::fdreadoutlibs</text>
<text text-anchor="middle" x="504.62" y="-496.38" font-family="Helvetica,sans-Serif" font-size="10.00">::DAPHNEStreamFrameProcessor</text>
</a>
</g>
</g>
<!-- Node4&#45;&gt;Node5 -->
<g id="edge4_Node000004_Node000005" class="edge">
<title>Node4&#45;&gt;Node5</title>
<g id="a_edge4_Node000004_Node000005"><a xlink:title=" ">
<path fill="none" stroke="#63b8ff" d="M392.16,-505.88C402.1,-505.88 412.04,-505.88 421.67,-505.88"/>
<polygon fill="#63b8ff" stroke="#63b8ff" points="392.47,-502.38 382.47,-505.88 392.47,-509.38 392.47,-502.38"/>
</a>
</g>
</g>
<!-- Node7 -->
<g id="Node000007" class="node">
<title>Node7</title>
<g id="a_Node000007"><a xlink:href="classdunedaq_1_1fdreadoutlibs_1_1SSPFrameProcessor.html" target="_top" xlink:title=" ">
<polygon fill="white" stroke="#666666" points="561,-456.12 448.25,-456.12 448.25,-425.62 561,-425.62 561,-456.12"/>
<text text-anchor="start" x="456.25" y="-442.62" font-family="Helvetica,sans-Serif" font-size="10.00">dunedaq::fdreadoutlibs</text>
<text text-anchor="middle" x="504.62" y="-431.38" font-family="Helvetica,sans-Serif" font-size="10.00">::SSPFrameProcessor</text>
</a>
</g>
</g>
<!-- Node6&#45;&gt;Node7 -->
<g id="edge6_Node000006_Node000007" class="edge">
<title>Node6&#45;&gt;Node7</title>
<g id="a_edge6_Node000006_Node000007"><a xlink:title=" ">
<path fill="none" stroke="#63b8ff" d="M374.46,-440.88C399.4,-440.88 425.63,-440.88 447.88,-440.88"/>
<polygon fill="#63b8ff" stroke="#63b8ff" points="374.62,-437.38 364.62,-440.88 374.62,-444.38 374.62,-437.38"/>
</a>
</g>
</g>
<!-- Node9 -->
<g id="Node000009" class="node">
<title>Node9</title>
<g id="a_Node000009"><a xlink:href="classdunedaq_1_1fdreadoutlibs_1_1TDEFrameProcessor.html" target="_top" xlink:title=" ">
<polygon fill="white" stroke="#666666" points="561,-396.12 448.25,-396.12 448.25,-365.62 561,-365.62 561,-396.12"/>
<text text-anchor="start" x="456.25" y="-382.62" font-family="Helvetica,sans-Serif" font-size="10.00">dunedaq::fdreadoutlibs</text>
<text text-anchor="middle" x="504.62" y="-371.38" font-family="Helvetica,sans-Serif" font-size="10.00">::TDEFrameProcessor</text>
</a>
</g>
</g>
<!-- Node8&#45;&gt;Node9 -->
<g id="edge8_Node000008_Node000009" class="edge">
<title>Node8&#45;&gt;Node9</title>
<g id="a_edge8_Node000008_Node000009"><a xlink:title=" ">
<path fill="none" stroke="#63b8ff" d="M373.91,-380.88C399.02,-380.88 425.48,-380.88 447.9,-380.88"/>
<polygon fill="#63b8ff" stroke="#63b8ff" points="374,-377.38 364,-380.88 374,-384.38 374,-377.38"/>
</a>
</g>
</g>
<!-- Node11 -->
<g id="Node000011" class="node">
<title>Node11</title>
<g id="a_Node000011"><a xlink:href="classdunedaq_1_1fdreadoutlibs_1_1WIBEthFrameProcessor.html" target="_top" xlink:title=" ">
<polygon fill="white" stroke="#666666" points="567.38,-336.12 441.88,-336.12 441.88,-305.62 567.38,-305.62 567.38,-336.12"/>
<text text-anchor="start" x="449.88" y="-322.62" font-family="Helvetica,sans-Serif" font-size="10.00">dunedaq::fdreadoutlibs</text>
<text text-anchor="middle" x="504.62" y="-311.38" font-family="Helvetica,sans-Serif" font-size="10.00">::WIBEthFrameProcessor</text>
</a>
</g>
</g>
<!-- Node10&#45;&gt;Node11 -->
<g id="edge10_Node000010_Node000011" class="edge">
<title>Node10&#45;&gt;Node11</title>
<g id="a_edge10_Node000010_Node000011"><a xlink:title=" ">
<path fill="none" stroke="#63b8ff" d="M380.81,-320.88C401.43,-320.88 422.63,-320.88 441.48,-320.88"/>
<polygon fill="#63b8ff" stroke="#63b8ff" points="380.94,-317.38 370.94,-320.88 380.94,-324.38 380.94,-317.38"/>
</a>
</g>
</g>
<!-- Node13 -->
<g id="Node000013" class="node">
<title>Node13</title>
<g id="a_Node000013"><a xlink:href="classdunedaq_1_1hsilibs_1_1HSIFrameProcessor.html" target="_top" xlink:title=" ">
<polygon fill="white" stroke="#666666" points="571.88,-276.12 437.38,-276.12 437.38,-245.62 571.88,-245.62 571.88,-276.12"/>
<text text-anchor="start" x="445.38" y="-262.62" font-family="Helvetica,sans-Serif" font-size="10.00">dunedaq::hsilibs::HSIFrame</text>
<text text-anchor="middle" x="504.62" y="-251.38" font-family="Helvetica,sans-Serif" font-size="10.00">Processor</text>
</a>
</g>
</g>
<!-- Node12&#45;&gt;Node13 -->
<g id="edge12_Node000012_Node000013" class="edge">
<title>Node12&#45;&gt;Node13</title>
<g id="a_edge12_Node000012_Node000013"><a xlink:title=" ">
<path fill="none" stroke="#63b8ff" d="M375.98,-260.88C396.5,-260.88 417.81,-260.88 437.01,-260.88"/>
<polygon fill="#63b8ff" stroke="#63b8ff" points="376.2,-257.38 366.2,-260.88 376.2,-264.38 376.2,-257.38"/>
</a>
</g>
</g>
<!-- Node15 -->
<g id="Node000015" class="node">
<title>Node15</title>
<g id="a_Node000015"><a xlink:href="classdunedaq_1_1trigger_1_1TAProcessor.html" target="_top" xlink:title=" ">
<polygon fill="white" stroke="#666666" points="577.5,-210.5 431.75,-210.5 431.75,-191.25 577.5,-191.25 577.5,-210.5"/>
<text text-anchor="middle" x="504.62" y="-197" font-family="Helvetica,sans-Serif" font-size="10.00">dunedaq::trigger::TAProcessor</text>
</a>
</g>
</g>
<!-- Node14&#45;&gt;Node15 -->
<g id="edge14_Node000014_Node000015" class="edge">
<title>Node14&#45;&gt;Node15</title>
<g id="a_edge14_Node000014_Node000015"><a xlink:title=" ">
<path fill="none" stroke="#63b8ff" d="M369.13,-200.88C389.74,-200.88 411.51,-200.88 431.39,-200.88"/>
<polygon fill="#63b8ff" stroke="#63b8ff" points="369.33,-197.38 359.33,-200.88 369.33,-204.38 369.33,-197.38"/>
</a>
</g>
</g>
<!-- Node17 -->
<g id="Node000017" class="node">
<title>Node17</title>
<g id="a_Node000017"><a xlink:href="classdunedaq_1_1trigger_1_1TCProcessor.html" target="_top" xlink:title=" ">
<polygon fill="white" stroke="#666666" points="577.5,-150.5 431.75,-150.5 431.75,-131.25 577.5,-131.25 577.5,-150.5"/>
<text text-anchor="middle" x="504.62" y="-137" font-family="Helvetica,sans-Serif" font-size="10.00">dunedaq::trigger::TCProcessor</text>
</a>
</g>
</g>
<!-- Node16&#45;&gt;Node17 -->
<g id="edge16_Node000016_Node000017" class="edge">
<title>Node16&#45;&gt;Node17</title>
<g id="a_edge16_Node000016_Node000017"><a xlink:title=" ">
<path fill="none" stroke="#63b8ff" d="M369.13,-140.88C389.74,-140.88 411.51,-140.88 431.39,-140.88"/>
<polygon fill="#63b8ff" stroke="#63b8ff" points="369.33,-137.38 359.33,-140.88 369.33,-144.38 369.33,-137.38"/>
</a>
</g>
</g>
<!-- Node19 -->
<g id="Node000019" class="node">
<title>Node19</title>
<g id="a_Node000019"><a xlink:href="classdunedaq_1_1trigger_1_1TPProcessor.html" target="_top" xlink:title=" ">
<polygon fill="white" stroke="#666666" points="577.5,-90.5 431.75,-90.5 431.75,-71.25 577.5,-71.25 577.5,-90.5"/>
<text text-anchor="middle" x="504.62" y="-77" font-family="Helvetica,sans-Serif" font-size="10.00">dunedaq::trigger::TPProcessor</text>
</a>
</g>
</g>
<!-- Node18&#45;&gt;Node19 -->
<g id="edge18_Node000018_Node000019" class="edge">
<title>Node18&#45;&gt;Node19</title>
<g id="a_edge18_Node000018_Node000019"><a xlink:title=" ">
<path fill="none" stroke="#63b8ff" d="M370.79,-80.88C390.98,-80.88 412.21,-80.88 431.61,-80.88"/>
<polygon fill="#63b8ff" stroke="#63b8ff" points="370.88,-77.38 360.88,-80.88 370.88,-84.38 370.88,-77.38"/>
</a>
</g>
</g>
</g>
</svg>
