<?xml version="1.0" encoding="UTF-8" standalone="no"?>
<!DOCTYPE svg PUBLIC "-//W3C//DTD SVG 1.1//EN"
 "http://www.w3.org/Graphics/SVG/1.1/DTD/svg11.dtd">
<!-- Generated by graphviz version 9.0.0 (20230911.1827)
 -->
<!-- Title: dunedaq::appdal::DataReader Pages: 1 -->
<svg width="683pt" height="125pt"
 viewBox="0.00 0.00 683.25 124.88" xmlns="http://www.w3.org/2000/svg" xmlns:xlink="http://www.w3.org/1999/xlink">
<g id="graph0" class="graph" transform="scale(1 1) rotate(0) translate(4 120.88)">
<title>dunedaq::appdal::DataReader</title>
<!-- Node1 -->
<g id="Node000001" class="node">
<title>Node1</title>
<g id="a_Node000001"><a xlink:title=" ">
<polygon fill="#999999" stroke="#666666" points="493.5,-62.25 352.25,-62.25 352.25,-43 493.5,-43 493.5,-62.25"/>
<text text-anchor="middle" x="422.88" y="-48.75" font-family="Helvetica,sans-Serif" font-size="10.00">dunedaq::appdal::DataReader</text>
</a>
</g>
</g>
<!-- Node4 -->
<g id="Node000004" class="node">
<title>Node4</title>
<g id="a_Node000004"><a xlink:href="classdunedaq_1_1appdal_1_1FDFakeCardReader.html" target="_top" xlink:title=" ">
<polygon fill="white" stroke="#666666" points="674.88,-116.88 529.88,-116.88 529.88,-86.38 674.88,-86.38 674.88,-116.88"/>
<text text-anchor="start" x="537.88" y="-103.38" font-family="Helvetica,sans-Serif" font-size="10.00">dunedaq::appdal::FDFakeCard</text>
<text text-anchor="middle" x="602.38" y="-92.12" font-family="Helvetica,sans-Serif" font-size="10.00">Reader</text>
</a>
</g>
</g>
<!-- Node1&#45;&gt;Node4 -->
<g id="edge5_Node000001_Node000004" class="edge">
<title>Node1&#45;&gt;Node4</title>
<g id="a_edge5_Node000001_Node000004"><a xlink:title=" ">
<path fill="none" stroke="#63b8ff" d="M494.37,-65.47C518.44,-71.77 544.38,-79.27 564.69,-85.91"/>
<polygon fill="#63b8ff" stroke="#63b8ff" points="495.5,-62.14 484.94,-63.04 493.75,-68.92 495.5,-62.14"/>
</a>
</g>
</g>
<!-- Node1&#45;&gt;Node4 -->
<g id="edge6_Node000001_Node000004" class="edge">
<title>Node1&#45;&gt;Node4</title>
<g id="a_edge6_Node000001_Node000004"><a xlink:title=" ">
<path fill="none" stroke="#63b8ff" d="M454.89,-66.46C475.53,-73.41 503.54,-81.6 529.53,-88.43"/>
<polygon fill="#63b8ff" stroke="#63b8ff" points="456.26,-63.23 445.67,-63.24 453.95,-69.84 456.26,-63.23"/>
</a>
</g>
</g>
<!-- Node5 -->
<g id="Node000005" class="node">
<title>Node5</title>
<g id="a_Node000005"><a xlink:href="classdunedaq_1_1appdal_1_1FelixCardReader.html" target="_top" xlink:title=" ">
<polygon fill="white" stroke="#666666" points="667.75,-67.88 537,-67.88 537,-37.38 667.75,-37.38 667.75,-67.88"/>
<text text-anchor="start" x="545" y="-54.38" font-family="Helvetica,sans-Serif" font-size="10.00">dunedaq::appdal::FelixCard</text>
<text text-anchor="middle" x="602.38" y="-43.12" font-family="Helvetica,sans-Serif" font-size="10.00">Reader</text>
</a>
</g>
</g>
<!-- Node1&#45;&gt;Node5 -->
<g id="edge7_Node000001_Node000005" class="edge">
<title>Node1&#45;&gt;Node5</title>
<g id="a_edge7_Node000001_Node000005"><a xlink:title=" ">
<path fill="none" stroke="#63b8ff" d="M505.17,-45.9C515.76,-45.84 526.48,-45.9 536.75,-46.1"/>
<polygon fill="#63b8ff" stroke="#63b8ff" points="505.25,-42.4 495.29,-46 505.32,-49.39 505.25,-42.4"/>
</a>
</g>
</g>
<!-- Node1&#45;&gt;Node5 -->
<g id="edge8_Node000001_Node000005" class="edge">
<title>Node1&#45;&gt;Node5</title>
<g id="a_edge8_Node000001_Node000005"><a xlink:title=" ">
<path fill="none" stroke="#63b8ff" d="M505.17,-59.35C515.76,-59.41 526.48,-59.35 536.75,-59.15"/>
<polygon fill="#63b8ff" stroke="#63b8ff" points="505.32,-55.86 495.29,-59.25 505.25,-62.85 505.32,-55.86"/>
</a>
</g>
</g>
<!-- Node6 -->
<g id="Node000006" class="node">
<title>Node6</title>
<g id="a_Node000006"><a xlink:href="classdunedaq_1_1appdal_1_1NICReceiver.html" target="_top" xlink:title=" ">
<polygon fill="white" stroke="#666666" points="675.25,-19.25 529.5,-19.25 529.5,0 675.25,0 675.25,-19.25"/>
<text text-anchor="middle" x="602.38" y="-5.75" font-family="Helvetica,sans-Serif" font-size="10.00">dunedaq::appdal::NICReceiver</text>
</a>
</g>
</g>
<!-- Node1&#45;&gt;Node6 -->
<g id="edge9_Node000001_Node000006" class="edge">
<title>Node1&#45;&gt;Node6</title>
<g id="a_edge9_Node000001_Node000006"><a xlink:title=" ">
<path fill="none" stroke="#63b8ff" d="M457.34,-39.1C478.5,-32.79 506.63,-25.58 532.42,-19.73"/>
<polygon fill="#63b8ff" stroke="#63b8ff" points="456.32,-35.75 447.8,-42.06 458.39,-42.44 456.32,-35.75"/>
</a>
</g>
</g>
<!-- Node1&#45;&gt;Node6 -->
<g id="edge10_Node000001_Node000006" class="edge">
<title>Node1&#45;&gt;Node6</title>
<g id="a_edge10_Node000001_Node000006"><a xlink:title=" ">
<path fill="none" stroke="#63b8ff" d="M503.62,-40.02C531.14,-33.55 559.81,-25.92 578.93,-19.73"/>
<polygon fill="#63b8ff" stroke="#63b8ff" points="503.19,-36.53 494.23,-42.2 504.76,-43.35 503.19,-36.53"/>
</a>
</g>
</g>
<!-- Node2 -->
<g id="Node000002" class="node">
<title>Node2</title>
<g id="a_Node000002"><a xlink:href="classdunedaq_1_1coredal_1_1DaqModule.html" target="_top" xlink:title=" ">
<polygon fill="white" stroke="#666666" points="316.25,-62.25 174.25,-62.25 174.25,-43 316.25,-43 316.25,-62.25"/>
<text text-anchor="middle" x="245.25" y="-48.75" font-family="Helvetica,sans-Serif" font-size="10.00">dunedaq::coredal::DaqModule</text>
</a>
</g>
</g>
<!-- Node2&#45;&gt;Node1 -->
<g id="edge1_Node000001_Node000002" class="edge">
<title>Node2&#45;&gt;Node1</title>
<g id="a_edge1_Node000001_Node000002"><a xlink:title=" ">
<path fill="none" stroke="#63b8ff" d="M327.96,-45.89C336,-45.85 344.11,-45.89 352.01,-46"/>
<polygon fill="#63b8ff" stroke="#63b8ff" points="328.15,-42.39 318.18,-45.98 328.22,-49.39 328.15,-42.39"/>
</a>
</g>
</g>
<!-- Node2&#45;&gt;Node1 -->
<g id="edge4_Node000001_Node000002" class="edge">
<title>Node2&#45;&gt;Node1</title>
<g id="a_edge4_Node000001_Node000002"><a xlink:title=" ">
<path fill="none" stroke="#63b8ff" d="M327.96,-59.36C336,-59.4 344.11,-59.36 352.01,-59.25"/>
<polygon fill="#63b8ff" stroke="#63b8ff" points="328.22,-55.86 318.18,-59.27 328.15,-62.86 328.22,-55.86"/>
</a>
</g>
</g>
<!-- Node3 -->
<g id="Node000003" class="node">
<title>Node3</title>
<g id="a_Node000003"><a xlink:href="classdunedaq_1_1conffwk_1_1DalObject.html" target="_top" xlink:title="The base class for any generated DAL object.">
<polygon fill="white" stroke="#666666" points="138.25,-62.25 0,-62.25 0,-43 138.25,-43 138.25,-62.25"/>
<text text-anchor="middle" x="69.12" y="-48.75" font-family="Helvetica,sans-Serif" font-size="10.00">dunedaq::conffwk::DalObject</text>
</a>
</g>
</g>
<!-- Node3&#45;&gt;Node2 -->
<g id="edge2_Node000002_Node000003" class="edge">
<title>Node3&#45;&gt;Node2</title>
<g id="a_edge2_Node000002_Node000003"><a xlink:title=" ">
<path fill="none" stroke="#63b8ff" d="M149.73,-45.9C157.77,-45.85 165.9,-45.88 173.84,-45.99"/>
<polygon fill="#63b8ff" stroke="#63b8ff" points="149.92,-42.39 139.96,-46 149.99,-49.39 149.92,-42.39"/>
</a>
</g>
</g>
<!-- Node3&#45;&gt;Node2 -->
<g id="edge3_Node000002_Node000003" class="edge">
<title>Node3&#45;&gt;Node2</title>
<g id="a_edge3_Node000002_Node000003"><a xlink:title=" ">
<path fill="none" stroke="#63b8ff" d="M149.73,-59.35C157.77,-59.4 165.9,-59.37 173.84,-59.26"/>
<polygon fill="#63b8ff" stroke="#63b8ff" points="149.99,-55.86 139.96,-59.25 149.92,-62.86 149.99,-55.86"/>
</a>
</g>
</g>
</g>
</svg>
