<?xml version="1.0" encoding="UTF-8" standalone="no"?>
<!DOCTYPE svg PUBLIC "-//W3C//DTD SVG 1.1//EN"
 "http://www.w3.org/Graphics/SVG/1.1/DTD/svg11.dtd">
<!-- Generated by graphviz version 9.0.0 (20230911.1827)
 -->
<!-- Title: dbse::SchemaBrokenGraphicArrow Pages: 1 -->
<svg width="779pt" height="606pt"
 viewBox="0.00 0.00 778.88 606.25" xmlns="http://www.w3.org/2000/svg" xmlns:xlink="http://www.w3.org/1999/xlink">
<g id="graph0" class="graph" transform="scale(1 1) rotate(0) translate(4 602.25)">
<title>dbse::SchemaBrokenGraphicArrow</title>
<!-- Node1 -->
<g id="Node000001" class="node">
<title>Node1</title>
<g id="a_Node000001"><a xlink:title=" ">
<polygon fill="#999999" stroke="#666666" points="215.88,-286.25 73.88,-286.25 73.88,-255.75 215.88,-255.75 215.88,-286.25"/>
<text text-anchor="start" x="81.88" y="-272.75" font-family="Helvetica,sans-Serif" font-size="10.00">dbse::SchemaBrokenGraphic</text>
<text text-anchor="middle" x="144.88" y="-261.5" font-family="Helvetica,sans-Serif" font-size="10.00">Arrow</text>
</a>
</g>
</g>
<!-- Node2 -->
<g id="Node000002" class="node">
<title>Node2</title>
<g id="a_Node000002"><a xlink:title=" ">
<polygon fill="white" stroke="#666666" points="258.25,-369.62 157.5,-369.62 157.5,-350.38 258.25,-350.38 258.25,-369.62"/>
<text text-anchor="middle" x="207.88" y="-356.12" font-family="Helvetica,sans-Serif" font-size="10.00">QGraphicsLineItem</text>
</a>
</g>
</g>
<!-- Node2&#45;&gt;Node1 -->
<g id="edge1_Node000001_Node000002" class="edge">
<title>Node2&#45;&gt;Node1</title>
<g id="a_edge1_Node000001_Node000002"><a xlink:title=" ">
<path fill="none" stroke="#63b8ff" d="M194.88,-341.05C183.2,-324.93 166.26,-301.54 155.41,-286.55"/>
<polygon fill="#63b8ff" stroke="#63b8ff" points="191.78,-342.74 200.48,-348.79 197.45,-338.64 191.78,-342.74"/>
</a>
</g>
</g>
<!-- Node3 -->
<g id="Node000003" class="node">
<title>Node3</title>
<g id="a_Node000003"><a xlink:href="classdbse_1_1SchemaGraphicObject.html" target="_top" xlink:title=" ">
<polygon fill="white" stroke="#666666" points="139.75,-369.62 0,-369.62 0,-350.38 139.75,-350.38 139.75,-369.62"/>
<text text-anchor="middle" x="69.88" y="-356.12" font-family="Helvetica,sans-Serif" font-size="10.00">dbse::SchemaGraphicObject</text>
</a>
</g>
</g>
<!-- Node3&#45;&gt;Node1 -->
<g id="edge2_Node000001_Node000003" class="edge">
<title>Node3&#45;&gt;Node1</title>
<g id="a_edge2_Node000001_Node000003"><a xlink:title=" ">
<path fill="none" stroke="#9a32cd" stroke-dasharray="5,2" d="M81.51,-340.57C88.81,-329.57 98.74,-315.59 108.88,-304.25 114.36,-298.12 120.92,-291.96 126.93,-286.69"/>
<polygon fill="#9a32cd" stroke="#9a32cd" points="78.71,-338.45 76.22,-348.75 84.59,-342.26 78.71,-338.45"/>
</a>
</g>
<text text-anchor="middle" x="137.38" y="-317.25" font-family="Helvetica,sans-Serif" font-size="10.00" fill="grey"> m_end_item</text>
<text text-anchor="middle" x="137.38" y="-306" font-family="Helvetica,sans-Serif" font-size="10.00" fill="grey">m_start_item</text>
</g>
<!-- Node4 -->
<g id="Node000004" class="node">
<title>Node4</title>
<g id="a_Node000004"><a xlink:title=" ">
<polygon fill="white" stroke="#666666" points="115.38,-464.25 24.38,-464.25 24.38,-445 115.38,-445 115.38,-464.25"/>
<text text-anchor="middle" x="69.88" y="-450.75" font-family="Helvetica,sans-Serif" font-size="10.00">QGraphicsObject</text>
</a>
</g>
</g>
<!-- Node4&#45;&gt;Node3 -->
<g id="edge3_Node000003_Node000004" class="edge">
<title>Node4&#45;&gt;Node3</title>
<g id="a_edge3_Node000003_Node000004"><a xlink:title=" ">
<path fill="none" stroke="#63b8ff" d="M69.88,-433.37C69.88,-413.64 69.88,-384.55 69.88,-369.99"/>
<polygon fill="#63b8ff" stroke="#63b8ff" points="66.38,-433.23 69.88,-443.23 73.38,-433.23 66.38,-433.23"/>
</a>
</g>
</g>
<!-- Node5 -->
<g id="Node000005" class="node">
<title>Node5</title>
<g id="a_Node000005"><a xlink:href="classdunedaq_1_1oks_1_1OksClass.html" target="_top" xlink:title="The OKS class.">
<polygon fill="white" stroke="#666666" points="505,-464.25 384.75,-464.25 384.75,-445 505,-445 505,-464.25"/>
<text text-anchor="middle" x="444.88" y="-450.75" font-family="Helvetica,sans-Serif" font-size="10.00">dunedaq::oks::OksClass</text>
</a>
</g>
</g>
<!-- Node5&#45;&gt;Node3 -->
<g id="edge4_Node000003_Node000005" class="edge">
<title>Node5&#45;&gt;Node3</title>
<g id="a_edge4_Node000003_Node000005"><a xlink:title=" ">
<path fill="none" stroke="#9a32cd" stroke-dasharray="5,2" d="M373.26,-451.38C326.57,-448.47 264.74,-441.88 211.88,-427 163.2,-413.3 110.3,-384.67 85,-370.03"/>
<polygon fill="#9a32cd" stroke="#9a32cd" points="372.78,-454.86 382.97,-451.94 373.19,-447.87 372.78,-454.86"/>
</a>
</g>
<text text-anchor="middle" x="241.88" y="-406.25" font-family="Helvetica,sans-Serif" font-size="10.00" fill="grey"> m_class_info</text>
</g>
<!-- Node13 -->
<g id="Node000013" class="node">
<title>Node13</title>
<g id="a_Node000013"><a xlink:href="uniondunedaq_1_1oks_1_1OksData_1_1Data.html" target="_top" xlink:title=" ">
<polygon fill="white" stroke="#666666" points="667.75,-375.25 552,-375.25 552,-344.75 667.75,-344.75 667.75,-375.25"/>
<text text-anchor="start" x="560" y="-361.75" font-family="Helvetica,sans-Serif" font-size="10.00">dunedaq::oks::OksData</text>
<text text-anchor="middle" x="609.88" y="-350.5" font-family="Helvetica,sans-Serif" font-size="10.00">::Data</text>
</a>
</g>
</g>
<!-- Node5&#45;&gt;Node13 -->
<g id="edge15_Node000013_Node000005" class="edge">
<title>Node5&#45;&gt;Node13</title>
<g id="a_edge15_Node000013_Node000005"><a xlink:title=" ">
<path fill="none" stroke="#9a32cd" stroke-dasharray="5,2" d="M471,-438.96C501.85,-421.64 552.84,-393.02 583.71,-375.69"/>
<polygon fill="#9a32cd" stroke="#9a32cd" points="469.32,-435.89 462.32,-443.83 472.75,-441.99 469.32,-435.89"/>
</a>
</g>
<text text-anchor="middle" x="568.88" y="-411.88" font-family="Helvetica,sans-Serif" font-size="10.00" fill="grey"> CLASS</text>
<text text-anchor="middle" x="568.88" y="-400.62" font-family="Helvetica,sans-Serif" font-size="10.00" fill="grey">class_id</text>
</g>
<!-- Node6 -->
<g id="Node000006" class="node">
<title>Node6</title>
<g id="a_Node000006"><a xlink:href="classdunedaq_1_1oks_1_1OksFile.html" target="_top" xlink:title="Provides interface to the OKS XML schema and data files.">
<polygon fill="white" stroke="#666666" points="548.5,-19.25 437.25,-19.25 437.25,0 548.5,0 548.5,-19.25"/>
<text text-anchor="middle" x="492.88" y="-5.75" font-family="Helvetica,sans-Serif" font-size="10.00">dunedaq::oks::OksFile</text>
</a>
</g>
</g>
<!-- Node6&#45;&gt;Node5 -->
<g id="edge5_Node000005_Node000006" class="edge">
<title>Node6&#45;&gt;Node5</title>
<g id="a_edge5_Node000005_Node000006"><a xlink:title=" ">
<path fill="none" stroke="#9a32cd" stroke-dasharray="5,2" d="M426.35,-21.88C365.82,-34.07 285.88,-55.93 285.88,-86.38 285.88,-361 285.88,-361 285.88,-361 285.88,-410.04 343.04,-433.57 388.82,-444.55"/>
<polygon fill="#9a32cd" stroke="#9a32cd" points="426.78,-25.37 435.92,-20.01 425.43,-18.5 426.78,-25.37"/>
</a>
</g>
<text text-anchor="middle" x="298.25" y="-228.25" font-family="Helvetica,sans-Serif" font-size="10.00" fill="grey"> p_file</text>
</g>
<!-- Node6&#45;&gt;Node6 -->
<g id="edge6_Node000006_Node000006" class="edge">
<title>Node6&#45;&gt;Node6</title>
<g id="a_edge6_Node000006_Node000006"><a xlink:title=" ">
<path fill="none" stroke="#9a32cd" stroke-dasharray="5,2" d="M559.96,-14.69C564.05,-13.48 566.5,-11.8 566.5,-9.62 566.5,-5.87 559.16,-3.56 548.74,-2.71"/>
<polygon fill="#9a32cd" stroke="#9a32cd" points="559.53,-11.21 550.23,-16.29 560.67,-18.12 559.53,-11.21"/>
</a>
</g>
<text text-anchor="middle" x="598.38" y="-5.75" font-family="Helvetica,sans-Serif" font-size="10.00" fill="grey"> p_included_by</text>
</g>
<!-- Node7 -->
<g id="Node000007" class="node">
<title>Node7</title>
<g id="a_Node000007"><a xlink:href="classdunedaq_1_1oks_1_1OksKernel.html" target="_top" xlink:title="Provides interface to the OKS kernel.">
<polygon fill="white" stroke="#666666" points="554.5,-97 431.25,-97 431.25,-77.75 554.5,-77.75 554.5,-97"/>
<text text-anchor="middle" x="492.88" y="-83.5" font-family="Helvetica,sans-Serif" font-size="10.00">dunedaq::oks::OksKernel</text>
</a>
</g>
</g>
<!-- Node6&#45;&gt;Node7 -->
<g id="edge8_Node000007_Node000006" class="edge">
<title>Node6&#45;&gt;Node7</title>
<g id="a_edge8_Node000007_Node000006"><a xlink:title=" ">
<path fill="none" stroke="#9a32cd" stroke-dasharray="5,2" d="M500.29,-30.22C500.94,-32.56 501.49,-34.94 501.88,-37.25 503.5,-47.12 503.5,-49.88 501.88,-59.75 500.86,-65.91 498.61,-72.57 496.61,-77.68"/>
<polygon fill="#9a32cd" stroke="#9a32cd" points="503.61,-29.11 497.1,-20.75 496.98,-31.34 503.61,-29.11"/>
</a>
</g>
<text text-anchor="middle" x="542.12" y="-50.25" font-family="Helvetica,sans-Serif" font-size="10.00" fill="grey"> p_active_data</text>
<text text-anchor="middle" x="542.12" y="-39" font-family="Helvetica,sans-Serif" font-size="10.00" fill="grey">p_active_schema</text>
</g>
<!-- Node10 -->
<g id="Node000010" class="node">
<title>Node10</title>
<g id="a_Node000010"><a xlink:href="classdunedaq_1_1oks_1_1OksObject.html" target="_top" xlink:title="OksObject describes instance of OksClass.">
<polygon fill="white" stroke="#666666" points="761.88,-208.5 637.88,-208.5 637.88,-189.25 761.88,-189.25 761.88,-208.5"/>
<text text-anchor="middle" x="699.88" y="-195" font-family="Helvetica,sans-Serif" font-size="10.00">dunedaq::oks::OksObject</text>
</a>
</g>
</g>
<!-- Node6&#45;&gt;Node10 -->
<g id="edge20_Node000010_Node000006" class="edge">
<title>Node6&#45;&gt;Node10</title>
<g id="a_edge20_Node000010_Node000006"><a xlink:title=" ">
<path fill="none" stroke="#9a32cd" stroke-dasharray="5,2" d="M544.91,-22.86C590.96,-36.73 655.43,-64.32 685.88,-115 700.15,-138.76 700.95,-172.9 700.41,-188.93"/>
<polygon fill="#9a32cd" stroke="#9a32cd" points="545.96,-19.52 535.38,-20.12 544.03,-26.24 545.96,-19.52"/>
</a>
</g>
<text text-anchor="middle" x="679" y="-83.5" font-family="Helvetica,sans-Serif" font-size="10.00" fill="grey"> file</text>
</g>
<!-- Node7&#45;&gt;Node5 -->
<g id="edge21_Node000005_Node000007" class="edge">
<title>Node7&#45;&gt;Node5</title>
<g id="a_edge21_Node000005_Node000007"><a xlink:title=" ">
<path fill="none" stroke="#9a32cd" stroke-dasharray="5,2" d="M485.01,-107.95C477.04,-129.59 465.88,-165.64 465.88,-197.88 465.88,-361 465.88,-361 465.88,-361 465.88,-392.33 454.31,-428.18 448.34,-444.58"/>
<polygon fill="#9a32cd" stroke="#9a32cd" points="488.25,-109.28 488.58,-98.69 481.72,-106.76 488.25,-109.28"/>
</a>
</g>
<text text-anchor="middle" x="485.38" y="-267.12" font-family="Helvetica,sans-Serif" font-size="10.00" fill="grey"> p_kernel</text>
</g>
<!-- Node7&#45;&gt;Node6 -->
<g id="edge7_Node000006_Node000007" class="edge">
<title>Node7&#45;&gt;Node6</title>
<g id="a_edge7_Node000006_Node000007"><a xlink:title=" ">
<path fill="none" stroke="#9a32cd" stroke-dasharray="5,2" d="M469.73,-69.8C466.96,-66.79 464.52,-63.42 462.88,-59.75 458.77,-50.63 458.77,-46.37 462.88,-37.25 466.07,-30.14 472.21,-24.15 478.11,-19.67"/>
<polygon fill="#9a32cd" stroke="#9a32cd" points="467.21,-72.24 476.99,-76.32 471.89,-67.03 467.21,-72.24"/>
</a>
</g>
<text text-anchor="middle" x="482.38" y="-44.62" font-family="Helvetica,sans-Serif" font-size="10.00" fill="grey"> p_kernel</text>
</g>
<!-- Node8 -->
<g id="Node000008" class="node">
<title>Node8</title>
<g id="a_Node000008"><a xlink:href="classdunedaq_1_1oks_1_1OksProfiler.html" target="_top" xlink:title=" ">
<polygon fill="white" stroke="#666666" points="619.62,-208.5 494.12,-208.5 494.12,-189.25 619.62,-189.25 619.62,-208.5"/>
<text text-anchor="middle" x="556.88" y="-195" font-family="Helvetica,sans-Serif" font-size="10.00">dunedaq::oks::OksProfiler</text>
</a>
</g>
</g>
<!-- Node8&#45;&gt;Node7 -->
<g id="edge9_Node000007_Node000008" class="edge">
<title>Node8&#45;&gt;Node7</title>
<g id="a_edge9_Node000007_Node000008"><a xlink:title=" ">
<path fill="none" stroke="#9a32cd" stroke-dasharray="5,2" d="M532.4,-182.07C528.6,-178.83 524.99,-175.19 522.12,-171.25 505.09,-147.79 497.23,-113.5 494.31,-97.38"/>
<polygon fill="#9a32cd" stroke="#9a32cd" points="530.07,-184.7 540.15,-187.94 534.3,-179.12 530.07,-184.7"/>
</a>
</g>
<text text-anchor="middle" x="537.25" y="-139.25" font-family="Helvetica,sans-Serif" font-size="10.00" fill="grey"> profiler</text>
</g>
<!-- Node9 -->
<g id="Node000009" class="node">
<title>Node9</title>
<g id="a_Node000009"><a xlink:href="structdunedaq_1_1oks_1_1LoadErrors.html" target="_top" xlink:title=" ">
<polygon fill="white" stroke="#666666" points="438.25,-208.5 313.5,-208.5 313.5,-189.25 438.25,-189.25 438.25,-208.5"/>
<text text-anchor="middle" x="375.88" y="-195" font-family="Helvetica,sans-Serif" font-size="10.00">dunedaq::oks::LoadErrors</text>
</a>
</g>
</g>
<!-- Node9&#45;&gt;Node7 -->
<g id="edge10_Node000007_Node000009" class="edge">
<title>Node9&#45;&gt;Node7</title>
<g id="a_edge10_Node000007_Node000009"><a xlink:title=" ">
<path fill="none" stroke="#9a32cd" stroke-dasharray="5,2" d="M373.93,-177.47C373.33,-158.84 375.59,-131.72 391.12,-115 401.56,-103.76 416.11,-97.03 430.94,-93.06"/>
<polygon fill="#9a32cd" stroke="#9a32cd" points="370.42,-177.53 374.57,-187.27 377.41,-177.07 370.42,-177.53"/>
</a>
</g>
<text text-anchor="middle" x="422.25" y="-139.25" font-family="Helvetica,sans-Serif" font-size="10.00" fill="grey"> p_load_errors</text>
</g>
<!-- Node10&#45;&gt;Node7 -->
<g id="edge11_Node000007_Node000010" class="edge">
<title>Node10&#45;&gt;Node7</title>
<g id="a_edge11_Node000007_Node000010"><a xlink:title=" ">
<path fill="none" stroke="#9a32cd" stroke-dasharray="5,2" d="M626.3,-188.02C604.38,-183.83 583.97,-178.26 575.62,-171.25 554.98,-153.9 571.62,-134.38 552.88,-115 545.35,-107.22 535.14,-101.55 525.29,-97.49"/>
<polygon fill="#9a32cd" stroke="#9a32cd" points="625.54,-191.44 636,-189.76 626.78,-184.55 625.54,-191.44"/>
</a>
</g>
<text text-anchor="start" x="574.88" y="-161.75" font-family="Helvetica,sans-Serif" font-size="10.00" fill="grey"> p_change_object_notify</text>
<text text-anchor="middle" x="630" y="-150.5" font-family="Helvetica,sans-Serif" font-size="10.00" fill="grey">_fn</text>
<text text-anchor="start" x="574.88" y="-139.25" font-family="Helvetica,sans-Serif" font-size="10.00" fill="grey">p_create_object_notify</text>
<text text-anchor="middle" x="630" y="-128" font-family="Helvetica,sans-Serif" font-size="10.00" fill="grey">_fn</text>
<text text-anchor="middle" x="630" y="-116.75" font-family="Helvetica,sans-Serif" font-size="10.00" fill="grey">p_delete_object_notify_fn</text>
</g>
<!-- Node10&#45;&gt;Node13 -->
<g id="edge16_Node000013_Node000010" class="edge">
<title>Node10&#45;&gt;Node13</title>
<g id="a_edge16_Node000013_Node000010"><a xlink:title=" ">
<path fill="none" stroke="#9a32cd" stroke-dasharray="5,2" d="M634.36,-212.25C610.03,-220.36 584.85,-233.74 570.38,-255.75 551.5,-284.45 578.33,-323.5 596.18,-344.39"/>
<polygon fill="#9a32cd" stroke="#9a32cd" points="635.08,-215.69 643.62,-209.42 633.03,-208.99 635.08,-215.69"/>
</a>
</g>
<text text-anchor="middle" x="590.12" y="-267.12" font-family="Helvetica,sans-Serif" font-size="10.00" fill="grey"> OBJECT</text>
</g>
<!-- Node11 -->
<g id="Node000011" class="node">
<title>Node11</title>
<g id="a_Node000011"><a xlink:title=" ">
<polygon fill="white" stroke="#666666" points="757.25,-464.25 716.5,-464.25 716.5,-445 757.25,-445 757.25,-464.25"/>
<text text-anchor="middle" x="736.88" y="-450.75" font-family="Helvetica,sans-Serif" font-size="10.00">struct</text>
</a>
</g>
</g>
<!-- Node11&#45;&gt;Node10 -->
<g id="edge12_Node000010_Node000011" class="edge">
<title>Node11&#45;&gt;Node10</title>
<g id="a_edge12_Node000010_Node000011"><a xlink:title=" ">
<path fill="none" stroke="#9a32cd" stroke-dasharray="5,2" d="M742.45,-433.54C751.59,-396.96 766.66,-317.53 744.88,-255.75 738.08,-236.49 721.52,-218.97 710.5,-208.87"/>
<polygon fill="#9a32cd" stroke="#9a32cd" points="739.09,-432.57 739.92,-443.13 745.86,-434.36 739.09,-432.57"/>
</a>
</g>
<text text-anchor="middle" x="763.38" y="-311.62" font-family="Helvetica,sans-Serif" font-size="10.00" fill="grey"> uid</text>
</g>
<!-- Node11&#45;&gt;Node13 -->
<g id="edge19_Node000013_Node000011" class="edge">
<title>Node11&#45;&gt;Node13</title>
<g id="a_edge19_Node000013_Node000011"><a xlink:title=" ">
<path fill="none" stroke="#9a32cd" stroke-dasharray="5,2" d="M715.71,-438.19C691.76,-420.72 653.02,-392.47 629.65,-375.42"/>
<polygon fill="#9a32cd" stroke="#9a32cd" points="713.33,-440.79 723.47,-443.85 717.46,-435.13 713.33,-440.79"/>
</a>
</g>
<text text-anchor="middle" x="710.12" y="-411.88" font-family="Helvetica,sans-Serif" font-size="10.00" fill="grey"> UID</text>
<text text-anchor="middle" x="710.12" y="-400.62" font-family="Helvetica,sans-Serif" font-size="10.00" fill="grey">UID2</text>
</g>
<!-- Node12 -->
<g id="Node000012" class="node">
<title>Node12</title>
<g id="a_Node000012"><a xlink:href="structdunedaq_1_1oks_1_1OksData.html" target="_top" xlink:title="the structure to pass common parameters to various read() methods of OksData and OksObject class">
<polygon fill="white" stroke="#666666" points="735.75,-280.62 620,-280.62 620,-261.38 735.75,-261.38 735.75,-280.62"/>
<text text-anchor="middle" x="677.88" y="-267.12" font-family="Helvetica,sans-Serif" font-size="10.00">dunedaq::oks::OksData</text>
</a>
</g>
</g>
<!-- Node12&#45;&gt;Node10 -->
<g id="edge13_Node000010_Node000012" class="edge">
<title>Node12&#45;&gt;Node10</title>
<g id="a_edge13_Node000010_Node000012"><a xlink:title=" ">
<path fill="none" stroke="#9a32cd" stroke-dasharray="5,2" d="M684.01,-250.45C688.28,-236.85 693.77,-219.35 697.04,-208.91"/>
<polygon fill="#9a32cd" stroke="#9a32cd" points="680.77,-249.09 681.11,-259.67 687.45,-251.18 680.77,-249.09"/>
</a>
</g>
<text text-anchor="middle" x="701.38" y="-228.25" font-family="Helvetica,sans-Serif" font-size="10.00" fill="grey"> data</text>
</g>
<!-- Node13&#45;&gt;Node12 -->
<g id="edge14_Node000012_Node000013" class="edge">
<title>Node13&#45;&gt;Node12</title>
<g id="a_edge14_Node000012_Node000013"><a xlink:title=" ">
<path fill="none" stroke="#9a32cd" stroke-dasharray="5,2" d="M627.99,-335.82C642.13,-317.73 661,-293.59 670.99,-280.81"/>
<polygon fill="#9a32cd" stroke="#9a32cd" points="625.44,-333.41 622.04,-343.44 630.95,-337.72 625.44,-333.41"/>
</a>
</g>
<text text-anchor="middle" x="662.38" y="-311.62" font-family="Helvetica,sans-Serif" font-size="10.00" fill="grey"> data</text>
</g>
<!-- Node14 -->
<g id="Node000014" class="node">
<title>Node14</title>
<g id="a_Node000014"><a xlink:href="classdunedaq_1_1oks_1_1OksString.html" target="_top" xlink:title="Class OKS string.">
<polygon fill="white" stroke="#666666" points="670.38,-464.25 549.38,-464.25 549.38,-445 670.38,-445 670.38,-464.25"/>
<text text-anchor="middle" x="609.88" y="-450.75" font-family="Helvetica,sans-Serif" font-size="10.00">dunedaq::oks::OksString</text>
</a>
</g>
</g>
<!-- Node14&#45;&gt;Node13 -->
<g id="edge17_Node000013_Node000014" class="edge">
<title>Node14&#45;&gt;Node13</title>
<g id="a_edge17_Node000013_Node000014"><a xlink:title=" ">
<path fill="none" stroke="#9a32cd" stroke-dasharray="5,2" d="M609.88,-433.29C609.88,-415.78 609.88,-390.95 609.88,-375.42"/>
<polygon fill="#9a32cd" stroke="#9a32cd" points="606.38,-433.23 609.88,-443.23 613.38,-433.23 606.38,-433.23"/>
</a>
</g>
<text text-anchor="middle" x="629.75" y="-417.5" font-family="Helvetica,sans-Serif" font-size="10.00" fill="grey"> STRING</text>
<text text-anchor="middle" x="629.75" y="-406.25" font-family="Helvetica,sans-Serif" font-size="10.00" fill="grey">class_id</text>
<text text-anchor="middle" x="629.75" y="-395" font-family="Helvetica,sans-Serif" font-size="10.00" fill="grey">object_id</text>
</g>
<!-- Node15 -->
<g id="Node000015" class="node">
<title>Node15</title>
<g id="a_Node000015"><a xlink:title=" ">
<polygon fill="white" stroke="#666666" points="638.88,-530.75 580.88,-530.75 580.88,-511.5 638.88,-511.5 638.88,-530.75"/>
<text text-anchor="middle" x="609.88" y="-517.25" font-family="Helvetica,sans-Serif" font-size="10.00">std::string</text>
</a>
</g>
</g>
<!-- Node15&#45;&gt;Node14 -->
<g id="edge18_Node000014_Node000015" class="edge">
<title>Node15&#45;&gt;Node14</title>
<g id="a_edge18_Node000014_Node000015"><a xlink:title=" ">
<path fill="none" stroke="#63b8ff" d="M609.88,-499.65C609.88,-487.82 609.88,-473.54 609.88,-464.52"/>
<polygon fill="#63b8ff" stroke="#63b8ff" points="606.38,-499.64 609.88,-509.64 613.38,-499.64 606.38,-499.64"/>
</a>
</g>
</g>
<!-- Node16 -->
<g id="Node000016" class="node">
<title>Node16</title>
<g id="a_Node000016"><a xlink:href="classdunedaq_1_1conffwk_1_1map.html" target="_top" xlink:title=" ">
<polygon fill="white" stroke="#666666" points="513.25,-530.75 376.5,-530.75 376.5,-511.5 513.25,-511.5 513.25,-530.75"/>
<text text-anchor="middle" x="444.88" y="-517.25" font-family="Helvetica,sans-Serif" font-size="10.00">dunedaq::conffwk::map&lt; T &gt;</text>
</a>
</g>
</g>
<!-- Node16&#45;&gt;Node5 -->
<g id="edge22_Node000005_Node000016" class="edge">
<title>Node16&#45;&gt;Node5</title>
<g id="a_edge22_Node000005_Node000016"><a xlink:title=" ">
<path fill="none" stroke="#9a32cd" stroke-dasharray="5,2" d="M444.88,-499.65C444.88,-487.82 444.88,-473.54 444.88,-464.52"/>
<polygon fill="#9a32cd" stroke="#9a32cd" points="441.38,-499.64 444.88,-509.64 448.38,-499.64 441.38,-499.64"/>
</a>
</g>
<text text-anchor="middle" x="471.12" y="-484" font-family="Helvetica,sans-Serif" font-size="10.00" fill="grey"> p_data_info</text>
</g>
<!-- Node17 -->
<g id="Node000017" class="node">
<title>Node17</title>
<g id="a_Node000017"><a xlink:title=" ">
<polygon fill="white" stroke="#666666" points="495.25,-598.25 394.5,-598.25 394.5,-567.75 495.25,-567.75 495.25,-598.25"/>
<text text-anchor="start" x="402.5" y="-584.75" font-family="Helvetica,sans-Serif" font-size="10.00">std::unordered_map</text>
<text text-anchor="middle" x="444.88" y="-573.5" font-family="Helvetica,sans-Serif" font-size="10.00">&lt; std::string, T &gt;</text>
</a>
</g>
</g>
<!-- Node17&#45;&gt;Node16 -->
<g id="edge23_Node000016_Node000017" class="edge">
<title>Node17&#45;&gt;Node16</title>
<g id="a_edge23_Node000016_Node000017"><a xlink:title=" ">
<path fill="none" stroke="#63b8ff" d="M444.88,-556.27C444.88,-547.29 444.88,-537.79 444.88,-531.1"/>
<polygon fill="#63b8ff" stroke="#63b8ff" points="441.38,-555.99 444.88,-565.99 448.38,-555.99 441.38,-555.99"/>
</a>
</g>
</g>
</g>
</svg>
