<?xml version="1.0" encoding="UTF-8" standalone="no"?>
<!DOCTYPE svg PUBLIC "-//W3C//DTD SVG 1.1//EN"
 "http://www.w3.org/Graphics/SVG/1.1/DTD/svg11.dtd">
<!-- Generated by graphviz version 9.0.0 (20230911.1827)
 -->
<!-- Title: dunedaq::readoutlibs::ReadoutModel&lt; ReadoutType, RequestHandlerType, LatencyBufferType, RawDataProcessorType &gt; Pages: 1 -->
<svg width="434pt" height="137pt"
 viewBox="0.00 0.00 433.75 136.50" xmlns="http://www.w3.org/2000/svg" xmlns:xlink="http://www.w3.org/1999/xlink">
<g id="graph0" class="graph" transform="scale(1 1) rotate(0) translate(4 132.5)">
<title>dunedaq::readoutlibs::ReadoutModel&lt; ReadoutType, RequestHandlerType, LatencyBufferType, RawDataProcessorType &gt;</title>
<!-- Node1 -->
<g id="Node000001" class="node">
<title>Node1</title>
<g id="a_Node000001"><a xlink:title=" ">
<polygon fill="#999999" stroke="#666666" points="425.75,-90.75 251.5,-90.75 251.5,-37.75 425.75,-37.75 425.75,-90.75"/>
<text text-anchor="start" x="259.5" y="-77.25" font-family="Helvetica,sans-Serif" font-size="10.00">dunedaq::readoutlibs</text>
<text text-anchor="start" x="259.5" y="-66" font-family="Helvetica,sans-Serif" font-size="10.00">::ReadoutModel&lt; ReadoutType,</text>
<text text-anchor="start" x="259.5" y="-54.75" font-family="Helvetica,sans-Serif" font-size="10.00"> RequestHandlerType, LatencyBuffer</text>
<text text-anchor="middle" x="338.62" y="-43.5" font-family="Helvetica,sans-Serif" font-size="10.00">Type, RawDataProcessorType &gt;</text>
</a>
</g>
</g>
<!-- Node2 -->
<g id="Node000002" class="node">
<title>Node2</title>
<g id="a_Node000002"><a xlink:href="classdunedaq_1_1readoutlibs_1_1ReadoutConcept.html" target="_top" xlink:title=" ">
<polygon fill="white" stroke="#666666" points="114.62,-128.5 10.12,-128.5 10.12,-98 114.62,-98 114.62,-128.5"/>
<text text-anchor="start" x="18.12" y="-115" font-family="Helvetica,sans-Serif" font-size="10.00">dunedaq::readoutlibs</text>
<text text-anchor="middle" x="62.38" y="-103.75" font-family="Helvetica,sans-Serif" font-size="10.00">::ReadoutConcept</text>
</a>
</g>
</g>
<!-- Node2&#45;&gt;Node1 -->
<g id="edge1_Node000001_Node000002" class="edge">
<title>Node2&#45;&gt;Node1</title>
<g id="a_edge1_Node000001_Node000002"><a xlink:title=" ">
<path fill="none" stroke="#63b8ff" d="M126.11,-102.04C163.18,-95.42 210.65,-86.94 251.22,-79.69"/>
<polygon fill="#63b8ff" stroke="#63b8ff" points="125.68,-98.56 116.45,-103.77 126.91,-105.45 125.68,-98.56"/>
</a>
</g>
</g>
<!-- Node3 -->
<g id="Node000003" class="node">
<title>Node3</title>
<g id="a_Node000003"><a xlink:href="structdunedaq_1_1daqdataformats_1_1SourceID.html" target="_top" xlink:title="SourceID is a generalized representation of the source of a piece of data in the DAQ....">
<polygon fill="white" stroke="#666666" points="124.75,-79.5 0,-79.5 0,-49 124.75,-49 124.75,-79.5"/>
<text text-anchor="start" x="8" y="-66" font-family="Helvetica,sans-Serif" font-size="10.00">dunedaq::daqdataformats</text>
<text text-anchor="middle" x="62.38" y="-54.75" font-family="Helvetica,sans-Serif" font-size="10.00">::SourceID</text>
</a>
</g>
</g>
<!-- Node3&#45;&gt;Node1 -->
<g id="edge2_Node000001_Node000003" class="edge">
<title>Node3&#45;&gt;Node1</title>
<g id="a_edge2_Node000001_Node000003"><a xlink:title=" ">
<path fill="none" stroke="#9a32cd" stroke-dasharray="5,2" d="M136.11,-64.25C171.42,-64.25 214.09,-64.25 251.07,-64.25"/>
<polygon fill="#9a32cd" stroke="#9a32cd" points="136.44,-60.75 126.44,-64.25 136.44,-67.75 136.44,-60.75"/>
</a>
</g>
<text text-anchor="middle" x="188.12" y="-66" font-family="Helvetica,sans-Serif" font-size="10.00" fill="grey"> m_sourceid</text>
</g>
<!-- Node4 -->
<g id="Node000004" class="node">
<title>Node4</title>
<g id="a_Node000004"><a xlink:href="classdunedaq_1_1readoutlibs_1_1ReusableThread.html" target="_top" xlink:title=" ">
<polygon fill="white" stroke="#666666" points="114.62,-30.5 10.12,-30.5 10.12,0 114.62,0 114.62,-30.5"/>
<text text-anchor="start" x="18.12" y="-17" font-family="Helvetica,sans-Serif" font-size="10.00">dunedaq::readoutlibs</text>
<text text-anchor="middle" x="62.38" y="-5.75" font-family="Helvetica,sans-Serif" font-size="10.00">::ReusableThread</text>
</a>
</g>
</g>
<!-- Node4&#45;&gt;Node1 -->
<g id="edge3_Node000001_Node000004" class="edge">
<title>Node4&#45;&gt;Node1</title>
<g id="a_edge3_Node000001_Node000004"><a xlink:title=" ">
<path fill="none" stroke="#9a32cd" stroke-dasharray="5,2" d="M126.07,-21.75C158.32,-25.55 198.17,-30.94 233.5,-37.75 239.27,-38.86 245.2,-40.1 251.15,-41.42"/>
<polygon fill="#9a32cd" stroke="#9a32cd" points="126.84,-18.32 116.5,-20.65 126.03,-25.27 126.84,-18.32"/>
</a>
</g>
<text text-anchor="middle" x="188.12" y="-51.25" font-family="Helvetica,sans-Serif" font-size="10.00" fill="grey"> m_consumer_thread</text>
<text text-anchor="middle" x="188.12" y="-40" font-family="Helvetica,sans-Serif" font-size="10.00" fill="grey">m_timesync_thread</text>
</g>
</g>
</svg>
