<?xml version="1.0" encoding="UTF-8" standalone="no"?>
<!DOCTYPE svg PUBLIC "-//W3C//DTD SVG 1.1//EN"
 "http://www.w3.org/Graphics/SVG/1.1/DTD/svg11.dtd">
<!-- Generated by graphviz version 9.0.0 (20230911.1827)
 -->
<!-- Title: dunedaq::timing::EndpointDesignInterface Pages: 1 -->
<svg width="947pt" height="407pt"
 viewBox="0.00 0.00 947.00 406.50" xmlns="http://www.w3.org/2000/svg" xmlns:xlink="http://www.w3.org/1999/xlink">
<g id="graph0" class="graph" transform="scale(1 1) rotate(0) translate(4 402.5)">
<title>dunedaq::timing::EndpointDesignInterface</title>
<!-- Node1 -->
<g id="Node000001" class="node">
<title>Node1</title>
<g id="a_Node000001"><a xlink:title="Base class for timing endpoint design nodes.">
<polygon fill="#999999" stroke="#666666" points="570.25,-226.5 444.75,-226.5 444.75,-196 570.25,-196 570.25,-226.5"/>
<text text-anchor="start" x="452.75" y="-213" font-family="Helvetica,sans-Serif" font-size="10.00">dunedaq::timing::Endpoint</text>
<text text-anchor="middle" x="507.5" y="-201.75" font-family="Helvetica,sans-Serif" font-size="10.00">DesignInterface</text>
</a>
</g>
</g>
<!-- Node5 -->
<g id="Node000005" class="node">
<title>Node5</title>
<g id="a_Node000005"><a xlink:href="classdunedaq_1_1timing_1_1CRTDesignInterface.html" target="_top" xlink:title="Base class for timing hsi design nodes.">
<polygon fill="white" stroke="#666666" points="749,-398.5 611.5,-398.5 611.5,-368 749,-368 749,-398.5"/>
<text text-anchor="start" x="619.5" y="-385" font-family="Helvetica,sans-Serif" font-size="10.00">dunedaq::timing::CRTDesign</text>
<text text-anchor="middle" x="680.25" y="-373.75" font-family="Helvetica,sans-Serif" font-size="10.00">Interface</text>
</a>
</g>
</g>
<!-- Node1&#45;&gt;Node5 -->
<g id="edge4_Node000001_Node000005" class="edge">
<title>Node1&#45;&gt;Node5</title>
<g id="a_edge4_Node000001_Node000005"><a xlink:title=" ">
<path fill="none" stroke="#63b8ff" d="M519.28,-237.07C534.2,-269.77 564.13,-325.77 606.25,-358.25 610.92,-361.85 616.14,-364.95 621.58,-367.62"/>
<polygon fill="#63b8ff" stroke="#63b8ff" points="522.49,-235.67 515.25,-227.94 516.09,-238.5 522.49,-235.67"/>
</a>
</g>
</g>
<!-- Node7 -->
<g id="Node000007" class="node">
<title>Node7</title>
<g id="a_Node000007"><a xlink:href="classdunedaq_1_1timing_1_1EndpointDesign.html" target="_top" xlink:title="Base class for timing endpoint design nodes.">
<polygon fill="white" stroke="#666666" points="743,-349.5 617.5,-349.5 617.5,-319 743,-319 743,-349.5"/>
<text text-anchor="start" x="625.5" y="-336" font-family="Helvetica,sans-Serif" font-size="10.00">dunedaq::timing::Endpoint</text>
<text text-anchor="middle" x="680.25" y="-324.75" font-family="Helvetica,sans-Serif" font-size="10.00">Design</text>
</a>
</g>
</g>
<!-- Node1&#45;&gt;Node7 -->
<g id="edge6_Node000001_Node000007" class="edge">
<title>Node1&#45;&gt;Node7</title>
<g id="a_edge6_Node000001_Node000007"><a xlink:title=" ">
<path fill="none" stroke="#63b8ff" d="M527.02,-235.79C545.02,-258.09 574.27,-290.44 606.25,-310.25 611.35,-313.41 616.92,-316.2 622.62,-318.66"/>
<polygon fill="#63b8ff" stroke="#63b8ff" points="529.89,-233.79 520.95,-228.1 524.4,-238.12 529.89,-233.79"/>
</a>
</g>
</g>
<!-- Node8 -->
<g id="Node000008" class="node">
<title>Node8</title>
<g id="a_Node000008"><a xlink:href="classdunedaq_1_1timing_1_1FanoutDesign.html" target="_top" xlink:title="Class for timing fanout designs.">
<polygon fill="white" stroke="#666666" points="754.25,-300.88 606.25,-300.88 606.25,-281.62 754.25,-281.62 754.25,-300.88"/>
<text text-anchor="middle" x="680.25" y="-287.38" font-family="Helvetica,sans-Serif" font-size="10.00">dunedaq::timing::FanoutDesign</text>
</a>
</g>
</g>
<!-- Node1&#45;&gt;Node8 -->
<g id="edge7_Node000001_Node000008" class="edge">
<title>Node1&#45;&gt;Node8</title>
<g id="a_edge7_Node000001_Node000008"><a xlink:title=" ">
<path fill="none" stroke="#63b8ff" d="M537.92,-233.47C556.63,-246.68 581.85,-262.84 606.25,-273.25 613.45,-276.33 621.29,-278.95 629.07,-281.16"/>
<polygon fill="#63b8ff" stroke="#63b8ff" points="540.15,-230.76 529.99,-227.76 536.06,-236.44 540.15,-230.76"/>
</a>
</g>
</g>
<!-- Node9 -->
<g id="Node000009" class="node">
<title>Node9</title>
<g id="a_Node000009"><a xlink:href="classdunedaq_1_1timing_1_1GaiaDesign.html" target="_top" xlink:title="Class for timing fanout designs.">
<polygon fill="white" stroke="#666666" points="749.38,-263.88 611.12,-263.88 611.12,-244.62 749.38,-244.62 749.38,-263.88"/>
<text text-anchor="middle" x="680.25" y="-250.38" font-family="Helvetica,sans-Serif" font-size="10.00">dunedaq::timing::GaiaDesign</text>
</a>
</g>
</g>
<!-- Node1&#45;&gt;Node9 -->
<g id="edge8_Node000001_Node000009" class="edge">
<title>Node1&#45;&gt;Node9</title>
<g id="a_edge8_Node000001_Node000009"><a xlink:title=" ">
<path fill="none" stroke="#63b8ff" d="M581.78,-229.7C601.49,-234.67 622.08,-239.85 639.23,-244.17"/>
<polygon fill="#63b8ff" stroke="#63b8ff" points="582.65,-226.31 572.1,-227.27 580.94,-233.1 582.65,-226.31"/>
</a>
</g>
</g>
<!-- Node10 -->
<g id="Node000010" class="node">
<title>Node10</title>
<g id="a_Node000010"><a xlink:href="classdunedaq_1_1timing_1_1HSIDesignInterface.html" target="_top" xlink:title="Base class for timing hsi design nodes.">
<polygon fill="white" stroke="#666666" points="747.88,-226.5 612.62,-226.5 612.62,-196 747.88,-196 747.88,-226.5"/>
<text text-anchor="start" x="620.62" y="-213" font-family="Helvetica,sans-Serif" font-size="10.00">dunedaq::timing::HSIDesign</text>
<text text-anchor="middle" x="680.25" y="-201.75" font-family="Helvetica,sans-Serif" font-size="10.00">Interface</text>
</a>
</g>
</g>
<!-- Node1&#45;&gt;Node10 -->
<g id="edge9_Node000001_Node000010" class="edge">
<title>Node1&#45;&gt;Node10</title>
<g id="a_edge9_Node000001_Node000010"><a xlink:title=" ">
<path fill="none" stroke="#63b8ff" d="M581.89,-211.25C591.99,-211.25 602.3,-211.25 612.27,-211.25"/>
<polygon fill="#63b8ff" stroke="#63b8ff" points="582.14,-207.75 572.14,-211.25 582.14,-214.75 582.14,-207.75"/>
</a>
</g>
</g>
<!-- Node13 -->
<g id="Node000013" class="node">
<title>Node13</title>
<g id="a_Node000013"><a xlink:href="classdunedaq_1_1timing_1_1KerberosDesign.html" target="_top" xlink:title="Class for timing fanout designs.">
<polygon fill="white" stroke="#666666" points="743.75,-177.5 616.75,-177.5 616.75,-147 743.75,-147 743.75,-177.5"/>
<text text-anchor="start" x="624.75" y="-164" font-family="Helvetica,sans-Serif" font-size="10.00">dunedaq::timing::Kerberos</text>
<text text-anchor="middle" x="680.25" y="-152.75" font-family="Helvetica,sans-Serif" font-size="10.00">Design</text>
</a>
</g>
</g>
<!-- Node1&#45;&gt;Node13 -->
<g id="edge12_Node000001_Node000013" class="edge">
<title>Node1&#45;&gt;Node13</title>
<g id="a_edge12_Node000001_Node000013"><a xlink:title=" ">
<path fill="none" stroke="#63b8ff" d="M573.79,-192.52C590.49,-187.72 608.28,-182.62 624.39,-177.99"/>
<polygon fill="#63b8ff" stroke="#63b8ff" points="573.1,-189.07 564.45,-195.19 575.03,-195.8 573.1,-189.07"/>
</a>
</g>
</g>
<!-- Node14 -->
<g id="Node000014" class="node">
<title>Node14</title>
<g id="a_Node000014"><a xlink:href="classdunedaq_1_1timing_1_1OuroborosDesign.html" target="_top" xlink:title="Class for PDI timing master design (known as overlord).">
<polygon fill="white" stroke="#666666" points="746.75,-128.5 613.75,-128.5 613.75,-98 746.75,-98 746.75,-128.5"/>
<text text-anchor="start" x="621.75" y="-115" font-family="Helvetica,sans-Serif" font-size="10.00">dunedaq::timing::Ouroboros</text>
<text text-anchor="middle" x="680.25" y="-103.75" font-family="Helvetica,sans-Serif" font-size="10.00">Design</text>
</a>
</g>
</g>
<!-- Node1&#45;&gt;Node14 -->
<g id="edge13_Node000001_Node000014" class="edge">
<title>Node1&#45;&gt;Node14</title>
<g id="a_edge13_Node000001_Node000014"><a xlink:title=" ">
<path fill="none" stroke="#63b8ff" d="M534.34,-188.42C553.22,-172.65 580.01,-152.1 606.25,-138.25 612.77,-134.81 619.85,-131.69 626.96,-128.92"/>
<polygon fill="#63b8ff" stroke="#63b8ff" points="532.25,-185.61 526.89,-194.75 536.78,-190.94 532.25,-185.61"/>
</a>
</g>
</g>
<!-- Node15 -->
<g id="Node000015" class="node">
<title>Node15</title>
<g id="a_Node000015"><a xlink:href="classdunedaq_1_1timing_1_1OuroborosMuxDesign.html" target="_top" xlink:title="Class for PDI ouroboros timing master design.">
<polygon fill="white" stroke="#666666" points="746.75,-79.5 613.75,-79.5 613.75,-49 746.75,-49 746.75,-79.5"/>
<text text-anchor="start" x="621.75" y="-66" font-family="Helvetica,sans-Serif" font-size="10.00">dunedaq::timing::Ouroboros</text>
<text text-anchor="middle" x="680.25" y="-54.75" font-family="Helvetica,sans-Serif" font-size="10.00">MuxDesign</text>
</a>
</g>
</g>
<!-- Node1&#45;&gt;Node15 -->
<g id="edge14_Node000001_Node000015" class="edge">
<title>Node1&#45;&gt;Node15</title>
<g id="a_edge14_Node000001_Node000015"><a xlink:title=" ">
<path fill="none" stroke="#63b8ff" d="M522.64,-186.13C539.3,-158.67 569.43,-115.13 606.25,-89.25 611.29,-85.71 616.88,-82.63 622.65,-79.97"/>
<polygon fill="#63b8ff" stroke="#63b8ff" points="519.77,-184.11 517.7,-194.5 525.8,-187.67 519.77,-184.11"/>
</a>
</g>
</g>
<!-- Node16 -->
<g id="Node000016" class="node">
<title>Node16</title>
<g id="a_Node000016"><a xlink:href="classdunedaq_1_1timing_1_1OverlordDesign.html" target="_top" xlink:title="Class for PDI timing master design (known as overlord).">
<polygon fill="white" stroke="#666666" points="742.62,-30.5 617.88,-30.5 617.88,0 742.62,0 742.62,-30.5"/>
<text text-anchor="start" x="625.88" y="-17" font-family="Helvetica,sans-Serif" font-size="10.00">dunedaq::timing::Overlord</text>
<text text-anchor="middle" x="680.25" y="-5.75" font-family="Helvetica,sans-Serif" font-size="10.00">Design</text>
</a>
</g>
</g>
<!-- Node1&#45;&gt;Node16 -->
<g id="edge15_Node000001_Node000016" class="edge">
<title>Node1&#45;&gt;Node16</title>
<g id="a_edge15_Node000001_Node000016"><a xlink:title=" ">
<path fill="none" stroke="#63b8ff" d="M516.81,-185C529.94,-147.64 558.95,-79.34 606.25,-40.25 610.59,-36.67 615.47,-33.58 620.59,-30.94"/>
<polygon fill="#63b8ff" stroke="#63b8ff" points="513.62,-183.51 513.73,-194.1 520.25,-185.75 513.62,-183.51"/>
</a>
</g>
</g>
<!-- Node2 -->
<g id="Node000002" class="node">
<title>Node2</title>
<g id="a_Node000002"><a xlink:href="classdunedaq_1_1timing_1_1TopDesignInterface.html" target="_top" xlink:title="Base class for timing top design nodes.">
<polygon fill="white" stroke="#666666" points="408.75,-226.5 274.25,-226.5 274.25,-196 408.75,-196 408.75,-226.5"/>
<text text-anchor="start" x="282.25" y="-213" font-family="Helvetica,sans-Serif" font-size="10.00">dunedaq::timing::TopDesign</text>
<text text-anchor="middle" x="341.5" y="-201.75" font-family="Helvetica,sans-Serif" font-size="10.00">Interface</text>
</a>
</g>
</g>
<!-- Node2&#45;&gt;Node1 -->
<g id="edge1_Node000001_Node000002" class="edge">
<title>Node2&#45;&gt;Node1</title>
<g id="a_edge1_Node000001_Node000002"><a xlink:title=" ">
<path fill="none" stroke="#63b8ff" d="M420.47,-211.25C428.48,-211.25 436.54,-211.25 444.35,-211.25"/>
<polygon fill="#63b8ff" stroke="#63b8ff" points="420.72,-207.75 410.72,-211.25 420.72,-214.75 420.72,-207.75"/>
</a>
</g>
</g>
<!-- Node3 -->
<g id="Node000003" class="node">
<title>Node3</title>
<g id="a_Node000003"><a xlink:href="classdunedaq_1_1timing_1_1TimingNode.html" target="_top" xlink:title="Base class for timing nodes.">
<polygon fill="white" stroke="#666666" points="238.25,-220.88 97.75,-220.88 97.75,-201.62 238.25,-201.62 238.25,-220.88"/>
<text text-anchor="middle" x="168" y="-207.38" font-family="Helvetica,sans-Serif" font-size="10.00">dunedaq::timing::TimingNode</text>
</a>
</g>
</g>
<!-- Node3&#45;&gt;Node2 -->
<g id="edge2_Node000002_Node000003" class="edge">
<title>Node3&#45;&gt;Node2</title>
<g id="a_edge2_Node000002_Node000003"><a xlink:title=" ">
<path fill="none" stroke="#63b8ff" d="M249.62,-211.25C257.7,-211.25 265.85,-211.25 273.76,-211.25"/>
<polygon fill="#63b8ff" stroke="#63b8ff" points="249.77,-207.75 239.77,-211.25 249.77,-214.75 249.77,-207.75"/>
</a>
</g>
</g>
<!-- Node4 -->
<g id="Node000004" class="node">
<title>Node4</title>
<g id="a_Node000004"><a xlink:title=" ">
<polygon fill="white" stroke="#666666" points="61.75,-220.88 0,-220.88 0,-201.62 61.75,-201.62 61.75,-220.88"/>
<text text-anchor="middle" x="30.88" y="-207.38" font-family="Helvetica,sans-Serif" font-size="10.00">uhal::Node</text>
</a>
</g>
</g>
<!-- Node4&#45;&gt;Node3 -->
<g id="edge3_Node000003_Node000004" class="edge">
<title>Node4&#45;&gt;Node3</title>
<g id="a_edge3_Node000003_Node000004"><a xlink:title=" ">
<path fill="none" stroke="#63b8ff" d="M73.58,-211.25C81.14,-211.25 89.2,-211.25 97.3,-211.25"/>
<polygon fill="#63b8ff" stroke="#63b8ff" points="73.71,-207.75 63.71,-211.25 73.71,-214.75 73.71,-207.75"/>
</a>
</g>
</g>
<!-- Node6 -->
<g id="Node000006" class="node">
<title>Node6</title>
<g id="a_Node000006"><a xlink:href="classdunedaq_1_1timing_1_1CRTDesign.html" target="_top" xlink:title="Class for timing master with integrated HSI designs.">
<polygon fill="white" stroke="#666666" points="933.38,-392.88 795.88,-392.88 795.88,-373.62 933.38,-373.62 933.38,-392.88"/>
<text text-anchor="middle" x="864.62" y="-379.38" font-family="Helvetica,sans-Serif" font-size="10.00">dunedaq::timing::CRTDesign</text>
</a>
</g>
</g>
<!-- Node5&#45;&gt;Node6 -->
<g id="edge5_Node000005_Node000006" class="edge">
<title>Node5&#45;&gt;Node6</title>
<g id="a_edge5_Node000005_Node000006"><a xlink:title=" ">
<path fill="none" stroke="#63b8ff" d="M760.87,-383.25C772.42,-383.25 784.23,-383.25 795.54,-383.25"/>
<polygon fill="#63b8ff" stroke="#63b8ff" points="760.93,-379.75 750.93,-383.25 760.93,-386.75 760.93,-379.75"/>
</a>
</g>
</g>
<!-- Node11 -->
<g id="Node000011" class="node">
<title>Node11</title>
<g id="a_Node000011"><a xlink:href="classdunedaq_1_1timing_1_1BoreasDesign.html" target="_top" xlink:title="Class for timing master with integrated HSI designs.">
<polygon fill="white" stroke="#666666" points="939,-241.88 790.25,-241.88 790.25,-222.62 939,-222.62 939,-241.88"/>
<text text-anchor="middle" x="864.62" y="-228.38" font-family="Helvetica,sans-Serif" font-size="10.00">dunedaq::timing::BoreasDesign</text>
</a>
</g>
</g>
<!-- Node10&#45;&gt;Node11 -->
<g id="edge10_Node000010_Node000011" class="edge">
<title>Node10&#45;&gt;Node11</title>
<g id="a_edge10_Node000010_Node000011"><a xlink:title=" ">
<path fill="none" stroke="#63b8ff" d="M759.45,-220.25C769.58,-221.42 779.93,-222.61 789.99,-223.77"/>
<polygon fill="#63b8ff" stroke="#63b8ff" points="759.96,-216.79 749.63,-219.12 759.16,-223.74 759.96,-216.79"/>
</a>
</g>
</g>
<!-- Node12 -->
<g id="Node000012" class="node">
<title>Node12</title>
<g id="a_Node000012"><a xlink:href="classdunedaq_1_1timing_1_1ChronosDesign.html" target="_top" xlink:title="Class for timing master with integrated HSI designs.">
<polygon fill="white" stroke="#666666" points="926.62,-204.5 802.62,-204.5 802.62,-174 926.62,-174 926.62,-204.5"/>
<text text-anchor="start" x="810.62" y="-191" font-family="Helvetica,sans-Serif" font-size="10.00">dunedaq::timing::Chronos</text>
<text text-anchor="middle" x="864.62" y="-179.75" font-family="Helvetica,sans-Serif" font-size="10.00">Design</text>
</a>
</g>
</g>
<!-- Node10&#45;&gt;Node12 -->
<g id="edge11_Node000010_Node000012" class="edge">
<title>Node10&#45;&gt;Node12</title>
<g id="a_edge11_Node000010_Node000012"><a xlink:title=" ">
<path fill="none" stroke="#63b8ff" d="M759.47,-201.81C773.76,-200.09 788.49,-198.31 802.2,-196.66"/>
<polygon fill="#63b8ff" stroke="#63b8ff" points="759.14,-198.33 749.63,-203 759.97,-205.28 759.14,-198.33"/>
</a>
</g>
</g>
</g>
</svg>
