<?xml version="1.0" encoding="UTF-8" standalone="no"?>
<!DOCTYPE svg PUBLIC "-//W3C//DTD SVG 1.1//EN"
 "http://www.w3.org/Graphics/SVG/1.1/DTD/svg11.dtd">
<!-- Generated by graphviz version 9.0.0 (20230911.1827)
 -->
<!-- Title: dunedaq::timing::OverlordDesignInterface Pages: 1 -->
<svg width="156pt" height="349pt"
 viewBox="0.00 0.00 156.00 348.50" xmlns="http://www.w3.org/2000/svg" xmlns:xlink="http://www.w3.org/1999/xlink">
<g id="graph0" class="graph" transform="scale(1 1) rotate(0) translate(4 344.5)">
<title>dunedaq::timing::OverlordDesignInterface</title>
<!-- Node1 -->
<g id="Node000001" class="node">
<title>Node1</title>
<g id="a_Node000001"><a xlink:title="Class for PDI timing master + trigger receiver endpoint design (known as overlord).">
<polygon fill="#999999" stroke="#666666" points="136.38,-97 11.63,-97 11.63,-66.5 136.38,-66.5 136.38,-97"/>
<text text-anchor="start" x="19.62" y="-83.5" font-family="Helvetica,sans-Serif" font-size="10.00">dunedaq::timing::Overlord</text>
<text text-anchor="middle" x="74" y="-72.25" font-family="Helvetica,sans-Serif" font-size="10.00">DesignInterface</text>
</a>
</g>
</g>
<!-- Node6 -->
<g id="Node000006" class="node">
<title>Node6</title>
<g id="a_Node000006"><a xlink:href="classdunedaq_1_1timing_1_1OverlordDesign.html" target="_top" xlink:title="Class for PDI timing master design (known as overlord).">
<polygon fill="white" stroke="#666666" points="136.38,-30.5 11.63,-30.5 11.63,0 136.38,0 136.38,-30.5"/>
<text text-anchor="start" x="19.62" y="-17" font-family="Helvetica,sans-Serif" font-size="10.00">dunedaq::timing::Overlord</text>
<text text-anchor="middle" x="74" y="-5.75" font-family="Helvetica,sans-Serif" font-size="10.00">Design</text>
</a>
</g>
</g>
<!-- Node1&#45;&gt;Node6 -->
<g id="edge5_Node000001_Node000006" class="edge">
<title>Node1&#45;&gt;Node6</title>
<g id="a_edge5_Node000001_Node000006"><a xlink:title=" ">
<path fill="none" stroke="#63b8ff" d="M74,-54.81C74,-46.64 74,-37.91 74,-30.83"/>
<polygon fill="#63b8ff" stroke="#63b8ff" points="70.5,-54.6 74,-64.6 77.5,-54.6 70.5,-54.6"/>
</a>
</g>
</g>
<!-- Node2 -->
<g id="Node000002" class="node">
<title>Node2</title>
<g id="a_Node000002"><a xlink:href="classdunedaq_1_1timing_1_1MasterDesignInterface.html" target="_top" xlink:title="Base class for timing master designs.">
<polygon fill="white" stroke="#666666" points="148,-163.5 0,-163.5 0,-133 148,-133 148,-163.5"/>
<text text-anchor="start" x="8" y="-150" font-family="Helvetica,sans-Serif" font-size="10.00">dunedaq::timing::MasterDesign</text>
<text text-anchor="middle" x="74" y="-138.75" font-family="Helvetica,sans-Serif" font-size="10.00">Interface</text>
</a>
</g>
</g>
<!-- Node2&#45;&gt;Node1 -->
<g id="edge1_Node000001_Node000002" class="edge">
<title>Node2&#45;&gt;Node1</title>
<g id="a_edge1_Node000001_Node000002"><a xlink:title=" ">
<path fill="none" stroke="#63b8ff" d="M74,-121.31C74,-113.14 74,-104.41 74,-97.33"/>
<polygon fill="#63b8ff" stroke="#63b8ff" points="70.5,-121.1 74,-131.1 77.5,-121.1 70.5,-121.1"/>
</a>
</g>
</g>
<!-- Node3 -->
<g id="Node000003" class="node">
<title>Node3</title>
<g id="a_Node000003"><a xlink:href="classdunedaq_1_1timing_1_1TopDesignInterface.html" target="_top" xlink:title="Base class for timing top design nodes.">
<polygon fill="white" stroke="#666666" points="141.25,-230 6.75,-230 6.75,-199.5 141.25,-199.5 141.25,-230"/>
<text text-anchor="start" x="14.75" y="-216.5" font-family="Helvetica,sans-Serif" font-size="10.00">dunedaq::timing::TopDesign</text>
<text text-anchor="middle" x="74" y="-205.25" font-family="Helvetica,sans-Serif" font-size="10.00">Interface</text>
</a>
</g>
</g>
<!-- Node3&#45;&gt;Node2 -->
<g id="edge2_Node000002_Node000003" class="edge">
<title>Node3&#45;&gt;Node2</title>
<g id="a_edge2_Node000002_Node000003"><a xlink:title=" ">
<path fill="none" stroke="#63b8ff" d="M74,-187.81C74,-179.64 74,-170.91 74,-163.83"/>
<polygon fill="#63b8ff" stroke="#63b8ff" points="70.5,-187.6 74,-197.6 77.5,-187.6 70.5,-187.6"/>
</a>
</g>
</g>
<!-- Node4 -->
<g id="Node000004" class="node">
<title>Node4</title>
<g id="a_Node000004"><a xlink:href="classdunedaq_1_1timing_1_1TimingNode.html" target="_top" xlink:title="Base class for timing nodes.">
<polygon fill="white" stroke="#666666" points="144.25,-285.25 3.75,-285.25 3.75,-266 144.25,-266 144.25,-285.25"/>
<text text-anchor="middle" x="74" y="-271.75" font-family="Helvetica,sans-Serif" font-size="10.00">dunedaq::timing::TimingNode</text>
</a>
</g>
</g>
<!-- Node4&#45;&gt;Node3 -->
<g id="edge3_Node000003_Node000004" class="edge">
<title>Node4&#45;&gt;Node3</title>
<g id="a_edge3_Node000003_Node000004"><a xlink:title=" ">
<path fill="none" stroke="#63b8ff" d="M74,-254.42C74,-246.49 74,-237.56 74,-230.28"/>
<polygon fill="#63b8ff" stroke="#63b8ff" points="70.5,-254.17 74,-264.17 77.5,-254.17 70.5,-254.17"/>
</a>
</g>
</g>
<!-- Node5 -->
<g id="Node000005" class="node">
<title>Node5</title>
<g id="a_Node000005"><a xlink:title=" ">
<polygon fill="white" stroke="#666666" points="104.88,-340.5 43.12,-340.5 43.12,-321.25 104.88,-321.25 104.88,-340.5"/>
<text text-anchor="middle" x="74" y="-327" font-family="Helvetica,sans-Serif" font-size="10.00">uhal::Node</text>
</a>
</g>
</g>
<!-- Node5&#45;&gt;Node4 -->
<g id="edge4_Node000004_Node000005" class="edge">
<title>Node5&#45;&gt;Node4</title>
<g id="a_edge4_Node000004_Node000005"><a xlink:title=" ">
<path fill="none" stroke="#63b8ff" d="M74,-309.63C74,-301.34 74,-292.17 74,-285.61"/>
<polygon fill="#63b8ff" stroke="#63b8ff" points="70.5,-309.57 74,-319.57 77.5,-309.57 70.5,-309.57"/>
</a>
</g>
</g>
</g>
</svg>
