<?xml version="1.0" encoding="UTF-8" standalone="no"?>
<!DOCTYPE svg PUBLIC "-//W3C//DTD SVG 1.1//EN"
 "http://www.w3.org/Graphics/SVG/1.1/DTD/svg11.dtd">
<!-- Generated by graphviz version 9.0.0 (20230911.1827)
 -->
<!-- Title: dunedaq::appdal::FelixInterface Pages: 1 -->
<svg width="165pt" height="381pt"
 viewBox="0.00 0.00 165.00 381.25" xmlns="http://www.w3.org/2000/svg" xmlns:xlink="http://www.w3.org/1999/xlink">
<g id="graph0" class="graph" transform="scale(1 1) rotate(0) translate(4 377.25)">
<title>dunedaq::appdal::FelixInterface</title>
<!-- Node1 -->
<g id="Node000001" class="node">
<title>Node1</title>
<g id="a_Node000001"><a xlink:title=" ">
<polygon fill="#999999" stroke="#666666" points="152.88,-19.25 4.12,-19.25 4.12,0 152.88,0 152.88,-19.25"/>
<text text-anchor="middle" x="78.5" y="-5.75" font-family="Helvetica,sans-Serif" font-size="10.00">dunedaq::appdal::FelixInterface</text>
</a>
</g>
</g>
<!-- Node2 -->
<g id="Node000002" class="node">
<title>Node2</title>
<g id="a_Node000002"><a xlink:href="classdunedaq_1_1coredal_1_1ReadoutInterface.html" target="_top" xlink:title=" ">
<polygon fill="white" stroke="#666666" points="143.12,-85.75 13.88,-85.75 13.88,-55.25 143.12,-55.25 143.12,-85.75"/>
<text text-anchor="start" x="21.88" y="-72.25" font-family="Helvetica,sans-Serif" font-size="10.00">dunedaq::coredal::Readout</text>
<text text-anchor="middle" x="78.5" y="-61" font-family="Helvetica,sans-Serif" font-size="10.00">Interface</text>
</a>
</g>
</g>
<!-- Node2&#45;&gt;Node1 -->
<g id="edge1_Node000001_Node000002" class="edge">
<title>Node2&#45;&gt;Node1</title>
<g id="a_edge1_Node000001_Node000002"><a xlink:title=" ">
<path fill="none" stroke="#63b8ff" d="M71.79,-43.48C71.59,-34.98 72.14,-26.09 73.46,-19.7"/>
<polygon fill="#63b8ff" stroke="#63b8ff" points="68.3,-43.7 72.48,-53.44 75.28,-43.22 68.3,-43.7"/>
</a>
</g>
</g>
<!-- Node2&#45;&gt;Node1 -->
<g id="edge12_Node000001_Node000002" class="edge">
<title>Node2&#45;&gt;Node1</title>
<g id="a_edge12_Node000001_Node000002"><a xlink:title=" ">
<path fill="none" stroke="#63b8ff" d="M85.21,-43.48C85.41,-34.98 84.86,-26.09 83.54,-19.7"/>
<polygon fill="#63b8ff" stroke="#63b8ff" points="81.72,-43.22 84.52,-53.44 88.7,-43.7 81.72,-43.22"/>
</a>
</g>
</g>
<!-- Node3 -->
<g id="Node000003" class="node">
<title>Node3</title>
<g id="a_Node000003"><a xlink:href="classdunedaq_1_1coredal_1_1ResourceSetAND.html" target="_top" xlink:title=" ">
<polygon fill="white" stroke="#666666" points="145.75,-152.25 11.25,-152.25 11.25,-121.75 145.75,-121.75 145.75,-152.25"/>
<text text-anchor="start" x="19.25" y="-138.75" font-family="Helvetica,sans-Serif" font-size="10.00">dunedaq::coredal::Resource</text>
<text text-anchor="middle" x="78.5" y="-127.5" font-family="Helvetica,sans-Serif" font-size="10.00">SetAND</text>
</a>
</g>
</g>
<!-- Node3&#45;&gt;Node2 -->
<g id="edge2_Node000002_Node000003" class="edge">
<title>Node3&#45;&gt;Node2</title>
<g id="a_edge2_Node000002_Node000003"><a xlink:title=" ">
<path fill="none" stroke="#63b8ff" d="M71.87,-110.06C71.56,-101.89 71.86,-93.16 72.75,-86.08"/>
<polygon fill="#63b8ff" stroke="#63b8ff" points="68.36,-110.15 72.62,-119.85 75.34,-109.62 68.36,-110.15"/>
</a>
</g>
</g>
<!-- Node3&#45;&gt;Node2 -->
<g id="edge11_Node000002_Node000003" class="edge">
<title>Node3&#45;&gt;Node2</title>
<g id="a_edge11_Node000002_Node000003"><a xlink:title=" ">
<path fill="none" stroke="#63b8ff" d="M85.13,-110.06C85.44,-101.89 85.14,-93.16 84.25,-86.08"/>
<polygon fill="#63b8ff" stroke="#63b8ff" points="81.66,-109.62 84.38,-119.85 88.64,-110.15 81.66,-109.62"/>
</a>
</g>
</g>
<!-- Node4 -->
<g id="Node000004" class="node">
<title>Node4</title>
<g id="a_Node000004"><a xlink:href="classdunedaq_1_1coredal_1_1ResourceSet.html" target="_top" xlink:title=" ">
<polygon fill="white" stroke="#666666" points="153.25,-207.5 3.75,-207.5 3.75,-188.25 153.25,-188.25 153.25,-207.5"/>
<text text-anchor="middle" x="78.5" y="-194" font-family="Helvetica,sans-Serif" font-size="10.00">dunedaq::coredal::ResourceSet</text>
</a>
</g>
</g>
<!-- Node4&#45;&gt;Node3 -->
<g id="edge3_Node000003_Node000004" class="edge">
<title>Node4&#45;&gt;Node3</title>
<g id="a_edge3_Node000003_Node000004"><a xlink:title=" ">
<path fill="none" stroke="#63b8ff" d="M72.05,-176.67C71.52,-168.74 71.69,-159.81 72.59,-152.53"/>
<polygon fill="#63b8ff" stroke="#63b8ff" points="68.56,-176.95 73.3,-186.43 75.51,-176.07 68.56,-176.95"/>
</a>
</g>
</g>
<!-- Node4&#45;&gt;Node3 -->
<g id="edge10_Node000003_Node000004" class="edge">
<title>Node4&#45;&gt;Node3</title>
<g id="a_edge10_Node000003_Node000004"><a xlink:title=" ">
<path fill="none" stroke="#63b8ff" d="M84.95,-176.67C85.48,-168.74 85.31,-159.81 84.41,-152.53"/>
<polygon fill="#63b8ff" stroke="#63b8ff" points="81.49,-176.07 83.7,-186.43 88.44,-176.95 81.49,-176.07"/>
</a>
</g>
</g>
<!-- Node5 -->
<g id="Node000005" class="node">
<title>Node5</title>
<g id="a_Node000005"><a xlink:href="classdunedaq_1_1coredal_1_1ResourceBase.html" target="_top" xlink:title=" ">
<polygon fill="white" stroke="#666666" points="157,-262.75 0,-262.75 0,-243.5 157,-243.5 157,-262.75"/>
<text text-anchor="middle" x="78.5" y="-249.25" font-family="Helvetica,sans-Serif" font-size="10.00">dunedaq::coredal::ResourceBase</text>
</a>
</g>
</g>
<!-- Node5&#45;&gt;Node4 -->
<g id="edge4_Node000004_Node000005" class="edge">
<title>Node5&#45;&gt;Node4</title>
<g id="a_edge4_Node000004_Node000005"><a xlink:title=" ">
<path fill="none" stroke="#63b8ff" d="M71.94,-232.17C71.45,-223.8 71.9,-214.5 73.29,-207.86"/>
<polygon fill="#63b8ff" stroke="#63b8ff" points="68.44,-232.34 73.15,-241.83 75.38,-231.47 68.44,-232.34"/>
</a>
</g>
</g>
<!-- Node5&#45;&gt;Node4 -->
<g id="edge9_Node000004_Node000005" class="edge">
<title>Node5&#45;&gt;Node4</title>
<g id="a_edge9_Node000004_Node000005"><a xlink:title=" ">
<path fill="none" stroke="#63b8ff" d="M85.06,-232.17C85.55,-223.8 85.1,-214.5 83.71,-207.86"/>
<polygon fill="#63b8ff" stroke="#63b8ff" points="81.62,-231.47 83.85,-241.83 88.56,-232.34 81.62,-231.47"/>
</a>
</g>
</g>
<!-- Node6 -->
<g id="Node000006" class="node">
<title>Node6</title>
<g id="a_Node000006"><a xlink:href="classdunedaq_1_1coredal_1_1Component.html" target="_top" xlink:title=" ">
<polygon fill="white" stroke="#666666" points="149.88,-318 7.12,-318 7.12,-298.75 149.88,-298.75 149.88,-318"/>
<text text-anchor="middle" x="78.5" y="-304.5" font-family="Helvetica,sans-Serif" font-size="10.00">dunedaq::coredal::Component</text>
</a>
</g>
</g>
<!-- Node6&#45;&gt;Node5 -->
<g id="edge5_Node000005_Node000006" class="edge">
<title>Node6&#45;&gt;Node5</title>
<g id="a_edge5_Node000005_Node000006"><a xlink:title=" ">
<path fill="none" stroke="#63b8ff" d="M71.94,-287.42C71.45,-279.05 71.9,-269.75 73.29,-263.11"/>
<polygon fill="#63b8ff" stroke="#63b8ff" points="68.44,-287.59 73.15,-297.08 75.38,-286.72 68.44,-287.59"/>
</a>
</g>
</g>
<!-- Node6&#45;&gt;Node5 -->
<g id="edge8_Node000005_Node000006" class="edge">
<title>Node6&#45;&gt;Node5</title>
<g id="a_edge8_Node000005_Node000006"><a xlink:title=" ">
<path fill="none" stroke="#63b8ff" d="M85.06,-287.42C85.55,-279.05 85.1,-269.75 83.71,-263.11"/>
<polygon fill="#63b8ff" stroke="#63b8ff" points="81.62,-286.72 83.85,-297.08 88.56,-287.59 81.62,-286.72"/>
</a>
</g>
</g>
<!-- Node7 -->
<g id="Node000007" class="node">
<title>Node7</title>
<g id="a_Node000007"><a xlink:href="classdunedaq_1_1conffwk_1_1DalObject.html" target="_top" xlink:title="The base class for any generated DAL object.">
<polygon fill="white" stroke="#666666" points="147.62,-373.25 9.38,-373.25 9.38,-354 147.62,-354 147.62,-373.25"/>
<text text-anchor="middle" x="78.5" y="-359.75" font-family="Helvetica,sans-Serif" font-size="10.00">dunedaq::conffwk::DalObject</text>
</a>
</g>
</g>
<!-- Node7&#45;&gt;Node6 -->
<g id="edge6_Node000006_Node000007" class="edge">
<title>Node7&#45;&gt;Node6</title>
<g id="a_edge6_Node000006_Node000007"><a xlink:title=" ">
<path fill="none" stroke="#63b8ff" d="M71.94,-342.67C71.45,-334.3 71.9,-325 73.29,-318.36"/>
<polygon fill="#63b8ff" stroke="#63b8ff" points="68.44,-342.84 73.15,-352.33 75.38,-341.97 68.44,-342.84"/>
</a>
</g>
</g>
<!-- Node7&#45;&gt;Node6 -->
<g id="edge7_Node000006_Node000007" class="edge">
<title>Node7&#45;&gt;Node6</title>
<g id="a_edge7_Node000006_Node000007"><a xlink:title=" ">
<path fill="none" stroke="#63b8ff" d="M85.06,-342.67C85.55,-334.3 85.1,-325 83.71,-318.36"/>
<polygon fill="#63b8ff" stroke="#63b8ff" points="81.62,-341.97 83.85,-352.33 88.56,-342.84 81.62,-341.97"/>
</a>
</g>
</g>
</g>
</svg>
