<?xml version="1.0" encoding="UTF-8" standalone="no"?>
<!DOCTYPE svg PUBLIC "-//W3C//DTD SVG 1.1//EN"
 "http://www.w3.org/Graphics/SVG/1.1/DTD/svg11.dtd">
<!-- Generated by graphviz version 9.0.0 (20230911.1827)
 -->
<!-- Title: dunedaq::flxlibs::ElinkConcept Pages: 1 -->
<svg width="230pt" height="183pt"
 viewBox="0.00 0.00 229.88 182.75" xmlns="http://www.w3.org/2000/svg" xmlns:xlink="http://www.w3.org/1999/xlink">
<g id="graph0" class="graph" transform="scale(1 1) rotate(0) translate(4 178.75)">
<title>dunedaq::flxlibs::ElinkConcept</title>
<!-- Node1 -->
<g id="Node000001" class="node">
<title>Node1</title>
<g id="a_Node000001"><a xlink:title=" ">
<polygon fill="#999999" stroke="#666666" points="179.5,-19.25 36.75,-19.25 36.75,0 179.5,0 179.5,-19.25"/>
<text text-anchor="middle" x="108.12" y="-5.75" font-family="Helvetica,sans-Serif" font-size="10.00">dunedaq::flxlibs::ElinkConcept</text>
</a>
</g>
</g>
<!-- Node2 -->
<g id="Node000002" class="node">
<title>Node2</title>
<g id="a_Node000002"><a xlink:href="classdunedaq_1_1flxlibs_1_1DefaultParserImpl.html" target="_top" xlink:title=" ">
<polygon fill="white" stroke="#666666" points="166.38,-97 49.88,-97 49.88,-66.5 166.38,-66.5 166.38,-97"/>
<text text-anchor="start" x="57.88" y="-83.5" font-family="Helvetica,sans-Serif" font-size="10.00">dunedaq::flxlibs::Default</text>
<text text-anchor="middle" x="108.12" y="-72.25" font-family="Helvetica,sans-Serif" font-size="10.00">ParserImpl</text>
</a>
</g>
</g>
<!-- Node2&#45;&gt;Node1 -->
<g id="edge1_Node000001_Node000002" class="edge">
<title>Node2&#45;&gt;Node1</title>
<g id="a_edge1_Node000001_Node000002"><a xlink:title=" ">
<path fill="none" stroke="#9a32cd" stroke-dasharray="5,2" d="M108.12,-54.98C108.12,-42.48 108.12,-28.27 108.12,-19.38"/>
<polygon fill="#9a32cd" stroke="#9a32cd" points="104.63,-54.71 108.13,-64.71 111.63,-54.71 104.63,-54.71"/>
</a>
</g>
<text text-anchor="middle" x="141.12" y="-39" font-family="Helvetica,sans-Serif" font-size="10.00" fill="grey"> m_parser_impl</text>
</g>
<!-- Node3 -->
<g id="Node000003" class="node">
<title>Node3</title>
<g id="a_Node000003"><a xlink:title=" ">
<polygon fill="white" stroke="#666666" points="96.25,-174.75 0,-174.75 0,-144.25 96.25,-144.25 96.25,-174.75"/>
<text text-anchor="start" x="8" y="-161.25" font-family="Helvetica,sans-Serif" font-size="10.00">felix::packetformat</text>
<text text-anchor="middle" x="48.12" y="-150" font-family="Helvetica,sans-Serif" font-size="10.00">::ParserOperations</text>
</a>
</g>
</g>
<!-- Node3&#45;&gt;Node2 -->
<g id="edge2_Node000002_Node000003" class="edge">
<title>Node3&#45;&gt;Node2</title>
<g id="a_edge2_Node000002_Node000003"><a xlink:title=" ">
<path fill="none" stroke="#63b8ff" d="M66.71,-135.04C76.47,-122.71 88.13,-107.99 96.59,-97.31"/>
<polygon fill="#63b8ff" stroke="#63b8ff" points="64.1,-132.7 60.63,-142.71 69.59,-137.04 64.1,-132.7"/>
</a>
</g>
</g>
<!-- Node4 -->
<g id="Node000004" class="node">
<title>Node4</title>
<g id="a_Node000004"><a xlink:href="structdunedaq_1_1flxlibs_1_1stats_1_1ParserStats.html" target="_top" xlink:title=" ">
<polygon fill="white" stroke="#666666" points="221.88,-174.75 114.38,-174.75 114.38,-144.25 221.88,-144.25 221.88,-174.75"/>
<text text-anchor="start" x="122.38" y="-161.25" font-family="Helvetica,sans-Serif" font-size="10.00">dunedaq::flxlibs::stats</text>
<text text-anchor="middle" x="168.12" y="-150" font-family="Helvetica,sans-Serif" font-size="10.00">::ParserStats</text>
</a>
</g>
</g>
<!-- Node4&#45;&gt;Node2 -->
<g id="edge3_Node000002_Node000004" class="edge">
<title>Node4&#45;&gt;Node2</title>
<g id="a_edge3_Node000002_Node000004"><a xlink:title=" ">
<path fill="none" stroke="#9a32cd" stroke-dasharray="5,2" d="M149.54,-135.04C139.78,-122.71 128.12,-107.99 119.66,-97.31"/>
<polygon fill="#9a32cd" stroke="#9a32cd" points="146.66,-137.04 155.62,-142.71 152.15,-132.7 146.66,-137.04"/>
</a>
</g>
<text text-anchor="middle" x="159.88" y="-116.75" font-family="Helvetica,sans-Serif" font-size="10.00" fill="grey"> m_stats</text>
</g>
</g>
</svg>
