<?xml version="1.0" encoding="UTF-8" standalone="no"?>
<!DOCTYPE svg PUBLIC "-//W3C//DTD SVG 1.1//EN"
 "http://www.w3.org/Graphics/SVG/1.1/DTD/svg11.dtd">
<!-- Generated by graphviz version 9.0.0 (20230911.1827)
 -->
<!-- Title: dunedaq::trigger::TAProcessor Pages: 1 -->
<svg width="572pt" height="100pt"
 viewBox="0.00 0.00 572.25 100.12" xmlns="http://www.w3.org/2000/svg" xmlns:xlink="http://www.w3.org/1999/xlink">
<g id="graph0" class="graph" transform="scale(1 1) rotate(0) translate(4 96.12)">
<title>dunedaq::trigger::TAProcessor</title>
<!-- Node1 -->
<g id="Node000001" class="node">
<title>Node1</title>
<g id="a_Node000001"><a xlink:title=" ">
<polygon fill="#999999" stroke="#666666" points="564.25,-39.88 418.5,-39.88 418.5,-20.62 564.25,-20.62 564.25,-39.88"/>
<text text-anchor="middle" x="491.38" y="-26.38" font-family="Helvetica,sans-Serif" font-size="10.00">dunedaq::trigger::TAProcessor</text>
</a>
</g>
</g>
<!-- Node2 -->
<g id="Node000002" class="node">
<title>Node2</title>
<g id="a_Node000002"><a xlink:href="classdunedaq_1_1readoutlibs_1_1TaskRawDataProcessorModel.html" target="_top" xlink:title=" ">
<polygon fill="white" stroke="#666666" points="381.5,-83.12 229,-83.12 229,-41.38 381.5,-41.38 381.5,-83.12"/>
<text text-anchor="start" x="237" y="-69.62" font-family="Helvetica,sans-Serif" font-size="10.00">dunedaq::readoutlibs</text>
<text text-anchor="start" x="237" y="-58.38" font-family="Helvetica,sans-Serif" font-size="10.00">::TaskRawDataProcessorModel</text>
<text text-anchor="middle" x="305.25" y="-47.12" font-family="Helvetica,sans-Serif" font-size="10.00">&lt; TAWrapper &gt;</text>
</a>
</g>
</g>
<!-- Node2&#45;&gt;Node1 -->
<g id="edge1_Node000001_Node000002" class="edge">
<title>Node2&#45;&gt;Node1</title>
<g id="a_edge1_Node000001_Node000002"><a xlink:title=" ">
<path fill="none" stroke="#63b8ff" d="M393.02,-47.17C406.29,-44.86 419.7,-42.53 432.15,-40.37"/>
<polygon fill="#63b8ff" stroke="#63b8ff" points="392.68,-43.68 383.43,-48.84 393.88,-50.57 392.68,-43.68"/>
</a>
</g>
</g>
<!-- Node3 -->
<g id="Node000003" class="node">
<title>Node3</title>
<g id="a_Node000003"><a xlink:href="classdunedaq_1_1readoutlibs_1_1RawDataProcessorConcept.html" target="_top" xlink:title=" ">
<polygon fill="white" stroke="#666666" points="140.5,-92.12 0,-92.12 0,-50.38 140.5,-50.38 140.5,-92.12"/>
<text text-anchor="start" x="8" y="-78.62" font-family="Helvetica,sans-Serif" font-size="10.00">dunedaq::readoutlibs</text>
<text text-anchor="start" x="8" y="-67.38" font-family="Helvetica,sans-Serif" font-size="10.00">::RawDataProcessorConcept</text>
<text text-anchor="middle" x="70.25" y="-56.12" font-family="Helvetica,sans-Serif" font-size="10.00">&lt; ReadoutType &gt;</text>
</a>
</g>
</g>
<!-- Node3&#45;&gt;Node2 -->
<g id="edge2_Node000002_Node000003" class="edge">
<title>Node3&#45;&gt;Node2</title>
<g id="a_edge2_Node000002_Node000003"><a xlink:title=" ">
<path fill="none" stroke="#63b8ff" d="M152.05,-68.13C176.86,-67.17 204.06,-66.12 228.51,-65.18"/>
<polygon fill="#63b8ff" stroke="#63b8ff" points="152.21,-64.62 142.35,-68.5 152.48,-71.61 152.21,-64.62"/>
</a>
</g>
</g>
<!-- Node4 -->
<g id="Node000004" class="node">
<title>Node4</title>
<g id="a_Node000004"><a xlink:href="structdunedaq_1_1daqdataformats_1_1SourceID.html" target="_top" xlink:title="SourceID is a generalized representation of the source of a piece of data in the DAQ....">
<polygon fill="white" stroke="#666666" points="132.62,-30.5 7.88,-30.5 7.88,0 132.62,0 132.62,-30.5"/>
<text text-anchor="start" x="15.88" y="-17" font-family="Helvetica,sans-Serif" font-size="10.00">dunedaq::daqdataformats</text>
<text text-anchor="middle" x="70.25" y="-5.75" font-family="Helvetica,sans-Serif" font-size="10.00">::SourceID</text>
</a>
</g>
</g>
<!-- Node4&#45;&gt;Node1 -->
<g id="edge4_Node000001_Node000004" class="edge">
<title>Node4&#45;&gt;Node1</title>
<g id="a_edge4_Node000001_Node000004"><a xlink:title=" ">
<path fill="none" stroke="#9a32cd" stroke-dasharray="5,2" d="M144.48,-15.24C207.38,-15.56 300.46,-16.81 381.5,-21 393.34,-21.61 405.89,-22.48 418.09,-23.43"/>
<polygon fill="#9a32cd" stroke="#9a32cd" points="144.63,-11.74 134.61,-15.2 144.6,-18.74 144.63,-11.74"/>
</a>
</g>
<text text-anchor="middle" x="305.25" y="-22" font-family="Helvetica,sans-Serif" font-size="10.00" fill="grey"> m_sourceid</text>
</g>
<!-- Node4&#45;&gt;Node2 -->
<g id="edge3_Node000002_Node000004" class="edge">
<title>Node4&#45;&gt;Node2</title>
<g id="a_edge3_Node000002_Node000004"><a xlink:title=" ">
<path fill="none" stroke="#9a32cd" stroke-dasharray="5,2" d="M144.36,-30C171.25,-35.42 201.73,-41.57 228.82,-47.03"/>
<polygon fill="#9a32cd" stroke="#9a32cd" points="145.06,-26.57 134.56,-28.02 143.67,-33.43 145.06,-26.57"/>
</a>
</g>
<text text-anchor="middle" x="184.75" y="-44" font-family="Helvetica,sans-Serif" font-size="10.00" fill="grey"> m_sourceid</text>
</g>
</g>
</svg>
