<?xml version="1.0" encoding="UTF-8" standalone="no"?>
<!DOCTYPE svg PUBLIC "-//W3C//DTD SVG 1.1//EN"
 "http://www.w3.org/Graphics/SVG/1.1/DTD/svg11.dtd">
<!-- Generated by graphviz version 9.0.0 (20230911.1827)
 -->
<!-- Title: dunedaq::timing::MasterNodeInterface Pages: 1 -->
<svg width="326pt" height="204pt"
 viewBox="0.00 0.00 325.50 204.25" xmlns="http://www.w3.org/2000/svg" xmlns:xlink="http://www.w3.org/1999/xlink">
<g id="graph0" class="graph" transform="scale(1 1) rotate(0) translate(4 200.25)">
<title>dunedaq::timing::MasterNodeInterface</title>
<!-- Node1 -->
<g id="Node000001" class="node">
<title>Node1</title>
<g id="a_Node000001"><a xlink:title="Base class for timing IO nodes.">
<polygon fill="#999999" stroke="#666666" points="225.25,-85.75 84,-85.75 84,-55.25 225.25,-55.25 225.25,-85.75"/>
<text text-anchor="start" x="92" y="-72.25" font-family="Helvetica,sans-Serif" font-size="10.00">dunedaq::timing::MasterNode</text>
<text text-anchor="middle" x="154.62" y="-61" font-family="Helvetica,sans-Serif" font-size="10.00">Interface</text>
</a>
</g>
</g>
<!-- Node4 -->
<g id="Node000004" class="node">
<title>Node4</title>
<g id="a_Node000004"><a xlink:href="classdunedaq_1_1timing_1_1MasterNode.html" target="_top" xlink:title="Class for PD&#45;II/DUNE master timing nodes.">
<polygon fill="white" stroke="#666666" points="141.25,-19.25 0,-19.25 0,0 141.25,0 141.25,-19.25"/>
<text text-anchor="middle" x="70.62" y="-5.75" font-family="Helvetica,sans-Serif" font-size="10.00">dunedaq::timing::MasterNode</text>
</a>
</g>
</g>
<!-- Node1&#45;&gt;Node4 -->
<g id="edge3_Node000001_Node000004" class="edge">
<title>Node1&#45;&gt;Node4</title>
<g id="a_edge3_Node000001_Node000004"><a xlink:title=" ">
<path fill="none" stroke="#63b8ff" d="M124.52,-48.4C110.46,-38.55 94.46,-27.33 83.57,-19.7"/>
<polygon fill="#63b8ff" stroke="#63b8ff" points="122.42,-51.2 132.62,-54.08 126.44,-45.47 122.42,-51.2"/>
</a>
</g>
</g>
<!-- Node5 -->
<g id="Node000005" class="node">
<title>Node5</title>
<g id="a_Node000005"><a xlink:href="classdunedaq_1_1timing_1_1PDIMasterNode.html" target="_top" xlink:title="Class for PD&#45;I master timing nodes.">
<polygon fill="white" stroke="#666666" points="317.5,-19.25 159.75,-19.25 159.75,0 317.5,0 317.5,-19.25"/>
<text text-anchor="middle" x="238.62" y="-5.75" font-family="Helvetica,sans-Serif" font-size="10.00">dunedaq::timing::PDIMasterNode</text>
</a>
</g>
</g>
<!-- Node1&#45;&gt;Node5 -->
<g id="edge4_Node000001_Node000005" class="edge">
<title>Node1&#45;&gt;Node5</title>
<g id="a_edge4_Node000001_Node000005"><a xlink:title=" ">
<path fill="none" stroke="#63b8ff" d="M184.73,-48.4C198.79,-38.55 214.79,-27.33 225.68,-19.7"/>
<polygon fill="#63b8ff" stroke="#63b8ff" points="182.81,-45.47 176.63,-54.08 186.83,-51.2 182.81,-45.47"/>
</a>
</g>
</g>
<!-- Node2 -->
<g id="Node000002" class="node">
<title>Node2</title>
<g id="a_Node000002"><a xlink:href="classdunedaq_1_1timing_1_1TimingNode.html" target="_top" xlink:title="Base class for timing nodes.">
<polygon fill="white" stroke="#666666" points="224.88,-141 84.38,-141 84.38,-121.75 224.88,-121.75 224.88,-141"/>
<text text-anchor="middle" x="154.62" y="-127.5" font-family="Helvetica,sans-Serif" font-size="10.00">dunedaq::timing::TimingNode</text>
</a>
</g>
</g>
<!-- Node2&#45;&gt;Node1 -->
<g id="edge1_Node000001_Node000002" class="edge">
<title>Node2&#45;&gt;Node1</title>
<g id="a_edge1_Node000001_Node000002"><a xlink:title=" ">
<path fill="none" stroke="#63b8ff" d="M154.62,-110.17C154.62,-102.24 154.62,-93.31 154.62,-86.03"/>
<polygon fill="#63b8ff" stroke="#63b8ff" points="151.13,-109.92 154.63,-119.92 158.13,-109.92 151.13,-109.92"/>
</a>
</g>
</g>
<!-- Node3 -->
<g id="Node000003" class="node">
<title>Node3</title>
<g id="a_Node000003"><a xlink:title=" ">
<polygon fill="white" stroke="#666666" points="185.5,-196.25 123.75,-196.25 123.75,-177 185.5,-177 185.5,-196.25"/>
<text text-anchor="middle" x="154.62" y="-182.75" font-family="Helvetica,sans-Serif" font-size="10.00">uhal::Node</text>
</a>
</g>
</g>
<!-- Node3&#45;&gt;Node2 -->
<g id="edge2_Node000002_Node000003" class="edge">
<title>Node3&#45;&gt;Node2</title>
<g id="a_edge2_Node000002_Node000003"><a xlink:title=" ">
<path fill="none" stroke="#63b8ff" d="M154.62,-165.38C154.62,-157.09 154.62,-147.92 154.62,-141.36"/>
<polygon fill="#63b8ff" stroke="#63b8ff" points="151.13,-165.32 154.63,-175.32 158.13,-165.32 151.13,-165.32"/>
</a>
</g>
</g>
</g>
</svg>
