<?xml version="1.0" encoding="UTF-8" standalone="no"?>
<!DOCTYPE svg PUBLIC "-//W3C//DTD SVG 1.1//EN"
 "http://www.w3.org/Graphics/SVG/1.1/DTD/svg11.dtd">
<!-- Generated by graphviz version 9.0.0 (20230911.1827)
 -->
<!-- Title: dunedaq::trigger::TPProcessor Pages: 1 -->
<svg width="575pt" height="100pt"
 viewBox="0.00 0.00 575.25 100.12" xmlns="http://www.w3.org/2000/svg" xmlns:xlink="http://www.w3.org/1999/xlink">
<g id="graph0" class="graph" transform="scale(1 1) rotate(0) translate(4 96.12)">
<title>dunedaq::trigger::TPProcessor</title>
<!-- Node1 -->
<g id="Node000001" class="node">
<title>Node1</title>
<g id="a_Node000001"><a xlink:title=" ">
<polygon fill="#999999" stroke="#666666" points="567.25,-39.88 421.5,-39.88 421.5,-20.62 567.25,-20.62 567.25,-39.88"/>
<text text-anchor="middle" x="494.38" y="-26.38" font-family="Helvetica,sans-Serif" font-size="10.00">dunedaq::trigger::TPProcessor</text>
</a>
</g>
</g>
<!-- Node2 -->
<g id="Node000002" class="node">
<title>Node2</title>
<g id="a_Node000002"><a xlink:href="classdunedaq_1_1readoutlibs_1_1TaskRawDataProcessorModel.html" target="_top" xlink:title=" ">
<polygon fill="white" stroke="#666666" points="384.5,-83.12 229,-83.12 229,-41.38 384.5,-41.38 384.5,-83.12"/>
<text text-anchor="start" x="237" y="-69.62" font-family="Helvetica,sans-Serif" font-size="10.00">dunedaq::readoutlibs</text>
<text text-anchor="start" x="237" y="-58.38" font-family="Helvetica,sans-Serif" font-size="10.00">::TaskRawDataProcessorModel</text>
<text text-anchor="middle" x="306.75" y="-47.12" font-family="Helvetica,sans-Serif" font-size="10.00">&lt; TriggerPrimitiveTypeAdapter &gt;</text>
</a>
</g>
</g>
<!-- Node2&#45;&gt;Node1 -->
<g id="edge1_Node000001_Node000002" class="edge">
<title>Node2&#45;&gt;Node1</title>
<g id="a_edge1_Node000001_Node000002"><a xlink:title=" ">
<path fill="none" stroke="#63b8ff" d="M395.92,-47.05C409.15,-44.77 422.5,-42.47 434.9,-40.33"/>
<polygon fill="#63b8ff" stroke="#63b8ff" points="395.61,-43.55 386.35,-48.7 396.8,-50.45 395.61,-43.55"/>
</a>
</g>
</g>
<!-- Node3 -->
<g id="Node000003" class="node">
<title>Node3</title>
<g id="a_Node000003"><a xlink:href="classdunedaq_1_1readoutlibs_1_1RawDataProcessorConcept.html" target="_top" xlink:title=" ">
<polygon fill="white" stroke="#666666" points="140.5,-92.12 0,-92.12 0,-50.38 140.5,-50.38 140.5,-92.12"/>
<text text-anchor="start" x="8" y="-78.62" font-family="Helvetica,sans-Serif" font-size="10.00">dunedaq::readoutlibs</text>
<text text-anchor="start" x="8" y="-67.38" font-family="Helvetica,sans-Serif" font-size="10.00">::RawDataProcessorConcept</text>
<text text-anchor="middle" x="70.25" y="-56.12" font-family="Helvetica,sans-Serif" font-size="10.00">&lt; ReadoutType &gt;</text>
</a>
</g>
</g>
<!-- Node3&#45;&gt;Node2 -->
<g id="edge2_Node000002_Node000003" class="edge">
<title>Node3&#45;&gt;Node2</title>
<g id="a_edge2_Node000002_Node000003"><a xlink:title=" ">
<path fill="none" stroke="#63b8ff" d="M152.15,-68.15C176.89,-67.2 204.02,-66.15 228.5,-65.21"/>
<polygon fill="#63b8ff" stroke="#63b8ff" points="152.34,-64.63 142.49,-68.52 152.61,-71.63 152.34,-64.63"/>
</a>
</g>
</g>
<!-- Node4 -->
<g id="Node000004" class="node">
<title>Node4</title>
<g id="a_Node000004"><a xlink:href="structdunedaq_1_1daqdataformats_1_1SourceID.html" target="_top" xlink:title="SourceID is a generalized representation of the source of a piece of data in the DAQ....">
<polygon fill="white" stroke="#666666" points="132.62,-30.5 7.88,-30.5 7.88,0 132.62,0 132.62,-30.5"/>
<text text-anchor="start" x="15.88" y="-17" font-family="Helvetica,sans-Serif" font-size="10.00">dunedaq::daqdataformats</text>
<text text-anchor="middle" x="70.25" y="-5.75" font-family="Helvetica,sans-Serif" font-size="10.00">::SourceID</text>
</a>
</g>
</g>
<!-- Node4&#45;&gt;Node1 -->
<g id="edge4_Node000001_Node000004" class="edge">
<title>Node4&#45;&gt;Node1</title>
<g id="a_edge4_Node000001_Node000004"><a xlink:title=" ">
<path fill="none" stroke="#9a32cd" stroke-dasharray="5,2" d="M144.6,-15.22C208.11,-15.53 302.42,-16.76 384.5,-21 396.34,-21.61 408.89,-22.47 421.09,-23.43"/>
<polygon fill="#9a32cd" stroke="#9a32cd" points="144.63,-11.72 134.62,-15.18 144.61,-18.72 144.63,-11.72"/>
</a>
</g>
<text text-anchor="middle" x="306.75" y="-22" font-family="Helvetica,sans-Serif" font-size="10.00" fill="grey"> m_sourceid</text>
</g>
<!-- Node4&#45;&gt;Node2 -->
<g id="edge3_Node000002_Node000004" class="edge">
<title>Node4&#45;&gt;Node2</title>
<g id="a_edge3_Node000002_Node000004"><a xlink:title=" ">
<path fill="none" stroke="#9a32cd" stroke-dasharray="5,2" d="M144.12,-29.85C170.94,-35.23 201.41,-41.34 228.6,-46.79"/>
<polygon fill="#9a32cd" stroke="#9a32cd" points="144.84,-26.43 134.35,-27.9 143.46,-33.29 144.84,-26.43"/>
</a>
</g>
<text text-anchor="middle" x="184.75" y="-44" font-family="Helvetica,sans-Serif" font-size="10.00" fill="grey"> m_sourceid</text>
</g>
</g>
</svg>
