<?xml version="1.0" encoding="UTF-8" standalone="no"?>
<!DOCTYPE svg PUBLIC "-//W3C//DTD SVG 1.1//EN"
 "http://www.w3.org/Graphics/SVG/1.1/DTD/svg11.dtd">
<!-- Generated by graphviz version 9.0.0 (20230911.1827)
 -->
<!-- Title: dunedaq::appdal::FakeDataApplication Pages: 1 -->
<svg width="317pt" height="337pt"
 viewBox="0.00 0.00 317.12 337.25" xmlns="http://www.w3.org/2000/svg" xmlns:xlink="http://www.w3.org/1999/xlink">
<g id="graph0" class="graph" transform="scale(1 1) rotate(0) translate(4 333.25)">
<title>dunedaq::appdal::FakeDataApplication</title>
<!-- Node1 -->
<g id="Node000001" class="node">
<title>Node1</title>
<g id="a_Node000001"><a xlink:title=" ">
<polygon fill="#999999" stroke="#666666" points="224.62,-30.5 92.38,-30.5 92.38,0 224.62,0 224.62,-30.5"/>
<text text-anchor="start" x="100.38" y="-17" font-family="Helvetica,sans-Serif" font-size="10.00">dunedaq::appdal::FakeData</text>
<text text-anchor="middle" x="158.5" y="-5.75" font-family="Helvetica,sans-Serif" font-size="10.00">Application</text>
</a>
</g>
</g>
<!-- Node2 -->
<g id="Node000002" class="node">
<title>Node2</title>
<g id="a_Node000002"><a xlink:href="classdunedaq_1_1coredal_1_1ResourceSetAND.html" target="_top" xlink:title=" ">
<polygon fill="white" stroke="#666666" points="173.75,-97 39.25,-97 39.25,-66.5 173.75,-66.5 173.75,-97"/>
<text text-anchor="start" x="47.25" y="-83.5" font-family="Helvetica,sans-Serif" font-size="10.00">dunedaq::coredal::Resource</text>
<text text-anchor="middle" x="106.5" y="-72.25" font-family="Helvetica,sans-Serif" font-size="10.00">SetAND</text>
</a>
</g>
</g>
<!-- Node2&#45;&gt;Node1 -->
<g id="edge1_Node000001_Node000002" class="edge">
<title>Node2&#45;&gt;Node1</title>
<g id="a_edge1_Node000001_Node000002"><a xlink:title=" ">
<path fill="none" stroke="#63b8ff" d="M119.27,-56.79C125.86,-48.07 133.85,-38.49 140.99,-30.83"/>
<polygon fill="#63b8ff" stroke="#63b8ff" points="116.44,-54.73 113.42,-64.89 122.12,-58.83 116.44,-54.73"/>
</a>
</g>
</g>
<!-- Node2&#45;&gt;Node1 -->
<g id="edge15_Node000001_Node000002" class="edge">
<title>Node2&#45;&gt;Node1</title>
<g id="a_edge15_Node000001_Node000002"><a xlink:title=" ">
<path fill="none" stroke="#63b8ff" d="M131.64,-57.63C139.34,-48.69 147.12,-38.74 152.5,-30.83"/>
<polygon fill="#63b8ff" stroke="#63b8ff" points="129.12,-55.2 125.07,-64.99 134.34,-59.86 129.12,-55.2"/>
</a>
</g>
</g>
<!-- Node3 -->
<g id="Node000003" class="node">
<title>Node3</title>
<g id="a_Node000003"><a xlink:href="classdunedaq_1_1coredal_1_1ResourceSet.html" target="_top" xlink:title=" ">
<polygon fill="white" stroke="#666666" points="153.25,-157.88 3.75,-157.88 3.75,-138.62 153.25,-138.62 153.25,-157.88"/>
<text text-anchor="middle" x="78.5" y="-144.38" font-family="Helvetica,sans-Serif" font-size="10.00">dunedaq::coredal::ResourceSet</text>
</a>
</g>
</g>
<!-- Node3&#45;&gt;Node2 -->
<g id="edge2_Node000002_Node000003" class="edge">
<title>Node3&#45;&gt;Node2</title>
<g id="a_edge2_Node000002_Node000003"><a xlink:title=" ">
<path fill="none" stroke="#63b8ff" d="M80.79,-127.52C84.27,-117.7 89.51,-106.05 94.55,-97.09"/>
<polygon fill="#63b8ff" stroke="#63b8ff" points="77.52,-126.25 77.98,-136.83 84.22,-128.27 77.52,-126.25"/>
</a>
</g>
</g>
<!-- Node3&#45;&gt;Node2 -->
<g id="edge9_Node000002_Node000003" class="edge">
<title>Node3&#45;&gt;Node2</title>
<g id="a_edge9_Node000002_Node000003"><a xlink:title=" ">
<path fill="none" stroke="#63b8ff" d="M92.84,-128.48C98.06,-118.47 103.17,-106.34 106,-97.09"/>
<polygon fill="#63b8ff" stroke="#63b8ff" points="89.92,-126.55 87.99,-136.97 95.99,-130.02 89.92,-126.55"/>
</a>
</g>
</g>
<!-- Node4 -->
<g id="Node000004" class="node">
<title>Node4</title>
<g id="a_Node000004"><a xlink:href="classdunedaq_1_1coredal_1_1ResourceBase.html" target="_top" xlink:title=" ">
<polygon fill="white" stroke="#666666" points="157,-218.75 0,-218.75 0,-199.5 157,-199.5 157,-218.75"/>
<text text-anchor="middle" x="78.5" y="-205.25" font-family="Helvetica,sans-Serif" font-size="10.00">dunedaq::coredal::ResourceBase</text>
</a>
</g>
</g>
<!-- Node4&#45;&gt;Node3 -->
<g id="edge3_Node000003_Node000004" class="edge">
<title>Node4&#45;&gt;Node3</title>
<g id="a_edge3_Node000003_Node000004"><a xlink:title=" ">
<path fill="none" stroke="#63b8ff" d="M72.06,-188.03C71.37,-177.92 71.84,-166.17 73.47,-158.28"/>
<polygon fill="#63b8ff" stroke="#63b8ff" points="68.56,-188.21 73.3,-197.68 75.5,-187.32 68.56,-188.21"/>
</a>
</g>
</g>
<!-- Node4&#45;&gt;Node3 -->
<g id="edge8_Node000003_Node000004" class="edge">
<title>Node4&#45;&gt;Node3</title>
<g id="a_edge8_Node000003_Node000004"><a xlink:title=" ">
<path fill="none" stroke="#63b8ff" d="M84.94,-188.03C85.63,-177.92 85.16,-166.17 83.53,-158.28"/>
<polygon fill="#63b8ff" stroke="#63b8ff" points="81.5,-187.32 83.7,-197.68 88.44,-188.21 81.5,-187.32"/>
</a>
</g>
</g>
<!-- Node5 -->
<g id="Node000005" class="node">
<title>Node5</title>
<g id="a_Node000005"><a xlink:href="classdunedaq_1_1coredal_1_1Component.html" target="_top" xlink:title=" ">
<polygon fill="white" stroke="#666666" points="149.88,-274 7.12,-274 7.12,-254.75 149.88,-254.75 149.88,-274"/>
<text text-anchor="middle" x="78.5" y="-260.5" font-family="Helvetica,sans-Serif" font-size="10.00">dunedaq::coredal::Component</text>
</a>
</g>
</g>
<!-- Node5&#45;&gt;Node4 -->
<g id="edge4_Node000004_Node000005" class="edge">
<title>Node5&#45;&gt;Node4</title>
<g id="a_edge4_Node000004_Node000005"><a xlink:title=" ">
<path fill="none" stroke="#63b8ff" d="M71.94,-243.42C71.45,-235.05 71.9,-225.75 73.29,-219.11"/>
<polygon fill="#63b8ff" stroke="#63b8ff" points="68.44,-243.59 73.15,-253.08 75.38,-242.72 68.44,-243.59"/>
</a>
</g>
</g>
<!-- Node5&#45;&gt;Node4 -->
<g id="edge7_Node000004_Node000005" class="edge">
<title>Node5&#45;&gt;Node4</title>
<g id="a_edge7_Node000004_Node000005"><a xlink:title=" ">
<path fill="none" stroke="#63b8ff" d="M85.06,-243.42C85.55,-235.05 85.1,-225.75 83.71,-219.11"/>
<polygon fill="#63b8ff" stroke="#63b8ff" points="81.62,-242.72 83.85,-253.08 88.56,-243.59 81.62,-242.72"/>
</a>
</g>
</g>
<!-- Node6 -->
<g id="Node000006" class="node">
<title>Node6</title>
<g id="a_Node000006"><a xlink:href="classdunedaq_1_1conffwk_1_1DalObject.html" target="_top" xlink:title="The base class for any generated DAL object.">
<polygon fill="white" stroke="#666666" points="227.62,-329.25 89.38,-329.25 89.38,-310 227.62,-310 227.62,-329.25"/>
<text text-anchor="middle" x="158.5" y="-315.75" font-family="Helvetica,sans-Serif" font-size="10.00">dunedaq::conffwk::DalObject</text>
</a>
</g>
</g>
<!-- Node6&#45;&gt;Node5 -->
<g id="edge5_Node000005_Node000006" class="edge">
<title>Node6&#45;&gt;Node5</title>
<g id="a_edge5_Node000005_Node000006"><a xlink:title=" ">
<path fill="none" stroke="#63b8ff" d="M130.08,-303.79C114.75,-294.3 97.06,-282.31 86.68,-274.27"/>
<polygon fill="#63b8ff" stroke="#63b8ff" points="128.04,-306.64 138.42,-308.81 131.66,-300.65 128.04,-306.64"/>
</a>
</g>
</g>
<!-- Node6&#45;&gt;Node5 -->
<g id="edge6_Node000005_Node000006" class="edge">
<title>Node6&#45;&gt;Node5</title>
<g id="a_edge6_Node000005_Node000006"><a xlink:title=" ">
<path fill="none" stroke="#63b8ff" d="M141.25,-303.01C128.26,-293.72 110.73,-282.27 97.36,-274.45"/>
<polygon fill="#63b8ff" stroke="#63b8ff" points="138.81,-305.56 148.93,-308.69 142.97,-299.93 138.81,-305.56"/>
</a>
</g>
</g>
<!-- Node8 -->
<g id="Node000008" class="node">
<title>Node8</title>
<g id="a_Node000008"><a xlink:href="classdunedaq_1_1coredal_1_1Application.html" target="_top" xlink:title=" ">
<polygon fill="white" stroke="#666666" points="309.12,-274 167.88,-274 167.88,-254.75 309.12,-254.75 309.12,-274"/>
<text text-anchor="middle" x="238.5" y="-260.5" font-family="Helvetica,sans-Serif" font-size="10.00">dunedaq::coredal::Application</text>
</a>
</g>
</g>
<!-- Node6&#45;&gt;Node8 -->
<g id="edge12_Node000008_Node000006" class="edge">
<title>Node6&#45;&gt;Node8</title>
<g id="a_edge12_Node000008_Node000006"><a xlink:title=" ">
<path fill="none" stroke="#63b8ff" d="M175.75,-303.01C188.74,-293.72 206.27,-282.27 219.64,-274.45"/>
<polygon fill="#63b8ff" stroke="#63b8ff" points="174.03,-299.93 168.07,-308.69 178.19,-305.56 174.03,-299.93"/>
</a>
</g>
</g>
<!-- Node6&#45;&gt;Node8 -->
<g id="edge13_Node000008_Node000006" class="edge">
<title>Node6&#45;&gt;Node8</title>
<g id="a_edge13_Node000008_Node000006"><a xlink:title=" ">
<path fill="none" stroke="#63b8ff" d="M186.92,-303.79C202.25,-294.3 219.94,-282.31 230.32,-274.27"/>
<polygon fill="#63b8ff" stroke="#63b8ff" points="185.34,-300.65 178.58,-308.81 188.96,-306.64 185.34,-300.65"/>
</a>
</g>
</g>
<!-- Node7 -->
<g id="Node000007" class="node">
<title>Node7</title>
<g id="a_Node000007"><a xlink:href="classdunedaq_1_1appdal_1_1SmartDaqApplication.html" target="_top" xlink:title=" ">
<polygon fill="white" stroke="#666666" points="305.38,-163.5 171.62,-163.5 171.62,-133 305.38,-133 305.38,-163.5"/>
<text text-anchor="start" x="179.62" y="-150" font-family="Helvetica,sans-Serif" font-size="10.00">dunedaq::appdal::SmartDaq</text>
<text text-anchor="middle" x="238.5" y="-138.75" font-family="Helvetica,sans-Serif" font-size="10.00">Application</text>
</a>
</g>
</g>
<!-- Node7&#45;&gt;Node1 -->
<g id="edge10_Node000001_Node000007" class="edge">
<title>Node7&#45;&gt;Node1</title>
<g id="a_edge10_Node000001_Node000007"><a xlink:title=" ">
<path fill="none" stroke="#63b8ff" d="M218.72,-123.59C200.09,-96.6 173.94,-53.3 162.97,-30.83"/>
<polygon fill="#63b8ff" stroke="#63b8ff" points="215.68,-125.36 224.32,-131.5 221.39,-121.31 215.68,-125.36"/>
</a>
</g>
</g>
<!-- Node7&#45;&gt;Node1 -->
<g id="edge16_Node000001_Node000007" class="edge">
<title>Node7&#45;&gt;Node1</title>
<g id="a_edge16_Node000001_Node000007"><a xlink:title=" ">
<path fill="none" stroke="#63b8ff" d="M228.82,-122.52C214.35,-95.46 188.1,-53.01 171.85,-30.83"/>
<polygon fill="#63b8ff" stroke="#63b8ff" points="225.69,-124.09 233.37,-131.38 231.91,-120.89 225.69,-124.09"/>
</a>
</g>
</g>
<!-- Node8&#45;&gt;Node7 -->
<g id="edge11_Node000007_Node000008" class="edge">
<title>Node8&#45;&gt;Node7</title>
<g id="a_edge11_Node000007_Node000008"><a xlink:title=" ">
<path fill="none" stroke="#63b8ff" d="M233.19,-243.08C231.08,-220.29 231.29,-183.87 233.82,-163.77"/>
<polygon fill="#63b8ff" stroke="#63b8ff" points="229.71,-243.45 234.46,-252.92 236.66,-242.55 229.71,-243.45"/>
</a>
</g>
</g>
<!-- Node8&#45;&gt;Node7 -->
<g id="edge14_Node000007_Node000008" class="edge">
<title>Node8&#45;&gt;Node7</title>
<g id="a_edge14_Node000007_Node000008"><a xlink:title=" ">
<path fill="none" stroke="#63b8ff" d="M243.81,-243.08C245.92,-220.29 245.71,-183.87 243.18,-163.77"/>
<polygon fill="#63b8ff" stroke="#63b8ff" points="240.34,-242.55 242.54,-252.92 247.29,-243.45 240.34,-242.55"/>
</a>
</g>
</g>
</g>
</svg>
