<?xml version="1.0" encoding="UTF-8" standalone="no"?>
<!DOCTYPE svg PUBLIC "-//W3C//DTD SVG 1.1//EN"
 "http://www.w3.org/Graphics/SVG/1.1/DTD/svg11.dtd">
<!-- Generated by graphviz version 9.0.0 (20230911.1827)
 -->
<!-- Title: dunedaq::readoutlibs::LatencyBufferConcept&lt; T &gt; Pages: 1 -->
<svg width="717pt" height="88pt"
 viewBox="0.00 0.00 717.00 87.50" xmlns="http://www.w3.org/2000/svg" xmlns:xlink="http://www.w3.org/1999/xlink">
<g id="graph0" class="graph" transform="scale(1 1) rotate(0) translate(4 83.5)">
<title>dunedaq::readoutlibs::LatencyBufferConcept&lt; T &gt;</title>
<!-- Node1 -->
<g id="Node000001" class="node">
<title>Node1</title>
<g id="a_Node000001"><a xlink:title=" ">
<polygon fill="#999999" stroke="#666666" points="139,-54.5 0,-54.5 0,-24 139,-24 139,-54.5"/>
<text text-anchor="start" x="8" y="-41" font-family="Helvetica,sans-Serif" font-size="10.00">dunedaq::readoutlibs</text>
<text text-anchor="middle" x="69.5" y="-29.75" font-family="Helvetica,sans-Serif" font-size="10.00">::LatencyBufferConcept&lt; T &gt;</text>
</a>
</g>
</g>
<!-- Node2 -->
<g id="Node000002" class="node">
<title>Node2</title>
<g id="a_Node000002"><a xlink:href="structdunedaq_1_1readoutlibs_1_1IterableQueueModel.html" target="_top" xlink:title=" ">
<polygon fill="white" stroke="#666666" points="322.62,-79.5 192.62,-79.5 192.62,-49 322.62,-49 322.62,-79.5"/>
<text text-anchor="start" x="200.62" y="-66" font-family="Helvetica,sans-Serif" font-size="10.00">dunedaq::readoutlibs</text>
<text text-anchor="middle" x="257.62" y="-54.75" font-family="Helvetica,sans-Serif" font-size="10.00">::IterableQueueModel&lt; T &gt;</text>
</a>
</g>
</g>
<!-- Node1&#45;&gt;Node2 -->
<g id="edge1_Node000001_Node000002" class="edge">
<title>Node1&#45;&gt;Node2</title>
<g id="a_edge1_Node000001_Node000002"><a xlink:title=" ">
<path fill="none" stroke="#63b8ff" d="M150.36,-49.98C164.31,-51.85 178.67,-53.78 192.14,-55.59"/>
<polygon fill="#63b8ff" stroke="#63b8ff" points="151.15,-46.55 140.78,-48.69 150.22,-53.49 151.15,-46.55"/>
</a>
</g>
</g>
<!-- Node5 -->
<g id="Node000005" class="node">
<title>Node5</title>
<g id="a_Node000005"><a xlink:href="classdunedaq_1_1readoutlibs_1_1SkipListLatencyBufferModel.html" target="_top" xlink:title=" ">
<polygon fill="white" stroke="#666666" points="340.25,-30.5 175,-30.5 175,0 340.25,0 340.25,-30.5"/>
<text text-anchor="start" x="183" y="-17" font-family="Helvetica,sans-Serif" font-size="10.00">dunedaq::readoutlibs</text>
<text text-anchor="middle" x="257.62" y="-5.75" font-family="Helvetica,sans-Serif" font-size="10.00">::SkipListLatencyBufferModel&lt; T &gt;</text>
</a>
</g>
</g>
<!-- Node1&#45;&gt;Node5 -->
<g id="edge4_Node000001_Node000005" class="edge">
<title>Node1&#45;&gt;Node5</title>
<g id="a_edge4_Node000001_Node000005"><a xlink:title=" ">
<path fill="none" stroke="#63b8ff" d="M150.46,-28.94C158.45,-27.91 166.57,-26.86 174.58,-25.83"/>
<polygon fill="#63b8ff" stroke="#63b8ff" points="150.25,-25.44 140.78,-30.19 151.14,-32.38 150.25,-25.44"/>
</a>
</g>
</g>
<!-- Node3 -->
<g id="Node000003" class="node">
<title>Node3</title>
<g id="a_Node000003"><a xlink:href="classdunedaq_1_1readoutlibs_1_1BinarySearchQueueModel.html" target="_top" xlink:title=" ">
<polygon fill="white" stroke="#666666" points="531.75,-79.5 376.25,-79.5 376.25,-49 531.75,-49 531.75,-79.5"/>
<text text-anchor="start" x="384.25" y="-66" font-family="Helvetica,sans-Serif" font-size="10.00">dunedaq::readoutlibs</text>
<text text-anchor="middle" x="454" y="-54.75" font-family="Helvetica,sans-Serif" font-size="10.00">::BinarySearchQueueModel&lt; T &gt;</text>
</a>
</g>
</g>
<!-- Node2&#45;&gt;Node3 -->
<g id="edge2_Node000002_Node000003" class="edge">
<title>Node2&#45;&gt;Node3</title>
<g id="a_edge2_Node000002_Node000003"><a xlink:title=" ">
<path fill="none" stroke="#63b8ff" d="M334.36,-64.25C348,-64.25 362.22,-64.25 375.89,-64.25"/>
<polygon fill="#63b8ff" stroke="#63b8ff" points="334.59,-60.75 324.59,-64.25 334.59,-67.75 334.59,-60.75"/>
</a>
</g>
</g>
<!-- Node4 -->
<g id="Node000004" class="node">
<title>Node4</title>
<g id="a_Node000004"><a xlink:href="classdunedaq_1_1readoutlibs_1_1FixedRateQueueModel.html" target="_top" xlink:title=" ">
<polygon fill="white" stroke="#666666" points="709,-79.5 567.75,-79.5 567.75,-49 709,-49 709,-79.5"/>
<text text-anchor="start" x="575.75" y="-66" font-family="Helvetica,sans-Serif" font-size="10.00">dunedaq::readoutlibs</text>
<text text-anchor="middle" x="638.38" y="-54.75" font-family="Helvetica,sans-Serif" font-size="10.00">::FixedRateQueueModel&lt; T &gt;</text>
</a>
</g>
</g>
<!-- Node3&#45;&gt;Node4 -->
<g id="edge3_Node000003_Node000004" class="edge">
<title>Node3&#45;&gt;Node4</title>
<g id="a_edge3_Node000003_Node000004"><a xlink:title=" ">
<path fill="none" stroke="#63b8ff" d="M543.45,-64.25C551.53,-64.25 559.64,-64.25 567.52,-64.25"/>
<polygon fill="#63b8ff" stroke="#63b8ff" points="543.59,-60.75 533.59,-64.25 543.59,-67.75 543.59,-60.75"/>
</a>
</g>
</g>
</g>
</svg>
