<?xml version="1.0" encoding="UTF-8" standalone="no"?>
<!DOCTYPE svg PUBLIC "-//W3C//DTD SVG 1.1//EN"
 "http://www.w3.org/Graphics/SVG/1.1/DTD/svg11.dtd">
<!-- Generated by graphviz version 9.0.0 (20230911.1827)
 -->
<!-- Title: dunedaq::appdal::HSI2TCTranslatorConf Pages: 1 -->
<svg width="197pt" height="138pt"
 viewBox="0.00 0.00 197.25 137.75" xmlns="http://www.w3.org/2000/svg" xmlns:xlink="http://www.w3.org/1999/xlink">
<g id="graph0" class="graph" transform="scale(1 1) rotate(0) translate(4 133.75)">
<title>dunedaq::appdal::HSI2TCTranslatorConf</title>
<!-- Node1 -->
<g id="Node000001" class="node">
<title>Node1</title>
<g id="a_Node000001"><a xlink:title=" ">
<polygon fill="#999999" stroke="#666666" points="189.25,-19.25 0,-19.25 0,0 189.25,0 189.25,-19.25"/>
<text text-anchor="middle" x="94.62" y="-5.75" font-family="Helvetica,sans-Serif" font-size="10.00">dunedaq::appdal::HSI2TCTranslatorConf</text>
</a>
</g>
</g>
<!-- Node2 -->
<g id="Node000002" class="node">
<title>Node2</title>
<g id="a_Node000002"><a xlink:href="classdunedaq_1_1appdal_1_1DataReaderConf.html" target="_top" xlink:title=" ">
<polygon fill="white" stroke="#666666" points="175.38,-74.5 13.88,-74.5 13.88,-55.25 175.38,-55.25 175.38,-74.5"/>
<text text-anchor="middle" x="94.62" y="-61" font-family="Helvetica,sans-Serif" font-size="10.00">dunedaq::appdal::DataReaderConf</text>
</a>
</g>
</g>
<!-- Node2&#45;&gt;Node1 -->
<g id="edge1_Node000001_Node000002" class="edge">
<title>Node2&#45;&gt;Node1</title>
<g id="a_edge1_Node000001_Node000002"><a xlink:title=" ">
<path fill="none" stroke="#63b8ff" d="M88.07,-43.92C87.58,-35.55 88.03,-26.25 89.42,-19.61"/>
<polygon fill="#63b8ff" stroke="#63b8ff" points="84.56,-44.09 89.27,-53.58 91.51,-43.22 84.56,-44.09"/>
</a>
</g>
</g>
<!-- Node2&#45;&gt;Node1 -->
<g id="edge4_Node000001_Node000002" class="edge">
<title>Node2&#45;&gt;Node1</title>
<g id="a_edge4_Node000001_Node000002"><a xlink:title=" ">
<path fill="none" stroke="#63b8ff" d="M101.18,-43.92C101.67,-35.55 101.22,-26.25 99.83,-19.61"/>
<polygon fill="#63b8ff" stroke="#63b8ff" points="97.74,-43.22 99.98,-53.58 104.69,-44.09 97.74,-43.22"/>
</a>
</g>
</g>
<!-- Node3 -->
<g id="Node000003" class="node">
<title>Node3</title>
<g id="a_Node000003"><a xlink:href="classdunedaq_1_1conffwk_1_1DalObject.html" target="_top" xlink:title="The base class for any generated DAL object.">
<polygon fill="white" stroke="#666666" points="163.75,-129.75 25.5,-129.75 25.5,-110.5 163.75,-110.5 163.75,-129.75"/>
<text text-anchor="middle" x="94.62" y="-116.25" font-family="Helvetica,sans-Serif" font-size="10.00">dunedaq::conffwk::DalObject</text>
</a>
</g>
</g>
<!-- Node3&#45;&gt;Node2 -->
<g id="edge2_Node000002_Node000003" class="edge">
<title>Node3&#45;&gt;Node2</title>
<g id="a_edge2_Node000002_Node000003"><a xlink:title=" ">
<path fill="none" stroke="#63b8ff" d="M88.07,-99.17C87.58,-90.8 88.03,-81.5 89.42,-74.86"/>
<polygon fill="#63b8ff" stroke="#63b8ff" points="84.56,-99.34 89.27,-108.83 91.51,-98.47 84.56,-99.34"/>
</a>
</g>
</g>
<!-- Node3&#45;&gt;Node2 -->
<g id="edge3_Node000002_Node000003" class="edge">
<title>Node3&#45;&gt;Node2</title>
<g id="a_edge3_Node000002_Node000003"><a xlink:title=" ">
<path fill="none" stroke="#63b8ff" d="M101.18,-99.17C101.67,-90.8 101.22,-81.5 99.83,-74.86"/>
<polygon fill="#63b8ff" stroke="#63b8ff" points="97.74,-98.47 99.98,-108.83 104.69,-99.34 97.74,-98.47"/>
</a>
</g>
</g>
</g>
</svg>
