<?xml version="1.0" encoding="UTF-8" standalone="no"?>
<!DOCTYPE svg PUBLIC "-//W3C//DTD SVG 1.1//EN"
 "http://www.w3.org/Graphics/SVG/1.1/DTD/svg11.dtd">
<!-- Generated by graphviz version 9.0.0 (20230911.1827)
 -->
<!-- Title: dunedaq::coredal::Segment Pages: 1 -->
<svg width="165pt" height="193pt"
 viewBox="0.00 0.00 165.00 193.00" xmlns="http://www.w3.org/2000/svg" xmlns:xlink="http://www.w3.org/1999/xlink">
<g id="graph0" class="graph" transform="scale(1 1) rotate(0) translate(4 189)">
<title>dunedaq::coredal::Segment</title>
<!-- Node1 -->
<g id="Node000001" class="node">
<title>Node1</title>
<g id="a_Node000001"><a xlink:title=" ">
<polygon fill="#999999" stroke="#666666" points="144.62,-19.25 12.38,-19.25 12.38,0 144.62,0 144.62,-19.25"/>
<text text-anchor="middle" x="78.5" y="-5.75" font-family="Helvetica,sans-Serif" font-size="10.00">dunedaq::coredal::Segment</text>
</a>
</g>
</g>
<!-- Node2 -->
<g id="Node000002" class="node">
<title>Node2</title>
<g id="a_Node000002"><a xlink:href="classdunedaq_1_1coredal_1_1ResourceBase.html" target="_top" xlink:title=" ">
<polygon fill="white" stroke="#666666" points="157,-74.5 0,-74.5 0,-55.25 157,-55.25 157,-74.5"/>
<text text-anchor="middle" x="78.5" y="-61" font-family="Helvetica,sans-Serif" font-size="10.00">dunedaq::coredal::ResourceBase</text>
</a>
</g>
</g>
<!-- Node2&#45;&gt;Node1 -->
<g id="edge1_Node000001_Node000002" class="edge">
<title>Node2&#45;&gt;Node1</title>
<g id="a_edge1_Node000001_Node000002"><a xlink:title=" ">
<path fill="none" stroke="#63b8ff" d="M71.94,-43.92C71.45,-35.55 71.9,-26.25 73.29,-19.61"/>
<polygon fill="#63b8ff" stroke="#63b8ff" points="68.44,-44.09 73.15,-53.58 75.38,-43.22 68.44,-44.09"/>
</a>
</g>
</g>
<!-- Node2&#45;&gt;Node1 -->
<g id="edge6_Node000001_Node000002" class="edge">
<title>Node2&#45;&gt;Node1</title>
<g id="a_edge6_Node000001_Node000002"><a xlink:title=" ">
<path fill="none" stroke="#63b8ff" d="M85.06,-43.92C85.55,-35.55 85.1,-26.25 83.71,-19.61"/>
<polygon fill="#63b8ff" stroke="#63b8ff" points="81.62,-43.22 83.85,-53.58 88.56,-44.09 81.62,-43.22"/>
</a>
</g>
</g>
<!-- Node3 -->
<g id="Node000003" class="node">
<title>Node3</title>
<g id="a_Node000003"><a xlink:href="classdunedaq_1_1coredal_1_1Component.html" target="_top" xlink:title=" ">
<polygon fill="white" stroke="#666666" points="149.88,-129.75 7.12,-129.75 7.12,-110.5 149.88,-110.5 149.88,-129.75"/>
<text text-anchor="middle" x="78.5" y="-116.25" font-family="Helvetica,sans-Serif" font-size="10.00">dunedaq::coredal::Component</text>
</a>
</g>
</g>
<!-- Node3&#45;&gt;Node2 -->
<g id="edge2_Node000002_Node000003" class="edge">
<title>Node3&#45;&gt;Node2</title>
<g id="a_edge2_Node000002_Node000003"><a xlink:title=" ">
<path fill="none" stroke="#63b8ff" d="M71.94,-99.17C71.45,-90.8 71.9,-81.5 73.29,-74.86"/>
<polygon fill="#63b8ff" stroke="#63b8ff" points="68.44,-99.34 73.15,-108.83 75.38,-98.47 68.44,-99.34"/>
</a>
</g>
</g>
<!-- Node3&#45;&gt;Node2 -->
<g id="edge5_Node000002_Node000003" class="edge">
<title>Node3&#45;&gt;Node2</title>
<g id="a_edge5_Node000002_Node000003"><a xlink:title=" ">
<path fill="none" stroke="#63b8ff" d="M85.06,-99.17C85.55,-90.8 85.1,-81.5 83.71,-74.86"/>
<polygon fill="#63b8ff" stroke="#63b8ff" points="81.62,-98.47 83.85,-108.83 88.56,-99.34 81.62,-98.47"/>
</a>
</g>
</g>
<!-- Node4 -->
<g id="Node000004" class="node">
<title>Node4</title>
<g id="a_Node000004"><a xlink:href="classdunedaq_1_1conffwk_1_1DalObject.html" target="_top" xlink:title="The base class for any generated DAL object.">
<polygon fill="white" stroke="#666666" points="147.62,-185 9.38,-185 9.38,-165.75 147.62,-165.75 147.62,-185"/>
<text text-anchor="middle" x="78.5" y="-171.5" font-family="Helvetica,sans-Serif" font-size="10.00">dunedaq::conffwk::DalObject</text>
</a>
</g>
</g>
<!-- Node4&#45;&gt;Node3 -->
<g id="edge3_Node000003_Node000004" class="edge">
<title>Node4&#45;&gt;Node3</title>
<g id="a_edge3_Node000003_Node000004"><a xlink:title=" ">
<path fill="none" stroke="#63b8ff" d="M71.94,-154.42C71.45,-146.05 71.9,-136.75 73.29,-130.11"/>
<polygon fill="#63b8ff" stroke="#63b8ff" points="68.44,-154.59 73.15,-164.08 75.38,-153.72 68.44,-154.59"/>
</a>
</g>
</g>
<!-- Node4&#45;&gt;Node3 -->
<g id="edge4_Node000003_Node000004" class="edge">
<title>Node4&#45;&gt;Node3</title>
<g id="a_edge4_Node000003_Node000004"><a xlink:title=" ">
<path fill="none" stroke="#63b8ff" d="M85.06,-154.42C85.55,-146.05 85.1,-136.75 83.71,-130.11"/>
<polygon fill="#63b8ff" stroke="#63b8ff" points="81.62,-153.72 83.85,-164.08 88.56,-154.59 81.62,-153.72"/>
</a>
</g>
</g>
</g>
</svg>
