<?xml version="1.0" encoding="UTF-8" standalone="no"?>
<!DOCTYPE svg PUBLIC "-//W3C//DTD SVG 1.1//EN"
 "http://www.w3.org/Graphics/SVG/1.1/DTD/svg11.dtd">
<!-- Generated by graphviz version 9.0.0 (20230911.1827)
 -->
<!-- Title: dunedaq::appdal::TCCustom Pages: 1 -->
<svg width="152pt" height="193pt"
 viewBox="0.00 0.00 152.25 193.00" xmlns="http://www.w3.org/2000/svg" xmlns:xlink="http://www.w3.org/1999/xlink">
<g id="graph0" class="graph" transform="scale(1 1) rotate(0) translate(4 189)">
<title>dunedaq::appdal::TCCustom</title>
<!-- Node1 -->
<g id="Node000001" class="node">
<title>Node1</title>
<g id="a_Node000001"><a xlink:title=" ">
<polygon fill="#999999" stroke="#666666" points="140.5,-19.25 3.75,-19.25 3.75,0 140.5,0 140.5,-19.25"/>
<text text-anchor="middle" x="72.12" y="-5.75" font-family="Helvetica,sans-Serif" font-size="10.00">dunedaq::appdal::TCCustom</text>
</a>
</g>
</g>
<!-- Node2 -->
<g id="Node000002" class="node">
<title>Node2</title>
<g id="a_Node000002"><a xlink:href="classdunedaq_1_1appdal_1_1TCAlgorithm.html" target="_top" xlink:title=" ">
<polygon fill="white" stroke="#666666" points="144.25,-74.5 0,-74.5 0,-55.25 144.25,-55.25 144.25,-74.5"/>
<text text-anchor="middle" x="72.12" y="-61" font-family="Helvetica,sans-Serif" font-size="10.00">dunedaq::appdal::TCAlgorithm</text>
</a>
</g>
</g>
<!-- Node2&#45;&gt;Node1 -->
<g id="edge1_Node000001_Node000002" class="edge">
<title>Node2&#45;&gt;Node1</title>
<g id="a_edge1_Node000001_Node000002"><a xlink:title=" ">
<path fill="none" stroke="#63b8ff" d="M65.57,-43.92C65.08,-35.55 65.53,-26.25 66.92,-19.61"/>
<polygon fill="#63b8ff" stroke="#63b8ff" points="62.06,-44.09 66.77,-53.58 69.01,-43.22 62.06,-44.09"/>
</a>
</g>
</g>
<!-- Node2&#45;&gt;Node1 -->
<g id="edge6_Node000001_Node000002" class="edge">
<title>Node2&#45;&gt;Node1</title>
<g id="a_edge6_Node000001_Node000002"><a xlink:title=" ">
<path fill="none" stroke="#63b8ff" d="M78.68,-43.92C79.17,-35.55 78.72,-26.25 77.33,-19.61"/>
<polygon fill="#63b8ff" stroke="#63b8ff" points="75.24,-43.22 77.48,-53.58 82.19,-44.09 75.24,-43.22"/>
</a>
</g>
</g>
<!-- Node3 -->
<g id="Node000003" class="node">
<title>Node3</title>
<g id="a_Node000003"><a xlink:href="classdunedaq_1_1coredal_1_1Jsonable.html" target="_top" xlink:title=" ">
<polygon fill="white" stroke="#666666" points="138.25,-129.75 6,-129.75 6,-110.5 138.25,-110.5 138.25,-129.75"/>
<text text-anchor="middle" x="72.12" y="-116.25" font-family="Helvetica,sans-Serif" font-size="10.00">dunedaq::coredal::Jsonable</text>
</a>
</g>
</g>
<!-- Node3&#45;&gt;Node2 -->
<g id="edge2_Node000002_Node000003" class="edge">
<title>Node3&#45;&gt;Node2</title>
<g id="a_edge2_Node000002_Node000003"><a xlink:title=" ">
<path fill="none" stroke="#63b8ff" d="M65.57,-99.17C65.08,-90.8 65.53,-81.5 66.92,-74.86"/>
<polygon fill="#63b8ff" stroke="#63b8ff" points="62.06,-99.34 66.77,-108.83 69.01,-98.47 62.06,-99.34"/>
</a>
</g>
</g>
<!-- Node3&#45;&gt;Node2 -->
<g id="edge5_Node000002_Node000003" class="edge">
<title>Node3&#45;&gt;Node2</title>
<g id="a_edge5_Node000002_Node000003"><a xlink:title=" ">
<path fill="none" stroke="#63b8ff" d="M78.68,-99.17C79.17,-90.8 78.72,-81.5 77.33,-74.86"/>
<polygon fill="#63b8ff" stroke="#63b8ff" points="75.24,-98.47 77.48,-108.83 82.19,-99.34 75.24,-98.47"/>
</a>
</g>
</g>
<!-- Node4 -->
<g id="Node000004" class="node">
<title>Node4</title>
<g id="a_Node000004"><a xlink:href="classdunedaq_1_1conffwk_1_1DalObject.html" target="_top" xlink:title="The base class for any generated DAL object.">
<polygon fill="white" stroke="#666666" points="141.25,-185 3,-185 3,-165.75 141.25,-165.75 141.25,-185"/>
<text text-anchor="middle" x="72.12" y="-171.5" font-family="Helvetica,sans-Serif" font-size="10.00">dunedaq::conffwk::DalObject</text>
</a>
</g>
</g>
<!-- Node4&#45;&gt;Node3 -->
<g id="edge3_Node000003_Node000004" class="edge">
<title>Node4&#45;&gt;Node3</title>
<g id="a_edge3_Node000003_Node000004"><a xlink:title=" ">
<path fill="none" stroke="#63b8ff" d="M65.57,-154.42C65.08,-146.05 65.53,-136.75 66.92,-130.11"/>
<polygon fill="#63b8ff" stroke="#63b8ff" points="62.06,-154.59 66.77,-164.08 69.01,-153.72 62.06,-154.59"/>
</a>
</g>
</g>
<!-- Node4&#45;&gt;Node3 -->
<g id="edge4_Node000003_Node000004" class="edge">
<title>Node4&#45;&gt;Node3</title>
<g id="a_edge4_Node000003_Node000004"><a xlink:title=" ">
<path fill="none" stroke="#63b8ff" d="M78.68,-154.42C79.17,-146.05 78.72,-136.75 77.33,-130.11"/>
<polygon fill="#63b8ff" stroke="#63b8ff" points="75.24,-153.72 77.48,-164.08 82.19,-154.59 75.24,-153.72"/>
</a>
</g>
</g>
</g>
</svg>
