<?xml version="1.0" encoding="UTF-8" standalone="no"?>
<!DOCTYPE svg PUBLIC "-//W3C//DTD SVG 1.1//EN"
 "http://www.w3.org/Graphics/SVG/1.1/DTD/svg11.dtd">
<!-- Generated by graphviz version 9.0.0 (20230911.1827)
 -->
<!-- Title: dunedaq::coredal::DisabledComponents Pages: 1 -->
<svg width="3112pt" height="467pt"
 viewBox="0.00 0.00 3111.50 467.25" xmlns="http://www.w3.org/2000/svg" xmlns:xlink="http://www.w3.org/1999/xlink">
<g id="graph0" class="graph" transform="scale(1 1) rotate(0) translate(4 463.25)">
<title>dunedaq::coredal::DisabledComponents</title>
<!-- Node1 -->
<g id="Node000001" class="node">
<title>Node1</title>
<g id="a_Node000001"><a xlink:title=" ">
<polygon fill="#999999" stroke="#666666" points="2828,-49.25 2697.25,-49.25 2697.25,-18.75 2828,-18.75 2828,-49.25"/>
<text text-anchor="start" x="2705.25" y="-35.75" font-family="Helvetica,sans-Serif" font-size="10.00">dunedaq::coredal::Disabled</text>
<text text-anchor="middle" x="2762.62" y="-24.5" font-family="Helvetica,sans-Serif" font-size="10.00">Components</text>
</a>
</g>
</g>
<!-- Node15 -->
<g id="Node000015" class="node">
<title>Node15</title>
<g id="a_Node000015"><a xlink:href="classdunedaq_1_1coredal_1_1Session.html" target="_top" xlink:title=" ">
<polygon fill="white" stroke="#666666" points="3103.5,-142.62 2975,-142.62 2975,-123.38 3103.5,-123.38 3103.5,-142.62"/>
<text text-anchor="middle" x="3039.25" y="-129.12" font-family="Helvetica,sans-Serif" font-size="10.00">dunedaq::coredal::Session</text>
</a>
</g>
</g>
<!-- Node1&#45;&gt;Node15 -->
<g id="edge52_Node000015_Node000001" class="edge">
<title>Node1&#45;&gt;Node15</title>
<g id="a_edge52_Node000015_Node000001"><a xlink:title=" ">
<path fill="none" stroke="#9a32cd" stroke-dasharray="5,2" d="M2839.34,-39.94C2884.26,-44.34 2936.36,-51.23 2957,-60.75 2988.88,-75.45 3017.33,-106.93 3030.5,-123.05"/>
<polygon fill="#9a32cd" stroke="#9a32cd" points="2839.89,-36.48 2829.6,-39.02 2839.23,-43.45 2839.89,-36.48"/>
</a>
</g>
<text text-anchor="middle" x="2901.88" y="-61.75" font-family="Helvetica,sans-Serif" font-size="10.00" fill="grey"> m_disabled_components</text>
</g>
<!-- Node2 -->
<g id="Node000002" class="node">
<title>Node2</title>
<g id="a_Node000002"><a xlink:href="classdunedaq_1_1conffwk_1_1ConfigAction.html" target="_top" xlink:title=" ">
<polygon fill="white" stroke="#666666" points="2588.88,-58.25 2466.38,-58.25 2466.38,-27.75 2588.88,-27.75 2588.88,-58.25"/>
<text text-anchor="start" x="2474.38" y="-44.75" font-family="Helvetica,sans-Serif" font-size="10.00">dunedaq::conffwk::Config</text>
<text text-anchor="middle" x="2527.62" y="-33.5" font-family="Helvetica,sans-Serif" font-size="10.00">Action</text>
</a>
</g>
</g>
<!-- Node2&#45;&gt;Node1 -->
<g id="edge1_Node000001_Node000002" class="edge">
<title>Node2&#45;&gt;Node1</title>
<g id="a_edge1_Node000001_Node000002"><a xlink:title=" ">
<path fill="none" stroke="#63b8ff" d="M2600.34,-40.23C2631.13,-39.04 2666.85,-37.66 2696.83,-36.5"/>
<polygon fill="#63b8ff" stroke="#63b8ff" points="2600.6,-36.72 2590.75,-40.6 2600.87,-43.71 2600.6,-36.72"/>
</a>
</g>
</g>
<!-- Node3 -->
<g id="Node000003" class="node">
<title>Node3</title>
<g id="a_Node000003"><a xlink:href="classdunedaq_1_1conffwk_1_1Configuration.html" target="_top" xlink:title=" ">
<polygon fill="white" stroke="#666666" points="644.5,-211.62 492.75,-211.62 492.75,-192.38 644.5,-192.38 644.5,-211.62"/>
<text text-anchor="middle" x="568.62" y="-198.12" font-family="Helvetica,sans-Serif" font-size="10.00">dunedaq::conffwk::Configuration</text>
</a>
</g>
</g>
<!-- Node3&#45;&gt;Node1 -->
<g id="edge2_Node000001_Node000003" class="edge">
<title>Node3&#45;&gt;Node1</title>
<g id="a_edge2_Node000001_Node000003"><a xlink:title=" ">
<path fill="none" stroke="#9a32cd" stroke-dasharray="5,2" d="M582.26,-182.48C616.76,-131.81 718.12,0 839,0 839,0 839,0 2528.62,0 2586.06,0 2650.63,-10.24 2697.21,-19.48"/>
<polygon fill="#9a32cd" stroke="#9a32cd" points="579.4,-180.46 576.77,-190.72 585.22,-184.34 579.4,-180.46"/>
</a>
</g>
<text text-anchor="middle" x="1540.62" y="-1.75" font-family="Helvetica,sans-Serif" font-size="10.00" fill="grey"> m_db</text>
</g>
<!-- Node12 -->
<g id="Node000012" class="node">
<title>Node12</title>
<g id="a_Node000012"><a xlink:href="classdunedaq_1_1conffwk_1_1ConfigurationImpl.html" target="_top" xlink:title="Provides pure virtual interface used by the Configuration class.">
<polygon fill="white" stroke="#666666" points="925.25,-278.62 754.75,-278.62 754.75,-259.38 925.25,-259.38 925.25,-278.62"/>
<text text-anchor="middle" x="840" y="-265.12" font-family="Helvetica,sans-Serif" font-size="10.00">dunedaq::conffwk::ConfigurationImpl</text>
</a>
</g>
</g>
<!-- Node3&#45;&gt;Node12 -->
<g id="edge14_Node000012_Node000003" class="edge">
<title>Node3&#45;&gt;Node12</title>
<g id="a_edge14_Node000012_Node000003"><a xlink:title=" ">
<path fill="none" stroke="#9a32cd" stroke-dasharray="5,2" d="M596.76,-217.41C615.66,-227.44 641.76,-239.93 666.25,-247 694.42,-255.14 726.05,-260.27 754.47,-263.5"/>
<polygon fill="#9a32cd" stroke="#9a32cd" points="598.58,-214.42 588.13,-212.72 595.24,-220.57 598.58,-214.42"/>
</a>
</g>
<text text-anchor="middle" x="701.5" y="-262.75" font-family="Helvetica,sans-Serif" font-size="10.00" fill="grey"> m_conf</text>
</g>
<!-- Node16 -->
<g id="Node000016" class="node">
<title>Node16</title>
<g id="a_Node000016"><a xlink:href="classdunedaq_1_1conffwk_1_1DalObject.html" target="_top" xlink:title="The base class for any generated DAL object.">
<polygon fill="white" stroke="#666666" points="1509.5,-278.62 1371.25,-278.62 1371.25,-259.38 1509.5,-259.38 1509.5,-278.62"/>
<text text-anchor="middle" x="1440.38" y="-265.12" font-family="Helvetica,sans-Serif" font-size="10.00">dunedaq::conffwk::DalObject</text>
</a>
</g>
</g>
<!-- Node3&#45;&gt;Node16 -->
<g id="edge17_Node000016_Node000003" class="edge">
<title>Node3&#45;&gt;Node16</title>
<g id="a_edge17_Node000016_Node000003"><a xlink:title=" ">
<path fill="none" stroke="#9a32cd" stroke-dasharray="5,2" d="M656.17,-202C708.99,-202 777.89,-202 839,-202 839,-202 839,-202 1249.5,-202 1317.32,-202 1391.39,-240.48 1423.29,-259.11"/>
<polygon fill="#9a32cd" stroke="#9a32cd" points="656.32,-198.5 646.32,-202 656.32,-205.5 656.32,-198.5"/>
</a>
</g>
<text text-anchor="middle" x="1056.25" y="-203.75" font-family="Helvetica,sans-Serif" font-size="10.00" fill="grey"> p_db</text>
</g>
<!-- Node4 -->
<g id="Node000004" class="node">
<title>Node4</title>
<g id="a_Node000004"><a xlink:href="classdunedaq_1_1conffwk_1_1map.html" target="_top" xlink:title=" ">
<polygon fill="white" stroke="#666666" points="355.88,-220.25 206.38,-220.25 206.38,-189.75 355.88,-189.75 355.88,-220.25"/>
<text text-anchor="start" x="214.38" y="-206.75" font-family="Helvetica,sans-Serif" font-size="10.00">dunedaq::conffwk::map</text>
<text text-anchor="middle" x="281.12" y="-195.5" font-family="Helvetica,sans-Serif" font-size="10.00">&lt; dunedaq::conffwk::class_t * &gt;</text>
</a>
</g>
</g>
<!-- Node4&#45;&gt;Node3 -->
<g id="edge3_Node000003_Node000004" class="edge">
<title>Node4&#45;&gt;Node3</title>
<g id="a_edge3_Node000003_Node000004"><a xlink:title=" ">
<path fill="none" stroke="#9a32cd" stroke-dasharray="5,2" d="M367.26,-203.23C372.67,-203.14 378.04,-203.07 383.25,-203 419.1,-202.55 458.87,-202.3 492.27,-202.16"/>
<polygon fill="#9a32cd" stroke="#9a32cd" points="367.58,-199.72 357.64,-203.39 367.7,-206.72 367.58,-199.72"/>
</a>
</g>
<text text-anchor="start" x="383.25" y="-238.5" font-family="Helvetica,sans-Serif" font-size="10.00" fill="grey"> p_all_classes_desc</text>
<text text-anchor="middle" x="427.12" y="-227.25" font-family="Helvetica,sans-Serif" font-size="10.00" fill="grey">_cache</text>
<text text-anchor="start" x="383.25" y="-216" font-family="Helvetica,sans-Serif" font-size="10.00" fill="grey">p_direct_classes</text>
<text text-anchor="middle" x="427.12" y="-204.75" font-family="Helvetica,sans-Serif" font-size="10.00" fill="grey">_desc_cache</text>
</g>
<!-- Node5 -->
<g id="Node000005" class="node">
<title>Node5</title>
<g id="a_Node000005"><a xlink:title=" ">
<polygon fill="white" stroke="#666666" points="134.12,-233.88 25.88,-233.88 25.88,-192.12 134.12,-192.12 134.12,-233.88"/>
<text text-anchor="start" x="33.88" y="-220.38" font-family="Helvetica,sans-Serif" font-size="10.00">std::unordered_map</text>
<text text-anchor="start" x="33.88" y="-209.12" font-family="Helvetica,sans-Serif" font-size="10.00">&lt; std::string, dunedaq</text>
<text text-anchor="middle" x="80" y="-197.88" font-family="Helvetica,sans-Serif" font-size="10.00">::conffwk::class_t * &gt;</text>
</a>
</g>
</g>
<!-- Node5&#45;&gt;Node4 -->
<g id="edge4_Node000004_Node000005" class="edge">
<title>Node5&#45;&gt;Node4</title>
<g id="a_edge4_Node000004_Node000005"><a xlink:title=" ">
<path fill="none" stroke="#63b8ff" d="M146.01,-210.39C165.25,-209.62 186.45,-208.76 206.21,-207.97"/>
<polygon fill="#63b8ff" stroke="#63b8ff" points="145.99,-206.89 136.14,-210.78 146.27,-213.88 145.99,-206.89"/>
</a>
</g>
</g>
<!-- Node6 -->
<g id="Node000006" class="node">
<title>Node6</title>
<g id="a_Node000006"><a xlink:href="classdunedaq_1_1conffwk_1_1fmap.html" target="_top" xlink:title=" ">
<polygon fill="white" stroke="#666666" points="339.75,-167.25 222.5,-167.25 222.5,-136.75 339.75,-136.75 339.75,-167.25"/>
<text text-anchor="start" x="230.5" y="-153.75" font-family="Helvetica,sans-Serif" font-size="10.00">dunedaq::conffwk::fmap</text>
<text text-anchor="middle" x="281.12" y="-142.5" font-family="Helvetica,sans-Serif" font-size="10.00">&lt; conffwk::fset &gt;</text>
</a>
</g>
</g>
<!-- Node6&#45;&gt;Node3 -->
<g id="edge5_Node000003_Node000006" class="edge">
<title>Node6&#45;&gt;Node3</title>
<g id="a_edge5_Node000003_Node000006"><a xlink:title=" ">
<path fill="none" stroke="#9a32cd" stroke-dasharray="5,2" d="M351.26,-158.19C387.17,-162.01 431.66,-167.7 471,-175.5 492.84,-179.83 517,-186.46 535.69,-192"/>
<polygon fill="#9a32cd" stroke="#9a32cd" points="351.73,-154.72 341.42,-157.17 351.01,-161.68 351.73,-154.72"/>
</a>
</g>
<text text-anchor="middle" x="427.12" y="-188" font-family="Helvetica,sans-Serif" font-size="10.00" fill="grey"> p_subclasses</text>
<text text-anchor="middle" x="427.12" y="-176.75" font-family="Helvetica,sans-Serif" font-size="10.00" fill="grey">p_superclasses</text>
</g>
<!-- Node7 -->
<g id="Node000007" class="node">
<title>Node7</title>
<g id="a_Node000007"><a xlink:title=" ">
<polygon fill="white" stroke="#666666" points="136.75,-174.5 23.25,-174.5 23.25,-121.5 136.75,-121.5 136.75,-174.5"/>
<text text-anchor="start" x="31.25" y="-161" font-family="Helvetica,sans-Serif" font-size="10.00">std::unordered_map</text>
<text text-anchor="start" x="31.25" y="-149.75" font-family="Helvetica,sans-Serif" font-size="10.00">&lt; const std::string</text>
<text text-anchor="start" x="31.25" y="-138.5" font-family="Helvetica,sans-Serif" font-size="10.00"> *, conffwk::fset , string</text>
<text text-anchor="middle" x="80" y="-127.25" font-family="Helvetica,sans-Serif" font-size="10.00">_ptr_hash &gt;</text>
</a>
</g>
</g>
<!-- Node7&#45;&gt;Node6 -->
<g id="edge6_Node000006_Node000007" class="edge">
<title>Node7&#45;&gt;Node6</title>
<g id="a_edge6_Node000006_Node000007"><a xlink:title=" ">
<path fill="none" stroke="#63b8ff" d="M148.49,-149.36C172.4,-149.84 199.07,-150.37 222.12,-150.83"/>
<polygon fill="#63b8ff" stroke="#63b8ff" points="148.58,-145.86 138.51,-149.16 148.44,-152.86 148.58,-145.86"/>
</a>
</g>
</g>
<!-- Node8 -->
<g id="Node000008" class="node">
<title>Node8</title>
<g id="a_Node000008"><a xlink:href="classdunedaq_1_1conffwk_1_1map.html" target="_top" xlink:title=" ">
<polygon fill="white" stroke="#666666" points="342,-109.12 220.25,-109.12 220.25,-44.88 342,-44.88 342,-109.12"/>
<text text-anchor="start" x="228.25" y="-95.62" font-family="Helvetica,sans-Serif" font-size="10.00">dunedaq::conffwk::map</text>
<text text-anchor="start" x="228.25" y="-84.38" font-family="Helvetica,sans-Serif" font-size="10.00">&lt; std::list&lt; dunedaq</text>
<text text-anchor="start" x="228.25" y="-73.12" font-family="Helvetica,sans-Serif" font-size="10.00">::conffwk::Configuration</text>
<text text-anchor="start" x="228.25" y="-61.88" font-family="Helvetica,sans-Serif" font-size="10.00">::AttributeConverterBase</text>
<text text-anchor="middle" x="281.12" y="-50.62" font-family="Helvetica,sans-Serif" font-size="10.00"> * &gt; * &gt;</text>
</a>
</g>
</g>
<!-- Node8&#45;&gt;Node3 -->
<g id="edge7_Node000003_Node000008" class="edge">
<title>Node8&#45;&gt;Node3</title>
<g id="a_edge7_Node000003_Node000008"><a xlink:title=" ">
<path fill="none" stroke="#9a32cd" stroke-dasharray="5,2" d="M353.23,-99.53C389.15,-111.75 433.06,-127.97 471,-145.75 500.88,-159.75 533.69,-179.96 552.35,-191.96"/>
<polygon fill="#9a32cd" stroke="#9a32cd" points="354.38,-96.22 343.79,-96.35 352.15,-102.86 354.38,-96.22"/>
</a>
</g>
<text text-anchor="middle" x="427.12" y="-146.75" font-family="Helvetica,sans-Serif" font-size="10.00" fill="grey"> m_convert_map</text>
</g>
<!-- Node9 -->
<g id="Node000009" class="node">
<title>Node9</title>
<g id="a_Node000009"><a xlink:title=" ">
<polygon fill="white" stroke="#666666" points="160,-103.12 0,-103.12 0,-38.88 160,-38.88 160,-103.12"/>
<text text-anchor="start" x="8" y="-89.62" font-family="Helvetica,sans-Serif" font-size="10.00">std::unordered_map</text>
<text text-anchor="start" x="8" y="-78.38" font-family="Helvetica,sans-Serif" font-size="10.00">&lt; std::string, std::</text>
<text text-anchor="start" x="8" y="-67.12" font-family="Helvetica,sans-Serif" font-size="10.00">list&lt; dunedaq::conffwk</text>
<text text-anchor="start" x="8" y="-55.88" font-family="Helvetica,sans-Serif" font-size="10.00">::Configuration::AttributeConverter</text>
<text text-anchor="middle" x="80" y="-44.62" font-family="Helvetica,sans-Serif" font-size="10.00">Base * &gt; * &gt;</text>
</a>
</g>
</g>
<!-- Node9&#45;&gt;Node8 -->
<g id="edge8_Node000008_Node000009" class="edge">
<title>Node9&#45;&gt;Node8</title>
<g id="a_edge8_Node000008_Node000009"><a xlink:title=" ">
<path fill="none" stroke="#63b8ff" d="M171.53,-73.73C187.91,-74.22 204.61,-74.72 219.85,-75.18"/>
<polygon fill="#63b8ff" stroke="#63b8ff" points="171.89,-70.24 161.78,-73.43 171.67,-77.23 171.89,-70.24"/>
</a>
</g>
</g>
<!-- Node10 -->
<g id="Node000010" class="node">
<title>Node10</title>
<g id="a_Node000010"><a xlink:href="classdunedaq_1_1conffwk_1_1fmap.html" target="_top" xlink:title=" ">
<polygon fill="white" stroke="#666666" points="365.25,-285.25 197,-285.25 197,-254.75 365.25,-254.75 365.25,-285.25"/>
<text text-anchor="start" x="205" y="-271.75" font-family="Helvetica,sans-Serif" font-size="10.00">dunedaq::conffwk::fmap</text>
<text text-anchor="middle" x="281.12" y="-260.5" font-family="Helvetica,sans-Serif" font-size="10.00">&lt; dunedaq::conffwk::CacheBase * &gt;</text>
</a>
</g>
</g>
<!-- Node10&#45;&gt;Node3 -->
<g id="edge9_Node000003_Node000010" class="edge">
<title>Node10&#45;&gt;Node3</title>
<g id="a_edge9_Node000003_Node000010"><a xlink:title=" ">
<path fill="none" stroke="#9a32cd" stroke-dasharray="5,2" d="M376.66,-265.11C407.19,-261.92 440.91,-256.66 471,-248 500.46,-239.52 532.08,-222.86 550.84,-212.09"/>
<polygon fill="#9a32cd" stroke="#9a32cd" points="376.68,-261.59 367.07,-266.05 377.36,-268.56 376.68,-261.59"/>
</a>
</g>
<text text-anchor="middle" x="427.12" y="-265.75" font-family="Helvetica,sans-Serif" font-size="10.00" fill="grey"> m_cache_map</text>
</g>
<!-- Node11 -->
<g id="Node000011" class="node">
<title>Node11</title>
<g id="a_Node000011"><a xlink:title=" ">
<polygon fill="white" stroke="#666666" points="133,-316.12 27,-316.12 27,-251.88 133,-251.88 133,-316.12"/>
<text text-anchor="start" x="35" y="-302.62" font-family="Helvetica,sans-Serif" font-size="10.00">std::unordered_map</text>
<text text-anchor="start" x="35" y="-291.38" font-family="Helvetica,sans-Serif" font-size="10.00">&lt; const std::string</text>
<text text-anchor="start" x="35" y="-280.12" font-family="Helvetica,sans-Serif" font-size="10.00"> *, dunedaq::conffwk</text>
<text text-anchor="start" x="35" y="-268.88" font-family="Helvetica,sans-Serif" font-size="10.00">::CacheBase *, string</text>
<text text-anchor="middle" x="80" y="-257.62" font-family="Helvetica,sans-Serif" font-size="10.00">_ptr_hash &gt;</text>
</a>
</g>
</g>
<!-- Node11&#45;&gt;Node10 -->
<g id="edge10_Node000010_Node000011" class="edge">
<title>Node11&#45;&gt;Node10</title>
<g id="a_edge10_Node000010_Node000011"><a xlink:title=" ">
<path fill="none" stroke="#63b8ff" d="M144.51,-279.53C161.06,-278.37 179.16,-277.1 196.58,-275.87"/>
<polygon fill="#63b8ff" stroke="#63b8ff" points="144.56,-276.02 134.83,-280.22 145.05,-283.01 144.56,-276.02"/>
</a>
</g>
</g>
<!-- Node12&#45;&gt;Node3 -->
<g id="edge11_Node000003_Node000012" class="edge">
<title>Node12&#45;&gt;Node3</title>
<g id="a_edge11_Node000003_Node000012"><a xlink:title=" ">
<path fill="none" stroke="#9a32cd" stroke-dasharray="5,2" d="M800.4,-255.29C781.39,-248.83 758.03,-241.34 736.75,-235.75 700.96,-226.35 660.28,-218.08 628.01,-212.08"/>
<polygon fill="#9a32cd" stroke="#9a32cd" points="799.02,-258.51 809.62,-258.45 801.3,-251.89 799.02,-258.51"/>
</a>
</g>
<text text-anchor="middle" x="701.5" y="-236.75" font-family="Helvetica,sans-Serif" font-size="10.00" fill="grey"> m_impl</text>
</g>
<!-- Node18 -->
<g id="Node000018" class="node">
<title>Node18</title>
<g id="a_Node000018"><a xlink:href="classdunedaq_1_1conffwk_1_1ConfigObjectImpl.html" target="_top" xlink:title="Implements database objects.">
<polygon fill="white" stroke="#666666" points="1117.5,-284.25 995,-284.25 995,-253.75 1117.5,-253.75 1117.5,-284.25"/>
<text text-anchor="start" x="1003" y="-270.75" font-family="Helvetica,sans-Serif" font-size="10.00">dunedaq::conffwk::Config</text>
<text text-anchor="middle" x="1056.25" y="-259.5" font-family="Helvetica,sans-Serif" font-size="10.00">ObjectImpl</text>
</a>
</g>
</g>
<!-- Node12&#45;&gt;Node18 -->
<g id="edge20_Node000018_Node000012" class="edge">
<title>Node12&#45;&gt;Node18</title>
<g id="a_edge20_Node000018_Node000012"><a xlink:title=" ">
<path fill="none" stroke="#9a32cd" stroke-dasharray="5,2" d="M937.12,-269C956.67,-269 976.73,-269 994.63,-269"/>
<polygon fill="#9a32cd" stroke="#9a32cd" points="937.19,-265.5 927.19,-269 937.19,-272.5 937.19,-265.5"/>
</a>
</g>
<text text-anchor="middle" x="960.12" y="-270.75" font-family="Helvetica,sans-Serif" font-size="10.00" fill="grey"> m_impl</text>
</g>
<!-- Node13 -->
<g id="Node000013" class="node">
<title>Node13</title>
<g id="a_Node000013"><a xlink:href="classdunedaq_1_1conffwk_1_1pmap.html" target="_top" xlink:title=" ">
<polygon fill="white" stroke="#666666" points="648.25,-353.5 489,-353.5 489,-300.5 648.25,-300.5 648.25,-353.5"/>
<text text-anchor="start" x="497" y="-340" font-family="Helvetica,sans-Serif" font-size="10.00">dunedaq::conffwk::pmap</text>
<text text-anchor="start" x="497" y="-328.75" font-family="Helvetica,sans-Serif" font-size="10.00">&lt; dunedaq::conffwk::map</text>
<text text-anchor="start" x="497" y="-317.5" font-family="Helvetica,sans-Serif" font-size="10.00">&lt; dunedaq::conffwk::ConfigObject</text>
<text text-anchor="middle" x="568.62" y="-306.25" font-family="Helvetica,sans-Serif" font-size="10.00">Impl * &gt; * &gt;</text>
</a>
</g>
</g>
<!-- Node13&#45;&gt;Node12 -->
<g id="edge12_Node000012_Node000013" class="edge">
<title>Node13&#45;&gt;Node12</title>
<g id="a_edge12_Node000012_Node000013"><a xlink:title=" ">
<path fill="none" stroke="#9a32cd" stroke-dasharray="5,2" d="M659.73,-307.6C704.05,-298.06 755.64,-286.95 792.07,-279.11"/>
<polygon fill="#9a32cd" stroke="#9a32cd" points="659.15,-304.14 650.11,-309.67 660.62,-310.99 659.15,-304.14"/>
</a>
</g>
<text text-anchor="middle" x="701.5" y="-305.75" font-family="Helvetica,sans-Serif" font-size="10.00" fill="grey"> m_impl_objects</text>
</g>
<!-- Node14 -->
<g id="Node000014" class="node">
<title>Node14</title>
<g id="a_Node000014"><a xlink:title=" ">
<polygon fill="white" stroke="#666666" points="348.75,-367.12 213.5,-367.12 213.5,-302.88 348.75,-302.88 348.75,-367.12"/>
<text text-anchor="start" x="221.5" y="-353.62" font-family="Helvetica,sans-Serif" font-size="10.00">std::map&lt; const std</text>
<text text-anchor="start" x="221.5" y="-342.38" font-family="Helvetica,sans-Serif" font-size="10.00">::string *, dunedaq</text>
<text text-anchor="start" x="221.5" y="-331.12" font-family="Helvetica,sans-Serif" font-size="10.00">::conffwk::map&lt; dunedaq</text>
<text text-anchor="start" x="221.5" y="-319.88" font-family="Helvetica,sans-Serif" font-size="10.00">::conffwk::ConfigObjectImpl</text>
<text text-anchor="middle" x="281.12" y="-308.62" font-family="Helvetica,sans-Serif" font-size="10.00"> * &gt; * , string_ptr_compare &gt;</text>
</a>
</g>
</g>
<!-- Node14&#45;&gt;Node13 -->
<g id="edge13_Node000013_Node000014" class="edge">
<title>Node14&#45;&gt;Node13</title>
<g id="a_edge13_Node000013_Node000014"><a xlink:title=" ">
<path fill="none" stroke="#63b8ff" d="M360.35,-332.81C400.25,-331.69 448.68,-330.33 488.69,-329.21"/>
<polygon fill="#63b8ff" stroke="#63b8ff" points="360.47,-329.3 350.58,-333.08 360.67,-336.3 360.47,-329.3"/>
</a>
</g>
</g>
<!-- Node15&#45;&gt;Node1 -->
<g id="edge15_Node000001_Node000015" class="edge">
<title>Node15&#45;&gt;Node1</title>
<g id="a_edge15_Node000001_Node000015"><a xlink:title=" ">
<path fill="none" stroke="#9a32cd" stroke-dasharray="5,2" d="M3029.61,-112.54C3017.58,-87.03 2993.11,-44.59 2957,-26.75 2914.38,-5.69 2859.8,-10.13 2819.5,-18.31"/>
<polygon fill="#9a32cd" stroke="#9a32cd" points="3026.36,-113.85 3033.65,-121.54 3032.75,-110.99 3026.36,-113.85"/>
</a>
</g>
<text text-anchor="middle" x="2901.88" y="-27.75" font-family="Helvetica,sans-Serif" font-size="10.00" fill="grey"> m_session</text>
</g>
<!-- Node16&#45;&gt;Node15 -->
<g id="edge16_Node000015_Node000016" class="edge">
<title>Node16&#45;&gt;Node15</title>
<g id="a_edge16_Node000015_Node000016"><a xlink:title=" ">
<path fill="none" stroke="#63b8ff" d="M1461.75,-287.03C1497.03,-321.46 1573.59,-392 1655.25,-392 1655.25,-392 1655.25,-392 2763.62,-392 2911.18,-392 3008.99,-191.37 3032.67,-143.12"/>
<polygon fill="#63b8ff" stroke="#63b8ff" points="1464.36,-284.69 1454.77,-280.18 1459.45,-289.68 1464.36,-284.69"/>
</a>
</g>
</g>
<!-- Node16&#45;&gt;Node15 -->
<g id="edge21_Node000015_Node000016" class="edge">
<title>Node16&#45;&gt;Node15</title>
<g id="a_edge21_Node000015_Node000016"><a xlink:title=" ">
<path fill="none" stroke="#63b8ff" d="M1453.36,-287.72C1483.49,-326.4 1566.35,-410 1655.25,-410 1655.25,-410 1655.25,-410 2763.62,-410 2917.18,-410 3016.86,-192.73 3035.19,-142.88"/>
<polygon fill="#63b8ff" stroke="#63b8ff" points="1456.53,-286.11 1447.77,-280.15 1450.9,-290.28 1456.53,-286.11"/>
</a>
</g>
</g>
<!-- Node21 -->
<g id="Node000021" class="node">
<title>Node21</title>
<g id="a_Node000021"><a xlink:href="classdunedaq_1_1coredal_1_1Component.html" target="_top" xlink:title=" ">
<polygon fill="white" stroke="#666666" points="1727.62,-138.62 1584.88,-138.62 1584.88,-119.38 1727.62,-119.38 1727.62,-138.62"/>
<text text-anchor="middle" x="1656.25" y="-125.12" font-family="Helvetica,sans-Serif" font-size="10.00">dunedaq::coredal::Component</text>
</a>
</g>
</g>
<!-- Node16&#45;&gt;Node21 -->
<g id="edge25_Node000021_Node000016" class="edge">
<title>Node16&#45;&gt;Node21</title>
<g id="a_edge25_Node000021_Node000016"><a xlink:title=" ">
<path fill="none" stroke="#63b8ff" d="M1448.12,-248.45C1460.19,-219.84 1487.95,-169.83 1527.5,-145 1544.44,-134.37 1564.93,-128.1 1584.5,-124.82"/>
<polygon fill="#63b8ff" stroke="#63b8ff" points="1444.96,-246.93 1444.59,-257.52 1451.48,-249.47 1444.96,-246.93"/>
</a>
</g>
</g>
<!-- Node16&#45;&gt;Node21 -->
<g id="edge26_Node000021_Node000016" class="edge">
<title>Node16&#45;&gt;Node21</title>
<g id="a_edge26_Node000021_Node000016"><a xlink:title=" ">
<path fill="none" stroke="#63b8ff" d="M1453.83,-249.29C1467.87,-224.84 1493.27,-184.49 1527.5,-163 1549.32,-149.3 1577.04,-142.85 1601.08,-139.1"/>
<polygon fill="#63b8ff" stroke="#63b8ff" points="1450.97,-247.24 1449.1,-257.67 1457.07,-250.68 1450.97,-247.24"/>
</a>
</g>
</g>
<!-- Node23 -->
<g id="Node000023" class="node">
<title>Node23</title>
<g id="a_Node000023"><a xlink:href="classdunedaq_1_1coredal_1_1Application.html" target="_top" xlink:title=" ">
<polygon fill="white" stroke="#666666" points="2303.25,-225.62 2162,-225.62 2162,-206.38 2303.25,-206.38 2303.25,-225.62"/>
<text text-anchor="middle" x="2232.62" y="-212.12" font-family="Helvetica,sans-Serif" font-size="10.00">dunedaq::coredal::Application</text>
</a>
</g>
</g>
<!-- Node16&#45;&gt;Node23 -->
<g id="edge31_Node000023_Node000016" class="edge">
<title>Node16&#45;&gt;Node23</title>
<g id="a_edge31_Node000023_Node000016"><a xlink:title=" ">
<path fill="none" stroke="#63b8ff" d="M1457.9,-251.63C1481.76,-232.87 1527.81,-205.35 1571.75,-195 1807.08,-139.59 2102.76,-183.67 2199.44,-205.92"/>
<polygon fill="#63b8ff" stroke="#63b8ff" points="1455.65,-248.96 1450.27,-258.08 1460.16,-254.3 1455.65,-248.96"/>
</a>
</g>
</g>
<!-- Node16&#45;&gt;Node23 -->
<g id="edge32_Node000023_Node000016" class="edge">
<title>Node16&#45;&gt;Node23</title>
<g id="a_edge32_Node000023_Node000016"><a xlink:title=" ">
<path fill="none" stroke="#63b8ff" d="M1476.33,-253.51C1501.65,-239.73 1537.35,-221.1 1571.75,-213 1781.71,-163.56 2039.7,-193.32 2161.55,-208.96"/>
<polygon fill="#63b8ff" stroke="#63b8ff" points="1474.91,-250.3 1467.81,-258.16 1478.27,-256.44 1474.91,-250.3"/>
</a>
</g>
</g>
<!-- Node24 -->
<g id="Node000024" class="node">
<title>Node24</title>
<g id="a_Node000024"><a xlink:href="classdunedaq_1_1coredal_1_1VirtualHost.html" target="_top" xlink:title=" ">
<polygon fill="white" stroke="#666666" points="1969,-261.62 1827,-261.62 1827,-242.38 1969,-242.38 1969,-261.62"/>
<text text-anchor="middle" x="1898" y="-248.12" font-family="Helvetica,sans-Serif" font-size="10.00">dunedaq::coredal::VirtualHost</text>
</a>
</g>
</g>
<!-- Node16&#45;&gt;Node24 -->
<g id="edge34_Node000024_Node000016" class="edge">
<title>Node16&#45;&gt;Node24</title>
<g id="a_edge34_Node000024_Node000016"><a xlink:title=" ">
<path fill="none" stroke="#63b8ff" d="M1520.92,-260.76C1607.38,-255.49 1744.22,-250.46 1826.82,-249.58"/>
<polygon fill="#63b8ff" stroke="#63b8ff" points="1520.86,-257.26 1511.1,-261.38 1521.3,-264.24 1520.86,-257.26"/>
</a>
</g>
</g>
<!-- Node16&#45;&gt;Node24 -->
<g id="edge35_Node000024_Node000016" class="edge">
<title>Node16&#45;&gt;Node24</title>
<g id="a_edge35_Node000024_Node000016"><a xlink:title=" ">
<path fill="none" stroke="#63b8ff" d="M1520.92,-271.3C1607.38,-270.12 1744.22,-264.94 1826.82,-259.65"/>
<polygon fill="#63b8ff" stroke="#63b8ff" points="1521.06,-267.8 1511.1,-271.42 1521.14,-274.8 1521.06,-267.8"/>
</a>
</g>
</g>
<!-- Node25 -->
<g id="Node000025" class="node">
<title>Node25</title>
<g id="a_Node000025"><a xlink:href="classdunedaq_1_1coredal_1_1PhysicalHost.html" target="_top" xlink:title=" ">
<polygon fill="white" stroke="#666666" points="1731.75,-232.62 1580.75,-232.62 1580.75,-213.38 1731.75,-213.38 1731.75,-232.62"/>
<text text-anchor="middle" x="1656.25" y="-219.12" font-family="Helvetica,sans-Serif" font-size="10.00">dunedaq::coredal::PhysicalHost</text>
</a>
</g>
</g>
<!-- Node16&#45;&gt;Node25 -->
<g id="edge37_Node000025_Node000016" class="edge">
<title>Node16&#45;&gt;Node25</title>
<g id="a_edge37_Node000025_Node000016"><a xlink:title=" ">
<path fill="none" stroke="#63b8ff" d="M1465.31,-254.93C1482.53,-248.84 1506.36,-242.68 1527.5,-238 1544.58,-234.22 1563.02,-230.53 1580.44,-227.47"/>
<polygon fill="#63b8ff" stroke="#63b8ff" points="1464.51,-251.48 1456.44,-258.36 1467.03,-258.01 1464.51,-251.48"/>
</a>
</g>
</g>
<!-- Node16&#45;&gt;Node25 -->
<g id="edge38_Node000025_Node000016" class="edge">
<title>Node16&#45;&gt;Node25</title>
<g id="a_edge38_Node000025_Node000016"><a xlink:title=" ">
<path fill="none" stroke="#63b8ff" d="M1520.98,-257.47C1523.18,-256.97 1525.35,-256.48 1527.5,-256 1564.52,-247.8 1607.97,-240.03 1633.46,-233.11"/>
<polygon fill="#63b8ff" stroke="#63b8ff" points="1520.34,-254.02 1511.39,-259.7 1521.92,-260.84 1520.34,-254.02"/>
</a>
</g>
</g>
<!-- Node26 -->
<g id="Node000026" class="node">
<title>Node26</title>
<g id="a_Node000026"><a xlink:href="classdunedaq_1_1coredal_1_1FSMconfiguration.html" target="_top" xlink:title=" ">
<polygon fill="white" stroke="#666666" points="1740.75,-363.62 1571.75,-363.62 1571.75,-344.38 1740.75,-344.38 1740.75,-363.62"/>
<text text-anchor="middle" x="1656.25" y="-350.12" font-family="Helvetica,sans-Serif" font-size="10.00">dunedaq::coredal::FSMconfiguration</text>
</a>
</g>
</g>
<!-- Node16&#45;&gt;Node26 -->
<g id="edge41_Node000026_Node000016" class="edge">
<title>Node16&#45;&gt;Node26</title>
<g id="a_edge41_Node000026_Node000016"><a xlink:title=" ">
<path fill="none" stroke="#63b8ff" d="M1478.8,-284.11C1504.21,-297.3 1539.03,-315.54 1571.75,-327 1592.74,-334.35 1617.8,-339.27 1634.96,-343.89"/>
<polygon fill="#63b8ff" stroke="#63b8ff" points="1480.69,-281.15 1470.2,-279.66 1477.48,-287.36 1480.69,-281.15"/>
</a>
</g>
</g>
<!-- Node16&#45;&gt;Node26 -->
<g id="edge42_Node000026_Node000016" class="edge">
<title>Node16&#45;&gt;Node26</title>
<g id="a_edge42_Node000026_Node000016"><a xlink:title=" ">
<path fill="none" stroke="#63b8ff" d="M1458.9,-286.04C1483.24,-303.8 1529.08,-330.01 1571.47,-344.9"/>
<polygon fill="#63b8ff" stroke="#63b8ff" points="1461.09,-283.31 1451.05,-279.93 1456.79,-288.83 1461.09,-283.31"/>
</a>
</g>
</g>
<!-- Node27 -->
<g id="Node000027" class="node">
<title>Node27</title>
<g id="a_Node000027"><a xlink:href="classdunedaq_1_1coredal_1_1RCBroadcaster.html" target="_top" xlink:title=" ">
<polygon fill="white" stroke="#666666" points="1735.88,-326.62 1576.62,-326.62 1576.62,-307.38 1735.88,-307.38 1735.88,-326.62"/>
<text text-anchor="middle" x="1656.25" y="-313.12" font-family="Helvetica,sans-Serif" font-size="10.00">dunedaq::coredal::RCBroadcaster</text>
</a>
</g>
</g>
<!-- Node16&#45;&gt;Node27 -->
<g id="edge44_Node000027_Node000016" class="edge">
<title>Node16&#45;&gt;Node27</title>
<g id="a_edge44_Node000027_Node000016"><a xlink:title=" ">
<path fill="none" stroke="#63b8ff" d="M1521.02,-278.53C1523.2,-279.03 1525.37,-279.52 1527.5,-280 1566.48,-288.8 1612.24,-298.73 1637.04,-307.01"/>
<polygon fill="#63b8ff" stroke="#63b8ff" points="1521.99,-275.17 1511.47,-276.38 1520.45,-281.99 1521.99,-275.17"/>
</a>
</g>
</g>
<!-- Node16&#45;&gt;Node27 -->
<g id="edge45_Node000027_Node000016" class="edge">
<title>Node16&#45;&gt;Node27</title>
<g id="a_edge45_Node000027_Node000016"><a xlink:title=" ">
<path fill="none" stroke="#63b8ff" d="M1467.1,-282.72C1484.21,-288.07 1507.18,-293.41 1527.5,-298 1543.23,-301.55 1560.05,-305.28 1576.17,-308.63"/>
<polygon fill="#63b8ff" stroke="#63b8ff" points="1468.33,-279.44 1457.73,-279.52 1466.06,-286.06 1468.33,-279.44"/>
</a>
</g>
</g>
<!-- Node28 -->
<g id="Node000028" class="node">
<title>Node28</title>
<g id="a_Node000028"><a xlink:href="classdunedaq_1_1coredal_1_1DetectorConfig.html" target="_top" xlink:title=" ">
<polygon fill="white" stroke="#666666" points="1721.25,-101.25 1591.25,-101.25 1591.25,-70.75 1721.25,-70.75 1721.25,-101.25"/>
<text text-anchor="start" x="1599.25" y="-87.75" font-family="Helvetica,sans-Serif" font-size="10.00">dunedaq::coredal::Detector</text>
<text text-anchor="middle" x="1656.25" y="-76.5" font-family="Helvetica,sans-Serif" font-size="10.00">Config</text>
</a>
</g>
</g>
<!-- Node16&#45;&gt;Node28 -->
<g id="edge47_Node000028_Node000016" class="edge">
<title>Node16&#45;&gt;Node28</title>
<g id="a_edge47_Node000028_Node000016"><a xlink:title=" ">
<path fill="none" stroke="#63b8ff" d="M1448.37,-248.59C1461.15,-218.75 1490.4,-164 1527.5,-128 1544.9,-111.12 1568.58,-99.61 1590.83,-92.42"/>
<polygon fill="#63b8ff" stroke="#63b8ff" points="1445.21,-247.07 1444.74,-257.65 1451.71,-249.67 1445.21,-247.07"/>
</a>
</g>
</g>
<!-- Node16&#45;&gt;Node28 -->
<g id="edge48_Node000028_Node000016" class="edge">
<title>Node16&#45;&gt;Node28</title>
<g id="a_edge48_Node000028_Node000016"><a xlink:title=" ">
<path fill="none" stroke="#63b8ff" d="M1454.14,-249.09C1468.84,-222.91 1495.19,-177.34 1527.5,-146 1550.98,-123.22 1585.92,-110.21 1613.32,-101.67"/>
<polygon fill="#63b8ff" stroke="#63b8ff" points="1451.14,-247.27 1449.3,-257.71 1457.25,-250.7 1451.14,-247.27"/>
</a>
</g>
</g>
<!-- Node29 -->
<g id="Node000029" class="node">
<title>Node29</title>
<g id="a_Node000029"><a xlink:href="classdunedaq_1_1coredal_1_1ReadoutMap.html" target="_top" xlink:title=" ">
<polygon fill="white" stroke="#666666" points="1730.25,-457.62 1582.25,-457.62 1582.25,-438.38 1730.25,-438.38 1730.25,-457.62"/>
<text text-anchor="middle" x="1656.25" y="-444.12" font-family="Helvetica,sans-Serif" font-size="10.00">dunedaq::coredal::ReadoutMap</text>
</a>
</g>
</g>
<!-- Node16&#45;&gt;Node29 -->
<g id="edge50_Node000029_Node000016" class="edge">
<title>Node16&#45;&gt;Node29</title>
<g id="a_edge50_Node000029_Node000016"><a xlink:title=" ">
<path fill="none" stroke="#63b8ff" d="M1448.64,-289.61C1459.63,-321.74 1483.95,-382.44 1527.5,-414 1545.98,-427.39 1569.77,-434.11 1591.79,-437.89"/>
<polygon fill="#63b8ff" stroke="#63b8ff" points="1452.01,-288.65 1445.55,-280.25 1445.36,-290.85 1452.01,-288.65"/>
</a>
</g>
</g>
<!-- Node16&#45;&gt;Node29 -->
<g id="edge51_Node000029_Node000016" class="edge">
<title>Node16&#45;&gt;Node29</title>
<g id="a_edge51_Node000029_Node000016"><a xlink:title=" ">
<path fill="none" stroke="#63b8ff" d="M1445.47,-290.11C1454.48,-325.94 1479.13,-396.95 1527.5,-432 1543.24,-443.4 1562.82,-449.97 1581.89,-453.31"/>
<polygon fill="#63b8ff" stroke="#63b8ff" points="1448.92,-289.46 1443.27,-280.5 1442.09,-291.03 1448.92,-289.46"/>
</a>
</g>
</g>
<!-- Node17 -->
<g id="Node000017" class="node">
<title>Node17</title>
<g id="a_Node000017"><a xlink:href="classdunedaq_1_1conffwk_1_1ConfigObject.html" target="_top" xlink:title="Represents database objects.">
<polygon fill="white" stroke="#666666" points="1309.75,-284.25 1187.25,-284.25 1187.25,-253.75 1309.75,-253.75 1309.75,-284.25"/>
<text text-anchor="start" x="1195.25" y="-270.75" font-family="Helvetica,sans-Serif" font-size="10.00">dunedaq::conffwk::Config</text>
<text text-anchor="middle" x="1248.5" y="-259.5" font-family="Helvetica,sans-Serif" font-size="10.00">Object</text>
</a>
</g>
</g>
<!-- Node17&#45;&gt;Node16 -->
<g id="edge18_Node000016_Node000017" class="edge">
<title>Node17&#45;&gt;Node16</title>
<g id="a_edge18_Node000016_Node000017"><a xlink:title=" ">
<path fill="none" stroke="#9a32cd" stroke-dasharray="5,2" d="M1321.17,-269C1337.43,-269 1354.65,-269 1370.77,-269"/>
<polygon fill="#9a32cd" stroke="#9a32cd" points="1321.61,-265.5 1311.61,-269 1321.61,-272.5 1321.61,-265.5"/>
</a>
</g>
<text text-anchor="middle" x="1340.5" y="-270.75" font-family="Helvetica,sans-Serif" font-size="10.00" fill="grey"> p_obj</text>
</g>
<!-- Node18&#45;&gt;Node17 -->
<g id="edge19_Node000017_Node000018" class="edge">
<title>Node18&#45;&gt;Node17</title>
<g id="a_edge19_Node000017_Node000018"><a xlink:title=" ">
<path fill="none" stroke="#9a32cd" stroke-dasharray="5,2" d="M1129.31,-269C1148.34,-269 1168.68,-269 1187.03,-269"/>
<polygon fill="#9a32cd" stroke="#9a32cd" points="1129.48,-265.5 1119.48,-269 1129.48,-272.5 1129.48,-265.5"/>
</a>
</g>
<text text-anchor="middle" x="1152.38" y="-270.75" font-family="Helvetica,sans-Serif" font-size="10.00" fill="grey"> m_impl</text>
</g>
<!-- Node19 -->
<g id="Node000019" class="node">
<title>Node19</title>
<g id="a_Node000019"><a xlink:href="classdunedaq_1_1coredal_1_1Segment.html" target="_top" xlink:title=" ">
<polygon fill="white" stroke="#666666" points="2828.75,-142.62 2696.5,-142.62 2696.5,-123.38 2828.75,-123.38 2828.75,-142.62"/>
<text text-anchor="middle" x="2762.62" y="-129.12" font-family="Helvetica,sans-Serif" font-size="10.00">dunedaq::coredal::Segment</text>
</a>
</g>
</g>
<!-- Node19&#45;&gt;Node15 -->
<g id="edge22_Node000015_Node000019" class="edge">
<title>Node19&#45;&gt;Node15</title>
<g id="a_edge22_Node000015_Node000019"><a xlink:title=" ">
<path fill="none" stroke="#9a32cd" stroke-dasharray="5,2" d="M2840.44,-133C2882.78,-133 2934.71,-133 2974.74,-133"/>
<polygon fill="#9a32cd" stroke="#9a32cd" points="2840.57,-129.5 2830.57,-133 2840.57,-136.5 2840.57,-129.5"/>
</a>
</g>
<text text-anchor="middle" x="2901.88" y="-134.75" font-family="Helvetica,sans-Serif" font-size="10.00" fill="grey"> m_segment</text>
</g>
<!-- Node20 -->
<g id="Node000020" class="node">
<title>Node20</title>
<g id="a_Node000020"><a xlink:href="classdunedaq_1_1coredal_1_1ResourceBase.html" target="_top" xlink:title=" ">
<polygon fill="white" stroke="#666666" points="2144,-142.62 1987,-142.62 1987,-123.38 2144,-123.38 2144,-142.62"/>
<text text-anchor="middle" x="2065.5" y="-129.12" font-family="Helvetica,sans-Serif" font-size="10.00">dunedaq::coredal::ResourceBase</text>
</a>
</g>
</g>
<!-- Node20&#45;&gt;Node19 -->
<g id="edge23_Node000019_Node000020" class="edge">
<title>Node20&#45;&gt;Node19</title>
<g id="a_edge23_Node000019_Node000020"><a xlink:title=" ">
<path fill="none" stroke="#63b8ff" d="M2155.43,-128.31C2297.15,-125.39 2570.95,-125.57 2696.21,-128.85"/>
<polygon fill="#63b8ff" stroke="#63b8ff" points="2155.65,-124.8 2145.73,-128.52 2155.8,-131.8 2155.65,-124.8"/>
</a>
</g>
</g>
<!-- Node20&#45;&gt;Node19 -->
<g id="edge28_Node000019_Node000020" class="edge">
<title>Node20&#45;&gt;Node19</title>
<g id="a_edge28_Node000019_Node000020"><a xlink:title=" ">
<path fill="none" stroke="#63b8ff" d="M2155.43,-137.69C2297.15,-140.61 2570.95,-140.43 2696.21,-137.15"/>
<polygon fill="#63b8ff" stroke="#63b8ff" points="2155.8,-134.2 2145.73,-137.48 2155.65,-141.2 2155.8,-134.2"/>
</a>
</g>
</g>
<!-- Node21&#45;&gt;Node20 -->
<g id="edge24_Node000020_Node000021" class="edge">
<title>Node21&#45;&gt;Node20</title>
<g id="a_edge24_Node000020_Node000021"><a xlink:title=" ">
<path fill="none" stroke="#63b8ff" d="M1739.01,-124.27C1811.16,-123.33 1915.59,-124.38 1986.56,-126.79"/>
<polygon fill="#63b8ff" stroke="#63b8ff" points="1739.18,-120.77 1729.24,-124.42 1739.29,-127.77 1739.18,-120.77"/>
</a>
</g>
</g>
<!-- Node21&#45;&gt;Node20 -->
<g id="edge27_Node000020_Node000021" class="edge">
<title>Node21&#45;&gt;Node20</title>
<g id="a_edge27_Node000020_Node000021"><a xlink:title=" ">
<path fill="none" stroke="#63b8ff" d="M1739.01,-135.34C1811.16,-137.7 1915.59,-138.69 1986.56,-137.68"/>
<polygon fill="#63b8ff" stroke="#63b8ff" points="1739.35,-131.85 1729.24,-135 1739.11,-138.84 1739.35,-131.85"/>
</a>
</g>
</g>
<!-- Node22 -->
<g id="Node000022" class="node">
<title>Node22</title>
<g id="a_Node000022"><a xlink:href="classdunedaq_1_1coredal_1_1RCApplication.html" target="_top" xlink:title=" ">
<polygon fill="white" stroke="#666666" points="2605,-225.62 2450.25,-225.62 2450.25,-206.38 2605,-206.38 2605,-225.62"/>
<text text-anchor="middle" x="2527.62" y="-212.12" font-family="Helvetica,sans-Serif" font-size="10.00">dunedaq::coredal::RCApplication</text>
</a>
</g>
</g>
<!-- Node22&#45;&gt;Node19 -->
<g id="edge29_Node000019_Node000022" class="edge">
<title>Node22&#45;&gt;Node19</title>
<g id="a_edge29_Node000019_Node000022"><a xlink:title=" ">
<path fill="none" stroke="#9a32cd" stroke-dasharray="5,2" d="M2567.37,-202.2C2614.2,-185.51 2691.9,-157.84 2733.42,-143.05"/>
<polygon fill="#9a32cd" stroke="#9a32cd" points="2566.4,-198.83 2558.16,-205.48 2568.75,-205.42 2566.4,-198.83"/>
</a>
</g>
<text text-anchor="middle" x="2650.75" y="-182.75" font-family="Helvetica,sans-Serif" font-size="10.00" fill="grey"> m_controller</text>
</g>
<!-- Node23&#45;&gt;Node22 -->
<g id="edge30_Node000022_Node000023" class="edge">
<title>Node23&#45;&gt;Node22</title>
<g id="a_edge30_Node000022_Node000023"><a xlink:title=" ">
<path fill="none" stroke="#63b8ff" d="M2314.8,-209.89C2357.02,-209.01 2408.34,-209.04 2449.89,-209.98"/>
<polygon fill="#63b8ff" stroke="#63b8ff" points="2314.86,-206.38 2304.95,-210.12 2315.03,-213.38 2314.86,-206.38"/>
</a>
</g>
</g>
<!-- Node23&#45;&gt;Node22 -->
<g id="edge39_Node000022_Node000023" class="edge">
<title>Node23&#45;&gt;Node22</title>
<g id="a_edge39_Node000022_Node000023"><a xlink:title=" ">
<path fill="none" stroke="#63b8ff" d="M2314.8,-222.11C2357.02,-222.99 2408.34,-222.96 2449.89,-222.02"/>
<polygon fill="#63b8ff" stroke="#63b8ff" points="2315.03,-218.62 2304.95,-221.88 2314.86,-225.62 2315.03,-218.62"/>
</a>
</g>
</g>
<!-- Node24&#45;&gt;Node23 -->
<g id="edge33_Node000023_Node000024" class="edge">
<title>Node24&#45;&gt;Node23</title>
<g id="a_edge33_Node000023_Node000024"><a xlink:title=" ">
<path fill="none" stroke="#9a32cd" stroke-dasharray="5,2" d="M1980.35,-243.2C2035.87,-237.19 2108.65,-229.31 2161.59,-223.58"/>
<polygon fill="#9a32cd" stroke="#9a32cd" points="1980.2,-239.69 1970.64,-244.25 1980.96,-246.65 1980.2,-239.69"/>
</a>
</g>
<text text-anchor="middle" x="2065.5" y="-243.75" font-family="Helvetica,sans-Serif" font-size="10.00" fill="grey"> m_runs_on</text>
</g>
<!-- Node25&#45;&gt;Node24 -->
<g id="edge36_Node000024_Node000025" class="edge">
<title>Node25&#45;&gt;Node24</title>
<g id="a_edge36_Node000024_Node000025"><a xlink:title=" ">
<path fill="none" stroke="#9a32cd" stroke-dasharray="5,2" d="M1743.32,-228.74C1764.82,-230.59 1787.79,-232.91 1809,-235.75 1821.47,-237.42 1834.86,-239.66 1847.34,-241.94"/>
<polygon fill="#9a32cd" stroke="#9a32cd" points="1743.66,-225.26 1733.4,-227.92 1743.08,-232.24 1743.66,-225.26"/>
</a>
</g>
<text text-anchor="middle" x="1783.88" y="-236.75" font-family="Helvetica,sans-Serif" font-size="10.00" fill="grey"> m_runs_on</text>
</g>
<!-- Node26&#45;&gt;Node22 -->
<g id="edge40_Node000022_Node000026" class="edge">
<title>Node26&#45;&gt;Node22</title>
<g id="a_edge40_Node000022_Node000026"><a xlink:title=" ">
<path fill="none" stroke="#9a32cd" stroke-dasharray="5,2" d="M1752.38,-353.7C1900.91,-350.78 2195.44,-335.11 2432.25,-261 2460.49,-252.16 2491.03,-236.34 2509.49,-226"/>
<polygon fill="#9a32cd" stroke="#9a32cd" points="1752.52,-350.2 1742.58,-353.87 1752.64,-357.19 1752.52,-350.2"/>
</a>
</g>
<text text-anchor="middle" x="2065.5" y="-341.75" font-family="Helvetica,sans-Serif" font-size="10.00" fill="grey"> m_fsm</text>
</g>
<!-- Node27&#45;&gt;Node22 -->
<g id="edge43_Node000022_Node000027" class="edge">
<title>Node27&#45;&gt;Node22</title>
<g id="a_edge43_Node000022_Node000027"><a xlink:title=" ">
<path fill="none" stroke="#9a32cd" stroke-dasharray="5,2" d="M1747.58,-311.99C1892.72,-303.02 2186.49,-281.1 2432.25,-239 2451.7,-235.67 2473.08,-230.58 2490.57,-226.03"/>
<polygon fill="#9a32cd" stroke="#9a32cd" points="1747.39,-308.49 1737.63,-312.6 1747.82,-315.48 1747.39,-308.49"/>
</a>
</g>
<text text-anchor="middle" x="2065.5" y="-294.75" font-family="Helvetica,sans-Serif" font-size="10.00" fill="grey"> m_broadcaster</text>
</g>
<!-- Node28&#45;&gt;Node15 -->
<g id="edge46_Node000015_Node000028" class="edge">
<title>Node28&#45;&gt;Node15</title>
<g id="a_edge46_Node000015_Node000028"><a xlink:title=" ">
<path fill="none" stroke="#9a32cd" stroke-dasharray="5,2" d="M1732.97,-86C1780.15,-86 1842.11,-86 1897,-86 1897,-86 1897,-86 2763.62,-86 2850.45,-86 2950.53,-109.11 3002.6,-122.92"/>
<polygon fill="#9a32cd" stroke="#9a32cd" points="1733.13,-82.5 1723.13,-86 1733.13,-89.5 1733.13,-82.5"/>
</a>
</g>
<text text-anchor="middle" x="2376.75" y="-87.75" font-family="Helvetica,sans-Serif" font-size="10.00" fill="grey"> m_detector_configuration</text>
</g>
<!-- Node29&#45;&gt;Node15 -->
<g id="edge49_Node000015_Node000029" class="edge">
<title>Node29&#45;&gt;Node15</title>
<g id="a_edge49_Node000015_Node000029"><a xlink:title=" ">
<path fill="none" stroke="#9a32cd" stroke-dasharray="5,2" d="M1742.1,-448C1787.96,-448 1845.58,-448 1897,-448 1897,-448 1897,-448 2763.62,-448 2850.23,-448 2891.38,-480.52 2957,-424 3001.71,-385.49 3030.59,-189.88 3036.93,-143.07"/>
<polygon fill="#9a32cd" stroke="#9a32cd" points="1742.21,-444.5 1732.21,-448 1742.21,-451.5 1742.21,-444.5"/>
</a>
</g>
<text text-anchor="middle" x="2376.75" y="-449.75" font-family="Helvetica,sans-Serif" font-size="10.00" fill="grey"> m_readout_map</text>
</g>
</g>
</svg>
