<?xml version="1.0" encoding="UTF-8" standalone="no"?>
<!DOCTYPE svg PUBLIC "-//W3C//DTD SVG 1.1//EN"
 "http://www.w3.org/Graphics/SVG/1.1/DTD/svg11.dtd">
<!-- Generated by graphviz version 9.0.0 (20230911.1827)
 -->
<!-- Title: dunedaq::coredal::HostComponent Pages: 1 -->
<svg width="524pt" height="137pt"
 viewBox="0.00 0.00 524.00 136.50" xmlns="http://www.w3.org/2000/svg" xmlns:xlink="http://www.w3.org/1999/xlink">
<g id="graph0" class="graph" transform="scale(1 1) rotate(0) translate(4 132.5)">
<title>dunedaq::coredal::HostComponent</title>
<!-- Node1 -->
<g id="Node000001" class="node">
<title>Node1</title>
<g id="a_Node000001"><a xlink:title=" ">
<polygon fill="#999999" stroke="#666666" points="338,-73.88 174.25,-73.88 174.25,-54.62 338,-54.62 338,-73.88"/>
<text text-anchor="middle" x="256.12" y="-60.38" font-family="Helvetica,sans-Serif" font-size="10.00">dunedaq::coredal::HostComponent</text>
</a>
</g>
</g>
<!-- Node3 -->
<g id="Node000003" class="node">
<title>Node3</title>
<g id="a_Node000003"><a xlink:href="classdunedaq_1_1coredal_1_1NetworkDevice.html" target="_top" xlink:title=" ">
<polygon fill="white" stroke="#666666" points="510,-128.5 380,-128.5 380,-98 510,-98 510,-128.5"/>
<text text-anchor="start" x="388" y="-115" font-family="Helvetica,sans-Serif" font-size="10.00">dunedaq::coredal::Network</text>
<text text-anchor="middle" x="445" y="-103.75" font-family="Helvetica,sans-Serif" font-size="10.00">Device</text>
</a>
</g>
</g>
<!-- Node1&#45;&gt;Node3 -->
<g id="edge3_Node000001_Node000003" class="edge">
<title>Node1&#45;&gt;Node3</title>
<g id="a_edge3_Node000001_Node000003"><a xlink:title=" ">
<path fill="none" stroke="#63b8ff" d="M331.26,-77.07C356.66,-83.38 384.06,-90.91 405.49,-97.57"/>
<polygon fill="#63b8ff" stroke="#63b8ff" points="332.15,-73.68 321.6,-74.71 330.49,-80.48 332.15,-73.68"/>
</a>
</g>
</g>
<!-- Node1&#45;&gt;Node3 -->
<g id="edge4_Node000001_Node000003" class="edge">
<title>Node1&#45;&gt;Node3</title>
<g id="a_edge4_Node000001_Node000003"><a xlink:title=" ">
<path fill="none" stroke="#63b8ff" d="M289.18,-77.89C313.98,-85.85 349.14,-95.48 379.69,-102.84"/>
<polygon fill="#63b8ff" stroke="#63b8ff" points="290.59,-74.67 280,-74.84 288.38,-81.32 290.59,-74.67"/>
</a>
</g>
</g>
<!-- Node4 -->
<g id="Node000004" class="node">
<title>Node4</title>
<g id="a_Node000004"><a xlink:href="classdunedaq_1_1coredal_1_1ProcessingResource.html" target="_top" xlink:title=" ">
<polygon fill="white" stroke="#666666" points="516,-79.5 374,-79.5 374,-49 516,-49 516,-79.5"/>
<text text-anchor="start" x="382" y="-66" font-family="Helvetica,sans-Serif" font-size="10.00">dunedaq::coredal::Processing</text>
<text text-anchor="middle" x="445" y="-54.75" font-family="Helvetica,sans-Serif" font-size="10.00">Resource</text>
</a>
</g>
</g>
<!-- Node1&#45;&gt;Node4 -->
<g id="edge5_Node000001_Node000004" class="edge">
<title>Node1&#45;&gt;Node4</title>
<g id="a_edge5_Node000001_Node000004"><a xlink:title=" ">
<path fill="none" stroke="#63b8ff" d="M349.69,-57.5C357.79,-57.5 365.89,-57.56 373.76,-57.69"/>
<polygon fill="#63b8ff" stroke="#63b8ff" points="349.77,-54 339.79,-57.55 349.81,-61 349.77,-54"/>
</a>
</g>
</g>
<!-- Node1&#45;&gt;Node4 -->
<g id="edge6_Node000001_Node000004" class="edge">
<title>Node1&#45;&gt;Node4</title>
<g id="a_edge6_Node000001_Node000004"><a xlink:title=" ">
<path fill="none" stroke="#63b8ff" d="M349.69,-71C357.79,-71 365.89,-70.94 373.76,-70.81"/>
<polygon fill="#63b8ff" stroke="#63b8ff" points="349.81,-67.5 339.79,-70.95 349.77,-74.5 349.81,-67.5"/>
</a>
</g>
</g>
<!-- Node5 -->
<g id="Node000005" class="node">
<title>Node5</title>
<g id="a_Node000005"><a xlink:href="classdunedaq_1_1coredal_1_1StorageDevice.html" target="_top" xlink:title=" ">
<polygon fill="white" stroke="#666666" points="508.5,-30.5 381.5,-30.5 381.5,0 508.5,0 508.5,-30.5"/>
<text text-anchor="start" x="389.5" y="-17" font-family="Helvetica,sans-Serif" font-size="10.00">dunedaq::coredal::Storage</text>
<text text-anchor="middle" x="445" y="-5.75" font-family="Helvetica,sans-Serif" font-size="10.00">Device</text>
</a>
</g>
</g>
<!-- Node1&#45;&gt;Node5 -->
<g id="edge7_Node000001_Node000005" class="edge">
<title>Node1&#45;&gt;Node5</title>
<g id="a_edge7_Node000001_Node000005"><a xlink:title=" ">
<path fill="none" stroke="#63b8ff" d="M289.36,-50.55C314.6,-42.46 350.49,-32.66 381.33,-25.27"/>
<polygon fill="#63b8ff" stroke="#63b8ff" points="288.39,-47.18 280,-53.66 290.59,-53.83 288.39,-47.18"/>
</a>
</g>
</g>
<!-- Node1&#45;&gt;Node5 -->
<g id="edge8_Node000001_Node000005" class="edge">
<title>Node1&#45;&gt;Node5</title>
<g id="a_edge8_Node000001_Node000005"><a xlink:title=" ">
<path fill="none" stroke="#63b8ff" d="M331.26,-51.43C356.66,-45.12 384.06,-37.59 405.49,-30.93"/>
<polygon fill="#63b8ff" stroke="#63b8ff" points="330.49,-48.02 321.6,-53.79 332.15,-54.82 330.49,-48.02"/>
</a>
</g>
</g>
<!-- Node2 -->
<g id="Node000002" class="node">
<title>Node2</title>
<g id="a_Node000002"><a xlink:href="classdunedaq_1_1conffwk_1_1DalObject.html" target="_top" xlink:title="The base class for any generated DAL object.">
<polygon fill="white" stroke="#666666" points="138.25,-73.88 0,-73.88 0,-54.62 138.25,-54.62 138.25,-73.88"/>
<text text-anchor="middle" x="69.12" y="-60.38" font-family="Helvetica,sans-Serif" font-size="10.00">dunedaq::conffwk::DalObject</text>
</a>
</g>
</g>
<!-- Node2&#45;&gt;Node1 -->
<g id="edge1_Node000001_Node000002" class="edge">
<title>Node2&#45;&gt;Node1</title>
<g id="a_edge1_Node000001_Node000002"><a xlink:title=" ">
<path fill="none" stroke="#63b8ff" d="M150.13,-57.56C157.97,-57.49 165.94,-57.48 173.79,-57.54"/>
<polygon fill="#63b8ff" stroke="#63b8ff" points="150.22,-54.05 140.26,-57.68 150.31,-61.05 150.22,-54.05"/>
</a>
</g>
</g>
<!-- Node2&#45;&gt;Node1 -->
<g id="edge2_Node000001_Node000002" class="edge">
<title>Node2&#45;&gt;Node1</title>
<g id="a_edge2_Node000001_Node000002"><a xlink:title=" ">
<path fill="none" stroke="#63b8ff" d="M150.13,-70.94C157.97,-71.01 165.94,-71.02 173.79,-70.96"/>
<polygon fill="#63b8ff" stroke="#63b8ff" points="150.31,-67.45 140.26,-70.82 150.22,-74.45 150.31,-67.45"/>
</a>
</g>
</g>
</g>
</svg>
