<?xml version="1.0" encoding="UTF-8" standalone="no"?>
<!DOCTYPE svg PUBLIC "-//W3C//DTD SVG 1.1//EN"
 "http://www.w3.org/Graphics/SVG/1.1/DTD/svg11.dtd">
<!-- Generated by graphviz version 9.0.0 (20230911.1827)
 -->
<!-- Title: dunedaq::appdal::ReadoutHost Pages: 1 -->
<svg width="155pt" height="138pt"
 viewBox="0.00 0.00 155.25 137.75" xmlns="http://www.w3.org/2000/svg" xmlns:xlink="http://www.w3.org/1999/xlink">
<g id="graph0" class="graph" transform="scale(1 1) rotate(0) translate(4 133.75)">
<title>dunedaq::appdal::ReadoutHost</title>
<!-- Node1 -->
<g id="Node000001" class="node">
<title>Node1</title>
<g id="a_Node000001"><a xlink:title=" ">
<polygon fill="#999999" stroke="#666666" points="147.25,-19.25 0,-19.25 0,0 147.25,0 147.25,-19.25"/>
<text text-anchor="middle" x="73.62" y="-5.75" font-family="Helvetica,sans-Serif" font-size="10.00">dunedaq::appdal::ReadoutHost</text>
</a>
</g>
</g>
<!-- Node2 -->
<g id="Node000002" class="node">
<title>Node2</title>
<g id="a_Node000002"><a xlink:href="classdunedaq_1_1coredal_1_1VirtualHost.html" target="_top" xlink:title=" ">
<polygon fill="white" stroke="#666666" points="144.62,-74.5 2.62,-74.5 2.62,-55.25 144.62,-55.25 144.62,-74.5"/>
<text text-anchor="middle" x="73.62" y="-61" font-family="Helvetica,sans-Serif" font-size="10.00">dunedaq::coredal::VirtualHost</text>
</a>
</g>
</g>
<!-- Node2&#45;&gt;Node1 -->
<g id="edge1_Node000001_Node000002" class="edge">
<title>Node2&#45;&gt;Node1</title>
<g id="a_edge1_Node000001_Node000002"><a xlink:title=" ">
<path fill="none" stroke="#63b8ff" d="M67.07,-43.92C66.58,-35.55 67.03,-26.25 68.42,-19.61"/>
<polygon fill="#63b8ff" stroke="#63b8ff" points="63.56,-44.09 68.27,-53.58 70.51,-43.22 63.56,-44.09"/>
</a>
</g>
</g>
<!-- Node2&#45;&gt;Node1 -->
<g id="edge4_Node000001_Node000002" class="edge">
<title>Node2&#45;&gt;Node1</title>
<g id="a_edge4_Node000001_Node000002"><a xlink:title=" ">
<path fill="none" stroke="#63b8ff" d="M80.18,-43.92C80.67,-35.55 80.22,-26.25 78.83,-19.61"/>
<polygon fill="#63b8ff" stroke="#63b8ff" points="76.74,-43.22 78.98,-53.58 83.69,-44.09 76.74,-43.22"/>
</a>
</g>
</g>
<!-- Node3 -->
<g id="Node000003" class="node">
<title>Node3</title>
<g id="a_Node000003"><a xlink:href="classdunedaq_1_1conffwk_1_1DalObject.html" target="_top" xlink:title="The base class for any generated DAL object.">
<polygon fill="white" stroke="#666666" points="142.75,-129.75 4.5,-129.75 4.5,-110.5 142.75,-110.5 142.75,-129.75"/>
<text text-anchor="middle" x="73.62" y="-116.25" font-family="Helvetica,sans-Serif" font-size="10.00">dunedaq::conffwk::DalObject</text>
</a>
</g>
</g>
<!-- Node3&#45;&gt;Node2 -->
<g id="edge2_Node000002_Node000003" class="edge">
<title>Node3&#45;&gt;Node2</title>
<g id="a_edge2_Node000002_Node000003"><a xlink:title=" ">
<path fill="none" stroke="#63b8ff" d="M67.07,-99.17C66.58,-90.8 67.03,-81.5 68.42,-74.86"/>
<polygon fill="#63b8ff" stroke="#63b8ff" points="63.56,-99.34 68.27,-108.83 70.51,-98.47 63.56,-99.34"/>
</a>
</g>
</g>
<!-- Node3&#45;&gt;Node2 -->
<g id="edge3_Node000002_Node000003" class="edge">
<title>Node3&#45;&gt;Node2</title>
<g id="a_edge3_Node000002_Node000003"><a xlink:title=" ">
<path fill="none" stroke="#63b8ff" d="M80.18,-99.17C80.67,-90.8 80.22,-81.5 78.83,-74.86"/>
<polygon fill="#63b8ff" stroke="#63b8ff" points="76.74,-98.47 78.98,-108.83 83.69,-99.34 76.74,-98.47"/>
</a>
</g>
</g>
</g>
</svg>
