<?xml version="1.0" encoding="UTF-8" standalone="no"?>
<!DOCTYPE svg PUBLIC "-//W3C//DTD SVG 1.1//EN"
 "http://www.w3.org/Graphics/SVG/1.1/DTD/svg11.dtd">
<!-- Generated by graphviz version 9.0.0 (20230911.1827)
 -->
<!-- Title: dunedaq::iomanager::Receiver Pages: 1 -->
<svg width="244pt" height="184pt"
 viewBox="0.00 0.00 243.62 183.75" xmlns="http://www.w3.org/2000/svg" xmlns:xlink="http://www.w3.org/1999/xlink">
<g id="graph0" class="graph" transform="scale(1 1) rotate(0) translate(4 179.75)">
<title>dunedaq::iomanager::Receiver</title>
<!-- Node1 -->
<g id="Node000001" class="node">
<title>Node1</title>
<g id="a_Node000001"><a xlink:title=" ">
<polygon fill="#999999" stroke="#666666" points="158.12,-30.5 55.88,-30.5 55.88,0 158.12,0 158.12,-30.5"/>
<text text-anchor="start" x="63.88" y="-17" font-family="Helvetica,sans-Serif" font-size="10.00">dunedaq::iomanager</text>
<text text-anchor="middle" x="107" y="-5.75" font-family="Helvetica,sans-Serif" font-size="10.00">::Receiver</text>
</a>
</g>
</g>
<!-- Node2 -->
<g id="Node000002" class="node">
<title>Node2</title>
<g id="a_Node000002"><a xlink:href="classdunedaq_1_1utilities_1_1NamedObject.html" target="_top" xlink:title="Implements the Named interface.">
<polygon fill="white" stroke="#666666" points="88,-108.25 0,-108.25 0,-77.75 88,-77.75 88,-108.25"/>
<text text-anchor="start" x="8" y="-94.75" font-family="Helvetica,sans-Serif" font-size="10.00">dunedaq::utilities</text>
<text text-anchor="middle" x="44" y="-83.5" font-family="Helvetica,sans-Serif" font-size="10.00">::NamedObject</text>
</a>
</g>
</g>
<!-- Node2&#45;&gt;Node1 -->
<g id="edge1_Node000001_Node000002" class="edge">
<title>Node2&#45;&gt;Node1</title>
<g id="a_edge1_Node000001_Node000002"><a xlink:title=" ">
<path fill="none" stroke="#63b8ff" d="M63.21,-68.9C73.52,-56.5 85.92,-41.59 94.89,-30.81"/>
<polygon fill="#63b8ff" stroke="#63b8ff" points="60.82,-66.3 57.11,-76.23 66.2,-70.78 60.82,-66.3"/>
</a>
</g>
</g>
<!-- Node3 -->
<g id="Node000003" class="node">
<title>Node3</title>
<g id="a_Node000003"><a xlink:href="classdunedaq_1_1utilities_1_1Named.html" target="_top" xlink:title="A Named is a DAQ object (Queue or DAQModule) which has an instance name.">
<polygon fill="white" stroke="#666666" points="88,-175.75 0,-175.75 0,-145.25 88,-145.25 88,-175.75"/>
<text text-anchor="start" x="8" y="-162.25" font-family="Helvetica,sans-Serif" font-size="10.00">dunedaq::utilities</text>
<text text-anchor="middle" x="44" y="-151" font-family="Helvetica,sans-Serif" font-size="10.00">::Named</text>
</a>
</g>
</g>
<!-- Node3&#45;&gt;Node2 -->
<g id="edge2_Node000002_Node000003" class="edge">
<title>Node3&#45;&gt;Node2</title>
<g id="a_edge2_Node000002_Node000003"><a xlink:title=" ">
<path fill="none" stroke="#63b8ff" d="M44,-133.59C44,-125.05 44,-115.87 44,-108.5"/>
<polygon fill="#63b8ff" stroke="#63b8ff" points="40.5,-133.45 44,-143.45 47.5,-133.45 40.5,-133.45"/>
</a>
</g>
</g>
<!-- Node4 -->
<g id="Node000004" class="node">
<title>Node4</title>
<g id="a_Node000004"><a xlink:href="structdunedaq_1_1iomanager_1_1connection_1_1ConnectionId.html" target="_top" xlink:title=" ">
<polygon fill="white" stroke="#666666" points="235.62,-108.25 106.38,-108.25 106.38,-77.75 235.62,-77.75 235.62,-108.25"/>
<text text-anchor="start" x="114.38" y="-94.75" font-family="Helvetica,sans-Serif" font-size="10.00">dunedaq::iomanager</text>
<text text-anchor="middle" x="171" y="-83.5" font-family="Helvetica,sans-Serif" font-size="10.00">::connection::ConnectionId</text>
</a>
</g>
</g>
<!-- Node4&#45;&gt;Node1 -->
<g id="edge3_Node000001_Node000004" class="edge">
<title>Node4&#45;&gt;Node1</title>
<g id="a_edge3_Node000001_Node000004"><a xlink:title=" ">
<path fill="none" stroke="#9a32cd" stroke-dasharray="5,2" d="M151.49,-68.9C141.01,-56.5 128.41,-41.59 119.3,-30.81"/>
<polygon fill="#9a32cd" stroke="#9a32cd" points="148.56,-70.86 157.68,-76.24 153.9,-66.34 148.56,-70.86"/>
</a>
</g>
<text text-anchor="middle" x="160.38" y="-50.25" font-family="Helvetica,sans-Serif" font-size="10.00" fill="grey"> m_conn</text>
</g>
</g>
</svg>
