<?xml version="1.0" encoding="UTF-8" standalone="no"?>
<!DOCTYPE svg PUBLIC "-//W3C//DTD SVG 1.1//EN"
 "http://www.w3.org/Graphics/SVG/1.1/DTD/svg11.dtd">
<!-- Generated by graphviz version 9.0.0 (20230911.1827)
 -->
<!-- Title: dunedaq::readoutlibs::DefaultSkipListRequestHandler&lt; T &gt; Pages: 1 -->
<svg width="619pt" height="61pt"
 viewBox="0.00 0.00 618.50 61.00" xmlns="http://www.w3.org/2000/svg" xmlns:xlink="http://www.w3.org/1999/xlink">
<g id="graph0" class="graph" transform="scale(1 1) rotate(0) translate(4 57)">
<title>dunedaq::readoutlibs::DefaultSkipListRequestHandler&lt; T &gt;</title>
<!-- Node1 -->
<g id="Node000001" class="node">
<title>Node1</title>
<g id="a_Node000001"><a xlink:title=" ">
<polygon fill="#999999" stroke="#666666" points="610.5,-41.75 431,-41.75 431,-11.25 610.5,-11.25 610.5,-41.75"/>
<text text-anchor="start" x="439" y="-28.25" font-family="Helvetica,sans-Serif" font-size="10.00">dunedaq::readoutlibs</text>
<text text-anchor="middle" x="520.75" y="-17" font-family="Helvetica,sans-Serif" font-size="10.00">::DefaultSkipListRequestHandler&lt; T &gt;</text>
</a>
</g>
</g>
<!-- Node2 -->
<g id="Node000002" class="node">
<title>Node2</title>
<g id="a_Node000002"><a xlink:href="classdunedaq_1_1readoutlibs_1_1DefaultRequestHandlerModel.html" target="_top" xlink:title=" ">
<polygon fill="white" stroke="#666666" points="395,-53 211.75,-53 211.75,0 395,0 395,-53"/>
<text text-anchor="start" x="219.75" y="-39.5" font-family="Helvetica,sans-Serif" font-size="10.00">dunedaq::readoutlibs</text>
<text text-anchor="start" x="219.75" y="-28.25" font-family="Helvetica,sans-Serif" font-size="10.00">::DefaultRequestHandlerModel</text>
<text text-anchor="start" x="219.75" y="-17" font-family="Helvetica,sans-Serif" font-size="10.00">&lt; T, readoutlibs::SkipListLatencyBuffer</text>
<text text-anchor="middle" x="303.38" y="-5.75" font-family="Helvetica,sans-Serif" font-size="10.00">Model&lt; T &gt; &gt;</text>
</a>
</g>
</g>
<!-- Node2&#45;&gt;Node1 -->
<g id="edge1_Node000001_Node000002" class="edge">
<title>Node2&#45;&gt;Node1</title>
<g id="a_edge1_Node000001_Node000002"><a xlink:title=" ">
<path fill="none" stroke="#63b8ff" d="M406.72,-26.5C414.75,-26.5 422.83,-26.5 430.77,-26.5"/>
<polygon fill="#63b8ff" stroke="#63b8ff" points="406.91,-23 396.91,-26.5 406.91,-30 406.91,-23"/>
</a>
</g>
</g>
<!-- Node3 -->
<g id="Node000003" class="node">
<title>Node3</title>
<g id="a_Node000003"><a xlink:href="classdunedaq_1_1readoutlibs_1_1RequestHandlerConcept.html" target="_top" xlink:title=" ">
<polygon fill="white" stroke="#666666" points="175.75,-47.38 0,-47.38 0,-5.62 175.75,-5.62 175.75,-47.38"/>
<text text-anchor="start" x="8" y="-33.88" font-family="Helvetica,sans-Serif" font-size="10.00">dunedaq::readoutlibs</text>
<text text-anchor="start" x="8" y="-22.62" font-family="Helvetica,sans-Serif" font-size="10.00">::RequestHandlerConcept</text>
<text text-anchor="middle" x="87.88" y="-11.38" font-family="Helvetica,sans-Serif" font-size="10.00">&lt; ReadoutType, LatencyBufferType &gt;</text>
</a>
</g>
</g>
<!-- Node3&#45;&gt;Node2 -->
<g id="edge2_Node000002_Node000003" class="edge">
<title>Node3&#45;&gt;Node2</title>
<g id="a_edge2_Node000002_Node000003"><a xlink:title=" ">
<path fill="none" stroke="#63b8ff" d="M187.29,-26.5C195.31,-26.5 203.39,-26.5 211.34,-26.5"/>
<polygon fill="#63b8ff" stroke="#63b8ff" points="187.54,-23 177.54,-26.5 187.54,-30 187.54,-23"/>
</a>
</g>
</g>
</g>
</svg>
