<?xml version="1.0" encoding="UTF-8" standalone="no"?>
<!DOCTYPE svg PUBLIC "-//W3C//DTD SVG 1.1//EN"
 "http://www.w3.org/Graphics/SVG/1.1/DTD/svg11.dtd">
<!-- Generated by graphviz version 9.0.0 (20230911.1827)
 -->
<!-- Title: dunedaq::timing::MasterDesign Pages: 1 -->
<svg width="1154pt" height="189pt"
 viewBox="0.00 0.00 1153.50 188.88" xmlns="http://www.w3.org/2000/svg" xmlns:xlink="http://www.w3.org/1999/xlink">
<g id="graph0" class="graph" transform="scale(1 1) rotate(0) translate(4 184.88)">
<title>dunedaq::timing::MasterDesign</title>
<!-- Node1 -->
<g id="Node000001" class="node">
<title>Node1</title>
<g id="a_Node000001"><a xlink:title="Base class for timing master designs.">
<polygon fill="#999999" stroke="#666666" points="776.75,-97.88 628.75,-97.88 628.75,-78.62 776.75,-78.62 776.75,-97.88"/>
<text text-anchor="middle" x="702.75" y="-84.38" font-family="Helvetica,sans-Serif" font-size="10.00">dunedaq::timing::MasterDesign</text>
</a>
</g>
</g>
<!-- Node7 -->
<g id="Node000007" class="node">
<title>Node7</title>
<g id="a_Node000007"><a xlink:href="classdunedaq_1_1timing_1_1BoreasDesign.html" target="_top" xlink:title="Class for timing master with integrated HSI designs.">
<polygon fill="white" stroke="#666666" points="961.5,-165.88 812.75,-165.88 812.75,-146.62 961.5,-146.62 961.5,-165.88"/>
<text text-anchor="middle" x="887.12" y="-152.38" font-family="Helvetica,sans-Serif" font-size="10.00">dunedaq::timing::BoreasDesign</text>
</a>
</g>
</g>
<!-- Node1&#45;&gt;Node7 -->
<g id="edge7_Node000001_Node000007" class="edge">
<title>Node1&#45;&gt;Node7</title>
<g id="a_edge7_Node000001_Node000007"><a xlink:title=" ">
<path fill="none" stroke="#63b8ff" d="M733.59,-103.32C755.19,-113.81 785.29,-127.6 812.75,-137.25 822.19,-140.57 832.49,-143.59 842.3,-146.2"/>
<polygon fill="#63b8ff" stroke="#63b8ff" points="735.3,-100.26 724.78,-98.98 732.21,-106.54 735.3,-100.26"/>
</a>
</g>
</g>
<!-- Node8 -->
<g id="Node000008" class="node">
<title>Node8</title>
<g id="a_Node000008"><a xlink:href="classdunedaq_1_1timing_1_1MasterMuxDesign.html" target="_top" xlink:title="Class for PDI timing master design on mux board.">
<polygon fill="white" stroke="#666666" points="955.12,-128.5 819.12,-128.5 819.12,-98 955.12,-98 955.12,-128.5"/>
<text text-anchor="start" x="827.12" y="-115" font-family="Helvetica,sans-Serif" font-size="10.00">dunedaq::timing::MasterMux</text>
<text text-anchor="middle" x="887.12" y="-103.75" font-family="Helvetica,sans-Serif" font-size="10.00">Design</text>
</a>
</g>
</g>
<!-- Node1&#45;&gt;Node8 -->
<g id="edge8_Node000001_Node000008" class="edge">
<title>Node1&#45;&gt;Node8</title>
<g id="a_edge8_Node000001_Node000008"><a xlink:title=" ">
<path fill="none" stroke="#63b8ff" d="M788.53,-99.87C798.67,-101.26 808.93,-102.67 818.78,-104.02"/>
<polygon fill="#63b8ff" stroke="#63b8ff" points="789.02,-96.41 778.64,-98.52 788.07,-103.34 789.02,-96.41"/>
</a>
</g>
</g>
<!-- Node13 -->
<g id="Node000013" class="node">
<title>Node13</title>
<g id="a_Node000013"><a xlink:href="classdunedaq_1_1timing_1_1OuroborosDesign.html" target="_top" xlink:title="Class for PDI timing master design (known as overlord).">
<polygon fill="white" stroke="#666666" points="953.62,-79.5 820.62,-79.5 820.62,-49 953.62,-49 953.62,-79.5"/>
<text text-anchor="start" x="828.62" y="-66" font-family="Helvetica,sans-Serif" font-size="10.00">dunedaq::timing::Ouroboros</text>
<text text-anchor="middle" x="887.12" y="-54.75" font-family="Helvetica,sans-Serif" font-size="10.00">Design</text>
</a>
</g>
</g>
<!-- Node1&#45;&gt;Node13 -->
<g id="edge13_Node000001_Node000013" class="edge">
<title>Node1&#45;&gt;Node13</title>
<g id="a_edge13_Node000001_Node000013"><a xlink:title=" ">
<path fill="none" stroke="#63b8ff" d="M788.26,-77.13C799,-75.72 809.86,-74.29 820.24,-72.92"/>
<polygon fill="#63b8ff" stroke="#63b8ff" points="788.1,-73.62 778.64,-78.39 789.01,-80.56 788.1,-73.62"/>
</a>
</g>
</g>
<!-- Node14 -->
<g id="Node000014" class="node">
<title>Node14</title>
<g id="a_Node000014"><a xlink:href="classdunedaq_1_1timing_1_1OverlordDesign.html" target="_top" xlink:title="Class for PDI timing master design (known as overlord).">
<polygon fill="white" stroke="#666666" points="949.5,-30.5 824.75,-30.5 824.75,0 949.5,0 949.5,-30.5"/>
<text text-anchor="start" x="832.75" y="-17" font-family="Helvetica,sans-Serif" font-size="10.00">dunedaq::timing::Overlord</text>
<text text-anchor="middle" x="887.12" y="-5.75" font-family="Helvetica,sans-Serif" font-size="10.00">Design</text>
</a>
</g>
</g>
<!-- Node1&#45;&gt;Node14 -->
<g id="edge14_Node000001_Node000014" class="edge">
<title>Node1&#45;&gt;Node14</title>
<g id="a_edge14_Node000001_Node000014"><a xlink:title=" ">
<path fill="none" stroke="#63b8ff" d="M735.46,-73.42C757.05,-63.54 786.38,-50.53 812.75,-40.25 820.9,-37.07 829.64,-33.9 838.15,-30.93"/>
<polygon fill="#63b8ff" stroke="#63b8ff" points="734.23,-70.13 726.61,-77.5 737.16,-76.49 734.23,-70.13"/>
</a>
</g>
</g>
<!-- Node2 -->
<g id="Node000002" class="node">
<title>Node2</title>
<g id="a_Node000002"><a xlink:href="classdunedaq_1_1timing_1_1TopDesign.html" target="_top" xlink:title="Base class for timing top design nodes with IO class.">
<polygon fill="white" stroke="#666666" points="586,-119.88 451.5,-119.88 451.5,-100.62 586,-100.62 586,-119.88"/>
<text text-anchor="middle" x="518.75" y="-106.38" font-family="Helvetica,sans-Serif" font-size="10.00">dunedaq::timing::TopDesign</text>
</a>
</g>
</g>
<!-- Node2&#45;&gt;Node1 -->
<g id="edge1_Node000001_Node000002" class="edge">
<title>Node2&#45;&gt;Node1</title>
<g id="a_edge1_Node000001_Node000002"><a xlink:title=" ">
<path fill="none" stroke="#63b8ff" d="M597.79,-100.82C607.9,-99.59 618.23,-98.35 628.27,-97.13"/>
<polygon fill="#63b8ff" stroke="#63b8ff" points="597.5,-97.33 587.99,-102 598.34,-104.28 597.5,-97.33"/>
</a>
</g>
</g>
<!-- Node3 -->
<g id="Node000003" class="node">
<title>Node3</title>
<g id="a_Node000003"><a xlink:href="classdunedaq_1_1timing_1_1TopDesignInterface.html" target="_top" xlink:title="Base class for timing top design nodes.">
<polygon fill="white" stroke="#666666" points="408.75,-103.5 274.25,-103.5 274.25,-73 408.75,-73 408.75,-103.5"/>
<text text-anchor="start" x="282.25" y="-90" font-family="Helvetica,sans-Serif" font-size="10.00">dunedaq::timing::TopDesign</text>
<text text-anchor="middle" x="341.5" y="-78.75" font-family="Helvetica,sans-Serif" font-size="10.00">Interface</text>
</a>
</g>
</g>
<!-- Node3&#45;&gt;Node2 -->
<g id="edge2_Node000002_Node000003" class="edge">
<title>Node3&#45;&gt;Node2</title>
<g id="a_edge2_Node000002_Node000003"><a xlink:title=" ">
<path fill="none" stroke="#63b8ff" d="M419.93,-97.97C430.33,-99.28 440.92,-100.61 451.11,-101.88"/>
<polygon fill="#63b8ff" stroke="#63b8ff" points="420.61,-94.53 410.26,-96.76 419.74,-101.47 420.61,-94.53"/>
</a>
</g>
</g>
<!-- Node6 -->
<g id="Node000006" class="node">
<title>Node6</title>
<g id="a_Node000006"><a xlink:href="classdunedaq_1_1timing_1_1MasterDesignInterface.html" target="_top" xlink:title="Base class for timing master designs.">
<polygon fill="white" stroke="#666666" points="592.75,-82.5 444.75,-82.5 444.75,-52 592.75,-52 592.75,-82.5"/>
<text text-anchor="start" x="452.75" y="-69" font-family="Helvetica,sans-Serif" font-size="10.00">dunedaq::timing::MasterDesign</text>
<text text-anchor="middle" x="518.75" y="-57.75" font-family="Helvetica,sans-Serif" font-size="10.00">Interface</text>
</a>
</g>
</g>
<!-- Node3&#45;&gt;Node6 -->
<g id="edge6_Node000006_Node000003" class="edge">
<title>Node3&#45;&gt;Node6</title>
<g id="a_edge6_Node000006_Node000003"><a xlink:title=" ">
<path fill="none" stroke="#63b8ff" d="M420.07,-78.96C428.14,-77.99 436.34,-77.01 444.36,-76.04"/>
<polygon fill="#63b8ff" stroke="#63b8ff" points="419.77,-75.47 410.26,-80.13 420.6,-82.42 419.77,-75.47"/>
</a>
</g>
</g>
<!-- Node4 -->
<g id="Node000004" class="node">
<title>Node4</title>
<g id="a_Node000004"><a xlink:href="classdunedaq_1_1timing_1_1TimingNode.html" target="_top" xlink:title="Base class for timing nodes.">
<polygon fill="white" stroke="#666666" points="238.25,-97.88 97.75,-97.88 97.75,-78.62 238.25,-78.62 238.25,-97.88"/>
<text text-anchor="middle" x="168" y="-84.38" font-family="Helvetica,sans-Serif" font-size="10.00">dunedaq::timing::TimingNode</text>
</a>
</g>
</g>
<!-- Node4&#45;&gt;Node3 -->
<g id="edge3_Node000003_Node000004" class="edge">
<title>Node4&#45;&gt;Node3</title>
<g id="a_edge3_Node000003_Node000004"><a xlink:title=" ">
<path fill="none" stroke="#63b8ff" d="M249.62,-88.25C257.7,-88.25 265.85,-88.25 273.76,-88.25"/>
<polygon fill="#63b8ff" stroke="#63b8ff" points="249.77,-84.75 239.77,-88.25 249.77,-91.75 249.77,-84.75"/>
</a>
</g>
</g>
<!-- Node5 -->
<g id="Node000005" class="node">
<title>Node5</title>
<g id="a_Node000005"><a xlink:title=" ">
<polygon fill="white" stroke="#666666" points="61.75,-97.88 0,-97.88 0,-78.62 61.75,-78.62 61.75,-97.88"/>
<text text-anchor="middle" x="30.88" y="-84.38" font-family="Helvetica,sans-Serif" font-size="10.00">uhal::Node</text>
</a>
</g>
</g>
<!-- Node5&#45;&gt;Node4 -->
<g id="edge4_Node000004_Node000005" class="edge">
<title>Node5&#45;&gt;Node4</title>
<g id="a_edge4_Node000004_Node000005"><a xlink:title=" ">
<path fill="none" stroke="#63b8ff" d="M73.58,-88.25C81.14,-88.25 89.2,-88.25 97.3,-88.25"/>
<polygon fill="#63b8ff" stroke="#63b8ff" points="73.71,-84.75 63.71,-88.25 73.71,-91.75 73.71,-84.75"/>
</a>
</g>
</g>
<!-- Node6&#45;&gt;Node1 -->
<g id="edge5_Node000001_Node000006" class="edge">
<title>Node6&#45;&gt;Node1</title>
<g id="a_edge5_Node000001_Node000006"><a xlink:title=" ">
<path fill="none" stroke="#63b8ff" d="M604.29,-77C612.33,-77.93 620.44,-78.87 628.36,-79.78"/>
<polygon fill="#63b8ff" stroke="#63b8ff" points="604.83,-73.54 594.49,-75.87 604.03,-80.5 604.83,-73.54"/>
</a>
</g>
</g>
<!-- Node9 -->
<g id="Node000009" class="node">
<title>Node9</title>
<g id="a_Node000009"><a xlink:href="classdunedaq_1_1timing_1_1FanoutDesign.html" target="_top" xlink:title="Class for timing fanout designs.">
<polygon fill="white" stroke="#666666" points="1145.5,-180.88 997.5,-180.88 997.5,-161.62 1145.5,-161.62 1145.5,-180.88"/>
<text text-anchor="middle" x="1071.5" y="-167.38" font-family="Helvetica,sans-Serif" font-size="10.00">dunedaq::timing::FanoutDesign</text>
</a>
</g>
</g>
<!-- Node8&#45;&gt;Node9 -->
<g id="edge9_Node000008_Node000009" class="edge">
<title>Node8&#45;&gt;Node9</title>
<g id="a_edge9_Node000008_Node000009"><a xlink:title=" ">
<path fill="none" stroke="#63b8ff" d="M949.05,-132.65C953.28,-134.16 957.46,-135.7 961.5,-137.25 977.84,-143.54 980.94,-147.58 997.5,-153.25 1006.02,-156.17 1015.25,-158.82 1024.19,-161.14"/>
<polygon fill="#63b8ff" stroke="#63b8ff" points="950.52,-129.45 939.92,-129.47 948.22,-136.06 950.52,-129.45"/>
</a>
</g>
</g>
<!-- Node10 -->
<g id="Node000010" class="node">
<title>Node10</title>
<g id="a_Node000010"><a xlink:href="classdunedaq_1_1timing_1_1GaiaDesign.html" target="_top" xlink:title="Class for timing fanout designs.">
<polygon fill="white" stroke="#666666" points="1140.62,-143.88 1002.38,-143.88 1002.38,-124.62 1140.62,-124.62 1140.62,-143.88"/>
<text text-anchor="middle" x="1071.5" y="-130.38" font-family="Helvetica,sans-Serif" font-size="10.00">dunedaq::timing::GaiaDesign</text>
</a>
</g>
</g>
<!-- Node8&#45;&gt;Node10 -->
<g id="edge10_Node000008_Node000010" class="edge">
<title>Node8&#45;&gt;Node10</title>
<g id="a_edge10_Node000008_Node000010"><a xlink:title=" ">
<path fill="none" stroke="#63b8ff" d="M966.72,-122.3C978.52,-123.66 990.6,-125.05 1002.17,-126.38"/>
<polygon fill="#63b8ff" stroke="#63b8ff" points="967.35,-118.85 957.02,-121.18 966.55,-125.8 967.35,-118.85"/>
</a>
</g>
</g>
<!-- Node11 -->
<g id="Node000011" class="node">
<title>Node11</title>
<g id="a_Node000011"><a xlink:href="classdunedaq_1_1timing_1_1KerberosDesign.html" target="_top" xlink:title="Class for timing fanout designs.">
<polygon fill="white" stroke="#666666" points="1135,-106.5 1008,-106.5 1008,-76 1135,-76 1135,-106.5"/>
<text text-anchor="start" x="1016" y="-93" font-family="Helvetica,sans-Serif" font-size="10.00">dunedaq::timing::Kerberos</text>
<text text-anchor="middle" x="1071.5" y="-81.75" font-family="Helvetica,sans-Serif" font-size="10.00">Design</text>
</a>
</g>
</g>
<!-- Node8&#45;&gt;Node11 -->
<g id="edge11_Node000008_Node000011" class="edge">
<title>Node8&#45;&gt;Node11</title>
<g id="a_edge11_Node000008_Node000011"><a xlink:title=" ">
<path fill="none" stroke="#63b8ff" d="M966.85,-103.75C980.47,-102.11 994.48,-100.42 1007.62,-98.84"/>
<polygon fill="#63b8ff" stroke="#63b8ff" points="966.53,-100.27 957.02,-104.94 967.37,-107.22 966.53,-100.27"/>
</a>
</g>
</g>
<!-- Node12 -->
<g id="Node000012" class="node">
<title>Node12</title>
<g id="a_Node000012"><a xlink:href="classdunedaq_1_1timing_1_1OuroborosMuxDesign.html" target="_top" xlink:title="Class for PDI ouroboros timing master design.">
<polygon fill="white" stroke="#666666" points="1138,-57.5 1005,-57.5 1005,-27 1138,-27 1138,-57.5"/>
<text text-anchor="start" x="1013" y="-44" font-family="Helvetica,sans-Serif" font-size="10.00">dunedaq::timing::Ouroboros</text>
<text text-anchor="middle" x="1071.5" y="-32.75" font-family="Helvetica,sans-Serif" font-size="10.00">MuxDesign</text>
</a>
</g>
</g>
<!-- Node8&#45;&gt;Node12 -->
<g id="edge12_Node000008_Node000012" class="edge">
<title>Node8&#45;&gt;Node12</title>
<g id="a_edge12_Node000008_Node000012"><a xlink:title=" ">
<path fill="none" stroke="#63b8ff" d="M949.03,-93.56C953.29,-91.86 957.48,-90.08 961.5,-88.25 978.35,-80.56 980.66,-74.96 997.5,-67.25 1004.81,-63.91 1012.7,-60.76 1020.5,-57.89"/>
<polygon fill="#63b8ff" stroke="#63b8ff" points="947.89,-90.25 939.79,-97.08 950.38,-96.79 947.89,-90.25"/>
</a>
</g>
</g>
</g>
</svg>
