<?xml version="1.0" encoding="UTF-8" standalone="no"?>
<!DOCTYPE svg PUBLIC "-//W3C//DTD SVG 1.1//EN"
 "http://www.w3.org/Graphics/SVG/1.1/DTD/svg11.dtd">
<!-- Generated by graphviz version 9.0.0 (20230911.1827)
 -->
<!-- Title: dunedaq::appdal::TriggerDataHandler Pages: 1 -->
<svg width="150pt" height="216pt"
 viewBox="0.00 0.00 150.00 215.50" xmlns="http://www.w3.org/2000/svg" xmlns:xlink="http://www.w3.org/1999/xlink">
<g id="graph0" class="graph" transform="scale(1 1) rotate(0) translate(4 211.5)">
<title>dunedaq::appdal::TriggerDataHandler</title>
<!-- Node1 -->
<g id="Node000001" class="node">
<title>Node1</title>
<g id="a_Node000001"><a xlink:title=" ">
<polygon fill="#999999" stroke="#666666" points="131.12,-30.5 10.88,-30.5 10.88,0 131.12,0 131.12,-30.5"/>
<text text-anchor="start" x="18.88" y="-17" font-family="Helvetica,sans-Serif" font-size="10.00">dunedaq::appdal::Trigger</text>
<text text-anchor="middle" x="71" y="-5.75" font-family="Helvetica,sans-Serif" font-size="10.00">DataHandler</text>
</a>
</g>
</g>
<!-- Node2 -->
<g id="Node000002" class="node">
<title>Node2</title>
<g id="a_Node000002"><a xlink:href="classdunedaq_1_1appdal_1_1ReadoutModule.html" target="_top" xlink:title=" ">
<polygon fill="white" stroke="#666666" points="134.12,-97 7.88,-97 7.88,-66.5 134.12,-66.5 134.12,-97"/>
<text text-anchor="start" x="15.88" y="-83.5" font-family="Helvetica,sans-Serif" font-size="10.00">dunedaq::appdal::Readout</text>
<text text-anchor="middle" x="71" y="-72.25" font-family="Helvetica,sans-Serif" font-size="10.00">Module</text>
</a>
</g>
</g>
<!-- Node2&#45;&gt;Node1 -->
<g id="edge1_Node000001_Node000002" class="edge">
<title>Node2&#45;&gt;Node1</title>
<g id="a_edge1_Node000001_Node000002"><a xlink:title=" ">
<path fill="none" stroke="#63b8ff" d="M64.37,-54.81C64.06,-46.64 64.36,-37.91 65.25,-30.83"/>
<polygon fill="#63b8ff" stroke="#63b8ff" points="60.86,-54.9 65.12,-64.6 67.84,-54.37 60.86,-54.9"/>
</a>
</g>
</g>
<!-- Node2&#45;&gt;Node1 -->
<g id="edge6_Node000001_Node000002" class="edge">
<title>Node2&#45;&gt;Node1</title>
<g id="a_edge6_Node000001_Node000002"><a xlink:title=" ">
<path fill="none" stroke="#63b8ff" d="M77.63,-54.81C77.94,-46.64 77.64,-37.91 76.75,-30.83"/>
<polygon fill="#63b8ff" stroke="#63b8ff" points="74.16,-54.37 76.88,-64.6 81.14,-54.9 74.16,-54.37"/>
</a>
</g>
</g>
<!-- Node3 -->
<g id="Node000003" class="node">
<title>Node3</title>
<g id="a_Node000003"><a xlink:href="classdunedaq_1_1coredal_1_1DaqModule.html" target="_top" xlink:title=" ">
<polygon fill="white" stroke="#666666" points="142,-152.25 0,-152.25 0,-133 142,-133 142,-152.25"/>
<text text-anchor="middle" x="71" y="-138.75" font-family="Helvetica,sans-Serif" font-size="10.00">dunedaq::coredal::DaqModule</text>
</a>
</g>
</g>
<!-- Node3&#45;&gt;Node2 -->
<g id="edge2_Node000002_Node000003" class="edge">
<title>Node3&#45;&gt;Node2</title>
<g id="a_edge2_Node000002_Node000003"><a xlink:title=" ">
<path fill="none" stroke="#63b8ff" d="M64.55,-121.42C64.02,-113.49 64.19,-104.56 65.09,-97.28"/>
<polygon fill="#63b8ff" stroke="#63b8ff" points="61.06,-121.7 65.8,-131.18 68.01,-120.82 61.06,-121.7"/>
</a>
</g>
</g>
<!-- Node3&#45;&gt;Node2 -->
<g id="edge5_Node000002_Node000003" class="edge">
<title>Node3&#45;&gt;Node2</title>
<g id="a_edge5_Node000002_Node000003"><a xlink:title=" ">
<path fill="none" stroke="#63b8ff" d="M77.45,-121.42C77.98,-113.49 77.81,-104.56 76.91,-97.28"/>
<polygon fill="#63b8ff" stroke="#63b8ff" points="73.99,-120.82 76.2,-131.18 80.94,-121.7 73.99,-120.82"/>
</a>
</g>
</g>
<!-- Node4 -->
<g id="Node000004" class="node">
<title>Node4</title>
<g id="a_Node000004"><a xlink:href="classdunedaq_1_1conffwk_1_1DalObject.html" target="_top" xlink:title="The base class for any generated DAL object.">
<polygon fill="white" stroke="#666666" points="140.12,-207.5 1.88,-207.5 1.88,-188.25 140.12,-188.25 140.12,-207.5"/>
<text text-anchor="middle" x="71" y="-194" font-family="Helvetica,sans-Serif" font-size="10.00">dunedaq::conffwk::DalObject</text>
</a>
</g>
</g>
<!-- Node4&#45;&gt;Node3 -->
<g id="edge3_Node000003_Node000004" class="edge">
<title>Node4&#45;&gt;Node3</title>
<g id="a_edge3_Node000003_Node000004"><a xlink:title=" ">
<path fill="none" stroke="#63b8ff" d="M64.44,-176.92C63.95,-168.55 64.4,-159.25 65.79,-152.61"/>
<polygon fill="#63b8ff" stroke="#63b8ff" points="60.94,-177.09 65.65,-186.58 67.88,-176.22 60.94,-177.09"/>
</a>
</g>
</g>
<!-- Node4&#45;&gt;Node3 -->
<g id="edge4_Node000003_Node000004" class="edge">
<title>Node4&#45;&gt;Node3</title>
<g id="a_edge4_Node000003_Node000004"><a xlink:title=" ">
<path fill="none" stroke="#63b8ff" d="M77.56,-176.92C78.05,-168.55 77.6,-159.25 76.21,-152.61"/>
<polygon fill="#63b8ff" stroke="#63b8ff" points="74.12,-176.22 76.35,-186.58 81.06,-177.09 74.12,-176.22"/>
</a>
</g>
</g>
</g>
</svg>
