<?xml version="1.0" encoding="UTF-8" standalone="no"?>
<!DOCTYPE svg PUBLIC "-//W3C//DTD SVG 1.1//EN"
 "http://www.w3.org/Graphics/SVG/1.1/DTD/svg11.dtd">
<!-- Generated by graphviz version 9.0.0 (20230911.1827)
 -->
<!-- Title: dunedaq::coredal::ResourceSetAND Pages: 1 -->
<svg width="1237pt" height="247pt"
 viewBox="0.00 0.00 1236.75 246.88" xmlns="http://www.w3.org/2000/svg" xmlns:xlink="http://www.w3.org/1999/xlink">
<g id="graph0" class="graph" transform="scale(1 1) rotate(0) translate(4 242.88)">
<title>dunedaq::coredal::ResourceSetAND</title>
<!-- Node1 -->
<g id="Node000001" class="node">
<title>Node1</title>
<g id="a_Node000001"><a xlink:title=" ">
<polygon fill="#999999" stroke="#666666" points="866,-140.88 731.5,-140.88 731.5,-110.38 866,-110.38 866,-140.88"/>
<text text-anchor="start" x="739.5" y="-127.38" font-family="Helvetica,sans-Serif" font-size="10.00">dunedaq::coredal::Resource</text>
<text text-anchor="middle" x="798.75" y="-116.12" font-family="Helvetica,sans-Serif" font-size="10.00">SetAND</text>
</a>
</g>
</g>
<!-- Node6 -->
<g id="Node000006" class="node">
<title>Node6</title>
<g id="a_Node000006"><a xlink:href="classdunedaq_1_1appdal_1_1FakeDataApplication.html" target="_top" xlink:title=" ">
<polygon fill="white" stroke="#666666" points="1034.25,-238.88 902,-238.88 902,-208.38 1034.25,-208.38 1034.25,-238.88"/>
<text text-anchor="start" x="910" y="-225.38" font-family="Helvetica,sans-Serif" font-size="10.00">dunedaq::appdal::FakeData</text>
<text text-anchor="middle" x="968.12" y="-214.12" font-family="Helvetica,sans-Serif" font-size="10.00">Application</text>
</a>
</g>
</g>
<!-- Node1&#45;&gt;Node6 -->
<g id="edge9_Node000001_Node000006" class="edge">
<title>Node1&#45;&gt;Node6</title>
<g id="a_edge9_Node000001_Node000006"><a xlink:title=" ">
<path fill="none" stroke="#63b8ff" d="M837.32,-147.81C856.03,-161.11 879.42,-177.49 902,-189.62 915.01,-196.62 930.41,-202.63 942.97,-207.97"/>
<polygon fill="#63b8ff" stroke="#63b8ff" points="839.41,-145 829.23,-142.06 835.35,-150.71 839.41,-145"/>
</a>
</g>
</g>
<!-- Node1&#45;&gt;Node6 -->
<g id="edge10_Node000001_Node000006" class="edge">
<title>Node1&#45;&gt;Node6</title>
<g id="a_edge10_Node000001_Node000006"><a xlink:title=" ">
<path fill="none" stroke="#63b8ff" d="M819.62,-149C839.53,-167.11 871.51,-191.23 902,-207.62 902.21,-207.74 902.43,-207.85 902.64,-207.97"/>
<polygon fill="#63b8ff" stroke="#63b8ff" points="822.13,-146.55 812.47,-142.19 817.3,-151.62 822.13,-146.55"/>
</a>
</g>
</g>
<!-- Node7 -->
<g id="Node000007" class="node">
<title>Node7</title>
<g id="a_Node000007"><a xlink:href="classdunedaq_1_1appdal_1_1ReadoutApplication.html" target="_top" xlink:title=" ">
<polygon fill="white" stroke="#666666" points="1031.25,-189.88 905,-189.88 905,-159.38 1031.25,-159.38 1031.25,-189.88"/>
<text text-anchor="start" x="913" y="-176.38" font-family="Helvetica,sans-Serif" font-size="10.00">dunedaq::appdal::Readout</text>
<text text-anchor="middle" x="968.12" y="-165.12" font-family="Helvetica,sans-Serif" font-size="10.00">Application</text>
</a>
</g>
</g>
<!-- Node1&#45;&gt;Node7 -->
<g id="edge11_Node000001_Node000007" class="edge">
<title>Node1&#45;&gt;Node7</title>
<g id="a_edge11_Node000001_Node000007"><a xlink:title=" ">
<path fill="none" stroke="#63b8ff" d="M877.44,-141.63C896.9,-147.23 916.79,-153.44 932.89,-159.03"/>
<polygon fill="#63b8ff" stroke="#63b8ff" points="878.41,-138.27 867.84,-138.92 876.51,-145.01 878.41,-138.27"/>
</a>
</g>
</g>
<!-- Node1&#45;&gt;Node7 -->
<g id="edge12_Node000001_Node000007" class="edge">
<title>Node1&#45;&gt;Node7</title>
<g id="a_edge12_Node000001_Node000007"><a xlink:title=" ">
<path fill="none" stroke="#63b8ff" d="M845.12,-144.99C863.48,-151.05 884.96,-157.5 904.75,-162.92"/>
<polygon fill="#63b8ff" stroke="#63b8ff" points="846.46,-141.74 835.86,-141.86 844.22,-148.37 846.46,-141.74"/>
</a>
</g>
</g>
<!-- Node8 -->
<g id="Node000008" class="node">
<title>Node8</title>
<g id="a_Node000008"><a xlink:href="classdunedaq_1_1appdal_1_1TriggerApplication.html" target="_top" xlink:title=" ">
<polygon fill="white" stroke="#666666" points="1028.25,-140.88 908,-140.88 908,-110.38 1028.25,-110.38 1028.25,-140.88"/>
<text text-anchor="start" x="916" y="-127.38" font-family="Helvetica,sans-Serif" font-size="10.00">dunedaq::appdal::Trigger</text>
<text text-anchor="middle" x="968.12" y="-116.12" font-family="Helvetica,sans-Serif" font-size="10.00">Application</text>
</a>
</g>
</g>
<!-- Node1&#45;&gt;Node8 -->
<g id="edge13_Node000001_Node000008" class="edge">
<title>Node1&#45;&gt;Node8</title>
<g id="a_edge13_Node000001_Node000008"><a xlink:title=" ">
<path fill="none" stroke="#63b8ff" d="M877.71,-118.89C887.81,-118.84 898.03,-118.92 907.76,-119.14"/>
<polygon fill="#63b8ff" stroke="#63b8ff" points="877.86,-115.39 867.9,-118.99 877.93,-122.39 877.86,-115.39"/>
</a>
</g>
</g>
<!-- Node1&#45;&gt;Node8 -->
<g id="edge16_Node000001_Node000008" class="edge">
<title>Node1&#45;&gt;Node8</title>
<g id="a_edge16_Node000001_Node000008"><a xlink:title=" ">
<path fill="none" stroke="#63b8ff" d="M877.71,-132.36C887.81,-132.41 898.03,-132.33 907.76,-132.11"/>
<polygon fill="#63b8ff" stroke="#63b8ff" points="877.93,-128.86 867.9,-132.26 877.86,-135.86 877.93,-128.86"/>
</a>
</g>
</g>
<!-- Node10 -->
<g id="Node000010" class="node">
<title>Node10</title>
<g id="a_Node000010"><a xlink:href="classdunedaq_1_1coredal_1_1ReadoutGroup.html" target="_top" xlink:title=" ">
<polygon fill="white" stroke="#666666" points="1032.75,-91.88 903.5,-91.88 903.5,-61.38 1032.75,-61.38 1032.75,-91.88"/>
<text text-anchor="start" x="911.5" y="-78.38" font-family="Helvetica,sans-Serif" font-size="10.00">dunedaq::coredal::Readout</text>
<text text-anchor="middle" x="968.12" y="-67.12" font-family="Helvetica,sans-Serif" font-size="10.00">Group</text>
</a>
</g>
</g>
<!-- Node1&#45;&gt;Node10 -->
<g id="edge17_Node000001_Node000010" class="edge">
<title>Node1&#45;&gt;Node10</title>
<g id="a_edge17_Node000001_Node000010"><a xlink:title=" ">
<path fill="none" stroke="#63b8ff" d="M845.11,-106.27C862.95,-100.37 883.74,-94.12 903.06,-88.8"/>
<polygon fill="#63b8ff" stroke="#63b8ff" points="844.22,-102.88 835.86,-109.39 846.46,-109.51 844.22,-102.88"/>
</a>
</g>
</g>
<!-- Node1&#45;&gt;Node10 -->
<g id="edge18_Node000001_Node000010" class="edge">
<title>Node1&#45;&gt;Node10</title>
<g id="a_edge18_Node000001_Node000010"><a xlink:title=" ">
<path fill="none" stroke="#63b8ff" d="M877.44,-109.62C896.9,-104.02 916.79,-97.81 932.89,-92.22"/>
<polygon fill="#63b8ff" stroke="#63b8ff" points="876.51,-106.24 867.84,-112.33 878.41,-112.98 876.51,-106.24"/>
</a>
</g>
</g>
<!-- Node11 -->
<g id="Node000011" class="node">
<title>Node11</title>
<g id="a_Node000011"><a xlink:href="classdunedaq_1_1coredal_1_1ReadoutInterface.html" target="_top" xlink:title=" ">
<polygon fill="white" stroke="#666666" points="1032.75,-42.88 903.5,-42.88 903.5,-12.37 1032.75,-12.37 1032.75,-42.88"/>
<text text-anchor="start" x="911.5" y="-29.38" font-family="Helvetica,sans-Serif" font-size="10.00">dunedaq::coredal::Readout</text>
<text text-anchor="middle" x="968.12" y="-18.12" font-family="Helvetica,sans-Serif" font-size="10.00">Interface</text>
</a>
</g>
</g>
<!-- Node1&#45;&gt;Node11 -->
<g id="edge19_Node000001_Node000011" class="edge">
<title>Node1&#45;&gt;Node11</title>
<g id="a_edge19_Node000001_Node000011"><a xlink:title=" ">
<path fill="none" stroke="#63b8ff" d="M819.62,-102.25C839.53,-84.14 871.51,-60.02 902,-43.62 902.43,-43.4 902.86,-43.17 903.29,-42.94"/>
<polygon fill="#63b8ff" stroke="#63b8ff" points="817.3,-99.63 812.47,-109.06 822.13,-104.7 817.3,-99.63"/>
</a>
</g>
</g>
<!-- Node1&#45;&gt;Node11 -->
<g id="edge24_Node000001_Node000011" class="edge">
<title>Node1&#45;&gt;Node11</title>
<g id="a_edge24_Node000001_Node000011"><a xlink:title=" ">
<path fill="none" stroke="#63b8ff" d="M837.32,-103.44C856.03,-90.14 879.42,-73.76 902,-61.62 915.01,-54.63 930.41,-48.62 942.97,-43.28"/>
<polygon fill="#63b8ff" stroke="#63b8ff" points="835.35,-100.54 829.23,-109.19 839.41,-106.25 835.35,-100.54"/>
</a>
</g>
</g>
<!-- Node2 -->
<g id="Node000002" class="node">
<title>Node2</title>
<g id="a_Node000002"><a xlink:href="classdunedaq_1_1coredal_1_1ResourceSet.html" target="_top" xlink:title=" ">
<polygon fill="white" stroke="#666666" points="695.5,-135.25 546,-135.25 546,-116 695.5,-116 695.5,-135.25"/>
<text text-anchor="middle" x="620.75" y="-121.75" font-family="Helvetica,sans-Serif" font-size="10.00">dunedaq::coredal::ResourceSet</text>
</a>
</g>
</g>
<!-- Node2&#45;&gt;Node1 -->
<g id="edge1_Node000001_Node000002" class="edge">
<title>Node2&#45;&gt;Node1</title>
<g id="a_edge1_Node000001_Node000002"><a xlink:title=" ">
<path fill="none" stroke="#63b8ff" d="M707.24,-118.88C715.31,-118.86 723.4,-118.92 731.26,-119.06"/>
<polygon fill="#63b8ff" stroke="#63b8ff" points="707.37,-115.38 697.39,-118.94 707.42,-122.38 707.37,-115.38"/>
</a>
</g>
</g>
<!-- Node2&#45;&gt;Node1 -->
<g id="edge8_Node000001_Node000002" class="edge">
<title>Node2&#45;&gt;Node1</title>
<g id="a_edge8_Node000001_Node000002"><a xlink:title=" ">
<path fill="none" stroke="#63b8ff" d="M707.24,-132.37C715.31,-132.39 723.4,-132.33 731.26,-132.19"/>
<polygon fill="#63b8ff" stroke="#63b8ff" points="707.42,-128.87 697.39,-132.31 707.37,-135.87 707.42,-128.87"/>
</a>
</g>
</g>
<!-- Node3 -->
<g id="Node000003" class="node">
<title>Node3</title>
<g id="a_Node000003"><a xlink:href="classdunedaq_1_1coredal_1_1ResourceBase.html" target="_top" xlink:title=" ">
<polygon fill="white" stroke="#666666" points="510,-135.25 353,-135.25 353,-116 510,-116 510,-135.25"/>
<text text-anchor="middle" x="431.5" y="-121.75" font-family="Helvetica,sans-Serif" font-size="10.00">dunedaq::coredal::ResourceBase</text>
</a>
</g>
</g>
<!-- Node3&#45;&gt;Node2 -->
<g id="edge2_Node000002_Node000003" class="edge">
<title>Node3&#45;&gt;Node2</title>
<g id="a_edge2_Node000002_Node000003"><a xlink:title=" ">
<path fill="none" stroke="#63b8ff" d="M521.56,-118.88C529.58,-118.86 537.64,-118.9 545.51,-119.01"/>
<polygon fill="#63b8ff" stroke="#63b8ff" points="521.77,-115.38 511.8,-118.95 521.82,-122.38 521.77,-115.38"/>
</a>
</g>
</g>
<!-- Node3&#45;&gt;Node2 -->
<g id="edge7_Node000002_Node000003" class="edge">
<title>Node3&#45;&gt;Node2</title>
<g id="a_edge7_Node000002_Node000003"><a xlink:title=" ">
<path fill="none" stroke="#63b8ff" d="M521.56,-132.37C529.58,-132.39 537.64,-132.35 545.51,-132.24"/>
<polygon fill="#63b8ff" stroke="#63b8ff" points="521.82,-128.87 511.8,-132.3 521.77,-135.87 521.82,-128.87"/>
</a>
</g>
</g>
<!-- Node4 -->
<g id="Node000004" class="node">
<title>Node4</title>
<g id="a_Node000004"><a xlink:href="classdunedaq_1_1coredal_1_1Component.html" target="_top" xlink:title=" ">
<polygon fill="white" stroke="#666666" points="317,-135.25 174.25,-135.25 174.25,-116 317,-116 317,-135.25"/>
<text text-anchor="middle" x="245.62" y="-121.75" font-family="Helvetica,sans-Serif" font-size="10.00">dunedaq::coredal::Component</text>
</a>
</g>
</g>
<!-- Node4&#45;&gt;Node3 -->
<g id="edge3_Node000003_Node000004" class="edge">
<title>Node4&#45;&gt;Node3</title>
<g id="a_edge3_Node000003_Node000004"><a xlink:title=" ">
<path fill="none" stroke="#63b8ff" d="M328.93,-118.91C336.83,-118.85 344.82,-118.87 352.68,-118.95"/>
<polygon fill="#63b8ff" stroke="#63b8ff" points="328.93,-115.41 318.97,-119.02 329,-122.41 328.93,-115.41"/>
</a>
</g>
</g>
<!-- Node4&#45;&gt;Node3 -->
<g id="edge6_Node000003_Node000004" class="edge">
<title>Node4&#45;&gt;Node3</title>
<g id="a_edge6_Node000003_Node000004"><a xlink:title=" ">
<path fill="none" stroke="#63b8ff" d="M328.93,-132.34C336.83,-132.4 344.82,-132.38 352.68,-132.3"/>
<polygon fill="#63b8ff" stroke="#63b8ff" points="329,-128.84 318.97,-132.23 328.93,-135.84 329,-128.84"/>
</a>
</g>
</g>
<!-- Node5 -->
<g id="Node000005" class="node">
<title>Node5</title>
<g id="a_Node000005"><a xlink:href="classdunedaq_1_1conffwk_1_1DalObject.html" target="_top" xlink:title="The base class for any generated DAL object.">
<polygon fill="white" stroke="#666666" points="138.25,-135.25 0,-135.25 0,-116 138.25,-116 138.25,-135.25"/>
<text text-anchor="middle" x="69.12" y="-121.75" font-family="Helvetica,sans-Serif" font-size="10.00">dunedaq::conffwk::DalObject</text>
</a>
</g>
</g>
<!-- Node5&#45;&gt;Node4 -->
<g id="edge4_Node000004_Node000005" class="edge">
<title>Node5&#45;&gt;Node4</title>
<g id="a_edge4_Node000004_Node000005"><a xlink:title=" ">
<path fill="none" stroke="#63b8ff" d="M150.08,-118.9C157.99,-118.85 165.97,-118.88 173.77,-118.98"/>
<polygon fill="#63b8ff" stroke="#63b8ff" points="150.07,-115.4 140.1,-119 150.14,-122.4 150.07,-115.4"/>
</a>
</g>
</g>
<!-- Node5&#45;&gt;Node4 -->
<g id="edge5_Node000004_Node000005" class="edge">
<title>Node5&#45;&gt;Node4</title>
<g id="a_edge5_Node000004_Node000005"><a xlink:title=" ">
<path fill="none" stroke="#63b8ff" d="M150.08,-132.35C157.99,-132.4 165.97,-132.37 173.77,-132.27"/>
<polygon fill="#63b8ff" stroke="#63b8ff" points="150.14,-128.85 140.1,-132.25 150.07,-135.85 150.14,-128.85"/>
</a>
</g>
</g>
<!-- Node9 -->
<g id="Node000009" class="node">
<title>Node9</title>
<g id="a_Node000009"><a xlink:href="classdunedaq_1_1appdal_1_1MLTApplication.html" target="_top" xlink:title=" ">
<polygon fill="white" stroke="#666666" points="1228.75,-135.25 1070.25,-135.25 1070.25,-116 1228.75,-116 1228.75,-135.25"/>
<text text-anchor="middle" x="1149.5" y="-121.75" font-family="Helvetica,sans-Serif" font-size="10.00">dunedaq::appdal::MLTApplication</text>
</a>
</g>
</g>
<!-- Node8&#45;&gt;Node9 -->
<g id="edge14_Node000008_Node000009" class="edge">
<title>Node8&#45;&gt;Node9</title>
<g id="a_edge14_Node000008_Node000009"><a xlink:title=" ">
<path fill="none" stroke="#63b8ff" d="M1039.76,-119.01C1049.62,-118.87 1059.81,-118.84 1069.81,-118.92"/>
<polygon fill="#63b8ff" stroke="#63b8ff" points="1039.8,-115.51 1029.87,-119.2 1039.94,-122.51 1039.8,-115.51"/>
</a>
</g>
</g>
<!-- Node8&#45;&gt;Node9 -->
<g id="edge15_Node000008_Node000009" class="edge">
<title>Node8&#45;&gt;Node9</title>
<g id="a_edge15_Node000008_Node000009"><a xlink:title=" ">
<path fill="none" stroke="#63b8ff" d="M1039.76,-132.24C1049.62,-132.38 1059.81,-132.41 1069.81,-132.33"/>
<polygon fill="#63b8ff" stroke="#63b8ff" points="1039.94,-128.74 1029.87,-132.05 1039.8,-135.74 1039.94,-128.74"/>
</a>
</g>
</g>
<!-- Node12 -->
<g id="Node000012" class="node">
<title>Node12</title>
<g id="a_Node000012"><a xlink:href="classdunedaq_1_1appdal_1_1FelixInterface.html" target="_top" xlink:title=" ">
<polygon fill="white" stroke="#666666" points="1223.88,-56.25 1075.12,-56.25 1075.12,-37 1223.88,-37 1223.88,-56.25"/>
<text text-anchor="middle" x="1149.5" y="-42.75" font-family="Helvetica,sans-Serif" font-size="10.00">dunedaq::appdal::FelixInterface</text>
</a>
</g>
</g>
<!-- Node11&#45;&gt;Node12 -->
<g id="edge20_Node000011_Node000012" class="edge">
<title>Node11&#45;&gt;Node12</title>
<g id="a_edge20_Node000011_Node000012"><a xlink:title=" ">
<path fill="none" stroke="#63b8ff" d="M1044.31,-28.92C1065.95,-30.97 1088.74,-33.68 1107.48,-36.5"/>
<polygon fill="#63b8ff" stroke="#63b8ff" points="1044.91,-25.46 1034.63,-28.04 1044.28,-32.43 1044.91,-25.46"/>
</a>
</g>
</g>
<!-- Node11&#45;&gt;Node12 -->
<g id="edge21_Node000011_Node000012" class="edge">
<title>Node11&#45;&gt;Node12</title>
<g id="a_edge21_Node000011_Node000012"><a xlink:title=" ">
<path fill="none" stroke="#63b8ff" d="M1044.35,-42.26C1054.4,-43.44 1064.71,-44.53 1074.74,-45.47"/>
<polygon fill="#63b8ff" stroke="#63b8ff" points="1044.98,-38.81 1034.63,-41.08 1044.13,-45.76 1044.98,-38.81"/>
</a>
</g>
</g>
<!-- Node13 -->
<g id="Node000013" class="node">
<title>Node13</title>
<g id="a_Node000013"><a xlink:href="classdunedaq_1_1appdal_1_1NICInterface.html" target="_top" xlink:title=" ">
<polygon fill="white" stroke="#666666" points="1222.38,-19.25 1076.62,-19.25 1076.62,0 1222.38,0 1222.38,-19.25"/>
<text text-anchor="middle" x="1149.5" y="-5.75" font-family="Helvetica,sans-Serif" font-size="10.00">dunedaq::appdal::NICInterface</text>
</a>
</g>
</g>
<!-- Node11&#45;&gt;Node13 -->
<g id="edge22_Node000011_Node000013" class="edge">
<title>Node11&#45;&gt;Node13</title>
<g id="a_edge22_Node000011_Node000013"><a xlink:title=" ">
<path fill="none" stroke="#63b8ff" d="M1044.43,-13.4C1054.98,-12.22 1065.8,-11.15 1076.28,-10.24"/>
<polygon fill="#63b8ff" stroke="#63b8ff" points="1044.16,-9.9 1034.63,-14.53 1044.96,-16.86 1044.16,-9.9"/>
</a>
</g>
</g>
<!-- Node11&#45;&gt;Node13 -->
<g id="edge23_Node000011_Node000013" class="edge">
<title>Node11&#45;&gt;Node13</title>
<g id="a_edge23_Node000011_Node000013"><a xlink:title=" ">
<path fill="none" stroke="#63b8ff" d="M1044.32,-26.75C1065.34,-24.87 1087.44,-22.38 1105.86,-19.75"/>
<polygon fill="#63b8ff" stroke="#63b8ff" points="1044.3,-23.24 1034.63,-27.57 1044.89,-30.21 1044.3,-23.24"/>
</a>
</g>
</g>
</g>
</svg>
