<?xml version="1.0" encoding="UTF-8" standalone="no"?>
<!DOCTYPE svg PUBLIC "-//W3C//DTD SVG 1.1//EN"
 "http://www.w3.org/Graphics/SVG/1.1/DTD/svg11.dtd">
<!-- Generated by graphviz version 9.0.0 (20230911.1827)
 -->
<!-- Title: dunedaq::iomanager::Queue&lt; T &gt; Pages: 1 -->
<svg width="110pt" height="238pt"
 viewBox="0.00 0.00 110.25 238.00" xmlns="http://www.w3.org/2000/svg" xmlns:xlink="http://www.w3.org/1999/xlink">
<g id="graph0" class="graph" transform="scale(1 1) rotate(0) translate(4 234)">
<title>dunedaq::iomanager::Queue&lt; T &gt;</title>
<!-- Node1 -->
<g id="Node000001" class="node">
<title>Node1</title>
<g id="a_Node000001"><a xlink:title="Implementations of the Queue class are responsible for relaying data between DAQModules within a DAQ ...">
<polygon fill="#999999" stroke="#666666" points="102.25,-30.5 0,-30.5 0,0 102.25,0 102.25,-30.5"/>
<text text-anchor="start" x="8" y="-17" font-family="Helvetica,sans-Serif" font-size="10.00">dunedaq::iomanager</text>
<text text-anchor="middle" x="51.12" y="-5.75" font-family="Helvetica,sans-Serif" font-size="10.00">::Queue&lt; T &gt;</text>
</a>
</g>
</g>
<!-- Node2 -->
<g id="Node000002" class="node">
<title>Node2</title>
<g id="a_Node000002"><a xlink:href="classdunedaq_1_1iomanager_1_1QueueBase.html" target="_top" xlink:title="The QueueBase class allows to address generic behavior of any Queue implementation.">
<polygon fill="white" stroke="#666666" points="102.25,-97 0,-97 0,-66.5 102.25,-66.5 102.25,-97"/>
<text text-anchor="start" x="8" y="-83.5" font-family="Helvetica,sans-Serif" font-size="10.00">dunedaq::iomanager</text>
<text text-anchor="middle" x="51.12" y="-72.25" font-family="Helvetica,sans-Serif" font-size="10.00">::QueueBase</text>
</a>
</g>
</g>
<!-- Node2&#45;&gt;Node1 -->
<g id="edge1_Node000001_Node000002" class="edge">
<title>Node2&#45;&gt;Node1</title>
<g id="a_edge1_Node000001_Node000002"><a xlink:title=" ">
<path fill="none" stroke="#63b8ff" d="M51.12,-54.81C51.12,-46.64 51.12,-37.91 51.12,-30.83"/>
<polygon fill="#63b8ff" stroke="#63b8ff" points="47.63,-54.6 51.13,-64.6 54.63,-54.6 47.63,-54.6"/>
</a>
</g>
</g>
<!-- Node3 -->
<g id="Node000003" class="node">
<title>Node3</title>
<g id="a_Node000003"><a xlink:href="classdunedaq_1_1utilities_1_1NamedObject.html" target="_top" xlink:title="Implements the Named interface.">
<polygon fill="white" stroke="#666666" points="95.12,-163.5 7.12,-163.5 7.12,-133 95.12,-133 95.12,-163.5"/>
<text text-anchor="start" x="15.12" y="-150" font-family="Helvetica,sans-Serif" font-size="10.00">dunedaq::utilities</text>
<text text-anchor="middle" x="51.12" y="-138.75" font-family="Helvetica,sans-Serif" font-size="10.00">::NamedObject</text>
</a>
</g>
</g>
<!-- Node3&#45;&gt;Node2 -->
<g id="edge2_Node000002_Node000003" class="edge">
<title>Node3&#45;&gt;Node2</title>
<g id="a_edge2_Node000002_Node000003"><a xlink:title=" ">
<path fill="none" stroke="#63b8ff" d="M51.12,-121.31C51.12,-113.14 51.12,-104.41 51.12,-97.33"/>
<polygon fill="#63b8ff" stroke="#63b8ff" points="47.63,-121.1 51.13,-131.1 54.63,-121.1 47.63,-121.1"/>
</a>
</g>
</g>
<!-- Node4 -->
<g id="Node000004" class="node">
<title>Node4</title>
<g id="a_Node000004"><a xlink:href="classdunedaq_1_1utilities_1_1Named.html" target="_top" xlink:title="A Named is a DAQ object (Queue or DAQModule) which has an instance name.">
<polygon fill="white" stroke="#666666" points="95.12,-230 7.12,-230 7.12,-199.5 95.12,-199.5 95.12,-230"/>
<text text-anchor="start" x="15.12" y="-216.5" font-family="Helvetica,sans-Serif" font-size="10.00">dunedaq::utilities</text>
<text text-anchor="middle" x="51.12" y="-205.25" font-family="Helvetica,sans-Serif" font-size="10.00">::Named</text>
</a>
</g>
</g>
<!-- Node4&#45;&gt;Node3 -->
<g id="edge3_Node000003_Node000004" class="edge">
<title>Node4&#45;&gt;Node3</title>
<g id="a_edge3_Node000003_Node000004"><a xlink:title=" ">
<path fill="none" stroke="#63b8ff" d="M51.12,-187.81C51.12,-179.64 51.12,-170.91 51.12,-163.83"/>
<polygon fill="#63b8ff" stroke="#63b8ff" points="47.63,-187.6 51.13,-197.6 54.63,-187.6 47.63,-187.6"/>
</a>
</g>
</g>
</g>
</svg>
