<?xml version="1.0" encoding="UTF-8" standalone="no"?>
<!DOCTYPE svg PUBLIC "-//W3C//DTD SVG 1.1//EN"
 "http://www.w3.org/Graphics/SVG/1.1/DTD/svg11.dtd">
<!-- Generated by graphviz version 9.0.0 (20230911.1827)
 -->
<!-- Title: dunedaq::appdal::TriggerCandidateMakerHorizontalMuonPlugin Pages: 1 -->
<svg width="162pt" height="216pt"
 viewBox="0.00 0.00 162.00 215.50" xmlns="http://www.w3.org/2000/svg" xmlns:xlink="http://www.w3.org/1999/xlink">
<g id="graph0" class="graph" transform="scale(1 1) rotate(0) translate(4 211.5)">
<title>dunedaq::appdal::TriggerCandidateMakerHorizontalMuonPlugin</title>
<!-- Node1 -->
<g id="Node000001" class="node">
<title>Node1</title>
<g id="a_Node000001"><a xlink:title=" ">
<polygon fill="#999999" stroke="#666666" points="154,-41.75 0,-41.75 0,0 154,0 154,-41.75"/>
<text text-anchor="start" x="8" y="-28.25" font-family="Helvetica,sans-Serif" font-size="10.00">dunedaq::appdal::Trigger</text>
<text text-anchor="start" x="8" y="-17" font-family="Helvetica,sans-Serif" font-size="10.00">CandidateMakerHorizontalMuon</text>
<text text-anchor="middle" x="77" y="-5.75" font-family="Helvetica,sans-Serif" font-size="10.00">Plugin</text>
</a>
</g>
</g>
<!-- Node2 -->
<g id="Node000002" class="node">
<title>Node2</title>
<g id="a_Node000002"><a xlink:href="classdunedaq_1_1appdal_1_1TCAlgorithm.html" target="_top" xlink:title=" ">
<polygon fill="white" stroke="#666666" points="149.12,-97 4.88,-97 4.88,-77.75 149.12,-77.75 149.12,-97"/>
<text text-anchor="middle" x="77" y="-83.5" font-family="Helvetica,sans-Serif" font-size="10.00">dunedaq::appdal::TCAlgorithm</text>
</a>
</g>
</g>
<!-- Node2&#45;&gt;Node1 -->
<g id="edge1_Node000001_Node000002" class="edge">
<title>Node2&#45;&gt;Node1</title>
<g id="a_edge1_Node000001_Node000002"><a xlink:title=" ">
<path fill="none" stroke="#63b8ff" d="M70.69,-66.23C70.11,-58.57 70.1,-49.85 70.68,-42.18"/>
<polygon fill="#63b8ff" stroke="#63b8ff" points="67.19,-66.44 71.96,-75.91 74.13,-65.54 67.19,-66.44"/>
</a>
</g>
</g>
<!-- Node2&#45;&gt;Node1 -->
<g id="edge6_Node000001_Node000002" class="edge">
<title>Node2&#45;&gt;Node1</title>
<g id="a_edge6_Node000001_Node000002"><a xlink:title=" ">
<path fill="none" stroke="#63b8ff" d="M83.31,-66.23C83.89,-58.57 83.9,-49.85 83.32,-42.18"/>
<polygon fill="#63b8ff" stroke="#63b8ff" points="79.87,-65.54 82.04,-75.91 86.81,-66.44 79.87,-65.54"/>
</a>
</g>
</g>
<!-- Node3 -->
<g id="Node000003" class="node">
<title>Node3</title>
<g id="a_Node000003"><a xlink:href="classdunedaq_1_1coredal_1_1Jsonable.html" target="_top" xlink:title=" ">
<polygon fill="white" stroke="#666666" points="143.12,-152.25 10.88,-152.25 10.88,-133 143.12,-133 143.12,-152.25"/>
<text text-anchor="middle" x="77" y="-138.75" font-family="Helvetica,sans-Serif" font-size="10.00">dunedaq::coredal::Jsonable</text>
</a>
</g>
</g>
<!-- Node3&#45;&gt;Node2 -->
<g id="edge2_Node000002_Node000003" class="edge">
<title>Node3&#45;&gt;Node2</title>
<g id="a_edge2_Node000002_Node000003"><a xlink:title=" ">
<path fill="none" stroke="#63b8ff" d="M70.44,-121.67C69.95,-113.3 70.4,-104 71.79,-97.36"/>
<polygon fill="#63b8ff" stroke="#63b8ff" points="66.94,-121.84 71.65,-131.33 73.88,-120.97 66.94,-121.84"/>
</a>
</g>
</g>
<!-- Node3&#45;&gt;Node2 -->
<g id="edge5_Node000002_Node000003" class="edge">
<title>Node3&#45;&gt;Node2</title>
<g id="a_edge5_Node000002_Node000003"><a xlink:title=" ">
<path fill="none" stroke="#63b8ff" d="M83.56,-121.67C84.05,-113.3 83.6,-104 82.21,-97.36"/>
<polygon fill="#63b8ff" stroke="#63b8ff" points="80.12,-120.97 82.35,-131.33 87.06,-121.84 80.12,-120.97"/>
</a>
</g>
</g>
<!-- Node4 -->
<g id="Node000004" class="node">
<title>Node4</title>
<g id="a_Node000004"><a xlink:href="classdunedaq_1_1conffwk_1_1DalObject.html" target="_top" xlink:title="The base class for any generated DAL object.">
<polygon fill="white" stroke="#666666" points="146.12,-207.5 7.88,-207.5 7.88,-188.25 146.12,-188.25 146.12,-207.5"/>
<text text-anchor="middle" x="77" y="-194" font-family="Helvetica,sans-Serif" font-size="10.00">dunedaq::conffwk::DalObject</text>
</a>
</g>
</g>
<!-- Node4&#45;&gt;Node3 -->
<g id="edge3_Node000003_Node000004" class="edge">
<title>Node4&#45;&gt;Node3</title>
<g id="a_edge3_Node000003_Node000004"><a xlink:title=" ">
<path fill="none" stroke="#63b8ff" d="M70.44,-176.92C69.95,-168.55 70.4,-159.25 71.79,-152.61"/>
<polygon fill="#63b8ff" stroke="#63b8ff" points="66.94,-177.09 71.65,-186.58 73.88,-176.22 66.94,-177.09"/>
</a>
</g>
</g>
<!-- Node4&#45;&gt;Node3 -->
<g id="edge4_Node000003_Node000004" class="edge">
<title>Node4&#45;&gt;Node3</title>
<g id="a_edge4_Node000003_Node000004"><a xlink:title=" ">
<path fill="none" stroke="#63b8ff" d="M83.56,-176.92C84.05,-168.55 83.6,-159.25 82.21,-152.61"/>
<polygon fill="#63b8ff" stroke="#63b8ff" points="80.12,-176.22 82.35,-186.58 87.06,-177.09 80.12,-176.22"/>
</a>
</g>
</g>
</g>
</svg>
