<?xml version="1.0" encoding="UTF-8" standalone="no"?>
<!DOCTYPE svg PUBLIC "-//W3C//DTD SVG 1.1//EN"
 "http://www.w3.org/Graphics/SVG/1.1/DTD/svg11.dtd">
<!-- Generated by graphviz version 9.0.0 (20230911.1827)
 -->
<!-- Title: dunedaq::timing::TopDesignInterface Pages: 1 -->
<svg width="1143pt" height="536pt"
 viewBox="0.00 0.00 1143.00 535.86" xmlns="http://www.w3.org/2000/svg" xmlns:xlink="http://www.w3.org/1999/xlink">
<g id="graph0" class="graph" transform="scale(1 1) rotate(0) translate(4 531.86)">
<title>dunedaq::timing::TopDesignInterface</title>
<!-- Node1 -->
<g id="Node000001" class="node">
<title>Node1</title>
<g id="a_Node000001"><a xlink:title="Base class for timing top design nodes.">
<polygon fill="#999999" stroke="#666666" points="408.75,-205.5 274.25,-205.5 274.25,-175 408.75,-175 408.75,-205.5"/>
<text text-anchor="start" x="282.25" y="-192" font-family="Helvetica,sans-Serif" font-size="10.00">dunedaq::timing::TopDesign</text>
<text text-anchor="middle" x="341.5" y="-180.75" font-family="Helvetica,sans-Serif" font-size="10.00">Interface</text>
</a>
</g>
</g>
<!-- Node4 -->
<g id="Node000004" class="node">
<title>Node4</title>
<g id="a_Node000004"><a xlink:href="classdunedaq_1_1timing_1_1EndpointDesignInterface.html" target="_top" xlink:title="Base class for timing endpoint design nodes.">
<polygon fill="white" stroke="#666666" points="765.5,-265.5 640,-265.5 640,-235 765.5,-235 765.5,-265.5"/>
<text text-anchor="start" x="648" y="-252" font-family="Helvetica,sans-Serif" font-size="10.00">dunedaq::timing::Endpoint</text>
<text text-anchor="middle" x="702.75" y="-240.75" font-family="Helvetica,sans-Serif" font-size="10.00">DesignInterface</text>
</a>
</g>
</g>
<!-- Node1&#45;&gt;Node4 -->
<g id="edge3_Node000001_Node000004" class="edge">
<title>Node1&#45;&gt;Node4</title>
<g id="a_edge3_Node000001_Node000004"><a xlink:title=" ">
<path fill="none" stroke="#63b8ff" d="M420.34,-203.25C486.02,-214.22 578.78,-229.71 639.58,-239.87"/>
<polygon fill="#63b8ff" stroke="#63b8ff" points="421.16,-199.84 410.72,-201.64 420.01,-206.74 421.16,-199.84"/>
</a>
</g>
</g>
<!-- Node17 -->
<g id="Node000017" class="node">
<title>Node17</title>
<g id="a_Node000017"><a xlink:href="classdunedaq_1_1timing_1_1MasterDesignInterface.html" target="_top" xlink:title="Base class for timing master designs.">
<polygon fill="white" stroke="#666666" points="592.75,-165.5 444.75,-165.5 444.75,-135 592.75,-135 592.75,-165.5"/>
<text text-anchor="start" x="452.75" y="-152" font-family="Helvetica,sans-Serif" font-size="10.00">dunedaq::timing::MasterDesign</text>
<text text-anchor="middle" x="518.75" y="-140.75" font-family="Helvetica,sans-Serif" font-size="10.00">Interface</text>
</a>
</g>
</g>
<!-- Node1&#45;&gt;Node17 -->
<g id="edge16_Node000001_Node000017" class="edge">
<title>Node1&#45;&gt;Node17</title>
<g id="a_edge16_Node000001_Node000017"><a xlink:title=" ">
<path fill="none" stroke="#63b8ff" d="M419.93,-172.58C429.53,-170.38 439.31,-168.15 448.78,-165.99"/>
<polygon fill="#63b8ff" stroke="#63b8ff" points="419.2,-169.15 410.23,-174.79 420.76,-175.98 419.2,-169.15"/>
</a>
</g>
</g>
<!-- Node21 -->
<g id="Node000021" class="node">
<title>Node21</title>
<g id="a_Node000021"><a xlink:href="classdunedaq_1_1timing_1_1MuxDesignInterface.html" target="_top" xlink:title="Class for timing fanout designs.">
<polygon fill="white" stroke="#666666" points="586.75,-85.5 450.75,-85.5 450.75,-55 586.75,-55 586.75,-85.5"/>
<text text-anchor="start" x="458.75" y="-72" font-family="Helvetica,sans-Serif" font-size="10.00">dunedaq::timing::MuxDesign</text>
<text text-anchor="middle" x="518.75" y="-60.75" font-family="Helvetica,sans-Serif" font-size="10.00">Interface</text>
</a>
</g>
</g>
<!-- Node1&#45;&gt;Node21 -->
<g id="edge28_Node000001_Node000021" class="edge">
<title>Node1&#45;&gt;Node21</title>
<g id="a_edge28_Node000001_Node000021"><a xlink:title=" ">
<path fill="none" stroke="#63b8ff" d="M374.67,-168.22C409.48,-144.38 464.13,-106.97 494.83,-85.94"/>
<polygon fill="#63b8ff" stroke="#63b8ff" points="372.93,-165.17 366.66,-173.71 376.89,-170.95 372.93,-165.17"/>
</a>
</g>
</g>
<!-- Node22 -->
<g id="Node000022" class="node">
<title>Node22</title>
<g id="a_Node000022"><a xlink:href="classdunedaq_1_1timing_1_1TopDesign.html" target="_top" xlink:title="Base class for timing top design nodes with IO class.">
<polygon fill="white" stroke="#666666" points="586,-457.88 451.5,-457.88 451.5,-438.62 586,-438.62 586,-457.88"/>
<text text-anchor="middle" x="518.75" y="-444.38" font-family="Helvetica,sans-Serif" font-size="10.00">dunedaq::timing::TopDesign</text>
</a>
</g>
</g>
<!-- Node1&#45;&gt;Node22 -->
<g id="edge30_Node000001_Node000022" class="edge">
<title>Node1&#45;&gt;Node22</title>
<g id="a_edge30_Node000001_Node000022"><a xlink:title=" ">
<path fill="none" stroke="#63b8ff" d="M359.31,-214.99C396.76,-270.14 485.79,-401.2 511,-438.31"/>
<polygon fill="#63b8ff" stroke="#63b8ff" points="362.3,-213.17 353.79,-206.87 356.51,-217.11 362.3,-213.17"/>
</a>
</g>
</g>
<!-- Node2 -->
<g id="Node000002" class="node">
<title>Node2</title>
<g id="a_Node000002"><a xlink:href="classdunedaq_1_1timing_1_1TimingNode.html" target="_top" xlink:title="Base class for timing nodes.">
<polygon fill="white" stroke="#666666" points="238.25,-199.88 97.75,-199.88 97.75,-180.62 238.25,-180.62 238.25,-199.88"/>
<text text-anchor="middle" x="168" y="-186.38" font-family="Helvetica,sans-Serif" font-size="10.00">dunedaq::timing::TimingNode</text>
</a>
</g>
</g>
<!-- Node2&#45;&gt;Node1 -->
<g id="edge1_Node000001_Node000002" class="edge">
<title>Node2&#45;&gt;Node1</title>
<g id="a_edge1_Node000001_Node000002"><a xlink:title=" ">
<path fill="none" stroke="#63b8ff" d="M249.62,-190.25C257.7,-190.25 265.85,-190.25 273.76,-190.25"/>
<polygon fill="#63b8ff" stroke="#63b8ff" points="249.77,-186.75 239.77,-190.25 249.77,-193.75 249.77,-186.75"/>
</a>
</g>
</g>
<!-- Node3 -->
<g id="Node000003" class="node">
<title>Node3</title>
<g id="a_Node000003"><a xlink:title=" ">
<polygon fill="white" stroke="#666666" points="61.75,-199.88 0,-199.88 0,-180.62 61.75,-180.62 61.75,-199.88"/>
<text text-anchor="middle" x="30.88" y="-186.38" font-family="Helvetica,sans-Serif" font-size="10.00">uhal::Node</text>
</a>
</g>
</g>
<!-- Node3&#45;&gt;Node2 -->
<g id="edge2_Node000002_Node000003" class="edge">
<title>Node3&#45;&gt;Node2</title>
<g id="a_edge2_Node000002_Node000003"><a xlink:title=" ">
<path fill="none" stroke="#63b8ff" d="M73.58,-190.25C81.14,-190.25 89.2,-190.25 97.3,-190.25"/>
<polygon fill="#63b8ff" stroke="#63b8ff" points="73.71,-186.75 63.71,-190.25 73.71,-193.75 73.71,-186.75"/>
</a>
</g>
</g>
<!-- Node5 -->
<g id="Node000005" class="node">
<title>Node5</title>
<g id="a_Node000005"><a xlink:href="classdunedaq_1_1timing_1_1CRTDesignInterface.html" target="_top" xlink:title="Base class for timing hsi design nodes.">
<polygon fill="white" stroke="#666666" points="950.25,-414.5 812.75,-414.5 812.75,-384 950.25,-384 950.25,-414.5"/>
<text text-anchor="start" x="820.75" y="-401" font-family="Helvetica,sans-Serif" font-size="10.00">dunedaq::timing::CRTDesign</text>
<text text-anchor="middle" x="881.5" y="-389.75" font-family="Helvetica,sans-Serif" font-size="10.00">Interface</text>
</a>
</g>
</g>
<!-- Node4&#45;&gt;Node5 -->
<g id="edge4_Node000004_Node000005" class="edge">
<title>Node4&#45;&gt;Node5</title>
<g id="a_edge4_Node000004_Node000005"><a xlink:title=" ">
<path fill="none" stroke="#63b8ff" d="M719.96,-275.19C739.11,-302.89 773.39,-347.23 812.75,-374.25 817.92,-377.8 823.65,-380.91 829.53,-383.63"/>
<polygon fill="#63b8ff" stroke="#63b8ff" points="722.96,-273.38 714.45,-267.06 717.16,-277.3 722.96,-273.38"/>
</a>
</g>
</g>
<!-- Node7 -->
<g id="Node000007" class="node">
<title>Node7</title>
<g id="a_Node000007"><a xlink:href="classdunedaq_1_1timing_1_1EndpointDesign.html" target="_top" xlink:title="Base class for timing endpoint design nodes.">
<polygon fill="white" stroke="#666666" points="944.25,-463.5 818.75,-463.5 818.75,-433 944.25,-433 944.25,-463.5"/>
<text text-anchor="start" x="826.75" y="-450" font-family="Helvetica,sans-Serif" font-size="10.00">dunedaq::timing::Endpoint</text>
<text text-anchor="middle" x="881.5" y="-438.75" font-family="Helvetica,sans-Serif" font-size="10.00">Design</text>
</a>
</g>
</g>
<!-- Node4&#45;&gt;Node7 -->
<g id="edge6_Node000004_Node000007" class="edge">
<title>Node4&#45;&gt;Node7</title>
<g id="a_edge6_Node000004_Node000007"><a xlink:title=" ">
<path fill="none" stroke="#63b8ff" d="M713.77,-276.37C729.43,-313.92 763.14,-383.04 812.75,-423.25 817.13,-426.8 822.07,-429.88 827.23,-432.54"/>
<polygon fill="#63b8ff" stroke="#63b8ff" points="717.05,-275.16 710.06,-267.2 710.56,-277.78 717.05,-275.16"/>
</a>
</g>
</g>
<!-- Node8 -->
<g id="Node000008" class="node">
<title>Node8</title>
<g id="a_Node000008"><a xlink:href="classdunedaq_1_1timing_1_1FanoutDesign.html" target="_top" xlink:title="Class for timing fanout designs.">
<polygon fill="white" stroke="#666666" points="1134.62,-290.88 986.62,-290.88 986.62,-271.62 1134.62,-271.62 1134.62,-290.88"/>
<text text-anchor="middle" x="1060.62" y="-277.38" font-family="Helvetica,sans-Serif" font-size="10.00">dunedaq::timing::FanoutDesign</text>
</a>
</g>
</g>
<!-- Node4&#45;&gt;Node8 -->
<g id="edge7_Node000004_Node000008" class="edge">
<title>Node4&#45;&gt;Node8</title>
<g id="a_edge7_Node000004_Node000008"><a xlink:title=" ">
<path fill="none" stroke="#63b8ff" d="M777.24,-257.87C789.11,-259.04 801.27,-260.21 812.75,-261.25 870.99,-266.55 937.03,-271.86 986.14,-275.68"/>
<polygon fill="#63b8ff" stroke="#63b8ff" points="777.79,-254.4 767.49,-256.89 777.09,-261.37 777.79,-254.4"/>
</a>
</g>
</g>
<!-- Node9 -->
<g id="Node000009" class="node">
<title>Node9</title>
<g id="a_Node000009"><a xlink:href="classdunedaq_1_1timing_1_1GaiaDesign.html" target="_top" xlink:title="Class for timing fanout designs.">
<polygon fill="white" stroke="#666666" points="1129.75,-237.88 991.5,-237.88 991.5,-218.62 1129.75,-218.62 1129.75,-237.88"/>
<text text-anchor="middle" x="1060.62" y="-224.38" font-family="Helvetica,sans-Serif" font-size="10.00">dunedaq::timing::GaiaDesign</text>
</a>
</g>
</g>
<!-- Node4&#45;&gt;Node9 -->
<g id="edge8_Node000004_Node000009" class="edge">
<title>Node4&#45;&gt;Node9</title>
<g id="a_edge8_Node000004_Node000009"><a xlink:title=" ">
<path fill="none" stroke="#63b8ff" d="M777.39,-251.33C826.45,-251.41 892.32,-250.32 950.25,-245.25 967.86,-243.71 986.94,-241.08 1004.16,-238.34"/>
<polygon fill="#63b8ff" stroke="#63b8ff" points="777.45,-247.83 767.44,-251.29 777.42,-254.83 777.45,-247.83"/>
</a>
</g>
</g>
<!-- Node10 -->
<g id="Node000010" class="node">
<title>Node10</title>
<g id="a_Node000010"><a xlink:href="classdunedaq_1_1timing_1_1HSIDesignInterface.html" target="_top" xlink:title="Base class for timing hsi design nodes.">
<polygon fill="white" stroke="#666666" points="949.12,-365.5 813.88,-365.5 813.88,-335 949.12,-335 949.12,-365.5"/>
<text text-anchor="start" x="821.88" y="-352" font-family="Helvetica,sans-Serif" font-size="10.00">dunedaq::timing::HSIDesign</text>
<text text-anchor="middle" x="881.5" y="-340.75" font-family="Helvetica,sans-Serif" font-size="10.00">Interface</text>
</a>
</g>
</g>
<!-- Node4&#45;&gt;Node10 -->
<g id="edge9_Node000004_Node000010" class="edge">
<title>Node4&#45;&gt;Node10</title>
<g id="a_edge9_Node000004_Node000010"><a xlink:title=" ">
<path fill="none" stroke="#63b8ff" d="M734.41,-272.27C755.79,-287.11 785.29,-306.57 812.75,-321.25 821.55,-325.95 831.28,-330.48 840.55,-334.51"/>
<polygon fill="#63b8ff" stroke="#63b8ff" points="736.64,-269.56 726.44,-266.68 732.62,-275.29 736.64,-269.56"/>
</a>
</g>
</g>
<!-- Node13 -->
<g id="Node000013" class="node">
<title>Node13</title>
<g id="a_Node000013"><a xlink:href="classdunedaq_1_1timing_1_1KerberosDesign.html" target="_top" xlink:title="Class for timing fanout designs.">
<polygon fill="white" stroke="#666666" points="1124.12,-169.5 997.12,-169.5 997.12,-139 1124.12,-139 1124.12,-169.5"/>
<text text-anchor="start" x="1005.12" y="-156" font-family="Helvetica,sans-Serif" font-size="10.00">dunedaq::timing::Kerberos</text>
<text text-anchor="middle" x="1060.62" y="-144.75" font-family="Helvetica,sans-Serif" font-size="10.00">Design</text>
</a>
</g>
</g>
<!-- Node4&#45;&gt;Node13 -->
<g id="edge12_Node000004_Node000013" class="edge">
<title>Node4&#45;&gt;Node13</title>
<g id="a_edge12_Node000004_Node000013"><a xlink:title=" ">
<path fill="none" stroke="#63b8ff" d="M777.23,-242.87C826.92,-236.56 893.58,-225.53 950.25,-207.25 979.57,-197.79 1011.02,-181.89 1032.64,-169.96"/>
<polygon fill="#63b8ff" stroke="#63b8ff" points="776.93,-239.37 767.44,-244.07 777.79,-246.32 776.93,-239.37"/>
</a>
</g>
</g>
<!-- Node14 -->
<g id="Node000014" class="node">
<title>Node14</title>
<g id="a_Node000014"><a xlink:href="classdunedaq_1_1timing_1_1OuroborosDesign.html" target="_top" xlink:title="Class for PDI timing master design (known as overlord).">
<polygon fill="white" stroke="#666666" points="948,-116.5 815,-116.5 815,-86 948,-86 948,-116.5"/>
<text text-anchor="start" x="823" y="-103" font-family="Helvetica,sans-Serif" font-size="10.00">dunedaq::timing::Ouroboros</text>
<text text-anchor="middle" x="881.5" y="-91.75" font-family="Helvetica,sans-Serif" font-size="10.00">Design</text>
</a>
</g>
</g>
<!-- Node4&#45;&gt;Node14 -->
<g id="edge13_Node000004_Node000014" class="edge">
<title>Node4&#45;&gt;Node14</title>
<g id="a_edge13_Node000004_Node000014"><a xlink:title=" ">
<path fill="none" stroke="#63b8ff" d="M727.79,-226.73C742.41,-212.06 761.2,-192.55 776.75,-174.25 794.02,-153.93 791.37,-142.18 812.75,-126.25 817.48,-122.73 822.75,-119.66 828.21,-116.99"/>
<polygon fill="#63b8ff" stroke="#63b8ff" points="725.4,-224.16 720.79,-233.7 730.34,-229.12 725.4,-224.16"/>
</a>
</g>
</g>
<!-- Node15 -->
<g id="Node000015" class="node">
<title>Node15</title>
<g id="a_Node000015"><a xlink:href="classdunedaq_1_1timing_1_1OuroborosMuxDesign.html" target="_top" xlink:title="Class for PDI ouroboros timing master design.">
<polygon fill="white" stroke="#666666" points="1127.12,-57.5 994.12,-57.5 994.12,-27 1127.12,-27 1127.12,-57.5"/>
<text text-anchor="start" x="1002.12" y="-44" font-family="Helvetica,sans-Serif" font-size="10.00">dunedaq::timing::Ouroboros</text>
<text text-anchor="middle" x="1060.62" y="-32.75" font-family="Helvetica,sans-Serif" font-size="10.00">MuxDesign</text>
</a>
</g>
</g>
<!-- Node4&#45;&gt;Node15 -->
<g id="edge14_Node000004_Node000015" class="edge">
<title>Node4&#45;&gt;Node15</title>
<g id="a_edge14_Node000004_Node000015"><a xlink:title=" ">
<path fill="none" stroke="#63b8ff" d="M750.18,-230.27C769.33,-222.47 791.89,-213.83 812.75,-207.25 872.68,-188.34 897.01,-207.65 950.25,-174.25 971.65,-160.82 970.16,-149.73 986.25,-130.25 1007.28,-104.79 1031.89,-75.35 1046.59,-57.79"/>
<polygon fill="#63b8ff" stroke="#63b8ff" points="748.93,-227 741.03,-234.05 751.6,-233.47 748.93,-227"/>
</a>
</g>
</g>
<!-- Node16 -->
<g id="Node000016" class="node">
<title>Node16</title>
<g id="a_Node000016"><a xlink:href="classdunedaq_1_1timing_1_1OverlordDesign.html" target="_top" xlink:title="Class for PDI timing master design (known as overlord).">
<polygon fill="white" stroke="#666666" points="943.88,-165.5 819.12,-165.5 819.12,-135 943.88,-135 943.88,-165.5"/>
<text text-anchor="start" x="827.12" y="-152" font-family="Helvetica,sans-Serif" font-size="10.00">dunedaq::timing::Overlord</text>
<text text-anchor="middle" x="881.5" y="-140.75" font-family="Helvetica,sans-Serif" font-size="10.00">Design</text>
</a>
</g>
</g>
<!-- Node4&#45;&gt;Node16 -->
<g id="edge15_Node000004_Node000016" class="edge">
<title>Node4&#45;&gt;Node16</title>
<g id="a_edge15_Node000004_Node000016"><a xlink:title=" ">
<path fill="none" stroke="#63b8ff" d="M734.41,-228.23C755.79,-213.39 785.29,-193.93 812.75,-179.25 821.55,-174.55 831.28,-170.02 840.55,-165.99"/>
<polygon fill="#63b8ff" stroke="#63b8ff" points="732.62,-225.21 726.44,-233.82 736.64,-230.94 732.62,-225.21"/>
</a>
</g>
</g>
<!-- Node6 -->
<g id="Node000006" class="node">
<title>Node6</title>
<g id="a_Node000006"><a xlink:href="classdunedaq_1_1timing_1_1CRTDesign.html" target="_top" xlink:title="Class for timing master with integrated HSI designs.">
<polygon fill="white" stroke="#666666" points="1129.38,-473.88 991.88,-473.88 991.88,-454.62 1129.38,-454.62 1129.38,-473.88"/>
<text text-anchor="middle" x="1060.62" y="-460.38" font-family="Helvetica,sans-Serif" font-size="10.00">dunedaq::timing::CRTDesign</text>
</a>
</g>
</g>
<!-- Node5&#45;&gt;Node6 -->
<g id="edge5_Node000005_Node000006" class="edge">
<title>Node5&#45;&gt;Node6</title>
<g id="a_edge5_Node000005_Node000006"><a xlink:title=" ">
<path fill="none" stroke="#63b8ff" d="M935.85,-418.83C967.65,-430.5 1006.67,-444.82 1032.3,-454.22"/>
<polygon fill="#63b8ff" stroke="#63b8ff" points="937.39,-415.67 926.8,-415.51 934.98,-422.24 937.39,-415.67"/>
</a>
</g>
</g>
<!-- Node11 -->
<g id="Node000011" class="node">
<title>Node11</title>
<g id="a_Node000011"><a xlink:href="classdunedaq_1_1timing_1_1BoreasDesign.html" target="_top" xlink:title="Class for timing master with integrated HSI designs.">
<polygon fill="white" stroke="#666666" points="1135,-335.88 986.25,-335.88 986.25,-316.62 1135,-316.62 1135,-335.88"/>
<text text-anchor="middle" x="1060.62" y="-322.38" font-family="Helvetica,sans-Serif" font-size="10.00">dunedaq::timing::BoreasDesign</text>
</a>
</g>
</g>
<!-- Node10&#45;&gt;Node11 -->
<g id="edge10_Node000010_Node000011" class="edge">
<title>Node10&#45;&gt;Node11</title>
<g id="a_edge10_Node000010_Node000011"><a xlink:title=" ">
<path fill="none" stroke="#63b8ff" d="M960.71,-339.65C969.03,-338.52 977.48,-337.38 985.75,-336.26"/>
<polygon fill="#63b8ff" stroke="#63b8ff" points="960.4,-336.16 950.96,-340.97 961.34,-343.1 960.4,-336.16"/>
</a>
</g>
</g>
<!-- Node12 -->
<g id="Node000012" class="node">
<title>Node12</title>
<g id="a_Node000012"><a xlink:href="classdunedaq_1_1timing_1_1ChronosDesign.html" target="_top" xlink:title="Class for timing master with integrated HSI designs.">
<polygon fill="white" stroke="#666666" points="1122.62,-388.5 998.62,-388.5 998.62,-358 1122.62,-358 1122.62,-388.5"/>
<text text-anchor="start" x="1006.62" y="-375" font-family="Helvetica,sans-Serif" font-size="10.00">dunedaq::timing::Chronos</text>
<text text-anchor="middle" x="1060.62" y="-363.75" font-family="Helvetica,sans-Serif" font-size="10.00">Design</text>
</a>
</g>
</g>
<!-- Node10&#45;&gt;Node12 -->
<g id="edge11_Node000010_Node000012" class="edge">
<title>Node10&#45;&gt;Node12</title>
<g id="a_edge11_Node000010_Node000012"><a xlink:title=" ">
<path fill="none" stroke="#63b8ff" d="M960.51,-360.38C973.2,-362.03 986.18,-363.71 998.4,-365.3"/>
<polygon fill="#63b8ff" stroke="#63b8ff" points="961.33,-356.96 950.96,-359.14 960.43,-363.9 961.33,-356.96"/>
</a>
</g>
</g>
<!-- Node18 -->
<g id="Node000018" class="node">
<title>Node18</title>
<g id="a_Node000018"><a xlink:href="classdunedaq_1_1timing_1_1MasterDesign.html" target="_top" xlink:title="Base class for timing master designs.">
<polygon fill="white" stroke="#666666" points="776.75,-113.88 628.75,-113.88 628.75,-94.62 776.75,-94.62 776.75,-113.88"/>
<text text-anchor="middle" x="702.75" y="-100.38" font-family="Helvetica,sans-Serif" font-size="10.00">dunedaq::timing::MasterDesign</text>
</a>
</g>
</g>
<!-- Node17&#45;&gt;Node18 -->
<g id="edge17_Node000017_Node000018" class="edge">
<title>Node17&#45;&gt;Node18</title>
<g id="a_edge17_Node000017_Node000018"><a xlink:title=" ">
<path fill="none" stroke="#63b8ff" d="M592.91,-131.76C616.45,-125.81 641.64,-119.44 661.86,-114.33"/>
<polygon fill="#63b8ff" stroke="#63b8ff" points="592.18,-128.33 583.34,-134.18 593.9,-135.12 592.18,-128.33"/>
</a>
</g>
</g>
<!-- Node20 -->
<g id="Node000020" class="node">
<title>Node20</title>
<g id="a_Node000020"><a xlink:href="classdunedaq_1_1timing_1_1OverlordDesignInterface.html" target="_top" xlink:title="Class for PDI timing master + trigger receiver endpoint design (known as overlord).">
<polygon fill="white" stroke="#666666" points="765.12,-165.5 640.38,-165.5 640.38,-135 765.12,-135 765.12,-165.5"/>
<text text-anchor="start" x="648.38" y="-152" font-family="Helvetica,sans-Serif" font-size="10.00">dunedaq::timing::Overlord</text>
<text text-anchor="middle" x="702.75" y="-140.75" font-family="Helvetica,sans-Serif" font-size="10.00">DesignInterface</text>
</a>
</g>
</g>
<!-- Node17&#45;&gt;Node20 -->
<g id="edge26_Node000017_Node000020" class="edge">
<title>Node17&#45;&gt;Node20</title>
<g id="a_edge26_Node000017_Node000020"><a xlink:title=" ">
<path fill="none" stroke="#63b8ff" d="M604.43,-150.25C616.44,-150.25 628.59,-150.25 640.05,-150.25"/>
<polygon fill="#63b8ff" stroke="#63b8ff" points="604.5,-146.75 594.5,-150.25 604.5,-153.75 604.5,-146.75"/>
</a>
</g>
</g>
<!-- Node18&#45;&gt;Node11 -->
<g id="edge18_Node000018_Node000011" class="edge">
<title>Node18&#45;&gt;Node11</title>
<g id="a_edge18_Node000018_Node000011"><a xlink:title=" ">
<path fill="none" stroke="#63b8ff" d="M732.36,-89.06C782.81,-64.6 888.11,-24.33 950.25,-77.25 1026.69,-142.34 921.95,-223.15 986.25,-300.25 992.14,-307.31 1000.07,-312.45 1008.55,-316.2"/>
<polygon fill="#63b8ff" stroke="#63b8ff" points="730.92,-85.87 723.54,-93.47 734.05,-92.13 730.92,-85.87"/>
</a>
</g>
</g>
<!-- Node18&#45;&gt;Node14 -->
<g id="edge24_Node000018_Node000014" class="edge">
<title>Node18&#45;&gt;Node14</title>
<g id="a_edge24_Node000018_Node000014"><a xlink:title=" ">
<path fill="none" stroke="#63b8ff" d="M788.61,-102.81C797.36,-102.66 806.15,-102.51 814.64,-102.37"/>
<polygon fill="#63b8ff" stroke="#63b8ff" points="788.62,-99.31 778.69,-102.98 788.74,-106.31 788.62,-99.31"/>
</a>
</g>
</g>
<!-- Node18&#45;&gt;Node16 -->
<g id="edge25_Node000018_Node000016" class="edge">
<title>Node18&#45;&gt;Node16</title>
<g id="a_edge25_Node000018_Node000016"><a xlink:title=" ">
<path fill="none" stroke="#63b8ff" d="M753.65,-117.24C774.36,-122.63 798.57,-128.93 820.26,-134.57"/>
<polygon fill="#63b8ff" stroke="#63b8ff" points="754.56,-113.86 744,-114.73 752.8,-120.63 754.56,-113.86"/>
</a>
</g>
</g>
<!-- Node19 -->
<g id="Node000019" class="node">
<title>Node19</title>
<g id="a_Node000019"><a xlink:href="classdunedaq_1_1timing_1_1MasterMuxDesign.html" target="_top" xlink:title="Class for PDI timing master design on mux board.">
<polygon fill="white" stroke="#666666" points="949.5,-30.5 813.5,-30.5 813.5,0 949.5,0 949.5,-30.5"/>
<text text-anchor="start" x="821.5" y="-17" font-family="Helvetica,sans-Serif" font-size="10.00">dunedaq::timing::MasterMux</text>
<text text-anchor="middle" x="881.5" y="-5.75" font-family="Helvetica,sans-Serif" font-size="10.00">Design</text>
</a>
</g>
</g>
<!-- Node18&#45;&gt;Node19 -->
<g id="edge19_Node000018_Node000019" class="edge">
<title>Node18&#45;&gt;Node19</title>
<g id="a_edge19_Node000018_Node000019"><a xlink:title=" ">
<path fill="none" stroke="#63b8ff" d="M730.7,-88.44C752.53,-75.88 784.22,-58.17 812.75,-44.25 822.18,-39.65 832.52,-35.02 842.22,-30.86"/>
<polygon fill="#63b8ff" stroke="#63b8ff" points="729.05,-85.35 722.15,-93.4 732.56,-91.41 729.05,-85.35"/>
</a>
</g>
</g>
<!-- Node19&#45;&gt;Node8 -->
<g id="edge20_Node000019_Node000008" class="edge">
<title>Node19&#45;&gt;Node8</title>
<g id="a_edge20_Node000019_Node000008"><a xlink:title=" ">
<path fill="none" stroke="#63b8ff" d="M943.49,-37.28C945.96,-39.39 948.24,-41.71 950.25,-44.25 1007.22,-116.02 930.35,-174.65 986.25,-247.25 994.82,-258.37 1007.89,-266 1020.63,-271.15"/>
<polygon fill="#63b8ff" stroke="#63b8ff" points="945.86,-34.67 935.69,-31.7 941.78,-40.36 945.86,-34.67"/>
</a>
</g>
</g>
<!-- Node19&#45;&gt;Node9 -->
<g id="edge21_Node000019_Node000009" class="edge">
<title>Node19&#45;&gt;Node9</title>
<g id="a_edge21_Node000019_Node000009"><a xlink:title=" ">
<path fill="none" stroke="#63b8ff" d="M943.08,-37.38C945.68,-39.47 948.09,-41.76 950.25,-44.25 990.65,-90.84 950.54,-127.97 986.25,-178.25 999.01,-196.22 1020.41,-209.72 1036.82,-218.13"/>
<polygon fill="#63b8ff" stroke="#63b8ff" points="945.17,-34.57 934.94,-31.83 941.23,-40.35 945.17,-34.57"/>
</a>
</g>
</g>
<!-- Node19&#45;&gt;Node13 -->
<g id="edge22_Node000019_Node000013" class="edge">
<title>Node19&#45;&gt;Node13</title>
<g id="a_edge22_Node000019_Node000013"><a xlink:title=" ">
<path fill="none" stroke="#63b8ff" d="M936.21,-35.92C941.09,-38.48 945.85,-41.26 950.25,-44.25 990.58,-71.63 1028.56,-115.28 1047.35,-138.51"/>
<polygon fill="#63b8ff" stroke="#63b8ff" points="937.97,-32.88 927.45,-31.63 934.89,-39.17 937.97,-32.88"/>
</a>
</g>
</g>
<!-- Node19&#45;&gt;Node15 -->
<g id="edge23_Node000019_Node000015" class="edge">
<title>Node19&#45;&gt;Node15</title>
<g id="a_edge23_Node000019_Node000015"><a xlink:title=" ">
<path fill="none" stroke="#63b8ff" d="M961.21,-27.25C972.1,-28.91 983.19,-30.6 993.81,-32.22"/>
<polygon fill="#63b8ff" stroke="#63b8ff" points="961.88,-23.81 951.46,-25.76 960.82,-30.73 961.88,-23.81"/>
</a>
</g>
</g>
<!-- Node20&#45;&gt;Node16 -->
<g id="edge27_Node000020_Node000016" class="edge">
<title>Node20&#45;&gt;Node16</title>
<g id="a_edge27_Node000020_Node000016"><a xlink:title=" ">
<path fill="none" stroke="#63b8ff" d="M777.05,-150.25C790.9,-150.25 805.26,-150.25 818.72,-150.25"/>
<polygon fill="#63b8ff" stroke="#63b8ff" points="777.08,-146.75 767.08,-150.25 777.08,-153.75 777.08,-146.75"/>
</a>
</g>
</g>
<!-- Node21&#45;&gt;Node19 -->
<g id="edge29_Node000021_Node000019" class="edge">
<title>Node21&#45;&gt;Node19</title>
<g id="a_edge29_Node000021_Node000019"><a xlink:title=" ">
<path fill="none" stroke="#63b8ff" d="M598.45,-58.25C662.59,-48.47 752.21,-34.81 813.09,-25.53"/>
<polygon fill="#63b8ff" stroke="#63b8ff" points="598.04,-54.77 588.68,-59.74 599.09,-61.69 598.04,-54.77"/>
</a>
</g>
</g>
<!-- Node22&#45;&gt;Node6 -->
<g id="edge31_Node000022_Node000006" class="edge">
<title>Node22&#45;&gt;Node6</title>
<g id="a_edge31_Node000022_Node000006"><a xlink:title=" ">
<path fill="none" stroke="#63b8ff" d="M543.09,-464.73C564.3,-478.62 597.03,-497.46 628.75,-505.25 767.51,-539.34 809.65,-530.74 950.25,-505.25 982.77,-499.35 1018.22,-484.34 1039.69,-474.22"/>
<polygon fill="#63b8ff" stroke="#63b8ff" points="545.16,-461.91 534.92,-459.22 541.25,-467.71 545.16,-461.91"/>
</a>
</g>
</g>
<!-- Node22&#45;&gt;Node7 -->
<g id="edge33_Node000022_Node000007" class="edge">
<title>Node22&#45;&gt;Node7</title>
<g id="a_edge33_Node000022_Node000007"><a xlink:title=" ">
<path fill="none" stroke="#63b8ff" d="M597.53,-448.25C663.66,-448.25 757.35,-448.25 818.52,-448.25"/>
<polygon fill="#63b8ff" stroke="#63b8ff" points="597.85,-444.75 587.85,-448.25 597.85,-451.75 597.85,-444.75"/>
</a>
</g>
</g>
<!-- Node22&#45;&gt;Node12 -->
<g id="edge32_Node000022_Node000012" class="edge">
<title>Node22&#45;&gt;Node12</title>
<g id="a_edge32_Node000022_Node000012"><a xlink:title=" ">
<path fill="none" stroke="#63b8ff" d="M561.51,-461.59C640.5,-484.47 815.94,-524.01 950.25,-472.25 961.6,-467.88 1016.35,-415.46 1043.83,-388.73"/>
<polygon fill="#63b8ff" stroke="#63b8ff" points="562.6,-458.26 552.02,-458.77 560.61,-464.97 562.6,-458.26"/>
</a>
</g>
</g>
<!-- Node22&#45;&gt;Node18 -->
<g id="edge34_Node000022_Node000018" class="edge">
<title>Node22&#45;&gt;Node18</title>
<g id="a_edge34_Node000022_Node000018"><a xlink:title=" ">
<path fill="none" stroke="#63b8ff" d="M524.25,-427.15C538.39,-362.65 583.7,-169.81 628.75,-126.25 633.98,-121.19 640.34,-117.29 647.09,-114.28"/>
<polygon fill="#63b8ff" stroke="#63b8ff" points="520.86,-426.27 522.16,-436.78 527.7,-427.75 520.86,-426.27"/>
</a>
</g>
</g>
</g>
</svg>
