<?xml version="1.0" encoding="UTF-8" standalone="no"?>
<!DOCTYPE svg PUBLIC "-//W3C//DTD SVG 1.1//EN"
 "http://www.w3.org/Graphics/SVG/1.1/DTD/svg11.dtd">
<!-- Generated by graphviz version 9.0.0 (20230911.1827)
 -->
<!-- Title: dunedaq::appdal::DataReaderConf Pages: 1 -->
<svg width="382pt" height="138pt"
 viewBox="0.00 0.00 381.62 137.75" xmlns="http://www.w3.org/2000/svg" xmlns:xlink="http://www.w3.org/1999/xlink">
<g id="graph0" class="graph" transform="scale(1 1) rotate(0) translate(4 133.75)">
<title>dunedaq::appdal::DataReaderConf</title>
<!-- Node1 -->
<g id="Node000001" class="node">
<title>Node1</title>
<g id="a_Node000001"><a xlink:title=" ">
<polygon fill="#999999" stroke="#666666" points="273.38,-74.5 111.88,-74.5 111.88,-55.25 273.38,-55.25 273.38,-74.5"/>
<text text-anchor="middle" x="192.62" y="-61" font-family="Helvetica,sans-Serif" font-size="10.00">dunedaq::appdal::DataReaderConf</text>
</a>
</g>
</g>
<!-- Node3 -->
<g id="Node000003" class="node">
<title>Node3</title>
<g id="a_Node000003"><a xlink:href="classdunedaq_1_1appdal_1_1HSI2TCTranslatorConf.html" target="_top" xlink:title=" ">
<polygon fill="white" stroke="#666666" points="189.25,-19.25 0,-19.25 0,0 189.25,0 189.25,-19.25"/>
<text text-anchor="middle" x="94.62" y="-5.75" font-family="Helvetica,sans-Serif" font-size="10.00">dunedaq::appdal::HSI2TCTranslatorConf</text>
</a>
</g>
</g>
<!-- Node1&#45;&gt;Node3 -->
<g id="edge3_Node000001_Node000003" class="edge">
<title>Node1&#45;&gt;Node3</title>
<g id="a_edge3_Node000001_Node000003"><a xlink:title=" ">
<path fill="none" stroke="#63b8ff" d="M160.57,-49.74C141.88,-40.22 119.56,-27.94 106.1,-19.7"/>
<polygon fill="#63b8ff" stroke="#63b8ff" points="158.92,-52.83 169.43,-54.17 162.05,-46.57 158.92,-52.83"/>
</a>
</g>
</g>
<!-- Node1&#45;&gt;Node3 -->
<g id="edge4_Node000001_Node000003" class="edge">
<title>Node1&#45;&gt;Node3</title>
<g id="a_edge4_Node000001_Node000003"><a xlink:title=" ">
<path fill="none" stroke="#63b8ff" d="M171.5,-49.07C155.24,-39.65 133.04,-27.75 116.56,-19.7"/>
<polygon fill="#63b8ff" stroke="#63b8ff" points="169.53,-51.97 179.92,-54.07 173.11,-45.95 169.53,-51.97"/>
</a>
</g>
</g>
<!-- Node4 -->
<g id="Node000004" class="node">
<title>Node4</title>
<g id="a_Node000004"><a xlink:href="classdunedaq_1_1appdal_1_1NICReceiverConf.html" target="_top" xlink:title=" ">
<polygon fill="white" stroke="#666666" points="373.62,-19.25 207.62,-19.25 207.62,0 373.62,0 373.62,-19.25"/>
<text text-anchor="middle" x="290.62" y="-5.75" font-family="Helvetica,sans-Serif" font-size="10.00">dunedaq::appdal::NICReceiverConf</text>
</a>
</g>
</g>
<!-- Node1&#45;&gt;Node4 -->
<g id="edge5_Node000001_Node000004" class="edge">
<title>Node1&#45;&gt;Node4</title>
<g id="a_edge5_Node000001_Node000004"><a xlink:title=" ">
<path fill="none" stroke="#63b8ff" d="M213.75,-49.07C230.01,-39.65 252.21,-27.75 268.69,-19.7"/>
<polygon fill="#63b8ff" stroke="#63b8ff" points="212.14,-45.95 205.33,-54.07 215.72,-51.97 212.14,-45.95"/>
</a>
</g>
</g>
<!-- Node1&#45;&gt;Node4 -->
<g id="edge6_Node000001_Node000004" class="edge">
<title>Node1&#45;&gt;Node4</title>
<g id="a_edge6_Node000001_Node000004"><a xlink:title=" ">
<path fill="none" stroke="#63b8ff" d="M224.68,-49.74C243.37,-40.22 265.69,-27.94 279.15,-19.7"/>
<polygon fill="#63b8ff" stroke="#63b8ff" points="223.2,-46.57 215.82,-54.17 226.33,-52.83 223.2,-46.57"/>
</a>
</g>
</g>
<!-- Node2 -->
<g id="Node000002" class="node">
<title>Node2</title>
<g id="a_Node000002"><a xlink:href="classdunedaq_1_1conffwk_1_1DalObject.html" target="_top" xlink:title="The base class for any generated DAL object.">
<polygon fill="white" stroke="#666666" points="261.75,-129.75 123.5,-129.75 123.5,-110.5 261.75,-110.5 261.75,-129.75"/>
<text text-anchor="middle" x="192.62" y="-116.25" font-family="Helvetica,sans-Serif" font-size="10.00">dunedaq::conffwk::DalObject</text>
</a>
</g>
</g>
<!-- Node2&#45;&gt;Node1 -->
<g id="edge1_Node000001_Node000002" class="edge">
<title>Node2&#45;&gt;Node1</title>
<g id="a_edge1_Node000001_Node000002"><a xlink:title=" ">
<path fill="none" stroke="#63b8ff" d="M186.07,-99.17C185.58,-90.8 186.03,-81.5 187.42,-74.86"/>
<polygon fill="#63b8ff" stroke="#63b8ff" points="182.56,-99.34 187.27,-108.83 189.51,-98.47 182.56,-99.34"/>
</a>
</g>
</g>
<!-- Node2&#45;&gt;Node1 -->
<g id="edge2_Node000001_Node000002" class="edge">
<title>Node2&#45;&gt;Node1</title>
<g id="a_edge2_Node000001_Node000002"><a xlink:title=" ">
<path fill="none" stroke="#63b8ff" d="M199.18,-99.17C199.67,-90.8 199.22,-81.5 197.83,-74.86"/>
<polygon fill="#63b8ff" stroke="#63b8ff" points="195.74,-98.47 197.98,-108.83 202.69,-99.34 195.74,-98.47"/>
</a>
</g>
</g>
</g>
</svg>
