<?xml version="1.0" encoding="UTF-8" standalone="no"?>
<!DOCTYPE svg PUBLIC "-//W3C//DTD SVG 1.1//EN"
 "http://www.w3.org/Graphics/SVG/1.1/DTD/svg11.dtd">
<!-- Generated by graphviz version 9.0.0 (20230911.1827)
 -->
<!-- Title: dunedaq::appdal::HermesLinkConf Pages: 1 -->
<svg width="2950pt" height="339pt"
 viewBox="0.00 0.00 2950.00 339.25" xmlns="http://www.w3.org/2000/svg" xmlns:xlink="http://www.w3.org/1999/xlink">
<g id="graph0" class="graph" transform="scale(1 1) rotate(0) translate(4 335.25)">
<title>dunedaq::appdal::HermesLinkConf</title>
<!-- Node1 -->
<g id="Node000001" class="node">
<title>Node1</title>
<g id="a_Node000001"><a xlink:title=" ">
<polygon fill="#999999" stroke="#666666" points="2942,-278.75 2778.25,-278.75 2778.25,-259.5 2942,-259.5 2942,-278.75"/>
<text text-anchor="middle" x="2860.12" y="-265.25" font-family="Helvetica,sans-Serif" font-size="10.00">dunedaq::appdal::HermesLinkConf</text>
</a>
</g>
</g>
<!-- Node2 -->
<g id="Node000002" class="node">
<title>Node2</title>
<g id="a_Node000002"><a xlink:href="classdunedaq_1_1conffwk_1_1DalObject.html" target="_top" xlink:title="The base class for any generated DAL object.">
<polygon fill="white" stroke="#666666" points="1509.5,-193.75 1371.25,-193.75 1371.25,-174.5 1509.5,-174.5 1509.5,-193.75"/>
<text text-anchor="middle" x="1440.38" y="-180.25" font-family="Helvetica,sans-Serif" font-size="10.00">dunedaq::conffwk::DalObject</text>
</a>
</g>
</g>
<!-- Node2&#45;&gt;Node1 -->
<g id="edge1_Node000001_Node000002" class="edge">
<title>Node2&#45;&gt;Node1</title>
<g id="a_edge1_Node000001_Node000002"><a xlink:title=" ">
<path fill="none" stroke="#63b8ff" d="M1465.63,-201.02C1497.84,-226.32 1557.75,-270.12 1618.38,-270.12 1618.38,-270.12 1618.38,-270.12 2607.38,-270.12 2664.35,-270.12 2728.52,-267.54 2777.81,-266.18"/>
<polygon fill="#63b8ff" stroke="#63b8ff" points="1468.13,-198.53 1458.12,-195.07 1463.78,-204.02 1468.13,-198.53"/>
</a>
</g>
</g>
<!-- Node2&#45;&gt;Node1 -->
<g id="edge18_Node000001_Node000002" class="edge">
<title>Node2&#45;&gt;Node1</title>
<g id="a_edge18_Node000001_Node000002"><a xlink:title=" ">
<path fill="none" stroke="#63b8ff" d="M1454.83,-202.41C1482.75,-232.58 1550.11,-288.12 1618.38,-288.12 1618.38,-288.12 1618.38,-288.12 2607.38,-288.12 2676.7,-288.12 2756.69,-284.29 2807.56,-279.24"/>
<polygon fill="#63b8ff" stroke="#63b8ff" points="1457.67,-200.34 1448.46,-195.09 1452.39,-204.94 1457.67,-200.34"/>
</a>
</g>
</g>
<!-- Node22 -->
<g id="Node000022" class="node">
<title>Node22</title>
<g id="a_Node000022"><a xlink:href="classdunedaq_1_1coredal_1_1Component.html" target="_top" xlink:title=" ">
<polygon fill="white" stroke="#666666" points="1690.75,-193.75 1548,-193.75 1548,-174.5 1690.75,-174.5 1690.75,-193.75"/>
<text text-anchor="middle" x="1619.38" y="-180.25" font-family="Helvetica,sans-Serif" font-size="10.00">dunedaq::coredal::Component</text>
</a>
</g>
</g>
<!-- Node2&#45;&gt;Node22 -->
<g id="edge25_Node000022_Node000002" class="edge">
<title>Node2&#45;&gt;Node22</title>
<g id="a_edge25_Node000022_Node000002"><a xlink:title=" ">
<path fill="none" stroke="#63b8ff" d="M1521.32,-177.4C1530.14,-177.34 1539.08,-177.38 1547.78,-177.5"/>
<polygon fill="#63b8ff" stroke="#63b8ff" points="1521.28,-173.9 1511.32,-177.51 1521.36,-180.9 1521.28,-173.9"/>
</a>
</g>
</g>
<!-- Node2&#45;&gt;Node22 -->
<g id="edge26_Node000022_Node000002" class="edge">
<title>Node2&#45;&gt;Node22</title>
<g id="a_edge26_Node000022_Node000002"><a xlink:title=" ">
<path fill="none" stroke="#63b8ff" d="M1521.32,-190.85C1530.14,-190.91 1539.08,-190.87 1547.78,-190.75"/>
<polygon fill="#63b8ff" stroke="#63b8ff" points="1521.36,-187.35 1511.32,-190.74 1521.28,-194.35 1521.36,-187.35"/>
</a>
</g>
</g>
<!-- Node23 -->
<g id="Node000023" class="node">
<title>Node23</title>
<g id="a_Node000023"><a xlink:href="classdunedaq_1_1appdal_1_1NICInterfaceConfiguration.html" target="_top" xlink:title=" ">
<polygon fill="white" stroke="#666666" points="1692.25,-242.38 1546.5,-242.38 1546.5,-211.88 1692.25,-211.88 1692.25,-242.38"/>
<text text-anchor="start" x="1554.5" y="-228.88" font-family="Helvetica,sans-Serif" font-size="10.00">dunedaq::appdal::NICInterface</text>
<text text-anchor="middle" x="1619.38" y="-217.62" font-family="Helvetica,sans-Serif" font-size="10.00">Configuration</text>
</a>
</g>
</g>
<!-- Node2&#45;&gt;Node23 -->
<g id="edge33_Node000023_Node000002" class="edge">
<title>Node2&#45;&gt;Node23</title>
<g id="a_edge33_Node000023_Node000002"><a xlink:title=" ">
<path fill="none" stroke="#63b8ff" d="M1520.91,-196.73C1540.48,-201.35 1560.63,-206.55 1577.5,-211.4"/>
<polygon fill="#63b8ff" stroke="#63b8ff" points="1521.81,-193.34 1511.28,-194.5 1520.23,-200.16 1521.81,-193.34"/>
</a>
</g>
</g>
<!-- Node2&#45;&gt;Node23 -->
<g id="edge34_Node000023_Node000002" class="edge">
<title>Node2&#45;&gt;Node23</title>
<g id="a_edge34_Node000023_Node000002"><a xlink:title=" ">
<path fill="none" stroke="#63b8ff" d="M1474.57,-197.59C1494.72,-203.63 1521.26,-210.49 1546.05,-216.2"/>
<polygon fill="#63b8ff" stroke="#63b8ff" points="1475.83,-194.32 1465.24,-194.69 1473.75,-201 1475.83,-194.32"/>
</a>
</g>
</g>
<!-- Node25 -->
<g id="Node000025" class="node">
<title>Node25</title>
<g id="a_Node000025"><a xlink:href="classdunedaq_1_1coredal_1_1GeoId.html" target="_top" xlink:title=" ">
<polygon fill="white" stroke="#666666" points="1679.12,-107.75 1559.62,-107.75 1559.62,-88.5 1679.12,-88.5 1679.12,-107.75"/>
<text text-anchor="middle" x="1619.38" y="-94.25" font-family="Helvetica,sans-Serif" font-size="10.00">dunedaq::coredal::GeoId</text>
</a>
</g>
</g>
<!-- Node2&#45;&gt;Node25 -->
<g id="edge39_Node000025_Node000002" class="edge">
<title>Node2&#45;&gt;Node25</title>
<g id="a_edge39_Node000025_Node000002"><a xlink:title=" ">
<path fill="none" stroke="#63b8ff" d="M1456.34,-166.26C1476.01,-148.64 1512.09,-123.2 1546.5,-108.12 1550.64,-106.31 1554.99,-104.64 1559.41,-103.13"/>
<polygon fill="#63b8ff" stroke="#63b8ff" points="1453.96,-163.7 1449.18,-173.15 1458.81,-168.74 1453.96,-163.7"/>
</a>
</g>
</g>
<!-- Node2&#45;&gt;Node25 -->
<g id="edge40_Node000025_Node000002" class="edge">
<title>Node2&#45;&gt;Node25</title>
<g id="a_edge40_Node000025_Node000002"><a xlink:title=" ">
<path fill="none" stroke="#63b8ff" d="M1473.17,-167.95C1493.31,-154.98 1520.38,-137.57 1546.5,-126.12 1564.47,-118.25 1586.44,-113.03 1601.32,-108.2"/>
<polygon fill="#63b8ff" stroke="#63b8ff" points="1471.4,-164.93 1464.88,-173.28 1475.18,-170.82 1471.4,-164.93"/>
</a>
</g>
</g>
<!-- Node26 -->
<g id="Node000026" class="node">
<title>Node26</title>
<g id="a_Node000026"><a xlink:href="classdunedaq_1_1coredal_1_1StreamParameters.html" target="_top" xlink:title=" ">
<polygon fill="white" stroke="#666666" points="1681.75,-156.38 1557,-156.38 1557,-125.88 1681.75,-125.88 1681.75,-156.38"/>
<text text-anchor="start" x="1565" y="-142.88" font-family="Helvetica,sans-Serif" font-size="10.00">dunedaq::coredal::Stream</text>
<text text-anchor="middle" x="1619.38" y="-131.62" font-family="Helvetica,sans-Serif" font-size="10.00">Parameters</text>
</a>
</g>
</g>
<!-- Node2&#45;&gt;Node26 -->
<g id="edge42_Node000026_Node000002" class="edge">
<title>Node2&#45;&gt;Node26</title>
<g id="a_edge42_Node000026_Node000002"><a xlink:title=" ">
<path fill="none" stroke="#63b8ff" d="M1474.7,-170.61C1497.75,-163.72 1529.1,-155.75 1556.64,-149.66"/>
<polygon fill="#63b8ff" stroke="#63b8ff" points="1473.75,-167.25 1465.24,-173.56 1475.83,-173.93 1473.75,-167.25"/>
</a>
</g>
</g>
<!-- Node2&#45;&gt;Node26 -->
<g id="edge43_Node000026_Node000002" class="edge">
<title>Node2&#45;&gt;Node26</title>
<g id="a_edge43_Node000026_Node000002"><a xlink:title=" ">
<path fill="none" stroke="#63b8ff" d="M1520.91,-171.52C1540.48,-166.9 1560.63,-161.7 1577.5,-156.85"/>
<polygon fill="#63b8ff" stroke="#63b8ff" points="1520.23,-168.09 1511.28,-173.75 1521.81,-174.91 1520.23,-168.09"/>
</a>
</g>
</g>
<!-- Node3 -->
<g id="Node000003" class="node">
<title>Node3</title>
<g id="a_Node000003"><a xlink:href="classdunedaq_1_1conffwk_1_1Configuration.html" target="_top" xlink:title=" ">
<polygon fill="white" stroke="#666666" points="644.5,-194.75 492.75,-194.75 492.75,-175.5 644.5,-175.5 644.5,-194.75"/>
<text text-anchor="middle" x="568.62" y="-181.25" font-family="Helvetica,sans-Serif" font-size="10.00">dunedaq::conffwk::Configuration</text>
</a>
</g>
</g>
<!-- Node3&#45;&gt;Node2 -->
<g id="edge2_Node000002_Node000003" class="edge">
<title>Node3&#45;&gt;Node2</title>
<g id="a_edge2_Node000002_Node000003"><a xlink:title=" ">
<path fill="none" stroke="#9a32cd" stroke-dasharray="5,2" d="M656.08,-176.89C708.87,-172.55 777.77,-168.12 839,-168.12 839,-168.12 839,-168.12 1249.5,-168.12 1289.86,-168.12 1334.87,-171.76 1370.94,-175.56"/>
<polygon fill="#9a32cd" stroke="#9a32cd" points="655.91,-173.39 646.24,-177.72 656.49,-180.37 655.91,-173.39"/>
</a>
</g>
<text text-anchor="middle" x="1056.25" y="-169.88" font-family="Helvetica,sans-Serif" font-size="10.00" fill="grey"> p_db</text>
</g>
<!-- Node12 -->
<g id="Node000012" class="node">
<title>Node12</title>
<g id="a_Node000012"><a xlink:href="classdunedaq_1_1conffwk_1_1ConfigurationImpl.html" target="_top" xlink:title="Provides pure virtual interface used by the Configuration class.">
<polygon fill="white" stroke="#666666" points="925.25,-241.75 754.75,-241.75 754.75,-222.5 925.25,-222.5 925.25,-241.75"/>
<text text-anchor="middle" x="840" y="-228.25" font-family="Helvetica,sans-Serif" font-size="10.00">dunedaq::conffwk::ConfigurationImpl</text>
</a>
</g>
</g>
<!-- Node3&#45;&gt;Node12 -->
<g id="edge14_Node000012_Node000003" class="edge">
<title>Node3&#45;&gt;Node12</title>
<g id="a_edge14_Node000012_Node000003"><a xlink:title=" ">
<path fill="none" stroke="#9a32cd" stroke-dasharray="5,2" d="M610.1,-198.54C627.25,-203.78 647.56,-209.42 666.25,-213.12 694.81,-218.79 726.38,-222.88 754.64,-225.79"/>
<polygon fill="#9a32cd" stroke="#9a32cd" points="611.36,-195.27 600.77,-195.63 609.27,-201.95 611.36,-195.27"/>
</a>
</g>
<text text-anchor="middle" x="701.5" y="-224.88" font-family="Helvetica,sans-Serif" font-size="10.00" fill="grey"> m_conf</text>
</g>
<!-- Node4 -->
<g id="Node000004" class="node">
<title>Node4</title>
<g id="a_Node000004"><a xlink:href="classdunedaq_1_1conffwk_1_1map.html" target="_top" xlink:title=" ">
<polygon fill="white" stroke="#666666" points="355.88,-249.38 206.38,-249.38 206.38,-218.88 355.88,-218.88 355.88,-249.38"/>
<text text-anchor="start" x="214.38" y="-235.88" font-family="Helvetica,sans-Serif" font-size="10.00">dunedaq::conffwk::map</text>
<text text-anchor="middle" x="281.12" y="-224.62" font-family="Helvetica,sans-Serif" font-size="10.00">&lt; dunedaq::conffwk::class_t * &gt;</text>
</a>
</g>
</g>
<!-- Node4&#45;&gt;Node3 -->
<g id="edge3_Node000003_Node000004" class="edge">
<title>Node4&#45;&gt;Node3</title>
<g id="a_edge3_Node000003_Node000004"><a xlink:title=" ">
<path fill="none" stroke="#9a32cd" stroke-dasharray="5,2" d="M367.37,-226.34C399.95,-222.68 437.35,-217.67 471,-211.12 492.49,-206.95 516.23,-200.58 534.8,-195.2"/>
<polygon fill="#9a32cd" stroke="#9a32cd" points="367.12,-222.84 357.56,-227.41 367.88,-229.8 367.12,-222.84"/>
</a>
</g>
<text text-anchor="start" x="383.25" y="-259.62" font-family="Helvetica,sans-Serif" font-size="10.00" fill="grey"> p_all_classes_desc</text>
<text text-anchor="middle" x="427.12" y="-248.38" font-family="Helvetica,sans-Serif" font-size="10.00" fill="grey">_cache</text>
<text text-anchor="start" x="383.25" y="-237.12" font-family="Helvetica,sans-Serif" font-size="10.00" fill="grey">p_direct_classes</text>
<text text-anchor="middle" x="427.12" y="-225.88" font-family="Helvetica,sans-Serif" font-size="10.00" fill="grey">_desc_cache</text>
</g>
<!-- Node5 -->
<g id="Node000005" class="node">
<title>Node5</title>
<g id="a_Node000005"><a xlink:title=" ">
<polygon fill="white" stroke="#666666" points="134.12,-277 25.88,-277 25.88,-235.25 134.12,-235.25 134.12,-277"/>
<text text-anchor="start" x="33.88" y="-263.5" font-family="Helvetica,sans-Serif" font-size="10.00">std::unordered_map</text>
<text text-anchor="start" x="33.88" y="-252.25" font-family="Helvetica,sans-Serif" font-size="10.00">&lt; std::string, dunedaq</text>
<text text-anchor="middle" x="80" y="-241" font-family="Helvetica,sans-Serif" font-size="10.00">::conffwk::class_t * &gt;</text>
</a>
</g>
</g>
<!-- Node5&#45;&gt;Node4 -->
<g id="edge4_Node000004_Node000005" class="edge">
<title>Node5&#45;&gt;Node4</title>
<g id="a_edge4_Node000004_Node000005"><a xlink:title=" ">
<path fill="none" stroke="#63b8ff" d="M146.01,-248.94C165.25,-246.82 186.45,-244.47 206.21,-242.29"/>
<polygon fill="#63b8ff" stroke="#63b8ff" points="145.68,-245.46 136.13,-250.03 146.45,-252.41 145.68,-245.46"/>
</a>
</g>
</g>
<!-- Node6 -->
<g id="Node000006" class="node">
<title>Node6</title>
<g id="a_Node000006"><a xlink:href="classdunedaq_1_1conffwk_1_1fmap.html" target="_top" xlink:title=" ">
<polygon fill="white" stroke="#666666" points="339.75,-200.38 222.5,-200.38 222.5,-169.88 339.75,-169.88 339.75,-200.38"/>
<text text-anchor="start" x="230.5" y="-186.88" font-family="Helvetica,sans-Serif" font-size="10.00">dunedaq::conffwk::fmap</text>
<text text-anchor="middle" x="281.12" y="-175.62" font-family="Helvetica,sans-Serif" font-size="10.00">&lt; conffwk::fset &gt;</text>
</a>
</g>
</g>
<!-- Node6&#45;&gt;Node3 -->
<g id="edge5_Node000003_Node000006" class="edge">
<title>Node6&#45;&gt;Node3</title>
<g id="a_edge5_Node000003_Node000006"><a xlink:title=" ">
<path fill="none" stroke="#9a32cd" stroke-dasharray="5,2" d="M351.65,-185.12C394.28,-185.12 448.86,-185.12 492.49,-185.12"/>
<polygon fill="#9a32cd" stroke="#9a32cd" points="351.76,-181.63 341.76,-185.13 351.76,-188.63 351.76,-181.63"/>
</a>
</g>
<text text-anchor="middle" x="427.12" y="-198.12" font-family="Helvetica,sans-Serif" font-size="10.00" fill="grey"> p_subclasses</text>
<text text-anchor="middle" x="427.12" y="-186.88" font-family="Helvetica,sans-Serif" font-size="10.00" fill="grey">p_superclasses</text>
</g>
<!-- Node7 -->
<g id="Node000007" class="node">
<title>Node7</title>
<g id="a_Node000007"><a xlink:title=" ">
<polygon fill="white" stroke="#666666" points="136.75,-217.62 23.25,-217.62 23.25,-164.62 136.75,-164.62 136.75,-217.62"/>
<text text-anchor="start" x="31.25" y="-204.12" font-family="Helvetica,sans-Serif" font-size="10.00">std::unordered_map</text>
<text text-anchor="start" x="31.25" y="-192.88" font-family="Helvetica,sans-Serif" font-size="10.00">&lt; const std::string</text>
<text text-anchor="start" x="31.25" y="-181.62" font-family="Helvetica,sans-Serif" font-size="10.00"> *, conffwk::fset , string</text>
<text text-anchor="middle" x="80" y="-170.38" font-family="Helvetica,sans-Serif" font-size="10.00">_ptr_hash &gt;</text>
</a>
</g>
</g>
<!-- Node7&#45;&gt;Node6 -->
<g id="edge6_Node000006_Node000007" class="edge">
<title>Node7&#45;&gt;Node6</title>
<g id="a_edge6_Node000006_Node000007"><a xlink:title=" ">
<path fill="none" stroke="#63b8ff" d="M148.49,-189.09C172.4,-188.37 199.07,-187.57 222.12,-186.87"/>
<polygon fill="#63b8ff" stroke="#63b8ff" points="148.4,-185.59 138.51,-189.39 148.61,-192.59 148.4,-185.59"/>
</a>
</g>
</g>
<!-- Node8 -->
<g id="Node000008" class="node">
<title>Node8</title>
<g id="a_Node000008"><a xlink:href="classdunedaq_1_1conffwk_1_1map.html" target="_top" xlink:title=" ">
<polygon fill="white" stroke="#666666" points="342,-149.25 220.25,-149.25 220.25,-85 342,-85 342,-149.25"/>
<text text-anchor="start" x="228.25" y="-135.75" font-family="Helvetica,sans-Serif" font-size="10.00">dunedaq::conffwk::map</text>
<text text-anchor="start" x="228.25" y="-124.5" font-family="Helvetica,sans-Serif" font-size="10.00">&lt; std::list&lt; dunedaq</text>
<text text-anchor="start" x="228.25" y="-113.25" font-family="Helvetica,sans-Serif" font-size="10.00">::conffwk::Configuration</text>
<text text-anchor="start" x="228.25" y="-102" font-family="Helvetica,sans-Serif" font-size="10.00">::AttributeConverterBase</text>
<text text-anchor="middle" x="281.12" y="-90.75" font-family="Helvetica,sans-Serif" font-size="10.00"> * &gt; * &gt;</text>
</a>
</g>
</g>
<!-- Node8&#45;&gt;Node3 -->
<g id="edge7_Node000003_Node000008" class="edge">
<title>Node8&#45;&gt;Node3</title>
<g id="a_edge7_Node000003_Node000008"><a xlink:title=" ">
<path fill="none" stroke="#9a32cd" stroke-dasharray="5,2" d="M353.25,-134.06C407.46,-146.98 480.26,-164.32 525.55,-175.1"/>
<polygon fill="#9a32cd" stroke="#9a32cd" points="354.33,-130.73 343.8,-131.81 352.71,-137.54 354.33,-130.73"/>
</a>
</g>
<text text-anchor="middle" x="427.12" y="-162.88" font-family="Helvetica,sans-Serif" font-size="10.00" fill="grey"> m_convert_map</text>
</g>
<!-- Node9 -->
<g id="Node000009" class="node">
<title>Node9</title>
<g id="a_Node000009"><a xlink:title=" ">
<polygon fill="white" stroke="#666666" points="160,-146.25 0,-146.25 0,-82 160,-82 160,-146.25"/>
<text text-anchor="start" x="8" y="-132.75" font-family="Helvetica,sans-Serif" font-size="10.00">std::unordered_map</text>
<text text-anchor="start" x="8" y="-121.5" font-family="Helvetica,sans-Serif" font-size="10.00">&lt; std::string, std::</text>
<text text-anchor="start" x="8" y="-110.25" font-family="Helvetica,sans-Serif" font-size="10.00">list&lt; dunedaq::conffwk</text>
<text text-anchor="start" x="8" y="-99" font-family="Helvetica,sans-Serif" font-size="10.00">::Configuration::AttributeConverter</text>
<text text-anchor="middle" x="80" y="-87.75" font-family="Helvetica,sans-Serif" font-size="10.00">Base * &gt; * &gt;</text>
</a>
</g>
</g>
<!-- Node9&#45;&gt;Node8 -->
<g id="edge8_Node000008_Node000009" class="edge">
<title>Node9&#45;&gt;Node8</title>
<g id="a_edge8_Node000008_Node000009"><a xlink:title=" ">
<path fill="none" stroke="#63b8ff" d="M171.53,-115.49C187.91,-115.74 204.61,-115.99 219.85,-116.22"/>
<polygon fill="#63b8ff" stroke="#63b8ff" points="171.84,-111.99 161.78,-115.34 171.73,-118.99 171.84,-111.99"/>
</a>
</g>
</g>
<!-- Node10 -->
<g id="Node000010" class="node">
<title>Node10</title>
<g id="a_Node000010"><a xlink:href="classdunedaq_1_1conffwk_1_1fmap.html" target="_top" xlink:title=" ">
<polygon fill="white" stroke="#666666" points="365.25,-59.38 197,-59.38 197,-28.88 365.25,-28.88 365.25,-59.38"/>
<text text-anchor="start" x="205" y="-45.88" font-family="Helvetica,sans-Serif" font-size="10.00">dunedaq::conffwk::fmap</text>
<text text-anchor="middle" x="281.12" y="-34.62" font-family="Helvetica,sans-Serif" font-size="10.00">&lt; dunedaq::conffwk::CacheBase * &gt;</text>
</a>
</g>
</g>
<!-- Node10&#45;&gt;Node3 -->
<g id="edge9_Node000003_Node000010" class="edge">
<title>Node10&#45;&gt;Node3</title>
<g id="a_edge9_Node000003_Node000010"><a xlink:title=" ">
<path fill="none" stroke="#9a32cd" stroke-dasharray="5,2" d="M335.34,-63.89C345.34,-67.8 355.66,-71.98 365.25,-76.12 413.11,-96.78 425.12,-102.11 471,-126.88 500.3,-142.69 533.3,-163.19 552.16,-175.18"/>
<polygon fill="#9a32cd" stroke="#9a32cd" points="336.68,-60.65 326.09,-60.3 334.15,-67.18 336.68,-60.65"/>
</a>
</g>
<text text-anchor="middle" x="427.12" y="-127.88" font-family="Helvetica,sans-Serif" font-size="10.00" fill="grey"> m_cache_map</text>
</g>
<!-- Node11 -->
<g id="Node000011" class="node">
<title>Node11</title>
<g id="a_Node000011"><a xlink:title=" ">
<polygon fill="white" stroke="#666666" points="133,-64.25 27,-64.25 27,0 133,0 133,-64.25"/>
<text text-anchor="start" x="35" y="-50.75" font-family="Helvetica,sans-Serif" font-size="10.00">std::unordered_map</text>
<text text-anchor="start" x="35" y="-39.5" font-family="Helvetica,sans-Serif" font-size="10.00">&lt; const std::string</text>
<text text-anchor="start" x="35" y="-28.25" font-family="Helvetica,sans-Serif" font-size="10.00"> *, dunedaq::conffwk</text>
<text text-anchor="start" x="35" y="-17" font-family="Helvetica,sans-Serif" font-size="10.00">::CacheBase *, string</text>
<text text-anchor="middle" x="80" y="-5.75" font-family="Helvetica,sans-Serif" font-size="10.00">_ptr_hash &gt;</text>
</a>
</g>
</g>
<!-- Node11&#45;&gt;Node10 -->
<g id="edge10_Node000010_Node000011" class="edge">
<title>Node11&#45;&gt;Node10</title>
<g id="a_edge10_Node000010_Node000011"><a xlink:title=" ">
<path fill="none" stroke="#63b8ff" d="M144.51,-35.95C161.06,-36.95 179.16,-38.04 196.58,-39.09"/>
<polygon fill="#63b8ff" stroke="#63b8ff" points="145.02,-32.48 134.83,-35.37 144.6,-39.46 145.02,-32.48"/>
</a>
</g>
</g>
<!-- Node12&#45;&gt;Node3 -->
<g id="edge11_Node000003_Node000012" class="edge">
<title>Node12&#45;&gt;Node3</title>
<g id="a_edge11_Node000003_Node000012"><a xlink:title=" ">
<path fill="none" stroke="#9a32cd" stroke-dasharray="5,2" d="M799.44,-218.54C780.65,-212.57 757.76,-206 736.75,-201.88 706.99,-196.04 673.83,-192.18 644.94,-189.65"/>
<polygon fill="#9a32cd" stroke="#9a32cd" points="798.24,-221.82 808.83,-221.58 800.4,-215.17 798.24,-221.82"/>
</a>
</g>
<text text-anchor="middle" x="701.5" y="-202.88" font-family="Helvetica,sans-Serif" font-size="10.00" fill="grey"> m_impl</text>
</g>
<!-- Node16 -->
<g id="Node000016" class="node">
<title>Node16</title>
<g id="a_Node000016"><a xlink:href="classdunedaq_1_1conffwk_1_1ConfigObjectImpl.html" target="_top" xlink:title="Implements database objects.">
<polygon fill="white" stroke="#666666" points="1117.5,-239.38 995,-239.38 995,-208.88 1117.5,-208.88 1117.5,-239.38"/>
<text text-anchor="start" x="1003" y="-225.88" font-family="Helvetica,sans-Serif" font-size="10.00">dunedaq::conffwk::Config</text>
<text text-anchor="middle" x="1056.25" y="-214.62" font-family="Helvetica,sans-Serif" font-size="10.00">ObjectImpl</text>
</a>
</g>
</g>
<!-- Node12&#45;&gt;Node16 -->
<g id="edge17_Node000016_Node000012" class="edge">
<title>Node12&#45;&gt;Node16</title>
<g id="a_edge17_Node000016_Node000012"><a xlink:title=" ">
<path fill="none" stroke="#9a32cd" stroke-dasharray="5,2" d="M937.12,-228.54C956.67,-227.81 976.73,-227.06 994.63,-226.39"/>
<polygon fill="#9a32cd" stroke="#9a32cd" points="937.05,-225.04 927.19,-228.91 937.31,-232.03 937.05,-225.04"/>
</a>
</g>
<text text-anchor="middle" x="960.12" y="-229.88" font-family="Helvetica,sans-Serif" font-size="10.00" fill="grey"> m_impl</text>
</g>
<!-- Node13 -->
<g id="Node000013" class="node">
<title>Node13</title>
<g id="a_Node000013"><a xlink:href="classdunedaq_1_1conffwk_1_1pmap.html" target="_top" xlink:title=" ">
<polygon fill="white" stroke="#666666" points="648.25,-317.62 489,-317.62 489,-264.62 648.25,-264.62 648.25,-317.62"/>
<text text-anchor="start" x="497" y="-304.12" font-family="Helvetica,sans-Serif" font-size="10.00">dunedaq::conffwk::pmap</text>
<text text-anchor="start" x="497" y="-292.88" font-family="Helvetica,sans-Serif" font-size="10.00">&lt; dunedaq::conffwk::map</text>
<text text-anchor="start" x="497" y="-281.62" font-family="Helvetica,sans-Serif" font-size="10.00">&lt; dunedaq::conffwk::ConfigObject</text>
<text text-anchor="middle" x="568.62" y="-270.38" font-family="Helvetica,sans-Serif" font-size="10.00">Impl * &gt; * &gt;</text>
</a>
</g>
</g>
<!-- Node13&#45;&gt;Node12 -->
<g id="edge12_Node000012_Node000013" class="edge">
<title>Node13&#45;&gt;Node12</title>
<g id="a_edge12_Node000012_Node000013"><a xlink:title=" ">
<path fill="none" stroke="#9a32cd" stroke-dasharray="5,2" d="M659.8,-271.37C704.43,-261.6 756.41,-250.21 792.85,-242.23"/>
<polygon fill="#9a32cd" stroke="#9a32cd" points="659.12,-267.94 650.1,-273.5 660.62,-274.78 659.12,-267.94"/>
</a>
</g>
<text text-anchor="middle" x="701.5" y="-269.88" font-family="Helvetica,sans-Serif" font-size="10.00" fill="grey"> m_impl_objects</text>
</g>
<!-- Node14 -->
<g id="Node000014" class="node">
<title>Node14</title>
<g id="a_Node000014"><a xlink:title=" ">
<polygon fill="white" stroke="#666666" points="348.75,-331.25 213.5,-331.25 213.5,-267 348.75,-267 348.75,-331.25"/>
<text text-anchor="start" x="221.5" y="-317.75" font-family="Helvetica,sans-Serif" font-size="10.00">std::map&lt; const std</text>
<text text-anchor="start" x="221.5" y="-306.5" font-family="Helvetica,sans-Serif" font-size="10.00">::string *, dunedaq</text>
<text text-anchor="start" x="221.5" y="-295.25" font-family="Helvetica,sans-Serif" font-size="10.00">::conffwk::map&lt; dunedaq</text>
<text text-anchor="start" x="221.5" y="-284" font-family="Helvetica,sans-Serif" font-size="10.00">::conffwk::ConfigObjectImpl</text>
<text text-anchor="middle" x="281.12" y="-272.75" font-family="Helvetica,sans-Serif" font-size="10.00"> * &gt; * , string_ptr_compare &gt;</text>
</a>
</g>
</g>
<!-- Node14&#45;&gt;Node13 -->
<g id="edge13_Node000013_Node000014" class="edge">
<title>Node14&#45;&gt;Node13</title>
<g id="a_edge13_Node000013_Node000014"><a xlink:title=" ">
<path fill="none" stroke="#63b8ff" d="M360.35,-296.93C400.25,-295.81 448.68,-294.46 488.69,-293.34"/>
<polygon fill="#63b8ff" stroke="#63b8ff" points="360.47,-293.43 350.58,-297.21 360.67,-300.43 360.47,-293.43"/>
</a>
</g>
</g>
<!-- Node15 -->
<g id="Node000015" class="node">
<title>Node15</title>
<g id="a_Node000015"><a xlink:href="classdunedaq_1_1conffwk_1_1ConfigObject.html" target="_top" xlink:title="Represents database objects.">
<polygon fill="white" stroke="#666666" points="1309.75,-227.38 1187.25,-227.38 1187.25,-196.88 1309.75,-196.88 1309.75,-227.38"/>
<text text-anchor="start" x="1195.25" y="-213.88" font-family="Helvetica,sans-Serif" font-size="10.00">dunedaq::conffwk::Config</text>
<text text-anchor="middle" x="1248.5" y="-202.62" font-family="Helvetica,sans-Serif" font-size="10.00">Object</text>
</a>
</g>
</g>
<!-- Node15&#45;&gt;Node2 -->
<g id="edge15_Node000002_Node000015" class="edge">
<title>Node15&#45;&gt;Node2</title>
<g id="a_edge15_Node000002_Node000015"><a xlink:title=" ">
<path fill="none" stroke="#9a32cd" stroke-dasharray="5,2" d="M1321.17,-201.56C1337.43,-199.16 1354.65,-196.62 1370.77,-194.24"/>
<polygon fill="#9a32cd" stroke="#9a32cd" points="1320.98,-198.05 1311.6,-202.97 1322,-204.97 1320.98,-198.05"/>
</a>
</g>
<text text-anchor="middle" x="1340.5" y="-200.88" font-family="Helvetica,sans-Serif" font-size="10.00" fill="grey"> p_obj</text>
</g>
<!-- Node16&#45;&gt;Node15 -->
<g id="edge16_Node000015_Node000016" class="edge">
<title>Node16&#45;&gt;Node15</title>
<g id="a_edge16_Node000015_Node000016"><a xlink:title=" ">
<path fill="none" stroke="#9a32cd" stroke-dasharray="5,2" d="M1129.31,-219.58C1148.34,-218.38 1168.68,-217.1 1187.03,-215.94"/>
<polygon fill="#9a32cd" stroke="#9a32cd" points="1129.24,-216.08 1119.48,-220.2 1129.68,-223.06 1129.24,-216.08"/>
</a>
</g>
<text text-anchor="middle" x="1152.38" y="-219.88" font-family="Helvetica,sans-Serif" font-size="10.00" fill="grey"> m_impl</text>
</g>
<!-- Node17 -->
<g id="Node000017" class="node">
<title>Node17</title>
<g id="a_Node000017"><a xlink:href="classdunedaq_1_1appdal_1_1NICInterface.html" target="_top" xlink:title=" ">
<polygon fill="white" stroke="#666666" points="2679.25,-223.75 2533.5,-223.75 2533.5,-204.5 2679.25,-204.5 2679.25,-223.75"/>
<text text-anchor="middle" x="2606.38" y="-210.25" font-family="Helvetica,sans-Serif" font-size="10.00">dunedaq::appdal::NICInterface</text>
</a>
</g>
</g>
<!-- Node17&#45;&gt;Node1 -->
<g id="edge19_Node000001_Node000017" class="edge">
<title>Node17&#45;&gt;Node1</title>
<g id="a_edge19_Node000001_Node000017"><a xlink:title=" ">
<path fill="none" stroke="#9a32cd" stroke-dasharray="5,2" d="M2671.24,-226.35C2698.69,-231.77 2731.1,-238.37 2760.25,-244.88 2779.92,-249.26 2801.67,-254.55 2819.76,-259.07"/>
<polygon fill="#9a32cd" stroke="#9a32cd" points="2672.17,-222.97 2661.69,-224.47 2670.82,-229.83 2672.17,-222.97"/>
</a>
</g>
<text text-anchor="middle" x="2728.75" y="-245.88" font-family="Helvetica,sans-Serif" font-size="10.00" fill="grey"> m_destination</text>
</g>
<!-- Node18 -->
<g id="Node000018" class="node">
<title>Node18</title>
<g id="a_Node000018"><a xlink:href="classdunedaq_1_1coredal_1_1ReadoutInterface.html" target="_top" xlink:title=" ">
<polygon fill="white" stroke="#666666" points="2496.5,-204.38 2367.25,-204.38 2367.25,-173.88 2496.5,-173.88 2496.5,-204.38"/>
<text text-anchor="start" x="2375.25" y="-190.88" font-family="Helvetica,sans-Serif" font-size="10.00">dunedaq::coredal::Readout</text>
<text text-anchor="middle" x="2431.88" y="-179.62" font-family="Helvetica,sans-Serif" font-size="10.00">Interface</text>
</a>
</g>
</g>
<!-- Node18&#45;&gt;Node17 -->
<g id="edge20_Node000017_Node000018" class="edge">
<title>Node18&#45;&gt;Node17</title>
<g id="a_edge20_Node000017_Node000018"><a xlink:title=" ">
<path fill="none" stroke="#63b8ff" d="M2507.78,-193.28C2530.75,-196.4 2554.81,-200.32 2573.3,-204.09"/>
<polygon fill="#63b8ff" stroke="#63b8ff" points="2508.49,-189.85 2498.12,-192.02 2507.58,-196.79 2508.49,-189.85"/>
</a>
</g>
</g>
<!-- Node18&#45;&gt;Node17 -->
<g id="edge31_Node000017_Node000018" class="edge">
<title>Node18&#45;&gt;Node17</title>
<g id="a_edge31_Node000017_Node000018"><a xlink:title=" ">
<path fill="none" stroke="#63b8ff" d="M2507.26,-206.6C2515.83,-207.92 2524.55,-209.18 2533.08,-210.32"/>
<polygon fill="#63b8ff" stroke="#63b8ff" points="2508.05,-203.18 2497.62,-205.06 2506.95,-210.09 2508.05,-203.18"/>
</a>
</g>
</g>
<!-- Node19 -->
<g id="Node000019" class="node">
<title>Node19</title>
<g id="a_Node000019"><a xlink:href="classdunedaq_1_1coredal_1_1ResourceSetAND.html" target="_top" xlink:title=" ">
<polygon fill="white" stroke="#666666" points="2330.25,-204.38 2195.75,-204.38 2195.75,-173.88 2330.25,-173.88 2330.25,-204.38"/>
<text text-anchor="start" x="2203.75" y="-190.88" font-family="Helvetica,sans-Serif" font-size="10.00">dunedaq::coredal::Resource</text>
<text text-anchor="middle" x="2263" y="-179.62" font-family="Helvetica,sans-Serif" font-size="10.00">SetAND</text>
</a>
</g>
</g>
<!-- Node19&#45;&gt;Node18 -->
<g id="edge21_Node000018_Node000019" class="edge">
<title>Node19&#45;&gt;Node18</title>
<g id="a_edge21_Node000018_Node000019"><a xlink:title=" ">
<path fill="none" stroke="#63b8ff" d="M2341.79,-182.39C2350.18,-182.35 2358.65,-182.4 2366.85,-182.54"/>
<polygon fill="#63b8ff" stroke="#63b8ff" points="2341.91,-178.89 2331.95,-182.49 2341.98,-185.89 2341.91,-178.89"/>
</a>
</g>
</g>
<!-- Node19&#45;&gt;Node18 -->
<g id="edge30_Node000018_Node000019" class="edge">
<title>Node19&#45;&gt;Node18</title>
<g id="a_edge30_Node000018_Node000019"><a xlink:title=" ">
<path fill="none" stroke="#63b8ff" d="M2341.79,-195.86C2350.18,-195.9 2358.65,-195.85 2366.85,-195.71"/>
<polygon fill="#63b8ff" stroke="#63b8ff" points="2341.98,-192.36 2331.95,-195.76 2341.91,-199.36 2341.98,-192.36"/>
</a>
</g>
</g>
<!-- Node20 -->
<g id="Node000020" class="node">
<title>Node20</title>
<g id="a_Node000020"><a xlink:href="classdunedaq_1_1coredal_1_1ResourceSet.html" target="_top" xlink:title=" ">
<polygon fill="white" stroke="#666666" points="2081,-201.75 1931.5,-201.75 1931.5,-182.5 2081,-182.5 2081,-201.75"/>
<text text-anchor="middle" x="2006.25" y="-188.25" font-family="Helvetica,sans-Serif" font-size="10.00">dunedaq::coredal::ResourceSet</text>
</a>
</g>
</g>
<!-- Node20&#45;&gt;Node19 -->
<g id="edge22_Node000019_Node000020" class="edge">
<title>Node20&#45;&gt;Node19</title>
<g id="a_edge22_Node000019_Node000020"><a xlink:title=" ">
<path fill="none" stroke="#63b8ff" d="M2092.49,-184.71C2126.09,-183.75 2164.11,-183.44 2195.61,-183.9"/>
<polygon fill="#63b8ff" stroke="#63b8ff" points="2092.68,-181.2 2082.79,-185.01 2092.89,-188.2 2092.68,-181.2"/>
</a>
</g>
</g>
<!-- Node20&#45;&gt;Node19 -->
<g id="edge29_Node000019_Node000020" class="edge">
<title>Node20&#45;&gt;Node19</title>
<g id="a_edge29_Node000019_Node000020"><a xlink:title=" ">
<path fill="none" stroke="#63b8ff" d="M2092.49,-197.53C2126.09,-197.7 2164.11,-197.12 2195.61,-195.92"/>
<polygon fill="#63b8ff" stroke="#63b8ff" points="2092.82,-194.03 2082.79,-197.46 2092.76,-201.03 2092.82,-194.03"/>
</a>
</g>
</g>
<!-- Node21 -->
<g id="Node000021" class="node">
<title>Node21</title>
<g id="a_Node000021"><a xlink:href="classdunedaq_1_1coredal_1_1ResourceBase.html" target="_top" xlink:title=" ">
<polygon fill="white" stroke="#666666" points="1886.25,-193.75 1729.25,-193.75 1729.25,-174.5 1886.25,-174.5 1886.25,-193.75"/>
<text text-anchor="middle" x="1807.75" y="-180.25" font-family="Helvetica,sans-Serif" font-size="10.00">dunedaq::coredal::ResourceBase</text>
</a>
</g>
</g>
<!-- Node21&#45;&gt;Node20 -->
<g id="edge23_Node000020_Node000021" class="edge">
<title>Node21&#45;&gt;Node20</title>
<g id="a_edge23_Node000020_Node000021"><a xlink:title=" ">
<path fill="none" stroke="#63b8ff" d="M1898.15,-181.04C1909.22,-181.43 1920.44,-181.94 1931.24,-182.55"/>
<polygon fill="#63b8ff" stroke="#63b8ff" points="1898.31,-177.54 1888.21,-180.73 1898.09,-184.54 1898.31,-177.54"/>
</a>
</g>
</g>
<!-- Node21&#45;&gt;Node20 -->
<g id="edge28_Node000020_Node000021" class="edge">
<title>Node21&#45;&gt;Node20</title>
<g id="a_edge28_Node000020_Node000021"><a xlink:title=" ">
<path fill="none" stroke="#63b8ff" d="M1898.15,-194.49C1909.22,-195 1920.44,-195.41 1931.24,-195.68"/>
<polygon fill="#63b8ff" stroke="#63b8ff" points="1898.37,-191 1888.21,-193.99 1898.02,-197.99 1898.37,-191"/>
</a>
</g>
</g>
<!-- Node24 -->
<g id="Node000024" class="node">
<title>Node24</title>
<g id="a_Node000024"><a xlink:href="classdunedaq_1_1coredal_1_1DROStreamConf.html" target="_top" xlink:title=" ">
<polygon fill="white" stroke="#666666" points="2089.25,-153.75 1923.25,-153.75 1923.25,-134.5 2089.25,-134.5 2089.25,-153.75"/>
<text text-anchor="middle" x="2006.25" y="-140.25" font-family="Helvetica,sans-Serif" font-size="10.00">dunedaq::coredal::DROStreamConf</text>
</a>
</g>
</g>
<!-- Node21&#45;&gt;Node24 -->
<g id="edge36_Node000024_Node000021" class="edge">
<title>Node21&#45;&gt;Node24</title>
<g id="a_edge36_Node000024_Node000021"><a xlink:title=" ">
<path fill="none" stroke="#63b8ff" d="M1845.89,-171.14C1867.66,-165.61 1896.06,-159.41 1922.85,-154.23"/>
<polygon fill="#63b8ff" stroke="#63b8ff" points="1845.09,-167.74 1836.31,-173.67 1846.87,-174.51 1845.09,-167.74"/>
</a>
</g>
</g>
<!-- Node21&#45;&gt;Node24 -->
<g id="edge37_Node000024_Node000021" class="edge">
<title>Node21&#45;&gt;Node24</title>
<g id="a_edge37_Node000024_Node000021"><a xlink:title=" ">
<path fill="none" stroke="#63b8ff" d="M1897.94,-172.69C1927.47,-166.85 1958.1,-159.96 1979.04,-154.23"/>
<polygon fill="#63b8ff" stroke="#63b8ff" points="1897.33,-169.25 1888.18,-174.59 1898.66,-176.12 1897.33,-169.25"/>
</a>
</g>
</g>
<!-- Node22&#45;&gt;Node21 -->
<g id="edge24_Node000021_Node000022" class="edge">
<title>Node22&#45;&gt;Node21</title>
<g id="a_edge24_Node000021_Node000022"><a xlink:title=" ">
<path fill="none" stroke="#63b8ff" d="M1702.53,-177.42C1711.29,-177.35 1720.2,-177.36 1728.91,-177.46"/>
<polygon fill="#63b8ff" stroke="#63b8ff" points="1702.57,-173.92 1692.61,-177.53 1702.66,-180.92 1702.57,-173.92"/>
</a>
</g>
</g>
<!-- Node22&#45;&gt;Node21 -->
<g id="edge27_Node000021_Node000022" class="edge">
<title>Node22&#45;&gt;Node21</title>
<g id="a_edge27_Node000021_Node000022"><a xlink:title=" ">
<path fill="none" stroke="#63b8ff" d="M1702.53,-190.83C1711.29,-190.9 1720.2,-190.89 1728.91,-190.79"/>
<polygon fill="#63b8ff" stroke="#63b8ff" points="1702.66,-187.33 1692.61,-190.72 1702.57,-194.33 1702.66,-187.33"/>
</a>
</g>
</g>
<!-- Node23&#45;&gt;Node17 -->
<g id="edge32_Node000017_Node000023" class="edge">
<title>Node23&#45;&gt;Node17</title>
<g id="a_edge32_Node000017_Node000023"><a xlink:title=" ">
<path fill="none" stroke="#9a32cd" stroke-dasharray="5,2" d="M1703.66,-230.31C1735.86,-231.3 1773.02,-232.12 1806.75,-232.12 1806.75,-232.12 1806.75,-232.12 2432.88,-232.12 2468.25,-232.12 2507.5,-228.33 2539.6,-224.23"/>
<polygon fill="#9a32cd" stroke="#9a32cd" points="1704.11,-226.83 1694.01,-230.01 1703.89,-233.82 1704.11,-226.83"/>
</a>
</g>
<text text-anchor="middle" x="2142.5" y="-233.88" font-family="Helvetica,sans-Serif" font-size="10.00" fill="grey"> m_configuration</text>
</g>
<!-- Node24&#45;&gt;Node1 -->
<g id="edge35_Node000001_Node000024" class="edge">
<title>Node24&#45;&gt;Node1</title>
<g id="a_edge35_Node000001_Node000024"><a xlink:title=" ">
<path fill="none" stroke="#9a32cd" stroke-dasharray="5,2" d="M2100.92,-144.12C2149.06,-144.12 2208.67,-144.12 2262,-144.12 2262,-144.12 2262,-144.12 2607.38,-144.12 2710.83,-144.12 2815.58,-229.85 2848.54,-259.32"/>
<polygon fill="#9a32cd" stroke="#9a32cd" points="2101.08,-140.63 2091.08,-144.13 2101.08,-147.63 2101.08,-140.63"/>
</a>
</g>
<text text-anchor="middle" x="2431.88" y="-145.88" font-family="Helvetica,sans-Serif" font-size="10.00" fill="grey"> m_source</text>
</g>
<!-- Node25&#45;&gt;Node24 -->
<g id="edge38_Node000024_Node000025" class="edge">
<title>Node25&#45;&gt;Node24</title>
<g id="a_edge38_Node000024_Node000025"><a xlink:title=" ">
<path fill="none" stroke="#9a32cd" stroke-dasharray="5,2" d="M1691.05,-104.57C1744.68,-109.68 1820.21,-117.37 1886.25,-125.88 1904.8,-128.26 1924.93,-131.21 1943.26,-134.04"/>
<polygon fill="#9a32cd" stroke="#9a32cd" points="1691.4,-101.08 1681.11,-103.63 1690.74,-108.05 1691.4,-101.08"/>
</a>
</g>
<text text-anchor="middle" x="1807.75" y="-126.88" font-family="Helvetica,sans-Serif" font-size="10.00" fill="grey"> m_geo_id</text>
</g>
<!-- Node26&#45;&gt;Node24 -->
<g id="edge41_Node000024_Node000026" class="edge">
<title>Node26&#45;&gt;Node24</title>
<g id="a_edge41_Node000024_Node000026"><a xlink:title=" ">
<path fill="none" stroke="#9a32cd" stroke-dasharray="5,2" d="M1693.67,-141.7C1759.16,-142.21 1855.02,-142.95 1923.08,-143.48"/>
<polygon fill="#9a32cd" stroke="#9a32cd" points="1693.75,-138.2 1683.73,-141.62 1693.7,-145.2 1693.75,-138.2"/>
</a>
</g>
<text text-anchor="middle" x="1807.75" y="-144.88" font-family="Helvetica,sans-Serif" font-size="10.00" fill="grey"> m_stream_params</text>
</g>
</g>
</svg>
