<?xml version="1.0" encoding="UTF-8" standalone="no"?>
<!DOCTYPE svg PUBLIC "-//W3C//DTD SVG 1.1//EN"
 "http://www.w3.org/Graphics/SVG/1.1/DTD/svg11.dtd">
<!-- Generated by graphviz version 9.0.0 (20230911.1827)
 -->
<!-- Title: dunedaq::timing::OverlordDesign Pages: 1 -->
<svg width="946pt" height="125pt"
 viewBox="0.00 0.00 945.50 124.88" xmlns="http://www.w3.org/2000/svg" xmlns:xlink="http://www.w3.org/1999/xlink">
<g id="graph0" class="graph" transform="scale(1 1) rotate(0) translate(4 120.88)">
<title>dunedaq::timing::OverlordDesign</title>
<!-- Node1 -->
<g id="Node000001" class="node">
<title>Node1</title>
<g id="a_Node000001"><a xlink:title="Class for PDI timing master design (known as overlord).">
<polygon fill="#999999" stroke="#666666" points="937.5,-79.5 812.75,-79.5 812.75,-49 937.5,-49 937.5,-79.5"/>
<text text-anchor="start" x="820.75" y="-66" font-family="Helvetica,sans-Serif" font-size="10.00">dunedaq::timing::Overlord</text>
<text text-anchor="middle" x="875.12" y="-54.75" font-family="Helvetica,sans-Serif" font-size="10.00">Design</text>
</a>
</g>
</g>
<!-- Node2 -->
<g id="Node000002" class="node">
<title>Node2</title>
<g id="a_Node000002"><a xlink:href="classdunedaq_1_1timing_1_1MasterDesign.html" target="_top" xlink:title="Base class for timing master designs.">
<polygon fill="white" stroke="#666666" points="776.75,-116.88 628.75,-116.88 628.75,-97.62 776.75,-97.62 776.75,-116.88"/>
<text text-anchor="middle" x="702.75" y="-103.38" font-family="Helvetica,sans-Serif" font-size="10.00">dunedaq::timing::MasterDesign</text>
</a>
</g>
</g>
<!-- Node2&#45;&gt;Node1 -->
<g id="edge1_Node000001_Node000002" class="edge">
<title>Node2&#45;&gt;Node1</title>
<g id="a_edge1_Node000001_Node000002"><a xlink:title=" ">
<path fill="none" stroke="#63b8ff" d="M754.64,-94.41C772.8,-89.82 793.45,-84.61 812.42,-79.82"/>
<polygon fill="#63b8ff" stroke="#63b8ff" points="754,-90.96 745.16,-96.8 755.72,-97.74 754,-90.96"/>
</a>
</g>
</g>
<!-- Node3 -->
<g id="Node000003" class="node">
<title>Node3</title>
<g id="a_Node000003"><a xlink:href="classdunedaq_1_1timing_1_1TopDesign.html" target="_top" xlink:title="Base class for timing top design nodes with IO class.">
<polygon fill="white" stroke="#666666" points="586,-116.88 451.5,-116.88 451.5,-97.62 586,-97.62 586,-116.88"/>
<text text-anchor="middle" x="518.75" y="-103.38" font-family="Helvetica,sans-Serif" font-size="10.00">dunedaq::timing::TopDesign</text>
</a>
</g>
</g>
<!-- Node3&#45;&gt;Node2 -->
<g id="edge2_Node000002_Node000003" class="edge">
<title>Node3&#45;&gt;Node2</title>
<g id="a_edge2_Node000002_Node000003"><a xlink:title=" ">
<path fill="none" stroke="#63b8ff" d="M597.79,-107.25C607.9,-107.25 618.23,-107.25 628.27,-107.25"/>
<polygon fill="#63b8ff" stroke="#63b8ff" points="598,-103.75 588,-107.25 598,-110.75 598,-103.75"/>
</a>
</g>
</g>
<!-- Node4 -->
<g id="Node000004" class="node">
<title>Node4</title>
<g id="a_Node000004"><a xlink:href="classdunedaq_1_1timing_1_1TopDesignInterface.html" target="_top" xlink:title="Base class for timing top design nodes.">
<polygon fill="white" stroke="#666666" points="408.75,-79.5 274.25,-79.5 274.25,-49 408.75,-49 408.75,-79.5"/>
<text text-anchor="start" x="282.25" y="-66" font-family="Helvetica,sans-Serif" font-size="10.00">dunedaq::timing::TopDesign</text>
<text text-anchor="middle" x="341.5" y="-54.75" font-family="Helvetica,sans-Serif" font-size="10.00">Interface</text>
</a>
</g>
</g>
<!-- Node4&#45;&gt;Node3 -->
<g id="edge3_Node000003_Node000004" class="edge">
<title>Node4&#45;&gt;Node3</title>
<g id="a_edge3_Node000003_Node000004"><a xlink:title=" ">
<path fill="none" stroke="#63b8ff" d="M417.43,-82.63C437.74,-87.62 458.99,-92.83 476.68,-97.17"/>
<polygon fill="#63b8ff" stroke="#63b8ff" points="418.28,-79.24 407.73,-80.26 416.61,-86.04 418.28,-79.24"/>
</a>
</g>
</g>
<!-- Node7 -->
<g id="Node000007" class="node">
<title>Node7</title>
<g id="a_Node000007"><a xlink:href="classdunedaq_1_1timing_1_1MasterDesignInterface.html" target="_top" xlink:title="Base class for timing master designs.">
<polygon fill="white" stroke="#666666" points="592.75,-79.5 444.75,-79.5 444.75,-49 592.75,-49 592.75,-79.5"/>
<text text-anchor="start" x="452.75" y="-66" font-family="Helvetica,sans-Serif" font-size="10.00">dunedaq::timing::MasterDesign</text>
<text text-anchor="middle" x="518.75" y="-54.75" font-family="Helvetica,sans-Serif" font-size="10.00">Interface</text>
</a>
</g>
</g>
<!-- Node4&#45;&gt;Node7 -->
<g id="edge7_Node000007_Node000004" class="edge">
<title>Node4&#45;&gt;Node7</title>
<g id="a_edge7_Node000007_Node000004"><a xlink:title=" ">
<path fill="none" stroke="#63b8ff" d="M420.07,-64.25C428.14,-64.25 436.34,-64.25 444.36,-64.25"/>
<polygon fill="#63b8ff" stroke="#63b8ff" points="420.27,-60.75 410.27,-64.25 420.27,-67.75 420.27,-60.75"/>
</a>
</g>
</g>
<!-- Node9 -->
<g id="Node000009" class="node">
<title>Node9</title>
<g id="a_Node000009"><a xlink:href="classdunedaq_1_1timing_1_1EndpointDesignInterface.html" target="_top" xlink:title="Base class for timing endpoint design nodes.">
<polygon fill="white" stroke="#666666" points="765.5,-30.5 640,-30.5 640,0 765.5,0 765.5,-30.5"/>
<text text-anchor="start" x="648" y="-17" font-family="Helvetica,sans-Serif" font-size="10.00">dunedaq::timing::Endpoint</text>
<text text-anchor="middle" x="702.75" y="-5.75" font-family="Helvetica,sans-Serif" font-size="10.00">DesignInterface</text>
</a>
</g>
</g>
<!-- Node4&#45;&gt;Node9 -->
<g id="edge11_Node000009_Node000004" class="edge">
<title>Node4&#45;&gt;Node9</title>
<g id="a_edge11_Node000009_Node000004"><a xlink:title=" ">
<path fill="none" stroke="#63b8ff" d="M414.8,-46.02C424.82,-43.86 435.01,-41.86 444.75,-40.25 510.87,-29.32 587.41,-22.63 639.65,-18.96"/>
<polygon fill="#63b8ff" stroke="#63b8ff" points="414.08,-42.59 405.08,-48.18 415.6,-49.43 414.08,-42.59"/>
</a>
</g>
</g>
<!-- Node5 -->
<g id="Node000005" class="node">
<title>Node5</title>
<g id="a_Node000005"><a xlink:href="classdunedaq_1_1timing_1_1TimingNode.html" target="_top" xlink:title="Base class for timing nodes.">
<polygon fill="white" stroke="#666666" points="238.25,-73.88 97.75,-73.88 97.75,-54.62 238.25,-54.62 238.25,-73.88"/>
<text text-anchor="middle" x="168" y="-60.38" font-family="Helvetica,sans-Serif" font-size="10.00">dunedaq::timing::TimingNode</text>
</a>
</g>
</g>
<!-- Node5&#45;&gt;Node4 -->
<g id="edge4_Node000004_Node000005" class="edge">
<title>Node5&#45;&gt;Node4</title>
<g id="a_edge4_Node000004_Node000005"><a xlink:title=" ">
<path fill="none" stroke="#63b8ff" d="M249.62,-64.25C257.7,-64.25 265.85,-64.25 273.76,-64.25"/>
<polygon fill="#63b8ff" stroke="#63b8ff" points="249.77,-60.75 239.77,-64.25 249.77,-67.75 249.77,-60.75"/>
</a>
</g>
</g>
<!-- Node6 -->
<g id="Node000006" class="node">
<title>Node6</title>
<g id="a_Node000006"><a xlink:title=" ">
<polygon fill="white" stroke="#666666" points="61.75,-73.88 0,-73.88 0,-54.62 61.75,-54.62 61.75,-73.88"/>
<text text-anchor="middle" x="30.88" y="-60.38" font-family="Helvetica,sans-Serif" font-size="10.00">uhal::Node</text>
</a>
</g>
</g>
<!-- Node6&#45;&gt;Node5 -->
<g id="edge5_Node000005_Node000006" class="edge">
<title>Node6&#45;&gt;Node5</title>
<g id="a_edge5_Node000005_Node000006"><a xlink:title=" ">
<path fill="none" stroke="#63b8ff" d="M73.58,-64.25C81.14,-64.25 89.2,-64.25 97.3,-64.25"/>
<polygon fill="#63b8ff" stroke="#63b8ff" points="73.71,-60.75 63.71,-64.25 73.71,-67.75 73.71,-60.75"/>
</a>
</g>
</g>
<!-- Node7&#45;&gt;Node2 -->
<g id="edge6_Node000002_Node000007" class="edge">
<title>Node7&#45;&gt;Node2</title>
<g id="a_edge6_Node000002_Node000007"><a xlink:title=" ">
<path fill="none" stroke="#63b8ff" d="M597.18,-82.54C618.34,-87.54 640.5,-92.78 658.94,-97.14"/>
<polygon fill="#63b8ff" stroke="#63b8ff" points="598.24,-79.2 587.7,-80.3 596.63,-86.01 598.24,-79.2"/>
</a>
</g>
</g>
<!-- Node8 -->
<g id="Node000008" class="node">
<title>Node8</title>
<g id="a_Node000008"><a xlink:href="classdunedaq_1_1timing_1_1OverlordDesignInterface.html" target="_top" xlink:title="Class for PDI timing master + trigger receiver endpoint design (known as overlord).">
<polygon fill="white" stroke="#666666" points="765.12,-79.5 640.38,-79.5 640.38,-49 765.12,-49 765.12,-79.5"/>
<text text-anchor="start" x="648.38" y="-66" font-family="Helvetica,sans-Serif" font-size="10.00">dunedaq::timing::Overlord</text>
<text text-anchor="middle" x="702.75" y="-54.75" font-family="Helvetica,sans-Serif" font-size="10.00">DesignInterface</text>
</a>
</g>
</g>
<!-- Node7&#45;&gt;Node8 -->
<g id="edge9_Node000008_Node000007" class="edge">
<title>Node7&#45;&gt;Node8</title>
<g id="a_edge9_Node000008_Node000007"><a xlink:title=" ">
<path fill="none" stroke="#63b8ff" d="M604.43,-64.25C616.44,-64.25 628.59,-64.25 640.05,-64.25"/>
<polygon fill="#63b8ff" stroke="#63b8ff" points="604.5,-60.75 594.5,-64.25 604.5,-67.75 604.5,-60.75"/>
</a>
</g>
</g>
<!-- Node8&#45;&gt;Node1 -->
<g id="edge8_Node000001_Node000008" class="edge">
<title>Node8&#45;&gt;Node1</title>
<g id="a_edge8_Node000001_Node000008"><a xlink:title=" ">
<path fill="none" stroke="#63b8ff" d="M776.57,-64.25C788.51,-64.25 800.78,-64.25 812.42,-64.25"/>
<polygon fill="#63b8ff" stroke="#63b8ff" points="776.77,-60.75 766.77,-64.25 776.77,-67.75 776.77,-60.75"/>
</a>
</g>
</g>
<!-- Node9&#45;&gt;Node1 -->
<g id="edge10_Node000001_Node000009" class="edge">
<title>Node9&#45;&gt;Node1</title>
<g id="a_edge10_Node000001_Node000009"><a xlink:title=" ">
<path fill="none" stroke="#63b8ff" d="M768.89,-33.98C785.56,-38.78 803.31,-43.88 819.39,-48.51"/>
<polygon fill="#63b8ff" stroke="#63b8ff" points="770.16,-30.71 759.58,-31.31 768.22,-37.43 770.16,-30.71"/>
</a>
</g>
</g>
</g>
</svg>
