<?xml version="1.0" encoding="UTF-8" standalone="no"?>
<!DOCTYPE svg PUBLIC "-//W3C//DTD SVG 1.1//EN"
 "http://www.w3.org/Graphics/SVG/1.1/DTD/svg11.dtd">
<!-- Generated by graphviz version 9.0.0 (20230911.1827)
 -->
<!-- Title: dunedaq::appdal::TRBConf Pages: 1 -->
<svg width="146pt" height="83pt"
 viewBox="0.00 0.00 146.25 82.50" xmlns="http://www.w3.org/2000/svg" xmlns:xlink="http://www.w3.org/1999/xlink">
<g id="graph0" class="graph" transform="scale(1 1) rotate(0) translate(4 78.5)">
<title>dunedaq::appdal::TRBConf</title>
<!-- Node1 -->
<g id="Node000001" class="node">
<title>Node1</title>
<g id="a_Node000001"><a xlink:title=" ">
<polygon fill="#999999" stroke="#666666" points="134.12,-19.25 4.12,-19.25 4.12,0 134.12,0 134.12,-19.25"/>
<text text-anchor="middle" x="69.12" y="-5.75" font-family="Helvetica,sans-Serif" font-size="10.00">dunedaq::appdal::TRBConf</text>
</a>
</g>
</g>
<!-- Node2 -->
<g id="Node000002" class="node">
<title>Node2</title>
<g id="a_Node000002"><a xlink:href="classdunedaq_1_1conffwk_1_1DalObject.html" target="_top" xlink:title="The base class for any generated DAL object.">
<polygon fill="white" stroke="#666666" points="138.25,-74.5 0,-74.5 0,-55.25 138.25,-55.25 138.25,-74.5"/>
<text text-anchor="middle" x="69.12" y="-61" font-family="Helvetica,sans-Serif" font-size="10.00">dunedaq::conffwk::DalObject</text>
</a>
</g>
</g>
<!-- Node2&#45;&gt;Node1 -->
<g id="edge1_Node000001_Node000002" class="edge">
<title>Node2&#45;&gt;Node1</title>
<g id="a_edge1_Node000001_Node000002"><a xlink:title=" ">
<path fill="none" stroke="#63b8ff" d="M62.57,-43.92C62.08,-35.55 62.53,-26.25 63.92,-19.61"/>
<polygon fill="#63b8ff" stroke="#63b8ff" points="59.06,-44.09 63.77,-53.58 66.01,-43.22 59.06,-44.09"/>
</a>
</g>
</g>
<!-- Node2&#45;&gt;Node1 -->
<g id="edge2_Node000001_Node000002" class="edge">
<title>Node2&#45;&gt;Node1</title>
<g id="a_edge2_Node000001_Node000002"><a xlink:title=" ">
<path fill="none" stroke="#63b8ff" d="M75.68,-43.92C76.17,-35.55 75.72,-26.25 74.33,-19.61"/>
<polygon fill="#63b8ff" stroke="#63b8ff" points="72.24,-43.22 74.48,-53.58 79.19,-44.09 72.24,-43.22"/>
</a>
</g>
</g>
</g>
</svg>
