<?xml version="1.0" encoding="UTF-8" standalone="no"?>
<!DOCTYPE svg PUBLIC "-//W3C//DTD SVG 1.1//EN"
 "http://www.w3.org/Graphics/SVG/1.1/DTD/svg11.dtd">
<!-- Generated by graphviz version 9.0.0 (20230911.1827)
 -->
<!-- Title: dunedaq::coredal::DaqApplication Pages: 1 -->
<svg width="167pt" height="138pt"
 viewBox="0.00 0.00 166.50 137.75" xmlns="http://www.w3.org/2000/svg" xmlns:xlink="http://www.w3.org/1999/xlink">
<g id="graph0" class="graph" transform="scale(1 1) rotate(0) translate(4 133.75)">
<title>dunedaq::coredal::DaqApplication</title>
<!-- Node1 -->
<g id="Node000001" class="node">
<title>Node1</title>
<g id="a_Node000001"><a xlink:title=" ">
<polygon fill="#999999" stroke="#666666" points="158.5,-19.25 0,-19.25 0,0 158.5,0 158.5,-19.25"/>
<text text-anchor="middle" x="79.25" y="-5.75" font-family="Helvetica,sans-Serif" font-size="10.00">dunedaq::coredal::DaqApplication</text>
</a>
</g>
</g>
<!-- Node2 -->
<g id="Node000002" class="node">
<title>Node2</title>
<g id="a_Node000002"><a xlink:href="classdunedaq_1_1coredal_1_1Application.html" target="_top" xlink:title=" ">
<polygon fill="white" stroke="#666666" points="149.88,-74.5 8.62,-74.5 8.62,-55.25 149.88,-55.25 149.88,-74.5"/>
<text text-anchor="middle" x="79.25" y="-61" font-family="Helvetica,sans-Serif" font-size="10.00">dunedaq::coredal::Application</text>
</a>
</g>
</g>
<!-- Node2&#45;&gt;Node1 -->
<g id="edge1_Node000001_Node000002" class="edge">
<title>Node2&#45;&gt;Node1</title>
<g id="a_edge1_Node000001_Node000002"><a xlink:title=" ">
<path fill="none" stroke="#63b8ff" d="M72.69,-43.92C72.2,-35.55 72.65,-26.25 74.04,-19.61"/>
<polygon fill="#63b8ff" stroke="#63b8ff" points="69.19,-44.09 73.9,-53.58 76.13,-43.22 69.19,-44.09"/>
</a>
</g>
</g>
<!-- Node2&#45;&gt;Node1 -->
<g id="edge4_Node000001_Node000002" class="edge">
<title>Node2&#45;&gt;Node1</title>
<g id="a_edge4_Node000001_Node000002"><a xlink:title=" ">
<path fill="none" stroke="#63b8ff" d="M85.81,-43.92C86.3,-35.55 85.85,-26.25 84.46,-19.61"/>
<polygon fill="#63b8ff" stroke="#63b8ff" points="82.37,-43.22 84.6,-53.58 89.31,-44.09 82.37,-43.22"/>
</a>
</g>
</g>
<!-- Node3 -->
<g id="Node000003" class="node">
<title>Node3</title>
<g id="a_Node000003"><a xlink:href="classdunedaq_1_1conffwk_1_1DalObject.html" target="_top" xlink:title="The base class for any generated DAL object.">
<polygon fill="white" stroke="#666666" points="148.38,-129.75 10.12,-129.75 10.12,-110.5 148.38,-110.5 148.38,-129.75"/>
<text text-anchor="middle" x="79.25" y="-116.25" font-family="Helvetica,sans-Serif" font-size="10.00">dunedaq::conffwk::DalObject</text>
</a>
</g>
</g>
<!-- Node3&#45;&gt;Node2 -->
<g id="edge2_Node000002_Node000003" class="edge">
<title>Node3&#45;&gt;Node2</title>
<g id="a_edge2_Node000002_Node000003"><a xlink:title=" ">
<path fill="none" stroke="#63b8ff" d="M72.69,-99.17C72.2,-90.8 72.65,-81.5 74.04,-74.86"/>
<polygon fill="#63b8ff" stroke="#63b8ff" points="69.19,-99.34 73.9,-108.83 76.13,-98.47 69.19,-99.34"/>
</a>
</g>
</g>
<!-- Node3&#45;&gt;Node2 -->
<g id="edge3_Node000002_Node000003" class="edge">
<title>Node3&#45;&gt;Node2</title>
<g id="a_edge3_Node000002_Node000003"><a xlink:title=" ">
<path fill="none" stroke="#63b8ff" d="M85.81,-99.17C86.3,-90.8 85.85,-81.5 84.46,-74.86"/>
<polygon fill="#63b8ff" stroke="#63b8ff" points="82.37,-98.47 84.6,-108.83 89.31,-99.34 82.37,-98.47"/>
</a>
</g>
</g>
</g>
</svg>
