<?xml version="1.0" encoding="UTF-8" standalone="no"?>
<!DOCTYPE svg PUBLIC "-//W3C//DTD SVG 1.1//EN"
 "http://www.w3.org/Graphics/SVG/1.1/DTD/svg11.dtd">
<!-- Generated by graphviz version 9.0.0 (20230911.1827)
 -->
<!-- Title: dunedaq::timing::IONode Pages: 1 -->
<svg width="779pt" height="212pt"
 viewBox="0.00 0.00 778.75 212.25" xmlns="http://www.w3.org/2000/svg" xmlns:xlink="http://www.w3.org/1999/xlink">
<g id="graph0" class="graph" transform="scale(1 1) rotate(0) translate(4 208.25)">
<title>dunedaq::timing::IONode</title>
<!-- Node1 -->
<g id="Node000001" class="node">
<title>Node1</title>
<g id="a_Node000001"><a xlink:title="Base class for timing IO nodes.">
<polygon fill="#999999" stroke="#666666" points="396,-111.25 274.25,-111.25 274.25,-92 396,-92 396,-111.25"/>
<text text-anchor="middle" x="335.12" y="-97.75" font-family="Helvetica,sans-Serif" font-size="10.00">dunedaq::timing::IONode</text>
</a>
</g>
</g>
<!-- Node4 -->
<g id="Node000004" class="node">
<title>Node4</title>
<g id="a_Node000004"><a xlink:href="classdunedaq_1_1timing_1_1FMCIONode.html" target="_top" xlink:title="Class for the timing FMC board.">
<polygon fill="white" stroke="#666666" points="579.25,-204.25 436.5,-204.25 436.5,-185 579.25,-185 579.25,-204.25"/>
<text text-anchor="middle" x="507.88" y="-190.75" font-family="Helvetica,sans-Serif" font-size="10.00">dunedaq::timing::FMCIONode</text>
</a>
</g>
</g>
<!-- Node1&#45;&gt;Node4 -->
<g id="edge3_Node000001_Node000004" class="edge">
<title>Node1&#45;&gt;Node4</title>
<g id="a_edge3_Node000001_Node000004"><a xlink:title=" ">
<path fill="none" stroke="#63b8ff" d="M353.67,-119.2C371.77,-136.35 401.58,-161.94 432,-176.62 438.5,-179.76 445.59,-182.38 452.73,-184.55"/>
<polygon fill="#63b8ff" stroke="#63b8ff" points="356.47,-117.05 346.86,-112.6 351.6,-122.07 356.47,-117.05"/>
</a>
</g>
</g>
<!-- Node5 -->
<g id="Node000005" class="node">
<title>Node5</title>
<g id="a_Node000005"><a xlink:href="classdunedaq_1_1timing_1_1FanoutIONode.html" target="_top" xlink:title="Base class for the fanout boards.">
<polygon fill="white" stroke="#666666" points="583.75,-167.25 432,-167.25 432,-148 583.75,-148 583.75,-167.25"/>
<text text-anchor="middle" x="507.88" y="-153.75" font-family="Helvetica,sans-Serif" font-size="10.00">dunedaq::timing::FanoutIONode</text>
</a>
</g>
</g>
<!-- Node1&#45;&gt;Node5 -->
<g id="edge4_Node000001_Node000005" class="edge">
<title>Node1&#45;&gt;Node5</title>
<g id="a_edge4_Node000001_Node000005"><a xlink:title=" ">
<path fill="none" stroke="#63b8ff" d="M369.07,-116.02C387.38,-123.68 410.7,-132.88 432,-139.62 441.18,-142.53 451.11,-145.23 460.66,-147.6"/>
<polygon fill="#63b8ff" stroke="#63b8ff" points="370.62,-112.88 360.05,-112.2 367.89,-119.32 370.62,-112.88"/>
</a>
</g>
</g>
<!-- Node9 -->
<g id="Node000009" class="node">
<title>Node9</title>
<g id="a_Node000009"><a xlink:href="classdunedaq_1_1timing_1_1GIBIONode.html" target="_top" xlink:title="Class for the timing FMC board.">
<polygon fill="white" stroke="#666666" points="577.38,-130.25 438.38,-130.25 438.38,-111 577.38,-111 577.38,-130.25"/>
<text text-anchor="middle" x="507.88" y="-116.75" font-family="Helvetica,sans-Serif" font-size="10.00">dunedaq::timing::GIBIONode</text>
</a>
</g>
</g>
<!-- Node1&#45;&gt;Node9 -->
<g id="edge8_Node000001_Node000009" class="edge">
<title>Node1&#45;&gt;Node9</title>
<g id="a_edge8_Node000001_Node000009"><a xlink:title=" ">
<path fill="none" stroke="#63b8ff" d="M407.53,-109.57C417.57,-110.69 427.89,-111.84 437.89,-112.95"/>
<polygon fill="#63b8ff" stroke="#63b8ff" points="408.16,-106.12 397.83,-108.49 407.38,-113.08 408.16,-106.12"/>
</a>
</g>
</g>
<!-- Node10 -->
<g id="Node000010" class="node">
<title>Node10</title>
<g id="a_Node000010"><a xlink:href="classdunedaq_1_1timing_1_1MIBV2IONode.html" target="_top" xlink:title="Class for the timing FMC board.">
<polygon fill="white" stroke="#666666" points="583.75,-93.25 432,-93.25 432,-74 583.75,-74 583.75,-93.25"/>
<text text-anchor="middle" x="507.88" y="-79.75" font-family="Helvetica,sans-Serif" font-size="10.00">dunedaq::timing::MIBV2IONode</text>
</a>
</g>
</g>
<!-- Node1&#45;&gt;Node10 -->
<g id="edge9_Node000001_Node000010" class="edge">
<title>Node1&#45;&gt;Node10</title>
<g id="a_edge9_Node000001_Node000010"><a xlink:title=" ">
<path fill="none" stroke="#63b8ff" d="M407.75,-94.07C415.65,-93.24 423.72,-92.39 431.66,-91.55"/>
<polygon fill="#63b8ff" stroke="#63b8ff" points="407.41,-90.59 397.83,-95.12 408.14,-97.55 407.41,-90.59"/>
</a>
</g>
</g>
<!-- Node11 -->
<g id="Node000011" class="node">
<title>Node11</title>
<g id="a_Node000011"><a xlink:href="classdunedaq_1_1timing_1_1SIMIONode.html" target="_top" xlink:title="Class for the timing simulation IO.">
<polygon fill="white" stroke="#666666" points="577.75,-56.25 438,-56.25 438,-37 577.75,-37 577.75,-56.25"/>
<text text-anchor="middle" x="507.88" y="-42.75" font-family="Helvetica,sans-Serif" font-size="10.00">dunedaq::timing::SIMIONode</text>
</a>
</g>
</g>
<!-- Node1&#45;&gt;Node11 -->
<g id="edge10_Node000001_Node000011" class="edge">
<title>Node1&#45;&gt;Node11</title>
<g id="a_edge10_Node000001_Node000011"><a xlink:title=" ">
<path fill="none" stroke="#63b8ff" d="M370.1,-87.25C388.26,-79.89 411.12,-71.13 432,-64.62 441.19,-61.76 451.13,-59.08 460.68,-56.72"/>
<polygon fill="#63b8ff" stroke="#63b8ff" points="368.78,-84.01 360.86,-91.05 371.44,-90.48 368.78,-84.01"/>
</a>
</g>
</g>
<!-- Node12 -->
<g id="Node000012" class="node">
<title>Node12</title>
<g id="a_Node000012"><a xlink:href="classdunedaq_1_1timing_1_1TLUIONode.html" target="_top" xlink:title="Class for the TLU board.">
<polygon fill="white" stroke="#666666" points="578.5,-19.25 437.25,-19.25 437.25,0 578.5,0 578.5,-19.25"/>
<text text-anchor="middle" x="507.88" y="-5.75" font-family="Helvetica,sans-Serif" font-size="10.00">dunedaq::timing::TLUIONode</text>
</a>
</g>
</g>
<!-- Node1&#45;&gt;Node12 -->
<g id="edge11_Node000001_Node000012" class="edge">
<title>Node1&#45;&gt;Node12</title>
<g id="a_edge11_Node000001_Node000012"><a xlink:title=" ">
<path fill="none" stroke="#63b8ff" d="M354.01,-84.02C372.17,-67.11 401.85,-42.06 432,-27.62 438.51,-24.51 445.61,-21.9 452.75,-19.74"/>
<polygon fill="#63b8ff" stroke="#63b8ff" points="351.99,-81.11 347.16,-90.54 356.81,-86.18 351.99,-81.11"/>
</a>
</g>
</g>
<!-- Node2 -->
<g id="Node000002" class="node">
<title>Node2</title>
<g id="a_Node000002"><a xlink:href="classdunedaq_1_1timing_1_1TimingNode.html" target="_top" xlink:title="Base class for timing nodes.">
<polygon fill="white" stroke="#666666" points="238.25,-111.25 97.75,-111.25 97.75,-92 238.25,-92 238.25,-111.25"/>
<text text-anchor="middle" x="168" y="-97.75" font-family="Helvetica,sans-Serif" font-size="10.00">dunedaq::timing::TimingNode</text>
</a>
</g>
</g>
<!-- Node2&#45;&gt;Node1 -->
<g id="edge1_Node000001_Node000002" class="edge">
<title>Node2&#45;&gt;Node1</title>
<g id="a_edge1_Node000001_Node000002"><a xlink:title=" ">
<path fill="none" stroke="#63b8ff" d="M249.89,-101.62C257.95,-101.62 266.03,-101.62 273.82,-101.62"/>
<polygon fill="#63b8ff" stroke="#63b8ff" points="250.06,-98.13 240.06,-101.63 250.06,-105.13 250.06,-98.13"/>
</a>
</g>
</g>
<!-- Node3 -->
<g id="Node000003" class="node">
<title>Node3</title>
<g id="a_Node000003"><a xlink:title=" ">
<polygon fill="white" stroke="#666666" points="61.75,-111.25 0,-111.25 0,-92 61.75,-92 61.75,-111.25"/>
<text text-anchor="middle" x="30.88" y="-97.75" font-family="Helvetica,sans-Serif" font-size="10.00">uhal::Node</text>
</a>
</g>
</g>
<!-- Node3&#45;&gt;Node2 -->
<g id="edge2_Node000002_Node000003" class="edge">
<title>Node3&#45;&gt;Node2</title>
<g id="a_edge2_Node000002_Node000003"><a xlink:title=" ">
<path fill="none" stroke="#63b8ff" d="M73.58,-101.62C81.14,-101.62 89.2,-101.62 97.3,-101.62"/>
<polygon fill="#63b8ff" stroke="#63b8ff" points="73.71,-98.13 63.71,-101.63 73.71,-105.13 73.71,-98.13"/>
</a>
</g>
</g>
<!-- Node6 -->
<g id="Node000006" class="node">
<title>Node6</title>
<g id="a_Node000006"><a xlink:href="classdunedaq_1_1timing_1_1FIBIONode.html" target="_top" xlink:title="Class for the FIB board.">
<polygon fill="white" stroke="#666666" points="764,-204.25 626.5,-204.25 626.5,-185 764,-185 764,-204.25"/>
<text text-anchor="middle" x="695.25" y="-190.75" font-family="Helvetica,sans-Serif" font-size="10.00">dunedaq::timing::FIBIONode</text>
</a>
</g>
</g>
<!-- Node5&#45;&gt;Node6 -->
<g id="edge5_Node000005_Node000006" class="edge">
<title>Node5&#45;&gt;Node6</title>
<g id="a_edge5_Node000005_Node000006"><a xlink:title=" ">
<path fill="none" stroke="#63b8ff" d="M570.55,-169.93C594.28,-174.67 621.08,-180.02 643.66,-184.53"/>
<polygon fill="#63b8ff" stroke="#63b8ff" points="571.51,-166.56 561.01,-168.03 570.14,-173.42 571.51,-166.56"/>
</a>
</g>
</g>
<!-- Node7 -->
<g id="Node000007" class="node">
<title>Node7</title>
<g id="a_Node000007"><a xlink:href="classdunedaq_1_1timing_1_1MIBIONode.html" target="_top" xlink:title="Class for the timing FMC board.">
<polygon fill="white" stroke="#666666" points="765.12,-167.25 625.38,-167.25 625.38,-148 765.12,-148 765.12,-167.25"/>
<text text-anchor="middle" x="695.25" y="-153.75" font-family="Helvetica,sans-Serif" font-size="10.00">dunedaq::timing::MIBIONode</text>
</a>
</g>
</g>
<!-- Node5&#45;&gt;Node7 -->
<g id="edge6_Node000005_Node000007" class="edge">
<title>Node5&#45;&gt;Node7</title>
<g id="a_edge6_Node000005_Node000007"><a xlink:title=" ">
<path fill="none" stroke="#63b8ff" d="M595.21,-157.62C605.2,-157.62 615.28,-157.62 625,-157.62"/>
<polygon fill="#63b8ff" stroke="#63b8ff" points="595.52,-154.13 585.52,-157.63 595.52,-161.13 595.52,-154.13"/>
</a>
</g>
</g>
<!-- Node8 -->
<g id="Node000008" class="node">
<title>Node8</title>
<g id="a_Node000008"><a xlink:href="classdunedaq_1_1timing_1_1PC059IONode.html" target="_top" xlink:title="Class for the PC059 board.">
<polygon fill="white" stroke="#666666" points="770.75,-130.25 619.75,-130.25 619.75,-111 770.75,-111 770.75,-130.25"/>
<text text-anchor="middle" x="695.25" y="-116.75" font-family="Helvetica,sans-Serif" font-size="10.00">dunedaq::timing::PC059IONode</text>
</a>
</g>
</g>
<!-- Node5&#45;&gt;Node8 -->
<g id="edge7_Node000005_Node000008" class="edge">
<title>Node5&#45;&gt;Node8</title>
<g id="a_edge7_Node000005_Node000008"><a xlink:title=" ">
<path fill="none" stroke="#63b8ff" d="M570.55,-145.32C594.28,-140.58 621.08,-135.23 643.66,-130.72"/>
<polygon fill="#63b8ff" stroke="#63b8ff" points="570.14,-141.83 561.01,-147.22 571.51,-148.69 570.14,-141.83"/>
</a>
</g>
</g>
</g>
</svg>
