<?xml version="1.0" encoding="UTF-8" standalone="no"?>
<!DOCTYPE svg PUBLIC "-//W3C//DTD SVG 1.1//EN"
 "http://www.w3.org/Graphics/SVG/1.1/DTD/svg11.dtd">
<!-- Generated by graphviz version 9.0.0 (20230911.1827)
 -->
<!-- Title: dunedaq::coredal::ProcessingResource Pages: 1 -->
<svg width="172pt" height="149pt"
 viewBox="0.00 0.00 171.75 149.00" xmlns="http://www.w3.org/2000/svg" xmlns:xlink="http://www.w3.org/1999/xlink">
<g id="graph0" class="graph" transform="scale(1 1) rotate(0) translate(4 145)">
<title>dunedaq::coredal::ProcessingResource</title>
<!-- Node1 -->
<g id="Node000001" class="node">
<title>Node1</title>
<g id="a_Node000001"><a xlink:title=" ">
<polygon fill="#999999" stroke="#666666" points="152.88,-30.5 10.88,-30.5 10.88,0 152.88,0 152.88,-30.5"/>
<text text-anchor="start" x="18.88" y="-17" font-family="Helvetica,sans-Serif" font-size="10.00">dunedaq::coredal::Processing</text>
<text text-anchor="middle" x="81.88" y="-5.75" font-family="Helvetica,sans-Serif" font-size="10.00">Resource</text>
</a>
</g>
</g>
<!-- Node2 -->
<g id="Node000002" class="node">
<title>Node2</title>
<g id="a_Node000002"><a xlink:href="classdunedaq_1_1coredal_1_1HostComponent.html" target="_top" xlink:title=" ">
<polygon fill="white" stroke="#666666" points="163.75,-85.75 0,-85.75 0,-66.5 163.75,-66.5 163.75,-85.75"/>
<text text-anchor="middle" x="81.88" y="-72.25" font-family="Helvetica,sans-Serif" font-size="10.00">dunedaq::coredal::HostComponent</text>
</a>
</g>
</g>
<!-- Node2&#45;&gt;Node1 -->
<g id="edge1_Node000001_Node000002" class="edge">
<title>Node2&#45;&gt;Node1</title>
<g id="a_edge1_Node000001_Node000002"><a xlink:title=" ">
<path fill="none" stroke="#63b8ff" d="M75.43,-54.92C74.89,-46.99 75.07,-38.06 75.96,-30.78"/>
<polygon fill="#63b8ff" stroke="#63b8ff" points="71.94,-55.2 76.67,-64.68 78.88,-54.32 71.94,-55.2"/>
</a>
</g>
</g>
<!-- Node2&#45;&gt;Node1 -->
<g id="edge4_Node000001_Node000002" class="edge">
<title>Node2&#45;&gt;Node1</title>
<g id="a_edge4_Node000001_Node000002"><a xlink:title=" ">
<path fill="none" stroke="#63b8ff" d="M88.32,-54.92C88.86,-46.99 88.68,-38.06 87.79,-30.78"/>
<polygon fill="#63b8ff" stroke="#63b8ff" points="84.87,-54.32 87.08,-64.68 91.81,-55.2 84.87,-54.32"/>
</a>
</g>
</g>
<!-- Node3 -->
<g id="Node000003" class="node">
<title>Node3</title>
<g id="a_Node000003"><a xlink:href="classdunedaq_1_1conffwk_1_1DalObject.html" target="_top" xlink:title="The base class for any generated DAL object.">
<polygon fill="white" stroke="#666666" points="151,-141 12.75,-141 12.75,-121.75 151,-121.75 151,-141"/>
<text text-anchor="middle" x="81.88" y="-127.5" font-family="Helvetica,sans-Serif" font-size="10.00">dunedaq::conffwk::DalObject</text>
</a>
</g>
</g>
<!-- Node3&#45;&gt;Node2 -->
<g id="edge2_Node000002_Node000003" class="edge">
<title>Node3&#45;&gt;Node2</title>
<g id="a_edge2_Node000002_Node000003"><a xlink:title=" ">
<path fill="none" stroke="#63b8ff" d="M75.32,-110.42C74.83,-102.05 75.28,-92.75 76.67,-86.11"/>
<polygon fill="#63b8ff" stroke="#63b8ff" points="71.81,-110.59 76.52,-120.08 78.76,-109.72 71.81,-110.59"/>
</a>
</g>
</g>
<!-- Node3&#45;&gt;Node2 -->
<g id="edge3_Node000002_Node000003" class="edge">
<title>Node3&#45;&gt;Node2</title>
<g id="a_edge3_Node000002_Node000003"><a xlink:title=" ">
<path fill="none" stroke="#63b8ff" d="M88.43,-110.42C88.92,-102.05 88.47,-92.75 87.08,-86.11"/>
<polygon fill="#63b8ff" stroke="#63b8ff" points="84.99,-109.72 87.23,-120.08 91.94,-110.59 84.99,-109.72"/>
</a>
</g>
</g>
</g>
</svg>
