<?xml version="1.0" encoding="UTF-8" standalone="no"?>
<!DOCTYPE svg PUBLIC "-//W3C//DTD SVG 1.1//EN"
 "http://www.w3.org/Graphics/SVG/1.1/DTD/svg11.dtd">
<!-- Generated by graphviz version 9.0.0 (20230911.1827)
 -->
<!-- Title: dunedaq::appdal::TriggerCandidateMakerPrescalePlugin Pages: 1 -->
<svg width="160pt" height="204pt"
 viewBox="0.00 0.00 159.75 204.25" xmlns="http://www.w3.org/2000/svg" xmlns:xlink="http://www.w3.org/1999/xlink">
<g id="graph0" class="graph" transform="scale(1 1) rotate(0) translate(4 200.25)">
<title>dunedaq::appdal::TriggerCandidateMakerPrescalePlugin</title>
<!-- Node1 -->
<g id="Node000001" class="node">
<title>Node1</title>
<g id="a_Node000001"><a xlink:title=" ">
<polygon fill="#999999" stroke="#666666" points="151.75,-30.5 0,-30.5 0,0 151.75,0 151.75,-30.5"/>
<text text-anchor="start" x="8" y="-17" font-family="Helvetica,sans-Serif" font-size="10.00">dunedaq::appdal::Trigger</text>
<text text-anchor="middle" x="75.88" y="-5.75" font-family="Helvetica,sans-Serif" font-size="10.00">CandidateMakerPrescalePlugin</text>
</a>
</g>
</g>
<!-- Node2 -->
<g id="Node000002" class="node">
<title>Node2</title>
<g id="a_Node000002"><a xlink:href="classdunedaq_1_1appdal_1_1TCAlgorithm.html" target="_top" xlink:title=" ">
<polygon fill="white" stroke="#666666" points="148,-85.75 3.75,-85.75 3.75,-66.5 148,-66.5 148,-85.75"/>
<text text-anchor="middle" x="75.88" y="-72.25" font-family="Helvetica,sans-Serif" font-size="10.00">dunedaq::appdal::TCAlgorithm</text>
</a>
</g>
</g>
<!-- Node2&#45;&gt;Node1 -->
<g id="edge1_Node000001_Node000002" class="edge">
<title>Node2&#45;&gt;Node1</title>
<g id="a_edge1_Node000001_Node000002"><a xlink:title=" ">
<path fill="none" stroke="#63b8ff" d="M69.43,-54.92C68.89,-46.99 69.07,-38.06 69.96,-30.78"/>
<polygon fill="#63b8ff" stroke="#63b8ff" points="65.94,-55.2 70.67,-64.68 72.88,-54.32 65.94,-55.2"/>
</a>
</g>
</g>
<!-- Node2&#45;&gt;Node1 -->
<g id="edge6_Node000001_Node000002" class="edge">
<title>Node2&#45;&gt;Node1</title>
<g id="a_edge6_Node000001_Node000002"><a xlink:title=" ">
<path fill="none" stroke="#63b8ff" d="M82.32,-54.92C82.86,-46.99 82.68,-38.06 81.79,-30.78"/>
<polygon fill="#63b8ff" stroke="#63b8ff" points="78.87,-54.32 81.08,-64.68 85.81,-55.2 78.87,-54.32"/>
</a>
</g>
</g>
<!-- Node3 -->
<g id="Node000003" class="node">
<title>Node3</title>
<g id="a_Node000003"><a xlink:href="classdunedaq_1_1coredal_1_1Jsonable.html" target="_top" xlink:title=" ">
<polygon fill="white" stroke="#666666" points="142,-141 9.75,-141 9.75,-121.75 142,-121.75 142,-141"/>
<text text-anchor="middle" x="75.88" y="-127.5" font-family="Helvetica,sans-Serif" font-size="10.00">dunedaq::coredal::Jsonable</text>
</a>
</g>
</g>
<!-- Node3&#45;&gt;Node2 -->
<g id="edge2_Node000002_Node000003" class="edge">
<title>Node3&#45;&gt;Node2</title>
<g id="a_edge2_Node000002_Node000003"><a xlink:title=" ">
<path fill="none" stroke="#63b8ff" d="M69.32,-110.42C68.83,-102.05 69.28,-92.75 70.67,-86.11"/>
<polygon fill="#63b8ff" stroke="#63b8ff" points="65.81,-110.59 70.52,-120.08 72.76,-109.72 65.81,-110.59"/>
</a>
</g>
</g>
<!-- Node3&#45;&gt;Node2 -->
<g id="edge5_Node000002_Node000003" class="edge">
<title>Node3&#45;&gt;Node2</title>
<g id="a_edge5_Node000002_Node000003"><a xlink:title=" ">
<path fill="none" stroke="#63b8ff" d="M82.43,-110.42C82.92,-102.05 82.47,-92.75 81.08,-86.11"/>
<polygon fill="#63b8ff" stroke="#63b8ff" points="78.99,-109.72 81.23,-120.08 85.94,-110.59 78.99,-109.72"/>
</a>
</g>
</g>
<!-- Node4 -->
<g id="Node000004" class="node">
<title>Node4</title>
<g id="a_Node000004"><a xlink:href="classdunedaq_1_1conffwk_1_1DalObject.html" target="_top" xlink:title="The base class for any generated DAL object.">
<polygon fill="white" stroke="#666666" points="145,-196.25 6.75,-196.25 6.75,-177 145,-177 145,-196.25"/>
<text text-anchor="middle" x="75.88" y="-182.75" font-family="Helvetica,sans-Serif" font-size="10.00">dunedaq::conffwk::DalObject</text>
</a>
</g>
</g>
<!-- Node4&#45;&gt;Node3 -->
<g id="edge3_Node000003_Node000004" class="edge">
<title>Node4&#45;&gt;Node3</title>
<g id="a_edge3_Node000003_Node000004"><a xlink:title=" ">
<path fill="none" stroke="#63b8ff" d="M69.32,-165.67C68.83,-157.3 69.28,-148 70.67,-141.36"/>
<polygon fill="#63b8ff" stroke="#63b8ff" points="65.81,-165.84 70.52,-175.33 72.76,-164.97 65.81,-165.84"/>
</a>
</g>
</g>
<!-- Node4&#45;&gt;Node3 -->
<g id="edge4_Node000003_Node000004" class="edge">
<title>Node4&#45;&gt;Node3</title>
<g id="a_edge4_Node000003_Node000004"><a xlink:title=" ">
<path fill="none" stroke="#63b8ff" d="M82.43,-165.67C82.92,-157.3 82.47,-148 81.08,-141.36"/>
<polygon fill="#63b8ff" stroke="#63b8ff" points="78.99,-164.97 81.23,-175.33 85.94,-165.84 78.99,-164.97"/>
</a>
</g>
</g>
</g>
</svg>
