<?xml version="1.0" encoding="UTF-8" standalone="no"?>
<!DOCTYPE svg PUBLIC "-//W3C//DTD SVG 1.1//EN"
 "http://www.w3.org/Graphics/SVG/1.1/DTD/svg11.dtd">
<!-- Generated by graphviz version 9.0.0 (20230911.1827)
 -->
<!-- Title: dunedaq::timing::FLCmdGeneratorNode Pages: 1 -->
<svg width="194pt" height="204pt"
 viewBox="0.00 0.00 194.25 204.25" xmlns="http://www.w3.org/2000/svg" xmlns:xlink="http://www.w3.org/1999/xlink">
<g id="graph0" class="graph" transform="scale(1 1) rotate(0) translate(4 200.25)">
<title>dunedaq::timing::FLCmdGeneratorNode</title>
<!-- Node1 -->
<g id="Node000001" class="node">
<title>Node1</title>
<g id="a_Node000001"><a xlink:title="Class for master global node.">
<polygon fill="#999999" stroke="#666666" points="186.25,-85.75 0,-85.75 0,-66.5 186.25,-66.5 186.25,-85.75"/>
<text text-anchor="middle" x="93.12" y="-72.25" font-family="Helvetica,sans-Serif" font-size="10.00">dunedaq::timing::FLCmdGeneratorNode</text>
</a>
</g>
</g>
<!-- Node4 -->
<g id="Node000004" class="node">
<title>Node4</title>
<g id="a_Node000004"><a xlink:href="classdunedaq_1_1timing_1_1PDIFLCmdGeneratorNode.html" target="_top" xlink:title="Class for master global node.">
<polygon fill="white" stroke="#666666" points="161.5,-30.5 24.75,-30.5 24.75,0 161.5,0 161.5,-30.5"/>
<text text-anchor="start" x="32.75" y="-17" font-family="Helvetica,sans-Serif" font-size="10.00">dunedaq::timing::PDIFLCmd</text>
<text text-anchor="middle" x="93.12" y="-5.75" font-family="Helvetica,sans-Serif" font-size="10.00">GeneratorNode</text>
</a>
</g>
</g>
<!-- Node1&#45;&gt;Node4 -->
<g id="edge3_Node000001_Node000004" class="edge">
<title>Node1&#45;&gt;Node4</title>
<g id="a_edge3_Node000001_Node000004"><a xlink:title=" ">
<path fill="none" stroke="#63b8ff" d="M93.12,-54.92C93.12,-46.99 93.12,-38.06 93.12,-30.78"/>
<polygon fill="#63b8ff" stroke="#63b8ff" points="89.63,-54.67 93.13,-64.67 96.63,-54.67 89.63,-54.67"/>
</a>
</g>
</g>
<!-- Node2 -->
<g id="Node000002" class="node">
<title>Node2</title>
<g id="a_Node000002"><a xlink:href="classdunedaq_1_1timing_1_1TimingNode.html" target="_top" xlink:title="Base class for timing nodes.">
<polygon fill="white" stroke="#666666" points="163.38,-141 22.88,-141 22.88,-121.75 163.38,-121.75 163.38,-141"/>
<text text-anchor="middle" x="93.12" y="-127.5" font-family="Helvetica,sans-Serif" font-size="10.00">dunedaq::timing::TimingNode</text>
</a>
</g>
</g>
<!-- Node2&#45;&gt;Node1 -->
<g id="edge1_Node000001_Node000002" class="edge">
<title>Node2&#45;&gt;Node1</title>
<g id="a_edge1_Node000001_Node000002"><a xlink:title=" ">
<path fill="none" stroke="#63b8ff" d="M93.12,-110.13C93.12,-101.84 93.12,-92.67 93.12,-86.11"/>
<polygon fill="#63b8ff" stroke="#63b8ff" points="89.63,-110.07 93.13,-120.07 96.63,-110.07 89.63,-110.07"/>
</a>
</g>
</g>
<!-- Node3 -->
<g id="Node000003" class="node">
<title>Node3</title>
<g id="a_Node000003"><a xlink:title=" ">
<polygon fill="white" stroke="#666666" points="124,-196.25 62.25,-196.25 62.25,-177 124,-177 124,-196.25"/>
<text text-anchor="middle" x="93.12" y="-182.75" font-family="Helvetica,sans-Serif" font-size="10.00">uhal::Node</text>
</a>
</g>
</g>
<!-- Node3&#45;&gt;Node2 -->
<g id="edge2_Node000002_Node000003" class="edge">
<title>Node3&#45;&gt;Node2</title>
<g id="a_edge2_Node000002_Node000003"><a xlink:title=" ">
<path fill="none" stroke="#63b8ff" d="M93.12,-165.38C93.12,-157.09 93.12,-147.92 93.12,-141.36"/>
<polygon fill="#63b8ff" stroke="#63b8ff" points="89.63,-165.32 93.13,-175.32 96.63,-165.32 89.63,-165.32"/>
</a>
</g>
</g>
</g>
</svg>
