<?xml version="1.0" encoding="UTF-8" standalone="no"?>
<!DOCTYPE svg PUBLIC "-//W3C//DTD SVG 1.1//EN"
 "http://www.w3.org/Graphics/SVG/1.1/DTD/svg11.dtd">
<!-- Generated by graphviz version 9.0.0 (20230911.1827)
 -->
<!-- Title: dunedaq::appdal::TCReadoutMap Pages: 1 -->
<svg width="166pt" height="83pt"
 viewBox="0.00 0.00 165.75 82.50" xmlns="http://www.w3.org/2000/svg" xmlns:xlink="http://www.w3.org/1999/xlink">
<g id="graph0" class="graph" transform="scale(1 1) rotate(0) translate(4 78.5)">
<title>dunedaq::appdal::TCReadoutMap</title>
<!-- Node1 -->
<g id="Node000001" class="node">
<title>Node1</title>
<g id="a_Node000001"><a xlink:title=" ">
<polygon fill="#999999" stroke="#666666" points="157.75,-19.25 0,-19.25 0,0 157.75,0 157.75,-19.25"/>
<text text-anchor="middle" x="78.88" y="-5.75" font-family="Helvetica,sans-Serif" font-size="10.00">dunedaq::appdal::TCReadoutMap</text>
</a>
</g>
</g>
<!-- Node2 -->
<g id="Node000002" class="node">
<title>Node2</title>
<g id="a_Node000002"><a xlink:href="classdunedaq_1_1conffwk_1_1DalObject.html" target="_top" xlink:title="The base class for any generated DAL object.">
<polygon fill="white" stroke="#666666" points="148,-74.5 9.75,-74.5 9.75,-55.25 148,-55.25 148,-74.5"/>
<text text-anchor="middle" x="78.88" y="-61" font-family="Helvetica,sans-Serif" font-size="10.00">dunedaq::conffwk::DalObject</text>
</a>
</g>
</g>
<!-- Node2&#45;&gt;Node1 -->
<g id="edge1_Node000001_Node000002" class="edge">
<title>Node2&#45;&gt;Node1</title>
<g id="a_edge1_Node000001_Node000002"><a xlink:title=" ">
<path fill="none" stroke="#63b8ff" d="M72.32,-43.92C71.83,-35.55 72.28,-26.25 73.67,-19.61"/>
<polygon fill="#63b8ff" stroke="#63b8ff" points="68.81,-44.09 73.52,-53.58 75.76,-43.22 68.81,-44.09"/>
</a>
</g>
</g>
<!-- Node2&#45;&gt;Node1 -->
<g id="edge2_Node000001_Node000002" class="edge">
<title>Node2&#45;&gt;Node1</title>
<g id="a_edge2_Node000001_Node000002"><a xlink:title=" ">
<path fill="none" stroke="#63b8ff" d="M85.43,-43.92C85.92,-35.55 85.47,-26.25 84.08,-19.61"/>
<polygon fill="#63b8ff" stroke="#63b8ff" points="81.99,-43.22 84.23,-53.58 88.94,-44.09 81.99,-43.22"/>
</a>
</g>
</g>
</g>
</svg>
