<?xml version="1.0" encoding="UTF-8" standalone="no"?>
<!DOCTYPE svg PUBLIC "-//W3C//DTD SVG 1.1//EN"
 "http://www.w3.org/Graphics/SVG/1.1/DTD/svg11.dtd">
<!-- Generated by graphviz version 9.0.0 (20230911.1827)
 -->
<!-- Title: /github/workspace/dev_area/sourcecode/cmdlib/include/cmdlib/CommandedObject.hpp Pages: 1 -->
<svg width="282pt" height="205pt"
 viewBox="0.00 0.00 282.12 205.25" xmlns="http://www.w3.org/2000/svg" xmlns:xlink="http://www.w3.org/1999/xlink">
<g id="graph0" class="graph" transform="scale(1 1) rotate(0) translate(4 201.25)">
<title>/github/workspace/dev_area/sourcecode/cmdlib/include/cmdlib/CommandedObject.hpp</title>
<!-- Node1 -->
<g id="Node000001" class="node">
<title>Node1</title>
<g id="a_Node000001"><a xlink:title=" ">
<polygon fill="#999999" stroke="#666666" points="214.62,-197.25 29.12,-197.25 29.12,-155.5 214.62,-155.5 214.62,-197.25"/>
<text text-anchor="start" x="37.12" y="-183.75" font-family="Helvetica,sans-Serif" font-size="10.00">/github/workspace/dev</text>
<text text-anchor="start" x="37.12" y="-172.5" font-family="Helvetica,sans-Serif" font-size="10.00">_area/sourcecode/cmdlib</text>
<text text-anchor="middle" x="121.88" y="-161.25" font-family="Helvetica,sans-Serif" font-size="10.00">/include/cmdlib/CommandedObject.hpp</text>
</a>
</g>
</g>
<!-- Node2 -->
<g id="Node000002" class="node">
<title>Node2</title>
<g id="a_Node000002"><a xlink:href="sourcecode_2appfwk_2src_2Application_8hpp.html" target="_top" xlink:title=" ">
<polygon fill="white" stroke="#666666" points="127.75,-41.75 0,-41.75 0,0 127.75,0 127.75,-41.75"/>
<text text-anchor="start" x="8" y="-28.25" font-family="Helvetica,sans-Serif" font-size="10.00">/github/workspace/dev</text>
<text text-anchor="start" x="8" y="-17" font-family="Helvetica,sans-Serif" font-size="10.00">_area/sourcecode/appfwk</text>
<text text-anchor="middle" x="63.88" y="-5.75" font-family="Helvetica,sans-Serif" font-size="10.00">/src/Application.hpp</text>
</a>
</g>
</g>
<!-- Node1&#45;&gt;Node2 -->
<g id="edge1_Node000001_Node000002" class="edge">
<title>Node1&#45;&gt;Node2</title>
<g id="a_edge1_Node000001_Node000002"><a xlink:title=" ">
<path fill="none" stroke="#63b8ff" d="M97.99,-146.02C92.3,-137.83 86.76,-128.66 82.88,-119.5 72.1,-94.06 67.37,-62.29 65.34,-42.03"/>
<polygon fill="#63b8ff" stroke="#63b8ff" points="95.02,-147.89 103.75,-153.89 100.67,-143.76 95.02,-147.89"/>
</a>
</g>
</g>
<!-- Node3 -->
<g id="Node000003" class="node">
<title>Node3</title>
<g id="a_Node000003"><a xlink:href="CommandFacility_8hpp.html" target="_top" xlink:title=" ">
<polygon fill="white" stroke="#666666" points="269.5,-119.5 92.25,-119.5 92.25,-77.75 269.5,-77.75 269.5,-119.5"/>
<text text-anchor="start" x="100.25" y="-106" font-family="Helvetica,sans-Serif" font-size="10.00">/github/workspace/dev</text>
<text text-anchor="start" x="100.25" y="-94.75" font-family="Helvetica,sans-Serif" font-size="10.00">_area/sourcecode/cmdlib</text>
<text text-anchor="middle" x="180.88" y="-83.5" font-family="Helvetica,sans-Serif" font-size="10.00">/include/cmdlib/CommandFacility.hpp</text>
</a>
</g>
</g>
<!-- Node1&#45;&gt;Node3 -->
<g id="edge2_Node000001_Node000003" class="edge">
<title>Node1&#45;&gt;Node3</title>
<g id="a_edge2_Node000001_Node000003"><a xlink:title=" ">
<path fill="none" stroke="#63b8ff" d="M144.55,-146.26C151.38,-137.49 158.73,-128.05 165.02,-119.98"/>
<polygon fill="#63b8ff" stroke="#63b8ff" points="142,-143.84 138.62,-153.88 147.52,-148.14 142,-143.84"/>
</a>
</g>
</g>
<!-- Node3&#45;&gt;Node2 -->
<g id="edge3_Node000003_Node000002" class="edge">
<title>Node3&#45;&gt;Node2</title>
<g id="a_edge3_Node000003_Node000002"><a xlink:title=" ">
<path fill="none" stroke="#63b8ff" d="M140.15,-71.26C125.45,-61.74 109.1,-51.15 95.32,-42.23"/>
<polygon fill="#63b8ff" stroke="#63b8ff" points="137.95,-74.01 148.25,-76.5 141.76,-68.13 137.95,-74.01"/>
</a>
</g>
</g>
<!-- Node4 -->
<g id="Node000004" class="node">
<title>Node4</title>
<g id="a_Node000004"><a xlink:href="CommandFacility_8cpp.html" target="_top" xlink:title=" ">
<polygon fill="white" stroke="#666666" points="274.12,-41.75 145.62,-41.75 145.62,0 274.12,0 274.12,-41.75"/>
<text text-anchor="start" x="153.62" y="-28.25" font-family="Helvetica,sans-Serif" font-size="10.00">/github/workspace/dev</text>
<text text-anchor="start" x="153.62" y="-17" font-family="Helvetica,sans-Serif" font-size="10.00">_area/sourcecode/cmdlib</text>
<text text-anchor="middle" x="209.88" y="-5.75" font-family="Helvetica,sans-Serif" font-size="10.00">/src/CommandFacility.cpp</text>
</a>
</g>
</g>
<!-- Node3&#45;&gt;Node4 -->
<g id="edge4_Node000003_Node000004" class="edge">
<title>Node3&#45;&gt;Node4</title>
<g id="a_edge4_Node000003_Node000004"><a xlink:title=" ">
<path fill="none" stroke="#63b8ff" d="M192.66,-66.84C195.83,-58.55 199.19,-49.79 202.08,-42.23"/>
<polygon fill="#63b8ff" stroke="#63b8ff" points="189.49,-65.32 189.19,-75.91 196.03,-67.82 189.49,-65.32"/>
</a>
</g>
</g>
</g>
</svg>
