<?xml version="1.0" encoding="UTF-8" standalone="no"?>
<!DOCTYPE svg PUBLIC "-//W3C//DTD SVG 1.1//EN"
 "http://www.w3.org/Graphics/SVG/1.1/DTD/svg11.dtd">
<!-- Generated by graphviz version 9.0.0 (20230911.1827)
 -->
<!-- Title: /github/workspace/dev_area/sourcecode/cmdlib/include/cmdlib/CommandFacility.hpp Pages: 1 -->
<svg width="282pt" height="128pt"
 viewBox="0.00 0.00 282.12 127.50" xmlns="http://www.w3.org/2000/svg" xmlns:xlink="http://www.w3.org/1999/xlink">
<g id="graph0" class="graph" transform="scale(1 1) rotate(0) translate(4 123.5)">
<title>/github/workspace/dev_area/sourcecode/cmdlib/include/cmdlib/CommandFacility.hpp</title>
<!-- Node1 -->
<g id="Node000001" class="node">
<title>Node1</title>
<g id="a_Node000001"><a xlink:title=" ">
<polygon fill="#999999" stroke="#666666" points="225.5,-119.5 48.25,-119.5 48.25,-77.75 225.5,-77.75 225.5,-119.5"/>
<text text-anchor="start" x="56.25" y="-106" font-family="Helvetica,sans-Serif" font-size="10.00">/github/workspace/dev</text>
<text text-anchor="start" x="56.25" y="-94.75" font-family="Helvetica,sans-Serif" font-size="10.00">_area/sourcecode/cmdlib</text>
<text text-anchor="middle" x="136.88" y="-83.5" font-family="Helvetica,sans-Serif" font-size="10.00">/include/cmdlib/CommandFacility.hpp</text>
</a>
</g>
</g>
<!-- Node2 -->
<g id="Node000002" class="node">
<title>Node2</title>
<g id="a_Node000002"><a xlink:href="sourcecode_2appfwk_2src_2Application_8hpp.html" target="_top" xlink:title=" ">
<polygon fill="white" stroke="#666666" points="127.75,-41.75 0,-41.75 0,0 127.75,0 127.75,-41.75"/>
<text text-anchor="start" x="8" y="-28.25" font-family="Helvetica,sans-Serif" font-size="10.00">/github/workspace/dev</text>
<text text-anchor="start" x="8" y="-17" font-family="Helvetica,sans-Serif" font-size="10.00">_area/sourcecode/appfwk</text>
<text text-anchor="middle" x="63.88" y="-5.75" font-family="Helvetica,sans-Serif" font-size="10.00">/src/Application.hpp</text>
</a>
</g>
</g>
<!-- Node1&#45;&gt;Node2 -->
<g id="edge1_Node000001_Node000002" class="edge">
<title>Node1&#45;&gt;Node2</title>
<g id="a_edge1_Node000001_Node000002"><a xlink:title=" ">
<path fill="none" stroke="#63b8ff" d="M109.35,-69.06C100.75,-60.14 91.44,-50.47 83.49,-42.23"/>
<polygon fill="#63b8ff" stroke="#63b8ff" points="106.8,-71.46 116.26,-76.24 111.84,-66.61 106.8,-71.46"/>
</a>
</g>
</g>
<!-- Node3 -->
<g id="Node000003" class="node">
<title>Node3</title>
<g id="a_Node000003"><a xlink:href="CommandFacility_8cpp.html" target="_top" xlink:title=" ">
<polygon fill="white" stroke="#666666" points="274.12,-41.75 145.62,-41.75 145.62,0 274.12,0 274.12,-41.75"/>
<text text-anchor="start" x="153.62" y="-28.25" font-family="Helvetica,sans-Serif" font-size="10.00">/github/workspace/dev</text>
<text text-anchor="start" x="153.62" y="-17" font-family="Helvetica,sans-Serif" font-size="10.00">_area/sourcecode/cmdlib</text>
<text text-anchor="middle" x="209.88" y="-5.75" font-family="Helvetica,sans-Serif" font-size="10.00">/src/CommandFacility.cpp</text>
</a>
</g>
</g>
<!-- Node1&#45;&gt;Node3 -->
<g id="edge2_Node000001_Node000003" class="edge">
<title>Node1&#45;&gt;Node3</title>
<g id="a_edge2_Node000001_Node000003"><a xlink:title=" ">
<path fill="none" stroke="#63b8ff" d="M164.4,-69.06C173,-60.14 182.31,-50.47 190.26,-42.23"/>
<polygon fill="#63b8ff" stroke="#63b8ff" points="161.91,-66.61 157.49,-76.24 166.95,-71.46 161.91,-66.61"/>
</a>
</g>
</g>
</g>
</svg>
