<?xml version="1.0" encoding="UTF-8" standalone="no"?>
<!DOCTYPE svg PUBLIC "-//W3C//DTD SVG 1.1//EN"
 "http://www.w3.org/Graphics/SVG/1.1/DTD/svg11.dtd">
<!-- Generated by graphviz version 9.0.0 (20230911.1827)
 -->
<!-- Title: /github/workspace/dev_area/sourcecode/iomanager/include/iomanager/network/ConfigClient.hpp Pages: 1 -->
<svg width="2339pt" height="537pt"
 viewBox="0.00 0.00 2338.50 536.75" xmlns="http://www.w3.org/2000/svg" xmlns:xlink="http://www.w3.org/1999/xlink">
<g id="graph0" class="graph" transform="scale(1 1) rotate(0) translate(4 532.75)">
<title>/github/workspace/dev_area/sourcecode/iomanager/include/iomanager/network/ConfigClient.hpp</title>
<!-- Node1 -->
<g id="Node000001" class="node">
<title>Node1</title>
<g id="a_Node000001"><a xlink:title=" ">
<polygon fill="#999999" stroke="#666666" points="1719.62,-528.75 1578.38,-528.75 1578.38,-475.75 1719.62,-475.75 1719.62,-528.75"/>
<text text-anchor="start" x="1586.38" y="-515.25" font-family="Helvetica,sans-Serif" font-size="10.00">/github/workspace/dev</text>
<text text-anchor="start" x="1586.38" y="-504" font-family="Helvetica,sans-Serif" font-size="10.00">_area/sourcecode/iomanager</text>
<text text-anchor="start" x="1586.38" y="-492.75" font-family="Helvetica,sans-Serif" font-size="10.00">/include/iomanager/network</text>
<text text-anchor="middle" x="1649" y="-481.5" font-family="Helvetica,sans-Serif" font-size="10.00">/ConfigClient.hpp</text>
</a>
</g>
</g>
<!-- Node2 -->
<g id="Node000002" class="node">
<title>Node2</title>
<g id="a_Node000002"><a xlink:href="SchemaUtils_8hpp.html" target="_top" xlink:title=" ">
<polygon fill="white" stroke="#666666" points="1402.12,-373.25 1263.88,-373.25 1263.88,-354 1402.12,-354 1402.12,-373.25"/>
<text text-anchor="middle" x="1333" y="-359.75" font-family="Helvetica,sans-Serif" font-size="10.00">iomanager/SchemaUtils.hpp</text>
</a>
</g>
</g>
<!-- Node1&#45;&gt;Node2 -->
<g id="edge1_Node000001_Node000002" class="edge">
<title>Node1&#45;&gt;Node2</title>
<g id="a_edge1_Node000001_Node000002"><a xlink:title=" ">
<path fill="none" stroke="#63b8ff" d="M1577.95,-489.41C1532.73,-480.03 1473.88,-464.33 1426,-439.75 1396.12,-424.41 1366.86,-398.45 1349.38,-381.43"/>
<polygon fill="#63b8ff" stroke="#63b8ff" points="1351.99,-379.09 1342.43,-374.51 1347.05,-384.05 1351.99,-379.09"/>
</a>
</g>
</g>
<!-- Node5 -->
<g id="Node000005" class="node">
<title>Node5</title>
<g id="a_Node000005"><a xlink:title=" ">
<polygon fill="#e0e0e0" stroke="#999999" points="386,-74.5 346,-74.5 346,-55.25 386,-55.25 386,-74.5"/>
<text text-anchor="middle" x="366" y="-61" font-family="Helvetica,sans-Serif" font-size="10.00">string</text>
</a>
</g>
</g>
<!-- Node1&#45;&gt;Node5 -->
<g id="edge62_Node000001_Node000005" class="edge">
<title>Node1&#45;&gt;Node5</title>
<g id="a_edge62_Node000001_Node000005"><a xlink:title=" ">
<path fill="none" stroke="#63b8ff" d="M1577.88,-499.14C1261.81,-489.31 0,-445.04 0,-364.62 0,-364.62 0,-364.62 0,-191.25 0,-151 8.03,-133.59 41,-110.5 92.73,-74.27 255.82,-86.66 334.53,-74.42"/>
<polygon fill="#63b8ff" stroke="#63b8ff" points="334.81,-77.93 344.02,-72.7 333.56,-71.04 334.81,-77.93"/>
</a>
</g>
</g>
<!-- Node6 -->
<g id="Node000006" class="node">
<title>Node6</title>
<g id="a_Node000006"><a xlink:title=" ">
<polygon fill="#e0e0e0" stroke="#999999" points="1378.5,-74.5 1335.5,-74.5 1335.5,-55.25 1378.5,-55.25 1378.5,-74.5"/>
<text text-anchor="middle" x="1357" y="-61" font-family="Helvetica,sans-Serif" font-size="10.00">vector</text>
</a>
</g>
</g>
<!-- Node1&#45;&gt;Node6 -->
<g id="edge64_Node000001_Node000006" class="edge">
<title>Node1&#45;&gt;Node6</title>
<g id="a_edge64_Node000001_Node000006"><a xlink:title=" ">
<path fill="none" stroke="#63b8ff" d="M1611.45,-475.42C1600.08,-465.62 1588.81,-453.47 1582,-439.75 1516.61,-308.11 1647.84,-221.07 1551,-110.5 1530.17,-86.72 1440.06,-74.14 1390.31,-68.9"/>
<polygon fill="#63b8ff" stroke="#63b8ff" points="1390.7,-65.42 1380.4,-67.9 1390,-72.38 1390.7,-65.42"/>
</a>
</g>
</g>
<!-- Node12 -->
<g id="Node000012" class="node">
<title>Node12</title>
<g id="a_Node000012"><a xlink:title=" ">
<polygon fill="#e0e0e0" stroke="#999999" points="1374.38,-135.38 1339.62,-135.38 1339.62,-116.12 1374.38,-116.12 1374.38,-135.38"/>
<text text-anchor="middle" x="1357" y="-121.88" font-family="Helvetica,sans-Serif" font-size="10.00">map</text>
</a>
</g>
</g>
<!-- Node1&#45;&gt;Node12 -->
<g id="edge63_Node000001_Node000012" class="edge">
<title>Node1&#45;&gt;Node12</title>
<g id="a_edge63_Node000001_Node000012"><a xlink:title=" ">
<path fill="none" stroke="#63b8ff" d="M1591.39,-475.27C1575.85,-465.95 1560.25,-454.11 1549,-439.75 1527.39,-412.15 1525,-399.68 1525,-364.62 1525,-364.62 1525,-364.62 1525,-252.12 1525,-183.37 1433.5,-147.81 1385.56,-133.9"/>
<polygon fill="#63b8ff" stroke="#63b8ff" points="1386.69,-130.58 1376.12,-131.3 1384.83,-137.33 1386.69,-130.58"/>
</a>
</g>
</g>
<!-- Node34 -->
<g id="Node000034" class="node">
<title>Node34</title>
<g id="a_Node000034"><a xlink:title=" ">
<polygon fill="#e0e0e0" stroke="#999999" points="1458.5,-262.75 1361.5,-262.75 1361.5,-243.5 1458.5,-243.5 1458.5,-262.75"/>
<text text-anchor="middle" x="1410" y="-249.25" font-family="Helvetica,sans-Serif" font-size="10.00">nlohmann/json.hpp</text>
</a>
</g>
</g>
<!-- Node1&#45;&gt;Node34 -->
<g id="edge56_Node000001_Node000034" class="edge">
<title>Node1&#45;&gt;Node34</title>
<g id="a_edge56_Node000001_Node000034"><a xlink:title=" ">
<path fill="none" stroke="#63b8ff" d="M1578.12,-479.97C1554.78,-470.43 1529.98,-457.28 1511,-439.75 1459.19,-391.88 1428.23,-311.21 1416.03,-274.01"/>
<polygon fill="#63b8ff" stroke="#63b8ff" points="1419.41,-273.1 1413.06,-264.62 1412.74,-275.21 1419.41,-273.1"/>
</a>
</g>
</g>
<!-- Node38 -->
<g id="Node000038" class="node">
<title>Node38</title>
<g id="a_Node000038"><a xlink:href="ConfigClientStructs_8hpp.html" target="_top" xlink:title=" ">
<polygon fill="white" stroke="#666666" points="1157.25,-439.75 1028.75,-439.75 1028.75,-409.25 1157.25,-409.25 1157.25,-439.75"/>
<text text-anchor="start" x="1036.75" y="-426.25" font-family="Helvetica,sans-Serif" font-size="10.00">iomanager/network/Config</text>
<text text-anchor="middle" x="1093" y="-415" font-family="Helvetica,sans-Serif" font-size="10.00">ClientStructs.hpp</text>
</a>
</g>
</g>
<!-- Node1&#45;&gt;Node38 -->
<g id="edge52_Node000001_Node000038" class="edge">
<title>Node1&#45;&gt;Node38</title>
<g id="a_edge52_Node000001_Node000038"><a xlink:title=" ">
<path fill="none" stroke="#63b8ff" d="M1578.02,-491.58C1472.83,-477.25 1276.44,-450.49 1168.64,-435.8"/>
<polygon fill="#63b8ff" stroke="#63b8ff" points="1169.41,-432.38 1159.03,-434.5 1168.47,-439.31 1169.41,-432.38"/>
</a>
</g>
</g>
<!-- Node39 -->
<g id="Node000039" class="node">
<title>Node39</title>
<g id="a_Node000039"><a xlink:title=" ">
<polygon fill="#e0e0e0" stroke="#999999" points="1707.25,-434.12 1590.75,-434.12 1590.75,-414.88 1707.25,-414.88 1707.25,-434.12"/>
<text text-anchor="middle" x="1649" y="-420.62" font-family="Helvetica,sans-Serif" font-size="10.00">boost/asio/connect.hpp</text>
</a>
</g>
</g>
<!-- Node1&#45;&gt;Node39 -->
<g id="edge57_Node000001_Node000039" class="edge">
<title>Node1&#45;&gt;Node39</title>
<g id="a_edge57_Node000001_Node000039"><a xlink:title=" ">
<path fill="none" stroke="#63b8ff" d="M1649,-475.6C1649,-465.92 1649,-455.04 1649,-445.9"/>
<polygon fill="#63b8ff" stroke="#63b8ff" points="1652.5,-445.95 1649,-435.95 1645.5,-445.95 1652.5,-445.95"/>
</a>
</g>
</g>
<!-- Node40 -->
<g id="Node000040" class="node">
<title>Node40</title>
<g id="a_Node000040"><a xlink:title=" ">
<polygon fill="#e0e0e0" stroke="#999999" points="1822.88,-439.75 1725.12,-439.75 1725.12,-409.25 1822.88,-409.25 1822.88,-439.75"/>
<text text-anchor="start" x="1733.12" y="-426.25" font-family="Helvetica,sans-Serif" font-size="10.00">boost/asio/ip/basic</text>
<text text-anchor="middle" x="1774" y="-415" font-family="Helvetica,sans-Serif" font-size="10.00">_resolver.hpp</text>
</a>
</g>
</g>
<!-- Node1&#45;&gt;Node40 -->
<g id="edge58_Node000001_Node000040" class="edge">
<title>Node1&#45;&gt;Node40</title>
<g id="a_edge58_Node000001_Node000040"><a xlink:title=" ">
<path fill="none" stroke="#63b8ff" d="M1691.67,-475.39C1707.41,-465.85 1725.03,-455.17 1739.92,-446.15"/>
<polygon fill="#63b8ff" stroke="#63b8ff" points="1741.7,-449.17 1748.44,-440.99 1738.07,-443.18 1741.7,-449.17"/>
</a>
</g>
</g>
<!-- Node41 -->
<g id="Node000041" class="node">
<title>Node41</title>
<g id="a_Node000041"><a xlink:title=" ">
<polygon fill="#e0e0e0" stroke="#999999" points="1947,-434.12 1841,-434.12 1841,-414.88 1947,-414.88 1947,-434.12"/>
<text text-anchor="middle" x="1894" y="-420.62" font-family="Helvetica,sans-Serif" font-size="10.00">boost/asio/ip/tcp.hpp</text>
</a>
</g>
</g>
<!-- Node1&#45;&gt;Node41 -->
<g id="edge59_Node000001_Node000041" class="edge">
<title>Node1&#45;&gt;Node41</title>
<g id="a_edge59_Node000001_Node000041"><a xlink:title=" ">
<path fill="none" stroke="#63b8ff" d="M1719.86,-479.34C1763.41,-465.88 1817.61,-449.12 1853.87,-437.91"/>
<polygon fill="#63b8ff" stroke="#63b8ff" points="1854.55,-441.36 1863.07,-435.06 1852.48,-434.67 1854.55,-441.36"/>
</a>
</g>
</g>
<!-- Node42 -->
<g id="Node000042" class="node">
<title>Node42</title>
<g id="a_Node000042"><a xlink:title=" ">
<polygon fill="#e0e0e0" stroke="#999999" points="2071.38,-434.12 1964.62,-434.12 1964.62,-414.88 2071.38,-414.88 2071.38,-434.12"/>
<text text-anchor="middle" x="2018" y="-420.62" font-family="Helvetica,sans-Serif" font-size="10.00">boost/beast/core.hpp</text>
</a>
</g>
</g>
<!-- Node1&#45;&gt;Node42 -->
<g id="edge60_Node000001_Node000042" class="edge">
<title>Node1&#45;&gt;Node42</title>
<g id="a_edge60_Node000001_Node000042"><a xlink:title=" ">
<path fill="none" stroke="#63b8ff" d="M1719.84,-487.65C1782.14,-475.54 1875.22,-457.12 1956,-439.75 1960.02,-438.89 1964.17,-437.97 1968.35,-437.04"/>
<polygon fill="#63b8ff" stroke="#63b8ff" points="1968.88,-440.51 1977.87,-434.9 1967.34,-433.68 1968.88,-440.51"/>
</a>
</g>
</g>
<!-- Node43 -->
<g id="Node000043" class="node">
<title>Node43</title>
<g id="a_Node000043"><a xlink:title=" ">
<polygon fill="#e0e0e0" stroke="#999999" points="2208.75,-434.12 2089.25,-434.12 2089.25,-414.88 2208.75,-414.88 2208.75,-434.12"/>
<text text-anchor="middle" x="2149" y="-420.62" font-family="Helvetica,sans-Serif" font-size="10.00">boost/beast/version.hpp</text>
</a>
</g>
</g>
<!-- Node1&#45;&gt;Node43 -->
<g id="edge61_Node000001_Node000043" class="edge">
<title>Node1&#45;&gt;Node43</title>
<g id="a_edge61_Node000001_Node000043"><a xlink:title=" ">
<path fill="none" stroke="#63b8ff" d="M1719.76,-492.52C1805.33,-481.65 1953.6,-461.8 2080,-439.75 2085.22,-438.84 2090.66,-437.83 2096.08,-436.78"/>
<polygon fill="#63b8ff" stroke="#63b8ff" points="2096.51,-440.26 2105.63,-434.88 2095.14,-433.39 2096.51,-440.26"/>
</a>
</g>
</g>
<!-- Node44 -->
<g id="Node000044" class="node">
<title>Node44</title>
<g id="a_Node000044"><a xlink:title=" ">
<polygon fill="#e0e0e0" stroke="#999999" points="2269.12,-434.12 2226.88,-434.12 2226.88,-414.88 2269.12,-414.88 2269.12,-434.12"/>
<text text-anchor="middle" x="2248" y="-420.62" font-family="Helvetica,sans-Serif" font-size="10.00">mutex</text>
</a>
</g>
</g>
<!-- Node1&#45;&gt;Node44 -->
<g id="edge65_Node000001_Node000044" class="edge">
<title>Node1&#45;&gt;Node44</title>
<g id="a_edge65_Node000001_Node000044"><a xlink:title=" ">
<path fill="none" stroke="#63b8ff" d="M1720.08,-501.15C1829.22,-499.31 2043.75,-489.02 2218,-439.75 2219,-439.47 2220,-439.16 2221,-438.82"/>
<polygon fill="#63b8ff" stroke="#63b8ff" points="2222.22,-442.1 2230.17,-435.09 2219.58,-435.62 2222.22,-442.1"/>
</a>
</g>
</g>
<!-- Node45 -->
<g id="Node000045" class="node">
<title>Node45</title>
<g id="a_Node000045"><a xlink:title=" ">
<polygon fill="#e0e0e0" stroke="#999999" points="2330.5,-434.12 2287.5,-434.12 2287.5,-414.88 2330.5,-414.88 2330.5,-434.12"/>
<text text-anchor="middle" x="2309" y="-420.62" font-family="Helvetica,sans-Serif" font-size="10.00">thread</text>
</a>
</g>
</g>
<!-- Node1&#45;&gt;Node45 -->
<g id="edge66_Node000001_Node000045" class="edge">
<title>Node1&#45;&gt;Node45</title>
<g id="a_edge66_Node000001_Node000045"><a xlink:title=" ">
<path fill="none" stroke="#63b8ff" d="M1719.7,-501.92C1837.57,-501.38 2080.73,-493.11 2278,-439.75 2279.17,-439.43 2280.36,-439.08 2281.54,-438.69"/>
<polygon fill="#63b8ff" stroke="#63b8ff" points="2282.59,-442.04 2290.6,-435.1 2280.01,-435.53 2282.59,-442.04"/>
</a>
</g>
</g>
<!-- Node3 -->
<g id="Node000003" class="node">
<title>Node3</title>
<g id="a_Node000003"><a xlink:href="iomanager_2codegen_2include_2iomanager_2connection_2Structs_8hpp.html" target="_top" xlink:title=" ">
<polygon fill="white" stroke="#666666" points="1541.62,-141 1430.38,-141 1430.38,-110.5 1541.62,-110.5 1541.62,-141"/>
<text text-anchor="start" x="1438.38" y="-127.5" font-family="Helvetica,sans-Serif" font-size="10.00">iomanager/connection</text>
<text text-anchor="middle" x="1486" y="-116.25" font-family="Helvetica,sans-Serif" font-size="10.00">/Structs.hpp</text>
</a>
</g>
</g>
<!-- Node2&#45;&gt;Node3 -->
<g id="edge2_Node000002_Node000003" class="edge">
<title>Node2&#45;&gt;Node3</title>
<g id="a_edge2_Node000002_Node000003"><a xlink:title=" ">
<path fill="none" stroke="#63b8ff" d="M1355.87,-353.58C1387.76,-339.56 1444.34,-309.26 1468,-262.75 1485.87,-227.62 1488.16,-181.07 1487.54,-152.55"/>
<polygon fill="#63b8ff" stroke="#63b8ff" points="1491.05,-152.54 1487.18,-142.68 1484.05,-152.8 1491.05,-152.54"/>
</a>
</g>
</g>
<!-- Node7 -->
<g id="Node000007" class="node">
<title>Node7</title>
<g id="a_Node000007"><a xlink:href="Serialization_8hpp.html" target="_top" xlink:title=" ">
<polygon fill="white" stroke="#666666" points="1032.25,-318 891.75,-318 891.75,-298.75 1032.25,-298.75 1032.25,-318"/>
<text text-anchor="middle" x="962" y="-304.5" font-family="Helvetica,sans-Serif" font-size="10.00">serialization/Serialization.hpp</text>
</a>
</g>
</g>
<!-- Node2&#45;&gt;Node7 -->
<g id="edge6_Node000002_Node000007" class="edge">
<title>Node2&#45;&gt;Node7</title>
<g id="a_edge6_Node000002_Node000007"><a xlink:title=" ">
<path fill="none" stroke="#63b8ff" d="M1269.64,-353.53C1205.05,-344.26 1104.88,-329.88 1036.51,-320.07"/>
<polygon fill="#63b8ff" stroke="#63b8ff" points="1037.3,-316.65 1026.9,-318.69 1036.3,-323.58 1037.3,-316.65"/>
</a>
</g>
</g>
<!-- Node14 -->
<g id="Node000014" class="node">
<title>Node14</title>
<g id="a_Node000014"><a xlink:title=" ">
<polygon fill="#e0e0e0" stroke="#999999" points="1358.62,-201.88 1307.38,-201.88 1307.38,-182.62 1358.62,-182.62 1358.62,-201.88"/>
<text text-anchor="middle" x="1333" y="-188.38" font-family="Helvetica,sans-Serif" font-size="10.00">sstream</text>
</a>
</g>
</g>
<!-- Node2&#45;&gt;Node14 -->
<g id="edge51_Node000002_Node000014" class="edge">
<title>Node2&#45;&gt;Node14</title>
<g id="a_edge51_Node000002_Node000014"><a xlink:title=" ">
<path fill="none" stroke="#63b8ff" d="M1333,-353.52C1333,-327.09 1333,-249.91 1333,-213.16"/>
<polygon fill="#63b8ff" stroke="#63b8ff" points="1336.5,-213.51 1333,-203.51 1329.5,-213.51 1336.5,-213.51"/>
</a>
</g>
</g>
<!-- Node36 -->
<g id="Node000036" class="node">
<title>Node36</title>
<g id="a_Node000036"><a xlink:title=" ">
<polygon fill="#e0e0e0" stroke="#999999" points="1305,-318 1247,-318 1247,-298.75 1305,-298.75 1305,-318"/>
<text text-anchor="middle" x="1276" y="-304.5" font-family="Helvetica,sans-Serif" font-size="10.00">functional</text>
</a>
</g>
</g>
<!-- Node2&#45;&gt;Node36 -->
<g id="edge49_Node000002_Node000036" class="edge">
<title>Node2&#45;&gt;Node36</title>
<g id="a_edge49_Node000002_Node000036"><a xlink:title=" ">
<path fill="none" stroke="#63b8ff" d="M1323.33,-353.59C1315.26,-346.05 1303.53,-335.1 1293.78,-325.98"/>
<polygon fill="#63b8ff" stroke="#63b8ff" points="1296.33,-323.58 1286.63,-319.31 1291.55,-328.69 1296.33,-323.58"/>
</a>
</g>
</g>
<!-- Node37 -->
<g id="Node000037" class="node">
<title>Node37</title>
<g id="a_Node000037"><a xlink:title=" ">
<polygon fill="#e0e0e0" stroke="#999999" points="1400.62,-318 1361.38,-318 1361.38,-298.75 1400.62,-298.75 1400.62,-318"/>
<text text-anchor="middle" x="1381" y="-304.5" font-family="Helvetica,sans-Serif" font-size="10.00">regex</text>
</a>
</g>
</g>
<!-- Node2&#45;&gt;Node37 -->
<g id="edge50_Node000002_Node000037" class="edge">
<title>Node2&#45;&gt;Node37</title>
<g id="a_edge50_Node000002_Node000037"><a xlink:title=" ">
<path fill="none" stroke="#63b8ff" d="M1340.93,-353.83C1347.56,-346.48 1357.22,-335.76 1365.39,-326.69"/>
<polygon fill="#63b8ff" stroke="#63b8ff" points="1367.79,-329.25 1371.89,-319.48 1362.59,-324.57 1367.79,-329.25"/>
</a>
</g>
</g>
<!-- Node4 -->
<g id="Node000004" class="node">
<title>Node4</title>
<g id="a_Node000004"><a xlink:title=" ">
<polygon fill="#e0e0e0" stroke="#999999" points="1508.62,-74.5 1463.38,-74.5 1463.38,-55.25 1508.62,-55.25 1508.62,-74.5"/>
<text text-anchor="middle" x="1486" y="-61" font-family="Helvetica,sans-Serif" font-size="10.00">cstdint</text>
</a>
</g>
</g>
<!-- Node3&#45;&gt;Node4 -->
<g id="edge3_Node000003_Node000004" class="edge">
<title>Node3&#45;&gt;Node4</title>
<g id="a_edge3_Node000003_Node000004"><a xlink:title=" ">
<path fill="none" stroke="#63b8ff" d="M1486,-110.2C1486,-102.96 1486,-94.09 1486,-86.19"/>
<polygon fill="#63b8ff" stroke="#63b8ff" points="1489.5,-86.46 1486,-76.46 1482.5,-86.46 1489.5,-86.46"/>
</a>
</g>
</g>
<!-- Node3&#45;&gt;Node5 -->
<g id="edge4_Node000003_Node000005" class="edge">
<title>Node3&#45;&gt;Node5</title>
<g id="a_edge4_Node000003_Node000005"><a xlink:title=" ">
<path fill="none" stroke="#63b8ff" d="M1429.98,-116.03C1414.77,-113.93 1398.28,-111.89 1383,-110.5 995.91,-75.31 523.33,-67.65 397.83,-66.19"/>
<polygon fill="#63b8ff" stroke="#63b8ff" points="398.02,-62.69 387.98,-66.08 397.94,-69.69 398.02,-62.69"/>
</a>
</g>
</g>
<!-- Node3&#45;&gt;Node6 -->
<g id="edge5_Node000003_Node000006" class="edge">
<title>Node3&#45;&gt;Node6</title>
<g id="a_edge5_Node000003_Node000006"><a xlink:title=" ">
<path fill="none" stroke="#63b8ff" d="M1453.78,-110.05C1433.38,-100.73 1407.17,-88.77 1387.18,-79.65"/>
<polygon fill="#63b8ff" stroke="#63b8ff" points="1388.71,-76.5 1378.16,-75.53 1385.8,-82.87 1388.71,-76.5"/>
</a>
</g>
</g>
<!-- Node7&#45;&gt;Node5 -->
<g id="edge47_Node000007_Node000005" class="edge">
<title>Node7&#45;&gt;Node5</title>
<g id="a_edge47_Node000007_Node000005"><a xlink:title=" ">
<path fill="none" stroke="#63b8ff" d="M891.45,-304.53C694.17,-295.87 147.77,-266.7 95,-207.5 66.31,-175.32 66.85,-143.15 95,-110.5 128.56,-71.58 267.49,-84.6 334.87,-74.31"/>
<polygon fill="#63b8ff" stroke="#63b8ff" points="335.13,-77.82 344.33,-72.55 333.85,-70.94 335.13,-77.82"/>
</a>
</g>
</g>
<!-- Node7&#45;&gt;Node6 -->
<g id="edge48_Node000007_Node000006" class="edge">
<title>Node7&#45;&gt;Node6</title>
<g id="a_edge48_Node000007_Node000006"><a xlink:title=" ">
<path fill="none" stroke="#63b8ff" d="M1032.57,-298.98C1136.05,-285.24 1321.75,-254.66 1368,-207.5 1398.55,-176.36 1394.37,-152.61 1383,-110.5 1380.49,-101.22 1375.52,-91.88 1370.59,-84.16"/>
<polygon fill="#63b8ff" stroke="#63b8ff" points="1373.55,-82.29 1364.99,-76.05 1367.79,-86.27 1373.55,-82.29"/>
</a>
</g>
</g>
<!-- Node8 -->
<g id="Node000008" class="node">
<title>Node8</title>
<g id="a_Node000008"><a xlink:href="Issue_8hpp.html" target="_top" xlink:title=" ">
<polygon fill="white" stroke="#666666" points="999.25,-262.75 924.75,-262.75 924.75,-243.5 999.25,-243.5 999.25,-262.75"/>
<text text-anchor="middle" x="962" y="-249.25" font-family="Helvetica,sans-Serif" font-size="10.00">ers/Issue.hpp</text>
</a>
</g>
</g>
<!-- Node7&#45;&gt;Node8 -->
<g id="edge7_Node000007_Node000008" class="edge">
<title>Node7&#45;&gt;Node8</title>
<g id="a_edge7_Node000007_Node000008"><a xlink:title=" ">
<path fill="none" stroke="#63b8ff" d="M962,-298.58C962,-292.07 962,-282.92 962,-274.62"/>
<polygon fill="#63b8ff" stroke="#63b8ff" points="965.5,-274.62 962,-264.62 958.5,-274.62 965.5,-274.62"/>
</a>
</g>
</g>
<!-- Node32 -->
<g id="Node000032" class="node">
<title>Node32</title>
<g id="a_Node000032"><a xlink:title=" ">
<polygon fill="#e0e0e0" stroke="#999999" points="906.62,-262.75 789.38,-262.75 789.38,-243.5 906.62,-243.5 906.62,-262.75"/>
<text text-anchor="middle" x="848" y="-249.25" font-family="Helvetica,sans-Serif" font-size="10.00">boost/preprocessor.hpp</text>
</a>
</g>
</g>
<!-- Node7&#45;&gt;Node32 -->
<g id="edge43_Node000007_Node000032" class="edge">
<title>Node7&#45;&gt;Node32</title>
<g id="a_edge43_Node000007_Node000032"><a xlink:title=" ">
<path fill="none" stroke="#63b8ff" d="M942.66,-298.34C924.89,-290.04 898.28,-277.61 877.8,-268.04"/>
<polygon fill="#63b8ff" stroke="#63b8ff" points="879.35,-264.9 868.8,-263.84 876.38,-271.25 879.35,-264.9"/>
</a>
</g>
</g>
<!-- Node33 -->
<g id="Node000033" class="node">
<title>Node33</title>
<g id="a_Node000033"><a xlink:title=" ">
<polygon fill="#e0e0e0" stroke="#999999" points="696.88,-262.75 623.12,-262.75 623.12,-243.5 696.88,-243.5 696.88,-262.75"/>
<text text-anchor="middle" x="660" y="-249.25" font-family="Helvetica,sans-Serif" font-size="10.00">msgpack.hpp</text>
</a>
</g>
</g>
<!-- Node7&#45;&gt;Node33 -->
<g id="edge44_Node000007_Node000033" class="edge">
<title>Node7&#45;&gt;Node33</title>
<g id="a_edge44_Node000007_Node000033"><a xlink:title=" ">
<path fill="none" stroke="#63b8ff" d="M908.52,-298.26C859.13,-289.79 783.43,-276.7 708.24,-263.14"/>
<polygon fill="#63b8ff" stroke="#63b8ff" points="709.1,-259.74 698.64,-261.4 707.86,-266.62 709.1,-259.74"/>
</a>
</g>
</g>
<!-- Node7&#45;&gt;Node34 -->
<g id="edge45_Node000007_Node000034" class="edge">
<title>Node7&#45;&gt;Node34</title>
<g id="a_edge45_Node000007_Node000034"><a xlink:title=" ">
<path fill="none" stroke="#63b8ff" d="M1032.49,-299C1119.95,-288.6 1267.56,-271.06 1349.9,-261.27"/>
<polygon fill="#63b8ff" stroke="#63b8ff" points="1350.3,-264.75 1359.82,-260.09 1349.47,-257.79 1350.3,-264.75"/>
</a>
</g>
</g>
<!-- Node35 -->
<g id="Node000035" class="node">
<title>Node35</title>
<g id="a_Node000035"><a xlink:title=" ">
<polygon fill="#e0e0e0" stroke="#999999" points="770.88,-262.75 715.12,-262.75 715.12,-243.5 770.88,-243.5 770.88,-262.75"/>
<text text-anchor="middle" x="743" y="-249.25" font-family="Helvetica,sans-Serif" font-size="10.00">algorithm</text>
</a>
</g>
</g>
<!-- Node7&#45;&gt;Node35 -->
<g id="edge46_Node000007_Node000035" class="edge">
<title>Node7&#45;&gt;Node35</title>
<g id="a_edge46_Node000007_Node000035"><a xlink:title=" ">
<path fill="none" stroke="#63b8ff" d="M924.85,-298.34C885.22,-288.71 822.72,-273.51 782.29,-263.68"/>
<polygon fill="#63b8ff" stroke="#63b8ff" points="783.27,-260.32 772.73,-261.35 781.62,-267.12 783.27,-260.32"/>
</a>
</g>
</g>
<!-- Node8&#45;&gt;Node5 -->
<g id="edge12_Node000008_Node000005" class="edge">
<title>Node8&#45;&gt;Node5</title>
<g id="a_edge12_Node000008_Node000005"><a xlink:title=" ">
<path fill="none" stroke="#63b8ff" d="M924.35,-245.04C921.52,-244.52 918.72,-244 916,-243.5 827.17,-227.18 804.72,-224.4 716,-207.5 679.15,-200.48 412.17,-166.86 385,-141 370.25,-126.96 366.3,-103.25 365.53,-86.22"/>
<polygon fill="#63b8ff" stroke="#63b8ff" points="369.03,-86.25 365.46,-76.28 362.03,-86.31 369.03,-86.25"/>
</a>
</g>
</g>
<!-- Node9 -->
<g id="Node000009" class="node">
<title>Node9</title>
<g id="a_Node000009"><a xlink:title=" ">
<polygon fill="#e0e0e0" stroke="#999999" points="149.62,-201.88 104.38,-201.88 104.38,-182.62 149.62,-182.62 149.62,-201.88"/>
<text text-anchor="middle" x="127" y="-188.38" font-family="Helvetica,sans-Serif" font-size="10.00">math.h</text>
</a>
</g>
</g>
<!-- Node8&#45;&gt;Node9 -->
<g id="edge8_Node000008_Node000009" class="edge">
<title>Node8&#45;&gt;Node9</title>
<g id="a_edge8_Node000008_Node000009"><a xlink:title=" ">
<path fill="none" stroke="#63b8ff" d="M924.41,-244.64C921.57,-244.21 918.74,-243.82 916,-243.5 581.46,-204.37 486.7,-285.35 159,-207.5 157.6,-207.17 156.19,-206.78 154.78,-206.34"/>
<polygon fill="#63b8ff" stroke="#63b8ff" points="156.2,-203.13 145.61,-202.84 153.71,-209.68 156.2,-203.13"/>
</a>
</g>
</g>
<!-- Node10 -->
<g id="Node000010" class="node">
<title>Node10</title>
<g id="a_Node000010"><a xlink:title=" ">
<polygon fill="#e0e0e0" stroke="#999999" points="212.25,-201.88 167.75,-201.88 167.75,-182.62 212.25,-182.62 212.25,-201.88"/>
<text text-anchor="middle" x="190" y="-188.38" font-family="Helvetica,sans-Serif" font-size="10.00">stdio.h</text>
</a>
</g>
</g>
<!-- Node8&#45;&gt;Node10 -->
<g id="edge9_Node000008_Node000010" class="edge">
<title>Node8&#45;&gt;Node10</title>
<g id="a_edge9_Node000008_Node000010"><a xlink:title=" ">
<path fill="none" stroke="#63b8ff" d="M924.41,-244.65C921.57,-244.22 918.74,-243.83 916,-243.5 608.87,-206.92 521.34,-281.42 221,-207.5 219.79,-207.2 218.57,-206.86 217.35,-206.48"/>
<polygon fill="#63b8ff" stroke="#63b8ff" points="218.63,-203.22 208.04,-202.84 216.09,-209.74 218.63,-203.22"/>
</a>
</g>
</g>
<!-- Node11 -->
<g id="Node000011" class="node">
<title>Node11</title>
<g id="a_Node000011"><a xlink:title=" ">
<polygon fill="#e0e0e0" stroke="#999999" points="277.75,-201.88 230.25,-201.88 230.25,-182.62 277.75,-182.62 277.75,-201.88"/>
<text text-anchor="middle" x="254" y="-188.38" font-family="Helvetica,sans-Serif" font-size="10.00">string.h</text>
</a>
</g>
</g>
<!-- Node8&#45;&gt;Node11 -->
<g id="edge10_Node000008_Node000011" class="edge">
<title>Node8&#45;&gt;Node11</title>
<g id="a_edge10_Node000008_Node000011"><a xlink:title=" ">
<path fill="none" stroke="#63b8ff" d="M924.41,-244.67C921.57,-244.23 918.74,-243.83 916,-243.5 638.04,-209.63 559.49,-271.99 287,-207.5 285.41,-207.12 283.79,-206.67 282.18,-206.17"/>
<polygon fill="#63b8ff" stroke="#63b8ff" points="283.77,-203.03 273.18,-202.8 281.32,-209.59 283.77,-203.03"/>
</a>
</g>
</g>
<!-- Node8&#45;&gt;Node12 -->
<g id="edge11_Node000008_Node000012" class="edge">
<title>Node8&#45;&gt;Node12</title>
<g id="a_edge11_Node000008_Node000012"><a xlink:title=" ">
<path fill="none" stroke="#63b8ff" d="M999.36,-251.55C1054.6,-249.53 1160.43,-241.14 1243,-207.5 1280.76,-192.11 1318.09,-162.11 1339.27,-143.32"/>
<polygon fill="#63b8ff" stroke="#63b8ff" points="1341.39,-146.13 1346.44,-136.82 1336.68,-140.95 1341.39,-146.13"/>
</a>
</g>
</g>
<!-- Node13 -->
<g id="Node000013" class="node">
<title>Node13</title>
<g id="a_Node000013"><a xlink:title=" ">
<polygon fill="#e0e0e0" stroke="#999999" points="301.75,-19.25 248.25,-19.25 248.25,0 301.75,0 301.75,-19.25"/>
<text text-anchor="middle" x="275" y="-5.75" font-family="Helvetica,sans-Serif" font-size="10.00">iostream</text>
</a>
</g>
</g>
<!-- Node8&#45;&gt;Node13 -->
<g id="edge13_Node000008_Node000013" class="edge">
<title>Node8&#45;&gt;Node13</title>
<g id="a_edge13_Node000008_Node000013"><a xlink:title=" ">
<path fill="none" stroke="#63b8ff" d="M924.41,-244.63C921.57,-244.2 918.74,-243.82 916,-243.5 870.64,-238.28 126.57,-240.48 95,-207.5 65.19,-176.36 73.13,-147.65 95,-110.5 125.54,-58.62 193.82,-31.77 236.96,-19.48"/>
<polygon fill="#63b8ff" stroke="#63b8ff" points="237.67,-22.91 246.41,-16.92 235.84,-16.15 237.67,-22.91"/>
</a>
</g>
</g>
<!-- Node8&#45;&gt;Node14 -->
<g id="edge14_Node000008_Node000014" class="edge">
<title>Node8&#45;&gt;Node14</title>
<g id="a_edge14_Node000008_Node000014"><a xlink:title=" ">
<path fill="none" stroke="#63b8ff" d="M999.7,-249.61C1061.63,-244.9 1188.47,-232.87 1293,-207.5 1295.01,-207.01 1297.06,-206.46 1299.11,-205.87"/>
<polygon fill="#63b8ff" stroke="#63b8ff" points="1300.09,-209.23 1308.54,-202.83 1297.95,-202.56 1300.09,-209.23"/>
</a>
</g>
</g>
<!-- Node15 -->
<g id="Node000015" class="node">
<title>Node15</title>
<g id="a_Node000015"><a xlink:title=" ">
<polygon fill="#e0e0e0" stroke="#999999" points="472.25,-201.88 421.75,-201.88 421.75,-182.62 472.25,-182.62 472.25,-201.88"/>
<text text-anchor="middle" x="447" y="-188.38" font-family="Helvetica,sans-Serif" font-size="10.00">memory</text>
</a>
</g>
</g>
<!-- Node8&#45;&gt;Node15 -->
<g id="edge15_Node000008_Node000015" class="edge">
<title>Node8&#45;&gt;Node15</title>
<g id="a_edge15_Node000008_Node000015"><a xlink:title=" ">
<path fill="none" stroke="#63b8ff" d="M924.39,-244.75C921.56,-244.29 918.74,-243.87 916,-243.5 725.95,-217.8 673.29,-248.78 486,-207.5 483.84,-207.02 481.63,-206.45 479.42,-205.82"/>
<polygon fill="#63b8ff" stroke="#63b8ff" points="480.59,-202.53 470,-202.76 478.42,-209.18 480.59,-202.53"/>
</a>
</g>
</g>
<!-- Node16 -->
<g id="Node000016" class="node">
<title>Node16</title>
<g id="a_Node000016"><a xlink:title=" ">
<polygon fill="#e0e0e0" stroke="#999999" points="1141.62,-135.38 1096.38,-135.38 1096.38,-116.12 1141.62,-116.12 1141.62,-135.38"/>
<text text-anchor="middle" x="1119" y="-121.88" font-family="Helvetica,sans-Serif" font-size="10.00">chrono</text>
</a>
</g>
</g>
<!-- Node8&#45;&gt;Node16 -->
<g id="edge16_Node000008_Node000016" class="edge">
<title>Node8&#45;&gt;Node16</title>
<g id="a_edge16_Node000008_Node000016"><a xlink:title=" ">
<path fill="none" stroke="#63b8ff" d="M961.67,-243.46C961.58,-228.05 963.63,-195.76 981,-177 1015.09,-140.18 1041.36,-159.5 1088,-141 1088.62,-140.75 1089.24,-140.5 1089.87,-140.25"/>
<polygon fill="#63b8ff" stroke="#63b8ff" points="1090.94,-143.6 1098.73,-136.42 1088.16,-137.17 1090.94,-143.6"/>
</a>
</g>
</g>
<!-- Node17 -->
<g id="Node000017" class="node">
<title>Node17</title>
<g id="a_Node000017"><a xlink:title=" ">
<polygon fill="#e0e0e0" stroke="#999999" points="1018.4,-201.88 989.6,-201.88 989.6,-182.62 1018.4,-182.62 1018.4,-201.88"/>
<text text-anchor="middle" x="1004" y="-188.38" font-family="Helvetica,sans-Serif" font-size="10.00">list</text>
</a>
</g>
</g>
<!-- Node8&#45;&gt;Node17 -->
<g id="edge17_Node000008_Node000017" class="edge">
<title>Node8&#45;&gt;Node17</title>
<g id="a_edge17_Node000008_Node000017"><a xlink:title=" ">
<path fill="none" stroke="#63b8ff" d="M968.38,-243.18C974.36,-234.8 983.49,-222.01 991,-211.47"/>
<polygon fill="#63b8ff" stroke="#63b8ff" points="993.72,-213.68 996.68,-203.51 988.03,-209.62 993.72,-213.68"/>
</a>
</g>
</g>
<!-- Node18 -->
<g id="Node000018" class="node">
<title>Node18</title>
<g id="a_Node000018"><a xlink:href="IssueFactory_8hpp.html" target="_top" xlink:title=" ">
<polygon fill="white" stroke="#666666" points="1213.38,-201.88 1106.62,-201.88 1106.62,-182.62 1213.38,-182.62 1213.38,-201.88"/>
<text text-anchor="middle" x="1160" y="-188.38" font-family="Helvetica,sans-Serif" font-size="10.00">ers/IssueFactory.hpp</text>
</a>
</g>
</g>
<!-- Node8&#45;&gt;Node18 -->
<g id="edge18_Node000008_Node000018" class="edge">
<title>Node8&#45;&gt;Node18</title>
<g id="a_edge18_Node000008_Node000018"><a xlink:title=" ">
<path fill="none" stroke="#63b8ff" d="M992.5,-243.05C1026.37,-232.99 1081.21,-216.68 1118.85,-205.49"/>
<polygon fill="#63b8ff" stroke="#63b8ff" points="1119.42,-208.97 1128.01,-202.76 1117.43,-202.26 1119.42,-208.97"/>
</a>
</g>
</g>
<!-- Node19 -->
<g id="Node000019" class="node">
<title>Node19</title>
<g id="a_Node000019"><a xlink:href="Severity_8hpp.html" target="_top" xlink:title=" ">
<polygon fill="white" stroke="#666666" points="1283.88,-135.38 1198.12,-135.38 1198.12,-116.12 1283.88,-116.12 1283.88,-135.38"/>
<text text-anchor="middle" x="1241" y="-121.88" font-family="Helvetica,sans-Serif" font-size="10.00">ers/Severity.hpp</text>
</a>
</g>
</g>
<!-- Node8&#45;&gt;Node19 -->
<g id="edge35_Node000008_Node000019" class="edge">
<title>Node8&#45;&gt;Node19</title>
<g id="a_edge35_Node000008_Node000019"><a xlink:title=" ">
<path fill="none" stroke="#63b8ff" d="M999.63,-250.65C1063.78,-247.35 1190.48,-237.15 1222,-207.5 1238.29,-192.18 1241.81,-165.74 1242.06,-147.31"/>
<polygon fill="#63b8ff" stroke="#63b8ff" points="1245.55,-147.25 1241.84,-137.33 1238.56,-147.4 1245.55,-147.25"/>
</a>
</g>
</g>
<!-- Node20 -->
<g id="Node000020" class="node">
<title>Node20</title>
<g id="a_Node000020"><a xlink:href="LocalContext_8hpp.html" target="_top" xlink:title=" ">
<polygon fill="white" stroke="#666666" points="403.75,-201.88 296.25,-201.88 296.25,-182.62 403.75,-182.62 403.75,-201.88"/>
<text text-anchor="middle" x="350" y="-188.38" font-family="Helvetica,sans-Serif" font-size="10.00">ers/LocalContext.hpp</text>
</a>
</g>
</g>
<!-- Node8&#45;&gt;Node20 -->
<g id="edge27_Node000008_Node000020" class="edge">
<title>Node8&#45;&gt;Node20</title>
<g id="a_edge27_Node000008_Node000020"><a xlink:title=" ">
<path fill="none" stroke="#63b8ff" d="M924.4,-244.71C921.56,-244.27 918.74,-243.85 916,-243.5 693.72,-214.8 634.71,-240.32 413,-207.5 407.73,-206.72 402.25,-205.74 396.81,-204.66"/>
<polygon fill="#63b8ff" stroke="#63b8ff" points="397.79,-201.29 387.29,-202.65 396.35,-208.14 397.79,-201.29"/>
</a>
</g>
</g>
<!-- Node25 -->
<g id="Node000025" class="node">
<title>Node25</title>
<g id="a_Node000025"><a xlink:href="IssueDeclarationMacro_8hpp.html" target="_top" xlink:title=" ">
<polygon fill="white" stroke="#666666" points="864.88,-207.5 725.12,-207.5 725.12,-177 864.88,-177 864.88,-207.5"/>
<text text-anchor="start" x="733.12" y="-194" font-family="Helvetica,sans-Serif" font-size="10.00">ers/internal/IssueDeclaration</text>
<text text-anchor="middle" x="795" y="-182.75" font-family="Helvetica,sans-Serif" font-size="10.00">Macro.hpp</text>
</a>
</g>
</g>
<!-- Node8&#45;&gt;Node25 -->
<g id="edge36_Node000008_Node000025" class="edge">
<title>Node8&#45;&gt;Node25</title>
<g id="a_edge36_Node000008_Node000025"><a xlink:title=" ">
<path fill="none" stroke="#63b8ff" d="M936.27,-243.05C912.64,-234.72 876.9,-222.12 847.28,-211.68"/>
<polygon fill="#63b8ff" stroke="#63b8ff" points="848.7,-208.47 838.11,-208.45 846.38,-215.07 848.7,-208.47"/>
</a>
</g>
</g>
<!-- Node18&#45;&gt;Node5 -->
<g id="edge20_Node000018_Node000005" class="edge">
<title>Node18&#45;&gt;Node5</title>
<g id="a_edge20_Node000018_Node000005"><a xlink:title=" ">
<path fill="none" stroke="#63b8ff" d="M1162.22,-182.39C1165.84,-165.61 1170.77,-129.22 1151,-110.5 1123.19,-84.16 540.67,-69.7 397.55,-66.54"/>
<polygon fill="#63b8ff" stroke="#63b8ff" points="397.77,-63.04 387.69,-66.33 397.61,-70.04 397.77,-63.04"/>
</a>
</g>
</g>
<!-- Node18&#45;&gt;Node6 -->
<g id="edge21_Node000018_Node000006" class="edge">
<title>Node18&#45;&gt;Node6</title>
<g id="a_edge21_Node000018_Node000006"><a xlink:title=" ">
<path fill="none" stroke="#63b8ff" d="M1198.88,-182.15C1226.82,-174.33 1264.44,-161.1 1293,-141 1315.05,-125.49 1334.17,-100.66 1345.63,-83.83"/>
<polygon fill="#63b8ff" stroke="#63b8ff" points="1348.34,-86.09 1350.91,-75.81 1342.49,-82.24 1348.34,-86.09"/>
</a>
</g>
</g>
<!-- Node18&#45;&gt;Node12 -->
<g id="edge22_Node000018_Node000012" class="edge">
<title>Node18&#45;&gt;Node12</title>
<g id="a_edge22_Node000018_Node000012"><a xlink:title=" ">
<path fill="none" stroke="#63b8ff" d="M1194.8,-182.21C1228.71,-173.05 1281.51,-157.87 1326,-141 1326.95,-140.64 1327.9,-140.27 1328.86,-139.88"/>
<polygon fill="#63b8ff" stroke="#63b8ff" points="1329.95,-143.22 1337.76,-136.06 1327.19,-136.79 1329.95,-143.22"/>
</a>
</g>
</g>
<!-- Node18&#45;&gt;Node16 -->
<g id="edge19_Node000018_Node000016" class="edge">
<title>Node18&#45;&gt;Node16</title>
<g id="a_edge19_Node000018_Node000016"><a xlink:title=" ">
<path fill="none" stroke="#63b8ff" d="M1154.3,-182.28C1148.24,-172.75 1138.49,-157.41 1130.77,-145.27"/>
<polygon fill="#63b8ff" stroke="#63b8ff" points="1133.78,-143.48 1125.46,-136.92 1127.88,-147.24 1133.78,-143.48"/>
</a>
</g>
</g>
<!-- Node18&#45;&gt;Node19 -->
<g id="edge23_Node000018_Node000019" class="edge">
<title>Node18&#45;&gt;Node19</title>
<g id="a_edge23_Node000018_Node000019"><a xlink:title=" ">
<path fill="none" stroke="#63b8ff" d="M1171.26,-182.28C1184.01,-172.13 1205.02,-155.4 1220.65,-142.95"/>
<polygon fill="#63b8ff" stroke="#63b8ff" points="1222.75,-145.76 1228.39,-136.79 1218.38,-140.28 1222.75,-145.76"/>
</a>
</g>
</g>
<!-- Node19&#45;&gt;Node5 -->
<g id="edge24_Node000019_Node000005" class="edge">
<title>Node19&#45;&gt;Node5</title>
<g id="a_edge24_Node000019_Node000005"><a xlink:title=" ">
<path fill="none" stroke="#63b8ff" d="M1209.26,-115.68C1201.09,-113.66 1192.27,-111.75 1184,-110.5 880.36,-64.69 507.05,-64.41 397.57,-65.44"/>
<polygon fill="#63b8ff" stroke="#63b8ff" points="397.86,-61.94 387.9,-65.55 397.93,-68.94 397.86,-61.94"/>
</a>
</g>
</g>
<!-- Node19&#45;&gt;Node6 -->
<g id="edge25_Node000019_Node000006" class="edge">
<title>Node19&#45;&gt;Node6</title>
<g id="a_edge25_Node000019_Node000006"><a xlink:title=" ">
<path fill="none" stroke="#63b8ff" d="M1258.87,-115.68C1277.66,-106.14 1307.46,-91.02 1329.3,-79.93"/>
<polygon fill="#63b8ff" stroke="#63b8ff" points="1330.62,-83.19 1337.95,-75.54 1327.45,-76.95 1330.62,-83.19"/>
</a>
</g>
</g>
<!-- Node19&#45;&gt;Node13 -->
<g id="edge26_Node000019_Node000013" class="edge">
<title>Node19&#45;&gt;Node13</title>
<g id="a_edge26_Node000019_Node000013"><a xlink:title=" ">
<path fill="none" stroke="#63b8ff" d="M1199.66,-115.69C1190.26,-113.81 1180.31,-111.96 1171,-110.5 840.72,-58.58 437.78,-23.77 313.4,-13.66"/>
<polygon fill="#63b8ff" stroke="#63b8ff" points="314,-10.2 303.75,-12.88 313.44,-17.18 314,-10.2"/>
</a>
</g>
</g>
<!-- Node21 -->
<g id="Node000021" class="node">
<title>Node21</title>
<g id="a_Node000021"><a xlink:title=" ">
<polygon fill="#e0e0e0" stroke="#999999" points="236.38,-135.38 171.62,-135.38 171.62,-116.12 236.38,-116.12 236.38,-135.38"/>
<text text-anchor="middle" x="204" y="-121.88" font-family="Helvetica,sans-Serif" font-size="10.00">sys/types.h</text>
</a>
</g>
</g>
<!-- Node20&#45;&gt;Node21 -->
<g id="edge28_Node000020_Node000021" class="edge">
<title>Node20&#45;&gt;Node21</title>
<g id="a_edge28_Node000020_Node000021"><a xlink:title=" ">
<path fill="none" stroke="#63b8ff" d="M329.39,-182.15C304.72,-171.25 263.17,-152.89 234.71,-140.32"/>
<polygon fill="#63b8ff" stroke="#63b8ff" points="236.45,-137.26 225.89,-136.42 233.62,-143.66 236.45,-137.26"/>
</a>
</g>
</g>
<!-- Node22 -->
<g id="Node000022" class="node">
<title>Node22</title>
<g id="a_Node000022"><a xlink:title=" ">
<polygon fill="#e0e0e0" stroke="#999999" points="153.88,-135.38 104.12,-135.38 104.12,-116.12 153.88,-116.12 153.88,-135.38"/>
<text text-anchor="middle" x="129" y="-121.88" font-family="Helvetica,sans-Serif" font-size="10.00">unistd.h</text>
</a>
</g>
</g>
<!-- Node20&#45;&gt;Node22 -->
<g id="edge29_Node000020_Node000022" class="edge">
<title>Node20&#45;&gt;Node22</title>
<g id="a_edge29_Node000020_Node000022"><a xlink:title=" ">
<path fill="none" stroke="#63b8ff" d="M310.14,-182.18C271.96,-173.12 212.94,-158.09 163,-141 162.02,-140.66 161.03,-140.31 160.03,-139.95"/>
<polygon fill="#63b8ff" stroke="#63b8ff" points="161.32,-136.7 150.74,-136.34 158.79,-143.23 161.32,-136.7"/>
</a>
</g>
</g>
<!-- Node23 -->
<g id="Node000023" class="node">
<title>Node23</title>
<g id="a_Node000023"><a xlink:href="Context_8hpp.html" target="_top" xlink:title=" ">
<polygon fill="white" stroke="#666666" points="337.75,-135.38 254.25,-135.38 254.25,-116.12 337.75,-116.12 337.75,-135.38"/>
<text text-anchor="middle" x="296" y="-121.88" font-family="Helvetica,sans-Serif" font-size="10.00">ers/Context.hpp</text>
</a>
</g>
</g>
<!-- Node20&#45;&gt;Node23 -->
<g id="edge30_Node000020_Node000023" class="edge">
<title>Node20&#45;&gt;Node23</title>
<g id="a_edge30_Node000020_Node000023"><a xlink:title=" ">
<path fill="none" stroke="#63b8ff" d="M342.49,-182.28C334.27,-172.46 320.89,-156.48 310.58,-144.17"/>
<polygon fill="#63b8ff" stroke="#63b8ff" points="313.52,-142.22 304.42,-136.8 308.15,-146.72 313.52,-142.22"/>
</a>
</g>
</g>
<!-- Node23&#45;&gt;Node5 -->
<g id="edge31_Node000023_Node000005" class="edge">
<title>Node23&#45;&gt;Node5</title>
<g id="a_edge31_Node000023_Node000005"><a xlink:title=" ">
<path fill="none" stroke="#63b8ff" d="M306.63,-115.81C317.22,-106.9 333.71,-93.03 346.63,-82.17"/>
<polygon fill="#63b8ff" stroke="#63b8ff" points="348.71,-84.99 354.11,-75.88 344.2,-79.63 348.71,-84.99"/>
</a>
</g>
</g>
<!-- Node23&#45;&gt;Node6 -->
<g id="edge32_Node000023_Node000006" class="edge">
<title>Node23&#45;&gt;Node6</title>
<g id="a_edge32_Node000023_Node000006"><a xlink:title=" ">
<path fill="none" stroke="#63b8ff" d="M337.98,-117.03C352.79,-114.57 369.59,-112.08 385,-110.5 751.73,-72.84 1199.57,-66.96 1323.72,-66.04"/>
<polygon fill="#63b8ff" stroke="#63b8ff" points="1323.54,-69.54 1333.52,-65.98 1323.5,-62.55 1323.54,-69.54"/>
</a>
</g>
</g>
<!-- Node24 -->
<g id="Node000024" class="node">
<title>Node24</title>
<g id="a_Node000024"><a xlink:href="ers_2include_2ers_2Configuration_8hpp.html" target="_top" xlink:title=" ">
<polygon fill="white" stroke="#666666" points="328.38,-74.5 221.62,-74.5 221.62,-55.25 328.38,-55.25 328.38,-74.5"/>
<text text-anchor="middle" x="275" y="-61" font-family="Helvetica,sans-Serif" font-size="10.00">ers/Configuration.hpp</text>
</a>
</g>
</g>
<!-- Node23&#45;&gt;Node24 -->
<g id="edge33_Node000023_Node000024" class="edge">
<title>Node23&#45;&gt;Node24</title>
<g id="a_edge33_Node000023_Node000024"><a xlink:title=" ">
<path fill="none" stroke="#63b8ff" d="M292.81,-115.81C289.97,-107.85 285.72,-95.94 282.09,-85.74"/>
<polygon fill="#63b8ff" stroke="#63b8ff" points="285.38,-84.57 278.73,-76.33 278.79,-86.92 285.38,-84.57"/>
</a>
</g>
</g>
<!-- Node24&#45;&gt;Node13 -->
<g id="edge34_Node000024_Node000013" class="edge">
<title>Node24&#45;&gt;Node13</title>
<g id="a_edge34_Node000024_Node000013"><a xlink:title=" ">
<path fill="none" stroke="#63b8ff" d="M275,-55.08C275,-48.57 275,-39.42 275,-31.12"/>
<polygon fill="#63b8ff" stroke="#63b8ff" points="278.5,-31.12 275,-21.12 271.5,-31.12 278.5,-31.12"/>
</a>
</g>
</g>
<!-- Node26 -->
<g id="Node000026" class="node">
<title>Node26</title>
<g id="a_Node000026"><a xlink:title=" ">
<polygon fill="#e0e0e0" stroke="#999999" points="961.62,-141 862.38,-141 862.38,-110.5 961.62,-110.5 961.62,-141"/>
<text text-anchor="start" x="870.38" y="-127.5" font-family="Helvetica,sans-Serif" font-size="10.00">boost/preprocessor</text>
<text text-anchor="middle" x="912" y="-116.25" font-family="Helvetica,sans-Serif" font-size="10.00">/if.hpp</text>
</a>
</g>
</g>
<!-- Node25&#45;&gt;Node26 -->
<g id="edge37_Node000025_Node000026" class="edge">
<title>Node25&#45;&gt;Node26</title>
<g id="a_edge37_Node000025_Node000026"><a xlink:title=" ">
<path fill="none" stroke="#63b8ff" d="M821.55,-176.61C837.56,-167.79 858.17,-156.43 875.67,-146.78"/>
<polygon fill="#63b8ff" stroke="#63b8ff" points="877.16,-149.95 884.23,-142.06 873.78,-143.82 877.16,-149.95"/>
</a>
</g>
</g>
<!-- Node27 -->
<g id="Node000027" class="node">
<title>Node27</title>
<g id="a_Node000027"><a xlink:title=" ">
<polygon fill="#e0e0e0" stroke="#999999" points="1078.62,-141 979.38,-141 979.38,-110.5 1078.62,-110.5 1078.62,-141"/>
<text text-anchor="start" x="987.38" y="-127.5" font-family="Helvetica,sans-Serif" font-size="10.00">boost/preprocessor</text>
<text text-anchor="middle" x="1029" y="-116.25" font-family="Helvetica,sans-Serif" font-size="10.00">/seq.hpp</text>
</a>
</g>
</g>
<!-- Node25&#45;&gt;Node27 -->
<g id="edge38_Node000025_Node000027" class="edge">
<title>Node25&#45;&gt;Node27</title>
<g id="a_edge38_Node000025_Node000027"><a xlink:title=" ">
<path fill="none" stroke="#63b8ff" d="M848.39,-176.53C884.12,-166.69 931.21,-153.7 968.35,-143.47"/>
<polygon fill="#63b8ff" stroke="#63b8ff" points="968.87,-146.95 977.58,-140.92 967.01,-140.21 968.87,-146.95"/>
</a>
</g>
</g>
<!-- Node28 -->
<g id="Node000028" class="node">
<title>Node28</title>
<g id="a_Node000028"><a xlink:title=" ">
<polygon fill="#e0e0e0" stroke="#999999" points="493.62,-141 394.38,-141 394.38,-110.5 493.62,-110.5 493.62,-141"/>
<text text-anchor="start" x="402.38" y="-127.5" font-family="Helvetica,sans-Serif" font-size="10.00">boost/preprocessor</text>
<text text-anchor="middle" x="444" y="-116.25" font-family="Helvetica,sans-Serif" font-size="10.00">/tuple.hpp</text>
</a>
</g>
</g>
<!-- Node25&#45;&gt;Node28 -->
<g id="edge39_Node000025_Node000028" class="edge">
<title>Node25&#45;&gt;Node28</title>
<g id="a_edge39_Node000025_Node000028"><a xlink:title=" ">
<path fill="none" stroke="#63b8ff" d="M724.88,-180.66C667.91,-171.73 585.26,-158.03 504.76,-141.5"/>
<polygon fill="#63b8ff" stroke="#63b8ff" points="505.92,-138.17 495.42,-139.56 504.5,-145.02 505.92,-138.17"/>
</a>
</g>
</g>
<!-- Node29 -->
<g id="Node000029" class="node">
<title>Node29</title>
<g id="a_Node000029"><a xlink:title=" ">
<polygon fill="#e0e0e0" stroke="#999999" points="727.62,-141 628.38,-141 628.38,-110.5 727.62,-110.5 727.62,-141"/>
<text text-anchor="start" x="636.38" y="-127.5" font-family="Helvetica,sans-Serif" font-size="10.00">boost/preprocessor</text>
<text text-anchor="middle" x="678" y="-116.25" font-family="Helvetica,sans-Serif" font-size="10.00">/logical.hpp</text>
</a>
</g>
</g>
<!-- Node25&#45;&gt;Node29 -->
<g id="edge40_Node000025_Node000029" class="edge">
<title>Node25&#45;&gt;Node29</title>
<g id="a_edge40_Node000025_Node000029"><a xlink:title=" ">
<path fill="none" stroke="#63b8ff" d="M768.45,-176.61C752.44,-167.79 731.83,-156.43 714.33,-146.78"/>
<polygon fill="#63b8ff" stroke="#63b8ff" points="716.22,-143.82 705.77,-142.06 712.84,-149.95 716.22,-143.82"/>
</a>
</g>
</g>
<!-- Node30 -->
<g id="Node000030" class="node">
<title>Node30</title>
<g id="a_Node000030"><a xlink:title=" ">
<polygon fill="#e0e0e0" stroke="#999999" points="610.62,-141 511.38,-141 511.38,-110.5 610.62,-110.5 610.62,-141"/>
<text text-anchor="start" x="519.38" y="-127.5" font-family="Helvetica,sans-Serif" font-size="10.00">boost/preprocessor</text>
<text text-anchor="middle" x="561" y="-116.25" font-family="Helvetica,sans-Serif" font-size="10.00">/stringize.hpp</text>
</a>
</g>
</g>
<!-- Node25&#45;&gt;Node30 -->
<g id="edge41_Node000025_Node000030" class="edge">
<title>Node25&#45;&gt;Node30</title>
<g id="a_edge41_Node000025_Node000030"><a xlink:title=" ">
<path fill="none" stroke="#63b8ff" d="M741.61,-176.53C705.88,-166.69 658.79,-153.7 621.65,-143.47"/>
<polygon fill="#63b8ff" stroke="#63b8ff" points="622.99,-140.21 612.42,-140.92 621.13,-146.95 622.99,-140.21"/>
</a>
</g>
</g>
<!-- Node31 -->
<g id="Node000031" class="node">
<title>Node31</title>
<g id="a_Node000031"><a xlink:title=" ">
<polygon fill="#e0e0e0" stroke="#999999" points="844.62,-141 745.38,-141 745.38,-110.5 844.62,-110.5 844.62,-141"/>
<text text-anchor="start" x="753.38" y="-127.5" font-family="Helvetica,sans-Serif" font-size="10.00">boost/preprocessor</text>
<text text-anchor="middle" x="795" y="-116.25" font-family="Helvetica,sans-Serif" font-size="10.00">/comparison.hpp</text>
</a>
</g>
</g>
<!-- Node25&#45;&gt;Node31 -->
<g id="edge42_Node000025_Node000031" class="edge">
<title>Node25&#45;&gt;Node31</title>
<g id="a_edge42_Node000025_Node000031"><a xlink:title=" ">
<path fill="none" stroke="#63b8ff" d="M795,-176.61C795,-169.52 795,-160.79 795,-152.63"/>
<polygon fill="#63b8ff" stroke="#63b8ff" points="798.5,-152.84 795,-142.84 791.5,-152.84 798.5,-152.84"/>
</a>
</g>
</g>
<!-- Node38&#45;&gt;Node2 -->
<g id="edge53_Node000038_Node000002" class="edge">
<title>Node38&#45;&gt;Node2</title>
<g id="a_edge53_Node000038_Node000002"><a xlink:title=" ">
<path fill="none" stroke="#63b8ff" d="M1152.94,-408.8C1193.76,-398.78 1247.07,-385.71 1285.06,-376.38"/>
<polygon fill="#63b8ff" stroke="#63b8ff" points="1285.49,-379.88 1294.37,-374.1 1283.82,-373.08 1285.49,-379.88"/>
</a>
</g>
</g>
<!-- Node38&#45;&gt;Node5 -->
<g id="edge55_Node000038_Node000005" class="edge">
<title>Node38&#45;&gt;Node5</title>
<g id="a_edge55_Node000038_Node000005"><a xlink:title=" ">
<path fill="none" stroke="#63b8ff" d="M1028.59,-423.33C799.54,-421.89 38,-409.55 38,-309.38 38,-309.38 38,-309.38 38,-191.25 38,-152.31 41.09,-134.18 72,-110.5 116.69,-76.27 262.37,-85.81 334.22,-74.49"/>
<polygon fill="#63b8ff" stroke="#63b8ff" points="334.83,-77.94 344.02,-72.67 333.55,-71.06 334.83,-77.94"/>
</a>
</g>
</g>
<!-- Node38&#45;&gt;Node7 -->
<g id="edge54_Node000038_Node000007" class="edge">
<title>Node38&#45;&gt;Node7</title>
<g id="a_edge54_Node000038_Node000007"><a xlink:title=" ">
<path fill="none" stroke="#63b8ff" d="M1076.14,-408.81C1051.65,-387.47 1006.36,-348.02 980.81,-325.76"/>
<polygon fill="#63b8ff" stroke="#63b8ff" points="983.35,-323.33 973.51,-319.4 978.75,-328.61 983.35,-323.33"/>
</a>
</g>
</g>
</g>
</svg>
