<?xml version="1.0" encoding="UTF-8" standalone="no"?>
<!DOCTYPE svg PUBLIC "-//W3C//DTD SVG 1.1//EN"
 "http://www.w3.org/Graphics/SVG/1.1/DTD/svg11.dtd">
<!-- Generated by graphviz version 9.0.0 (20230911.1827)
 -->
<!-- Title: /github/workspace/dev_area/sourcecode/timing/include/timing/DACNode.hpp Pages: 1 -->
<svg width="1931pt" height="459pt"
 viewBox="0.00 0.00 1931.37 459.00" xmlns="http://www.w3.org/2000/svg" xmlns:xlink="http://www.w3.org/1999/xlink">
<g id="graph0" class="graph" transform="scale(1 1) rotate(0) translate(4 455)">
<title>/github/workspace/dev_area/sourcecode/timing/include/timing/DACNode.hpp</title>
<!-- Node1 -->
<g id="Node000001" class="node">
<title>Node1</title>
<g id="a_Node000001"><a xlink:title=" ">
<polygon fill="#999999" stroke="#666666" points="1434.12,-451 1290.62,-451 1290.62,-409.25 1434.12,-409.25 1434.12,-451"/>
<text text-anchor="start" x="1298.62" y="-437.5" font-family="Helvetica,sans-Serif" font-size="10.00">/github/workspace/dev</text>
<text text-anchor="start" x="1298.62" y="-426.25" font-family="Helvetica,sans-Serif" font-size="10.00">_area/sourcecode/timing</text>
<text text-anchor="middle" x="1362.37" y="-415" font-family="Helvetica,sans-Serif" font-size="10.00">/include/timing/DACNode.hpp</text>
</a>
</g>
</g>
<!-- Node2 -->
<g id="Node000002" class="node">
<title>Node2</title>
<g id="a_Node000002"><a xlink:href="I2CMasterNode_8hpp.html" target="_top" xlink:title=" ">
<polygon fill="white" stroke="#666666" points="1273.12,-373.25 1141.62,-373.25 1141.62,-354 1273.12,-354 1273.12,-373.25"/>
<text text-anchor="middle" x="1207.37" y="-359.75" font-family="Helvetica,sans-Serif" font-size="10.00">timing/I2CMasterNode.hpp</text>
</a>
</g>
</g>
<!-- Node1&#45;&gt;Node2 -->
<g id="edge1_Node000001_Node000002" class="edge">
<title>Node1&#45;&gt;Node2</title>
<g id="a_edge1_Node000001_Node000002"><a xlink:title=" ">
<path fill="none" stroke="#63b8ff" d="M1313.75,-408.89C1289.56,-398.83 1260.98,-386.94 1239.54,-378.01"/>
<polygon fill="#63b8ff" stroke="#63b8ff" points="1241.02,-374.84 1230.44,-374.23 1238.33,-381.3 1241.02,-374.84"/>
</a>
</g>
</g>
<!-- Node9 -->
<g id="Node000009" class="node">
<title>Node9</title>
<g id="a_Node000009"><a xlink:title=" ">
<polygon fill="#e0e0e0" stroke="#999999" points="1406.37,-74.5 1366.37,-74.5 1366.37,-55.25 1406.37,-55.25 1406.37,-74.5"/>
<text text-anchor="middle" x="1386.37" y="-61" font-family="Helvetica,sans-Serif" font-size="10.00">string</text>
</a>
</g>
</g>
<!-- Node1&#45;&gt;Node9 -->
<g id="edge67_Node000001_Node000009" class="edge">
<title>Node1&#45;&gt;Node9</title>
<g id="a_edge67_Node000001_Node000009"><a xlink:title=" ">
<path fill="none" stroke="#63b8ff" d="M1434.56,-428.67C1586.08,-425.77 1923.37,-408.22 1923.37,-309.38 1923.37,-309.38 1923.37,-309.38 1923.37,-191.25 1923.37,-134.12 1876.19,-132.25 1823.37,-110.5 1749.79,-80.21 1505.78,-69.65 1418.09,-66.78"/>
<polygon fill="#63b8ff" stroke="#63b8ff" points="1418.41,-63.29 1408.31,-66.47 1418.19,-70.29 1418.41,-63.29"/>
</a>
</g>
</g>
<!-- Node11 -->
<g id="Node000011" class="node">
<title>Node11</title>
<g id="a_Node000011"><a xlink:href="Issue_8hpp.html" target="_top" xlink:title=" ">
<polygon fill="white" stroke="#666666" points="1019.62,-262.75 945.12,-262.75 945.12,-243.5 1019.62,-243.5 1019.62,-262.75"/>
<text text-anchor="middle" x="982.37" y="-249.25" font-family="Helvetica,sans-Serif" font-size="10.00">ers/Issue.hpp</text>
</a>
</g>
</g>
<!-- Node1&#45;&gt;Node11 -->
<g id="edge66_Node000001_Node000011" class="edge">
<title>Node1&#45;&gt;Node11</title>
<g id="a_edge66_Node000001_Node000011"><a xlink:title=" ">
<path fill="none" stroke="#63b8ff" d="M1290.18,-421.62C1176.99,-408.19 966.05,-375.89 921.37,-318 907.29,-299.77 930.74,-280.94 952.52,-268.49"/>
<polygon fill="#63b8ff" stroke="#63b8ff" points="954.1,-271.62 961.25,-263.8 950.78,-265.45 954.1,-271.62"/>
</a>
</g>
</g>
<!-- Node38 -->
<g id="Node000038" class="node">
<title>Node38</title>
<g id="a_Node000038"><a xlink:href="I2CSlave_8hpp.html" target="_top" xlink:title=" ">
<polygon fill="white" stroke="#666666" points="1506.87,-373.25 1403.87,-373.25 1403.87,-354 1506.87,-354 1506.87,-373.25"/>
<text text-anchor="middle" x="1455.37" y="-359.75" font-family="Helvetica,sans-Serif" font-size="10.00">timing/I2CSlave.hpp</text>
</a>
</g>
</g>
<!-- Node1&#45;&gt;Node38 -->
<g id="edge58_Node000001_Node000038" class="edge">
<title>Node1&#45;&gt;Node38</title>
<g id="a_edge58_Node000001_Node000038"><a xlink:title=" ">
<path fill="none" stroke="#63b8ff" d="M1391.54,-408.89C1404.99,-399.57 1420.7,-388.67 1433.16,-380.02"/>
<polygon fill="#63b8ff" stroke="#63b8ff" points="1434.9,-383.08 1441.12,-374.51 1430.91,-377.33 1434.9,-383.08"/>
</a>
</g>
</g>
<!-- Node3 -->
<g id="Node000003" class="node">
<title>Node3</title>
<g id="a_Node000003"><a xlink:href="TimingNode_8hpp.html" target="_top" xlink:title=" ">
<polygon fill="white" stroke="#666666" points="1222.24,-318 1106.49,-318 1106.49,-298.75 1222.24,-298.75 1222.24,-318"/>
<text text-anchor="middle" x="1164.37" y="-304.5" font-family="Helvetica,sans-Serif" font-size="10.00">timing/TimingNode.hpp</text>
</a>
</g>
</g>
<!-- Node2&#45;&gt;Node3 -->
<g id="edge2_Node000002_Node000003" class="edge">
<title>Node2&#45;&gt;Node3</title>
<g id="a_edge2_Node000002_Node000003"><a xlink:title=" ">
<path fill="none" stroke="#63b8ff" d="M1200.27,-353.83C1194.45,-346.63 1186.03,-336.21 1178.81,-327.26"/>
<polygon fill="#63b8ff" stroke="#63b8ff" points="1181.58,-325.12 1172.57,-319.54 1176.13,-329.52 1181.58,-325.12"/>
</a>
</g>
</g>
<!-- Node4 -->
<g id="Node000004" class="node">
<title>Node4</title>
<g id="a_Node000004"><a xlink:title=" ">
<polygon fill="#e0e0e0" stroke="#999999" points="1369.99,-262.75 1258.74,-262.75 1258.74,-243.5 1369.99,-243.5 1369.99,-262.75"/>
<text text-anchor="middle" x="1314.37" y="-249.25" font-family="Helvetica,sans-Serif" font-size="10.00">uhal/DerivedNode.hpp</text>
</a>
</g>
</g>
<!-- Node2&#45;&gt;Node4 -->
<g id="edge54_Node000002_Node000004" class="edge">
<title>Node2&#45;&gt;Node4</title>
<g id="a_edge54_Node000002_Node000004"><a xlink:title=" ">
<path fill="none" stroke="#63b8ff" d="M1215.74,-353.9C1227.6,-341.55 1250.02,-318.31 1269.37,-298.75 1278.56,-289.46 1288.9,-279.19 1297.36,-270.84"/>
<polygon fill="#63b8ff" stroke="#63b8ff" points="1299.61,-273.54 1304.28,-264.03 1294.7,-268.55 1299.61,-273.54"/>
</a>
</g>
</g>
<!-- Node2&#45;&gt;Node9 -->
<g id="edge55_Node000002_Node000009" class="edge">
<title>Node2&#45;&gt;Node9</title>
<g id="a_edge55_Node000002_Node000009"><a xlink:title=" ">
<path fill="none" stroke="#63b8ff" d="M1273.23,-360.63C1308.84,-356.18 1351.16,-344.97 1379.37,-318 1446.76,-253.55 1433.14,-200.92 1410.37,-110.5 1408.09,-101.46 1403.58,-92.25 1399.08,-84.56"/>
<polygon fill="#63b8ff" stroke="#63b8ff" points="1402.08,-82.75 1393.77,-76.17 1396.16,-86.49 1402.08,-82.75"/>
</a>
</g>
</g>
<!-- Node2&#45;&gt;Node11 -->
<g id="edge53_Node000002_Node000011" class="edge">
<title>Node2&#45;&gt;Node11</title>
<g id="a_edge53_Node000002_Node000011"><a xlink:title=" ">
<path fill="none" stroke="#63b8ff" d="M1164.5,-353.53C1135.24,-346.31 1096.17,-334.64 1064.37,-318 1040.04,-305.27 1015.67,-285.11 999.9,-270.85"/>
<polygon fill="#63b8ff" stroke="#63b8ff" points="1002.5,-268.49 992.78,-264.26 997.74,-273.62 1002.5,-268.49"/>
</a>
</g>
</g>
<!-- Node21 -->
<g id="Node000021" class="node">
<title>Node21</title>
<g id="a_Node000021"><a xlink:title=" ">
<polygon fill="#e0e0e0" stroke="#999999" points="1068.87,-74.5 1025.87,-74.5 1025.87,-55.25 1068.87,-55.25 1068.87,-74.5"/>
<text text-anchor="middle" x="1047.37" y="-61" font-family="Helvetica,sans-Serif" font-size="10.00">vector</text>
</a>
</g>
</g>
<!-- Node2&#45;&gt;Node21 -->
<g id="edge57_Node000002_Node000021" class="edge">
<title>Node2&#45;&gt;Node21</title>
<g id="a_edge57_Node000002_Node000021"><a xlink:title=" ">
<path fill="none" stroke="#63b8ff" d="M1141.3,-360.17C889.26,-350.37 2.37,-311.79 2.37,-254.12 2.37,-254.12 2.37,-254.12 2.37,-191.25 2.37,-154.38 -7.11,-133.92 21.37,-110.5 63.1,-76.17 939.59,-79.77 993.37,-74.5 1000.15,-73.84 1007.37,-72.87 1014.25,-71.81"/>
<polygon fill="#63b8ff" stroke="#63b8ff" points="1014.57,-75.31 1023.88,-70.25 1013.45,-68.4 1014.57,-75.31"/>
</a>
</g>
</g>
<!-- Node36 -->
<g id="Node000036" class="node">
<title>Node36</title>
<g id="a_Node000036"><a xlink:href="include_2timing_2TimingIssues_8hpp.html" target="_top" xlink:title=" ">
<polygon fill="white" stroke="#666666" points="1370.62,-318 1278.12,-318 1278.12,-298.75 1370.62,-298.75 1370.62,-318"/>
<text text-anchor="middle" x="1324.37" y="-304.5" font-family="Helvetica,sans-Serif" font-size="10.00">TimingIssues.hpp</text>
</a>
</g>
</g>
<!-- Node2&#45;&gt;Node36 -->
<g id="edge50_Node000002_Node000036" class="edge">
<title>Node2&#45;&gt;Node36</title>
<g id="a_edge50_Node000002_Node000036"><a xlink:title=" ">
<path fill="none" stroke="#63b8ff" d="M1227.22,-353.59C1245.54,-345.25 1273.01,-332.75 1294.08,-323.16"/>
<polygon fill="#63b8ff" stroke="#63b8ff" points="1295.39,-326.41 1303.05,-319.08 1292.49,-320.04 1295.39,-326.41"/>
</a>
</g>
</g>
<!-- Node37 -->
<g id="Node000037" class="node">
<title>Node37</title>
<g id="a_Node000037"><a xlink:title=" ">
<polygon fill="#e0e0e0" stroke="#999999" points="1012.74,-318 929.99,-318 929.99,-298.75 1012.74,-298.75 1012.74,-318"/>
<text text-anchor="middle" x="971.37" y="-304.5" font-family="Helvetica,sans-Serif" font-size="10.00">unordered_map</text>
</a>
</g>
</g>
<!-- Node2&#45;&gt;Node37 -->
<g id="edge56_Node000002_Node000037" class="edge">
<title>Node2&#45;&gt;Node37</title>
<g id="a_edge56_Node000002_Node000037"><a xlink:title=" ">
<path fill="none" stroke="#63b8ff" d="M1167.07,-353.53C1127.19,-344.53 1065.99,-330.73 1022.66,-320.95"/>
<polygon fill="#63b8ff" stroke="#63b8ff" points="1023.51,-317.55 1012.98,-318.76 1021.96,-324.38 1023.51,-317.55"/>
</a>
</g>
</g>
<!-- Node3&#45;&gt;Node4 -->
<g id="edge3_Node000003_Node000004" class="edge">
<title>Node3&#45;&gt;Node4</title>
<g id="a_edge3_Node000003_Node000004"><a xlink:title=" ">
<path fill="none" stroke="#63b8ff" d="M1189.81,-298.34C1214.06,-289.74 1250.8,-276.69 1278.11,-267"/>
<polygon fill="#63b8ff" stroke="#63b8ff" points="1279.12,-270.35 1287.37,-263.71 1276.78,-263.76 1279.12,-270.35"/>
</a>
</g>
</g>
<!-- Node5 -->
<g id="Node000005" class="node">
<title>Node5</title>
<g id="a_Node000005"><a xlink:href="InfoCollector_8hpp.html" target="_top" xlink:title=" ">
<polygon fill="white" stroke="#666666" points="1731.74,-262.75 1600.99,-262.75 1600.99,-243.5 1731.74,-243.5 1731.74,-262.75"/>
<text text-anchor="middle" x="1666.37" y="-249.25" font-family="Helvetica,sans-Serif" font-size="10.00">opmonlib/InfoCollector.hpp</text>
</a>
</g>
</g>
<!-- Node3&#45;&gt;Node5 -->
<g id="edge4_Node000003_Node000005" class="edge">
<title>Node3&#45;&gt;Node5</title>
<g id="a_edge4_Node000003_Node000005"><a xlink:title=" ">
<path fill="none" stroke="#63b8ff" d="M1222.44,-301.21C1313.15,-291.59 1488.5,-272.99 1589.55,-262.27"/>
<polygon fill="#63b8ff" stroke="#63b8ff" points="1589.82,-265.77 1599.39,-261.23 1589.08,-258.8 1589.82,-265.77"/>
</a>
</g>
</g>
<!-- Node3&#45;&gt;Node9 -->
<g id="edge48_Node000003_Node000009" class="edge">
<title>Node3&#45;&gt;Node9</title>
<g id="a_edge48_Node000003_Node000009"><a xlink:title=" ">
<path fill="none" stroke="#63b8ff" d="M1176.3,-298.26C1206.65,-274.67 1288.22,-208.73 1342.37,-141 1356.5,-123.33 1369.14,-100.64 1377.21,-84.84"/>
<polygon fill="#63b8ff" stroke="#63b8ff" points="1380.25,-86.6 1381.56,-76.08 1373.98,-83.48 1380.25,-86.6"/>
</a>
</g>
</g>
<!-- Node3&#45;&gt;Node11 -->
<g id="edge10_Node000003_Node000011" class="edge">
<title>Node3&#45;&gt;Node11</title>
<g id="a_edge10_Node000003_Node000011"><a xlink:title=" ">
<path fill="none" stroke="#63b8ff" d="M1133.49,-298.34C1103.43,-289.54 1057.51,-276.11 1024.17,-266.36"/>
<polygon fill="#63b8ff" stroke="#63b8ff" points="1025.43,-263.08 1014.85,-263.63 1023.46,-269.79 1025.43,-263.08"/>
</a>
</g>
</g>
<!-- Node15 -->
<g id="Node000015" class="node">
<title>Node15</title>
<g id="a_Node000015"><a xlink:title=" ">
<polygon fill="#e0e0e0" stroke="#999999" points="64.74,-135.38 29.99,-135.38 29.99,-116.12 64.74,-116.12 64.74,-135.38"/>
<text text-anchor="middle" x="47.37" y="-121.88" font-family="Helvetica,sans-Serif" font-size="10.00">map</text>
</a>
</g>
</g>
<!-- Node3&#45;&gt;Node15 -->
<g id="edge47_Node000003_Node000015" class="edge">
<title>Node3&#45;&gt;Node15</title>
<g id="a_edge47_Node000003_Node000015"><a xlink:title=" ">
<path fill="none" stroke="#63b8ff" d="M1106.28,-302.88C909.28,-287.44 273.97,-235.95 186.37,-207.5 140.91,-192.74 94.06,-161.59 68.03,-142.58"/>
<polygon fill="#63b8ff" stroke="#63b8ff" points="70.14,-139.79 60.03,-136.63 65.96,-145.4 70.14,-139.79"/>
</a>
</g>
</g>
<!-- Node18 -->
<g id="Node000018" class="node">
<title>Node18</title>
<g id="a_Node000018"><a xlink:title=" ">
<polygon fill="#e0e0e0" stroke="#999999" points="1262.99,-135.38 1217.74,-135.38 1217.74,-116.12 1262.99,-116.12 1262.99,-135.38"/>
<text text-anchor="middle" x="1240.37" y="-121.88" font-family="Helvetica,sans-Serif" font-size="10.00">chrono</text>
</a>
</g>
</g>
<!-- Node3&#45;&gt;Node18 -->
<g id="edge46_Node000003_Node000018" class="edge">
<title>Node3&#45;&gt;Node18</title>
<g id="a_edge46_Node000003_Node000018"><a xlink:title=" ">
<path fill="none" stroke="#63b8ff" d="M1169.39,-298.5C1178.98,-281.32 1200.22,-242.15 1214.37,-207.5 1222.62,-187.29 1230.04,-163.41 1234.81,-146.89"/>
<polygon fill="#63b8ff" stroke="#63b8ff" points="1238.16,-147.9 1237.51,-137.33 1231.43,-146 1238.16,-147.9"/>
</a>
</g>
</g>
<!-- Node35 -->
<g id="Node000035" class="node">
<title>Node35</title>
<g id="a_Node000035"><a xlink:title=" ">
<polygon fill="#e0e0e0" stroke="#999999" points="1164.24,-262.75 1114.49,-262.75 1114.49,-243.5 1164.24,-243.5 1164.24,-262.75"/>
<text text-anchor="middle" x="1139.37" y="-249.25" font-family="Helvetica,sans-Serif" font-size="10.00">typeinfo</text>
</a>
</g>
</g>
<!-- Node3&#45;&gt;Node35 -->
<g id="edge49_Node000003_Node000035" class="edge">
<title>Node3&#45;&gt;Node35</title>
<g id="a_edge49_Node000003_Node000035"><a xlink:title=" ">
<path fill="none" stroke="#63b8ff" d="M1160.24,-298.58C1157.04,-291.76 1152.48,-282.06 1148.44,-273.45"/>
<polygon fill="#63b8ff" stroke="#63b8ff" points="1151.65,-272.04 1144.23,-264.48 1145.31,-275.02 1151.65,-272.04"/>
</a>
</g>
</g>
<!-- Node6 -->
<g id="Node000006" class="node">
<title>Node6</title>
<g id="a_Node000006"><a xlink:title=" ">
<polygon fill="#e0e0e0" stroke="#999999" points="1618.87,-201.88 1521.87,-201.88 1521.87,-182.62 1618.87,-182.62 1618.87,-201.88"/>
<text text-anchor="middle" x="1570.37" y="-188.38" font-family="Helvetica,sans-Serif" font-size="10.00">nlohmann/json.hpp</text>
</a>
</g>
</g>
<!-- Node5&#45;&gt;Node6 -->
<g id="edge5_Node000005_Node000006" class="edge">
<title>Node5&#45;&gt;Node6</title>
<g id="a_edge5_Node000005_Node000006"><a xlink:title=" ">
<path fill="none" stroke="#63b8ff" d="M1651.79,-243.18C1636.7,-233.93 1612.88,-219.32 1594.89,-208.29"/>
<polygon fill="#63b8ff" stroke="#63b8ff" points="1596.73,-205.31 1586.38,-203.07 1593.07,-211.28 1596.73,-205.31"/>
</a>
</g>
</g>
<!-- Node7 -->
<g id="Node000007" class="node">
<title>Node7</title>
<g id="a_Node000007"><a xlink:title=" ">
<polygon fill="#e0e0e0" stroke="#999999" points="1819.37,-201.88 1779.37,-201.88 1779.37,-182.62 1819.37,-182.62 1819.37,-201.88"/>
<text text-anchor="middle" x="1799.37" y="-188.38" font-family="Helvetica,sans-Serif" font-size="10.00">ctime</text>
</a>
</g>
</g>
<!-- Node5&#45;&gt;Node7 -->
<g id="edge6_Node000005_Node000007" class="edge">
<title>Node5&#45;&gt;Node7</title>
<g id="a_edge6_Node000005_Node000007"><a xlink:title=" ">
<path fill="none" stroke="#63b8ff" d="M1688.43,-243.05C1709.58,-234.25 1742.34,-220.39 1770.37,-207.5 1770.59,-207.4 1770.82,-207.29 1771.04,-207.19"/>
<polygon fill="#63b8ff" stroke="#63b8ff" points="1772.45,-210.4 1779.97,-202.94 1769.44,-204.08 1772.45,-210.4"/>
</a>
</g>
</g>
<!-- Node8 -->
<g id="Node000008" class="node">
<title>Node8</title>
<g id="a_Node000008"><a xlink:title=" ">
<polygon fill="#e0e0e0" stroke="#999999" points="1062.12,-19.25 1008.62,-19.25 1008.62,0 1062.12,0 1062.12,-19.25"/>
<text text-anchor="middle" x="1035.37" y="-5.75" font-family="Helvetica,sans-Serif" font-size="10.00">iostream</text>
</a>
</g>
</g>
<!-- Node5&#45;&gt;Node8 -->
<g id="edge7_Node000005_Node000008" class="edge">
<title>Node5&#45;&gt;Node8</title>
<g id="a_edge7_Node000005_Node000008"><a xlink:title=" ">
<path fill="none" stroke="#63b8ff" d="M1732.04,-244.82C1788.9,-235.71 1857.75,-216.29 1828.37,-177 1735.98,-53.45 1219.79,-19.48 1073.83,-12.28"/>
<polygon fill="#63b8ff" stroke="#63b8ff" points="1074.08,-8.79 1063.92,-11.81 1073.74,-15.78 1074.08,-8.79"/>
</a>
</g>
</g>
<!-- Node5&#45;&gt;Node9 -->
<g id="edge8_Node000005_Node000009" class="edge">
<title>Node5&#45;&gt;Node9</title>
<g id="a_edge8_Node000005_Node000009"><a xlink:title=" ">
<path fill="none" stroke="#63b8ff" d="M1600.52,-245.47C1571.01,-239.57 1537.51,-228.44 1513.37,-207.5 1477.6,-176.49 1501.69,-145.08 1469.37,-110.5 1455.16,-95.3 1434.59,-84.19 1417.49,-76.86"/>
<polygon fill="#63b8ff" stroke="#63b8ff" points="1418.83,-73.63 1408.25,-73.15 1416.22,-80.12 1418.83,-73.63"/>
</a>
</g>
</g>
<!-- Node10 -->
<g id="Node000010" class="node">
<title>Node10</title>
<g id="a_Node000010"><a xlink:href="JSONTags_8hpp.html" target="_top" xlink:title=" ">
<polygon fill="white" stroke="#666666" points="1761.74,-201.88 1636.99,-201.88 1636.99,-182.62 1761.74,-182.62 1761.74,-201.88"/>
<text text-anchor="middle" x="1699.37" y="-188.38" font-family="Helvetica,sans-Serif" font-size="10.00">opmonlib/JSONTags.hpp</text>
</a>
</g>
</g>
<!-- Node5&#45;&gt;Node10 -->
<g id="edge9_Node000005_Node000010" class="edge">
<title>Node5&#45;&gt;Node10</title>
<g id="a_edge9_Node000005_Node000010"><a xlink:title=" ">
<path fill="none" stroke="#63b8ff" d="M1671.38,-243.18C1675.98,-234.97 1682.96,-222.53 1688.79,-212.12"/>
<polygon fill="#63b8ff" stroke="#63b8ff" points="1691.73,-214.03 1693.57,-203.6 1685.63,-210.61 1691.73,-214.03"/>
</a>
</g>
</g>
<!-- Node11&#45;&gt;Node8 -->
<g id="edge16_Node000011_Node000008" class="edge">
<title>Node11&#45;&gt;Node8</title>
<g id="a_edge16_Node000011_Node000008"><a xlink:title=" ">
<path fill="none" stroke="#63b8ff" d="M944.82,-252.53C752.57,-254 -107.53,-252.72 21.37,-110.5 88.14,-36.83 819.76,-15.52 996.91,-11.43"/>
<polygon fill="#63b8ff" stroke="#63b8ff" points="996.8,-14.93 1006.72,-11.21 996.64,-7.93 996.8,-14.93"/>
</a>
</g>
</g>
<!-- Node11&#45;&gt;Node9 -->
<g id="edge15_Node000011_Node000009" class="edge">
<title>Node11&#45;&gt;Node9</title>
<g id="a_edge15_Node000011_Node000009"><a xlink:title=" ">
<path fill="none" stroke="#63b8ff" d="M1019.88,-250.59C1067.26,-247.4 1150.34,-237.6 1214.37,-207.5 1280.67,-176.33 1343.02,-113.76 1370.97,-83.31"/>
<polygon fill="#63b8ff" stroke="#63b8ff" points="1373.38,-85.86 1377.49,-76.09 1368.19,-81.17 1373.38,-85.86"/>
</a>
</g>
</g>
<!-- Node12 -->
<g id="Node000012" class="node">
<title>Node12</title>
<g id="a_Node000012"><a xlink:title=" ">
<polygon fill="#e0e0e0" stroke="#999999" points="1098.99,-201.88 1053.74,-201.88 1053.74,-182.62 1098.99,-182.62 1098.99,-201.88"/>
<text text-anchor="middle" x="1076.37" y="-188.38" font-family="Helvetica,sans-Serif" font-size="10.00">math.h</text>
</a>
</g>
</g>
<!-- Node11&#45;&gt;Node12 -->
<g id="edge11_Node000011_Node000012" class="edge">
<title>Node11&#45;&gt;Node12</title>
<g id="a_edge11_Node000011_Node000012"><a xlink:title=" ">
<path fill="none" stroke="#63b8ff" d="M996.64,-243.18C1011.41,-233.93 1034.74,-219.32 1052.36,-208.29"/>
<polygon fill="#63b8ff" stroke="#63b8ff" points="1054.06,-211.35 1060.67,-203.08 1050.34,-205.42 1054.06,-211.35"/>
</a>
</g>
</g>
<!-- Node13 -->
<g id="Node000013" class="node">
<title>Node13</title>
<g id="a_Node000013"><a xlink:title=" ">
<polygon fill="#e0e0e0" stroke="#999999" points="1161.62,-201.88 1117.12,-201.88 1117.12,-182.62 1161.62,-182.62 1161.62,-201.88"/>
<text text-anchor="middle" x="1139.37" y="-188.38" font-family="Helvetica,sans-Serif" font-size="10.00">stdio.h</text>
</a>
</g>
</g>
<!-- Node11&#45;&gt;Node13 -->
<g id="edge12_Node000011_Node000013" class="edge">
<title>Node11&#45;&gt;Node13</title>
<g id="a_edge12_Node000011_Node000013"><a xlink:title=" ">
<path fill="none" stroke="#63b8ff" d="M1010.17,-243.09C1035.88,-234.54 1075.04,-221.03 1108.37,-207.5 1108.99,-207.25 1109.61,-206.99 1110.24,-206.73"/>
<polygon fill="#63b8ff" stroke="#63b8ff" points="1111.32,-210.08 1119.08,-202.87 1108.52,-203.66 1111.32,-210.08"/>
</a>
</g>
</g>
<!-- Node14 -->
<g id="Node000014" class="node">
<title>Node14</title>
<g id="a_Node000014"><a xlink:title=" ">
<polygon fill="#e0e0e0" stroke="#999999" points="601.12,-201.88 553.62,-201.88 553.62,-182.62 601.12,-182.62 601.12,-201.88"/>
<text text-anchor="middle" x="577.37" y="-188.38" font-family="Helvetica,sans-Serif" font-size="10.00">string.h</text>
</a>
</g>
</g>
<!-- Node11&#45;&gt;Node14 -->
<g id="edge13_Node000011_Node000014" class="edge">
<title>Node11&#45;&gt;Node14</title>
<g id="a_edge13_Node000011_Node000014"><a xlink:title=" ">
<path fill="none" stroke="#63b8ff" d="M944.86,-251.33C876.82,-249.09 728.98,-240.48 609.37,-207.5 608.2,-207.18 607.01,-206.82 605.82,-206.43"/>
<polygon fill="#63b8ff" stroke="#63b8ff" points="607.3,-203.25 596.71,-202.91 604.77,-209.78 607.3,-203.25"/>
</a>
</g>
</g>
<!-- Node11&#45;&gt;Node15 -->
<g id="edge14_Node000011_Node000015" class="edge">
<title>Node11&#45;&gt;Node15</title>
<g id="a_edge14_Node000011_Node000015"><a xlink:title=" ">
<path fill="none" stroke="#63b8ff" d="M944.87,-251.07C850.58,-248.04 596.17,-237.5 386.37,-207.5 245.58,-187.37 206.7,-190.48 73.37,-141 73.02,-140.87 72.66,-140.73 72.31,-140.6"/>
<polygon fill="#63b8ff" stroke="#63b8ff" points="74.05,-137.55 63.51,-136.46 71.07,-143.88 74.05,-137.55"/>
</a>
</g>
</g>
<!-- Node16 -->
<g id="Node000016" class="node">
<title>Node16</title>
<g id="a_Node000016"><a xlink:title=" ">
<polygon fill="#e0e0e0" stroke="#999999" points="669.99,-201.88 618.74,-201.88 618.74,-182.62 669.99,-182.62 669.99,-201.88"/>
<text text-anchor="middle" x="644.37" y="-188.38" font-family="Helvetica,sans-Serif" font-size="10.00">sstream</text>
</a>
</g>
</g>
<!-- Node11&#45;&gt;Node16 -->
<g id="edge17_Node000011_Node000016" class="edge">
<title>Node11&#45;&gt;Node16</title>
<g id="a_edge17_Node000011_Node000016"><a xlink:title=" ">
<path fill="none" stroke="#63b8ff" d="M944.93,-249.52C887.11,-244.85 772.98,-233.05 679.37,-207.5 677.79,-207.07 676.18,-206.58 674.57,-206.06"/>
<polygon fill="#63b8ff" stroke="#63b8ff" points="676.09,-202.89 665.49,-202.75 673.69,-209.47 676.09,-202.89"/>
</a>
</g>
</g>
<!-- Node17 -->
<g id="Node000017" class="node">
<title>Node17</title>
<g id="a_Node000017"><a xlink:title=" ">
<polygon fill="#e0e0e0" stroke="#999999" points="738.62,-201.88 688.12,-201.88 688.12,-182.62 738.62,-182.62 738.62,-201.88"/>
<text text-anchor="middle" x="713.37" y="-188.38" font-family="Helvetica,sans-Serif" font-size="10.00">memory</text>
</a>
</g>
</g>
<!-- Node11&#45;&gt;Node17 -->
<g id="edge18_Node000011_Node000017" class="edge">
<title>Node11&#45;&gt;Node17</title>
<g id="a_edge18_Node000011_Node000017"><a xlink:title=" ">
<path fill="none" stroke="#63b8ff" d="M944.95,-247.32C898.29,-240.81 816.38,-227.61 748.37,-207.5 746.99,-207.09 745.59,-206.65 744.18,-206.18"/>
<polygon fill="#63b8ff" stroke="#63b8ff" points="745.5,-202.94 734.9,-202.76 743.07,-209.5 745.5,-202.94"/>
</a>
</g>
</g>
<!-- Node11&#45;&gt;Node18 -->
<g id="edge19_Node000011_Node000018" class="edge">
<title>Node11&#45;&gt;Node18</title>
<g id="a_edge19_Node000011_Node000018"><a xlink:title=" ">
<path fill="none" stroke="#63b8ff" d="M1019.88,-252.11C1063.48,-250.36 1135.89,-241.91 1186.37,-207.5 1208.54,-192.39 1224,-164.88 1232.54,-146.21"/>
<polygon fill="#63b8ff" stroke="#63b8ff" points="1235.73,-147.64 1236.46,-137.07 1229.3,-144.89 1235.73,-147.64"/>
</a>
</g>
</g>
<!-- Node19 -->
<g id="Node000019" class="node">
<title>Node19</title>
<g id="a_Node000019"><a xlink:title=" ">
<polygon fill="#e0e0e0" stroke="#999999" points="785.77,-201.88 756.97,-201.88 756.97,-182.62 785.77,-182.62 785.77,-201.88"/>
<text text-anchor="middle" x="771.37" y="-188.38" font-family="Helvetica,sans-Serif" font-size="10.00">list</text>
</a>
</g>
</g>
<!-- Node11&#45;&gt;Node19 -->
<g id="edge20_Node000011_Node000019" class="edge">
<title>Node11&#45;&gt;Node19</title>
<g id="a_edge20_Node000011_Node000019"><a xlink:title=" ">
<path fill="none" stroke="#63b8ff" d="M944.88,-246.87C906.12,-240.61 844.4,-228.29 794.37,-207.5 794.26,-207.45 794.15,-207.41 794.04,-207.36"/>
<polygon fill="#63b8ff" stroke="#63b8ff" points="795.93,-204.4 785.45,-202.85 792.68,-210.6 795.93,-204.4"/>
</a>
</g>
</g>
<!-- Node20 -->
<g id="Node000020" class="node">
<title>Node20</title>
<g id="a_Node000020"><a xlink:href="IssueFactory_8hpp.html" target="_top" xlink:title=" ">
<polygon fill="white" stroke="#666666" points="1035.74,-201.88 928.99,-201.88 928.99,-182.62 1035.74,-182.62 1035.74,-201.88"/>
<text text-anchor="middle" x="982.37" y="-188.38" font-family="Helvetica,sans-Serif" font-size="10.00">ers/IssueFactory.hpp</text>
</a>
</g>
</g>
<!-- Node11&#45;&gt;Node20 -->
<g id="edge21_Node000011_Node000020" class="edge">
<title>Node11&#45;&gt;Node20</title>
<g id="a_edge21_Node000011_Node000020"><a xlink:title=" ">
<path fill="none" stroke="#63b8ff" d="M982.37,-243.18C982.37,-235.4 982.37,-223.83 982.37,-213.78"/>
<polygon fill="#63b8ff" stroke="#63b8ff" points="985.87,-213.79 982.37,-203.79 978.87,-213.79 985.87,-213.79"/>
</a>
</g>
</g>
<!-- Node22 -->
<g id="Node000022" class="node">
<title>Node22</title>
<g id="a_Node000022"><a xlink:href="Severity_8hpp.html" target="_top" xlink:title=" ">
<polygon fill="white" stroke="#666666" points="1161.24,-135.38 1075.49,-135.38 1075.49,-116.12 1161.24,-116.12 1161.24,-135.38"/>
<text text-anchor="middle" x="1118.37" y="-121.88" font-family="Helvetica,sans-Serif" font-size="10.00">ers/Severity.hpp</text>
</a>
</g>
</g>
<!-- Node11&#45;&gt;Node22 -->
<g id="edge38_Node000011_Node000022" class="edge">
<title>Node11&#45;&gt;Node22</title>
<g id="a_edge38_Node000011_Node000022"><a xlink:title=" ">
<path fill="none" stroke="#63b8ff" d="M1019.77,-248.65C1069.13,-243.21 1151.96,-230.79 1170.37,-207.5 1187.14,-186.29 1161.79,-159.55 1140.96,-142.79"/>
<polygon fill="#63b8ff" stroke="#63b8ff" points="1143.15,-140.06 1133.08,-136.77 1138.9,-145.62 1143.15,-140.06"/>
</a>
</g>
</g>
<!-- Node23 -->
<g id="Node000023" class="node">
<title>Node23</title>
<g id="a_Node000023"><a xlink:href="LocalContext_8hpp.html" target="_top" xlink:title=" ">
<polygon fill="white" stroke="#666666" points="911.12,-201.88 803.62,-201.88 803.62,-182.62 911.12,-182.62 911.12,-201.88"/>
<text text-anchor="middle" x="857.37" y="-188.38" font-family="Helvetica,sans-Serif" font-size="10.00">ers/LocalContext.hpp</text>
</a>
</g>
</g>
<!-- Node11&#45;&gt;Node23 -->
<g id="edge30_Node000011_Node000023" class="edge">
<title>Node11&#45;&gt;Node23</title>
<g id="a_edge30_Node000011_Node000023"><a xlink:title=" ">
<path fill="none" stroke="#63b8ff" d="M963.11,-243.05C942.68,-233.43 910.16,-218.12 886.58,-207.01"/>
<polygon fill="#63b8ff" stroke="#63b8ff" points="888.35,-203.97 877.81,-202.88 885.37,-210.31 888.35,-203.97"/>
</a>
</g>
</g>
<!-- Node28 -->
<g id="Node000028" class="node">
<title>Node28</title>
<g id="a_Node000028"><a xlink:href="IssueDeclarationMacro_8hpp.html" target="_top" xlink:title=" ">
<polygon fill="white" stroke="#666666" points="535.24,-207.5 395.49,-207.5 395.49,-177 535.24,-177 535.24,-207.5"/>
<text text-anchor="start" x="403.49" y="-194" font-family="Helvetica,sans-Serif" font-size="10.00">ers/internal/IssueDeclaration</text>
<text text-anchor="middle" x="465.37" y="-182.75" font-family="Helvetica,sans-Serif" font-size="10.00">Macro.hpp</text>
</a>
</g>
</g>
<!-- Node11&#45;&gt;Node28 -->
<g id="edge39_Node000011_Node000028" class="edge">
<title>Node11&#45;&gt;Node28</title>
<g id="a_edge39_Node000011_Node000028"><a xlink:title=" ">
<path fill="none" stroke="#63b8ff" d="M944.75,-249.27C870.62,-243.44 700.19,-229 546.57,-207.74"/>
<polygon fill="#63b8ff" stroke="#63b8ff" points="547.42,-204.32 537.03,-206.41 546.45,-211.26 547.42,-204.32"/>
</a>
</g>
</g>
<!-- Node20&#45;&gt;Node9 -->
<g id="edge23_Node000020_Node000009" class="edge">
<title>Node20&#45;&gt;Node9</title>
<g id="a_edge23_Node000020_Node000009"><a xlink:title=" ">
<path fill="none" stroke="#63b8ff" d="M1019.5,-182.2C1070.34,-169.68 1156.88,-147.83 1170.37,-141 1189.69,-131.22 1188.97,-120.13 1208.37,-110.5 1256.39,-86.65 1318.19,-74.87 1354.91,-69.6"/>
<polygon fill="#63b8ff" stroke="#63b8ff" points="1354.96,-73.13 1364.4,-68.32 1354.02,-66.19 1354.96,-73.13"/>
</a>
</g>
</g>
<!-- Node20&#45;&gt;Node15 -->
<g id="edge25_Node000020_Node000015" class="edge">
<title>Node20&#45;&gt;Node15</title>
<g id="a_edge25_Node000020_Node000015"><a xlink:title=" ">
<path fill="none" stroke="#63b8ff" d="M947.82,-182.13C938.93,-180.11 929.34,-178.21 920.37,-177 733.67,-151.79 254.84,-191.6 73.37,-141 72.72,-140.82 72.07,-140.62 71.41,-140.4"/>
<polygon fill="#63b8ff" stroke="#63b8ff" points="73.11,-137.33 62.55,-136.45 70.26,-143.72 73.11,-137.33"/>
</a>
</g>
</g>
<!-- Node20&#45;&gt;Node18 -->
<g id="edge22_Node000020_Node000018" class="edge">
<title>Node20&#45;&gt;Node18</title>
<g id="a_edge22_Node000020_Node000018"><a xlink:title=" ">
<path fill="none" stroke="#63b8ff" d="M1021.72,-182.18C1029.24,-180.46 1037.05,-178.67 1044.37,-177 1115.01,-160.89 1134.05,-162.08 1203.37,-141 1204.74,-140.58 1206.13,-140.14 1207.53,-139.68"/>
<polygon fill="#63b8ff" stroke="#63b8ff" points="1208.57,-143.02 1216.82,-136.38 1206.22,-136.43 1208.57,-143.02"/>
</a>
</g>
</g>
<!-- Node20&#45;&gt;Node21 -->
<g id="edge24_Node000020_Node000021" class="edge">
<title>Node20&#45;&gt;Node21</title>
<g id="a_edge24_Node000020_Node000021"><a xlink:title=" ">
<path fill="none" stroke="#63b8ff" d="M993.13,-182.38C1003.66,-173.12 1019.39,-157.66 1028.37,-141 1037.74,-123.62 1042.61,-101.48 1045.06,-85.74"/>
<polygon fill="#63b8ff" stroke="#63b8ff" points="1048.48,-86.59 1046.35,-76.21 1041.54,-85.66 1048.48,-86.59"/>
</a>
</g>
</g>
<!-- Node20&#45;&gt;Node22 -->
<g id="edge26_Node000020_Node000022" class="edge">
<title>Node20&#45;&gt;Node22</title>
<g id="a_edge26_Node000020_Node000022"><a xlink:title=" ">
<path fill="none" stroke="#63b8ff" d="M1001.57,-182.15C1024.35,-171.34 1062.57,-153.21 1089.06,-140.65"/>
<polygon fill="#63b8ff" stroke="#63b8ff" points="1090.37,-143.9 1097.9,-136.46 1087.37,-137.58 1090.37,-143.9"/>
</a>
</g>
</g>
<!-- Node22&#45;&gt;Node8 -->
<g id="edge29_Node000022_Node000008" class="edge">
<title>Node22&#45;&gt;Node8</title>
<g id="a_edge29_Node000022_Node000008"><a xlink:title=" ">
<path fill="none" stroke="#63b8ff" d="M1114.09,-115.76C1107.39,-102.09 1093.59,-75.5 1078.37,-55.25 1070.96,-45.4 1061.57,-35.43 1053.46,-27.42"/>
<polygon fill="#63b8ff" stroke="#63b8ff" points="1056.04,-25.04 1046.4,-20.64 1051.19,-30.09 1056.04,-25.04"/>
</a>
</g>
</g>
<!-- Node22&#45;&gt;Node9 -->
<g id="edge27_Node000022_Node000009" class="edge">
<title>Node22&#45;&gt;Node9</title>
<g id="a_edge27_Node000022_Node000009"><a xlink:title=" ">
<path fill="none" stroke="#63b8ff" d="M1153.9,-115.66C1161,-113.9 1168.41,-112.1 1175.37,-110.5 1238.79,-95.87 1313.38,-80.53 1354.72,-72.19"/>
<polygon fill="#63b8ff" stroke="#63b8ff" points="1355.35,-75.64 1364.46,-70.23 1353.97,-68.77 1355.35,-75.64"/>
</a>
</g>
</g>
<!-- Node22&#45;&gt;Node21 -->
<g id="edge28_Node000022_Node000021" class="edge">
<title>Node22&#45;&gt;Node21</title>
<g id="a_edge28_Node000022_Node000021"><a xlink:title=" ">
<path fill="none" stroke="#63b8ff" d="M1107.58,-115.81C1096.85,-106.9 1080.12,-93.03 1067.02,-82.17"/>
<polygon fill="#63b8ff" stroke="#63b8ff" points="1069.35,-79.56 1059.42,-75.87 1064.88,-84.94 1069.35,-79.56"/>
</a>
</g>
</g>
<!-- Node24 -->
<g id="Node000024" class="node">
<title>Node24</title>
<g id="a_Node000024"><a xlink:title=" ">
<polygon fill="#e0e0e0" stroke="#999999" points="849.74,-135.38 784.99,-135.38 784.99,-116.12 849.74,-116.12 849.74,-135.38"/>
<text text-anchor="middle" x="817.37" y="-121.88" font-family="Helvetica,sans-Serif" font-size="10.00">sys/types.h</text>
</a>
</g>
</g>
<!-- Node23&#45;&gt;Node24 -->
<g id="edge31_Node000023_Node000024" class="edge">
<title>Node23&#45;&gt;Node24</title>
<g id="a_edge31_Node000023_Node000024"><a xlink:title=" ">
<path fill="none" stroke="#63b8ff" d="M851.81,-182.28C845.9,-172.75 836.38,-157.41 828.85,-145.27"/>
<polygon fill="#63b8ff" stroke="#63b8ff" points="831.93,-143.58 823.68,-136.93 825.98,-147.27 831.93,-143.58"/>
</a>
</g>
</g>
<!-- Node25 -->
<g id="Node000025" class="node">
<title>Node25</title>
<g id="a_Node000025"><a xlink:title=" ">
<polygon fill="#e0e0e0" stroke="#999999" points="1019.24,-135.38 969.49,-135.38 969.49,-116.12 1019.24,-116.12 1019.24,-135.38"/>
<text text-anchor="middle" x="994.37" y="-121.88" font-family="Helvetica,sans-Serif" font-size="10.00">unistd.h</text>
</a>
</g>
</g>
<!-- Node23&#45;&gt;Node25 -->
<g id="edge32_Node000023_Node000025" class="edge">
<title>Node23&#45;&gt;Node25</title>
<g id="a_edge32_Node000023_Node000025"><a xlink:title=" ">
<path fill="none" stroke="#63b8ff" d="M876.71,-182.15C899.66,-171.34 938.16,-153.21 964.84,-140.65"/>
<polygon fill="#63b8ff" stroke="#63b8ff" points="966.2,-143.88 973.76,-136.45 963.22,-137.55 966.2,-143.88"/>
</a>
</g>
</g>
<!-- Node26 -->
<g id="Node000026" class="node">
<title>Node26</title>
<g id="a_Node000026"><a xlink:href="Context_8hpp.html" target="_top" xlink:title=" ">
<polygon fill="white" stroke="#666666" points="951.12,-135.38 867.62,-135.38 867.62,-116.12 951.12,-116.12 951.12,-135.38"/>
<text text-anchor="middle" x="909.37" y="-121.88" font-family="Helvetica,sans-Serif" font-size="10.00">ers/Context.hpp</text>
</a>
</g>
</g>
<!-- Node23&#45;&gt;Node26 -->
<g id="edge33_Node000023_Node000026" class="edge">
<title>Node23&#45;&gt;Node26</title>
<g id="a_edge33_Node000023_Node000026"><a xlink:title=" ">
<path fill="none" stroke="#63b8ff" d="M864.6,-182.28C872.44,-172.56 885.15,-156.79 895.03,-144.53"/>
<polygon fill="#63b8ff" stroke="#63b8ff" points="897.7,-146.8 901.25,-136.82 892.25,-142.41 897.7,-146.8"/>
</a>
</g>
</g>
<!-- Node26&#45;&gt;Node9 -->
<g id="edge34_Node000026_Node000009" class="edge">
<title>Node26&#45;&gt;Node9</title>
<g id="a_edge34_Node000026_Node000009"><a xlink:title=" ">
<path fill="none" stroke="#63b8ff" d="M938.56,-115.68C945.65,-113.74 953.23,-111.86 960.37,-110.5 1106.41,-82.65 1284.18,-71.08 1355.03,-67.35"/>
<polygon fill="#63b8ff" stroke="#63b8ff" points="1354.91,-70.86 1364.72,-66.86 1354.56,-63.87 1354.91,-70.86"/>
</a>
</g>
</g>
<!-- Node26&#45;&gt;Node21 -->
<g id="edge35_Node000026_Node000021" class="edge">
<title>Node26&#45;&gt;Node21</title>
<g id="a_edge35_Node000026_Node000021"><a xlink:title=" ">
<path fill="none" stroke="#63b8ff" d="M930.63,-115.68C953.39,-105.97 989.73,-90.46 1015.83,-79.33"/>
<polygon fill="#63b8ff" stroke="#63b8ff" points="1017.09,-82.6 1024.92,-75.45 1014.35,-76.16 1017.09,-82.6"/>
</a>
</g>
</g>
<!-- Node27 -->
<g id="Node000027" class="node">
<title>Node27</title>
<g id="a_Node000027"><a xlink:href="ers_2include_2ers_2Configuration_8hpp.html" target="_top" xlink:title=" ">
<polygon fill="white" stroke="#666666" points="984.74,-74.5 877.99,-74.5 877.99,-55.25 984.74,-55.25 984.74,-74.5"/>
<text text-anchor="middle" x="931.37" y="-61" font-family="Helvetica,sans-Serif" font-size="10.00">ers/Configuration.hpp</text>
</a>
</g>
</g>
<!-- Node26&#45;&gt;Node27 -->
<g id="edge36_Node000026_Node000027" class="edge">
<title>Node26&#45;&gt;Node27</title>
<g id="a_edge36_Node000026_Node000027"><a xlink:title=" ">
<path fill="none" stroke="#63b8ff" d="M912.71,-115.81C915.71,-107.77 920.23,-95.68 924.07,-85.41"/>
<polygon fill="#63b8ff" stroke="#63b8ff" points="927.24,-86.91 927.47,-76.32 920.69,-84.46 927.24,-86.91"/>
</a>
</g>
</g>
<!-- Node27&#45;&gt;Node8 -->
<g id="edge37_Node000027_Node000008" class="edge">
<title>Node27&#45;&gt;Node8</title>
<g id="a_edge37_Node000027_Node000008"><a xlink:title=" ">
<path fill="none" stroke="#63b8ff" d="M949.01,-54.84C965,-46.66 988.83,-34.46 1007.41,-24.94"/>
<polygon fill="#63b8ff" stroke="#63b8ff" points="1008.99,-28.07 1016.29,-20.39 1005.8,-21.83 1008.99,-28.07"/>
</a>
</g>
</g>
<!-- Node29 -->
<g id="Node000029" class="node">
<title>Node29</title>
<g id="a_Node000029"><a xlink:title=" ">
<polygon fill="#e0e0e0" stroke="#999999" points="649.99,-141 550.74,-141 550.74,-110.5 649.99,-110.5 649.99,-141"/>
<text text-anchor="start" x="558.74" y="-127.5" font-family="Helvetica,sans-Serif" font-size="10.00">boost/preprocessor</text>
<text text-anchor="middle" x="600.37" y="-116.25" font-family="Helvetica,sans-Serif" font-size="10.00">/if.hpp</text>
</a>
</g>
</g>
<!-- Node28&#45;&gt;Node29 -->
<g id="edge40_Node000028_Node000029" class="edge">
<title>Node28&#45;&gt;Node29</title>
<g id="a_edge40_Node000028_Node000029"><a xlink:title=" ">
<path fill="none" stroke="#63b8ff" d="M496,-176.61C514.82,-167.63 539.14,-156 559.58,-146.24"/>
<polygon fill="#63b8ff" stroke="#63b8ff" points="560.98,-149.45 568.49,-141.98 557.96,-143.13 560.98,-149.45"/>
</a>
</g>
</g>
<!-- Node30 -->
<g id="Node000030" class="node">
<title>Node30</title>
<g id="a_Node000030"><a xlink:title=" ">
<polygon fill="#e0e0e0" stroke="#999999" points="766.99,-141 667.74,-141 667.74,-110.5 766.99,-110.5 766.99,-141"/>
<text text-anchor="start" x="675.74" y="-127.5" font-family="Helvetica,sans-Serif" font-size="10.00">boost/preprocessor</text>
<text text-anchor="middle" x="717.37" y="-116.25" font-family="Helvetica,sans-Serif" font-size="10.00">/seq.hpp</text>
</a>
</g>
</g>
<!-- Node28&#45;&gt;Node30 -->
<g id="edge41_Node000028_Node000030" class="edge">
<title>Node28&#45;&gt;Node30</title>
<g id="a_edge41_Node000028_Node000030"><a xlink:title=" ">
<path fill="none" stroke="#63b8ff" d="M522.87,-176.53C562.7,-166.34 615.66,-152.78 656.26,-142.39"/>
<polygon fill="#63b8ff" stroke="#63b8ff" points="657.07,-145.8 665.89,-139.93 655.34,-139.01 657.07,-145.8"/>
</a>
</g>
</g>
<!-- Node31 -->
<g id="Node000031" class="node">
<title>Node31</title>
<g id="a_Node000031"><a xlink:title=" ">
<polygon fill="#e0e0e0" stroke="#999999" points="181.99,-141 82.74,-141 82.74,-110.5 181.99,-110.5 181.99,-141"/>
<text text-anchor="start" x="90.74" y="-127.5" font-family="Helvetica,sans-Serif" font-size="10.00">boost/preprocessor</text>
<text text-anchor="middle" x="132.37" y="-116.25" font-family="Helvetica,sans-Serif" font-size="10.00">/tuple.hpp</text>
</a>
</g>
</g>
<!-- Node28&#45;&gt;Node31 -->
<g id="edge42_Node000028_Node000031" class="edge">
<title>Node28&#45;&gt;Node31</title>
<g id="a_edge42_Node000028_Node000031"><a xlink:title=" ">
<path fill="none" stroke="#63b8ff" d="M395.06,-179.6C341.97,-170.53 267.08,-157.15 193.2,-141.54"/>
<polygon fill="#63b8ff" stroke="#63b8ff" points="194.3,-138.2 183.79,-139.54 192.84,-145.04 194.3,-138.2"/>
</a>
</g>
</g>
<!-- Node32 -->
<g id="Node000032" class="node">
<title>Node32</title>
<g id="a_Node000032"><a xlink:title=" ">
<polygon fill="#e0e0e0" stroke="#999999" points="298.99,-141 199.74,-141 199.74,-110.5 298.99,-110.5 298.99,-141"/>
<text text-anchor="start" x="207.74" y="-127.5" font-family="Helvetica,sans-Serif" font-size="10.00">boost/preprocessor</text>
<text text-anchor="middle" x="249.37" y="-116.25" font-family="Helvetica,sans-Serif" font-size="10.00">/logical.hpp</text>
</a>
</g>
</g>
<!-- Node28&#45;&gt;Node32 -->
<g id="edge43_Node000028_Node000032" class="edge">
<title>Node28&#45;&gt;Node32</title>
<g id="a_edge43_Node000028_Node000032"><a xlink:title=" ">
<path fill="none" stroke="#63b8ff" d="M416.08,-176.53C384.29,-167.04 342.74,-154.63 309.07,-144.58"/>
<polygon fill="#63b8ff" stroke="#63b8ff" points="310.47,-141.34 299.89,-141.84 308.47,-148.05 310.47,-141.34"/>
</a>
</g>
</g>
<!-- Node33 -->
<g id="Node000033" class="node">
<title>Node33</title>
<g id="a_Node000033"><a xlink:title=" ">
<polygon fill="#e0e0e0" stroke="#999999" points="415.99,-141 316.74,-141 316.74,-110.5 415.99,-110.5 415.99,-141"/>
<text text-anchor="start" x="324.74" y="-127.5" font-family="Helvetica,sans-Serif" font-size="10.00">boost/preprocessor</text>
<text text-anchor="middle" x="366.37" y="-116.25" font-family="Helvetica,sans-Serif" font-size="10.00">/stringize.hpp</text>
</a>
</g>
</g>
<!-- Node28&#45;&gt;Node33 -->
<g id="edge44_Node000028_Node000033" class="edge">
<title>Node28&#45;&gt;Node33</title>
<g id="a_edge44_Node000028_Node000033"><a xlink:title=" ">
<path fill="none" stroke="#63b8ff" d="M442.9,-176.61C429.74,-168.04 412.9,-157.06 398.36,-147.59"/>
<polygon fill="#63b8ff" stroke="#63b8ff" points="400.3,-144.68 390.01,-142.15 396.48,-150.55 400.3,-144.68"/>
</a>
</g>
</g>
<!-- Node34 -->
<g id="Node000034" class="node">
<title>Node34</title>
<g id="a_Node000034"><a xlink:title=" ">
<polygon fill="#e0e0e0" stroke="#999999" points="532.99,-141 433.74,-141 433.74,-110.5 532.99,-110.5 532.99,-141"/>
<text text-anchor="start" x="441.74" y="-127.5" font-family="Helvetica,sans-Serif" font-size="10.00">boost/preprocessor</text>
<text text-anchor="middle" x="483.37" y="-116.25" font-family="Helvetica,sans-Serif" font-size="10.00">/comparison.hpp</text>
</a>
</g>
</g>
<!-- Node28&#45;&gt;Node34 -->
<g id="edge45_Node000028_Node000034" class="edge">
<title>Node28&#45;&gt;Node34</title>
<g id="a_edge45_Node000028_Node000034"><a xlink:title=" ">
<path fill="none" stroke="#63b8ff" d="M469.45,-176.61C471.46,-169.44 473.93,-160.59 476.23,-152.34"/>
<polygon fill="#63b8ff" stroke="#63b8ff" points="479.58,-153.36 478.89,-142.79 472.83,-151.48 479.58,-153.36"/>
</a>
</g>
</g>
<!-- Node36&#45;&gt;Node9 -->
<g id="edge52_Node000036_Node000009" class="edge">
<title>Node36&#45;&gt;Node9</title>
<g id="a_edge52_Node000036_Node000009"><a xlink:title=" ">
<path fill="none" stroke="#63b8ff" d="M1342.2,-298.32C1355.06,-290.74 1371.47,-278.6 1379.37,-262.75 1408.57,-204.15 1398.01,-123.11 1390.83,-85.95"/>
<polygon fill="#63b8ff" stroke="#63b8ff" points="1394.27,-85.3 1388.81,-76.23 1387.42,-86.73 1394.27,-85.3"/>
</a>
</g>
</g>
<!-- Node36&#45;&gt;Node11 -->
<g id="edge51_Node000036_Node000011" class="edge">
<title>Node36&#45;&gt;Node11</title>
<g id="a_edge51_Node000036_Node000011"><a xlink:title=" ">
<path fill="none" stroke="#63b8ff" d="M1277.89,-300.14C1213.37,-290.09 1097.18,-272 1031.35,-261.75"/>
<polygon fill="#63b8ff" stroke="#63b8ff" points="1031.98,-258.31 1021.56,-260.23 1030.9,-265.22 1031.98,-258.31"/>
</a>
</g>
</g>
<!-- Node38&#45;&gt;Node4 -->
<g id="edge62_Node000038_Node000004" class="edge">
<title>Node38&#45;&gt;Node4</title>
<g id="a_edge62_Node000038_Node000004"><a xlink:title=" ">
<path fill="none" stroke="#63b8ff" d="M1445.3,-353.62C1430.99,-340.95 1403.79,-317.32 1379.37,-298.75 1365.87,-288.48 1350.22,-277.7 1337.65,-269.31"/>
<polygon fill="#63b8ff" stroke="#63b8ff" points="1339.87,-266.58 1329.6,-263.98 1336.01,-272.42 1339.87,-266.58"/>
</a>
</g>
</g>
<!-- Node38&#45;&gt;Node5 -->
<g id="edge61_Node000038_Node000005" class="edge">
<title>Node38&#45;&gt;Node5</title>
<g id="a_edge61_Node000038_Node000005"><a xlink:title=" ">
<path fill="none" stroke="#63b8ff" d="M1507.24,-356.49C1556.98,-349.58 1627.37,-336.82 1647.37,-318 1659.36,-306.72 1663.89,-288.24 1665.55,-274.05"/>
<polygon fill="#63b8ff" stroke="#63b8ff" points="1669.01,-274.72 1666.27,-264.49 1662.03,-274.2 1669.01,-274.72"/>
</a>
</g>
</g>
<!-- Node38&#45;&gt;Node9 -->
<g id="edge64_Node000038_Node000009" class="edge">
<title>Node38&#45;&gt;Node9</title>
<g id="a_edge64_Node000038_Node000009"><a xlink:title=" ">
<path fill="none" stroke="#63b8ff" d="M1507.24,-360.42C1621.6,-354.15 1885.37,-331.31 1885.37,-254.12 1885.37,-254.12 1885.37,-254.12 1885.37,-191.25 1885.37,-94.5 1528.05,-71.71 1418.15,-66.99"/>
<polygon fill="#63b8ff" stroke="#63b8ff" points="1418.51,-63.51 1408.37,-66.6 1418.22,-70.5 1418.51,-63.51"/>
</a>
</g>
</g>
<!-- Node38&#45;&gt;Node11 -->
<g id="edge60_Node000038_Node000011" class="edge">
<title>Node38&#45;&gt;Node11</title>
<g id="a_edge60_Node000038_Node000011"><a xlink:title=" ">
<path fill="none" stroke="#63b8ff" d="M1403.48,-358.66C1318.36,-351.73 1152.97,-336.4 1097.37,-318 1080.88,-312.54 1078.53,-307.22 1063.37,-298.75 1045.09,-288.54 1024.41,-277.15 1008.52,-268.43"/>
<polygon fill="#63b8ff" stroke="#63b8ff" points="1010.62,-265.59 1000.17,-263.86 1007.26,-271.73 1010.62,-265.59"/>
</a>
</g>
</g>
<!-- Node38&#45;&gt;Node21 -->
<g id="edge65_Node000038_Node000021" class="edge">
<title>Node38&#45;&gt;Node21</title>
<g id="a_edge65_Node000038_Node000021"><a xlink:title=" ">
<path fill="none" stroke="#63b8ff" d="M1451.88,-353.5C1436.99,-315.98 1374.84,-172.56 1272.37,-110.5 1211.86,-73.86 1127,-66.58 1080.71,-65.56"/>
<polygon fill="#63b8ff" stroke="#63b8ff" points="1080.82,-62.06 1070.78,-65.44 1080.74,-69.06 1080.82,-62.06"/>
</a>
</g>
</g>
<!-- Node38&#45;&gt;Node36 -->
<g id="edge59_Node000038_Node000036" class="edge">
<title>Node38&#45;&gt;Node36</title>
<g id="a_edge59_Node000038_Node000036"><a xlink:title=" ">
<path fill="none" stroke="#63b8ff" d="M1433.15,-353.59C1412.35,-345.14 1381.02,-332.4 1357.32,-322.77"/>
<polygon fill="#63b8ff" stroke="#63b8ff" points="1358.68,-319.55 1348.1,-319.02 1356.05,-326.03 1358.68,-319.55"/>
</a>
</g>
</g>
<!-- Node39 -->
<g id="Node000039" class="node">
<title>Node39</title>
<g id="a_Node000039"><a xlink:title=" ">
<polygon fill="#e0e0e0" stroke="#999999" points="1638.74,-318 1501.99,-318 1501.99,-298.75 1638.74,-298.75 1638.74,-318"/>
<text text-anchor="middle" x="1570.37" y="-304.5" font-family="Helvetica,sans-Serif" font-size="10.00">boost/core/noncopyable.hpp</text>
</a>
</g>
</g>
<!-- Node38&#45;&gt;Node39 -->
<g id="edge63_Node000038_Node000039" class="edge">
<title>Node38&#45;&gt;Node39</title>
<g id="a_edge63_Node000038_Node000039"><a xlink:title=" ">
<path fill="none" stroke="#63b8ff" d="M1474.88,-353.59C1492.88,-345.25 1519.89,-332.75 1540.59,-323.16"/>
<polygon fill="#63b8ff" stroke="#63b8ff" points="1541.79,-326.47 1549.39,-319.09 1538.85,-320.11 1541.79,-326.47"/>
</a>
</g>
</g>
</g>
</svg>
