<?xml version="1.0" encoding="UTF-8" standalone="no"?>
<!DOCTYPE svg PUBLIC "-//W3C//DTD SVG 1.1//EN"
 "http://www.w3.org/Graphics/SVG/1.1/DTD/svg11.dtd">
<!-- Generated by graphviz version 9.0.0 (20230911.1827)
 -->
<!-- Title: /github/workspace/dev_area/sourcecode/appfwk/src/detail/DAQModuleManager.hxx Pages: 1 -->
<svg width="176pt" height="205pt"
 viewBox="0.00 0.00 176.25 205.25" xmlns="http://www.w3.org/2000/svg" xmlns:xlink="http://www.w3.org/1999/xlink">
<g id="graph0" class="graph" transform="scale(1 1) rotate(0) translate(4 201.25)">
<title>/github/workspace/dev_area/sourcecode/appfwk/src/detail/DAQModuleManager.hxx</title>
<!-- Node1 -->
<g id="Node000001" class="node">
<title>Node1</title>
<g id="a_Node000001"><a xlink:title=" ">
<polygon fill="#999999" stroke="#666666" points="168.25,-197.25 0,-197.25 0,-155.5 168.25,-155.5 168.25,-197.25"/>
<text text-anchor="start" x="8" y="-183.75" font-family="Helvetica,sans-Serif" font-size="10.00">/github/workspace/dev</text>
<text text-anchor="start" x="8" y="-172.5" font-family="Helvetica,sans-Serif" font-size="10.00">_area/sourcecode/appfwk</text>
<text text-anchor="middle" x="84.12" y="-161.25" font-family="Helvetica,sans-Serif" font-size="10.00">/src/detail/DAQModuleManager.hxx</text>
</a>
</g>
</g>
<!-- Node2 -->
<g id="Node000002" class="node">
<title>Node2</title>
<g id="a_Node000002"><a xlink:href="DAQModuleManager_8hpp.html" target="_top" xlink:title=" ">
<polygon fill="white" stroke="#666666" points="155.88,-119.5 12.38,-119.5 12.38,-77.75 155.88,-77.75 155.88,-119.5"/>
<text text-anchor="start" x="20.38" y="-106" font-family="Helvetica,sans-Serif" font-size="10.00">/github/workspace/dev</text>
<text text-anchor="start" x="20.38" y="-94.75" font-family="Helvetica,sans-Serif" font-size="10.00">_area/sourcecode/appfwk</text>
<text text-anchor="middle" x="84.12" y="-83.5" font-family="Helvetica,sans-Serif" font-size="10.00">/src/DAQModuleManager.hpp</text>
</a>
</g>
</g>
<!-- Node1&#45;&gt;Node2 -->
<g id="edge1_Node000001_Node000002" class="edge">
<title>Node1&#45;&gt;Node2</title>
<g id="a_edge1_Node000001_Node000002"><a xlink:title=" ">
<path fill="none" stroke="#63b8ff" d="M84.12,-143.75C84.12,-135.71 84.12,-127.29 84.12,-119.98"/>
<polygon fill="#63b8ff" stroke="#63b8ff" points="80.63,-143.56 84.13,-153.56 87.63,-143.56 80.63,-143.56"/>
</a>
</g>
</g>
<!-- Node3 -->
<g id="Node000003" class="node">
<title>Node3</title>
<g id="a_Node000003"><a xlink:href="sourcecode_2appfwk_2src_2Application_8hpp.html" target="_top" xlink:title=" ">
<polygon fill="white" stroke="#666666" points="148,-41.75 20.25,-41.75 20.25,0 148,0 148,-41.75"/>
<text text-anchor="start" x="28.25" y="-28.25" font-family="Helvetica,sans-Serif" font-size="10.00">/github/workspace/dev</text>
<text text-anchor="start" x="28.25" y="-17" font-family="Helvetica,sans-Serif" font-size="10.00">_area/sourcecode/appfwk</text>
<text text-anchor="middle" x="84.12" y="-5.75" font-family="Helvetica,sans-Serif" font-size="10.00">/src/Application.hpp</text>
</a>
</g>
</g>
<!-- Node2&#45;&gt;Node3 -->
<g id="edge2_Node000002_Node000003" class="edge">
<title>Node2&#45;&gt;Node3</title>
<g id="a_edge2_Node000002_Node000003"><a xlink:title=" ">
<path fill="none" stroke="#63b8ff" d="M84.12,-66C84.12,-57.96 84.12,-49.54 84.12,-42.23"/>
<polygon fill="#63b8ff" stroke="#63b8ff" points="80.63,-65.81 84.13,-75.81 87.63,-65.81 80.63,-65.81"/>
</a>
</g>
</g>
</g>
</svg>
