<?xml version="1.0" encoding="UTF-8" standalone="no"?>
<!DOCTYPE svg PUBLIC "-//W3C//DTD SVG 1.1//EN"
 "http://www.w3.org/Graphics/SVG/1.1/DTD/svg11.dtd">
<!-- Generated by graphviz version 9.0.0 (20230911.1827)
 -->
<!-- Title: /github/workspace/dev_area/sourcecode/dfmessages/include/dfmessages/Types.hpp Pages: 1 -->
<svg width="2816pt" height="561pt"
 viewBox="0.00 0.00 2816.00 561.25" xmlns="http://www.w3.org/2000/svg" xmlns:xlink="http://www.w3.org/1999/xlink">
<g id="graph0" class="graph" transform="scale(1 1) rotate(0) translate(4 557.25)">
<title>/github/workspace/dev_area/sourcecode/dfmessages/include/dfmessages/Types.hpp</title>
<!-- Node1 -->
<g id="Node000001" class="node">
<title>Node1</title>
<g id="a_Node000001"><a xlink:title=" ">
<polygon fill="#999999" stroke="#666666" points="2156.5,-553.25 2003.25,-553.25 2003.25,-511.5 2156.5,-511.5 2156.5,-553.25"/>
<text text-anchor="start" x="2011.25" y="-539.75" font-family="Helvetica,sans-Serif" font-size="10.00">/github/workspace/dev</text>
<text text-anchor="start" x="2011.25" y="-528.5" font-family="Helvetica,sans-Serif" font-size="10.00">_area/sourcecode/dfmessages</text>
<text text-anchor="middle" x="2079.88" y="-517.25" font-family="Helvetica,sans-Serif" font-size="10.00">/include/dfmessages/Types.hpp</text>
</a>
</g>
</g>
<!-- Node2 -->
<g id="Node000002" class="node">
<title>Node2</title>
<g id="a_Node000002"><a xlink:href="DataRequest_8hpp.html" target="_top" xlink:title=" ">
<polygon fill="white" stroke="#666666" points="1226.5,-469.88 1043.25,-469.88 1043.25,-428.12 1226.5,-428.12 1226.5,-469.88"/>
<text text-anchor="start" x="1051.25" y="-456.38" font-family="Helvetica,sans-Serif" font-size="10.00">/github/workspace/dev</text>
<text text-anchor="start" x="1051.25" y="-445.12" font-family="Helvetica,sans-Serif" font-size="10.00">_area/sourcecode/dfmessages</text>
<text text-anchor="middle" x="1134.88" y="-433.88" font-family="Helvetica,sans-Serif" font-size="10.00">/include/dfmessages/DataRequest.hpp</text>
</a>
</g>
</g>
<!-- Node1&#45;&gt;Node2 -->
<g id="edge1_Node000001_Node000002" class="edge">
<title>Node1&#45;&gt;Node2</title>
<g id="a_edge1_Node000001_Node000002"><a xlink:title=" ">
<path fill="none" stroke="#63b8ff" d="M1991.54,-526.06C1852.81,-517.41 1575.46,-498.87 1340.88,-475.5 1303.49,-471.78 1262.39,-466.86 1226.81,-462.33"/>
<polygon fill="#63b8ff" stroke="#63b8ff" points="1991.2,-529.55 2001.39,-526.67 1991.63,-522.56 1991.2,-529.55"/>
</a>
</g>
</g>
<!-- Node15 -->
<g id="Node000015" class="node">
<title>Node15</title>
<g id="a_Node000015"><a xlink:href="HSIEvent_8hpp.html" target="_top" xlink:title=" ">
<polygon fill="white" stroke="#666666" points="1757.38,-469.88 1588.38,-469.88 1588.38,-428.12 1757.38,-428.12 1757.38,-469.88"/>
<text text-anchor="start" x="1596.38" y="-456.38" font-family="Helvetica,sans-Serif" font-size="10.00">/github/workspace/dev</text>
<text text-anchor="start" x="1596.38" y="-445.12" font-family="Helvetica,sans-Serif" font-size="10.00">_area/sourcecode/dfmessages</text>
<text text-anchor="middle" x="1672.88" y="-433.88" font-family="Helvetica,sans-Serif" font-size="10.00">/include/dfmessages/HSIEvent.hpp</text>
</a>
</g>
</g>
<!-- Node1&#45;&gt;Node15 -->
<g id="edge20_Node000001_Node000015" class="edge">
<title>Node1&#45;&gt;Node15</title>
<g id="a_edge20_Node000001_Node000015"><a xlink:title=" ">
<path fill="none" stroke="#63b8ff" d="M1991.88,-517.8C1928.93,-507.57 1842.33,-492.43 1766.88,-475.5 1759.86,-473.93 1752.59,-472.17 1745.33,-470.34"/>
<polygon fill="#63b8ff" stroke="#63b8ff" points="1991.04,-521.21 2001.47,-519.35 1992.15,-514.3 1991.04,-521.21"/>
</a>
</g>
</g>
<!-- Node21 -->
<g id="Node000021" class="node">
<title>Node21</title>
<g id="a_Node000021"><a xlink:href="TRMonRequest_8hpp.html" target="_top" xlink:title=" ">
<polygon fill="white" stroke="#666666" points="1970.12,-469.88 1775.62,-469.88 1775.62,-428.12 1970.12,-428.12 1970.12,-469.88"/>
<text text-anchor="start" x="1783.62" y="-456.38" font-family="Helvetica,sans-Serif" font-size="10.00">/github/workspace/dev</text>
<text text-anchor="start" x="1783.62" y="-445.12" font-family="Helvetica,sans-Serif" font-size="10.00">_area/sourcecode/dfmessages</text>
<text text-anchor="middle" x="1872.88" y="-433.88" font-family="Helvetica,sans-Serif" font-size="10.00">/include/dfmessages/TRMonRequest.hpp</text>
</a>
</g>
</g>
<!-- Node1&#45;&gt;Node21 -->
<g id="edge26_Node000001_Node000021" class="edge">
<title>Node1&#45;&gt;Node21</title>
<g id="a_edge26_Node000001_Node000021"><a xlink:title=" ">
<path fill="none" stroke="#63b8ff" d="M2017.51,-506.86C1987.85,-495.2 1952.8,-481.42 1924.63,-470.35"/>
<polygon fill="#63b8ff" stroke="#63b8ff" points="2016.18,-510.1 2026.77,-510.5 2018.74,-503.58 2016.18,-510.1"/>
</a>
</g>
</g>
<!-- Node22 -->
<g id="Node000022" class="node">
<title>Node22</title>
<g id="a_Node000022"><a xlink:href="TimeSync_8hpp.html" target="_top" xlink:title=" ">
<polygon fill="white" stroke="#666666" points="1520.12,-469.88 1349.62,-469.88 1349.62,-428.12 1520.12,-428.12 1520.12,-469.88"/>
<text text-anchor="start" x="1357.62" y="-456.38" font-family="Helvetica,sans-Serif" font-size="10.00">/github/workspace/dev</text>
<text text-anchor="start" x="1357.62" y="-445.12" font-family="Helvetica,sans-Serif" font-size="10.00">_area/sourcecode/dfmessages</text>
<text text-anchor="middle" x="1434.88" y="-433.88" font-family="Helvetica,sans-Serif" font-size="10.00">/include/dfmessages/TimeSync.hpp</text>
</a>
</g>
</g>
<!-- Node1&#45;&gt;Node22 -->
<g id="edge27_Node000001_Node000022" class="edge">
<title>Node1&#45;&gt;Node22</title>
<g id="a_edge27_Node000001_Node000022"><a xlink:title=" ">
<path fill="none" stroke="#63b8ff" d="M1991.58,-523.26C1891.32,-513.64 1722.96,-496.27 1578.88,-475.5 1559.9,-472.77 1539.6,-469.43 1520.39,-466.08"/>
<polygon fill="#63b8ff" stroke="#63b8ff" points="1991.07,-526.72 2001.36,-524.19 1991.73,-519.76 1991.07,-526.72"/>
</a>
</g>
</g>
<!-- Node23 -->
<g id="Node000023" class="node">
<title>Node23</title>
<g id="a_Node000023"><a xlink:href="TriggerDecision_8hpp.html" target="_top" xlink:title=" ">
<polygon fill="white" stroke="#666666" points="2384.12,-469.88 2189.62,-469.88 2189.62,-428.12 2384.12,-428.12 2384.12,-469.88"/>
<text text-anchor="start" x="2197.62" y="-456.38" font-family="Helvetica,sans-Serif" font-size="10.00">/github/workspace/dev</text>
<text text-anchor="start" x="2197.62" y="-445.12" font-family="Helvetica,sans-Serif" font-size="10.00">_area/sourcecode/dfmessages</text>
<text text-anchor="middle" x="2286.88" y="-433.88" font-family="Helvetica,sans-Serif" font-size="10.00">/include/dfmessages/TriggerDecision.hpp</text>
</a>
</g>
</g>
<!-- Node1&#45;&gt;Node23 -->
<g id="edge29_Node000001_Node000023" class="edge">
<title>Node1&#45;&gt;Node23</title>
<g id="a_edge29_Node000001_Node000023"><a xlink:title=" ">
<path fill="none" stroke="#63b8ff" d="M2142.24,-506.86C2171.9,-495.2 2206.95,-481.42 2235.12,-470.35"/>
<polygon fill="#63b8ff" stroke="#63b8ff" points="2141.01,-503.58 2132.98,-510.5 2143.57,-510.1 2141.01,-503.58"/>
</a>
</g>
</g>
<!-- Node30 -->
<g id="Node000030" class="node">
<title>Node30</title>
<g id="a_Node000030"><a xlink:href="TriggerDecisionToken_8hpp.html" target="_top" xlink:title=" ">
<polygon fill="white" stroke="#666666" points="2616.12,-475.5 2439.62,-475.5 2439.62,-422.5 2616.12,-422.5 2616.12,-475.5"/>
<text text-anchor="start" x="2447.62" y="-462" font-family="Helvetica,sans-Serif" font-size="10.00">/github/workspace/dev</text>
<text text-anchor="start" x="2447.62" y="-450.75" font-family="Helvetica,sans-Serif" font-size="10.00">_area/sourcecode/dfmessages</text>
<text text-anchor="start" x="2447.62" y="-439.5" font-family="Helvetica,sans-Serif" font-size="10.00">/include/dfmessages/TriggerDecision</text>
<text text-anchor="middle" x="2527.88" y="-428.25" font-family="Helvetica,sans-Serif" font-size="10.00">Token.hpp</text>
</a>
</g>
</g>
<!-- Node1&#45;&gt;Node30 -->
<g id="edge36_Node000001_Node000030" class="edge">
<title>Node1&#45;&gt;Node30</title>
<g id="a_edge36_Node000001_Node000030"><a xlink:title=" ">
<path fill="none" stroke="#63b8ff" d="M2167.82,-519.28C2237.98,-509.12 2338.6,-493.42 2425.88,-475.5 2430.26,-474.6 2434.73,-473.64 2439.25,-472.64"/>
<polygon fill="#63b8ff" stroke="#63b8ff" points="2167.73,-515.75 2158.33,-520.64 2168.73,-522.68 2167.73,-515.75"/>
</a>
</g>
</g>
<!-- Node31 -->
<g id="Node000031" class="node">
<title>Node31</title>
<g id="a_Node000031"><a xlink:href="TokenManager_8hpp.html" target="_top" xlink:title=" ">
<polygon fill="white" stroke="#666666" points="2692.88,-380.88 2544.88,-380.88 2544.88,-339.12 2692.88,-339.12 2692.88,-380.88"/>
<text text-anchor="start" x="2552.88" y="-367.38" font-family="Helvetica,sans-Serif" font-size="10.00">/github/workspace/dev</text>
<text text-anchor="start" x="2552.88" y="-356.12" font-family="Helvetica,sans-Serif" font-size="10.00">_area/sourcecode/trigger</text>
<text text-anchor="middle" x="2618.88" y="-344.88" font-family="Helvetica,sans-Serif" font-size="10.00">/src/trigger/TokenManager.hpp</text>
</a>
</g>
</g>
<!-- Node1&#45;&gt;Node31 -->
<g id="edge41_Node000001_Node000031" class="edge">
<title>Node1&#45;&gt;Node31</title>
<g id="a_edge41_Node000001_Node000031"><a xlink:title=" ">
<path fill="none" stroke="#63b8ff" d="M2168.34,-523.07C2247.43,-514.3 2356.33,-498.55 2392.88,-475.5 2417.39,-460.04 2407.5,-439.63 2430.88,-422.5 2436.13,-418.65 2501.21,-397.75 2553.35,-381.37"/>
<polygon fill="#63b8ff" stroke="#63b8ff" points="2167.96,-519.59 2158.4,-524.14 2168.72,-526.54 2167.96,-519.59"/>
</a>
</g>
</g>
<!-- Node33 -->
<g id="Node000033" class="node">
<title>Node33</title>
<g id="a_Node000033"><a xlink:href="TriggerInhibit_8hpp.html" target="_top" xlink:title=" ">
<polygon fill="white" stroke="#666666" points="2171.5,-469.88 1988.25,-469.88 1988.25,-428.12 2171.5,-428.12 2171.5,-469.88"/>
<text text-anchor="start" x="1996.25" y="-456.38" font-family="Helvetica,sans-Serif" font-size="10.00">/github/workspace/dev</text>
<text text-anchor="start" x="1996.25" y="-445.12" font-family="Helvetica,sans-Serif" font-size="10.00">_area/sourcecode/dfmessages</text>
<text text-anchor="middle" x="2079.88" y="-433.88" font-family="Helvetica,sans-Serif" font-size="10.00">/include/dfmessages/TriggerInhibit.hpp</text>
</a>
</g>
</g>
<!-- Node1&#45;&gt;Node33 -->
<g id="edge39_Node000001_Node000033" class="edge">
<title>Node1&#45;&gt;Node33</title>
<g id="a_edge39_Node000001_Node000033"><a xlink:title=" ">
<path fill="none" stroke="#63b8ff" d="M2079.88,-500.02C2079.88,-489.99 2079.88,-479.17 2079.88,-470.17"/>
<polygon fill="#63b8ff" stroke="#63b8ff" points="2076.38,-499.75 2079.88,-509.75 2083.38,-499.75 2076.38,-499.75"/>
</a>
</g>
</g>
<!-- Node34 -->
<g id="Node000034" class="node">
<title>Node34</title>
<g id="a_Node000034"><a xlink:href="TriggerGenericMaker_8hpp.html" target="_top" xlink:title=" ">
<polygon fill="white" stroke="#666666" points="2808,-469.88 2633.75,-469.88 2633.75,-428.12 2808,-428.12 2808,-469.88"/>
<text text-anchor="start" x="2641.75" y="-456.38" font-family="Helvetica,sans-Serif" font-size="10.00">/github/workspace/dev</text>
<text text-anchor="start" x="2641.75" y="-445.12" font-family="Helvetica,sans-Serif" font-size="10.00">_area/sourcecode/trigger</text>
<text text-anchor="middle" x="2720.88" y="-433.88" font-family="Helvetica,sans-Serif" font-size="10.00">/src/trigger/TriggerGenericMaker.hpp</text>
</a>
</g>
</g>
<!-- Node1&#45;&gt;Node34 -->
<g id="edge42_Node000001_Node000034" class="edge">
<title>Node1&#45;&gt;Node34</title>
<g id="a_edge42_Node000001_Node000034"><a xlink:title=" ">
<path fill="none" stroke="#63b8ff" d="M2167.86,-526.63C2276.11,-519.81 2465.16,-504.71 2624.88,-475.5 2632.85,-474.04 2641.13,-472.26 2649.34,-470.32"/>
<polygon fill="#63b8ff" stroke="#63b8ff" points="2167.96,-523.12 2158.19,-527.23 2168.39,-530.1 2167.96,-523.12"/>
</a>
</g>
</g>
<!-- Node3 -->
<g id="Node000003" class="node">
<title>Node3</title>
<g id="a_Node000003"><a xlink:href="RequestHandlerConcept_8hpp.html" target="_top" xlink:title=" ">
<polygon fill="white" stroke="#666666" points="1156.62,-386.5 1013.12,-386.5 1013.12,-333.5 1156.62,-333.5 1156.62,-386.5"/>
<text text-anchor="start" x="1021.12" y="-373" font-family="Helvetica,sans-Serif" font-size="10.00">/github/workspace/dev</text>
<text text-anchor="start" x="1021.12" y="-361.75" font-family="Helvetica,sans-Serif" font-size="10.00">_area/sourcecode/readoutlibs</text>
<text text-anchor="start" x="1021.12" y="-350.5" font-family="Helvetica,sans-Serif" font-size="10.00">/include/readoutlibs/concepts</text>
<text text-anchor="middle" x="1084.88" y="-339.25" font-family="Helvetica,sans-Serif" font-size="10.00">/RequestHandlerConcept.hpp</text>
</a>
</g>
</g>
<!-- Node2&#45;&gt;Node3 -->
<g id="edge2_Node000002_Node000003" class="edge">
<title>Node2&#45;&gt;Node3</title>
<g id="a_edge2_Node000002_Node000003"><a xlink:title=" ">
<path fill="none" stroke="#63b8ff" d="M1117.68,-418.07C1111.81,-407.86 1105.3,-396.54 1099.64,-386.69"/>
<polygon fill="#63b8ff" stroke="#63b8ff" points="1114.51,-419.58 1122.52,-426.51 1120.58,-416.1 1114.51,-419.58"/>
</a>
</g>
</g>
<!-- Node4 -->
<g id="Node000004" class="node">
<title>Node4</title>
<g id="a_Node000004"><a xlink:href="DefaultRequestHandlerModel_8hpp.html" target="_top" xlink:title=" ">
<polygon fill="white" stroke="#666666" points="801.75,-297.5 638,-297.5 638,-244.5 801.75,-244.5 801.75,-297.5"/>
<text text-anchor="start" x="646" y="-284" font-family="Helvetica,sans-Serif" font-size="10.00">/github/workspace/dev</text>
<text text-anchor="start" x="646" y="-272.75" font-family="Helvetica,sans-Serif" font-size="10.00">_area/sourcecode/readoutlibs</text>
<text text-anchor="start" x="646" y="-261.5" font-family="Helvetica,sans-Serif" font-size="10.00">/include/readoutlibs/models</text>
<text text-anchor="middle" x="719.88" y="-250.25" font-family="Helvetica,sans-Serif" font-size="10.00">/DefaultRequestHandlerModel.hpp</text>
</a>
</g>
</g>
<!-- Node2&#45;&gt;Node4 -->
<g id="edge18_Node000002_Node000004" class="edge">
<title>Node2&#45;&gt;Node4</title>
<g id="a_edge18_Node000002_Node000004"><a xlink:title=" ">
<path fill="none" stroke="#63b8ff" d="M1076.72,-423.33C998.59,-390.2 860.41,-331.6 780.87,-297.87"/>
<polygon fill="#63b8ff" stroke="#63b8ff" points="1074.9,-426.37 1085.47,-427.05 1077.63,-419.92 1074.9,-426.37"/>
</a>
</g>
</g>
<!-- Node14 -->
<g id="Node000014" class="node">
<title>Node14</title>
<g id="a_Node000014"><a xlink:href="ReadoutModel_8hpp.html" target="_top" xlink:title=" ">
<polygon fill="white" stroke="#666666" points="1256.62,-297.5 1113.12,-297.5 1113.12,-244.5 1256.62,-244.5 1256.62,-297.5"/>
<text text-anchor="start" x="1121.12" y="-284" font-family="Helvetica,sans-Serif" font-size="10.00">/github/workspace/dev</text>
<text text-anchor="start" x="1121.12" y="-272.75" font-family="Helvetica,sans-Serif" font-size="10.00">_area/sourcecode/readoutlibs</text>
<text text-anchor="start" x="1121.12" y="-261.5" font-family="Helvetica,sans-Serif" font-size="10.00">/include/readoutlibs/models</text>
<text text-anchor="middle" x="1184.88" y="-250.25" font-family="Helvetica,sans-Serif" font-size="10.00">/ReadoutModel.hpp</text>
</a>
</g>
</g>
<!-- Node2&#45;&gt;Node14 -->
<g id="edge19_Node000002_Node000014" class="edge">
<title>Node2&#45;&gt;Node14</title>
<g id="a_edge19_Node000002_Node000014"><a xlink:title=" ">
<path fill="none" stroke="#63b8ff" d="M1152.33,-417.89C1157.36,-408.14 1162.41,-397.1 1165.88,-386.5 1175.51,-357 1180.43,-321.56 1182.82,-298"/>
<polygon fill="#63b8ff" stroke="#63b8ff" points="1149.33,-416.09 1147.68,-426.55 1155.5,-419.4 1149.33,-416.09"/>
</a>
</g>
</g>
<!-- Node3&#45;&gt;Node4 -->
<g id="edge3_Node000003_Node000004" class="edge">
<title>Node3&#45;&gt;Node4</title>
<g id="a_edge3_Node000003_Node000004"><a xlink:title=" ">
<path fill="none" stroke="#63b8ff" d="M1001.84,-339.21C942.01,-324.95 861.65,-305.79 802.03,-291.58"/>
<polygon fill="#63b8ff" stroke="#63b8ff" points="1000.75,-342.55 1011.29,-341.46 1002.37,-335.74 1000.75,-342.55"/>
</a>
</g>
</g>
<!-- Node12 -->
<g id="Node000012" class="node">
<title>Node12</title>
<g id="a_Node000012"><a xlink:href="Readoutlibs_8cpp.html" target="_top" xlink:title=" ">
<polygon fill="white" stroke="#666666" points="1019.62,-119.5 876.12,-119.5 876.12,-77.75 1019.62,-77.75 1019.62,-119.5"/>
<text text-anchor="start" x="884.12" y="-106" font-family="Helvetica,sans-Serif" font-size="10.00">/github/workspace/dev</text>
<text text-anchor="start" x="884.12" y="-94.75" font-family="Helvetica,sans-Serif" font-size="10.00">_area/sourcecode/readoutlibs</text>
<text text-anchor="middle" x="947.88" y="-83.5" font-family="Helvetica,sans-Serif" font-size="10.00">/src/Readoutlibs.cpp</text>
</a>
</g>
</g>
<!-- Node3&#45;&gt;Node12 -->
<g id="edge17_Node000003_Node000012" class="edge">
<title>Node3&#45;&gt;Node12</title>
<g id="a_edge17_Node000003_Node000012"><a xlink:title=" ">
<path fill="none" stroke="#63b8ff" d="M1091.65,-321.85C1097.52,-277.98 1100.36,-204.76 1065.88,-155.5 1054.69,-139.53 1037.71,-127.99 1020.08,-119.69"/>
<polygon fill="#63b8ff" stroke="#63b8ff" points="1088.21,-321.23 1090.21,-331.63 1095.13,-322.25 1088.21,-321.23"/>
</a>
</g>
</g>
<!-- Node3&#45;&gt;Node14 -->
<g id="edge15_Node000003_Node000014" class="edge">
<title>Node3&#45;&gt;Node14</title>
<g id="a_edge15_Node000003_Node000014"><a xlink:title=" ">
<path fill="none" stroke="#63b8ff" d="M1123.26,-325.61C1133.81,-316.43 1145.09,-306.61 1155.08,-297.92"/>
<polygon fill="#63b8ff" stroke="#63b8ff" points="1121,-322.94 1115.75,-332.14 1125.59,-328.22 1121,-322.94"/>
</a>
</g>
</g>
<!-- Node5 -->
<g id="Node000005" class="node">
<title>Node5</title>
<g id="a_Node000005"><a xlink:href="DAPHNEListRequestHandler_8hpp.html" target="_top" xlink:title=" ">
<polygon fill="white" stroke="#666666" points="360.12,-208.5 195.62,-208.5 195.62,-155.5 360.12,-155.5 360.12,-208.5"/>
<text text-anchor="start" x="203.62" y="-195" font-family="Helvetica,sans-Serif" font-size="10.00">/github/workspace/dev</text>
<text text-anchor="start" x="203.62" y="-183.75" font-family="Helvetica,sans-Serif" font-size="10.00">_area/sourcecode/fdreadoutlibs</text>
<text text-anchor="start" x="203.62" y="-172.5" font-family="Helvetica,sans-Serif" font-size="10.00">/include/fdreadoutlibs/daphne</text>
<text text-anchor="middle" x="277.88" y="-161.25" font-family="Helvetica,sans-Serif" font-size="10.00">/DAPHNEListRequestHandler.hpp</text>
</a>
</g>
</g>
<!-- Node4&#45;&gt;Node5 -->
<g id="edge4_Node000004_Node000005" class="edge">
<title>Node4&#45;&gt;Node5</title>
<g id="a_edge4_Node000004_Node000005"><a xlink:title=" ">
<path fill="none" stroke="#63b8ff" d="M626.64,-254.84C558.13,-243.29 462.92,-226.37 379.88,-208.5 373.54,-207.14 367,-205.66 360.44,-204.13"/>
<polygon fill="#63b8ff" stroke="#63b8ff" points="625.89,-258.27 636.33,-256.47 627.05,-251.36 625.89,-258.27"/>
</a>
</g>
</g>
<!-- Node8 -->
<g id="Node000008" class="node">
<title>Node8</title>
<g id="a_Node000008"><a xlink:href="DefaultSkipListRequestHandler_8hpp.html" target="_top" xlink:title=" ">
<polygon fill="white" stroke="#666666" points="562.62,-208.5 389.12,-208.5 389.12,-155.5 562.62,-155.5 562.62,-208.5"/>
<text text-anchor="start" x="397.12" y="-195" font-family="Helvetica,sans-Serif" font-size="10.00">/github/workspace/dev</text>
<text text-anchor="start" x="397.12" y="-183.75" font-family="Helvetica,sans-Serif" font-size="10.00">_area/sourcecode/readoutlibs</text>
<text text-anchor="start" x="397.12" y="-172.5" font-family="Helvetica,sans-Serif" font-size="10.00">/include/readoutlibs/models</text>
<text text-anchor="middle" x="475.88" y="-161.25" font-family="Helvetica,sans-Serif" font-size="10.00">/DefaultSkipListRequestHandler.hpp</text>
</a>
</g>
</g>
<!-- Node4&#45;&gt;Node8 -->
<g id="edge7_Node000004_Node000008" class="edge">
<title>Node4&#45;&gt;Node8</title>
<g id="a_edge7_Node000004_Node000008"><a xlink:title=" ">
<path fill="none" stroke="#63b8ff" d="M636.22,-240.17C607.66,-229.99 575.98,-218.69 548.38,-208.85"/>
<polygon fill="#63b8ff" stroke="#63b8ff" points="634.98,-243.44 645.57,-243.51 637.33,-236.85 634.98,-243.44"/>
</a>
</g>
</g>
<!-- Node11 -->
<g id="Node000011" class="node">
<title>Node11</title>
<g id="a_Node000011"><a xlink:href="EmptyFragmentRequestHandlerModel_8hpp.html" target="_top" xlink:title=" ">
<polygon fill="white" stroke="#666666" points="820.5,-208.5 619.25,-208.5 619.25,-155.5 820.5,-155.5 820.5,-208.5"/>
<text text-anchor="start" x="627.25" y="-195" font-family="Helvetica,sans-Serif" font-size="10.00">/github/workspace/dev</text>
<text text-anchor="start" x="627.25" y="-183.75" font-family="Helvetica,sans-Serif" font-size="10.00">_area/sourcecode/readoutlibs</text>
<text text-anchor="start" x="627.25" y="-172.5" font-family="Helvetica,sans-Serif" font-size="10.00">/include/readoutlibs/models</text>
<text text-anchor="middle" x="719.88" y="-161.25" font-family="Helvetica,sans-Serif" font-size="10.00">/EmptyFragmentRequestHandlerModel.hpp</text>
</a>
</g>
</g>
<!-- Node4&#45;&gt;Node11 -->
<g id="edge10_Node000004_Node000011" class="edge">
<title>Node4&#45;&gt;Node11</title>
<g id="a_edge10_Node000004_Node000011"><a xlink:title=" ">
<path fill="none" stroke="#63b8ff" d="M719.88,-233.11C719.88,-224.91 719.88,-216.39 719.88,-208.75"/>
<polygon fill="#63b8ff" stroke="#63b8ff" points="716.38,-232.85 719.88,-242.85 723.38,-232.85 716.38,-232.85"/>
</a>
</g>
</g>
<!-- Node4&#45;&gt;Node12 -->
<g id="edge14_Node000004_Node000012" class="edge">
<title>Node4&#45;&gt;Node12</title>
<g id="a_edge14_Node000004_Node000012"><a xlink:title=" ">
<path fill="none" stroke="#63b8ff" d="M637.99,-237.77C626.76,-229.88 616.75,-220.22 609.88,-208.5 597.96,-188.18 594.64,-173.46 609.88,-155.5 643.3,-116.1 787.05,-104.44 875.97,-101.02"/>
<polygon fill="#63b8ff" stroke="#63b8ff" points="636.09,-240.71 646.39,-243.18 639.88,-234.83 636.09,-240.71"/>
</a>
</g>
</g>
<!-- Node13 -->
<g id="Node000013" class="node">
<title>Node13</title>
<g id="a_Node000013"><a xlink:href="ZeroCopyRecordingRequestHandlerModel_8hpp.html" target="_top" xlink:title=" ">
<polygon fill="white" stroke="#666666" points="1056.75,-208.5 839,-208.5 839,-155.5 1056.75,-155.5 1056.75,-208.5"/>
<text text-anchor="start" x="847" y="-195" font-family="Helvetica,sans-Serif" font-size="10.00">/github/workspace/dev</text>
<text text-anchor="start" x="847" y="-183.75" font-family="Helvetica,sans-Serif" font-size="10.00">_area/sourcecode/readoutlibs</text>
<text text-anchor="start" x="847" y="-172.5" font-family="Helvetica,sans-Serif" font-size="10.00">/include/readoutlibs/models</text>
<text text-anchor="middle" x="947.88" y="-161.25" font-family="Helvetica,sans-Serif" font-size="10.00">/ZeroCopyRecordingRequestHandlerModel.hpp</text>
</a>
</g>
</g>
<!-- Node4&#45;&gt;Node13 -->
<g id="edge12_Node000004_Node000013" class="edge">
<title>Node4&#45;&gt;Node13</title>
<g id="a_edge12_Node000004_Node000013"><a xlink:title=" ">
<path fill="none" stroke="#63b8ff" d="M798.4,-240.04C824.99,-229.89 854.44,-218.65 880.13,-208.85"/>
<polygon fill="#63b8ff" stroke="#63b8ff" points="797.48,-236.64 789.39,-243.48 799.98,-243.18 797.48,-236.64"/>
</a>
</g>
</g>
<!-- Node6 -->
<g id="Node000006" class="node">
<title>Node6</title>
<g id="a_Node000006"><a xlink:href="FDReadoutlibs_8cpp.html" target="_top" xlink:title=" ">
<polygon fill="white" stroke="#666666" points="151.75,-119.5 0,-119.5 0,-77.75 151.75,-77.75 151.75,-119.5"/>
<text text-anchor="start" x="8" y="-106" font-family="Helvetica,sans-Serif" font-size="10.00">/github/workspace/dev</text>
<text text-anchor="start" x="8" y="-94.75" font-family="Helvetica,sans-Serif" font-size="10.00">_area/sourcecode/fdreadoutlibs</text>
<text text-anchor="middle" x="75.88" y="-83.5" font-family="Helvetica,sans-Serif" font-size="10.00">/src/FDReadoutlibs.cpp</text>
</a>
</g>
</g>
<!-- Node5&#45;&gt;Node6 -->
<g id="edge5_Node000005_Node000006" class="edge">
<title>Node5&#45;&gt;Node6</title>
<g id="a_edge5_Node000005_Node000006"><a xlink:title=" ">
<path fill="none" stroke="#63b8ff" d="M203,-150.84C177.44,-140.54 149.49,-129.28 126.31,-119.94"/>
<polygon fill="#63b8ff" stroke="#63b8ff" points="201.42,-153.97 212,-154.46 204.03,-147.48 201.42,-153.97"/>
</a>
</g>
</g>
<!-- Node7 -->
<g id="Node000007" class="node">
<title>Node7</title>
<g id="a_Node000007"><a xlink:href="DAPHNEListRequestHandler_8cpp.html" target="_top" xlink:title=" ">
<polygon fill="white" stroke="#666666" points="385.62,-119.5 170.12,-119.5 170.12,-77.75 385.62,-77.75 385.62,-119.5"/>
<text text-anchor="start" x="178.12" y="-106" font-family="Helvetica,sans-Serif" font-size="10.00">/github/workspace/dev</text>
<text text-anchor="start" x="178.12" y="-94.75" font-family="Helvetica,sans-Serif" font-size="10.00">_area/sourcecode/fdreadoutlibs</text>
<text text-anchor="middle" x="277.88" y="-83.5" font-family="Helvetica,sans-Serif" font-size="10.00">/src/daphne/DAPHNEListRequestHandler.cpp</text>
</a>
</g>
</g>
<!-- Node5&#45;&gt;Node7 -->
<g id="edge6_Node000005_Node000007" class="edge">
<title>Node5&#45;&gt;Node7</title>
<g id="a_edge6_Node000005_Node000007"><a xlink:title=" ">
<path fill="none" stroke="#63b8ff" d="M277.88,-143.83C277.88,-135.55 277.88,-127.08 277.88,-119.79"/>
<polygon fill="#63b8ff" stroke="#63b8ff" points="274.38,-143.74 277.88,-153.74 281.38,-143.74 274.38,-143.74"/>
</a>
</g>
</g>
<!-- Node9 -->
<g id="Node000009" class="node">
<title>Node9</title>
<g id="a_Node000009"><a xlink:href="TPRequestHandler_8hpp.html" target="_top" xlink:title=" ">
<polygon fill="white" stroke="#666666" points="569.88,-119.5 403.88,-119.5 403.88,-77.75 569.88,-77.75 569.88,-119.5"/>
<text text-anchor="start" x="411.88" y="-106" font-family="Helvetica,sans-Serif" font-size="10.00">/github/workspace/dev</text>
<text text-anchor="start" x="411.88" y="-94.75" font-family="Helvetica,sans-Serif" font-size="10.00">_area/sourcecode/trigger</text>
<text text-anchor="middle" x="486.88" y="-83.5" font-family="Helvetica,sans-Serif" font-size="10.00">/src/trigger/TPRequestHandler.hpp</text>
</a>
</g>
</g>
<!-- Node8&#45;&gt;Node9 -->
<g id="edge8_Node000008_Node000009" class="edge">
<title>Node8&#45;&gt;Node9</title>
<g id="a_edge8_Node000008_Node000009"><a xlink:title=" ">
<path fill="none" stroke="#63b8ff" d="M480.86,-144.11C481.99,-135.74 483.15,-127.16 484.15,-119.79"/>
<polygon fill="#63b8ff" stroke="#63b8ff" points="477.43,-143.37 479.56,-153.75 484.37,-144.31 477.43,-143.37"/>
</a>
</g>
</g>
<!-- Node10 -->
<g id="Node000010" class="node">
<title>Node10</title>
<g id="a_Node000010"><a xlink:href="TPRequestHandler_8cpp.html" target="_top" xlink:title=" ">
<polygon fill="white" stroke="#666666" points="554.88,-41.75 418.88,-41.75 418.88,0 554.88,0 554.88,-41.75"/>
<text text-anchor="start" x="426.88" y="-28.25" font-family="Helvetica,sans-Serif" font-size="10.00">/github/workspace/dev</text>
<text text-anchor="start" x="426.88" y="-17" font-family="Helvetica,sans-Serif" font-size="10.00">_area/sourcecode/trigger</text>
<text text-anchor="middle" x="486.88" y="-5.75" font-family="Helvetica,sans-Serif" font-size="10.00">/src/TPRequestHandler.cpp</text>
</a>
</g>
</g>
<!-- Node9&#45;&gt;Node10 -->
<g id="edge9_Node000009_Node000010" class="edge">
<title>Node9&#45;&gt;Node10</title>
<g id="a_edge9_Node000009_Node000010"><a xlink:title=" ">
<path fill="none" stroke="#63b8ff" d="M486.88,-66C486.88,-57.96 486.88,-49.54 486.88,-42.23"/>
<polygon fill="#63b8ff" stroke="#63b8ff" points="483.38,-65.81 486.88,-75.81 490.38,-65.81 483.38,-65.81"/>
</a>
</g>
</g>
<!-- Node11&#45;&gt;Node12 -->
<g id="edge11_Node000011_Node000012" class="edge">
<title>Node11&#45;&gt;Node12</title>
<g id="a_edge11_Node000011_Node000012"><a xlink:title=" ">
<path fill="none" stroke="#63b8ff" d="M803.24,-151.25C832.4,-140.84 864.44,-129.4 890.94,-119.94"/>
<polygon fill="#63b8ff" stroke="#63b8ff" points="802.31,-147.86 794.07,-154.52 804.66,-154.45 802.31,-147.86"/>
</a>
</g>
</g>
<!-- Node13&#45;&gt;Node12 -->
<g id="edge13_Node000013_Node000012" class="edge">
<title>Node13&#45;&gt;Node12</title>
<g id="a_edge13_Node000013_Node000012"><a xlink:title=" ">
<path fill="none" stroke="#63b8ff" d="M947.88,-143.83C947.88,-135.55 947.88,-127.08 947.88,-119.79"/>
<polygon fill="#63b8ff" stroke="#63b8ff" points="944.38,-143.74 947.88,-153.74 951.38,-143.74 944.38,-143.74"/>
</a>
</g>
</g>
<!-- Node14&#45;&gt;Node12 -->
<g id="edge16_Node000014_Node000012" class="edge">
<title>Node14&#45;&gt;Node12</title>
<g id="a_edge16_Node000014_Node000012"><a xlink:title=" ">
<path fill="none" stroke="#63b8ff" d="M1165.58,-234.39C1150.38,-209.29 1127.08,-176.52 1098.88,-155.5 1075.68,-138.21 1046.56,-125.77 1020.09,-117.08"/>
<polygon fill="#63b8ff" stroke="#63b8ff" points="1162.54,-236.13 1170.63,-242.98 1168.58,-232.58 1162.54,-236.13"/>
</a>
</g>
</g>
<!-- Node16 -->
<g id="Node000016" class="node">
<title>Node16</title>
<g id="a_Node000016"><a xlink:href="sourcecode_2hsilibs_2include_2hsilibs_2HSIEventSender_8hpp.html" target="_top" xlink:title=" ">
<polygon fill="white" stroke="#666666" points="1425,-380.88 1250.75,-380.88 1250.75,-339.12 1425,-339.12 1425,-380.88"/>
<text text-anchor="start" x="1258.75" y="-367.38" font-family="Helvetica,sans-Serif" font-size="10.00">/github/workspace/dev</text>
<text text-anchor="start" x="1258.75" y="-356.12" font-family="Helvetica,sans-Serif" font-size="10.00">_area/sourcecode/hsilibs</text>
<text text-anchor="middle" x="1337.88" y="-344.88" font-family="Helvetica,sans-Serif" font-size="10.00">/include/hsilibs/HSIEventSender.hpp</text>
</a>
</g>
</g>
<!-- Node15&#45;&gt;Node16 -->
<g id="edge21_Node000015_Node000016" class="edge">
<title>Node15&#45;&gt;Node16</title>
<g id="a_edge21_Node000015_Node000016"><a xlink:title=" ">
<path fill="none" stroke="#63b8ff" d="M1582.04,-424.8C1537.39,-413.35 1482.79,-399.29 1433.88,-386.5 1427.45,-384.82 1420.79,-383.07 1414.1,-381.31"/>
<polygon fill="#63b8ff" stroke="#63b8ff" points="1581.15,-428.19 1591.7,-427.28 1582.88,-421.41 1581.15,-428.19"/>
</a>
</g>
</g>
<!-- Node18 -->
<g id="Node000018" class="node">
<title>Node18</title>
<g id="a_Node000018"><a xlink:href="HSISourceModel_8hpp.html" target="_top" xlink:title=" ">
<polygon fill="white" stroke="#666666" points="1600.75,-380.88 1443,-380.88 1443,-339.12 1600.75,-339.12 1600.75,-380.88"/>
<text text-anchor="start" x="1451" y="-367.38" font-family="Helvetica,sans-Serif" font-size="10.00">/github/workspace/dev</text>
<text text-anchor="start" x="1451" y="-356.12" font-family="Helvetica,sans-Serif" font-size="10.00">_area/sourcecode/trigger</text>
<text text-anchor="middle" x="1521.88" y="-344.88" font-family="Helvetica,sans-Serif" font-size="10.00">/src/trigger/HSISourceModel.hpp</text>
</a>
</g>
</g>
<!-- Node15&#45;&gt;Node18 -->
<g id="edge23_Node000015_Node000018" class="edge">
<title>Node15&#45;&gt;Node18</title>
<g id="a_edge23_Node000015_Node000018"><a xlink:title=" ">
<path fill="none" stroke="#63b8ff" d="M1628.13,-422.22C1605.48,-409.17 1578.39,-393.56 1557.23,-381.37"/>
<polygon fill="#63b8ff" stroke="#63b8ff" points="1626.13,-425.11 1636.54,-427.07 1629.62,-419.04 1626.13,-425.11"/>
</a>
</g>
</g>
<!-- Node19 -->
<g id="Node000019" class="node">
<title>Node19</title>
<g id="a_Node000019"><a xlink:href="TPSetSourceModel_8hpp.html" target="_top" xlink:title=" ">
<polygon fill="white" stroke="#666666" points="1787,-380.88 1618.75,-380.88 1618.75,-339.12 1787,-339.12 1787,-380.88"/>
<text text-anchor="start" x="1626.75" y="-367.38" font-family="Helvetica,sans-Serif" font-size="10.00">/github/workspace/dev</text>
<text text-anchor="start" x="1626.75" y="-356.12" font-family="Helvetica,sans-Serif" font-size="10.00">_area/sourcecode/trigger</text>
<text text-anchor="middle" x="1702.88" y="-344.88" font-family="Helvetica,sans-Serif" font-size="10.00">/src/trigger/TPSetSourceModel.hpp</text>
</a>
</g>
</g>
<!-- Node15&#45;&gt;Node19 -->
<g id="edge24_Node000015_Node000019" class="edge">
<title>Node15&#45;&gt;Node19</title>
<g id="a_edge24_Node000015_Node000019"><a xlink:title=" ">
<path fill="none" stroke="#63b8ff" d="M1683.56,-417.01C1687.64,-405.17 1692.19,-391.98 1695.85,-381.37"/>
<polygon fill="#63b8ff" stroke="#63b8ff" points="1680.28,-415.8 1680.33,-426.39 1686.9,-418.08 1680.28,-415.8"/>
</a>
</g>
</g>
<!-- Node20 -->
<g id="Node000020" class="node">
<title>Node20</title>
<g id="a_Node000020"><a xlink:href="TriggerSourceModel_8hpp.html" target="_top" xlink:title=" ">
<polygon fill="white" stroke="#666666" points="1975.12,-380.88 1804.62,-380.88 1804.62,-339.12 1975.12,-339.12 1975.12,-380.88"/>
<text text-anchor="start" x="1812.62" y="-367.38" font-family="Helvetica,sans-Serif" font-size="10.00">/github/workspace/dev</text>
<text text-anchor="start" x="1812.62" y="-356.12" font-family="Helvetica,sans-Serif" font-size="10.00">_area/sourcecode/trigger</text>
<text text-anchor="middle" x="1889.88" y="-344.88" font-family="Helvetica,sans-Serif" font-size="10.00">/src/trigger/TriggerSourceModel.hpp</text>
</a>
</g>
</g>
<!-- Node15&#45;&gt;Node20 -->
<g id="edge25_Node000015_Node000020" class="edge">
<title>Node15&#45;&gt;Node20</title>
<g id="a_edge25_Node000015_Node000020"><a xlink:title=" ">
<path fill="none" stroke="#63b8ff" d="M1733.98,-423.5C1767.18,-410.19 1807.76,-393.92 1839.19,-381.32"/>
<polygon fill="#63b8ff" stroke="#63b8ff" points="1732.86,-420.18 1724.88,-427.15 1735.47,-426.68 1732.86,-420.18"/>
</a>
</g>
</g>
<!-- Node17 -->
<g id="Node000017" class="node">
<title>Node17</title>
<g id="a_Node000017"><a xlink:href="sourcecode_2hsilibs_2src_2HSIEventSender_8cpp.html" target="_top" xlink:title=" ">
<polygon fill="white" stroke="#666666" points="1401,-291.88 1274.75,-291.88 1274.75,-250.12 1401,-250.12 1401,-291.88"/>
<text text-anchor="start" x="1282.75" y="-278.38" font-family="Helvetica,sans-Serif" font-size="10.00">/github/workspace/dev</text>
<text text-anchor="start" x="1282.75" y="-267.12" font-family="Helvetica,sans-Serif" font-size="10.00">_area/sourcecode/hsilibs</text>
<text text-anchor="middle" x="1337.88" y="-255.88" font-family="Helvetica,sans-Serif" font-size="10.00">/src/HSIEventSender.cpp</text>
</a>
</g>
</g>
<!-- Node16&#45;&gt;Node17 -->
<g id="edge22_Node000016_Node000017" class="edge">
<title>Node16&#45;&gt;Node17</title>
<g id="a_edge22_Node000016_Node000017"><a xlink:title=" ">
<path fill="none" stroke="#63b8ff" d="M1337.88,-327.64C1337.88,-315.9 1337.88,-302.87 1337.88,-292.37"/>
<polygon fill="#63b8ff" stroke="#63b8ff" points="1334.38,-327.31 1337.88,-337.31 1341.38,-327.31 1334.38,-327.31"/>
</a>
</g>
</g>
<!-- Node22&#45;&gt;Node14 -->
<g id="edge28_Node000022_Node000014" class="edge">
<title>Node22&#45;&gt;Node14</title>
<g id="a_edge28_Node000022_Node000014"><a xlink:title=" ">
<path fill="none" stroke="#63b8ff" d="M1338.46,-433.23C1304.93,-424.21 1268.98,-409.73 1241.88,-386.5 1214.73,-363.23 1199.19,-323.94 1191.38,-297.99"/>
<polygon fill="#63b8ff" stroke="#63b8ff" points="1337.23,-436.52 1347.78,-435.59 1338.95,-429.74 1337.23,-436.52"/>
</a>
</g>
</g>
<!-- Node24 -->
<g id="Node000024" class="node">
<title>Node24</title>
<g id="a_Node000024"><a xlink:href="TriggerInhibitAgent_8hpp.html" target="_top" xlink:title=" ">
<polygon fill="white" stroke="#666666" points="2176.5,-380.88 1993.25,-380.88 1993.25,-339.12 2176.5,-339.12 2176.5,-380.88"/>
<text text-anchor="start" x="2001.25" y="-367.38" font-family="Helvetica,sans-Serif" font-size="10.00">/github/workspace/dev</text>
<text text-anchor="start" x="2001.25" y="-356.12" font-family="Helvetica,sans-Serif" font-size="10.00">_area/sourcecode/dfmodules</text>
<text text-anchor="middle" x="2084.88" y="-344.88" font-family="Helvetica,sans-Serif" font-size="10.00">/src/dfmodules/TriggerInhibitAgent.hpp</text>
</a>
</g>
</g>
<!-- Node23&#45;&gt;Node24 -->
<g id="edge30_Node000023_Node000024" class="edge">
<title>Node23&#45;&gt;Node24</title>
<g id="a_edge30_Node000023_Node000024"><a xlink:title=" ">
<path fill="none" stroke="#63b8ff" d="M2229.59,-423.33C2198.76,-410.05 2161.19,-393.87 2132.05,-381.32"/>
<polygon fill="#63b8ff" stroke="#63b8ff" points="2227.81,-426.37 2238.38,-427.11 2230.58,-419.94 2227.81,-426.37"/>
</a>
</g>
</g>
<!-- Node26 -->
<g id="Node000026" class="node">
<title>Node26</title>
<g id="a_Node000026"><a xlink:href="TriggerRecordBuilderData_8hpp.html" target="_top" xlink:title=" ">
<polygon fill="white" stroke="#666666" points="2369,-386.5 2194.75,-386.5 2194.75,-333.5 2369,-333.5 2369,-386.5"/>
<text text-anchor="start" x="2202.75" y="-373" font-family="Helvetica,sans-Serif" font-size="10.00">/github/workspace/dev</text>
<text text-anchor="start" x="2202.75" y="-361.75" font-family="Helvetica,sans-Serif" font-size="10.00">_area/sourcecode/dfmodules</text>
<text text-anchor="start" x="2202.75" y="-350.5" font-family="Helvetica,sans-Serif" font-size="10.00">/src/dfmodules/TriggerRecordBuilder</text>
<text text-anchor="middle" x="2281.88" y="-339.25" font-family="Helvetica,sans-Serif" font-size="10.00">Data.hpp</text>
</a>
</g>
</g>
<!-- Node23&#45;&gt;Node26 -->
<g id="edge32_Node000023_Node000026" class="edge">
<title>Node23&#45;&gt;Node26</title>
<g id="a_edge32_Node000023_Node000026"><a xlink:title=" ">
<path fill="none" stroke="#63b8ff" d="M2285.06,-416.47C2284.5,-406.69 2283.89,-396.03 2283.35,-386.69"/>
<polygon fill="#63b8ff" stroke="#63b8ff" points="2281.56,-416.53 2285.63,-426.31 2288.55,-416.13 2281.56,-416.53"/>
</a>
</g>
</g>
<!-- Node28 -->
<g id="Node000028" class="node">
<title>Node28</title>
<g id="a_Node000028"><a xlink:href="TCProcessor_8hpp.html" target="_top" xlink:title=" ">
<polygon fill="white" stroke="#666666" points="2527.12,-380.88 2386.62,-380.88 2386.62,-339.12 2527.12,-339.12 2527.12,-380.88"/>
<text text-anchor="start" x="2394.62" y="-367.38" font-family="Helvetica,sans-Serif" font-size="10.00">/github/workspace/dev</text>
<text text-anchor="start" x="2394.62" y="-356.12" font-family="Helvetica,sans-Serif" font-size="10.00">_area/sourcecode/trigger</text>
<text text-anchor="middle" x="2456.88" y="-344.88" font-family="Helvetica,sans-Serif" font-size="10.00">/src/trigger/TCProcessor.hpp</text>
</a>
</g>
</g>
<!-- Node23&#45;&gt;Node28 -->
<g id="edge34_Node000023_Node000028" class="edge">
<title>Node23&#45;&gt;Node28</title>
<g id="a_edge34_Node000023_Node000028"><a xlink:title=" ">
<path fill="none" stroke="#63b8ff" d="M2336.23,-422.74C2361.92,-409.59 2392.93,-393.73 2417.07,-381.37"/>
<polygon fill="#63b8ff" stroke="#63b8ff" points="2334.96,-419.46 2327.65,-427.13 2338.15,-425.69 2334.96,-419.46"/>
</a>
</g>
</g>
<!-- Node25 -->
<g id="Node000025" class="node">
<title>Node25</title>
<g id="a_Node000025"><a xlink:href="TriggerInhibitAgent_8cpp.html" target="_top" xlink:title=" ">
<polygon fill="white" stroke="#666666" points="2155.5,-291.88 2014.25,-291.88 2014.25,-250.12 2155.5,-250.12 2155.5,-291.88"/>
<text text-anchor="start" x="2022.25" y="-278.38" font-family="Helvetica,sans-Serif" font-size="10.00">/github/workspace/dev</text>
<text text-anchor="start" x="2022.25" y="-267.12" font-family="Helvetica,sans-Serif" font-size="10.00">_area/sourcecode/dfmodules</text>
<text text-anchor="middle" x="2084.88" y="-255.88" font-family="Helvetica,sans-Serif" font-size="10.00">/src/TriggerInhibitAgent.cpp</text>
</a>
</g>
</g>
<!-- Node24&#45;&gt;Node25 -->
<g id="edge31_Node000024_Node000025" class="edge">
<title>Node24&#45;&gt;Node25</title>
<g id="a_edge31_Node000024_Node000025"><a xlink:title=" ">
<path fill="none" stroke="#63b8ff" d="M2084.88,-327.64C2084.88,-315.9 2084.88,-302.87 2084.88,-292.37"/>
<polygon fill="#63b8ff" stroke="#63b8ff" points="2081.38,-327.31 2084.88,-337.31 2088.38,-327.31 2081.38,-327.31"/>
</a>
</g>
</g>
<!-- Node27 -->
<g id="Node000027" class="node">
<title>Node27</title>
<g id="a_Node000027"><a xlink:href="TriggerRecordBuilderData_8cpp.html" target="_top" xlink:title=" ">
<polygon fill="white" stroke="#666666" points="2364.12,-291.88 2199.62,-291.88 2199.62,-250.12 2364.12,-250.12 2364.12,-291.88"/>
<text text-anchor="start" x="2207.62" y="-278.38" font-family="Helvetica,sans-Serif" font-size="10.00">/github/workspace/dev</text>
<text text-anchor="start" x="2207.62" y="-267.12" font-family="Helvetica,sans-Serif" font-size="10.00">_area/sourcecode/dfmodules</text>
<text text-anchor="middle" x="2281.88" y="-255.88" font-family="Helvetica,sans-Serif" font-size="10.00">/src/TriggerRecordBuilderData.cpp</text>
</a>
</g>
</g>
<!-- Node26&#45;&gt;Node27 -->
<g id="edge33_Node000026_Node000027" class="edge">
<title>Node26&#45;&gt;Node27</title>
<g id="a_edge33_Node000026_Node000027"><a xlink:title=" ">
<path fill="none" stroke="#63b8ff" d="M2281.88,-322.13C2281.88,-311.88 2281.88,-301.12 2281.88,-292.21"/>
<polygon fill="#63b8ff" stroke="#63b8ff" points="2278.38,-321.85 2281.88,-331.85 2285.38,-321.85 2278.38,-321.85"/>
</a>
</g>
</g>
<!-- Node29 -->
<g id="Node000029" class="node">
<title>Node29</title>
<g id="a_Node000029"><a xlink:href="TCProcessor_8cpp.html" target="_top" xlink:title=" ">
<polygon fill="white" stroke="#666666" points="2518.5,-291.88 2395.25,-291.88 2395.25,-250.12 2518.5,-250.12 2518.5,-291.88"/>
<text text-anchor="start" x="2403.25" y="-278.38" font-family="Helvetica,sans-Serif" font-size="10.00">/github/workspace/dev</text>
<text text-anchor="start" x="2403.25" y="-267.12" font-family="Helvetica,sans-Serif" font-size="10.00">_area/sourcecode/trigger</text>
<text text-anchor="middle" x="2456.88" y="-255.88" font-family="Helvetica,sans-Serif" font-size="10.00">/src/TCProcessor.cpp</text>
</a>
</g>
</g>
<!-- Node28&#45;&gt;Node29 -->
<g id="edge35_Node000028_Node000029" class="edge">
<title>Node28&#45;&gt;Node29</title>
<g id="a_edge35_Node000028_Node000029"><a xlink:title=" ">
<path fill="none" stroke="#63b8ff" d="M2456.88,-327.64C2456.88,-315.9 2456.88,-302.87 2456.88,-292.37"/>
<polygon fill="#63b8ff" stroke="#63b8ff" points="2453.38,-327.31 2456.88,-337.31 2460.38,-327.31 2453.38,-327.31"/>
</a>
</g>
</g>
<!-- Node30&#45;&gt;Node31 -->
<g id="edge37_Node000030_Node000031" class="edge">
<title>Node30&#45;&gt;Node31</title>
<g id="a_edge37_Node000030_Node000031"><a xlink:title=" ">
<path fill="none" stroke="#63b8ff" d="M2563,-414.42C2574.72,-403.21 2587.41,-391.08 2597.73,-381.21"/>
<polygon fill="#63b8ff" stroke="#63b8ff" points="2560.59,-411.88 2555.78,-421.32 2565.43,-416.94 2560.59,-411.88"/>
</a>
</g>
</g>
<!-- Node32 -->
<g id="Node000032" class="node">
<title>Node32</title>
<g id="a_Node000032"><a xlink:href="TokenManager_8cpp.html" target="_top" xlink:title=" ">
<polygon fill="white" stroke="#666666" points="2680.5,-291.88 2557.25,-291.88 2557.25,-250.12 2680.5,-250.12 2680.5,-291.88"/>
<text text-anchor="start" x="2565.25" y="-278.38" font-family="Helvetica,sans-Serif" font-size="10.00">/github/workspace/dev</text>
<text text-anchor="start" x="2565.25" y="-267.12" font-family="Helvetica,sans-Serif" font-size="10.00">_area/sourcecode/trigger</text>
<text text-anchor="middle" x="2618.88" y="-255.88" font-family="Helvetica,sans-Serif" font-size="10.00">/src/TokenManager.cpp</text>
</a>
</g>
</g>
<!-- Node31&#45;&gt;Node32 -->
<g id="edge38_Node000031_Node000032" class="edge">
<title>Node31&#45;&gt;Node32</title>
<g id="a_edge38_Node000031_Node000032"><a xlink:title=" ">
<path fill="none" stroke="#63b8ff" d="M2618.88,-327.64C2618.88,-315.9 2618.88,-302.87 2618.88,-292.37"/>
<polygon fill="#63b8ff" stroke="#63b8ff" points="2615.38,-327.31 2618.88,-337.31 2622.38,-327.31 2615.38,-327.31"/>
</a>
</g>
</g>
<!-- Node33&#45;&gt;Node24 -->
<g id="edge40_Node000033_Node000024" class="edge">
<title>Node33&#45;&gt;Node24</title>
<g id="a_edge40_Node000033_Node000024"><a xlink:title=" ">
<path fill="none" stroke="#63b8ff" d="M2081.68,-416.64C2082.35,-404.9 2083.1,-391.87 2083.7,-381.37"/>
<polygon fill="#63b8ff" stroke="#63b8ff" points="2078.2,-416.13 2081.12,-426.31 2085.19,-416.53 2078.2,-416.13"/>
</a>
</g>
</g>
</g>
</svg>
