<?xml version="1.0" encoding="UTF-8" standalone="no"?>
<!DOCTYPE svg PUBLIC "-//W3C//DTD SVG 1.1//EN"
 "http://www.w3.org/Graphics/SVG/1.1/DTD/svg11.dtd">
<!-- Generated by graphviz version 9.0.0 (20230911.1827)
 -->
<!-- Title: /github/workspace/dev_area/build/dfmodules/codegen/include/dfmodules/datawriterinfo/InfoNljs.hpp Pages: 1 -->
<svg width="246pt" height="183pt"
 viewBox="0.00 0.00 245.75 182.75" xmlns="http://www.w3.org/2000/svg" xmlns:xlink="http://www.w3.org/1999/xlink">
<g id="graph0" class="graph" transform="scale(1 1) rotate(0) translate(4 178.75)">
<title>/github/workspace/dev_area/build/dfmodules/codegen/include/dfmodules/datawriterinfo/InfoNljs.hpp</title>
<!-- Node1 -->
<g id="Node000001" class="node">
<title>Node1</title>
<g id="a_Node000001"><a xlink:title=" ">
<polygon fill="#999999" stroke="#666666" points="194,-174.75 56.5,-174.75 56.5,-121.75 194,-121.75 194,-174.75"/>
<text text-anchor="start" x="64.5" y="-161.25" font-family="Helvetica,sans-Serif" font-size="10.00">/github/workspace/dev</text>
<text text-anchor="start" x="64.5" y="-150" font-family="Helvetica,sans-Serif" font-size="10.00">_area/build/dfmodules</text>
<text text-anchor="start" x="64.5" y="-138.75" font-family="Helvetica,sans-Serif" font-size="10.00">/codegen/include/dfmodules</text>
<text text-anchor="middle" x="125.25" y="-127.5" font-family="Helvetica,sans-Serif" font-size="10.00">/datawriterinfo/InfoNljs.hpp</text>
</a>
</g>
</g>
<!-- Node2 -->
<g id="Node000002" class="node">
<title>Node2</title>
<g id="a_Node000002"><a xlink:href="dfmodules_2codegen_2include_2dfmodules_2datawriterinfo_2InfoStructs_8hpp.html" target="_top" xlink:title=" ">
<polygon fill="white" stroke="#666666" points="122.5,-85.75 0,-85.75 0,-55.25 122.5,-55.25 122.5,-85.75"/>
<text text-anchor="start" x="8" y="-72.25" font-family="Helvetica,sans-Serif" font-size="10.00">dfmodules/datawriterinfo</text>
<text text-anchor="middle" x="61.25" y="-61" font-family="Helvetica,sans-Serif" font-size="10.00">/InfoStructs.hpp</text>
</a>
</g>
</g>
<!-- Node1&#45;&gt;Node2 -->
<g id="edge1_Node000001_Node000002" class="edge">
<title>Node1&#45;&gt;Node2</title>
<g id="a_edge1_Node000001_Node000002"><a xlink:title=" ">
<path fill="none" stroke="#63b8ff" d="M103.58,-121.6C96.23,-112.9 88.07,-103.24 80.88,-94.74"/>
<polygon fill="#63b8ff" stroke="#63b8ff" points="83.67,-92.61 74.54,-87.23 78.32,-97.13 83.67,-92.61"/>
</a>
</g>
</g>
<!-- Node4 -->
<g id="Node000004" class="node">
<title>Node4</title>
<g id="a_Node000004"><a xlink:title=" ">
<polygon fill="#e0e0e0" stroke="#999999" points="237.75,-80.12 140.75,-80.12 140.75,-60.88 237.75,-60.88 237.75,-80.12"/>
<text text-anchor="middle" x="189.25" y="-66.62" font-family="Helvetica,sans-Serif" font-size="10.00">nlohmann/json.hpp</text>
</a>
</g>
</g>
<!-- Node1&#45;&gt;Node4 -->
<g id="edge3_Node000001_Node000004" class="edge">
<title>Node1&#45;&gt;Node4</title>
<g id="a_edge3_Node000001_Node000004"><a xlink:title=" ">
<path fill="none" stroke="#63b8ff" d="M146.92,-121.6C155.95,-110.92 166.21,-98.77 174.36,-89.12"/>
<polygon fill="#63b8ff" stroke="#63b8ff" points="176.94,-91.49 180.72,-81.6 171.59,-86.98 176.94,-91.49"/>
</a>
</g>
</g>
<!-- Node3 -->
<g id="Node000003" class="node">
<title>Node3</title>
<g id="a_Node000003"><a xlink:title=" ">
<polygon fill="#e0e0e0" stroke="#999999" points="83.88,-19.25 38.62,-19.25 38.62,0 83.88,0 83.88,-19.25"/>
<text text-anchor="middle" x="61.25" y="-5.75" font-family="Helvetica,sans-Serif" font-size="10.00">cstdint</text>
</a>
</g>
</g>
<!-- Node2&#45;&gt;Node3 -->
<g id="edge2_Node000002_Node000003" class="edge">
<title>Node2&#45;&gt;Node3</title>
<g id="a_edge2_Node000002_Node000003"><a xlink:title=" ">
<path fill="none" stroke="#63b8ff" d="M61.25,-54.95C61.25,-47.71 61.25,-38.84 61.25,-30.94"/>
<polygon fill="#63b8ff" stroke="#63b8ff" points="64.75,-31.21 61.25,-21.21 57.75,-31.21 64.75,-31.21"/>
</a>
</g>
</g>
</g>
</svg>
