<?xml version="1.0" encoding="UTF-8" standalone="no"?>
<!DOCTYPE svg PUBLIC "-//W3C//DTD SVG 1.1//EN"
 "http://www.w3.org/Graphics/SVG/1.1/DTD/svg11.dtd">
<!-- Generated by graphviz version 9.0.0 (20230911.1827)
 -->
<!-- Title: /github/workspace/dev_area/build/dfmodules/codegen/include/dfmodules/fakedataprodinfo/InfoNljs.hpp Pages: 1 -->
<svg width="260pt" height="183pt"
 viewBox="0.00 0.00 259.50 182.75" xmlns="http://www.w3.org/2000/svg" xmlns:xlink="http://www.w3.org/1999/xlink">
<g id="graph0" class="graph" transform="scale(1 1) rotate(0) translate(4 178.75)">
<title>/github/workspace/dev_area/build/dfmodules/codegen/include/dfmodules/fakedataprodinfo/InfoNljs.hpp</title>
<!-- Node1 -->
<g id="Node000001" class="node">
<title>Node1</title>
<g id="a_Node000001"><a xlink:title=" ">
<polygon fill="#999999" stroke="#666666" points="207.88,-174.75 62.12,-174.75 62.12,-121.75 207.88,-121.75 207.88,-174.75"/>
<text text-anchor="start" x="70.12" y="-161.25" font-family="Helvetica,sans-Serif" font-size="10.00">/github/workspace/dev</text>
<text text-anchor="start" x="70.12" y="-150" font-family="Helvetica,sans-Serif" font-size="10.00">_area/build/dfmodules</text>
<text text-anchor="start" x="70.12" y="-138.75" font-family="Helvetica,sans-Serif" font-size="10.00">/codegen/include/dfmodules</text>
<text text-anchor="middle" x="135" y="-127.5" font-family="Helvetica,sans-Serif" font-size="10.00">/fakedataprodinfo/InfoNljs.hpp</text>
</a>
</g>
</g>
<!-- Node2 -->
<g id="Node000002" class="node">
<title>Node2</title>
<g id="a_Node000002"><a xlink:href="dfmodules_2codegen_2include_2dfmodules_2fakedataprodinfo_2InfoStructs_8hpp.html" target="_top" xlink:title=" ">
<polygon fill="white" stroke="#666666" points="136,-85.75 0,-85.75 0,-55.25 136,-55.25 136,-85.75"/>
<text text-anchor="start" x="8" y="-72.25" font-family="Helvetica,sans-Serif" font-size="10.00">dfmodules/fakedataprodinfo</text>
<text text-anchor="middle" x="68" y="-61" font-family="Helvetica,sans-Serif" font-size="10.00">/InfoStructs.hpp</text>
</a>
</g>
</g>
<!-- Node1&#45;&gt;Node2 -->
<g id="edge1_Node000001_Node000002" class="edge">
<title>Node1&#45;&gt;Node2</title>
<g id="a_edge1_Node000001_Node000002"><a xlink:title=" ">
<path fill="none" stroke="#63b8ff" d="M112.32,-121.6C104.54,-112.81 95.89,-103.04 88.32,-94.47"/>
<polygon fill="#63b8ff" stroke="#63b8ff" points="91.14,-92.38 81.89,-87.21 85.89,-97.01 91.14,-92.38"/>
</a>
</g>
</g>
<!-- Node4 -->
<g id="Node000004" class="node">
<title>Node4</title>
<g id="a_Node000004"><a xlink:title=" ">
<polygon fill="#e0e0e0" stroke="#999999" points="251.5,-80.12 154.5,-80.12 154.5,-60.88 251.5,-60.88 251.5,-80.12"/>
<text text-anchor="middle" x="203" y="-66.62" font-family="Helvetica,sans-Serif" font-size="10.00">nlohmann/json.hpp</text>
</a>
</g>
</g>
<!-- Node1&#45;&gt;Node4 -->
<g id="edge3_Node000001_Node000004" class="edge">
<title>Node1&#45;&gt;Node4</title>
<g id="a_edge3_Node000001_Node000004"><a xlink:title=" ">
<path fill="none" stroke="#63b8ff" d="M158.02,-121.6C167.72,-110.81 178.74,-98.52 187.45,-88.82"/>
<polygon fill="#63b8ff" stroke="#63b8ff" points="189.89,-91.35 193.96,-81.57 184.68,-86.67 189.89,-91.35"/>
</a>
</g>
</g>
<!-- Node3 -->
<g id="Node000003" class="node">
<title>Node3</title>
<g id="a_Node000003"><a xlink:title=" ">
<polygon fill="#e0e0e0" stroke="#999999" points="90.62,-19.25 45.38,-19.25 45.38,0 90.62,0 90.62,-19.25"/>
<text text-anchor="middle" x="68" y="-5.75" font-family="Helvetica,sans-Serif" font-size="10.00">cstdint</text>
</a>
</g>
</g>
<!-- Node2&#45;&gt;Node3 -->
<g id="edge2_Node000002_Node000003" class="edge">
<title>Node2&#45;&gt;Node3</title>
<g id="a_edge2_Node000002_Node000003"><a xlink:title=" ">
<path fill="none" stroke="#63b8ff" d="M68,-54.95C68,-47.71 68,-38.84 68,-30.94"/>
<polygon fill="#63b8ff" stroke="#63b8ff" points="71.5,-31.21 68,-21.21 64.5,-31.21 71.5,-31.21"/>
</a>
</g>
</g>
</g>
</svg>
