<?xml version="1.0" encoding="UTF-8" standalone="no"?>
<!DOCTYPE svg PUBLIC "-//W3C//DTD SVG 1.1//EN"
 "http://www.w3.org/Graphics/SVG/1.1/DTD/svg11.dtd">
<!-- Generated by graphviz version 9.0.0 (20230911.1827)
 -->
<!-- Title: /github/workspace/dev_area/build/dfmodules/codegen/include/dfmodules/hdf5datastore/Nljs.hpp Pages: 1 -->
<svg width="459pt" height="249pt"
 viewBox="0.00 0.00 459.12 249.25" xmlns="http://www.w3.org/2000/svg" xmlns:xlink="http://www.w3.org/1999/xlink">
<g id="graph0" class="graph" transform="scale(1 1) rotate(0) translate(4 245.25)">
<title>/github/workspace/dev_area/build/dfmodules/codegen/include/dfmodules/hdf5datastore/Nljs.hpp</title>
<!-- Node1 -->
<g id="Node000001" class="node">
<title>Node1</title>
<g id="a_Node000001"><a xlink:title=" ">
<polygon fill="#999999" stroke="#666666" points="330.38,-241.25 192.88,-241.25 192.88,-188.25 330.38,-188.25 330.38,-241.25"/>
<text text-anchor="start" x="200.88" y="-227.75" font-family="Helvetica,sans-Serif" font-size="10.00">/github/workspace/dev</text>
<text text-anchor="start" x="200.88" y="-216.5" font-family="Helvetica,sans-Serif" font-size="10.00">_area/build/dfmodules</text>
<text text-anchor="start" x="200.88" y="-205.25" font-family="Helvetica,sans-Serif" font-size="10.00">/codegen/include/dfmodules</text>
<text text-anchor="middle" x="261.62" y="-194" font-family="Helvetica,sans-Serif" font-size="10.00">/hdf5datastore/Nljs.hpp</text>
</a>
</g>
</g>
<!-- Node2 -->
<g id="Node000002" class="node">
<title>Node2</title>
<g id="a_Node000002"><a xlink:href="dfmodules_2codegen_2include_2dfmodules_2hdf5datastore_2Structs_8hpp.html" target="_top" xlink:title=" ">
<polygon fill="white" stroke="#666666" points="123.25,-152.25 0,-152.25 0,-121.75 123.25,-121.75 123.25,-152.25"/>
<text text-anchor="start" x="8" y="-138.75" font-family="Helvetica,sans-Serif" font-size="10.00">dfmodules/hdf5datastore</text>
<text text-anchor="middle" x="61.62" y="-127.5" font-family="Helvetica,sans-Serif" font-size="10.00">/Structs.hpp</text>
</a>
</g>
</g>
<!-- Node1&#45;&gt;Node2 -->
<g id="edge1_Node000001_Node000002" class="edge">
<title>Node1&#45;&gt;Node2</title>
<g id="a_edge1_Node000001_Node000002"><a xlink:title=" ">
<path fill="none" stroke="#63b8ff" d="M193.08,-187.79C166.09,-177.56 135.69,-166.05 110.94,-156.68"/>
<polygon fill="#63b8ff" stroke="#63b8ff" points="112.35,-153.47 101.76,-153.2 109.87,-160.02 112.35,-153.47"/>
</a>
</g>
</g>
<!-- Node8 -->
<g id="Node000008" class="node">
<title>Node8</title>
<g id="a_Node000008"><a xlink:href="hdf5libs_2codegen_2include_2hdf5libs_2hdf5filelayout_2Nljs_8hpp.html" target="_top" xlink:title=" ">
<polygon fill="white" stroke="#666666" points="250.12,-152.25 141.12,-152.25 141.12,-121.75 250.12,-121.75 250.12,-152.25"/>
<text text-anchor="start" x="149.12" y="-138.75" font-family="Helvetica,sans-Serif" font-size="10.00">hdf5libs/hdf5filelayout</text>
<text text-anchor="middle" x="195.62" y="-127.5" font-family="Helvetica,sans-Serif" font-size="10.00">/Nljs.hpp</text>
</a>
</g>
</g>
<!-- Node1&#45;&gt;Node8 -->
<g id="edge11_Node000001_Node000008" class="edge">
<title>Node1&#45;&gt;Node8</title>
<g id="a_edge11_Node000001_Node000008"><a xlink:title=" ">
<path fill="none" stroke="#63b8ff" d="M239.28,-188.1C231.7,-179.4 223.28,-169.74 215.87,-161.24"/>
<polygon fill="#63b8ff" stroke="#63b8ff" points="218.52,-158.95 209.32,-153.71 213.25,-163.55 218.52,-158.95"/>
</a>
</g>
</g>
<!-- Node9 -->
<g id="Node000009" class="node">
<title>Node9</title>
<g id="a_Node000009"><a xlink:title=" ">
<polygon fill="#e0e0e0" stroke="#999999" points="451.12,-80.12 354.12,-80.12 354.12,-60.88 451.12,-60.88 451.12,-80.12"/>
<text text-anchor="middle" x="402.62" y="-66.62" font-family="Helvetica,sans-Serif" font-size="10.00">nlohmann/json.hpp</text>
</a>
</g>
</g>
<!-- Node1&#45;&gt;Node9 -->
<g id="edge17_Node000001_Node000009" class="edge">
<title>Node1&#45;&gt;Node9</title>
<g id="a_edge17_Node000001_Node000009"><a xlink:title=" ">
<path fill="none" stroke="#63b8ff" d="M330.69,-197.61C355.07,-188.38 380.22,-174.12 395.62,-152.25 408.01,-134.66 408.1,-109.28 406.16,-91.69"/>
<polygon fill="#63b8ff" stroke="#63b8ff" points="409.65,-91.37 404.76,-81.97 402.72,-92.37 409.65,-91.37"/>
</a>
</g>
</g>
<!-- Node10 -->
<g id="Node000010" class="node">
<title>Node10</title>
<g id="a_Node000010"><a xlink:href="hdf5libs_2codegen_2include_2hdf5libs_2hdf5rawdatafile_2Nljs_8hpp.html" target="_top" xlink:title=" ">
<polygon fill="white" stroke="#666666" points="386.62,-152.25 268.62,-152.25 268.62,-121.75 386.62,-121.75 386.62,-152.25"/>
<text text-anchor="start" x="276.62" y="-138.75" font-family="Helvetica,sans-Serif" font-size="10.00">hdf5libs/hdf5rawdatafile</text>
<text text-anchor="middle" x="327.62" y="-127.5" font-family="Helvetica,sans-Serif" font-size="10.00">/Nljs.hpp</text>
</a>
</g>
</g>
<!-- Node1&#45;&gt;Node10 -->
<g id="edge14_Node000001_Node000010" class="edge">
<title>Node1&#45;&gt;Node10</title>
<g id="a_edge14_Node000001_Node000010"><a xlink:title=" ">
<path fill="none" stroke="#63b8ff" d="M283.97,-188.1C291.55,-179.4 299.97,-169.74 307.38,-161.24"/>
<polygon fill="#63b8ff" stroke="#63b8ff" points="310,-163.55 313.93,-153.71 304.73,-158.95 310,-163.55"/>
</a>
</g>
</g>
<!-- Node3 -->
<g id="Node000003" class="node">
<title>Node3</title>
<g id="a_Node000003"><a xlink:title=" ">
<polygon fill="#e0e0e0" stroke="#999999" points="167.25,-19.25 122,-19.25 122,0 167.25,0 167.25,-19.25"/>
<text text-anchor="middle" x="144.62" y="-5.75" font-family="Helvetica,sans-Serif" font-size="10.00">cstdint</text>
</a>
</g>
</g>
<!-- Node2&#45;&gt;Node3 -->
<g id="edge2_Node000002_Node000003" class="edge">
<title>Node2&#45;&gt;Node3</title>
<g id="a_edge2_Node000002_Node000003"><a xlink:title=" ">
<path fill="none" stroke="#63b8ff" d="M61.98,-121.34C63.05,-104.13 66.95,-75.39 80.62,-55.25 89.13,-42.73 102.4,-32.64 114.65,-25.24"/>
<polygon fill="#63b8ff" stroke="#63b8ff" points="116.26,-28.35 123.26,-20.41 112.83,-22.25 116.26,-28.35"/>
</a>
</g>
</g>
<!-- Node4 -->
<g id="Node000004" class="node">
<title>Node4</title>
<g id="a_Node000004"><a xlink:href="hdf5libs_2codegen_2include_2hdf5libs_2hdf5filelayout_2Structs_8hpp.html" target="_top" xlink:title=" ">
<polygon fill="white" stroke="#666666" points="199.12,-85.75 90.12,-85.75 90.12,-55.25 199.12,-55.25 199.12,-85.75"/>
<text text-anchor="start" x="98.12" y="-72.25" font-family="Helvetica,sans-Serif" font-size="10.00">hdf5libs/hdf5filelayout</text>
<text text-anchor="middle" x="144.62" y="-61" font-family="Helvetica,sans-Serif" font-size="10.00">/Structs.hpp</text>
</a>
</g>
</g>
<!-- Node2&#45;&gt;Node4 -->
<g id="edge3_Node000002_Node000004" class="edge">
<title>Node2&#45;&gt;Node4</title>
<g id="a_edge3_Node000002_Node000004"><a xlink:title=" ">
<path fill="none" stroke="#63b8ff" d="M80.46,-121.36C91.28,-112.95 105.08,-102.23 117.1,-92.89"/>
<polygon fill="#63b8ff" stroke="#63b8ff" points="118.92,-95.91 124.67,-87.01 114.63,-90.38 118.92,-95.91"/>
</a>
</g>
</g>
<!-- Node6 -->
<g id="Node000006" class="node">
<title>Node6</title>
<g id="a_Node000006"><a xlink:title=" ">
<polygon fill="#e0e0e0" stroke="#999999" points="73.62,-19.25 33.62,-19.25 33.62,0 73.62,0 73.62,-19.25"/>
<text text-anchor="middle" x="53.62" y="-5.75" font-family="Helvetica,sans-Serif" font-size="10.00">string</text>
</a>
</g>
</g>
<!-- Node2&#45;&gt;Node6 -->
<g id="edge10_Node000002_Node000006" class="edge">
<title>Node2&#45;&gt;Node6</title>
<g id="a_edge10_Node000002_Node000006"><a xlink:title=" ">
<path fill="none" stroke="#63b8ff" d="M56.38,-121.27C53.14,-111.37 49.29,-97.95 47.62,-85.75 45.79,-72.32 46.72,-68.78 47.62,-55.25 48.17,-47.16 49.25,-38.3 50.36,-30.62"/>
<polygon fill="#63b8ff" stroke="#63b8ff" points="53.78,-31.39 51.85,-20.98 46.86,-30.32 53.78,-31.39"/>
</a>
</g>
</g>
<!-- Node7 -->
<g id="Node000007" class="node">
<title>Node7</title>
<g id="a_Node000007"><a xlink:href="hdf5libs_2codegen_2include_2hdf5libs_2hdf5rawdatafile_2Structs_8hpp.html" target="_top" xlink:title=" ">
<polygon fill="white" stroke="#666666" points="335.62,-85.75 217.62,-85.75 217.62,-55.25 335.62,-55.25 335.62,-85.75"/>
<text text-anchor="start" x="225.62" y="-72.25" font-family="Helvetica,sans-Serif" font-size="10.00">hdf5libs/hdf5rawdatafile</text>
<text text-anchor="middle" x="276.62" y="-61" font-family="Helvetica,sans-Serif" font-size="10.00">/Structs.hpp</text>
</a>
</g>
</g>
<!-- Node2&#45;&gt;Node7 -->
<g id="edge7_Node000002_Node000007" class="edge">
<title>Node2&#45;&gt;Node7</title>
<g id="a_edge7_Node000002_Node000007"><a xlink:title=" ">
<path fill="none" stroke="#63b8ff" d="M110.68,-121.28C142.19,-111.83 183.33,-99.49 216.76,-89.46"/>
<polygon fill="#63b8ff" stroke="#63b8ff" points="217.76,-92.81 226.33,-86.59 215.75,-86.11 217.76,-92.81"/>
</a>
</g>
</g>
<!-- Node4&#45;&gt;Node3 -->
<g id="edge4_Node000004_Node000003" class="edge">
<title>Node4&#45;&gt;Node3</title>
<g id="a_edge4_Node000004_Node000003"><a xlink:title=" ">
<path fill="none" stroke="#63b8ff" d="M144.62,-54.95C144.62,-47.71 144.62,-38.84 144.62,-30.94"/>
<polygon fill="#63b8ff" stroke="#63b8ff" points="148.13,-31.21 144.63,-21.21 141.13,-31.21 148.13,-31.21"/>
</a>
</g>
</g>
<!-- Node5 -->
<g id="Node000005" class="node">
<title>Node5</title>
<g id="a_Node000005"><a xlink:title=" ">
<polygon fill="#e0e0e0" stroke="#999999" points="263.12,-19.25 220.12,-19.25 220.12,0 263.12,0 263.12,-19.25"/>
<text text-anchor="middle" x="241.62" y="-5.75" font-family="Helvetica,sans-Serif" font-size="10.00">vector</text>
</a>
</g>
</g>
<!-- Node4&#45;&gt;Node5 -->
<g id="edge5_Node000004_Node000005" class="edge">
<title>Node4&#45;&gt;Node5</title>
<g id="a_edge5_Node000004_Node000005"><a xlink:title=" ">
<path fill="none" stroke="#63b8ff" d="M168.6,-54.95C183.37,-45.98 202.26,-34.52 217.12,-25.5"/>
<polygon fill="#63b8ff" stroke="#63b8ff" points="218.64,-28.67 225.38,-20.49 215.01,-22.68 218.64,-28.67"/>
</a>
</g>
</g>
<!-- Node4&#45;&gt;Node6 -->
<g id="edge6_Node000004_Node000006" class="edge">
<title>Node4&#45;&gt;Node6</title>
<g id="a_edge6_Node000004_Node000006"><a xlink:title=" ">
<path fill="none" stroke="#63b8ff" d="M122.13,-54.95C108.41,-46.07 90.9,-34.74 77.02,-25.76"/>
<polygon fill="#63b8ff" stroke="#63b8ff" points="79.22,-23.02 68.92,-20.52 75.42,-28.89 79.22,-23.02"/>
</a>
</g>
</g>
<!-- Node7&#45;&gt;Node3 -->
<g id="edge8_Node000007_Node000003" class="edge">
<title>Node7&#45;&gt;Node3</title>
<g id="a_edge8_Node000007_Node000003"><a xlink:title=" ">
<path fill="none" stroke="#63b8ff" d="M243.66,-54.8C222.68,-45.44 195.72,-33.41 175.22,-24.27"/>
<polygon fill="#63b8ff" stroke="#63b8ff" points="176.81,-21.15 166.25,-20.27 173.96,-27.54 176.81,-21.15"/>
</a>
</g>
</g>
<!-- Node7&#45;&gt;Node5 -->
<g id="edge9_Node000007_Node000005" class="edge">
<title>Node7&#45;&gt;Node5</title>
<g id="a_edge9_Node000007_Node000005"><a xlink:title=" ">
<path fill="none" stroke="#63b8ff" d="M267.97,-54.95C263.41,-47.28 257.76,-37.77 252.87,-29.54"/>
<polygon fill="#63b8ff" stroke="#63b8ff" points="255.91,-27.81 247.79,-21 249.9,-31.39 255.91,-27.81"/>
</a>
</g>
</g>
<!-- Node8&#45;&gt;Node4 -->
<g id="edge12_Node000008_Node000004" class="edge">
<title>Node8&#45;&gt;Node4</title>
<g id="a_edge12_Node000008_Node000004"><a xlink:title=" ">
<path fill="none" stroke="#63b8ff" d="M184.05,-121.36C177.86,-113.53 170.08,-103.69 163.08,-94.83"/>
<polygon fill="#63b8ff" stroke="#63b8ff" points="166.04,-92.94 157.09,-87.27 160.55,-97.28 166.04,-92.94"/>
</a>
</g>
</g>
<!-- Node8&#45;&gt;Node9 -->
<g id="edge13_Node000008_Node000009" class="edge">
<title>Node8&#45;&gt;Node9</title>
<g id="a_edge13_Node000008_Node000009"><a xlink:title=" ">
<path fill="none" stroke="#63b8ff" d="M242.86,-121.28C279.14,-109.98 328.68,-94.54 362.94,-83.87"/>
<polygon fill="#63b8ff" stroke="#63b8ff" points="363.53,-87.35 372.04,-81.03 361.45,-80.66 363.53,-87.35"/>
</a>
</g>
</g>
<!-- Node10&#45;&gt;Node7 -->
<g id="edge15_Node000010_Node000007" class="edge">
<title>Node10&#45;&gt;Node7</title>
<g id="a_edge15_Node000010_Node000007"><a xlink:title=" ">
<path fill="none" stroke="#63b8ff" d="M316.05,-121.36C309.86,-113.53 302.08,-103.69 295.08,-94.83"/>
<polygon fill="#63b8ff" stroke="#63b8ff" points="298.04,-92.94 289.09,-87.27 292.55,-97.28 298.04,-92.94"/>
</a>
</g>
</g>
<!-- Node10&#45;&gt;Node9 -->
<g id="edge16_Node000010_Node000009" class="edge">
<title>Node10&#45;&gt;Node9</title>
<g id="a_edge16_Node000010_Node000009"><a xlink:title=" ">
<path fill="none" stroke="#63b8ff" d="M344.64,-121.36C356.35,-111.29 371.91,-97.92 383.96,-87.56"/>
<polygon fill="#63b8ff" stroke="#63b8ff" points="385.92,-90.48 391.22,-81.31 381.35,-85.18 385.92,-90.48"/>
</a>
</g>
</g>
</g>
</svg>
