<?xml version="1.0" encoding="UTF-8" standalone="no"?>
<!DOCTYPE svg PUBLIC "-//W3C//DTD SVG 1.1//EN"
 "http://www.w3.org/Graphics/SVG/1.1/DTD/svg11.dtd">
<!-- Generated by graphviz version 9.0.0 (20230911.1827)
 -->
<!-- Title: /github/workspace/dev_area/build/dfmodules/codegen/include/dfmodules/datafloworchestratorinfo/InfoNljs.hpp Pages: 1 -->
<svg width="290pt" height="194pt"
 viewBox="0.00 0.00 290.25 194.00" xmlns="http://www.w3.org/2000/svg" xmlns:xlink="http://www.w3.org/1999/xlink">
<g id="graph0" class="graph" transform="scale(1 1) rotate(0) translate(4 190)">
<title>/github/workspace/dev_area/build/dfmodules/codegen/include/dfmodules/datafloworchestratorinfo/InfoNljs.hpp</title>
<!-- Node1 -->
<g id="Node000001" class="node">
<title>Node1</title>
<g id="a_Node000001"><a xlink:title=" ">
<polygon fill="#999999" stroke="#666666" points="227.5,-186 90,-186 90,-121.75 227.5,-121.75 227.5,-186"/>
<text text-anchor="start" x="98" y="-172.5" font-family="Helvetica,sans-Serif" font-size="10.00">/github/workspace/dev</text>
<text text-anchor="start" x="98" y="-161.25" font-family="Helvetica,sans-Serif" font-size="10.00">_area/build/dfmodules</text>
<text text-anchor="start" x="98" y="-150" font-family="Helvetica,sans-Serif" font-size="10.00">/codegen/include/dfmodules</text>
<text text-anchor="start" x="98" y="-138.75" font-family="Helvetica,sans-Serif" font-size="10.00">/datafloworchestratorinfo</text>
<text text-anchor="middle" x="158.75" y="-127.5" font-family="Helvetica,sans-Serif" font-size="10.00">/InfoNljs.hpp</text>
</a>
</g>
</g>
<!-- Node2 -->
<g id="Node000002" class="node">
<title>Node2</title>
<g id="a_Node000002"><a xlink:href="dfmodules_2codegen_2include_2dfmodules_2datafloworchestratorinfo_2InfoStructs_8hpp.html" target="_top" xlink:title=" ">
<polygon fill="white" stroke="#666666" points="167.5,-85.75 0,-85.75 0,-55.25 167.5,-55.25 167.5,-85.75"/>
<text text-anchor="start" x="8" y="-72.25" font-family="Helvetica,sans-Serif" font-size="10.00">dfmodules/datafloworchestratorinfo</text>
<text text-anchor="middle" x="83.75" y="-61" font-family="Helvetica,sans-Serif" font-size="10.00">/InfoStructs.hpp</text>
</a>
</g>
</g>
<!-- Node1&#45;&gt;Node2 -->
<g id="edge1_Node000001_Node000002" class="edge">
<title>Node1&#45;&gt;Node2</title>
<g id="a_edge1_Node000001_Node000002"><a xlink:title=" ">
<path fill="none" stroke="#63b8ff" d="M129.97,-121.65C121.63,-112.6 112.68,-102.89 104.9,-94.45"/>
<polygon fill="#63b8ff" stroke="#63b8ff" points="107.67,-92.28 98.31,-87.3 102.52,-97.03 107.67,-92.28"/>
</a>
</g>
</g>
<!-- Node4 -->
<g id="Node000004" class="node">
<title>Node4</title>
<g id="a_Node000004"><a xlink:title=" ">
<polygon fill="#e0e0e0" stroke="#999999" points="282.25,-80.12 185.25,-80.12 185.25,-60.88 282.25,-60.88 282.25,-80.12"/>
<text text-anchor="middle" x="233.75" y="-66.62" font-family="Helvetica,sans-Serif" font-size="10.00">nlohmann/json.hpp</text>
</a>
</g>
</g>
<!-- Node1&#45;&gt;Node4 -->
<g id="edge3_Node000001_Node000004" class="edge">
<title>Node1&#45;&gt;Node4</title>
<g id="a_edge3_Node000001_Node000004"><a xlink:title=" ">
<path fill="none" stroke="#63b8ff" d="M187.53,-121.65C197.8,-110.51 208.99,-98.36 217.79,-88.82"/>
<polygon fill="#63b8ff" stroke="#63b8ff" points="220.15,-91.42 224.36,-81.69 215.01,-86.67 220.15,-91.42"/>
</a>
</g>
</g>
<!-- Node3 -->
<g id="Node000003" class="node">
<title>Node3</title>
<g id="a_Node000003"><a xlink:title=" ">
<polygon fill="#e0e0e0" stroke="#999999" points="106.38,-19.25 61.12,-19.25 61.12,0 106.38,0 106.38,-19.25"/>
<text text-anchor="middle" x="83.75" y="-5.75" font-family="Helvetica,sans-Serif" font-size="10.00">cstdint</text>
</a>
</g>
</g>
<!-- Node2&#45;&gt;Node3 -->
<g id="edge2_Node000002_Node000003" class="edge">
<title>Node2&#45;&gt;Node3</title>
<g id="a_edge2_Node000002_Node000003"><a xlink:title=" ">
<path fill="none" stroke="#63b8ff" d="M83.75,-54.95C83.75,-47.71 83.75,-38.84 83.75,-30.94"/>
<polygon fill="#63b8ff" stroke="#63b8ff" points="87.25,-31.21 83.75,-21.21 80.25,-31.21 87.25,-31.21"/>
</a>
</g>
</g>
</g>
</svg>
