<?xml version="1.0" encoding="UTF-8" standalone="no"?>
<!DOCTYPE svg PUBLIC "-//W3C//DTD SVG 1.1//EN"
 "http://www.w3.org/Graphics/SVG/1.1/DTD/svg11.dtd">
<!-- Generated by graphviz version 9.0.0 (20230911.1827)
 -->
<!-- Title: /github/workspace/dev_area/sourcecode/dpdklibs/src Pages: 1 -->
<svg width="821pt" height="150pt"
 viewBox="0.00 0.00 820.62 149.75" xmlns="http://www.w3.org/2000/svg" xmlns:xlink="http://www.w3.org/1999/xlink">
<g id="graph0" class="graph" transform="scale(1 1) rotate(0) translate(4 145.75)">
<title>/github/workspace/dev_area/sourcecode/dpdklibs/src</title>
<g id="clust1" class="cluster">
<title>clusterdir_26ef73e054f6c5145ef58c9fa8ef12d7</title>
<g id="a_clust1"><a xlink:href="dir_26ef73e054f6c5145ef58c9fa8ef12d7.html" target="_top" xlink:title="dpdklibs">
<polygon fill="#edf0f7" stroke="#7f7f7f" stroke-dasharray="5,2" points="8,-8 8,-133.75 222,-133.75 222,-8 8,-8"/>
<text text-anchor="middle" x="115" y="-120.25" font-family="Helvetica,sans-Serif" font-size="10.00">dpdklibs</text>
</a>
</g>
</g>
<g id="clust2" class="cluster">
<title>clusterdir_c9fe6a355ebd70584763590830f11603</title>
<g id="a_clust2"><a xlink:href="dir_c9fe6a355ebd70584763590830f11603.html" target="_top">
<polygon fill="#edf0f7" stroke="#404040" stroke-width="2" points="16,-16 16,-106.5 160,-106.5 160,-16 16,-16"/>
</a>
</g>
</g>
<!-- dir_0c14d3c21552daff8762af3e6485ee53 -->
<g id="node1" class="node">
<title>dir_0c14d3c21552daff8762af3e6485ee53</title>
<g id="a_node1"><a xlink:href="dir_0c14d3c21552daff8762af3e6485ee53.html" target="_top" xlink:title="include">
<polygon fill="#a2b4d6" stroke="red" points="214.38,-43.25 167.62,-43.25 167.62,-24 214.38,-24 214.38,-43.25"/>
<text text-anchor="middle" x="191" y="-29.75" font-family="Helvetica,sans-Serif" font-size="10.00">include</text>
</a>
</g>
</g>
<!-- dir_c9fe6a355ebd70584763590830f11603 -->
<g id="node2" class="node">
<title>dir_c9fe6a355ebd70584763590830f11603</title>
<text text-anchor="middle" x="87" y="-85" font-family="Helvetica,sans-Serif" font-size="10.00">src</text>
</g>
<!-- dir_c9fe6a355ebd70584763590830f11603&#45;&gt;dir_0c14d3c21552daff8762af3e6485ee53 -->
<g id="edge1" class="edge">
<title>dir_c9fe6a355ebd70584763590830f11603&#45;&gt;dir_0c14d3c21552daff8762af3e6485ee53</title>
<g id="a_edge1"><a xlink:href="dir_000437_000260.html" target="_top">
<path fill="none" stroke="#63b8ff" d="M101.46,-80.47C117.36,-72.33 143.28,-59.06 163.15,-48.89"/>
<polygon fill="#63b8ff" stroke="#63b8ff" points="164.53,-52.11 171.83,-44.44 161.34,-45.88 164.53,-52.11"/>
</a>
</g>
<g id="a_edge1&#45;headlabel"><a xlink:href="dir_000437_000260.html" target="_top" xlink:title="22">
<text text-anchor="middle" x="163.97" y="-51.71" font-family="Helvetica,sans-Serif" font-size="10.00" fill="#63b8ff">22</text>
</a>
</g>
</g>
<!-- dir_3502d285fb69868ceafeacbd6085e0c1 -->
<g id="node4" class="node">
<title>dir_3502d285fb69868ceafeacbd6085e0c1</title>
<g id="a_node4"><a xlink:href="dir_3502d285fb69868ceafeacbd6085e0c1.html" target="_top" xlink:title="detail">
<polygon fill="#a2b4d6" stroke="#404040" points="106.62,-43.25 67.38,-43.25 67.38,-24 106.62,-24 106.62,-43.25"/>
<text text-anchor="middle" x="87" y="-29.75" font-family="Helvetica,sans-Serif" font-size="10.00">detail</text>
</a>
</g>
</g>
<!-- dir_c9fe6a355ebd70584763590830f11603&#45;&gt;dir_3502d285fb69868ceafeacbd6085e0c1 -->
<g id="edge3" class="edge">
<title>dir_c9fe6a355ebd70584763590830f11603&#45;&gt;dir_3502d285fb69868ceafeacbd6085e0c1</title>
<g id="a_edge3"><a xlink:href="dir_000437_000097.html" target="_top">
<path fill="none" stroke="#63b8ff" d="M87,-79.55C87,-72.95 87,-63.44 87,-54.86"/>
<polygon fill="#63b8ff" stroke="#63b8ff" points="90.5,-54.93 87,-44.93 83.5,-54.93 90.5,-54.93"/>
</a>
</g>
<g id="a_edge3&#45;headlabel"><a xlink:href="dir_000437_000097.html" target="_top" xlink:title="1">
<text text-anchor="middle" x="93.34" y="-53.14" font-family="Helvetica,sans-Serif" font-size="10.00" fill="#63b8ff">1</text>
</a>
</g>
</g>
<!-- dir_25574c5e008893c4c2436587c1675f55 -->
<g id="node6" class="node">
<title>dir_25574c5e008893c4c2436587c1675f55</title>
<g id="a_node6"><a xlink:href="dir_25574c5e008893c4c2436587c1675f55.html" target="_top" xlink:title="readoutlibs">
<polygon fill="#edf0f7" stroke="red" stroke-dasharray="5,2" points="648.62,-43.25 585.38,-43.25 585.38,-24 648.62,-24 648.62,-43.25"/>
<text text-anchor="middle" x="617" y="-29.75" font-family="Helvetica,sans-Serif" font-size="10.00">readoutlibs</text>
</a>
</g>
</g>
<!-- dir_c9fe6a355ebd70584763590830f11603&#45;&gt;dir_25574c5e008893c4c2436587c1675f55 -->
<g id="edge2" class="edge">
<title>dir_c9fe6a355ebd70584763590830f11603&#45;&gt;dir_25574c5e008893c4c2436587c1675f55</title>
<g id="a_edge2"><a xlink:href="dir_000437_000390.html" target="_top">
<path fill="none" stroke="#63b8ff" d="M101.54,-81.95C104.62,-80.89 107.88,-79.92 111,-79.25 310.55,-36.5 369.38,-71.92 574.07,-43.48"/>
<polygon fill="#63b8ff" stroke="#63b8ff" points="574.29,-46.98 583.7,-42.1 573.3,-40.05 574.29,-46.98"/>
</a>
</g>
<g id="a_edge2&#45;headlabel"><a xlink:href="dir_000437_000390.html" target="_top" xlink:title="4">
<text text-anchor="middle" x="572.63" y="-46.21" font-family="Helvetica,sans-Serif" font-size="10.00" fill="#63b8ff">4</text>
</a>
</g>
</g>
<!-- dir_934fd243b40ff671fa1d708949b38ec2 -->
<g id="node7" class="node">
<title>dir_934fd243b40ff671fa1d708949b38ec2</title>
<g id="a_node7"><a xlink:href="dir_934fd243b40ff671fa1d708949b38ec2.html" target="_top" xlink:title="utilities">
<polygon fill="#edf0f7" stroke="red" stroke-dasharray="5,2" points="279.38,-43.25 232.62,-43.25 232.62,-24 279.38,-24 279.38,-43.25"/>
<text text-anchor="middle" x="256" y="-29.75" font-family="Helvetica,sans-Serif" font-size="10.00">utilities</text>
</a>
</g>
</g>
<!-- dir_c9fe6a355ebd70584763590830f11603&#45;&gt;dir_934fd243b40ff671fa1d708949b38ec2 -->
<g id="edge4" class="edge">
<title>dir_c9fe6a355ebd70584763590830f11603&#45;&gt;dir_934fd243b40ff671fa1d708949b38ec2</title>
<g id="a_edge4"><a xlink:href="dir_000437_000523.html" target="_top">
<path fill="none" stroke="#63b8ff" d="M101.69,-82.48C104.75,-81.38 107.98,-80.26 111,-79.25 148.5,-66.75 191.87,-53.57 221.33,-44.8"/>
<polygon fill="#63b8ff" stroke="#63b8ff" points="222.24,-48.18 230.83,-41.99 220.25,-41.47 222.24,-48.18"/>
</a>
</g>
<g id="a_edge4&#45;headlabel"><a xlink:href="dir_000437_000523.html" target="_top" xlink:title="1">
<text text-anchor="middle" x="221.05" y="-47.62" font-family="Helvetica,sans-Serif" font-size="10.00" fill="#63b8ff">1</text>
</a>
</g>
</g>
<!-- dir_ab1b54331b4bb0c44e7fcd5a7d20111e -->
<g id="node8" class="node">
<title>dir_ab1b54331b4bb0c44e7fcd5a7d20111e</title>
<g id="a_node8"><a xlink:href="dir_ab1b54331b4bb0c44e7fcd5a7d20111e.html" target="_top" xlink:title="iomanager">
<polygon fill="#edf0f7" stroke="red" stroke-dasharray="5,2" points="447.5,-43.25 386.5,-43.25 386.5,-24 447.5,-24 447.5,-43.25"/>
<text text-anchor="middle" x="417" y="-29.75" font-family="Helvetica,sans-Serif" font-size="10.00">iomanager</text>
</a>
</g>
</g>
<!-- dir_c9fe6a355ebd70584763590830f11603&#45;&gt;dir_ab1b54331b4bb0c44e7fcd5a7d20111e -->
<g id="edge5" class="edge">
<title>dir_c9fe6a355ebd70584763590830f11603&#45;&gt;dir_ab1b54331b4bb0c44e7fcd5a7d20111e</title>
<g id="a_edge5"><a xlink:href="dir_000437_000293.html" target="_top">
<path fill="none" stroke="#63b8ff" d="M101.57,-82.09C104.65,-81.02 107.9,-80.01 111,-79.25 223.8,-51.7 258.04,-63.43 375.17,-43.6"/>
<polygon fill="#63b8ff" stroke="#63b8ff" points="375.65,-47.07 384.9,-41.91 374.45,-40.17 375.65,-47.07"/>
</a>
</g>
<g id="a_edge5&#45;headlabel"><a xlink:href="dir_000437_000293.html" target="_top" xlink:title="2">
<text text-anchor="middle" x="374.08" y="-46.35" font-family="Helvetica,sans-Serif" font-size="10.00" fill="#63b8ff">2</text>
</a>
</g>
</g>
<!-- dir_bbc7c2c1f127b379ce39be24c4bd3dbe -->
<g id="node9" class="node">
<title>dir_bbc7c2c1f127b379ce39be24c4bd3dbe</title>
<g id="a_node9"><a xlink:href="dir_bbc7c2c1f127b379ce39be24c4bd3dbe.html" target="_top" xlink:title="build">
<polygon fill="#edf0f7" stroke="red" stroke-dasharray="5,2" points="502.12,-43.25 465.88,-43.25 465.88,-24 502.12,-24 502.12,-43.25"/>
<text text-anchor="middle" x="484" y="-29.75" font-family="Helvetica,sans-Serif" font-size="10.00">build</text>
</a>
</g>
</g>
<!-- dir_c9fe6a355ebd70584763590830f11603&#45;&gt;dir_bbc7c2c1f127b379ce39be24c4bd3dbe -->
<g id="edge6" class="edge">
<title>dir_c9fe6a355ebd70584763590830f11603&#45;&gt;dir_bbc7c2c1f127b379ce39be24c4bd3dbe</title>
<g id="a_edge6"><a xlink:href="dir_000437_000030.html" target="_top">
<path fill="none" stroke="#63b8ff" d="M101.56,-82.01C104.63,-80.95 107.89,-79.96 111,-79.25 258.2,-45.66 303.56,-73.57 454.49,-43.35"/>
<polygon fill="#63b8ff" stroke="#63b8ff" points="454.97,-46.82 464.06,-41.38 453.56,-39.97 454.97,-46.82"/>
</a>
</g>
<g id="a_edge6&#45;headlabel"><a xlink:href="dir_000437_000030.html" target="_top" xlink:title="13">
<text text-anchor="middle" x="453.51" y="-46.15" font-family="Helvetica,sans-Serif" font-size="10.00" fill="#63b8ff">13</text>
</a>
</g>
</g>
<!-- dir_eaab8e706d9785a8277b333b3fa3c104 -->
<g id="node10" class="node">
<title>dir_eaab8e706d9785a8277b333b3fa3c104</title>
<g id="a_node10"><a xlink:href="dir_eaab8e706d9785a8277b333b3fa3c104.html" target="_top" xlink:title="appfwk">
<polygon fill="#edf0f7" stroke="red" stroke-dasharray="5,2" points="567.75,-43.25 520.25,-43.25 520.25,-24 567.75,-24 567.75,-43.25"/>
<text text-anchor="middle" x="544" y="-29.75" font-family="Helvetica,sans-Serif" font-size="10.00">appfwk</text>
</a>
</g>
</g>
<!-- dir_c9fe6a355ebd70584763590830f11603&#45;&gt;dir_eaab8e706d9785a8277b333b3fa3c104 -->
<g id="edge7" class="edge">
<title>dir_c9fe6a355ebd70584763590830f11603&#45;&gt;dir_eaab8e706d9785a8277b333b3fa3c104</title>
<g id="a_edge7"><a xlink:href="dir_000437_000011.html" target="_top">
<path fill="none" stroke="#63b8ff" d="M101.55,-81.98C104.63,-80.92 107.89,-79.94 111,-79.25 281.72,-41.54 333.06,-72.59 508.75,-43.32"/>
<polygon fill="#63b8ff" stroke="#63b8ff" points="509.19,-46.8 518.46,-41.66 508.01,-39.9 509.19,-46.8"/>
</a>
</g>
<g id="a_edge7&#45;headlabel"><a xlink:href="dir_000437_000011.html" target="_top" xlink:title="2">
<text text-anchor="middle" x="507.62" y="-46.07" font-family="Helvetica,sans-Serif" font-size="10.00" fill="#63b8ff">2</text>
</a>
</g>
</g>
<!-- dir_f74a706a7efda297e6d8fb2c03527fc2 -->
<g id="node11" class="node">
<title>dir_f74a706a7efda297e6d8fb2c03527fc2</title>
<g id="a_node11"><a xlink:href="dir_f74a706a7efda297e6d8fb2c03527fc2.html" target="_top" xlink:title="logging">
<polygon fill="#edf0f7" stroke="red" stroke-dasharray="5,2" points="713.38,-43.25 666.62,-43.25 666.62,-24 713.38,-24 713.38,-43.25"/>
<text text-anchor="middle" x="690" y="-29.75" font-family="Helvetica,sans-Serif" font-size="10.00">logging</text>
</a>
</g>
</g>
<!-- dir_c9fe6a355ebd70584763590830f11603&#45;&gt;dir_f74a706a7efda297e6d8fb2c03527fc2 -->
<g id="edge8" class="edge">
<title>dir_c9fe6a355ebd70584763590830f11603&#45;&gt;dir_f74a706a7efda297e6d8fb2c03527fc2</title>
<g id="a_edge8"><a xlink:href="dir_000437_000308.html" target="_top">
<path fill="none" stroke="#63b8ff" d="M101.54,-81.92C104.62,-80.87 107.88,-79.9 111,-79.25 345.91,-30.32 415.55,-81.55 655.18,-43.38"/>
<polygon fill="#63b8ff" stroke="#63b8ff" points="655.55,-46.87 664.86,-41.8 654.42,-39.96 655.55,-46.87"/>
</a>
</g>
<g id="a_edge8&#45;headlabel"><a xlink:href="dir_000437_000308.html" target="_top" xlink:title="5">
<text text-anchor="middle" x="653.95" y="-46.13" font-family="Helvetica,sans-Serif" font-size="10.00" fill="#63b8ff">5</text>
</a>
</g>
</g>
<!-- dir_fe853eb0796da44195fb8219d49359ed -->
<g id="node12" class="node">
<title>dir_fe853eb0796da44195fb8219d49359ed</title>
<g id="a_node12"><a xlink:href="dir_fe853eb0796da44195fb8219d49359ed.html" target="_top" xlink:title="fdreadoutlibs">
<polygon fill="#edf0f7" stroke="red" stroke-dasharray="5,2" points="368.75,-43.25 297.25,-43.25 297.25,-24 368.75,-24 368.75,-43.25"/>
<text text-anchor="middle" x="333" y="-29.75" font-family="Helvetica,sans-Serif" font-size="10.00">fdreadoutlibs</text>
</a>
</g>
</g>
<!-- dir_c9fe6a355ebd70584763590830f11603&#45;&gt;dir_fe853eb0796da44195fb8219d49359ed -->
<g id="edge9" class="edge">
<title>dir_c9fe6a355ebd70584763590830f11603&#45;&gt;dir_fe853eb0796da44195fb8219d49359ed</title>
<g id="a_edge9"><a xlink:href="dir_000437_000189.html" target="_top">
<path fill="none" stroke="#63b8ff" d="M101.61,-82.24C104.69,-81.16 107.93,-80.11 111,-79.25 127.63,-74.62 225.98,-55.33 286.06,-43.68"/>
<polygon fill="#63b8ff" stroke="#63b8ff" points="286.53,-47.15 295.68,-41.82 285.2,-40.28 286.53,-47.15"/>
</a>
</g>
<g id="a_edge9&#45;headlabel"><a xlink:href="dir_000437_000189.html" target="_top" xlink:title="2">
<text text-anchor="middle" x="285.03" y="-46.46" font-family="Helvetica,sans-Serif" font-size="10.00" fill="#63b8ff">2</text>
</a>
</g>
</g>
<!-- dir_bad7caf03902765054b01220064c218d -->
<g id="node3" class="node">
<title>dir_bad7caf03902765054b01220064c218d</title>
<g id="a_node3"><a xlink:href="dir_bad7caf03902765054b01220064c218d.html" target="_top" xlink:title="arp">
<polygon fill="#a2b4d6" stroke="#404040" points="53.75,-98.5 24.25,-98.5 24.25,-79.25 53.75,-79.25 53.75,-98.5"/>
<text text-anchor="middle" x="39" y="-85" font-family="Helvetica,sans-Serif" font-size="10.00">arp</text>
</a>
</g>
</g>
<!-- dir_bad7caf03902765054b01220064c218d&#45;&gt;dir_0c14d3c21552daff8762af3e6485ee53 -->
<g id="edge10" class="edge">
<title>dir_bad7caf03902765054b01220064c218d&#45;&gt;dir_0c14d3c21552daff8762af3e6485ee53</title>
<g id="a_edge10"><a xlink:href="dir_000029_000260.html" target="_top">
<path fill="none" stroke="#63b8ff" d="M54.23,-82.38C57.14,-81.33 60.16,-80.25 63,-79.25 94.69,-68.03 130.88,-55.44 156.67,-46.5"/>
<polygon fill="#63b8ff" stroke="#63b8ff" points="157.65,-49.86 165.95,-43.28 155.36,-43.24 157.65,-49.86"/>
</a>
</g>
<g id="a_edge10&#45;headlabel"><a xlink:href="dir_000029_000260.html" target="_top" xlink:title="1">
<text text-anchor="middle" x="156.61" y="-49.35" font-family="Helvetica,sans-Serif" font-size="10.00" fill="#63b8ff">1</text>
</a>
</g>
</g>
<!-- dir_91fe2284d6fa677d7d47a38c8d6f47fc -->
<g id="node5" class="node">
<title>dir_91fe2284d6fa677d7d47a38c8d6f47fc</title>
<g id="a_node5"><a xlink:href="dir_91fe2284d6fa677d7d47a38c8d6f47fc.html" target="_top" xlink:title="udp">
<polygon fill="#a2b4d6" stroke="#404040" points="151.88,-98.5 120.12,-98.5 120.12,-79.25 151.88,-79.25 151.88,-98.5"/>
<text text-anchor="middle" x="136" y="-85" font-family="Helvetica,sans-Serif" font-size="10.00">udp</text>
</a>
</g>
</g>
<!-- dir_91fe2284d6fa677d7d47a38c8d6f47fc&#45;&gt;dir_0c14d3c21552daff8762af3e6485ee53 -->
<g id="edge11" class="edge">
<title>dir_91fe2284d6fa677d7d47a38c8d6f47fc&#45;&gt;dir_0c14d3c21552daff8762af3e6485ee53</title>
<g id="a_edge11"><a xlink:href="dir_000518_000260.html" target="_top">
<path fill="none" stroke="#63b8ff" d="M145.08,-79.08C152.84,-71.57 164.21,-60.56 173.7,-51.38"/>
<polygon fill="#63b8ff" stroke="#63b8ff" points="175.88,-54.13 180.63,-44.66 171.01,-49.1 175.88,-54.13"/>
</a>
</g>
<g id="a_edge11&#45;headlabel"><a xlink:href="dir_000518_000260.html" target="_top" xlink:title="4">
<text text-anchor="middle" x="176.36" y="-53.74" font-family="Helvetica,sans-Serif" font-size="10.00" fill="#63b8ff">4</text>
</a>
</g>
</g>
<!-- dir_91fe2284d6fa677d7d47a38c8d6f47fc&#45;&gt;dir_25574c5e008893c4c2436587c1675f55 -->
<g id="edge12" class="edge">
<title>dir_91fe2284d6fa677d7d47a38c8d6f47fc&#45;&gt;dir_25574c5e008893c4c2436587c1675f55</title>
<g id="a_edge12"><a xlink:href="dir_000518_000390.html" target="_top">
<path fill="none" stroke="#63b8ff" d="M152.1,-86.9C208.63,-83.33 403.43,-69.89 573.99,-43.57"/>
<polygon fill="#63b8ff" stroke="#63b8ff" points="574.35,-47.06 583.69,-42.05 573.27,-40.14 574.35,-47.06"/>
</a>
</g>
<g id="a_edge12&#45;headlabel"><a xlink:href="dir_000518_000390.html" target="_top" xlink:title="1">
<text text-anchor="middle" x="572.73" y="-46.31" font-family="Helvetica,sans-Serif" font-size="10.00" fill="#63b8ff">1</text>
</a>
</g>
</g>
<!-- dir_91fe2284d6fa677d7d47a38c8d6f47fc&#45;&gt;dir_f74a706a7efda297e6d8fb2c03527fc2 -->
<g id="edge14" class="edge">
<title>dir_91fe2284d6fa677d7d47a38c8d6f47fc&#45;&gt;dir_f74a706a7efda297e6d8fb2c03527fc2</title>
<g id="a_edge14"><a xlink:href="dir_000518_000308.html" target="_top">
<path fill="none" stroke="#63b8ff" d="M152.37,-87.53C215.89,-85.99 452.18,-78.23 655.17,-43.45"/>
<polygon fill="#63b8ff" stroke="#63b8ff" points="655.6,-46.93 664.85,-41.77 654.4,-40.04 655.6,-46.93"/>
</a>
</g>
<g id="a_edge14&#45;headlabel"><a xlink:href="dir_000518_000308.html" target="_top" xlink:title="1">
<text text-anchor="middle" x="654.04" y="-46.21" font-family="Helvetica,sans-Serif" font-size="10.00" fill="#63b8ff">1</text>
</a>
</g>
</g>
<!-- dir_49997343c4c8eab520bf1e45b9cad06f -->
<g id="node13" class="node">
<title>dir_49997343c4c8eab520bf1e45b9cad06f</title>
<g id="a_node13"><a xlink:href="dir_49997343c4c8eab520bf1e45b9cad06f.html" target="_top" xlink:title="detdataformats">
<polygon fill="#edf0f7" stroke="red" stroke-dasharray="5,2" points="812.62,-43.25 731.38,-43.25 731.38,-24 812.62,-24 812.62,-43.25"/>
<text text-anchor="middle" x="772" y="-29.75" font-family="Helvetica,sans-Serif" font-size="10.00">detdataformats</text>
</a>
</g>
</g>
<!-- dir_91fe2284d6fa677d7d47a38c8d6f47fc&#45;&gt;dir_49997343c4c8eab520bf1e45b9cad06f -->
<g id="edge13" class="edge">
<title>dir_91fe2284d6fa677d7d47a38c8d6f47fc&#45;&gt;dir_49997343c4c8eab520bf1e45b9cad06f</title>
<g id="a_edge13"><a xlink:href="dir_000518_000112.html" target="_top">
<path fill="none" stroke="#63b8ff" d="M152.37,-87.2C220.5,-84.26 488.39,-71.55 719.78,-43.4"/>
<polygon fill="#63b8ff" stroke="#63b8ff" points="720.12,-46.88 729.61,-42.19 719.26,-39.94 720.12,-46.88"/>
</a>
</g>
<g id="a_edge13&#45;headlabel"><a xlink:href="dir_000518_000112.html" target="_top" xlink:title="2">
<text text-anchor="middle" x="718.4" y="-46.08" font-family="Helvetica,sans-Serif" font-size="10.00" fill="#63b8ff">2</text>
</a>
</g>
</g>
</g>
</svg>
