<?xml version="1.0" encoding="UTF-8" standalone="no"?>
<!DOCTYPE svg PUBLIC "-//W3C//DTD SVG 1.1//EN"
 "http://www.w3.org/Graphics/SVG/1.1/DTD/svg11.dtd">
<!-- Generated by graphviz version 9.0.0 (20230911.1827)
 -->
<!-- Title: /github/workspace/dev_area/sourcecode/readoutlibs/include/readoutlibs Pages: 1 -->
<svg width="732pt" height="236pt"
 viewBox="0.00 0.00 732.33 236.25" xmlns="http://www.w3.org/2000/svg" xmlns:xlink="http://www.w3.org/1999/xlink">
<g id="graph0" class="graph" transform="scale(1 1) rotate(0) translate(4 232.25)">
<title>/github/workspace/dev_area/sourcecode/readoutlibs/include/readoutlibs</title>
<g id="clust1" class="cluster">
<title>clusterdir_218f7966fd854d1917ac5bd53b6b85ad</title>
<g id="a_clust1"><a xlink:href="dir_218f7966fd854d1917ac5bd53b6b85ad.html" target="_top" xlink:title="include">
<polygon fill="#edf0f7" stroke="#7f7f7f" stroke-dasharray="5,2" points="187.58,-39.25 187.58,-220.25 353.58,-220.25 353.58,-39.25 187.58,-39.25"/>
<text text-anchor="middle" x="270.58" y="-206.75" font-family="Helvetica,sans-Serif" font-size="10.00">include</text>
</a>
</g>
</g>
<g id="clust2" class="cluster">
<title>clusterdir_c555b8bc5d845218b14b46868bbee9f9</title>
<g id="a_clust2"><a xlink:href="dir_c555b8bc5d845218b14b46868bbee9f9.html" target="_top">
<polygon fill="#edf0f7" stroke="#404040" stroke-width="2" points="195.58,-47.25 195.58,-193 345.58,-193 345.58,-47.25 195.58,-47.25"/>
</a>
</g>
</g>
<!-- dir_c555b8bc5d845218b14b46868bbee9f9 -->
<g id="node1" class="node">
<title>dir_c555b8bc5d845218b14b46868bbee9f9</title>
<text text-anchor="middle" x="305.58" y="-171.5" font-family="Helvetica,sans-Serif" font-size="10.00">readoutlibs</text>
</g>
<!-- dir_0d227a0d1c59746f4ba8156fcfebe82c -->
<g id="node3" class="node">
<title>dir_0d227a0d1c59746f4ba8156fcfebe82c</title>
<g id="a_node3"><a xlink:href="dir_0d227a0d1c59746f4ba8156fcfebe82c.html" target="_top" xlink:title="detail">
<polygon fill="#a2b4d6" stroke="#404040" points="337.2,-129.75 297.95,-129.75 297.95,-110.5 337.2,-110.5 337.2,-129.75"/>
<text text-anchor="middle" x="317.58" y="-116.25" font-family="Helvetica,sans-Serif" font-size="10.00">detail</text>
</a>
</g>
</g>
<!-- dir_c555b8bc5d845218b14b46868bbee9f9&#45;&gt;dir_0d227a0d1c59746f4ba8156fcfebe82c -->
<g id="edge1" class="edge">
<title>dir_c555b8bc5d845218b14b46868bbee9f9&#45;&gt;dir_0d227a0d1c59746f4ba8156fcfebe82c</title>
<g id="a_edge1"><a xlink:href="dir_000391_000102.html" target="_top">
<path fill="none" stroke="#63b8ff" d="M307.45,-166.05C308.96,-159.37 311.14,-149.71 313.09,-141.06"/>
<polygon fill="#63b8ff" stroke="#63b8ff" points="316.48,-141.92 315.26,-131.39 309.65,-140.38 316.48,-141.92"/>
</a>
</g>
<g id="a_edge1&#45;headlabel"><a xlink:href="dir_000391_000102.html" target="_top" xlink:title="1">
<text text-anchor="middle" x="318.79" y="-140.7" font-family="Helvetica,sans-Serif" font-size="10.00" fill="#63b8ff">1</text>
</a>
</g>
</g>
<!-- dir_a64e56b30f5ca31a10654cea03375984 -->
<g id="node7" class="node">
<title>dir_a64e56b30f5ca31a10654cea03375984</title>
<g id="a_node7"><a xlink:href="dir_a64e56b30f5ca31a10654cea03375984.html" target="_top" xlink:title="ers">
<polygon fill="#edf0f7" stroke="red" stroke-dasharray="5,2" points="613.33,-129.75 583.83,-129.75 583.83,-110.5 613.33,-110.5 613.33,-129.75"/>
<text text-anchor="middle" x="598.58" y="-116.25" font-family="Helvetica,sans-Serif" font-size="10.00">ers</text>
</a>
</g>
</g>
<!-- dir_c555b8bc5d845218b14b46868bbee9f9&#45;&gt;dir_a64e56b30f5ca31a10654cea03375984 -->
<g id="edge2" class="edge">
<title>dir_c555b8bc5d845218b14b46868bbee9f9&#45;&gt;dir_a64e56b30f5ca31a10654cea03375984</title>
<g id="a_edge2"><a xlink:href="dir_000391_000175.html" target="_top">
<path fill="none" stroke="#63b8ff" d="M337.12,-170.31C386.88,-163.61 486.49,-149.05 569.58,-129.75 570.59,-129.52 571.61,-129.27 572.64,-129.01"/>
<polygon fill="#63b8ff" stroke="#63b8ff" points="573.47,-132.41 582.16,-126.36 571.59,-125.67 573.47,-132.41"/>
</a>
</g>
<g id="a_edge2&#45;headlabel"><a xlink:href="dir_000391_000175.html" target="_top" xlink:title="1">
<text text-anchor="middle" x="572.22" y="-131.83" font-family="Helvetica,sans-Serif" font-size="10.00" fill="#63b8ff">1</text>
</a>
</g>
</g>
<!-- dir_d6186462c2ecf8bc2243dcff615e0cdf -->
<g id="node11" class="node">
<title>dir_d6186462c2ecf8bc2243dcff615e0cdf</title>
<g id="a_node11"><a xlink:href="dir_d6186462c2ecf8bc2243dcff615e0cdf.html" target="_top" xlink:title="daqdataformats">
<polygon fill="#edf0f7" stroke="red" stroke-dasharray="5,2" points="724.33,-74.5 640.83,-74.5 640.83,-55.25 724.33,-55.25 724.33,-74.5"/>
<text text-anchor="middle" x="682.58" y="-61" font-family="Helvetica,sans-Serif" font-size="10.00">daqdataformats</text>
</a>
</g>
</g>
<!-- dir_c555b8bc5d845218b14b46868bbee9f9&#45;&gt;dir_d6186462c2ecf8bc2243dcff615e0cdf -->
<g id="edge3" class="edge">
<title>dir_c555b8bc5d845218b14b46868bbee9f9&#45;&gt;dir_d6186462c2ecf8bc2243dcff615e0cdf</title>
<g id="a_edge3"><a xlink:href="dir_000391_000082.html" target="_top">
<path fill="none" stroke="#63b8ff" d="M336.84,-170.48C380.98,-164.47 463.74,-151.33 531.58,-129.75 551.53,-123.4 555.34,-118.78 574.58,-110.5 599.65,-99.71 628.2,-87.94 649.65,-79.19"/>
<polygon fill="#63b8ff" stroke="#63b8ff" points="650.81,-82.5 658.76,-75.49 648.18,-76.01 650.81,-82.5"/>
</a>
</g>
<g id="a_edge3&#45;headlabel"><a xlink:href="dir_000391_000082.html" target="_top" xlink:title="9">
<text text-anchor="middle" x="649.95" y="-82.04" font-family="Helvetica,sans-Serif" font-size="10.00" fill="#63b8ff">9</text>
</a>
</g>
</g>
<!-- dir_f74a706a7efda297e6d8fb2c03527fc2 -->
<g id="node14" class="node">
<title>dir_f74a706a7efda297e6d8fb2c03527fc2</title>
<g id="a_node14"><a xlink:href="dir_f74a706a7efda297e6d8fb2c03527fc2.html" target="_top" xlink:title="logging">
<polygon fill="#edf0f7" stroke="red" stroke-dasharray="5,2" points="112.95,-19.25 66.2,-19.25 66.2,0 112.95,0 112.95,-19.25"/>
<text text-anchor="middle" x="89.58" y="-5.75" font-family="Helvetica,sans-Serif" font-size="10.00">logging</text>
</a>
</g>
</g>
<!-- dir_c555b8bc5d845218b14b46868bbee9f9&#45;&gt;dir_f74a706a7efda297e6d8fb2c03527fc2 -->
<g id="edge4" class="edge">
<title>dir_c555b8bc5d845218b14b46868bbee9f9&#45;&gt;dir_f74a706a7efda297e6d8fb2c03527fc2</title>
<g id="a_edge4"><a xlink:href="dir_000391_000308.html" target="_top">
<path fill="none" stroke="#63b8ff" d="M273.95,-166.87C230.29,-154.87 152.01,-127.15 108.58,-74.5 98.32,-62.06 93.6,-44.24 91.43,-30.58"/>
<polygon fill="#63b8ff" stroke="#63b8ff" points="94.94,-30.48 90.25,-20.98 87.99,-31.33 94.94,-30.48"/>
</a>
</g>
<g id="a_edge4&#45;headlabel"><a xlink:href="dir_000391_000308.html" target="_top" xlink:title="14">
<text text-anchor="middle" x="98.01" y="-28.32" font-family="Helvetica,sans-Serif" font-size="10.00" fill="#63b8ff">14</text>
</a>
</g>
</g>
<!-- dir_23443d71ec6ec885fd588d9c2931ab11 -->
<g id="node2" class="node">
<title>dir_23443d71ec6ec885fd588d9c2931ab11</title>
<g id="a_node2"><a xlink:href="dir_23443d71ec6ec885fd588d9c2931ab11.html" target="_top" xlink:title="concepts">
<polygon fill="#a2b4d6" stroke="#404040" points="279.45,-129.75 223.7,-129.75 223.7,-110.5 279.45,-110.5 279.45,-129.75"/>
<text text-anchor="middle" x="251.58" y="-116.25" font-family="Helvetica,sans-Serif" font-size="10.00">concepts</text>
</a>
</g>
</g>
<!-- dir_eb22b89a2491e080380c52877053e944 -->
<g id="node5" class="node">
<title>dir_eb22b89a2491e080380c52877053e944</title>
<g id="a_node5"><a xlink:href="dir_eb22b89a2491e080380c52877053e944.html" target="_top" xlink:title="utils">
<polygon fill="#a2b4d6" stroke="#404040" points="237.58,-74.5 203.58,-74.5 203.58,-55.25 237.58,-55.25 237.58,-74.5"/>
<text text-anchor="middle" x="220.58" y="-61" font-family="Helvetica,sans-Serif" font-size="10.00">utils</text>
</a>
</g>
</g>
<!-- dir_23443d71ec6ec885fd588d9c2931ab11&#45;&gt;dir_eb22b89a2491e080380c52877053e944 -->
<g id="edge11" class="edge">
<title>dir_23443d71ec6ec885fd588d9c2931ab11&#45;&gt;dir_eb22b89a2491e080380c52877053e944</title>
<g id="a_edge11"><a xlink:href="dir_000062_000525.html" target="_top">
<path fill="none" stroke="#63b8ff" d="M246.46,-110.33C242.4,-103.36 236.58,-93.37 231.49,-84.62"/>
<polygon fill="#63b8ff" stroke="#63b8ff" points="234.63,-83.05 226.57,-76.17 228.58,-86.57 234.63,-83.05"/>
</a>
</g>
<g id="a_edge11&#45;headlabel"><a xlink:href="dir_000062_000525.html" target="_top" xlink:title="3">
<text text-anchor="middle" x="238.13" y="-79.54" font-family="Helvetica,sans-Serif" font-size="10.00" fill="#63b8ff">3</text>
</a>
</g>
</g>
<!-- dir_934fd243b40ff671fa1d708949b38ec2 -->
<g id="node6" class="node">
<title>dir_934fd243b40ff671fa1d708949b38ec2</title>
<g id="a_node6"><a xlink:href="dir_934fd243b40ff671fa1d708949b38ec2.html" target="_top" xlink:title="utilities">
<polygon fill="#edf0f7" stroke="red" stroke-dasharray="5,2" points="61.95,-74.5 15.2,-74.5 15.2,-55.25 61.95,-55.25 61.95,-74.5"/>
<text text-anchor="middle" x="38.58" y="-61" font-family="Helvetica,sans-Serif" font-size="10.00">utilities</text>
</a>
</g>
</g>
<!-- dir_23443d71ec6ec885fd588d9c2931ab11&#45;&gt;dir_934fd243b40ff671fa1d708949b38ec2 -->
<g id="edge5" class="edge">
<title>dir_23443d71ec6ec885fd588d9c2931ab11&#45;&gt;dir_934fd243b40ff671fa1d708949b38ec2</title>
<g id="a_edge5"><a xlink:href="dir_000062_000523.html" target="_top">
<path fill="none" stroke="#63b8ff" d="M223.29,-112.05C184.61,-102.38 115.23,-85.04 73.4,-74.58"/>
<polygon fill="#63b8ff" stroke="#63b8ff" points="74.4,-71.22 63.85,-72.19 72.7,-78.01 74.4,-71.22"/>
</a>
</g>
<g id="a_edge5&#45;headlabel"><a xlink:href="dir_000062_000523.html" target="_top" xlink:title="1">
<text text-anchor="middle" x="77.1" y="-65.1" font-family="Helvetica,sans-Serif" font-size="10.00" fill="#63b8ff">1</text>
</a>
</g>
</g>
<!-- dir_ab1b54331b4bb0c44e7fcd5a7d20111e -->
<g id="node8" class="node">
<title>dir_ab1b54331b4bb0c44e7fcd5a7d20111e</title>
<g id="a_node8"><a xlink:href="dir_ab1b54331b4bb0c44e7fcd5a7d20111e.html" target="_top" xlink:title="iomanager">
<polygon fill="#edf0f7" stroke="red" stroke-dasharray="5,2" points="179.08,-74.5 118.08,-74.5 118.08,-55.25 179.08,-55.25 179.08,-74.5"/>
<text text-anchor="middle" x="148.58" y="-61" font-family="Helvetica,sans-Serif" font-size="10.00">iomanager</text>
</a>
</g>
</g>
<!-- dir_23443d71ec6ec885fd588d9c2931ab11&#45;&gt;dir_ab1b54331b4bb0c44e7fcd5a7d20111e -->
<g id="edge6" class="edge">
<title>dir_23443d71ec6ec885fd588d9c2931ab11&#45;&gt;dir_ab1b54331b4bb0c44e7fcd5a7d20111e</title>
<g id="a_edge6"><a xlink:href="dir_000062_000293.html" target="_top">
<path fill="none" stroke="#63b8ff" d="M234.11,-110.09C218.27,-101.91 194.67,-89.71 176.27,-80.19"/>
<polygon fill="#63b8ff" stroke="#63b8ff" points="177.97,-77.13 167.48,-75.65 174.76,-83.35 177.97,-77.13"/>
</a>
</g>
<g id="a_edge6&#45;headlabel"><a xlink:href="dir_000062_000293.html" target="_top" xlink:title="1">
<text text-anchor="middle" x="181.12" y="-71.69" font-family="Helvetica,sans-Serif" font-size="10.00" fill="#63b8ff">1</text>
</a>
</g>
</g>
<!-- dir_bbc7c2c1f127b379ce39be24c4bd3dbe -->
<g id="node9" class="node">
<title>dir_bbc7c2c1f127b379ce39be24c4bd3dbe</title>
<g id="a_node9"><a xlink:href="dir_bbc7c2c1f127b379ce39be24c4bd3dbe.html" target="_top" xlink:title="build">
<polygon fill="#edf0f7" stroke="red" stroke-dasharray="5,2" points="397.7,-74.5 361.45,-74.5 361.45,-55.25 397.7,-55.25 397.7,-74.5"/>
<text text-anchor="middle" x="379.58" y="-61" font-family="Helvetica,sans-Serif" font-size="10.00">build</text>
</a>
</g>
</g>
<!-- dir_23443d71ec6ec885fd588d9c2931ab11&#45;&gt;dir_bbc7c2c1f127b379ce39be24c4bd3dbe -->
<g id="edge7" class="edge">
<title>dir_23443d71ec6ec885fd588d9c2931ab11&#45;&gt;dir_bbc7c2c1f127b379ce39be24c4bd3dbe</title>
<g id="a_edge7"><a xlink:href="dir_000062_000030.html" target="_top">
<path fill="none" stroke="#63b8ff" d="M273.29,-110.09C294.6,-101.23 327.22,-87.66 350.7,-77.89"/>
<polygon fill="#63b8ff" stroke="#63b8ff" points="351.8,-81.22 359.69,-74.15 349.11,-74.76 351.8,-81.22"/>
</a>
</g>
<g id="a_edge7&#45;headlabel"><a xlink:href="dir_000062_000030.html" target="_top" xlink:title="8">
<text text-anchor="middle" x="350.97" y="-80.77" font-family="Helvetica,sans-Serif" font-size="10.00" fill="#63b8ff">8</text>
</a>
</g>
</g>
<!-- dir_c1d57bfadd68378fc3d59efca0edc545 -->
<g id="node10" class="node">
<title>dir_c1d57bfadd68378fc3d59efca0edc545</title>
<g id="a_node10"><a xlink:href="dir_c1d57bfadd68378fc3d59efca0edc545.html" target="_top" xlink:title="dfmessages">
<polygon fill="#edf0f7" stroke="red" stroke-dasharray="5,2" points="485.2,-74.5 415.95,-74.5 415.95,-55.25 485.2,-55.25 485.2,-74.5"/>
<text text-anchor="middle" x="450.58" y="-61" font-family="Helvetica,sans-Serif" font-size="10.00">dfmessages</text>
</a>
</g>
</g>
<!-- dir_23443d71ec6ec885fd588d9c2931ab11&#45;&gt;dir_c1d57bfadd68378fc3d59efca0edc545 -->
<g id="edge8" class="edge">
<title>dir_23443d71ec6ec885fd588d9c2931ab11&#45;&gt;dir_c1d57bfadd68378fc3d59efca0edc545</title>
<g id="a_edge8"><a xlink:href="dir_000062_000117.html" target="_top">
<path fill="none" stroke="#63b8ff" d="M279.67,-111.61C312.43,-102.84 367.03,-88.23 405.69,-77.89"/>
<polygon fill="#63b8ff" stroke="#63b8ff" points="406.42,-81.31 415.18,-75.35 404.61,-74.55 406.42,-81.31"/>
</a>
</g>
<g id="a_edge8&#45;headlabel"><a xlink:href="dir_000062_000117.html" target="_top" xlink:title="1">
<text text-anchor="middle" x="405.14" y="-80.72" font-family="Helvetica,sans-Serif" font-size="10.00" fill="#63b8ff">1</text>
</a>
</g>
</g>
<!-- dir_23443d71ec6ec885fd588d9c2931ab11&#45;&gt;dir_d6186462c2ecf8bc2243dcff615e0cdf -->
<g id="edge9" class="edge">
<title>dir_23443d71ec6ec885fd588d9c2931ab11&#45;&gt;dir_d6186462c2ecf8bc2243dcff615e0cdf</title>
<g id="a_edge9"><a xlink:href="dir_000062_000082.html" target="_top">
<path fill="none" stroke="#63b8ff" d="M279.79,-112.17C282.75,-111.55 285.72,-110.98 288.58,-110.5 436.62,-85.6 478.36,-95.1 629.52,-74.84"/>
<polygon fill="#63b8ff" stroke="#63b8ff" points="629.66,-78.35 639.1,-73.53 628.72,-71.41 629.66,-78.35"/>
</a>
</g>
<g id="a_edge9&#45;headlabel"><a xlink:href="dir_000062_000082.html" target="_top" xlink:title="2">
<text text-anchor="middle" x="627.99" y="-77.57" font-family="Helvetica,sans-Serif" font-size="10.00" fill="#63b8ff">2</text>
</a>
</g>
</g>
<!-- dir_eaab8e706d9785a8277b333b3fa3c104 -->
<g id="node12" class="node">
<title>dir_eaab8e706d9785a8277b333b3fa3c104</title>
<g id="a_node12"><a xlink:href="dir_eaab8e706d9785a8277b333b3fa3c104.html" target="_top" xlink:title="appfwk">
<polygon fill="#edf0f7" stroke="red" stroke-dasharray="5,2" points="550.33,-74.5 502.83,-74.5 502.83,-55.25 550.33,-55.25 550.33,-74.5"/>
<text text-anchor="middle" x="526.58" y="-61" font-family="Helvetica,sans-Serif" font-size="10.00">appfwk</text>
</a>
</g>
</g>
<!-- dir_23443d71ec6ec885fd588d9c2931ab11&#45;&gt;dir_eaab8e706d9785a8277b333b3fa3c104 -->
<g id="edge10" class="edge">
<title>dir_23443d71ec6ec885fd588d9c2931ab11&#45;&gt;dir_eaab8e706d9785a8277b333b3fa3c104</title>
<g id="a_edge10"><a xlink:href="dir_000062_000011.html" target="_top">
<path fill="none" stroke="#63b8ff" d="M279.82,-112.37C282.78,-111.71 285.73,-111.08 288.58,-110.5 376.09,-92.67 401.85,-94.44 491.29,-75.08"/>
<polygon fill="#63b8ff" stroke="#63b8ff" points="492.03,-78.5 501.04,-72.93 490.53,-71.66 492.03,-78.5"/>
</a>
</g>
<g id="a_edge10&#45;headlabel"><a xlink:href="dir_000062_000011.html" target="_top" xlink:title="1">
<text text-anchor="middle" x="490.61" y="-77.84" font-family="Helvetica,sans-Serif" font-size="10.00" fill="#63b8ff">1</text>
</a>
</g>
</g>
<!-- dir_f6ebe3d21dc6eefb077bc4c75cd16e31 -->
<g id="node13" class="node">
<title>dir_f6ebe3d21dc6eefb077bc4c75cd16e31</title>
<g id="a_node13"><a xlink:href="dir_f6ebe3d21dc6eefb077bc4c75cd16e31.html" target="_top" xlink:title="opmonlib">
<polygon fill="#edf0f7" stroke="red" stroke-dasharray="5,2" points="623.08,-74.5 568.08,-74.5 568.08,-55.25 623.08,-55.25 623.08,-74.5"/>
<text text-anchor="middle" x="595.58" y="-61" font-family="Helvetica,sans-Serif" font-size="10.00">opmonlib</text>
</a>
</g>
</g>
<!-- dir_23443d71ec6ec885fd588d9c2931ab11&#45;&gt;dir_f6ebe3d21dc6eefb077bc4c75cd16e31 -->
<g id="edge12" class="edge">
<title>dir_23443d71ec6ec885fd588d9c2931ab11&#45;&gt;dir_f6ebe3d21dc6eefb077bc4c75cd16e31</title>
<g id="a_edge12"><a xlink:href="dir_000062_000330.html" target="_top">
<path fill="none" stroke="#63b8ff" d="M279.8,-112.25C282.76,-111.62 285.72,-111.02 288.58,-110.5 404.6,-89.32 438.17,-96.24 556.76,-74.86"/>
<polygon fill="#63b8ff" stroke="#63b8ff" points="557.04,-78.37 566.24,-73.12 555.77,-71.48 557.04,-78.37"/>
</a>
</g>
<g id="a_edge12&#45;headlabel"><a xlink:href="dir_000062_000330.html" target="_top" xlink:title="5">
<text text-anchor="middle" x="555.5" y="-77.66" font-family="Helvetica,sans-Serif" font-size="10.00" fill="#63b8ff">5</text>
</a>
</g>
</g>
<!-- dir_20b9e758caf64dd583326cd370dca9fa -->
<g id="node4" class="node">
<title>dir_20b9e758caf64dd583326cd370dca9fa</title>
<g id="a_node4"><a xlink:href="dir_20b9e758caf64dd583326cd370dca9fa.html" target="_top" xlink:title="models">
<polygon fill="#a2b4d6" stroke="#404040" points="256.33,-185 208.83,-185 208.83,-165.75 256.33,-165.75 256.33,-185"/>
<text text-anchor="middle" x="232.58" y="-171.5" font-family="Helvetica,sans-Serif" font-size="10.00">models</text>
</a>
</g>
</g>
<!-- dir_20b9e758caf64dd583326cd370dca9fa&#45;&gt;dir_23443d71ec6ec885fd588d9c2931ab11 -->
<g id="edge13" class="edge">
<title>dir_20b9e758caf64dd583326cd370dca9fa&#45;&gt;dir_23443d71ec6ec885fd588d9c2931ab11</title>
<g id="a_edge13"><a xlink:href="dir_000310_000062.html" target="_top">
<path fill="none" stroke="#63b8ff" d="M235.72,-165.58C238.12,-158.84 241.53,-149.27 244.58,-140.74"/>
<polygon fill="#63b8ff" stroke="#63b8ff" points="247.8,-142.13 247.86,-131.53 241.21,-139.78 247.8,-142.13"/>
</a>
</g>
<g id="a_edge13&#45;headlabel"><a xlink:href="dir_000310_000062.html" target="_top" xlink:title="11">
<text text-anchor="middle" x="249.77" y="-141.17" font-family="Helvetica,sans-Serif" font-size="10.00" fill="#63b8ff">11</text>
</a>
</g>
</g>
<!-- dir_20b9e758caf64dd583326cd370dca9fa&#45;&gt;dir_eb22b89a2491e080380c52877053e944 -->
<g id="edge20" class="edge">
<title>dir_20b9e758caf64dd583326cd370dca9fa&#45;&gt;dir_eb22b89a2491e080380c52877053e944</title>
<g id="a_edge20"><a xlink:href="dir_000310_000525.html" target="_top">
<path fill="none" stroke="#63b8ff" d="M227.79,-165.46C223.36,-156.67 217.09,-142.71 214.58,-129.75 211.75,-115.15 213.5,-98.41 215.83,-85.73"/>
<polygon fill="#63b8ff" stroke="#63b8ff" points="219.21,-86.62 217.88,-76.11 212.37,-85.16 219.21,-86.62"/>
</a>
</g>
<g id="a_edge20&#45;headlabel"><a xlink:href="dir_000310_000525.html" target="_top" xlink:title="10">
<text text-anchor="middle" x="221.56" y="-85.37" font-family="Helvetica,sans-Serif" font-size="10.00" fill="#63b8ff">10</text>
</a>
</g>
</g>
<!-- dir_20b9e758caf64dd583326cd370dca9fa&#45;&gt;dir_934fd243b40ff671fa1d708949b38ec2 -->
<g id="edge14" class="edge">
<title>dir_20b9e758caf64dd583326cd370dca9fa&#45;&gt;dir_934fd243b40ff671fa1d708949b38ec2</title>
<g id="a_edge14"><a xlink:href="dir_000310_000523.html" target="_top">
<path fill="none" stroke="#63b8ff" d="M216.37,-165.31C182.85,-146.56 105.63,-103.37 64.87,-80.58"/>
<polygon fill="#63b8ff" stroke="#63b8ff" points="66.63,-77.55 56.2,-75.73 63.22,-83.66 66.63,-77.55"/>
</a>
</g>
<g id="a_edge14&#45;headlabel"><a xlink:href="dir_000310_000523.html" target="_top" xlink:title="1">
<text text-anchor="middle" x="69.83" y="-72.22" font-family="Helvetica,sans-Serif" font-size="10.00" fill="#63b8ff">1</text>
</a>
</g>
</g>
<!-- dir_20b9e758caf64dd583326cd370dca9fa&#45;&gt;dir_ab1b54331b4bb0c44e7fcd5a7d20111e -->
<g id="edge15" class="edge">
<title>dir_20b9e758caf64dd583326cd370dca9fa&#45;&gt;dir_ab1b54331b4bb0c44e7fcd5a7d20111e</title>
<g id="a_edge15"><a xlink:href="dir_000310_000293.html" target="_top">
<path fill="none" stroke="#63b8ff" d="M225.7,-165.5C211.92,-147.69 180.67,-107.33 162.46,-83.81"/>
<polygon fill="#63b8ff" stroke="#63b8ff" points="165.36,-81.84 156.47,-76.07 159.83,-86.12 165.36,-81.84"/>
</a>
</g>
<g id="a_edge15&#45;headlabel"><a xlink:href="dir_000310_000293.html" target="_top" xlink:title="10">
<text text-anchor="middle" x="168.88" y="-77.87" font-family="Helvetica,sans-Serif" font-size="10.00" fill="#63b8ff">10</text>
</a>
</g>
</g>
<!-- dir_20b9e758caf64dd583326cd370dca9fa&#45;&gt;dir_bbc7c2c1f127b379ce39be24c4bd3dbe -->
<g id="edge16" class="edge">
<title>dir_20b9e758caf64dd583326cd370dca9fa&#45;&gt;dir_bbc7c2c1f127b379ce39be24c4bd3dbe</title>
<g id="a_edge16"><a xlink:href="dir_000310_000030.html" target="_top">
<path fill="none" stroke="#63b8ff" d="M256.71,-167.15C285.93,-158.02 332.96,-142.02 346.58,-129.75 359.63,-117.99 368.31,-99.85 373.47,-85.9"/>
<polygon fill="#63b8ff" stroke="#63b8ff" points="376.79,-87.02 376.65,-76.42 370.15,-84.79 376.79,-87.02"/>
</a>
</g>
<g id="a_edge16&#45;headlabel"><a xlink:href="dir_000310_000030.html" target="_top" xlink:title="28">
<text text-anchor="middle" x="378.82" y="-86.02" font-family="Helvetica,sans-Serif" font-size="10.00" fill="#63b8ff">28</text>
</a>
</g>
</g>
<!-- dir_20b9e758caf64dd583326cd370dca9fa&#45;&gt;dir_c1d57bfadd68378fc3d59efca0edc545 -->
<g id="edge17" class="edge">
<title>dir_20b9e758caf64dd583326cd370dca9fa&#45;&gt;dir_c1d57bfadd68378fc3d59efca0edc545</title>
<g id="a_edge17"><a xlink:href="dir_000310_000117.html" target="_top">
<path fill="none" stroke="#63b8ff" d="M256.57,-167.5C289.83,-157.79 348.06,-140.1 367.58,-129.75 392.02,-116.79 416.72,-96.67 432.75,-82.49"/>
<polygon fill="#63b8ff" stroke="#63b8ff" points="434.92,-85.24 439.99,-75.93 430.23,-80.05 434.92,-85.24"/>
</a>
</g>
<g id="a_edge17&#45;headlabel"><a xlink:href="dir_000310_000117.html" target="_top" xlink:title="4">
<text text-anchor="middle" x="435.29" y="-84.86" font-family="Helvetica,sans-Serif" font-size="10.00" fill="#63b8ff">4</text>
</a>
</g>
</g>
<!-- dir_20b9e758caf64dd583326cd370dca9fa&#45;&gt;dir_d6186462c2ecf8bc2243dcff615e0cdf -->
<g id="edge18" class="edge">
<title>dir_20b9e758caf64dd583326cd370dca9fa&#45;&gt;dir_d6186462c2ecf8bc2243dcff615e0cdf</title>
<g id="a_edge18"><a xlink:href="dir_000310_000082.html" target="_top">
<path fill="none" stroke="#63b8ff" d="M256.63,-167.64C259.31,-166.96 261.99,-166.32 264.58,-165.75 356.19,-145.52 381.52,-152.36 472.58,-129.75 499.35,-123.1 505.24,-118.69 531.58,-110.5 568.03,-99.17 609.65,-86.92 639.95,-78.13"/>
<polygon fill="#63b8ff" stroke="#63b8ff" points="640.89,-81.5 649.52,-75.36 638.94,-74.77 640.89,-81.5"/>
</a>
</g>
<g id="a_edge18&#45;headlabel"><a xlink:href="dir_000310_000082.html" target="_top" xlink:title="5">
<text text-anchor="middle" x="639.68" y="-80.93" font-family="Helvetica,sans-Serif" font-size="10.00" fill="#63b8ff">5</text>
</a>
</g>
</g>
<!-- dir_20b9e758caf64dd583326cd370dca9fa&#45;&gt;dir_eaab8e706d9785a8277b333b3fa3c104 -->
<g id="edge19" class="edge">
<title>dir_20b9e758caf64dd583326cd370dca9fa&#45;&gt;dir_eaab8e706d9785a8277b333b3fa3c104</title>
<g id="a_edge19"><a xlink:href="dir_000310_000011.html" target="_top">
<path fill="none" stroke="#63b8ff" d="M256.73,-167.82C301.3,-155.73 392.27,-131 395.58,-129.75 433.24,-115.55 474.68,-94.34 500.66,-80.3"/>
<polygon fill="#63b8ff" stroke="#63b8ff" points="502.04,-83.54 509.14,-75.68 498.69,-77.39 502.04,-83.54"/>
</a>
</g>
<g id="a_edge19&#45;headlabel"><a xlink:href="dir_000310_000011.html" target="_top" xlink:title="1">
<text text-anchor="middle" x="501.57" y="-83.15" font-family="Helvetica,sans-Serif" font-size="10.00" fill="#63b8ff">1</text>
</a>
</g>
</g>
<!-- dir_20b9e758caf64dd583326cd370dca9fa&#45;&gt;dir_f6ebe3d21dc6eefb077bc4c75cd16e31 -->
<g id="edge21" class="edge">
<title>dir_20b9e758caf64dd583326cd370dca9fa&#45;&gt;dir_f6ebe3d21dc6eefb077bc4c75cd16e31</title>
<g id="a_edge21"><a xlink:href="dir_000310_000330.html" target="_top">
<path fill="none" stroke="#63b8ff" d="M256.66,-167.74C259.33,-167.05 262.01,-166.37 264.58,-165.75 338.37,-147.86 358.86,-151.6 431.58,-129.75 479.3,-115.41 532.77,-93.42 565.3,-79.35"/>
<polygon fill="#63b8ff" stroke="#63b8ff" points="566.34,-82.71 574.1,-75.51 563.54,-76.3 566.34,-82.71"/>
</a>
</g>
<g id="a_edge21&#45;headlabel"><a xlink:href="dir_000310_000330.html" target="_top" xlink:title="2">
<text text-anchor="middle" x="565.57" y="-82.27" font-family="Helvetica,sans-Serif" font-size="10.00" fill="#63b8ff">2</text>
</a>
</g>
</g>
<!-- dir_20b9e758caf64dd583326cd370dca9fa&#45;&gt;dir_f74a706a7efda297e6d8fb2c03527fc2 -->
<g id="edge22" class="edge">
<title>dir_20b9e758caf64dd583326cd370dca9fa&#45;&gt;dir_f74a706a7efda297e6d8fb2c03527fc2</title>
<g id="a_edge22"><a xlink:href="dir_000310_000308.html" target="_top">
<path fill="none" stroke="#63b8ff" d="M208.51,-172.23C159.98,-166.44 51.22,-145.75 6.58,-74.5 -1.74,-61.22 -2.52,-52.01 6.58,-39.25 17.54,-23.88 37.32,-16.68 54.83,-13.34"/>
<polygon fill="#63b8ff" stroke="#63b8ff" points="55.03,-16.85 64.39,-11.89 53.98,-9.93 55.03,-16.85"/>
</a>
</g>
<g id="a_edge22&#45;headlabel"><a xlink:href="dir_000310_000308.html" target="_top" xlink:title="10">
<text text-anchor="middle" x="53.4" y="-16.1" font-family="Helvetica,sans-Serif" font-size="10.00" fill="#63b8ff">10</text>
</a>
</g>
</g>
<!-- dir_eb22b89a2491e080380c52877053e944&#45;&gt;dir_f74a706a7efda297e6d8fb2c03527fc2 -->
<g id="edge23" class="edge">
<title>dir_eb22b89a2491e080380c52877053e944&#45;&gt;dir_f74a706a7efda297e6d8fb2c03527fc2</title>
<g id="a_edge23"><a xlink:href="dir_000525_000308.html" target="_top">
<path fill="none" stroke="#63b8ff" d="M210.86,-54.84C204.83,-49.65 196.71,-43.37 188.58,-39.25 168.39,-29.03 143.99,-21.92 124.46,-17.34"/>
<polygon fill="#63b8ff" stroke="#63b8ff" points="125.3,-13.95 114.78,-15.2 123.79,-20.78 125.3,-13.95"/>
</a>
</g>
<g id="a_edge23&#45;headlabel"><a xlink:href="dir_000525_000308.html" target="_top" xlink:title="3">
<text text-anchor="middle" x="127.95" y="-7.75" font-family="Helvetica,sans-Serif" font-size="10.00" fill="#63b8ff">3</text>
</a>
</g>
</g>
</g>
</svg>
