<?xml version="1.0" encoding="UTF-8" standalone="no"?>
<!DOCTYPE svg PUBLIC "-//W3C//DTD SVG 1.1//EN"
 "http://www.w3.org/Graphics/SVG/1.1/DTD/svg11.dtd">
<!-- Generated by graphviz version 9.0.0 (20230911.1827)
 -->
<!-- Title: /github/workspace/dev_area/sourcecode/timinglibs Pages: 1 -->
<svg width="459pt" height="197pt"
 viewBox="0.00 0.00 459.12 197.00" xmlns="http://www.w3.org/2000/svg" xmlns:xlink="http://www.w3.org/1999/xlink">
<g id="graph0" class="graph" transform="scale(1 1) rotate(0) translate(4 193)">
<title>/github/workspace/dev_area/sourcecode/timinglibs</title>
<g id="clust1" class="cluster">
<title>clusterdir_e594a494f7a60e5bf534551500b27d35</title>
<g id="a_clust1"><a xlink:href="dir_e594a494f7a60e5bf534551500b27d35.html" target="_top" xlink:title="sourcecode">
<polygon fill="#edf0f7" stroke="#7f7f7f" stroke-dasharray="5,2" points="8,-8 8,-181 407,-181 407,-8 8,-8"/>
<text text-anchor="middle" x="207.5" y="-167.5" font-family="Helvetica,sans-Serif" font-size="10.00">sourcecode</text>
</a>
</g>
</g>
<g id="clust2" class="cluster">
<title>clusterdir_6ff62befdf3459bbc04266830c16bdc2</title>
<g id="a_clust2"><a xlink:href="dir_6ff62befdf3459bbc04266830c16bdc2.html" target="_top">
<polygon fill="#edf0f7" stroke="#404040" stroke-width="2" points="16,-63.25 16,-153.75 255,-153.75 255,-63.25 16,-63.25"/>
</a>
</g>
</g>
<!-- dir_934fd243b40ff671fa1d708949b38ec2 -->
<g id="node1" class="node">
<title>dir_934fd243b40ff671fa1d708949b38ec2</title>
<g id="a_node1"><a xlink:href="dir_934fd243b40ff671fa1d708949b38ec2.html" target="_top" xlink:title="utilities">
<polygon fill="#a2b4d6" stroke="red" points="62.38,-35.25 15.62,-35.25 15.62,-16 62.38,-16 62.38,-35.25"/>
<text text-anchor="middle" x="39" y="-21.75" font-family="Helvetica,sans-Serif" font-size="10.00">utilities</text>
</a>
</g>
</g>
<!-- dir_a64e56b30f5ca31a10654cea03375984 -->
<g id="node2" class="node">
<title>dir_a64e56b30f5ca31a10654cea03375984</title>
<g id="a_node2"><a xlink:href="dir_a64e56b30f5ca31a10654cea03375984.html" target="_top" xlink:title="ers">
<polygon fill="#a2b4d6" stroke="red" points="109.75,-35.25 80.25,-35.25 80.25,-16 109.75,-16 109.75,-35.25"/>
<text text-anchor="middle" x="95" y="-21.75" font-family="Helvetica,sans-Serif" font-size="10.00">ers</text>
</a>
</g>
</g>
<!-- dir_ab1b54331b4bb0c44e7fcd5a7d20111e -->
<g id="node3" class="node">
<title>dir_ab1b54331b4bb0c44e7fcd5a7d20111e</title>
<g id="a_node3"><a xlink:href="dir_ab1b54331b4bb0c44e7fcd5a7d20111e.html" target="_top" xlink:title="iomanager">
<polygon fill="#a2b4d6" stroke="red" points="188.5,-35.25 127.5,-35.25 127.5,-16 188.5,-16 188.5,-35.25"/>
<text text-anchor="middle" x="158" y="-21.75" font-family="Helvetica,sans-Serif" font-size="10.00">iomanager</text>
</a>
</g>
</g>
<!-- dir_eaab8e706d9785a8277b333b3fa3c104 -->
<g id="node4" class="node">
<title>dir_eaab8e706d9785a8277b333b3fa3c104</title>
<g id="a_node4"><a xlink:href="dir_eaab8e706d9785a8277b333b3fa3c104.html" target="_top" xlink:title="appfwk">
<polygon fill="#a2b4d6" stroke="red" points="332.75,-35.25 285.25,-35.25 285.25,-16 332.75,-16 332.75,-35.25"/>
<text text-anchor="middle" x="309" y="-21.75" font-family="Helvetica,sans-Serif" font-size="10.00">appfwk</text>
</a>
</g>
</g>
<!-- dir_f6ebe3d21dc6eefb077bc4c75cd16e31 -->
<g id="node5" class="node">
<title>dir_f6ebe3d21dc6eefb077bc4c75cd16e31</title>
<g id="a_node5"><a xlink:href="dir_f6ebe3d21dc6eefb077bc4c75cd16e31.html" target="_top" xlink:title="opmonlib">
<polygon fill="#a2b4d6" stroke="red" points="398.5,-90.5 343.5,-90.5 343.5,-71.25 398.5,-71.25 398.5,-90.5"/>
<text text-anchor="middle" x="371" y="-77" font-family="Helvetica,sans-Serif" font-size="10.00">opmonlib</text>
</a>
</g>
</g>
<!-- dir_f74a706a7efda297e6d8fb2c03527fc2 -->
<g id="node6" class="node">
<title>dir_f74a706a7efda297e6d8fb2c03527fc2</title>
<g id="a_node6"><a xlink:href="dir_f74a706a7efda297e6d8fb2c03527fc2.html" target="_top" xlink:title="logging">
<polygon fill="#a2b4d6" stroke="red" points="253.38,-35.25 206.62,-35.25 206.62,-16 253.38,-16 253.38,-35.25"/>
<text text-anchor="middle" x="230" y="-21.75" font-family="Helvetica,sans-Serif" font-size="10.00">logging</text>
</a>
</g>
</g>
<!-- dir_ff02a85692f9b6a5a25ea258d5763fbb -->
<g id="node7" class="node">
<title>dir_ff02a85692f9b6a5a25ea258d5763fbb</title>
<g id="a_node7"><a xlink:href="dir_ff02a85692f9b6a5a25ea258d5763fbb.html" target="_top" xlink:title="timing">
<polygon fill="#a2b4d6" stroke="red" points="305.12,-90.5 262.88,-90.5 262.88,-71.25 305.12,-71.25 305.12,-90.5"/>
<text text-anchor="middle" x="284" y="-77" font-family="Helvetica,sans-Serif" font-size="10.00">timing</text>
</a>
</g>
</g>
<!-- dir_6ff62befdf3459bbc04266830c16bdc2 -->
<g id="node8" class="node">
<title>dir_6ff62befdf3459bbc04266830c16bdc2</title>
<text text-anchor="middle" x="218" y="-132.25" font-family="Helvetica,sans-Serif" font-size="10.00">timinglibs</text>
</g>
<!-- dir_57f88488807f5d58b3eb53d69c1c1002 -->
<g id="node9" class="node">
<title>dir_57f88488807f5d58b3eb53d69c1c1002</title>
<g id="a_node9"><a xlink:href="dir_57f88488807f5d58b3eb53d69c1c1002.html" target="_top" xlink:title="docs">
<polygon fill="#a2b4d6" stroke="#404040" points="171.5,-145.75 134.5,-145.75 134.5,-126.5 171.5,-126.5 171.5,-145.75"/>
<text text-anchor="middle" x="153" y="-132.25" font-family="Helvetica,sans-Serif" font-size="10.00">docs</text>
</a>
</g>
</g>
<!-- dir_d5ac09353eaeebf3dd8e870caa765381 -->
<g id="node10" class="node">
<title>dir_d5ac09353eaeebf3dd8e870caa765381</title>
<g id="a_node10"><a xlink:href="dir_d5ac09353eaeebf3dd8e870caa765381.html" target="_top" xlink:title="include">
<polygon fill="#a2b4d6" stroke="#404040" points="181.38,-90.5 134.62,-90.5 134.62,-71.25 181.38,-71.25 181.38,-90.5"/>
<text text-anchor="middle" x="158" y="-77" font-family="Helvetica,sans-Serif" font-size="10.00">include</text>
</a>
</g>
</g>
<!-- dir_d5ac09353eaeebf3dd8e870caa765381&#45;&gt;dir_934fd243b40ff671fa1d708949b38ec2 -->
<g id="edge6" class="edge">
<title>dir_d5ac09353eaeebf3dd8e870caa765381&#45;&gt;dir_934fd243b40ff671fa1d708949b38ec2</title>
<g id="a_edge6"><a xlink:href="dir_000283_000523.html" target="_top">
<path fill="none" stroke="#63b8ff" d="M144.25,-70.77C140.08,-68.19 135.43,-65.47 131,-63.25 112.39,-53.9 90.78,-45.2 73.19,-38.62"/>
<polygon fill="#63b8ff" stroke="#63b8ff" points="74.57,-35.4 63.97,-35.24 72.16,-41.97 74.57,-35.4"/>
</a>
</g>
<g id="a_edge6&#45;headlabel"><a xlink:href="dir_000283_000523.html" target="_top" xlink:title="1">
<text text-anchor="middle" x="77.5" y="-29.58" font-family="Helvetica,sans-Serif" font-size="10.00" fill="#63b8ff">1</text>
</a>
</g>
</g>
<!-- dir_d5ac09353eaeebf3dd8e870caa765381&#45;&gt;dir_a64e56b30f5ca31a10654cea03375984 -->
<g id="edge3" class="edge">
<title>dir_d5ac09353eaeebf3dd8e870caa765381&#45;&gt;dir_a64e56b30f5ca31a10654cea03375984</title>
<g id="a_edge3"><a xlink:href="dir_000283_000175.html" target="_top">
<path fill="none" stroke="#63b8ff" d="M147.31,-70.84C138.3,-63.22 125.17,-52.12 114.32,-42.95"/>
<polygon fill="#63b8ff" stroke="#63b8ff" points="116.58,-40.28 106.69,-36.5 112.06,-45.63 116.58,-40.28"/>
</a>
</g>
<g id="a_edge3&#45;headlabel"><a xlink:href="dir_000283_000175.html" target="_top" xlink:title="3">
<text text-anchor="middle" x="120" y="-35.58" font-family="Helvetica,sans-Serif" font-size="10.00" fill="#63b8ff">3</text>
</a>
</g>
</g>
<!-- dir_d5ac09353eaeebf3dd8e870caa765381&#45;&gt;dir_ab1b54331b4bb0c44e7fcd5a7d20111e -->
<g id="edge5" class="edge">
<title>dir_d5ac09353eaeebf3dd8e870caa765381&#45;&gt;dir_ab1b54331b4bb0c44e7fcd5a7d20111e</title>
<g id="a_edge5"><a xlink:href="dir_000283_000293.html" target="_top">
<path fill="none" stroke="#63b8ff" d="M158,-71.08C158,-64.57 158,-55.42 158,-47.12"/>
<polygon fill="#63b8ff" stroke="#63b8ff" points="161.5,-47.12 158,-37.12 154.5,-47.12 161.5,-47.12"/>
</a>
</g>
<g id="a_edge5&#45;headlabel"><a xlink:href="dir_000283_000293.html" target="_top" xlink:title="2">
<text text-anchor="middle" x="164.34" y="-45.33" font-family="Helvetica,sans-Serif" font-size="10.00" fill="#63b8ff">2</text>
</a>
</g>
</g>
<!-- dir_d5ac09353eaeebf3dd8e870caa765381&#45;&gt;dir_eaab8e706d9785a8277b333b3fa3c104 -->
<g id="edge2" class="edge">
<title>dir_d5ac09353eaeebf3dd8e870caa765381&#45;&gt;dir_eaab8e706d9785a8277b333b3fa3c104</title>
<g id="a_edge2"><a xlink:href="dir_000283_000011.html" target="_top">
<path fill="none" stroke="#63b8ff" d="M171.08,-70.86C175.38,-68.16 180.27,-65.36 185,-63.25 213.98,-50.32 248.76,-40.51 274.1,-34.31"/>
<polygon fill="#63b8ff" stroke="#63b8ff" points="274.63,-37.78 283.55,-32.06 273.02,-30.97 274.63,-37.78"/>
</a>
</g>
<g id="a_edge2&#45;headlabel"><a xlink:href="dir_000283_000011.html" target="_top" xlink:title="3">
<text text-anchor="middle" x="273.26" y="-37.15" font-family="Helvetica,sans-Serif" font-size="10.00" fill="#63b8ff">3</text>
</a>
</g>
</g>
<!-- dir_d5ac09353eaeebf3dd8e870caa765381&#45;&gt;dir_f74a706a7efda297e6d8fb2c03527fc2 -->
<g id="edge4" class="edge">
<title>dir_d5ac09353eaeebf3dd8e870caa765381&#45;&gt;dir_f74a706a7efda297e6d8fb2c03527fc2</title>
<g id="a_edge4"><a xlink:href="dir_000283_000308.html" target="_top">
<path fill="none" stroke="#63b8ff" d="M170.21,-70.84C180.83,-62.99 196.44,-51.45 209.04,-42.12"/>
<polygon fill="#63b8ff" stroke="#63b8ff" points="210.79,-45.19 216.75,-36.42 206.63,-39.56 210.79,-45.19"/>
</a>
</g>
<g id="a_edge4&#45;headlabel"><a xlink:href="dir_000283_000308.html" target="_top" xlink:title="1">
<text text-anchor="middle" x="210.81" y="-44.83" font-family="Helvetica,sans-Serif" font-size="10.00" fill="#63b8ff">1</text>
</a>
</g>
</g>
<!-- dir_bbc7c2c1f127b379ce39be24c4bd3dbe -->
<g id="node13" class="node">
<title>dir_bbc7c2c1f127b379ce39be24c4bd3dbe</title>
<g id="a_node13"><a xlink:href="dir_bbc7c2c1f127b379ce39be24c4bd3dbe.html" target="_top" xlink:title="build">
<polygon fill="#edf0f7" stroke="red" stroke-dasharray="5,2" points="451.12,-35.25 414.88,-35.25 414.88,-16 451.12,-16 451.12,-35.25"/>
<text text-anchor="middle" x="433" y="-21.75" font-family="Helvetica,sans-Serif" font-size="10.00">build</text>
</a>
</g>
</g>
<!-- dir_d5ac09353eaeebf3dd8e870caa765381&#45;&gt;dir_bbc7c2c1f127b379ce39be24c4bd3dbe -->
<g id="edge1" class="edge">
<title>dir_d5ac09353eaeebf3dd8e870caa765381&#45;&gt;dir_bbc7c2c1f127b379ce39be24c4bd3dbe</title>
<g id="a_edge1"><a xlink:href="dir_000283_000030.html" target="_top">
<path fill="none" stroke="#63b8ff" d="M170.07,-70.91C174.55,-68.01 179.81,-65.07 185,-63.25 276.96,-30.97 310.4,-57.97 403.36,-36.94"/>
<polygon fill="#63b8ff" stroke="#63b8ff" points="404.01,-40.39 412.91,-34.64 402.37,-33.58 404.01,-40.39"/>
</a>
</g>
<g id="a_edge1&#45;headlabel"><a xlink:href="dir_000283_000030.html" target="_top" xlink:title="6">
<text text-anchor="middle" x="402.65" y="-39.76" font-family="Helvetica,sans-Serif" font-size="10.00" fill="#63b8ff">6</text>
</a>
</g>
</g>
<!-- dir_34277b71546c1b4879cbe8576f84d1d3 -->
<g id="node11" class="node">
<title>dir_34277b71546c1b4879cbe8576f84d1d3</title>
<g id="a_node11"><a xlink:href="dir_34277b71546c1b4879cbe8576f84d1d3.html" target="_top" xlink:title="python">
<polygon fill="#a2b4d6" stroke="#404040" points="116.25,-145.75 71.75,-145.75 71.75,-126.5 116.25,-126.5 116.25,-145.75"/>
<text text-anchor="middle" x="94" y="-132.25" font-family="Helvetica,sans-Serif" font-size="10.00">python</text>
</a>
</g>
</g>
<!-- dir_0d351e451d5fa7dc43c7a5ed306af847 -->
<g id="node12" class="node">
<title>dir_0d351e451d5fa7dc43c7a5ed306af847</title>
<g id="a_node12"><a xlink:href="dir_0d351e451d5fa7dc43c7a5ed306af847.html" target="_top" xlink:title="src">
<polygon fill="#a2b4d6" stroke="#404040" points="53.75,-145.75 24.25,-145.75 24.25,-126.5 53.75,-126.5 53.75,-145.75"/>
<text text-anchor="middle" x="39" y="-132.25" font-family="Helvetica,sans-Serif" font-size="10.00">src</text>
</a>
</g>
</g>
<!-- dir_0d351e451d5fa7dc43c7a5ed306af847&#45;&gt;dir_934fd243b40ff671fa1d708949b38ec2 -->
<g id="edge7" class="edge">
<title>dir_0d351e451d5fa7dc43c7a5ed306af847&#45;&gt;dir_934fd243b40ff671fa1d708949b38ec2</title>
<g id="a_edge7"><a xlink:href="dir_000458_000523.html" target="_top">
<path fill="none" stroke="#63b8ff" d="M39,-126.25C39,-109 39,-70.58 39,-46.81"/>
<polygon fill="#63b8ff" stroke="#63b8ff" points="42.5,-47.14 39,-37.14 35.5,-47.14 42.5,-47.14"/>
</a>
</g>
<g id="a_edge7&#45;headlabel"><a xlink:href="dir_000458_000523.html" target="_top" xlink:title="2">
<text text-anchor="middle" x="45.34" y="-45.35" font-family="Helvetica,sans-Serif" font-size="10.00" fill="#63b8ff">2</text>
</a>
</g>
</g>
<!-- dir_0d351e451d5fa7dc43c7a5ed306af847&#45;&gt;dir_a64e56b30f5ca31a10654cea03375984 -->
<g id="edge8" class="edge">
<title>dir_0d351e451d5fa7dc43c7a5ed306af847&#45;&gt;dir_a64e56b30f5ca31a10654cea03375984</title>
<g id="a_edge8"><a xlink:href="dir_000458_000175.html" target="_top">
<path fill="none" stroke="#63b8ff" d="M43.58,-126.25C52.61,-108.76 72.86,-69.52 85.08,-45.84"/>
<polygon fill="#63b8ff" stroke="#63b8ff" points="88.18,-47.46 89.66,-36.97 81.96,-44.25 88.18,-47.46"/>
</a>
</g>
<g id="a_edge8&#45;headlabel"><a xlink:href="dir_000458_000175.html" target="_top" xlink:title="5">
<text text-anchor="middle" x="89.75" y="-46.74" font-family="Helvetica,sans-Serif" font-size="10.00" fill="#63b8ff">5</text>
</a>
</g>
</g>
<!-- dir_0d351e451d5fa7dc43c7a5ed306af847&#45;&gt;dir_ab1b54331b4bb0c44e7fcd5a7d20111e -->
<g id="edge9" class="edge">
<title>dir_0d351e451d5fa7dc43c7a5ed306af847&#45;&gt;dir_ab1b54331b4bb0c44e7fcd5a7d20111e</title>
<g id="a_edge9"><a xlink:href="dir_000458_000293.html" target="_top">
<path fill="none" stroke="#63b8ff" d="M48.74,-126.25C68.61,-108.13 114.12,-66.63 139.69,-43.32"/>
<polygon fill="#63b8ff" stroke="#63b8ff" points="141.98,-45.97 147.01,-36.65 137.26,-40.8 141.98,-45.97"/>
</a>
</g>
<g id="a_edge9&#45;headlabel"><a xlink:href="dir_000458_000293.html" target="_top" xlink:title="5">
<text text-anchor="middle" x="142.35" y="-45.6" font-family="Helvetica,sans-Serif" font-size="10.00" fill="#63b8ff">5</text>
</a>
</g>
</g>
<!-- dir_0d351e451d5fa7dc43c7a5ed306af847&#45;&gt;dir_eaab8e706d9785a8277b333b3fa3c104 -->
<g id="edge12" class="edge">
<title>dir_0d351e451d5fa7dc43c7a5ed306af847&#45;&gt;dir_eaab8e706d9785a8277b333b3fa3c104</title>
<g id="a_edge12"><a xlink:href="dir_000458_000011.html" target="_top">
<path fill="none" stroke="#63b8ff" d="M54.09,-129.18C57.02,-128.18 60.08,-127.23 63,-126.5 117.68,-112.9 277.09,-133.08 314,-90.5 324.36,-78.55 321.67,-60.17 317.23,-46.19"/>
<polygon fill="#63b8ff" stroke="#63b8ff" points="320.63,-45.29 313.86,-37.14 314.07,-47.73 320.63,-45.29"/>
</a>
</g>
<g id="a_edge12&#45;headlabel"><a xlink:href="dir_000458_000011.html" target="_top" xlink:title="5">
<text text-anchor="middle" x="324.01" y="-42.37" font-family="Helvetica,sans-Serif" font-size="10.00" fill="#63b8ff">5</text>
</a>
</g>
</g>
<!-- dir_0d351e451d5fa7dc43c7a5ed306af847&#45;&gt;dir_f6ebe3d21dc6eefb077bc4c75cd16e31 -->
<g id="edge13" class="edge">
<title>dir_0d351e451d5fa7dc43c7a5ed306af847&#45;&gt;dir_f6ebe3d21dc6eefb077bc4c75cd16e31</title>
<g id="a_edge13"><a xlink:href="dir_000458_000330.html" target="_top">
<path fill="none" stroke="#63b8ff" d="M54.09,-129.16C57.01,-128.16 60.08,-127.21 63,-126.5 178.89,-98.17 211.39,-110.51 329,-90.5 330,-90.33 331,-90.16 332.02,-89.97"/>
<polygon fill="#63b8ff" stroke="#63b8ff" points="332.37,-93.47 341.55,-88.17 331.07,-86.59 332.37,-93.47"/>
</a>
</g>
<g id="a_edge13&#45;headlabel"><a xlink:href="dir_000458_000330.html" target="_top" xlink:title="1">
<text text-anchor="middle" x="330.85" y="-92.77" font-family="Helvetica,sans-Serif" font-size="10.00" fill="#63b8ff">1</text>
</a>
</g>
</g>
<!-- dir_0d351e451d5fa7dc43c7a5ed306af847&#45;&gt;dir_f74a706a7efda297e6d8fb2c03527fc2 -->
<g id="edge14" class="edge">
<title>dir_0d351e451d5fa7dc43c7a5ed306af847&#45;&gt;dir_f74a706a7efda297e6d8fb2c03527fc2</title>
<g id="a_edge14"><a xlink:href="dir_000458_000308.html" target="_top">
<path fill="none" stroke="#63b8ff" d="M54.18,-129.49C57.1,-128.46 60.13,-127.42 63,-126.5 118.86,-108.57 143.07,-125.71 190,-90.5 205.19,-79.1 216.02,-60.08 222.55,-45.76"/>
<polygon fill="#63b8ff" stroke="#63b8ff" points="225.62,-47.48 226.27,-36.91 219.17,-44.77 225.62,-47.48"/>
</a>
</g>
<g id="a_edge14&#45;headlabel"><a xlink:href="dir_000458_000308.html" target="_top" xlink:title="6">
<text text-anchor="middle" x="227.43" y="-46.63" font-family="Helvetica,sans-Serif" font-size="10.00" fill="#63b8ff">6</text>
</a>
</g>
</g>
<!-- dir_0d351e451d5fa7dc43c7a5ed306af847&#45;&gt;dir_ff02a85692f9b6a5a25ea258d5763fbb -->
<g id="edge15" class="edge">
<title>dir_0d351e451d5fa7dc43c7a5ed306af847&#45;&gt;dir_ff02a85692f9b6a5a25ea258d5763fbb</title>
<g id="a_edge15"><a xlink:href="dir_000458_000472.html" target="_top">
<path fill="none" stroke="#63b8ff" d="M54.12,-129.27C57.04,-128.26 60.09,-127.28 63,-126.5 144.84,-104.44 171.09,-112.25 251.37,-92.37"/>
<polygon fill="#63b8ff" stroke="#63b8ff" points="252.23,-95.76 261.05,-89.89 250.5,-88.98 252.23,-95.76"/>
</a>
</g>
<g id="a_edge15&#45;headlabel"><a xlink:href="dir_000458_000472.html" target="_top" xlink:title="7">
<text text-anchor="middle" x="250.92" y="-95.15" font-family="Helvetica,sans-Serif" font-size="10.00" fill="#63b8ff">7</text>
</a>
</g>
</g>
<!-- dir_0d351e451d5fa7dc43c7a5ed306af847&#45;&gt;dir_d5ac09353eaeebf3dd8e870caa765381 -->
<g id="edge11" class="edge">
<title>dir_0d351e451d5fa7dc43c7a5ed306af847&#45;&gt;dir_d5ac09353eaeebf3dd8e870caa765381</title>
<g id="a_edge11"><a xlink:href="dir_000458_000283.html" target="_top">
<path fill="none" stroke="#63b8ff" d="M54.07,-128.38C72.43,-120.17 103.89,-106.09 127.4,-95.57"/>
<polygon fill="#63b8ff" stroke="#63b8ff" points="128.81,-98.77 136.51,-91.49 125.95,-92.38 128.81,-98.77"/>
</a>
</g>
<g id="a_edge11&#45;headlabel"><a xlink:href="dir_000458_000283.html" target="_top" xlink:title="7">
<text text-anchor="middle" x="128.07" y="-98.34" font-family="Helvetica,sans-Serif" font-size="10.00" fill="#63b8ff">7</text>
</a>
</g>
</g>
<!-- dir_0d351e451d5fa7dc43c7a5ed306af847&#45;&gt;dir_bbc7c2c1f127b379ce39be24c4bd3dbe -->
<g id="edge10" class="edge">
<title>dir_0d351e451d5fa7dc43c7a5ed306af847&#45;&gt;dir_bbc7c2c1f127b379ce39be24c4bd3dbe</title>
<g id="a_edge10"><a xlink:href="dir_000458_000030.html" target="_top">
<path fill="none" stroke="#63b8ff" d="M54.07,-129.08C57,-128.09 60.06,-127.17 63,-126.5 138.8,-109.23 350.11,-138.85 411,-90.5 424.21,-80.01 429.52,-61.14 431.64,-46.62"/>
<polygon fill="#63b8ff" stroke="#63b8ff" points="435.11,-47.11 432.64,-36.8 428.14,-46.4 435.11,-47.11"/>
</a>
</g>
<g id="a_edge10&#45;headlabel"><a xlink:href="dir_000458_000030.html" target="_top" xlink:title="32">
<text text-anchor="middle" x="437.72" y="-45.59" font-family="Helvetica,sans-Serif" font-size="10.00" fill="#63b8ff">32</text>
</a>
</g>
</g>
</g>
</svg>
