<?xml version="1.0" encoding="UTF-8" standalone="no"?>
<!DOCTYPE svg PUBLIC "-//W3C//DTD SVG 1.1//EN"
 "http://www.w3.org/Graphics/SVG/1.1/DTD/svg11.dtd">
<!-- Generated by graphviz version 9.0.0 (20230911.1827)
 -->
<!-- Title: /github/workspace/dev_area/sourcecode/dfmodules Pages: 1 -->
<svg width="900pt" height="142pt"
 viewBox="0.00 0.00 900.12 141.75" xmlns="http://www.w3.org/2000/svg" xmlns:xlink="http://www.w3.org/1999/xlink">
<g id="graph0" class="graph" transform="scale(1 1) rotate(0) translate(4 137.75)">
<title>/github/workspace/dev_area/sourcecode/dfmodules</title>
<g id="clust1" class="cluster">
<title>clusterdir_e594a494f7a60e5bf534551500b27d35</title>
<g id="a_clust1"><a xlink:href="dir_e594a494f7a60e5bf534551500b27d35.html" target="_top" xlink:title="sourcecode">
<polygon fill="#edf0f7" stroke="#7f7f7f" stroke-dasharray="5,2" points="8,-8 8,-125.75 846,-125.75 846,-8 8,-8"/>
<text text-anchor="middle" x="427" y="-112.25" font-family="Helvetica,sans-Serif" font-size="10.00">sourcecode</text>
</a>
</g>
</g>
<g id="clust2" class="cluster">
<title>clusterdir_f2adaee95bf6fd7cc163dae1aa716186</title>
<g id="a_clust2"><a xlink:href="dir_f2adaee95bf6fd7cc163dae1aa716186.html" target="_top">
<polygon fill="#edf0f7" stroke="#404040" stroke-width="2" points="202,-63.25 202,-98.5 509,-98.5 509,-63.25 202,-63.25"/>
</a>
</g>
</g>
<!-- dir_934fd243b40ff671fa1d708949b38ec2 -->
<g id="node1" class="node">
<title>dir_934fd243b40ff671fa1d708949b38ec2</title>
<g id="a_node1"><a xlink:href="dir_934fd243b40ff671fa1d708949b38ec2.html" target="_top" xlink:title="utilities">
<polygon fill="#a2b4d6" stroke="red" points="229.38,-35.25 182.62,-35.25 182.62,-16 229.38,-16 229.38,-35.25"/>
<text text-anchor="middle" x="206" y="-21.75" font-family="Helvetica,sans-Serif" font-size="10.00">utilities</text>
</a>
</g>
</g>
<!-- dir_d6186462c2ecf8bc2243dcff615e0cdf -->
<g id="node2" class="node">
<title>dir_d6186462c2ecf8bc2243dcff615e0cdf</title>
<g id="a_node2"><a xlink:href="dir_d6186462c2ecf8bc2243dcff615e0cdf.html" target="_top" xlink:title="daqdataformats">
<polygon fill="#a2b4d6" stroke="red" points="99.75,-35.25 16.25,-35.25 16.25,-16 99.75,-16 99.75,-35.25"/>
<text text-anchor="middle" x="58" y="-21.75" font-family="Helvetica,sans-Serif" font-size="10.00">daqdataformats</text>
</a>
</g>
</g>
<!-- dir_f74a706a7efda297e6d8fb2c03527fc2 -->
<g id="node3" class="node">
<title>dir_f74a706a7efda297e6d8fb2c03527fc2</title>
<g id="a_node3"><a xlink:href="dir_f74a706a7efda297e6d8fb2c03527fc2.html" target="_top" xlink:title="logging">
<polygon fill="#a2b4d6" stroke="red" points="164.38,-35.25 117.62,-35.25 117.62,-16 164.38,-16 164.38,-35.25"/>
<text text-anchor="middle" x="141" y="-21.75" font-family="Helvetica,sans-Serif" font-size="10.00">logging</text>
</a>
</g>
</g>
<!-- dir_eaab8e706d9785a8277b333b3fa3c104 -->
<g id="node4" class="node">
<title>dir_eaab8e706d9785a8277b333b3fa3c104</title>
<g id="a_node4"><a xlink:href="dir_eaab8e706d9785a8277b333b3fa3c104.html" target="_top" xlink:title="appfwk">
<polygon fill="#a2b4d6" stroke="red" points="294.75,-35.25 247.25,-35.25 247.25,-16 294.75,-16 294.75,-35.25"/>
<text text-anchor="middle" x="271" y="-21.75" font-family="Helvetica,sans-Serif" font-size="10.00">appfwk</text>
</a>
</g>
</g>
<!-- dir_d1e2a2554d257d865d12dd7826332eac -->
<g id="node5" class="node">
<title>dir_d1e2a2554d257d865d12dd7826332eac</title>
<g id="a_node5"><a xlink:href="dir_d1e2a2554d257d865d12dd7826332eac.html" target="_top" xlink:title="trgdataformats">
<polygon fill="#a2b4d6" stroke="red" points="391.5,-35.25 312.5,-35.25 312.5,-16 391.5,-16 391.5,-35.25"/>
<text text-anchor="middle" x="352" y="-21.75" font-family="Helvetica,sans-Serif" font-size="10.00">trgdataformats</text>
</a>
</g>
</g>
<!-- dir_a64e56b30f5ca31a10654cea03375984 -->
<g id="node6" class="node">
<title>dir_a64e56b30f5ca31a10654cea03375984</title>
<g id="a_node6"><a xlink:href="dir_a64e56b30f5ca31a10654cea03375984.html" target="_top" xlink:title="ers">
<polygon fill="#a2b4d6" stroke="red" points="438.75,-35.25 409.25,-35.25 409.25,-16 438.75,-16 438.75,-35.25"/>
<text text-anchor="middle" x="424" y="-21.75" font-family="Helvetica,sans-Serif" font-size="10.00">ers</text>
</a>
</g>
</g>
<!-- dir_5365a3767b7bcdec829ecb94aa09817f -->
<g id="node7" class="node">
<title>dir_5365a3767b7bcdec829ecb94aa09817f</title>
<g id="a_node7"><a xlink:href="dir_5365a3767b7bcdec829ecb94aa09817f.html" target="_top" xlink:title="trigger">
<polygon fill="#a2b4d6" stroke="red" points="499.5,-35.25 456.5,-35.25 456.5,-16 499.5,-16 499.5,-35.25"/>
<text text-anchor="middle" x="478" y="-21.75" font-family="Helvetica,sans-Serif" font-size="10.00">trigger</text>
</a>
</g>
</g>
<!-- dir_ab1b54331b4bb0c44e7fcd5a7d20111e -->
<g id="node8" class="node">
<title>dir_ab1b54331b4bb0c44e7fcd5a7d20111e</title>
<g id="a_node8"><a xlink:href="dir_ab1b54331b4bb0c44e7fcd5a7d20111e.html" target="_top" xlink:title="iomanager">
<polygon fill="#a2b4d6" stroke="red" points="578.5,-35.25 517.5,-35.25 517.5,-16 578.5,-16 578.5,-35.25"/>
<text text-anchor="middle" x="548" y="-21.75" font-family="Helvetica,sans-Serif" font-size="10.00">iomanager</text>
</a>
</g>
</g>
<!-- dir_c1d57bfadd68378fc3d59efca0edc545 -->
<g id="node9" class="node">
<title>dir_c1d57bfadd68378fc3d59efca0edc545</title>
<g id="a_node9"><a xlink:href="dir_c1d57bfadd68378fc3d59efca0edc545.html" target="_top" xlink:title="dfmessages">
<polygon fill="#a2b4d6" stroke="red" points="665.62,-35.25 596.38,-35.25 596.38,-16 665.62,-16 665.62,-35.25"/>
<text text-anchor="middle" x="631" y="-21.75" font-family="Helvetica,sans-Serif" font-size="10.00">dfmessages</text>
</a>
</g>
</g>
<!-- dir_f6ebe3d21dc6eefb077bc4c75cd16e31 -->
<g id="node10" class="node">
<title>dir_f6ebe3d21dc6eefb077bc4c75cd16e31</title>
<g id="a_node10"><a xlink:href="dir_f6ebe3d21dc6eefb077bc4c75cd16e31.html" target="_top" xlink:title="opmonlib">
<polygon fill="#a2b4d6" stroke="red" points="738.5,-35.25 683.5,-35.25 683.5,-16 738.5,-16 738.5,-35.25"/>
<text text-anchor="middle" x="711" y="-21.75" font-family="Helvetica,sans-Serif" font-size="10.00">opmonlib</text>
</a>
</g>
</g>
<!-- dir_49997343c4c8eab520bf1e45b9cad06f -->
<g id="node11" class="node">
<title>dir_49997343c4c8eab520bf1e45b9cad06f</title>
<g id="a_node11"><a xlink:href="dir_49997343c4c8eab520bf1e45b9cad06f.html" target="_top" xlink:title="detdataformats">
<polygon fill="#a2b4d6" stroke="red" points="837.62,-35.25 756.38,-35.25 756.38,-16 837.62,-16 837.62,-35.25"/>
<text text-anchor="middle" x="797" y="-21.75" font-family="Helvetica,sans-Serif" font-size="10.00">detdataformats</text>
</a>
</g>
</g>
<!-- dir_f2adaee95bf6fd7cc163dae1aa716186 -->
<g id="node12" class="node">
<title>dir_f2adaee95bf6fd7cc163dae1aa716186</title>
<text text-anchor="middle" x="470" y="-77" font-family="Helvetica,sans-Serif" font-size="10.00">dfmodules</text>
</g>
<!-- dir_500d1a4e8fc7d99063e9b85df4fdd140 -->
<g id="node13" class="node">
<title>dir_500d1a4e8fc7d99063e9b85df4fdd140</title>
<g id="a_node13"><a xlink:href="dir_500d1a4e8fc7d99063e9b85df4fdd140.html" target="_top" xlink:title="docs">
<polygon fill="#a2b4d6" stroke="#404040" points="421.5,-90.5 384.5,-90.5 384.5,-71.25 421.5,-71.25 421.5,-90.5"/>
<text text-anchor="middle" x="403" y="-77" font-family="Helvetica,sans-Serif" font-size="10.00">docs</text>
</a>
</g>
</g>
<!-- dir_017e5c9f40fa6b790bfa9c3045514b77 -->
<g id="node14" class="node">
<title>dir_017e5c9f40fa6b790bfa9c3045514b77</title>
<g id="a_node14"><a xlink:href="dir_017e5c9f40fa6b790bfa9c3045514b77.html" target="_top" xlink:title="include">
<polygon fill="#a2b4d6" stroke="#404040" points="256.38,-90.5 209.62,-90.5 209.62,-71.25 256.38,-71.25 256.38,-90.5"/>
<text text-anchor="middle" x="233" y="-77" font-family="Helvetica,sans-Serif" font-size="10.00">include</text>
</a>
</g>
</g>
<!-- dir_017e5c9f40fa6b790bfa9c3045514b77&#45;&gt;dir_934fd243b40ff671fa1d708949b38ec2 -->
<g id="edge1" class="edge">
<title>dir_017e5c9f40fa6b790bfa9c3045514b77&#45;&gt;dir_934fd243b40ff671fa1d708949b38ec2</title>
<g id="a_edge1"><a xlink:href="dir_000259_000523.html" target="_top">
<path fill="none" stroke="#63b8ff" d="M228.54,-71.08C225.05,-64.19 220.05,-54.34 215.65,-45.66"/>
<polygon fill="#63b8ff" stroke="#63b8ff" points="218.88,-44.3 211.24,-36.96 212.64,-47.46 218.88,-44.3"/>
</a>
</g>
<g id="a_edge1&#45;headlabel"><a xlink:href="dir_000259_000523.html" target="_top" xlink:title="1">
<text text-anchor="middle" x="222.36" y="-40.99" font-family="Helvetica,sans-Serif" font-size="10.00" fill="#63b8ff">1</text>
</a>
</g>
</g>
<!-- dir_017e5c9f40fa6b790bfa9c3045514b77&#45;&gt;dir_d6186462c2ecf8bc2243dcff615e0cdf -->
<g id="edge2" class="edge">
<title>dir_017e5c9f40fa6b790bfa9c3045514b77&#45;&gt;dir_d6186462c2ecf8bc2243dcff615e0cdf</title>
<g id="a_edge2"><a xlink:href="dir_000259_000082.html" target="_top">
<path fill="none" stroke="#63b8ff" d="M209.4,-72.69C181.03,-64.06 132.95,-49.43 98.59,-38.97"/>
<polygon fill="#63b8ff" stroke="#63b8ff" points="99.99,-35.74 89.4,-36.18 97.95,-42.44 99.99,-35.74"/>
</a>
</g>
<g id="a_edge2&#45;headlabel"><a xlink:href="dir_000259_000082.html" target="_top" xlink:title="3">
<text text-anchor="middle" x="102.8" y="-29.76" font-family="Helvetica,sans-Serif" font-size="10.00" fill="#63b8ff">3</text>
</a>
</g>
</g>
<!-- dir_017e5c9f40fa6b790bfa9c3045514b77&#45;&gt;dir_f74a706a7efda297e6d8fb2c03527fc2 -->
<g id="edge3" class="edge">
<title>dir_017e5c9f40fa6b790bfa9c3045514b77&#45;&gt;dir_f74a706a7efda297e6d8fb2c03527fc2</title>
<g id="a_edge3"><a xlink:href="dir_000259_000308.html" target="_top">
<path fill="none" stroke="#63b8ff" d="M217.39,-70.84C203.38,-62.73 182.57,-50.68 166.2,-41.21"/>
<polygon fill="#63b8ff" stroke="#63b8ff" points="168.4,-38.44 157.99,-36.46 164.89,-44.5 168.4,-38.44"/>
</a>
</g>
<g id="a_edge3&#45;headlabel"><a xlink:href="dir_000259_000308.html" target="_top" xlink:title="1">
<text text-anchor="middle" x="171.62" y="-33.15" font-family="Helvetica,sans-Serif" font-size="10.00" fill="#63b8ff">1</text>
</a>
</g>
</g>
<!-- dir_acd10cd7fd9186b3d52e51f11f624973 -->
<g id="node15" class="node">
<title>dir_acd10cd7fd9186b3d52e51f11f624973</title>
<g id="a_node15"><a xlink:href="dir_acd10cd7fd9186b3d52e51f11f624973.html" target="_top" xlink:title="python">
<polygon fill="#a2b4d6" stroke="#404040" points="319.25,-90.5 274.75,-90.5 274.75,-71.25 319.25,-71.25 319.25,-90.5"/>
<text text-anchor="middle" x="297" y="-77" font-family="Helvetica,sans-Serif" font-size="10.00">python</text>
</a>
</g>
</g>
<!-- dir_620ca40abe80b42fefc625116843f54b -->
<g id="node16" class="node">
<title>dir_620ca40abe80b42fefc625116843f54b</title>
<g id="a_node16"><a xlink:href="dir_620ca40abe80b42fefc625116843f54b.html" target="_top" xlink:title="src">
<polygon fill="#a2b4d6" stroke="#404040" points="366.75,-90.5 337.25,-90.5 337.25,-71.25 366.75,-71.25 366.75,-90.5"/>
<text text-anchor="middle" x="352" y="-77" font-family="Helvetica,sans-Serif" font-size="10.00">src</text>
</a>
</g>
</g>
<!-- dir_620ca40abe80b42fefc625116843f54b&#45;&gt;dir_934fd243b40ff671fa1d708949b38ec2 -->
<g id="edge6" class="edge">
<title>dir_620ca40abe80b42fefc625116843f54b&#45;&gt;dir_934fd243b40ff671fa1d708949b38ec2</title>
<g id="a_edge6"><a xlink:href="dir_000436_000523.html" target="_top">
<path fill="none" stroke="#63b8ff" d="M340.73,-70.98C336.86,-68.23 332.38,-65.36 328,-63.25 319.97,-59.38 273.64,-45.85 240.45,-36.37"/>
<polygon fill="#63b8ff" stroke="#63b8ff" points="241.81,-33.12 231.23,-33.74 239.89,-39.85 241.81,-33.12"/>
</a>
</g>
<g id="a_edge6&#45;headlabel"><a xlink:href="dir_000436_000523.html" target="_top" xlink:title="2">
<text text-anchor="middle" x="244.59" y="-27.08" font-family="Helvetica,sans-Serif" font-size="10.00" fill="#63b8ff">2</text>
</a>
</g>
</g>
<!-- dir_620ca40abe80b42fefc625116843f54b&#45;&gt;dir_d6186462c2ecf8bc2243dcff615e0cdf -->
<g id="edge12" class="edge">
<title>dir_620ca40abe80b42fefc625116843f54b&#45;&gt;dir_d6186462c2ecf8bc2243dcff615e0cdf</title>
<g id="a_edge12"><a xlink:href="dir_000436_000082.html" target="_top">
<path fill="none" stroke="#63b8ff" d="M341.4,-70.9C337.43,-68 332.73,-65.07 328,-63.25 239.7,-29.36 208.33,-48.17 111.21,-35.44"/>
<polygon fill="#63b8ff" stroke="#63b8ff" points="111.89,-32 101.5,-34.08 110.92,-38.93 111.89,-32"/>
</a>
</g>
<g id="a_edge12&#45;headlabel"><a xlink:href="dir_000436_000082.html" target="_top" xlink:title="6">
<text text-anchor="middle" x="114.35" y="-25.6" font-family="Helvetica,sans-Serif" font-size="10.00" fill="#63b8ff">6</text>
</a>
</g>
</g>
<!-- dir_620ca40abe80b42fefc625116843f54b&#45;&gt;dir_f74a706a7efda297e6d8fb2c03527fc2 -->
<g id="edge15" class="edge">
<title>dir_620ca40abe80b42fefc625116843f54b&#45;&gt;dir_f74a706a7efda297e6d8fb2c03527fc2</title>
<g id="a_edge15"><a xlink:href="dir_000436_000308.html" target="_top">
<path fill="none" stroke="#63b8ff" d="M341.34,-71.04C337.37,-68.15 332.68,-65.19 328,-63.25 266.87,-37.92 244.15,-49.04 175.66,-35.37"/>
<polygon fill="#63b8ff" stroke="#63b8ff" points="176.73,-32.02 166.22,-33.37 175.28,-38.87 176.73,-32.02"/>
</a>
</g>
<g id="a_edge15&#45;headlabel"><a xlink:href="dir_000436_000308.html" target="_top" xlink:title="3">
<text text-anchor="middle" x="179.35" y="-25.8" font-family="Helvetica,sans-Serif" font-size="10.00" fill="#63b8ff">3</text>
</a>
</g>
</g>
<!-- dir_620ca40abe80b42fefc625116843f54b&#45;&gt;dir_eaab8e706d9785a8277b333b3fa3c104 -->
<g id="edge13" class="edge">
<title>dir_620ca40abe80b42fefc625116843f54b&#45;&gt;dir_eaab8e706d9785a8277b333b3fa3c104</title>
<g id="a_edge13"><a xlink:href="dir_000436_000011.html" target="_top">
<path fill="none" stroke="#63b8ff" d="M339.35,-70.99C335.71,-68.46 331.71,-65.73 328,-63.25 317.14,-56 304.98,-48.15 294.69,-41.59"/>
<polygon fill="#63b8ff" stroke="#63b8ff" points="296.74,-38.74 286.42,-36.33 292.98,-44.65 296.74,-38.74"/>
</a>
</g>
<g id="a_edge13&#45;headlabel"><a xlink:href="dir_000436_000011.html" target="_top" xlink:title="1">
<text text-anchor="middle" x="300.02" y="-33.59" font-family="Helvetica,sans-Serif" font-size="10.00" fill="#63b8ff">1</text>
</a>
</g>
</g>
<!-- dir_620ca40abe80b42fefc625116843f54b&#45;&gt;dir_d1e2a2554d257d865d12dd7826332eac -->
<g id="edge11" class="edge">
<title>dir_620ca40abe80b42fefc625116843f54b&#45;&gt;dir_d1e2a2554d257d865d12dd7826332eac</title>
<g id="a_edge11"><a xlink:href="dir_000436_000502.html" target="_top">
<path fill="none" stroke="#63b8ff" d="M352,-71.08C352,-64.57 352,-55.42 352,-47.12"/>
<polygon fill="#63b8ff" stroke="#63b8ff" points="355.5,-47.12 352,-37.12 348.5,-47.12 355.5,-47.12"/>
</a>
</g>
<g id="a_edge11&#45;headlabel"><a xlink:href="dir_000436_000502.html" target="_top" xlink:title="1">
<text text-anchor="middle" x="358.34" y="-45.33" font-family="Helvetica,sans-Serif" font-size="10.00" fill="#63b8ff">1</text>
</a>
</g>
</g>
<!-- dir_620ca40abe80b42fefc625116843f54b&#45;&gt;dir_a64e56b30f5ca31a10654cea03375984 -->
<g id="edge7" class="edge">
<title>dir_620ca40abe80b42fefc625116843f54b&#45;&gt;dir_a64e56b30f5ca31a10654cea03375984</title>
<g id="a_edge7"><a xlink:href="dir_000436_000175.html" target="_top">
<path fill="none" stroke="#63b8ff" d="M364.21,-70.84C374.83,-62.99 390.44,-51.45 403.04,-42.12"/>
<polygon fill="#63b8ff" stroke="#63b8ff" points="404.79,-45.19 410.75,-36.42 400.63,-39.56 404.79,-45.19"/>
</a>
</g>
<g id="a_edge7&#45;headlabel"><a xlink:href="dir_000436_000175.html" target="_top" xlink:title="2">
<text text-anchor="middle" x="404.81" y="-44.83" font-family="Helvetica,sans-Serif" font-size="10.00" fill="#63b8ff">2</text>
</a>
</g>
</g>
<!-- dir_620ca40abe80b42fefc625116843f54b&#45;&gt;dir_5365a3767b7bcdec829ecb94aa09817f -->
<g id="edge5" class="edge">
<title>dir_620ca40abe80b42fefc625116843f54b&#45;&gt;dir_5365a3767b7bcdec829ecb94aa09817f</title>
<g id="a_edge5"><a xlink:href="dir_000436_000509.html" target="_top">
<path fill="none" stroke="#63b8ff" d="M363.82,-70.78C367.59,-68.13 371.85,-65.38 376,-63.25 388.33,-56.9 420.29,-45.72 445.17,-37.38"/>
<polygon fill="#63b8ff" stroke="#63b8ff" points="446.2,-40.73 454.58,-34.25 443.99,-34.08 446.2,-40.73"/>
</a>
</g>
<g id="a_edge5&#45;headlabel"><a xlink:href="dir_000436_000509.html" target="_top" xlink:title="1">
<text text-anchor="middle" x="445.12" y="-40.2" font-family="Helvetica,sans-Serif" font-size="10.00" fill="#63b8ff">1</text>
</a>
</g>
</g>
<!-- dir_620ca40abe80b42fefc625116843f54b&#45;&gt;dir_ab1b54331b4bb0c44e7fcd5a7d20111e -->
<g id="edge8" class="edge">
<title>dir_620ca40abe80b42fefc625116843f54b&#45;&gt;dir_ab1b54331b4bb0c44e7fcd5a7d20111e</title>
<g id="a_edge8"><a xlink:href="dir_000436_000293.html" target="_top">
<path fill="none" stroke="#63b8ff" d="M363.17,-70.77C367.04,-67.99 371.53,-65.17 376,-63.25 428.34,-40.71 447.74,-47.12 506.35,-35.7"/>
<polygon fill="#63b8ff" stroke="#63b8ff" points="506.78,-39.18 515.87,-33.74 505.37,-32.32 506.78,-39.18"/>
</a>
</g>
<g id="a_edge8&#45;headlabel"><a xlink:href="dir_000436_000293.html" target="_top" xlink:title="2">
<text text-anchor="middle" x="505.31" y="-38.51" font-family="Helvetica,sans-Serif" font-size="10.00" fill="#63b8ff">2</text>
</a>
</g>
</g>
<!-- dir_620ca40abe80b42fefc625116843f54b&#45;&gt;dir_c1d57bfadd68378fc3d59efca0edc545 -->
<g id="edge10" class="edge">
<title>dir_620ca40abe80b42fefc625116843f54b&#45;&gt;dir_c1d57bfadd68378fc3d59efca0edc545</title>
<g id="a_edge10"><a xlink:href="dir_000436_000117.html" target="_top">
<path fill="none" stroke="#63b8ff" d="M362.61,-70.91C366.58,-68.01 371.27,-65.08 376,-63.25 461.28,-30.31 491.91,-49.25 584.95,-35.57"/>
<polygon fill="#63b8ff" stroke="#63b8ff" points="585.47,-39.03 594.81,-34.03 584.39,-32.12 585.47,-39.03"/>
</a>
</g>
<g id="a_edge10&#45;headlabel"><a xlink:href="dir_000436_000117.html" target="_top" xlink:title="3">
<text text-anchor="middle" x="583.86" y="-38.29" font-family="Helvetica,sans-Serif" font-size="10.00" fill="#63b8ff">3</text>
</a>
</g>
</g>
<!-- dir_620ca40abe80b42fefc625116843f54b&#45;&gt;dir_f6ebe3d21dc6eefb077bc4c75cd16e31 -->
<g id="edge14" class="edge">
<title>dir_620ca40abe80b42fefc625116843f54b&#45;&gt;dir_f6ebe3d21dc6eefb077bc4c75cd16e31</title>
<g id="a_edge14"><a xlink:href="dir_000436_000330.html" target="_top">
<path fill="none" stroke="#63b8ff" d="M362.57,-70.81C366.53,-67.9 371.24,-64.99 376,-63.25 497.97,-18.78 540.97,-54.98 671.92,-35.48"/>
<polygon fill="#63b8ff" stroke="#63b8ff" points="672.35,-38.96 681.68,-33.94 671.25,-32.04 672.35,-38.96"/>
</a>
</g>
<g id="a_edge14&#45;headlabel"><a xlink:href="dir_000436_000330.html" target="_top" xlink:title="1">
<text text-anchor="middle" x="670.73" y="-38.21" font-family="Helvetica,sans-Serif" font-size="10.00" fill="#63b8ff">1</text>
</a>
</g>
</g>
<!-- dir_620ca40abe80b42fefc625116843f54b&#45;&gt;dir_49997343c4c8eab520bf1e45b9cad06f -->
<g id="edge4" class="edge">
<title>dir_620ca40abe80b42fefc625116843f54b&#45;&gt;dir_49997343c4c8eab520bf1e45b9cad06f</title>
<g id="a_edge4"><a xlink:href="dir_000436_000112.html" target="_top">
<path fill="none" stroke="#63b8ff" d="M362.55,-70.76C366.52,-67.85 371.22,-64.94 376,-63.25 528.93,-9.07 581.24,-53.85 745.18,-35.44"/>
<polygon fill="#63b8ff" stroke="#63b8ff" points="745.12,-38.97 754.64,-34.31 744.29,-32.02 745.12,-38.97"/>
</a>
</g>
<g id="a_edge4&#45;headlabel"><a xlink:href="dir_000436_000112.html" target="_top" xlink:title="1">
<text text-anchor="middle" x="743.39" y="-38.16" font-family="Helvetica,sans-Serif" font-size="10.00" fill="#63b8ff">1</text>
</a>
</g>
</g>
<!-- dir_bbc7c2c1f127b379ce39be24c4bd3dbe -->
<g id="node17" class="node">
<title>dir_bbc7c2c1f127b379ce39be24c4bd3dbe</title>
<g id="a_node17"><a xlink:href="dir_bbc7c2c1f127b379ce39be24c4bd3dbe.html" target="_top" xlink:title="build">
<polygon fill="#edf0f7" stroke="red" stroke-dasharray="5,2" points="892.12,-35.25 855.88,-35.25 855.88,-16 892.12,-16 892.12,-35.25"/>
<text text-anchor="middle" x="874" y="-21.75" font-family="Helvetica,sans-Serif" font-size="10.00">build</text>
</a>
</g>
</g>
<!-- dir_620ca40abe80b42fefc625116843f54b&#45;&gt;dir_bbc7c2c1f127b379ce39be24c4bd3dbe -->
<g id="edge9" class="edge">
<title>dir_620ca40abe80b42fefc625116843f54b&#45;&gt;dir_bbc7c2c1f127b379ce39be24c4bd3dbe</title>
<g id="a_edge9"><a xlink:href="dir_000436_000030.html" target="_top">
<path fill="none" stroke="#63b8ff" d="M362.07,-71.07C366.12,-68.04 371.02,-64.97 376,-63.25 472.53,-29.93 729.35,-54.71 844.52,-35.88"/>
<polygon fill="#63b8ff" stroke="#63b8ff" points="844.86,-39.37 854.06,-34.12 843.59,-32.49 844.86,-39.37"/>
</a>
</g>
<g id="a_edge9&#45;headlabel"><a xlink:href="dir_000436_000030.html" target="_top" xlink:title="1">
<text text-anchor="middle" x="843.32" y="-38.67" font-family="Helvetica,sans-Serif" font-size="10.00" fill="#63b8ff">1</text>
</a>
</g>
</g>
</g>
</svg>
