<?xml version="1.0" encoding="UTF-8" standalone="no"?>
<!DOCTYPE svg PUBLIC "-//W3C//DTD SVG 1.1//EN"
 "http://www.w3.org/Graphics/SVG/1.1/DTD/svg11.dtd">
<!-- Generated by graphviz version 9.0.0 (20230911.1827)
 -->
<!-- Title: /github/workspace/dev_area/sourcecode/appdal Pages: 1 -->
<svg width="672pt" height="197pt"
 viewBox="0.00 0.00 672.12 197.00" xmlns="http://www.w3.org/2000/svg" xmlns:xlink="http://www.w3.org/1999/xlink">
<g id="graph0" class="graph" transform="scale(1 1) rotate(0) translate(4 193)">
<title>/github/workspace/dev_area/sourcecode/appdal</title>
<g id="clust1" class="cluster">
<title>clusterdir_e594a494f7a60e5bf534551500b27d35</title>
<g id="a_clust1"><a xlink:href="dir_e594a494f7a60e5bf534551500b27d35.html" target="_top" xlink:title="sourcecode">
<polygon fill="#edf0f7" stroke="#7f7f7f" stroke-dasharray="5,2" points="8,-8 8,-181 618,-181 618,-8 8,-8"/>
<text text-anchor="middle" x="313" y="-167.5" font-family="Helvetica,sans-Serif" font-size="10.00">sourcecode</text>
</a>
</g>
</g>
<g id="clust2" class="cluster">
<title>clusterdir_067bcd955e45fcdaabe743dd090c5fe9</title>
<g id="a_clust2"><a xlink:href="dir_067bcd955e45fcdaabe743dd090c5fe9.html" target="_top">
<polygon fill="#edf0f7" stroke="#404040" stroke-width="2" points="16,-63.25 16,-153.75 372,-153.75 372,-63.25 16,-63.25"/>
</a>
</g>
</g>
<!-- dir_a64e56b30f5ca31a10654cea03375984 -->
<g id="node1" class="node">
<title>dir_a64e56b30f5ca31a10654cea03375984</title>
<g id="a_node1"><a xlink:href="dir_a64e56b30f5ca31a10654cea03375984.html" target="_top" xlink:title="ers">
<polygon fill="#a2b4d6" stroke="red" points="171.75,-35.25 142.25,-35.25 142.25,-16 171.75,-16 171.75,-35.25"/>
<text text-anchor="middle" x="157" y="-21.75" font-family="Helvetica,sans-Serif" font-size="10.00">ers</text>
</a>
</g>
</g>
<!-- dir_f74a706a7efda297e6d8fb2c03527fc2 -->
<g id="node2" class="node">
<title>dir_f74a706a7efda297e6d8fb2c03527fc2</title>
<g id="a_node2"><a xlink:href="dir_f74a706a7efda297e6d8fb2c03527fc2.html" target="_top" xlink:title="logging">
<polygon fill="#a2b4d6" stroke="red" points="426.38,-90.5 379.62,-90.5 379.62,-71.25 426.38,-71.25 426.38,-90.5"/>
<text text-anchor="middle" x="403" y="-77" font-family="Helvetica,sans-Serif" font-size="10.00">logging</text>
</a>
</g>
</g>
<!-- dir_9d6e15ccedcd1a70fc216bfe60bdd41c -->
<g id="node3" class="node">
<title>dir_9d6e15ccedcd1a70fc216bfe60bdd41c</title>
<g id="a_node3"><a xlink:href="dir_9d6e15ccedcd1a70fc216bfe60bdd41c.html" target="_top" xlink:title="conffwk">
<polygon fill="#a2b4d6" stroke="red" points="493.88,-90.5 444.12,-90.5 444.12,-71.25 493.88,-71.25 493.88,-90.5"/>
<text text-anchor="middle" x="469" y="-77" font-family="Helvetica,sans-Serif" font-size="10.00">conffwk</text>
</a>
</g>
</g>
<!-- dir_75092a638b80fdaa72a31ee994a02646 -->
<g id="node4" class="node">
<title>dir_75092a638b80fdaa72a31ee994a02646</title>
<g id="a_node4"><a xlink:href="dir_75092a638b80fdaa72a31ee994a02646.html" target="_top" xlink:title="oks">
<polygon fill="#a2b4d6" stroke="red" points="543.88,-90.5 512.12,-90.5 512.12,-71.25 543.88,-71.25 543.88,-90.5"/>
<text text-anchor="middle" x="528" y="-77" font-family="Helvetica,sans-Serif" font-size="10.00">oks</text>
</a>
</g>
</g>
<!-- dir_ea596b8c721e124c5a8b8e645d7002c4 -->
<g id="node5" class="node">
<title>dir_ea596b8c721e124c5a8b8e645d7002c4</title>
<g id="a_node5"><a xlink:href="dir_ea596b8c721e124c5a8b8e645d7002c4.html" target="_top" xlink:title="coredal">
<polygon fill="#a2b4d6" stroke="red" points="609.75,-90.5 562.25,-90.5 562.25,-71.25 609.75,-71.25 609.75,-90.5"/>
<text text-anchor="middle" x="586" y="-77" font-family="Helvetica,sans-Serif" font-size="10.00">coredal</text>
</a>
</g>
</g>
<!-- dir_067bcd955e45fcdaabe743dd090c5fe9 -->
<g id="node6" class="node">
<title>dir_067bcd955e45fcdaabe743dd090c5fe9</title>
<text text-anchor="middle" x="342" y="-132.25" font-family="Helvetica,sans-Serif" font-size="10.00">appdal</text>
</g>
<!-- dir_cd023a3b5df7a6215e245a988ab56003 -->
<g id="node7" class="node">
<title>dir_cd023a3b5df7a6215e245a988ab56003</title>
<g id="a_node7"><a xlink:href="dir_cd023a3b5df7a6215e245a988ab56003.html" target="_top" xlink:title="apps">
<polygon fill="#a2b4d6" stroke="#404040" points="61.5,-145.75 24.5,-145.75 24.5,-126.5 61.5,-126.5 61.5,-145.75"/>
<text text-anchor="middle" x="43" y="-132.25" font-family="Helvetica,sans-Serif" font-size="10.00">apps</text>
</a>
</g>
</g>
<!-- dir_cd023a3b5df7a6215e245a988ab56003&#45;&gt;dir_f74a706a7efda297e6d8fb2c03527fc2 -->
<g id="edge3" class="edge">
<title>dir_cd023a3b5df7a6215e245a988ab56003&#45;&gt;dir_f74a706a7efda297e6d8fb2c03527fc2</title>
<g id="a_edge3"><a xlink:href="dir_000015_000308.html" target="_top">
<path fill="none" stroke="#63b8ff" d="M61.86,-128.81C64.89,-127.94 68.01,-127.13 71,-126.5 200.9,-99.06 240.45,-118.28 368.23,-92.07"/>
<polygon fill="#63b8ff" stroke="#63b8ff" points="368.67,-95.55 377.74,-90.06 367.23,-88.7 368.67,-95.55"/>
</a>
</g>
<g id="a_edge3&#45;headlabel"><a xlink:href="dir_000015_000308.html" target="_top" xlink:title="1">
<text text-anchor="middle" x="367.22" y="-94.88" font-family="Helvetica,sans-Serif" font-size="10.00" fill="#63b8ff">1</text>
</a>
</g>
</g>
<!-- dir_cd023a3b5df7a6215e245a988ab56003&#45;&gt;dir_9d6e15ccedcd1a70fc216bfe60bdd41c -->
<g id="edge1" class="edge">
<title>dir_cd023a3b5df7a6215e245a988ab56003&#45;&gt;dir_9d6e15ccedcd1a70fc216bfe60bdd41c</title>
<g id="a_edge1"><a xlink:href="dir_000015_000063.html" target="_top">
<path fill="none" stroke="#63b8ff" d="M61.85,-128.76C64.88,-127.9 68.01,-127.1 71,-126.5 226.79,-95.13 272.82,-117.51 432.64,-90.64"/>
<polygon fill="#63b8ff" stroke="#63b8ff" points="433.09,-94.11 442.35,-88.96 431.9,-87.21 433.09,-94.11"/>
</a>
</g>
<g id="a_edge1&#45;headlabel"><a xlink:href="dir_000015_000063.html" target="_top" xlink:title="1">
<text text-anchor="middle" x="431.52" y="-93.39" font-family="Helvetica,sans-Serif" font-size="10.00" fill="#63b8ff">1</text>
</a>
</g>
</g>
<!-- dir_bbc7c2c1f127b379ce39be24c4bd3dbe -->
<g id="node13" class="node">
<title>dir_bbc7c2c1f127b379ce39be24c4bd3dbe</title>
<g id="a_node13"><a xlink:href="dir_bbc7c2c1f127b379ce39be24c4bd3dbe.html" target="_top" xlink:title="build">
<polygon fill="#edf0f7" stroke="red" stroke-dasharray="5,2" points="664.12,-90.5 627.88,-90.5 627.88,-71.25 664.12,-71.25 664.12,-90.5"/>
<text text-anchor="middle" x="646" y="-77" font-family="Helvetica,sans-Serif" font-size="10.00">build</text>
</a>
</g>
</g>
<!-- dir_cd023a3b5df7a6215e245a988ab56003&#45;&gt;dir_bbc7c2c1f127b379ce39be24c4bd3dbe -->
<g id="edge2" class="edge">
<title>dir_cd023a3b5df7a6215e245a988ab56003&#45;&gt;dir_bbc7c2c1f127b379ce39be24c4bd3dbe</title>
<g id="a_edge2"><a xlink:href="dir_000015_000030.html" target="_top">
<path fill="none" stroke="#63b8ff" d="M61.83,-128.67C64.87,-127.82 68,-127.05 71,-126.5 308.7,-82.75 379.59,-138.74 616.5,-91.35"/>
<polygon fill="#63b8ff" stroke="#63b8ff" points="616.96,-94.82 626.06,-89.39 615.56,-87.96 616.96,-94.82"/>
</a>
</g>
<g id="a_edge2&#45;headlabel"><a xlink:href="dir_000015_000030.html" target="_top" xlink:title="8">
<text text-anchor="middle" x="615.49" y="-94.15" font-family="Helvetica,sans-Serif" font-size="10.00" fill="#63b8ff">8</text>
</a>
</g>
</g>
<!-- dir_69b88dc16f19c07cd7eb66215060b8f7 -->
<g id="node8" class="node">
<title>dir_69b88dc16f19c07cd7eb66215060b8f7</title>
<g id="a_node8"><a xlink:href="dir_69b88dc16f19c07cd7eb66215060b8f7.html" target="_top" xlink:title="docs">
<polygon fill="#a2b4d6" stroke="#404040" points="226.5,-145.75 189.5,-145.75 189.5,-126.5 226.5,-126.5 226.5,-145.75"/>
<text text-anchor="middle" x="208" y="-132.25" font-family="Helvetica,sans-Serif" font-size="10.00">docs</text>
</a>
</g>
</g>
<!-- dir_4bdd689d15b664b1e1c70a6aaffb84ef -->
<g id="node9" class="node">
<title>dir_4bdd689d15b664b1e1c70a6aaffb84ef</title>
<g id="a_node9"><a xlink:href="dir_4bdd689d15b664b1e1c70a6aaffb84ef.html" target="_top" xlink:title="include">
<polygon fill="#a2b4d6" stroke="#404040" points="180.38,-90.5 133.62,-90.5 133.62,-71.25 180.38,-71.25 180.38,-90.5"/>
<text text-anchor="middle" x="157" y="-77" font-family="Helvetica,sans-Serif" font-size="10.00">include</text>
</a>
</g>
</g>
<!-- dir_4bdd689d15b664b1e1c70a6aaffb84ef&#45;&gt;dir_a64e56b30f5ca31a10654cea03375984 -->
<g id="edge4" class="edge">
<title>dir_4bdd689d15b664b1e1c70a6aaffb84ef&#45;&gt;dir_a64e56b30f5ca31a10654cea03375984</title>
<g id="a_edge4"><a xlink:href="dir_000249_000175.html" target="_top">
<path fill="none" stroke="#63b8ff" d="M157,-71.08C157,-64.57 157,-55.42 157,-47.12"/>
<polygon fill="#63b8ff" stroke="#63b8ff" points="160.5,-47.12 157,-37.12 153.5,-47.12 160.5,-47.12"/>
</a>
</g>
<g id="a_edge4&#45;headlabel"><a xlink:href="dir_000249_000175.html" target="_top" xlink:title="1">
<text text-anchor="middle" x="163.34" y="-45.33" font-family="Helvetica,sans-Serif" font-size="10.00" fill="#63b8ff">1</text>
</a>
</g>
</g>
<!-- dir_3d6f136f267d8131cb00bd7e9eacd78d -->
<g id="node10" class="node">
<title>dir_3d6f136f267d8131cb00bd7e9eacd78d</title>
<g id="a_node10"><a xlink:href="dir_3d6f136f267d8131cb00bd7e9eacd78d.html" target="_top" xlink:title="pybindsrc">
<polygon fill="#a2b4d6" stroke="#404040" points="301.62,-145.75 244.38,-145.75 244.38,-126.5 301.62,-126.5 301.62,-145.75"/>
<text text-anchor="middle" x="273" y="-132.25" font-family="Helvetica,sans-Serif" font-size="10.00">pybindsrc</text>
</a>
</g>
</g>
<!-- dir_3d6f136f267d8131cb00bd7e9eacd78d&#45;&gt;dir_bbc7c2c1f127b379ce39be24c4bd3dbe -->
<g id="edge5" class="edge">
<title>dir_3d6f136f267d8131cb00bd7e9eacd78d&#45;&gt;dir_bbc7c2c1f127b379ce39be24c4bd3dbe</title>
<g id="a_edge5"><a xlink:href="dir_000334_000030.html" target="_top">
<path fill="none" stroke="#63b8ff" d="M301.98,-128.21C305.02,-127.59 308.07,-127 311,-126.5 444.54,-103.68 484.43,-121.26 616.58,-91.51"/>
<polygon fill="#63b8ff" stroke="#63b8ff" points="617.09,-94.99 626.05,-89.33 615.52,-88.17 617.09,-94.99"/>
</a>
</g>
<g id="a_edge5&#45;headlabel"><a xlink:href="dir_000334_000030.html" target="_top" xlink:title="7">
<text text-anchor="middle" x="615.7" y="-94.35" font-family="Helvetica,sans-Serif" font-size="10.00" fill="#63b8ff">7</text>
</a>
</g>
</g>
<!-- dir_b8893aec277a84e580f13e6d2663b09e -->
<g id="node11" class="node">
<title>dir_b8893aec277a84e580f13e6d2663b09e</title>
<g id="a_node11"><a xlink:href="dir_b8893aec277a84e580f13e6d2663b09e.html" target="_top" xlink:title="python">
<polygon fill="#a2b4d6" stroke="#404040" points="124.25,-145.75 79.75,-145.75 79.75,-126.5 124.25,-126.5 124.25,-145.75"/>
<text text-anchor="middle" x="102" y="-132.25" font-family="Helvetica,sans-Serif" font-size="10.00">python</text>
</a>
</g>
</g>
<!-- dir_6373d5024dd74c2289593770dbb10110 -->
<g id="node12" class="node">
<title>dir_6373d5024dd74c2289593770dbb10110</title>
<g id="a_node12"><a xlink:href="dir_6373d5024dd74c2289593770dbb10110.html" target="_top" xlink:title="src">
<polygon fill="#a2b4d6" stroke="#404040" points="171.75,-145.75 142.25,-145.75 142.25,-126.5 171.75,-126.5 171.75,-145.75"/>
<text text-anchor="middle" x="157" y="-132.25" font-family="Helvetica,sans-Serif" font-size="10.00">src</text>
</a>
</g>
</g>
<!-- dir_6373d5024dd74c2289593770dbb10110&#45;&gt;dir_f74a706a7efda297e6d8fb2c03527fc2 -->
<g id="edge11" class="edge">
<title>dir_6373d5024dd74c2289593770dbb10110&#45;&gt;dir_f74a706a7efda297e6d8fb2c03527fc2</title>
<g id="a_edge11"><a xlink:href="dir_000428_000308.html" target="_top">
<path fill="none" stroke="#63b8ff" d="M172.12,-129.27C175.04,-128.26 178.09,-127.28 181,-126.5 262.43,-104.51 288.31,-111.29 368.11,-92.37"/>
<polygon fill="#63b8ff" stroke="#63b8ff" points="368.84,-95.79 377.73,-90.02 367.18,-88.99 368.84,-95.79"/>
</a>
</g>
<g id="a_edge11&#45;headlabel"><a xlink:href="dir_000428_000308.html" target="_top" xlink:title="10">
<text text-anchor="middle" x="367.49" y="-95.17" font-family="Helvetica,sans-Serif" font-size="10.00" fill="#63b8ff">10</text>
</a>
</g>
</g>
<!-- dir_6373d5024dd74c2289593770dbb10110&#45;&gt;dir_9d6e15ccedcd1a70fc216bfe60bdd41c -->
<g id="edge8" class="edge">
<title>dir_6373d5024dd74c2289593770dbb10110&#45;&gt;dir_9d6e15ccedcd1a70fc216bfe60bdd41c</title>
<g id="a_edge8"><a xlink:href="dir_000428_000063.html" target="_top">
<path fill="none" stroke="#63b8ff" d="M172.09,-129.17C175.01,-128.17 178.08,-127.22 181,-126.5 288.21,-99.93 321.09,-111.75 432.76,-90.72"/>
<polygon fill="#63b8ff" stroke="#63b8ff" points="433.18,-94.21 442.33,-88.87 431.85,-87.34 433.18,-94.21"/>
</a>
</g>
<g id="a_edge8&#45;headlabel"><a xlink:href="dir_000428_000063.html" target="_top" xlink:title="10">
<text text-anchor="middle" x="431.67" y="-93.52" font-family="Helvetica,sans-Serif" font-size="10.00" fill="#63b8ff">10</text>
</a>
</g>
</g>
<!-- dir_6373d5024dd74c2289593770dbb10110&#45;&gt;dir_75092a638b80fdaa72a31ee994a02646 -->
<g id="edge7" class="edge">
<title>dir_6373d5024dd74c2289593770dbb10110&#45;&gt;dir_75092a638b80fdaa72a31ee994a02646</title>
<g id="a_edge7"><a xlink:href="dir_000428_000318.html" target="_top">
<path fill="none" stroke="#63b8ff" d="M172.07,-129.1C175,-128.11 178.07,-127.18 181,-126.5 317.71,-94.75 360.37,-120.78 500.58,-90.54"/>
<polygon fill="#63b8ff" stroke="#63b8ff" points="501.26,-93.98 510.27,-88.39 499.74,-87.14 501.26,-93.98"/>
</a>
</g>
<g id="a_edge7&#45;headlabel"><a xlink:href="dir_000428_000318.html" target="_top" xlink:title="7">
<text text-anchor="middle" x="499.85" y="-93.32" font-family="Helvetica,sans-Serif" font-size="10.00" fill="#63b8ff">7</text>
</a>
</g>
</g>
<!-- dir_6373d5024dd74c2289593770dbb10110&#45;&gt;dir_ea596b8c721e124c5a8b8e645d7002c4 -->
<g id="edge10" class="edge">
<title>dir_6373d5024dd74c2289593770dbb10110&#45;&gt;dir_ea596b8c721e124c5a8b8e645d7002c4</title>
<g id="a_edge10"><a xlink:href="dir_000428_000071.html" target="_top">
<path fill="none" stroke="#63b8ff" d="M172.07,-129.07C174.99,-128.08 178.06,-127.16 181,-126.5 339.59,-90.91 387.42,-118.36 551,-90.55"/>
<polygon fill="#63b8ff" stroke="#63b8ff" points="551.21,-94.06 560.46,-88.89 550,-87.17 551.21,-94.06"/>
</a>
</g>
<g id="a_edge10&#45;headlabel"><a xlink:href="dir_000428_000071.html" target="_top" xlink:title="1">
<text text-anchor="middle" x="549.65" y="-93.34" font-family="Helvetica,sans-Serif" font-size="10.00" fill="#63b8ff">1</text>
</a>
</g>
</g>
<!-- dir_6373d5024dd74c2289593770dbb10110&#45;&gt;dir_4bdd689d15b664b1e1c70a6aaffb84ef -->
<g id="edge6" class="edge">
<title>dir_6373d5024dd74c2289593770dbb10110&#45;&gt;dir_4bdd689d15b664b1e1c70a6aaffb84ef</title>
<g id="a_edge6"><a xlink:href="dir_000428_000249.html" target="_top">
<path fill="none" stroke="#63b8ff" d="M157,-126.33C157,-119.82 157,-110.67 157,-102.37"/>
<polygon fill="#63b8ff" stroke="#63b8ff" points="160.5,-102.37 157,-92.37 153.5,-102.37 160.5,-102.37"/>
</a>
</g>
<g id="a_edge6&#45;headlabel"><a xlink:href="dir_000428_000249.html" target="_top" xlink:title="11">
<text text-anchor="middle" x="163.34" y="-100.58" font-family="Helvetica,sans-Serif" font-size="10.00" fill="#63b8ff">11</text>
</a>
</g>
</g>
<!-- dir_6373d5024dd74c2289593770dbb10110&#45;&gt;dir_bbc7c2c1f127b379ce39be24c4bd3dbe -->
<g id="edge9" class="edge">
<title>dir_6373d5024dd74c2289593770dbb10110&#45;&gt;dir_bbc7c2c1f127b379ce39be24c4bd3dbe</title>
<g id="a_edge9"><a xlink:href="dir_000428_000030.html" target="_top">
<path fill="none" stroke="#63b8ff" d="M172.06,-129.03C174.98,-128.04 178.06,-127.14 181,-126.5 369.54,-85.68 427.6,-130.35 616.39,-91.42"/>
<polygon fill="#63b8ff" stroke="#63b8ff" points="617,-94.87 626.06,-89.37 615.55,-88.02 617,-94.87"/>
</a>
</g>
<g id="a_edge9&#45;headlabel"><a xlink:href="dir_000428_000030.html" target="_top" xlink:title="144">
<text text-anchor="middle" x="615.55" y="-94.2" font-family="Helvetica,sans-Serif" font-size="10.00" fill="#63b8ff">144</text>
</a>
</g>
</g>
</g>
</svg>
