<?xml version="1.0" encoding="UTF-8" standalone="no"?>
<!DOCTYPE svg PUBLIC "-//W3C//DTD SVG 1.1//EN"
 "http://www.w3.org/Graphics/SVG/1.1/DTD/svg11.dtd">
<!-- Generated by graphviz version 9.0.0 (20230911.1827)
 -->
<!-- Title: /github/workspace/dev_area/sourcecode/iomanager/include/iomanager Pages: 1 -->
<svg width="429pt" height="236pt"
 viewBox="0.00 0.00 428.88 236.25" xmlns="http://www.w3.org/2000/svg" xmlns:xlink="http://www.w3.org/1999/xlink">
<g id="graph0" class="graph" transform="scale(1 1) rotate(0) translate(4 232.25)">
<title>/github/workspace/dev_area/sourcecode/iomanager/include/iomanager</title>
<g id="clust1" class="cluster">
<title>clusterdir_9e95dcb1a0783679c7ec39a3f8fe72e0</title>
<g id="a_clust1"><a xlink:href="dir_9e95dcb1a0783679c7ec39a3f8fe72e0.html" target="_top" xlink:title="include">
<polygon fill="#edf0f7" stroke="#7f7f7f" stroke-dasharray="5,2" points="151.5,-39.25 151.5,-220.25 293.5,-220.25 293.5,-39.25 151.5,-39.25"/>
<text text-anchor="middle" x="222.5" y="-206.75" font-family="Helvetica,sans-Serif" font-size="10.00">include</text>
</a>
</g>
</g>
<g id="clust2" class="cluster">
<title>clusterdir_e09e17ccc4bc2b4edf2b17bf8a69f297</title>
<g id="a_clust2"><a xlink:href="dir_e09e17ccc4bc2b4edf2b17bf8a69f297.html" target="_top">
<polygon fill="#edf0f7" stroke="#404040" stroke-width="2" points="159.5,-47.25 159.5,-193 285.5,-193 285.5,-47.25 159.5,-47.25"/>
</a>
</g>
</g>
<!-- dir_e09e17ccc4bc2b4edf2b17bf8a69f297 -->
<g id="node1" class="node">
<title>dir_e09e17ccc4bc2b4edf2b17bf8a69f297</title>
<text text-anchor="middle" x="222.5" y="-171.5" font-family="Helvetica,sans-Serif" font-size="10.00">iomanager</text>
</g>
<!-- dir_89a198a420b4fef0eeb7fa332151e7f7 -->
<g id="node2" class="node">
<title>dir_89a198a420b4fef0eeb7fa332151e7f7</title>
<g id="a_node2"><a xlink:href="dir_89a198a420b4fef0eeb7fa332151e7f7.html" target="_top" xlink:title="detail">
<polygon fill="#a2b4d6" stroke="#404040" points="227.12,-129.75 187.88,-129.75 187.88,-110.5 227.12,-110.5 227.12,-129.75"/>
<text text-anchor="middle" x="207.5" y="-116.25" font-family="Helvetica,sans-Serif" font-size="10.00">detail</text>
</a>
</g>
</g>
<!-- dir_e09e17ccc4bc2b4edf2b17bf8a69f297&#45;&gt;dir_89a198a420b4fef0eeb7fa332151e7f7 -->
<g id="edge2" class="edge">
<title>dir_e09e17ccc4bc2b4edf2b17bf8a69f297&#45;&gt;dir_89a198a420b4fef0eeb7fa332151e7f7</title>
<g id="a_edge2"><a xlink:href="dir_000294_000098.html" target="_top">
<path fill="none" stroke="#63b8ff" d="M220.16,-166.05C218.25,-159.3 215.49,-149.49 213.03,-140.76"/>
<polygon fill="#63b8ff" stroke="#63b8ff" points="216.47,-140.05 210.39,-131.37 209.73,-141.95 216.47,-140.05"/>
</a>
</g>
<g id="a_edge2&#45;headlabel"><a xlink:href="dir_000294_000098.html" target="_top" xlink:title="1">
<text text-anchor="middle" x="219.76" y="-137.41" font-family="Helvetica,sans-Serif" font-size="10.00" fill="#63b8ff">1</text>
</a>
</g>
</g>
<!-- dir_6d314bedead70032a242c6ced44852ea -->
<g id="node5" class="node">
<title>dir_6d314bedead70032a242c6ced44852ea</title>
<g id="a_node5"><a xlink:href="dir_6d314bedead70032a242c6ced44852ea.html" target="_top" xlink:title="serialization">
<polygon fill="#edf0f7" stroke="red" stroke-dasharray="5,2" points="67,-19.25 0,-19.25 0,0 67,0 67,-19.25"/>
<text text-anchor="middle" x="33.5" y="-5.75" font-family="Helvetica,sans-Serif" font-size="10.00">serialization</text>
</a>
</g>
</g>
<!-- dir_e09e17ccc4bc2b4edf2b17bf8a69f297&#45;&gt;dir_6d314bedead70032a242c6ced44852ea -->
<g id="edge1" class="edge">
<title>dir_e09e17ccc4bc2b4edf2b17bf8a69f297&#45;&gt;dir_6d314bedead70032a242c6ced44852ea</title>
<g id="a_edge1"><a xlink:href="dir_000294_000416.html" target="_top">
<path fill="none" stroke="#63b8ff" d="M205.27,-165.85C189.5,-157.65 165.88,-144.37 147.5,-129.75 107.55,-97.97 67.94,-52.66 47.58,-28.09"/>
<polygon fill="#63b8ff" stroke="#63b8ff" points="50.54,-26.18 41.5,-20.66 45.12,-30.61 50.54,-26.18"/>
</a>
</g>
<g id="a_edge1&#45;headlabel"><a xlink:href="dir_000294_000416.html" target="_top" xlink:title="6">
<text text-anchor="middle" x="54.05" y="-22.11" font-family="Helvetica,sans-Serif" font-size="10.00" fill="#63b8ff">6</text>
</a>
</g>
</g>
<!-- dir_934fd243b40ff671fa1d708949b38ec2 -->
<g id="node6" class="node">
<title>dir_934fd243b40ff671fa1d708949b38ec2</title>
<g id="a_node6"><a xlink:href="dir_934fd243b40ff671fa1d708949b38ec2.html" target="_top" xlink:title="utilities">
<polygon fill="#edf0f7" stroke="red" stroke-dasharray="5,2" points="308.88,-19.25 262.12,-19.25 262.12,0 308.88,0 308.88,-19.25"/>
<text text-anchor="middle" x="285.5" y="-5.75" font-family="Helvetica,sans-Serif" font-size="10.00">utilities</text>
</a>
</g>
</g>
<!-- dir_e09e17ccc4bc2b4edf2b17bf8a69f297&#45;&gt;dir_934fd243b40ff671fa1d708949b38ec2 -->
<g id="edge3" class="edge">
<title>dir_e09e17ccc4bc2b4edf2b17bf8a69f297&#45;&gt;dir_934fd243b40ff671fa1d708949b38ec2</title>
<g id="a_edge3"><a xlink:href="dir_000294_000523.html" target="_top">
<path fill="none" stroke="#63b8ff" d="M230.42,-165.88C244.94,-149.65 275.39,-112.45 286.5,-74.5 290.66,-60.29 290.21,-43.53 288.83,-30.74"/>
<polygon fill="#63b8ff" stroke="#63b8ff" points="292.32,-30.45 287.48,-21.02 285.39,-31.41 292.32,-30.45"/>
</a>
</g>
<g id="a_edge3&#45;headlabel"><a xlink:href="dir_000294_000523.html" target="_top" xlink:title="4">
<text text-anchor="middle" x="295.42" y="-28.24" font-family="Helvetica,sans-Serif" font-size="10.00" fill="#63b8ff">4</text>
</a>
</g>
</g>
<!-- dir_a64e56b30f5ca31a10654cea03375984 -->
<g id="node8" class="node">
<title>dir_a64e56b30f5ca31a10654cea03375984</title>
<g id="a_node8"><a xlink:href="dir_a64e56b30f5ca31a10654cea03375984.html" target="_top" xlink:title="ers">
<polygon fill="#edf0f7" stroke="red" stroke-dasharray="5,2" points="356.25,-19.25 326.75,-19.25 326.75,0 356.25,0 356.25,-19.25"/>
<text text-anchor="middle" x="341.5" y="-5.75" font-family="Helvetica,sans-Serif" font-size="10.00">ers</text>
</a>
</g>
</g>
<!-- dir_e09e17ccc4bc2b4edf2b17bf8a69f297&#45;&gt;dir_a64e56b30f5ca31a10654cea03375984 -->
<g id="edge4" class="edge">
<title>dir_e09e17ccc4bc2b4edf2b17bf8a69f297&#45;&gt;dir_a64e56b30f5ca31a10654cea03375984</title>
<g id="a_edge4"><a xlink:href="dir_000294_000175.html" target="_top">
<path fill="none" stroke="#63b8ff" d="M235.52,-166.03C247.52,-157.87 265.27,-144.53 277.5,-129.75 303.35,-98.5 323.45,-55.19 333.8,-30.32"/>
<polygon fill="#63b8ff" stroke="#63b8ff" points="337.01,-31.71 337.51,-21.13 330.52,-29.09 337.01,-31.71"/>
</a>
</g>
<g id="a_edge4&#45;headlabel"><a xlink:href="dir_000294_000175.html" target="_top" xlink:title="7">
<text text-anchor="middle" x="338.86" y="-30.83" font-family="Helvetica,sans-Serif" font-size="10.00" fill="#63b8ff">7</text>
</a>
</g>
</g>
<!-- dir_bbc7c2c1f127b379ce39be24c4bd3dbe -->
<g id="node9" class="node">
<title>dir_bbc7c2c1f127b379ce39be24c4bd3dbe</title>
<g id="a_node9"><a xlink:href="dir_bbc7c2c1f127b379ce39be24c4bd3dbe.html" target="_top" xlink:title="build">
<polygon fill="#edf0f7" stroke="red" stroke-dasharray="5,2" points="121.62,-19.25 85.38,-19.25 85.38,0 121.62,0 121.62,-19.25"/>
<text text-anchor="middle" x="103.5" y="-5.75" font-family="Helvetica,sans-Serif" font-size="10.00">build</text>
</a>
</g>
</g>
<!-- dir_e09e17ccc4bc2b4edf2b17bf8a69f297&#45;&gt;dir_bbc7c2c1f127b379ce39be24c4bd3dbe -->
<g id="edge5" class="edge">
<title>dir_e09e17ccc4bc2b4edf2b17bf8a69f297&#45;&gt;dir_bbc7c2c1f127b379ce39be24c4bd3dbe</title>
<g id="a_edge5"><a xlink:href="dir_000294_000030.html" target="_top">
<path fill="none" stroke="#63b8ff" d="M210.93,-165.81C190.38,-150 147.44,-114.23 123.5,-74.5 115.32,-60.92 110.18,-43.68 107.16,-30.53"/>
<polygon fill="#63b8ff" stroke="#63b8ff" points="110.63,-30.01 105.19,-20.92 103.77,-31.42 110.63,-30.01"/>
</a>
</g>
<g id="a_edge5&#45;headlabel"><a xlink:href="dir_000294_000030.html" target="_top" xlink:title="5">
<text text-anchor="middle" x="113.83" y="-27.6" font-family="Helvetica,sans-Serif" font-size="10.00" fill="#63b8ff">5</text>
</a>
</g>
</g>
<!-- dir_f74a706a7efda297e6d8fb2c03527fc2 -->
<g id="node10" class="node">
<title>dir_f74a706a7efda297e6d8fb2c03527fc2</title>
<g id="a_node10"><a xlink:href="dir_f74a706a7efda297e6d8fb2c03527fc2.html" target="_top" xlink:title="logging">
<polygon fill="#edf0f7" stroke="red" stroke-dasharray="5,2" points="420.88,-19.25 374.12,-19.25 374.12,0 420.88,0 420.88,-19.25"/>
<text text-anchor="middle" x="397.5" y="-5.75" font-family="Helvetica,sans-Serif" font-size="10.00">logging</text>
</a>
</g>
</g>
<!-- dir_e09e17ccc4bc2b4edf2b17bf8a69f297&#45;&gt;dir_f74a706a7efda297e6d8fb2c03527fc2 -->
<g id="edge6" class="edge">
<title>dir_e09e17ccc4bc2b4edf2b17bf8a69f297&#45;&gt;dir_f74a706a7efda297e6d8fb2c03527fc2</title>
<g id="a_edge6"><a xlink:href="dir_000294_000308.html" target="_top">
<path fill="none" stroke="#63b8ff" d="M240.84,-165.88C257,-157.89 280.66,-144.91 298.5,-129.75 334.73,-98.98 368.12,-53.91 385.33,-28.96"/>
<polygon fill="#63b8ff" stroke="#63b8ff" points="388.11,-31.09 390.82,-20.85 382.31,-27.16 388.11,-31.09"/>
</a>
</g>
<g id="a_edge6&#45;headlabel"><a xlink:href="dir_000294_000308.html" target="_top" xlink:title="8">
<text text-anchor="middle" x="389.29" y="-30.53" font-family="Helvetica,sans-Serif" font-size="10.00" fill="#63b8ff">8</text>
</a>
</g>
</g>
<!-- dir_be9cd5a03a32e0b6550a26f039acc1b9 -->
<g id="node3" class="node">
<title>dir_be9cd5a03a32e0b6550a26f039acc1b9</title>
<g id="a_node3"><a xlink:href="dir_be9cd5a03a32e0b6550a26f039acc1b9.html" target="_top" xlink:title="network">
<polygon fill="#a2b4d6" stroke="#404040" points="217.75,-74.5 167.25,-74.5 167.25,-55.25 217.75,-55.25 217.75,-74.5"/>
<text text-anchor="middle" x="192.5" y="-61" font-family="Helvetica,sans-Serif" font-size="10.00">network</text>
</a>
</g>
</g>
<!-- dir_89a198a420b4fef0eeb7fa332151e7f7&#45;&gt;dir_be9cd5a03a32e0b6550a26f039acc1b9 -->
<g id="edge9" class="edge">
<title>dir_89a198a420b4fef0eeb7fa332151e7f7&#45;&gt;dir_be9cd5a03a32e0b6550a26f039acc1b9</title>
<g id="a_edge9"><a xlink:href="dir_000098_000312.html" target="_top">
<path fill="none" stroke="#63b8ff" d="M205.02,-110.33C203.15,-103.67 200.49,-94.24 198.11,-85.78"/>
<polygon fill="#63b8ff" stroke="#63b8ff" points="201.52,-84.99 195.44,-76.32 194.78,-86.89 201.52,-84.99"/>
</a>
</g>
<g id="a_edge9&#45;headlabel"><a xlink:href="dir_000098_000312.html" target="_top" xlink:title="4">
<text text-anchor="middle" x="204.82" y="-82.35" font-family="Helvetica,sans-Serif" font-size="10.00" fill="#63b8ff">4</text>
</a>
</g>
</g>
<!-- dir_901a047d3d57286d40458fdda26d0e7e -->
<g id="node4" class="node">
<title>dir_901a047d3d57286d40458fdda26d0e7e</title>
<g id="a_node4"><a xlink:href="dir_901a047d3d57286d40458fdda26d0e7e.html" target="_top" xlink:title="queue">
<polygon fill="#a2b4d6" stroke="#404040" points="277.62,-74.5 235.38,-74.5 235.38,-55.25 277.62,-55.25 277.62,-74.5"/>
<text text-anchor="middle" x="256.5" y="-61" font-family="Helvetica,sans-Serif" font-size="10.00">queue</text>
</a>
</g>
</g>
<!-- dir_89a198a420b4fef0eeb7fa332151e7f7&#45;&gt;dir_901a047d3d57286d40458fdda26d0e7e -->
<g id="edge7" class="edge">
<title>dir_89a198a420b4fef0eeb7fa332151e7f7&#45;&gt;dir_901a047d3d57286d40458fdda26d0e7e</title>
<g id="a_edge7"><a xlink:href="dir_000098_000376.html" target="_top">
<path fill="none" stroke="#63b8ff" d="M215.59,-110.33C222.36,-102.98 232.22,-92.26 240.56,-83.19"/>
<polygon fill="#63b8ff" stroke="#63b8ff" points="243.01,-85.7 247.21,-75.97 237.86,-80.96 243.01,-85.7"/>
</a>
</g>
<g id="a_edge7&#45;headlabel"><a xlink:href="dir_000098_000376.html" target="_top" xlink:title="3">
<text text-anchor="middle" x="243.69" y="-85.28" font-family="Helvetica,sans-Serif" font-size="10.00" fill="#63b8ff">3</text>
</a>
</g>
</g>
<!-- dir_89a198a420b4fef0eeb7fa332151e7f7&#45;&gt;dir_bbc7c2c1f127b379ce39be24c4bd3dbe -->
<g id="edge8" class="edge">
<title>dir_89a198a420b4fef0eeb7fa332151e7f7&#45;&gt;dir_bbc7c2c1f127b379ce39be24c4bd3dbe</title>
<g id="a_edge8"><a xlink:href="dir_000098_000030.html" target="_top">
<path fill="none" stroke="#63b8ff" d="M197.03,-110.24C186.87,-101.48 171.17,-87.53 158.5,-74.5 143.89,-59.47 128.41,-41.27 117.61,-28.14"/>
<polygon fill="#63b8ff" stroke="#63b8ff" points="120.63,-26.32 111.6,-20.77 115.21,-30.74 120.63,-26.32"/>
</a>
</g>
<g id="a_edge8&#45;headlabel"><a xlink:href="dir_000098_000030.html" target="_top" xlink:title="1">
<text text-anchor="middle" x="124.15" y="-22.26" font-family="Helvetica,sans-Serif" font-size="10.00" fill="#63b8ff">1</text>
</a>
</g>
</g>
<!-- dir_be9cd5a03a32e0b6550a26f039acc1b9&#45;&gt;dir_6d314bedead70032a242c6ced44852ea -->
<g id="edge10" class="edge">
<title>dir_be9cd5a03a32e0b6550a26f039acc1b9&#45;&gt;dir_6d314bedead70032a242c6ced44852ea</title>
<g id="a_edge10"><a xlink:href="dir_000312_000416.html" target="_top">
<path fill="none" stroke="#63b8ff" d="M166.95,-55.32C141.11,-46.66 100.87,-33.19 71.32,-23.29"/>
<polygon fill="#63b8ff" stroke="#63b8ff" points="72.61,-20.03 62.01,-20.17 70.39,-26.67 72.61,-20.03"/>
</a>
</g>
<g id="a_edge10&#45;headlabel"><a xlink:href="dir_000312_000416.html" target="_top" xlink:title="5">
<text text-anchor="middle" x="75.48" y="-14.13" font-family="Helvetica,sans-Serif" font-size="10.00" fill="#63b8ff">5</text>
</a>
</g>
</g>
<!-- dir_be9cd5a03a32e0b6550a26f039acc1b9&#45;&gt;dir_934fd243b40ff671fa1d708949b38ec2 -->
<g id="edge11" class="edge">
<title>dir_be9cd5a03a32e0b6550a26f039acc1b9&#45;&gt;dir_934fd243b40ff671fa1d708949b38ec2</title>
<g id="a_edge11"><a xlink:href="dir_000312_000523.html" target="_top">
<path fill="none" stroke="#63b8ff" d="M203.8,-54.92C210.26,-50 218.62,-43.97 226.5,-39.25 235.28,-34 245.16,-28.91 254.29,-24.51"/>
<polygon fill="#63b8ff" stroke="#63b8ff" points="255.62,-27.75 263.19,-20.34 252.65,-21.42 255.62,-27.75"/>
</a>
</g>
<g id="a_edge11&#45;headlabel"><a xlink:href="dir_000312_000523.html" target="_top" xlink:title="1">
<text text-anchor="middle" x="254.94" y="-27.33" font-family="Helvetica,sans-Serif" font-size="10.00" fill="#63b8ff">1</text>
</a>
</g>
</g>
<!-- dir_9ef3f0487673901798c3e985c3af822e -->
<g id="node7" class="node">
<title>dir_9ef3f0487673901798c3e985c3af822e</title>
<g id="a_node7"><a xlink:href="dir_9ef3f0487673901798c3e985c3af822e.html" target="_top" xlink:title="ipm">
<polygon fill="#edf0f7" stroke="red" stroke-dasharray="5,2" points="171.38,-19.25 139.62,-19.25 139.62,0 171.38,0 171.38,-19.25"/>
<text text-anchor="middle" x="155.5" y="-5.75" font-family="Helvetica,sans-Serif" font-size="10.00">ipm</text>
</a>
</g>
</g>
<!-- dir_be9cd5a03a32e0b6550a26f039acc1b9&#45;&gt;dir_9ef3f0487673901798c3e985c3af822e -->
<g id="edge12" class="edge">
<title>dir_be9cd5a03a32e0b6550a26f039acc1b9&#45;&gt;dir_9ef3f0487673901798c3e985c3af822e</title>
<g id="a_edge12"><a xlink:href="dir_000312_000298.html" target="_top">
<path fill="none" stroke="#63b8ff" d="M186.39,-55.08C181.44,-47.96 174.3,-37.68 168.13,-28.8"/>
<polygon fill="#63b8ff" stroke="#63b8ff" points="171.19,-27.07 162.61,-20.85 165.44,-31.06 171.19,-27.07"/>
</a>
</g>
<g id="a_edge12&#45;headlabel"><a xlink:href="dir_000312_000298.html" target="_top" xlink:title="7">
<text text-anchor="middle" x="174.71" y="-23.28" font-family="Helvetica,sans-Serif" font-size="10.00" fill="#63b8ff">7</text>
</a>
</g>
</g>
<!-- dir_be9cd5a03a32e0b6550a26f039acc1b9&#45;&gt;dir_a64e56b30f5ca31a10654cea03375984 -->
<g id="edge13" class="edge">
<title>dir_be9cd5a03a32e0b6550a26f039acc1b9&#45;&gt;dir_a64e56b30f5ca31a10654cea03375984</title>
<g id="a_edge13"><a xlink:href="dir_000312_000175.html" target="_top">
<path fill="none" stroke="#63b8ff" d="M202.52,-54.91C208.96,-49.61 217.72,-43.19 226.5,-39.25 261.26,-23.66 275.4,-29.54 315.32,-19.43"/>
<polygon fill="#63b8ff" stroke="#63b8ff" points="316.18,-22.82 324.9,-16.8 314.33,-16.07 316.18,-22.82"/>
</a>
</g>
<g id="a_edge13&#45;headlabel"><a xlink:href="dir_000312_000175.html" target="_top" xlink:title="1">
<text text-anchor="middle" x="314.93" y="-22.23" font-family="Helvetica,sans-Serif" font-size="10.00" fill="#63b8ff">1</text>
</a>
</g>
</g>
<!-- dir_be9cd5a03a32e0b6550a26f039acc1b9&#45;&gt;dir_bbc7c2c1f127b379ce39be24c4bd3dbe -->
<g id="edge14" class="edge">
<title>dir_be9cd5a03a32e0b6550a26f039acc1b9&#45;&gt;dir_bbc7c2c1f127b379ce39be24c4bd3dbe</title>
<g id="a_edge14"><a xlink:href="dir_000312_000030.html" target="_top">
<path fill="none" stroke="#63b8ff" d="M178.51,-54.84C171.12,-50.11 161.87,-44.29 153.5,-39.25 145.84,-34.64 137.43,-29.76 129.74,-25.36"/>
<polygon fill="#63b8ff" stroke="#63b8ff" points="131.56,-22.37 121.13,-20.48 128.1,-28.46 131.56,-22.37"/>
</a>
</g>
<g id="a_edge14&#45;headlabel"><a xlink:href="dir_000312_000030.html" target="_top" xlink:title="1">
<text text-anchor="middle" x="134.77" y="-17.05" font-family="Helvetica,sans-Serif" font-size="10.00" fill="#63b8ff">1</text>
</a>
</g>
</g>
<!-- dir_be9cd5a03a32e0b6550a26f039acc1b9&#45;&gt;dir_f74a706a7efda297e6d8fb2c03527fc2 -->
<g id="edge16" class="edge">
<title>dir_be9cd5a03a32e0b6550a26f039acc1b9&#45;&gt;dir_f74a706a7efda297e6d8fb2c03527fc2</title>
<g id="a_edge16"><a xlink:href="dir_000312_000308.html" target="_top">
<path fill="none" stroke="#63b8ff" d="M202.14,-54.93C208.56,-49.49 217.45,-42.92 226.5,-39.25 281.18,-17.1 302.07,-30.2 362.85,-19.47"/>
<polygon fill="#63b8ff" stroke="#63b8ff" points="363.17,-22.97 372.32,-17.64 361.84,-16.09 363.17,-22.97"/>
</a>
</g>
<g id="a_edge16&#45;headlabel"><a xlink:href="dir_000312_000308.html" target="_top" xlink:title="2">
<text text-anchor="middle" x="361.66" y="-22.27" font-family="Helvetica,sans-Serif" font-size="10.00" fill="#63b8ff">2</text>
</a>
</g>
</g>
<!-- dir_f6ebe3d21dc6eefb077bc4c75cd16e31 -->
<g id="node11" class="node">
<title>dir_f6ebe3d21dc6eefb077bc4c75cd16e31</title>
<g id="a_node11"><a xlink:href="dir_f6ebe3d21dc6eefb077bc4c75cd16e31.html" target="_top" xlink:title="opmonlib">
<polygon fill="#edf0f7" stroke="red" stroke-dasharray="5,2" points="244,-19.25 189,-19.25 189,0 244,0 244,-19.25"/>
<text text-anchor="middle" x="216.5" y="-5.75" font-family="Helvetica,sans-Serif" font-size="10.00">opmonlib</text>
</a>
</g>
</g>
<!-- dir_be9cd5a03a32e0b6550a26f039acc1b9&#45;&gt;dir_f6ebe3d21dc6eefb077bc4c75cd16e31 -->
<g id="edge15" class="edge">
<title>dir_be9cd5a03a32e0b6550a26f039acc1b9&#45;&gt;dir_f6ebe3d21dc6eefb077bc4c75cd16e31</title>
<g id="a_edge15"><a xlink:href="dir_000312_000330.html" target="_top">
<path fill="none" stroke="#63b8ff" d="M196.46,-55.08C199.54,-48.26 203.91,-38.56 207.79,-29.95"/>
<polygon fill="#63b8ff" stroke="#63b8ff" points="210.91,-31.54 211.83,-20.99 204.53,-28.67 210.91,-31.54"/>
</a>
</g>
<g id="a_edge15&#45;headlabel"><a xlink:href="dir_000312_000330.html" target="_top" xlink:title="1">
<text text-anchor="middle" x="212.64" y="-30.73" font-family="Helvetica,sans-Serif" font-size="10.00" fill="#63b8ff">1</text>
</a>
</g>
</g>
<!-- dir_901a047d3d57286d40458fdda26d0e7e&#45;&gt;dir_934fd243b40ff671fa1d708949b38ec2 -->
<g id="edge17" class="edge">
<title>dir_901a047d3d57286d40458fdda26d0e7e&#45;&gt;dir_934fd243b40ff671fa1d708949b38ec2</title>
<g id="a_edge17"><a xlink:href="dir_000376_000523.html" target="_top">
<path fill="none" stroke="#63b8ff" d="M261.29,-55.08C265.04,-48.19 270.41,-38.34 275.13,-29.66"/>
<polygon fill="#63b8ff" stroke="#63b8ff" points="278.17,-31.39 279.88,-20.94 272.03,-28.05 278.17,-31.39"/>
</a>
</g>
<g id="a_edge17&#45;headlabel"><a xlink:href="dir_000376_000523.html" target="_top" xlink:title="1">
<text text-anchor="middle" x="279.67" y="-30.71" font-family="Helvetica,sans-Serif" font-size="10.00" fill="#63b8ff">1</text>
</a>
</g>
</g>
<!-- dir_901a047d3d57286d40458fdda26d0e7e&#45;&gt;dir_a64e56b30f5ca31a10654cea03375984 -->
<g id="edge18" class="edge">
<title>dir_901a047d3d57286d40458fdda26d0e7e&#45;&gt;dir_a64e56b30f5ca31a10654cea03375984</title>
<g id="a_edge18"><a xlink:href="dir_000376_000175.html" target="_top">
<path fill="none" stroke="#63b8ff" d="M270.92,-54.84C283.62,-46.89 302.37,-35.14 317.36,-25.75"/>
<polygon fill="#63b8ff" stroke="#63b8ff" points="319.11,-28.78 325.73,-20.51 315.4,-22.85 319.11,-28.78"/>
</a>
</g>
<g id="a_edge18&#45;headlabel"><a xlink:href="dir_000376_000175.html" target="_top" xlink:title="5">
<text text-anchor="middle" x="318.86" y="-28.42" font-family="Helvetica,sans-Serif" font-size="10.00" fill="#63b8ff">5</text>
</a>
</g>
</g>
<!-- dir_901a047d3d57286d40458fdda26d0e7e&#45;&gt;dir_bbc7c2c1f127b379ce39be24c4bd3dbe -->
<g id="edge19" class="edge">
<title>dir_901a047d3d57286d40458fdda26d0e7e&#45;&gt;dir_bbc7c2c1f127b379ce39be24c4bd3dbe</title>
<g id="a_edge19"><a xlink:href="dir_000376_000030.html" target="_top">
<path fill="none" stroke="#63b8ff" d="M247.85,-54.84C242.25,-49.52 234.52,-43.09 226.5,-39.25 190.18,-21.87 175.01,-29 132.99,-19.52"/>
<polygon fill="#63b8ff" stroke="#63b8ff" points="134.03,-16.18 123.49,-17.18 132.36,-22.97 134.03,-16.18"/>
</a>
</g>
<g id="a_edge19&#45;headlabel"><a xlink:href="dir_000376_000030.html" target="_top" xlink:title="1">
<text text-anchor="middle" x="136.73" y="-10.04" font-family="Helvetica,sans-Serif" font-size="10.00" fill="#63b8ff">1</text>
</a>
</g>
</g>
<!-- dir_901a047d3d57286d40458fdda26d0e7e&#45;&gt;dir_f74a706a7efda297e6d8fb2c03527fc2 -->
<g id="edge21" class="edge">
<title>dir_901a047d3d57286d40458fdda26d0e7e&#45;&gt;dir_f74a706a7efda297e6d8fb2c03527fc2</title>
<g id="a_edge21"><a xlink:href="dir_000376_000308.html" target="_top">
<path fill="none" stroke="#63b8ff" d="M277.91,-55.79C300.56,-47.23 336.63,-33.61 363.24,-23.56"/>
<polygon fill="#63b8ff" stroke="#63b8ff" points="364.46,-26.84 372.58,-20.04 361.99,-20.29 364.46,-26.84"/>
</a>
</g>
<g id="a_edge21&#45;headlabel"><a xlink:href="dir_000376_000308.html" target="_top" xlink:title="4">
<text text-anchor="middle" x="363.52" y="-26.36" font-family="Helvetica,sans-Serif" font-size="10.00" fill="#63b8ff">4</text>
</a>
</g>
</g>
<!-- dir_901a047d3d57286d40458fdda26d0e7e&#45;&gt;dir_f6ebe3d21dc6eefb077bc4c75cd16e31 -->
<g id="edge20" class="edge">
<title>dir_901a047d3d57286d40458fdda26d0e7e&#45;&gt;dir_f6ebe3d21dc6eefb077bc4c75cd16e31</title>
<g id="a_edge20"><a xlink:href="dir_000376_000330.html" target="_top">
<path fill="none" stroke="#63b8ff" d="M249.89,-55.08C244.54,-47.96 236.82,-37.68 230.15,-28.8"/>
<polygon fill="#63b8ff" stroke="#63b8ff" points="232.96,-26.71 224.16,-20.82 227.37,-30.92 232.96,-26.71"/>
</a>
</g>
<g id="a_edge20&#45;headlabel"><a xlink:href="dir_000376_000330.html" target="_top" xlink:title="3">
<text text-anchor="middle" x="236.48" y="-22.8" font-family="Helvetica,sans-Serif" font-size="10.00" fill="#63b8ff">3</text>
</a>
</g>
</g>
</g>
</svg>
