<?xml version="1.0" encoding="UTF-8" standalone="no"?>
<!DOCTYPE svg PUBLIC "-//W3C//DTD SVG 1.1//EN"
 "http://www.w3.org/Graphics/SVG/1.1/DTD/svg11.dtd">
<!-- Generated by graphviz version 9.0.0 (20230911.1827)
 -->
<!-- Title: /github/workspace/dev_area/build Pages: 1 -->
<svg width="1162pt" height="197pt"
 viewBox="0.00 0.00 1162.00 197.00" xmlns="http://www.w3.org/2000/svg" xmlns:xlink="http://www.w3.org/1999/xlink">
<g id="graph0" class="graph" transform="scale(1 1) rotate(0) translate(4 193)">
<title>/github/workspace/dev_area/build</title>
<g id="clust1" class="cluster">
<title>clusterdir_c86d4bc79f792d6c7f006f9966b5d7f5</title>
<g id="a_clust1"><a xlink:href="dir_c86d4bc79f792d6c7f006f9966b5d7f5.html" target="_top" xlink:title="dev_area">
<polygon fill="#edf0f7" stroke="#404040" stroke-dasharray="5,2" points="8,-8 8,-181 1146,-181 1146,-8 8,-8"/>
<text text-anchor="middle" x="577" y="-167.5" font-family="Helvetica,sans-Serif" font-size="10.00">dev_area</text>
</a>
</g>
</g>
<g id="clust2" class="cluster">
<title>clusterdir_bbc7c2c1f127b379ce39be24c4bd3dbe</title>
<g id="a_clust2"><a xlink:href="dir_bbc7c2c1f127b379ce39be24c4bd3dbe.html" target="_top">
<polygon fill="#edf0f7" stroke="#404040" stroke-width="2" points="16,-63.25 16,-153.75 1138,-153.75 1138,-63.25 16,-63.25"/>
</a>
</g>
</g>
<!-- dir_e594a494f7a60e5bf534551500b27d35 -->
<g id="node1" class="node">
<title>dir_e594a494f7a60e5bf534551500b27d35</title>
<g id="a_node1"><a xlink:href="dir_e594a494f7a60e5bf534551500b27d35.html" target="_top" xlink:title="sourcecode">
<polygon fill="#a2b4d6" stroke="red" points="1003.12,-35.25 936.88,-35.25 936.88,-16 1003.12,-16 1003.12,-35.25"/>
<text text-anchor="middle" x="970" y="-21.75" font-family="Helvetica,sans-Serif" font-size="10.00">sourcecode</text>
</a>
</g>
</g>
<!-- dir_bbc7c2c1f127b379ce39be24c4bd3dbe -->
<g id="node2" class="node">
<title>dir_bbc7c2c1f127b379ce39be24c4bd3dbe</title>
<text text-anchor="middle" x="1112" y="-132.25" font-family="Helvetica,sans-Serif" font-size="10.00">build</text>
</g>
<!-- dir_7f9d5360d537d9fb5262956a819d567c -->
<g id="node3" class="node">
<title>dir_7f9d5360d537d9fb5262956a819d567c</title>
<g id="a_node3"><a xlink:href="dir_7f9d5360d537d9fb5262956a819d567c.html" target="_top" xlink:title="appdal">
<polygon fill="#a2b4d6" stroke="#404040" points="940.25,-145.75 895.75,-145.75 895.75,-126.5 940.25,-126.5 940.25,-145.75"/>
<text text-anchor="middle" x="918" y="-132.25" font-family="Helvetica,sans-Serif" font-size="10.00">appdal</text>
</a>
</g>
</g>
<!-- dir_7f9d5360d537d9fb5262956a819d567c&#45;&gt;dir_e594a494f7a60e5bf534551500b27d35 -->
<g id="edge1" class="edge">
<title>dir_7f9d5360d537d9fb5262956a819d567c&#45;&gt;dir_e594a494f7a60e5bf534551500b27d35</title>
<g id="a_edge1"><a xlink:href="dir_000003_000420.html" target="_top">
<path fill="none" stroke="#63b8ff" d="M927.65,-126.13C936.11,-117.71 948.1,-104.38 955,-90.5 961.77,-76.88 965.56,-60.1 967.63,-47.15"/>
<polygon fill="#63b8ff" stroke="#63b8ff" points="971.1,-47.62 968.98,-37.24 964.17,-46.68 971.1,-47.62"/>
</a>
</g>
<g id="a_edge1&#45;headlabel"><a xlink:href="dir_000003_000420.html" target="_top" xlink:title="805">
<text text-anchor="middle" x="973.64" y="-46.19" font-family="Helvetica,sans-Serif" font-size="10.00" fill="#63b8ff">805</text>
</a>
</g>
</g>
<!-- dir_82b8806c0412f4295e28e09b935d17a6 -->
<g id="node6" class="node">
<title>dir_82b8806c0412f4295e28e09b935d17a6</title>
<g id="a_node6"><a xlink:href="dir_82b8806c0412f4295e28e09b935d17a6.html" target="_top" xlink:title="coredal">
<polygon fill="#a2b4d6" stroke="#404040" points="930.75,-90.5 883.25,-90.5 883.25,-71.25 930.75,-71.25 930.75,-90.5"/>
<text text-anchor="middle" x="907" y="-77" font-family="Helvetica,sans-Serif" font-size="10.00">coredal</text>
</a>
</g>
</g>
<!-- dir_7f9d5360d537d9fb5262956a819d567c&#45;&gt;dir_82b8806c0412f4295e28e09b935d17a6 -->
<g id="edge2" class="edge">
<title>dir_7f9d5360d537d9fb5262956a819d567c&#45;&gt;dir_82b8806c0412f4295e28e09b935d17a6</title>
<g id="a_edge2"><a xlink:href="dir_000003_000069.html" target="_top">
<path fill="none" stroke="#63b8ff" d="M916.18,-126.33C914.82,-119.74 912.9,-110.46 911.17,-102.07"/>
<polygon fill="#63b8ff" stroke="#63b8ff" points="914.61,-101.43 909.16,-92.34 907.76,-102.84 914.61,-101.43"/>
</a>
</g>
<g id="a_edge2&#45;headlabel"><a xlink:href="dir_000003_000069.html" target="_top" xlink:title="60">
<text text-anchor="middle" x="917.81" y="-99.02" font-family="Helvetica,sans-Serif" font-size="10.00" fill="#63b8ff">60</text>
</a>
</g>
</g>
<!-- dir_045b3c629777af3590cd7425b8fa1af9 -->
<g id="node4" class="node">
<title>dir_045b3c629777af3590cd7425b8fa1af9</title>
<g id="a_node4"><a xlink:href="dir_045b3c629777af3590cd7425b8fa1af9.html" target="_top" xlink:title="appfwk">
<polygon fill="#a2b4d6" stroke="#404040" points="486.75,-145.75 439.25,-145.75 439.25,-126.5 486.75,-126.5 486.75,-145.75"/>
<text text-anchor="middle" x="463" y="-132.25" font-family="Helvetica,sans-Serif" font-size="10.00">appfwk</text>
</a>
</g>
</g>
<!-- dir_045b3c629777af3590cd7425b8fa1af9&#45;&gt;dir_e594a494f7a60e5bf534551500b27d35 -->
<g id="edge5" class="edge">
<title>dir_045b3c629777af3590cd7425b8fa1af9&#45;&gt;dir_e594a494f7a60e5bf534551500b27d35</title>
<g id="a_edge5"><a xlink:href="dir_000008_000420.html" target="_top">
<path fill="none" stroke="#63b8ff" d="M487.04,-128.32C490.04,-127.63 493.08,-127 496,-126.5 593.59,-109.92 858.65,-146.91 940,-90.5 943.98,-87.74 954.51,-63.96 961.97,-46.22"/>
<polygon fill="#63b8ff" stroke="#63b8ff" points="965.15,-47.69 965.75,-37.11 958.68,-45.01 965.15,-47.69"/>
</a>
</g>
<g id="a_edge5&#45;headlabel"><a xlink:href="dir_000008_000420.html" target="_top" xlink:title="11">
<text text-anchor="middle" x="966.98" y="-46.83" font-family="Helvetica,sans-Serif" font-size="10.00" fill="#63b8ff">11</text>
</a>
</g>
</g>
<!-- dir_57cac67e669d1d13a3a45431f72a4a7b -->
<g id="node5" class="node">
<title>dir_57cac67e669d1d13a3a45431f72a4a7b</title>
<g id="a_node5"><a xlink:href="dir_57cac67e669d1d13a3a45431f72a4a7b.html" target="_top" xlink:title="cmdlib">
<polygon fill="#a2b4d6" stroke="#404040" points="428.25,-90.5 383.75,-90.5 383.75,-71.25 428.25,-71.25 428.25,-90.5"/>
<text text-anchor="middle" x="406" y="-77" font-family="Helvetica,sans-Serif" font-size="10.00">cmdlib</text>
</a>
</g>
</g>
<!-- dir_045b3c629777af3590cd7425b8fa1af9&#45;&gt;dir_57cac67e669d1d13a3a45431f72a4a7b -->
<g id="edge3" class="edge">
<title>dir_045b3c629777af3590cd7425b8fa1af9&#45;&gt;dir_57cac67e669d1d13a3a45431f72a4a7b</title>
<g id="a_edge3"><a xlink:href="dir_000008_000037.html" target="_top">
<path fill="none" stroke="#63b8ff" d="M453.33,-126.09C445.26,-118.55 433.53,-107.6 423.78,-98.48"/>
<polygon fill="#63b8ff" stroke="#63b8ff" points="426.33,-96.08 416.63,-91.81 421.55,-101.19 426.33,-96.08"/>
</a>
</g>
<g id="a_edge3&#45;headlabel"><a xlink:href="dir_000008_000037.html" target="_top" xlink:title="4">
<text text-anchor="middle" x="429.79" y="-91.55" font-family="Helvetica,sans-Serif" font-size="10.00" fill="#63b8ff">4</text>
</a>
</g>
</g>
<!-- dir_045b3c629777af3590cd7425b8fa1af9&#45;&gt;dir_82b8806c0412f4295e28e09b935d17a6 -->
<g id="edge6" class="edge">
<title>dir_045b3c629777af3590cd7425b8fa1af9&#45;&gt;dir_82b8806c0412f4295e28e09b935d17a6</title>
<g id="a_edge6"><a xlink:href="dir_000008_000069.html" target="_top">
<path fill="none" stroke="#63b8ff" d="M487.06,-128.4C490.05,-127.69 493.09,-127.04 496,-126.5 633.8,-101.15 800.42,-88.52 871.79,-83.94"/>
<polygon fill="#63b8ff" stroke="#63b8ff" points="871.92,-87.44 881.68,-83.32 871.48,-80.45 871.92,-87.44"/>
</a>
</g>
<g id="a_edge6&#45;headlabel"><a xlink:href="dir_000008_000069.html" target="_top" xlink:title="2">
<text text-anchor="middle" x="870.02" y="-86.53" font-family="Helvetica,sans-Serif" font-size="10.00" fill="#63b8ff">2</text>
</a>
</g>
</g>
<!-- dir_dc8d4d1c627995c3e2c2d9ac22465a8f -->
<g id="node14" class="node">
<title>dir_dc8d4d1c627995c3e2c2d9ac22465a8f</title>
<g id="a_node14"><a xlink:href="dir_dc8d4d1c627995c3e2c2d9ac22465a8f.html" target="_top" xlink:title="iomanager">
<polygon fill="#a2b4d6" stroke="#404040" points="507.5,-90.5 446.5,-90.5 446.5,-71.25 507.5,-71.25 507.5,-90.5"/>
<text text-anchor="middle" x="477" y="-77" font-family="Helvetica,sans-Serif" font-size="10.00">iomanager</text>
</a>
</g>
</g>
<!-- dir_045b3c629777af3590cd7425b8fa1af9&#45;&gt;dir_dc8d4d1c627995c3e2c2d9ac22465a8f -->
<g id="edge4" class="edge">
<title>dir_045b3c629777af3590cd7425b8fa1af9&#45;&gt;dir_dc8d4d1c627995c3e2c2d9ac22465a8f</title>
<g id="a_edge4"><a xlink:href="dir_000008_000291.html" target="_top">
<path fill="none" stroke="#63b8ff" d="M465.31,-126.33C467.06,-119.67 469.54,-110.24 471.77,-101.78"/>
<polygon fill="#63b8ff" stroke="#63b8ff" points="475.1,-102.88 474.25,-92.32 468.33,-101.1 475.1,-102.88"/>
</a>
</g>
<g id="a_edge4&#45;headlabel"><a xlink:href="dir_000008_000291.html" target="_top" xlink:title="2">
<text text-anchor="middle" x="477.31" y="-101.74" font-family="Helvetica,sans-Serif" font-size="10.00" fill="#63b8ff">2</text>
</a>
</g>
</g>
<!-- dir_82b8806c0412f4295e28e09b935d17a6&#45;&gt;dir_e594a494f7a60e5bf534551500b27d35 -->
<g id="edge7" class="edge">
<title>dir_82b8806c0412f4295e28e09b935d17a6&#45;&gt;dir_e594a494f7a60e5bf534551500b27d35</title>
<g id="a_edge7"><a xlink:href="dir_000069_000420.html" target="_top">
<path fill="none" stroke="#63b8ff" d="M917.69,-70.84C926.7,-63.22 939.83,-52.12 950.68,-42.95"/>
<polygon fill="#63b8ff" stroke="#63b8ff" points="952.94,-45.63 958.31,-36.5 948.42,-40.28 952.94,-45.63"/>
</a>
</g>
<g id="a_edge7&#45;headlabel"><a xlink:href="dir_000069_000420.html" target="_top" xlink:title="411">
<text text-anchor="middle" x="953.18" y="-45.27" font-family="Helvetica,sans-Serif" font-size="10.00" fill="#63b8ff">411</text>
</a>
</g>
</g>
<!-- dir_4054e7a222ba56030f98b29ad54ca04d -->
<g id="node7" class="node">
<title>dir_4054e7a222ba56030f98b29ad54ca04d</title>
<g id="a_node7"><a xlink:href="dir_4054e7a222ba56030f98b29ad54ca04d.html" target="_top" xlink:title="dfmodules">
<polygon fill="#a2b4d6" stroke="#404040" points="146.5,-145.75 85.5,-145.75 85.5,-126.5 146.5,-126.5 146.5,-145.75"/>
<text text-anchor="middle" x="116" y="-132.25" font-family="Helvetica,sans-Serif" font-size="10.00">dfmodules</text>
</a>
</g>
</g>
<!-- dir_80e7a0500fb49c3baa4024cea9227e57 -->
<g id="node11" class="node">
<title>dir_80e7a0500fb49c3baa4024cea9227e57</title>
<g id="a_node11"><a xlink:href="dir_80e7a0500fb49c3baa4024cea9227e57.html" target="_top" xlink:title="hdf5libs">
<polygon fill="#a2b4d6" stroke="#404040" points="140.88,-90.5 91.12,-90.5 91.12,-71.25 140.88,-71.25 140.88,-90.5"/>
<text text-anchor="middle" x="116" y="-77" font-family="Helvetica,sans-Serif" font-size="10.00">hdf5libs</text>
</a>
</g>
</g>
<!-- dir_4054e7a222ba56030f98b29ad54ca04d&#45;&gt;dir_80e7a0500fb49c3baa4024cea9227e57 -->
<g id="edge8" class="edge">
<title>dir_4054e7a222ba56030f98b29ad54ca04d&#45;&gt;dir_80e7a0500fb49c3baa4024cea9227e57</title>
<g id="a_edge8"><a xlink:href="dir_000119_000208.html" target="_top">
<path fill="none" stroke="#63b8ff" d="M116,-126.33C116,-119.82 116,-110.67 116,-102.37"/>
<polygon fill="#63b8ff" stroke="#63b8ff" points="119.5,-102.37 116,-92.37 112.5,-102.37 119.5,-102.37"/>
</a>
</g>
<g id="a_edge8&#45;headlabel"><a xlink:href="dir_000119_000208.html" target="_top" xlink:title="4">
<text text-anchor="middle" x="122.34" y="-100.58" font-family="Helvetica,sans-Serif" font-size="10.00" fill="#63b8ff">4</text>
</a>
</g>
</g>
<!-- dir_32b792c773e672e3f363ee736dfe005e -->
<g id="node8" class="node">
<title>dir_32b792c773e672e3f363ee736dfe005e</title>
<g id="a_node8"><a xlink:href="dir_32b792c773e672e3f363ee736dfe005e.html" target="_top" xlink:title="dpdklibs">
<polygon fill="#a2b4d6" stroke="#404040" points="878,-145.75 826,-145.75 826,-126.5 878,-126.5 878,-145.75"/>
<text text-anchor="middle" x="852" y="-132.25" font-family="Helvetica,sans-Serif" font-size="10.00">dpdklibs</text>
</a>
</g>
</g>
<!-- dir_1432ebf72eb72332776936a96387dce2 -->
<g id="node9" class="node">
<title>dir_1432ebf72eb72332776936a96387dce2</title>
<g id="a_node9"><a xlink:href="dir_1432ebf72eb72332776936a96387dce2.html" target="_top" xlink:title="ers">
<polygon fill="#a2b4d6" stroke="#404040" points="807.75,-145.75 778.25,-145.75 778.25,-126.5 807.75,-126.5 807.75,-145.75"/>
<text text-anchor="middle" x="793" y="-132.25" font-family="Helvetica,sans-Serif" font-size="10.00">ers</text>
</a>
</g>
</g>
<!-- dir_dd7336e13c5bced65635637f1ae07459 -->
<g id="node10" class="node">
<title>dir_dd7336e13c5bced65635637f1ae07459</title>
<g id="a_node10"><a xlink:href="dir_dd7336e13c5bced65635637f1ae07459.html" target="_top" xlink:title="flxlibs">
<polygon fill="#a2b4d6" stroke="#404040" points="760,-145.75 720,-145.75 720,-126.5 760,-126.5 760,-145.75"/>
<text text-anchor="middle" x="740" y="-132.25" font-family="Helvetica,sans-Serif" font-size="10.00">flxlibs</text>
</a>
</g>
</g>
<!-- dir_b0e4069a37e1b4e87a08a36533a1c4c8 -->
<g id="node12" class="node">
<title>dir_b0e4069a37e1b4e87a08a36533a1c4c8</title>
<g id="a_node12"><a xlink:href="dir_b0e4069a37e1b4e87a08a36533a1c4c8.html" target="_top" xlink:title="hermesmodules">
<polygon fill="#a2b4d6" stroke="#404040" points="701.5,-145.75 616.5,-145.75 616.5,-126.5 701.5,-126.5 701.5,-145.75"/>
<text text-anchor="middle" x="659" y="-132.25" font-family="Helvetica,sans-Serif" font-size="10.00">hermesmodules</text>
</a>
</g>
</g>
<!-- dir_5d9f3d7419b3e7ea006c12628aac67cb -->
<g id="node13" class="node">
<title>dir_5d9f3d7419b3e7ea006c12628aac67cb</title>
<g id="a_node13"><a xlink:href="dir_5d9f3d7419b3e7ea006c12628aac67cb.html" target="_top" xlink:title="hsilibs">
<polygon fill="#a2b4d6" stroke="#404040" points="598.88,-145.75 555.12,-145.75 555.12,-126.5 598.88,-126.5 598.88,-145.75"/>
<text text-anchor="middle" x="577" y="-132.25" font-family="Helvetica,sans-Serif" font-size="10.00">hsilibs</text>
</a>
</g>
</g>
<!-- dir_5647e9ff2a521cb4585e4ced27e82994 -->
<g id="node15" class="node">
<title>dir_5647e9ff2a521cb4585e4ced27e82994</title>
<g id="a_node15"><a xlink:href="dir_5647e9ff2a521cb4585e4ced27e82994.html" target="_top" xlink:title="ipm">
<polygon fill="#a2b4d6" stroke="#404040" points="536.88,-145.75 505.12,-145.75 505.12,-126.5 536.88,-126.5 536.88,-145.75"/>
<text text-anchor="middle" x="521" y="-132.25" font-family="Helvetica,sans-Serif" font-size="10.00">ipm</text>
</a>
</g>
</g>
<!-- dir_c88d4e6be12790060fa0d0bf584a0148 -->
<g id="node16" class="node">
<title>dir_c88d4e6be12790060fa0d0bf584a0148</title>
<g id="a_node16"><a xlink:href="dir_c88d4e6be12790060fa0d0bf584a0148.html" target="_top" xlink:title="listrev">
<polygon fill="#a2b4d6" stroke="#404040" points="1000.12,-145.75 957.88,-145.75 957.88,-126.5 1000.12,-126.5 1000.12,-145.75"/>
<text text-anchor="middle" x="979" y="-132.25" font-family="Helvetica,sans-Serif" font-size="10.00">listrev</text>
</a>
</g>
</g>
<!-- dir_c88d4e6be12790060fa0d0bf584a0148&#45;&gt;dir_e594a494f7a60e5bf534551500b27d35 -->
<g id="edge10" class="edge">
<title>dir_c88d4e6be12790060fa0d0bf584a0148&#45;&gt;dir_e594a494f7a60e5bf534551500b27d35</title>
<g id="a_edge10"><a xlink:href="dir_000302_000420.html" target="_top">
<path fill="none" stroke="#63b8ff" d="M978.74,-126.26C978.28,-112.67 977.17,-85.89 975,-63.25 974.49,-57.93 973.78,-52.2 973.06,-46.88"/>
<polygon fill="#63b8ff" stroke="#63b8ff" points="976.55,-46.53 971.65,-37.13 969.62,-47.53 976.55,-46.53"/>
</a>
</g>
<g id="a_edge10&#45;headlabel"><a xlink:href="dir_000302_000420.html" target="_top" xlink:title="47">
<text text-anchor="middle" x="979.65" y="-44.31" font-family="Helvetica,sans-Serif" font-size="10.00" fill="#63b8ff">47</text>
</a>
</g>
</g>
<!-- dir_c88d4e6be12790060fa0d0bf584a0148&#45;&gt;dir_82b8806c0412f4295e28e09b935d17a6 -->
<g id="edge9" class="edge">
<title>dir_c88d4e6be12790060fa0d0bf584a0148&#45;&gt;dir_82b8806c0412f4295e28e09b935d17a6</title>
<g id="a_edge9"><a xlink:href="dir_000302_000069.html" target="_top">
<path fill="none" stroke="#63b8ff" d="M966.79,-126.09C956.17,-118.24 940.56,-106.7 927.96,-97.37"/>
<polygon fill="#63b8ff" stroke="#63b8ff" points="930.37,-94.81 920.25,-91.67 926.21,-100.44 930.37,-94.81"/>
</a>
</g>
<g id="a_edge9&#45;headlabel"><a xlink:href="dir_000302_000069.html" target="_top" xlink:title="2">
<text text-anchor="middle" x="933.73" y="-89.89" font-family="Helvetica,sans-Serif" font-size="10.00" fill="#63b8ff">2</text>
</a>
</g>
</g>
<!-- dir_8226b29bfc3c781c8fe1620f45a87087 -->
<g id="node17" class="node">
<title>dir_8226b29bfc3c781c8fe1620f45a87087</title>
<g id="a_node17"><a xlink:href="dir_8226b29bfc3c781c8fe1620f45a87087.html" target="_top" xlink:title="rcif">
<polygon fill="#a2b4d6" stroke="#404040" points="420.75,-145.75 391.25,-145.75 391.25,-126.5 420.75,-126.5 420.75,-145.75"/>
<text text-anchor="middle" x="406" y="-132.25" font-family="Helvetica,sans-Serif" font-size="10.00">rcif</text>
</a>
</g>
</g>
<!-- dir_8226b29bfc3c781c8fe1620f45a87087&#45;&gt;dir_57cac67e669d1d13a3a45431f72a4a7b -->
<g id="edge11" class="edge">
<title>dir_8226b29bfc3c781c8fe1620f45a87087&#45;&gt;dir_57cac67e669d1d13a3a45431f72a4a7b</title>
<g id="a_edge11"><a xlink:href="dir_000385_000037.html" target="_top">
<path fill="none" stroke="#63b8ff" d="M406,-126.33C406,-119.82 406,-110.67 406,-102.37"/>
<polygon fill="#63b8ff" stroke="#63b8ff" points="409.5,-102.37 406,-92.37 402.5,-102.37 409.5,-102.37"/>
</a>
</g>
<g id="a_edge11&#45;headlabel"><a xlink:href="dir_000385_000037.html" target="_top" xlink:title="2">
<text text-anchor="middle" x="412.34" y="-100.58" font-family="Helvetica,sans-Serif" font-size="10.00" fill="#63b8ff">2</text>
</a>
</g>
</g>
<!-- dir_f9b0015c1c4ffebcc0cbe0225627b403 -->
<g id="node18" class="node">
<title>dir_f9b0015c1c4ffebcc0cbe0225627b403</title>
<g id="a_node18"><a xlink:href="dir_f9b0015c1c4ffebcc0cbe0225627b403.html" target="_top" xlink:title="readoutlibs">
<polygon fill="#a2b4d6" stroke="#404040" points="373.62,-145.75 310.38,-145.75 310.38,-126.5 373.62,-126.5 373.62,-145.75"/>
<text text-anchor="middle" x="342" y="-132.25" font-family="Helvetica,sans-Serif" font-size="10.00">readoutlibs</text>
</a>
</g>
</g>
<!-- dir_2439a6294f9447967cf4cf6b71935005 -->
<g id="node19" class="node">
<title>dir_2439a6294f9447967cf4cf6b71935005</title>
<g id="a_node19"><a xlink:href="dir_2439a6294f9447967cf4cf6b71935005.html" target="_top" xlink:title="serialization">
<polygon fill="#a2b4d6" stroke="#404040" points="292.5,-145.75 225.5,-145.75 225.5,-126.5 292.5,-126.5 292.5,-145.75"/>
<text text-anchor="middle" x="259" y="-132.25" font-family="Helvetica,sans-Serif" font-size="10.00">serialization</text>
</a>
</g>
</g>
<!-- dir_84f92c95f83c02e111303cab44d5bdac -->
<g id="node20" class="node">
<title>dir_84f92c95f83c02e111303cab44d5bdac</title>
<g id="a_node20"><a xlink:href="dir_84f92c95f83c02e111303cab44d5bdac.html" target="_top" xlink:title="timing">
<polygon fill="#a2b4d6" stroke="#404040" points="207.12,-145.75 164.88,-145.75 164.88,-126.5 207.12,-126.5 207.12,-145.75"/>
<text text-anchor="middle" x="186" y="-132.25" font-family="Helvetica,sans-Serif" font-size="10.00">timing</text>
</a>
</g>
</g>
<!-- dir_36f5f716673f394710ae239c464cec1e -->
<g id="node21" class="node">
<title>dir_36f5f716673f394710ae239c464cec1e</title>
<g id="a_node21"><a xlink:href="dir_36f5f716673f394710ae239c464cec1e.html" target="_top" xlink:title="timinglibs">
<polygon fill="#a2b4d6" stroke="#404040" points="1075.62,-145.75 1018.38,-145.75 1018.38,-126.5 1075.62,-126.5 1075.62,-145.75"/>
<text text-anchor="middle" x="1047" y="-132.25" font-family="Helvetica,sans-Serif" font-size="10.00">timinglibs</text>
</a>
</g>
</g>
<!-- dir_36f5f716673f394710ae239c464cec1e&#45;&gt;dir_e594a494f7a60e5bf534551500b27d35 -->
<g id="edge13" class="edge">
<title>dir_36f5f716673f394710ae239c464cec1e&#45;&gt;dir_e594a494f7a60e5bf534551500b27d35</title>
<g id="a_edge13"><a xlink:href="dir_000486_000420.html" target="_top">
<path fill="none" stroke="#63b8ff" d="M1040.7,-126.25C1028.12,-108.52 999.68,-68.44 982.95,-44.88"/>
<polygon fill="#63b8ff" stroke="#63b8ff" points="985.91,-42.99 977.26,-36.86 980.2,-47.04 985.91,-42.99"/>
</a>
</g>
<g id="a_edge13&#45;headlabel"><a xlink:href="dir_000486_000420.html" target="_top" xlink:title="119">
<text text-anchor="middle" x="989.43" y="-39.17" font-family="Helvetica,sans-Serif" font-size="10.00" fill="#63b8ff">119</text>
</a>
</g>
</g>
<!-- dir_36f5f716673f394710ae239c464cec1e&#45;&gt;dir_82b8806c0412f4295e28e09b935d17a6 -->
<g id="edge12" class="edge">
<title>dir_36f5f716673f394710ae239c464cec1e&#45;&gt;dir_82b8806c0412f4295e28e09b935d17a6</title>
<g id="a_edge12"><a xlink:href="dir_000486_000069.html" target="_top">
<path fill="none" stroke="#63b8ff" d="M1023.25,-126.09C1000.83,-117.56 966.94,-104.67 941.53,-95.01"/>
<polygon fill="#63b8ff" stroke="#63b8ff" points="942.87,-91.77 932.28,-91.49 940.38,-98.32 942.87,-91.77"/>
</a>
</g>
<g id="a_edge12&#45;headlabel"><a xlink:href="dir_000486_000069.html" target="_top" xlink:title="8">
<text text-anchor="middle" x="945.83" y="-85.99" font-family="Helvetica,sans-Serif" font-size="10.00" fill="#63b8ff">8</text>
</a>
</g>
</g>
<!-- dir_c721605d0a02a0d540bbe8a3a1e4bf92 -->
<g id="node22" class="node">
<title>dir_c721605d0a02a0d540bbe8a3a1e4bf92</title>
<g id="a_node22"><a xlink:href="dir_c721605d0a02a0d540bbe8a3a1e4bf92.html" target="_top" xlink:title="trigger">
<polygon fill="#a2b4d6" stroke="#404040" points="67.5,-145.75 24.5,-145.75 24.5,-126.5 67.5,-126.5 67.5,-145.75"/>
<text text-anchor="middle" x="46" y="-132.25" font-family="Helvetica,sans-Serif" font-size="10.00">trigger</text>
</a>
</g>
</g>
</g>
</svg>
