<?xml version="1.0" encoding="UTF-8" standalone="no"?>
<!DOCTYPE svg PUBLIC "-//W3C//DTD SVG 1.1//EN"
 "http://www.w3.org/Graphics/SVG/1.1/DTD/svg11.dtd">
<!-- Generated by graphviz version 9.0.0 (20230911.1827)
 -->
<!-- Title: /github/workspace/dev_area/sourcecode/flxlibs Pages: 1 -->
<svg width="486pt" height="197pt"
 viewBox="0.00 0.00 486.12 197.00" xmlns="http://www.w3.org/2000/svg" xmlns:xlink="http://www.w3.org/1999/xlink">
<g id="graph0" class="graph" transform="scale(1 1) rotate(0) translate(4 193)">
<title>/github/workspace/dev_area/sourcecode/flxlibs</title>
<g id="clust1" class="cluster">
<title>clusterdir_e594a494f7a60e5bf534551500b27d35</title>
<g id="a_clust1"><a xlink:href="dir_e594a494f7a60e5bf534551500b27d35.html" target="_top" xlink:title="sourcecode">
<polygon fill="#edf0f7" stroke="#7f7f7f" stroke-dasharray="5,2" points="8,-8 8,-181 432,-181 432,-8 8,-8"/>
<text text-anchor="middle" x="220" y="-167.5" font-family="Helvetica,sans-Serif" font-size="10.00">sourcecode</text>
</a>
</g>
</g>
<g id="clust2" class="cluster">
<title>clusterdir_39a3201511dbae9af85ee4cefeaf91b3</title>
<g id="a_clust2"><a xlink:href="dir_39a3201511dbae9af85ee4cefeaf91b3.html" target="_top">
<polygon fill="#edf0f7" stroke="#404040" stroke-width="2" points="16,-63.25 16,-153.75 373,-153.75 373,-63.25 16,-63.25"/>
</a>
</g>
</g>
<!-- dir_f74a706a7efda297e6d8fb2c03527fc2 -->
<g id="node1" class="node">
<title>dir_f74a706a7efda297e6d8fb2c03527fc2</title>
<g id="a_node1"><a xlink:href="dir_f74a706a7efda297e6d8fb2c03527fc2.html" target="_top" xlink:title="logging">
<polygon fill="#a2b4d6" stroke="red" points="62.38,-35.25 15.62,-35.25 15.62,-16 62.38,-16 62.38,-35.25"/>
<text text-anchor="middle" x="39" y="-21.75" font-family="Helvetica,sans-Serif" font-size="10.00">logging</text>
</a>
</g>
</g>
<!-- dir_ab1b54331b4bb0c44e7fcd5a7d20111e -->
<g id="node2" class="node">
<title>dir_ab1b54331b4bb0c44e7fcd5a7d20111e</title>
<g id="a_node2"><a xlink:href="dir_ab1b54331b4bb0c44e7fcd5a7d20111e.html" target="_top" xlink:title="iomanager">
<polygon fill="#a2b4d6" stroke="red" points="334.5,-35.25 273.5,-35.25 273.5,-16 334.5,-16 334.5,-35.25"/>
<text text-anchor="middle" x="304" y="-21.75" font-family="Helvetica,sans-Serif" font-size="10.00">iomanager</text>
</a>
</g>
</g>
<!-- dir_fe853eb0796da44195fb8219d49359ed -->
<g id="node3" class="node">
<title>dir_fe853eb0796da44195fb8219d49359ed</title>
<g id="a_node3"><a xlink:href="dir_fe853eb0796da44195fb8219d49359ed.html" target="_top" xlink:title="fdreadoutlibs">
<polygon fill="#a2b4d6" stroke="red" points="423.75,-35.25 352.25,-35.25 352.25,-16 423.75,-16 423.75,-35.25"/>
<text text-anchor="middle" x="388" y="-21.75" font-family="Helvetica,sans-Serif" font-size="10.00">fdreadoutlibs</text>
</a>
</g>
</g>
<!-- dir_25574c5e008893c4c2436587c1675f55 -->
<g id="node4" class="node">
<title>dir_25574c5e008893c4c2436587c1675f55</title>
<g id="a_node4"><a xlink:href="dir_25574c5e008893c4c2436587c1675f55.html" target="_top" xlink:title="readoutlibs">
<polygon fill="#a2b4d6" stroke="red" points="190.62,-35.25 127.38,-35.25 127.38,-16 190.62,-16 190.62,-35.25"/>
<text text-anchor="middle" x="159" y="-21.75" font-family="Helvetica,sans-Serif" font-size="10.00">readoutlibs</text>
</a>
</g>
</g>
<!-- dir_eaab8e706d9785a8277b333b3fa3c104 -->
<g id="node5" class="node">
<title>dir_eaab8e706d9785a8277b333b3fa3c104</title>
<g id="a_node5"><a xlink:href="dir_eaab8e706d9785a8277b333b3fa3c104.html" target="_top" xlink:title="appfwk">
<polygon fill="#a2b4d6" stroke="red" points="255.75,-35.25 208.25,-35.25 208.25,-16 255.75,-16 255.75,-35.25"/>
<text text-anchor="middle" x="232" y="-21.75" font-family="Helvetica,sans-Serif" font-size="10.00">appfwk</text>
</a>
</g>
</g>
<!-- dir_a64e56b30f5ca31a10654cea03375984 -->
<g id="node6" class="node">
<title>dir_a64e56b30f5ca31a10654cea03375984</title>
<g id="a_node6"><a xlink:href="dir_a64e56b30f5ca31a10654cea03375984.html" target="_top" xlink:title="ers">
<polygon fill="#a2b4d6" stroke="red" points="109.75,-35.25 80.25,-35.25 80.25,-16 109.75,-16 109.75,-35.25"/>
<text text-anchor="middle" x="95" y="-21.75" font-family="Helvetica,sans-Serif" font-size="10.00">ers</text>
</a>
</g>
</g>
<!-- dir_39a3201511dbae9af85ee4cefeaf91b3 -->
<g id="node7" class="node">
<title>dir_39a3201511dbae9af85ee4cefeaf91b3</title>
<text text-anchor="middle" x="345" y="-132.25" font-family="Helvetica,sans-Serif" font-size="10.00">flxlibs</text>
</g>
<!-- dir_764c9ab5e279097474134b1adb63883b -->
<g id="node8" class="node">
<title>dir_764c9ab5e279097474134b1adb63883b</title>
<g id="a_node8"><a xlink:href="dir_764c9ab5e279097474134b1adb63883b.html" target="_top" xlink:title="apps">
<polygon fill="#a2b4d6" stroke="#404040" points="187.5,-145.75 150.5,-145.75 150.5,-126.5 187.5,-126.5 187.5,-145.75"/>
<text text-anchor="middle" x="169" y="-132.25" font-family="Helvetica,sans-Serif" font-size="10.00">apps</text>
</a>
</g>
</g>
<!-- dir_764c9ab5e279097474134b1adb63883b&#45;&gt;dir_f74a706a7efda297e6d8fb2c03527fc2 -->
<g id="edge1" class="edge">
<title>dir_764c9ab5e279097474134b1adb63883b&#45;&gt;dir_f74a706a7efda297e6d8fb2c03527fc2</title>
<g id="a_edge1"><a xlink:href="dir_000021_000308.html" target="_top">
<path fill="none" stroke="#63b8ff" d="M158.36,-126.25C136.46,-107.97 86.06,-65.9 58.27,-42.71"/>
<polygon fill="#63b8ff" stroke="#63b8ff" points="60.87,-40.32 50.95,-36.6 56.38,-45.69 60.87,-40.32"/>
</a>
</g>
<g id="a_edge1&#45;headlabel"><a xlink:href="dir_000021_000308.html" target="_top" xlink:title="1">
<text text-anchor="middle" x="64.28" y="-35.6" font-family="Helvetica,sans-Serif" font-size="10.00" fill="#63b8ff">1</text>
</a>
</g>
</g>
<!-- dir_a674495084f562a803c6261291877948 -->
<g id="node9" class="node">
<title>dir_a674495084f562a803c6261291877948</title>
<g id="a_node9"><a xlink:href="dir_a674495084f562a803c6261291877948.html" target="_top" xlink:title="docs">
<polygon fill="#a2b4d6" stroke="#404040" points="242.5,-145.75 205.5,-145.75 205.5,-126.5 242.5,-126.5 242.5,-145.75"/>
<text text-anchor="middle" x="224" y="-132.25" font-family="Helvetica,sans-Serif" font-size="10.00">docs</text>
</a>
</g>
</g>
<!-- dir_8733facd8898a2d6fdd00bfe7e8bfefd -->
<g id="node10" class="node">
<title>dir_8733facd8898a2d6fdd00bfe7e8bfefd</title>
<g id="a_node10"><a xlink:href="dir_8733facd8898a2d6fdd00bfe7e8bfefd.html" target="_top" xlink:title="include">
<polygon fill="#a2b4d6" stroke="#404040" points="307.38,-145.75 260.62,-145.75 260.62,-126.5 307.38,-126.5 307.38,-145.75"/>
<text text-anchor="middle" x="284" y="-132.25" font-family="Helvetica,sans-Serif" font-size="10.00">include</text>
</a>
</g>
</g>
<!-- dir_8733facd8898a2d6fdd00bfe7e8bfefd&#45;&gt;dir_ab1b54331b4bb0c44e7fcd5a7d20111e -->
<g id="edge2" class="edge">
<title>dir_8733facd8898a2d6fdd00bfe7e8bfefd&#45;&gt;dir_ab1b54331b4bb0c44e7fcd5a7d20111e</title>
<g id="a_edge2"><a xlink:href="dir_000265_000293.html" target="_top">
<path fill="none" stroke="#63b8ff" d="M286.16,-126.27C288.31,-117.29 291.63,-102.98 294,-90.5 296.8,-75.78 299.4,-59.04 301.24,-46.39"/>
<polygon fill="#63b8ff" stroke="#63b8ff" points="304.66,-47.23 302.61,-36.83 297.73,-46.24 304.66,-47.23"/>
</a>
</g>
<g id="a_edge2&#45;headlabel"><a xlink:href="dir_000265_000293.html" target="_top" xlink:title="1">
<text text-anchor="middle" x="307.18" y="-45.81" font-family="Helvetica,sans-Serif" font-size="10.00" fill="#63b8ff">1</text>
</a>
</g>
</g>
<!-- dir_8733facd8898a2d6fdd00bfe7e8bfefd&#45;&gt;dir_fe853eb0796da44195fb8219d49359ed -->
<g id="edge4" class="edge">
<title>dir_8733facd8898a2d6fdd00bfe7e8bfefd&#45;&gt;dir_fe853eb0796da44195fb8219d49359ed</title>
<g id="a_edge4"><a xlink:href="dir_000265_000189.html" target="_top">
<path fill="none" stroke="#63b8ff" d="M292.51,-126.25C309.73,-108.28 348.95,-67.36 371.41,-43.94"/>
<polygon fill="#63b8ff" stroke="#63b8ff" points="373.93,-46.36 378.32,-36.72 368.88,-41.52 373.93,-46.36"/>
</a>
</g>
<g id="a_edge4&#45;headlabel"><a xlink:href="dir_000265_000189.html" target="_top" xlink:title="1">
<text text-anchor="middle" x="374.54" y="-45.95" font-family="Helvetica,sans-Serif" font-size="10.00" fill="#63b8ff">1</text>
</a>
</g>
</g>
<!-- dir_b162de5198c9f4bbd2b542e6f26dd706 -->
<g id="node13" class="node">
<title>dir_b162de5198c9f4bbd2b542e6f26dd706</title>
<g id="a_node13"><a xlink:href="dir_b162de5198c9f4bbd2b542e6f26dd706.html" target="_top" xlink:title="src">
<polygon fill="#a2b4d6" stroke="#404040" points="284.75,-90.5 255.25,-90.5 255.25,-71.25 284.75,-71.25 284.75,-90.5"/>
<text text-anchor="middle" x="270" y="-77" font-family="Helvetica,sans-Serif" font-size="10.00">src</text>
</a>
</g>
</g>
<!-- dir_8733facd8898a2d6fdd00bfe7e8bfefd&#45;&gt;dir_b162de5198c9f4bbd2b542e6f26dd706 -->
<g id="edge3" class="edge">
<title>dir_8733facd8898a2d6fdd00bfe7e8bfefd&#45;&gt;dir_b162de5198c9f4bbd2b542e6f26dd706</title>
<g id="a_edge3"><a xlink:href="dir_000265_000441.html" target="_top">
<path fill="none" stroke="#63b8ff" d="M276.52,-126.33C273.38,-119.74 270.47,-110.46 268.74,-102.07"/>
<polygon fill="#63b8ff" stroke="#63b8ff" points="272.23,-101.77 267.37,-92.36 265.3,-102.75 272.23,-101.77"/>
</a>
</g>
<g id="a_edge3&#45;headlabel"><a xlink:href="dir_000265_000441.html" target="_top" xlink:title="1">
<text text-anchor="middle" x="275.33" y="-99.56" font-family="Helvetica,sans-Serif" font-size="10.00" fill="#63b8ff">1</text>
</a>
</g>
</g>
<!-- dir_d20fa5551d12169a8d0ea08c60b264d9 -->
<g id="node11" class="node">
<title>dir_d20fa5551d12169a8d0ea08c60b264d9</title>
<g id="a_node11"><a xlink:href="dir_d20fa5551d12169a8d0ea08c60b264d9.html" target="_top" xlink:title="python">
<polygon fill="#a2b4d6" stroke="#404040" points="132.25,-145.75 87.75,-145.75 87.75,-126.5 132.25,-126.5 132.25,-145.75"/>
<text text-anchor="middle" x="110" y="-132.25" font-family="Helvetica,sans-Serif" font-size="10.00">python</text>
</a>
</g>
</g>
<!-- dir_532a3392f79f2ee13d554b1a2035c854 -->
<g id="node12" class="node">
<title>dir_532a3392f79f2ee13d554b1a2035c854</title>
<g id="a_node12"><a xlink:href="dir_532a3392f79f2ee13d554b1a2035c854.html" target="_top" xlink:title="scripts">
<polygon fill="#a2b4d6" stroke="#404040" points="69.62,-145.75 24.38,-145.75 24.38,-126.5 69.62,-126.5 69.62,-145.75"/>
<text text-anchor="middle" x="47" y="-132.25" font-family="Helvetica,sans-Serif" font-size="10.00">scripts</text>
</a>
</g>
</g>
<!-- dir_b162de5198c9f4bbd2b542e6f26dd706&#45;&gt;dir_f74a706a7efda297e6d8fb2c03527fc2 -->
<g id="edge11" class="edge">
<title>dir_b162de5198c9f4bbd2b542e6f26dd706&#45;&gt;dir_f74a706a7efda297e6d8fb2c03527fc2</title>
<g id="a_edge11"><a xlink:href="dir_000441_000308.html" target="_top">
<path fill="none" stroke="#63b8ff" d="M261.86,-70.94C258.74,-68.05 254.97,-65.1 251,-63.25 180.78,-30.49 152.65,-50.16 73.65,-35.51"/>
<polygon fill="#63b8ff" stroke="#63b8ff" points="74.67,-32.14 64.18,-33.62 73.3,-39.01 74.67,-32.14"/>
</a>
</g>
<g id="a_edge11&#45;headlabel"><a xlink:href="dir_000441_000308.html" target="_top" xlink:title="3">
<text text-anchor="middle" x="77.27" y="-25.89" font-family="Helvetica,sans-Serif" font-size="10.00" fill="#63b8ff">3</text>
</a>
</g>
</g>
<!-- dir_b162de5198c9f4bbd2b542e6f26dd706&#45;&gt;dir_ab1b54331b4bb0c44e7fcd5a7d20111e -->
<g id="edge8" class="edge">
<title>dir_b162de5198c9f4bbd2b542e6f26dd706&#45;&gt;dir_ab1b54331b4bb0c44e7fcd5a7d20111e</title>
<g id="a_edge8"><a xlink:href="dir_000441_000293.html" target="_top">
<path fill="none" stroke="#63b8ff" d="M275.61,-71.08C280.12,-64.03 286.59,-53.9 292.21,-45.08"/>
<polygon fill="#63b8ff" stroke="#63b8ff" points="295.02,-47.2 297.45,-36.88 289.12,-43.43 295.02,-47.2"/>
</a>
</g>
<g id="a_edge8&#45;headlabel"><a xlink:href="dir_000441_000293.html" target="_top" xlink:title="2">
<text text-anchor="middle" x="296.29" y="-46.6" font-family="Helvetica,sans-Serif" font-size="10.00" fill="#63b8ff">2</text>
</a>
</g>
</g>
<!-- dir_b162de5198c9f4bbd2b542e6f26dd706&#45;&gt;dir_fe853eb0796da44195fb8219d49359ed -->
<g id="edge12" class="edge">
<title>dir_b162de5198c9f4bbd2b542e6f26dd706&#45;&gt;dir_fe853eb0796da44195fb8219d49359ed</title>
<g id="a_edge12"><a xlink:href="dir_000441_000189.html" target="_top">
<path fill="none" stroke="#63b8ff" d="M278.75,-71.03C281.81,-68.28 285.38,-65.4 289,-63.25 305.88,-53.21 325.97,-45.16 343.63,-39.19"/>
<polygon fill="#63b8ff" stroke="#63b8ff" points="344.67,-42.53 353.1,-36.12 342.51,-35.88 344.67,-42.53"/>
</a>
</g>
<g id="a_edge12&#45;headlabel"><a xlink:href="dir_000441_000189.html" target="_top" xlink:title="3">
<text text-anchor="middle" x="343.56" y="-42" font-family="Helvetica,sans-Serif" font-size="10.00" fill="#63b8ff">3</text>
</a>
</g>
</g>
<!-- dir_b162de5198c9f4bbd2b542e6f26dd706&#45;&gt;dir_25574c5e008893c4c2436587c1675f55 -->
<g id="edge5" class="edge">
<title>dir_b162de5198c9f4bbd2b542e6f26dd706&#45;&gt;dir_25574c5e008893c4c2436587c1675f55</title>
<g id="a_edge5"><a xlink:href="dir_000441_000390.html" target="_top">
<path fill="none" stroke="#63b8ff" d="M261.22,-71.08C258.16,-68.33 254.59,-65.45 251,-63.25 235.12,-53.54 216.21,-45.49 199.68,-39.44"/>
<polygon fill="#63b8ff" stroke="#63b8ff" points="201.24,-36.27 190.65,-36.25 198.91,-42.88 201.24,-36.27"/>
</a>
</g>
<g id="a_edge5&#45;headlabel"><a xlink:href="dir_000441_000390.html" target="_top" xlink:title="3">
<text text-anchor="middle" x="204.15" y="-30.41" font-family="Helvetica,sans-Serif" font-size="10.00" fill="#63b8ff">3</text>
</a>
</g>
</g>
<!-- dir_b162de5198c9f4bbd2b542e6f26dd706&#45;&gt;dir_eaab8e706d9785a8277b333b3fa3c104 -->
<g id="edge10" class="edge">
<title>dir_b162de5198c9f4bbd2b542e6f26dd706&#45;&gt;dir_eaab8e706d9785a8277b333b3fa3c104</title>
<g id="a_edge10"><a xlink:href="dir_000441_000011.html" target="_top">
<path fill="none" stroke="#63b8ff" d="M263.73,-71.08C258.64,-63.96 251.3,-53.68 244.97,-44.8"/>
<polygon fill="#63b8ff" stroke="#63b8ff" points="247.95,-42.95 239.29,-36.84 242.25,-47.01 247.95,-42.95"/>
</a>
</g>
<g id="a_edge10&#45;headlabel"><a xlink:href="dir_000441_000011.html" target="_top" xlink:title="1">
<text text-anchor="middle" x="251.47" y="-39.12" font-family="Helvetica,sans-Serif" font-size="10.00" fill="#63b8ff">1</text>
</a>
</g>
</g>
<!-- dir_b162de5198c9f4bbd2b542e6f26dd706&#45;&gt;dir_a64e56b30f5ca31a10654cea03375984 -->
<g id="edge7" class="edge">
<title>dir_b162de5198c9f4bbd2b542e6f26dd706&#45;&gt;dir_a64e56b30f5ca31a10654cea03375984</title>
<g id="a_edge7"><a xlink:href="dir_000441_000175.html" target="_top">
<path fill="none" stroke="#63b8ff" d="M261.8,-71.06C258.68,-68.17 254.92,-65.21 251,-63.25 200.02,-37.79 178.48,-50.47 120.78,-35.6"/>
<polygon fill="#63b8ff" stroke="#63b8ff" points="122.01,-32.31 111.44,-33.02 120.15,-39.06 122.01,-32.31"/>
</a>
</g>
<g id="a_edge7&#45;headlabel"><a xlink:href="dir_000441_000175.html" target="_top" xlink:title="1">
<text text-anchor="middle" x="124.78" y="-26.26" font-family="Helvetica,sans-Serif" font-size="10.00" fill="#63b8ff">1</text>
</a>
</g>
</g>
<!-- dir_b162de5198c9f4bbd2b542e6f26dd706&#45;&gt;dir_8733facd8898a2d6fdd00bfe7e8bfefd -->
<g id="edge6" class="edge">
<title>dir_b162de5198c9f4bbd2b542e6f26dd706&#45;&gt;dir_8733facd8898a2d6fdd00bfe7e8bfefd</title>
<g id="a_edge6"><a xlink:href="dir_000441_000265.html" target="_top">
<path fill="none" stroke="#63b8ff" d="M277.57,-90.86C280.71,-97.5 283.6,-106.8 285.31,-115.17"/>
<polygon fill="#63b8ff" stroke="#63b8ff" points="281.81,-115.41 286.65,-124.83 288.74,-114.45 281.81,-115.41"/>
</a>
</g>
<g id="a_edge6&#45;headlabel"><a xlink:href="dir_000441_000265.html" target="_top" xlink:title="1">
<text text-anchor="middle" x="278.71" y="-109.86" font-family="Helvetica,sans-Serif" font-size="10.00" fill="#63b8ff">1</text>
</a>
</g>
</g>
<!-- dir_bbc7c2c1f127b379ce39be24c4bd3dbe -->
<g id="node14" class="node">
<title>dir_bbc7c2c1f127b379ce39be24c4bd3dbe</title>
<g id="a_node14"><a xlink:href="dir_bbc7c2c1f127b379ce39be24c4bd3dbe.html" target="_top" xlink:title="build">
<polygon fill="#edf0f7" stroke="red" stroke-dasharray="5,2" points="478.12,-35.25 441.88,-35.25 441.88,-16 478.12,-16 478.12,-35.25"/>
<text text-anchor="middle" x="460" y="-21.75" font-family="Helvetica,sans-Serif" font-size="10.00">build</text>
</a>
</g>
</g>
<!-- dir_b162de5198c9f4bbd2b542e6f26dd706&#45;&gt;dir_bbc7c2c1f127b379ce39be24c4bd3dbe -->
<g id="edge9" class="edge">
<title>dir_b162de5198c9f4bbd2b542e6f26dd706&#45;&gt;dir_bbc7c2c1f127b379ce39be24c4bd3dbe</title>
<g id="a_edge9"><a xlink:href="dir_000441_000030.html" target="_top">
<path fill="none" stroke="#63b8ff" d="M285.23,-76.23C312.88,-69.51 373.38,-54.39 430.77,-36.78"/>
<polygon fill="#63b8ff" stroke="#63b8ff" points="431.49,-40.22 440,-33.91 429.41,-33.54 431.49,-40.22"/>
</a>
</g>
<g id="a_edge9&#45;headlabel"><a xlink:href="dir_000441_000030.html" target="_top" xlink:title="2">
<text text-anchor="middle" x="430.35" y="-39.68" font-family="Helvetica,sans-Serif" font-size="10.00" fill="#63b8ff">2</text>
</a>
</g>
</g>
</g>
</svg>
