<?xml version="1.0" encoding="UTF-8" standalone="no"?>
<!DOCTYPE svg PUBLIC "-//W3C//DTD SVG 1.1//EN"
 "http://www.w3.org/Graphics/SVG/1.1/DTD/svg11.dtd">
<!-- Generated by graphviz version 9.0.0 (20230911.1827)
 -->
<!-- Title: /github/workspace/dev_area/sourcecode/readoutmodules Pages: 1 -->
<svg width="421pt" height="142pt"
 viewBox="0.00 0.00 421.12 141.75" xmlns="http://www.w3.org/2000/svg" xmlns:xlink="http://www.w3.org/1999/xlink">
<g id="graph0" class="graph" transform="scale(1 1) rotate(0) translate(4 137.75)">
<title>/github/workspace/dev_area/sourcecode/readoutmodules</title>
<g id="clust1" class="cluster">
<title>clusterdir_e594a494f7a60e5bf534551500b27d35</title>
<g id="a_clust1"><a xlink:href="dir_e594a494f7a60e5bf534551500b27d35.html" target="_top" xlink:title="sourcecode">
<polygon fill="#edf0f7" stroke="#7f7f7f" stroke-dasharray="5,2" points="8,-8 8,-125.75 367,-125.75 367,-8 8,-8"/>
<text text-anchor="middle" x="187.5" y="-112.25" font-family="Helvetica,sans-Serif" font-size="10.00">sourcecode</text>
</a>
</g>
</g>
<g id="clust2" class="cluster">
<title>clusterdir_113ae0be4a1ed868cbf7930a360215fb</title>
<g id="a_clust2"><a xlink:href="dir_113ae0be4a1ed868cbf7930a360215fb.html" target="_top">
<polygon fill="#edf0f7" stroke="#404040" stroke-width="2" points="138,-63.25 138,-98.5 359,-98.5 359,-63.25 138,-63.25"/>
</a>
</g>
</g>
<!-- dir_25574c5e008893c4c2436587c1675f55 -->
<g id="node1" class="node">
<title>dir_25574c5e008893c4c2436587c1675f55</title>
<g id="a_node1"><a xlink:href="dir_25574c5e008893c4c2436587c1675f55.html" target="_top" xlink:title="readoutlibs">
<polygon fill="#a2b4d6" stroke="red" points="79.62,-35.25 16.38,-35.25 16.38,-16 79.62,-16 79.62,-35.25"/>
<text text-anchor="middle" x="48" y="-21.75" font-family="Helvetica,sans-Serif" font-size="10.00">readoutlibs</text>
</a>
</g>
</g>
<!-- dir_d6186462c2ecf8bc2243dcff615e0cdf -->
<g id="node2" class="node">
<title>dir_d6186462c2ecf8bc2243dcff615e0cdf</title>
<g id="a_node2"><a xlink:href="dir_d6186462c2ecf8bc2243dcff615e0cdf.html" target="_top" xlink:title="daqdataformats">
<polygon fill="#a2b4d6" stroke="red" points="180.75,-35.25 97.25,-35.25 97.25,-16 180.75,-16 180.75,-35.25"/>
<text text-anchor="middle" x="139" y="-21.75" font-family="Helvetica,sans-Serif" font-size="10.00">daqdataformats</text>
</a>
</g>
</g>
<!-- dir_f74a706a7efda297e6d8fb2c03527fc2 -->
<g id="node3" class="node">
<title>dir_f74a706a7efda297e6d8fb2c03527fc2</title>
<g id="a_node3"><a xlink:href="dir_f74a706a7efda297e6d8fb2c03527fc2.html" target="_top" xlink:title="logging">
<polygon fill="#a2b4d6" stroke="red" points="245.38,-35.25 198.62,-35.25 198.62,-16 245.38,-16 245.38,-35.25"/>
<text text-anchor="middle" x="222" y="-21.75" font-family="Helvetica,sans-Serif" font-size="10.00">logging</text>
</a>
</g>
</g>
<!-- dir_eaab8e706d9785a8277b333b3fa3c104 -->
<g id="node4" class="node">
<title>dir_eaab8e706d9785a8277b333b3fa3c104</title>
<g id="a_node4"><a xlink:href="dir_eaab8e706d9785a8277b333b3fa3c104.html" target="_top" xlink:title="appfwk">
<polygon fill="#a2b4d6" stroke="red" points="310.75,-35.25 263.25,-35.25 263.25,-16 310.75,-16 310.75,-35.25"/>
<text text-anchor="middle" x="287" y="-21.75" font-family="Helvetica,sans-Serif" font-size="10.00">appfwk</text>
</a>
</g>
</g>
<!-- dir_a64e56b30f5ca31a10654cea03375984 -->
<g id="node5" class="node">
<title>dir_a64e56b30f5ca31a10654cea03375984</title>
<g id="a_node5"><a xlink:href="dir_a64e56b30f5ca31a10654cea03375984.html" target="_top" xlink:title="ers">
<polygon fill="#a2b4d6" stroke="red" points="358.75,-35.25 329.25,-35.25 329.25,-16 358.75,-16 358.75,-35.25"/>
<text text-anchor="middle" x="344" y="-21.75" font-family="Helvetica,sans-Serif" font-size="10.00">ers</text>
</a>
</g>
</g>
<!-- dir_113ae0be4a1ed868cbf7930a360215fb -->
<g id="node6" class="node">
<title>dir_113ae0be4a1ed868cbf7930a360215fb</title>
<text text-anchor="middle" x="308" y="-77" font-family="Helvetica,sans-Serif" font-size="10.00">readoutmodules</text>
</g>
<!-- dir_b1b75915e180466cd8b17da8d0c81be5 -->
<g id="node7" class="node">
<title>dir_b1b75915e180466cd8b17da8d0c81be5</title>
<g id="a_node7"><a xlink:href="dir_b1b75915e180466cd8b17da8d0c81be5.html" target="_top" xlink:title="docs">
<polygon fill="#a2b4d6" stroke="#404040" points="247.5,-90.5 210.5,-90.5 210.5,-71.25 247.5,-71.25 247.5,-90.5"/>
<text text-anchor="middle" x="229" y="-77" font-family="Helvetica,sans-Serif" font-size="10.00">docs</text>
</a>
</g>
</g>
<!-- dir_c5d6f5f33a6e020fd9bfba7017c88869 -->
<g id="node8" class="node">
<title>dir_c5d6f5f33a6e020fd9bfba7017c88869</title>
<g id="a_node8"><a xlink:href="dir_c5d6f5f33a6e020fd9bfba7017c88869.html" target="_top" xlink:title="include">
<polygon fill="#a2b4d6" stroke="#404040" points="192.38,-90.5 145.62,-90.5 145.62,-71.25 192.38,-71.25 192.38,-90.5"/>
<text text-anchor="middle" x="169" y="-77" font-family="Helvetica,sans-Serif" font-size="10.00">include</text>
</a>
</g>
</g>
<!-- dir_c5d6f5f33a6e020fd9bfba7017c88869&#45;&gt;dir_25574c5e008893c4c2436587c1675f55 -->
<g id="edge1" class="edge">
<title>dir_c5d6f5f33a6e020fd9bfba7017c88869&#45;&gt;dir_25574c5e008893c4c2436587c1675f55</title>
<g id="a_edge1"><a xlink:href="dir_000279_000390.html" target="_top">
<path fill="none" stroke="#63b8ff" d="M148.47,-70.84C129.44,-62.47 100.85,-49.88 79.03,-40.28"/>
<polygon fill="#63b8ff" stroke="#63b8ff" points="80.57,-37.14 70.01,-36.31 77.76,-43.54 80.57,-37.14"/>
</a>
</g>
<g id="a_edge1&#45;headlabel"><a xlink:href="dir_000279_000390.html" target="_top" xlink:title="5">
<text text-anchor="middle" x="83.62" y="-31.5" font-family="Helvetica,sans-Serif" font-size="10.00" fill="#63b8ff">5</text>
</a>
</g>
</g>
<!-- dir_c5d6f5f33a6e020fd9bfba7017c88869&#45;&gt;dir_d6186462c2ecf8bc2243dcff615e0cdf -->
<g id="edge2" class="edge">
<title>dir_c5d6f5f33a6e020fd9bfba7017c88869&#45;&gt;dir_d6186462c2ecf8bc2243dcff615e0cdf</title>
<g id="a_edge2"><a xlink:href="dir_000279_000082.html" target="_top">
<path fill="none" stroke="#63b8ff" d="M164.05,-71.08C160.12,-64.11 154.49,-54.12 149.56,-45.37"/>
<polygon fill="#63b8ff" stroke="#63b8ff" points="152.76,-43.92 144.8,-36.93 146.66,-47.36 152.76,-43.92"/>
</a>
</g>
<g id="a_edge2&#45;headlabel"><a xlink:href="dir_000279_000082.html" target="_top" xlink:title="2">
<text text-anchor="middle" x="156.26" y="-40.47" font-family="Helvetica,sans-Serif" font-size="10.00" fill="#63b8ff">2</text>
</a>
</g>
</g>
<!-- dir_c5d6f5f33a6e020fd9bfba7017c88869&#45;&gt;dir_f74a706a7efda297e6d8fb2c03527fc2 -->
<g id="edge3" class="edge">
<title>dir_c5d6f5f33a6e020fd9bfba7017c88869&#45;&gt;dir_f74a706a7efda297e6d8fb2c03527fc2</title>
<g id="a_edge3"><a xlink:href="dir_000279_000308.html" target="_top">
<path fill="none" stroke="#63b8ff" d="M177.75,-71.08C185.15,-63.65 195.96,-52.79 205.05,-43.66"/>
<polygon fill="#63b8ff" stroke="#63b8ff" points="207.42,-46.24 211.99,-36.68 202.46,-41.3 207.42,-46.24"/>
</a>
</g>
<g id="a_edge3&#45;headlabel"><a xlink:href="dir_000279_000308.html" target="_top" xlink:title="1">
<text text-anchor="middle" x="207.96" y="-45.84" font-family="Helvetica,sans-Serif" font-size="10.00" fill="#63b8ff">1</text>
</a>
</g>
</g>
<!-- dir_c5d6f5f33a6e020fd9bfba7017c88869&#45;&gt;dir_eaab8e706d9785a8277b333b3fa3c104 -->
<g id="edge5" class="edge">
<title>dir_c5d6f5f33a6e020fd9bfba7017c88869&#45;&gt;dir_eaab8e706d9785a8277b333b3fa3c104</title>
<g id="a_edge5"><a xlink:href="dir_000279_000011.html" target="_top">
<path fill="none" stroke="#63b8ff" d="M186.37,-70.88C191.39,-68.35 196.88,-65.64 202,-63.25 219.27,-55.19 238.79,-46.73 254.76,-39.98"/>
<polygon fill="#63b8ff" stroke="#63b8ff" points="255.92,-43.29 263.78,-36.19 253.21,-36.84 255.92,-43.29"/>
</a>
</g>
<g id="a_edge5&#45;headlabel"><a xlink:href="dir_000279_000011.html" target="_top" xlink:title="2">
<text text-anchor="middle" x="255.1" y="-42.84" font-family="Helvetica,sans-Serif" font-size="10.00" fill="#63b8ff">2</text>
</a>
</g>
</g>
<!-- dir_c5d6f5f33a6e020fd9bfba7017c88869&#45;&gt;dir_a64e56b30f5ca31a10654cea03375984 -->
<g id="edge6" class="edge">
<title>dir_c5d6f5f33a6e020fd9bfba7017c88869&#45;&gt;dir_a64e56b30f5ca31a10654cea03375984</title>
<g id="a_edge6"><a xlink:href="dir_000279_000175.html" target="_top">
<path fill="none" stroke="#63b8ff" d="M185.11,-70.81C190.38,-68.11 196.34,-65.32 202,-63.25 249.47,-45.93 266.24,-49.98 318.01,-35.51"/>
<polygon fill="#63b8ff" stroke="#63b8ff" points="318.77,-38.93 327.4,-32.78 316.82,-32.21 318.77,-38.93"/>
</a>
</g>
<g id="a_edge6&#45;headlabel"><a xlink:href="dir_000279_000175.html" target="_top" xlink:title="1">
<text text-anchor="middle" x="317.57" y="-38.37" font-family="Helvetica,sans-Serif" font-size="10.00" fill="#63b8ff">1</text>
</a>
</g>
</g>
<!-- dir_bbc7c2c1f127b379ce39be24c4bd3dbe -->
<g id="node9" class="node">
<title>dir_bbc7c2c1f127b379ce39be24c4bd3dbe</title>
<g id="a_node9"><a xlink:href="dir_bbc7c2c1f127b379ce39be24c4bd3dbe.html" target="_top" xlink:title="build">
<polygon fill="#edf0f7" stroke="red" stroke-dasharray="5,2" points="413.12,-35.25 376.88,-35.25 376.88,-16 413.12,-16 413.12,-35.25"/>
<text text-anchor="middle" x="395" y="-21.75" font-family="Helvetica,sans-Serif" font-size="10.00">build</text>
</a>
</g>
</g>
<!-- dir_c5d6f5f33a6e020fd9bfba7017c88869&#45;&gt;dir_bbc7c2c1f127b379ce39be24c4bd3dbe -->
<g id="edge4" class="edge">
<title>dir_c5d6f5f33a6e020fd9bfba7017c88869&#45;&gt;dir_bbc7c2c1f127b379ce39be24c4bd3dbe</title>
<g id="a_edge4"><a xlink:href="dir_000279_000030.html" target="_top">
<path fill="none" stroke="#63b8ff" d="M184.36,-70.92C189.79,-68.09 196.02,-65.2 202,-63.25 270.99,-40.74 295.06,-53.12 365.72,-36.34"/>
<polygon fill="#63b8ff" stroke="#63b8ff" points="366.18,-39.84 375.03,-34.02 364.48,-33.05 366.18,-39.84"/>
</a>
</g>
<g id="a_edge4&#45;headlabel"><a xlink:href="dir_000279_000030.html" target="_top" xlink:title="9">
<text text-anchor="middle" x="364.85" y="-39.22" font-family="Helvetica,sans-Serif" font-size="10.00" fill="#63b8ff">9</text>
</a>
</g>
</g>
</g>
</svg>
