<?xml version="1.0" encoding="UTF-8" standalone="no"?>
<!DOCTYPE svg PUBLIC "-//W3C//DTD SVG 1.1//EN"
 "http://www.w3.org/Graphics/SVG/1.1/DTD/svg11.dtd">
<!-- Generated by graphviz version 9.0.0 (20230911.1827)
 -->
<!-- Title: /github/workspace/dev_area/sourcecode/trigger Pages: 1 -->
<svg width="624pt" height="197pt"
 viewBox="0.00 0.00 624.12 197.00" xmlns="http://www.w3.org/2000/svg" xmlns:xlink="http://www.w3.org/1999/xlink">
<g id="graph0" class="graph" transform="scale(1 1) rotate(0) translate(4 193)">
<title>/github/workspace/dev_area/sourcecode/trigger</title>
<g id="clust1" class="cluster">
<title>clusterdir_e594a494f7a60e5bf534551500b27d35</title>
<g id="a_clust1"><a xlink:href="dir_e594a494f7a60e5bf534551500b27d35.html" target="_top" xlink:title="sourcecode">
<polygon fill="#edf0f7" stroke="#7f7f7f" stroke-dasharray="5,2" points="8,-8 8,-181 569,-181 569,-8 8,-8"/>
<text text-anchor="middle" x="288.5" y="-167.5" font-family="Helvetica,sans-Serif" font-size="10.00">sourcecode</text>
</a>
</g>
</g>
<g id="clust2" class="cluster">
<title>clusterdir_5365a3767b7bcdec829ecb94aa09817f</title>
<g id="a_clust2"><a xlink:href="dir_5365a3767b7bcdec829ecb94aa09817f.html" target="_top">
<polygon fill="#edf0f7" stroke="#404040" stroke-width="2" points="117,-63.25 117,-153.75 342,-153.75 342,-63.25 117,-63.25"/>
</a>
</g>
</g>
<!-- dir_25574c5e008893c4c2436587c1675f55 -->
<g id="node1" class="node">
<title>dir_25574c5e008893c4c2436587c1675f55</title>
<g id="a_node1"><a xlink:href="dir_25574c5e008893c4c2436587c1675f55.html" target="_top" xlink:title="readoutlibs">
<polygon fill="#a2b4d6" stroke="red" points="108.62,-90.5 45.38,-90.5 45.38,-71.25 108.62,-71.25 108.62,-90.5"/>
<text text-anchor="middle" x="77" y="-77" font-family="Helvetica,sans-Serif" font-size="10.00">readoutlibs</text>
</a>
</g>
</g>
<!-- dir_ab1b54331b4bb0c44e7fcd5a7d20111e -->
<g id="node2" class="node">
<title>dir_ab1b54331b4bb0c44e7fcd5a7d20111e</title>
<g id="a_node2"><a xlink:href="dir_ab1b54331b4bb0c44e7fcd5a7d20111e.html" target="_top" xlink:title="iomanager">
<polygon fill="#a2b4d6" stroke="red" points="77.5,-35.25 16.5,-35.25 16.5,-16 77.5,-16 77.5,-35.25"/>
<text text-anchor="middle" x="47" y="-21.75" font-family="Helvetica,sans-Serif" font-size="10.00">iomanager</text>
</a>
</g>
</g>
<!-- dir_f74a706a7efda297e6d8fb2c03527fc2 -->
<g id="node3" class="node">
<title>dir_f74a706a7efda297e6d8fb2c03527fc2</title>
<g id="a_node3"><a xlink:href="dir_f74a706a7efda297e6d8fb2c03527fc2.html" target="_top" xlink:title="logging">
<polygon fill="#a2b4d6" stroke="red" points="561.38,-90.5 514.62,-90.5 514.62,-71.25 561.38,-71.25 561.38,-90.5"/>
<text text-anchor="middle" x="538" y="-77" font-family="Helvetica,sans-Serif" font-size="10.00">logging</text>
</a>
</g>
</g>
<!-- dir_eaab8e706d9785a8277b333b3fa3c104 -->
<g id="node4" class="node">
<title>dir_eaab8e706d9785a8277b333b3fa3c104</title>
<g id="a_node4"><a xlink:href="dir_eaab8e706d9785a8277b333b3fa3c104.html" target="_top" xlink:title="appfwk">
<polygon fill="#a2b4d6" stroke="red" points="274.75,-35.25 227.25,-35.25 227.25,-16 274.75,-16 274.75,-35.25"/>
<text text-anchor="middle" x="251" y="-21.75" font-family="Helvetica,sans-Serif" font-size="10.00">appfwk</text>
</a>
</g>
</g>
<!-- dir_d6186462c2ecf8bc2243dcff615e0cdf -->
<g id="node5" class="node">
<title>dir_d6186462c2ecf8bc2243dcff615e0cdf</title>
<g id="a_node5"><a xlink:href="dir_d6186462c2ecf8bc2243dcff615e0cdf.html" target="_top" xlink:title="daqdataformats">
<polygon fill="#a2b4d6" stroke="red" points="376.75,-35.25 293.25,-35.25 293.25,-16 376.75,-16 376.75,-35.25"/>
<text text-anchor="middle" x="335" y="-21.75" font-family="Helvetica,sans-Serif" font-size="10.00">daqdataformats</text>
</a>
</g>
</g>
<!-- dir_a64e56b30f5ca31a10654cea03375984 -->
<g id="node6" class="node">
<title>dir_a64e56b30f5ca31a10654cea03375984</title>
<g id="a_node6"><a xlink:href="dir_a64e56b30f5ca31a10654cea03375984.html" target="_top" xlink:title="ers">
<polygon fill="#a2b4d6" stroke="red" points="124.75,-35.25 95.25,-35.25 95.25,-16 124.75,-16 124.75,-35.25"/>
<text text-anchor="middle" x="110" y="-21.75" font-family="Helvetica,sans-Serif" font-size="10.00">ers</text>
</a>
</g>
</g>
<!-- dir_d1e2a2554d257d865d12dd7826332eac -->
<g id="node7" class="node">
<title>dir_d1e2a2554d257d865d12dd7826332eac</title>
<g id="a_node7"><a xlink:href="dir_d1e2a2554d257d865d12dd7826332eac.html" target="_top" xlink:title="trgdataformats">
<polygon fill="#a2b4d6" stroke="red" points="473.5,-35.25 394.5,-35.25 394.5,-16 473.5,-16 473.5,-35.25"/>
<text text-anchor="middle" x="434" y="-21.75" font-family="Helvetica,sans-Serif" font-size="10.00">trgdataformats</text>
</a>
</g>
</g>
<!-- dir_c1d57bfadd68378fc3d59efca0edc545 -->
<g id="node8" class="node">
<title>dir_c1d57bfadd68378fc3d59efca0edc545</title>
<g id="a_node8"><a xlink:href="dir_c1d57bfadd68378fc3d59efca0edc545.html" target="_top" xlink:title="dfmessages">
<polygon fill="#a2b4d6" stroke="red" points="560.62,-35.25 491.38,-35.25 491.38,-16 560.62,-16 560.62,-35.25"/>
<text text-anchor="middle" x="526" y="-21.75" font-family="Helvetica,sans-Serif" font-size="10.00">dfmessages</text>
</a>
</g>
</g>
<!-- dir_6d314bedead70032a242c6ced44852ea -->
<g id="node9" class="node">
<title>dir_6d314bedead70032a242c6ced44852ea</title>
<g id="a_node9"><a xlink:href="dir_6d314bedead70032a242c6ced44852ea.html" target="_top" xlink:title="serialization">
<polygon fill="#a2b4d6" stroke="red" points="209.5,-35.25 142.5,-35.25 142.5,-16 209.5,-16 209.5,-35.25"/>
<text text-anchor="middle" x="176" y="-21.75" font-family="Helvetica,sans-Serif" font-size="10.00">serialization</text>
</a>
</g>
</g>
<!-- dir_49997343c4c8eab520bf1e45b9cad06f -->
<g id="node10" class="node">
<title>dir_49997343c4c8eab520bf1e45b9cad06f</title>
<g id="a_node10"><a xlink:href="dir_49997343c4c8eab520bf1e45b9cad06f.html" target="_top" xlink:title="detdataformats">
<polygon fill="#a2b4d6" stroke="red" points="431.62,-90.5 350.38,-90.5 350.38,-71.25 431.62,-71.25 431.62,-90.5"/>
<text text-anchor="middle" x="391" y="-77" font-family="Helvetica,sans-Serif" font-size="10.00">detdataformats</text>
</a>
</g>
</g>
<!-- dir_934fd243b40ff671fa1d708949b38ec2 -->
<g id="node11" class="node">
<title>dir_934fd243b40ff671fa1d708949b38ec2</title>
<g id="a_node11"><a xlink:href="dir_934fd243b40ff671fa1d708949b38ec2.html" target="_top" xlink:title="utilities">
<polygon fill="#a2b4d6" stroke="red" points="496.38,-90.5 449.62,-90.5 449.62,-71.25 496.38,-71.25 496.38,-90.5"/>
<text text-anchor="middle" x="473" y="-77" font-family="Helvetica,sans-Serif" font-size="10.00">utilities</text>
</a>
</g>
</g>
<!-- dir_5365a3767b7bcdec829ecb94aa09817f -->
<g id="node12" class="node">
<title>dir_5365a3767b7bcdec829ecb94aa09817f</title>
<text text-anchor="middle" x="312" y="-132.25" font-family="Helvetica,sans-Serif" font-size="10.00">trigger</text>
</g>
<!-- dir_2abf7def1804e218fd3cbf4e792f30cf -->
<g id="node13" class="node">
<title>dir_2abf7def1804e218fd3cbf4e792f30cf</title>
<g id="a_node13"><a xlink:href="dir_2abf7def1804e218fd3cbf4e792f30cf.html" target="_top" xlink:title="docs">
<polygon fill="#a2b4d6" stroke="#404040" points="272.5,-145.75 235.5,-145.75 235.5,-126.5 272.5,-126.5 272.5,-145.75"/>
<text text-anchor="middle" x="254" y="-132.25" font-family="Helvetica,sans-Serif" font-size="10.00">docs</text>
</a>
</g>
</g>
<!-- dir_94a422dfe88b8a34de375c069646845f -->
<g id="node14" class="node">
<title>dir_94a422dfe88b8a34de375c069646845f</title>
<g id="a_node14"><a xlink:href="dir_94a422dfe88b8a34de375c069646845f.html" target="_top" xlink:title="include">
<polygon fill="#a2b4d6" stroke="#404040" points="201.38,-90.5 154.62,-90.5 154.62,-71.25 201.38,-71.25 201.38,-90.5"/>
<text text-anchor="middle" x="178" y="-77" font-family="Helvetica,sans-Serif" font-size="10.00">include</text>
</a>
</g>
</g>
<!-- dir_94a422dfe88b8a34de375c069646845f&#45;&gt;dir_ab1b54331b4bb0c44e7fcd5a7d20111e -->
<g id="edge7" class="edge">
<title>dir_94a422dfe88b8a34de375c069646845f&#45;&gt;dir_ab1b54331b4bb0c44e7fcd5a7d20111e</title>
<g id="a_edge7"><a xlink:href="dir_000285_000293.html" target="_top">
<path fill="none" stroke="#63b8ff" d="M164.58,-70.83C160.34,-68.19 155.57,-65.43 151,-63.25 131.07,-53.74 107.98,-45.36 88.63,-39.03"/>
<polygon fill="#63b8ff" stroke="#63b8ff" points="89.76,-35.71 79.16,-36 87.62,-42.38 89.76,-35.71"/>
</a>
</g>
<g id="a_edge7&#45;headlabel"><a xlink:href="dir_000285_000293.html" target="_top" xlink:title="1">
<text text-anchor="middle" x="92.6" y="-29.77" font-family="Helvetica,sans-Serif" font-size="10.00" fill="#63b8ff">1</text>
</a>
</g>
</g>
<!-- dir_94a422dfe88b8a34de375c069646845f&#45;&gt;dir_eaab8e706d9785a8277b333b3fa3c104 -->
<g id="edge1" class="edge">
<title>dir_94a422dfe88b8a34de375c069646845f&#45;&gt;dir_eaab8e706d9785a8277b333b3fa3c104</title>
<g id="a_edge1"><a xlink:href="dir_000285_000011.html" target="_top">
<path fill="none" stroke="#63b8ff" d="M190.38,-70.84C201.15,-62.99 216.97,-51.45 229.75,-42.12"/>
<polygon fill="#63b8ff" stroke="#63b8ff" points="231.56,-45.14 237.58,-36.42 227.44,-39.48 231.56,-45.14"/>
</a>
</g>
<g id="a_edge1&#45;headlabel"><a xlink:href="dir_000285_000011.html" target="_top" xlink:title="1">
<text text-anchor="middle" x="231.55" y="-44.78" font-family="Helvetica,sans-Serif" font-size="10.00" fill="#63b8ff">1</text>
</a>
</g>
</g>
<!-- dir_94a422dfe88b8a34de375c069646845f&#45;&gt;dir_d6186462c2ecf8bc2243dcff615e0cdf -->
<g id="edge2" class="edge">
<title>dir_94a422dfe88b8a34de375c069646845f&#45;&gt;dir_d6186462c2ecf8bc2243dcff615e0cdf</title>
<g id="a_edge2"><a xlink:href="dir_000285_000082.html" target="_top">
<path fill="none" stroke="#63b8ff" d="M191.06,-70.82C195.36,-68.12 200.26,-65.33 205,-63.25 229.47,-52.52 257.91,-44.08 281.95,-38.03"/>
<polygon fill="#63b8ff" stroke="#63b8ff" points="282.64,-41.46 291.53,-35.69 280.98,-34.66 282.64,-41.46"/>
</a>
</g>
<g id="a_edge2&#45;headlabel"><a xlink:href="dir_000285_000082.html" target="_top" xlink:title="8">
<text text-anchor="middle" x="281.29" y="-40.84" font-family="Helvetica,sans-Serif" font-size="10.00" fill="#63b8ff">8</text>
</a>
</g>
</g>
<!-- dir_94a422dfe88b8a34de375c069646845f&#45;&gt;dir_a64e56b30f5ca31a10654cea03375984 -->
<g id="edge3" class="edge">
<title>dir_94a422dfe88b8a34de375c069646845f&#45;&gt;dir_a64e56b30f5ca31a10654cea03375984</title>
<g id="a_edge3"><a xlink:href="dir_000285_000175.html" target="_top">
<path fill="none" stroke="#63b8ff" d="M166.46,-70.84C156.54,-63.07 141.99,-51.67 130.14,-42.4"/>
<polygon fill="#63b8ff" stroke="#63b8ff" points="132.59,-39.87 122.56,-36.46 128.27,-45.38 132.59,-39.87"/>
</a>
</g>
<g id="a_edge3&#45;headlabel"><a xlink:href="dir_000285_000175.html" target="_top" xlink:title="1">
<text text-anchor="middle" x="135.98" y="-35.04" font-family="Helvetica,sans-Serif" font-size="10.00" fill="#63b8ff">1</text>
</a>
</g>
</g>
<!-- dir_94a422dfe88b8a34de375c069646845f&#45;&gt;dir_d1e2a2554d257d865d12dd7826332eac -->
<g id="edge4" class="edge">
<title>dir_94a422dfe88b8a34de375c069646845f&#45;&gt;dir_d1e2a2554d257d865d12dd7826332eac</title>
<g id="a_edge4"><a xlink:href="dir_000285_000502.html" target="_top">
<path fill="none" stroke="#63b8ff" d="M190.37,-70.82C194.79,-67.99 199.94,-65.11 205,-63.25 278.11,-36.34 303.53,-47.58 383.14,-35.61"/>
<polygon fill="#63b8ff" stroke="#63b8ff" points="383.38,-39.12 392.71,-34.09 382.28,-32.2 383.38,-39.12"/>
</a>
</g>
<g id="a_edge4&#45;headlabel"><a xlink:href="dir_000285_000502.html" target="_top" xlink:title="5">
<text text-anchor="middle" x="381.77" y="-38.37" font-family="Helvetica,sans-Serif" font-size="10.00" fill="#63b8ff">5</text>
</a>
</g>
</g>
<!-- dir_94a422dfe88b8a34de375c069646845f&#45;&gt;dir_c1d57bfadd68378fc3d59efca0edc545 -->
<g id="edge5" class="edge">
<title>dir_94a422dfe88b8a34de375c069646845f&#45;&gt;dir_c1d57bfadd68378fc3d59efca0edc545</title>
<g id="a_edge5"><a xlink:href="dir_000285_000117.html" target="_top">
<path fill="none" stroke="#63b8ff" d="M190.05,-70.84C194.52,-67.94 199.79,-65.01 205,-63.25 319.19,-24.63 357.93,-51.99 480.03,-35.5"/>
<polygon fill="#63b8ff" stroke="#63b8ff" points="480.42,-38.98 489.82,-34.1 479.42,-32.05 480.42,-38.98"/>
</a>
</g>
<g id="a_edge5&#45;headlabel"><a xlink:href="dir_000285_000117.html" target="_top" xlink:title="3">
<text text-anchor="middle" x="478.76" y="-38.21" font-family="Helvetica,sans-Serif" font-size="10.00" fill="#63b8ff">3</text>
</a>
</g>
</g>
<!-- dir_94a422dfe88b8a34de375c069646845f&#45;&gt;dir_6d314bedead70032a242c6ced44852ea -->
<g id="edge6" class="edge">
<title>dir_94a422dfe88b8a34de375c069646845f&#45;&gt;dir_6d314bedead70032a242c6ced44852ea</title>
<g id="a_edge6"><a xlink:href="dir_000285_000416.html" target="_top">
<path fill="none" stroke="#63b8ff" d="M177.67,-71.08C177.42,-64.49 177.07,-55.21 176.76,-46.82"/>
<polygon fill="#63b8ff" stroke="#63b8ff" points="180.27,-46.98 176.39,-37.12 173.27,-47.25 180.27,-46.98"/>
</a>
</g>
<g id="a_edge6&#45;headlabel"><a xlink:href="dir_000285_000416.html" target="_top" xlink:title="6">
<text text-anchor="middle" x="183.18" y="-45.08" font-family="Helvetica,sans-Serif" font-size="10.00" fill="#63b8ff">6</text>
</a>
</g>
</g>
<!-- dir_34745f8cf30ee2f16efb62f0b11752fc -->
<g id="node15" class="node">
<title>dir_34745f8cf30ee2f16efb62f0b11752fc</title>
<g id="a_node15"><a xlink:href="dir_34745f8cf30ee2f16efb62f0b11752fc.html" target="_top" xlink:title="python">
<polygon fill="#a2b4d6" stroke="#404040" points="217.25,-145.75 172.75,-145.75 172.75,-126.5 217.25,-126.5 217.25,-145.75"/>
<text text-anchor="middle" x="195" y="-132.25" font-family="Helvetica,sans-Serif" font-size="10.00">python</text>
</a>
</g>
</g>
<!-- dir_a497a178e6875b876cebacdebeb7ee61 -->
<g id="node16" class="node">
<title>dir_a497a178e6875b876cebacdebeb7ee61</title>
<g id="a_node16"><a xlink:href="dir_a497a178e6875b876cebacdebeb7ee61.html" target="_top" xlink:title="src">
<polygon fill="#a2b4d6" stroke="#404040" points="154.75,-145.75 125.25,-145.75 125.25,-126.5 154.75,-126.5 154.75,-145.75"/>
<text text-anchor="middle" x="140" y="-132.25" font-family="Helvetica,sans-Serif" font-size="10.00">src</text>
</a>
</g>
</g>
<!-- dir_a497a178e6875b876cebacdebeb7ee61&#45;&gt;dir_25574c5e008893c4c2436587c1675f55 -->
<g id="edge8" class="edge">
<title>dir_a497a178e6875b876cebacdebeb7ee61&#45;&gt;dir_25574c5e008893c4c2436587c1675f55</title>
<g id="a_edge8"><a xlink:href="dir_000459_000390.html" target="_top">
<path fill="none" stroke="#63b8ff" d="M129.31,-126.09C120.3,-118.47 107.17,-107.37 96.32,-98.2"/>
<polygon fill="#63b8ff" stroke="#63b8ff" points="98.58,-95.53 88.69,-91.75 94.06,-100.88 98.58,-95.53"/>
</a>
</g>
<g id="a_edge8&#45;headlabel"><a xlink:href="dir_000459_000390.html" target="_top" xlink:title="26">
<text text-anchor="middle" x="102" y="-90.83" font-family="Helvetica,sans-Serif" font-size="10.00" fill="#63b8ff">26</text>
</a>
</g>
</g>
<!-- dir_a497a178e6875b876cebacdebeb7ee61&#45;&gt;dir_ab1b54331b4bb0c44e7fcd5a7d20111e -->
<g id="edge10" class="edge">
<title>dir_a497a178e6875b876cebacdebeb7ee61&#45;&gt;dir_ab1b54331b4bb0c44e7fcd5a7d20111e</title>
<g id="a_edge10"><a xlink:href="dir_000459_000293.html" target="_top">
<path fill="none" stroke="#63b8ff" d="M125.05,-133.73C101.41,-130.64 56,-120.85 36,-90.5 27.29,-77.29 31.47,-59.32 37,-45.8"/>
<polygon fill="#63b8ff" stroke="#63b8ff" points="40.02,-47.61 41.08,-37.07 33.68,-44.65 40.02,-47.61"/>
</a>
</g>
<g id="a_edge10&#45;headlabel"><a xlink:href="dir_000459_000293.html" target="_top" xlink:title="25">
<text text-anchor="middle" x="41.71" y="-46.82" font-family="Helvetica,sans-Serif" font-size="10.00" fill="#63b8ff">25</text>
</a>
</g>
</g>
<!-- dir_a497a178e6875b876cebacdebeb7ee61&#45;&gt;dir_f74a706a7efda297e6d8fb2c03527fc2 -->
<g id="edge12" class="edge">
<title>dir_a497a178e6875b876cebacdebeb7ee61&#45;&gt;dir_f74a706a7efda297e6d8fb2c03527fc2</title>
<g id="a_edge12"><a xlink:href="dir_000459_000308.html" target="_top">
<path fill="none" stroke="#63b8ff" d="M155.07,-129.09C158,-128.1 161.07,-127.17 164,-126.5 309.07,-93.28 353.02,-116.69 503.3,-90.5"/>
<polygon fill="#63b8ff" stroke="#63b8ff" points="503.59,-94 512.81,-88.79 502.35,-87.11 503.59,-94"/>
</a>
</g>
<g id="a_edge12&#45;headlabel"><a xlink:href="dir_000459_000308.html" target="_top" xlink:title="11">
<text text-anchor="middle" x="502.04" y="-93.29" font-family="Helvetica,sans-Serif" font-size="10.00" fill="#63b8ff">11</text>
</a>
</g>
</g>
<!-- dir_a497a178e6875b876cebacdebeb7ee61&#45;&gt;dir_eaab8e706d9785a8277b333b3fa3c104 -->
<g id="edge17" class="edge">
<title>dir_a497a178e6875b876cebacdebeb7ee61&#45;&gt;dir_eaab8e706d9785a8277b333b3fa3c104</title>
<g id="a_edge17"><a xlink:href="dir_000459_000011.html" target="_top">
<path fill="none" stroke="#63b8ff" d="M154.98,-128.02C170.12,-120.31 193.57,-106.88 210,-90.5 223.12,-77.42 234.2,-59.43 241.52,-45.88"/>
<polygon fill="#63b8ff" stroke="#63b8ff" points="244.58,-47.58 246.05,-37.09 238.36,-44.37 244.58,-47.58"/>
</a>
</g>
<g id="a_edge17&#45;headlabel"><a xlink:href="dir_000459_000011.html" target="_top" xlink:title="1">
<text text-anchor="middle" x="246.15" y="-46.86" font-family="Helvetica,sans-Serif" font-size="10.00" fill="#63b8ff">1</text>
</a>
</g>
</g>
<!-- dir_a497a178e6875b876cebacdebeb7ee61&#45;&gt;dir_d6186462c2ecf8bc2243dcff615e0cdf -->
<g id="edge15" class="edge">
<title>dir_a497a178e6875b876cebacdebeb7ee61&#45;&gt;dir_d6186462c2ecf8bc2243dcff615e0cdf</title>
<g id="a_edge15"><a xlink:href="dir_000459_000082.html" target="_top">
<path fill="none" stroke="#63b8ff" d="M155.15,-127.42C172.23,-118.67 200.78,-103.88 225,-90.5 254.54,-74.18 288,-54.59 310.18,-41.44"/>
<polygon fill="#63b8ff" stroke="#63b8ff" points="311.7,-44.61 318.51,-36.49 308.13,-38.59 311.7,-44.61"/>
</a>
</g>
<g id="a_edge15&#45;headlabel"><a xlink:href="dir_000459_000082.html" target="_top" xlink:title="2">
<text text-anchor="middle" x="311.36" y="-44.24" font-family="Helvetica,sans-Serif" font-size="10.00" fill="#63b8ff">2</text>
</a>
</g>
</g>
<!-- dir_a497a178e6875b876cebacdebeb7ee61&#45;&gt;dir_d1e2a2554d257d865d12dd7826332eac -->
<g id="edge16" class="edge">
<title>dir_a497a178e6875b876cebacdebeb7ee61&#45;&gt;dir_d1e2a2554d257d865d12dd7826332eac</title>
<g id="a_edge16"><a xlink:href="dir_000459_000502.html" target="_top">
<path fill="none" stroke="#63b8ff" d="M154.98,-129.12C192.54,-114.07 290.09,-75.13 323,-63.25 346.46,-54.78 372.98,-46 394.21,-39.16"/>
<polygon fill="#63b8ff" stroke="#63b8ff" points="395.2,-42.52 403.66,-36.14 393.07,-35.85 395.2,-42.52"/>
</a>
</g>
<g id="a_edge16&#45;headlabel"><a xlink:href="dir_000459_000502.html" target="_top" xlink:title="3">
<text text-anchor="middle" x="394.09" y="-41.98" font-family="Helvetica,sans-Serif" font-size="10.00" fill="#63b8ff">3</text>
</a>
</g>
</g>
<!-- dir_a497a178e6875b876cebacdebeb7ee61&#45;&gt;dir_c1d57bfadd68378fc3d59efca0edc545 -->
<g id="edge14" class="edge">
<title>dir_a497a178e6875b876cebacdebeb7ee61&#45;&gt;dir_c1d57bfadd68378fc3d59efca0edc545</title>
<g id="a_edge14"><a xlink:href="dir_000459_000117.html" target="_top">
<path fill="none" stroke="#63b8ff" d="M155.18,-129.48C158.09,-128.45 161.13,-127.41 164,-126.5 221.14,-108.35 238.73,-113.72 294,-90.5 316.26,-81.15 318.4,-71.76 341,-63.25 397.91,-41.83 417.74,-47.1 480.02,-35.75"/>
<polygon fill="#63b8ff" stroke="#63b8ff" points="480.61,-39.2 489.78,-33.89 479.3,-32.32 480.61,-39.2"/>
</a>
</g>
<g id="a_edge14&#45;headlabel"><a xlink:href="dir_000459_000117.html" target="_top" xlink:title="7">
<text text-anchor="middle" x="479.1" y="-38.5" font-family="Helvetica,sans-Serif" font-size="10.00" fill="#63b8ff">7</text>
</a>
</g>
</g>
<!-- dir_a497a178e6875b876cebacdebeb7ee61&#45;&gt;dir_49997343c4c8eab520bf1e45b9cad06f -->
<g id="edge13" class="edge">
<title>dir_a497a178e6875b876cebacdebeb7ee61&#45;&gt;dir_49997343c4c8eab520bf1e45b9cad06f</title>
<g id="a_edge13"><a xlink:href="dir_000459_000112.html" target="_top">
<path fill="none" stroke="#63b8ff" d="M155.12,-129.3C158.04,-128.29 161.1,-127.3 164,-126.5 172.43,-124.17 274.6,-104.33 338.96,-91.9"/>
<polygon fill="#63b8ff" stroke="#63b8ff" points="339.47,-95.37 348.63,-90.03 338.15,-88.49 339.47,-95.37"/>
</a>
</g>
<g id="a_edge13&#45;headlabel"><a xlink:href="dir_000459_000112.html" target="_top" xlink:title="3">
<text text-anchor="middle" x="337.97" y="-94.67" font-family="Helvetica,sans-Serif" font-size="10.00" fill="#63b8ff">3</text>
</a>
</g>
</g>
<!-- dir_a497a178e6875b876cebacdebeb7ee61&#45;&gt;dir_934fd243b40ff671fa1d708949b38ec2 -->
<g id="edge18" class="edge">
<title>dir_a497a178e6875b876cebacdebeb7ee61&#45;&gt;dir_934fd243b40ff671fa1d708949b38ec2</title>
<g id="a_edge18"><a xlink:href="dir_000459_000523.html" target="_top">
<path fill="none" stroke="#63b8ff" d="M155.08,-129.15C158.01,-128.15 161.07,-127.21 164,-126.5 281.14,-98.19 317.14,-113.73 438.13,-90.82"/>
<polygon fill="#63b8ff" stroke="#63b8ff" points="438.69,-94.28 447.83,-88.93 437.35,-87.41 438.69,-94.28"/>
</a>
</g>
<g id="a_edge18&#45;headlabel"><a xlink:href="dir_000459_000523.html" target="_top" xlink:title="1">
<text text-anchor="middle" x="437.19" y="-93.59" font-family="Helvetica,sans-Serif" font-size="10.00" fill="#63b8ff">1</text>
</a>
</g>
</g>
<!-- dir_a497a178e6875b876cebacdebeb7ee61&#45;&gt;dir_94a422dfe88b8a34de375c069646845f -->
<g id="edge9" class="edge">
<title>dir_a497a178e6875b876cebacdebeb7ee61&#45;&gt;dir_94a422dfe88b8a34de375c069646845f</title>
<g id="a_edge9"><a xlink:href="dir_000459_000285.html" target="_top">
<path fill="none" stroke="#63b8ff" d="M146.27,-126.33C151.36,-119.21 158.7,-108.93 165.03,-100.05"/>
<polygon fill="#63b8ff" stroke="#63b8ff" points="167.75,-102.26 170.71,-92.09 162.05,-98.2 167.75,-102.26"/>
</a>
</g>
<g id="a_edge9&#45;headlabel"><a xlink:href="dir_000459_000285.html" target="_top" xlink:title="20">
<text text-anchor="middle" x="168.85" y="-101.73" font-family="Helvetica,sans-Serif" font-size="10.00" fill="#63b8ff">20</text>
</a>
</g>
</g>
<!-- dir_bbc7c2c1f127b379ce39be24c4bd3dbe -->
<g id="node17" class="node">
<title>dir_bbc7c2c1f127b379ce39be24c4bd3dbe</title>
<g id="a_node17"><a xlink:href="dir_bbc7c2c1f127b379ce39be24c4bd3dbe.html" target="_top" xlink:title="build">
<polygon fill="#edf0f7" stroke="red" stroke-dasharray="5,2" points="616.12,-90.5 579.88,-90.5 579.88,-71.25 616.12,-71.25 616.12,-90.5"/>
<text text-anchor="middle" x="598" y="-77" font-family="Helvetica,sans-Serif" font-size="10.00">build</text>
</a>
</g>
</g>
<!-- dir_a497a178e6875b876cebacdebeb7ee61&#45;&gt;dir_bbc7c2c1f127b379ce39be24c4bd3dbe -->
<g id="edge11" class="edge">
<title>dir_a497a178e6875b876cebacdebeb7ee61&#45;&gt;dir_bbc7c2c1f127b379ce39be24c4bd3dbe</title>
<g id="a_edge11"><a xlink:href="dir_000459_000030.html" target="_top">
<path fill="none" stroke="#63b8ff" d="M155.06,-129.05C157.99,-128.06 161.06,-127.15 164,-126.5 338.57,-88.12 392.33,-126.88 568.36,-91.14"/>
<polygon fill="#63b8ff" stroke="#63b8ff" points="569.02,-94.58 578.09,-89.1 567.59,-87.72 569.02,-94.58"/>
</a>
</g>
<g id="a_edge11&#45;headlabel"><a xlink:href="dir_000459_000030.html" target="_top" xlink:title="25">
<text text-anchor="middle" x="567.57" y="-93.91" font-family="Helvetica,sans-Serif" font-size="10.00" fill="#63b8ff">25</text>
</a>
</g>
</g>
</g>
</svg>
