<?xml version="1.0" encoding="UTF-8" standalone="no"?>
<!DOCTYPE svg PUBLIC "-//W3C//DTD SVG 1.1//EN"
 "http://www.w3.org/Graphics/SVG/1.1/DTD/svg11.dtd">
<!-- Generated by graphviz version 9.0.0 (20230911.1827)
 -->
<!-- Title: /github/workspace/dev_area/sourcecode/dpdklibs Pages: 1 -->
<svg width="766pt" height="197pt"
 viewBox="0.00 0.00 766.12 197.00" xmlns="http://www.w3.org/2000/svg" xmlns:xlink="http://www.w3.org/1999/xlink">
<g id="graph0" class="graph" transform="scale(1 1) rotate(0) translate(4 193)">
<title>/github/workspace/dev_area/sourcecode/dpdklibs</title>
<g id="clust1" class="cluster">
<title>clusterdir_e594a494f7a60e5bf534551500b27d35</title>
<g id="a_clust1"><a xlink:href="dir_e594a494f7a60e5bf534551500b27d35.html" target="_top" xlink:title="sourcecode">
<polygon fill="#edf0f7" stroke="#7f7f7f" stroke-dasharray="5,2" points="8,-8 8,-181 712,-181 712,-8 8,-8"/>
<text text-anchor="middle" x="360" y="-167.5" font-family="Helvetica,sans-Serif" font-size="10.00">sourcecode</text>
</a>
</g>
</g>
<g id="clust2" class="cluster">
<title>clusterdir_26ef73e054f6c5145ef58c9fa8ef12d7</title>
<g id="a_clust2"><a xlink:href="dir_26ef73e054f6c5145ef58c9fa8ef12d7.html" target="_top">
<polygon fill="#edf0f7" stroke="#404040" stroke-width="2" points="16,-63.25 16,-153.75 313,-153.75 313,-63.25 16,-63.25"/>
</a>
</g>
</g>
<!-- dir_f74a706a7efda297e6d8fb2c03527fc2 -->
<g id="node1" class="node">
<title>dir_f74a706a7efda297e6d8fb2c03527fc2</title>
<g id="a_node1"><a xlink:href="dir_f74a706a7efda297e6d8fb2c03527fc2.html" target="_top" xlink:title="logging">
<polygon fill="#a2b4d6" stroke="red" points="62.38,-35.25 15.62,-35.25 15.62,-16 62.38,-16 62.38,-35.25"/>
<text text-anchor="middle" x="39" y="-21.75" font-family="Helvetica,sans-Serif" font-size="10.00">logging</text>
</a>
</g>
</g>
<!-- dir_a64e56b30f5ca31a10654cea03375984 -->
<g id="node2" class="node">
<title>dir_a64e56b30f5ca31a10654cea03375984</title>
<g id="a_node2"><a xlink:href="dir_a64e56b30f5ca31a10654cea03375984.html" target="_top" xlink:title="ers">
<polygon fill="#a2b4d6" stroke="red" points="109.75,-35.25 80.25,-35.25 80.25,-16 109.75,-16 109.75,-35.25"/>
<text text-anchor="middle" x="95" y="-21.75" font-family="Helvetica,sans-Serif" font-size="10.00">ers</text>
</a>
</g>
</g>
<!-- dir_25574c5e008893c4c2436587c1675f55 -->
<g id="node3" class="node">
<title>dir_25574c5e008893c4c2436587c1675f55</title>
<g id="a_node3"><a xlink:href="dir_25574c5e008893c4c2436587c1675f55.html" target="_top" xlink:title="readoutlibs">
<polygon fill="#a2b4d6" stroke="red" points="384.62,-90.5 321.38,-90.5 321.38,-71.25 384.62,-71.25 384.62,-90.5"/>
<text text-anchor="middle" x="353" y="-77" font-family="Helvetica,sans-Serif" font-size="10.00">readoutlibs</text>
</a>
</g>
</g>
<!-- dir_fe853eb0796da44195fb8219d49359ed -->
<g id="node4" class="node">
<title>dir_fe853eb0796da44195fb8219d49359ed</title>
<g id="a_node4"><a xlink:href="dir_fe853eb0796da44195fb8219d49359ed.html" target="_top" xlink:title="fdreadoutlibs">
<polygon fill="#a2b4d6" stroke="red" points="473.75,-90.5 402.25,-90.5 402.25,-71.25 473.75,-71.25 473.75,-90.5"/>
<text text-anchor="middle" x="438" y="-77" font-family="Helvetica,sans-Serif" font-size="10.00">fdreadoutlibs</text>
</a>
</g>
</g>
<!-- dir_eaab8e706d9785a8277b333b3fa3c104 -->
<g id="node5" class="node">
<title>dir_eaab8e706d9785a8277b333b3fa3c104</title>
<g id="a_node5"><a xlink:href="dir_eaab8e706d9785a8277b333b3fa3c104.html" target="_top" xlink:title="appfwk">
<polygon fill="#a2b4d6" stroke="red" points="539.75,-90.5 492.25,-90.5 492.25,-71.25 539.75,-71.25 539.75,-90.5"/>
<text text-anchor="middle" x="516" y="-77" font-family="Helvetica,sans-Serif" font-size="10.00">appfwk</text>
</a>
</g>
</g>
<!-- dir_934fd243b40ff671fa1d708949b38ec2 -->
<g id="node6" class="node">
<title>dir_934fd243b40ff671fa1d708949b38ec2</title>
<g id="a_node6"><a xlink:href="dir_934fd243b40ff671fa1d708949b38ec2.html" target="_top" xlink:title="utilities">
<polygon fill="#a2b4d6" stroke="red" points="604.38,-90.5 557.62,-90.5 557.62,-71.25 604.38,-71.25 604.38,-90.5"/>
<text text-anchor="middle" x="581" y="-77" font-family="Helvetica,sans-Serif" font-size="10.00">utilities</text>
</a>
</g>
</g>
<!-- dir_ab1b54331b4bb0c44e7fcd5a7d20111e -->
<g id="node7" class="node">
<title>dir_ab1b54331b4bb0c44e7fcd5a7d20111e</title>
<g id="a_node7"><a xlink:href="dir_ab1b54331b4bb0c44e7fcd5a7d20111e.html" target="_top" xlink:title="iomanager">
<polygon fill="#a2b4d6" stroke="red" points="683.5,-90.5 622.5,-90.5 622.5,-71.25 683.5,-71.25 683.5,-90.5"/>
<text text-anchor="middle" x="653" y="-77" font-family="Helvetica,sans-Serif" font-size="10.00">iomanager</text>
</a>
</g>
</g>
<!-- dir_49997343c4c8eab520bf1e45b9cad06f -->
<g id="node8" class="node">
<title>dir_49997343c4c8eab520bf1e45b9cad06f</title>
<g id="a_node8"><a xlink:href="dir_49997343c4c8eab520bf1e45b9cad06f.html" target="_top" xlink:title="detdataformats">
<polygon fill="#a2b4d6" stroke="red" points="455.62,-35.25 374.38,-35.25 374.38,-16 455.62,-16 455.62,-35.25"/>
<text text-anchor="middle" x="415" y="-21.75" font-family="Helvetica,sans-Serif" font-size="10.00">detdataformats</text>
</a>
</g>
</g>
<!-- dir_26ef73e054f6c5145ef58c9fa8ef12d7 -->
<g id="node9" class="node">
<title>dir_26ef73e054f6c5145ef58c9fa8ef12d7</title>
<text text-anchor="middle" x="279" y="-132.25" font-family="Helvetica,sans-Serif" font-size="10.00">dpdklibs</text>
</g>
<!-- dir_7d84a55928442cda540c2420ff151bff -->
<g id="node10" class="node">
<title>dir_7d84a55928442cda540c2420ff151bff</title>
<g id="a_node10"><a xlink:href="dir_7d84a55928442cda540c2420ff151bff.html" target="_top" xlink:title="docs">
<polygon fill="#a2b4d6" stroke="#404040" points="234.5,-145.75 197.5,-145.75 197.5,-126.5 234.5,-126.5 234.5,-145.75"/>
<text text-anchor="middle" x="216" y="-132.25" font-family="Helvetica,sans-Serif" font-size="10.00">docs</text>
</a>
</g>
</g>
<!-- dir_0c14d3c21552daff8762af3e6485ee53 -->
<g id="node11" class="node">
<title>dir_0c14d3c21552daff8762af3e6485ee53</title>
<g id="a_node11"><a xlink:href="dir_0c14d3c21552daff8762af3e6485ee53.html" target="_top" xlink:title="include">
<polygon fill="#a2b4d6" stroke="#404040" points="111.38,-90.5 64.62,-90.5 64.62,-71.25 111.38,-71.25 111.38,-90.5"/>
<text text-anchor="middle" x="88" y="-77" font-family="Helvetica,sans-Serif" font-size="10.00">include</text>
</a>
</g>
</g>
<!-- dir_0c14d3c21552daff8762af3e6485ee53&#45;&gt;dir_f74a706a7efda297e6d8fb2c03527fc2 -->
<g id="edge2" class="edge">
<title>dir_0c14d3c21552daff8762af3e6485ee53&#45;&gt;dir_f74a706a7efda297e6d8fb2c03527fc2</title>
<g id="a_edge2"><a xlink:href="dir_000260_000308.html" target="_top">
<path fill="none" stroke="#63b8ff" d="M79.91,-71.08C73.14,-63.73 63.28,-53.01 54.94,-43.94"/>
<polygon fill="#63b8ff" stroke="#63b8ff" points="57.64,-41.71 48.29,-36.72 52.49,-46.45 57.64,-41.71"/>
</a>
</g>
<g id="a_edge2&#45;headlabel"><a xlink:href="dir_000260_000308.html" target="_top" xlink:title="3">
<text text-anchor="middle" x="61.14" y="-37.45" font-family="Helvetica,sans-Serif" font-size="10.00" fill="#63b8ff">3</text>
</a>
</g>
</g>
<!-- dir_0c14d3c21552daff8762af3e6485ee53&#45;&gt;dir_a64e56b30f5ca31a10654cea03375984 -->
<g id="edge1" class="edge">
<title>dir_0c14d3c21552daff8762af3e6485ee53&#45;&gt;dir_a64e56b30f5ca31a10654cea03375984</title>
<g id="a_edge1"><a xlink:href="dir_000260_000175.html" target="_top">
<path fill="none" stroke="#63b8ff" d="M89.16,-71.08C90.02,-64.49 91.24,-55.21 92.34,-46.82"/>
<polygon fill="#63b8ff" stroke="#63b8ff" points="95.79,-47.48 93.62,-37.11 88.85,-46.57 95.79,-47.48"/>
</a>
</g>
<g id="a_edge1&#45;headlabel"><a xlink:href="dir_000260_000175.html" target="_top" xlink:title="1">
<text text-anchor="middle" x="98.33" y="-46.04" font-family="Helvetica,sans-Serif" font-size="10.00" fill="#63b8ff">1</text>
</a>
</g>
</g>
<!-- dir_0c14d3c21552daff8762af3e6485ee53&#45;&gt;dir_49997343c4c8eab520bf1e45b9cad06f -->
<g id="edge3" class="edge">
<title>dir_0c14d3c21552daff8762af3e6485ee53&#45;&gt;dir_49997343c4c8eab520bf1e45b9cad06f</title>
<g id="a_edge3"><a xlink:href="dir_000260_000112.html" target="_top">
<path fill="none" stroke="#63b8ff" d="M100.07,-70.9C104.55,-68 109.8,-65.07 115,-63.25 198.28,-34.1 301.6,-27.44 362.69,-26.31"/>
<polygon fill="#63b8ff" stroke="#63b8ff" points="362.5,-29.81 372.45,-26.17 362.4,-22.81 362.5,-29.81"/>
</a>
</g>
<g id="a_edge3&#45;headlabel"><a xlink:href="dir_000260_000112.html" target="_top" xlink:title="2">
<text text-anchor="middle" x="360.46" y="-28.8" font-family="Helvetica,sans-Serif" font-size="10.00" fill="#63b8ff">2</text>
</a>
</g>
</g>
<!-- dir_69d366df2a190890e842ee0bfc5737b1 -->
<g id="node12" class="node">
<title>dir_69d366df2a190890e842ee0bfc5737b1</title>
<g id="a_node12"><a xlink:href="dir_69d366df2a190890e842ee0bfc5737b1.html" target="_top" xlink:title="python">
<polygon fill="#a2b4d6" stroke="#404040" points="179.25,-145.75 134.75,-145.75 134.75,-126.5 179.25,-126.5 179.25,-145.75"/>
<text text-anchor="middle" x="157" y="-132.25" font-family="Helvetica,sans-Serif" font-size="10.00">python</text>
</a>
</g>
</g>
<!-- dir_b2e993dfc2b2268a1d94f64c28d00532 -->
<g id="node13" class="node">
<title>dir_b2e993dfc2b2268a1d94f64c28d00532</title>
<g id="a_node13"><a xlink:href="dir_b2e993dfc2b2268a1d94f64c28d00532.html" target="_top" xlink:title="scripts">
<polygon fill="#a2b4d6" stroke="#404040" points="116.62,-145.75 71.38,-145.75 71.38,-126.5 116.62,-126.5 116.62,-145.75"/>
<text text-anchor="middle" x="94" y="-132.25" font-family="Helvetica,sans-Serif" font-size="10.00">scripts</text>
</a>
</g>
</g>
<!-- dir_c9fe6a355ebd70584763590830f11603 -->
<g id="node14" class="node">
<title>dir_c9fe6a355ebd70584763590830f11603</title>
<g id="a_node14"><a xlink:href="dir_c9fe6a355ebd70584763590830f11603.html" target="_top" xlink:title="src">
<polygon fill="#a2b4d6" stroke="#404040" points="53.75,-145.75 24.25,-145.75 24.25,-126.5 53.75,-126.5 53.75,-145.75"/>
<text text-anchor="middle" x="39" y="-132.25" font-family="Helvetica,sans-Serif" font-size="10.00">src</text>
</a>
</g>
</g>
<!-- dir_c9fe6a355ebd70584763590830f11603&#45;&gt;dir_f74a706a7efda297e6d8fb2c03527fc2 -->
<g id="edge10" class="edge">
<title>dir_c9fe6a355ebd70584763590830f11603&#45;&gt;dir_f74a706a7efda297e6d8fb2c03527fc2</title>
<g id="a_edge10"><a xlink:href="dir_000437_000308.html" target="_top">
<path fill="none" stroke="#63b8ff" d="M39,-126.25C39,-109 39,-70.58 39,-46.81"/>
<polygon fill="#63b8ff" stroke="#63b8ff" points="42.5,-47.14 39,-37.14 35.5,-47.14 42.5,-47.14"/>
</a>
</g>
<g id="a_edge10&#45;headlabel"><a xlink:href="dir_000437_000308.html" target="_top" xlink:title="5">
<text text-anchor="middle" x="45.34" y="-45.35" font-family="Helvetica,sans-Serif" font-size="10.00" fill="#63b8ff">5</text>
</a>
</g>
</g>
<!-- dir_c9fe6a355ebd70584763590830f11603&#45;&gt;dir_25574c5e008893c4c2436587c1675f55 -->
<g id="edge5" class="edge">
<title>dir_c9fe6a355ebd70584763590830f11603&#45;&gt;dir_25574c5e008893c4c2436587c1675f55</title>
<g id="a_edge5"><a xlink:href="dir_000437_000390.html" target="_top">
<path fill="none" stroke="#63b8ff" d="M54.19,-128.9C56.77,-128 59.44,-127.15 62,-126.5 169.34,-99.15 202.43,-111.02 310.21,-91.7"/>
<polygon fill="#63b8ff" stroke="#63b8ff" points="310.55,-95.19 319.75,-89.93 309.28,-88.31 310.55,-95.19"/>
</a>
</g>
<g id="a_edge5&#45;headlabel"><a xlink:href="dir_000437_000390.html" target="_top" xlink:title="4">
<text text-anchor="middle" x="309.02" y="-94.49" font-family="Helvetica,sans-Serif" font-size="10.00" fill="#63b8ff">4</text>
</a>
</g>
</g>
<!-- dir_c9fe6a355ebd70584763590830f11603&#45;&gt;dir_fe853eb0796da44195fb8219d49359ed -->
<g id="edge11" class="edge">
<title>dir_c9fe6a355ebd70584763590830f11603&#45;&gt;dir_fe853eb0796da44195fb8219d49359ed</title>
<g id="a_edge11"><a xlink:href="dir_000437_000189.html" target="_top">
<path fill="none" stroke="#63b8ff" d="M54.17,-128.83C56.75,-127.93 59.43,-127.11 62,-126.5 202.87,-93.01 245.21,-111.82 390.89,-90.84"/>
<polygon fill="#63b8ff" stroke="#63b8ff" points="391.15,-94.34 400.53,-89.41 390.12,-87.41 391.15,-94.34"/>
</a>
</g>
<g id="a_edge11&#45;headlabel"><a xlink:href="dir_000437_000189.html" target="_top" xlink:title="2">
<text text-anchor="middle" x="389.51" y="-93.58" font-family="Helvetica,sans-Serif" font-size="10.00" fill="#63b8ff">2</text>
</a>
</g>
</g>
<!-- dir_c9fe6a355ebd70584763590830f11603&#45;&gt;dir_eaab8e706d9785a8277b333b3fa3c104 -->
<g id="edge9" class="edge">
<title>dir_c9fe6a355ebd70584763590830f11603&#45;&gt;dir_eaab8e706d9785a8277b333b3fa3c104</title>
<g id="a_edge9"><a xlink:href="dir_000437_000011.html" target="_top">
<path fill="none" stroke="#63b8ff" d="M54.16,-128.78C56.74,-127.89 59.42,-127.08 62,-126.5 241.61,-85.95 295.82,-120.94 480.74,-90.56"/>
<polygon fill="#63b8ff" stroke="#63b8ff" points="481.18,-94.04 490.46,-88.92 480.02,-87.13 481.18,-94.04"/>
</a>
</g>
<g id="a_edge9&#45;headlabel"><a xlink:href="dir_000437_000011.html" target="_top" xlink:title="2">
<text text-anchor="middle" x="479.6" y="-93.31" font-family="Helvetica,sans-Serif" font-size="10.00" fill="#63b8ff">2</text>
</a>
</g>
</g>
<!-- dir_c9fe6a355ebd70584763590830f11603&#45;&gt;dir_934fd243b40ff671fa1d708949b38ec2 -->
<g id="edge6" class="edge">
<title>dir_c9fe6a355ebd70584763590830f11603&#45;&gt;dir_934fd243b40ff671fa1d708949b38ec2</title>
<g id="a_edge6"><a xlink:href="dir_000437_000523.html" target="_top">
<path fill="none" stroke="#63b8ff" d="M54.16,-128.75C56.74,-127.87 59.42,-127.07 62,-126.5 270.36,-80.72 332.91,-125.33 546.09,-90.67"/>
<polygon fill="#63b8ff" stroke="#63b8ff" points="546.57,-94.14 555.85,-89.04 545.41,-87.23 546.57,-94.14"/>
</a>
</g>
<g id="a_edge6&#45;headlabel"><a xlink:href="dir_000437_000523.html" target="_top" xlink:title="1">
<text text-anchor="middle" x="544.98" y="-93.4" font-family="Helvetica,sans-Serif" font-size="10.00" fill="#63b8ff">1</text>
</a>
</g>
</g>
<!-- dir_c9fe6a355ebd70584763590830f11603&#45;&gt;dir_ab1b54331b4bb0c44e7fcd5a7d20111e -->
<g id="edge7" class="edge">
<title>dir_c9fe6a355ebd70584763590830f11603&#45;&gt;dir_ab1b54331b4bb0c44e7fcd5a7d20111e</title>
<g id="a_edge7"><a xlink:href="dir_000437_000293.html" target="_top">
<path fill="none" stroke="#63b8ff" d="M54.15,-128.73C56.73,-127.85 59.42,-127.06 62,-126.5 298.28,-75.64 367.85,-122.98 610.75,-90.57"/>
<polygon fill="#63b8ff" stroke="#63b8ff" points="611.14,-94.04 620.57,-89.22 610.19,-87.11 611.14,-94.04"/>
</a>
</g>
<g id="a_edge7&#45;headlabel"><a xlink:href="dir_000437_000293.html" target="_top" xlink:title="2">
<text text-anchor="middle" x="609.46" y="-93.27" font-family="Helvetica,sans-Serif" font-size="10.00" fill="#63b8ff">2</text>
</a>
</g>
</g>
<!-- dir_c9fe6a355ebd70584763590830f11603&#45;&gt;dir_49997343c4c8eab520bf1e45b9cad06f -->
<g id="edge12" class="edge">
<title>dir_c9fe6a355ebd70584763590830f11603&#45;&gt;dir_49997343c4c8eab520bf1e45b9cad06f</title>
<g id="a_edge12"><a xlink:href="dir_000437_000112.html" target="_top">
<path fill="none" stroke="#63b8ff" d="M54.15,-128.71C56.73,-127.83 59.41,-127.05 62,-126.5 130.71,-112.01 644.78,-141.55 693,-90.5 701.32,-81.7 700.98,-72.36 693,-63.25 664.21,-30.42 539.24,-25.62 467.04,-25.68"/>
<polygon fill="#63b8ff" stroke="#63b8ff" points="467.42,-22.18 457.44,-25.72 467.46,-29.18 467.42,-22.18"/>
</a>
</g>
<g id="a_edge12&#45;headlabel"><a xlink:href="dir_000437_000112.html" target="_top" xlink:title="2">
<text text-anchor="middle" x="469.49" y="-15.46" font-family="Helvetica,sans-Serif" font-size="10.00" fill="#63b8ff">2</text>
</a>
</g>
</g>
<!-- dir_c9fe6a355ebd70584763590830f11603&#45;&gt;dir_0c14d3c21552daff8762af3e6485ee53 -->
<g id="edge4" class="edge">
<title>dir_c9fe6a355ebd70584763590830f11603&#45;&gt;dir_0c14d3c21552daff8762af3e6485ee53</title>
<g id="a_edge4"><a xlink:href="dir_000437_000260.html" target="_top">
<path fill="none" stroke="#63b8ff" d="M47.09,-126.33C53.86,-118.98 63.72,-108.26 72.06,-99.19"/>
<polygon fill="#63b8ff" stroke="#63b8ff" points="74.51,-101.7 78.71,-91.97 69.36,-96.96 74.51,-101.7"/>
</a>
</g>
<g id="a_edge4&#45;headlabel"><a xlink:href="dir_000437_000260.html" target="_top" xlink:title="22">
<text text-anchor="middle" x="75.19" y="-101.28" font-family="Helvetica,sans-Serif" font-size="10.00" fill="#63b8ff">22</text>
</a>
</g>
</g>
<!-- dir_bbc7c2c1f127b379ce39be24c4bd3dbe -->
<g id="node15" class="node">
<title>dir_bbc7c2c1f127b379ce39be24c4bd3dbe</title>
<g id="a_node15"><a xlink:href="dir_bbc7c2c1f127b379ce39be24c4bd3dbe.html" target="_top" xlink:title="build">
<polygon fill="#edf0f7" stroke="red" stroke-dasharray="5,2" points="758.12,-90.5 721.88,-90.5 721.88,-71.25 758.12,-71.25 758.12,-90.5"/>
<text text-anchor="middle" x="740" y="-77" font-family="Helvetica,sans-Serif" font-size="10.00">build</text>
</a>
</g>
</g>
<!-- dir_c9fe6a355ebd70584763590830f11603&#45;&gt;dir_bbc7c2c1f127b379ce39be24c4bd3dbe -->
<g id="edge8" class="edge">
<title>dir_c9fe6a355ebd70584763590830f11603&#45;&gt;dir_bbc7c2c1f127b379ce39be24c4bd3dbe</title>
<g id="a_edge8"><a xlink:href="dir_000437_000030.html" target="_top">
<path fill="none" stroke="#63b8ff" d="M54.15,-128.71C56.73,-127.83 59.41,-127.04 62,-126.5 343.28,-67.46 428.54,-146.28 710.57,-91.29"/>
<polygon fill="#63b8ff" stroke="#63b8ff" points="710.94,-94.79 720.06,-89.4 709.57,-87.92 710.94,-94.79"/>
</a>
</g>
<g id="a_edge8&#45;headlabel"><a xlink:href="dir_000437_000030.html" target="_top" xlink:title="13">
<text text-anchor="middle" x="709.45" y="-94.1" font-family="Helvetica,sans-Serif" font-size="10.00" fill="#63b8ff">13</text>
</a>
</g>
</g>
</g>
</svg>
