<?xml version="1.0" encoding="UTF-8" standalone="no"?>
<!DOCTYPE svg PUBLIC "-//W3C//DTD SVG 1.1//EN"
 "http://www.w3.org/Graphics/SVG/1.1/DTD/svg11.dtd">
<!-- Generated by graphviz version 9.0.0 (20230911.1827)
 -->
<!-- Title: /github/workspace/dev_area/sourcecode/fdreadoutlibs Pages: 1 -->
<svg width="708pt" height="197pt"
 viewBox="0.00 0.00 708.12 197.00" xmlns="http://www.w3.org/2000/svg" xmlns:xlink="http://www.w3.org/1999/xlink">
<g id="graph0" class="graph" transform="scale(1 1) rotate(0) translate(4 193)">
<title>/github/workspace/dev_area/sourcecode/fdreadoutlibs</title>
<g id="clust1" class="cluster">
<title>clusterdir_e594a494f7a60e5bf534551500b27d35</title>
<g id="a_clust1"><a xlink:href="dir_e594a494f7a60e5bf534551500b27d35.html" target="_top" xlink:title="sourcecode">
<polygon fill="#edf0f7" stroke="#7f7f7f" stroke-dasharray="5,2" points="8,-8 8,-181 654,-181 654,-8 8,-8"/>
<text text-anchor="middle" x="331" y="-167.5" font-family="Helvetica,sans-Serif" font-size="10.00">sourcecode</text>
</a>
</g>
</g>
<g id="clust2" class="cluster">
<title>clusterdir_fe853eb0796da44195fb8219d49359ed</title>
<g id="a_clust2"><a xlink:href="dir_fe853eb0796da44195fb8219d49359ed.html" target="_top">
<polygon fill="#edf0f7" stroke="#404040" stroke-width="2" points="340,-63.25 340,-153.75 593,-153.75 593,-63.25 340,-63.25"/>
</a>
</g>
</g>
<!-- dir_25574c5e008893c4c2436587c1675f55 -->
<g id="node1" class="node">
<title>dir_25574c5e008893c4c2436587c1675f55</title>
<g id="a_node1"><a xlink:href="dir_25574c5e008893c4c2436587c1675f55.html" target="_top" xlink:title="readoutlibs">
<polygon fill="#a2b4d6" stroke="red" points="251.62,-35.25 188.38,-35.25 188.38,-16 251.62,-16 251.62,-35.25"/>
<text text-anchor="middle" x="220" y="-21.75" font-family="Helvetica,sans-Serif" font-size="10.00">readoutlibs</text>
</a>
</g>
</g>
<!-- dir_b171eb6ddcbdd8021917a50d6abc983c -->
<g id="node2" class="node">
<title>dir_b171eb6ddcbdd8021917a50d6abc983c</title>
<g id="a_node2"><a xlink:href="dir_b171eb6ddcbdd8021917a50d6abc983c.html" target="_top" xlink:title="fddetdataformats">
<polygon fill="#a2b4d6" stroke="red" points="105.75,-35.25 16.25,-35.25 16.25,-16 105.75,-16 105.75,-35.25"/>
<text text-anchor="middle" x="61" y="-21.75" font-family="Helvetica,sans-Serif" font-size="10.00">fddetdataformats</text>
</a>
</g>
</g>
<!-- dir_f74a706a7efda297e6d8fb2c03527fc2 -->
<g id="node3" class="node">
<title>dir_f74a706a7efda297e6d8fb2c03527fc2</title>
<g id="a_node3"><a xlink:href="dir_f74a706a7efda297e6d8fb2c03527fc2.html" target="_top" xlink:title="logging">
<polygon fill="#a2b4d6" stroke="red" points="170.38,-35.25 123.62,-35.25 123.62,-16 170.38,-16 170.38,-35.25"/>
<text text-anchor="middle" x="147" y="-21.75" font-family="Helvetica,sans-Serif" font-size="10.00">logging</text>
</a>
</g>
</g>
<!-- dir_d6186462c2ecf8bc2243dcff615e0cdf -->
<g id="node4" class="node">
<title>dir_d6186462c2ecf8bc2243dcff615e0cdf</title>
<g id="a_node4"><a xlink:href="dir_d6186462c2ecf8bc2243dcff615e0cdf.html" target="_top" xlink:title="daqdataformats">
<polygon fill="#a2b4d6" stroke="red" points="400.75,-35.25 317.25,-35.25 317.25,-16 400.75,-16 400.75,-35.25"/>
<text text-anchor="middle" x="359" y="-21.75" font-family="Helvetica,sans-Serif" font-size="10.00">daqdataformats</text>
</a>
</g>
</g>
<!-- dir_a64e56b30f5ca31a10654cea03375984 -->
<g id="node5" class="node">
<title>dir_a64e56b30f5ca31a10654cea03375984</title>
<g id="a_node5"><a xlink:href="dir_a64e56b30f5ca31a10654cea03375984.html" target="_top" xlink:title="ers">
<polygon fill="#a2b4d6" stroke="red" points="298.75,-35.25 269.25,-35.25 269.25,-16 298.75,-16 298.75,-35.25"/>
<text text-anchor="middle" x="284" y="-21.75" font-family="Helvetica,sans-Serif" font-size="10.00">ers</text>
</a>
</g>
</g>
<!-- dir_fd12852c84626c78eaf66075877c6c41 -->
<g id="node6" class="node">
<title>dir_fd12852c84626c78eaf66075877c6c41</title>
<g id="a_node6"><a xlink:href="dir_fd12852c84626c78eaf66075877c6c41.html" target="_top" xlink:title="detchannelmaps">
<polygon fill="#a2b4d6" stroke="red" points="645.62,-35.25 558.38,-35.25 558.38,-16 645.62,-16 645.62,-35.25"/>
<text text-anchor="middle" x="602" y="-21.75" font-family="Helvetica,sans-Serif" font-size="10.00">detchannelmaps</text>
</a>
</g>
</g>
<!-- dir_ab1b54331b4bb0c44e7fcd5a7d20111e -->
<g id="node7" class="node">
<title>dir_ab1b54331b4bb0c44e7fcd5a7d20111e</title>
<g id="a_node7"><a xlink:href="dir_ab1b54331b4bb0c44e7fcd5a7d20111e.html" target="_top" xlink:title="iomanager">
<polygon fill="#a2b4d6" stroke="red" points="479.5,-35.25 418.5,-35.25 418.5,-16 479.5,-16 479.5,-35.25"/>
<text text-anchor="middle" x="449" y="-21.75" font-family="Helvetica,sans-Serif" font-size="10.00">iomanager</text>
</a>
</g>
</g>
<!-- dir_5365a3767b7bcdec829ecb94aa09817f -->
<g id="node8" class="node">
<title>dir_5365a3767b7bcdec829ecb94aa09817f</title>
<g id="a_node8"><a xlink:href="dir_5365a3767b7bcdec829ecb94aa09817f.html" target="_top" xlink:title="trigger">
<polygon fill="#a2b4d6" stroke="red" points="540.5,-35.25 497.5,-35.25 497.5,-16 540.5,-16 540.5,-35.25"/>
<text text-anchor="middle" x="519" y="-21.75" font-family="Helvetica,sans-Serif" font-size="10.00">trigger</text>
</a>
</g>
</g>
<!-- dir_fe853eb0796da44195fb8219d49359ed -->
<g id="node9" class="node">
<title>dir_fe853eb0796da44195fb8219d49359ed</title>
<text text-anchor="middle" x="549" y="-132.25" font-family="Helvetica,sans-Serif" font-size="10.00">fdreadoutlibs</text>
</g>
<!-- dir_dee1b128e2d46003eac41ea18d12d79a -->
<g id="node10" class="node">
<title>dir_dee1b128e2d46003eac41ea18d12d79a</title>
<g id="a_node10"><a xlink:href="dir_dee1b128e2d46003eac41ea18d12d79a.html" target="_top" xlink:title="docs">
<polygon fill="#a2b4d6" stroke="#404040" points="495.5,-145.75 458.5,-145.75 458.5,-126.5 495.5,-126.5 495.5,-145.75"/>
<text text-anchor="middle" x="477" y="-132.25" font-family="Helvetica,sans-Serif" font-size="10.00">docs</text>
</a>
</g>
</g>
<!-- dir_575b28202c36ed264653905d4a3b4548 -->
<g id="node11" class="node">
<title>dir_575b28202c36ed264653905d4a3b4548</title>
<g id="a_node11"><a xlink:href="dir_575b28202c36ed264653905d4a3b4548.html" target="_top" xlink:title="include">
<polygon fill="#a2b4d6" stroke="#404040" points="394.38,-90.5 347.62,-90.5 347.62,-71.25 394.38,-71.25 394.38,-90.5"/>
<text text-anchor="middle" x="371" y="-77" font-family="Helvetica,sans-Serif" font-size="10.00">include</text>
</a>
</g>
</g>
<!-- dir_575b28202c36ed264653905d4a3b4548&#45;&gt;dir_25574c5e008893c4c2436587c1675f55 -->
<g id="edge1" class="edge">
<title>dir_575b28202c36ed264653905d4a3b4548&#45;&gt;dir_25574c5e008893c4c2436587c1675f55</title>
<g id="a_edge1"><a xlink:href="dir_000264_000390.html" target="_top">
<path fill="none" stroke="#63b8ff" d="M357.92,-70.86C353.62,-68.16 348.73,-65.36 344,-63.25 317.98,-51.65 287.29,-42.55 262.95,-36.32"/>
<polygon fill="#63b8ff" stroke="#63b8ff" points="263.92,-32.96 253.38,-33.94 262.24,-39.75 263.92,-32.96"/>
</a>
</g>
<g id="a_edge1&#45;headlabel"><a xlink:href="dir_000264_000390.html" target="_top" xlink:title="24">
<text text-anchor="middle" x="266.63" y="-26.83" font-family="Helvetica,sans-Serif" font-size="10.00" fill="#63b8ff">24</text>
</a>
</g>
</g>
<!-- dir_575b28202c36ed264653905d4a3b4548&#45;&gt;dir_b171eb6ddcbdd8021917a50d6abc983c -->
<g id="edge3" class="edge">
<title>dir_575b28202c36ed264653905d4a3b4548&#45;&gt;dir_b171eb6ddcbdd8021917a50d6abc983c</title>
<g id="a_edge3"><a xlink:href="dir_000264_000186.html" target="_top">
<path fill="none" stroke="#63b8ff" d="M358.93,-70.9C354.45,-68 349.2,-65.07 344,-63.25 250.63,-30.56 218.77,-48.21 117.42,-35.47"/>
<polygon fill="#63b8ff" stroke="#63b8ff" points="117.94,-32 107.56,-34.15 117.01,-38.94 117.94,-32"/>
</a>
</g>
<g id="a_edge3&#45;headlabel"><a xlink:href="dir_000264_000186.html" target="_top" xlink:title="12">
<text text-anchor="middle" x="120.38" y="-25.59" font-family="Helvetica,sans-Serif" font-size="10.00" fill="#63b8ff">12</text>
</a>
</g>
</g>
<!-- dir_575b28202c36ed264653905d4a3b4548&#45;&gt;dir_f74a706a7efda297e6d8fb2c03527fc2 -->
<g id="edge5" class="edge">
<title>dir_575b28202c36ed264653905d4a3b4548&#45;&gt;dir_f74a706a7efda297e6d8fb2c03527fc2</title>
<g id="a_edge5"><a xlink:href="dir_000264_000308.html" target="_top">
<path fill="none" stroke="#63b8ff" d="M358.61,-70.87C354.19,-68.03 349.05,-65.15 344,-63.25 277.65,-38.28 253.89,-49.93 181.72,-35.6"/>
<polygon fill="#63b8ff" stroke="#63b8ff" points="182.69,-32.22 172.19,-33.59 181.25,-39.07 182.69,-32.22"/>
</a>
</g>
<g id="a_edge5&#45;headlabel"><a xlink:href="dir_000264_000308.html" target="_top" xlink:title="6">
<text text-anchor="middle" x="185.31" y="-26" font-family="Helvetica,sans-Serif" font-size="10.00" fill="#63b8ff">6</text>
</a>
</g>
</g>
<!-- dir_575b28202c36ed264653905d4a3b4548&#45;&gt;dir_d6186462c2ecf8bc2243dcff615e0cdf -->
<g id="edge4" class="edge">
<title>dir_575b28202c36ed264653905d4a3b4548&#45;&gt;dir_d6186462c2ecf8bc2243dcff615e0cdf</title>
<g id="a_edge4"><a xlink:href="dir_000264_000082.html" target="_top">
<path fill="none" stroke="#63b8ff" d="M369.02,-71.08C367.53,-64.49 365.44,-55.21 363.55,-46.82"/>
<polygon fill="#63b8ff" stroke="#63b8ff" points="366.97,-46.07 361.36,-37.09 360.14,-47.61 366.97,-46.07"/>
</a>
</g>
<g id="a_edge4&#45;headlabel"><a xlink:href="dir_000264_000082.html" target="_top" xlink:title="11">
<text text-anchor="middle" x="370.2" y="-43.6" font-family="Helvetica,sans-Serif" font-size="10.00" fill="#63b8ff">11</text>
</a>
</g>
</g>
<!-- dir_575b28202c36ed264653905d4a3b4548&#45;&gt;dir_a64e56b30f5ca31a10654cea03375984 -->
<g id="edge2" class="edge">
<title>dir_575b28202c36ed264653905d4a3b4548&#45;&gt;dir_a64e56b30f5ca31a10654cea03375984</title>
<g id="a_edge2"><a xlink:href="dir_000264_000175.html" target="_top">
<path fill="none" stroke="#63b8ff" d="M356.43,-70.89C352.41,-68.41 348.04,-65.72 344,-63.25 332.33,-56.1 319.37,-48.18 308.49,-41.54"/>
<polygon fill="#63b8ff" stroke="#63b8ff" points="310.46,-38.64 300.1,-36.43 306.81,-44.62 310.46,-38.64"/>
</a>
</g>
<g id="a_edge2&#45;headlabel"><a xlink:href="dir_000264_000175.html" target="_top" xlink:title="1">
<text text-anchor="middle" x="313.71" y="-33.43" font-family="Helvetica,sans-Serif" font-size="10.00" fill="#63b8ff">1</text>
</a>
</g>
</g>
<!-- dir_575b28202c36ed264653905d4a3b4548&#45;&gt;dir_fd12852c84626c78eaf66075877c6c41 -->
<g id="edge6" class="edge">
<title>dir_575b28202c36ed264653905d4a3b4548&#45;&gt;dir_fd12852c84626c78eaf66075877c6c41</title>
<g id="a_edge6"><a xlink:href="dir_000264_000109.html" target="_top">
<path fill="none" stroke="#63b8ff" d="M383.4,-70.89C387.82,-68.06 392.96,-65.17 398,-63.25 404.99,-60.58 489.09,-45.91 547.1,-35.96"/>
<polygon fill="#63b8ff" stroke="#63b8ff" points="547.56,-39.43 556.83,-34.3 546.38,-32.53 547.56,-39.43"/>
</a>
</g>
<g id="a_edge6&#45;headlabel"><a xlink:href="dir_000264_000109.html" target="_top" xlink:title="1">
<text text-anchor="middle" x="545.99" y="-38.71" font-family="Helvetica,sans-Serif" font-size="10.00" fill="#63b8ff">1</text>
</a>
</g>
</g>
<!-- dir_575b28202c36ed264653905d4a3b4548&#45;&gt;dir_ab1b54331b4bb0c44e7fcd5a7d20111e -->
<g id="edge7" class="edge">
<title>dir_575b28202c36ed264653905d4a3b4548&#45;&gt;dir_ab1b54331b4bb0c44e7fcd5a7d20111e</title>
<g id="a_edge7"><a xlink:href="dir_000264_000293.html" target="_top">
<path fill="none" stroke="#63b8ff" d="M384.23,-70.84C395.77,-62.96 412.77,-51.36 426.45,-42.02"/>
<polygon fill="#63b8ff" stroke="#63b8ff" points="428.17,-45.08 434.45,-36.56 424.22,-39.3 428.17,-45.08"/>
</a>
</g>
<g id="a_edge7&#45;headlabel"><a xlink:href="dir_000264_000293.html" target="_top" xlink:title="2">
<text text-anchor="middle" x="428.05" y="-44.73" font-family="Helvetica,sans-Serif" font-size="10.00" fill="#63b8ff">2</text>
</a>
</g>
</g>
<!-- dir_575b28202c36ed264653905d4a3b4548&#45;&gt;dir_5365a3767b7bcdec829ecb94aa09817f -->
<g id="edge8" class="edge">
<title>dir_575b28202c36ed264653905d4a3b4548&#45;&gt;dir_5365a3767b7bcdec829ecb94aa09817f</title>
<g id="a_edge8"><a xlink:href="dir_000264_000509.html" target="_top">
<path fill="none" stroke="#63b8ff" d="M384.08,-70.88C388.39,-68.18 393.28,-65.37 398,-63.25 406.17,-59.57 453.13,-45.69 486.08,-36.12"/>
<polygon fill="#63b8ff" stroke="#63b8ff" points="486.98,-39.5 495.61,-33.35 485.03,-32.78 486.98,-39.5"/>
</a>
</g>
<g id="a_edge8&#45;headlabel"><a xlink:href="dir_000264_000509.html" target="_top" xlink:title="1">
<text text-anchor="middle" x="485.77" y="-38.93" font-family="Helvetica,sans-Serif" font-size="10.00" fill="#63b8ff">1</text>
</a>
</g>
</g>
<!-- dir_bbc7c2c1f127b379ce39be24c4bd3dbe -->
<g id="node14" class="node">
<title>dir_bbc7c2c1f127b379ce39be24c4bd3dbe</title>
<g id="a_node14"><a xlink:href="dir_bbc7c2c1f127b379ce39be24c4bd3dbe.html" target="_top" xlink:title="build">
<polygon fill="#edf0f7" stroke="red" stroke-dasharray="5,2" points="700.12,-35.25 663.88,-35.25 663.88,-16 700.12,-16 700.12,-35.25"/>
<text text-anchor="middle" x="682" y="-21.75" font-family="Helvetica,sans-Serif" font-size="10.00">build</text>
</a>
</g>
</g>
<!-- dir_575b28202c36ed264653905d4a3b4548&#45;&gt;dir_bbc7c2c1f127b379ce39be24c4bd3dbe -->
<g id="edge9" class="edge">
<title>dir_575b28202c36ed264653905d4a3b4548&#45;&gt;dir_bbc7c2c1f127b379ce39be24c4bd3dbe</title>
<g id="a_edge9"><a xlink:href="dir_000264_000030.html" target="_top">
<path fill="none" stroke="#63b8ff" d="M394.74,-77.73C442.49,-73.09 553.57,-60.67 652.44,-36.44"/>
<polygon fill="#63b8ff" stroke="#63b8ff" points="653.19,-39.86 662.04,-34.03 651.48,-33.07 653.19,-39.86"/>
</a>
</g>
<g id="a_edge9&#45;headlabel"><a xlink:href="dir_000264_000030.html" target="_top" xlink:title="2">
<text text-anchor="middle" x="651.86" y="-39.25" font-family="Helvetica,sans-Serif" font-size="10.00" fill="#63b8ff">2</text>
</a>
</g>
</g>
<!-- dir_5a7dd98f2433b344ca30ab4bf7fa712e -->
<g id="node12" class="node">
<title>dir_5a7dd98f2433b344ca30ab4bf7fa712e</title>
<g id="a_node12"><a xlink:href="dir_5a7dd98f2433b344ca30ab4bf7fa712e.html" target="_top" xlink:title="scripts">
<polygon fill="#a2b4d6" stroke="#404040" points="440.62,-145.75 395.38,-145.75 395.38,-126.5 440.62,-126.5 440.62,-145.75"/>
<text text-anchor="middle" x="418" y="-132.25" font-family="Helvetica,sans-Serif" font-size="10.00">scripts</text>
</a>
</g>
</g>
<!-- dir_79b0fc31886878301008cd3607d74e5c -->
<g id="node13" class="node">
<title>dir_79b0fc31886878301008cd3607d74e5c</title>
<g id="a_node13"><a xlink:href="dir_79b0fc31886878301008cd3607d74e5c.html" target="_top" xlink:title="src">
<polygon fill="#a2b4d6" stroke="#404040" points="377.75,-145.75 348.25,-145.75 348.25,-126.5 377.75,-126.5 377.75,-145.75"/>
<text text-anchor="middle" x="363" y="-132.25" font-family="Helvetica,sans-Serif" font-size="10.00">src</text>
</a>
</g>
</g>
<!-- dir_79b0fc31886878301008cd3607d74e5c&#45;&gt;dir_25574c5e008893c4c2436587c1675f55 -->
<g id="edge12" class="edge">
<title>dir_79b0fc31886878301008cd3607d74e5c&#45;&gt;dir_25574c5e008893c4c2436587c1675f55</title>
<g id="a_edge12"><a xlink:href="dir_000440_000390.html" target="_top">
<path fill="none" stroke="#63b8ff" d="M351.3,-126.25C327.1,-107.89 271.29,-65.54 240.8,-42.41"/>
<polygon fill="#63b8ff" stroke="#63b8ff" points="243.15,-39.8 233.07,-36.54 238.92,-45.37 243.15,-39.8"/>
</a>
</g>
<g id="a_edge12&#45;headlabel"><a xlink:href="dir_000440_000390.html" target="_top" xlink:title="7">
<text text-anchor="middle" x="246.53" y="-34.92" font-family="Helvetica,sans-Serif" font-size="10.00" fill="#63b8ff">7</text>
</a>
</g>
</g>
<!-- dir_79b0fc31886878301008cd3607d74e5c&#45;&gt;dir_b171eb6ddcbdd8021917a50d6abc983c -->
<g id="edge11" class="edge">
<title>dir_79b0fc31886878301008cd3607d74e5c&#45;&gt;dir_b171eb6ddcbdd8021917a50d6abc983c</title>
<g id="a_edge11"><a xlink:href="dir_000440_000186.html" target="_top">
<path fill="none" stroke="#63b8ff" d="M347.82,-131.25C320.39,-124.11 260.9,-108.01 212,-90.5 169.04,-75.12 120.67,-53.95 90.51,-40.28"/>
<polygon fill="#63b8ff" stroke="#63b8ff" points="92.2,-37.2 81.65,-36.23 89.29,-43.57 92.2,-37.2"/>
</a>
</g>
<g id="a_edge11&#45;headlabel"><a xlink:href="dir_000440_000186.html" target="_top" xlink:title="5">
<text text-anchor="middle" x="95.27" y="-31.61" font-family="Helvetica,sans-Serif" font-size="10.00" fill="#63b8ff">5</text>
</a>
</g>
</g>
<!-- dir_79b0fc31886878301008cd3607d74e5c&#45;&gt;dir_f74a706a7efda297e6d8fb2c03527fc2 -->
<g id="edge13" class="edge">
<title>dir_79b0fc31886878301008cd3607d74e5c&#45;&gt;dir_f74a706a7efda297e6d8fb2c03527fc2</title>
<g id="a_edge13"><a xlink:href="dir_000440_000308.html" target="_top">
<path fill="none" stroke="#63b8ff" d="M348.08,-128.6C328.91,-120.15 294.71,-104.79 266,-90.5 233.6,-74.37 197.01,-54.47 173.06,-41.21"/>
<polygon fill="#63b8ff" stroke="#63b8ff" points="174.77,-38.15 164.33,-36.36 171.37,-44.27 174.77,-38.15"/>
</a>
</g>
<g id="a_edge13&#45;headlabel"><a xlink:href="dir_000440_000308.html" target="_top" xlink:title="2">
<text text-anchor="middle" x="177.97" y="-32.81" font-family="Helvetica,sans-Serif" font-size="10.00" fill="#63b8ff">2</text>
</a>
</g>
</g>
<!-- dir_79b0fc31886878301008cd3607d74e5c&#45;&gt;dir_fd12852c84626c78eaf66075877c6c41 -->
<g id="edge16" class="edge">
<title>dir_79b0fc31886878301008cd3607d74e5c&#45;&gt;dir_fd12852c84626c78eaf66075877c6c41</title>
<g id="a_edge16"><a xlink:href="dir_000440_000109.html" target="_top">
<path fill="none" stroke="#63b8ff" d="M377.95,-128.34C416.59,-110.8 520.35,-63.69 571.97,-40.26"/>
<polygon fill="#63b8ff" stroke="#63b8ff" points="573.12,-43.58 580.78,-36.26 570.23,-37.21 573.12,-43.58"/>
</a>
</g>
<g id="a_edge16&#45;headlabel"><a xlink:href="dir_000440_000109.html" target="_top" xlink:title="1">
<text text-anchor="middle" x="572.4" y="-43.15" font-family="Helvetica,sans-Serif" font-size="10.00" fill="#63b8ff">1</text>
</a>
</g>
</g>
<!-- dir_79b0fc31886878301008cd3607d74e5c&#45;&gt;dir_ab1b54331b4bb0c44e7fcd5a7d20111e -->
<g id="edge15" class="edge">
<title>dir_79b0fc31886878301008cd3607d74e5c&#45;&gt;dir_ab1b54331b4bb0c44e7fcd5a7d20111e</title>
<g id="a_edge15"><a xlink:href="dir_000440_000293.html" target="_top">
<path fill="none" stroke="#63b8ff" d="M371.57,-126.14C379.87,-117.31 392.7,-103.31 403,-90.5 415.03,-75.54 427.71,-57.77 436.7,-44.78"/>
<polygon fill="#63b8ff" stroke="#63b8ff" points="439.42,-47 442.18,-36.77 433.64,-43.04 439.42,-47"/>
</a>
</g>
<g id="a_edge15&#45;headlabel"><a xlink:href="dir_000440_000293.html" target="_top" xlink:title="1">
<text text-anchor="middle" x="440.59" y="-46.45" font-family="Helvetica,sans-Serif" font-size="10.00" fill="#63b8ff">1</text>
</a>
</g>
</g>
<!-- dir_79b0fc31886878301008cd3607d74e5c&#45;&gt;dir_5365a3767b7bcdec829ecb94aa09817f -->
<g id="edge17" class="edge">
<title>dir_79b0fc31886878301008cd3607d74e5c&#45;&gt;dir_5365a3767b7bcdec829ecb94aa09817f</title>
<g id="a_edge17"><a xlink:href="dir_000440_000509.html" target="_top">
<path fill="none" stroke="#63b8ff" d="M376.03,-126.06C402.71,-107.51 463.81,-65.01 496.84,-42.04"/>
<polygon fill="#63b8ff" stroke="#63b8ff" points="498.66,-45.03 504.87,-36.45 494.66,-39.29 498.66,-45.03"/>
</a>
</g>
<g id="a_edge17&#45;headlabel"><a xlink:href="dir_000440_000509.html" target="_top" xlink:title="1">
<text text-anchor="middle" x="498.57" y="-44.68" font-family="Helvetica,sans-Serif" font-size="10.00" fill="#63b8ff">1</text>
</a>
</g>
</g>
<!-- dir_79b0fc31886878301008cd3607d74e5c&#45;&gt;dir_575b28202c36ed264653905d4a3b4548 -->
<g id="edge10" class="edge">
<title>dir_79b0fc31886878301008cd3607d74e5c&#45;&gt;dir_575b28202c36ed264653905d4a3b4548</title>
<g id="a_edge10"><a xlink:href="dir_000440_000264.html" target="_top">
<path fill="none" stroke="#63b8ff" d="M364.32,-126.33C365.31,-119.74 366.71,-110.46 367.97,-102.07"/>
<polygon fill="#63b8ff" stroke="#63b8ff" points="371.4,-102.76 369.43,-92.36 364.48,-101.72 371.4,-102.76"/>
</a>
</g>
<g id="a_edge10&#45;headlabel"><a xlink:href="dir_000440_000264.html" target="_top" xlink:title="26">
<text text-anchor="middle" x="373.9" y="-101.37" font-family="Helvetica,sans-Serif" font-size="10.00" fill="#63b8ff">26</text>
</a>
</g>
</g>
<!-- dir_79b0fc31886878301008cd3607d74e5c&#45;&gt;dir_bbc7c2c1f127b379ce39be24c4bd3dbe -->
<g id="edge14" class="edge">
<title>dir_79b0fc31886878301008cd3607d74e5c&#45;&gt;dir_bbc7c2c1f127b379ce39be24c4bd3dbe</title>
<g id="a_edge14"><a xlink:href="dir_000440_000030.html" target="_top">
<path fill="none" stroke="#63b8ff" d="M378.2,-128.91C380.77,-128.01 383.44,-127.16 386,-126.5 491.71,-99.18 533.86,-144.05 629,-90.5 647.8,-79.92 662.73,-59.88 671.89,-45.05"/>
<polygon fill="#63b8ff" stroke="#63b8ff" points="674.75,-47.1 676.76,-36.7 668.7,-43.58 674.75,-47.1"/>
</a>
</g>
<g id="a_edge14&#45;headlabel"><a xlink:href="dir_000440_000030.html" target="_top" xlink:title="3">
<text text-anchor="middle" x="676.16" y="-46.46" font-family="Helvetica,sans-Serif" font-size="10.00" fill="#63b8ff">3</text>
</a>
</g>
</g>
</g>
</svg>
