<?xml version="1.0" encoding="UTF-8" standalone="no"?>
<!DOCTYPE svg PUBLIC "-//W3C//DTD SVG 1.1//EN"
 "http://www.w3.org/Graphics/SVG/1.1/DTD/svg11.dtd">
<!-- Generated by graphviz version 9.0.0 (20230911.1827)
 -->
<!-- Title: /github/workspace/dev_area/build/dpdklibs/codegen/include/dpdklibs/nicreaderinfo/InfoNljs.hpp Pages: 1 -->
<svg width="337pt" height="217pt"
 viewBox="0.00 0.00 337.25 216.50" xmlns="http://www.w3.org/2000/svg" xmlns:xlink="http://www.w3.org/1999/xlink">
<g id="graph0" class="graph" transform="scale(1 1) rotate(0) translate(4 212.5)">
<title>/github/workspace/dev_area/build/dpdklibs/codegen/include/dpdklibs/nicreaderinfo/InfoNljs.hpp</title>
<!-- Node1 -->
<g id="Node000001" class="node">
<title>Node1</title>
<g id="a_Node000001"><a xlink:title=" ">
<polygon fill="#999999" stroke="#666666" points="177.75,-208.5 48.5,-208.5 48.5,-155.5 177.75,-155.5 177.75,-208.5"/>
<text text-anchor="start" x="56.5" y="-195" font-family="Helvetica,sans-Serif" font-size="10.00">/github/workspace/dev</text>
<text text-anchor="start" x="56.5" y="-183.75" font-family="Helvetica,sans-Serif" font-size="10.00">_area/build/dpdklibs</text>
<text text-anchor="start" x="56.5" y="-172.5" font-family="Helvetica,sans-Serif" font-size="10.00">/codegen/include/dpdklibs</text>
<text text-anchor="middle" x="113.12" y="-161.25" font-family="Helvetica,sans-Serif" font-size="10.00">/nicreaderinfo/InfoNljs.hpp</text>
</a>
</g>
</g>
<!-- Node2 -->
<g id="Node000002" class="node">
<title>Node2</title>
<g id="a_Node000002"><a xlink:href="IfaceWrapper_8cpp.html" target="_top" xlink:title=" ">
<polygon fill="white" stroke="#666666" points="132.25,-41.75 0,-41.75 0,0 132.25,0 132.25,-41.75"/>
<text text-anchor="start" x="8" y="-28.25" font-family="Helvetica,sans-Serif" font-size="10.00">/github/workspace/dev</text>
<text text-anchor="start" x="8" y="-17" font-family="Helvetica,sans-Serif" font-size="10.00">_area/sourcecode/dpdklibs</text>
<text text-anchor="middle" x="66.12" y="-5.75" font-family="Helvetica,sans-Serif" font-size="10.00">/src/IfaceWrapper.cpp</text>
</a>
</g>
</g>
<!-- Node1&#45;&gt;Node2 -->
<g id="edge1_Node000001_Node000002" class="edge">
<title>Node1&#45;&gt;Node2</title>
<g id="a_edge1_Node000001_Node000002"><a xlink:title=" ">
<path fill="none" stroke="#63b8ff" d="M60.05,-147.82C51.17,-139.71 43.2,-130.23 38.12,-119.5 26.06,-94 40.01,-62.24 52.17,-42.01"/>
<polygon fill="#63b8ff" stroke="#63b8ff" points="57.71,-150.43 67.62,-154.19 62.22,-145.07 57.71,-150.43"/>
</a>
</g>
</g>
<!-- Node3 -->
<g id="Node000003" class="node">
<title>Node3</title>
<g id="a_Node000003"><a xlink:href="IfaceWrapper_8hpp.html" target="_top" xlink:title=" ">
<polygon fill="white" stroke="#666666" points="179.25,-119.5 47,-119.5 47,-77.75 179.25,-77.75 179.25,-119.5"/>
<text text-anchor="start" x="55" y="-106" font-family="Helvetica,sans-Serif" font-size="10.00">/github/workspace/dev</text>
<text text-anchor="start" x="55" y="-94.75" font-family="Helvetica,sans-Serif" font-size="10.00">_area/sourcecode/dpdklibs</text>
<text text-anchor="middle" x="113.12" y="-83.5" font-family="Helvetica,sans-Serif" font-size="10.00">/src/IfaceWrapper.hpp</text>
</a>
</g>
</g>
<!-- Node1&#45;&gt;Node3 -->
<g id="edge2_Node000001_Node000003" class="edge">
<title>Node1&#45;&gt;Node3</title>
<g id="a_edge2_Node000001_Node000003"><a xlink:title=" ">
<path fill="none" stroke="#63b8ff" d="M113.12,-143.83C113.12,-135.55 113.12,-127.08 113.12,-119.79"/>
<polygon fill="#63b8ff" stroke="#63b8ff" points="109.63,-143.74 113.13,-153.74 116.63,-143.74 109.63,-143.74"/>
</a>
</g>
</g>
<!-- Node4 -->
<g id="Node000004" class="node">
<title>Node4</title>
<g id="a_Node000004"><a xlink:href="SourceModel_8hpp.html" target="_top" xlink:title=" ">
<polygon fill="white" stroke="#666666" points="329.25,-119.5 197,-119.5 197,-77.75 329.25,-77.75 329.25,-119.5"/>
<text text-anchor="start" x="205" y="-106" font-family="Helvetica,sans-Serif" font-size="10.00">/github/workspace/dev</text>
<text text-anchor="start" x="205" y="-94.75" font-family="Helvetica,sans-Serif" font-size="10.00">_area/sourcecode/dpdklibs</text>
<text text-anchor="middle" x="263.12" y="-83.5" font-family="Helvetica,sans-Serif" font-size="10.00">/src/SourceModel.hpp</text>
</a>
</g>
</g>
<!-- Node1&#45;&gt;Node4 -->
<g id="edge4_Node000001_Node000004" class="edge">
<title>Node1&#45;&gt;Node4</title>
<g id="a_edge4_Node000001_Node000004"><a xlink:title=" ">
<path fill="none" stroke="#63b8ff" d="M171.01,-149.6C189.36,-139.64 209.15,-128.91 225.67,-119.94"/>
<polygon fill="#63b8ff" stroke="#63b8ff" points="169.45,-146.46 162.33,-154.31 172.79,-152.61 169.45,-146.46"/>
</a>
</g>
</g>
<!-- Node3&#45;&gt;Node2 -->
<g id="edge3_Node000003_Node000002" class="edge">
<title>Node3&#45;&gt;Node2</title>
<g id="a_edge3_Node000003_Node000002"><a xlink:title=" ">
<path fill="none" stroke="#63b8ff" d="M94.54,-67.68C89.25,-59.14 83.61,-50.05 78.75,-42.23"/>
<polygon fill="#63b8ff" stroke="#63b8ff" points="91.49,-69.39 99.73,-76.04 97.43,-65.7 91.49,-69.39"/>
</a>
</g>
</g>
<!-- Node5 -->
<g id="Node000005" class="node">
<title>Node5</title>
<g id="a_Node000005"><a xlink:href="CreateSource_8hpp.html" target="_top" xlink:title=" ">
<polygon fill="white" stroke="#666666" points="329.25,-41.75 197,-41.75 197,0 329.25,0 329.25,-41.75"/>
<text text-anchor="start" x="205" y="-28.25" font-family="Helvetica,sans-Serif" font-size="10.00">/github/workspace/dev</text>
<text text-anchor="start" x="205" y="-17" font-family="Helvetica,sans-Serif" font-size="10.00">_area/sourcecode/dpdklibs</text>
<text text-anchor="middle" x="263.12" y="-5.75" font-family="Helvetica,sans-Serif" font-size="10.00">/src/CreateSource.hpp</text>
</a>
</g>
</g>
<!-- Node4&#45;&gt;Node5 -->
<g id="edge5_Node000004_Node000005" class="edge">
<title>Node4&#45;&gt;Node5</title>
<g id="a_edge5_Node000004_Node000005"><a xlink:title=" ">
<path fill="none" stroke="#63b8ff" d="M263.12,-66C263.12,-57.96 263.12,-49.54 263.12,-42.23"/>
<polygon fill="#63b8ff" stroke="#63b8ff" points="259.63,-65.81 263.13,-75.81 266.63,-65.81 259.63,-65.81"/>
</a>
</g>
</g>
</g>
</svg>
