<?xml version="1.0" encoding="UTF-8" standalone="no"?>
<!DOCTYPE svg PUBLIC "-//W3C//DTD SVG 1.1//EN"
 "http://www.w3.org/Graphics/SVG/1.1/DTD/svg11.dtd">
<!-- Generated by graphviz version 9.0.0 (20230911.1827)
 -->
<!-- Title: /github/workspace/dev_area/build/dpdklibs/codegen/include/dpdklibs/receiverinfo/InfoNljs.hpp Pages: 1 -->
<svg width="228pt" height="183pt"
 viewBox="0.00 0.00 228.12 182.75" xmlns="http://www.w3.org/2000/svg" xmlns:xlink="http://www.w3.org/1999/xlink">
<g id="graph0" class="graph" transform="scale(1 1) rotate(0) translate(4 178.75)">
<title>/github/workspace/dev_area/build/dpdklibs/codegen/include/dpdklibs/receiverinfo/InfoNljs.hpp</title>
<!-- Node1 -->
<g id="Node000001" class="node">
<title>Node1</title>
<g id="a_Node000001"><a xlink:title=" ">
<polygon fill="#999999" stroke="#666666" points="175.88,-174.75 47.38,-174.75 47.38,-121.75 175.88,-121.75 175.88,-174.75"/>
<text text-anchor="start" x="55.38" y="-161.25" font-family="Helvetica,sans-Serif" font-size="10.00">/github/workspace/dev</text>
<text text-anchor="start" x="55.38" y="-150" font-family="Helvetica,sans-Serif" font-size="10.00">_area/build/dpdklibs</text>
<text text-anchor="start" x="55.38" y="-138.75" font-family="Helvetica,sans-Serif" font-size="10.00">/codegen/include/dpdklibs</text>
<text text-anchor="middle" x="111.62" y="-127.5" font-family="Helvetica,sans-Serif" font-size="10.00">/receiverinfo/InfoNljs.hpp</text>
</a>
</g>
</g>
<!-- Node2 -->
<g id="Node000002" class="node">
<title>Node2</title>
<g id="a_Node000002"><a xlink:href="dpdklibs_2codegen_2include_2dpdklibs_2receiverinfo_2InfoStructs_8hpp.html" target="_top" xlink:title=" ">
<polygon fill="white" stroke="#666666" points="105.25,-85.75 0,-85.75 0,-55.25 105.25,-55.25 105.25,-85.75"/>
<text text-anchor="start" x="8" y="-72.25" font-family="Helvetica,sans-Serif" font-size="10.00">dpdklibs/receiverinfo</text>
<text text-anchor="middle" x="52.62" y="-61" font-family="Helvetica,sans-Serif" font-size="10.00">/InfoStructs.hpp</text>
</a>
</g>
</g>
<!-- Node1&#45;&gt;Node2 -->
<g id="edge1_Node000001_Node000002" class="edge">
<title>Node1&#45;&gt;Node2</title>
<g id="a_edge1_Node000001_Node000002"><a xlink:title=" ">
<path fill="none" stroke="#63b8ff" d="M91.65,-121.6C84.95,-113 77.51,-103.45 70.94,-95.01"/>
<polygon fill="#63b8ff" stroke="#63b8ff" points="73.81,-93 64.9,-87.27 68.29,-97.31 73.81,-93"/>
</a>
</g>
</g>
<!-- Node5 -->
<g id="Node000005" class="node">
<title>Node5</title>
<g id="a_Node000005"><a xlink:title=" ">
<polygon fill="#e0e0e0" stroke="#999999" points="220.12,-80.12 123.12,-80.12 123.12,-60.88 220.12,-60.88 220.12,-80.12"/>
<text text-anchor="middle" x="171.62" y="-66.62" font-family="Helvetica,sans-Serif" font-size="10.00">nlohmann/json.hpp</text>
</a>
</g>
</g>
<!-- Node1&#45;&gt;Node5 -->
<g id="edge4_Node000001_Node000005" class="edge">
<title>Node1&#45;&gt;Node5</title>
<g id="a_edge4_Node000001_Node000005"><a xlink:title=" ">
<path fill="none" stroke="#63b8ff" d="M131.94,-121.6C140.32,-111.03 149.82,-99.03 157.43,-89.42"/>
<polygon fill="#63b8ff" stroke="#63b8ff" points="160.14,-91.64 163.6,-81.63 154.65,-87.29 160.14,-91.64"/>
</a>
</g>
</g>
<!-- Node3 -->
<g id="Node000003" class="node">
<title>Node3</title>
<g id="a_Node000003"><a xlink:title=" ">
<polygon fill="#e0e0e0" stroke="#999999" points="45.25,-19.25 0,-19.25 0,0 45.25,0 45.25,-19.25"/>
<text text-anchor="middle" x="22.62" y="-5.75" font-family="Helvetica,sans-Serif" font-size="10.00">cstdint</text>
</a>
</g>
</g>
<!-- Node2&#45;&gt;Node3 -->
<g id="edge2_Node000002_Node000003" class="edge">
<title>Node2&#45;&gt;Node3</title>
<g id="a_edge2_Node000002_Node000003"><a xlink:title=" ">
<path fill="none" stroke="#63b8ff" d="M45.21,-54.95C41.34,-47.36 36.57,-37.99 32.4,-29.82"/>
<polygon fill="#63b8ff" stroke="#63b8ff" points="35.6,-28.37 27.94,-21.05 29.36,-31.55 35.6,-28.37"/>
</a>
</g>
</g>
<!-- Node4 -->
<g id="Node000004" class="node">
<title>Node4</title>
<g id="a_Node000004"><a xlink:title=" ">
<polygon fill="#e0e0e0" stroke="#999999" points="103.62,-19.25 63.62,-19.25 63.62,0 103.62,0 103.62,-19.25"/>
<text text-anchor="middle" x="83.62" y="-5.75" font-family="Helvetica,sans-Serif" font-size="10.00">string</text>
</a>
</g>
</g>
<!-- Node2&#45;&gt;Node4 -->
<g id="edge3_Node000002_Node000004" class="edge">
<title>Node2&#45;&gt;Node4</title>
<g id="a_edge3_Node000002_Node000004"><a xlink:title=" ">
<path fill="none" stroke="#63b8ff" d="M60.29,-54.95C64.28,-47.36 69.22,-37.99 73.52,-29.82"/>
<polygon fill="#63b8ff" stroke="#63b8ff" points="76.58,-31.52 78.14,-21.04 70.38,-28.26 76.58,-31.52"/>
</a>
</g>
</g>
</g>
</svg>
