<?xml version="1.0" encoding="UTF-8" standalone="no"?>
<!DOCTYPE svg PUBLIC "-//W3C//DTD SVG 1.1//EN"
 "http://www.w3.org/Graphics/SVG/1.1/DTD/svg11.dtd">
<!-- Generated by graphviz version 9.0.0 (20230911.1827)
 -->
<!-- Title: /github/workspace/dev_area/sourcecode/timing/src/EndpointNodeInterface.cpp Pages: 1 -->
<svg width="1850pt" height="459pt"
 viewBox="0.00 0.00 1849.62 459.00" xmlns="http://www.w3.org/2000/svg" xmlns:xlink="http://www.w3.org/1999/xlink">
<g id="graph0" class="graph" transform="scale(1 1) rotate(0) translate(4 455)">
<title>/github/workspace/dev_area/sourcecode/timing/src/EndpointNodeInterface.cpp</title>
<!-- Node1 -->
<g id="Node000001" class="node">
<title>Node1</title>
<g id="a_Node000001"><a xlink:title=" ">
<polygon fill="#999999" stroke="#666666" points="1111.25,-451 958.75,-451 958.75,-409.25 1111.25,-409.25 1111.25,-451"/>
<text text-anchor="start" x="966.75" y="-437.5" font-family="Helvetica,sans-Serif" font-size="10.00">/github/workspace/dev</text>
<text text-anchor="start" x="966.75" y="-426.25" font-family="Helvetica,sans-Serif" font-size="10.00">_area/sourcecode/timing</text>
<text text-anchor="middle" x="1035" y="-415" font-family="Helvetica,sans-Serif" font-size="10.00">/src/EndpointNodeInterface.cpp</text>
</a>
</g>
</g>
<!-- Node2 -->
<g id="Node000002" class="node">
<title>Node2</title>
<g id="a_Node000002"><a xlink:href="EndpointNodeInterface_8hpp.html" target="_top" xlink:title=" ">
<polygon fill="white" stroke="#666666" points="436.12,-373.25 273.88,-373.25 273.88,-354 436.12,-354 436.12,-373.25"/>
<text text-anchor="middle" x="355" y="-359.75" font-family="Helvetica,sans-Serif" font-size="10.00">timing/EndpointNodeInterface.hpp</text>
</a>
</g>
</g>
<!-- Node1&#45;&gt;Node2 -->
<g id="edge1_Node000001_Node000002" class="edge">
<title>Node1&#45;&gt;Node2</title>
<g id="a_edge1_Node000001_Node000002"><a xlink:title=" ">
<path fill="none" stroke="#63b8ff" d="M958.32,-421.85C832.56,-409.92 582.95,-386.25 447.55,-373.4"/>
<polygon fill="#63b8ff" stroke="#63b8ff" points="448.2,-369.95 437.92,-372.49 447.54,-376.92 448.2,-369.95"/>
</a>
</g>
</g>
<!-- Node9 -->
<g id="Node000009" class="node">
<title>Node9</title>
<g id="a_Node000009"><a xlink:title=" ">
<polygon fill="#e0e0e0" stroke="#999999" points="571,-74.5 531,-74.5 531,-55.25 571,-55.25 571,-74.5"/>
<text text-anchor="middle" x="551" y="-61" font-family="Helvetica,sans-Serif" font-size="10.00">string</text>
</a>
</g>
</g>
<!-- Node1&#45;&gt;Node9 -->
<g id="edge57_Node000001_Node000009" class="edge">
<title>Node1&#45;&gt;Node9</title>
<g id="a_edge57_Node000001_Node000009"><a xlink:title=" ">
<path fill="none" stroke="#63b8ff" d="M1035,-408.78C1035,-384.96 1035,-344.3 1035,-309.38 1035,-309.38 1035,-309.38 1035,-252.12 1035,-217.68 1042.12,-199.45 1016,-177 953.35,-123.15 721.38,-174.8 646,-141 627.78,-132.83 628.47,-123.13 613,-110.5 600.48,-100.27 585.83,-89.67 573.92,-81.37"/>
<polygon fill="#63b8ff" stroke="#63b8ff" points="576.12,-78.64 565.9,-75.85 572.15,-84.4 576.12,-78.64"/>
</a>
</g>
</g>
<!-- Node11 -->
<g id="Node000011" class="node">
<title>Node11</title>
<g id="a_Node000011"><a xlink:title=" ">
<polygon fill="#e0e0e0" stroke="#999999" points="1841.62,-201.88 1790.38,-201.88 1790.38,-182.62 1841.62,-182.62 1841.62,-201.88"/>
<text text-anchor="middle" x="1816" y="-188.38" font-family="Helvetica,sans-Serif" font-size="10.00">sstream</text>
</a>
</g>
</g>
<!-- Node1&#45;&gt;Node11 -->
<g id="edge56_Node000001_Node000011" class="edge">
<title>Node1&#45;&gt;Node11</title>
<g id="a_edge56_Node000001_Node000011"><a xlink:title=" ">
<path fill="none" stroke="#63b8ff" d="M1102.26,-408.81C1261.39,-360.75 1656.79,-241.34 1779.25,-204.35"/>
<polygon fill="#63b8ff" stroke="#63b8ff" points="1779.89,-207.81 1788.45,-201.57 1777.87,-201.11 1779.89,-207.81"/>
</a>
</g>
</g>
<!-- Node3 -->
<g id="Node000003" class="node">
<title>Node3</title>
<g id="a_Node000003"><a xlink:href="include_2timing_2TimingIssues_8hpp.html" target="_top" xlink:title=" ">
<polygon fill="white" stroke="#666666" points="462.25,-318 369.75,-318 369.75,-298.75 462.25,-298.75 462.25,-318"/>
<text text-anchor="middle" x="416" y="-304.5" font-family="Helvetica,sans-Serif" font-size="10.00">TimingIssues.hpp</text>
</a>
</g>
</g>
<!-- Node2&#45;&gt;Node3 -->
<g id="edge2_Node000002_Node000003" class="edge">
<title>Node2&#45;&gt;Node3</title>
<g id="a_edge2_Node000002_Node000003"><a xlink:title=" ">
<path fill="none" stroke="#63b8ff" d="M365.35,-353.59C374.08,-345.97 386.79,-334.87 397.3,-325.7"/>
<polygon fill="#63b8ff" stroke="#63b8ff" points="399.43,-328.48 404.66,-319.27 394.83,-323.21 399.43,-328.48"/>
</a>
</g>
</g>
<!-- Node2&#45;&gt;Node9 -->
<g id="edge55_Node000002_Node000009" class="edge">
<title>Node2&#45;&gt;Node9</title>
<g id="a_edge55_Node000002_Node000009"><a xlink:title=" ">
<path fill="none" stroke="#63b8ff" d="M273.76,-357.16C177.52,-347.19 35.81,-319.48 83,-243.5 153.37,-130.21 226.26,-154.96 352,-110.5 409.48,-90.18 479.66,-77 519.46,-70.56"/>
<polygon fill="#63b8ff" stroke="#63b8ff" points="519.96,-74.02 529.29,-69.01 518.87,-67.11 519.96,-74.02"/>
</a>
</g>
</g>
<!-- Node13 -->
<g id="Node000013" class="node">
<title>Node13</title>
<g id="a_Node000013"><a xlink:title=" ">
<polygon fill="#e0e0e0" stroke="#999999" points="522.62,-135.38 477.38,-135.38 477.38,-116.12 522.62,-116.12 522.62,-135.38"/>
<text text-anchor="middle" x="500" y="-121.88" font-family="Helvetica,sans-Serif" font-size="10.00">chrono</text>
</a>
</g>
</g>
<!-- Node2&#45;&gt;Node13 -->
<g id="edge54_Node000002_Node000013" class="edge">
<title>Node2&#45;&gt;Node13</title>
<g id="a_edge54_Node000002_Node000013"><a xlink:title=" ">
<path fill="none" stroke="#63b8ff" d="M411.24,-353.51C433.05,-347.14 456.27,-336.33 471,-318 511.64,-267.44 507.46,-184.29 502.96,-146.52"/>
<polygon fill="#63b8ff" stroke="#63b8ff" points="506.49,-146.51 501.69,-137.06 499.55,-147.44 506.49,-146.51"/>
</a>
</g>
</g>
<!-- Node30 -->
<g id="Node000030" class="node">
<title>Node30</title>
<g id="a_Node000030"><a xlink:href="TimingNode_8hpp.html" target="_top" xlink:title=" ">
<polygon fill="white" stroke="#666666" points="351.88,-318 236.12,-318 236.12,-298.75 351.88,-298.75 351.88,-318"/>
<text text-anchor="middle" x="294" y="-304.5" font-family="Helvetica,sans-Serif" font-size="10.00">timing/TimingNode.hpp</text>
</a>
</g>
</g>
<!-- Node2&#45;&gt;Node30 -->
<g id="edge40_Node000002_Node000030" class="edge">
<title>Node2&#45;&gt;Node30</title>
<g id="a_edge40_Node000002_Node000030"><a xlink:title=" ">
<path fill="none" stroke="#63b8ff" d="M344.65,-353.59C335.92,-345.97 323.21,-334.87 312.7,-325.7"/>
<polygon fill="#63b8ff" stroke="#63b8ff" points="315.17,-323.21 305.34,-319.27 310.57,-328.48 315.17,-323.21"/>
</a>
</g>
</g>
<!-- Node31 -->
<g id="Node000031" class="node">
<title>Node31</title>
<g id="a_Node000031"><a xlink:title=" ">
<polygon fill="#e0e0e0" stroke="#999999" points="203.62,-262.75 92.38,-262.75 92.38,-243.5 203.62,-243.5 203.62,-262.75"/>
<text text-anchor="middle" x="148" y="-249.25" font-family="Helvetica,sans-Serif" font-size="10.00">uhal/DerivedNode.hpp</text>
</a>
</g>
</g>
<!-- Node2&#45;&gt;Node31 -->
<g id="edge53_Node000002_Node000031" class="edge">
<title>Node2&#45;&gt;Node31</title>
<g id="a_edge53_Node000002_Node000031"><a xlink:title=" ">
<path fill="none" stroke="#63b8ff" d="M318.55,-353.55C292.14,-346.12 256.1,-334.19 227,-318 203.55,-304.95 180.07,-284.85 164.88,-270.69"/>
<polygon fill="#63b8ff" stroke="#63b8ff" points="167.7,-268.55 158.05,-264.18 162.87,-273.62 167.7,-268.55"/>
</a>
</g>
</g>
<!-- Node4 -->
<g id="Node000004" class="node">
<title>Node4</title>
<g id="a_Node000004"><a xlink:href="Issue_8hpp.html" target="_top" xlink:title=" ">
<polygon fill="white" stroke="#666666" points="873.25,-262.75 798.75,-262.75 798.75,-243.5 873.25,-243.5 873.25,-262.75"/>
<text text-anchor="middle" x="836" y="-249.25" font-family="Helvetica,sans-Serif" font-size="10.00">ers/Issue.hpp</text>
</a>
</g>
</g>
<!-- Node3&#45;&gt;Node4 -->
<g id="edge3_Node000003_Node000004" class="edge">
<title>Node3&#45;&gt;Node4</title>
<g id="a_edge3_Node000003_Node000004"><a xlink:title=" ">
<path fill="none" stroke="#63b8ff" d="M462.55,-301.47C542.72,-291.31 706.05,-270.6 787.52,-260.27"/>
<polygon fill="#63b8ff" stroke="#63b8ff" points="787.48,-263.81 796.96,-259.07 786.6,-256.86 787.48,-263.81"/>
</a>
</g>
</g>
<!-- Node3&#45;&gt;Node9 -->
<g id="edge39_Node000003_Node000009" class="edge">
<title>Node3&#45;&gt;Node9</title>
<g id="a_edge39_Node000003_Node000009"><a xlink:title=" ">
<path fill="none" stroke="#63b8ff" d="M412.69,-298.43C402.21,-268.44 372.96,-170.06 416,-110.5 428.3,-93.48 483.85,-79.38 519.75,-71.83"/>
<polygon fill="#63b8ff" stroke="#63b8ff" points="520.05,-75.34 529.15,-69.92 518.65,-68.48 520.05,-75.34"/>
</a>
</g>
</g>
<!-- Node5 -->
<g id="Node000005" class="node">
<title>Node5</title>
<g id="a_Node000005"><a xlink:title=" ">
<polygon fill="#e0e0e0" stroke="#999999" points="763.62,-201.88 718.38,-201.88 718.38,-182.62 763.62,-182.62 763.62,-201.88"/>
<text text-anchor="middle" x="741" y="-188.38" font-family="Helvetica,sans-Serif" font-size="10.00">math.h</text>
</a>
</g>
</g>
<!-- Node4&#45;&gt;Node5 -->
<g id="edge4_Node000004_Node000005" class="edge">
<title>Node4&#45;&gt;Node5</title>
<g id="a_edge4_Node000004_Node000005"><a xlink:title=" ">
<path fill="none" stroke="#63b8ff" d="M821.57,-243.18C806.65,-233.93 783.07,-219.32 765.27,-208.29"/>
<polygon fill="#63b8ff" stroke="#63b8ff" points="767.19,-205.37 756.85,-203.07 763.51,-211.32 767.19,-205.37"/>
</a>
</g>
</g>
<!-- Node6 -->
<g id="Node000006" class="node">
<title>Node6</title>
<g id="a_Node000006"><a xlink:title=" ">
<polygon fill="#e0e0e0" stroke="#999999" points="826.25,-201.88 781.75,-201.88 781.75,-182.62 826.25,-182.62 826.25,-201.88"/>
<text text-anchor="middle" x="804" y="-188.38" font-family="Helvetica,sans-Serif" font-size="10.00">stdio.h</text>
</a>
</g>
</g>
<!-- Node4&#45;&gt;Node6 -->
<g id="edge5_Node000004_Node000006" class="edge">
<title>Node4&#45;&gt;Node6</title>
<g id="a_edge5_Node000004_Node000006"><a xlink:title=" ">
<path fill="none" stroke="#63b8ff" d="M831.14,-243.18C826.68,-234.97 819.92,-222.53 814.26,-212.12"/>
<polygon fill="#63b8ff" stroke="#63b8ff" points="817.48,-210.72 809.63,-203.61 811.33,-214.06 817.48,-210.72"/>
</a>
</g>
</g>
<!-- Node7 -->
<g id="Node000007" class="node">
<title>Node7</title>
<g id="a_Node000007"><a xlink:title=" ">
<polygon fill="#e0e0e0" stroke="#999999" points="891.75,-201.88 844.25,-201.88 844.25,-182.62 891.75,-182.62 891.75,-201.88"/>
<text text-anchor="middle" x="868" y="-188.38" font-family="Helvetica,sans-Serif" font-size="10.00">string.h</text>
</a>
</g>
</g>
<!-- Node4&#45;&gt;Node7 -->
<g id="edge6_Node000004_Node000007" class="edge">
<title>Node4&#45;&gt;Node7</title>
<g id="a_edge6_Node000004_Node000007"><a xlink:title=" ">
<path fill="none" stroke="#63b8ff" d="M840.86,-243.18C845.32,-234.97 852.08,-222.53 857.74,-212.12"/>
<polygon fill="#63b8ff" stroke="#63b8ff" points="860.67,-214.06 862.37,-203.61 854.52,-210.72 860.67,-214.06"/>
</a>
</g>
</g>
<!-- Node8 -->
<g id="Node000008" class="node">
<title>Node8</title>
<g id="a_Node000008"><a xlink:title=" ">
<polygon fill="#e0e0e0" stroke="#999999" points="459.38,-135.38 424.62,-135.38 424.62,-116.12 459.38,-116.12 459.38,-135.38"/>
<text text-anchor="middle" x="442" y="-121.88" font-family="Helvetica,sans-Serif" font-size="10.00">map</text>
</a>
</g>
</g>
<!-- Node4&#45;&gt;Node8 -->
<g id="edge7_Node000004_Node000008" class="edge">
<title>Node4&#45;&gt;Node8</title>
<g id="a_edge7_Node000004_Node000008"><a xlink:title=" ">
<path fill="none" stroke="#63b8ff" d="M798.53,-250.03C725.13,-245.41 565.35,-232.71 517,-207.5 489.23,-193.02 466.31,-164.04 453.39,-145.03"/>
<polygon fill="#63b8ff" stroke="#63b8ff" points="456.49,-143.38 448.1,-136.91 450.63,-147.2 456.49,-143.38"/>
</a>
</g>
</g>
<!-- Node4&#45;&gt;Node9 -->
<g id="edge8_Node000004_Node000009" class="edge">
<title>Node4&#45;&gt;Node9</title>
<g id="a_edge8_Node000004_Node000009"><a xlink:title=" ">
<path fill="none" stroke="#63b8ff" d="M800.13,-243.05C773.91,-235.58 738.01,-223.62 709,-207.5 690.07,-196.98 688.68,-189.51 671,-177 646.24,-159.47 635.85,-160.96 613,-141 593.36,-123.84 574.88,-100.09 563.3,-83.92"/>
<polygon fill="#63b8ff" stroke="#63b8ff" points="566.2,-81.96 557.6,-75.77 560.46,-85.97 566.2,-81.96"/>
</a>
</g>
</g>
<!-- Node10 -->
<g id="Node000010" class="node">
<title>Node10</title>
<g id="a_Node000010"><a xlink:title=" ">
<polygon fill="#e0e0e0" stroke="#999999" points="1021.75,-19.25 968.25,-19.25 968.25,0 1021.75,0 1021.75,-19.25"/>
<text text-anchor="middle" x="995" y="-5.75" font-family="Helvetica,sans-Serif" font-size="10.00">iostream</text>
</a>
</g>
</g>
<!-- Node4&#45;&gt;Node10 -->
<g id="edge9_Node000004_Node000010" class="edge">
<title>Node4&#45;&gt;Node10</title>
<g id="a_edge9_Node000004_Node000010"><a xlink:title=" ">
<path fill="none" stroke="#63b8ff" d="M873.51,-252.24C1010.24,-252.34 1481.48,-249.52 1625,-207.5 1682.77,-190.58 1712.63,-192.98 1743,-141 1817.04,-14.28 1196.33,-9.37 1033.48,-10.24"/>
<polygon fill="#63b8ff" stroke="#63b8ff" points="1033.63,-6.73 1023.65,-10.3 1033.67,-13.73 1033.63,-6.73"/>
</a>
</g>
</g>
<!-- Node4&#45;&gt;Node11 -->
<g id="edge10_Node000004_Node000011" class="edge">
<title>Node4&#45;&gt;Node11</title>
<g id="a_edge10_Node000004_Node000011"><a xlink:title=" ">
<path fill="none" stroke="#63b8ff" d="M873.72,-251.81C1026.38,-250.32 1598.78,-242.47 1776,-207.5 1778.47,-207.01 1780.99,-206.4 1783.5,-205.71"/>
<polygon fill="#63b8ff" stroke="#63b8ff" points="1784.4,-209.1 1792.88,-202.74 1782.29,-202.42 1784.4,-209.1"/>
</a>
</g>
</g>
<!-- Node12 -->
<g id="Node000012" class="node">
<title>Node12</title>
<g id="a_Node000012"><a xlink:title=" ">
<polygon fill="#e0e0e0" stroke="#999999" points="960.25,-201.88 909.75,-201.88 909.75,-182.62 960.25,-182.62 960.25,-201.88"/>
<text text-anchor="middle" x="935" y="-188.38" font-family="Helvetica,sans-Serif" font-size="10.00">memory</text>
</a>
</g>
</g>
<!-- Node4&#45;&gt;Node12 -->
<g id="edge11_Node000004_Node000012" class="edge">
<title>Node4&#45;&gt;Node12</title>
<g id="a_edge11_Node000004_Node000012"><a xlink:title=" ">
<path fill="none" stroke="#63b8ff" d="M851.04,-243.18C866.66,-233.89 891.39,-219.19 909.97,-208.14"/>
<polygon fill="#63b8ff" stroke="#63b8ff" points="911.72,-211.17 918.52,-203.05 908.14,-205.15 911.72,-211.17"/>
</a>
</g>
</g>
<!-- Node4&#45;&gt;Node13 -->
<g id="edge12_Node000004_Node000013" class="edge">
<title>Node4&#45;&gt;Node13</title>
<g id="a_edge12_Node000004_Node000013"><a xlink:title=" ">
<path fill="none" stroke="#63b8ff" d="M798.39,-250.3C729.7,-246.33 587.27,-234.96 547,-207.5 525.78,-193.03 512.83,-165.58 506.04,-146.73"/>
<polygon fill="#63b8ff" stroke="#63b8ff" points="509.37,-145.65 502.91,-137.25 502.72,-147.84 509.37,-145.65"/>
</a>
</g>
</g>
<!-- Node14 -->
<g id="Node000014" class="node">
<title>Node14</title>
<g id="a_Node000014"><a xlink:title=" ">
<polygon fill="#e0e0e0" stroke="#999999" points="1007.4,-201.88 978.6,-201.88 978.6,-182.62 1007.4,-182.62 1007.4,-201.88"/>
<text text-anchor="middle" x="993" y="-188.38" font-family="Helvetica,sans-Serif" font-size="10.00">list</text>
</a>
</g>
</g>
<!-- Node4&#45;&gt;Node14 -->
<g id="edge13_Node000004_Node000014" class="edge">
<title>Node4&#45;&gt;Node14</title>
<g id="a_edge13_Node000004_Node000014"><a xlink:title=" ">
<path fill="none" stroke="#63b8ff" d="M869.54,-243.02C894.66,-235.74 929.86,-224.55 968.39,-207.16"/>
<polygon fill="#63b8ff" stroke="#63b8ff" points="969.82,-210.36 977.43,-202.99 966.88,-204.01 969.82,-210.36"/>
</a>
</g>
</g>
<!-- Node15 -->
<g id="Node000015" class="node">
<title>Node15</title>
<g id="a_Node000015"><a xlink:href="IssueFactory_8hpp.html" target="_top" xlink:title=" ">
<polygon fill="white" stroke="#666666" points="662.38,-201.88 555.62,-201.88 555.62,-182.62 662.38,-182.62 662.38,-201.88"/>
<text text-anchor="middle" x="609" y="-188.38" font-family="Helvetica,sans-Serif" font-size="10.00">ers/IssueFactory.hpp</text>
</a>
</g>
</g>
<!-- Node4&#45;&gt;Node15 -->
<g id="edge14_Node000004_Node000015" class="edge">
<title>Node4&#45;&gt;Node15</title>
<g id="a_edge14_Node000004_Node000015"><a xlink:title=" ">
<path fill="none" stroke="#63b8ff" d="M801.03,-243.05C761.87,-232.9 698.25,-216.4 655.07,-205.2"/>
<polygon fill="#63b8ff" stroke="#63b8ff" points="656.03,-201.83 645.48,-202.71 654.28,-208.61 656.03,-201.83"/>
</a>
</g>
</g>
<!-- Node17 -->
<g id="Node000017" class="node">
<title>Node17</title>
<g id="a_Node000017"><a xlink:href="Severity_8hpp.html" target="_top" xlink:title=" ">
<polygon fill="white" stroke="#666666" points="740.88,-135.38 655.12,-135.38 655.12,-116.12 740.88,-116.12 740.88,-135.38"/>
<text text-anchor="middle" x="698" y="-121.88" font-family="Helvetica,sans-Serif" font-size="10.00">ers/Severity.hpp</text>
</a>
</g>
</g>
<!-- Node4&#45;&gt;Node17 -->
<g id="edge31_Node000004_Node000017" class="edge">
<title>Node4&#45;&gt;Node17</title>
<g id="a_edge31_Node000004_Node000017"><a xlink:title=" ">
<path fill="none" stroke="#63b8ff" d="M873.55,-249.52C937.77,-243.7 1057.91,-226.04 1016,-177 982.68,-138 838.66,-149.01 788,-141 776.4,-139.17 763.95,-137.2 752.13,-135.32"/>
<polygon fill="#63b8ff" stroke="#63b8ff" points="752.95,-131.91 742.53,-133.8 751.86,-138.82 752.95,-131.91"/>
</a>
</g>
</g>
<!-- Node18 -->
<g id="Node000018" class="node">
<title>Node18</title>
<g id="a_Node000018"><a xlink:href="LocalContext_8hpp.html" target="_top" xlink:title=" ">
<polygon fill="white" stroke="#666666" points="1615.75,-201.88 1508.25,-201.88 1508.25,-182.62 1615.75,-182.62 1615.75,-201.88"/>
<text text-anchor="middle" x="1562" y="-188.38" font-family="Helvetica,sans-Serif" font-size="10.00">ers/LocalContext.hpp</text>
</a>
</g>
</g>
<!-- Node4&#45;&gt;Node18 -->
<g id="edge23_Node000004_Node000018" class="edge">
<title>Node4&#45;&gt;Node18</title>
<g id="a_edge23_Node000004_Node000018"><a xlink:title=" ">
<path fill="none" stroke="#63b8ff" d="M873.5,-249.08C990.31,-239.61 1348.58,-210.56 1496.78,-198.54"/>
<polygon fill="#63b8ff" stroke="#63b8ff" points="1496.73,-202.05 1506.42,-197.76 1496.17,-195.08 1496.73,-202.05"/>
</a>
</g>
</g>
<!-- Node23 -->
<g id="Node000023" class="node">
<title>Node23</title>
<g id="a_Node000023"><a xlink:href="IssueDeclarationMacro_8hpp.html" target="_top" xlink:title=" ">
<polygon fill="white" stroke="#666666" points="1240.88,-207.5 1101.12,-207.5 1101.12,-177 1240.88,-177 1240.88,-207.5"/>
<text text-anchor="start" x="1109.12" y="-194" font-family="Helvetica,sans-Serif" font-size="10.00">ers/internal/IssueDeclaration</text>
<text text-anchor="middle" x="1171" y="-182.75" font-family="Helvetica,sans-Serif" font-size="10.00">Macro.hpp</text>
</a>
</g>
</g>
<!-- Node4&#45;&gt;Node23 -->
<g id="edge32_Node000004_Node000023" class="edge">
<title>Node4&#45;&gt;Node23</title>
<g id="a_edge32_Node000004_Node000023"><a xlink:title=" ">
<path fill="none" stroke="#63b8ff" d="M873.45,-245.54C925.45,-236.4 1020.86,-219.64 1089.65,-207.55"/>
<polygon fill="#63b8ff" stroke="#63b8ff" points="1090.14,-211.01 1099.38,-205.84 1088.93,-204.12 1090.14,-211.01"/>
</a>
</g>
</g>
<!-- Node15&#45;&gt;Node8 -->
<g id="edge18_Node000015_Node000008" class="edge">
<title>Node15&#45;&gt;Node8</title>
<g id="a_edge18_Node000015_Node000008"><a xlink:title=" ">
<path fill="none" stroke="#63b8ff" d="M579.3,-182.19C550.39,-173.01 505.46,-157.81 468,-141 467.89,-140.95 467.78,-140.9 467.67,-140.85"/>
<polygon fill="#63b8ff" stroke="#63b8ff" points="469.33,-137.77 458.82,-136.43 466.2,-144.03 469.33,-137.77"/>
</a>
</g>
</g>
<!-- Node15&#45;&gt;Node9 -->
<g id="edge16_Node000015_Node000009" class="edge">
<title>Node15&#45;&gt;Node9</title>
<g id="a_edge16_Node000015_Node000009"><a xlink:title=" ">
<path fill="none" stroke="#63b8ff" d="M601.91,-182.47C594.38,-172.79 582.55,-156.54 575,-141 566.32,-123.12 559.76,-101.36 555.72,-85.87"/>
<polygon fill="#63b8ff" stroke="#63b8ff" points="559.19,-85.31 553.38,-76.45 552.39,-87 559.19,-85.31"/>
</a>
</g>
</g>
<!-- Node15&#45;&gt;Node13 -->
<g id="edge15_Node000015_Node000013" class="edge">
<title>Node15&#45;&gt;Node13</title>
<g id="a_edge15_Node000015_Node000013"><a xlink:title=" ">
<path fill="none" stroke="#63b8ff" d="M593.84,-182.28C576.05,-171.75 546.27,-154.13 525.03,-141.56"/>
<polygon fill="#63b8ff" stroke="#63b8ff" points="527.07,-138.7 516.68,-136.62 523.5,-144.73 527.07,-138.7"/>
</a>
</g>
</g>
<!-- Node16 -->
<g id="Node000016" class="node">
<title>Node16</title>
<g id="a_Node000016"><a xlink:title=" ">
<polygon fill="#e0e0e0" stroke="#999999" points="790.5,-74.5 747.5,-74.5 747.5,-55.25 790.5,-55.25 790.5,-74.5"/>
<text text-anchor="middle" x="769" y="-61" font-family="Helvetica,sans-Serif" font-size="10.00">vector</text>
</a>
</g>
</g>
<!-- Node15&#45;&gt;Node16 -->
<g id="edge17_Node000015_Node000016" class="edge">
<title>Node15&#45;&gt;Node16</title>
<g id="a_edge17_Node000015_Node000016"><a xlink:title=" ">
<path fill="none" stroke="#63b8ff" d="M662.71,-184.58C692.37,-178.17 727.62,-165.61 750,-141 763.71,-125.93 767.85,-102.41 768.94,-85.7"/>
<polygon fill="#63b8ff" stroke="#63b8ff" points="772.43,-86.13 769.24,-76.02 765.43,-85.91 772.43,-86.13"/>
</a>
</g>
</g>
<!-- Node15&#45;&gt;Node17 -->
<g id="edge19_Node000015_Node000017" class="edge">
<title>Node15&#45;&gt;Node17</title>
<g id="a_edge19_Node000015_Node000017"><a xlink:title=" ">
<path fill="none" stroke="#63b8ff" d="M621.38,-182.28C635.51,-172.04 658.9,-155.09 676.13,-142.6"/>
<polygon fill="#63b8ff" stroke="#63b8ff" points="678.17,-145.44 684.22,-136.74 674.07,-139.77 678.17,-145.44"/>
</a>
</g>
</g>
<!-- Node17&#45;&gt;Node9 -->
<g id="edge20_Node000017_Node000009" class="edge">
<title>Node17&#45;&gt;Node9</title>
<g id="a_edge20_Node000017_Node000009"><a xlink:title=" ">
<path fill="none" stroke="#63b8ff" d="M675.35,-115.68C650.18,-105.6 609.41,-89.27 581.46,-78.07"/>
<polygon fill="#63b8ff" stroke="#63b8ff" points="583.06,-74.95 572.48,-74.48 580.46,-81.44 583.06,-74.95"/>
</a>
</g>
</g>
<!-- Node17&#45;&gt;Node10 -->
<g id="edge22_Node000017_Node000010" class="edge">
<title>Node17&#45;&gt;Node10</title>
<g id="a_edge22_Node000017_Node000010"><a xlink:title=" ">
<path fill="none" stroke="#63b8ff" d="M700.43,-115.82C705.03,-100.7 716.55,-70.25 738,-55.25 772.69,-30.99 893.77,-18.37 956.57,-13.32"/>
<polygon fill="#63b8ff" stroke="#63b8ff" points="956.73,-16.82 966.43,-12.55 956.19,-9.84 956.73,-16.82"/>
</a>
</g>
</g>
<!-- Node17&#45;&gt;Node16 -->
<g id="edge21_Node000017_Node000016" class="edge">
<title>Node17&#45;&gt;Node16</title>
<g id="a_edge21_Node000017_Node000016"><a xlink:title=" ">
<path fill="none" stroke="#63b8ff" d="M708.78,-115.81C719.52,-106.9 736.25,-93.03 749.35,-82.17"/>
<polygon fill="#63b8ff" stroke="#63b8ff" points="751.49,-84.94 756.95,-75.87 747.02,-79.56 751.49,-84.94"/>
</a>
</g>
</g>
<!-- Node19 -->
<g id="Node000019" class="node">
<title>Node19</title>
<g id="a_Node000019"><a xlink:title=" ">
<polygon fill="#e0e0e0" stroke="#999999" points="1632.38,-135.38 1567.62,-135.38 1567.62,-116.12 1632.38,-116.12 1632.38,-135.38"/>
<text text-anchor="middle" x="1600" y="-121.88" font-family="Helvetica,sans-Serif" font-size="10.00">sys/types.h</text>
</a>
</g>
</g>
<!-- Node18&#45;&gt;Node19 -->
<g id="edge24_Node000018_Node000019" class="edge">
<title>Node18&#45;&gt;Node19</title>
<g id="a_edge24_Node000018_Node000019"><a xlink:title=" ">
<path fill="none" stroke="#63b8ff" d="M1567.28,-182.28C1572.9,-172.75 1581.94,-157.41 1589.09,-145.27"/>
<polygon fill="#63b8ff" stroke="#63b8ff" points="1591.93,-147.34 1593.99,-136.95 1585.9,-143.79 1591.93,-147.34"/>
</a>
</g>
</g>
<!-- Node20 -->
<g id="Node000020" class="node">
<title>Node20</title>
<g id="a_Node000020"><a xlink:title=" ">
<polygon fill="#e0e0e0" stroke="#999999" points="1549.88,-135.38 1500.12,-135.38 1500.12,-116.12 1549.88,-116.12 1549.88,-135.38"/>
<text text-anchor="middle" x="1525" y="-121.88" font-family="Helvetica,sans-Serif" font-size="10.00">unistd.h</text>
</a>
</g>
</g>
<!-- Node18&#45;&gt;Node20 -->
<g id="edge25_Node000018_Node000020" class="edge">
<title>Node18&#45;&gt;Node20</title>
<g id="a_edge25_Node000018_Node000020"><a xlink:title=" ">
<path fill="none" stroke="#63b8ff" d="M1556.86,-182.28C1551.39,-172.75 1542.59,-157.41 1535.62,-145.27"/>
<polygon fill="#63b8ff" stroke="#63b8ff" points="1538.87,-143.89 1530.85,-136.96 1532.79,-147.37 1538.87,-143.89"/>
</a>
</g>
</g>
<!-- Node21 -->
<g id="Node000021" class="node">
<title>Node21</title>
<g id="a_Node000021"><a xlink:href="Context_8hpp.html" target="_top" xlink:title=" ">
<polygon fill="white" stroke="#666666" points="1733.75,-135.38 1650.25,-135.38 1650.25,-116.12 1733.75,-116.12 1733.75,-135.38"/>
<text text-anchor="middle" x="1692" y="-121.88" font-family="Helvetica,sans-Serif" font-size="10.00">ers/Context.hpp</text>
</a>
</g>
</g>
<!-- Node18&#45;&gt;Node21 -->
<g id="edge26_Node000018_Node000021" class="edge">
<title>Node18&#45;&gt;Node21</title>
<g id="a_edge26_Node000018_Node000021"><a xlink:title=" ">
<path fill="none" stroke="#63b8ff" d="M1580.35,-182.15C1602.03,-171.39 1638.34,-153.37 1663.65,-140.82"/>
<polygon fill="#63b8ff" stroke="#63b8ff" points="1664.99,-144.06 1672.39,-136.48 1661.87,-137.79 1664.99,-144.06"/>
</a>
</g>
</g>
<!-- Node21&#45;&gt;Node9 -->
<g id="edge27_Node000021_Node000009" class="edge">
<title>Node21&#45;&gt;Node9</title>
<g id="a_edge27_Node000021_Node000009"><a xlink:title=" ">
<path fill="none" stroke="#63b8ff" d="M1663.93,-115.65C1656.55,-113.6 1648.54,-111.69 1641,-110.5 1244.23,-48.03 1139.28,-91.75 738,-74.5 683.36,-72.15 619.75,-69.16 582.57,-67.39"/>
<polygon fill="#63b8ff" stroke="#63b8ff" points="583.14,-63.91 572.99,-66.93 582.81,-70.91 583.14,-63.91"/>
</a>
</g>
</g>
<!-- Node21&#45;&gt;Node16 -->
<g id="edge28_Node000021_Node000016" class="edge">
<title>Node21&#45;&gt;Node16</title>
<g id="a_edge28_Node000021_Node000016"><a xlink:title=" ">
<path fill="none" stroke="#63b8ff" d="M1663.66,-115.63C1656.35,-113.61 1648.44,-111.71 1641,-110.5 1474.9,-83.39 940.9,-69.74 802.18,-66.59"/>
<polygon fill="#63b8ff" stroke="#63b8ff" points="802.31,-63.09 792.23,-66.37 802.15,-70.09 802.31,-63.09"/>
</a>
</g>
</g>
<!-- Node22 -->
<g id="Node000022" class="node">
<title>Node22</title>
<g id="a_Node000022"><a xlink:href="ers_2include_2ers_2Configuration_8hpp.html" target="_top" xlink:title=" ">
<polygon fill="white" stroke="#666666" points="1325.38,-74.5 1218.62,-74.5 1218.62,-55.25 1325.38,-55.25 1325.38,-74.5"/>
<text text-anchor="middle" x="1272" y="-61" font-family="Helvetica,sans-Serif" font-size="10.00">ers/Configuration.hpp</text>
</a>
</g>
</g>
<!-- Node21&#45;&gt;Node22 -->
<g id="edge29_Node000021_Node000022" class="edge">
<title>Node21&#45;&gt;Node22</title>
<g id="a_edge29_Node000021_Node000022"><a xlink:title=" ">
<path fill="none" stroke="#63b8ff" d="M1662.52,-115.69C1655.51,-113.77 1648.03,-111.9 1641,-110.5 1535.72,-89.55 1411.45,-76.99 1337.33,-70.75"/>
<polygon fill="#63b8ff" stroke="#63b8ff" points="1337.64,-67.27 1327.38,-69.93 1337.06,-74.24 1337.64,-67.27"/>
</a>
</g>
</g>
<!-- Node22&#45;&gt;Node10 -->
<g id="edge30_Node000022_Node000010" class="edge">
<title>Node22&#45;&gt;Node10</title>
<g id="a_edge30_Node000022_Node000010"><a xlink:title=" ">
<path fill="none" stroke="#63b8ff" d="M1224.7,-54.78C1170.62,-44.39 1083.16,-27.57 1033.22,-17.97"/>
<polygon fill="#63b8ff" stroke="#63b8ff" points="1033.93,-14.54 1023.45,-16.09 1032.61,-21.42 1033.93,-14.54"/>
</a>
</g>
</g>
<!-- Node24 -->
<g id="Node000024" class="node">
<title>Node24</title>
<g id="a_Node000024"><a xlink:title=" ">
<polygon fill="#e0e0e0" stroke="#999999" points="1364.62,-141 1265.38,-141 1265.38,-110.5 1364.62,-110.5 1364.62,-141"/>
<text text-anchor="start" x="1273.38" y="-127.5" font-family="Helvetica,sans-Serif" font-size="10.00">boost/preprocessor</text>
<text text-anchor="middle" x="1315" y="-116.25" font-family="Helvetica,sans-Serif" font-size="10.00">/if.hpp</text>
</a>
</g>
</g>
<!-- Node23&#45;&gt;Node24 -->
<g id="edge33_Node000023_Node000024" class="edge">
<title>Node23&#45;&gt;Node24</title>
<g id="a_edge33_Node000023_Node000024"><a xlink:title=" ">
<path fill="none" stroke="#63b8ff" d="M1203.68,-176.61C1223.93,-167.54 1250.17,-155.79 1272.09,-145.97"/>
<polygon fill="#63b8ff" stroke="#63b8ff" points="1273.38,-149.23 1281.07,-141.95 1270.52,-142.84 1273.38,-149.23"/>
</a>
</g>
</g>
<!-- Node25 -->
<g id="Node000025" class="node">
<title>Node25</title>
<g id="a_Node000025"><a xlink:title=" ">
<polygon fill="#e0e0e0" stroke="#999999" points="1481.62,-141 1382.38,-141 1382.38,-110.5 1481.62,-110.5 1481.62,-141"/>
<text text-anchor="start" x="1390.38" y="-127.5" font-family="Helvetica,sans-Serif" font-size="10.00">boost/preprocessor</text>
<text text-anchor="middle" x="1432" y="-116.25" font-family="Helvetica,sans-Serif" font-size="10.00">/seq.hpp</text>
</a>
</g>
</g>
<!-- Node23&#45;&gt;Node25 -->
<g id="edge34_Node000023_Node000025" class="edge">
<title>Node23&#45;&gt;Node25</title>
<g id="a_edge34_Node000023_Node000025"><a xlink:title=" ">
<path fill="none" stroke="#63b8ff" d="M1230.55,-176.53C1272.54,-166.16 1328.6,-152.3 1370.92,-141.84"/>
<polygon fill="#63b8ff" stroke="#63b8ff" points="1371.58,-145.29 1380.45,-139.49 1369.9,-138.49 1371.58,-145.29"/>
</a>
</g>
</g>
<!-- Node26 -->
<g id="Node000026" class="node">
<title>Node26</title>
<g id="a_Node000026"><a xlink:title=" ">
<polygon fill="#e0e0e0" stroke="#999999" points="896.62,-141 797.38,-141 797.38,-110.5 896.62,-110.5 896.62,-141"/>
<text text-anchor="start" x="805.38" y="-127.5" font-family="Helvetica,sans-Serif" font-size="10.00">boost/preprocessor</text>
<text text-anchor="middle" x="847" y="-116.25" font-family="Helvetica,sans-Serif" font-size="10.00">/tuple.hpp</text>
</a>
</g>
</g>
<!-- Node23&#45;&gt;Node26 -->
<g id="edge35_Node000023_Node000026" class="edge">
<title>Node23&#45;&gt;Node26</title>
<g id="a_edge35_Node000023_Node000026"><a xlink:title=" ">
<path fill="none" stroke="#63b8ff" d="M1100.78,-179.06C1049.66,-169.93 978.49,-156.73 907.82,-141.56"/>
<polygon fill="#63b8ff" stroke="#63b8ff" points="908.94,-138.22 898.43,-139.52 907.46,-145.06 908.94,-138.22"/>
</a>
</g>
</g>
<!-- Node27 -->
<g id="Node000027" class="node">
<title>Node27</title>
<g id="a_Node000027"><a xlink:title=" ">
<polygon fill="#e0e0e0" stroke="#999999" points="1013.62,-141 914.38,-141 914.38,-110.5 1013.62,-110.5 1013.62,-141"/>
<text text-anchor="start" x="922.38" y="-127.5" font-family="Helvetica,sans-Serif" font-size="10.00">boost/preprocessor</text>
<text text-anchor="middle" x="964" y="-116.25" font-family="Helvetica,sans-Serif" font-size="10.00">/logical.hpp</text>
</a>
</g>
</g>
<!-- Node23&#45;&gt;Node27 -->
<g id="edge36_Node000023_Node000027" class="edge">
<title>Node23&#45;&gt;Node27</title>
<g id="a_edge36_Node000023_Node000027"><a xlink:title=" ">
<path fill="none" stroke="#63b8ff" d="M1123.77,-176.53C1093.43,-167.08 1053.82,-154.74 1021.64,-144.71"/>
<polygon fill="#63b8ff" stroke="#63b8ff" points="1023.06,-141.49 1012.47,-141.85 1020.98,-148.17 1023.06,-141.49"/>
</a>
</g>
</g>
<!-- Node28 -->
<g id="Node000028" class="node">
<title>Node28</title>
<g id="a_Node000028"><a xlink:title=" ">
<polygon fill="#e0e0e0" stroke="#999999" points="1130.62,-141 1031.38,-141 1031.38,-110.5 1130.62,-110.5 1130.62,-141"/>
<text text-anchor="start" x="1039.38" y="-127.5" font-family="Helvetica,sans-Serif" font-size="10.00">boost/preprocessor</text>
<text text-anchor="middle" x="1081" y="-116.25" font-family="Helvetica,sans-Serif" font-size="10.00">/stringize.hpp</text>
</a>
</g>
</g>
<!-- Node23&#45;&gt;Node28 -->
<g id="edge37_Node000023_Node000028" class="edge">
<title>Node23&#45;&gt;Node28</title>
<g id="a_edge37_Node000023_Node000028"><a xlink:title=" ">
<path fill="none" stroke="#63b8ff" d="M1150.58,-176.61C1138.73,-168.12 1123.59,-157.27 1110.47,-147.87"/>
<polygon fill="#63b8ff" stroke="#63b8ff" points="1112.74,-145.19 1102.57,-142.21 1108.66,-150.88 1112.74,-145.19"/>
</a>
</g>
</g>
<!-- Node29 -->
<g id="Node000029" class="node">
<title>Node29</title>
<g id="a_Node000029"><a xlink:title=" ">
<polygon fill="#e0e0e0" stroke="#999999" points="1247.62,-141 1148.38,-141 1148.38,-110.5 1247.62,-110.5 1247.62,-141"/>
<text text-anchor="start" x="1156.38" y="-127.5" font-family="Helvetica,sans-Serif" font-size="10.00">boost/preprocessor</text>
<text text-anchor="middle" x="1198" y="-116.25" font-family="Helvetica,sans-Serif" font-size="10.00">/comparison.hpp</text>
</a>
</g>
</g>
<!-- Node23&#45;&gt;Node29 -->
<g id="edge38_Node000023_Node000029" class="edge">
<title>Node23&#45;&gt;Node29</title>
<g id="a_edge38_Node000023_Node000029"><a xlink:title=" ">
<path fill="none" stroke="#63b8ff" d="M1177.13,-176.61C1180.2,-169.27 1184.01,-160.18 1187.52,-151.77"/>
<polygon fill="#63b8ff" stroke="#63b8ff" points="1190.68,-153.3 1191.31,-142.72 1184.22,-150.6 1190.68,-153.3"/>
</a>
</g>
</g>
<!-- Node30&#45;&gt;Node4 -->
<g id="edge48_Node000030_Node000004" class="edge">
<title>Node30&#45;&gt;Node4</title>
<g id="a_edge48_Node000030_Node000004"><a xlink:title=" ">
<path fill="none" stroke="#63b8ff" d="M352.09,-299.77C355.1,-299.42 358.09,-299.07 361,-298.75 516.44,-281.45 700.99,-265.39 787.15,-258.16"/>
<polygon fill="#63b8ff" stroke="#63b8ff" points="787.21,-261.66 796.89,-257.34 786.63,-254.69 787.21,-261.66"/>
</a>
</g>
</g>
<!-- Node30&#45;&gt;Node8 -->
<g id="edge50_Node000030_Node000008" class="edge">
<title>Node30&#45;&gt;Node8</title>
<g id="a_edge50_Node000030_Node000008"><a xlink:title=" ">
<path fill="none" stroke="#63b8ff" d="M311.28,-298.28C325.04,-290.36 344.07,-277.8 357,-262.75 384.78,-230.41 376.62,-212.65 400,-177 407.58,-165.45 417.42,-153.54 425.68,-144.22"/>
<polygon fill="#63b8ff" stroke="#63b8ff" points="428.11,-146.75 432.24,-136.99 422.93,-142.04 428.11,-146.75"/>
</a>
</g>
</g>
<!-- Node30&#45;&gt;Node9 -->
<g id="edge51_Node000030_Node000009" class="edge">
<title>Node30&#45;&gt;Node9</title>
<g id="a_edge51_Node000030_Node000009"><a xlink:title=" ">
<path fill="none" stroke="#63b8ff" d="M291.03,-298.39C287.36,-285.74 282.34,-262.14 289,-243.5 314.72,-171.53 334.24,-152.64 398,-110.5 435.42,-85.77 486.79,-74.47 519.45,-69.5"/>
<polygon fill="#63b8ff" stroke="#63b8ff" points="519.65,-73.01 529.07,-68.15 518.68,-66.07 519.65,-73.01"/>
</a>
</g>
</g>
<!-- Node30&#45;&gt;Node13 -->
<g id="edge49_Node000030_Node000013" class="edge">
<title>Node30&#45;&gt;Node13</title>
<g id="a_edge49_Node000030_Node000013"><a xlink:title=" ">
<path fill="none" stroke="#63b8ff" d="M315.96,-298.29C333.68,-290.37 358.75,-277.81 378,-262.75 423.83,-226.89 466.63,-172.58 487.21,-144.68"/>
<polygon fill="#63b8ff" stroke="#63b8ff" points="489.81,-147.05 492.86,-136.9 484.15,-142.94 489.81,-147.05"/>
</a>
</g>
</g>
<!-- Node30&#45;&gt;Node31 -->
<g id="edge41_Node000030_Node000031" class="edge">
<title>Node30&#45;&gt;Node31</title>
<g id="a_edge41_Node000030_Node000031"><a xlink:title=" ">
<path fill="none" stroke="#63b8ff" d="M269.23,-298.34C245.74,-289.77 210.19,-276.81 183.65,-267.13"/>
<polygon fill="#63b8ff" stroke="#63b8ff" points="184.9,-263.86 174.31,-263.72 182.51,-270.44 184.9,-263.86"/>
</a>
</g>
</g>
<!-- Node32 -->
<g id="Node000032" class="node">
<title>Node32</title>
<g id="a_Node000032"><a xlink:href="InfoCollector_8hpp.html" target="_top" xlink:title=" ">
<polygon fill="white" stroke="#666666" points="185.38,-135.38 54.62,-135.38 54.62,-116.12 185.38,-116.12 185.38,-135.38"/>
<text text-anchor="middle" x="120" y="-121.88" font-family="Helvetica,sans-Serif" font-size="10.00">opmonlib/InfoCollector.hpp</text>
</a>
</g>
</g>
<!-- Node30&#45;&gt;Node32 -->
<g id="edge42_Node000030_Node000032" class="edge">
<title>Node30&#45;&gt;Node32</title>
<g id="a_edge42_Node000030_Node000032"><a xlink:title=" ">
<path fill="none" stroke="#63b8ff" d="M285.61,-298.66C258.46,-270.48 172.68,-181.43 136.43,-143.8"/>
<polygon fill="#63b8ff" stroke="#63b8ff" points="139.23,-141.66 129.77,-136.89 134.19,-146.52 139.23,-141.66"/>
</a>
</g>
</g>
<!-- Node36 -->
<g id="Node000036" class="node">
<title>Node36</title>
<g id="a_Node000036"><a xlink:title=" ">
<polygon fill="#e0e0e0" stroke="#999999" points="347.88,-262.75 298.12,-262.75 298.12,-243.5 347.88,-243.5 347.88,-262.75"/>
<text text-anchor="middle" x="323" y="-249.25" font-family="Helvetica,sans-Serif" font-size="10.00">typeinfo</text>
</a>
</g>
</g>
<!-- Node30&#45;&gt;Node36 -->
<g id="edge52_Node000030_Node000036" class="edge">
<title>Node30&#45;&gt;Node36</title>
<g id="a_edge52_Node000030_Node000036"><a xlink:title=" ">
<path fill="none" stroke="#63b8ff" d="M298.79,-298.58C302.54,-291.69 307.91,-281.84 312.63,-273.16"/>
<polygon fill="#63b8ff" stroke="#63b8ff" points="315.67,-274.89 317.38,-264.44 309.53,-271.55 315.67,-274.89"/>
</a>
</g>
</g>
<!-- Node32&#45;&gt;Node9 -->
<g id="edge46_Node000032_Node000009" class="edge">
<title>Node32&#45;&gt;Node9</title>
<g id="a_edge46_Node000032_Node000009"><a xlink:title=" ">
<path fill="none" stroke="#63b8ff" d="M167.98,-115.68C178.2,-113.87 188.94,-112.04 199,-110.5 316.87,-92.41 457.77,-76.16 519.46,-69.31"/>
<polygon fill="#63b8ff" stroke="#63b8ff" points="519.65,-72.81 529.21,-68.24 518.88,-65.86 519.65,-72.81"/>
</a>
</g>
</g>
<!-- Node32&#45;&gt;Node10 -->
<g id="edge45_Node000032_Node000010" class="edge">
<title>Node32&#45;&gt;Node10</title>
<g id="a_edge45_Node000032_Node000010"><a xlink:title=" ">
<path fill="none" stroke="#63b8ff" d="M170.14,-115.64C179.72,-113.91 189.67,-112.14 199,-110.5 342.44,-85.3 377.62,-74.38 522,-55.25 683.13,-33.9 876.46,-18.98 956.95,-13.24"/>
<polygon fill="#63b8ff" stroke="#63b8ff" points="956.75,-16.76 966.48,-12.56 956.26,-9.78 956.75,-16.76"/>
</a>
</g>
</g>
<!-- Node33 -->
<g id="Node000033" class="node">
<title>Node33</title>
<g id="a_Node000033"><a xlink:title=" ">
<polygon fill="#e0e0e0" stroke="#999999" points="297.5,-74.5 200.5,-74.5 200.5,-55.25 297.5,-55.25 297.5,-74.5"/>
<text text-anchor="middle" x="249" y="-61" font-family="Helvetica,sans-Serif" font-size="10.00">nlohmann/json.hpp</text>
</a>
</g>
</g>
<!-- Node32&#45;&gt;Node33 -->
<g id="edge43_Node000032_Node000033" class="edge">
<title>Node32&#45;&gt;Node33</title>
<g id="a_edge43_Node000032_Node000033"><a xlink:title=" ">
<path fill="none" stroke="#63b8ff" d="M139.87,-115.68C160.96,-106.06 194.52,-90.74 218.86,-79.63"/>
<polygon fill="#63b8ff" stroke="#63b8ff" points="220.29,-82.82 227.94,-75.49 217.39,-76.46 220.29,-82.82"/>
</a>
</g>
</g>
<!-- Node34 -->
<g id="Node000034" class="node">
<title>Node34</title>
<g id="a_Node000034"><a xlink:title=" ">
<polygon fill="#e0e0e0" stroke="#999999" points="40,-74.5 0,-74.5 0,-55.25 40,-55.25 40,-74.5"/>
<text text-anchor="middle" x="20" y="-61" font-family="Helvetica,sans-Serif" font-size="10.00">ctime</text>
</a>
</g>
</g>
<!-- Node32&#45;&gt;Node34 -->
<g id="edge44_Node000032_Node000034" class="edge">
<title>Node32&#45;&gt;Node34</title>
<g id="a_edge44_Node000032_Node000034"><a xlink:title=" ">
<path fill="none" stroke="#63b8ff" d="M104.81,-115.81C88.95,-106.47 63.82,-91.67 45.02,-80.61"/>
<polygon fill="#63b8ff" stroke="#63b8ff" points="47.03,-77.73 36.64,-75.67 43.48,-83.76 47.03,-77.73"/>
</a>
</g>
</g>
<!-- Node35 -->
<g id="Node000035" class="node">
<title>Node35</title>
<g id="a_Node000035"><a xlink:href="JSONTags_8hpp.html" target="_top" xlink:title=" ">
<polygon fill="white" stroke="#666666" points="182.38,-74.5 57.63,-74.5 57.63,-55.25 182.38,-55.25 182.38,-74.5"/>
<text text-anchor="middle" x="120" y="-61" font-family="Helvetica,sans-Serif" font-size="10.00">opmonlib/JSONTags.hpp</text>
</a>
</g>
</g>
<!-- Node32&#45;&gt;Node35 -->
<g id="edge47_Node000032_Node000035" class="edge">
<title>Node32&#45;&gt;Node35</title>
<g id="a_edge47_Node000032_Node000035"><a xlink:title=" ">
<path fill="none" stroke="#63b8ff" d="M120,-115.81C120,-108.03 120,-96.45 120,-86.41"/>
<polygon fill="#63b8ff" stroke="#63b8ff" points="123.5,-86.41 120,-76.41 116.5,-86.41 123.5,-86.41"/>
</a>
</g>
</g>
</g>
</svg>
