<?xml version="1.0" encoding="UTF-8" standalone="no"?>
<!DOCTYPE svg PUBLIC "-//W3C//DTD SVG 1.1//EN"
 "http://www.w3.org/Graphics/SVG/1.1/DTD/svg11.dtd">
<!-- Generated by graphviz version 9.0.0 (20230911.1827)
 -->
<!-- Title: /github/workspace/dev_area/sourcecode/timing/include/timing/EndpointNode.hpp Pages: 1 -->
<svg width="1986pt" height="372pt"
 viewBox="0.00 0.00 1985.50 372.00" xmlns="http://www.w3.org/2000/svg" xmlns:xlink="http://www.w3.org/1999/xlink">
<g id="graph0" class="graph" transform="scale(1 1) rotate(0) translate(4 368)">
<title>/github/workspace/dev_area/sourcecode/timing/include/timing/EndpointNode.hpp</title>
<!-- Node1 -->
<g id="Node000001" class="node">
<title>Node1</title>
<g id="a_Node000001"><a xlink:title=" ">
<polygon fill="#999999" stroke="#666666" points="1343.38,-364 1182.62,-364 1182.62,-322.25 1343.38,-322.25 1343.38,-364"/>
<text text-anchor="start" x="1190.62" y="-350.5" font-family="Helvetica,sans-Serif" font-size="10.00">/github/workspace/dev</text>
<text text-anchor="start" x="1190.62" y="-339.25" font-family="Helvetica,sans-Serif" font-size="10.00">_area/sourcecode/timing</text>
<text text-anchor="middle" x="1263" y="-328" font-family="Helvetica,sans-Serif" font-size="10.00">/include/timing/EndpointNode.hpp</text>
</a>
</g>
</g>
<!-- Node2 -->
<g id="Node000002" class="node">
<title>Node2</title>
<g id="a_Node000002"><a xlink:href="EndpointDesignInterface_8hpp.html" target="_top" xlink:title=" ">
<polygon fill="white" stroke="#666666" points="1111.75,-286.25 962.25,-286.25 962.25,-233.25 1111.75,-233.25 1111.75,-286.25"/>
<text text-anchor="start" x="970.25" y="-272.75" font-family="Helvetica,sans-Serif" font-size="10.00">/github/workspace/dev</text>
<text text-anchor="start" x="970.25" y="-261.5" font-family="Helvetica,sans-Serif" font-size="10.00">_area/sourcecode/timing</text>
<text text-anchor="start" x="970.25" y="-250.25" font-family="Helvetica,sans-Serif" font-size="10.00">/include/timing/EndpointDesign</text>
<text text-anchor="middle" x="1037" y="-239" font-family="Helvetica,sans-Serif" font-size="10.00">Interface.hpp</text>
</a>
</g>
</g>
<!-- Node1&#45;&gt;Node2 -->
<g id="edge1_Node000001_Node000002" class="edge">
<title>Node1&#45;&gt;Node2</title>
<g id="a_edge1_Node000001_Node000002"><a xlink:title=" ">
<path fill="none" stroke="#63b8ff" d="M1195.9,-317.96C1168.52,-308.11 1136.81,-296.69 1108.95,-286.66"/>
<polygon fill="#63b8ff" stroke="#63b8ff" points="1194.54,-321.19 1205.13,-321.29 1196.91,-314.61 1194.54,-321.19"/>
</a>
</g>
</g>
<!-- Node28 -->
<g id="Node000028" class="node">
<title>Node28</title>
<g id="a_Node000028"><a xlink:href="definitions_8cpp.html" target="_top" xlink:title=" ">
<polygon fill="white" stroke="#666666" points="1254.38,-280.62 1129.62,-280.62 1129.62,-238.88 1254.38,-238.88 1254.38,-280.62"/>
<text text-anchor="start" x="1137.62" y="-267.12" font-family="Helvetica,sans-Serif" font-size="10.00">/github/workspace/dev</text>
<text text-anchor="start" x="1137.62" y="-255.88" font-family="Helvetica,sans-Serif" font-size="10.00">_area/sourcecode/timing</text>
<text text-anchor="middle" x="1192" y="-244.62" font-family="Helvetica,sans-Serif" font-size="10.00">/pybindsrc/definitions.cpp</text>
</a>
</g>
</g>
<!-- Node1&#45;&gt;Node28 -->
<g id="edge39_Node000001_Node000028" class="edge">
<title>Node1&#45;&gt;Node28</title>
<g id="a_edge39_Node000001_Node000028"><a xlink:title=" ">
<path fill="none" stroke="#63b8ff" d="M1237.9,-313.36C1228.55,-302.64 1218.13,-290.7 1209.59,-280.92"/>
<polygon fill="#63b8ff" stroke="#63b8ff" points="1235.24,-315.64 1244.45,-320.87 1240.52,-311.03 1235.24,-315.64"/>
</a>
</g>
</g>
<!-- Node29 -->
<g id="Node000029" class="node">
<title>Node29</title>
<g id="a_Node000029"><a xlink:href="endpoint_8cpp.html" target="_top" xlink:title=" ">
<polygon fill="white" stroke="#666666" points="1395.25,-280.62 1272.75,-280.62 1272.75,-238.88 1395.25,-238.88 1395.25,-280.62"/>
<text text-anchor="start" x="1280.75" y="-267.12" font-family="Helvetica,sans-Serif" font-size="10.00">/github/workspace/dev</text>
<text text-anchor="start" x="1280.75" y="-255.88" font-family="Helvetica,sans-Serif" font-size="10.00">_area/sourcecode/timing</text>
<text text-anchor="middle" x="1334" y="-244.62" font-family="Helvetica,sans-Serif" font-size="10.00">/pybindsrc/endpoint.cpp</text>
</a>
</g>
</g>
<!-- Node1&#45;&gt;Node29 -->
<g id="edge40_Node000001_Node000029" class="edge">
<title>Node1&#45;&gt;Node29</title>
<g id="a_edge40_Node000001_Node000029"><a xlink:title=" ">
<path fill="none" stroke="#63b8ff" d="M1288.1,-313.36C1297.45,-302.64 1307.87,-290.7 1316.41,-280.92"/>
<polygon fill="#63b8ff" stroke="#63b8ff" points="1285.48,-311.03 1281.55,-320.87 1290.76,-315.64 1285.48,-311.03"/>
</a>
</g>
</g>
<!-- Node30 -->
<g id="Node000030" class="node">
<title>Node30</title>
<g id="a_Node000030"><a xlink:href="EndpointNode_8cpp.html" target="_top" xlink:title=" ">
<polygon fill="white" stroke="#666666" points="1536.25,-280.62 1413.75,-280.62 1413.75,-238.88 1536.25,-238.88 1536.25,-280.62"/>
<text text-anchor="start" x="1421.75" y="-267.12" font-family="Helvetica,sans-Serif" font-size="10.00">/github/workspace/dev</text>
<text text-anchor="start" x="1421.75" y="-255.88" font-family="Helvetica,sans-Serif" font-size="10.00">_area/sourcecode/timing</text>
<text text-anchor="middle" x="1475" y="-244.62" font-family="Helvetica,sans-Serif" font-size="10.00">/src/EndpointNode.cpp</text>
</a>
</g>
</g>
<!-- Node1&#45;&gt;Node30 -->
<g id="edge41_Node000001_Node000030" class="edge">
<title>Node1&#45;&gt;Node30</title>
<g id="a_edge41_Node000001_Node000030"><a xlink:title=" ">
<path fill="none" stroke="#63b8ff" d="M1326.47,-317.76C1356.93,-306.07 1393.02,-292.22 1421.99,-281.1"/>
<polygon fill="#63b8ff" stroke="#63b8ff" points="1325.44,-314.41 1317.36,-321.26 1327.95,-320.94 1325.44,-314.41"/>
</a>
</g>
</g>
<!-- Node3 -->
<g id="Node000003" class="node">
<title>Node3</title>
<g id="a_Node000003"><a xlink:href="CRTDesignInterface_8hpp.html" target="_top" xlink:title=" ">
<polygon fill="white" stroke="#666666" points="584.88,-197.25 397.12,-197.25 397.12,-155.5 584.88,-155.5 584.88,-197.25"/>
<text text-anchor="start" x="405.12" y="-183.75" font-family="Helvetica,sans-Serif" font-size="10.00">/github/workspace/dev</text>
<text text-anchor="start" x="405.12" y="-172.5" font-family="Helvetica,sans-Serif" font-size="10.00">_area/sourcecode/timing</text>
<text text-anchor="middle" x="491" y="-161.25" font-family="Helvetica,sans-Serif" font-size="10.00">/include/timing/CRTDesignInterface.hpp</text>
</a>
</g>
</g>
<!-- Node2&#45;&gt;Node3 -->
<g id="edge2_Node000002_Node000003" class="edge">
<title>Node2&#45;&gt;Node3</title>
<g id="a_edge2_Node000002_Node000003"><a xlink:title=" ">
<path fill="none" stroke="#63b8ff" d="M950.73,-245.89C851.21,-231.06 688.15,-206.76 585.35,-191.44"/>
<polygon fill="#63b8ff" stroke="#63b8ff" points="950.04,-249.33 960.44,-247.34 951.07,-242.4 950.04,-249.33"/>
</a>
</g>
</g>
<!-- Node7 -->
<g id="Node000007" class="node">
<title>Node7</title>
<g id="a_Node000007"><a xlink:href="EndpointDesign_8hpp.html" target="_top" xlink:title=" ">
<polygon fill="white" stroke="#666666" points="1032.75,-197.25 865.25,-197.25 865.25,-155.5 1032.75,-155.5 1032.75,-197.25"/>
<text text-anchor="start" x="873.25" y="-183.75" font-family="Helvetica,sans-Serif" font-size="10.00">/github/workspace/dev</text>
<text text-anchor="start" x="873.25" y="-172.5" font-family="Helvetica,sans-Serif" font-size="10.00">_area/sourcecode/timing</text>
<text text-anchor="middle" x="949" y="-161.25" font-family="Helvetica,sans-Serif" font-size="10.00">/include/timing/EndpointDesign.hpp</text>
</a>
</g>
</g>
<!-- Node2&#45;&gt;Node7 -->
<g id="edge6_Node000002_Node000007" class="edge">
<title>Node2&#45;&gt;Node7</title>
<g id="a_edge6_Node000002_Node000007"><a xlink:title=" ">
<path fill="none" stroke="#63b8ff" d="M1000.79,-225.27C990.61,-215.86 979.86,-205.91 970.81,-197.54"/>
<polygon fill="#63b8ff" stroke="#63b8ff" points="998.33,-227.76 1008.05,-231.97 1003.08,-222.62 998.33,-227.76"/>
</a>
</g>
</g>
<!-- Node11 -->
<g id="Node000011" class="node">
<title>Node11</title>
<g id="a_Node000011"><a xlink:href="FanoutDesign_8hpp.html" target="_top" xlink:title=" ">
<polygon fill="white" stroke="#666666" points="160,-119.5 0,-119.5 0,-77.75 160,-77.75 160,-119.5"/>
<text text-anchor="start" x="8" y="-106" font-family="Helvetica,sans-Serif" font-size="10.00">/github/workspace/dev</text>
<text text-anchor="start" x="8" y="-94.75" font-family="Helvetica,sans-Serif" font-size="10.00">_area/sourcecode/timing</text>
<text text-anchor="middle" x="80" y="-83.5" font-family="Helvetica,sans-Serif" font-size="10.00">/include/timing/FanoutDesign.hpp</text>
</a>
</g>
</g>
<!-- Node2&#45;&gt;Node11 -->
<g id="edge12_Node000002_Node000011" class="edge">
<title>Node2&#45;&gt;Node11</title>
<g id="a_edge12_Node000002_Node000011"><a xlink:title=" ">
<path fill="none" stroke="#63b8ff" d="M950.75,-254.68C786.58,-246.39 435.06,-225.89 317,-197.25 244.13,-179.57 164.51,-142.87 118.6,-119.85"/>
<polygon fill="#63b8ff" stroke="#63b8ff" points="950.09,-258.15 960.25,-255.16 950.44,-251.16 950.09,-258.15"/>
</a>
</g>
</g>
<!-- Node14 -->
<g id="Node000014" class="node">
<title>Node14</title>
<g id="a_Node000014"><a xlink:href="GaiaDesign_8hpp.html" target="_top" xlink:title=" ">
<polygon fill="white" stroke="#666666" points="1201.12,-197.25 1050.88,-197.25 1050.88,-155.5 1201.12,-155.5 1201.12,-197.25"/>
<text text-anchor="start" x="1058.88" y="-183.75" font-family="Helvetica,sans-Serif" font-size="10.00">/github/workspace/dev</text>
<text text-anchor="start" x="1058.88" y="-172.5" font-family="Helvetica,sans-Serif" font-size="10.00">_area/sourcecode/timing</text>
<text text-anchor="middle" x="1126" y="-161.25" font-family="Helvetica,sans-Serif" font-size="10.00">/include/timing/GaiaDesign.hpp</text>
</a>
</g>
</g>
<!-- Node2&#45;&gt;Node14 -->
<g id="edge16_Node000002_Node000014" class="edge">
<title>Node2&#45;&gt;Node14</title>
<g id="a_edge16_Node000002_Node000014"><a xlink:title=" ">
<path fill="none" stroke="#63b8ff" d="M1073.62,-225.27C1083.91,-215.86 1094.79,-205.91 1103.94,-197.54"/>
<polygon fill="#63b8ff" stroke="#63b8ff" points="1071.3,-222.65 1066.28,-231.98 1076.02,-227.82 1071.3,-222.65"/>
</a>
</g>
</g>
<!-- Node16 -->
<g id="Node000016" class="node">
<title>Node16</title>
<g id="a_Node000016"><a xlink:href="HSIDesignInterface_8hpp.html" target="_top" xlink:title=" ">
<polygon fill="white" stroke="#666666" points="827.75,-197.25 642.25,-197.25 642.25,-155.5 827.75,-155.5 827.75,-197.25"/>
<text text-anchor="start" x="650.25" y="-183.75" font-family="Helvetica,sans-Serif" font-size="10.00">/github/workspace/dev</text>
<text text-anchor="start" x="650.25" y="-172.5" font-family="Helvetica,sans-Serif" font-size="10.00">_area/sourcecode/timing</text>
<text text-anchor="middle" x="735" y="-161.25" font-family="Helvetica,sans-Serif" font-size="10.00">/include/timing/HSIDesignInterface.hpp</text>
</a>
</g>
</g>
<!-- Node2&#45;&gt;Node16 -->
<g id="edge19_Node000002_Node000016" class="edge">
<title>Node2&#45;&gt;Node16</title>
<g id="a_edge19_Node000002_Node000016"><a xlink:title=" ">
<path fill="none" stroke="#63b8ff" d="M950.91,-235.55C906.61,-223.62 853.1,-209.2 810.44,-197.7"/>
<polygon fill="#63b8ff" stroke="#63b8ff" points="949.93,-238.91 960.5,-238.14 951.75,-232.16 949.93,-238.91"/>
</a>
</g>
</g>
<!-- Node19 -->
<g id="Node000019" class="node">
<title>Node19</title>
<g id="a_Node000019"><a xlink:href="sourcecode_2timinglibs_2src_2TimingHardwareManager_8hpp.html" target="_top" xlink:title=" ">
<polygon fill="white" stroke="#666666" points="340.12,-119.5 177.88,-119.5 177.88,-77.75 340.12,-77.75 340.12,-119.5"/>
<text text-anchor="start" x="185.88" y="-106" font-family="Helvetica,sans-Serif" font-size="10.00">/github/workspace/dev</text>
<text text-anchor="start" x="185.88" y="-94.75" font-family="Helvetica,sans-Serif" font-size="10.00">_area/sourcecode/timinglibs</text>
<text text-anchor="middle" x="259" y="-83.5" font-family="Helvetica,sans-Serif" font-size="10.00">/src/TimingHardwareManager.hpp</text>
</a>
</g>
</g>
<!-- Node2&#45;&gt;Node19 -->
<g id="edge38_Node000002_Node000019" class="edge">
<title>Node2&#45;&gt;Node19</title>
<g id="a_edge38_Node000002_Node000019"><a xlink:title=" ">
<path fill="none" stroke="#63b8ff" d="M950.68,-256.4C798.34,-251.29 488.39,-236.32 388,-197.25 343.77,-180.03 301.72,-143 278.24,-119.82"/>
<polygon fill="#63b8ff" stroke="#63b8ff" points="950.19,-259.89 960.3,-256.72 950.42,-252.89 950.19,-259.89"/>
</a>
</g>
</g>
<!-- Node20 -->
<g id="Node000020" class="node">
<title>Node20</title>
<g id="a_Node000020"><a xlink:href="KerberosDesign_8hpp.html" target="_top" xlink:title=" ">
<polygon fill="white" stroke="#666666" points="1573.5,-197.25 1404.5,-197.25 1404.5,-155.5 1573.5,-155.5 1573.5,-197.25"/>
<text text-anchor="start" x="1412.5" y="-183.75" font-family="Helvetica,sans-Serif" font-size="10.00">/github/workspace/dev</text>
<text text-anchor="start" x="1412.5" y="-172.5" font-family="Helvetica,sans-Serif" font-size="10.00">_area/sourcecode/timing</text>
<text text-anchor="middle" x="1489" y="-161.25" font-family="Helvetica,sans-Serif" font-size="10.00">/include/timing/KerberosDesign.hpp</text>
</a>
</g>
</g>
<!-- Node2&#45;&gt;Node20 -->
<g id="edge26_Node000002_Node000020" class="edge">
<title>Node2&#45;&gt;Node20</title>
<g id="a_edge26_Node000002_Node000020"><a xlink:title=" ">
<path fill="none" stroke="#63b8ff" d="M1123.05,-232.97C1243.06,-207.92 1277.48,-217.36 1395,-197.25 1397.96,-196.74 1400.97,-196.21 1404,-195.66"/>
<polygon fill="#63b8ff" stroke="#63b8ff" points="1122.48,-229.51 1113.43,-235.02 1123.94,-236.36 1122.48,-229.51"/>
</a>
</g>
</g>
<!-- Node22 -->
<g id="Node000022" class="node">
<title>Node22</title>
<g id="a_Node000022"><a xlink:href="OuroborosDesign_8hpp.html" target="_top" xlink:title=" ">
<polygon fill="white" stroke="#666666" points="1977.5,-197.25 1802.5,-197.25 1802.5,-155.5 1977.5,-155.5 1977.5,-197.25"/>
<text text-anchor="start" x="1810.5" y="-183.75" font-family="Helvetica,sans-Serif" font-size="10.00">/github/workspace/dev</text>
<text text-anchor="start" x="1810.5" y="-172.5" font-family="Helvetica,sans-Serif" font-size="10.00">_area/sourcecode/timing</text>
<text text-anchor="middle" x="1890" y="-161.25" font-family="Helvetica,sans-Serif" font-size="10.00">/include/timing/OuroborosDesign.hpp</text>
</a>
</g>
</g>
<!-- Node2&#45;&gt;Node22 -->
<g id="edge29_Node000002_Node000022" class="edge">
<title>Node2&#45;&gt;Node22</title>
<g id="a_edge29_Node000002_Node000022"><a xlink:title=" ">
<path fill="none" stroke="#63b8ff" d="M1122.93,-233.12C1418.02,-182.68 1500.57,-235.25 1794,-197.25 1796.7,-196.9 1799.44,-196.52 1802.2,-196.1"/>
<polygon fill="#63b8ff" stroke="#63b8ff" points="1122.63,-229.62 1113.38,-234.78 1123.83,-236.52 1122.63,-229.62"/>
</a>
</g>
</g>
<!-- Node24 -->
<g id="Node000024" class="node">
<title>Node24</title>
<g id="a_Node000024"><a xlink:href="OuroborosMuxDesign_8hpp.html" target="_top" xlink:title=" ">
<polygon fill="white" stroke="#666666" points="1784.5,-197.25 1591.5,-197.25 1591.5,-155.5 1784.5,-155.5 1784.5,-197.25"/>
<text text-anchor="start" x="1599.5" y="-183.75" font-family="Helvetica,sans-Serif" font-size="10.00">/github/workspace/dev</text>
<text text-anchor="start" x="1599.5" y="-172.5" font-family="Helvetica,sans-Serif" font-size="10.00">_area/sourcecode/timing</text>
<text text-anchor="middle" x="1688" y="-161.25" font-family="Helvetica,sans-Serif" font-size="10.00">/include/timing/OuroborosMuxDesign.hpp</text>
</a>
</g>
</g>
<!-- Node2&#45;&gt;Node24 -->
<g id="edge32_Node000002_Node000024" class="edge">
<title>Node2&#45;&gt;Node24</title>
<g id="a_edge32_Node000002_Node000024"><a xlink:title=" ">
<path fill="none" stroke="#63b8ff" d="M1123.22,-233.03C1325.45,-196.15 1382.54,-223.95 1583,-197.25 1585.67,-196.89 1588.37,-196.52 1591.09,-196.12"/>
<polygon fill="#63b8ff" stroke="#63b8ff" points="1122.59,-229.59 1113.39,-234.86 1123.86,-236.47 1122.59,-229.59"/>
</a>
</g>
</g>
<!-- Node26 -->
<g id="Node000026" class="node">
<title>Node26</title>
<g id="a_Node000026"><a xlink:href="OverlordDesign_8hpp.html" target="_top" xlink:title=" ">
<polygon fill="white" stroke="#666666" points="1386.38,-197.25 1219.62,-197.25 1219.62,-155.5 1386.38,-155.5 1386.38,-197.25"/>
<text text-anchor="start" x="1227.62" y="-183.75" font-family="Helvetica,sans-Serif" font-size="10.00">/github/workspace/dev</text>
<text text-anchor="start" x="1227.62" y="-172.5" font-family="Helvetica,sans-Serif" font-size="10.00">_area/sourcecode/timing</text>
<text text-anchor="middle" x="1303" y="-161.25" font-family="Helvetica,sans-Serif" font-size="10.00">/include/timing/OverlordDesign.hpp</text>
</a>
</g>
</g>
<!-- Node2&#45;&gt;Node26 -->
<g id="edge35_Node000002_Node000026" class="edge">
<title>Node2&#45;&gt;Node26</title>
<g id="a_edge35_Node000002_Node000026"><a xlink:title=" ">
<path fill="none" stroke="#63b8ff" d="M1122.91,-232.47C1159.79,-221.19 1202.22,-208.2 1236.63,-197.68"/>
<polygon fill="#63b8ff" stroke="#63b8ff" points="1122.14,-229.04 1113.61,-235.31 1124.19,-235.74 1122.14,-229.04"/>
</a>
</g>
</g>
<!-- Node4 -->
<g id="Node000004" class="node">
<title>Node4</title>
<g id="a_Node000004"><a xlink:href="CRTDesign_8hpp.html" target="_top" xlink:title=" ">
<polygon fill="white" stroke="#666666" points="507.75,-119.5 358.25,-119.5 358.25,-77.75 507.75,-77.75 507.75,-119.5"/>
<text text-anchor="start" x="366.25" y="-106" font-family="Helvetica,sans-Serif" font-size="10.00">/github/workspace/dev</text>
<text text-anchor="start" x="366.25" y="-94.75" font-family="Helvetica,sans-Serif" font-size="10.00">_area/sourcecode/timing</text>
<text text-anchor="middle" x="433" y="-83.5" font-family="Helvetica,sans-Serif" font-size="10.00">/include/timing/CRTDesign.hpp</text>
</a>
</g>
</g>
<!-- Node3&#45;&gt;Node4 -->
<g id="edge3_Node000003_Node000004" class="edge">
<title>Node3&#45;&gt;Node4</title>
<g id="a_edge3_Node000003_Node000004"><a xlink:title=" ">
<path fill="none" stroke="#63b8ff" d="M468.49,-145.98C461.84,-137.29 454.7,-127.97 448.59,-119.98"/>
<polygon fill="#63b8ff" stroke="#63b8ff" points="465.68,-148.06 474.54,-153.87 471.24,-143.81 465.68,-148.06"/>
</a>
</g>
</g>
<!-- Node5 -->
<g id="Node000005" class="node">
<title>Node5</title>
<g id="a_Node000005"><a xlink:href="top__designs_8cpp.html" target="_top" xlink:title=" ">
<polygon fill="white" stroke="#666666" points="1193.88,-41.75 1060.12,-41.75 1060.12,0 1193.88,0 1193.88,-41.75"/>
<text text-anchor="start" x="1068.12" y="-28.25" font-family="Helvetica,sans-Serif" font-size="10.00">/github/workspace/dev</text>
<text text-anchor="start" x="1068.12" y="-17" font-family="Helvetica,sans-Serif" font-size="10.00">_area/sourcecode/timing</text>
<text text-anchor="middle" x="1127" y="-5.75" font-family="Helvetica,sans-Serif" font-size="10.00">/pybindsrc/top_designs.cpp</text>
</a>
</g>
</g>
<!-- Node4&#45;&gt;Node5 -->
<g id="edge4_Node000004_Node000005" class="edge">
<title>Node4&#45;&gt;Node5</title>
<g id="a_edge4_Node000004_Node000005"><a xlink:title=" ">
<path fill="none" stroke="#63b8ff" d="M519.05,-77.59C638.8,-59.46 927.81,-36.74 1059.65,-26.84"/>
<polygon fill="#63b8ff" stroke="#63b8ff" points="518.83,-74.08 509.5,-79.09 519.92,-80.99 518.83,-74.08"/>
</a>
</g>
</g>
<!-- Node6 -->
<g id="Node000006" class="node">
<title>Node6</title>
<g id="a_Node000006"><a xlink:href="CRTDesign_8cpp.html" target="_top" xlink:title=" ">
<polygon fill="white" stroke="#666666" points="494.25,-41.75 371.75,-41.75 371.75,0 494.25,0 494.25,-41.75"/>
<text text-anchor="start" x="379.75" y="-28.25" font-family="Helvetica,sans-Serif" font-size="10.00">/github/workspace/dev</text>
<text text-anchor="start" x="379.75" y="-17" font-family="Helvetica,sans-Serif" font-size="10.00">_area/sourcecode/timing</text>
<text text-anchor="middle" x="433" y="-5.75" font-family="Helvetica,sans-Serif" font-size="10.00">/src/CRTDesign.cpp</text>
</a>
</g>
</g>
<!-- Node4&#45;&gt;Node6 -->
<g id="edge5_Node000004_Node000006" class="edge">
<title>Node4&#45;&gt;Node6</title>
<g id="a_edge5_Node000004_Node000006"><a xlink:title=" ">
<path fill="none" stroke="#63b8ff" d="M433,-66C433,-57.96 433,-49.54 433,-42.23"/>
<polygon fill="#63b8ff" stroke="#63b8ff" points="429.5,-65.81 433,-75.81 436.5,-65.81 429.5,-65.81"/>
</a>
</g>
</g>
<!-- Node7&#45;&gt;Node5 -->
<g id="edge10_Node000007_Node000005" class="edge">
<title>Node7&#45;&gt;Node5</title>
<g id="a_edge10_Node000007_Node000005"><a xlink:title=" ">
<path fill="none" stroke="#63b8ff" d="M985.46,-148.06C996.54,-139.29 1008.54,-129.3 1019,-119.5 1037.31,-102.34 1038.69,-94.91 1057,-77.75 1070.39,-65.2 1086.31,-52.35 1099.58,-42.14"/>
<polygon fill="#63b8ff" stroke="#63b8ff" points="983.35,-145.27 977.62,-154.18 987.65,-150.79 983.35,-145.27"/>
</a>
</g>
</g>
<!-- Node8 -->
<g id="Node000008" class="node">
<title>Node8</title>
<g id="a_Node000008"><a xlink:href="ChronosDesign_8hpp.html" target="_top" xlink:title=" ">
<polygon fill="white" stroke="#666666" points="870,-119.5 704,-119.5 704,-77.75 870,-77.75 870,-119.5"/>
<text text-anchor="start" x="712" y="-106" font-family="Helvetica,sans-Serif" font-size="10.00">/github/workspace/dev</text>
<text text-anchor="start" x="712" y="-94.75" font-family="Helvetica,sans-Serif" font-size="10.00">_area/sourcecode/timing</text>
<text text-anchor="middle" x="787" y="-83.5" font-family="Helvetica,sans-Serif" font-size="10.00">/include/timing/ChronosDesign.hpp</text>
</a>
</g>
</g>
<!-- Node7&#45;&gt;Node8 -->
<g id="edge7_Node000007_Node000008" class="edge">
<title>Node7&#45;&gt;Node8</title>
<g id="a_edge7_Node000007_Node000008"><a xlink:title=" ">
<path fill="none" stroke="#63b8ff" d="M895.21,-150.22C874.2,-140.4 850.43,-129.29 830.53,-119.98"/>
<polygon fill="#63b8ff" stroke="#63b8ff" points="893.67,-153.37 904.22,-154.43 896.64,-147.03 893.67,-153.37"/>
</a>
</g>
</g>
<!-- Node10 -->
<g id="Node000010" class="node">
<title>Node10</title>
<g id="a_Node000010"><a xlink:href="EndpointDesign_8cpp.html" target="_top" xlink:title=" ">
<polygon fill="white" stroke="#666666" points="1010.25,-119.5 887.75,-119.5 887.75,-77.75 1010.25,-77.75 1010.25,-119.5"/>
<text text-anchor="start" x="895.75" y="-106" font-family="Helvetica,sans-Serif" font-size="10.00">/github/workspace/dev</text>
<text text-anchor="start" x="895.75" y="-94.75" font-family="Helvetica,sans-Serif" font-size="10.00">_area/sourcecode/timing</text>
<text text-anchor="middle" x="949" y="-83.5" font-family="Helvetica,sans-Serif" font-size="10.00">/src/EndpointDesign.cpp</text>
</a>
</g>
</g>
<!-- Node7&#45;&gt;Node10 -->
<g id="edge11_Node000007_Node000010" class="edge">
<title>Node7&#45;&gt;Node10</title>
<g id="a_edge11_Node000007_Node000010"><a xlink:title=" ">
<path fill="none" stroke="#63b8ff" d="M949,-143.75C949,-135.71 949,-127.29 949,-119.98"/>
<polygon fill="#63b8ff" stroke="#63b8ff" points="945.5,-143.56 949,-153.56 952.5,-143.56 945.5,-143.56"/>
</a>
</g>
</g>
<!-- Node8&#45;&gt;Node5 -->
<g id="edge8_Node000008_Node000005" class="edge">
<title>Node8&#45;&gt;Node5</title>
<g id="a_edge8_Node000008_Node000005"><a xlink:title=" ">
<path fill="none" stroke="#63b8ff" d="M881.31,-76.61C937.99,-63.99 1008.77,-48.22 1059.78,-36.85"/>
<polygon fill="#63b8ff" stroke="#63b8ff" points="880.65,-73.17 871.65,-78.77 882.17,-80.01 880.65,-73.17"/>
</a>
</g>
</g>
<!-- Node9 -->
<g id="Node000009" class="node">
<title>Node9</title>
<g id="a_Node000009"><a xlink:href="ChronosDesign_8cpp.html" target="_top" xlink:title=" ">
<polygon fill="white" stroke="#666666" points="848.25,-41.75 725.75,-41.75 725.75,0 848.25,0 848.25,-41.75"/>
<text text-anchor="start" x="733.75" y="-28.25" font-family="Helvetica,sans-Serif" font-size="10.00">/github/workspace/dev</text>
<text text-anchor="start" x="733.75" y="-17" font-family="Helvetica,sans-Serif" font-size="10.00">_area/sourcecode/timing</text>
<text text-anchor="middle" x="787" y="-5.75" font-family="Helvetica,sans-Serif" font-size="10.00">/src/ChronosDesign.cpp</text>
</a>
</g>
</g>
<!-- Node8&#45;&gt;Node9 -->
<g id="edge9_Node000008_Node000009" class="edge">
<title>Node8&#45;&gt;Node9</title>
<g id="a_edge9_Node000008_Node000009"><a xlink:title=" ">
<path fill="none" stroke="#63b8ff" d="M787,-66C787,-57.96 787,-49.54 787,-42.23"/>
<polygon fill="#63b8ff" stroke="#63b8ff" points="783.5,-65.81 787,-75.81 790.5,-65.81 783.5,-65.81"/>
</a>
</g>
</g>
<!-- Node11&#45;&gt;Node5 -->
<g id="edge13_Node000011_Node000005" class="edge">
<title>Node11&#45;&gt;Node5</title>
<g id="a_edge13_Node000011_Node000005"><a xlink:title=" ">
<path fill="none" stroke="#63b8ff" d="M171.74,-77.5C474.33,-36.84 555.14,-60.76 857,-41.75 926.19,-37.39 1005.28,-31.46 1059.9,-27.21"/>
<polygon fill="#63b8ff" stroke="#63b8ff" points="171.36,-74.02 161.92,-78.83 172.3,-80.95 171.36,-74.02"/>
</a>
</g>
</g>
<!-- Node12 -->
<g id="Node000012" class="node">
<title>Node12</title>
<g id="a_Node000012"><a xlink:href="FanoutDesign_8cpp.html" target="_top" xlink:title=" ">
<polygon fill="white" stroke="#666666" points="141.25,-41.75 18.75,-41.75 18.75,0 141.25,0 141.25,-41.75"/>
<text text-anchor="start" x="26.75" y="-28.25" font-family="Helvetica,sans-Serif" font-size="10.00">/github/workspace/dev</text>
<text text-anchor="start" x="26.75" y="-17" font-family="Helvetica,sans-Serif" font-size="10.00">_area/sourcecode/timing</text>
<text text-anchor="middle" x="80" y="-5.75" font-family="Helvetica,sans-Serif" font-size="10.00">/src/FanoutDesign.cpp</text>
</a>
</g>
</g>
<!-- Node11&#45;&gt;Node12 -->
<g id="edge14_Node000011_Node000012" class="edge">
<title>Node11&#45;&gt;Node12</title>
<g id="a_edge14_Node000011_Node000012"><a xlink:title=" ">
<path fill="none" stroke="#63b8ff" d="M80,-66C80,-57.96 80,-49.54 80,-42.23"/>
<polygon fill="#63b8ff" stroke="#63b8ff" points="76.5,-65.81 80,-75.81 83.5,-65.81 76.5,-65.81"/>
</a>
</g>
</g>
<!-- Node13 -->
<g id="Node000013" class="node">
<title>Node13</title>
<g id="a_Node000013"><a xlink:href="sourcecode_2timinglibs_2src_2TimingHardwareManager_8cpp.html" target="_top" xlink:title=" ">
<polygon fill="white" stroke="#666666" points="331.12,-41.75 168.88,-41.75 168.88,0 331.12,0 331.12,-41.75"/>
<text text-anchor="start" x="176.88" y="-28.25" font-family="Helvetica,sans-Serif" font-size="10.00">/github/workspace/dev</text>
<text text-anchor="start" x="176.88" y="-17" font-family="Helvetica,sans-Serif" font-size="10.00">_area/sourcecode/timinglibs</text>
<text text-anchor="middle" x="250" y="-5.75" font-family="Helvetica,sans-Serif" font-size="10.00">/src/TimingHardwareManager.cpp</text>
</a>
</g>
</g>
<!-- Node11&#45;&gt;Node13 -->
<g id="edge15_Node000011_Node000013" class="edge">
<title>Node11&#45;&gt;Node13</title>
<g id="a_edge15_Node000011_Node000013"><a xlink:title=" ">
<path fill="none" stroke="#63b8ff" d="M135.84,-72.74C158.04,-62.85 183.24,-51.62 204.32,-42.23"/>
<polygon fill="#63b8ff" stroke="#63b8ff" points="134.65,-69.44 126.94,-76.71 137.5,-75.84 134.65,-69.44"/>
</a>
</g>
</g>
<!-- Node14&#45;&gt;Node5 -->
<g id="edge17_Node000014_Node000005" class="edge">
<title>Node14&#45;&gt;Node5</title>
<g id="a_edge17_Node000014_Node000005"><a xlink:title=" ">
<path fill="none" stroke="#63b8ff" d="M1172.9,-148.35C1182.61,-140.39 1191.54,-130.74 1197,-119.5 1205.1,-102.81 1205.05,-94.47 1197,-77.75 1189.99,-63.18 1177.12,-51.22 1164.31,-42.17"/>
<polygon fill="#63b8ff" stroke="#63b8ff" points="1170.92,-145.46 1165.04,-154.28 1175.13,-151.05 1170.92,-145.46"/>
</a>
</g>
</g>
<!-- Node15 -->
<g id="Node000015" class="node">
<title>Node15</title>
<g id="a_Node000015"><a xlink:href="GaiaDesign_8cpp.html" target="_top" xlink:title=" ">
<polygon fill="white" stroke="#666666" points="1188.25,-119.5 1065.75,-119.5 1065.75,-77.75 1188.25,-77.75 1188.25,-119.5"/>
<text text-anchor="start" x="1073.75" y="-106" font-family="Helvetica,sans-Serif" font-size="10.00">/github/workspace/dev</text>
<text text-anchor="start" x="1073.75" y="-94.75" font-family="Helvetica,sans-Serif" font-size="10.00">_area/sourcecode/timing</text>
<text text-anchor="middle" x="1127" y="-83.5" font-family="Helvetica,sans-Serif" font-size="10.00">/src/GaiaDesign.cpp</text>
</a>
</g>
</g>
<!-- Node14&#45;&gt;Node15 -->
<g id="edge18_Node000014_Node000015" class="edge">
<title>Node14&#45;&gt;Node15</title>
<g id="a_edge18_Node000014_Node000015"><a xlink:title=" ">
<path fill="none" stroke="#63b8ff" d="M1126.42,-143.75C1126.52,-135.71 1126.63,-127.29 1126.73,-119.98"/>
<polygon fill="#63b8ff" stroke="#63b8ff" points="1122.92,-143.52 1126.29,-153.56 1129.92,-143.61 1122.92,-143.52"/>
</a>
</g>
</g>
<!-- Node16&#45;&gt;Node8 -->
<g id="edge23_Node000016_Node000008" class="edge">
<title>Node16&#45;&gt;Node8</title>
<g id="a_edge23_Node000016_Node000008"><a xlink:title=" ">
<path fill="none" stroke="#63b8ff" d="M755.37,-145.7C761.28,-137.09 767.6,-127.88 773.03,-119.98"/>
<polygon fill="#63b8ff" stroke="#63b8ff" points="752.57,-143.6 749.79,-153.83 758.34,-147.56 752.57,-143.6"/>
</a>
</g>
</g>
<!-- Node17 -->
<g id="Node000017" class="node">
<title>Node17</title>
<g id="a_Node000017"><a xlink:href="BoreasDesign_8hpp.html" target="_top" xlink:title=" ">
<polygon fill="white" stroke="#666666" points="686.38,-119.5 525.62,-119.5 525.62,-77.75 686.38,-77.75 686.38,-119.5"/>
<text text-anchor="start" x="533.62" y="-106" font-family="Helvetica,sans-Serif" font-size="10.00">/github/workspace/dev</text>
<text text-anchor="start" x="533.62" y="-94.75" font-family="Helvetica,sans-Serif" font-size="10.00">_area/sourcecode/timing</text>
<text text-anchor="middle" x="606" y="-83.5" font-family="Helvetica,sans-Serif" font-size="10.00">/include/timing/BoreasDesign.hpp</text>
</a>
</g>
</g>
<!-- Node16&#45;&gt;Node17 -->
<g id="edge20_Node000016_Node000017" class="edge">
<title>Node16&#45;&gt;Node17</title>
<g id="a_edge20_Node000016_Node000017"><a xlink:title=" ">
<path fill="none" stroke="#63b8ff" d="M690.56,-149.28C674.23,-139.69 656,-128.99 640.67,-119.98"/>
<polygon fill="#63b8ff" stroke="#63b8ff" points="688.73,-152.26 699.13,-154.31 692.27,-146.23 688.73,-152.26"/>
</a>
</g>
</g>
<!-- Node16&#45;&gt;Node19 -->
<g id="edge24_Node000016_Node000019" class="edge">
<title>Node16&#45;&gt;Node19</title>
<g id="a_edge24_Node000016_Node000019"><a xlink:title=" ">
<path fill="none" stroke="#63b8ff" d="M630.51,-160.65C525.76,-145.83 376.19,-124.46 349,-119.5 346.17,-118.98 343.29,-118.44 340.38,-117.88"/>
<polygon fill="#63b8ff" stroke="#63b8ff" points="629.89,-164.1 640.28,-162.04 630.87,-157.17 629.89,-164.1"/>
</a>
</g>
</g>
<!-- Node17&#45;&gt;Node5 -->
<g id="edge21_Node000017_Node000005" class="edge">
<title>Node17&#45;&gt;Node5</title>
<g id="a_edge21_Node000017_Node000005"><a xlink:title=" ">
<path fill="none" stroke="#63b8ff" d="M697.72,-77.35C831.51,-54.23 976.85,-37.44 1059.74,-28.65"/>
<polygon fill="#63b8ff" stroke="#63b8ff" points="697.2,-73.88 687.96,-79.05 698.41,-80.78 697.2,-73.88"/>
</a>
</g>
</g>
<!-- Node18 -->
<g id="Node000018" class="node">
<title>Node18</title>
<g id="a_Node000018"><a xlink:href="BoreasDesign_8cpp.html" target="_top" xlink:title=" ">
<polygon fill="white" stroke="#666666" points="667.25,-41.75 544.75,-41.75 544.75,0 667.25,0 667.25,-41.75"/>
<text text-anchor="start" x="552.75" y="-28.25" font-family="Helvetica,sans-Serif" font-size="10.00">/github/workspace/dev</text>
<text text-anchor="start" x="552.75" y="-17" font-family="Helvetica,sans-Serif" font-size="10.00">_area/sourcecode/timing</text>
<text text-anchor="middle" x="606" y="-5.75" font-family="Helvetica,sans-Serif" font-size="10.00">/src/BoreasDesign.cpp</text>
</a>
</g>
</g>
<!-- Node17&#45;&gt;Node18 -->
<g id="edge22_Node000017_Node000018" class="edge">
<title>Node17&#45;&gt;Node18</title>
<g id="a_edge22_Node000017_Node000018"><a xlink:title=" ">
<path fill="none" stroke="#63b8ff" d="M606,-66C606,-57.96 606,-49.54 606,-42.23"/>
<polygon fill="#63b8ff" stroke="#63b8ff" points="602.5,-65.81 606,-75.81 609.5,-65.81 602.5,-65.81"/>
</a>
</g>
</g>
<!-- Node19&#45;&gt;Node13 -->
<g id="edge25_Node000019_Node000013" class="edge">
<title>Node19&#45;&gt;Node13</title>
<g id="a_edge25_Node000019_Node000013"><a xlink:title=" ">
<path fill="none" stroke="#63b8ff" d="M255.24,-66C254.29,-57.96 253.29,-49.54 252.42,-42.23"/>
<polygon fill="#63b8ff" stroke="#63b8ff" points="251.75,-66.31 256.41,-75.82 258.71,-65.48 251.75,-66.31"/>
</a>
</g>
</g>
<!-- Node20&#45;&gt;Node5 -->
<g id="edge27_Node000020_Node000005" class="edge">
<title>Node20&#45;&gt;Node5</title>
<g id="a_edge27_Node000020_Node000005"><a xlink:title=" ">
<path fill="none" stroke="#63b8ff" d="M1467.68,-146.08C1449.93,-123.88 1422.67,-94.43 1392,-77.75 1330.25,-44.16 1250.25,-30.75 1194.37,-25.4"/>
<polygon fill="#63b8ff" stroke="#63b8ff" points="1464.86,-148.15 1473.76,-153.9 1470.39,-143.86 1464.86,-148.15"/>
</a>
</g>
</g>
<!-- Node21 -->
<g id="Node000021" class="node">
<title>Node21</title>
<g id="a_Node000021"><a xlink:href="KerberosDesign_8cpp.html" target="_top" xlink:title=" ">
<polygon fill="white" stroke="#666666" points="1582.25,-119.5 1459.75,-119.5 1459.75,-77.75 1582.25,-77.75 1582.25,-119.5"/>
<text text-anchor="start" x="1467.75" y="-106" font-family="Helvetica,sans-Serif" font-size="10.00">/github/workspace/dev</text>
<text text-anchor="start" x="1467.75" y="-94.75" font-family="Helvetica,sans-Serif" font-size="10.00">_area/sourcecode/timing</text>
<text text-anchor="middle" x="1521" y="-83.5" font-family="Helvetica,sans-Serif" font-size="10.00">/src/KerberosDesign.cpp</text>
</a>
</g>
</g>
<!-- Node20&#45;&gt;Node21 -->
<g id="edge28_Node000020_Node000021" class="edge">
<title>Node20&#45;&gt;Node21</title>
<g id="a_edge28_Node000020_Node000021"><a xlink:title=" ">
<path fill="none" stroke="#63b8ff" d="M1502,-144.59C1505.51,-136.3 1509.21,-127.54 1512.4,-119.98"/>
<polygon fill="#63b8ff" stroke="#63b8ff" points="1498.83,-143.11 1498.16,-153.68 1505.28,-145.83 1498.83,-143.11"/>
</a>
</g>
</g>
<!-- Node22&#45;&gt;Node5 -->
<g id="edge30_Node000022_Node000005" class="edge">
<title>Node22&#45;&gt;Node5</title>
<g id="a_edge30_Node000022_Node000005"><a xlink:title=" ">
<path fill="none" stroke="#63b8ff" d="M1921.38,-146.85C1940.74,-125.89 1958.62,-97.69 1940,-77.75 1889.55,-23.72 1379.6,-20.67 1194.05,-21.37"/>
<polygon fill="#63b8ff" stroke="#63b8ff" points="1918.91,-144.37 1914.44,-153.98 1923.93,-149.26 1918.91,-144.37"/>
</a>
</g>
</g>
<!-- Node23 -->
<g id="Node000023" class="node">
<title>Node23</title>
<g id="a_Node000023"><a xlink:href="OuroborosDesign_8cpp.html" target="_top" xlink:title=" ">
<polygon fill="white" stroke="#666666" points="1931.25,-119.5 1802.75,-119.5 1802.75,-77.75 1931.25,-77.75 1931.25,-119.5"/>
<text text-anchor="start" x="1810.75" y="-106" font-family="Helvetica,sans-Serif" font-size="10.00">/github/workspace/dev</text>
<text text-anchor="start" x="1810.75" y="-94.75" font-family="Helvetica,sans-Serif" font-size="10.00">_area/sourcecode/timing</text>
<text text-anchor="middle" x="1867" y="-83.5" font-family="Helvetica,sans-Serif" font-size="10.00">/src/OuroborosDesign.cpp</text>
</a>
</g>
</g>
<!-- Node22&#45;&gt;Node23 -->
<g id="edge31_Node000022_Node000023" class="edge">
<title>Node22&#45;&gt;Node23</title>
<g id="a_edge31_Node000022_Node000023"><a xlink:title=" ">
<path fill="none" stroke="#63b8ff" d="M1880.57,-144.31C1878.08,-136.11 1875.45,-127.46 1873.18,-119.98"/>
<polygon fill="#63b8ff" stroke="#63b8ff" points="1877.14,-145.08 1883.4,-153.63 1883.84,-143.04 1877.14,-145.08"/>
</a>
</g>
</g>
<!-- Node24&#45;&gt;Node5 -->
<g id="edge33_Node000024_Node000005" class="edge">
<title>Node24&#45;&gt;Node5</title>
<g id="a_edge33_Node000024_Node000005"><a xlink:title=" ">
<path fill="none" stroke="#63b8ff" d="M1732.69,-148.25C1742.09,-140.25 1750.75,-130.61 1756,-119.5 1763.93,-102.72 1768.53,-91.44 1756,-77.75 1718.62,-36.91 1348.6,-25.73 1194.17,-22.83"/>
<polygon fill="#63b8ff" stroke="#63b8ff" points="1730.81,-145.27 1725.1,-154.19 1735.13,-150.78 1730.81,-145.27"/>
</a>
</g>
</g>
<!-- Node25 -->
<g id="Node000025" class="node">
<title>Node25</title>
<g id="a_Node000025"><a xlink:href="OuroborosMuxDesign_8cpp.html" target="_top" xlink:title=" ">
<polygon fill="white" stroke="#666666" points="1747.25,-119.5 1600.75,-119.5 1600.75,-77.75 1747.25,-77.75 1747.25,-119.5"/>
<text text-anchor="start" x="1608.75" y="-106" font-family="Helvetica,sans-Serif" font-size="10.00">/github/workspace/dev</text>
<text text-anchor="start" x="1608.75" y="-94.75" font-family="Helvetica,sans-Serif" font-size="10.00">_area/sourcecode/timing</text>
<text text-anchor="middle" x="1674" y="-83.5" font-family="Helvetica,sans-Serif" font-size="10.00">/src/OuroborosMuxDesign.cpp</text>
</a>
</g>
</g>
<!-- Node24&#45;&gt;Node25 -->
<g id="edge34_Node000024_Node000025" class="edge">
<title>Node24&#45;&gt;Node25</title>
<g id="a_edge34_Node000024_Node000025"><a xlink:title=" ">
<path fill="none" stroke="#63b8ff" d="M1682.21,-144.03C1680.71,-135.91 1679.13,-127.37 1677.76,-119.98"/>
<polygon fill="#63b8ff" stroke="#63b8ff" points="1678.71,-144.39 1683.97,-153.59 1685.6,-143.12 1678.71,-144.39"/>
</a>
</g>
</g>
<!-- Node26&#45;&gt;Node5 -->
<g id="edge36_Node000026_Node000005" class="edge">
<title>Node26&#45;&gt;Node5</title>
<g id="a_edge36_Node000026_Node000005"><a xlink:title=" ">
<path fill="none" stroke="#63b8ff" d="M1350.83,-148.24C1360.57,-140.31 1369.51,-130.71 1375,-119.5 1383.16,-102.84 1386.59,-92.24 1375,-77.75 1352.74,-49.92 1259.87,-34.96 1194.33,-27.72"/>
<polygon fill="#63b8ff" stroke="#63b8ff" points="1348.86,-145.34 1342.94,-154.13 1353.05,-150.95 1348.86,-145.34"/>
</a>
</g>
</g>
<!-- Node27 -->
<g id="Node000027" class="node">
<title>Node27</title>
<g id="a_Node000027"><a xlink:href="OverlordDesign_8cpp.html" target="_top" xlink:title=" ">
<polygon fill="white" stroke="#666666" points="1366.25,-119.5 1243.75,-119.5 1243.75,-77.75 1366.25,-77.75 1366.25,-119.5"/>
<text text-anchor="start" x="1251.75" y="-106" font-family="Helvetica,sans-Serif" font-size="10.00">/github/workspace/dev</text>
<text text-anchor="start" x="1251.75" y="-94.75" font-family="Helvetica,sans-Serif" font-size="10.00">_area/sourcecode/timing</text>
<text text-anchor="middle" x="1305" y="-83.5" font-family="Helvetica,sans-Serif" font-size="10.00">/src/OverlordDesign.cpp</text>
</a>
</g>
</g>
<!-- Node26&#45;&gt;Node27 -->
<g id="edge37_Node000026_Node000027" class="edge">
<title>Node26&#45;&gt;Node27</title>
<g id="a_edge37_Node000026_Node000027"><a xlink:title=" ">
<path fill="none" stroke="#63b8ff" d="M1303.83,-143.75C1304.05,-135.71 1304.27,-127.29 1304.46,-119.98"/>
<polygon fill="#63b8ff" stroke="#63b8ff" points="1300.34,-143.47 1303.58,-153.56 1307.34,-143.66 1300.34,-143.47"/>
</a>
</g>
</g>
</g>
</svg>
