<?xml version="1.0" encoding="UTF-8" standalone="no"?>
<!DOCTYPE svg PUBLIC "-//W3C//DTD SVG 1.1//EN"
 "http://www.w3.org/Graphics/SVG/1.1/DTD/svg11.dtd">
<!-- Generated by graphviz version 9.0.0 (20230911.1827)
 -->
<!-- Title: /github/workspace/dev_area/sourcecode/readoutlibs/include/readoutlibs/utils/ErrorBitGenerator.hpp Pages: 1 -->
<svg width="152pt" height="116pt"
 viewBox="0.00 0.00 151.50 116.25" xmlns="http://www.w3.org/2000/svg" xmlns:xlink="http://www.w3.org/1999/xlink">
<g id="graph0" class="graph" transform="scale(1 1) rotate(0) translate(4 112.25)">
<title>/github/workspace/dev_area/sourcecode/readoutlibs/include/readoutlibs/utils/ErrorBitGenerator.hpp</title>
<!-- Node1 -->
<g id="Node000001" class="node">
<title>Node1</title>
<g id="a_Node000001"><a xlink:title=" ">
<polygon fill="#999999" stroke="#666666" points="143.5,-108.25 0,-108.25 0,-55.25 143.5,-55.25 143.5,-108.25"/>
<text text-anchor="start" x="8" y="-94.75" font-family="Helvetica,sans-Serif" font-size="10.00">/github/workspace/dev</text>
<text text-anchor="start" x="8" y="-83.5" font-family="Helvetica,sans-Serif" font-size="10.00">_area/sourcecode/readoutlibs</text>
<text text-anchor="start" x="8" y="-72.25" font-family="Helvetica,sans-Serif" font-size="10.00">/include/readoutlibs/utils</text>
<text text-anchor="middle" x="71.75" y="-61" font-family="Helvetica,sans-Serif" font-size="10.00">/ErrorBitGenerator.hpp</text>
</a>
</g>
</g>
<!-- Node2 -->
<g id="Node000002" class="node">
<title>Node2</title>
<g id="a_Node000002"><a xlink:title=" ">
<polygon fill="#e0e0e0" stroke="#999999" points="62.88,-19.25 14.62,-19.25 14.62,0 62.88,0 62.88,-19.25"/>
<text text-anchor="middle" x="38.75" y="-5.75" font-family="Helvetica,sans-Serif" font-size="10.00">random</text>
</a>
</g>
</g>
<!-- Node1&#45;&gt;Node2 -->
<g id="edge1_Node000001_Node000002" class="edge">
<title>Node1&#45;&gt;Node2</title>
<g id="a_edge1_Node000001_Node000002"><a xlink:title=" ">
<path fill="none" stroke="#63b8ff" d="M59.65,-55.04C55.74,-46.74 51.48,-37.68 47.83,-29.93"/>
<polygon fill="#63b8ff" stroke="#63b8ff" points="51.11,-28.66 43.68,-21.11 44.77,-31.64 51.11,-28.66"/>
</a>
</g>
</g>
<!-- Node3 -->
<g id="Node000003" class="node">
<title>Node3</title>
<g id="a_Node000003"><a xlink:title=" ">
<polygon fill="#e0e0e0" stroke="#999999" points="130.62,-19.25 80.88,-19.25 80.88,0 130.62,0 130.62,-19.25"/>
<text text-anchor="middle" x="105.75" y="-5.75" font-family="Helvetica,sans-Serif" font-size="10.00">unistd.h</text>
</a>
</g>
</g>
<!-- Node1&#45;&gt;Node3 -->
<g id="edge2_Node000001_Node000003" class="edge">
<title>Node1&#45;&gt;Node3</title>
<g id="a_edge2_Node000001_Node000003"><a xlink:title=" ">
<path fill="none" stroke="#63b8ff" d="M84.22,-55.04C88.24,-46.74 92.63,-37.68 96.39,-29.93"/>
<polygon fill="#63b8ff" stroke="#63b8ff" points="99.46,-31.62 100.67,-21.1 93.16,-28.57 99.46,-31.62"/>
</a>
</g>
</g>
</g>
</svg>
