<?xml version="1.0" encoding="UTF-8" standalone="no"?>
<!DOCTYPE svg PUBLIC "-//W3C//DTD SVG 1.1//EN"
 "http://www.w3.org/Graphics/SVG/1.1/DTD/svg11.dtd">
<!-- Generated by graphviz version 9.0.0 (20230911.1827)
 -->
<!-- Title: /github/workspace/dev_area/sourcecode/timing/include/timing/FanoutIONode.hpp Pages: 1 -->
<svg width="1246pt" height="361pt"
 viewBox="0.00 0.00 1246.38 360.75" xmlns="http://www.w3.org/2000/svg" xmlns:xlink="http://www.w3.org/1999/xlink">
<g id="graph0" class="graph" transform="scale(1 1) rotate(0) translate(4 356.75)">
<title>/github/workspace/dev_area/sourcecode/timing/include/timing/FanoutIONode.hpp</title>
<!-- Node1 -->
<g id="Node000001" class="node">
<title>Node1</title>
<g id="a_Node000001"><a xlink:title=" ">
<polygon fill="#999999" stroke="#666666" points="611.12,-352.75 447.38,-352.75 447.38,-311 611.12,-311 611.12,-352.75"/>
<text text-anchor="start" x="455.38" y="-339.25" font-family="Helvetica,sans-Serif" font-size="10.00">/github/workspace/dev</text>
<text text-anchor="start" x="455.38" y="-328" font-family="Helvetica,sans-Serif" font-size="10.00">_area/sourcecode/timing</text>
<text text-anchor="middle" x="529.25" y="-316.75" font-family="Helvetica,sans-Serif" font-size="10.00">/include/timing/FanoutIONode.hpp</text>
</a>
</g>
</g>
<!-- Node2 -->
<g id="Node000002" class="node">
<title>Node2</title>
<g id="a_Node000002"><a xlink:href="FIBIONode_8hpp.html" target="_top" xlink:title=" ">
<polygon fill="white" stroke="#666666" points="691,-275 541.5,-275 541.5,-233.25 691,-233.25 691,-275"/>
<text text-anchor="start" x="549.5" y="-261.5" font-family="Helvetica,sans-Serif" font-size="10.00">/github/workspace/dev</text>
<text text-anchor="start" x="549.5" y="-250.25" font-family="Helvetica,sans-Serif" font-size="10.00">_area/sourcecode/timing</text>
<text text-anchor="middle" x="616.25" y="-239" font-family="Helvetica,sans-Serif" font-size="10.00">/include/timing/FIBIONode.hpp</text>
</a>
</g>
</g>
<!-- Node1&#45;&gt;Node2 -->
<g id="edge1_Node000001_Node000002" class="edge">
<title>Node1&#45;&gt;Node2</title>
<g id="a_edge1_Node000001_Node000002"><a xlink:title=" ">
<path fill="none" stroke="#63b8ff" d="M561.11,-303.14C571.62,-293.98 583.11,-283.98 592.87,-275.48"/>
<polygon fill="#63b8ff" stroke="#63b8ff" points="558.95,-300.38 553.71,-309.58 563.55,-305.65 558.95,-300.38"/>
</a>
</g>
</g>
<!-- Node5 -->
<g id="Node000005" class="node">
<title>Node5</title>
<g id="a_Node000005"><a xlink:href="MIBIONode_8hpp.html" target="_top" xlink:title=" ">
<polygon fill="white" stroke="#666666" points="161.12,-275 9.38,-275 9.38,-233.25 161.12,-233.25 161.12,-275"/>
<text text-anchor="start" x="17.38" y="-261.5" font-family="Helvetica,sans-Serif" font-size="10.00">/github/workspace/dev</text>
<text text-anchor="start" x="17.38" y="-250.25" font-family="Helvetica,sans-Serif" font-size="10.00">_area/sourcecode/timing</text>
<text text-anchor="middle" x="85.25" y="-239" font-family="Helvetica,sans-Serif" font-size="10.00">/include/timing/MIBIONode.hpp</text>
</a>
</g>
</g>
<!-- Node1&#45;&gt;Node5 -->
<g id="edge4_Node000001_Node000005" class="edge">
<title>Node1&#45;&gt;Node5</title>
<g id="a_edge4_Node000001_Node000005"><a xlink:title=" ">
<path fill="none" stroke="#63b8ff" d="M435.57,-318.26C362.93,-308.01 259.88,-292.43 170.25,-275 167.27,-274.42 164.25,-273.81 161.19,-273.18"/>
<polygon fill="#63b8ff" stroke="#63b8ff" points="435.07,-321.73 445.46,-319.65 436.04,-314.8 435.07,-321.73"/>
</a>
</g>
</g>
<!-- Node7 -->
<g id="Node000007" class="node">
<title>Node7</title>
<g id="a_Node000007"><a xlink:href="MIBV2IONode_8hpp.html" target="_top" xlink:title=" ">
<polygon fill="white" stroke="#666666" points="343.12,-275 179.38,-275 179.38,-233.25 343.12,-233.25 343.12,-275"/>
<text text-anchor="start" x="187.38" y="-261.5" font-family="Helvetica,sans-Serif" font-size="10.00">/github/workspace/dev</text>
<text text-anchor="start" x="187.38" y="-250.25" font-family="Helvetica,sans-Serif" font-size="10.00">_area/sourcecode/timing</text>
<text text-anchor="middle" x="261.25" y="-239" font-family="Helvetica,sans-Serif" font-size="10.00">/include/timing/MIBV2IONode.hpp</text>
</a>
</g>
</g>
<!-- Node1&#45;&gt;Node7 -->
<g id="edge7_Node000001_Node000007" class="edge">
<title>Node1&#45;&gt;Node7</title>
<g id="a_edge7_Node000001_Node000007"><a xlink:title=" ">
<path fill="none" stroke="#63b8ff" d="M446.4,-307.46C410.2,-297.23 368.14,-285.34 333.27,-275.48"/>
<polygon fill="#63b8ff" stroke="#63b8ff" points="445.4,-310.81 455.97,-310.16 447.3,-304.08 445.4,-310.81"/>
</a>
</g>
</g>
<!-- Node9 -->
<g id="Node000009" class="node">
<title>Node9</title>
<g id="a_Node000009"><a xlink:href="MuxDesignInterface_8hpp.html" target="_top" xlink:title=" ">
<polygon fill="white" stroke="#666666" points="895.38,-275 709.12,-275 709.12,-233.25 895.38,-233.25 895.38,-275"/>
<text text-anchor="start" x="717.12" y="-261.5" font-family="Helvetica,sans-Serif" font-size="10.00">/github/workspace/dev</text>
<text text-anchor="start" x="717.12" y="-250.25" font-family="Helvetica,sans-Serif" font-size="10.00">_area/sourcecode/timing</text>
<text text-anchor="middle" x="802.25" y="-239" font-family="Helvetica,sans-Serif" font-size="10.00">/include/timing/MuxDesignInterface.hpp</text>
</a>
</g>
</g>
<!-- Node1&#45;&gt;Node9 -->
<g id="edge10_Node000001_Node000009" class="edge">
<title>Node1&#45;&gt;Node9</title>
<g id="a_edge10_Node000001_Node000009"><a xlink:title=" ">
<path fill="none" stroke="#63b8ff" d="M613.17,-307.59C650.15,-297.33 693.21,-285.38 728.89,-275.48"/>
<polygon fill="#63b8ff" stroke="#63b8ff" points="612.57,-304.12 603.87,-310.17 614.44,-310.87 612.57,-304.12"/>
</a>
</g>
</g>
<!-- Node22 -->
<g id="Node000022" class="node">
<title>Node22</title>
<g id="a_Node000022"><a xlink:href="PC059IONode_8hpp.html" target="_top" xlink:title=" ">
<polygon fill="white" stroke="#666666" points="523.75,-275 360.75,-275 360.75,-233.25 523.75,-233.25 523.75,-275"/>
<text text-anchor="start" x="368.75" y="-261.5" font-family="Helvetica,sans-Serif" font-size="10.00">/github/workspace/dev</text>
<text text-anchor="start" x="368.75" y="-250.25" font-family="Helvetica,sans-Serif" font-size="10.00">_area/sourcecode/timing</text>
<text text-anchor="middle" x="442.25" y="-239" font-family="Helvetica,sans-Serif" font-size="10.00">/include/timing/PC059IONode.hpp</text>
</a>
</g>
</g>
<!-- Node1&#45;&gt;Node22 -->
<g id="edge26_Node000001_Node000022" class="edge">
<title>Node1&#45;&gt;Node22</title>
<g id="a_edge26_Node000001_Node000022"><a xlink:title=" ">
<path fill="none" stroke="#63b8ff" d="M497.39,-303.14C486.88,-293.98 475.39,-283.98 465.63,-275.48"/>
<polygon fill="#63b8ff" stroke="#63b8ff" points="494.95,-305.65 504.79,-309.58 499.55,-300.38 494.95,-305.65"/>
</a>
</g>
</g>
<!-- Node24 -->
<g id="Node000024" class="node">
<title>Node24</title>
<g id="a_Node000024"><a xlink:href="FanoutIONode_8cpp.html" target="_top" xlink:title=" ">
<polygon fill="white" stroke="#666666" points="1035.5,-275 913,-275 913,-233.25 1035.5,-233.25 1035.5,-275"/>
<text text-anchor="start" x="921" y="-261.5" font-family="Helvetica,sans-Serif" font-size="10.00">/github/workspace/dev</text>
<text text-anchor="start" x="921" y="-250.25" font-family="Helvetica,sans-Serif" font-size="10.00">_area/sourcecode/timing</text>
<text text-anchor="middle" x="974.25" y="-239" font-family="Helvetica,sans-Serif" font-size="10.00">/src/FanoutIONode.cpp</text>
</a>
</g>
</g>
<!-- Node1&#45;&gt;Node24 -->
<g id="edge29_Node000001_Node000024" class="edge">
<title>Node1&#45;&gt;Node24</title>
<g id="a_edge29_Node000001_Node000024"><a xlink:title=" ">
<path fill="none" stroke="#63b8ff" d="M622.36,-320.39C698.6,-310.99 809.04,-295.52 904.25,-275 906.97,-274.41 909.73,-273.78 912.52,-273.12"/>
<polygon fill="#63b8ff" stroke="#63b8ff" points="622.37,-316.86 612.86,-321.54 623.21,-323.81 622.37,-316.86"/>
</a>
</g>
</g>
<!-- Node3 -->
<g id="Node000003" class="node">
<title>Node3</title>
<g id="a_Node000003"><a xlink:href="io_8cpp.html" target="_top" xlink:title=" ">
<polygon fill="white" stroke="#666666" points="404.5,-197.25 282,-197.25 282,-155.5 404.5,-155.5 404.5,-197.25"/>
<text text-anchor="start" x="290" y="-183.75" font-family="Helvetica,sans-Serif" font-size="10.00">/github/workspace/dev</text>
<text text-anchor="start" x="290" y="-172.5" font-family="Helvetica,sans-Serif" font-size="10.00">_area/sourcecode/timing</text>
<text text-anchor="middle" x="343.25" y="-161.25" font-family="Helvetica,sans-Serif" font-size="10.00">/pybindsrc/io.cpp</text>
</a>
</g>
</g>
<!-- Node2&#45;&gt;Node3 -->
<g id="edge2_Node000002_Node000003" class="edge">
<title>Node2&#45;&gt;Node3</title>
<g id="a_edge2_Node000002_Node000003"><a xlink:title=" ">
<path fill="none" stroke="#63b8ff" d="M531.82,-229.83C495.61,-219.83 452.85,-207.99 414.25,-197.25 411.17,-196.39 408.01,-195.51 404.82,-194.62"/>
<polygon fill="#63b8ff" stroke="#63b8ff" points="530.8,-233.18 541.37,-232.47 532.67,-226.44 530.8,-233.18"/>
</a>
</g>
</g>
<!-- Node4 -->
<g id="Node000004" class="node">
<title>Node4</title>
<g id="a_Node000004"><a xlink:href="FIBIONode_8cpp.html" target="_top" xlink:title=" ">
<polygon fill="white" stroke="#666666" points="686.5,-197.25 564,-197.25 564,-155.5 686.5,-155.5 686.5,-197.25"/>
<text text-anchor="start" x="572" y="-183.75" font-family="Helvetica,sans-Serif" font-size="10.00">/github/workspace/dev</text>
<text text-anchor="start" x="572" y="-172.5" font-family="Helvetica,sans-Serif" font-size="10.00">_area/sourcecode/timing</text>
<text text-anchor="middle" x="625.25" y="-161.25" font-family="Helvetica,sans-Serif" font-size="10.00">/src/FIBIONode.cpp</text>
</a>
</g>
</g>
<!-- Node2&#45;&gt;Node4 -->
<g id="edge3_Node000002_Node000004" class="edge">
<title>Node2&#45;&gt;Node4</title>
<g id="a_edge3_Node000002_Node000004"><a xlink:title=" ">
<path fill="none" stroke="#63b8ff" d="M620.01,-221.5C620.96,-213.46 621.96,-205.04 622.83,-197.73"/>
<polygon fill="#63b8ff" stroke="#63b8ff" points="616.54,-220.98 618.84,-231.32 623.5,-221.81 616.54,-220.98"/>
</a>
</g>
</g>
<!-- Node5&#45;&gt;Node3 -->
<g id="edge5_Node000005_Node000003" class="edge">
<title>Node5&#45;&gt;Node3</title>
<g id="a_edge5_Node000005_Node000003"><a xlink:title=" ">
<path fill="none" stroke="#63b8ff" d="M165.31,-229.62C202.88,-218.59 246.96,-205.65 281.85,-195.4"/>
<polygon fill="#63b8ff" stroke="#63b8ff" points="164.45,-226.22 155.84,-232.4 166.42,-232.94 164.45,-226.22"/>
</a>
</g>
</g>
<!-- Node6 -->
<g id="Node000006" class="node">
<title>Node6</title>
<g id="a_Node000006"><a xlink:href="MIBIONode_8cpp.html" target="_top" xlink:title=" ">
<polygon fill="white" stroke="#666666" points="122.5,-197.25 0,-197.25 0,-155.5 122.5,-155.5 122.5,-197.25"/>
<text text-anchor="start" x="8" y="-183.75" font-family="Helvetica,sans-Serif" font-size="10.00">/github/workspace/dev</text>
<text text-anchor="start" x="8" y="-172.5" font-family="Helvetica,sans-Serif" font-size="10.00">_area/sourcecode/timing</text>
<text text-anchor="middle" x="61.25" y="-161.25" font-family="Helvetica,sans-Serif" font-size="10.00">/src/MIBIONode.cpp</text>
</a>
</g>
</g>
<!-- Node5&#45;&gt;Node6 -->
<g id="edge6_Node000005_Node000006" class="edge">
<title>Node5&#45;&gt;Node6</title>
<g id="a_edge6_Node000005_Node000006"><a xlink:title=" ">
<path fill="none" stroke="#63b8ff" d="M75.41,-222.06C72.81,-213.86 70.07,-205.21 67.7,-197.73"/>
<polygon fill="#63b8ff" stroke="#63b8ff" points="72,-222.91 78.36,-231.38 78.68,-220.79 72,-222.91"/>
</a>
</g>
</g>
<!-- Node7&#45;&gt;Node3 -->
<g id="edge8_Node000007_Node000003" class="edge">
<title>Node7&#45;&gt;Node3</title>
<g id="a_edge8_Node000007_Node000003"><a xlink:title=" ">
<path fill="none" stroke="#63b8ff" d="M291.57,-225.11C301.4,-216.03 312.11,-206.14 321.21,-197.73"/>
<polygon fill="#63b8ff" stroke="#63b8ff" points="289.31,-222.44 284.34,-231.8 294.06,-227.58 289.31,-222.44"/>
</a>
</g>
</g>
<!-- Node8 -->
<g id="Node000008" class="node">
<title>Node8</title>
<g id="a_Node000008"><a xlink:href="MIBV2IONode_8cpp.html" target="_top" xlink:title=" ">
<polygon fill="white" stroke="#666666" points="263.5,-197.25 141,-197.25 141,-155.5 263.5,-155.5 263.5,-197.25"/>
<text text-anchor="start" x="149" y="-183.75" font-family="Helvetica,sans-Serif" font-size="10.00">/github/workspace/dev</text>
<text text-anchor="start" x="149" y="-172.5" font-family="Helvetica,sans-Serif" font-size="10.00">_area/sourcecode/timing</text>
<text text-anchor="middle" x="202.25" y="-161.25" font-family="Helvetica,sans-Serif" font-size="10.00">/src/MIBV2IONode.cpp</text>
</a>
</g>
</g>
<!-- Node7&#45;&gt;Node8 -->
<g id="edge9_Node000007_Node000008" class="edge">
<title>Node7&#45;&gt;Node8</title>
<g id="a_edge9_Node000007_Node000008"><a xlink:title=" ">
<path fill="none" stroke="#63b8ff" d="M238.57,-224.01C231.74,-215.24 224.39,-205.8 218.1,-197.73"/>
<polygon fill="#63b8ff" stroke="#63b8ff" points="235.6,-225.89 244.51,-231.63 241.13,-221.59 235.6,-225.89"/>
</a>
</g>
</g>
<!-- Node10 -->
<g id="Node000010" class="node">
<title>Node10</title>
<g id="a_Node000010"><a xlink:href="MasterMuxDesign_8hpp.html" target="_top" xlink:title=" ">
<polygon fill="white" stroke="#666666" points="891.25,-197.25 713.25,-197.25 713.25,-155.5 891.25,-155.5 891.25,-197.25"/>
<text text-anchor="start" x="721.25" y="-183.75" font-family="Helvetica,sans-Serif" font-size="10.00">/github/workspace/dev</text>
<text text-anchor="start" x="721.25" y="-172.5" font-family="Helvetica,sans-Serif" font-size="10.00">_area/sourcecode/timing</text>
<text text-anchor="middle" x="802.25" y="-161.25" font-family="Helvetica,sans-Serif" font-size="10.00">/include/timing/MasterMuxDesign.hpp</text>
</a>
</g>
</g>
<!-- Node9&#45;&gt;Node10 -->
<g id="edge11_Node000009_Node000010" class="edge">
<title>Node9&#45;&gt;Node10</title>
<g id="a_edge11_Node000009_Node000010"><a xlink:title=" ">
<path fill="none" stroke="#63b8ff" d="M802.25,-221.5C802.25,-213.46 802.25,-205.04 802.25,-197.73"/>
<polygon fill="#63b8ff" stroke="#63b8ff" points="798.75,-221.31 802.25,-231.31 805.75,-221.31 798.75,-221.31"/>
</a>
</g>
</g>
<!-- Node11 -->
<g id="Node000011" class="node">
<title>Node11</title>
<g id="a_Node000011"><a xlink:href="FanoutDesign_8hpp.html" target="_top" xlink:title=" ">
<polygon fill="white" stroke="#666666" points="1077.25,-119.5 917.25,-119.5 917.25,-77.75 1077.25,-77.75 1077.25,-119.5"/>
<text text-anchor="start" x="925.25" y="-106" font-family="Helvetica,sans-Serif" font-size="10.00">/github/workspace/dev</text>
<text text-anchor="start" x="925.25" y="-94.75" font-family="Helvetica,sans-Serif" font-size="10.00">_area/sourcecode/timing</text>
<text text-anchor="middle" x="997.25" y="-83.5" font-family="Helvetica,sans-Serif" font-size="10.00">/include/timing/FanoutDesign.hpp</text>
</a>
</g>
</g>
<!-- Node10&#45;&gt;Node11 -->
<g id="edge12_Node000010_Node000011" class="edge">
<title>Node10&#45;&gt;Node11</title>
<g id="a_edge12_Node000010_Node000011"><a xlink:title=" ">
<path fill="none" stroke="#63b8ff" d="M864.93,-151.03C890.71,-141.01 920.24,-129.54 944.85,-119.98"/>
<polygon fill="#63b8ff" stroke="#63b8ff" points="863.97,-147.64 855.92,-154.53 866.51,-154.17 863.97,-147.64"/>
</a>
</g>
</g>
<!-- Node15 -->
<g id="Node000015" class="node">
<title>Node15</title>
<g id="a_Node000015"><a xlink:href="GaiaDesign_8hpp.html" target="_top" xlink:title=" ">
<polygon fill="white" stroke="#666666" points="500.38,-119.5 350.12,-119.5 350.12,-77.75 500.38,-77.75 500.38,-119.5"/>
<text text-anchor="start" x="358.12" y="-106" font-family="Helvetica,sans-Serif" font-size="10.00">/github/workspace/dev</text>
<text text-anchor="start" x="358.12" y="-94.75" font-family="Helvetica,sans-Serif" font-size="10.00">_area/sourcecode/timing</text>
<text text-anchor="middle" x="425.25" y="-83.5" font-family="Helvetica,sans-Serif" font-size="10.00">/include/timing/GaiaDesign.hpp</text>
</a>
</g>
</g>
<!-- Node10&#45;&gt;Node15 -->
<g id="edge16_Node000010_Node000015" class="edge">
<title>Node10&#45;&gt;Node15</title>
<g id="a_edge16_Node000010_Node000015"><a xlink:title=" ">
<path fill="none" stroke="#63b8ff" d="M701.99,-156.74C632.18,-143.67 545.36,-127.21 509.25,-119.5 506.47,-118.91 503.63,-118.29 500.77,-117.66"/>
<polygon fill="#63b8ff" stroke="#63b8ff" points="701.08,-160.13 711.55,-158.53 702.37,-153.25 701.08,-160.13"/>
</a>
</g>
</g>
<!-- Node17 -->
<g id="Node000017" class="node">
<title>Node17</title>
<g id="a_Node000017"><a xlink:href="KerberosDesign_8hpp.html" target="_top" xlink:title=" ">
<polygon fill="white" stroke="#666666" points="687.75,-119.5 518.75,-119.5 518.75,-77.75 687.75,-77.75 687.75,-119.5"/>
<text text-anchor="start" x="526.75" y="-106" font-family="Helvetica,sans-Serif" font-size="10.00">/github/workspace/dev</text>
<text text-anchor="start" x="526.75" y="-94.75" font-family="Helvetica,sans-Serif" font-size="10.00">_area/sourcecode/timing</text>
<text text-anchor="middle" x="603.25" y="-83.5" font-family="Helvetica,sans-Serif" font-size="10.00">/include/timing/KerberosDesign.hpp</text>
</a>
</g>
</g>
<!-- Node10&#45;&gt;Node17 -->
<g id="edge19_Node000010_Node000017" class="edge">
<title>Node10&#45;&gt;Node17</title>
<g id="a_edge19_Node000010_Node000017"><a xlink:title=" ">
<path fill="none" stroke="#63b8ff" d="M738.29,-151.03C711.97,-141.01 681.84,-129.54 656.73,-119.98"/>
<polygon fill="#63b8ff" stroke="#63b8ff" points="736.92,-154.25 747.51,-154.54 739.41,-147.71 736.92,-154.25"/>
</a>
</g>
</g>
<!-- Node19 -->
<g id="Node000019" class="node">
<title>Node19</title>
<g id="a_Node000019"><a xlink:href="OuroborosMuxDesign_8hpp.html" target="_top" xlink:title=" ">
<polygon fill="white" stroke="#666666" points="898.75,-119.5 705.75,-119.5 705.75,-77.75 898.75,-77.75 898.75,-119.5"/>
<text text-anchor="start" x="713.75" y="-106" font-family="Helvetica,sans-Serif" font-size="10.00">/github/workspace/dev</text>
<text text-anchor="start" x="713.75" y="-94.75" font-family="Helvetica,sans-Serif" font-size="10.00">_area/sourcecode/timing</text>
<text text-anchor="middle" x="802.25" y="-83.5" font-family="Helvetica,sans-Serif" font-size="10.00">/include/timing/OuroborosMuxDesign.hpp</text>
</a>
</g>
</g>
<!-- Node10&#45;&gt;Node19 -->
<g id="edge22_Node000010_Node000019" class="edge">
<title>Node10&#45;&gt;Node19</title>
<g id="a_edge22_Node000010_Node000019"><a xlink:title=" ">
<path fill="none" stroke="#63b8ff" d="M802.25,-143.75C802.25,-135.71 802.25,-127.29 802.25,-119.98"/>
<polygon fill="#63b8ff" stroke="#63b8ff" points="798.75,-143.56 802.25,-153.56 805.75,-143.56 798.75,-143.56"/>
</a>
</g>
</g>
<!-- Node21 -->
<g id="Node000021" class="node">
<title>Node21</title>
<g id="a_Node000021"><a xlink:href="MasterMuxDesign_8cpp.html" target="_top" xlink:title=" ">
<polygon fill="white" stroke="#666666" points="1227,-119.5 1095.5,-119.5 1095.5,-77.75 1227,-77.75 1227,-119.5"/>
<text text-anchor="start" x="1103.5" y="-106" font-family="Helvetica,sans-Serif" font-size="10.00">/github/workspace/dev</text>
<text text-anchor="start" x="1103.5" y="-94.75" font-family="Helvetica,sans-Serif" font-size="10.00">_area/sourcecode/timing</text>
<text text-anchor="middle" x="1161.25" y="-83.5" font-family="Helvetica,sans-Serif" font-size="10.00">/src/MasterMuxDesign.cpp</text>
</a>
</g>
</g>
<!-- Node10&#45;&gt;Node21 -->
<g id="edge25_Node000010_Node000021" class="edge">
<title>Node10&#45;&gt;Node21</title>
<g id="a_edge25_Node000010_Node000021"><a xlink:title=" ">
<path fill="none" stroke="#63b8ff" d="M902.53,-157.29C957.05,-147.04 1025.55,-133.5 1086.25,-119.5 1089.14,-118.83 1092.08,-118.14 1095.05,-117.42"/>
<polygon fill="#63b8ff" stroke="#63b8ff" points="902.14,-153.8 892.95,-159.08 903.43,-160.68 902.14,-153.8"/>
</a>
</g>
</g>
<!-- Node12 -->
<g id="Node000012" class="node">
<title>Node12</title>
<g id="a_Node000012"><a xlink:href="top__designs_8cpp.html" target="_top" xlink:title=" ">
<polygon fill="white" stroke="#666666" points="753.12,-41.75 619.38,-41.75 619.38,0 753.12,0 753.12,-41.75"/>
<text text-anchor="start" x="627.38" y="-28.25" font-family="Helvetica,sans-Serif" font-size="10.00">/github/workspace/dev</text>
<text text-anchor="start" x="627.38" y="-17" font-family="Helvetica,sans-Serif" font-size="10.00">_area/sourcecode/timing</text>
<text text-anchor="middle" x="686.25" y="-5.75" font-family="Helvetica,sans-Serif" font-size="10.00">/pybindsrc/top_designs.cpp</text>
</a>
</g>
</g>
<!-- Node11&#45;&gt;Node12 -->
<g id="edge13_Node000011_Node000012" class="edge">
<title>Node11&#45;&gt;Node12</title>
<g id="a_edge13_Node000011_Node000012"><a xlink:title=" ">
<path fill="none" stroke="#63b8ff" d="M905.78,-76.38C862.25,-66.14 809.5,-53.55 762.25,-41.75 759.34,-41.02 756.37,-40.27 753.37,-39.51"/>
<polygon fill="#63b8ff" stroke="#63b8ff" points="904.92,-79.77 915.45,-78.65 906.52,-72.96 904.92,-79.77"/>
</a>
</g>
</g>
<!-- Node13 -->
<g id="Node000013" class="node">
<title>Node13</title>
<g id="a_Node000013"><a xlink:href="FanoutDesign_8cpp.html" target="_top" xlink:title=" ">
<polygon fill="white" stroke="#666666" points="1058.5,-41.75 936,-41.75 936,0 1058.5,0 1058.5,-41.75"/>
<text text-anchor="start" x="944" y="-28.25" font-family="Helvetica,sans-Serif" font-size="10.00">/github/workspace/dev</text>
<text text-anchor="start" x="944" y="-17" font-family="Helvetica,sans-Serif" font-size="10.00">_area/sourcecode/timing</text>
<text text-anchor="middle" x="997.25" y="-5.75" font-family="Helvetica,sans-Serif" font-size="10.00">/src/FanoutDesign.cpp</text>
</a>
</g>
</g>
<!-- Node11&#45;&gt;Node13 -->
<g id="edge14_Node000011_Node000013" class="edge">
<title>Node11&#45;&gt;Node13</title>
<g id="a_edge14_Node000011_Node000013"><a xlink:title=" ">
<path fill="none" stroke="#63b8ff" d="M997.25,-66C997.25,-57.96 997.25,-49.54 997.25,-42.23"/>
<polygon fill="#63b8ff" stroke="#63b8ff" points="993.75,-65.81 997.25,-75.81 1000.75,-65.81 993.75,-65.81"/>
</a>
</g>
</g>
<!-- Node14 -->
<g id="Node000014" class="node">
<title>Node14</title>
<g id="a_Node000014"><a xlink:href="sourcecode_2timinglibs_2src_2TimingHardwareManager_8cpp.html" target="_top" xlink:title=" ">
<polygon fill="white" stroke="#666666" points="1238.38,-41.75 1076.12,-41.75 1076.12,0 1238.38,0 1238.38,-41.75"/>
<text text-anchor="start" x="1084.12" y="-28.25" font-family="Helvetica,sans-Serif" font-size="10.00">/github/workspace/dev</text>
<text text-anchor="start" x="1084.12" y="-17" font-family="Helvetica,sans-Serif" font-size="10.00">_area/sourcecode/timinglibs</text>
<text text-anchor="middle" x="1157.25" y="-5.75" font-family="Helvetica,sans-Serif" font-size="10.00">/src/TimingHardwareManager.cpp</text>
</a>
</g>
</g>
<!-- Node11&#45;&gt;Node14 -->
<g id="edge15_Node000011_Node000014" class="edge">
<title>Node11&#45;&gt;Node14</title>
<g id="a_edge15_Node000011_Node000014"><a xlink:title=" ">
<path fill="none" stroke="#63b8ff" d="M1050.38,-72.47C1071.13,-62.65 1094.6,-51.54 1114.25,-42.23"/>
<polygon fill="#63b8ff" stroke="#63b8ff" points="1049.04,-69.24 1041.5,-76.68 1052.03,-75.56 1049.04,-69.24"/>
</a>
</g>
</g>
<!-- Node15&#45;&gt;Node12 -->
<g id="edge17_Node000015_Node000012" class="edge">
<title>Node15&#45;&gt;Node12</title>
<g id="a_edge17_Node000015_Node000012"><a xlink:title=" ">
<path fill="none" stroke="#63b8ff" d="M506.25,-74.12C542.53,-63.59 584.81,-51.32 619.27,-41.32"/>
<polygon fill="#63b8ff" stroke="#63b8ff" points="505.27,-70.75 496.65,-76.9 507.23,-77.48 505.27,-70.75"/>
</a>
</g>
</g>
<!-- Node16 -->
<g id="Node000016" class="node">
<title>Node16</title>
<g id="a_Node000016"><a xlink:href="GaiaDesign_8cpp.html" target="_top" xlink:title=" ">
<polygon fill="white" stroke="#666666" points="460.5,-41.75 338,-41.75 338,0 460.5,0 460.5,-41.75"/>
<text text-anchor="start" x="346" y="-28.25" font-family="Helvetica,sans-Serif" font-size="10.00">/github/workspace/dev</text>
<text text-anchor="start" x="346" y="-17" font-family="Helvetica,sans-Serif" font-size="10.00">_area/sourcecode/timing</text>
<text text-anchor="middle" x="399.25" y="-5.75" font-family="Helvetica,sans-Serif" font-size="10.00">/src/GaiaDesign.cpp</text>
</a>
</g>
</g>
<!-- Node15&#45;&gt;Node16 -->
<g id="edge18_Node000015_Node000016" class="edge">
<title>Node15&#45;&gt;Node16</title>
<g id="a_edge18_Node000015_Node000016"><a xlink:title=" ">
<path fill="none" stroke="#63b8ff" d="M414.59,-66.56C411.77,-58.36 408.8,-49.71 406.24,-42.23"/>
<polygon fill="#63b8ff" stroke="#63b8ff" points="411.23,-67.57 417.79,-75.89 417.86,-65.3 411.23,-67.57"/>
</a>
</g>
</g>
<!-- Node17&#45;&gt;Node12 -->
<g id="edge20_Node000017_Node000012" class="edge">
<title>Node17&#45;&gt;Node12</title>
<g id="a_edge20_Node000017_Node000012"><a xlink:title=" ">
<path fill="none" stroke="#63b8ff" d="M633.94,-69.61C643.89,-60.53 654.73,-50.64 663.95,-42.23"/>
<polygon fill="#63b8ff" stroke="#63b8ff" points="631.64,-66.98 626.61,-76.31 636.36,-72.15 631.64,-66.98"/>
</a>
</g>
</g>
<!-- Node18 -->
<g id="Node000018" class="node">
<title>Node18</title>
<g id="a_Node000018"><a xlink:href="KerberosDesign_8cpp.html" target="_top" xlink:title=" ">
<polygon fill="white" stroke="#666666" points="601.5,-41.75 479,-41.75 479,0 601.5,0 601.5,-41.75"/>
<text text-anchor="start" x="487" y="-28.25" font-family="Helvetica,sans-Serif" font-size="10.00">/github/workspace/dev</text>
<text text-anchor="start" x="487" y="-17" font-family="Helvetica,sans-Serif" font-size="10.00">_area/sourcecode/timing</text>
<text text-anchor="middle" x="540.25" y="-5.75" font-family="Helvetica,sans-Serif" font-size="10.00">/src/KerberosDesign.cpp</text>
</a>
</g>
</g>
<!-- Node17&#45;&gt;Node18 -->
<g id="edge21_Node000017_Node000018" class="edge">
<title>Node17&#45;&gt;Node18</title>
<g id="a_edge21_Node000017_Node000018"><a xlink:title=" ">
<path fill="none" stroke="#63b8ff" d="M579.04,-68.51C571.74,-59.74 563.89,-50.3 557.18,-42.23"/>
<polygon fill="#63b8ff" stroke="#63b8ff" points="576.31,-70.71 585.4,-76.16 581.7,-66.24 576.31,-70.71"/>
</a>
</g>
</g>
<!-- Node19&#45;&gt;Node12 -->
<g id="edge23_Node000019_Node000012" class="edge">
<title>Node19&#45;&gt;Node12</title>
<g id="a_edge23_Node000019_Node000012"><a xlink:title=" ">
<path fill="none" stroke="#63b8ff" d="M761.87,-71.26C747.3,-61.74 731.09,-51.15 717.42,-42.23"/>
<polygon fill="#63b8ff" stroke="#63b8ff" points="759.61,-73.96 769.9,-76.5 763.44,-68.1 759.61,-73.96"/>
</a>
</g>
</g>
<!-- Node20 -->
<g id="Node000020" class="node">
<title>Node20</title>
<g id="a_Node000020"><a xlink:href="OuroborosMuxDesign_8cpp.html" target="_top" xlink:title=" ">
<polygon fill="white" stroke="#666666" points="917.5,-41.75 771,-41.75 771,0 917.5,0 917.5,-41.75"/>
<text text-anchor="start" x="779" y="-28.25" font-family="Helvetica,sans-Serif" font-size="10.00">/github/workspace/dev</text>
<text text-anchor="start" x="779" y="-17" font-family="Helvetica,sans-Serif" font-size="10.00">_area/sourcecode/timing</text>
<text text-anchor="middle" x="844.25" y="-5.75" font-family="Helvetica,sans-Serif" font-size="10.00">/src/OuroborosMuxDesign.cpp</text>
</a>
</g>
</g>
<!-- Node19&#45;&gt;Node20 -->
<g id="edge24_Node000019_Node000020" class="edge">
<title>Node19&#45;&gt;Node20</title>
<g id="a_edge24_Node000019_Node000020"><a xlink:title=" ">
<path fill="none" stroke="#63b8ff" d="M819.01,-67.4C823.7,-58.95 828.68,-49.96 832.96,-42.23"/>
<polygon fill="#63b8ff" stroke="#63b8ff" points="816.03,-65.56 814.24,-76 822.15,-68.95 816.03,-65.56"/>
</a>
</g>
</g>
<!-- Node22&#45;&gt;Node3 -->
<g id="edge27_Node000022_Node000003" class="edge">
<title>Node22&#45;&gt;Node3</title>
<g id="a_edge27_Node000022_Node000003"><a xlink:title=" ">
<path fill="none" stroke="#63b8ff" d="M406.72,-225.94C394.56,-216.64 381.18,-206.4 369.85,-197.73"/>
<polygon fill="#63b8ff" stroke="#63b8ff" points="404.45,-228.61 414.52,-231.91 408.7,-223.05 404.45,-228.61"/>
</a>
</g>
</g>
<!-- Node23 -->
<g id="Node000023" class="node">
<title>Node23</title>
<g id="a_Node000023"><a xlink:href="PC059IONode_8cpp.html" target="_top" xlink:title=" ">
<polygon fill="white" stroke="#666666" points="545.5,-197.25 423,-197.25 423,-155.5 545.5,-155.5 545.5,-197.25"/>
<text text-anchor="start" x="431" y="-183.75" font-family="Helvetica,sans-Serif" font-size="10.00">/github/workspace/dev</text>
<text text-anchor="start" x="431" y="-172.5" font-family="Helvetica,sans-Serif" font-size="10.00">_area/sourcecode/timing</text>
<text text-anchor="middle" x="484.25" y="-161.25" font-family="Helvetica,sans-Serif" font-size="10.00">/src/PC059IONode.cpp</text>
</a>
</g>
</g>
<!-- Node22&#45;&gt;Node23 -->
<g id="edge28_Node000022_Node000023" class="edge">
<title>Node22&#45;&gt;Node23</title>
<g id="a_edge28_Node000022_Node000023"><a xlink:title=" ">
<path fill="none" stroke="#63b8ff" d="M459.01,-222.9C463.7,-214.45 468.68,-205.46 472.96,-197.73"/>
<polygon fill="#63b8ff" stroke="#63b8ff" points="456.03,-221.06 454.24,-231.5 462.15,-224.45 456.03,-221.06"/>
</a>
</g>
</g>
</g>
</svg>
