<?xml version="1.0" encoding="UTF-8" standalone="no"?>
<!DOCTYPE svg PUBLIC "-//W3C//DTD SVG 1.1//EN"
 "http://www.w3.org/Graphics/SVG/1.1/DTD/svg11.dtd">
<!-- Generated by graphviz version 9.0.0 (20230911.1827)
 -->
<!-- Title: /github/workspace/dev_area/sourcecode/fdreadoutmodules/pybindsrc/pythonbindingsrenameme.cpp Pages: 1 -->
<svg width="396pt" height="105pt"
 viewBox="0.00 0.00 396.25 105.00" xmlns="http://www.w3.org/2000/svg" xmlns:xlink="http://www.w3.org/1999/xlink">
<g id="graph0" class="graph" transform="scale(1 1) rotate(0) translate(4 101)">
<title>/github/workspace/dev_area/sourcecode/fdreadoutmodules/pybindsrc/pythonbindingsrenameme.cpp</title>
<!-- Node1 -->
<g id="Node000001" class="node">
<title>Node1</title>
<g id="a_Node000001"><a xlink:title=" ">
<polygon fill="#999999" stroke="#666666" points="323.38,-97 131.88,-97 131.88,-55.25 323.38,-55.25 323.38,-97"/>
<text text-anchor="start" x="139.88" y="-83.5" font-family="Helvetica,sans-Serif" font-size="10.00">/github/workspace/dev</text>
<text text-anchor="start" x="139.88" y="-72.25" font-family="Helvetica,sans-Serif" font-size="10.00">_area/sourcecode/fdreadoutmodules</text>
<text text-anchor="middle" x="227.62" y="-61" font-family="Helvetica,sans-Serif" font-size="10.00">/pybindsrc/pythonbindingsrenameme.cpp</text>
</a>
</g>
</g>
<!-- Node2 -->
<g id="Node000002" class="node">
<title>Node2</title>
<g id="a_Node000002"><a xlink:title=" ">
<polygon fill="#e0e0e0" stroke="#999999" points="105.25,-19.25 0,-19.25 0,0 105.25,0 105.25,-19.25"/>
<text text-anchor="middle" x="52.62" y="-5.75" font-family="Helvetica,sans-Serif" font-size="10.00">pybind11/operators.h</text>
</a>
</g>
</g>
<!-- Node1&#45;&gt;Node2 -->
<g id="edge1_Node000001_Node000002" class="edge">
<title>Node1&#45;&gt;Node2</title>
<g id="a_edge1_Node000001_Node000002"><a xlink:title=" ">
<path fill="none" stroke="#63b8ff" d="M172.73,-54.89C144.92,-44.64 111.97,-32.5 87.63,-23.53"/>
<polygon fill="#63b8ff" stroke="#63b8ff" points="89.11,-20.34 78.52,-20.17 86.69,-26.91 89.11,-20.34"/>
</a>
</g>
</g>
<!-- Node3 -->
<g id="Node000003" class="node">
<title>Node3</title>
<g id="a_Node000003"><a xlink:title=" ">
<polygon fill="#e0e0e0" stroke="#999999" points="226.12,-19.25 123.12,-19.25 123.12,0 226.12,0 226.12,-19.25"/>
<text text-anchor="middle" x="174.62" y="-5.75" font-family="Helvetica,sans-Serif" font-size="10.00">pybind11/pybind11.h</text>
</a>
</g>
</g>
<!-- Node1&#45;&gt;Node3 -->
<g id="edge2_Node000001_Node000003" class="edge">
<title>Node1&#45;&gt;Node3</title>
<g id="a_edge2_Node000001_Node000003"><a xlink:title=" ">
<path fill="none" stroke="#63b8ff" d="M211.15,-55.07C204.16,-46.56 196.08,-36.73 189.3,-28.48"/>
<polygon fill="#63b8ff" stroke="#63b8ff" points="192.09,-26.37 183.04,-20.86 186.68,-30.81 192.09,-26.37"/>
</a>
</g>
</g>
<!-- Node4 -->
<g id="Node000004" class="node">
<title>Node4</title>
<g id="a_Node000004"><a xlink:title=" ">
<polygon fill="#e0e0e0" stroke="#999999" points="319.25,-19.25 244,-19.25 244,0 319.25,0 319.25,-19.25"/>
<text text-anchor="middle" x="281.62" y="-5.75" font-family="Helvetica,sans-Serif" font-size="10.00">pybind11/stl.h</text>
</a>
</g>
</g>
<!-- Node1&#45;&gt;Node4 -->
<g id="edge3_Node000001_Node000004" class="edge">
<title>Node1&#45;&gt;Node4</title>
<g id="a_edge3_Node000001_Node000004"><a xlink:title=" ">
<path fill="none" stroke="#63b8ff" d="M244.41,-55.07C251.54,-46.56 259.77,-36.73 266.68,-28.48"/>
<polygon fill="#63b8ff" stroke="#63b8ff" points="269.32,-30.77 273.06,-20.86 263.96,-26.28 269.32,-30.77"/>
</a>
</g>
</g>
<!-- Node5 -->
<g id="Node000005" class="node">
<title>Node5</title>
<g id="a_Node000005"><a xlink:title=" ">
<polygon fill="#e0e0e0" stroke="#999999" points="388.25,-19.25 337,-19.25 337,0 388.25,0 388.25,-19.25"/>
<text text-anchor="middle" x="362.62" y="-5.75" font-family="Helvetica,sans-Serif" font-size="10.00">sstream</text>
</a>
</g>
</g>
<!-- Node1&#45;&gt;Node5 -->
<g id="edge4_Node000001_Node000005" class="edge">
<title>Node1&#45;&gt;Node5</title>
<g id="a_edge4_Node000001_Node000005"><a xlink:title=" ">
<path fill="none" stroke="#63b8ff" d="M269.97,-54.89C290.65,-45.01 315.02,-33.37 333.57,-24.51"/>
<polygon fill="#63b8ff" stroke="#63b8ff" points="334.87,-27.77 342.38,-20.3 331.85,-21.45 334.87,-27.77"/>
</a>
</g>
</g>
</g>
</svg>
