<?xml version="1.0" encoding="UTF-8" standalone="no"?>
<!DOCTYPE svg PUBLIC "-//W3C//DTD SVG 1.1//EN"
 "http://www.w3.org/Graphics/SVG/1.1/DTD/svg11.dtd">
<!-- Generated by graphviz version 9.0.0 (20230911.1827)
 -->
<!-- Title: /github/workspace/dev_area/sourcecode/dfmessages/include/dfmessages/Fragment_serialization.hpp Pages: 1 -->
<svg width="1064pt" height="395pt"
 viewBox="0.00 0.00 1063.75 394.50" xmlns="http://www.w3.org/2000/svg" xmlns:xlink="http://www.w3.org/1999/xlink">
<g id="graph0" class="graph" transform="scale(1 1) rotate(0) translate(4 390.5)">
<title>/github/workspace/dev_area/sourcecode/dfmessages/include/dfmessages/Fragment_serialization.hpp</title>
<!-- Node1 -->
<g id="Node000001" class="node">
<title>Node1</title>
<g id="a_Node000001"><a xlink:title=" ">
<polygon fill="#999999" stroke="#666666" points="581,-386.5 430.75,-386.5 430.75,-333.5 581,-333.5 581,-386.5"/>
<text text-anchor="start" x="438.75" y="-373" font-family="Helvetica,sans-Serif" font-size="10.00">/github/workspace/dev</text>
<text text-anchor="start" x="438.75" y="-361.75" font-family="Helvetica,sans-Serif" font-size="10.00">_area/sourcecode/dfmessages</text>
<text text-anchor="start" x="438.75" y="-350.5" font-family="Helvetica,sans-Serif" font-size="10.00">/include/dfmessages/Fragment</text>
<text text-anchor="middle" x="505.88" y="-339.25" font-family="Helvetica,sans-Serif" font-size="10.00">_serialization.hpp</text>
</a>
</g>
</g>
<!-- Node2 -->
<g id="Node000002" class="node">
<title>Node2</title>
<g id="a_Node000002"><a xlink:href="TriggerRecord__serialization_8hpp.html" target="_top" xlink:title=" ">
<polygon fill="white" stroke="#666666" points="412.75,-297.5 243,-297.5 243,-244.5 412.75,-244.5 412.75,-297.5"/>
<text text-anchor="start" x="251" y="-284" font-family="Helvetica,sans-Serif" font-size="10.00">/github/workspace/dev</text>
<text text-anchor="start" x="251" y="-272.75" font-family="Helvetica,sans-Serif" font-size="10.00">_area/sourcecode/dfmessages</text>
<text text-anchor="start" x="251" y="-261.5" font-family="Helvetica,sans-Serif" font-size="10.00">/include/dfmessages/TriggerRecord</text>
<text text-anchor="middle" x="327.88" y="-250.25" font-family="Helvetica,sans-Serif" font-size="10.00">_serialization.hpp</text>
</a>
</g>
</g>
<!-- Node1&#45;&gt;Node2 -->
<g id="edge1_Node000001_Node000002" class="edge">
<title>Node1&#45;&gt;Node2</title>
<g id="a_edge1_Node000001_Node000002"><a xlink:title=" ">
<path fill="none" stroke="#63b8ff" d="M442.87,-328.21C422.61,-318.3 400.37,-307.44 380.9,-297.92"/>
<polygon fill="#63b8ff" stroke="#63b8ff" points="441.07,-331.22 451.59,-332.47 444.14,-324.93 441.07,-331.22"/>
</a>
</g>
</g>
<!-- Node3 -->
<g id="Node000003" class="node">
<title>Node3</title>
<g id="a_Node000003"><a xlink:href="Serialization_8cpp.html" target="_top" xlink:title=" ">
<polygon fill="white" stroke="#666666" points="580.62,-291.88 431.12,-291.88 431.12,-250.12 580.62,-250.12 580.62,-291.88"/>
<text text-anchor="start" x="439.12" y="-278.38" font-family="Helvetica,sans-Serif" font-size="10.00">/github/workspace/dev</text>
<text text-anchor="start" x="439.12" y="-267.12" font-family="Helvetica,sans-Serif" font-size="10.00">_area/sourcecode/dfmessages</text>
<text text-anchor="middle" x="505.88" y="-255.88" font-family="Helvetica,sans-Serif" font-size="10.00">/src/Serialization.cpp</text>
</a>
</g>
</g>
<!-- Node1&#45;&gt;Node3 -->
<g id="edge2_Node000001_Node000003" class="edge">
<title>Node1&#45;&gt;Node3</title>
<g id="a_edge2_Node000001_Node000003"><a xlink:title=" ">
<path fill="none" stroke="#63b8ff" d="M505.88,-322.13C505.88,-311.88 505.88,-301.12 505.88,-292.21"/>
<polygon fill="#63b8ff" stroke="#63b8ff" points="502.38,-321.85 505.88,-331.85 509.38,-321.85 502.38,-321.85"/>
</a>
</g>
</g>
<!-- Node4 -->
<g id="Node000004" class="node">
<title>Node4</title>
<g id="a_Node000004"><a xlink:href="DefaultRequestHandlerModel_8hpp.html" target="_top" xlink:title=" ">
<polygon fill="white" stroke="#666666" points="762.75,-297.5 599,-297.5 599,-244.5 762.75,-244.5 762.75,-297.5"/>
<text text-anchor="start" x="607" y="-284" font-family="Helvetica,sans-Serif" font-size="10.00">/github/workspace/dev</text>
<text text-anchor="start" x="607" y="-272.75" font-family="Helvetica,sans-Serif" font-size="10.00">_area/sourcecode/readoutlibs</text>
<text text-anchor="start" x="607" y="-261.5" font-family="Helvetica,sans-Serif" font-size="10.00">/include/readoutlibs/models</text>
<text text-anchor="middle" x="680.88" y="-250.25" font-family="Helvetica,sans-Serif" font-size="10.00">/DefaultRequestHandlerModel.hpp</text>
</a>
</g>
</g>
<!-- Node1&#45;&gt;Node4 -->
<g id="edge3_Node000001_Node000004" class="edge">
<title>Node1&#45;&gt;Node4</title>
<g id="a_edge3_Node000001_Node000004"><a xlink:title=" ">
<path fill="none" stroke="#63b8ff" d="M568.09,-328.07C587.94,-318.2 609.68,-307.39 628.74,-297.92"/>
<polygon fill="#63b8ff" stroke="#63b8ff" points="566.66,-324.87 559.26,-332.46 569.77,-331.14 566.66,-324.87"/>
</a>
</g>
</g>
<!-- Node5 -->
<g id="Node000005" class="node">
<title>Node5</title>
<g id="a_Node000005"><a xlink:href="DAPHNEListRequestHandler_8hpp.html" target="_top" xlink:title=" ">
<polygon fill="white" stroke="#666666" points="360.12,-208.5 195.62,-208.5 195.62,-155.5 360.12,-155.5 360.12,-208.5"/>
<text text-anchor="start" x="203.62" y="-195" font-family="Helvetica,sans-Serif" font-size="10.00">/github/workspace/dev</text>
<text text-anchor="start" x="203.62" y="-183.75" font-family="Helvetica,sans-Serif" font-size="10.00">_area/sourcecode/fdreadoutlibs</text>
<text text-anchor="start" x="203.62" y="-172.5" font-family="Helvetica,sans-Serif" font-size="10.00">/include/fdreadoutlibs/daphne</text>
<text text-anchor="middle" x="277.88" y="-161.25" font-family="Helvetica,sans-Serif" font-size="10.00">/DAPHNEListRequestHandler.hpp</text>
</a>
</g>
</g>
<!-- Node4&#45;&gt;Node5 -->
<g id="edge4_Node000004_Node000005" class="edge">
<title>Node4&#45;&gt;Node5</title>
<g id="a_edge4_Node000004_Node000005"><a xlink:title=" ">
<path fill="none" stroke="#63b8ff" d="M587.4,-244.05C495.49,-223.99 469.01,-227.25 379.88,-208.5 373.53,-207.17 366.99,-205.71 360.42,-204.2"/>
<polygon fill="#63b8ff" stroke="#63b8ff" points="586.63,-247.46 597.15,-246.21 588.15,-240.63 586.63,-247.46"/>
</a>
</g>
</g>
<!-- Node8 -->
<g id="Node000008" class="node">
<title>Node8</title>
<g id="a_Node000008"><a xlink:href="DefaultSkipListRequestHandler_8hpp.html" target="_top" xlink:title=" ">
<polygon fill="white" stroke="#666666" points="562.62,-208.5 389.12,-208.5 389.12,-155.5 562.62,-155.5 562.62,-208.5"/>
<text text-anchor="start" x="397.12" y="-195" font-family="Helvetica,sans-Serif" font-size="10.00">/github/workspace/dev</text>
<text text-anchor="start" x="397.12" y="-183.75" font-family="Helvetica,sans-Serif" font-size="10.00">_area/sourcecode/readoutlibs</text>
<text text-anchor="start" x="397.12" y="-172.5" font-family="Helvetica,sans-Serif" font-size="10.00">/include/readoutlibs/models</text>
<text text-anchor="middle" x="475.88" y="-161.25" font-family="Helvetica,sans-Serif" font-size="10.00">/DefaultSkipListRequestHandler.hpp</text>
</a>
</g>
</g>
<!-- Node4&#45;&gt;Node8 -->
<g id="edge7_Node000004_Node000008" class="edge">
<title>Node4&#45;&gt;Node8</title>
<g id="a_edge7_Node000004_Node000008"><a xlink:title=" ">
<path fill="none" stroke="#63b8ff" d="M609.32,-239.63C585.66,-229.59 559.57,-218.52 536.79,-208.85"/>
<polygon fill="#63b8ff" stroke="#63b8ff" points="607.68,-242.74 618.25,-243.42 610.41,-236.3 607.68,-242.74"/>
</a>
</g>
</g>
<!-- Node11 -->
<g id="Node000011" class="node">
<title>Node11</title>
<g id="a_Node000011"><a xlink:href="EmptyFragmentRequestHandlerModel_8hpp.html" target="_top" xlink:title=" ">
<polygon fill="white" stroke="#666666" points="781.5,-208.5 580.25,-208.5 580.25,-155.5 781.5,-155.5 781.5,-208.5"/>
<text text-anchor="start" x="588.25" y="-195" font-family="Helvetica,sans-Serif" font-size="10.00">/github/workspace/dev</text>
<text text-anchor="start" x="588.25" y="-183.75" font-family="Helvetica,sans-Serif" font-size="10.00">_area/sourcecode/readoutlibs</text>
<text text-anchor="start" x="588.25" y="-172.5" font-family="Helvetica,sans-Serif" font-size="10.00">/include/readoutlibs/models</text>
<text text-anchor="middle" x="680.88" y="-161.25" font-family="Helvetica,sans-Serif" font-size="10.00">/EmptyFragmentRequestHandlerModel.hpp</text>
</a>
</g>
</g>
<!-- Node4&#45;&gt;Node11 -->
<g id="edge10_Node000004_Node000011" class="edge">
<title>Node4&#45;&gt;Node11</title>
<g id="a_edge10_Node000004_Node000011"><a xlink:title=" ">
<path fill="none" stroke="#63b8ff" d="M680.88,-233.11C680.88,-224.91 680.88,-216.39 680.88,-208.75"/>
<polygon fill="#63b8ff" stroke="#63b8ff" points="677.38,-232.85 680.88,-242.85 684.38,-232.85 677.38,-232.85"/>
</a>
</g>
</g>
<!-- Node12 -->
<g id="Node000012" class="node">
<title>Node12</title>
<g id="a_Node000012"><a xlink:href="Readoutlibs_8cpp.html" target="_top" xlink:title=" ">
<polygon fill="white" stroke="#666666" points="881.62,-119.5 738.12,-119.5 738.12,-77.75 881.62,-77.75 881.62,-119.5"/>
<text text-anchor="start" x="746.12" y="-106" font-family="Helvetica,sans-Serif" font-size="10.00">/github/workspace/dev</text>
<text text-anchor="start" x="746.12" y="-94.75" font-family="Helvetica,sans-Serif" font-size="10.00">_area/sourcecode/readoutlibs</text>
<text text-anchor="middle" x="809.88" y="-83.5" font-family="Helvetica,sans-Serif" font-size="10.00">/src/Readoutlibs.cpp</text>
</a>
</g>
</g>
<!-- Node4&#45;&gt;Node12 -->
<g id="edge14_Node000004_Node000012" class="edge">
<title>Node4&#45;&gt;Node12</title>
<g id="a_edge14_Node000004_Node000012"><a xlink:title=" ">
<path fill="none" stroke="#63b8ff" d="M758.61,-238.32C770.98,-230.23 782.45,-220.37 790.88,-208.5 809.63,-182.05 811.91,-143.07 811.28,-119.64"/>
<polygon fill="#63b8ff" stroke="#63b8ff" points="757.02,-235.18 750.3,-243.37 760.66,-241.16 757.02,-235.18"/>
</a>
</g>
</g>
<!-- Node13 -->
<g id="Node000013" class="node">
<title>Node13</title>
<g id="a_Node000013"><a xlink:href="ZeroCopyRecordingRequestHandlerModel_8hpp.html" target="_top" xlink:title=" ">
<polygon fill="white" stroke="#666666" points="1055.75,-208.5 838,-208.5 838,-155.5 1055.75,-155.5 1055.75,-208.5"/>
<text text-anchor="start" x="846" y="-195" font-family="Helvetica,sans-Serif" font-size="10.00">/github/workspace/dev</text>
<text text-anchor="start" x="846" y="-183.75" font-family="Helvetica,sans-Serif" font-size="10.00">_area/sourcecode/readoutlibs</text>
<text text-anchor="start" x="846" y="-172.5" font-family="Helvetica,sans-Serif" font-size="10.00">/include/readoutlibs/models</text>
<text text-anchor="middle" x="946.88" y="-161.25" font-family="Helvetica,sans-Serif" font-size="10.00">/ZeroCopyRecordingRequestHandlerModel.hpp</text>
</a>
</g>
</g>
<!-- Node4&#45;&gt;Node13 -->
<g id="edge12_Node000004_Node000013" class="edge">
<title>Node4&#45;&gt;Node13</title>
<g id="a_edge12_Node000004_Node000013"><a xlink:title=" ">
<path fill="none" stroke="#63b8ff" d="M771.25,-240.44C802.6,-230.19 837.47,-218.78 867.84,-208.85"/>
<polygon fill="#63b8ff" stroke="#63b8ff" points="770.18,-237.11 761.76,-243.54 772.35,-243.76 770.18,-237.11"/>
</a>
</g>
</g>
<!-- Node6 -->
<g id="Node000006" class="node">
<title>Node6</title>
<g id="a_Node000006"><a xlink:href="FDReadoutlibs_8cpp.html" target="_top" xlink:title=" ">
<polygon fill="white" stroke="#666666" points="151.75,-119.5 0,-119.5 0,-77.75 151.75,-77.75 151.75,-119.5"/>
<text text-anchor="start" x="8" y="-106" font-family="Helvetica,sans-Serif" font-size="10.00">/github/workspace/dev</text>
<text text-anchor="start" x="8" y="-94.75" font-family="Helvetica,sans-Serif" font-size="10.00">_area/sourcecode/fdreadoutlibs</text>
<text text-anchor="middle" x="75.88" y="-83.5" font-family="Helvetica,sans-Serif" font-size="10.00">/src/FDReadoutlibs.cpp</text>
</a>
</g>
</g>
<!-- Node5&#45;&gt;Node6 -->
<g id="edge5_Node000005_Node000006" class="edge">
<title>Node5&#45;&gt;Node6</title>
<g id="a_edge5_Node000005_Node000006"><a xlink:title=" ">
<path fill="none" stroke="#63b8ff" d="M203,-150.84C177.44,-140.54 149.49,-129.28 126.31,-119.94"/>
<polygon fill="#63b8ff" stroke="#63b8ff" points="201.42,-153.97 212,-154.46 204.03,-147.48 201.42,-153.97"/>
</a>
</g>
</g>
<!-- Node7 -->
<g id="Node000007" class="node">
<title>Node7</title>
<g id="a_Node000007"><a xlink:href="DAPHNEListRequestHandler_8cpp.html" target="_top" xlink:title=" ">
<polygon fill="white" stroke="#666666" points="385.62,-119.5 170.12,-119.5 170.12,-77.75 385.62,-77.75 385.62,-119.5"/>
<text text-anchor="start" x="178.12" y="-106" font-family="Helvetica,sans-Serif" font-size="10.00">/github/workspace/dev</text>
<text text-anchor="start" x="178.12" y="-94.75" font-family="Helvetica,sans-Serif" font-size="10.00">_area/sourcecode/fdreadoutlibs</text>
<text text-anchor="middle" x="277.88" y="-83.5" font-family="Helvetica,sans-Serif" font-size="10.00">/src/daphne/DAPHNEListRequestHandler.cpp</text>
</a>
</g>
</g>
<!-- Node5&#45;&gt;Node7 -->
<g id="edge6_Node000005_Node000007" class="edge">
<title>Node5&#45;&gt;Node7</title>
<g id="a_edge6_Node000005_Node000007"><a xlink:title=" ">
<path fill="none" stroke="#63b8ff" d="M277.88,-143.83C277.88,-135.55 277.88,-127.08 277.88,-119.79"/>
<polygon fill="#63b8ff" stroke="#63b8ff" points="274.38,-143.74 277.88,-153.74 281.38,-143.74 274.38,-143.74"/>
</a>
</g>
</g>
<!-- Node9 -->
<g id="Node000009" class="node">
<title>Node9</title>
<g id="a_Node000009"><a xlink:href="TPRequestHandler_8hpp.html" target="_top" xlink:title=" ">
<polygon fill="white" stroke="#666666" points="569.88,-119.5 403.88,-119.5 403.88,-77.75 569.88,-77.75 569.88,-119.5"/>
<text text-anchor="start" x="411.88" y="-106" font-family="Helvetica,sans-Serif" font-size="10.00">/github/workspace/dev</text>
<text text-anchor="start" x="411.88" y="-94.75" font-family="Helvetica,sans-Serif" font-size="10.00">_area/sourcecode/trigger</text>
<text text-anchor="middle" x="486.88" y="-83.5" font-family="Helvetica,sans-Serif" font-size="10.00">/src/trigger/TPRequestHandler.hpp</text>
</a>
</g>
</g>
<!-- Node8&#45;&gt;Node9 -->
<g id="edge8_Node000008_Node000009" class="edge">
<title>Node8&#45;&gt;Node9</title>
<g id="a_edge8_Node000008_Node000009"><a xlink:title=" ">
<path fill="none" stroke="#63b8ff" d="M480.86,-144.11C481.99,-135.74 483.15,-127.16 484.15,-119.79"/>
<polygon fill="#63b8ff" stroke="#63b8ff" points="477.43,-143.37 479.56,-153.75 484.37,-144.31 477.43,-143.37"/>
</a>
</g>
</g>
<!-- Node10 -->
<g id="Node000010" class="node">
<title>Node10</title>
<g id="a_Node000010"><a xlink:href="TPRequestHandler_8cpp.html" target="_top" xlink:title=" ">
<polygon fill="white" stroke="#666666" points="554.88,-41.75 418.88,-41.75 418.88,0 554.88,0 554.88,-41.75"/>
<text text-anchor="start" x="426.88" y="-28.25" font-family="Helvetica,sans-Serif" font-size="10.00">/github/workspace/dev</text>
<text text-anchor="start" x="426.88" y="-17" font-family="Helvetica,sans-Serif" font-size="10.00">_area/sourcecode/trigger</text>
<text text-anchor="middle" x="486.88" y="-5.75" font-family="Helvetica,sans-Serif" font-size="10.00">/src/TPRequestHandler.cpp</text>
</a>
</g>
</g>
<!-- Node9&#45;&gt;Node10 -->
<g id="edge9_Node000009_Node000010" class="edge">
<title>Node9&#45;&gt;Node10</title>
<g id="a_edge9_Node000009_Node000010"><a xlink:title=" ">
<path fill="none" stroke="#63b8ff" d="M486.88,-66C486.88,-57.96 486.88,-49.54 486.88,-42.23"/>
<polygon fill="#63b8ff" stroke="#63b8ff" points="483.38,-65.81 486.88,-75.81 490.38,-65.81 483.38,-65.81"/>
</a>
</g>
</g>
<!-- Node11&#45;&gt;Node12 -->
<g id="edge11_Node000011_Node000012" class="edge">
<title>Node11&#45;&gt;Node12</title>
<g id="a_edge11_Node000011_Node000012"><a xlink:title=" ">
<path fill="none" stroke="#63b8ff" d="M731.54,-149.04C747.07,-139.24 763.72,-128.74 777.66,-119.94"/>
<polygon fill="#63b8ff" stroke="#63b8ff" points="729.92,-145.93 723.33,-154.22 733.65,-151.85 729.92,-145.93"/>
</a>
</g>
</g>
<!-- Node13&#45;&gt;Node12 -->
<g id="edge13_Node000013_Node000012" class="edge">
<title>Node13&#45;&gt;Node12</title>
<g id="a_edge13_Node000013_Node000012"><a xlink:title=" ">
<path fill="none" stroke="#63b8ff" d="M893.54,-149.32C876.91,-139.44 859.03,-128.82 844.08,-119.94"/>
<polygon fill="#63b8ff" stroke="#63b8ff" points="891.46,-152.16 901.85,-154.26 895.04,-146.14 891.46,-152.16"/>
</a>
</g>
</g>
</g>
</svg>
