<?xml version="1.0" encoding="UTF-8" standalone="no"?>
<!DOCTYPE svg PUBLIC "-//W3C//DTD SVG 1.1//EN"
 "http://www.w3.org/Graphics/SVG/1.1/DTD/svg11.dtd">
<!-- Generated by graphviz version 9.0.0 (20230911.1827)
 -->
<!-- Title: /github/workspace/dev_area/sourcecode/fdreadoutlibs/include/fdreadoutlibs/wibeth/tpg/FrameExpand.hpp Pages: 1 -->
<svg width="1593pt" height="317pt"
 viewBox="0.00 0.00 1593.38 316.75" xmlns="http://www.w3.org/2000/svg" xmlns:xlink="http://www.w3.org/1999/xlink">
<g id="graph0" class="graph" transform="scale(1 1) rotate(0) translate(4 312.75)">
<title>/github/workspace/dev_area/sourcecode/fdreadoutlibs/include/fdreadoutlibs/wibeth/tpg/FrameExpand.hpp</title>
<!-- Node1 -->
<g id="Node000001" class="node">
<title>Node1</title>
<g id="a_Node000001"><a xlink:title=" ">
<polygon fill="#999999" stroke="#666666" points="1042.38,-308.75 890.62,-308.75 890.62,-255.75 1042.38,-255.75 1042.38,-308.75"/>
<text text-anchor="start" x="898.62" y="-295.25" font-family="Helvetica,sans-Serif" font-size="10.00">/github/workspace/dev</text>
<text text-anchor="start" x="898.62" y="-284" font-family="Helvetica,sans-Serif" font-size="10.00">_area/sourcecode/fdreadoutlibs</text>
<text text-anchor="start" x="898.62" y="-272.75" font-family="Helvetica,sans-Serif" font-size="10.00">/include/fdreadoutlibs/wibeth</text>
<text text-anchor="middle" x="966.5" y="-261.5" font-family="Helvetica,sans-Serif" font-size="10.00">/tpg/FrameExpand.hpp</text>
</a>
</g>
</g>
<!-- Node2 -->
<g id="Node000002" class="node">
<title>Node2</title>
<g id="a_Node000002"><a xlink:href="ProcessAVX2_8hpp.html" target="_top" xlink:title=" ">
<polygon fill="white" stroke="#666666" points="341.38,-130.75 189.62,-130.75 189.62,-77.75 341.38,-77.75 341.38,-130.75"/>
<text text-anchor="start" x="197.62" y="-117.25" font-family="Helvetica,sans-Serif" font-size="10.00">/github/workspace/dev</text>
<text text-anchor="start" x="197.62" y="-106" font-family="Helvetica,sans-Serif" font-size="10.00">_area/sourcecode/fdreadoutlibs</text>
<text text-anchor="start" x="197.62" y="-94.75" font-family="Helvetica,sans-Serif" font-size="10.00">/include/fdreadoutlibs/wibeth</text>
<text text-anchor="middle" x="265.5" y="-83.5" font-family="Helvetica,sans-Serif" font-size="10.00">/tpg/ProcessAVX2.hpp</text>
</a>
</g>
</g>
<!-- Node1&#45;&gt;Node2 -->
<g id="edge1_Node000001_Node000002" class="edge">
<title>Node1&#45;&gt;Node2</title>
<g id="a_edge1_Node000001_Node000002"><a xlink:title=" ">
<path fill="none" stroke="#63b8ff" d="M878.87,-280.65C777.61,-277.65 607.13,-265.42 468.5,-219.75 405.66,-199.05 340.29,-158.09 301.25,-131.19"/>
<polygon fill="#63b8ff" stroke="#63b8ff" points="878.66,-284.15 888.75,-280.92 878.85,-277.15 878.66,-284.15"/>
</a>
</g>
</g>
<!-- Node3 -->
<g id="Node000003" class="node">
<title>Node3</title>
<g id="a_Node000003"><a xlink:href="WIBEthFrameProcessor_8cpp.html" target="_top" xlink:title=" ">
<polygon fill="white" stroke="#666666" points="582.5,-41.75 392.5,-41.75 392.5,0 582.5,0 582.5,-41.75"/>
<text text-anchor="start" x="400.5" y="-28.25" font-family="Helvetica,sans-Serif" font-size="10.00">/github/workspace/dev</text>
<text text-anchor="start" x="400.5" y="-17" font-family="Helvetica,sans-Serif" font-size="10.00">_area/sourcecode/fdreadoutlibs</text>
<text text-anchor="middle" x="487.5" y="-5.75" font-family="Helvetica,sans-Serif" font-size="10.00">/src/wibeth/WIBEthFrameProcessor.cpp</text>
</a>
</g>
</g>
<!-- Node1&#45;&gt;Node3 -->
<g id="edge26_Node000001_Node000003" class="edge">
<title>Node1&#45;&gt;Node3</title>
<g id="a_edge26_Node000001_Node000003"><a xlink:title=" ">
<path fill="none" stroke="#63b8ff" d="M879.08,-269.9C788.19,-253.8 647.06,-216.14 558.5,-130.75 544.04,-116.81 515.36,-69.62 499.23,-42.16"/>
<polygon fill="#63b8ff" stroke="#63b8ff" points="878.25,-273.31 888.69,-271.55 879.43,-266.41 878.25,-273.31"/>
</a>
</g>
</g>
<!-- Node5 -->
<g id="Node000005" class="node">
<title>Node5</title>
<g id="a_Node000005"><a xlink:href="ProcessAVX2FIR_8hpp.html" target="_top" xlink:title=" ">
<polygon fill="white" stroke="#666666" points="1075.38,-130.75 923.62,-130.75 923.62,-77.75 1075.38,-77.75 1075.38,-130.75"/>
<text text-anchor="start" x="931.62" y="-117.25" font-family="Helvetica,sans-Serif" font-size="10.00">/github/workspace/dev</text>
<text text-anchor="start" x="931.62" y="-106" font-family="Helvetica,sans-Serif" font-size="10.00">_area/sourcecode/fdreadoutlibs</text>
<text text-anchor="start" x="931.62" y="-94.75" font-family="Helvetica,sans-Serif" font-size="10.00">/include/fdreadoutlibs/wibeth</text>
<text text-anchor="middle" x="999.5" y="-83.5" font-family="Helvetica,sans-Serif" font-size="10.00">/tpg/ProcessAVX2FIR.hpp</text>
</a>
</g>
</g>
<!-- Node1&#45;&gt;Node5 -->
<g id="edge4_Node000001_Node000005" class="edge">
<title>Node1&#45;&gt;Node5</title>
<g id="a_edge4_Node000001_Node000005"><a xlink:title=" ">
<path fill="none" stroke="#63b8ff" d="M973.49,-243.97C979.85,-210.03 989.08,-160.81 994.66,-131.04"/>
<polygon fill="#63b8ff" stroke="#63b8ff" points="970.05,-243.32 971.65,-253.79 976.93,-244.61 970.05,-243.32"/>
</a>
</g>
</g>
<!-- Node7 -->
<g id="Node000007" class="node">
<title>Node7</title>
<g id="a_Node000007"><a xlink:href="ProcessAbsRSAVX2_8hpp.html" target="_top" xlink:title=" ">
<polygon fill="white" stroke="#666666" points="511.38,-130.75 359.62,-130.75 359.62,-77.75 511.38,-77.75 511.38,-130.75"/>
<text text-anchor="start" x="367.62" y="-117.25" font-family="Helvetica,sans-Serif" font-size="10.00">/github/workspace/dev</text>
<text text-anchor="start" x="367.62" y="-106" font-family="Helvetica,sans-Serif" font-size="10.00">_area/sourcecode/fdreadoutlibs</text>
<text text-anchor="start" x="367.62" y="-94.75" font-family="Helvetica,sans-Serif" font-size="10.00">/include/fdreadoutlibs/wibeth</text>
<text text-anchor="middle" x="435.5" y="-83.5" font-family="Helvetica,sans-Serif" font-size="10.00">/tpg/ProcessAbsRSAVX2.hpp</text>
</a>
</g>
</g>
<!-- Node1&#45;&gt;Node7 -->
<g id="edge6_Node000001_Node000007" class="edge">
<title>Node1&#45;&gt;Node7</title>
<g id="a_edge6_Node000001_Node000007"><a xlink:title=" ">
<path fill="none" stroke="#63b8ff" d="M879.12,-276.77C768.16,-269.77 584.06,-253.4 525.5,-219.75 489.55,-199.09 462.72,-157.91 448.09,-130.98"/>
<polygon fill="#63b8ff" stroke="#63b8ff" points="878.58,-280.24 888.78,-277.36 879.01,-273.25 878.58,-280.24"/>
</a>
</g>
</g>
<!-- Node9 -->
<g id="Node000009" class="node">
<title>Node9</title>
<g id="a_Node000009"><a xlink:href="ProcessNaive_8hpp.html" target="_top" xlink:title=" ">
<polygon fill="white" stroke="#666666" points="1245.38,-130.75 1093.62,-130.75 1093.62,-77.75 1245.38,-77.75 1245.38,-130.75"/>
<text text-anchor="start" x="1101.62" y="-117.25" font-family="Helvetica,sans-Serif" font-size="10.00">/github/workspace/dev</text>
<text text-anchor="start" x="1101.62" y="-106" font-family="Helvetica,sans-Serif" font-size="10.00">_area/sourcecode/fdreadoutlibs</text>
<text text-anchor="start" x="1101.62" y="-94.75" font-family="Helvetica,sans-Serif" font-size="10.00">/include/fdreadoutlibs/wibeth</text>
<text text-anchor="middle" x="1169.5" y="-83.5" font-family="Helvetica,sans-Serif" font-size="10.00">/tpg/ProcessNaive.hpp</text>
</a>
</g>
</g>
<!-- Node1&#45;&gt;Node9 -->
<g id="edge9_Node000001_Node000009" class="edge">
<title>Node1&#45;&gt;Node9</title>
<g id="a_edge9_Node000001_Node000009"><a xlink:title=" ">
<path fill="none" stroke="#63b8ff" d="M982.9,-245.07C996.63,-216.04 1015.93,-178.29 1028.5,-166.75 1046.89,-149.86 1070.66,-137.1 1093.42,-127.71"/>
<polygon fill="#63b8ff" stroke="#63b8ff" points="979.82,-243.39 978.76,-253.93 986.16,-246.36 979.82,-243.39"/>
</a>
</g>
</g>
<!-- Node10 -->
<g id="Node000010" class="node">
<title>Node10</title>
<g id="a_Node000010"><a xlink:href="ProcessNaiveFIR_8hpp.html" target="_top" xlink:title=" ">
<polygon fill="white" stroke="#666666" points="1415.38,-130.75 1263.62,-130.75 1263.62,-77.75 1415.38,-77.75 1415.38,-130.75"/>
<text text-anchor="start" x="1271.62" y="-117.25" font-family="Helvetica,sans-Serif" font-size="10.00">/github/workspace/dev</text>
<text text-anchor="start" x="1271.62" y="-106" font-family="Helvetica,sans-Serif" font-size="10.00">_area/sourcecode/fdreadoutlibs</text>
<text text-anchor="start" x="1271.62" y="-94.75" font-family="Helvetica,sans-Serif" font-size="10.00">/include/fdreadoutlibs/wibeth</text>
<text text-anchor="middle" x="1339.5" y="-83.5" font-family="Helvetica,sans-Serif" font-size="10.00">/tpg/ProcessNaiveFIR.hpp</text>
</a>
</g>
</g>
<!-- Node1&#45;&gt;Node10 -->
<g id="edge10_Node000001_Node000010" class="edge">
<title>Node1&#45;&gt;Node10</title>
<g id="a_edge10_Node000001_Node000010"><a xlink:title=" ">
<path fill="none" stroke="#63b8ff" d="M1000.29,-247.32C1008.71,-238.51 1017.59,-228.92 1025.5,-219.75 1044.95,-197.2 1041.12,-182.34 1066.5,-166.75 1138.99,-122.23 1171.87,-151 1254.5,-130.75 1257.34,-130.05 1260.23,-129.32 1263.15,-128.56"/>
<polygon fill="#63b8ff" stroke="#63b8ff" points="997.88,-244.78 993.45,-254.4 1002.91,-249.64 997.88,-244.78"/>
</a>
</g>
</g>
<!-- Node11 -->
<g id="Node000011" class="node">
<title>Node11</title>
<g id="a_Node000011"><a xlink:href="ProcessNaiveRS_8hpp.html" target="_top" xlink:title=" ">
<polygon fill="white" stroke="#666666" points="1585.38,-130.75 1433.62,-130.75 1433.62,-77.75 1585.38,-77.75 1585.38,-130.75"/>
<text text-anchor="start" x="1441.62" y="-117.25" font-family="Helvetica,sans-Serif" font-size="10.00">/github/workspace/dev</text>
<text text-anchor="start" x="1441.62" y="-106" font-family="Helvetica,sans-Serif" font-size="10.00">_area/sourcecode/fdreadoutlibs</text>
<text text-anchor="start" x="1441.62" y="-94.75" font-family="Helvetica,sans-Serif" font-size="10.00">/include/fdreadoutlibs/wibeth</text>
<text text-anchor="middle" x="1509.5" y="-83.5" font-family="Helvetica,sans-Serif" font-size="10.00">/tpg/ProcessNaiveRS.hpp</text>
</a>
</g>
</g>
<!-- Node1&#45;&gt;Node11 -->
<g id="edge11_Node000001_Node000011" class="edge">
<title>Node1&#45;&gt;Node11</title>
<g id="a_edge11_Node000001_Node000011"><a xlink:title=" ">
<path fill="none" stroke="#63b8ff" d="M1021.7,-249.2C1034.74,-240.45 1048.15,-230.42 1059.5,-219.75 1081.01,-199.54 1073.85,-181.34 1099.5,-166.75 1225.81,-94.88 1282.09,-159.75 1424.5,-130.75 1427.37,-130.17 1430.28,-129.53 1433.21,-128.85"/>
<polygon fill="#63b8ff" stroke="#63b8ff" points="1020.03,-246.11 1013.57,-254.51 1023.85,-251.98 1020.03,-246.11"/>
</a>
</g>
</g>
<!-- Node12 -->
<g id="Node000012" class="node">
<title>Node12</title>
<g id="a_Node000012"><a xlink:href="ProcessStandardRSAVX2_8hpp.html" target="_top" xlink:title=" ">
<polygon fill="white" stroke="#666666" points="735.25,-130.75 567.75,-130.75 567.75,-77.75 735.25,-77.75 735.25,-130.75"/>
<text text-anchor="start" x="575.75" y="-117.25" font-family="Helvetica,sans-Serif" font-size="10.00">/github/workspace/dev</text>
<text text-anchor="start" x="575.75" y="-106" font-family="Helvetica,sans-Serif" font-size="10.00">_area/sourcecode/fdreadoutlibs</text>
<text text-anchor="start" x="575.75" y="-94.75" font-family="Helvetica,sans-Serif" font-size="10.00">/include/fdreadoutlibs/wibeth</text>
<text text-anchor="middle" x="651.5" y="-83.5" font-family="Helvetica,sans-Serif" font-size="10.00">/tpg/ProcessStandardRSAVX2.hpp</text>
</a>
</g>
</g>
<!-- Node1&#45;&gt;Node12 -->
<g id="edge12_Node000001_Node000012" class="edge">
<title>Node1&#45;&gt;Node12</title>
<g id="a_edge12_Node000001_Node000012"><a xlink:title=" ">
<path fill="none" stroke="#63b8ff" d="M879.62,-261.33C846.34,-251.59 808.87,-237.97 777.5,-219.75 736.35,-195.85 697.12,-156.73 673.67,-130.98"/>
<polygon fill="#63b8ff" stroke="#63b8ff" points="878.23,-264.57 888.81,-263.94 880.15,-257.84 878.23,-264.57"/>
</a>
</g>
</g>
<!-- Node14 -->
<g id="Node000014" class="node">
<title>Node14</title>
<g id="a_Node000014"><a xlink:href="ProcessingInfo_8hpp.html" target="_top" xlink:title=" ">
<polygon fill="white" stroke="#666666" points="938.38,-219.75 786.62,-219.75 786.62,-166.75 938.38,-166.75 938.38,-219.75"/>
<text text-anchor="start" x="794.62" y="-206.25" font-family="Helvetica,sans-Serif" font-size="10.00">/github/workspace/dev</text>
<text text-anchor="start" x="794.62" y="-195" font-family="Helvetica,sans-Serif" font-size="10.00">_area/sourcecode/fdreadoutlibs</text>
<text text-anchor="start" x="794.62" y="-183.75" font-family="Helvetica,sans-Serif" font-size="10.00">/include/fdreadoutlibs/wibeth</text>
<text text-anchor="middle" x="862.5" y="-172.5" font-family="Helvetica,sans-Serif" font-size="10.00">/tpg/ProcessingInfo.hpp</text>
</a>
</g>
</g>
<!-- Node1&#45;&gt;Node14 -->
<g id="edge15_Node000001_Node000014" class="edge">
<title>Node1&#45;&gt;Node14</title>
<g id="a_edge15_Node000001_Node000014"><a xlink:title=" ">
<path fill="none" stroke="#63b8ff" d="M926.91,-248.13C915.84,-238.87 903.98,-228.95 893.48,-220.17"/>
<polygon fill="#63b8ff" stroke="#63b8ff" points="924.5,-250.68 934.42,-254.41 928.99,-245.31 924.5,-250.68"/>
</a>
</g>
</g>
<!-- Node17 -->
<g id="Node000017" class="node">
<title>Node17</title>
<g id="a_Node000017"><a xlink:href="FrameExpand_8cpp.html" target="_top" xlink:title=" ">
<polygon fill="white" stroke="#666666" points="1268.88,-214.12 1108.12,-214.12 1108.12,-172.38 1268.88,-172.38 1268.88,-214.12"/>
<text text-anchor="start" x="1116.12" y="-200.62" font-family="Helvetica,sans-Serif" font-size="10.00">/github/workspace/dev</text>
<text text-anchor="start" x="1116.12" y="-189.38" font-family="Helvetica,sans-Serif" font-size="10.00">_area/sourcecode/fdreadoutlibs</text>
<text text-anchor="middle" x="1188.5" y="-178.12" font-family="Helvetica,sans-Serif" font-size="10.00">/src/wibeth/tpg/FrameExpand.cpp</text>
</a>
</g>
</g>
<!-- Node1&#45;&gt;Node17 -->
<g id="edge27_Node000001_Node000017" class="edge">
<title>Node1&#45;&gt;Node17</title>
<g id="a_edge27_Node000001_Node000017"><a xlink:title=" ">
<path fill="none" stroke="#63b8ff" d="M1043.51,-251.07C1074.29,-239.01 1108.92,-225.44 1136.62,-214.58"/>
<polygon fill="#63b8ff" stroke="#63b8ff" points="1042.25,-247.81 1034.22,-254.71 1044.8,-254.32 1042.25,-247.81"/>
</a>
</g>
</g>
<!-- Node18 -->
<g id="Node000018" class="node">
<title>Node18</title>
<g id="a_Node000018"><a xlink:href="RegisterToChannelNumber_8cpp.html" target="_top" xlink:title=" ">
<polygon fill="white" stroke="#666666" points="1505.75,-214.12 1287.25,-214.12 1287.25,-172.38 1505.75,-172.38 1505.75,-214.12"/>
<text text-anchor="start" x="1295.25" y="-200.62" font-family="Helvetica,sans-Serif" font-size="10.00">/github/workspace/dev</text>
<text text-anchor="start" x="1295.25" y="-189.38" font-family="Helvetica,sans-Serif" font-size="10.00">_area/sourcecode/fdreadoutlibs</text>
<text text-anchor="middle" x="1396.5" y="-178.12" font-family="Helvetica,sans-Serif" font-size="10.00">/src/wibeth/tpg/RegisterToChannelNumber.cpp</text>
</a>
</g>
</g>
<!-- Node1&#45;&gt;Node18 -->
<g id="edge28_Node000001_Node000018" class="edge">
<title>Node1&#45;&gt;Node18</title>
<g id="a_edge28_Node000001_Node000018"><a xlink:title=" ">
<path fill="none" stroke="#63b8ff" d="M1053.59,-264.41C1115.99,-252.25 1201.98,-235.31 1277.5,-219.75 1285.57,-218.09 1293.94,-216.34 1302.34,-214.57"/>
<polygon fill="#63b8ff" stroke="#63b8ff" points="1053.25,-260.91 1044.1,-266.26 1054.59,-267.78 1053.25,-260.91"/>
</a>
</g>
</g>
<!-- Node2&#45;&gt;Node3 -->
<g id="edge2_Node000002_Node000003" class="edge">
<title>Node2&#45;&gt;Node3</title>
<g id="a_edge2_Node000002_Node000003"><a xlink:title=" ">
<path fill="none" stroke="#63b8ff" d="M347.04,-73.36C375.33,-62.99 406.38,-51.61 432.07,-42.19"/>
<polygon fill="#63b8ff" stroke="#63b8ff" points="345.96,-70.03 337.77,-76.76 348.37,-76.6 345.96,-70.03"/>
</a>
</g>
</g>
<!-- Node4 -->
<g id="Node000004" class="node">
<title>Node4</title>
<g id="a_Node000004"><a xlink:href="ProcessAVX2_8cpp.html" target="_top" xlink:title=" ">
<polygon fill="white" stroke="#666666" points="163,-41.75 0,-41.75 0,0 163,0 163,-41.75"/>
<text text-anchor="start" x="8" y="-28.25" font-family="Helvetica,sans-Serif" font-size="10.00">/github/workspace/dev</text>
<text text-anchor="start" x="8" y="-17" font-family="Helvetica,sans-Serif" font-size="10.00">_area/sourcecode/fdreadoutlibs</text>
<text text-anchor="middle" x="81.5" y="-5.75" font-family="Helvetica,sans-Serif" font-size="10.00">/src/wibeth/tpg/ProcessAVX2.cpp</text>
</a>
</g>
</g>
<!-- Node2&#45;&gt;Node4 -->
<g id="edge3_Node000002_Node000004" class="edge">
<title>Node2&#45;&gt;Node4</title>
<g id="a_edge3_Node000002_Node000004"><a xlink:title=" ">
<path fill="none" stroke="#63b8ff" d="M196.36,-72.67C173.34,-62.49 148.27,-51.4 127.45,-42.19"/>
<polygon fill="#63b8ff" stroke="#63b8ff" points="194.83,-75.82 205.39,-76.67 197.66,-69.42 194.83,-75.82"/>
</a>
</g>
</g>
<!-- Node6 -->
<g id="Node000006" class="node">
<title>Node6</title>
<g id="a_Node000006"><a xlink:href="ProcessAVX2FIR_8cpp.html" target="_top" xlink:title=" ">
<polygon fill="white" stroke="#666666" points="1182.88,-41.75 1004.12,-41.75 1004.12,0 1182.88,0 1182.88,-41.75"/>
<text text-anchor="start" x="1012.12" y="-28.25" font-family="Helvetica,sans-Serif" font-size="10.00">/github/workspace/dev</text>
<text text-anchor="start" x="1012.12" y="-17" font-family="Helvetica,sans-Serif" font-size="10.00">_area/sourcecode/fdreadoutlibs</text>
<text text-anchor="middle" x="1093.5" y="-5.75" font-family="Helvetica,sans-Serif" font-size="10.00">/src/wibeth/tpg/ProcessAVX2FIR.cpp</text>
</a>
</g>
</g>
<!-- Node5&#45;&gt;Node6 -->
<g id="edge5_Node000005_Node000006" class="edge">
<title>Node5&#45;&gt;Node6</title>
<g id="a_edge5_Node000005_Node000006"><a xlink:title=" ">
<path fill="none" stroke="#63b8ff" d="M1038.02,-69.9C1048.87,-60.51 1060.35,-50.57 1070.03,-42.19"/>
<polygon fill="#63b8ff" stroke="#63b8ff" points="1035.91,-67.1 1030.64,-76.29 1040.5,-72.39 1035.91,-67.1"/>
</a>
</g>
</g>
<!-- Node7&#45;&gt;Node3 -->
<g id="edge7_Node000007_Node000003" class="edge">
<title>Node7&#45;&gt;Node3</title>
<g id="a_edge7_Node000007_Node000003"><a xlink:title=" ">
<path fill="none" stroke="#63b8ff" d="M457.98,-68.07C463.67,-59.17 469.58,-49.91 474.61,-42.04"/>
<polygon fill="#63b8ff" stroke="#63b8ff" points="455.2,-65.92 452.77,-76.23 461.1,-69.69 455.2,-65.92"/>
</a>
</g>
</g>
<!-- Node8 -->
<g id="Node000008" class="node">
<title>Node8</title>
<g id="a_Node000008"><a xlink:href="ProcessAbsRSAVX2_8cpp.html" target="_top" xlink:title=" ">
<polygon fill="white" stroke="#666666" points="374.38,-41.75 180.62,-41.75 180.62,0 374.38,0 374.38,-41.75"/>
<text text-anchor="start" x="188.62" y="-28.25" font-family="Helvetica,sans-Serif" font-size="10.00">/github/workspace/dev</text>
<text text-anchor="start" x="188.62" y="-17" font-family="Helvetica,sans-Serif" font-size="10.00">_area/sourcecode/fdreadoutlibs</text>
<text text-anchor="middle" x="277.5" y="-5.75" font-family="Helvetica,sans-Serif" font-size="10.00">/src/wibeth/tpg/ProcessAbsRSAVX2.cpp</text>
</a>
</g>
</g>
<!-- Node7&#45;&gt;Node8 -->
<g id="edge8_Node000007_Node000008" class="edge">
<title>Node7&#45;&gt;Node8</title>
<g id="a_edge8_Node000007_Node000008"><a xlink:title=" ">
<path fill="none" stroke="#63b8ff" d="M375.06,-72.12C355.58,-62.09 334.51,-51.24 316.95,-42.19"/>
<polygon fill="#63b8ff" stroke="#63b8ff" points="373.24,-75.12 383.73,-76.59 376.44,-68.9 373.24,-75.12"/>
</a>
</g>
</g>
<!-- Node12&#45;&gt;Node3 -->
<g id="edge13_Node000012_Node000003" class="edge">
<title>Node12&#45;&gt;Node3</title>
<g id="a_edge13_Node000012_Node000003"><a xlink:title=" ">
<path fill="none" stroke="#63b8ff" d="M589.04,-72.26C568.75,-62.19 546.76,-51.28 528.45,-42.19"/>
<polygon fill="#63b8ff" stroke="#63b8ff" points="587.29,-75.3 597.8,-76.61 590.4,-69.03 587.29,-75.3"/>
</a>
</g>
</g>
<!-- Node13 -->
<g id="Node000013" class="node">
<title>Node13</title>
<g id="a_Node000013"><a xlink:href="ProcessStandardRSAVX2_8cpp.html" target="_top" xlink:title=" ">
<polygon fill="white" stroke="#666666" points="816.25,-41.75 600.75,-41.75 600.75,0 816.25,0 816.25,-41.75"/>
<text text-anchor="start" x="608.75" y="-28.25" font-family="Helvetica,sans-Serif" font-size="10.00">/github/workspace/dev</text>
<text text-anchor="start" x="608.75" y="-17" font-family="Helvetica,sans-Serif" font-size="10.00">_area/sourcecode/fdreadoutlibs</text>
<text text-anchor="middle" x="708.5" y="-5.75" font-family="Helvetica,sans-Serif" font-size="10.00">/src/wibeth/tpg/ProcessStandardRSAVX2.cpp</text>
</a>
</g>
</g>
<!-- Node12&#45;&gt;Node13 -->
<g id="edge14_Node000012_Node000013" class="edge">
<title>Node12&#45;&gt;Node13</title>
<g id="a_edge14_Node000012_Node000013"><a xlink:title=" ">
<path fill="none" stroke="#63b8ff" d="M675.94,-68.35C682.24,-59.37 688.8,-50 694.37,-42.04"/>
<polygon fill="#63b8ff" stroke="#63b8ff" points="673.27,-66.06 670.4,-76.26 679.01,-70.08 673.27,-66.06"/>
</a>
</g>
</g>
<!-- Node14&#45;&gt;Node2 -->
<g id="edge19_Node000014_Node000002" class="edge">
<title>Node14&#45;&gt;Node2</title>
<g id="a_edge19_Node000014_Node000002"><a xlink:title=" ">
<path fill="none" stroke="#63b8ff" d="M775.15,-186.35C672.63,-178.38 497.91,-161.48 350.5,-130.75 347.63,-130.15 344.73,-129.5 341.8,-128.81"/>
<polygon fill="#63b8ff" stroke="#63b8ff" points="774.62,-189.82 784.86,-187.1 775.15,-182.84 774.62,-189.82"/>
</a>
</g>
</g>
<!-- Node14&#45;&gt;Node5 -->
<g id="edge20_Node000014_Node000005" class="edge">
<title>Node14&#45;&gt;Node5</title>
<g id="a_edge20_Node000014_Node000005"><a xlink:title=" ">
<path fill="none" stroke="#63b8ff" d="M912.92,-160.23C927.99,-150.66 944.32,-140.29 958.69,-131.17"/>
<polygon fill="#63b8ff" stroke="#63b8ff" points="911.08,-157.26 904.51,-165.57 914.83,-163.17 911.08,-157.26"/>
</a>
</g>
</g>
<!-- Node14&#45;&gt;Node7 -->
<g id="edge21_Node000014_Node000007" class="edge">
<title>Node14&#45;&gt;Node7</title>
<g id="a_edge21_Node000014_Node000007"><a xlink:title=" ">
<path fill="none" stroke="#63b8ff" d="M775.19,-174.7C714.41,-162.46 631.5,-145.7 558.5,-130.75 543.33,-127.64 527.11,-124.3 511.6,-121.09"/>
<polygon fill="#63b8ff" stroke="#63b8ff" points="774.29,-178.09 784.79,-176.64 775.67,-171.23 774.29,-178.09"/>
</a>
</g>
</g>
<!-- Node14&#45;&gt;Node9 -->
<g id="edge22_Node000014_Node000009" class="edge">
<title>Node14&#45;&gt;Node9</title>
<g id="a_edge22_Node000014_Node000009"><a xlink:title=" ">
<path fill="none" stroke="#63b8ff" d="M949.69,-168.56C990.66,-157.3 1040.15,-143.54 1084.5,-130.75 1087.46,-129.9 1090.48,-129.02 1093.52,-128.13"/>
<polygon fill="#63b8ff" stroke="#63b8ff" points="948.82,-165.16 940.1,-171.18 950.67,-171.91 948.82,-165.16"/>
</a>
</g>
</g>
<!-- Node14&#45;&gt;Node10 -->
<g id="edge23_Node000014_Node000010" class="edge">
<title>Node14&#45;&gt;Node10</title>
<g id="a_edge23_Node000014_Node000010"><a xlink:title=" ">
<path fill="none" stroke="#63b8ff" d="M949.63,-178.89C1060.56,-161.83 1239.75,-134.1 1254.5,-130.75 1257.35,-130.1 1260.25,-129.41 1263.17,-128.68"/>
<polygon fill="#63b8ff" stroke="#63b8ff" points="949.3,-175.4 939.94,-180.38 950.36,-182.32 949.3,-175.4"/>
</a>
</g>
</g>
<!-- Node14&#45;&gt;Node11 -->
<g id="edge24_Node000014_Node000011" class="edge">
<title>Node14&#45;&gt;Node11</title>
<g id="a_edge24_Node000014_Node000011"><a xlink:title=" ">
<path fill="none" stroke="#63b8ff" d="M949.51,-180.9C985.67,-176.31 1028.09,-171.08 1066.5,-166.75 1225.41,-148.83 1267.64,-161.87 1424.5,-130.75 1427.37,-130.18 1430.28,-129.55 1433.22,-128.88"/>
<polygon fill="#63b8ff" stroke="#63b8ff" points="949.47,-177.38 940,-182.12 950.36,-184.32 949.47,-177.38"/>
</a>
</g>
</g>
<!-- Node14&#45;&gt;Node12 -->
<g id="edge25_Node000014_Node000012" class="edge">
<title>Node14&#45;&gt;Node12</title>
<g id="a_edge25_Node000014_Node000012"><a xlink:title=" ">
<path fill="none" stroke="#63b8ff" d="M788.85,-161.88C764.5,-151.84 737.65,-140.77 714.2,-131.1"/>
<polygon fill="#63b8ff" stroke="#63b8ff" points="787.5,-165.11 798.08,-165.69 790.17,-158.64 787.5,-165.11"/>
</a>
</g>
</g>
<!-- Node15 -->
<g id="Node000015" class="node">
<title>Node15</title>
<g id="a_Node000015"><a xlink:href="WIBEthFrameProcessor_8hpp.html" target="_top" xlink:title=" ">
<polygon fill="white" stroke="#666666" points="905.38,-130.75 753.62,-130.75 753.62,-77.75 905.38,-77.75 905.38,-130.75"/>
<text text-anchor="start" x="761.62" y="-117.25" font-family="Helvetica,sans-Serif" font-size="10.00">/github/workspace/dev</text>
<text text-anchor="start" x="761.62" y="-106" font-family="Helvetica,sans-Serif" font-size="10.00">_area/sourcecode/fdreadoutlibs</text>
<text text-anchor="start" x="761.62" y="-94.75" font-family="Helvetica,sans-Serif" font-size="10.00">/include/fdreadoutlibs/wibeth</text>
<text text-anchor="middle" x="829.5" y="-83.5" font-family="Helvetica,sans-Serif" font-size="10.00">/WIBEthFrameProcessor.hpp</text>
</a>
</g>
</g>
<!-- Node14&#45;&gt;Node15 -->
<g id="edge16_Node000014_Node000015" class="edge">
<title>Node14&#45;&gt;Node15</title>
<g id="a_edge16_Node000014_Node000015"><a xlink:title=" ">
<path fill="none" stroke="#63b8ff" d="M848.72,-155.93C845.55,-147.55 842.23,-138.82 839.27,-131"/>
<polygon fill="#63b8ff" stroke="#63b8ff" points="845.42,-157.09 852.24,-165.2 851.97,-154.61 845.42,-157.09"/>
</a>
</g>
</g>
<!-- Node15&#45;&gt;Node3 -->
<g id="edge18_Node000015_Node000003" class="edge">
<title>Node15&#45;&gt;Node3</title>
<g id="a_edge18_Node000015_Node000003"><a xlink:title=" ">
<path fill="none" stroke="#63b8ff" d="M742.67,-77.35C684.35,-62.49 628.57,-50.27 582.81,-40.76"/>
<polygon fill="#63b8ff" stroke="#63b8ff" points="741.56,-80.68 752.12,-79.78 743.3,-73.9 741.56,-80.68"/>
</a>
</g>
</g>
<!-- Node16 -->
<g id="Node000016" class="node">
<title>Node16</title>
<g id="a_Node000016"><a xlink:href="FDReadoutlibs_8cpp.html" target="_top" xlink:title=" ">
<polygon fill="white" stroke="#666666" points="986.38,-41.75 834.62,-41.75 834.62,0 986.38,0 986.38,-41.75"/>
<text text-anchor="start" x="842.62" y="-28.25" font-family="Helvetica,sans-Serif" font-size="10.00">/github/workspace/dev</text>
<text text-anchor="start" x="842.62" y="-17" font-family="Helvetica,sans-Serif" font-size="10.00">_area/sourcecode/fdreadoutlibs</text>
<text text-anchor="middle" x="910.5" y="-5.75" font-family="Helvetica,sans-Serif" font-size="10.00">/src/FDReadoutlibs.cpp</text>
</a>
</g>
</g>
<!-- Node15&#45;&gt;Node16 -->
<g id="edge17_Node000015_Node000016" class="edge">
<title>Node15&#45;&gt;Node16</title>
<g id="a_edge17_Node000015_Node000016"><a xlink:title=" ">
<path fill="none" stroke="#63b8ff" d="M863.11,-69.49C872.39,-60.16 882.18,-50.33 890.43,-42.04"/>
<polygon fill="#63b8ff" stroke="#63b8ff" points="860.77,-66.87 856.2,-76.43 865.73,-71.81 860.77,-66.87"/>
</a>
</g>
</g>
</g>
</svg>
