<?xml version="1.0" encoding="UTF-8" standalone="no"?>
<!DOCTYPE svg PUBLIC "-//W3C//DTD SVG 1.1//EN"
 "http://www.w3.org/Graphics/SVG/1.1/DTD/svg11.dtd">
<!-- Generated by graphviz version 9.0.0 (20230911.1827)
 -->
<!-- Title: /github/workspace/dev_area/sourcecode/readoutlibs/include/readoutlibs/FrameErrorRegistry.hpp Pages: 1 -->
<svg width="2711pt" height="383pt"
 viewBox="0.00 0.00 2711.16 383.25" xmlns="http://www.w3.org/2000/svg" xmlns:xlink="http://www.w3.org/1999/xlink">
<g id="graph0" class="graph" transform="scale(1 1) rotate(0) translate(4 379.25)">
<title>/github/workspace/dev_area/sourcecode/readoutlibs/include/readoutlibs/FrameErrorRegistry.hpp</title>
<!-- Node1 -->
<g id="Node000001" class="node">
<title>Node1</title>
<g id="a_Node000001"><a xlink:title=" ">
<polygon fill="#999999" stroke="#666666" points="1694.5,-375.25 1490.25,-375.25 1490.25,-333.5 1694.5,-333.5 1694.5,-375.25"/>
<text text-anchor="start" x="1498.25" y="-361.75" font-family="Helvetica,sans-Serif" font-size="10.00">/github/workspace/dev</text>
<text text-anchor="start" x="1498.25" y="-350.5" font-family="Helvetica,sans-Serif" font-size="10.00">_area/sourcecode/readoutlibs</text>
<text text-anchor="middle" x="1592.38" y="-339.25" font-family="Helvetica,sans-Serif" font-size="10.00">/include/readoutlibs/FrameErrorRegistry.hpp</text>
</a>
</g>
</g>
<!-- Node2 -->
<g id="Node000002" class="node">
<title>Node2</title>
<g id="a_Node000002"><a xlink:href="DAPHNEFrameProcessor_8hpp.html" target="_top" xlink:title=" ">
<polygon fill="white" stroke="#666666" points="441.25,-208.5 289.5,-208.5 289.5,-155.5 441.25,-155.5 441.25,-208.5"/>
<text text-anchor="start" x="297.5" y="-195" font-family="Helvetica,sans-Serif" font-size="10.00">/github/workspace/dev</text>
<text text-anchor="start" x="297.5" y="-183.75" font-family="Helvetica,sans-Serif" font-size="10.00">_area/sourcecode/fdreadoutlibs</text>
<text text-anchor="start" x="297.5" y="-172.5" font-family="Helvetica,sans-Serif" font-size="10.00">/include/fdreadoutlibs/daphne</text>
<text text-anchor="middle" x="365.38" y="-161.25" font-family="Helvetica,sans-Serif" font-size="10.00">/DAPHNEFrameProcessor.hpp</text>
</a>
</g>
</g>
<!-- Node1&#45;&gt;Node2 -->
<g id="edge1_Node000001_Node000002" class="edge">
<title>Node1&#45;&gt;Node2</title>
<g id="a_edge1_Node000001_Node000002"><a xlink:title=" ">
<path fill="none" stroke="#63b8ff" d="M1478.66,-352.01C1258.14,-348.51 780.05,-336.53 620.38,-297.5 542.59,-278.49 459.14,-236.42 409.65,-208.91"/>
<polygon fill="#63b8ff" stroke="#63b8ff" points="1478.36,-355.5 1488.41,-352.16 1478.47,-348.5 1478.36,-355.5"/>
</a>
</g>
</g>
<!-- Node5 -->
<g id="Node000005" class="node">
<title>Node5</title>
<g id="a_Node000005"><a xlink:href="DAPHNEListRequestHandler_8hpp.html" target="_top" xlink:title=" ">
<polygon fill="white" stroke="#666666" points="1959.62,-208.5 1795.12,-208.5 1795.12,-155.5 1959.62,-155.5 1959.62,-208.5"/>
<text text-anchor="start" x="1803.12" y="-195" font-family="Helvetica,sans-Serif" font-size="10.00">/github/workspace/dev</text>
<text text-anchor="start" x="1803.12" y="-183.75" font-family="Helvetica,sans-Serif" font-size="10.00">_area/sourcecode/fdreadoutlibs</text>
<text text-anchor="start" x="1803.12" y="-172.5" font-family="Helvetica,sans-Serif" font-size="10.00">/include/fdreadoutlibs/daphne</text>
<text text-anchor="middle" x="1877.38" y="-161.25" font-family="Helvetica,sans-Serif" font-size="10.00">/DAPHNEListRequestHandler.hpp</text>
</a>
</g>
</g>
<!-- Node1&#45;&gt;Node5 -->
<g id="edge4_Node000001_Node000005" class="edge">
<title>Node1&#45;&gt;Node5</title>
<g id="a_edge4_Node000001_Node000005"><a xlink:title=" ">
<path fill="none" stroke="#63b8ff" d="M1705.53,-331.6C1731.75,-323.46 1758.61,-312.42 1781.38,-297.5 1816.52,-274.46 1845.63,-234.73 1862.27,-208.66"/>
<polygon fill="#63b8ff" stroke="#63b8ff" points="1704.79,-328.17 1696.2,-334.37 1706.78,-334.88 1704.79,-328.17"/>
</a>
</g>
</g>
<!-- Node7 -->
<g id="Node000007" class="node">
<title>Node7</title>
<g id="a_Node000007"><a xlink:href="DAPHNEStreamFrameProcessor_8hpp.html" target="_top" xlink:title=" ">
<polygon fill="white" stroke="#666666" points="271.25,-208.5 89.5,-208.5 89.5,-155.5 271.25,-155.5 271.25,-208.5"/>
<text text-anchor="start" x="97.5" y="-195" font-family="Helvetica,sans-Serif" font-size="10.00">/github/workspace/dev</text>
<text text-anchor="start" x="97.5" y="-183.75" font-family="Helvetica,sans-Serif" font-size="10.00">_area/sourcecode/fdreadoutlibs</text>
<text text-anchor="start" x="97.5" y="-172.5" font-family="Helvetica,sans-Serif" font-size="10.00">/include/fdreadoutlibs/daphne</text>
<text text-anchor="middle" x="180.38" y="-161.25" font-family="Helvetica,sans-Serif" font-size="10.00">/DAPHNEStreamFrameProcessor.hpp</text>
</a>
</g>
</g>
<!-- Node1&#45;&gt;Node7 -->
<g id="edge7_Node000001_Node000007" class="edge">
<title>Node1&#45;&gt;Node7</title>
<g id="a_edge7_Node000001_Node000007"><a xlink:title=" ">
<path fill="none" stroke="#63b8ff" d="M1478.61,-352.15C1234.87,-348.81 669.17,-336.91 481.38,-297.5 391.09,-278.55 292.15,-236.46 233.21,-208.94"/>
<polygon fill="#63b8ff" stroke="#63b8ff" points="1478.41,-355.65 1488.46,-352.29 1478.51,-348.65 1478.41,-355.65"/>
</a>
</g>
</g>
<!-- Node9 -->
<g id="Node000009" class="node">
<title>Node9</title>
<g id="a_Node000009"><a xlink:href="SSPFrameProcessor_8hpp.html" target="_top" xlink:title=" ">
<polygon fill="white" stroke="#666666" points="781.25,-208.5 629.5,-208.5 629.5,-155.5 781.25,-155.5 781.25,-208.5"/>
<text text-anchor="start" x="637.5" y="-195" font-family="Helvetica,sans-Serif" font-size="10.00">/github/workspace/dev</text>
<text text-anchor="start" x="637.5" y="-183.75" font-family="Helvetica,sans-Serif" font-size="10.00">_area/sourcecode/fdreadoutlibs</text>
<text text-anchor="start" x="637.5" y="-172.5" font-family="Helvetica,sans-Serif" font-size="10.00">/include/fdreadoutlibs/ssp</text>
<text text-anchor="middle" x="705.38" y="-161.25" font-family="Helvetica,sans-Serif" font-size="10.00">/SSPFrameProcessor.hpp</text>
</a>
</g>
</g>
<!-- Node1&#45;&gt;Node9 -->
<g id="edge9_Node000001_Node000009" class="edge">
<title>Node1&#45;&gt;Node9</title>
<g id="a_edge9_Node000001_Node000009"><a xlink:title=" ">
<path fill="none" stroke="#63b8ff" d="M1478.7,-351.26C1268.73,-346.52 836.05,-332.59 777.38,-297.5 744.12,-277.61 723.82,-235.8 713.6,-208.58"/>
<polygon fill="#63b8ff" stroke="#63b8ff" points="1478.47,-354.75 1488.55,-351.48 1478.63,-347.75 1478.47,-354.75"/>
</a>
</g>
</g>
<!-- Node10 -->
<g id="Node000010" class="node">
<title>Node10</title>
<g id="a_Node000010"><a xlink:href="TDEFrameProcessor_8hpp.html" target="_top" xlink:title=" ">
<polygon fill="white" stroke="#666666" points="611.25,-208.5 459.5,-208.5 459.5,-155.5 611.25,-155.5 611.25,-208.5"/>
<text text-anchor="start" x="467.5" y="-195" font-family="Helvetica,sans-Serif" font-size="10.00">/github/workspace/dev</text>
<text text-anchor="start" x="467.5" y="-183.75" font-family="Helvetica,sans-Serif" font-size="10.00">_area/sourcecode/fdreadoutlibs</text>
<text text-anchor="start" x="467.5" y="-172.5" font-family="Helvetica,sans-Serif" font-size="10.00">/include/fdreadoutlibs/tde</text>
<text text-anchor="middle" x="535.38" y="-161.25" font-family="Helvetica,sans-Serif" font-size="10.00">/TDEFrameProcessor.hpp</text>
</a>
</g>
</g>
<!-- Node1&#45;&gt;Node10 -->
<g id="edge11_Node000001_Node000010" class="edge">
<title>Node1&#45;&gt;Node10</title>
<g id="a_edge11_Node000001_Node000010"><a xlink:title=" ">
<path fill="none" stroke="#63b8ff" d="M1478.27,-352.58C1276.49,-350.09 865.1,-339.8 728.38,-297.5 666.96,-278.5 604.54,-236.43 567.92,-208.92"/>
<polygon fill="#63b8ff" stroke="#63b8ff" points="1478.23,-356.08 1488.27,-352.7 1478.31,-349.08 1478.23,-356.08"/>
</a>
</g>
</g>
<!-- Node12 -->
<g id="Node000012" class="node">
<title>Node12</title>
<g id="a_Node000012"><a xlink:href="WIBEthFrameProcessor_8cpp.html" target="_top" xlink:title=" ">
<polygon fill="white" stroke="#666666" points="1048.38,-119.5 858.38,-119.5 858.38,-77.75 1048.38,-77.75 1048.38,-119.5"/>
<text text-anchor="start" x="866.38" y="-106" font-family="Helvetica,sans-Serif" font-size="10.00">/github/workspace/dev</text>
<text text-anchor="start" x="866.38" y="-94.75" font-family="Helvetica,sans-Serif" font-size="10.00">_area/sourcecode/fdreadoutlibs</text>
<text text-anchor="middle" x="953.38" y="-83.5" font-family="Helvetica,sans-Serif" font-size="10.00">/src/wibeth/WIBEthFrameProcessor.cpp</text>
</a>
</g>
</g>
<!-- Node1&#45;&gt;Node12 -->
<g id="edge14_Node000001_Node000012" class="edge">
<title>Node1&#45;&gt;Node12</title>
<g id="a_edge14_Node000001_Node000012"><a xlink:title=" ">
<path fill="none" stroke="#63b8ff" d="M1478.74,-339.29C1326.22,-318.17 1066.53,-273.67 998.38,-208.5 973.1,-184.33 961.51,-143.87 956.6,-119.67"/>
<polygon fill="#63b8ff" stroke="#63b8ff" points="1478.1,-342.74 1488.48,-340.63 1479.05,-335.8 1478.1,-342.74"/>
</a>
</g>
</g>
<!-- Node13 -->
<g id="Node000013" class="node">
<title>Node13</title>
<g id="a_Node000013"><a xlink:href="sourcecode_2hsilibs_2src_2HSIFrameProcessor_8hpp.html" target="_top" xlink:title=" ">
<polygon fill="white" stroke="#666666" points="1663.75,-202.88 1521,-202.88 1521,-161.12 1663.75,-161.12 1663.75,-202.88"/>
<text text-anchor="start" x="1529" y="-189.38" font-family="Helvetica,sans-Serif" font-size="10.00">/github/workspace/dev</text>
<text text-anchor="start" x="1529" y="-178.12" font-family="Helvetica,sans-Serif" font-size="10.00">_area/sourcecode/hsilibs</text>
<text text-anchor="middle" x="1592.38" y="-166.88" font-family="Helvetica,sans-Serif" font-size="10.00">/src/HSIFrameProcessor.hpp</text>
</a>
</g>
</g>
<!-- Node1&#45;&gt;Node13 -->
<g id="edge15_Node000001_Node000013" class="edge">
<title>Node1&#45;&gt;Node13</title>
<g id="a_edge15_Node000001_Node000013"><a xlink:title=" ">
<path fill="none" stroke="#63b8ff" d="M1592.38,-321.81C1592.38,-287.14 1592.38,-232.5 1592.38,-203.19"/>
<polygon fill="#63b8ff" stroke="#63b8ff" points="1588.88,-321.65 1592.38,-331.65 1595.88,-321.65 1588.88,-321.65"/>
</a>
</g>
</g>
<!-- Node15 -->
<g id="Node000015" class="node">
<title>Node15</title>
<g id="a_Node000015"><a xlink:href="DefaultRequestHandlerModel_8hpp.html" target="_top" xlink:title=" ">
<polygon fill="white" stroke="#666666" points="2277.25,-297.5 2113.5,-297.5 2113.5,-244.5 2277.25,-244.5 2277.25,-297.5"/>
<text text-anchor="start" x="2121.5" y="-284" font-family="Helvetica,sans-Serif" font-size="10.00">/github/workspace/dev</text>
<text text-anchor="start" x="2121.5" y="-272.75" font-family="Helvetica,sans-Serif" font-size="10.00">_area/sourcecode/readoutlibs</text>
<text text-anchor="start" x="2121.5" y="-261.5" font-family="Helvetica,sans-Serif" font-size="10.00">/include/readoutlibs/models</text>
<text text-anchor="middle" x="2195.38" y="-250.25" font-family="Helvetica,sans-Serif" font-size="10.00">/DefaultRequestHandlerModel.hpp</text>
</a>
</g>
</g>
<!-- Node1&#45;&gt;Node15 -->
<g id="edge17_Node000001_Node000015" class="edge">
<title>Node1&#45;&gt;Node15</title>
<g id="a_edge17_Node000001_Node000015"><a xlink:title=" ">
<path fill="none" stroke="#63b8ff" d="M1706.15,-343.45C1804.72,-334.09 1950.96,-318.39 2077.38,-297.5 2088.96,-295.59 2101.12,-293.29 2113.05,-290.87"/>
<polygon fill="#63b8ff" stroke="#63b8ff" points="1706.1,-339.94 1696.48,-344.36 1706.76,-346.91 1706.1,-339.94"/>
</a>
</g>
</g>
<!-- Node16 -->
<g id="Node000016" class="node">
<title>Node16</title>
<g id="a_Node000016"><a xlink:href="DefaultSkipListRequestHandler_8hpp.html" target="_top" xlink:title=" ">
<polygon fill="white" stroke="#666666" points="2189.12,-208.5 2015.62,-208.5 2015.62,-155.5 2189.12,-155.5 2189.12,-208.5"/>
<text text-anchor="start" x="2023.62" y="-195" font-family="Helvetica,sans-Serif" font-size="10.00">/github/workspace/dev</text>
<text text-anchor="start" x="2023.62" y="-183.75" font-family="Helvetica,sans-Serif" font-size="10.00">_area/sourcecode/readoutlibs</text>
<text text-anchor="start" x="2023.62" y="-172.5" font-family="Helvetica,sans-Serif" font-size="10.00">/include/readoutlibs/models</text>
<text text-anchor="middle" x="2102.38" y="-161.25" font-family="Helvetica,sans-Serif" font-size="10.00">/DefaultSkipListRequestHandler.hpp</text>
</a>
</g>
</g>
<!-- Node1&#45;&gt;Node16 -->
<g id="edge27_Node000001_Node000016" class="edge">
<title>Node1&#45;&gt;Node16</title>
<g id="a_edge27_Node000001_Node000016"><a xlink:title=" ">
<path fill="none" stroke="#63b8ff" d="M1706.1,-346.71C1808.99,-339.09 1951.75,-324.09 2001.38,-297.5 2039.69,-276.97 2070.37,-235.75 2087.46,-208.78"/>
<polygon fill="#63b8ff" stroke="#63b8ff" points="1705.94,-343.21 1696.21,-347.42 1706.44,-350.19 1705.94,-343.21"/>
</a>
</g>
</g>
<!-- Node17 -->
<g id="Node000017" class="node">
<title>Node17</title>
<g id="a_Node000017"><a xlink:href="TPRequestHandler_8hpp.html" target="_top" xlink:title=" ">
<polygon fill="white" stroke="#666666" points="2177.38,-119.5 2011.38,-119.5 2011.38,-77.75 2177.38,-77.75 2177.38,-119.5"/>
<text text-anchor="start" x="2019.38" y="-106" font-family="Helvetica,sans-Serif" font-size="10.00">/github/workspace/dev</text>
<text text-anchor="start" x="2019.38" y="-94.75" font-family="Helvetica,sans-Serif" font-size="10.00">_area/sourcecode/trigger</text>
<text text-anchor="middle" x="2094.38" y="-83.5" font-family="Helvetica,sans-Serif" font-size="10.00">/src/trigger/TPRequestHandler.hpp</text>
</a>
</g>
</g>
<!-- Node1&#45;&gt;Node17 -->
<g id="edge49_Node000001_Node000017" class="edge">
<title>Node1&#45;&gt;Node17</title>
<g id="a_edge49_Node000001_Node000017"><a xlink:title=" ">
<path fill="none" stroke="#63b8ff" d="M1706.06,-333.31C1744.16,-324.64 1786.36,-312.89 1823.38,-297.5 1893.2,-268.48 1913.03,-260.02 1968.38,-208.5 1989.59,-188.75 1985.31,-175.41 2006.38,-155.5 2020.97,-141.7 2039.46,-129.36 2055.71,-119.81"/>
<polygon fill="#63b8ff" stroke="#63b8ff" points="1705.38,-329.87 1696.38,-335.45 1706.9,-336.7 1705.38,-329.87"/>
</a>
</g>
</g>
<!-- Node22 -->
<g id="Node000022" class="node">
<title>Node22</title>
<g id="a_Node000022"><a xlink:href="ReadoutModel_8hpp.html" target="_top" xlink:title=" ">
<polygon fill="white" stroke="#666666" points="2611.12,-297.5 2467.62,-297.5 2467.62,-244.5 2611.12,-244.5 2611.12,-297.5"/>
<text text-anchor="start" x="2475.62" y="-284" font-family="Helvetica,sans-Serif" font-size="10.00">/github/workspace/dev</text>
<text text-anchor="start" x="2475.62" y="-272.75" font-family="Helvetica,sans-Serif" font-size="10.00">_area/sourcecode/readoutlibs</text>
<text text-anchor="start" x="2475.62" y="-261.5" font-family="Helvetica,sans-Serif" font-size="10.00">/include/readoutlibs/models</text>
<text text-anchor="middle" x="2539.38" y="-250.25" font-family="Helvetica,sans-Serif" font-size="10.00">/ReadoutModel.hpp</text>
</a>
</g>
</g>
<!-- Node1&#45;&gt;Node22 -->
<g id="edge28_Node000001_Node000022" class="edge">
<title>Node1&#45;&gt;Node22</title>
<g id="a_edge28_Node000001_Node000022"><a xlink:title=" ">
<path fill="none" stroke="#63b8ff" d="M1706.09,-344.93C1843.6,-334.54 2082.05,-316.02 2286.38,-297.5 2347.38,-291.97 2416.57,-284.94 2467.16,-279.67"/>
<polygon fill="#63b8ff" stroke="#63b8ff" points="1705.95,-341.43 1696.24,-345.67 1706.48,-348.41 1705.95,-341.43"/>
</a>
</g>
</g>
<!-- Node23 -->
<g id="Node000023" class="node">
<title>Node23</title>
<g id="a_Node000023"><a xlink:href="TaskRawDataProcessorModel_8hpp.html" target="_top" xlink:title=" ">
<polygon fill="white" stroke="#666666" points="955.88,-297.5 786.88,-297.5 786.88,-244.5 955.88,-244.5 955.88,-297.5"/>
<text text-anchor="start" x="794.88" y="-284" font-family="Helvetica,sans-Serif" font-size="10.00">/github/workspace/dev</text>
<text text-anchor="start" x="794.88" y="-272.75" font-family="Helvetica,sans-Serif" font-size="10.00">_area/sourcecode/readoutlibs</text>
<text text-anchor="start" x="794.88" y="-261.5" font-family="Helvetica,sans-Serif" font-size="10.00">/include/readoutlibs/models</text>
<text text-anchor="middle" x="871.38" y="-250.25" font-family="Helvetica,sans-Serif" font-size="10.00">/TaskRawDataProcessorModel.hpp</text>
</a>
</g>
</g>
<!-- Node1&#45;&gt;Node23 -->
<g id="edge30_Node000001_Node000023" class="edge">
<title>Node1&#45;&gt;Node23</title>
<g id="a_edge30_Node000001_Node000023"><a xlink:title=" ">
<path fill="none" stroke="#63b8ff" d="M1478.41,-348.7C1353.12,-342.27 1146.25,-327.84 970.38,-297.5 965.74,-296.7 961,-295.79 956.24,-294.81"/>
<polygon fill="#63b8ff" stroke="#63b8ff" points="1478.22,-352.19 1488.39,-349.2 1478.58,-345.2 1478.22,-352.19"/>
</a>
</g>
</g>
<!-- Node26 -->
<g id="Node000026" class="node">
<title>Node26</title>
<g id="a_Node000026"><a xlink:href="TAProcessor_8cpp.html" target="_top" xlink:title=" ">
<polygon fill="white" stroke="#666666" points="1350,-119.5 1226.75,-119.5 1226.75,-77.75 1350,-77.75 1350,-119.5"/>
<text text-anchor="start" x="1234.75" y="-106" font-family="Helvetica,sans-Serif" font-size="10.00">/github/workspace/dev</text>
<text text-anchor="start" x="1234.75" y="-94.75" font-family="Helvetica,sans-Serif" font-size="10.00">_area/sourcecode/trigger</text>
<text text-anchor="middle" x="1288.38" y="-83.5" font-family="Helvetica,sans-Serif" font-size="10.00">/src/TAProcessor.cpp</text>
</a>
</g>
</g>
<!-- Node1&#45;&gt;Node26 -->
<g id="edge46_Node000001_Node000026" class="edge">
<title>Node1&#45;&gt;Node26</title>
<g id="a_edge46_Node000001_Node000026"><a xlink:title=" ">
<path fill="none" stroke="#63b8ff" d="M1620.94,-324.72C1659.02,-283.08 1716.74,-205.39 1672.38,-155.5 1626.88,-104.33 1433.7,-131.98 1366.38,-119.5 1361.15,-118.53 1355.76,-117.41 1350.37,-116.21"/>
<polygon fill="#63b8ff" stroke="#63b8ff" points="1618.47,-322.23 1614.19,-331.93 1623.58,-327.02 1618.47,-322.23"/>
</a>
</g>
</g>
<!-- Node28 -->
<g id="Node000028" class="node">
<title>Node28</title>
<g id="a_Node000028"><a xlink:href="TCProcessor_8cpp.html" target="_top" xlink:title=" ">
<polygon fill="white" stroke="#666666" points="1194,-119.5 1070.75,-119.5 1070.75,-77.75 1194,-77.75 1194,-119.5"/>
<text text-anchor="start" x="1078.75" y="-106" font-family="Helvetica,sans-Serif" font-size="10.00">/github/workspace/dev</text>
<text text-anchor="start" x="1078.75" y="-94.75" font-family="Helvetica,sans-Serif" font-size="10.00">_area/sourcecode/trigger</text>
<text text-anchor="middle" x="1132.38" y="-83.5" font-family="Helvetica,sans-Serif" font-size="10.00">/src/TCProcessor.cpp</text>
</a>
</g>
</g>
<!-- Node1&#45;&gt;Node28 -->
<g id="edge47_Node000001_Node000028" class="edge">
<title>Node1&#45;&gt;Node28</title>
<g id="a_edge47_Node000001_Node000028"><a xlink:title=" ">
<path fill="none" stroke="#63b8ff" d="M1478.98,-334.13C1392.93,-314.69 1275.93,-277.34 1194.38,-208.5 1179.5,-195.94 1155.11,-147.72 1141.79,-119.84"/>
<polygon fill="#63b8ff" stroke="#63b8ff" points="1478.12,-337.52 1488.64,-336.26 1479.62,-330.69 1478.12,-337.52"/>
</a>
</g>
</g>
<!-- Node30 -->
<g id="Node000030" class="node">
<title>Node30</title>
<g id="a_Node000030"><a xlink:href="TPProcessor_8cpp.html" target="_top" xlink:title=" ">
<polygon fill="white" stroke="#666666" points="1499,-119.5 1375.75,-119.5 1375.75,-77.75 1499,-77.75 1499,-119.5"/>
<text text-anchor="start" x="1383.75" y="-106" font-family="Helvetica,sans-Serif" font-size="10.00">/github/workspace/dev</text>
<text text-anchor="start" x="1383.75" y="-94.75" font-family="Helvetica,sans-Serif" font-size="10.00">_area/sourcecode/trigger</text>
<text text-anchor="middle" x="1437.38" y="-83.5" font-family="Helvetica,sans-Serif" font-size="10.00">/src/TPProcessor.cpp</text>
</a>
</g>
</g>
<!-- Node1&#45;&gt;Node30 -->
<g id="edge48_Node000001_Node000030" class="edge">
<title>Node1&#45;&gt;Node30</title>
<g id="a_edge48_Node000001_Node000030"><a xlink:title=" ">
<path fill="none" stroke="#63b8ff" d="M1673.14,-327.6C1685.96,-319.93 1697.55,-310.09 1705.38,-297.5 1738.67,-243.89 1745.7,-204.05 1705.38,-155.5 1677.5,-121.94 1554.94,-129.09 1512.38,-119.5 1508.17,-118.55 1503.84,-117.53 1499.49,-116.47"/>
<polygon fill="#63b8ff" stroke="#63b8ff" points="1671.58,-324.46 1664.47,-332.32 1674.92,-330.61 1671.58,-324.46"/>
</a>
</g>
</g>
<!-- Node3 -->
<g id="Node000003" class="node">
<title>Node3</title>
<g id="a_Node000003"><a xlink:href="FDReadoutlibs_8cpp.html" target="_top" xlink:title=" ">
<polygon fill="white" stroke="#666666" points="800.25,-119.5 648.5,-119.5 648.5,-77.75 800.25,-77.75 800.25,-119.5"/>
<text text-anchor="start" x="656.5" y="-106" font-family="Helvetica,sans-Serif" font-size="10.00">/github/workspace/dev</text>
<text text-anchor="start" x="656.5" y="-94.75" font-family="Helvetica,sans-Serif" font-size="10.00">_area/sourcecode/fdreadoutlibs</text>
<text text-anchor="middle" x="724.38" y="-83.5" font-family="Helvetica,sans-Serif" font-size="10.00">/src/FDReadoutlibs.cpp</text>
</a>
</g>
</g>
<!-- Node2&#45;&gt;Node3 -->
<g id="edge2_Node000002_Node000003" class="edge">
<title>Node2&#45;&gt;Node3</title>
<g id="a_edge2_Node000002_Node000003"><a xlink:title=" ">
<path fill="none" stroke="#63b8ff" d="M452.67,-155.04C535.37,-135.32 559.16,-136.51 639.38,-119.5 642.34,-118.87 645.36,-118.22 648.41,-117.55"/>
<polygon fill="#63b8ff" stroke="#63b8ff" points="452.1,-151.58 443.2,-157.33 453.74,-158.38 452.1,-151.58"/>
</a>
</g>
</g>
<!-- Node4 -->
<g id="Node000004" class="node">
<title>Node4</title>
<g id="a_Node000004"><a xlink:href="DAPHNEFrameProcessor_8cpp.html" target="_top" xlink:title=" ">
<polygon fill="white" stroke="#666666" points="452,-119.5 250.75,-119.5 250.75,-77.75 452,-77.75 452,-119.5"/>
<text text-anchor="start" x="258.75" y="-106" font-family="Helvetica,sans-Serif" font-size="10.00">/github/workspace/dev</text>
<text text-anchor="start" x="258.75" y="-94.75" font-family="Helvetica,sans-Serif" font-size="10.00">_area/sourcecode/fdreadoutlibs</text>
<text text-anchor="middle" x="351.38" y="-83.5" font-family="Helvetica,sans-Serif" font-size="10.00">/src/daphne/DAPHNEFrameProcessor.cpp</text>
</a>
</g>
</g>
<!-- Node2&#45;&gt;Node4 -->
<g id="edge3_Node000002_Node000004" class="edge">
<title>Node2&#45;&gt;Node4</title>
<g id="a_edge3_Node000002_Node000004"><a xlink:title=" ">
<path fill="none" stroke="#63b8ff" d="M359.03,-144.11C357.59,-135.74 356.11,-127.16 354.84,-119.79"/>
<polygon fill="#63b8ff" stroke="#63b8ff" points="355.54,-144.5 360.69,-153.76 362.44,-143.31 355.54,-144.5"/>
</a>
</g>
</g>
<!-- Node5&#45;&gt;Node3 -->
<g id="edge5_Node000005_Node000003" class="edge">
<title>Node5&#45;&gt;Node3</title>
<g id="a_edge5_Node000005_Node000003"><a xlink:title=" ">
<path fill="none" stroke="#63b8ff" d="M1783.61,-167.74C1748.75,-163.23 1708.82,-158.56 1672.38,-155.5 1307.53,-124.88 1213.65,-156.31 849.38,-119.5 833.52,-117.9 816.63,-115.61 800.55,-113.15"/>
<polygon fill="#63b8ff" stroke="#63b8ff" points="1782.87,-171.17 1793.24,-169 1783.78,-164.23 1782.87,-171.17"/>
</a>
</g>
</g>
<!-- Node6 -->
<g id="Node000006" class="node">
<title>Node6</title>
<g id="a_Node000006"><a xlink:href="DAPHNEListRequestHandler_8cpp.html" target="_top" xlink:title=" ">
<polygon fill="white" stroke="#666666" points="1985.12,-119.5 1769.62,-119.5 1769.62,-77.75 1985.12,-77.75 1985.12,-119.5"/>
<text text-anchor="start" x="1777.62" y="-106" font-family="Helvetica,sans-Serif" font-size="10.00">/github/workspace/dev</text>
<text text-anchor="start" x="1777.62" y="-94.75" font-family="Helvetica,sans-Serif" font-size="10.00">_area/sourcecode/fdreadoutlibs</text>
<text text-anchor="middle" x="1877.38" y="-83.5" font-family="Helvetica,sans-Serif" font-size="10.00">/src/daphne/DAPHNEListRequestHandler.cpp</text>
</a>
</g>
</g>
<!-- Node5&#45;&gt;Node6 -->
<g id="edge6_Node000005_Node000006" class="edge">
<title>Node5&#45;&gt;Node6</title>
<g id="a_edge6_Node000005_Node000006"><a xlink:title=" ">
<path fill="none" stroke="#63b8ff" d="M1877.38,-143.83C1877.38,-135.55 1877.38,-127.08 1877.38,-119.79"/>
<polygon fill="#63b8ff" stroke="#63b8ff" points="1873.88,-143.74 1877.38,-153.74 1880.88,-143.74 1873.88,-143.74"/>
</a>
</g>
</g>
<!-- Node8 -->
<g id="Node000008" class="node">
<title>Node8</title>
<g id="a_Node000008"><a xlink:href="DAPHNEStreamFrameProcessor_8cpp.html" target="_top" xlink:title=" ">
<polygon fill="white" stroke="#666666" points="232.75,-119.5 0,-119.5 0,-77.75 232.75,-77.75 232.75,-119.5"/>
<text text-anchor="start" x="8" y="-106" font-family="Helvetica,sans-Serif" font-size="10.00">/github/workspace/dev</text>
<text text-anchor="start" x="8" y="-94.75" font-family="Helvetica,sans-Serif" font-size="10.00">_area/sourcecode/fdreadoutlibs</text>
<text text-anchor="middle" x="116.38" y="-83.5" font-family="Helvetica,sans-Serif" font-size="10.00">/src/daphne/DAPHNEStreamFrameProcessor.cpp</text>
</a>
</g>
</g>
<!-- Node7&#45;&gt;Node8 -->
<g id="edge8_Node000007_Node000008" class="edge">
<title>Node7&#45;&gt;Node8</title>
<g id="a_edge8_Node000007_Node000008"><a xlink:title=" ">
<path fill="none" stroke="#63b8ff" d="M153.15,-146.39C146.02,-137.31 138.56,-127.83 132.24,-119.79"/>
<polygon fill="#63b8ff" stroke="#63b8ff" points="150.26,-148.37 159.19,-154.06 155.76,-144.04 150.26,-148.37"/>
</a>
</g>
</g>
<!-- Node9&#45;&gt;Node3 -->
<g id="edge10_Node000009_Node000003" class="edge">
<title>Node9&#45;&gt;Node3</title>
<g id="a_edge10_Node000009_Node000003"><a xlink:title=" ">
<path fill="none" stroke="#63b8ff" d="M713.99,-144.11C715.94,-135.74 717.95,-127.16 719.67,-119.79"/>
<polygon fill="#63b8ff" stroke="#63b8ff" points="710.6,-143.24 711.73,-153.78 717.41,-144.84 710.6,-143.24"/>
</a>
</g>
</g>
<!-- Node10&#45;&gt;Node3 -->
<g id="edge12_Node000010_Node000003" class="edge">
<title>Node10&#45;&gt;Node3</title>
<g id="a_edge12_Node000010_Node000003"><a xlink:title=" ">
<path fill="none" stroke="#63b8ff" d="M606.07,-150.56C629.81,-140.34 655.69,-129.2 677.18,-119.94"/>
<polygon fill="#63b8ff" stroke="#63b8ff" points="604.89,-147.26 597.09,-154.43 607.65,-153.69 604.89,-147.26"/>
</a>
</g>
</g>
<!-- Node11 -->
<g id="Node000011" class="node">
<title>Node11</title>
<g id="a_Node000011"><a xlink:href="TDEFrameProcessor_8cpp.html" target="_top" xlink:title=" ">
<polygon fill="white" stroke="#666666" points="630.75,-119.5 470,-119.5 470,-77.75 630.75,-77.75 630.75,-119.5"/>
<text text-anchor="start" x="478" y="-106" font-family="Helvetica,sans-Serif" font-size="10.00">/github/workspace/dev</text>
<text text-anchor="start" x="478" y="-94.75" font-family="Helvetica,sans-Serif" font-size="10.00">_area/sourcecode/fdreadoutlibs</text>
<text text-anchor="middle" x="550.38" y="-83.5" font-family="Helvetica,sans-Serif" font-size="10.00">/src/tde/TDEFrameProcessor.cpp</text>
</a>
</g>
</g>
<!-- Node10&#45;&gt;Node11 -->
<g id="edge13_Node000010_Node000011" class="edge">
<title>Node10&#45;&gt;Node11</title>
<g id="a_edge13_Node000010_Node000011"><a xlink:title=" ">
<path fill="none" stroke="#63b8ff" d="M542.17,-144.11C543.72,-135.74 545.3,-127.16 546.66,-119.79"/>
<polygon fill="#63b8ff" stroke="#63b8ff" points="538.77,-143.3 540.4,-153.76 545.65,-144.56 538.77,-143.3"/>
</a>
</g>
</g>
<!-- Node14 -->
<g id="Node000014" class="node">
<title>Node14</title>
<g id="a_Node000014"><a xlink:href="sourcecode_2hsilibs_2src_2HSIFrameProcessor_8cpp.html" target="_top" xlink:title=" ">
<polygon fill="white" stroke="#666666" points="1663.75,-119.5 1521,-119.5 1521,-77.75 1663.75,-77.75 1663.75,-119.5"/>
<text text-anchor="start" x="1529" y="-106" font-family="Helvetica,sans-Serif" font-size="10.00">/github/workspace/dev</text>
<text text-anchor="start" x="1529" y="-94.75" font-family="Helvetica,sans-Serif" font-size="10.00">_area/sourcecode/hsilibs</text>
<text text-anchor="middle" x="1592.38" y="-83.5" font-family="Helvetica,sans-Serif" font-size="10.00">/src/HSIFrameProcessor.cpp</text>
</a>
</g>
</g>
<!-- Node13&#45;&gt;Node14 -->
<g id="edge16_Node000013_Node000014" class="edge">
<title>Node13&#45;&gt;Node14</title>
<g id="a_edge16_Node000013_Node000014"><a xlink:title=" ">
<path fill="none" stroke="#63b8ff" d="M1592.38,-149.64C1592.38,-139.62 1592.38,-128.8 1592.38,-119.79"/>
<polygon fill="#63b8ff" stroke="#63b8ff" points="1588.88,-149.37 1592.38,-159.37 1595.88,-149.37 1588.88,-149.37"/>
</a>
</g>
</g>
<!-- Node15&#45;&gt;Node5 -->
<g id="edge18_Node000015_Node000005" class="edge">
<title>Node15&#45;&gt;Node5</title>
<g id="a_edge18_Node000015_Node000005"><a xlink:title=" ">
<path fill="none" stroke="#63b8ff" d="M2102.11,-244.48C2057.05,-232.16 2003.44,-217.49 1959.89,-205.57"/>
<polygon fill="#63b8ff" stroke="#63b8ff" points="2101.04,-247.82 2111.61,-247.08 2102.89,-241.07 2101.04,-247.82"/>
</a>
</g>
</g>
<!-- Node15&#45;&gt;Node16 -->
<g id="edge19_Node000015_Node000016" class="edge">
<title>Node15&#45;&gt;Node16</title>
<g id="a_edge19_Node000015_Node000016"><a xlink:title=" ">
<path fill="none" stroke="#63b8ff" d="M2159.39,-236.33C2149.66,-227.23 2139.28,-217.52 2130.08,-208.92"/>
<polygon fill="#63b8ff" stroke="#63b8ff" points="2156.92,-238.82 2166.62,-243.1 2161.71,-233.71 2156.92,-238.82"/>
</a>
</g>
</g>
<!-- Node19 -->
<g id="Node000019" class="node">
<title>Node19</title>
<g id="a_Node000019"><a xlink:href="EmptyFragmentRequestHandlerModel_8hpp.html" target="_top" xlink:title=" ">
<polygon fill="white" stroke="#666666" points="2683,-208.5 2481.75,-208.5 2481.75,-155.5 2683,-155.5 2683,-208.5"/>
<text text-anchor="start" x="2489.75" y="-195" font-family="Helvetica,sans-Serif" font-size="10.00">/github/workspace/dev</text>
<text text-anchor="start" x="2489.75" y="-183.75" font-family="Helvetica,sans-Serif" font-size="10.00">_area/sourcecode/readoutlibs</text>
<text text-anchor="start" x="2489.75" y="-172.5" font-family="Helvetica,sans-Serif" font-size="10.00">/include/readoutlibs/models</text>
<text text-anchor="middle" x="2582.38" y="-161.25" font-family="Helvetica,sans-Serif" font-size="10.00">/EmptyFragmentRequestHandlerModel.hpp</text>
</a>
</g>
</g>
<!-- Node15&#45;&gt;Node19 -->
<g id="edge22_Node000015_Node000019" class="edge">
<title>Node15&#45;&gt;Node19</title>
<g id="a_edge22_Node000015_Node000019"><a xlink:title=" ">
<path fill="none" stroke="#63b8ff" d="M2288.77,-249.49C2342.5,-237.64 2411.27,-222.37 2472.38,-208.5 2475.34,-207.83 2478.35,-207.14 2481.38,-206.45"/>
<polygon fill="#63b8ff" stroke="#63b8ff" points="2288.03,-246.07 2279.01,-251.64 2289.53,-252.91 2288.03,-246.07"/>
</a>
</g>
</g>
<!-- Node20 -->
<g id="Node000020" class="node">
<title>Node20</title>
<g id="a_Node000020"><a xlink:href="Readoutlibs_8cpp.html" target="_top" xlink:title=" ">
<polygon fill="white" stroke="#666666" points="2426.12,-119.5 2282.62,-119.5 2282.62,-77.75 2426.12,-77.75 2426.12,-119.5"/>
<text text-anchor="start" x="2290.62" y="-106" font-family="Helvetica,sans-Serif" font-size="10.00">/github/workspace/dev</text>
<text text-anchor="start" x="2290.62" y="-94.75" font-family="Helvetica,sans-Serif" font-size="10.00">_area/sourcecode/readoutlibs</text>
<text text-anchor="middle" x="2354.38" y="-83.5" font-family="Helvetica,sans-Serif" font-size="10.00">/src/Readoutlibs.cpp</text>
</a>
</g>
</g>
<!-- Node15&#45;&gt;Node20 -->
<g id="edge26_Node000015_Node000020" class="edge">
<title>Node15&#45;&gt;Node20</title>
<g id="a_edge26_Node000015_Node000020"><a xlink:title=" ">
<path fill="none" stroke="#63b8ff" d="M2200.99,-233.27C2206.41,-208.73 2216.79,-177.11 2236.38,-155.5 2250.45,-139.96 2269.76,-128.36 2288.69,-119.87"/>
<polygon fill="#63b8ff" stroke="#63b8ff" points="2197.61,-232.36 2199.07,-242.85 2204.47,-233.73 2197.61,-232.36"/>
</a>
</g>
</g>
<!-- Node21 -->
<g id="Node000021" class="node">
<title>Node21</title>
<g id="a_Node000021"><a xlink:href="ZeroCopyRecordingRequestHandlerModel_8hpp.html" target="_top" xlink:title=" ">
<polygon fill="white" stroke="#666666" points="2463.25,-208.5 2245.5,-208.5 2245.5,-155.5 2463.25,-155.5 2463.25,-208.5"/>
<text text-anchor="start" x="2253.5" y="-195" font-family="Helvetica,sans-Serif" font-size="10.00">/github/workspace/dev</text>
<text text-anchor="start" x="2253.5" y="-183.75" font-family="Helvetica,sans-Serif" font-size="10.00">_area/sourcecode/readoutlibs</text>
<text text-anchor="start" x="2253.5" y="-172.5" font-family="Helvetica,sans-Serif" font-size="10.00">/include/readoutlibs/models</text>
<text text-anchor="middle" x="2354.38" y="-161.25" font-family="Helvetica,sans-Serif" font-size="10.00">/ZeroCopyRecordingRequestHandlerModel.hpp</text>
</a>
</g>
</g>
<!-- Node15&#45;&gt;Node21 -->
<g id="edge24_Node000015_Node000021" class="edge">
<title>Node15&#45;&gt;Node21</title>
<g id="a_edge24_Node000015_Node000021"><a xlink:title=" ">
<path fill="none" stroke="#63b8ff" d="M2252.4,-238.8C2270.3,-229 2289.85,-218.3 2307.01,-208.92"/>
<polygon fill="#63b8ff" stroke="#63b8ff" points="2251.07,-235.54 2243.98,-243.41 2254.43,-241.68 2251.07,-235.54"/>
</a>
</g>
</g>
<!-- Node16&#45;&gt;Node17 -->
<g id="edge20_Node000016_Node000017" class="edge">
<title>Node16&#45;&gt;Node17</title>
<g id="a_edge20_Node000016_Node000017"><a xlink:title=" ">
<path fill="none" stroke="#63b8ff" d="M2098.72,-143.83C2097.91,-135.55 2097.07,-127.08 2096.36,-119.79"/>
<polygon fill="#63b8ff" stroke="#63b8ff" points="2095.23,-144.14 2099.7,-153.75 2102.2,-143.45 2095.23,-144.14"/>
</a>
</g>
</g>
<!-- Node18 -->
<g id="Node000018" class="node">
<title>Node18</title>
<g id="a_Node000018"><a xlink:href="TPRequestHandler_8cpp.html" target="_top" xlink:title=" ">
<polygon fill="white" stroke="#666666" points="2162.38,-41.75 2026.38,-41.75 2026.38,0 2162.38,0 2162.38,-41.75"/>
<text text-anchor="start" x="2034.38" y="-28.25" font-family="Helvetica,sans-Serif" font-size="10.00">/github/workspace/dev</text>
<text text-anchor="start" x="2034.38" y="-17" font-family="Helvetica,sans-Serif" font-size="10.00">_area/sourcecode/trigger</text>
<text text-anchor="middle" x="2094.38" y="-5.75" font-family="Helvetica,sans-Serif" font-size="10.00">/src/TPRequestHandler.cpp</text>
</a>
</g>
</g>
<!-- Node17&#45;&gt;Node18 -->
<g id="edge21_Node000017_Node000018" class="edge">
<title>Node17&#45;&gt;Node18</title>
<g id="a_edge21_Node000017_Node000018"><a xlink:title=" ">
<path fill="none" stroke="#63b8ff" d="M2094.38,-66C2094.38,-57.96 2094.38,-49.54 2094.38,-42.23"/>
<polygon fill="#63b8ff" stroke="#63b8ff" points="2090.88,-65.81 2094.38,-75.81 2097.88,-65.81 2090.88,-65.81"/>
</a>
</g>
</g>
<!-- Node19&#45;&gt;Node20 -->
<g id="edge23_Node000019_Node000020" class="edge">
<title>Node19&#45;&gt;Node20</title>
<g id="a_edge23_Node000019_Node000020"><a xlink:title=" ">
<path fill="none" stroke="#63b8ff" d="M2499.01,-151.25C2469.85,-140.84 2437.81,-129.4 2411.31,-119.94"/>
<polygon fill="#63b8ff" stroke="#63b8ff" points="2497.59,-154.45 2508.18,-154.52 2499.94,-147.86 2497.59,-154.45"/>
</a>
</g>
</g>
<!-- Node21&#45;&gt;Node20 -->
<g id="edge25_Node000021_Node000020" class="edge">
<title>Node21&#45;&gt;Node20</title>
<g id="a_edge25_Node000021_Node000020"><a xlink:title=" ">
<path fill="none" stroke="#63b8ff" d="M2354.38,-143.83C2354.38,-135.55 2354.38,-127.08 2354.38,-119.79"/>
<polygon fill="#63b8ff" stroke="#63b8ff" points="2350.88,-143.74 2354.38,-153.74 2357.88,-143.74 2350.88,-143.74"/>
</a>
</g>
</g>
<!-- Node22&#45;&gt;Node20 -->
<g id="edge29_Node000022_Node000020" class="edge">
<title>Node22&#45;&gt;Node20</title>
<g id="a_edge29_Node000022_Node000020"><a xlink:title=" ">
<path fill="none" stroke="#63b8ff" d="M2622.2,-255.92C2649.15,-246.98 2676.24,-232.37 2692.38,-208.5 2705.56,-188.98 2707.61,-173.46 2692.38,-155.5 2658.95,-116.1 2515.2,-104.44 2426.28,-101.02"/>
<polygon fill="#63b8ff" stroke="#63b8ff" points="2621.5,-252.47 2612.96,-258.74 2623.54,-259.17 2621.5,-252.47"/>
</a>
</g>
</g>
<!-- Node23&#45;&gt;Node2 -->
<g id="edge31_Node000023_Node000002" class="edge">
<title>Node23&#45;&gt;Node2</title>
<g id="a_edge31_Node000023_Node000002"><a xlink:title=" ">
<path fill="none" stroke="#63b8ff" d="M775.15,-260.01C689.35,-250.13 560.63,-232.95 450.38,-208.5 447.52,-207.87 444.62,-207.19 441.69,-206.47"/>
<polygon fill="#63b8ff" stroke="#63b8ff" points="774.61,-263.47 784.94,-261.12 775.4,-256.51 774.61,-263.47"/>
</a>
</g>
</g>
<!-- Node23&#45;&gt;Node7 -->
<g id="edge32_Node000023_Node000007" class="edge">
<title>Node23&#45;&gt;Node7</title>
<g id="a_edge32_Node000023_Node000007"><a xlink:title=" ">
<path fill="none" stroke="#63b8ff" d="M775.23,-264.32C657.77,-256.4 453.35,-239.38 280.38,-208.5 277.46,-207.98 274.51,-207.42 271.54,-206.83"/>
<polygon fill="#63b8ff" stroke="#63b8ff" points="774.94,-267.81 785.15,-264.98 775.41,-260.83 774.94,-267.81"/>
</a>
</g>
</g>
<!-- Node23&#45;&gt;Node9 -->
<g id="edge33_Node000023_Node000009" class="edge">
<title>Node23&#45;&gt;Node9</title>
<g id="a_edge33_Node000023_Node000009"><a xlink:title=" ">
<path fill="none" stroke="#63b8ff" d="M811.84,-238.8C793.15,-229 772.74,-218.3 754.83,-208.92"/>
<polygon fill="#63b8ff" stroke="#63b8ff" points="810.2,-241.89 820.68,-243.43 813.45,-235.69 810.2,-241.89"/>
</a>
</g>
</g>
<!-- Node23&#45;&gt;Node10 -->
<g id="edge34_Node000023_Node000010" class="edge">
<title>Node23&#45;&gt;Node10</title>
<g id="a_edge34_Node000023_Node000010"><a xlink:title=" ">
<path fill="none" stroke="#63b8ff" d="M775.5,-247.72C728.59,-236.52 671.37,-222.39 620.38,-208.5 617.4,-207.69 614.37,-206.85 611.32,-205.99"/>
<polygon fill="#63b8ff" stroke="#63b8ff" points="774.56,-251.1 785.1,-250.01 776.18,-244.29 774.56,-251.1"/>
</a>
</g>
</g>
<!-- Node23&#45;&gt;Node13 -->
<g id="edge38_Node000023_Node000013" class="edge">
<title>Node23&#45;&gt;Node13</title>
<g id="a_edge38_Node000023_Node000013"><a xlink:title=" ">
<path fill="none" stroke="#63b8ff" d="M967.45,-267.02C1093.46,-261.7 1320.91,-247.19 1511.38,-208.5 1518.31,-207.09 1525.49,-205.31 1532.58,-203.36"/>
<polygon fill="#63b8ff" stroke="#63b8ff" points="967.69,-263.51 957.84,-267.42 967.97,-270.51 967.69,-263.51"/>
</a>
</g>
</g>
<!-- Node23&#45;&gt;Node20 -->
<g id="edge39_Node000023_Node000020" class="edge">
<title>Node23&#45;&gt;Node20</title>
<g id="a_edge39_Node000023_Node000020"><a xlink:title=" ">
<path fill="none" stroke="#63b8ff" d="M967.67,-266.91C1150.61,-260.33 1541.76,-242.67 1672.38,-208.5 1726.43,-194.36 1732.41,-170 1786.38,-155.5 1958.76,-109.19 2008.84,-137.99 2186.38,-119.5 2217.92,-116.21 2252.75,-112.16 2282.48,-108.58"/>
<polygon fill="#63b8ff" stroke="#63b8ff" points="967.58,-263.41 957.71,-267.26 967.82,-270.41 967.58,-263.41"/>
</a>
</g>
</g>
<!-- Node24 -->
<g id="Node000024" class="node">
<title>Node24</title>
<g id="a_Node000024"><a xlink:href="WIBEthFrameProcessor_8hpp.html" target="_top" xlink:title=" ">
<polygon fill="white" stroke="#666666" points="951.25,-208.5 799.5,-208.5 799.5,-155.5 951.25,-155.5 951.25,-208.5"/>
<text text-anchor="start" x="807.5" y="-195" font-family="Helvetica,sans-Serif" font-size="10.00">/github/workspace/dev</text>
<text text-anchor="start" x="807.5" y="-183.75" font-family="Helvetica,sans-Serif" font-size="10.00">_area/sourcecode/fdreadoutlibs</text>
<text text-anchor="start" x="807.5" y="-172.5" font-family="Helvetica,sans-Serif" font-size="10.00">/include/fdreadoutlibs/wibeth</text>
<text text-anchor="middle" x="875.38" y="-161.25" font-family="Helvetica,sans-Serif" font-size="10.00">/WIBEthFrameProcessor.hpp</text>
</a>
</g>
</g>
<!-- Node23&#45;&gt;Node24 -->
<g id="edge35_Node000023_Node000024" class="edge">
<title>Node23&#45;&gt;Node24</title>
<g id="a_edge35_Node000023_Node000024"><a xlink:title=" ">
<path fill="none" stroke="#63b8ff" d="M873.07,-233.11C873.45,-224.91 873.84,-216.39 874.19,-208.75"/>
<polygon fill="#63b8ff" stroke="#63b8ff" points="869.59,-232.71 872.62,-242.86 876.58,-233.03 869.59,-232.71"/>
</a>
</g>
</g>
<!-- Node25 -->
<g id="Node000025" class="node">
<title>Node25</title>
<g id="a_Node000025"><a xlink:href="TAProcessor_8hpp.html" target="_top" xlink:title=" ">
<polygon fill="white" stroke="#666666" points="1343.62,-202.88 1203.12,-202.88 1203.12,-161.12 1343.62,-161.12 1343.62,-202.88"/>
<text text-anchor="start" x="1211.12" y="-189.38" font-family="Helvetica,sans-Serif" font-size="10.00">/github/workspace/dev</text>
<text text-anchor="start" x="1211.12" y="-178.12" font-family="Helvetica,sans-Serif" font-size="10.00">_area/sourcecode/trigger</text>
<text text-anchor="middle" x="1273.38" y="-166.88" font-family="Helvetica,sans-Serif" font-size="10.00">/src/trigger/TAProcessor.hpp</text>
</a>
</g>
</g>
<!-- Node23&#45;&gt;Node25 -->
<g id="edge40_Node000023_Node000025" class="edge">
<title>Node23&#45;&gt;Node25</title>
<g id="a_edge40_Node000023_Node000025"><a xlink:title=" ">
<path fill="none" stroke="#63b8ff" d="M967.38,-249.33C1022.66,-237.42 1093.43,-222.15 1156.38,-208.5 1171.41,-205.24 1187.53,-201.73 1202.85,-198.4"/>
<polygon fill="#63b8ff" stroke="#63b8ff" points="966.7,-245.9 957.67,-251.43 968.18,-252.74 966.7,-245.9"/>
</a>
</g>
</g>
<!-- Node27 -->
<g id="Node000027" class="node">
<title>Node27</title>
<g id="a_Node000027"><a xlink:href="TCProcessor_8hpp.html" target="_top" xlink:title=" ">
<polygon fill="white" stroke="#666666" points="1147.62,-202.88 1007.12,-202.88 1007.12,-161.12 1147.62,-161.12 1147.62,-202.88"/>
<text text-anchor="start" x="1015.12" y="-189.38" font-family="Helvetica,sans-Serif" font-size="10.00">/github/workspace/dev</text>
<text text-anchor="start" x="1015.12" y="-178.12" font-family="Helvetica,sans-Serif" font-size="10.00">_area/sourcecode/trigger</text>
<text text-anchor="middle" x="1077.38" y="-166.88" font-family="Helvetica,sans-Serif" font-size="10.00">/src/trigger/TCProcessor.hpp</text>
</a>
</g>
</g>
<!-- Node23&#45;&gt;Node27 -->
<g id="edge42_Node000023_Node000027" class="edge">
<title>Node23&#45;&gt;Node27</title>
<g id="a_edge42_Node000023_Node000027"><a xlink:title=" ">
<path fill="none" stroke="#63b8ff" d="M943.21,-239.66C971.68,-227.64 1003.64,-214.14 1029.23,-203.33"/>
<polygon fill="#63b8ff" stroke="#63b8ff" points="942.15,-236.31 934.3,-243.43 944.87,-242.76 942.15,-236.31"/>
</a>
</g>
</g>
<!-- Node29 -->
<g id="Node000029" class="node">
<title>Node29</title>
<g id="a_Node000029"><a xlink:href="TPProcessor_8hpp.html" target="_top" xlink:title=" ">
<polygon fill="white" stroke="#666666" points="1502.62,-202.88 1362.12,-202.88 1362.12,-161.12 1502.62,-161.12 1502.62,-202.88"/>
<text text-anchor="start" x="1370.12" y="-189.38" font-family="Helvetica,sans-Serif" font-size="10.00">/github/workspace/dev</text>
<text text-anchor="start" x="1370.12" y="-178.12" font-family="Helvetica,sans-Serif" font-size="10.00">_area/sourcecode/trigger</text>
<text text-anchor="middle" x="1432.38" y="-166.88" font-family="Helvetica,sans-Serif" font-size="10.00">/src/trigger/TPProcessor.hpp</text>
</a>
</g>
</g>
<!-- Node23&#45;&gt;Node29 -->
<g id="edge44_Node000023_Node000029" class="edge">
<title>Node23&#45;&gt;Node29</title>
<g id="a_edge44_Node000023_Node000029"><a xlink:title=" ">
<path fill="none" stroke="#63b8ff" d="M967.35,-262.89C1065.07,-254.44 1220.53,-237.69 1352.38,-208.5 1359.06,-207.02 1365.99,-205.22 1372.85,-203.28"/>
<polygon fill="#63b8ff" stroke="#63b8ff" points="967.2,-259.39 957.53,-263.72 967.79,-266.36 967.2,-259.39"/>
</a>
</g>
</g>
<!-- Node24&#45;&gt;Node3 -->
<g id="edge36_Node000024_Node000003" class="edge">
<title>Node24&#45;&gt;Node3</title>
<g id="a_edge36_Node000024_Node000003"><a xlink:title=" ">
<path fill="none" stroke="#63b8ff" d="M817.1,-149.6C798.63,-139.64 778.71,-128.91 762.08,-119.94"/>
<polygon fill="#63b8ff" stroke="#63b8ff" points="815.39,-152.65 825.85,-154.31 818.71,-146.49 815.39,-152.65"/>
</a>
</g>
</g>
<!-- Node24&#45;&gt;Node12 -->
<g id="edge37_Node000024_Node000012" class="edge">
<title>Node24&#45;&gt;Node12</title>
<g id="a_edge37_Node000024_Node000012"><a xlink:title=" ">
<path fill="none" stroke="#63b8ff" d="M908.01,-146.95C916.87,-137.71 926.18,-128 934.04,-119.79"/>
<polygon fill="#63b8ff" stroke="#63b8ff" points="905.5,-144.52 901.1,-154.16 910.55,-149.36 905.5,-144.52"/>
</a>
</g>
</g>
<!-- Node25&#45;&gt;Node26 -->
<g id="edge41_Node000025_Node000026" class="edge">
<title>Node25&#45;&gt;Node26</title>
<g id="a_edge41_Node000025_Node000026"><a xlink:title=" ">
<path fill="none" stroke="#63b8ff" d="M1279.16,-149.64C1281,-139.62 1283,-128.8 1284.66,-119.79"/>
<polygon fill="#63b8ff" stroke="#63b8ff" points="1275.73,-148.93 1277.36,-159.4 1282.61,-150.2 1275.73,-148.93"/>
</a>
</g>
</g>
<!-- Node27&#45;&gt;Node28 -->
<g id="edge43_Node000027_Node000028" class="edge">
<title>Node27&#45;&gt;Node28</title>
<g id="a_edge43_Node000027_Node000028"><a xlink:title=" ">
<path fill="none" stroke="#63b8ff" d="M1097.25,-151.59C1104.39,-141.04 1112.26,-129.38 1118.75,-119.79"/>
<polygon fill="#63b8ff" stroke="#63b8ff" points="1094.52,-149.39 1091.82,-159.63 1100.32,-153.31 1094.52,-149.39"/>
</a>
</g>
</g>
<!-- Node29&#45;&gt;Node30 -->
<g id="edge45_Node000029_Node000030" class="edge">
<title>Node29&#45;&gt;Node30</title>
<g id="a_edge45_Node000029_Node000030"><a xlink:title=" ">
<path fill="none" stroke="#63b8ff" d="M1434.3,-149.64C1434.92,-139.62 1435.58,-128.8 1436.14,-119.79"/>
<polygon fill="#63b8ff" stroke="#63b8ff" points="1430.82,-149.18 1433.7,-159.37 1437.81,-149.61 1430.82,-149.18"/>
</a>
</g>
</g>
</g>
</svg>
