<?xml version="1.0" encoding="UTF-8" standalone="no"?>
<!DOCTYPE svg PUBLIC "-//W3C//DTD SVG 1.1//EN"
 "http://www.w3.org/Graphics/SVG/1.1/DTD/svg11.dtd">
<!-- Generated by graphviz version 9.0.0 (20230911.1827)
 -->
<!-- Title: /github/workspace/dev_area/sourcecode/timing/include/timing/FrequencyCounterNode.hpp Pages: 1 -->
<svg width="1761pt" height="415pt"
 viewBox="0.00 0.00 1760.50 415.00" xmlns="http://www.w3.org/2000/svg" xmlns:xlink="http://www.w3.org/1999/xlink">
<g id="graph0" class="graph" transform="scale(1 1) rotate(0) translate(4 411)">
<title>/github/workspace/dev_area/sourcecode/timing/include/timing/FrequencyCounterNode.hpp</title>
<!-- Node1 -->
<g id="Node000001" class="node">
<title>Node1</title>
<g id="a_Node000001"><a xlink:title=" ">
<polygon fill="#999999" stroke="#666666" points="1639.38,-407 1478.62,-407 1478.62,-354 1639.38,-354 1639.38,-407"/>
<text text-anchor="start" x="1486.62" y="-393.5" font-family="Helvetica,sans-Serif" font-size="10.00">/github/workspace/dev</text>
<text text-anchor="start" x="1486.62" y="-382.25" font-family="Helvetica,sans-Serif" font-size="10.00">_area/sourcecode/timing</text>
<text text-anchor="start" x="1486.62" y="-371" font-family="Helvetica,sans-Serif" font-size="10.00">/include/timing/FrequencyCounter</text>
<text text-anchor="middle" x="1559" y="-359.75" font-family="Helvetica,sans-Serif" font-size="10.00">Node.hpp</text>
</a>
</g>
</g>
<!-- Node2 -->
<g id="Node000002" class="node">
<title>Node2</title>
<g id="a_Node000002"><a xlink:href="include_2timing_2TimingIssues_8hpp.html" target="_top" xlink:title=" ">
<polygon fill="white" stroke="#666666" points="1020.25,-318 927.75,-318 927.75,-298.75 1020.25,-298.75 1020.25,-318"/>
<text text-anchor="middle" x="974" y="-304.5" font-family="Helvetica,sans-Serif" font-size="10.00">TimingIssues.hpp</text>
</a>
</g>
</g>
<!-- Node1&#45;&gt;Node2 -->
<g id="edge1_Node000001_Node000002" class="edge">
<title>Node1&#45;&gt;Node2</title>
<g id="a_edge1_Node000001_Node000002"><a xlink:title=" ">
<path fill="none" stroke="#63b8ff" d="M1478.27,-369.82C1358.48,-355.46 1136.56,-328.86 1031.72,-316.29"/>
<polygon fill="#63b8ff" stroke="#63b8ff" points="1032.28,-312.84 1021.94,-315.12 1031.45,-319.79 1032.28,-312.84"/>
</a>
</g>
</g>
<!-- Node8 -->
<g id="Node000008" class="node">
<title>Node8</title>
<g id="a_Node000008"><a xlink:title=" ">
<polygon fill="#e0e0e0" stroke="#999999" points="1250,-74.5 1210,-74.5 1210,-55.25 1250,-55.25 1250,-74.5"/>
<text text-anchor="middle" x="1230" y="-61" font-family="Helvetica,sans-Serif" font-size="10.00">string</text>
</a>
</g>
</g>
<!-- Node1&#45;&gt;Node8 -->
<g id="edge54_Node000001_Node000008" class="edge">
<title>Node1&#45;&gt;Node8</title>
<g id="a_edge54_Node000001_Node000008"><a xlink:title=" ">
<path fill="none" stroke="#63b8ff" d="M1602.61,-353.61C1615.08,-344.02 1627.36,-332.01 1635,-318 1667.29,-258.8 1634.85,-214.78 1579,-177 1475.83,-107.22 1326.22,-79.17 1261.64,-69.84"/>
<polygon fill="#63b8ff" stroke="#63b8ff" points="1262.13,-66.37 1251.74,-68.47 1261.17,-73.31 1262.13,-66.37"/>
</a>
</g>
</g>
<!-- Node12 -->
<g id="Node000012" class="node">
<title>Node12</title>
<g id="a_Node000012"><a xlink:title=" ">
<polygon fill="#e0e0e0" stroke="#999999" points="1322.62,-135.38 1277.38,-135.38 1277.38,-116.12 1322.62,-116.12 1322.62,-135.38"/>
<text text-anchor="middle" x="1300" y="-121.88" font-family="Helvetica,sans-Serif" font-size="10.00">chrono</text>
</a>
</g>
</g>
<!-- Node1&#45;&gt;Node12 -->
<g id="edge53_Node000001_Node000012" class="edge">
<title>Node1&#45;&gt;Node12</title>
<g id="a_edge53_Node000001_Node000012"><a xlink:title=" ">
<path fill="none" stroke="#63b8ff" d="M1587.27,-353.52C1614.75,-325.04 1648.97,-278.73 1624,-243.5 1544.46,-131.29 1459.82,-191.8 1332,-141 1331.36,-140.75 1330.72,-140.49 1330.08,-140.23"/>
<polygon fill="#63b8ff" stroke="#63b8ff" points="1331.49,-137.02 1320.92,-136.34 1328.75,-143.47 1331.49,-137.02"/>
</a>
</g>
</g>
<!-- Node15 -->
<g id="Node000015" class="node">
<title>Node15</title>
<g id="a_Node000015"><a xlink:title=" ">
<polygon fill="#e0e0e0" stroke="#999999" points="1061.5,-74.5 1018.5,-74.5 1018.5,-55.25 1061.5,-55.25 1061.5,-74.5"/>
<text text-anchor="middle" x="1040" y="-61" font-family="Helvetica,sans-Serif" font-size="10.00">vector</text>
</a>
</g>
</g>
<!-- Node1&#45;&gt;Node15 -->
<g id="edge56_Node000001_Node000015" class="edge">
<title>Node1&#45;&gt;Node15</title>
<g id="a_edge56_Node000001_Node000015"><a xlink:title=" ">
<path fill="none" stroke="#63b8ff" d="M1478.19,-377.28C1158.57,-367.96 0,-329.03 0,-254.12 0,-254.12 0,-254.12 0,-191.25 0,-140.73 33.76,-130.86 80,-110.5 173.02,-69.55 893.01,-85.9 994,-74.5 998.2,-74.03 1002.6,-73.39 1006.94,-72.67"/>
<polygon fill="#63b8ff" stroke="#63b8ff" points="1007.4,-76.15 1016.61,-70.92 1006.15,-69.26 1007.4,-76.15"/>
</a>
</g>
</g>
<!-- Node29 -->
<g id="Node000029" class="node">
<title>Node29</title>
<g id="a_Node000029"><a xlink:href="TimingNode_8hpp.html" target="_top" xlink:title=" ">
<polygon fill="white" stroke="#666666" points="1475.88,-318 1360.12,-318 1360.12,-298.75 1475.88,-298.75 1475.88,-318"/>
<text text-anchor="middle" x="1418" y="-304.5" font-family="Helvetica,sans-Serif" font-size="10.00">timing/TimingNode.hpp</text>
</a>
</g>
</g>
<!-- Node1&#45;&gt;Node29 -->
<g id="edge39_Node000001_Node000029" class="edge">
<title>Node1&#45;&gt;Node29</title>
<g id="a_edge39_Node000001_Node000029"><a xlink:title=" ">
<path fill="none" stroke="#63b8ff" d="M1506.9,-353.59C1486.37,-343.38 1463.6,-332.05 1446.25,-323.42"/>
<polygon fill="#63b8ff" stroke="#63b8ff" points="1448.08,-320.42 1437.57,-319.11 1444.96,-326.69 1448.08,-320.42"/>
</a>
</g>
</g>
<!-- Node30 -->
<g id="Node000030" class="node">
<title>Node30</title>
<g id="a_Node000030"><a xlink:title=" ">
<polygon fill="#e0e0e0" stroke="#999999" points="1614.62,-262.75 1503.38,-262.75 1503.38,-243.5 1614.62,-243.5 1614.62,-262.75"/>
<text text-anchor="middle" x="1559" y="-249.25" font-family="Helvetica,sans-Serif" font-size="10.00">uhal/DerivedNode.hpp</text>
</a>
</g>
</g>
<!-- Node1&#45;&gt;Node30 -->
<g id="edge52_Node000001_Node000030" class="edge">
<title>Node1&#45;&gt;Node30</title>
<g id="a_edge52_Node000001_Node000030"><a xlink:title=" ">
<path fill="none" stroke="#63b8ff" d="M1559,-353.52C1559,-330.01 1559,-295.86 1559,-274.33"/>
<polygon fill="#63b8ff" stroke="#63b8ff" points="1562.5,-274.54 1559,-264.54 1555.5,-274.54 1562.5,-274.54"/>
</a>
</g>
</g>
<!-- Node36 -->
<g id="Node000036" class="node">
<title>Node36</title>
<g id="a_Node000036"><a xlink:title=" ">
<polygon fill="#e0e0e0" stroke="#999999" points="1752.5,-318 1709.5,-318 1709.5,-298.75 1752.5,-298.75 1752.5,-318"/>
<text text-anchor="middle" x="1731" y="-304.5" font-family="Helvetica,sans-Serif" font-size="10.00">thread</text>
</a>
</g>
</g>
<!-- Node1&#45;&gt;Node36 -->
<g id="edge55_Node000001_Node000036" class="edge">
<title>Node1&#45;&gt;Node36</title>
<g id="a_edge55_Node000001_Node000036"><a xlink:title=" ">
<path fill="none" stroke="#63b8ff" d="M1622.56,-353.59C1648.47,-343.02 1677.31,-331.26 1698.73,-322.53"/>
<polygon fill="#63b8ff" stroke="#63b8ff" points="1699.86,-325.85 1707.8,-318.84 1697.22,-319.37 1699.86,-325.85"/>
</a>
</g>
</g>
<!-- Node3 -->
<g id="Node000003" class="node">
<title>Node3</title>
<g id="a_Node000003"><a xlink:href="Issue_8hpp.html" target="_top" xlink:title=" ">
<polygon fill="white" stroke="#666666" points="1011.25,-262.75 936.75,-262.75 936.75,-243.5 1011.25,-243.5 1011.25,-262.75"/>
<text text-anchor="middle" x="974" y="-249.25" font-family="Helvetica,sans-Serif" font-size="10.00">ers/Issue.hpp</text>
</a>
</g>
</g>
<!-- Node2&#45;&gt;Node3 -->
<g id="edge2_Node000002_Node000003" class="edge">
<title>Node2&#45;&gt;Node3</title>
<g id="a_edge2_Node000002_Node000003"><a xlink:title=" ">
<path fill="none" stroke="#63b8ff" d="M974,-298.58C974,-292.07 974,-282.92 974,-274.62"/>
<polygon fill="#63b8ff" stroke="#63b8ff" points="977.5,-274.62 974,-264.62 970.5,-274.62 977.5,-274.62"/>
</a>
</g>
</g>
<!-- Node2&#45;&gt;Node8 -->
<g id="edge38_Node000002_Node000008" class="edge">
<title>Node2&#45;&gt;Node8</title>
<g id="a_edge38_Node000002_Node000008"><a xlink:title=" ">
<path fill="none" stroke="#63b8ff" d="M927.27,-304.72C778.55,-295.78 317.99,-264.09 181,-207.5 127.75,-185.5 55.02,-151.98 95,-110.5 132.65,-71.43 1016.8,-76.97 1071,-74.5 1115.32,-72.48 1166.57,-69.6 1198.63,-67.74"/>
<polygon fill="#63b8ff" stroke="#63b8ff" points="1198.64,-71.24 1208.41,-67.16 1198.23,-64.26 1198.64,-71.24"/>
</a>
</g>
</g>
<!-- Node4 -->
<g id="Node000004" class="node">
<title>Node4</title>
<g id="a_Node000004"><a xlink:title=" ">
<polygon fill="#e0e0e0" stroke="#999999" points="1332.62,-201.88 1287.38,-201.88 1287.38,-182.62 1332.62,-182.62 1332.62,-201.88"/>
<text text-anchor="middle" x="1310" y="-188.38" font-family="Helvetica,sans-Serif" font-size="10.00">math.h</text>
</a>
</g>
</g>
<!-- Node3&#45;&gt;Node4 -->
<g id="edge3_Node000003_Node000004" class="edge">
<title>Node3&#45;&gt;Node4</title>
<g id="a_edge3_Node000003_Node000004"><a xlink:title=" ">
<path fill="none" stroke="#63b8ff" d="M1011.35,-249.2C1068.48,-244.14 1180.64,-231.86 1273,-207.5 1274.62,-207.07 1276.27,-206.6 1277.93,-206.09"/>
<polygon fill="#63b8ff" stroke="#63b8ff" points="1279,-209.42 1287.31,-202.85 1276.72,-202.8 1279,-209.42"/>
</a>
</g>
</g>
<!-- Node5 -->
<g id="Node000005" class="node">
<title>Node5</title>
<g id="a_Node000005"><a xlink:title=" ">
<polygon fill="#e0e0e0" stroke="#999999" points="234.25,-201.88 189.75,-201.88 189.75,-182.62 234.25,-182.62 234.25,-201.88"/>
<text text-anchor="middle" x="212" y="-188.38" font-family="Helvetica,sans-Serif" font-size="10.00">stdio.h</text>
</a>
</g>
</g>
<!-- Node3&#45;&gt;Node5 -->
<g id="edge4_Node000003_Node000005" class="edge">
<title>Node3&#45;&gt;Node5</title>
<g id="a_edge4_Node000003_Node000005"><a xlink:title=" ">
<path fill="none" stroke="#63b8ff" d="M936.7,-251.66C807.02,-249.76 376.49,-241.01 243,-207.5 241.79,-207.2 240.58,-206.85 239.36,-206.46"/>
<polygon fill="#63b8ff" stroke="#63b8ff" points="240.64,-203.21 230.05,-202.82 238.09,-209.72 240.64,-203.21"/>
</a>
</g>
</g>
<!-- Node6 -->
<g id="Node000006" class="node">
<title>Node6</title>
<g id="a_Node000006"><a xlink:title=" ">
<polygon fill="#e0e0e0" stroke="#999999" points="299.75,-201.88 252.25,-201.88 252.25,-182.62 299.75,-182.62 299.75,-201.88"/>
<text text-anchor="middle" x="276" y="-188.38" font-family="Helvetica,sans-Serif" font-size="10.00">string.h</text>
</a>
</g>
</g>
<!-- Node3&#45;&gt;Node6 -->
<g id="edge5_Node000003_Node000006" class="edge">
<title>Node3&#45;&gt;Node6</title>
<g id="a_edge5_Node000003_Node000006"><a xlink:title=" ">
<path fill="none" stroke="#63b8ff" d="M936.25,-251.33C813.79,-248.5 428.5,-237.36 308,-207.5 306.61,-207.15 305.2,-206.75 303.79,-206.3"/>
<polygon fill="#63b8ff" stroke="#63b8ff" points="305.21,-203.1 294.62,-202.78 302.7,-209.64 305.21,-203.1"/>
</a>
</g>
</g>
<!-- Node7 -->
<g id="Node000007" class="node">
<title>Node7</title>
<g id="a_Node000007"><a xlink:title=" ">
<polygon fill="#e0e0e0" stroke="#999999" points="1375.38,-135.38 1340.62,-135.38 1340.62,-116.12 1375.38,-116.12 1375.38,-135.38"/>
<text text-anchor="middle" x="1358" y="-121.88" font-family="Helvetica,sans-Serif" font-size="10.00">map</text>
</a>
</g>
</g>
<!-- Node3&#45;&gt;Node7 -->
<g id="edge6_Node000003_Node000007" class="edge">
<title>Node3&#45;&gt;Node7</title>
<g id="a_edge6_Node000003_Node000007"><a xlink:title=" ">
<path fill="none" stroke="#63b8ff" d="M1011.31,-250.93C1063.3,-248.12 1159.63,-238.76 1235,-207.5 1256.64,-198.52 1258.52,-190.01 1278,-177 1296.35,-164.74 1317.51,-151.49 1333.45,-141.68"/>
<polygon fill="#63b8ff" stroke="#63b8ff" points="1335.11,-144.77 1341.81,-136.56 1331.45,-138.8 1335.11,-144.77"/>
</a>
</g>
</g>
<!-- Node3&#45;&gt;Node8 -->
<g id="edge7_Node000003_Node000008" class="edge">
<title>Node3&#45;&gt;Node8</title>
<g id="a_edge7_Node000003_Node000008"><a xlink:title=" ">
<path fill="none" stroke="#63b8ff" d="M1011.73,-249.74C1069.44,-245.3 1175.74,-233.71 1202,-207.5 1234.44,-175.12 1234.82,-116.73 1232.39,-86.01"/>
<polygon fill="#63b8ff" stroke="#63b8ff" points="1235.89,-85.81 1231.41,-76.21 1228.92,-86.51 1235.89,-85.81"/>
</a>
</g>
</g>
<!-- Node9 -->
<g id="Node000009" class="node">
<title>Node9</title>
<g id="a_Node000009"><a xlink:title=" ">
<polygon fill="#e0e0e0" stroke="#999999" points="1069.75,-19.25 1016.25,-19.25 1016.25,0 1069.75,0 1069.75,-19.25"/>
<text text-anchor="middle" x="1043" y="-5.75" font-family="Helvetica,sans-Serif" font-size="10.00">iostream</text>
</a>
</g>
</g>
<!-- Node3&#45;&gt;Node9 -->
<g id="edge8_Node000003_Node000009" class="edge">
<title>Node3&#45;&gt;Node9</title>
<g id="a_edge8_Node000003_Node000009"><a xlink:title=" ">
<path fill="none" stroke="#63b8ff" d="M936.39,-251.49C836.41,-249.36 566.09,-240.63 484,-207.5 463.92,-199.4 466.04,-185.22 446,-177 299.1,-116.74 -11.23,-228.51 95,-110.5 156.97,-41.66 835.57,-16.84 1004.89,-11.7"/>
<polygon fill="#63b8ff" stroke="#63b8ff" points="1004.79,-15.2 1014.68,-11.4 1004.58,-8.2 1004.79,-15.2"/>
</a>
</g>
</g>
<!-- Node10 -->
<g id="Node000010" class="node">
<title>Node10</title>
<g id="a_Node000010"><a xlink:title=" ">
<polygon fill="#e0e0e0" stroke="#999999" points="368.62,-201.88 317.38,-201.88 317.38,-182.62 368.62,-182.62 368.62,-201.88"/>
<text text-anchor="middle" x="343" y="-188.38" font-family="Helvetica,sans-Serif" font-size="10.00">sstream</text>
</a>
</g>
</g>
<!-- Node3&#45;&gt;Node10 -->
<g id="edge9_Node000003_Node000010" class="edge">
<title>Node3&#45;&gt;Node10</title>
<g id="a_edge9_Node000003_Node000010"><a xlink:title=" ">
<path fill="none" stroke="#63b8ff" d="M936.32,-250.84C822.74,-246.72 484.95,-232.62 378,-207.5 376.36,-207.12 374.7,-206.67 373.04,-206.17"/>
<polygon fill="#63b8ff" stroke="#63b8ff" points="374.29,-202.9 363.7,-202.85 371.95,-209.49 374.29,-202.9"/>
</a>
</g>
</g>
<!-- Node11 -->
<g id="Node000011" class="node">
<title>Node11</title>
<g id="a_Node000011"><a xlink:title=" ">
<polygon fill="#e0e0e0" stroke="#999999" points="437.25,-201.88 386.75,-201.88 386.75,-182.62 437.25,-182.62 437.25,-201.88"/>
<text text-anchor="middle" x="412" y="-188.38" font-family="Helvetica,sans-Serif" font-size="10.00">memory</text>
</a>
</g>
</g>
<!-- Node3&#45;&gt;Node11 -->
<g id="edge10_Node000003_Node000011" class="edge">
<title>Node3&#45;&gt;Node11</title>
<g id="a_edge10_Node000003_Node000011"><a xlink:title=" ">
<path fill="none" stroke="#63b8ff" d="M936.39,-252.31C849.71,-252 629.62,-247.02 451,-207.5 448.84,-207.02 446.63,-206.45 444.42,-205.82"/>
<polygon fill="#63b8ff" stroke="#63b8ff" points="445.59,-202.52 435,-202.75 443.42,-209.18 445.59,-202.52"/>
</a>
</g>
</g>
<!-- Node3&#45;&gt;Node12 -->
<g id="edge11_Node000003_Node000012" class="edge">
<title>Node3&#45;&gt;Node12</title>
<g id="a_edge11_Node000003_Node000012"><a xlink:title=" ">
<path fill="none" stroke="#63b8ff" d="M978.01,-243.23C985.76,-227.16 1004.39,-193.43 1031,-177 1050.78,-164.78 1197.59,-141.87 1265.6,-131.76"/>
<polygon fill="#63b8ff" stroke="#63b8ff" points="1266.07,-135.23 1275.45,-130.3 1265.05,-128.3 1266.07,-135.23"/>
</a>
</g>
</g>
<!-- Node13 -->
<g id="Node000013" class="node">
<title>Node13</title>
<g id="a_Node000013"><a xlink:title=" ">
<polygon fill="#e0e0e0" stroke="#999999" points="1068.4,-201.88 1039.6,-201.88 1039.6,-182.62 1068.4,-182.62 1068.4,-201.88"/>
<text text-anchor="middle" x="1054" y="-188.38" font-family="Helvetica,sans-Serif" font-size="10.00">list</text>
</a>
</g>
</g>
<!-- Node3&#45;&gt;Node13 -->
<g id="edge12_Node000003_Node000013" class="edge">
<title>Node3&#45;&gt;Node13</title>
<g id="a_edge12_Node000003_Node000013"><a xlink:title=" ">
<path fill="none" stroke="#63b8ff" d="M986.15,-243.18C998.48,-234.11 1017.83,-219.87 1032.72,-208.91"/>
<polygon fill="#63b8ff" stroke="#63b8ff" points="1034.54,-211.92 1040.52,-203.17 1030.39,-206.28 1034.54,-211.92"/>
</a>
</g>
</g>
<!-- Node14 -->
<g id="Node000014" class="node">
<title>Node14</title>
<g id="a_Node000014"><a xlink:href="IssueFactory_8hpp.html" target="_top" xlink:title=" ">
<polygon fill="white" stroke="#666666" points="1193.38,-201.88 1086.62,-201.88 1086.62,-182.62 1193.38,-182.62 1193.38,-201.88"/>
<text text-anchor="middle" x="1140" y="-188.38" font-family="Helvetica,sans-Serif" font-size="10.00">ers/IssueFactory.hpp</text>
</a>
</g>
</g>
<!-- Node3&#45;&gt;Node14 -->
<g id="edge13_Node000003_Node000014" class="edge">
<title>Node3&#45;&gt;Node14</title>
<g id="a_edge13_Node000003_Node000014"><a xlink:title=" ">
<path fill="none" stroke="#63b8ff" d="M999.57,-243.05C1027.48,-233.16 1072.37,-217.24 1103.86,-206.07"/>
<polygon fill="#63b8ff" stroke="#63b8ff" points="1104.72,-209.48 1112.97,-202.84 1102.38,-202.88 1104.72,-209.48"/>
</a>
</g>
</g>
<!-- Node16 -->
<g id="Node000016" class="node">
<title>Node16</title>
<g id="a_Node000016"><a xlink:href="Severity_8hpp.html" target="_top" xlink:title=" ">
<polygon fill="white" stroke="#666666" points="1182.88,-135.38 1097.12,-135.38 1097.12,-116.12 1182.88,-116.12 1182.88,-135.38"/>
<text text-anchor="middle" x="1140" y="-121.88" font-family="Helvetica,sans-Serif" font-size="10.00">ers/Severity.hpp</text>
</a>
</g>
</g>
<!-- Node3&#45;&gt;Node16 -->
<g id="edge30_Node000003_Node000016" class="edge">
<title>Node3&#45;&gt;Node16</title>
<g id="a_edge30_Node000003_Node000016"><a xlink:title=" ">
<path fill="none" stroke="#63b8ff" d="M974.35,-243.44C975.44,-228.01 979.89,-195.68 998,-177 1021.08,-153.19 1056.14,-140.64 1085.64,-134.04"/>
<polygon fill="#63b8ff" stroke="#63b8ff" points="1086.06,-137.52 1095.16,-132.09 1084.66,-130.67 1086.06,-137.52"/>
</a>
</g>
</g>
<!-- Node17 -->
<g id="Node000017" class="node">
<title>Node17</title>
<g id="a_Node000017"><a xlink:href="LocalContext_8hpp.html" target="_top" xlink:title=" ">
<polygon fill="white" stroke="#666666" points="945.75,-201.88 838.25,-201.88 838.25,-182.62 945.75,-182.62 945.75,-201.88"/>
<text text-anchor="middle" x="892" y="-188.38" font-family="Helvetica,sans-Serif" font-size="10.00">ers/LocalContext.hpp</text>
</a>
</g>
</g>
<!-- Node3&#45;&gt;Node17 -->
<g id="edge22_Node000003_Node000017" class="edge">
<title>Node3&#45;&gt;Node17</title>
<g id="a_edge22_Node000003_Node000017"><a xlink:title=" ">
<path fill="none" stroke="#63b8ff" d="M961.55,-243.18C948.9,-234.11 929.07,-219.87 913.81,-208.91"/>
<polygon fill="#63b8ff" stroke="#63b8ff" points="915.97,-206.15 905.8,-203.16 911.88,-211.83 915.97,-206.15"/>
</a>
</g>
</g>
<!-- Node22 -->
<g id="Node000022" class="node">
<title>Node22</title>
<g id="a_Node000022"><a xlink:href="IssueDeclarationMacro_8hpp.html" target="_top" xlink:title=" ">
<polygon fill="white" stroke="#666666" points="632.88,-207.5 493.12,-207.5 493.12,-177 632.88,-177 632.88,-207.5"/>
<text text-anchor="start" x="501.12" y="-194" font-family="Helvetica,sans-Serif" font-size="10.00">ers/internal/IssueDeclaration</text>
<text text-anchor="middle" x="563" y="-182.75" font-family="Helvetica,sans-Serif" font-size="10.00">Macro.hpp</text>
</a>
</g>
</g>
<!-- Node3&#45;&gt;Node22 -->
<g id="edge31_Node000003_Node000022" class="edge">
<title>Node3&#45;&gt;Node22</title>
<g id="a_edge31_Node000003_Node000022"><a xlink:title=" ">
<path fill="none" stroke="#63b8ff" d="M936.44,-246.74C870.66,-237.32 733.2,-217.63 644.66,-204.95"/>
<polygon fill="#63b8ff" stroke="#63b8ff" points="645.2,-201.49 634.81,-203.54 644.21,-208.42 645.2,-201.49"/>
</a>
</g>
</g>
<!-- Node14&#45;&gt;Node7 -->
<g id="edge17_Node000014_Node000007" class="edge">
<title>Node14&#45;&gt;Node7</title>
<g id="a_edge17_Node000014_Node000007"><a xlink:title=" ">
<path fill="none" stroke="#63b8ff" d="M1187.59,-182.2C1227.08,-173.89 1284.3,-159.98 1332,-141 1332.23,-140.91 1332.45,-140.82 1332.68,-140.72"/>
<polygon fill="#63b8ff" stroke="#63b8ff" points="1334.03,-143.96 1341.54,-136.49 1331.01,-137.65 1334.03,-143.96"/>
</a>
</g>
</g>
<!-- Node14&#45;&gt;Node8 -->
<g id="edge15_Node000014_Node000008" class="edge">
<title>Node14&#45;&gt;Node8</title>
<g id="a_edge15_Node000014_Node000008"><a xlink:title=" ">
<path fill="none" stroke="#63b8ff" d="M1151.42,-182.17C1162.75,-172.75 1180.08,-157.17 1192,-141 1204.86,-123.56 1215.56,-101.14 1222.3,-85.34"/>
<polygon fill="#63b8ff" stroke="#63b8ff" points="1225.52,-86.73 1226.07,-76.15 1219.04,-84.07 1225.52,-86.73"/>
</a>
</g>
</g>
<!-- Node14&#45;&gt;Node12 -->
<g id="edge14_Node000014_Node000012" class="edge">
<title>Node14&#45;&gt;Node12</title>
<g id="a_edge14_Node000014_Node000012"><a xlink:title=" ">
<path fill="none" stroke="#63b8ff" d="M1162.58,-182.15C1189.86,-171.15 1235.96,-152.56 1267.17,-139.99"/>
<polygon fill="#63b8ff" stroke="#63b8ff" points="1268.16,-143.36 1276.13,-136.37 1265.54,-136.87 1268.16,-143.36"/>
</a>
</g>
</g>
<!-- Node14&#45;&gt;Node15 -->
<g id="edge16_Node000014_Node000015" class="edge">
<title>Node14&#45;&gt;Node15</title>
<g id="a_edge16_Node000014_Node000015"><a xlink:title=" ">
<path fill="none" stroke="#63b8ff" d="M1129.32,-182.27C1118.28,-172.68 1100.88,-156.74 1088,-141 1073.19,-122.89 1059.14,-99.98 1050.11,-84.25"/>
<polygon fill="#63b8ff" stroke="#63b8ff" points="1053.41,-82.98 1045.46,-75.97 1047.31,-86.41 1053.41,-82.98"/>
</a>
</g>
</g>
<!-- Node14&#45;&gt;Node16 -->
<g id="edge18_Node000014_Node000016" class="edge">
<title>Node14&#45;&gt;Node16</title>
<g id="a_edge18_Node000014_Node000016"><a xlink:title=" ">
<path fill="none" stroke="#63b8ff" d="M1140,-182.28C1140,-173.23 1140,-158.95 1140,-147.13"/>
<polygon fill="#63b8ff" stroke="#63b8ff" points="1143.5,-147.16 1140,-137.16 1136.5,-147.16 1143.5,-147.16"/>
</a>
</g>
</g>
<!-- Node16&#45;&gt;Node8 -->
<g id="edge19_Node000016_Node000008" class="edge">
<title>Node16&#45;&gt;Node8</title>
<g id="a_edge19_Node000016_Node000008"><a xlink:title=" ">
<path fill="none" stroke="#63b8ff" d="M1153.67,-115.81C1167.81,-106.56 1190.14,-91.95 1207.01,-80.92"/>
<polygon fill="#63b8ff" stroke="#63b8ff" points="1208.48,-84.13 1214.94,-75.73 1204.65,-78.28 1208.48,-84.13"/>
</a>
</g>
</g>
<!-- Node16&#45;&gt;Node9 -->
<g id="edge21_Node000016_Node000009" class="edge">
<title>Node16&#45;&gt;Node9</title>
<g id="a_edge21_Node000016_Node000009"><a xlink:title=" ">
<path fill="none" stroke="#63b8ff" d="M1132.39,-115.79C1116.38,-96.96 1078.98,-52.96 1057.98,-28.25"/>
<polygon fill="#63b8ff" stroke="#63b8ff" points="1060.7,-26.04 1051.56,-20.69 1055.37,-30.58 1060.7,-26.04"/>
</a>
</g>
</g>
<!-- Node16&#45;&gt;Node15 -->
<g id="edge20_Node000016_Node000015" class="edge">
<title>Node16&#45;&gt;Node15</title>
<g id="a_edge20_Node000016_Node000015"><a xlink:title=" ">
<path fill="none" stroke="#63b8ff" d="M1124.81,-115.81C1108.95,-106.47 1083.82,-91.67 1065.02,-80.61"/>
<polygon fill="#63b8ff" stroke="#63b8ff" points="1067.03,-77.73 1056.64,-75.67 1063.48,-83.76 1067.03,-77.73"/>
</a>
</g>
</g>
<!-- Node18 -->
<g id="Node000018" class="node">
<title>Node18</title>
<g id="a_Node000018"><a xlink:title=" ">
<polygon fill="#e0e0e0" stroke="#999999" points="1041.38,-135.38 976.62,-135.38 976.62,-116.12 1041.38,-116.12 1041.38,-135.38"/>
<text text-anchor="middle" x="1009" y="-121.88" font-family="Helvetica,sans-Serif" font-size="10.00">sys/types.h</text>
</a>
</g>
</g>
<!-- Node17&#45;&gt;Node18 -->
<g id="edge23_Node000017_Node000018" class="edge">
<title>Node17&#45;&gt;Node18</title>
<g id="a_edge23_Node000017_Node000018"><a xlink:title=" ">
<path fill="none" stroke="#63b8ff" d="M908.52,-182.15C927.77,-171.53 959.83,-153.85 982.56,-141.32"/>
<polygon fill="#63b8ff" stroke="#63b8ff" points="984.18,-144.43 991.24,-136.54 980.8,-138.3 984.18,-144.43"/>
</a>
</g>
</g>
<!-- Node19 -->
<g id="Node000019" class="node">
<title>Node19</title>
<g id="a_Node000019"><a xlink:title=" ">
<polygon fill="#e0e0e0" stroke="#999999" points="856.88,-135.38 807.12,-135.38 807.12,-116.12 856.88,-116.12 856.88,-135.38"/>
<text text-anchor="middle" x="832" y="-121.88" font-family="Helvetica,sans-Serif" font-size="10.00">unistd.h</text>
</a>
</g>
</g>
<!-- Node17&#45;&gt;Node19 -->
<g id="edge24_Node000017_Node000019" class="edge">
<title>Node17&#45;&gt;Node19</title>
<g id="a_edge24_Node000017_Node000019"><a xlink:title=" ">
<path fill="none" stroke="#63b8ff" d="M883.66,-182.28C874.43,-172.37 859.36,-156.16 847.87,-143.81"/>
<polygon fill="#63b8ff" stroke="#63b8ff" points="850.68,-141.69 841.3,-136.75 845.55,-146.46 850.68,-141.69"/>
</a>
</g>
</g>
<!-- Node20 -->
<g id="Node000020" class="node">
<title>Node20</title>
<g id="a_Node000020"><a xlink:href="Context_8hpp.html" target="_top" xlink:title=" ">
<polygon fill="white" stroke="#666666" points="958.75,-135.38 875.25,-135.38 875.25,-116.12 958.75,-116.12 958.75,-135.38"/>
<text text-anchor="middle" x="917" y="-121.88" font-family="Helvetica,sans-Serif" font-size="10.00">ers/Context.hpp</text>
</a>
</g>
</g>
<!-- Node17&#45;&gt;Node20 -->
<g id="edge25_Node000017_Node000020" class="edge">
<title>Node17&#45;&gt;Node20</title>
<g id="a_edge25_Node000017_Node000020"><a xlink:title=" ">
<path fill="none" stroke="#63b8ff" d="M895.48,-182.28C899.1,-172.94 904.88,-158.03 909.54,-146.01"/>
<polygon fill="#63b8ff" stroke="#63b8ff" points="912.66,-147.64 913.01,-137.05 906.13,-145.11 912.66,-147.64"/>
</a>
</g>
</g>
<!-- Node20&#45;&gt;Node8 -->
<g id="edge26_Node000020_Node000008" class="edge">
<title>Node20&#45;&gt;Node8</title>
<g id="a_edge26_Node000020_Node000008"><a xlink:title=" ">
<path fill="none" stroke="#63b8ff" d="M947.61,-115.64C954.3,-113.81 961.36,-111.99 968,-110.5 1050.56,-91.99 1149.28,-77.1 1198.64,-70.14"/>
<polygon fill="#63b8ff" stroke="#63b8ff" points="1198.89,-73.64 1208.31,-68.79 1197.92,-66.71 1198.89,-73.64"/>
</a>
</g>
</g>
<!-- Node20&#45;&gt;Node15 -->
<g id="edge27_Node000020_Node000015" class="edge">
<title>Node20&#45;&gt;Node15</title>
<g id="a_edge27_Node000020_Node000015"><a xlink:title=" ">
<path fill="none" stroke="#63b8ff" d="M935.95,-115.68C955.96,-106.1 987.76,-90.88 1010.95,-79.78"/>
<polygon fill="#63b8ff" stroke="#63b8ff" points="1012.36,-82.99 1019.87,-75.51 1009.33,-76.67 1012.36,-82.99"/>
</a>
</g>
</g>
<!-- Node21 -->
<g id="Node000021" class="node">
<title>Node21</title>
<g id="a_Node000021"><a xlink:href="ers_2include_2ers_2Configuration_8hpp.html" target="_top" xlink:title=" ">
<polygon fill="white" stroke="#666666" points="985.38,-74.5 878.62,-74.5 878.62,-55.25 985.38,-55.25 985.38,-74.5"/>
<text text-anchor="middle" x="932" y="-61" font-family="Helvetica,sans-Serif" font-size="10.00">ers/Configuration.hpp</text>
</a>
</g>
</g>
<!-- Node20&#45;&gt;Node21 -->
<g id="edge28_Node000020_Node000021" class="edge">
<title>Node20&#45;&gt;Node21</title>
<g id="a_edge28_Node000020_Node000021"><a xlink:title=" ">
<path fill="none" stroke="#63b8ff" d="M919.28,-115.81C921.3,-107.85 924.34,-95.94 926.94,-85.74"/>
<polygon fill="#63b8ff" stroke="#63b8ff" points="930.25,-86.92 929.33,-76.37 923.47,-85.19 930.25,-86.92"/>
</a>
</g>
</g>
<!-- Node21&#45;&gt;Node9 -->
<g id="edge29_Node000021_Node000009" class="edge">
<title>Node21&#45;&gt;Node9</title>
<g id="a_edge29_Node000021_Node000009"><a xlink:title=" ">
<path fill="none" stroke="#63b8ff" d="M950.83,-54.84C968.05,-46.58 993.8,-34.23 1013.71,-24.68"/>
<polygon fill="#63b8ff" stroke="#63b8ff" points="1015.21,-27.84 1022.71,-20.36 1012.18,-21.53 1015.21,-27.84"/>
</a>
</g>
</g>
<!-- Node23 -->
<g id="Node000023" class="node">
<title>Node23</title>
<g id="a_Node000023"><a xlink:title=" ">
<polygon fill="#e0e0e0" stroke="#999999" points="320.62,-141 221.38,-141 221.38,-110.5 320.62,-110.5 320.62,-141"/>
<text text-anchor="start" x="229.38" y="-127.5" font-family="Helvetica,sans-Serif" font-size="10.00">boost/preprocessor</text>
<text text-anchor="middle" x="271" y="-116.25" font-family="Helvetica,sans-Serif" font-size="10.00">/if.hpp</text>
</a>
</g>
</g>
<!-- Node22&#45;&gt;Node23 -->
<g id="edge32_Node000022_Node000023" class="edge">
<title>Node22&#45;&gt;Node23</title>
<g id="a_edge32_Node000022_Node000023"><a xlink:title=" ">
<path fill="none" stroke="#63b8ff" d="M492.74,-176.72C448.94,-167.54 391.12,-155.18 332.01,-141.66"/>
<polygon fill="#63b8ff" stroke="#63b8ff" points="332.97,-138.29 322.44,-139.46 331.4,-145.11 332.97,-138.29"/>
</a>
</g>
</g>
<!-- Node24 -->
<g id="Node000024" class="node">
<title>Node24</title>
<g id="a_Node000024"><a xlink:title=" ">
<polygon fill="#e0e0e0" stroke="#999999" points="437.62,-141 338.38,-141 338.38,-110.5 437.62,-110.5 437.62,-141"/>
<text text-anchor="start" x="346.38" y="-127.5" font-family="Helvetica,sans-Serif" font-size="10.00">boost/preprocessor</text>
<text text-anchor="middle" x="388" y="-116.25" font-family="Helvetica,sans-Serif" font-size="10.00">/seq.hpp</text>
</a>
</g>
</g>
<!-- Node22&#45;&gt;Node24 -->
<g id="edge33_Node000022_Node000024" class="edge">
<title>Node22&#45;&gt;Node24</title>
<g id="a_edge33_Node000022_Node000024"><a xlink:title=" ">
<path fill="none" stroke="#63b8ff" d="M523.29,-176.61C498.21,-167.37 465.57,-155.34 438.63,-145.41"/>
<polygon fill="#63b8ff" stroke="#63b8ff" points="439.87,-142.14 429.28,-141.96 437.45,-148.71 439.87,-142.14"/>
</a>
</g>
</g>
<!-- Node25 -->
<g id="Node000025" class="node">
<title>Node25</title>
<g id="a_Node000025"><a xlink:title=" ">
<polygon fill="#e0e0e0" stroke="#999999" points="554.62,-141 455.38,-141 455.38,-110.5 554.62,-110.5 554.62,-141"/>
<text text-anchor="start" x="463.38" y="-127.5" font-family="Helvetica,sans-Serif" font-size="10.00">boost/preprocessor</text>
<text text-anchor="middle" x="505" y="-116.25" font-family="Helvetica,sans-Serif" font-size="10.00">/tuple.hpp</text>
</a>
</g>
</g>
<!-- Node22&#45;&gt;Node25 -->
<g id="edge34_Node000022_Node000025" class="edge">
<title>Node22&#45;&gt;Node25</title>
<g id="a_edge34_Node000022_Node000025"><a xlink:title=" ">
<path fill="none" stroke="#63b8ff" d="M549.84,-176.61C542.72,-168.7 533.76,-158.74 525.73,-149.8"/>
<polygon fill="#63b8ff" stroke="#63b8ff" points="528.41,-147.55 519.12,-142.45 523.2,-152.23 528.41,-147.55"/>
</a>
</g>
</g>
<!-- Node26 -->
<g id="Node000026" class="node">
<title>Node26</title>
<g id="a_Node000026"><a xlink:title=" ">
<polygon fill="#e0e0e0" stroke="#999999" points="671.62,-141 572.38,-141 572.38,-110.5 671.62,-110.5 671.62,-141"/>
<text text-anchor="start" x="580.38" y="-127.5" font-family="Helvetica,sans-Serif" font-size="10.00">boost/preprocessor</text>
<text text-anchor="middle" x="622" y="-116.25" font-family="Helvetica,sans-Serif" font-size="10.00">/logical.hpp</text>
</a>
</g>
</g>
<!-- Node22&#45;&gt;Node26 -->
<g id="edge35_Node000022_Node000026" class="edge">
<title>Node22&#45;&gt;Node26</title>
<g id="a_edge35_Node000022_Node000026"><a xlink:title=" ">
<path fill="none" stroke="#63b8ff" d="M576.39,-176.61C583.63,-168.7 592.74,-158.74 600.91,-149.8"/>
<polygon fill="#63b8ff" stroke="#63b8ff" points="603.48,-152.19 607.64,-142.44 598.31,-147.46 603.48,-152.19"/>
</a>
</g>
</g>
<!-- Node27 -->
<g id="Node000027" class="node">
<title>Node27</title>
<g id="a_Node000027"><a xlink:title=" ">
<polygon fill="#e0e0e0" stroke="#999999" points="788.62,-141 689.38,-141 689.38,-110.5 788.62,-110.5 788.62,-141"/>
<text text-anchor="start" x="697.38" y="-127.5" font-family="Helvetica,sans-Serif" font-size="10.00">boost/preprocessor</text>
<text text-anchor="middle" x="739" y="-116.25" font-family="Helvetica,sans-Serif" font-size="10.00">/stringize.hpp</text>
</a>
</g>
</g>
<!-- Node22&#45;&gt;Node27 -->
<g id="edge36_Node000022_Node000027" class="edge">
<title>Node22&#45;&gt;Node27</title>
<g id="a_edge36_Node000022_Node000027"><a xlink:title=" ">
<path fill="none" stroke="#63b8ff" d="M602.94,-176.61C628.28,-167.33 661.28,-155.23 688.44,-145.28"/>
<polygon fill="#63b8ff" stroke="#63b8ff" points="689.31,-148.69 697.5,-141.96 686.9,-142.12 689.31,-148.69"/>
</a>
</g>
</g>
<!-- Node28 -->
<g id="Node000028" class="node">
<title>Node28</title>
<g id="a_Node000028"><a xlink:title=" ">
<polygon fill="#e0e0e0" stroke="#999999" points="203.62,-141 104.38,-141 104.38,-110.5 203.62,-110.5 203.62,-141"/>
<text text-anchor="start" x="112.38" y="-127.5" font-family="Helvetica,sans-Serif" font-size="10.00">boost/preprocessor</text>
<text text-anchor="middle" x="154" y="-116.25" font-family="Helvetica,sans-Serif" font-size="10.00">/comparison.hpp</text>
</a>
</g>
</g>
<!-- Node22&#45;&gt;Node28 -->
<g id="edge37_Node000022_Node000028" class="edge">
<title>Node22&#45;&gt;Node28</title>
<g id="a_edge37_Node000022_Node000028"><a xlink:title=" ">
<path fill="none" stroke="#63b8ff" d="M492.9,-179.18C488.2,-178.42 483.53,-177.69 479,-177 364.21,-159.53 331.6,-163.07 215.08,-141.47"/>
<polygon fill="#63b8ff" stroke="#63b8ff" points="215.87,-138.06 205.4,-139.65 214.58,-144.94 215.87,-138.06"/>
</a>
</g>
</g>
<!-- Node29&#45;&gt;Node3 -->
<g id="edge47_Node000029_Node000003" class="edge">
<title>Node29&#45;&gt;Node3</title>
<g id="a_edge47_Node000029_Node000003"><a xlink:title=" ">
<path fill="none" stroke="#63b8ff" d="M1359.95,-300.41C1271.7,-289.83 1105.35,-269.88 1022.89,-259.99"/>
<polygon fill="#63b8ff" stroke="#63b8ff" points="1023.44,-256.53 1013.09,-258.81 1022.6,-263.48 1023.44,-256.53"/>
</a>
</g>
</g>
<!-- Node29&#45;&gt;Node7 -->
<g id="edge49_Node000029_Node000007" class="edge">
<title>Node29&#45;&gt;Node7</title>
<g id="a_edge49_Node000029_Node000007"><a xlink:title=" ">
<path fill="none" stroke="#63b8ff" d="M1415.1,-298.51C1408.21,-277.44 1390.25,-222.66 1375,-177 1371.63,-166.92 1367.85,-155.71 1364.7,-146.45"/>
<polygon fill="#63b8ff" stroke="#63b8ff" points="1368.05,-145.41 1361.52,-137.07 1361.42,-147.67 1368.05,-145.41"/>
</a>
</g>
</g>
<!-- Node29&#45;&gt;Node8 -->
<g id="edge50_Node000029_Node000008" class="edge">
<title>Node29&#45;&gt;Node8</title>
<g id="a_edge50_Node000029_Node000008"><a xlink:title=" ">
<path fill="none" stroke="#63b8ff" d="M1419.43,-298.55C1423.82,-268.11 1433.96,-166.34 1384,-110.5 1352.9,-75.74 1296.54,-67.37 1261.31,-65.73"/>
<polygon fill="#63b8ff" stroke="#63b8ff" points="1261.85,-62.24 1251.75,-65.45 1261.64,-69.24 1261.85,-62.24"/>
</a>
</g>
</g>
<!-- Node29&#45;&gt;Node12 -->
<g id="edge48_Node000029_Node000012" class="edge">
<title>Node29&#45;&gt;Node12</title>
<g id="a_edge48_Node000029_Node000012"><a xlink:title=" ">
<path fill="none" stroke="#63b8ff" d="M1410.7,-298.47C1403.67,-289.68 1392.97,-275.72 1385,-262.75 1362.69,-226.42 1365.38,-212.65 1342,-177 1334.42,-165.45 1324.58,-153.54 1316.32,-144.22"/>
<polygon fill="#63b8ff" stroke="#63b8ff" points="1319.07,-142.04 1309.76,-136.99 1313.89,-146.75 1319.07,-142.04"/>
</a>
</g>
</g>
<!-- Node29&#45;&gt;Node30 -->
<g id="edge40_Node000029_Node000030" class="edge">
<title>Node29&#45;&gt;Node30</title>
<g id="a_edge40_Node000029_Node000030"><a xlink:title=" ">
<path fill="none" stroke="#63b8ff" d="M1441.92,-298.34C1464.5,-289.81 1498.64,-276.92 1524.23,-267.26"/>
<polygon fill="#63b8ff" stroke="#63b8ff" points="1525.43,-270.54 1533.55,-263.74 1522.96,-264 1525.43,-270.54"/>
</a>
</g>
</g>
<!-- Node31 -->
<g id="Node000031" class="node">
<title>Node31</title>
<g id="a_Node000031"><a xlink:href="InfoCollector_8hpp.html" target="_top" xlink:title=" ">
<polygon fill="white" stroke="#666666" points="1719.38,-135.38 1588.62,-135.38 1588.62,-116.12 1719.38,-116.12 1719.38,-135.38"/>
<text text-anchor="middle" x="1654" y="-121.88" font-family="Helvetica,sans-Serif" font-size="10.00">opmonlib/InfoCollector.hpp</text>
</a>
</g>
</g>
<!-- Node29&#45;&gt;Node31 -->
<g id="edge41_Node000029_Node000031" class="edge">
<title>Node29&#45;&gt;Node31</title>
<g id="a_edge41_Node000029_Node000031"><a xlink:title=" ">
<path fill="none" stroke="#63b8ff" d="M1428.14,-298.47C1442.54,-285.91 1469.85,-262.42 1494,-243.5 1542.11,-205.8 1600.56,-164.16 1631.78,-142.23"/>
<polygon fill="#63b8ff" stroke="#63b8ff" points="1633.49,-145.31 1639.68,-136.71 1629.48,-139.57 1633.49,-145.31"/>
</a>
</g>
</g>
<!-- Node35 -->
<g id="Node000035" class="node">
<title>Node35</title>
<g id="a_Node000035"><a xlink:title=" ">
<polygon fill="#e0e0e0" stroke="#999999" points="1332.88,-262.75 1283.12,-262.75 1283.12,-243.5 1332.88,-243.5 1332.88,-262.75"/>
<text text-anchor="middle" x="1308" y="-249.25" font-family="Helvetica,sans-Serif" font-size="10.00">typeinfo</text>
</a>
</g>
</g>
<!-- Node29&#45;&gt;Node35 -->
<g id="edge51_Node000029_Node000035" class="edge">
<title>Node29&#45;&gt;Node35</title>
<g id="a_edge51_Node000029_Node000035"><a xlink:title=" ">
<path fill="none" stroke="#63b8ff" d="M1399.34,-298.34C1382.27,-290.08 1356.76,-277.73 1337.03,-268.18"/>
<polygon fill="#63b8ff" stroke="#63b8ff" points="1338.64,-265.07 1328.11,-263.86 1335.59,-271.37 1338.64,-265.07"/>
</a>
</g>
</g>
<!-- Node31&#45;&gt;Node8 -->
<g id="edge45_Node000031_Node000008" class="edge">
<title>Node31&#45;&gt;Node8</title>
<g id="a_edge45_Node000031_Node000008"><a xlink:title=" ">
<path fill="none" stroke="#63b8ff" d="M1605.6,-115.63C1595.5,-113.83 1584.92,-112.03 1575,-110.5 1459.73,-92.66 1322.04,-76.34 1261.35,-69.4"/>
<polygon fill="#63b8ff" stroke="#63b8ff" points="1262.11,-65.96 1251.77,-68.31 1261.31,-72.92 1262.11,-65.96"/>
</a>
</g>
</g>
<!-- Node31&#45;&gt;Node9 -->
<g id="edge44_Node000031_Node000009" class="edge">
<title>Node31&#45;&gt;Node9</title>
<g id="a_edge44_Node000031_Node000009"><a xlink:title=" ">
<path fill="none" stroke="#63b8ff" d="M1675.13,-115.79C1702.99,-102.78 1746.11,-77.78 1725,-55.25 1680.86,-8.13 1218.78,-8.88 1081.35,-10.16"/>
<polygon fill="#63b8ff" stroke="#63b8ff" points="1081.65,-6.65 1071.69,-10.25 1081.72,-13.65 1081.65,-6.65"/>
</a>
</g>
</g>
<!-- Node32 -->
<g id="Node000032" class="node">
<title>Node32</title>
<g id="a_Node000032"><a xlink:title=" ">
<polygon fill="#e0e0e0" stroke="#999999" points="1515.5,-74.5 1418.5,-74.5 1418.5,-55.25 1515.5,-55.25 1515.5,-74.5"/>
<text text-anchor="middle" x="1467" y="-61" font-family="Helvetica,sans-Serif" font-size="10.00">nlohmann/json.hpp</text>
</a>
</g>
</g>
<!-- Node31&#45;&gt;Node32 -->
<g id="edge42_Node000031_Node000032" class="edge">
<title>Node31&#45;&gt;Node32</title>
<g id="a_edge42_Node000031_Node000032"><a xlink:title=" ">
<path fill="none" stroke="#63b8ff" d="M1625.19,-115.68C1593.48,-105.7 1542.3,-89.58 1506.78,-78.4"/>
<polygon fill="#63b8ff" stroke="#63b8ff" points="1507.87,-75.07 1497.29,-75.41 1505.77,-81.75 1507.87,-75.07"/>
</a>
</g>
</g>
<!-- Node33 -->
<g id="Node000033" class="node">
<title>Node33</title>
<g id="a_Node000033"><a xlink:title=" ">
<polygon fill="#e0e0e0" stroke="#999999" points="1574,-74.5 1534,-74.5 1534,-55.25 1574,-55.25 1574,-74.5"/>
<text text-anchor="middle" x="1554" y="-61" font-family="Helvetica,sans-Serif" font-size="10.00">ctime</text>
</a>
</g>
</g>
<!-- Node31&#45;&gt;Node33 -->
<g id="edge43_Node000031_Node000033" class="edge">
<title>Node31&#45;&gt;Node33</title>
<g id="a_edge43_Node000031_Node000033"><a xlink:title=" ">
<path fill="none" stroke="#63b8ff" d="M1638.81,-115.81C1622.95,-106.47 1597.82,-91.67 1579.02,-80.61"/>
<polygon fill="#63b8ff" stroke="#63b8ff" points="1581.03,-77.73 1570.64,-75.67 1577.48,-83.76 1581.03,-77.73"/>
</a>
</g>
</g>
<!-- Node34 -->
<g id="Node000034" class="node">
<title>Node34</title>
<g id="a_Node000034"><a xlink:href="JSONTags_8hpp.html" target="_top" xlink:title=" ">
<polygon fill="white" stroke="#666666" points="1716.38,-74.5 1591.62,-74.5 1591.62,-55.25 1716.38,-55.25 1716.38,-74.5"/>
<text text-anchor="middle" x="1654" y="-61" font-family="Helvetica,sans-Serif" font-size="10.00">opmonlib/JSONTags.hpp</text>
</a>
</g>
</g>
<!-- Node31&#45;&gt;Node34 -->
<g id="edge46_Node000031_Node000034" class="edge">
<title>Node31&#45;&gt;Node34</title>
<g id="a_edge46_Node000031_Node000034"><a xlink:title=" ">
<path fill="none" stroke="#63b8ff" d="M1654,-115.81C1654,-108.03 1654,-96.45 1654,-86.41"/>
<polygon fill="#63b8ff" stroke="#63b8ff" points="1657.5,-86.41 1654,-76.41 1650.5,-86.41 1657.5,-86.41"/>
</a>
</g>
</g>
</g>
</svg>
