<?xml version="1.0" encoding="UTF-8" standalone="no"?>
<!DOCTYPE svg PUBLIC "-//W3C//DTD SVG 1.1//EN"
 "http://www.w3.org/Graphics/SVG/1.1/DTD/svg11.dtd">
<!-- Generated by graphviz version 9.0.0 (20230911.1827)
 -->
<!-- Title: /github/workspace/dev_area/build/hdf5libs/codegen/include/hdf5libs/hdf5rawdatafile/Structs.hpp Pages: 1 -->
<svg width="895pt" height="317pt"
 viewBox="0.00 0.00 895.00 316.75" xmlns="http://www.w3.org/2000/svg" xmlns:xlink="http://www.w3.org/1999/xlink">
<g id="graph0" class="graph" transform="scale(1 1) rotate(0) translate(4 312.75)">
<title>/github/workspace/dev_area/build/hdf5libs/codegen/include/hdf5libs/hdf5rawdatafile/Structs.hpp</title>
<!-- Node1 -->
<g id="Node000001" class="node">
<title>Node1</title>
<g id="a_Node000001"><a xlink:title=" ">
<polygon fill="#999999" stroke="#666666" points="379.12,-308.75 242.38,-308.75 242.38,-255.75 379.12,-255.75 379.12,-308.75"/>
<text text-anchor="start" x="250.38" y="-295.25" font-family="Helvetica,sans-Serif" font-size="10.00">/github/workspace/dev</text>
<text text-anchor="start" x="250.38" y="-284" font-family="Helvetica,sans-Serif" font-size="10.00">_area/build/hdf5libs</text>
<text text-anchor="start" x="250.38" y="-272.75" font-family="Helvetica,sans-Serif" font-size="10.00">/codegen/include/hdf5libs</text>
<text text-anchor="middle" x="310.75" y="-261.5" font-family="Helvetica,sans-Serif" font-size="10.00">/hdf5rawdatafile/Structs.hpp</text>
</a>
</g>
</g>
<!-- Node2 -->
<g id="Node000002" class="node">
<title>Node2</title>
<g id="a_Node000002"><a xlink:href="dfmodules_2codegen_2include_2dfmodules_2hdf5datastore_2Structs_8hpp.html" target="_top" xlink:title=" ">
<polygon fill="white" stroke="#666666" points="137.5,-219.75 0,-219.75 0,-166.75 137.5,-166.75 137.5,-219.75"/>
<text text-anchor="start" x="8" y="-206.25" font-family="Helvetica,sans-Serif" font-size="10.00">/github/workspace/dev</text>
<text text-anchor="start" x="8" y="-195" font-family="Helvetica,sans-Serif" font-size="10.00">_area/build/dfmodules</text>
<text text-anchor="start" x="8" y="-183.75" font-family="Helvetica,sans-Serif" font-size="10.00">/codegen/include/dfmodules</text>
<text text-anchor="middle" x="68.75" y="-172.5" font-family="Helvetica,sans-Serif" font-size="10.00">/hdf5datastore/Structs.hpp</text>
</a>
</g>
</g>
<!-- Node1&#45;&gt;Node2 -->
<g id="edge1_Node000001_Node000002" class="edge">
<title>Node1&#45;&gt;Node2</title>
<g id="a_edge1_Node000001_Node000002"><a xlink:title=" ">
<path fill="none" stroke="#63b8ff" d="M231.51,-252.76C201.19,-241.86 166.89,-229.53 137.62,-219.01"/>
<polygon fill="#63b8ff" stroke="#63b8ff" points="230.03,-255.95 240.63,-256.04 232.4,-249.36 230.03,-255.95"/>
</a>
</g>
</g>
<!-- Node4 -->
<g id="Node000004" class="node">
<title>Node4</title>
<g id="a_Node000004"><a xlink:href="hdf5libs_2codegen_2include_2hdf5libs_2hdf5rawdatafile_2Nljs_8hpp.html" target="_top" xlink:title=" ">
<polygon fill="white" stroke="#666666" points="281.88,-219.75 155.62,-219.75 155.62,-166.75 281.88,-166.75 281.88,-219.75"/>
<text text-anchor="start" x="163.62" y="-206.25" font-family="Helvetica,sans-Serif" font-size="10.00">/github/workspace/dev</text>
<text text-anchor="start" x="163.62" y="-195" font-family="Helvetica,sans-Serif" font-size="10.00">_area/build/hdf5libs</text>
<text text-anchor="start" x="163.62" y="-183.75" font-family="Helvetica,sans-Serif" font-size="10.00">/codegen/include/hdf5libs</text>
<text text-anchor="middle" x="218.75" y="-172.5" font-family="Helvetica,sans-Serif" font-size="10.00">/hdf5rawdatafile/Nljs.hpp</text>
</a>
</g>
</g>
<!-- Node1&#45;&gt;Node4 -->
<g id="edge3_Node000001_Node000004" class="edge">
<title>Node1&#45;&gt;Node4</title>
<g id="a_edge3_Node000001_Node000004"><a xlink:title=" ">
<path fill="none" stroke="#63b8ff" d="M275.31,-247.74C265.57,-238.53 255.17,-228.69 245.98,-220"/>
<polygon fill="#63b8ff" stroke="#63b8ff" points="272.87,-250.25 282.54,-254.58 277.68,-245.16 272.87,-250.25"/>
</a>
</g>
</g>
<!-- Node6 -->
<g id="Node000006" class="node">
<title>Node6</title>
<g id="a_Node000006"><a xlink:href="HDF5RawDataFile_8hpp.html" target="_top" xlink:title=" ">
<polygon fill="white" stroke="#666666" points="615,-125.12 426.5,-125.12 426.5,-83.38 615,-83.38 615,-125.12"/>
<text text-anchor="start" x="434.5" y="-111.62" font-family="Helvetica,sans-Serif" font-size="10.00">/github/workspace/dev</text>
<text text-anchor="start" x="434.5" y="-100.38" font-family="Helvetica,sans-Serif" font-size="10.00">_area/sourcecode/hdf5libs</text>
<text text-anchor="middle" x="520.75" y="-89.12" font-family="Helvetica,sans-Serif" font-size="10.00">/include/hdf5libs/HDF5RawDataFile.hpp</text>
</a>
</g>
</g>
<!-- Node1&#45;&gt;Node6 -->
<g id="edge6_Node000001_Node000006" class="edge">
<title>Node1&#45;&gt;Node6</title>
<g id="a_edge6_Node000001_Node000006"><a xlink:title=" ">
<path fill="none" stroke="#63b8ff" d="M390.52,-267.33C441.48,-256.66 500.89,-240.28 516.75,-219.75 537.67,-192.68 532.28,-150.3 526.5,-125.4"/>
<polygon fill="#63b8ff" stroke="#63b8ff" points="390.03,-263.85 380.94,-269.28 391.43,-270.71 390.03,-263.85"/>
</a>
</g>
</g>
<!-- Node12 -->
<g id="Node000012" class="node">
<title>Node12</title>
<g id="a_Node000012"><a xlink:href="HDF5SourceIDHandler_8hpp.html" target="_top" xlink:title=" ">
<polygon fill="white" stroke="#666666" points="507.38,-214.12 300.12,-214.12 300.12,-172.38 507.38,-172.38 507.38,-214.12"/>
<text text-anchor="start" x="308.12" y="-200.62" font-family="Helvetica,sans-Serif" font-size="10.00">/github/workspace/dev</text>
<text text-anchor="start" x="308.12" y="-189.38" font-family="Helvetica,sans-Serif" font-size="10.00">_area/sourcecode/hdf5libs</text>
<text text-anchor="middle" x="403.75" y="-178.12" font-family="Helvetica,sans-Serif" font-size="10.00">/include/hdf5libs/HDF5SourceIDHandler.hpp</text>
</a>
</g>
</g>
<!-- Node1&#45;&gt;Node12 -->
<g id="edge12_Node000001_Node000012" class="edge">
<title>Node1&#45;&gt;Node12</title>
<g id="a_edge12_Node000001_Node000012"><a xlink:title=" ">
<path fill="none" stroke="#63b8ff" d="M346.54,-247.77C358.59,-236.49 371.66,-224.27 382.26,-214.36"/>
<polygon fill="#63b8ff" stroke="#63b8ff" points="344.42,-244.96 339.51,-254.35 349.2,-250.07 344.42,-244.96"/>
</a>
</g>
</g>
<!-- Node3 -->
<g id="Node000003" class="node">
<title>Node3</title>
<g id="a_Node000003"><a xlink:href="dfmodules_2codegen_2include_2dfmodules_2hdf5datastore_2Nljs_8hpp.html" target="_top" xlink:title=" ">
<polygon fill="white" stroke="#666666" points="194.5,-130.75 57,-130.75 57,-77.75 194.5,-77.75 194.5,-130.75"/>
<text text-anchor="start" x="65" y="-117.25" font-family="Helvetica,sans-Serif" font-size="10.00">/github/workspace/dev</text>
<text text-anchor="start" x="65" y="-106" font-family="Helvetica,sans-Serif" font-size="10.00">_area/build/dfmodules</text>
<text text-anchor="start" x="65" y="-94.75" font-family="Helvetica,sans-Serif" font-size="10.00">/codegen/include/dfmodules</text>
<text text-anchor="middle" x="125.75" y="-83.5" font-family="Helvetica,sans-Serif" font-size="10.00">/hdf5datastore/Nljs.hpp</text>
</a>
</g>
</g>
<!-- Node2&#45;&gt;Node3 -->
<g id="edge2_Node000002_Node000003" class="edge">
<title>Node2&#45;&gt;Node3</title>
<g id="a_edge2_Node000002_Node000003"><a xlink:title=" ">
<path fill="none" stroke="#63b8ff" d="M91.81,-157.05C97.52,-148.34 103.53,-139.17 108.88,-131"/>
<polygon fill="#63b8ff" stroke="#63b8ff" points="88.93,-155.07 86.37,-165.35 94.78,-158.91 88.93,-155.07"/>
</a>
</g>
</g>
<!-- Node4&#45;&gt;Node3 -->
<g id="edge4_Node000004_Node000003" class="edge">
<title>Node4&#45;&gt;Node3</title>
<g id="a_edge4_Node000004_Node000003"><a xlink:title=" ">
<path fill="none" stroke="#63b8ff" d="M182.76,-158.58C173.03,-149.48 162.65,-139.77 153.46,-131.17"/>
<polygon fill="#63b8ff" stroke="#63b8ff" points="180.3,-161.07 189.99,-165.35 185.08,-155.96 180.3,-161.07"/>
</a>
</g>
</g>
<!-- Node5 -->
<g id="Node000005" class="node">
<title>Node5</title>
<g id="a_Node000005"><a xlink:href="HDF5SourceIDHandler_8cpp.html" target="_top" xlink:title=" ">
<polygon fill="white" stroke="#666666" points="394.38,-125.12 241.12,-125.12 241.12,-83.38 394.38,-83.38 394.38,-125.12"/>
<text text-anchor="start" x="249.12" y="-111.62" font-family="Helvetica,sans-Serif" font-size="10.00">/github/workspace/dev</text>
<text text-anchor="start" x="249.12" y="-100.38" font-family="Helvetica,sans-Serif" font-size="10.00">_area/sourcecode/hdf5libs</text>
<text text-anchor="middle" x="317.75" y="-89.12" font-family="Helvetica,sans-Serif" font-size="10.00">/src/HDF5SourceIDHandler.cpp</text>
</a>
</g>
</g>
<!-- Node4&#45;&gt;Node5 -->
<g id="edge5_Node000004_Node000005" class="edge">
<title>Node4&#45;&gt;Node5</title>
<g id="a_edge5_Node000004_Node000005"><a xlink:title=" ">
<path fill="none" stroke="#63b8ff" d="M256.48,-159.09C269.41,-147.73 283.48,-135.37 294.87,-125.36"/>
<polygon fill="#63b8ff" stroke="#63b8ff" points="254.52,-156.15 249.32,-165.38 259.14,-161.41 254.52,-156.15"/>
</a>
</g>
</g>
<!-- Node7 -->
<g id="Node000007" class="node">
<title>Node7</title>
<g id="a_Node000007"><a xlink:href="hdf5rawdatafile_8cpp.html" target="_top" xlink:title=" ">
<polygon fill="white" stroke="#666666" points="285,-41.75 138.5,-41.75 138.5,0 285,0 285,-41.75"/>
<text text-anchor="start" x="146.5" y="-28.25" font-family="Helvetica,sans-Serif" font-size="10.00">/github/workspace/dev</text>
<text text-anchor="start" x="146.5" y="-17" font-family="Helvetica,sans-Serif" font-size="10.00">_area/sourcecode/hdf5libs</text>
<text text-anchor="middle" x="211.75" y="-5.75" font-family="Helvetica,sans-Serif" font-size="10.00">/pybindsrc/hdf5rawdatafile.cpp</text>
</a>
</g>
</g>
<!-- Node6&#45;&gt;Node7 -->
<g id="edge7_Node000006_Node000007" class="edge">
<title>Node6&#45;&gt;Node7</title>
<g id="a_edge7_Node000006_Node000007"><a xlink:title=" ">
<path fill="none" stroke="#63b8ff" d="M432.57,-80.03C385.99,-67.76 329.48,-52.88 285.29,-41.24"/>
<polygon fill="#63b8ff" stroke="#63b8ff" points="431.55,-83.38 442.11,-82.54 433.33,-76.61 431.55,-83.38"/>
</a>
</g>
</g>
<!-- Node8 -->
<g id="Node000008" class="node">
<title>Node8</title>
<g id="a_Node000008"><a xlink:href="HDF5RawDataFile_8cpp.html" target="_top" xlink:title=" ">
<polygon fill="white" stroke="#666666" points="438,-41.75 303.5,-41.75 303.5,0 438,0 438,-41.75"/>
<text text-anchor="start" x="311.5" y="-28.25" font-family="Helvetica,sans-Serif" font-size="10.00">/github/workspace/dev</text>
<text text-anchor="start" x="311.5" y="-17" font-family="Helvetica,sans-Serif" font-size="10.00">_area/sourcecode/hdf5libs</text>
<text text-anchor="middle" x="370.75" y="-5.75" font-family="Helvetica,sans-Serif" font-size="10.00">/src/HDF5RawDataFile.cpp</text>
</a>
</g>
</g>
<!-- Node6&#45;&gt;Node8 -->
<g id="edge8_Node000006_Node000008" class="edge">
<title>Node6&#45;&gt;Node8</title>
<g id="a_edge8_Node000006_Node000008"><a xlink:title=" ">
<path fill="none" stroke="#63b8ff" d="M473.28,-77.5C452.29,-66.11 427.95,-52.91 408.26,-42.22"/>
<polygon fill="#63b8ff" stroke="#63b8ff" points="471.5,-80.51 481.96,-82.2 474.83,-74.36 471.5,-80.51"/>
</a>
</g>
</g>
<!-- Node9 -->
<g id="Node000009" class="node">
<title>Node9</title>
<g id="a_Node000009"><a xlink:href="copy__tpstream_8cxx.html" target="_top" xlink:title=" ">
<polygon fill="white" stroke="#666666" points="585,-41.75 456.5,-41.75 456.5,0 585,0 585,-41.75"/>
<text text-anchor="start" x="464.5" y="-28.25" font-family="Helvetica,sans-Serif" font-size="10.00">/github/workspace/dev</text>
<text text-anchor="start" x="464.5" y="-17" font-family="Helvetica,sans-Serif" font-size="10.00">_area/sourcecode/trgtools</text>
<text text-anchor="middle" x="520.75" y="-5.75" font-family="Helvetica,sans-Serif" font-size="10.00">/apps/copy_tpstream.cxx</text>
</a>
</g>
</g>
<!-- Node6&#45;&gt;Node9 -->
<g id="edge9_Node000006_Node000009" class="edge">
<title>Node6&#45;&gt;Node9</title>
<g id="a_edge9_Node000006_Node000009"><a xlink:title=" ">
<path fill="none" stroke="#63b8ff" d="M520.75,-71.89C520.75,-61.87 520.75,-51.05 520.75,-42.04"/>
<polygon fill="#63b8ff" stroke="#63b8ff" points="517.25,-71.62 520.75,-81.62 524.25,-71.62 517.25,-71.62"/>
</a>
</g>
</g>
<!-- Node10 -->
<g id="Node000010" class="node">
<title>Node10</title>
<g id="a_Node000010"><a xlink:href="process__tpstream_8cxx.html" target="_top" xlink:title=" ">
<polygon fill="white" stroke="#666666" points="740.5,-41.75 603,-41.75 603,0 740.5,0 740.5,-41.75"/>
<text text-anchor="start" x="611" y="-28.25" font-family="Helvetica,sans-Serif" font-size="10.00">/github/workspace/dev</text>
<text text-anchor="start" x="611" y="-17" font-family="Helvetica,sans-Serif" font-size="10.00">_area/sourcecode/trgtools</text>
<text text-anchor="middle" x="671.75" y="-5.75" font-family="Helvetica,sans-Serif" font-size="10.00">/apps/process_tpstream.cxx</text>
</a>
</g>
</g>
<!-- Node6&#45;&gt;Node10 -->
<g id="edge10_Node000006_Node000010" class="edge">
<title>Node6&#45;&gt;Node10</title>
<g id="a_edge10_Node000006_Node000010"><a xlink:title=" ">
<path fill="none" stroke="#63b8ff" d="M568.53,-77.5C589.67,-66.11 614.17,-52.91 633.99,-42.22"/>
<polygon fill="#63b8ff" stroke="#63b8ff" points="566.94,-74.38 559.8,-82.21 570.26,-80.54 566.94,-74.38"/>
</a>
</g>
</g>
<!-- Node11 -->
<g id="Node000011" class="node">
<title>Node11</title>
<g id="a_Node000011"><a xlink:href="tapipe_8cxx.html" target="_top" xlink:title=" ">
<polygon fill="white" stroke="#666666" points="887,-41.75 758.5,-41.75 758.5,0 887,0 887,-41.75"/>
<text text-anchor="start" x="766.5" y="-28.25" font-family="Helvetica,sans-Serif" font-size="10.00">/github/workspace/dev</text>
<text text-anchor="start" x="766.5" y="-17" font-family="Helvetica,sans-Serif" font-size="10.00">_area/sourcecode/trgtools</text>
<text text-anchor="middle" x="822.75" y="-5.75" font-family="Helvetica,sans-Serif" font-size="10.00">/apps/tapipe.cxx</text>
</a>
</g>
</g>
<!-- Node6&#45;&gt;Node11 -->
<g id="edge11_Node000006_Node000011" class="edge">
<title>Node6&#45;&gt;Node11</title>
<g id="a_edge11_Node000006_Node000011"><a xlink:title=" ">
<path fill="none" stroke="#63b8ff" d="M607.78,-79.95C650.56,-68.48 702.87,-54.43 749.75,-41.75 752.54,-41 755.39,-40.22 758.27,-39.44"/>
<polygon fill="#63b8ff" stroke="#63b8ff" points="607.05,-76.52 598.3,-82.49 608.87,-83.28 607.05,-76.52"/>
</a>
</g>
</g>
<!-- Node12&#45;&gt;Node5 -->
<g id="edge14_Node000012_Node000005" class="edge">
<title>Node12&#45;&gt;Node5</title>
<g id="a_edge14_Node000012_Node000005"><a xlink:title=" ">
<path fill="none" stroke="#63b8ff" d="M375.98,-164.16C363.58,-151.61 349.24,-137.1 337.89,-125.62"/>
<polygon fill="#63b8ff" stroke="#63b8ff" points="373.22,-166.34 382.74,-171 378.2,-161.42 373.22,-166.34"/>
</a>
</g>
</g>
<!-- Node12&#45;&gt;Node6 -->
<g id="edge13_Node000012_Node000006" class="edge">
<title>Node12&#45;&gt;Node6</title>
<g id="a_edge13_Node000012_Node000006"><a xlink:title=" ">
<path fill="none" stroke="#63b8ff" d="M440.08,-165.23C457.28,-152.45 477.47,-137.43 493.36,-125.62"/>
<polygon fill="#63b8ff" stroke="#63b8ff" points="438.04,-162.39 432.1,-171.17 442.21,-168.01 438.04,-162.39"/>
</a>
</g>
</g>
</g>
</svg>
