<?xml version="1.0" encoding="UTF-8" standalone="no"?>
<!DOCTYPE svg PUBLIC "-//W3C//DTD SVG 1.1//EN"
 "http://www.w3.org/Graphics/SVG/1.1/DTD/svg11.dtd">
<!-- Generated by graphviz version 9.0.0 (20230911.1827)
 -->
<!-- Title: /github/workspace/dev_area/build/hdf5libs/codegen/include/hdf5libs/hdf5rawdatafile/Nljs.hpp Pages: 1 -->
<svg width="242pt" height="183pt"
 viewBox="0.00 0.00 241.50 182.75" xmlns="http://www.w3.org/2000/svg" xmlns:xlink="http://www.w3.org/1999/xlink">
<g id="graph0" class="graph" transform="scale(1 1) rotate(0) translate(4 178.75)">
<title>/github/workspace/dev_area/build/hdf5libs/codegen/include/hdf5libs/hdf5rawdatafile/Nljs.hpp</title>
<!-- Node1 -->
<g id="Node000001" class="node">
<title>Node1</title>
<g id="a_Node000001"><a xlink:title=" ">
<polygon fill="#999999" stroke="#666666" points="185.12,-174.75 58.88,-174.75 58.88,-121.75 185.12,-121.75 185.12,-174.75"/>
<text text-anchor="start" x="66.88" y="-161.25" font-family="Helvetica,sans-Serif" font-size="10.00">/github/workspace/dev</text>
<text text-anchor="start" x="66.88" y="-150" font-family="Helvetica,sans-Serif" font-size="10.00">_area/build/hdf5libs</text>
<text text-anchor="start" x="66.88" y="-138.75" font-family="Helvetica,sans-Serif" font-size="10.00">/codegen/include/hdf5libs</text>
<text text-anchor="middle" x="122" y="-127.5" font-family="Helvetica,sans-Serif" font-size="10.00">/hdf5rawdatafile/Nljs.hpp</text>
</a>
</g>
</g>
<!-- Node2 -->
<g id="Node000002" class="node">
<title>Node2</title>
<g id="a_Node000002"><a xlink:href="hdf5libs_2codegen_2include_2hdf5libs_2hdf5rawdatafile_2Structs_8hpp.html" target="_top" xlink:title=" ">
<polygon fill="white" stroke="#666666" points="118,-85.75 0,-85.75 0,-55.25 118,-55.25 118,-85.75"/>
<text text-anchor="start" x="8" y="-72.25" font-family="Helvetica,sans-Serif" font-size="10.00">hdf5libs/hdf5rawdatafile</text>
<text text-anchor="middle" x="59" y="-61" font-family="Helvetica,sans-Serif" font-size="10.00">/Structs.hpp</text>
</a>
</g>
</g>
<!-- Node1&#45;&gt;Node2 -->
<g id="edge1_Node000001_Node000002" class="edge">
<title>Node1&#45;&gt;Node2</title>
<g id="a_edge1_Node000001_Node000002"><a xlink:title=" ">
<path fill="none" stroke="#63b8ff" d="M100.67,-121.6C93.44,-112.9 85.4,-103.24 78.33,-94.74"/>
<polygon fill="#63b8ff" stroke="#63b8ff" points="81.17,-92.69 72.09,-87.24 75.79,-97.16 81.17,-92.69"/>
</a>
</g>
</g>
<!-- Node5 -->
<g id="Node000005" class="node">
<title>Node5</title>
<g id="a_Node000005"><a xlink:title=" ">
<polygon fill="#e0e0e0" stroke="#999999" points="233.5,-80.12 136.5,-80.12 136.5,-60.88 233.5,-60.88 233.5,-80.12"/>
<text text-anchor="middle" x="185" y="-66.62" font-family="Helvetica,sans-Serif" font-size="10.00">nlohmann/json.hpp</text>
</a>
</g>
</g>
<!-- Node1&#45;&gt;Node5 -->
<g id="edge4_Node000001_Node000005" class="edge">
<title>Node1&#45;&gt;Node5</title>
<g id="a_edge4_Node000001_Node000005"><a xlink:title=" ">
<path fill="none" stroke="#63b8ff" d="M143.33,-121.6C152.22,-110.92 162.32,-98.77 170.35,-89.12"/>
<polygon fill="#63b8ff" stroke="#63b8ff" points="172.89,-91.53 176.6,-81.6 167.51,-87.05 172.89,-91.53"/>
</a>
</g>
</g>
<!-- Node3 -->
<g id="Node000003" class="node">
<title>Node3</title>
<g id="a_Node000003"><a xlink:title=" ">
<polygon fill="#e0e0e0" stroke="#999999" points="50.62,-19.25 5.38,-19.25 5.38,0 50.62,0 50.62,-19.25"/>
<text text-anchor="middle" x="28" y="-5.75" font-family="Helvetica,sans-Serif" font-size="10.00">cstdint</text>
</a>
</g>
</g>
<!-- Node2&#45;&gt;Node3 -->
<g id="edge2_Node000002_Node000003" class="edge">
<title>Node2&#45;&gt;Node3</title>
<g id="a_edge2_Node000002_Node000003"><a xlink:title=" ">
<path fill="none" stroke="#63b8ff" d="M51.34,-54.95C47.34,-47.36 42.41,-37.99 38.11,-29.82"/>
<polygon fill="#63b8ff" stroke="#63b8ff" points="41.24,-28.26 33.48,-21.04 35.05,-31.52 41.24,-28.26"/>
</a>
</g>
</g>
<!-- Node4 -->
<g id="Node000004" class="node">
<title>Node4</title>
<g id="a_Node000004"><a xlink:title=" ">
<polygon fill="#e0e0e0" stroke="#999999" points="111.5,-19.25 68.5,-19.25 68.5,0 111.5,0 111.5,-19.25"/>
<text text-anchor="middle" x="90" y="-5.75" font-family="Helvetica,sans-Serif" font-size="10.00">vector</text>
</a>
</g>
</g>
<!-- Node2&#45;&gt;Node4 -->
<g id="edge3_Node000002_Node000004" class="edge">
<title>Node2&#45;&gt;Node4</title>
<g id="a_edge3_Node000002_Node000004"><a xlink:title=" ">
<path fill="none" stroke="#63b8ff" d="M66.66,-54.95C70.66,-47.36 75.59,-37.99 79.89,-29.82"/>
<polygon fill="#63b8ff" stroke="#63b8ff" points="82.95,-31.52 84.52,-21.04 76.76,-28.26 82.95,-31.52"/>
</a>
</g>
</g>
</g>
</svg>
