<?xml version="1.0" encoding="UTF-8" standalone="no"?>
<!DOCTYPE svg PUBLIC "-//W3C//DTD SVG 1.1//EN"
 "http://www.w3.org/Graphics/SVG/1.1/DTD/svg11.dtd">
<!-- Generated by graphviz version 9.0.0 (20230911.1827)
 -->
<!-- Title: /github/workspace/dev_area/build/hdf5libs/codegen/include/hdf5libs/hdf5filelayout/Structs.hpp Pages: 1 -->
<svg width="816pt" height="317pt"
 viewBox="0.00 0.00 816.00 316.75" xmlns="http://www.w3.org/2000/svg" xmlns:xlink="http://www.w3.org/1999/xlink">
<g id="graph0" class="graph" transform="scale(1 1) rotate(0) translate(4 312.75)">
<title>/github/workspace/dev_area/build/hdf5libs/codegen/include/hdf5libs/hdf5filelayout/Structs.hpp</title>
<!-- Node1 -->
<g id="Node000001" class="node">
<title>Node1</title>
<g id="a_Node000001"><a xlink:title=" ">
<polygon fill="#999999" stroke="#666666" points="327.62,-308.75 199.88,-308.75 199.88,-255.75 327.62,-255.75 327.62,-308.75"/>
<text text-anchor="start" x="207.88" y="-295.25" font-family="Helvetica,sans-Serif" font-size="10.00">/github/workspace/dev</text>
<text text-anchor="start" x="207.88" y="-284" font-family="Helvetica,sans-Serif" font-size="10.00">_area/build/hdf5libs</text>
<text text-anchor="start" x="207.88" y="-272.75" font-family="Helvetica,sans-Serif" font-size="10.00">/codegen/include/hdf5libs</text>
<text text-anchor="middle" x="263.75" y="-261.5" font-family="Helvetica,sans-Serif" font-size="10.00">/hdf5filelayout/Structs.hpp</text>
</a>
</g>
</g>
<!-- Node2 -->
<g id="Node000002" class="node">
<title>Node2</title>
<g id="a_Node000002"><a xlink:href="dfmodules_2codegen_2include_2dfmodules_2hdf5datastore_2Structs_8hpp.html" target="_top" xlink:title=" ">
<polygon fill="white" stroke="#666666" points="137.5,-219.75 0,-219.75 0,-166.75 137.5,-166.75 137.5,-219.75"/>
<text text-anchor="start" x="8" y="-206.25" font-family="Helvetica,sans-Serif" font-size="10.00">/github/workspace/dev</text>
<text text-anchor="start" x="8" y="-195" font-family="Helvetica,sans-Serif" font-size="10.00">_area/build/dfmodules</text>
<text text-anchor="start" x="8" y="-183.75" font-family="Helvetica,sans-Serif" font-size="10.00">/codegen/include/dfmodules</text>
<text text-anchor="middle" x="68.75" y="-172.5" font-family="Helvetica,sans-Serif" font-size="10.00">/hdf5datastore/Structs.hpp</text>
</a>
</g>
</g>
<!-- Node1&#45;&gt;Node2 -->
<g id="edge1_Node000001_Node000002" class="edge">
<title>Node1&#45;&gt;Node2</title>
<g id="a_edge1_Node000001_Node000002"><a xlink:title=" ">
<path fill="none" stroke="#63b8ff" d="M195.08,-250.61C172.74,-240.64 148.17,-229.68 126.69,-220.1"/>
<polygon fill="#63b8ff" stroke="#63b8ff" points="193.57,-253.77 204.13,-254.65 196.42,-247.38 193.57,-253.77"/>
</a>
</g>
</g>
<!-- Node4 -->
<g id="Node000004" class="node">
<title>Node4</title>
<g id="a_Node000004"><a xlink:href="hdf5libs_2codegen_2include_2hdf5libs_2hdf5filelayout_2Nljs_8hpp.html" target="_top" xlink:title=" ">
<polygon fill="white" stroke="#666666" points="281.88,-219.75 155.62,-219.75 155.62,-166.75 281.88,-166.75 281.88,-219.75"/>
<text text-anchor="start" x="163.62" y="-206.25" font-family="Helvetica,sans-Serif" font-size="10.00">/github/workspace/dev</text>
<text text-anchor="start" x="163.62" y="-195" font-family="Helvetica,sans-Serif" font-size="10.00">_area/build/hdf5libs</text>
<text text-anchor="start" x="163.62" y="-183.75" font-family="Helvetica,sans-Serif" font-size="10.00">/codegen/include/hdf5libs</text>
<text text-anchor="middle" x="218.75" y="-172.5" font-family="Helvetica,sans-Serif" font-size="10.00">/hdf5filelayout/Nljs.hpp</text>
</a>
</g>
</g>
<!-- Node1&#45;&gt;Node4 -->
<g id="edge3_Node000001_Node000004" class="edge">
<title>Node1&#45;&gt;Node4</title>
<g id="a_edge3_Node000001_Node000004"><a xlink:title=" ">
<path fill="none" stroke="#63b8ff" d="M245.25,-245.49C240.83,-236.95 236.2,-227.99 232.07,-220"/>
<polygon fill="#63b8ff" stroke="#63b8ff" points="242.09,-247 249.8,-254.27 248.31,-243.78 242.09,-247"/>
</a>
</g>
</g>
<!-- Node6 -->
<g id="Node000006" class="node">
<title>Node6</title>
<g id="a_Node000006"><a xlink:href="HDF5FileLayout_8hpp.html" target="_top" xlink:title=" ">
<polygon fill="white" stroke="#666666" points="515.75,-214.12 337.75,-214.12 337.75,-172.38 515.75,-172.38 515.75,-214.12"/>
<text text-anchor="start" x="345.75" y="-200.62" font-family="Helvetica,sans-Serif" font-size="10.00">/github/workspace/dev</text>
<text text-anchor="start" x="345.75" y="-189.38" font-family="Helvetica,sans-Serif" font-size="10.00">_area/sourcecode/hdf5libs</text>
<text text-anchor="middle" x="426.75" y="-178.12" font-family="Helvetica,sans-Serif" font-size="10.00">/include/hdf5libs/HDF5FileLayout.hpp</text>
</a>
</g>
</g>
<!-- Node1&#45;&gt;Node6 -->
<g id="edge6_Node000001_Node000006" class="edge">
<title>Node1&#45;&gt;Node6</title>
<g id="a_edge6_Node000001_Node000006"><a xlink:title=" ">
<path fill="none" stroke="#63b8ff" d="M322.2,-250.05C344.37,-238.22 369.02,-225.06 388.82,-214.5"/>
<polygon fill="#63b8ff" stroke="#63b8ff" points="320.72,-246.87 313.55,-254.67 324.02,-253.05 320.72,-246.87"/>
</a>
</g>
</g>
<!-- Node7 -->
<g id="Node000007" class="node">
<title>Node7</title>
<g id="a_Node000007"><a xlink:href="HDF5RawDataFile_8hpp.html" target="_top" xlink:title=" ">
<polygon fill="white" stroke="#666666" points="458,-125.12 269.5,-125.12 269.5,-83.38 458,-83.38 458,-125.12"/>
<text text-anchor="start" x="277.5" y="-111.62" font-family="Helvetica,sans-Serif" font-size="10.00">/github/workspace/dev</text>
<text text-anchor="start" x="277.5" y="-100.38" font-family="Helvetica,sans-Serif" font-size="10.00">_area/sourcecode/hdf5libs</text>
<text text-anchor="middle" x="363.75" y="-89.12" font-family="Helvetica,sans-Serif" font-size="10.00">/include/hdf5libs/HDF5RawDataFile.hpp</text>
</a>
</g>
</g>
<!-- Node1&#45;&gt;Node7 -->
<g id="edge14_Node000001_Node000007" class="edge">
<title>Node1&#45;&gt;Node7</title>
<g id="a_edge14_Node000001_Node000007"><a xlink:title=" ">
<path fill="none" stroke="#63b8ff" d="M284.04,-245.49C296.85,-222.91 313.76,-193.12 328.75,-166.75 336.58,-152.97 345.41,-137.46 352.24,-125.47"/>
<polygon fill="#63b8ff" stroke="#63b8ff" points="281.09,-243.58 279.2,-254.01 287.18,-247.04 281.09,-243.58"/>
</a>
</g>
</g>
<!-- Node3 -->
<g id="Node000003" class="node">
<title>Node3</title>
<g id="a_Node000003"><a xlink:href="dfmodules_2codegen_2include_2dfmodules_2hdf5datastore_2Nljs_8hpp.html" target="_top" xlink:title=" ">
<polygon fill="white" stroke="#666666" points="148.5,-130.75 11,-130.75 11,-77.75 148.5,-77.75 148.5,-130.75"/>
<text text-anchor="start" x="19" y="-117.25" font-family="Helvetica,sans-Serif" font-size="10.00">/github/workspace/dev</text>
<text text-anchor="start" x="19" y="-106" font-family="Helvetica,sans-Serif" font-size="10.00">_area/build/dfmodules</text>
<text text-anchor="start" x="19" y="-94.75" font-family="Helvetica,sans-Serif" font-size="10.00">/codegen/include/dfmodules</text>
<text text-anchor="middle" x="79.75" y="-83.5" font-family="Helvetica,sans-Serif" font-size="10.00">/hdf5datastore/Nljs.hpp</text>
</a>
</g>
</g>
<!-- Node2&#45;&gt;Node3 -->
<g id="edge2_Node000002_Node000003" class="edge">
<title>Node2&#45;&gt;Node3</title>
<g id="a_edge2_Node000002_Node000003"><a xlink:title=" ">
<path fill="none" stroke="#63b8ff" d="M73.41,-155.36C74.45,-147.16 75.53,-138.64 76.49,-131"/>
<polygon fill="#63b8ff" stroke="#63b8ff" points="69.96,-154.76 72.18,-165.12 76.91,-155.63 69.96,-154.76"/>
</a>
</g>
</g>
<!-- Node4&#45;&gt;Node3 -->
<g id="edge4_Node000004_Node000003" class="edge">
<title>Node4&#45;&gt;Node3</title>
<g id="a_edge4_Node000004_Node000003"><a xlink:title=" ">
<path fill="none" stroke="#63b8ff" d="M168.03,-160.5C152.62,-150.86 135.88,-140.38 121.16,-131.17"/>
<polygon fill="#63b8ff" stroke="#63b8ff" points="165.81,-163.24 176.14,-165.58 169.52,-157.31 165.81,-163.24"/>
</a>
</g>
</g>
<!-- Node5 -->
<g id="Node000005" class="node">
<title>Node5</title>
<g id="a_Node000005"><a xlink:href="HDF5RawDataFile_8cpp.html" target="_top" xlink:title=" ">
<polygon fill="white" stroke="#666666" points="194,-41.75 59.5,-41.75 59.5,0 194,0 194,-41.75"/>
<text text-anchor="start" x="67.5" y="-28.25" font-family="Helvetica,sans-Serif" font-size="10.00">/github/workspace/dev</text>
<text text-anchor="start" x="67.5" y="-17" font-family="Helvetica,sans-Serif" font-size="10.00">_area/sourcecode/hdf5libs</text>
<text text-anchor="middle" x="126.75" y="-5.75" font-family="Helvetica,sans-Serif" font-size="10.00">/src/HDF5RawDataFile.cpp</text>
</a>
</g>
</g>
<!-- Node4&#45;&gt;Node5 -->
<g id="edge5_Node000004_Node000005" class="edge">
<title>Node4&#45;&gt;Node5</title>
<g id="a_edge5_Node000004_Node000005"><a xlink:title=" ">
<path fill="none" stroke="#63b8ff" d="M199.7,-156.11C187.75,-133.53 171.96,-103.89 157.75,-77.75 151.29,-65.86 143.94,-52.61 138.03,-42"/>
<polygon fill="#63b8ff" stroke="#63b8ff" points="196.59,-157.72 204.36,-164.92 202.78,-154.45 196.59,-157.72"/>
</a>
</g>
</g>
<!-- Node6&#45;&gt;Node7 -->
<g id="edge7_Node000006_Node000007" class="edge">
<title>Node6&#45;&gt;Node7</title>
<g id="a_edge7_Node000006_Node000007"><a xlink:title=" ">
<path fill="none" stroke="#63b8ff" d="M405.63,-163.08C396.73,-150.79 386.58,-136.77 378.5,-125.62"/>
<polygon fill="#63b8ff" stroke="#63b8ff" points="402.55,-164.8 411.25,-170.85 408.22,-160.69 402.55,-164.8"/>
</a>
</g>
</g>
<!-- Node12 -->
<g id="Node000012" class="node">
<title>Node12</title>
<g id="a_Node000012"><a xlink:href="HDF5FileLayout_8cpp.html" target="_top" xlink:title=" ">
<polygon fill="white" stroke="#666666" points="605.75,-125.12 475.75,-125.12 475.75,-83.38 605.75,-83.38 605.75,-125.12"/>
<text text-anchor="start" x="483.75" y="-111.62" font-family="Helvetica,sans-Serif" font-size="10.00">/github/workspace/dev</text>
<text text-anchor="start" x="483.75" y="-100.38" font-family="Helvetica,sans-Serif" font-size="10.00">_area/sourcecode/hdf5libs</text>
<text text-anchor="middle" x="540.75" y="-89.12" font-family="Helvetica,sans-Serif" font-size="10.00">/src/HDF5FileLayout.cpp</text>
</a>
</g>
</g>
<!-- Node6&#45;&gt;Node12 -->
<g id="edge13_Node000006_Node000012" class="edge">
<title>Node6&#45;&gt;Node12</title>
<g id="a_edge13_Node000006_Node000012"><a xlink:title=" ">
<path fill="none" stroke="#63b8ff" d="M462.15,-165.23C478.91,-152.45 498.58,-137.43 514.06,-125.62"/>
<polygon fill="#63b8ff" stroke="#63b8ff" points="460.22,-162.3 454.39,-171.15 464.47,-167.87 460.22,-162.3"/>
</a>
</g>
</g>
<!-- Node7&#45;&gt;Node5 -->
<g id="edge9_Node000007_Node000005" class="edge">
<title>Node7&#45;&gt;Node5</title>
<g id="a_edge9_Node000007_Node000005"><a xlink:title=" ">
<path fill="none" stroke="#63b8ff" d="M293.69,-79.19C259.44,-67.44 218.68,-53.44 186.01,-42.22"/>
<polygon fill="#63b8ff" stroke="#63b8ff" points="292.53,-82.5 303.12,-82.43 294.8,-75.88 292.53,-82.5"/>
</a>
</g>
</g>
<!-- Node8 -->
<g id="Node000008" class="node">
<title>Node8</title>
<g id="a_Node000008"><a xlink:href="hdf5rawdatafile_8cpp.html" target="_top" xlink:title=" ">
<polygon fill="white" stroke="#666666" points="359,-41.75 212.5,-41.75 212.5,0 359,0 359,-41.75"/>
<text text-anchor="start" x="220.5" y="-28.25" font-family="Helvetica,sans-Serif" font-size="10.00">/github/workspace/dev</text>
<text text-anchor="start" x="220.5" y="-17" font-family="Helvetica,sans-Serif" font-size="10.00">_area/sourcecode/hdf5libs</text>
<text text-anchor="middle" x="285.75" y="-5.75" font-family="Helvetica,sans-Serif" font-size="10.00">/pybindsrc/hdf5rawdatafile.cpp</text>
</a>
</g>
</g>
<!-- Node7&#45;&gt;Node8 -->
<g id="edge8_Node000007_Node000008" class="edge">
<title>Node7&#45;&gt;Node8</title>
<g id="a_edge8_Node000007_Node000008"><a xlink:title=" ">
<path fill="none" stroke="#63b8ff" d="M336.79,-75.13C326.36,-64.24 314.65,-52.02 305.08,-42.04"/>
<polygon fill="#63b8ff" stroke="#63b8ff" points="333.98,-77.24 343.42,-82.04 339.03,-72.4 333.98,-77.24"/>
</a>
</g>
</g>
<!-- Node9 -->
<g id="Node000009" class="node">
<title>Node9</title>
<g id="a_Node000009"><a xlink:href="copy__tpstream_8cxx.html" target="_top" xlink:title=" ">
<polygon fill="white" stroke="#666666" points="506,-41.75 377.5,-41.75 377.5,0 506,0 506,-41.75"/>
<text text-anchor="start" x="385.5" y="-28.25" font-family="Helvetica,sans-Serif" font-size="10.00">/github/workspace/dev</text>
<text text-anchor="start" x="385.5" y="-17" font-family="Helvetica,sans-Serif" font-size="10.00">_area/sourcecode/trgtools</text>
<text text-anchor="middle" x="441.75" y="-5.75" font-family="Helvetica,sans-Serif" font-size="10.00">/apps/copy_tpstream.cxx</text>
</a>
</g>
</g>
<!-- Node7&#45;&gt;Node9 -->
<g id="edge10_Node000007_Node000009" class="edge">
<title>Node7&#45;&gt;Node9</title>
<g id="a_edge10_Node000007_Node000009"><a xlink:title=" ">
<path fill="none" stroke="#63b8ff" d="M390.71,-75.13C401.14,-64.24 412.85,-52.02 422.42,-42.04"/>
<polygon fill="#63b8ff" stroke="#63b8ff" points="388.47,-72.4 384.08,-82.04 393.52,-77.24 388.47,-72.4"/>
</a>
</g>
</g>
<!-- Node10 -->
<g id="Node000010" class="node">
<title>Node10</title>
<g id="a_Node000010"><a xlink:href="process__tpstream_8cxx.html" target="_top" xlink:title=" ">
<polygon fill="white" stroke="#666666" points="661.5,-41.75 524,-41.75 524,0 661.5,0 661.5,-41.75"/>
<text text-anchor="start" x="532" y="-28.25" font-family="Helvetica,sans-Serif" font-size="10.00">/github/workspace/dev</text>
<text text-anchor="start" x="532" y="-17" font-family="Helvetica,sans-Serif" font-size="10.00">_area/sourcecode/trgtools</text>
<text text-anchor="middle" x="592.75" y="-5.75" font-family="Helvetica,sans-Serif" font-size="10.00">/apps/process_tpstream.cxx</text>
</a>
</g>
</g>
<!-- Node7&#45;&gt;Node10 -->
<g id="edge11_Node000007_Node000010" class="edge">
<title>Node7&#45;&gt;Node10</title>
<g id="a_edge11_Node000007_Node000010"><a xlink:title=" ">
<path fill="none" stroke="#63b8ff" d="M431.45,-79.19C464.54,-67.44 503.92,-53.44 535.49,-42.22"/>
<polygon fill="#63b8ff" stroke="#63b8ff" points="430.62,-75.77 422.37,-82.42 432.97,-82.37 430.62,-75.77"/>
</a>
</g>
</g>
<!-- Node11 -->
<g id="Node000011" class="node">
<title>Node11</title>
<g id="a_Node000011"><a xlink:href="tapipe_8cxx.html" target="_top" xlink:title=" ">
<polygon fill="white" stroke="#666666" points="808,-41.75 679.5,-41.75 679.5,0 808,0 808,-41.75"/>
<text text-anchor="start" x="687.5" y="-28.25" font-family="Helvetica,sans-Serif" font-size="10.00">/github/workspace/dev</text>
<text text-anchor="start" x="687.5" y="-17" font-family="Helvetica,sans-Serif" font-size="10.00">_area/sourcecode/trgtools</text>
<text text-anchor="middle" x="743.75" y="-5.75" font-family="Helvetica,sans-Serif" font-size="10.00">/apps/tapipe.cxx</text>
</a>
</g>
</g>
<!-- Node7&#45;&gt;Node11 -->
<g id="edge12_Node000007_Node000011" class="edge">
<title>Node7&#45;&gt;Node11</title>
<g id="a_edge12_Node000007_Node000011"><a xlink:title=" ">
<path fill="none" stroke="#63b8ff" d="M454.63,-80.39C458.72,-79.48 462.78,-78.59 466.75,-77.75 556.82,-58.68 580.91,-61.86 670.75,-41.75 673.57,-41.12 676.44,-40.45 679.34,-39.75"/>
<polygon fill="#63b8ff" stroke="#63b8ff" points="454.2,-76.9 445.23,-82.54 455.76,-83.73 454.2,-76.9"/>
</a>
</g>
</g>
</g>
</svg>
