<?xml version="1.0" encoding="UTF-8" standalone="no"?>
<!DOCTYPE svg PUBLIC "-//W3C//DTD SVG 1.1//EN"
 "http://www.w3.org/Graphics/SVG/1.1/DTD/svg11.dtd">
<!-- Generated by graphviz version 9.0.0 (20230911.1827)
 -->
<!-- Title: /github/workspace/dev_area/build/hermesmodules/codegen/include/hermesmodules/hermescontrollerinfo/InfoStructs.hpp Pages: 1 -->
<svg width="184pt" height="116pt"
 viewBox="0.00 0.00 183.75 116.25" xmlns="http://www.w3.org/2000/svg" xmlns:xlink="http://www.w3.org/1999/xlink">
<g id="graph0" class="graph" transform="scale(1 1) rotate(0) translate(4 112.25)">
<title>/github/workspace/dev_area/build/hermesmodules/codegen/include/hermesmodules/hermescontrollerinfo/InfoStructs.hpp</title>
<!-- Node1 -->
<g id="Node000001" class="node">
<title>Node1</title>
<g id="a_Node000001"><a xlink:title=" ">
<polygon fill="#999999" stroke="#666666" points="175.75,-108.25 0,-108.25 0,-55.25 175.75,-55.25 175.75,-108.25"/>
<text text-anchor="start" x="8" y="-94.75" font-family="Helvetica,sans-Serif" font-size="10.00">/github/workspace/dev</text>
<text text-anchor="start" x="8" y="-83.5" font-family="Helvetica,sans-Serif" font-size="10.00">_area/build/hermesmodules</text>
<text text-anchor="start" x="8" y="-72.25" font-family="Helvetica,sans-Serif" font-size="10.00">/codegen/include/hermesmodules</text>
<text text-anchor="middle" x="87.88" y="-61" font-family="Helvetica,sans-Serif" font-size="10.00">/hermescontrollerinfo/InfoStructs.hpp</text>
</a>
</g>
</g>
<!-- Node2 -->
<g id="Node000002" class="node">
<title>Node2</title>
<g id="a_Node000002"><a xlink:title=" ">
<polygon fill="#e0e0e0" stroke="#999999" points="80.5,-19.25 35.25,-19.25 35.25,0 80.5,0 80.5,-19.25"/>
<text text-anchor="middle" x="57.88" y="-5.75" font-family="Helvetica,sans-Serif" font-size="10.00">cstdint</text>
</a>
</g>
</g>
<!-- Node1&#45;&gt;Node2 -->
<g id="edge1_Node000001_Node000002" class="edge">
<title>Node1&#45;&gt;Node2</title>
<g id="a_edge1_Node000001_Node000002"><a xlink:title=" ">
<path fill="none" stroke="#63b8ff" d="M76.87,-55.04C73.37,-46.83 69.54,-37.89 66.25,-30.2"/>
<polygon fill="#63b8ff" stroke="#63b8ff" points="69.52,-28.95 62.37,-21.13 63.08,-31.7 69.52,-28.95"/>
</a>
</g>
</g>
<!-- Node3 -->
<g id="Node000003" class="node">
<title>Node3</title>
<g id="a_Node000003"><a xlink:title=" ">
<polygon fill="#e0e0e0" stroke="#999999" points="138.88,-19.25 98.88,-19.25 98.88,0 138.88,0 138.88,-19.25"/>
<text text-anchor="middle" x="118.88" y="-5.75" font-family="Helvetica,sans-Serif" font-size="10.00">string</text>
</a>
</g>
</g>
<!-- Node1&#45;&gt;Node3 -->
<g id="edge2_Node000001_Node000003" class="edge">
<title>Node1&#45;&gt;Node3</title>
<g id="a_edge2_Node000001_Node000003"><a xlink:title=" ">
<path fill="none" stroke="#63b8ff" d="M99.24,-55.04C102.87,-46.83 106.82,-37.89 110.22,-30.2"/>
<polygon fill="#63b8ff" stroke="#63b8ff" points="113.39,-31.68 114.24,-21.12 106.99,-28.85 113.39,-31.68"/>
</a>
</g>
</g>
</g>
</svg>
