<?xml version="1.0" encoding="UTF-8" standalone="no"?>
<!DOCTYPE svg PUBLIC "-//W3C//DTD SVG 1.1//EN"
 "http://www.w3.org/Graphics/SVG/1.1/DTD/svg11.dtd">
<!-- Generated by graphviz version 9.0.0 (20230911.1827)
 -->
<!-- Title: /github/workspace/dev_area/sourcecode/hermesmodules/src/HermesCoreController.cpp Pages: 1 -->
<svg width="1539pt" height="426pt"
 viewBox="0.00 0.00 1538.86 426.25" xmlns="http://www.w3.org/2000/svg" xmlns:xlink="http://www.w3.org/1999/xlink">
<g id="graph0" class="graph" transform="scale(1 1) rotate(0) translate(4 422.25)">
<title>/github/workspace/dev_area/sourcecode/hermesmodules/src/HermesCoreController.cpp</title>
<!-- Node1 -->
<g id="Node000001" class="node">
<title>Node1</title>
<g id="a_Node000001"><a xlink:title=" ">
<polygon fill="#999999" stroke="#666666" points="874.61,-418.25 709.36,-418.25 709.36,-376.5 874.61,-376.5 874.61,-418.25"/>
<text text-anchor="start" x="717.36" y="-404.75" font-family="Helvetica,sans-Serif" font-size="10.00">/github/workspace/dev</text>
<text text-anchor="start" x="717.36" y="-393.5" font-family="Helvetica,sans-Serif" font-size="10.00">_area/sourcecode/hermesmodules</text>
<text text-anchor="middle" x="791.99" y="-382.25" font-family="Helvetica,sans-Serif" font-size="10.00">/src/HermesCoreController.cpp</text>
</a>
</g>
</g>
<!-- Node2 -->
<g id="Node000002" class="node">
<title>Node2</title>
<g id="a_Node000002"><a xlink:href="HermesCoreController_8hpp.html" target="_top" xlink:title=" ">
<polygon fill="white" stroke="#666666" points="739.36,-340.5 596.61,-340.5 596.61,-310 739.36,-310 739.36,-340.5"/>
<text text-anchor="start" x="604.61" y="-327" font-family="Helvetica,sans-Serif" font-size="10.00">hermesmodules/HermesCore</text>
<text text-anchor="middle" x="667.99" y="-315.75" font-family="Helvetica,sans-Serif" font-size="10.00">Controller.hpp</text>
</a>
</g>
</g>
<!-- Node1&#45;&gt;Node2 -->
<g id="edge1_Node000001_Node000002" class="edge">
<title>Node1&#45;&gt;Node2</title>
<g id="a_edge1_Node000001_Node000002"><a xlink:title=" ">
<path fill="none" stroke="#63b8ff" d="M756.12,-376.09C739.66,-366.78 720.18,-355.76 703.73,-346.46"/>
<polygon fill="#63b8ff" stroke="#63b8ff" points="705.68,-343.54 695.25,-341.66 702.23,-349.63 705.68,-343.54"/>
</a>
</g>
</g>
<!-- Node12 -->
<g id="Node000012" class="node">
<title>Node12</title>
<g id="a_Node000012"><a xlink:title=" ">
<polygon fill="#e0e0e0" stroke="#999999" points="661.61,-135.38 616.36,-135.38 616.36,-116.12 661.61,-116.12 661.61,-135.38"/>
<text text-anchor="middle" x="638.99" y="-121.88" font-family="Helvetica,sans-Serif" font-size="10.00">chrono</text>
</a>
</g>
</g>
<!-- Node1&#45;&gt;Node12 -->
<g id="edge42_Node000001_Node000012" class="edge">
<title>Node1&#45;&gt;Node12</title>
<g id="a_edge42_Node000001_Node000012"><a xlink:title=" ">
<path fill="none" stroke="#63b8ff" d="M787.97,-376.07C779.03,-335.02 754.42,-240.64 705.99,-177 695.08,-162.66 679.03,-150.43 665.38,-141.62"/>
<polygon fill="#63b8ff" stroke="#63b8ff" points="667.61,-138.89 657.26,-136.63 663.94,-144.85 667.61,-138.89"/>
</a>
</g>
</g>
<!-- Node32 -->
<g id="Node000032" class="node">
<title>Node32</title>
<g id="a_Node000032"><a xlink:title=" ">
<polygon fill="#e0e0e0" stroke="#999999" points="838.49,-334.88 795.49,-334.88 795.49,-315.62 838.49,-315.62 838.49,-334.88"/>
<text text-anchor="middle" x="816.99" y="-321.38" font-family="Helvetica,sans-Serif" font-size="10.00">thread</text>
</a>
</g>
</g>
<!-- Node1&#45;&gt;Node32 -->
<g id="edge43_Node000001_Node000032" class="edge">
<title>Node1&#45;&gt;Node32</title>
<g id="a_edge43_Node000001_Node000032"><a xlink:title=" ">
<path fill="none" stroke="#63b8ff" d="M799.22,-376.09C802.63,-366.54 806.67,-355.19 810.04,-345.73"/>
<polygon fill="#63b8ff" stroke="#63b8ff" points="813.28,-347.07 813.34,-336.48 806.69,-344.72 813.28,-347.07"/>
</a>
</g>
</g>
<!-- Node33 -->
<g id="Node000033" class="node">
<title>Node33</title>
<g id="a_Node000033"><a xlink:title=" ">
<polygon fill="#e0e0e0" stroke="#999999" points="915.74,-334.88 856.24,-334.88 856.24,-315.62 915.74,-315.62 915.74,-334.88"/>
<text text-anchor="middle" x="885.99" y="-321.38" font-family="Helvetica,sans-Serif" font-size="10.00">fmt/core.h</text>
</a>
</g>
</g>
<!-- Node1&#45;&gt;Node33 -->
<g id="edge44_Node000001_Node000033" class="edge">
<title>Node1&#45;&gt;Node33</title>
<g id="a_edge44_Node000001_Node000033"><a xlink:title=" ">
<path fill="none" stroke="#63b8ff" d="M819.18,-376.09C833.75,-365.22 851.44,-352.03 864.95,-341.95"/>
<polygon fill="#63b8ff" stroke="#63b8ff" points="866.81,-344.92 872.73,-336.14 862.62,-339.31 866.81,-344.92"/>
</a>
</g>
</g>
<!-- Node3 -->
<g id="Node000003" class="node">
<title>Node3</title>
<g id="a_Node000003"><a xlink:href="Issue_8hpp.html" target="_top" xlink:title=" ">
<polygon fill="white" stroke="#666666" points="488.24,-268.38 413.74,-268.38 413.74,-249.12 488.24,-249.12 488.24,-268.38"/>
<text text-anchor="middle" x="450.99" y="-254.88" font-family="Helvetica,sans-Serif" font-size="10.00">ers/Issue.hpp</text>
</a>
</g>
</g>
<!-- Node2&#45;&gt;Node3 -->
<g id="edge2_Node000002_Node000003" class="edge">
<title>Node2&#45;&gt;Node3</title>
<g id="a_edge2_Node000002_Node000003"><a xlink:title=" ">
<path fill="none" stroke="#63b8ff" d="M618.48,-309.53C580.27,-298.18 528.05,-282.66 492.13,-271.98"/>
<polygon fill="#63b8ff" stroke="#63b8ff" points="493.57,-268.76 482.99,-269.26 491.58,-275.47 493.57,-268.76"/>
</a>
</g>
</g>
<!-- Node29 -->
<g id="Node000029" class="node">
<title>Node29</title>
<g id="a_Node000029"><a xlink:title=" ">
<polygon fill="#e0e0e0" stroke="#999999" points="704.49,-268.38 631.49,-268.38 631.49,-249.12 704.49,-249.12 704.49,-268.38"/>
<text text-anchor="middle" x="667.99" y="-254.88" font-family="Helvetica,sans-Serif" font-size="10.00">uhal/uhal.hpp</text>
</a>
</g>
</g>
<!-- Node2&#45;&gt;Node29 -->
<g id="edge38_Node000002_Node000029" class="edge">
<title>Node2&#45;&gt;Node29</title>
<g id="a_edge38_Node000002_Node000029"><a xlink:title=" ">
<path fill="none" stroke="#63b8ff" d="M667.99,-309.61C667.99,-300.83 667.99,-289.52 667.99,-279.9"/>
<polygon fill="#63b8ff" stroke="#63b8ff" points="671.49,-280.09 667.99,-270.09 664.49,-280.09 671.49,-280.09"/>
</a>
</g>
</g>
<!-- Node30 -->
<g id="Node000030" class="node">
<title>Node30</title>
<g id="a_Node000030"><a xlink:href="hermesmodules_2codegen_2include_2hermesmodules_2hermescontrollerinfo_2InfoStructs_8hpp.html" target="_top" xlink:title=" ">
<polygon fill="white" stroke="#666666" points="1530.86,-274 1355.11,-274 1355.11,-243.5 1530.86,-243.5 1530.86,-274"/>
<text text-anchor="start" x="1363.11" y="-260.5" font-family="Helvetica,sans-Serif" font-size="10.00">hermesmodules/hermescontrollerinfo</text>
<text text-anchor="middle" x="1442.99" y="-249.25" font-family="Helvetica,sans-Serif" font-size="10.00">/InfoStructs.hpp</text>
</a>
</g>
</g>
<!-- Node2&#45;&gt;Node30 -->
<g id="edge39_Node000002_Node000030" class="edge">
<title>Node2&#45;&gt;Node30</title>
<g id="a_edge39_Node000002_Node000030"><a xlink:title=" ">
<path fill="none" stroke="#63b8ff" d="M739.7,-315.08C754.96,-313.27 771,-311.48 785.99,-310 983.25,-290.56 1214.46,-274.41 1343.3,-266.01"/>
<polygon fill="#63b8ff" stroke="#63b8ff" points="1343.42,-269.51 1353.17,-265.37 1342.96,-262.52 1343.42,-269.51"/>
</a>
</g>
</g>
<!-- Node4 -->
<g id="Node000004" class="node">
<title>Node4</title>
<g id="a_Node000004"><a xlink:title=" ">
<polygon fill="#e0e0e0" stroke="#999999" points="410.61,-201.88 365.36,-201.88 365.36,-182.62 410.61,-182.62 410.61,-201.88"/>
<text text-anchor="middle" x="387.99" y="-188.38" font-family="Helvetica,sans-Serif" font-size="10.00">math.h</text>
</a>
</g>
</g>
<!-- Node3&#45;&gt;Node4 -->
<g id="edge3_Node000003_Node000004" class="edge">
<title>Node3&#45;&gt;Node4</title>
<g id="a_edge3_Node000003_Node000004"><a xlink:title=" ">
<path fill="none" stroke="#63b8ff" d="M442.23,-248.78C432.54,-238.87 416.72,-222.66 404.65,-210.31"/>
<polygon fill="#63b8ff" stroke="#63b8ff" points="407.22,-207.93 397.73,-203.23 402.22,-212.82 407.22,-207.93"/>
</a>
</g>
</g>
<!-- Node5 -->
<g id="Node000005" class="node">
<title>Node5</title>
<g id="a_Node000005"><a xlink:title=" ">
<polygon fill="#e0e0e0" stroke="#999999" points="473.24,-201.88 428.74,-201.88 428.74,-182.62 473.24,-182.62 473.24,-201.88"/>
<text text-anchor="middle" x="450.99" y="-188.38" font-family="Helvetica,sans-Serif" font-size="10.00">stdio.h</text>
</a>
</g>
</g>
<!-- Node3&#45;&gt;Node5 -->
<g id="edge4_Node000003_Node000005" class="edge">
<title>Node3&#45;&gt;Node5</title>
<g id="a_edge4_Node000003_Node000005"><a xlink:title=" ">
<path fill="none" stroke="#63b8ff" d="M450.99,-248.78C450.99,-239.73 450.99,-225.45 450.99,-213.63"/>
<polygon fill="#63b8ff" stroke="#63b8ff" points="454.49,-213.66 450.99,-203.66 447.49,-213.66 454.49,-213.66"/>
</a>
</g>
</g>
<!-- Node6 -->
<g id="Node000006" class="node">
<title>Node6</title>
<g id="a_Node000006"><a xlink:title=" ">
<polygon fill="#e0e0e0" stroke="#999999" points="538.74,-201.88 491.24,-201.88 491.24,-182.62 538.74,-182.62 538.74,-201.88"/>
<text text-anchor="middle" x="514.99" y="-188.38" font-family="Helvetica,sans-Serif" font-size="10.00">string.h</text>
</a>
</g>
</g>
<!-- Node3&#45;&gt;Node6 -->
<g id="edge5_Node000003_Node000006" class="edge">
<title>Node3&#45;&gt;Node6</title>
<g id="a_edge5_Node000003_Node000006"><a xlink:title=" ">
<path fill="none" stroke="#63b8ff" d="M459.89,-248.78C469.73,-238.87 485.81,-222.66 498.06,-210.31"/>
<polygon fill="#63b8ff" stroke="#63b8ff" points="500.54,-212.78 505.1,-203.22 495.57,-207.85 500.54,-212.78"/>
</a>
</g>
</g>
<!-- Node7 -->
<g id="Node000007" class="node">
<title>Node7</title>
<g id="a_Node000007"><a xlink:title=" ">
<polygon fill="#e0e0e0" stroke="#999999" points="598.36,-135.38 563.61,-135.38 563.61,-116.12 598.36,-116.12 598.36,-135.38"/>
<text text-anchor="middle" x="580.99" y="-121.88" font-family="Helvetica,sans-Serif" font-size="10.00">map</text>
</a>
</g>
</g>
<!-- Node3&#45;&gt;Node7 -->
<g id="edge6_Node000003_Node000007" class="edge">
<title>Node3&#45;&gt;Node7</title>
<g id="a_edge6_Node000003_Node000007"><a xlink:title=" ">
<path fill="none" stroke="#63b8ff" d="M488.71,-254.73C545.68,-249.3 649.47,-235.72 671.99,-207.5 680.45,-196.91 678.88,-188.67 671.99,-177 671.75,-176.6 634.38,-156.04 607.61,-141.35"/>
<polygon fill="#63b8ff" stroke="#63b8ff" points="609.4,-138.34 598.95,-136.59 606.03,-144.47 609.4,-138.34"/>
</a>
</g>
</g>
<!-- Node8 -->
<g id="Node000008" class="node">
<title>Node8</title>
<g id="a_Node000008"><a xlink:title=" ">
<polygon fill="#e0e0e0" stroke="#999999" points="555.99,-74.5 515.99,-74.5 515.99,-55.25 555.99,-55.25 555.99,-74.5"/>
<text text-anchor="middle" x="535.99" y="-61" font-family="Helvetica,sans-Serif" font-size="10.00">string</text>
</a>
</g>
</g>
<!-- Node3&#45;&gt;Node8 -->
<g id="edge7_Node000003_Node000008" class="edge">
<title>Node3&#45;&gt;Node8</title>
<g id="a_edge7_Node000003_Node000008"><a xlink:title=" ">
<path fill="none" stroke="#63b8ff" d="M488.32,-254.63C616,-243.97 1028.21,-209.46 1041.99,-207.5 1190.54,-186.33 1277.91,-257.08 1372.99,-141 1381.58,-130.51 1382.32,-120.34 1372.99,-110.5 1344.78,-80.75 717.31,-68.79 567.77,-66.36"/>
<polygon fill="#63b8ff" stroke="#63b8ff" points="567.89,-62.86 557.83,-66.2 567.77,-69.86 567.89,-62.86"/>
</a>
</g>
</g>
<!-- Node9 -->
<g id="Node000009" class="node">
<title>Node9</title>
<g id="a_Node000009"><a xlink:title=" ">
<polygon fill="#e0e0e0" stroke="#999999" points="332.74,-19.25 279.24,-19.25 279.24,0 332.74,0 332.74,-19.25"/>
<text text-anchor="middle" x="305.99" y="-5.75" font-family="Helvetica,sans-Serif" font-size="10.00">iostream</text>
</a>
</g>
</g>
<!-- Node3&#45;&gt;Node9 -->
<g id="edge8_Node000003_Node000009" class="edge">
<title>Node3&#45;&gt;Node9</title>
<g id="a_edge8_Node000003_Node000009"><a xlink:title=" ">
<path fill="none" stroke="#63b8ff" d="M413.59,-256.32C311.51,-252.02 33.93,-237.66 6.99,-207.5 -9.47,-189.07 8.17,-126.02 21.99,-110.5 86.33,-38.21 206.16,-18.24 267.56,-12.73"/>
<polygon fill="#63b8ff" stroke="#63b8ff" points="267.83,-16.22 277.52,-11.93 267.27,-9.24 267.83,-16.22"/>
</a>
</g>
</g>
<!-- Node10 -->
<g id="Node000010" class="node">
<title>Node10</title>
<g id="a_Node000010"><a xlink:title=" ">
<polygon fill="#e0e0e0" stroke="#999999" points="231.61,-201.88 180.36,-201.88 180.36,-182.62 231.61,-182.62 231.61,-201.88"/>
<text text-anchor="middle" x="205.99" y="-188.38" font-family="Helvetica,sans-Serif" font-size="10.00">sstream</text>
</a>
</g>
</g>
<!-- Node3&#45;&gt;Node10 -->
<g id="edge9_Node000003_Node000010" class="edge">
<title>Node3&#45;&gt;Node10</title>
<g id="a_edge9_Node000003_Node000010"><a xlink:title=" ">
<path fill="none" stroke="#63b8ff" d="M413.34,-250.54C370.95,-242.01 300.24,-226.53 240.99,-207.5 239.83,-207.13 238.66,-206.74 237.48,-206.33"/>
<polygon fill="#63b8ff" stroke="#63b8ff" points="238.91,-203.13 228.32,-202.9 236.45,-209.68 238.91,-203.13"/>
</a>
</g>
</g>
<!-- Node11 -->
<g id="Node000011" class="node">
<title>Node11</title>
<g id="a_Node000011"><a xlink:title=" ">
<polygon fill="#e0e0e0" stroke="#999999" points="300.24,-201.88 249.74,-201.88 249.74,-182.62 300.24,-182.62 300.24,-201.88"/>
<text text-anchor="middle" x="274.99" y="-188.38" font-family="Helvetica,sans-Serif" font-size="10.00">memory</text>
</a>
</g>
</g>
<!-- Node3&#45;&gt;Node11 -->
<g id="edge10_Node000003_Node000011" class="edge">
<title>Node3&#45;&gt;Node11</title>
<g id="a_edge10_Node000003_Node000011"><a xlink:title=" ">
<path fill="none" stroke="#63b8ff" d="M424.35,-248.65C395.91,-238.84 349.57,-222.6 309.99,-207.5 309.05,-207.14 308.1,-206.78 307.14,-206.4"/>
<polygon fill="#63b8ff" stroke="#63b8ff" points="308.77,-203.28 298.18,-202.85 306.19,-209.79 308.77,-203.28"/>
</a>
</g>
</g>
<!-- Node3&#45;&gt;Node12 -->
<g id="edge11_Node000003_Node000012" class="edge">
<title>Node3&#45;&gt;Node12</title>
<g id="a_edge11_Node000003_Node000012"><a xlink:title=" ">
<path fill="none" stroke="#63b8ff" d="M488.61,-255.41C549.21,-250.78 664.19,-238.09 688.99,-207.5 705.92,-186.62 681.01,-159.59 660.68,-142.7"/>
<polygon fill="#63b8ff" stroke="#63b8ff" points="663.04,-140.1 653.02,-136.66 658.7,-145.6 663.04,-140.1"/>
</a>
</g>
</g>
<!-- Node13 -->
<g id="Node000013" class="node">
<title>Node13</title>
<g id="a_Node000013"><a xlink:title=" ">
<polygon fill="#e0e0e0" stroke="#999999" points="347.39,-201.88 318.59,-201.88 318.59,-182.62 347.39,-182.62 347.39,-201.88"/>
<text text-anchor="middle" x="332.99" y="-188.38" font-family="Helvetica,sans-Serif" font-size="10.00">list</text>
</a>
</g>
</g>
<!-- Node3&#45;&gt;Node13 -->
<g id="edge12_Node000003_Node000013" class="edge">
<title>Node3&#45;&gt;Node13</title>
<g id="a_edge12_Node000003_Node000013"><a xlink:title=" ">
<path fill="none" stroke="#63b8ff" d="M432.93,-248.66C415.48,-239.78 388.14,-225.62 356.84,-207.79"/>
<polygon fill="#63b8ff" stroke="#63b8ff" points="358.74,-204.84 348.32,-202.9 355.25,-210.91 358.74,-204.84"/>
</a>
</g>
</g>
<!-- Node14 -->
<g id="Node000014" class="node">
<title>Node14</title>
<g id="a_Node000014"><a xlink:href="IssueFactory_8hpp.html" target="_top" xlink:title=" ">
<polygon fill="white" stroke="#666666" points="663.36,-201.88 556.61,-201.88 556.61,-182.62 663.36,-182.62 663.36,-201.88"/>
<text text-anchor="middle" x="609.99" y="-188.38" font-family="Helvetica,sans-Serif" font-size="10.00">ers/IssueFactory.hpp</text>
</a>
</g>
</g>
<!-- Node3&#45;&gt;Node14 -->
<g id="edge13_Node000003_Node000014" class="edge">
<title>Node3&#45;&gt;Node14</title>
<g id="a_edge13_Node000003_Node000014"><a xlink:title=" ">
<path fill="none" stroke="#63b8ff" d="M473.43,-248.65C500.54,-237.65 546.35,-219.06 577.36,-206.49"/>
<polygon fill="#63b8ff" stroke="#63b8ff" points="578.31,-209.88 586.26,-202.88 575.68,-203.39 578.31,-209.88"/>
</a>
</g>
</g>
<!-- Node16 -->
<g id="Node000016" class="node">
<title>Node16</title>
<g id="a_Node000016"><a xlink:href="Severity_8hpp.html" target="_top" xlink:title=" ">
<polygon fill="white" stroke="#666666" points="507.86,-135.38 422.11,-135.38 422.11,-116.12 507.86,-116.12 507.86,-135.38"/>
<text text-anchor="middle" x="464.99" y="-121.88" font-family="Helvetica,sans-Serif" font-size="10.00">ers/Severity.hpp</text>
</a>
</g>
</g>
<!-- Node3&#45;&gt;Node16 -->
<g id="edge30_Node000003_Node000016" class="edge">
<title>Node3&#45;&gt;Node16</title>
<g id="a_edge30_Node000003_Node000016"><a xlink:title=" ">
<path fill="none" stroke="#63b8ff" d="M413.48,-256.74C344.44,-254 201.49,-243.96 170.99,-207.5 162.29,-197.1 162.25,-187.36 170.99,-177 174.85,-172.42 326.66,-148.22 410.58,-135.15"/>
<polygon fill="#63b8ff" stroke="#63b8ff" points="410.86,-138.64 420.2,-133.65 409.78,-131.73 410.86,-138.64"/>
</a>
</g>
</g>
<!-- Node17 -->
<g id="Node000017" class="node">
<title>Node17</title>
<g id="a_Node000017"><a xlink:href="LocalContext_8hpp.html" target="_top" xlink:title=" ">
<polygon fill="white" stroke="#666666" points="123.74,-201.88 16.24,-201.88 16.24,-182.62 123.74,-182.62 123.74,-201.88"/>
<text text-anchor="middle" x="69.99" y="-188.38" font-family="Helvetica,sans-Serif" font-size="10.00">ers/LocalContext.hpp</text>
</a>
</g>
</g>
<!-- Node3&#45;&gt;Node17 -->
<g id="edge22_Node000003_Node000017" class="edge">
<title>Node3&#45;&gt;Node17</title>
<g id="a_edge22_Node000003_Node000017"><a xlink:title=" ">
<path fill="none" stroke="#63b8ff" d="M413.31,-252.29C354.42,-243.62 237.03,-225.82 137.99,-207.5 133.05,-206.59 127.92,-205.59 122.79,-204.57"/>
<polygon fill="#63b8ff" stroke="#63b8ff" points="123.62,-201.17 113.13,-202.61 122.23,-208.03 123.62,-201.17"/>
</a>
</g>
</g>
<!-- Node22 -->
<g id="Node000022" class="node">
<title>Node22</title>
<g id="a_Node000022"><a xlink:href="IssueDeclarationMacro_8hpp.html" target="_top" xlink:title=" ">
<polygon fill="white" stroke="#666666" points="1032.86,-207.5 893.11,-207.5 893.11,-177 1032.86,-177 1032.86,-207.5"/>
<text text-anchor="start" x="901.11" y="-194" font-family="Helvetica,sans-Serif" font-size="10.00">ers/internal/IssueDeclaration</text>
<text text-anchor="middle" x="962.99" y="-182.75" font-family="Helvetica,sans-Serif" font-size="10.00">Macro.hpp</text>
</a>
</g>
</g>
<!-- Node3&#45;&gt;Node22 -->
<g id="edge31_Node000003_Node000022" class="edge">
<title>Node3&#45;&gt;Node22</title>
<g id="a_edge31_Node000003_Node000022"><a xlink:title=" ">
<path fill="none" stroke="#63b8ff" d="M488.64,-253.01C571.14,-242.61 769.43,-217.63 881.78,-203.48"/>
<polygon fill="#63b8ff" stroke="#63b8ff" points="882.05,-206.97 891.54,-202.25 881.18,-200.03 882.05,-206.97"/>
</a>
</g>
</g>
<!-- Node14&#45;&gt;Node7 -->
<g id="edge17_Node000014_Node000007" class="edge">
<title>Node14&#45;&gt;Node7</title>
<g id="a_edge17_Node000014_Node000007"><a xlink:title=" ">
<path fill="none" stroke="#63b8ff" d="M605.96,-182.28C601.76,-172.94 595.05,-158.03 589.65,-146.01"/>
<polygon fill="#63b8ff" stroke="#63b8ff" points="592.9,-144.71 585.61,-137.02 586.52,-147.58 592.9,-144.71"/>
</a>
</g>
</g>
<!-- Node14&#45;&gt;Node8 -->
<g id="edge15_Node000014_Node000008" class="edge">
<title>Node14&#45;&gt;Node8</title>
<g id="a_edge15_Node000014_Node000008"><a xlink:title=" ">
<path fill="none" stroke="#63b8ff" d="M596.11,-182.16C583.51,-173.19 565.35,-158.32 554.99,-141 544.85,-124.06 540.09,-101.85 537.88,-85.98"/>
<polygon fill="#63b8ff" stroke="#63b8ff" points="541.39,-85.87 536.77,-76.34 534.44,-86.68 541.39,-85.87"/>
</a>
</g>
</g>
<!-- Node14&#45;&gt;Node12 -->
<g id="edge14_Node000014_Node000012" class="edge">
<title>Node14&#45;&gt;Node12</title>
<g id="a_edge14_Node000014_Node000012"><a xlink:title=" ">
<path fill="none" stroke="#63b8ff" d="M614.02,-182.28C618.22,-172.94 624.93,-158.03 630.33,-146.01"/>
<polygon fill="#63b8ff" stroke="#63b8ff" points="633.46,-147.58 634.37,-137.02 627.08,-144.71 633.46,-147.58"/>
</a>
</g>
</g>
<!-- Node15 -->
<g id="Node000015" class="node">
<title>Node15</title>
<g id="a_Node000015"><a xlink:title=" ">
<polygon fill="#e0e0e0" stroke="#999999" points="420.49,-74.5 377.49,-74.5 377.49,-55.25 420.49,-55.25 420.49,-74.5"/>
<text text-anchor="middle" x="398.99" y="-61" font-family="Helvetica,sans-Serif" font-size="10.00">vector</text>
</a>
</g>
</g>
<!-- Node14&#45;&gt;Node15 -->
<g id="edge16_Node000014_Node000015" class="edge">
<title>Node14&#45;&gt;Node15</title>
<g id="a_edge16_Node000014_Node000015"><a xlink:title=" ">
<path fill="none" stroke="#63b8ff" d="M572.2,-182.15C515.78,-168.49 415.76,-143.95 412.99,-141 399.26,-126.34 396.87,-102.74 397.22,-85.91"/>
<polygon fill="#63b8ff" stroke="#63b8ff" points="400.7,-86.31 397.78,-76.12 393.71,-85.9 400.7,-86.31"/>
</a>
</g>
</g>
<!-- Node14&#45;&gt;Node16 -->
<g id="edge18_Node000014_Node000016" class="edge">
<title>Node14&#45;&gt;Node16</title>
<g id="a_edge18_Node000014_Node000016"><a xlink:title=" ">
<path fill="none" stroke="#63b8ff" d="M589.52,-182.15C565.13,-171.29 524.12,-153.05 495.86,-140.48"/>
<polygon fill="#63b8ff" stroke="#63b8ff" points="497.3,-137.29 486.74,-136.42 494.45,-143.69 497.3,-137.29"/>
</a>
</g>
</g>
<!-- Node16&#45;&gt;Node8 -->
<g id="edge19_Node000016_Node000008" class="edge">
<title>Node16&#45;&gt;Node8</title>
<g id="a_edge19_Node000016_Node000008"><a xlink:title=" ">
<path fill="none" stroke="#63b8ff" d="M475.77,-115.81C486.51,-106.9 503.24,-93.03 516.34,-82.17"/>
<polygon fill="#63b8ff" stroke="#63b8ff" points="518.48,-84.94 523.94,-75.87 514.01,-79.56 518.48,-84.94"/>
</a>
</g>
</g>
<!-- Node16&#45;&gt;Node9 -->
<g id="edge21_Node000016_Node000009" class="edge">
<title>Node16&#45;&gt;Node9</title>
<g id="a_edge21_Node000016_Node000009"><a xlink:title=" ">
<path fill="none" stroke="#63b8ff" d="M462.65,-115.74C458.38,-101.06 447.98,-71.92 428.99,-55.25 405.12,-34.3 370.64,-22.92 344.25,-16.91"/>
<polygon fill="#63b8ff" stroke="#63b8ff" points="345.12,-13.52 334.61,-14.89 343.68,-20.37 345.12,-13.52"/>
</a>
</g>
</g>
<!-- Node16&#45;&gt;Node15 -->
<g id="edge20_Node000016_Node000015" class="edge">
<title>Node16&#45;&gt;Node15</title>
<g id="a_edge20_Node000016_Node000015"><a xlink:title=" ">
<path fill="none" stroke="#63b8ff" d="M454.97,-115.81C445.08,-106.99 429.73,-93.3 417.61,-82.48"/>
<polygon fill="#63b8ff" stroke="#63b8ff" points="420.03,-79.95 410.24,-75.91 415.37,-85.18 420.03,-79.95"/>
</a>
</g>
</g>
<!-- Node18 -->
<g id="Node000018" class="node">
<title>Node18</title>
<g id="a_Node000018"><a xlink:title=" ">
<polygon fill="#e0e0e0" stroke="#999999" points="163.36,-135.38 98.61,-135.38 98.61,-116.12 163.36,-116.12 163.36,-135.38"/>
<text text-anchor="middle" x="130.99" y="-121.88" font-family="Helvetica,sans-Serif" font-size="10.00">sys/types.h</text>
</a>
</g>
</g>
<!-- Node17&#45;&gt;Node18 -->
<g id="edge23_Node000017_Node000018" class="edge">
<title>Node17&#45;&gt;Node18</title>
<g id="a_edge23_Node000017_Node000018"><a xlink:title=" ">
<path fill="none" stroke="#63b8ff" d="M78.47,-182.28C87.85,-172.37 103.17,-156.16 114.86,-143.81"/>
<polygon fill="#63b8ff" stroke="#63b8ff" points="117.21,-146.41 121.54,-136.74 112.13,-141.6 117.21,-146.41"/>
</a>
</g>
</g>
<!-- Node19 -->
<g id="Node000019" class="node">
<title>Node19</title>
<g id="a_Node000019"><a xlink:title=" ">
<polygon fill="#e0e0e0" stroke="#999999" points="80.86,-135.38 31.11,-135.38 31.11,-116.12 80.86,-116.12 80.86,-135.38"/>
<text text-anchor="middle" x="55.99" y="-121.88" font-family="Helvetica,sans-Serif" font-size="10.00">unistd.h</text>
</a>
</g>
</g>
<!-- Node17&#45;&gt;Node19 -->
<g id="edge24_Node000017_Node000019" class="edge">
<title>Node17&#45;&gt;Node19</title>
<g id="a_edge24_Node000017_Node000019"><a xlink:title=" ">
<path fill="none" stroke="#63b8ff" d="M68.04,-182.28C66.06,-173.14 62.91,-158.64 60.33,-146.75"/>
<polygon fill="#63b8ff" stroke="#63b8ff" points="63.78,-146.15 58.24,-137.12 56.94,-147.64 63.78,-146.15"/>
</a>
</g>
</g>
<!-- Node20 -->
<g id="Node000020" class="node">
<title>Node20</title>
<g id="a_Node000020"><a xlink:href="Context_8hpp.html" target="_top" xlink:title=" ">
<polygon fill="white" stroke="#666666" points="354.74,-135.38 271.24,-135.38 271.24,-116.12 354.74,-116.12 354.74,-135.38"/>
<text text-anchor="middle" x="312.99" y="-121.88" font-family="Helvetica,sans-Serif" font-size="10.00">ers/Context.hpp</text>
</a>
</g>
</g>
<!-- Node17&#45;&gt;Node20 -->
<g id="edge25_Node000017_Node000020" class="edge">
<title>Node17&#45;&gt;Node20</title>
<g id="a_edge25_Node000017_Node000020"><a xlink:title=" ">
<path fill="none" stroke="#63b8ff" d="M104.29,-182.15C147.17,-170.77 220.66,-151.26 268.01,-138.69"/>
<polygon fill="#63b8ff" stroke="#63b8ff" points="268.63,-142.14 277.4,-136.2 266.84,-135.38 268.63,-142.14"/>
</a>
</g>
</g>
<!-- Node20&#45;&gt;Node8 -->
<g id="edge26_Node000020_Node000008" class="edge">
<title>Node20&#45;&gt;Node8</title>
<g id="a_edge26_Node000020_Node000008"><a xlink:title=" ">
<path fill="none" stroke="#63b8ff" d="M347.35,-115.68C390.25,-104.35 463.04,-85.13 504.54,-74.18"/>
<polygon fill="#63b8ff" stroke="#63b8ff" points="505.37,-77.58 514.15,-71.64 503.58,-70.81 505.37,-77.58"/>
</a>
</g>
</g>
<!-- Node20&#45;&gt;Node15 -->
<g id="edge27_Node000020_Node000015" class="edge">
<title>Node20&#45;&gt;Node15</title>
<g id="a_edge27_Node000020_Node000015"><a xlink:title=" ">
<path fill="none" stroke="#63b8ff" d="M326.05,-115.81C339.44,-106.64 360.51,-92.22 376.57,-81.23"/>
<polygon fill="#63b8ff" stroke="#63b8ff" points="378.28,-84.29 384.56,-75.76 374.33,-78.52 378.28,-84.29"/>
</a>
</g>
</g>
<!-- Node21 -->
<g id="Node000021" class="node">
<title>Node21</title>
<g id="a_Node000021"><a xlink:href="ers_2include_2ers_2Configuration_8hpp.html" target="_top" xlink:title=" ">
<polygon fill="white" stroke="#666666" points="359.36,-74.5 252.61,-74.5 252.61,-55.25 359.36,-55.25 359.36,-74.5"/>
<text text-anchor="middle" x="305.99" y="-61" font-family="Helvetica,sans-Serif" font-size="10.00">ers/Configuration.hpp</text>
</a>
</g>
</g>
<!-- Node20&#45;&gt;Node21 -->
<g id="edge28_Node000020_Node000021" class="edge">
<title>Node20&#45;&gt;Node21</title>
<g id="a_edge28_Node000020_Node000021"><a xlink:title=" ">
<path fill="none" stroke="#63b8ff" d="M311.93,-115.81C310.99,-107.94 309.6,-96.2 308.39,-86.07"/>
<polygon fill="#63b8ff" stroke="#63b8ff" points="311.9,-85.92 307.24,-76.4 304.95,-86.75 311.9,-85.92"/>
</a>
</g>
</g>
<!-- Node21&#45;&gt;Node9 -->
<g id="edge29_Node000021_Node000009" class="edge">
<title>Node21&#45;&gt;Node9</title>
<g id="a_edge29_Node000021_Node000009"><a xlink:title=" ">
<path fill="none" stroke="#63b8ff" d="M305.99,-55.08C305.99,-48.57 305.99,-39.42 305.99,-31.12"/>
<polygon fill="#63b8ff" stroke="#63b8ff" points="309.49,-31.12 305.99,-21.12 302.49,-31.12 309.49,-31.12"/>
</a>
</g>
</g>
<!-- Node23 -->
<g id="Node000023" class="node">
<title>Node23</title>
<g id="a_Node000023"><a xlink:title=" ">
<polygon fill="#e0e0e0" stroke="#999999" points="1246.61,-141 1147.36,-141 1147.36,-110.5 1246.61,-110.5 1246.61,-141"/>
<text text-anchor="start" x="1155.36" y="-127.5" font-family="Helvetica,sans-Serif" font-size="10.00">boost/preprocessor</text>
<text text-anchor="middle" x="1196.99" y="-116.25" font-family="Helvetica,sans-Serif" font-size="10.00">/if.hpp</text>
</a>
</g>
</g>
<!-- Node22&#45;&gt;Node23 -->
<g id="edge32_Node000022_Node000023" class="edge">
<title>Node22&#45;&gt;Node23</title>
<g id="a_edge32_Node000022_Node000023"><a xlink:title=" ">
<path fill="none" stroke="#63b8ff" d="M1016.38,-176.53C1052.11,-166.69 1099.2,-153.7 1136.34,-143.47"/>
<polygon fill="#63b8ff" stroke="#63b8ff" points="1136.86,-146.95 1145.57,-140.92 1135,-140.21 1136.86,-146.95"/>
</a>
</g>
</g>
<!-- Node24 -->
<g id="Node000024" class="node">
<title>Node24</title>
<g id="a_Node000024"><a xlink:title=" ">
<polygon fill="#e0e0e0" stroke="#999999" points="1363.61,-141 1264.36,-141 1264.36,-110.5 1363.61,-110.5 1363.61,-141"/>
<text text-anchor="start" x="1272.36" y="-127.5" font-family="Helvetica,sans-Serif" font-size="10.00">boost/preprocessor</text>
<text text-anchor="middle" x="1313.99" y="-116.25" font-family="Helvetica,sans-Serif" font-size="10.00">/seq.hpp</text>
</a>
</g>
</g>
<!-- Node22&#45;&gt;Node24 -->
<g id="edge33_Node000022_Node000024" class="edge">
<title>Node22&#45;&gt;Node24</title>
<g id="a_edge33_Node000022_Node000024"><a xlink:title=" ">
<path fill="none" stroke="#63b8ff" d="M1033.11,-180.66C1090.08,-171.73 1172.73,-158.03 1253.23,-141.5"/>
<polygon fill="#63b8ff" stroke="#63b8ff" points="1253.49,-145.02 1262.57,-139.56 1252.07,-138.17 1253.49,-145.02"/>
</a>
</g>
</g>
<!-- Node25 -->
<g id="Node000025" class="node">
<title>Node25</title>
<g id="a_Node000025"><a xlink:title=" ">
<polygon fill="#e0e0e0" stroke="#999999" points="778.61,-141 679.36,-141 679.36,-110.5 778.61,-110.5 778.61,-141"/>
<text text-anchor="start" x="687.36" y="-127.5" font-family="Helvetica,sans-Serif" font-size="10.00">boost/preprocessor</text>
<text text-anchor="middle" x="728.99" y="-116.25" font-family="Helvetica,sans-Serif" font-size="10.00">/tuple.hpp</text>
</a>
</g>
</g>
<!-- Node22&#45;&gt;Node25 -->
<g id="edge34_Node000022_Node000025" class="edge">
<title>Node22&#45;&gt;Node25</title>
<g id="a_edge34_Node000022_Node000025"><a xlink:title=" ">
<path fill="none" stroke="#63b8ff" d="M909.6,-176.53C873.87,-166.69 826.78,-153.7 789.64,-143.47"/>
<polygon fill="#63b8ff" stroke="#63b8ff" points="790.98,-140.21 780.41,-140.92 789.12,-146.95 790.98,-140.21"/>
</a>
</g>
</g>
<!-- Node26 -->
<g id="Node000026" class="node">
<title>Node26</title>
<g id="a_Node000026"><a xlink:title=" ">
<polygon fill="#e0e0e0" stroke="#999999" points="895.61,-141 796.36,-141 796.36,-110.5 895.61,-110.5 895.61,-141"/>
<text text-anchor="start" x="804.36" y="-127.5" font-family="Helvetica,sans-Serif" font-size="10.00">boost/preprocessor</text>
<text text-anchor="middle" x="845.99" y="-116.25" font-family="Helvetica,sans-Serif" font-size="10.00">/logical.hpp</text>
</a>
</g>
</g>
<!-- Node22&#45;&gt;Node26 -->
<g id="edge35_Node000022_Node000026" class="edge">
<title>Node22&#45;&gt;Node26</title>
<g id="a_edge35_Node000022_Node000026"><a xlink:title=" ">
<path fill="none" stroke="#63b8ff" d="M936.44,-176.61C920.43,-167.79 899.82,-156.43 882.32,-146.78"/>
<polygon fill="#63b8ff" stroke="#63b8ff" points="884.21,-143.82 873.76,-142.06 880.83,-149.95 884.21,-143.82"/>
</a>
</g>
</g>
<!-- Node27 -->
<g id="Node000027" class="node">
<title>Node27</title>
<g id="a_Node000027"><a xlink:title=" ">
<polygon fill="#e0e0e0" stroke="#999999" points="1012.61,-141 913.36,-141 913.36,-110.5 1012.61,-110.5 1012.61,-141"/>
<text text-anchor="start" x="921.36" y="-127.5" font-family="Helvetica,sans-Serif" font-size="10.00">boost/preprocessor</text>
<text text-anchor="middle" x="962.99" y="-116.25" font-family="Helvetica,sans-Serif" font-size="10.00">/stringize.hpp</text>
</a>
</g>
</g>
<!-- Node22&#45;&gt;Node27 -->
<g id="edge36_Node000022_Node000027" class="edge">
<title>Node22&#45;&gt;Node27</title>
<g id="a_edge36_Node000022_Node000027"><a xlink:title=" ">
<path fill="none" stroke="#63b8ff" d="M962.99,-176.61C962.99,-169.52 962.99,-160.79 962.99,-152.63"/>
<polygon fill="#63b8ff" stroke="#63b8ff" points="966.49,-152.84 962.99,-142.84 959.49,-152.84 966.49,-152.84"/>
</a>
</g>
</g>
<!-- Node28 -->
<g id="Node000028" class="node">
<title>Node28</title>
<g id="a_Node000028"><a xlink:title=" ">
<polygon fill="#e0e0e0" stroke="#999999" points="1129.61,-141 1030.36,-141 1030.36,-110.5 1129.61,-110.5 1129.61,-141"/>
<text text-anchor="start" x="1038.36" y="-127.5" font-family="Helvetica,sans-Serif" font-size="10.00">boost/preprocessor</text>
<text text-anchor="middle" x="1079.99" y="-116.25" font-family="Helvetica,sans-Serif" font-size="10.00">/comparison.hpp</text>
</a>
</g>
</g>
<!-- Node22&#45;&gt;Node28 -->
<g id="edge37_Node000022_Node000028" class="edge">
<title>Node22&#45;&gt;Node28</title>
<g id="a_edge37_Node000022_Node000028"><a xlink:title=" ">
<path fill="none" stroke="#63b8ff" d="M989.54,-176.61C1005.55,-167.79 1026.16,-156.43 1043.66,-146.78"/>
<polygon fill="#63b8ff" stroke="#63b8ff" points="1045.15,-149.95 1052.22,-142.06 1041.77,-143.82 1045.15,-149.95"/>
</a>
</g>
</g>
<!-- Node30&#45;&gt;Node8 -->
<g id="edge41_Node000030_Node000008" class="edge">
<title>Node30&#45;&gt;Node8</title>
<g id="a_edge41_Node000030_Node000008"><a xlink:title=" ">
<path fill="none" stroke="#63b8ff" d="M1456.14,-243.17C1469.25,-226.78 1485.96,-199.5 1474.99,-177 1453.98,-133.88 1434.91,-127.31 1389.99,-110.5 1311.8,-81.24 711.74,-68.95 567.23,-66.39"/>
<polygon fill="#63b8ff" stroke="#63b8ff" points="567.71,-62.9 557.65,-66.23 567.59,-69.9 567.71,-62.9"/>
</a>
</g>
</g>
<!-- Node31 -->
<g id="Node000031" class="node">
<title>Node31</title>
<g id="a_Node000031"><a xlink:title=" ">
<polygon fill="#e0e0e0" stroke="#999999" points="1465.61,-201.88 1420.36,-201.88 1420.36,-182.62 1465.61,-182.62 1465.61,-201.88"/>
<text text-anchor="middle" x="1442.99" y="-188.38" font-family="Helvetica,sans-Serif" font-size="10.00">cstdint</text>
</a>
</g>
</g>
<!-- Node30&#45;&gt;Node31 -->
<g id="edge40_Node000030_Node000031" class="edge">
<title>Node30&#45;&gt;Node31</title>
<g id="a_edge40_Node000030_Node000031"><a xlink:title=" ">
<path fill="none" stroke="#63b8ff" d="M1442.99,-243.11C1442.99,-234.33 1442.99,-223.02 1442.99,-213.4"/>
<polygon fill="#63b8ff" stroke="#63b8ff" points="1446.49,-213.59 1442.99,-203.59 1439.49,-213.59 1446.49,-213.59"/>
</a>
</g>
</g>
</g>
</svg>
