<?xml version="1.0" encoding="UTF-8" standalone="no"?>
<!DOCTYPE svg PUBLIC "-//W3C//DTD SVG 1.1//EN"
 "http://www.w3.org/Graphics/SVG/1.1/DTD/svg11.dtd">
<!-- Generated by graphviz version 9.0.0 (20230911.1827)
 -->
<!-- Title: /github/workspace/dev_area/sourcecode/hermesmodules/pybindsrc/hermescorecontroller.cpp Pages: 1 -->
<svg width="1519pt" height="426pt"
 viewBox="0.00 0.00 1518.50 426.25" xmlns="http://www.w3.org/2000/svg" xmlns:xlink="http://www.w3.org/1999/xlink">
<g id="graph0" class="graph" transform="scale(1 1) rotate(0) translate(4 422.25)">
<title>/github/workspace/dev_area/sourcecode/hermesmodules/pybindsrc/hermescorecontroller.cpp</title>
<!-- Node1 -->
<g id="Node000001" class="node">
<title>Node1</title>
<g id="a_Node000001"><a xlink:title=" ">
<polygon fill="#999999" stroke="#666666" points="367.62,-418.25 195.62,-418.25 195.62,-376.5 367.62,-376.5 367.62,-418.25"/>
<text text-anchor="start" x="203.62" y="-404.75" font-family="Helvetica,sans-Serif" font-size="10.00">/github/workspace/dev</text>
<text text-anchor="start" x="203.62" y="-393.5" font-family="Helvetica,sans-Serif" font-size="10.00">_area/sourcecode/hermesmodules</text>
<text text-anchor="middle" x="281.62" y="-382.25" font-family="Helvetica,sans-Serif" font-size="10.00">/pybindsrc/hermescorecontroller.cpp</text>
</a>
</g>
</g>
<!-- Node2 -->
<g id="Node000002" class="node">
<title>Node2</title>
<g id="a_Node000002"><a xlink:title=" ">
<polygon fill="#e0e0e0" stroke="#999999" points="105.25,-334.88 0,-334.88 0,-315.62 105.25,-315.62 105.25,-334.88"/>
<text text-anchor="middle" x="52.62" y="-321.38" font-family="Helvetica,sans-Serif" font-size="10.00">pybind11/operators.h</text>
</a>
</g>
</g>
<!-- Node1&#45;&gt;Node2 -->
<g id="edge1_Node000001_Node000002" class="edge">
<title>Node1&#45;&gt;Node2</title>
<g id="a_edge1_Node000001_Node000002"><a xlink:title=" ">
<path fill="none" stroke="#63b8ff" d="M215.39,-376.09C175.87,-363.99 126.96,-349.01 93.13,-338.65"/>
<polygon fill="#63b8ff" stroke="#63b8ff" points="94.3,-335.35 83.71,-335.77 92.25,-342.05 94.3,-335.35"/>
</a>
</g>
</g>
<!-- Node3 -->
<g id="Node000003" class="node">
<title>Node3</title>
<g id="a_Node000003"><a xlink:title=" ">
<polygon fill="#e0e0e0" stroke="#999999" points="226.12,-334.88 123.12,-334.88 123.12,-315.62 226.12,-315.62 226.12,-334.88"/>
<text text-anchor="middle" x="174.62" y="-321.38" font-family="Helvetica,sans-Serif" font-size="10.00">pybind11/pybind11.h</text>
</a>
</g>
</g>
<!-- Node1&#45;&gt;Node3 -->
<g id="edge2_Node000001_Node000003" class="edge">
<title>Node1&#45;&gt;Node3</title>
<g id="a_edge2_Node000001_Node000003"><a xlink:title=" ">
<path fill="none" stroke="#63b8ff" d="M250.68,-376.09C233.77,-365.01 213.18,-351.52 197.69,-341.36"/>
<polygon fill="#63b8ff" stroke="#63b8ff" points="199.88,-338.62 189.6,-336.06 196.05,-344.47 199.88,-338.62"/>
</a>
</g>
</g>
<!-- Node4 -->
<g id="Node000004" class="node">
<title>Node4</title>
<g id="a_Node000004"><a xlink:title=" ">
<polygon fill="#e0e0e0" stroke="#999999" points="319.25,-334.88 244,-334.88 244,-315.62 319.25,-315.62 319.25,-334.88"/>
<text text-anchor="middle" x="281.62" y="-321.38" font-family="Helvetica,sans-Serif" font-size="10.00">pybind11/stl.h</text>
</a>
</g>
</g>
<!-- Node1&#45;&gt;Node4 -->
<g id="edge3_Node000001_Node000004" class="edge">
<title>Node1&#45;&gt;Node4</title>
<g id="a_edge3_Node000001_Node000004"><a xlink:title=" ">
<path fill="none" stroke="#63b8ff" d="M281.62,-376.09C281.62,-366.75 281.62,-355.69 281.62,-346.37"/>
<polygon fill="#63b8ff" stroke="#63b8ff" points="285.13,-346.57 281.63,-336.57 278.13,-346.57 285.13,-346.57"/>
</a>
</g>
</g>
<!-- Node5 -->
<g id="Node000005" class="node">
<title>Node5</title>
<g id="a_Node000005"><a xlink:title=" ">
<polygon fill="#e0e0e0" stroke="#999999" points="68.25,-201.88 17,-201.88 17,-182.62 68.25,-182.62 68.25,-201.88"/>
<text text-anchor="middle" x="42.62" y="-188.38" font-family="Helvetica,sans-Serif" font-size="10.00">sstream</text>
</a>
</g>
</g>
<!-- Node1&#45;&gt;Node5 -->
<g id="edge4_Node000001_Node000005" class="edge">
<title>Node1&#45;&gt;Node5</title>
<g id="a_edge4_Node000001_Node000005"><a xlink:title=" ">
<path fill="none" stroke="#63b8ff" d="M305.4,-376.21C323.56,-358.3 343.19,-331.68 328.62,-310 321.17,-298.91 152.03,-234.35 77.44,-206.28"/>
<polygon fill="#63b8ff" stroke="#63b8ff" points="78.74,-203.03 68.15,-202.79 76.28,-209.58 78.74,-203.03"/>
</a>
</g>
</g>
<!-- Node6 -->
<g id="Node000006" class="node">
<title>Node6</title>
<g id="a_Node000006"><a xlink:href="HermesCoreController_8hpp.html" target="_top" xlink:title=" ">
<polygon fill="white" stroke="#666666" points="555,-340.5 412.25,-340.5 412.25,-310 555,-310 555,-340.5"/>
<text text-anchor="start" x="420.25" y="-327" font-family="Helvetica,sans-Serif" font-size="10.00">hermesmodules/HermesCore</text>
<text text-anchor="middle" x="483.62" y="-315.75" font-family="Helvetica,sans-Serif" font-size="10.00">Controller.hpp</text>
</a>
</g>
</g>
<!-- Node1&#45;&gt;Node6 -->
<g id="edge5_Node000001_Node000006" class="edge">
<title>Node1&#45;&gt;Node6</title>
<g id="a_edge5_Node000001_Node000006"><a xlink:title=" ">
<path fill="none" stroke="#63b8ff" d="M340.05,-376.09C368.65,-366.16 402.82,-354.3 430.65,-344.64"/>
<polygon fill="#63b8ff" stroke="#63b8ff" points="431.64,-348 439.94,-341.42 429.34,-341.39 431.64,-348"/>
</a>
</g>
</g>
<!-- Node7 -->
<g id="Node000007" class="node">
<title>Node7</title>
<g id="a_Node000007"><a xlink:href="Issue_8hpp.html" target="_top" xlink:title=" ">
<polygon fill="white" stroke="#666666" points="558.88,-268.38 484.38,-268.38 484.38,-249.12 558.88,-249.12 558.88,-268.38"/>
<text text-anchor="middle" x="521.62" y="-254.88" font-family="Helvetica,sans-Serif" font-size="10.00">ers/Issue.hpp</text>
</a>
</g>
</g>
<!-- Node6&#45;&gt;Node7 -->
<g id="edge6_Node000006_Node000007" class="edge">
<title>Node6&#45;&gt;Node7</title>
<g id="a_edge6_Node000006_Node000007"><a xlink:title=" ">
<path fill="none" stroke="#63b8ff" d="M492.25,-309.61C497.72,-300.33 504.84,-288.25 510.7,-278.3"/>
<polygon fill="#63b8ff" stroke="#63b8ff" points="513.6,-280.27 515.66,-269.88 507.57,-276.72 513.6,-280.27"/>
</a>
</g>
</g>
<!-- Node32 -->
<g id="Node000032" class="node">
<title>Node32</title>
<g id="a_Node000032"><a xlink:title=" ">
<polygon fill="#e0e0e0" stroke="#999999" points="466.12,-268.38 393.12,-268.38 393.12,-249.12 466.12,-249.12 466.12,-268.38"/>
<text text-anchor="middle" x="429.62" y="-254.88" font-family="Helvetica,sans-Serif" font-size="10.00">uhal/uhal.hpp</text>
</a>
</g>
</g>
<!-- Node6&#45;&gt;Node32 -->
<g id="edge42_Node000006_Node000032" class="edge">
<title>Node6&#45;&gt;Node32</title>
<g id="a_edge42_Node000006_Node000032"><a xlink:title=" ">
<path fill="none" stroke="#63b8ff" d="M471.37,-309.61C463.35,-300.04 452.83,-287.47 444.36,-277.35"/>
<polygon fill="#63b8ff" stroke="#63b8ff" points="447.09,-275.15 437.98,-269.73 441.72,-279.65 447.09,-275.15"/>
</a>
</g>
</g>
<!-- Node33 -->
<g id="Node000033" class="node">
<title>Node33</title>
<g id="a_Node000033"><a xlink:href="hermesmodules_2codegen_2include_2hermesmodules_2hermescontrollerinfo_2InfoStructs_8hpp.html" target="_top" xlink:title=" ">
<polygon fill="white" stroke="#666666" points="1510.5,-274 1334.75,-274 1334.75,-243.5 1510.5,-243.5 1510.5,-274"/>
<text text-anchor="start" x="1342.75" y="-260.5" font-family="Helvetica,sans-Serif" font-size="10.00">hermesmodules/hermescontrollerinfo</text>
<text text-anchor="middle" x="1422.62" y="-249.25" font-family="Helvetica,sans-Serif" font-size="10.00">/InfoStructs.hpp</text>
</a>
</g>
</g>
<!-- Node6&#45;&gt;Node33 -->
<g id="edge43_Node000006_Node000033" class="edge">
<title>Node6&#45;&gt;Node33</title>
<g id="a_edge43_Node000006_Node000033"><a xlink:title=" ">
<path fill="none" stroke="#63b8ff" d="M555.36,-319.32C721.42,-307.92 1132.58,-279.67 1322.95,-266.6"/>
<polygon fill="#63b8ff" stroke="#63b8ff" points="1323.09,-270.1 1332.83,-265.92 1322.61,-263.11 1323.09,-270.1"/>
</a>
</g>
</g>
<!-- Node7&#45;&gt;Node5 -->
<g id="edge13_Node000007_Node000005" class="edge">
<title>Node7&#45;&gt;Node5</title>
<g id="a_edge13_Node000007_Node000005"><a xlink:title=" ">
<path fill="none" stroke="#63b8ff" d="M495.02,-248.66C488.42,-246.69 481.32,-244.81 474.62,-243.5 302.92,-209.95 253.48,-245.15 82.62,-207.5 80.32,-206.99 77.96,-206.39 75.61,-205.72"/>
<polygon fill="#63b8ff" stroke="#63b8ff" points="76.79,-202.42 66.2,-202.71 74.66,-209.09 76.79,-202.42"/>
</a>
</g>
</g>
<!-- Node8 -->
<g id="Node000008" class="node">
<title>Node8</title>
<g id="a_Node000008"><a xlink:title=" ">
<polygon fill="#e0e0e0" stroke="#999999" points="745.25,-201.88 700,-201.88 700,-182.62 745.25,-182.62 745.25,-201.88"/>
<text text-anchor="middle" x="722.62" y="-188.38" font-family="Helvetica,sans-Serif" font-size="10.00">math.h</text>
</a>
</g>
</g>
<!-- Node7&#45;&gt;Node8 -->
<g id="edge7_Node000007_Node000008" class="edge">
<title>Node7&#45;&gt;Node8</title>
<g id="a_edge7_Node000007_Node000008"><a xlink:title=" ">
<path fill="none" stroke="#63b8ff" d="M553.59,-248.68C586.79,-239.09 640.17,-223.2 685.62,-207.5 686.94,-207.05 688.28,-206.57 689.64,-206.09"/>
<polygon fill="#63b8ff" stroke="#63b8ff" points="690.44,-209.52 698.6,-202.77 688.01,-202.96 690.44,-209.52"/>
</a>
</g>
</g>
<!-- Node9 -->
<g id="Node000009" class="node">
<title>Node9</title>
<g id="a_Node000009"><a xlink:title=" ">
<polygon fill="#e0e0e0" stroke="#999999" points="807.88,-201.88 763.38,-201.88 763.38,-182.62 807.88,-182.62 807.88,-201.88"/>
<text text-anchor="middle" x="785.62" y="-188.38" font-family="Helvetica,sans-Serif" font-size="10.00">stdio.h</text>
</a>
</g>
</g>
<!-- Node7&#45;&gt;Node9 -->
<g id="edge8_Node000007_Node000009" class="edge">
<title>Node7&#45;&gt;Node9</title>
<g id="a_edge8_Node000007_Node000009"><a xlink:title=" ">
<path fill="none" stroke="#63b8ff" d="M559.02,-252.27C605.61,-244.86 687.3,-229.94 754.62,-207.5 755.43,-207.23 756.23,-206.95 757.04,-206.66"/>
<polygon fill="#63b8ff" stroke="#63b8ff" points="758.2,-209.97 766.13,-202.94 755.55,-203.49 758.2,-209.97"/>
</a>
</g>
</g>
<!-- Node10 -->
<g id="Node000010" class="node">
<title>Node10</title>
<g id="a_Node000010"><a xlink:title=" ">
<polygon fill="#e0e0e0" stroke="#999999" points="873.38,-201.88 825.88,-201.88 825.88,-182.62 873.38,-182.62 873.38,-201.88"/>
<text text-anchor="middle" x="849.62" y="-188.38" font-family="Helvetica,sans-Serif" font-size="10.00">string.h</text>
</a>
</g>
</g>
<!-- Node7&#45;&gt;Node10 -->
<g id="edge9_Node000007_Node000010" class="edge">
<title>Node7&#45;&gt;Node10</title>
<g id="a_edge9_Node000007_Node000010"><a xlink:title=" ">
<path fill="none" stroke="#63b8ff" d="M559.06,-254.27C615.72,-248.36 726.22,-234.3 816.62,-207.5 817.79,-207.15 818.97,-206.78 820.16,-206.38"/>
<polygon fill="#63b8ff" stroke="#63b8ff" points="821.22,-209.72 829.3,-202.87 818.71,-203.18 821.22,-209.72"/>
</a>
</g>
</g>
<!-- Node11 -->
<g id="Node000011" class="node">
<title>Node11</title>
<g id="a_Node000011"><a xlink:title=" ">
<polygon fill="#e0e0e0" stroke="#999999" points="159,-135.38 124.25,-135.38 124.25,-116.12 159,-116.12 159,-135.38"/>
<text text-anchor="middle" x="141.62" y="-121.88" font-family="Helvetica,sans-Serif" font-size="10.00">map</text>
</a>
</g>
</g>
<!-- Node7&#45;&gt;Node11 -->
<g id="edge10_Node000007_Node000011" class="edge">
<title>Node7&#45;&gt;Node11</title>
<g id="a_edge10_Node000007_Node000011"><a xlink:title=" ">
<path fill="none" stroke="#63b8ff" d="M494.47,-248.74C488.02,-246.82 481.12,-244.94 474.62,-243.5 363.3,-218.89 322.35,-258.99 220.62,-207.5 191.98,-193 167.67,-164.03 153.86,-145.02"/>
<polygon fill="#63b8ff" stroke="#63b8ff" points="156.77,-143.08 148.17,-136.88 151.03,-147.08 156.77,-143.08"/>
</a>
</g>
</g>
<!-- Node12 -->
<g id="Node000012" class="node">
<title>Node12</title>
<g id="a_Node000012"><a xlink:title=" ">
<polygon fill="#e0e0e0" stroke="#999999" points="487.62,-74.5 447.62,-74.5 447.62,-55.25 487.62,-55.25 487.62,-74.5"/>
<text text-anchor="middle" x="467.62" y="-61" font-family="Helvetica,sans-Serif" font-size="10.00">string</text>
</a>
</g>
</g>
<!-- Node7&#45;&gt;Node12 -->
<g id="edge11_Node000007_Node000012" class="edge">
<title>Node7&#45;&gt;Node12</title>
<g id="a_edge11_Node000007_Node000012"><a xlink:title=" ">
<path fill="none" stroke="#63b8ff" d="M559.15,-253.35C588.84,-247.82 628.95,-235.37 651.62,-207.5 679.01,-173.84 689.67,-144.43 662.62,-110.5 642.58,-85.35 549.46,-73.23 499.5,-68.45"/>
<polygon fill="#63b8ff" stroke="#63b8ff" points="499.87,-64.97 489.59,-67.56 499.24,-71.94 499.87,-64.97"/>
</a>
</g>
</g>
<!-- Node13 -->
<g id="Node000013" class="node">
<title>Node13</title>
<g id="a_Node000013"><a xlink:title=" ">
<polygon fill="#e0e0e0" stroke="#999999" points="246.38,-19.25 192.88,-19.25 192.88,0 246.38,0 246.38,-19.25"/>
<text text-anchor="middle" x="219.62" y="-5.75" font-family="Helvetica,sans-Serif" font-size="10.00">iostream</text>
</a>
</g>
</g>
<!-- Node7&#45;&gt;Node13 -->
<g id="edge12_Node000007_Node000013" class="edge">
<title>Node7&#45;&gt;Node13</title>
<g id="a_edge12_Node000007_Node000013"><a xlink:title=" ">
<path fill="none" stroke="#63b8ff" d="M494.49,-248.65C488.04,-246.73 481.13,-244.87 474.62,-243.5 344.95,-216.17 296.98,-267.13 178.62,-207.5 132.72,-184.37 95.47,-157.79 115.62,-110.5 131.65,-72.89 169.56,-42.62 194.9,-25.63"/>
<polygon fill="#63b8ff" stroke="#63b8ff" points="196.49,-28.77 202.98,-20.4 192.68,-22.9 196.49,-28.77"/>
</a>
</g>
</g>
<!-- Node14 -->
<g id="Node000014" class="node">
<title>Node14</title>
<g id="a_Node000014"><a xlink:title=" ">
<polygon fill="#e0e0e0" stroke="#999999" points="595.88,-201.88 545.38,-201.88 545.38,-182.62 595.88,-182.62 595.88,-201.88"/>
<text text-anchor="middle" x="570.62" y="-188.38" font-family="Helvetica,sans-Serif" font-size="10.00">memory</text>
</a>
</g>
</g>
<!-- Node7&#45;&gt;Node14 -->
<g id="edge14_Node000007_Node000014" class="edge">
<title>Node7&#45;&gt;Node14</title>
<g id="a_edge14_Node000007_Node000014"><a xlink:title=" ">
<path fill="none" stroke="#63b8ff" d="M528.44,-248.78C535.83,-239.06 547.81,-223.29 557.11,-211.03"/>
<polygon fill="#63b8ff" stroke="#63b8ff" points="559.69,-213.43 562.95,-203.35 554.12,-209.19 559.69,-213.43"/>
</a>
</g>
</g>
<!-- Node15 -->
<g id="Node000015" class="node">
<title>Node15</title>
<g id="a_Node000015"><a xlink:title=" ">
<polygon fill="#e0e0e0" stroke="#999999" points="402.25,-135.38 357,-135.38 357,-116.12 402.25,-116.12 402.25,-135.38"/>
<text text-anchor="middle" x="379.62" y="-121.88" font-family="Helvetica,sans-Serif" font-size="10.00">chrono</text>
</a>
</g>
</g>
<!-- Node7&#45;&gt;Node15 -->
<g id="edge15_Node000007_Node000015" class="edge">
<title>Node7&#45;&gt;Node15</title>
<g id="a_edge15_Node000007_Node000015"><a xlink:title=" ">
<path fill="none" stroke="#63b8ff" d="M495.87,-248.7C467.07,-238.13 422.85,-220.47 410.62,-207.5 394.71,-190.63 386.72,-164.72 382.88,-146.83"/>
<polygon fill="#63b8ff" stroke="#63b8ff" points="386.35,-146.36 381.08,-137.18 379.47,-147.65 386.35,-146.36"/>
</a>
</g>
</g>
<!-- Node16 -->
<g id="Node000016" class="node">
<title>Node16</title>
<g id="a_Node000016"><a xlink:title=" ">
<polygon fill="#e0e0e0" stroke="#999999" points="643.02,-201.88 614.23,-201.88 614.23,-182.62 643.02,-182.62 643.02,-201.88"/>
<text text-anchor="middle" x="628.62" y="-188.38" font-family="Helvetica,sans-Serif" font-size="10.00">list</text>
</a>
</g>
</g>
<!-- Node7&#45;&gt;Node16 -->
<g id="edge16_Node000007_Node000016" class="edge">
<title>Node7&#45;&gt;Node16</title>
<g id="a_edge16_Node000007_Node000016"><a xlink:title=" ">
<path fill="none" stroke="#63b8ff" d="M536.5,-248.78C553.99,-238.24 583.27,-220.59 604.12,-208.02"/>
<polygon fill="#63b8ff" stroke="#63b8ff" points="605.82,-211.08 612.58,-202.92 602.21,-205.09 605.82,-211.08"/>
</a>
</g>
</g>
<!-- Node17 -->
<g id="Node000017" class="node">
<title>Node17</title>
<g id="a_Node000017"><a xlink:href="IssueFactory_8hpp.html" target="_top" xlink:title=" ">
<polygon fill="white" stroke="#666666" points="356,-201.88 249.25,-201.88 249.25,-182.62 356,-182.62 356,-201.88"/>
<text text-anchor="middle" x="302.62" y="-188.38" font-family="Helvetica,sans-Serif" font-size="10.00">ers/IssueFactory.hpp</text>
</a>
</g>
</g>
<!-- Node7&#45;&gt;Node17 -->
<g id="edge17_Node000007_Node000017" class="edge">
<title>Node7&#45;&gt;Node17</title>
<g id="a_edge17_Node000007_Node000017"><a xlink:title=" ">
<path fill="none" stroke="#63b8ff" d="M491.8,-248.66C486.1,-246.93 480.18,-245.15 474.62,-243.5 430.37,-230.33 379.61,-215.54 344.76,-205.43"/>
<polygon fill="#63b8ff" stroke="#63b8ff" points="346.07,-202.17 335.49,-202.75 344.12,-208.89 346.07,-202.17"/>
</a>
</g>
</g>
<!-- Node19 -->
<g id="Node000019" class="node">
<title>Node19</title>
<g id="a_Node000019"><a xlink:href="Severity_8hpp.html" target="_top" xlink:title=" ">
<polygon fill="white" stroke="#666666" points="262.5,-135.38 176.75,-135.38 176.75,-116.12 262.5,-116.12 262.5,-135.38"/>
<text text-anchor="middle" x="219.62" y="-121.88" font-family="Helvetica,sans-Serif" font-size="10.00">ers/Severity.hpp</text>
</a>
</g>
</g>
<!-- Node7&#45;&gt;Node19 -->
<g id="edge34_Node000007_Node000019" class="edge">
<title>Node7&#45;&gt;Node19</title>
<g id="a_edge34_Node000007_Node000019"><a xlink:title=" ">
<path fill="none" stroke="#63b8ff" d="M493.96,-248.65C487.65,-246.78 480.94,-244.94 474.62,-243.5 423.32,-231.84 279.67,-242.76 240.62,-207.5 223.85,-192.35 219.72,-165.68 219.06,-147.16"/>
<polygon fill="#63b8ff" stroke="#63b8ff" points="222.56,-147.38 219.04,-137.39 215.56,-147.39 222.56,-147.38"/>
</a>
</g>
</g>
<!-- Node20 -->
<g id="Node000020" class="node">
<title>Node20</title>
<g id="a_Node000020"><a xlink:href="LocalContext_8hpp.html" target="_top" xlink:title=" ">
<polygon fill="white" stroke="#666666" points="527.38,-201.88 419.88,-201.88 419.88,-182.62 527.38,-182.62 527.38,-201.88"/>
<text text-anchor="middle" x="473.62" y="-188.38" font-family="Helvetica,sans-Serif" font-size="10.00">ers/LocalContext.hpp</text>
</a>
</g>
</g>
<!-- Node7&#45;&gt;Node20 -->
<g id="edge26_Node000007_Node000020" class="edge">
<title>Node7&#45;&gt;Node20</title>
<g id="a_edge26_Node000007_Node000020"><a xlink:title=" ">
<path fill="none" stroke="#63b8ff" d="M514.95,-248.78C507.71,-239.06 495.98,-223.29 486.86,-211.03"/>
<polygon fill="#63b8ff" stroke="#63b8ff" points="489.92,-209.29 481.15,-203.36 484.31,-213.47 489.92,-209.29"/>
</a>
</g>
</g>
<!-- Node25 -->
<g id="Node000025" class="node">
<title>Node25</title>
<g id="a_Node000025"><a xlink:href="IssueDeclarationMacro_8hpp.html" target="_top" xlink:title=" ">
<polygon fill="white" stroke="#666666" points="1063.5,-207.5 923.75,-207.5 923.75,-177 1063.5,-177 1063.5,-207.5"/>
<text text-anchor="start" x="931.75" y="-194" font-family="Helvetica,sans-Serif" font-size="10.00">ers/internal/IssueDeclaration</text>
<text text-anchor="middle" x="993.62" y="-182.75" font-family="Helvetica,sans-Serif" font-size="10.00">Macro.hpp</text>
</a>
</g>
</g>
<!-- Node7&#45;&gt;Node25 -->
<g id="edge35_Node000007_Node000025" class="edge">
<title>Node7&#45;&gt;Node25</title>
<g id="a_edge35_Node000007_Node000025"><a xlink:title=" ">
<path fill="none" stroke="#63b8ff" d="M559.06,-252.63C635.03,-242.25 808.86,-218.5 912.17,-204.38"/>
<polygon fill="#63b8ff" stroke="#63b8ff" points="912.55,-207.86 921.99,-203.04 911.6,-200.93 912.55,-207.86"/>
</a>
</g>
</g>
<!-- Node17&#45;&gt;Node11 -->
<g id="edge21_Node000017_Node000011" class="edge">
<title>Node17&#45;&gt;Node11</title>
<g id="a_edge21_Node000017_Node000011"><a xlink:title=" ">
<path fill="none" stroke="#63b8ff" d="M274.74,-182.2C249.16,-173.6 210.13,-159.78 167.66,-140.59"/>
<polygon fill="#63b8ff" stroke="#63b8ff" points="169.31,-137.49 158.76,-136.5 166.39,-143.85 169.31,-137.49"/>
</a>
</g>
</g>
<!-- Node17&#45;&gt;Node12 -->
<g id="edge19_Node000017_Node000012" class="edge">
<title>Node17&#45;&gt;Node12</title>
<g id="a_edge19_Node000017_Node000012"><a xlink:title=" ">
<path fill="none" stroke="#63b8ff" d="M305.36,-182.14C310.76,-165.59 324.36,-130.46 347.62,-110.5 354.67,-104.45 403.65,-87.29 436.82,-76.09"/>
<polygon fill="#63b8ff" stroke="#63b8ff" points="437.57,-79.53 445.94,-73.03 435.35,-72.89 437.57,-79.53"/>
</a>
</g>
</g>
<!-- Node17&#45;&gt;Node15 -->
<g id="edge18_Node000017_Node000015" class="edge">
<title>Node17&#45;&gt;Node15</title>
<g id="a_edge18_Node000017_Node000015"><a xlink:title=" ">
<path fill="none" stroke="#63b8ff" d="M313.33,-182.28C325.51,-172.08 345.65,-155.21 360.54,-142.74"/>
<polygon fill="#63b8ff" stroke="#63b8ff" points="362.43,-145.72 367.85,-136.61 357.94,-140.35 362.43,-145.72"/>
</a>
</g>
</g>
<!-- Node18 -->
<g id="Node000018" class="node">
<title>Node18</title>
<g id="a_Node000018"><a xlink:title=" ">
<polygon fill="#e0e0e0" stroke="#999999" points="305.12,-74.5 262.12,-74.5 262.12,-55.25 305.12,-55.25 305.12,-74.5"/>
<text text-anchor="middle" x="283.62" y="-61" font-family="Helvetica,sans-Serif" font-size="10.00">vector</text>
</a>
</g>
</g>
<!-- Node17&#45;&gt;Node18 -->
<g id="edge20_Node000017_Node000018" class="edge">
<title>Node17&#45;&gt;Node18</title>
<g id="a_edge20_Node000017_Node000018"><a xlink:title=" ">
<path fill="none" stroke="#63b8ff" d="M301.26,-182.23C298.22,-162.17 290.83,-113.45 286.65,-85.83"/>
<polygon fill="#63b8ff" stroke="#63b8ff" points="290.16,-85.67 285.21,-76.31 283.24,-86.72 290.16,-85.67"/>
</a>
</g>
</g>
<!-- Node17&#45;&gt;Node19 -->
<g id="edge22_Node000017_Node000019" class="edge">
<title>Node17&#45;&gt;Node19</title>
<g id="a_edge22_Node000017_Node000019"><a xlink:title=" ">
<path fill="none" stroke="#63b8ff" d="M291.08,-182.28C277.9,-172.04 256.09,-155.09 240.02,-142.6"/>
<polygon fill="#63b8ff" stroke="#63b8ff" points="242.57,-140.15 232.53,-136.78 238.28,-145.68 242.57,-140.15"/>
</a>
</g>
</g>
<!-- Node19&#45;&gt;Node12 -->
<g id="edge23_Node000019_Node000012" class="edge">
<title>Node19&#45;&gt;Node12</title>
<g id="a_edge23_Node000019_Node000012"><a xlink:title=" ">
<path fill="none" stroke="#63b8ff" d="M262.63,-115.73C304.59,-106.74 370.48,-92.13 436.39,-74.96"/>
<polygon fill="#63b8ff" stroke="#63b8ff" points="437.14,-78.38 445.93,-72.46 435.36,-71.61 437.14,-78.38"/>
</a>
</g>
</g>
<!-- Node19&#45;&gt;Node13 -->
<g id="edge25_Node000019_Node000013" class="edge">
<title>Node19&#45;&gt;Node13</title>
<g id="a_edge25_Node000019_Node000013"><a xlink:title=" ">
<path fill="none" stroke="#63b8ff" d="M219.62,-115.79C219.62,-97.63 219.62,-56.04 219.62,-30.95"/>
<polygon fill="#63b8ff" stroke="#63b8ff" points="223.13,-31.05 219.63,-21.05 216.13,-31.05 223.13,-31.05"/>
</a>
</g>
</g>
<!-- Node19&#45;&gt;Node18 -->
<g id="edge24_Node000019_Node000018" class="edge">
<title>Node19&#45;&gt;Node18</title>
<g id="a_edge24_Node000019_Node000018"><a xlink:title=" ">
<path fill="none" stroke="#63b8ff" d="M229.35,-115.81C238.93,-106.99 253.81,-93.3 265.57,-82.48"/>
<polygon fill="#63b8ff" stroke="#63b8ff" points="267.71,-85.27 272.7,-75.93 262.97,-80.12 267.71,-85.27"/>
</a>
</g>
</g>
<!-- Node21 -->
<g id="Node000021" class="node">
<title>Node21</title>
<g id="a_Node000021"><a xlink:title=" ">
<polygon fill="#e0e0e0" stroke="#999999" points="654,-135.38 589.25,-135.38 589.25,-116.12 654,-116.12 654,-135.38"/>
<text text-anchor="middle" x="621.62" y="-121.88" font-family="Helvetica,sans-Serif" font-size="10.00">sys/types.h</text>
</a>
</g>
</g>
<!-- Node20&#45;&gt;Node21 -->
<g id="edge27_Node000020_Node000021" class="edge">
<title>Node20&#45;&gt;Node21</title>
<g id="a_edge27_Node000020_Node000021"><a xlink:title=" ">
<path fill="none" stroke="#63b8ff" d="M494.52,-182.15C519.53,-171.25 561.65,-152.89 590.5,-140.32"/>
<polygon fill="#63b8ff" stroke="#63b8ff" points="591.68,-143.62 599.45,-136.41 588.89,-137.2 591.68,-143.62"/>
</a>
</g>
</g>
<!-- Node22 -->
<g id="Node000022" class="node">
<title>Node22</title>
<g id="a_Node000022"><a xlink:title=" ">
<polygon fill="#e0e0e0" stroke="#999999" points="571.5,-135.38 521.75,-135.38 521.75,-116.12 571.5,-116.12 571.5,-135.38"/>
<text text-anchor="middle" x="546.62" y="-121.88" font-family="Helvetica,sans-Serif" font-size="10.00">unistd.h</text>
</a>
</g>
</g>
<!-- Node20&#45;&gt;Node22 -->
<g id="edge28_Node000020_Node000022" class="edge">
<title>Node20&#45;&gt;Node22</title>
<g id="a_edge28_Node000020_Node000022"><a xlink:title=" ">
<path fill="none" stroke="#63b8ff" d="M483.78,-182.28C495.22,-172.17 514.05,-155.53 528.13,-143.1"/>
<polygon fill="#63b8ff" stroke="#63b8ff" points="530.25,-145.89 535.43,-136.64 525.62,-140.64 530.25,-145.89"/>
</a>
</g>
</g>
<!-- Node23 -->
<g id="Node000023" class="node">
<title>Node23</title>
<g id="a_Node000023"><a xlink:href="Context_8hpp.html" target="_top" xlink:title=" ">
<polygon fill="white" stroke="#666666" points="503.38,-135.38 419.88,-135.38 419.88,-116.12 503.38,-116.12 503.38,-135.38"/>
<text text-anchor="middle" x="461.62" y="-121.88" font-family="Helvetica,sans-Serif" font-size="10.00">ers/Context.hpp</text>
</a>
</g>
</g>
<!-- Node20&#45;&gt;Node23 -->
<g id="edge29_Node000020_Node000023" class="edge">
<title>Node20&#45;&gt;Node23</title>
<g id="a_edge29_Node000020_Node000023"><a xlink:title=" ">
<path fill="none" stroke="#63b8ff" d="M471.96,-182.28C470.25,-173.14 467.56,-158.64 465.35,-146.75"/>
<polygon fill="#63b8ff" stroke="#63b8ff" points="468.83,-146.32 463.56,-137.13 461.94,-147.6 468.83,-146.32"/>
</a>
</g>
</g>
<!-- Node23&#45;&gt;Node12 -->
<g id="edge30_Node000023_Node000012" class="edge">
<title>Node23&#45;&gt;Node12</title>
<g id="a_edge30_Node000023_Node000012"><a xlink:title=" ">
<path fill="none" stroke="#63b8ff" d="M462.54,-115.81C463.34,-107.94 464.53,-96.2 465.57,-86.07"/>
<polygon fill="#63b8ff" stroke="#63b8ff" points="469.02,-86.71 466.55,-76.41 462.06,-86 469.02,-86.71"/>
</a>
</g>
</g>
<!-- Node23&#45;&gt;Node18 -->
<g id="edge31_Node000023_Node000018" class="edge">
<title>Node23&#45;&gt;Node18</title>
<g id="a_edge31_Node000023_Node000018"><a xlink:title=" ">
<path fill="none" stroke="#63b8ff" d="M434.2,-115.68C402.4,-105.16 350.02,-87.83 316.17,-76.64"/>
<polygon fill="#63b8ff" stroke="#63b8ff" points="317.5,-73.39 306.9,-73.57 315.3,-80.04 317.5,-73.39"/>
</a>
</g>
</g>
<!-- Node24 -->
<g id="Node000024" class="node">
<title>Node24</title>
<g id="a_Node000024"><a xlink:href="ers_2include_2ers_2Configuration_8hpp.html" target="_top" xlink:title=" ">
<polygon fill="white" stroke="#666666" points="430,-74.5 323.25,-74.5 323.25,-55.25 430,-55.25 430,-74.5"/>
<text text-anchor="middle" x="376.62" y="-61" font-family="Helvetica,sans-Serif" font-size="10.00">ers/Configuration.hpp</text>
</a>
</g>
</g>
<!-- Node23&#45;&gt;Node24 -->
<g id="edge32_Node000023_Node000024" class="edge">
<title>Node23&#45;&gt;Node24</title>
<g id="a_edge32_Node000023_Node000024"><a xlink:title=" ">
<path fill="none" stroke="#63b8ff" d="M448.72,-115.81C435.49,-106.64 414.66,-92.22 398.79,-81.23"/>
<polygon fill="#63b8ff" stroke="#63b8ff" points="401.11,-78.58 390.9,-75.76 397.13,-84.33 401.11,-78.58"/>
</a>
</g>
</g>
<!-- Node24&#45;&gt;Node13 -->
<g id="edge33_Node000024_Node000013" class="edge">
<title>Node24&#45;&gt;Node13</title>
<g id="a_edge33_Node000024_Node000013"><a xlink:title=" ">
<path fill="none" stroke="#63b8ff" d="M349.99,-54.84C324.5,-46.2 285.81,-33.07 257.2,-23.37"/>
<polygon fill="#63b8ff" stroke="#63b8ff" points="258.42,-20.09 247.82,-20.19 256.17,-26.72 258.42,-20.09"/>
</a>
</g>
</g>
<!-- Node26 -->
<g id="Node000026" class="node">
<title>Node26</title>
<g id="a_Node000026"><a xlink:title=" ">
<polygon fill="#e0e0e0" stroke="#999999" points="1277.25,-141 1178,-141 1178,-110.5 1277.25,-110.5 1277.25,-141"/>
<text text-anchor="start" x="1186" y="-127.5" font-family="Helvetica,sans-Serif" font-size="10.00">boost/preprocessor</text>
<text text-anchor="middle" x="1227.62" y="-116.25" font-family="Helvetica,sans-Serif" font-size="10.00">/if.hpp</text>
</a>
</g>
</g>
<!-- Node25&#45;&gt;Node26 -->
<g id="edge36_Node000025_Node000026" class="edge">
<title>Node25&#45;&gt;Node26</title>
<g id="a_edge36_Node000025_Node000026"><a xlink:title=" ">
<path fill="none" stroke="#63b8ff" d="M1047.02,-176.53C1082.74,-166.69 1129.84,-153.7 1166.98,-143.47"/>
<polygon fill="#63b8ff" stroke="#63b8ff" points="1167.49,-146.95 1176.21,-140.92 1165.63,-140.21 1167.49,-146.95"/>
</a>
</g>
</g>
<!-- Node27 -->
<g id="Node000027" class="node">
<title>Node27</title>
<g id="a_Node000027"><a xlink:title=" ">
<polygon fill="#e0e0e0" stroke="#999999" points="1394.25,-141 1295,-141 1295,-110.5 1394.25,-110.5 1394.25,-141"/>
<text text-anchor="start" x="1303" y="-127.5" font-family="Helvetica,sans-Serif" font-size="10.00">boost/preprocessor</text>
<text text-anchor="middle" x="1344.62" y="-116.25" font-family="Helvetica,sans-Serif" font-size="10.00">/seq.hpp</text>
</a>
</g>
</g>
<!-- Node25&#45;&gt;Node27 -->
<g id="edge37_Node000025_Node000027" class="edge">
<title>Node25&#45;&gt;Node27</title>
<g id="a_edge37_Node000025_Node000027"><a xlink:title=" ">
<path fill="none" stroke="#63b8ff" d="M1063.75,-180.66C1120.71,-171.73 1203.36,-158.03 1283.86,-141.5"/>
<polygon fill="#63b8ff" stroke="#63b8ff" points="1284.13,-145.02 1293.21,-139.56 1282.71,-138.17 1284.13,-145.02"/>
</a>
</g>
</g>
<!-- Node28 -->
<g id="Node000028" class="node">
<title>Node28</title>
<g id="a_Node000028"><a xlink:title=" ">
<polygon fill="#e0e0e0" stroke="#999999" points="809.25,-141 710,-141 710,-110.5 809.25,-110.5 809.25,-141"/>
<text text-anchor="start" x="718" y="-127.5" font-family="Helvetica,sans-Serif" font-size="10.00">boost/preprocessor</text>
<text text-anchor="middle" x="759.62" y="-116.25" font-family="Helvetica,sans-Serif" font-size="10.00">/tuple.hpp</text>
</a>
</g>
</g>
<!-- Node25&#45;&gt;Node28 -->
<g id="edge38_Node000025_Node000028" class="edge">
<title>Node25&#45;&gt;Node28</title>
<g id="a_edge38_Node000025_Node000028"><a xlink:title=" ">
<path fill="none" stroke="#63b8ff" d="M940.23,-176.53C904.51,-166.69 857.41,-153.7 820.27,-143.47"/>
<polygon fill="#63b8ff" stroke="#63b8ff" points="821.62,-140.21 811.04,-140.92 819.76,-146.95 821.62,-140.21"/>
</a>
</g>
</g>
<!-- Node29 -->
<g id="Node000029" class="node">
<title>Node29</title>
<g id="a_Node000029"><a xlink:title=" ">
<polygon fill="#e0e0e0" stroke="#999999" points="926.25,-141 827,-141 827,-110.5 926.25,-110.5 926.25,-141"/>
<text text-anchor="start" x="835" y="-127.5" font-family="Helvetica,sans-Serif" font-size="10.00">boost/preprocessor</text>
<text text-anchor="middle" x="876.62" y="-116.25" font-family="Helvetica,sans-Serif" font-size="10.00">/logical.hpp</text>
</a>
</g>
</g>
<!-- Node25&#45;&gt;Node29 -->
<g id="edge39_Node000025_Node000029" class="edge">
<title>Node25&#45;&gt;Node29</title>
<g id="a_edge39_Node000025_Node000029"><a xlink:title=" ">
<path fill="none" stroke="#63b8ff" d="M967.08,-176.61C951.07,-167.79 930.46,-156.43 912.96,-146.78"/>
<polygon fill="#63b8ff" stroke="#63b8ff" points="914.84,-143.82 904.39,-142.06 911.46,-149.95 914.84,-143.82"/>
</a>
</g>
</g>
<!-- Node30 -->
<g id="Node000030" class="node">
<title>Node30</title>
<g id="a_Node000030"><a xlink:title=" ">
<polygon fill="#e0e0e0" stroke="#999999" points="1043.25,-141 944,-141 944,-110.5 1043.25,-110.5 1043.25,-141"/>
<text text-anchor="start" x="952" y="-127.5" font-family="Helvetica,sans-Serif" font-size="10.00">boost/preprocessor</text>
<text text-anchor="middle" x="993.62" y="-116.25" font-family="Helvetica,sans-Serif" font-size="10.00">/stringize.hpp</text>
</a>
</g>
</g>
<!-- Node25&#45;&gt;Node30 -->
<g id="edge40_Node000025_Node000030" class="edge">
<title>Node25&#45;&gt;Node30</title>
<g id="a_edge40_Node000025_Node000030"><a xlink:title=" ">
<path fill="none" stroke="#63b8ff" d="M993.62,-176.61C993.62,-169.52 993.62,-160.79 993.62,-152.63"/>
<polygon fill="#63b8ff" stroke="#63b8ff" points="997.13,-152.84 993.63,-142.84 990.13,-152.84 997.13,-152.84"/>
</a>
</g>
</g>
<!-- Node31 -->
<g id="Node000031" class="node">
<title>Node31</title>
<g id="a_Node000031"><a xlink:title=" ">
<polygon fill="#e0e0e0" stroke="#999999" points="1160.25,-141 1061,-141 1061,-110.5 1160.25,-110.5 1160.25,-141"/>
<text text-anchor="start" x="1069" y="-127.5" font-family="Helvetica,sans-Serif" font-size="10.00">boost/preprocessor</text>
<text text-anchor="middle" x="1110.62" y="-116.25" font-family="Helvetica,sans-Serif" font-size="10.00">/comparison.hpp</text>
</a>
</g>
</g>
<!-- Node25&#45;&gt;Node31 -->
<g id="edge41_Node000025_Node000031" class="edge">
<title>Node25&#45;&gt;Node31</title>
<g id="a_edge41_Node000025_Node000031"><a xlink:title=" ">
<path fill="none" stroke="#63b8ff" d="M1020.17,-176.61C1036.18,-167.79 1056.79,-156.43 1074.29,-146.78"/>
<polygon fill="#63b8ff" stroke="#63b8ff" points="1075.79,-149.95 1082.86,-142.06 1072.41,-143.82 1075.79,-149.95"/>
</a>
</g>
</g>
<!-- Node33&#45;&gt;Node12 -->
<g id="edge45_Node000033_Node000012" class="edge">
<title>Node33&#45;&gt;Node12</title>
<g id="a_edge45_Node000033_Node000012"><a xlink:title=" ">
<path fill="none" stroke="#63b8ff" d="M1426.01,-243.38C1432.08,-213.57 1440.95,-144.93 1403.62,-110.5 1369.68,-79.19 659.46,-68.31 499.45,-66.26"/>
<polygon fill="#63b8ff" stroke="#63b8ff" points="499.65,-62.76 489.6,-66.13 499.56,-69.76 499.65,-62.76"/>
</a>
</g>
</g>
<!-- Node34 -->
<g id="Node000034" class="node">
<title>Node34</title>
<g id="a_Node000034"><a xlink:title=" ">
<polygon fill="#e0e0e0" stroke="#999999" points="1496.25,-201.88 1451,-201.88 1451,-182.62 1496.25,-182.62 1496.25,-201.88"/>
<text text-anchor="middle" x="1473.62" y="-188.38" font-family="Helvetica,sans-Serif" font-size="10.00">cstdint</text>
</a>
</g>
</g>
<!-- Node33&#45;&gt;Node34 -->
<g id="edge44_Node000033_Node000034" class="edge">
<title>Node33&#45;&gt;Node34</title>
<g id="a_edge44_Node000033_Node000034"><a xlink:title=" ">
<path fill="none" stroke="#63b8ff" d="M1434.2,-243.11C1441.77,-233.54 1451.71,-220.97 1459.71,-210.85"/>
<polygon fill="#63b8ff" stroke="#63b8ff" points="1462.25,-213.27 1465.71,-203.26 1456.76,-208.93 1462.25,-213.27"/>
</a>
</g>
</g>
</g>
</svg>
