<?xml version="1.0" encoding="UTF-8" standalone="no"?>
<!DOCTYPE svg PUBLIC "-//W3C//DTD SVG 1.1//EN"
 "http://www.w3.org/Graphics/SVG/1.1/DTD/svg11.dtd">
<!-- Generated by graphviz version 9.0.0 (20230911.1827)
 -->
<!-- Title: /github/workspace/dev_area/sourcecode/hermesmodules/include/hermesmodules/HermesCoreController.hpp Pages: 1 -->
<svg width="1420pt" height="360pt"
 viewBox="0.00 0.00 1420.43 359.75" xmlns="http://www.w3.org/2000/svg" xmlns:xlink="http://www.w3.org/1999/xlink">
<g id="graph0" class="graph" transform="scale(1 1) rotate(0) translate(4 355.75)">
<title>/github/workspace/dev_area/sourcecode/hermesmodules/include/hermesmodules/HermesCoreController.hpp</title>
<!-- Node1 -->
<g id="Node000001" class="node">
<title>Node1</title>
<g id="a_Node000001"><a xlink:title=" ">
<polygon fill="#999999" stroke="#666666" points="968.93,-351.75 730.18,-351.75 730.18,-310 968.93,-310 968.93,-351.75"/>
<text text-anchor="start" x="738.18" y="-338.25" font-family="Helvetica,sans-Serif" font-size="10.00">/github/workspace/dev</text>
<text text-anchor="start" x="738.18" y="-327" font-family="Helvetica,sans-Serif" font-size="10.00">_area/sourcecode/hermesmodules</text>
<text text-anchor="middle" x="849.55" y="-315.75" font-family="Helvetica,sans-Serif" font-size="10.00">/include/hermesmodules/HermesCoreController.hpp</text>
</a>
</g>
</g>
<!-- Node2 -->
<g id="Node000002" class="node">
<title>Node2</title>
<g id="a_Node000002"><a xlink:href="Issue_8hpp.html" target="_top" xlink:title=" ">
<polygon fill="white" stroke="#666666" points="461.8,-268.38 387.3,-268.38 387.3,-249.12 461.8,-249.12 461.8,-268.38"/>
<text text-anchor="middle" x="424.55" y="-254.88" font-family="Helvetica,sans-Serif" font-size="10.00">ers/Issue.hpp</text>
</a>
</g>
</g>
<!-- Node1&#45;&gt;Node2 -->
<g id="edge1_Node000001_Node000002" class="edge">
<title>Node1&#45;&gt;Node2</title>
<g id="a_edge1_Node000001_Node000002"><a xlink:title=" ">
<path fill="none" stroke="#63b8ff" d="M729.75,-310.11C644.71,-296.08 535.02,-277.98 472.98,-267.74"/>
<polygon fill="#63b8ff" stroke="#63b8ff" points="473.89,-264.34 463.45,-266.17 472.75,-271.25 473.89,-264.34"/>
</a>
</g>
</g>
<!-- Node28 -->
<g id="Node000028" class="node">
<title>Node28</title>
<g id="a_Node000028"><a xlink:title=" ">
<polygon fill="#e0e0e0" stroke="#999999" points="886.05,-268.38 813.05,-268.38 813.05,-249.12 886.05,-249.12 886.05,-268.38"/>
<text text-anchor="middle" x="849.55" y="-254.88" font-family="Helvetica,sans-Serif" font-size="10.00">uhal/uhal.hpp</text>
</a>
</g>
</g>
<!-- Node1&#45;&gt;Node28 -->
<g id="edge37_Node000001_Node000028" class="edge">
<title>Node1&#45;&gt;Node28</title>
<g id="a_edge37_Node000001_Node000028"><a xlink:title=" ">
<path fill="none" stroke="#63b8ff" d="M849.55,-309.59C849.55,-300.25 849.55,-289.19 849.55,-279.87"/>
<polygon fill="#63b8ff" stroke="#63b8ff" points="853.05,-280.07 849.55,-270.07 846.05,-280.07 853.05,-280.07"/>
</a>
</g>
</g>
<!-- Node29 -->
<g id="Node000029" class="node">
<title>Node29</title>
<g id="a_Node000029"><a xlink:href="hermesmodules_2codegen_2include_2hermesmodules_2hermescontrollerinfo_2InfoStructs_8hpp.html" target="_top" xlink:title=" ">
<polygon fill="white" stroke="#666666" points="1412.43,-274 1236.68,-274 1236.68,-243.5 1412.43,-243.5 1412.43,-274"/>
<text text-anchor="start" x="1244.68" y="-260.5" font-family="Helvetica,sans-Serif" font-size="10.00">hermesmodules/hermescontrollerinfo</text>
<text text-anchor="middle" x="1324.55" y="-249.25" font-family="Helvetica,sans-Serif" font-size="10.00">/InfoStructs.hpp</text>
</a>
</g>
</g>
<!-- Node1&#45;&gt;Node29 -->
<g id="edge38_Node000001_Node000029" class="edge">
<title>Node1&#45;&gt;Node29</title>
<g id="a_edge38_Node000001_Node000029"><a xlink:title=" ">
<path fill="none" stroke="#63b8ff" d="M969.42,-312.18C1048.36,-300.52 1150.51,-285.44 1224.98,-274.45"/>
<polygon fill="#63b8ff" stroke="#63b8ff" points="1225.34,-277.94 1234.72,-273.01 1224.32,-271.01 1225.34,-277.94"/>
</a>
</g>
</g>
<!-- Node3 -->
<g id="Node000003" class="node">
<title>Node3</title>
<g id="a_Node000003"><a xlink:title=" ">
<polygon fill="#e0e0e0" stroke="#999999" points="320.18,-201.88 274.93,-201.88 274.93,-182.62 320.18,-182.62 320.18,-201.88"/>
<text text-anchor="middle" x="297.55" y="-188.38" font-family="Helvetica,sans-Serif" font-size="10.00">math.h</text>
</a>
</g>
</g>
<!-- Node2&#45;&gt;Node3 -->
<g id="edge2_Node000002_Node000003" class="edge">
<title>Node2&#45;&gt;Node3</title>
<g id="a_edge2_Node000002_Node000003"><a xlink:title=" ">
<path fill="none" stroke="#63b8ff" d="M406.63,-248.65C385.54,-237.94 350.29,-220.03 325.58,-207.49"/>
<polygon fill="#63b8ff" stroke="#63b8ff" points="327.24,-204.4 316.74,-202.99 324.07,-210.64 327.24,-204.4"/>
</a>
</g>
</g>
<!-- Node4 -->
<g id="Node000004" class="node">
<title>Node4</title>
<g id="a_Node000004"><a xlink:title=" ">
<polygon fill="#e0e0e0" stroke="#999999" points="382.8,-201.88 338.3,-201.88 338.3,-182.62 382.8,-182.62 382.8,-201.88"/>
<text text-anchor="middle" x="360.55" y="-188.38" font-family="Helvetica,sans-Serif" font-size="10.00">stdio.h</text>
</a>
</g>
</g>
<!-- Node2&#45;&gt;Node4 -->
<g id="edge3_Node000002_Node000004" class="edge">
<title>Node2&#45;&gt;Node4</title>
<g id="a_edge3_Node000002_Node000004"><a xlink:title=" ">
<path fill="none" stroke="#63b8ff" d="M415.65,-248.78C405.82,-238.87 389.74,-222.66 377.48,-210.31"/>
<polygon fill="#63b8ff" stroke="#63b8ff" points="379.97,-207.85 370.44,-203.22 375,-212.78 379.97,-207.85"/>
</a>
</g>
</g>
<!-- Node5 -->
<g id="Node000005" class="node">
<title>Node5</title>
<g id="a_Node000005"><a xlink:title=" ">
<polygon fill="#e0e0e0" stroke="#999999" points="448.3,-201.88 400.8,-201.88 400.8,-182.62 448.3,-182.62 448.3,-201.88"/>
<text text-anchor="middle" x="424.55" y="-188.38" font-family="Helvetica,sans-Serif" font-size="10.00">string.h</text>
</a>
</g>
</g>
<!-- Node2&#45;&gt;Node5 -->
<g id="edge4_Node000002_Node000005" class="edge">
<title>Node2&#45;&gt;Node5</title>
<g id="a_edge4_Node000002_Node000005"><a xlink:title=" ">
<path fill="none" stroke="#63b8ff" d="M424.55,-248.78C424.55,-239.73 424.55,-225.45 424.55,-213.63"/>
<polygon fill="#63b8ff" stroke="#63b8ff" points="428.05,-213.66 424.55,-203.66 421.05,-213.66 428.05,-213.66"/>
</a>
</g>
</g>
<!-- Node6 -->
<g id="Node000006" class="node">
<title>Node6</title>
<g id="a_Node000006"><a xlink:title=" ">
<polygon fill="#e0e0e0" stroke="#999999" points="303.93,-135.38 269.18,-135.38 269.18,-116.12 303.93,-116.12 303.93,-135.38"/>
<text text-anchor="middle" x="286.55" y="-121.88" font-family="Helvetica,sans-Serif" font-size="10.00">map</text>
</a>
</g>
</g>
<!-- Node2&#45;&gt;Node6 -->
<g id="edge5_Node000002_Node000006" class="edge">
<title>Node2&#45;&gt;Node6</title>
<g id="a_edge5_Node000002_Node000006"><a xlink:title=" ">
<path fill="none" stroke="#63b8ff" d="M433.78,-248.68C448.8,-232.82 475.19,-199.55 457.55,-177 416.65,-124.7 374.4,-165.16 312.55,-141 312.33,-140.91 312.1,-140.82 311.87,-140.73"/>
<polygon fill="#63b8ff" stroke="#63b8ff" points="313.54,-137.65 303,-136.52 310.53,-143.97 313.54,-137.65"/>
</a>
</g>
</g>
<!-- Node7 -->
<g id="Node000007" class="node">
<title>Node7</title>
<g id="a_Node000007"><a xlink:title=" ">
<polygon fill="#e0e0e0" stroke="#999999" points="360.55,-74.5 320.55,-74.5 320.55,-55.25 360.55,-55.25 360.55,-74.5"/>
<text text-anchor="middle" x="340.55" y="-61" font-family="Helvetica,sans-Serif" font-size="10.00">string</text>
</a>
</g>
</g>
<!-- Node2&#45;&gt;Node7 -->
<g id="edge6_Node000002_Node000007" class="edge">
<title>Node2&#45;&gt;Node7</title>
<g id="a_edge6_Node000002_Node000007"><a xlink:title=" ">
<path fill="none" stroke="#63b8ff" d="M462.29,-255.35C547.29,-249.66 760.1,-233.82 936.55,-207.5 973.66,-201.97 1243.78,-170.02 1267.55,-141 1276.14,-130.51 1276.95,-120.28 1267.55,-110.5 1234.42,-76.01 485.81,-82.07 372.17,-73.82"/>
<polygon fill="#63b8ff" stroke="#63b8ff" points="372.82,-70.36 362.51,-72.8 372.09,-77.33 372.82,-70.36"/>
</a>
</g>
</g>
<!-- Node8 -->
<g id="Node000008" class="node">
<title>Node8</title>
<g id="a_Node000008"><a xlink:title=" ">
<polygon fill="#e0e0e0" stroke="#999999" points="159.3,-19.25 105.8,-19.25 105.8,0 159.3,0 159.3,-19.25"/>
<text text-anchor="middle" x="132.55" y="-5.75" font-family="Helvetica,sans-Serif" font-size="10.00">iostream</text>
</a>
</g>
</g>
<!-- Node2&#45;&gt;Node8 -->
<g id="edge7_Node000002_Node000008" class="edge">
<title>Node2&#45;&gt;Node8</title>
<g id="a_edge7_Node000002_Node000008"><a xlink:title=" ">
<path fill="none" stroke="#63b8ff" d="M387.08,-255.81C291.48,-250.5 44.32,-234.29 19.55,-207.5 -9.73,-175.83 -1.43,-149.71 16.55,-110.5 34.61,-71.13 76.69,-41.41 104.89,-25.01"/>
<polygon fill="#63b8ff" stroke="#63b8ff" points="106.25,-28.26 113.26,-20.31 102.83,-22.15 106.25,-28.26"/>
</a>
</g>
</g>
<!-- Node9 -->
<g id="Node000009" class="node">
<title>Node9</title>
<g id="a_Node000009"><a xlink:title=" ">
<polygon fill="#e0e0e0" stroke="#999999" points="1228.18,-201.88 1176.93,-201.88 1176.93,-182.62 1228.18,-182.62 1228.18,-201.88"/>
<text text-anchor="middle" x="1202.55" y="-188.38" font-family="Helvetica,sans-Serif" font-size="10.00">sstream</text>
</a>
</g>
</g>
<!-- Node2&#45;&gt;Node9 -->
<g id="edge8_Node000002_Node000009" class="edge">
<title>Node2&#45;&gt;Node9</title>
<g id="a_edge8_Node000002_Node000009"><a xlink:title=" ">
<path fill="none" stroke="#63b8ff" d="M462.12,-256.55C592.73,-252.18 1026.45,-235.81 1162.55,-207.5 1164.87,-207.02 1167.23,-206.44 1169.58,-205.78"/>
<polygon fill="#63b8ff" stroke="#63b8ff" points="1170.52,-209.16 1179,-202.8 1168.41,-202.48 1170.52,-209.16"/>
</a>
</g>
</g>
<!-- Node10 -->
<g id="Node000010" class="node">
<title>Node10</title>
<g id="a_Node000010"><a xlink:title=" ">
<polygon fill="#e0e0e0" stroke="#999999" points="1296.8,-201.88 1246.3,-201.88 1246.3,-182.62 1296.8,-182.62 1296.8,-201.88"/>
<text text-anchor="middle" x="1271.55" y="-188.38" font-family="Helvetica,sans-Serif" font-size="10.00">memory</text>
</a>
</g>
</g>
<!-- Node2&#45;&gt;Node10 -->
<g id="edge9_Node000002_Node000010" class="edge">
<title>Node2&#45;&gt;Node10</title>
<g id="a_edge9_Node000002_Node000010"><a xlink:title=" ">
<path fill="none" stroke="#63b8ff" d="M462.23,-256.16C612.1,-249.75 1161.55,-225.24 1237.55,-207.5 1239.19,-207.12 1240.85,-206.66 1242.51,-206.16"/>
<polygon fill="#63b8ff" stroke="#63b8ff" points="1243.61,-209.48 1251.8,-202.77 1241.21,-202.91 1243.61,-209.48"/>
</a>
</g>
</g>
<!-- Node11 -->
<g id="Node000011" class="node">
<title>Node11</title>
<g id="a_Node000011"><a xlink:title=" ">
<polygon fill="#e0e0e0" stroke="#999999" points="71.18,-135.38 25.93,-135.38 25.93,-116.12 71.18,-116.12 71.18,-135.38"/>
<text text-anchor="middle" x="48.55" y="-121.88" font-family="Helvetica,sans-Serif" font-size="10.00">chrono</text>
</a>
</g>
</g>
<!-- Node2&#45;&gt;Node11 -->
<g id="edge10_Node000002_Node000011" class="edge">
<title>Node2&#45;&gt;Node11</title>
<g id="a_edge10_Node000002_Node000011"><a xlink:title=" ">
<path fill="none" stroke="#63b8ff" d="M387.02,-254.42C317.2,-247.74 170.37,-231.28 125.55,-207.5 97.69,-192.71 74.12,-164.07 60.65,-145.17"/>
<polygon fill="#63b8ff" stroke="#63b8ff" points="63.65,-143.35 55.1,-137.08 57.87,-147.31 63.65,-143.35"/>
</a>
</g>
</g>
<!-- Node12 -->
<g id="Node000012" class="node">
<title>Node12</title>
<g id="a_Node000012"><a xlink:title=" ">
<polygon fill="#e0e0e0" stroke="#999999" points="56.95,-201.88 28.15,-201.88 28.15,-182.62 56.95,-182.62 56.95,-201.88"/>
<text text-anchor="middle" x="42.55" y="-188.38" font-family="Helvetica,sans-Serif" font-size="10.00">list</text>
</a>
</g>
</g>
<!-- Node2&#45;&gt;Node12 -->
<g id="edge11_Node000002_Node000012" class="edge">
<title>Node2&#45;&gt;Node12</title>
<g id="a_edge11_Node000002_Node000012"><a xlink:title=" ">
<path fill="none" stroke="#63b8ff" d="M386.97,-256.46C321.33,-253.33 182.13,-242.74 70.55,-207.5 69.58,-207.19 68.59,-206.85 67.6,-206.48"/>
<polygon fill="#63b8ff" stroke="#63b8ff" points="69.22,-203.37 58.66,-202.5 66.37,-209.77 69.22,-203.37"/>
</a>
</g>
</g>
<!-- Node13 -->
<g id="Node000013" class="node">
<title>Node13</title>
<g id="a_Node000013"><a xlink:href="IssueFactory_8hpp.html" target="_top" xlink:title=" ">
<polygon fill="white" stroke="#666666" points="256.93,-201.88 150.18,-201.88 150.18,-182.62 256.93,-182.62 256.93,-201.88"/>
<text text-anchor="middle" x="203.55" y="-188.38" font-family="Helvetica,sans-Serif" font-size="10.00">ers/IssueFactory.hpp</text>
</a>
</g>
</g>
<!-- Node2&#45;&gt;Node13 -->
<g id="edge12_Node000002_Node000013" class="edge">
<title>Node2&#45;&gt;Node13</title>
<g id="a_edge12_Node000002_Node000013"><a xlink:title=" ">
<path fill="none" stroke="#63b8ff" d="M393.36,-248.65C354.69,-237.36 288.65,-218.09 245.56,-205.51"/>
<polygon fill="#63b8ff" stroke="#63b8ff" points="246.62,-202.17 236.04,-202.73 244.66,-208.89 246.62,-202.17"/>
</a>
</g>
</g>
<!-- Node15 -->
<g id="Node000015" class="node">
<title>Node15</title>
<g id="a_Node000015"><a xlink:href="Severity_8hpp.html" target="_top" xlink:title=" ">
<polygon fill="white" stroke="#666666" points="175.43,-135.38 89.68,-135.38 89.68,-116.12 175.43,-116.12 175.43,-135.38"/>
<text text-anchor="middle" x="132.55" y="-121.88" font-family="Helvetica,sans-Serif" font-size="10.00">ers/Severity.hpp</text>
</a>
</g>
</g>
<!-- Node2&#45;&gt;Node15 -->
<g id="edge29_Node000002_Node000015" class="edge">
<title>Node2&#45;&gt;Node15</title>
<g id="a_edge29_Node000002_Node000015"><a xlink:title=" ">
<path fill="none" stroke="#63b8ff" d="M387.02,-256.48C317.87,-253.3 174.4,-242.54 141.55,-207.5 126.58,-191.52 126.46,-165.23 128.68,-147"/>
<polygon fill="#63b8ff" stroke="#63b8ff" points="132.13,-147.58 130.25,-137.16 125.22,-146.48 132.13,-147.58"/>
</a>
</g>
</g>
<!-- Node16 -->
<g id="Node000016" class="node">
<title>Node16</title>
<g id="a_Node000016"><a xlink:href="LocalContext_8hpp.html" target="_top" xlink:title=" ">
<polygon fill="white" stroke="#666666" points="612.3,-201.88 504.8,-201.88 504.8,-182.62 612.3,-182.62 612.3,-201.88"/>
<text text-anchor="middle" x="558.55" y="-188.38" font-family="Helvetica,sans-Serif" font-size="10.00">ers/LocalContext.hpp</text>
</a>
</g>
</g>
<!-- Node2&#45;&gt;Node16 -->
<g id="edge21_Node000002_Node000016" class="edge">
<title>Node2&#45;&gt;Node16</title>
<g id="a_edge21_Node000002_Node000016"><a xlink:title=" ">
<path fill="none" stroke="#63b8ff" d="M443.47,-248.65C465.91,-237.84 503.58,-219.71 529.68,-207.15"/>
<polygon fill="#63b8ff" stroke="#63b8ff" points="530.88,-210.46 538.37,-202.96 527.84,-204.15 530.88,-210.46"/>
</a>
</g>
</g>
<!-- Node21 -->
<g id="Node000021" class="node">
<title>Node21</title>
<g id="a_Node000021"><a xlink:href="IssueDeclarationMacro_8hpp.html" target="_top" xlink:title=" ">
<polygon fill="white" stroke="#666666" points="927.43,-207.5 787.68,-207.5 787.68,-177 927.43,-177 927.43,-207.5"/>
<text text-anchor="start" x="795.68" y="-194" font-family="Helvetica,sans-Serif" font-size="10.00">ers/internal/IssueDeclaration</text>
<text text-anchor="middle" x="857.55" y="-182.75" font-family="Helvetica,sans-Serif" font-size="10.00">Macro.hpp</text>
</a>
</g>
</g>
<!-- Node2&#45;&gt;Node21 -->
<g id="edge30_Node000002_Node000021" class="edge">
<title>Node2&#45;&gt;Node21</title>
<g id="a_edge30_Node000002_Node000021"><a xlink:title=" ">
<path fill="none" stroke="#63b8ff" d="M462.22,-252.14C531.92,-241.76 682.43,-219.34 776.32,-205.35"/>
<polygon fill="#63b8ff" stroke="#63b8ff" points="776.6,-208.85 785.98,-203.91 775.57,-201.92 776.6,-208.85"/>
</a>
</g>
</g>
<!-- Node13&#45;&gt;Node6 -->
<g id="edge16_Node000013_Node000006" class="edge">
<title>Node13&#45;&gt;Node6</title>
<g id="a_edge16_Node000013_Node000006"><a xlink:title=" ">
<path fill="none" stroke="#63b8ff" d="M215.09,-182.28C228.28,-172.04 250.09,-155.09 266.16,-142.6"/>
<polygon fill="#63b8ff" stroke="#63b8ff" points="267.9,-145.68 273.65,-136.78 263.6,-140.15 267.9,-145.68"/>
</a>
</g>
</g>
<!-- Node13&#45;&gt;Node7 -->
<g id="edge14_Node000013_Node000007" class="edge">
<title>Node13&#45;&gt;Node7</title>
<g id="a_edge14_Node000013_Node000007"><a xlink:title=" ">
<path fill="none" stroke="#63b8ff" d="M208.13,-182.26C216.66,-166.22 236.31,-132.3 260.55,-110.5 275.06,-97.45 294.04,-86.66 309.87,-78.96"/>
<polygon fill="#63b8ff" stroke="#63b8ff" points="311.27,-82.17 318.86,-74.77 308.32,-75.82 311.27,-82.17"/>
</a>
</g>
</g>
<!-- Node13&#45;&gt;Node11 -->
<g id="edge13_Node000013_Node000011" class="edge">
<title>Node13&#45;&gt;Node11</title>
<g id="a_edge13_Node000013_Node000011"><a xlink:title=" ">
<path fill="none" stroke="#63b8ff" d="M180.8,-182.2C156.04,-172.3 115.35,-155.85 80.55,-141 79.94,-140.74 79.32,-140.47 78.7,-140.21"/>
<polygon fill="#63b8ff" stroke="#63b8ff" points="80.44,-137.14 69.87,-136.35 77.63,-143.56 80.44,-137.14"/>
</a>
</g>
</g>
<!-- Node14 -->
<g id="Node000014" class="node">
<title>Node14</title>
<g id="a_Node000014"><a xlink:title=" ">
<polygon fill="#e0e0e0" stroke="#999999" points="225.05,-74.5 182.05,-74.5 182.05,-55.25 225.05,-55.25 225.05,-74.5"/>
<text text-anchor="middle" x="203.55" y="-61" font-family="Helvetica,sans-Serif" font-size="10.00">vector</text>
</a>
</g>
</g>
<!-- Node13&#45;&gt;Node14 -->
<g id="edge15_Node000013_Node000014" class="edge">
<title>Node13&#45;&gt;Node14</title>
<g id="a_edge15_Node000013_Node000014"><a xlink:title=" ">
<path fill="none" stroke="#63b8ff" d="M203.55,-182.23C203.55,-162.26 203.55,-113.89 203.55,-86.21"/>
<polygon fill="#63b8ff" stroke="#63b8ff" points="207.05,-86.32 203.55,-76.32 200.05,-86.32 207.05,-86.32"/>
</a>
</g>
</g>
<!-- Node13&#45;&gt;Node15 -->
<g id="edge17_Node000013_Node000015" class="edge">
<title>Node13&#45;&gt;Node15</title>
<g id="a_edge17_Node000013_Node000015"><a xlink:title=" ">
<path fill="none" stroke="#63b8ff" d="M193.68,-182.28C182.55,-172.17 164.23,-155.53 150.55,-143.1"/>
<polygon fill="#63b8ff" stroke="#63b8ff" points="153.22,-140.79 143.46,-136.66 148.51,-145.97 153.22,-140.79"/>
</a>
</g>
</g>
<!-- Node15&#45;&gt;Node7 -->
<g id="edge18_Node000015_Node000007" class="edge">
<title>Node15&#45;&gt;Node7</title>
<g id="a_edge18_Node000015_Node000007"><a xlink:title=" ">
<path fill="none" stroke="#63b8ff" d="M164.6,-115.68C203.93,-104.55 270.18,-85.79 309.19,-74.75"/>
<polygon fill="#63b8ff" stroke="#63b8ff" points="310.01,-78.16 318.68,-72.07 308.1,-71.42 310.01,-78.16"/>
</a>
</g>
</g>
<!-- Node15&#45;&gt;Node8 -->
<g id="edge20_Node000015_Node000008" class="edge">
<title>Node15&#45;&gt;Node8</title>
<g id="a_edge20_Node000015_Node000008"><a xlink:title=" ">
<path fill="none" stroke="#63b8ff" d="M132.55,-115.79C132.55,-97.63 132.55,-56.04 132.55,-30.95"/>
<polygon fill="#63b8ff" stroke="#63b8ff" points="136.05,-31.05 132.55,-21.05 129.05,-31.05 136.05,-31.05"/>
</a>
</g>
</g>
<!-- Node15&#45;&gt;Node14 -->
<g id="edge19_Node000015_Node000014" class="edge">
<title>Node15&#45;&gt;Node14</title>
<g id="a_edge19_Node000015_Node000014"><a xlink:title=" ">
<path fill="none" stroke="#63b8ff" d="M143.34,-115.81C154.08,-106.9 170.8,-93.03 183.91,-82.17"/>
<polygon fill="#63b8ff" stroke="#63b8ff" points="186.04,-84.94 191.5,-75.87 181.57,-79.56 186.04,-84.94"/>
</a>
</g>
</g>
<!-- Node17 -->
<g id="Node000017" class="node">
<title>Node17</title>
<g id="a_Node000017"><a xlink:title=" ">
<polygon fill="#e0e0e0" stroke="#999999" points="555.93,-135.38 491.18,-135.38 491.18,-116.12 555.93,-116.12 555.93,-135.38"/>
<text text-anchor="middle" x="523.55" y="-121.88" font-family="Helvetica,sans-Serif" font-size="10.00">sys/types.h</text>
</a>
</g>
</g>
<!-- Node16&#45;&gt;Node17 -->
<g id="edge22_Node000016_Node000017" class="edge">
<title>Node16&#45;&gt;Node17</title>
<g id="a_edge22_Node000016_Node000017"><a xlink:title=" ">
<path fill="none" stroke="#63b8ff" d="M553.69,-182.28C548.57,-172.85 540.36,-157.72 533.8,-145.63"/>
<polygon fill="#63b8ff" stroke="#63b8ff" points="536.95,-144.09 529.1,-136.97 530.79,-147.43 536.95,-144.09"/>
</a>
</g>
</g>
<!-- Node18 -->
<g id="Node000018" class="node">
<title>Node18</title>
<g id="a_Node000018"><a xlink:title=" ">
<polygon fill="#e0e0e0" stroke="#999999" points="371.43,-135.38 321.68,-135.38 321.68,-116.12 371.43,-116.12 371.43,-135.38"/>
<text text-anchor="middle" x="346.55" y="-121.88" font-family="Helvetica,sans-Serif" font-size="10.00">unistd.h</text>
</a>
</g>
</g>
<!-- Node16&#45;&gt;Node18 -->
<g id="edge23_Node000016_Node000018" class="edge">
<title>Node16&#45;&gt;Node18</title>
<g id="a_edge23_Node000016_Node000018"><a xlink:title=" ">
<path fill="none" stroke="#63b8ff" d="M521.33,-182.15C485.03,-172.95 428.45,-157.73 380.55,-141 379.58,-140.66 378.59,-140.3 377.59,-139.94"/>
<polygon fill="#63b8ff" stroke="#63b8ff" points="378.89,-136.69 368.3,-136.3 376.34,-143.21 378.89,-136.69"/>
</a>
</g>
</g>
<!-- Node19 -->
<g id="Node000019" class="node">
<title>Node19</title>
<g id="a_Node000019"><a xlink:href="Context_8hpp.html" target="_top" xlink:title=" ">
<polygon fill="white" stroke="#666666" points="473.3,-135.38 389.8,-135.38 389.8,-116.12 473.3,-116.12 473.3,-135.38"/>
<text text-anchor="middle" x="431.55" y="-121.88" font-family="Helvetica,sans-Serif" font-size="10.00">ers/Context.hpp</text>
</a>
</g>
</g>
<!-- Node16&#45;&gt;Node19 -->
<g id="edge24_Node000016_Node000019" class="edge">
<title>Node16&#45;&gt;Node19</title>
<g id="a_edge24_Node000016_Node000019"><a xlink:title=" ">
<path fill="none" stroke="#63b8ff" d="M540.63,-182.15C519.54,-171.44 484.29,-153.53 459.58,-140.99"/>
<polygon fill="#63b8ff" stroke="#63b8ff" points="461.24,-137.9 450.74,-136.49 458.07,-144.14 461.24,-137.9"/>
</a>
</g>
</g>
<!-- Node19&#45;&gt;Node7 -->
<g id="edge25_Node000019_Node000007" class="edge">
<title>Node19&#45;&gt;Node7</title>
<g id="a_edge25_Node000019_Node000007"><a xlink:title=" ">
<path fill="none" stroke="#63b8ff" d="M417.73,-115.81C403.44,-106.56 380.85,-91.95 363.8,-80.92"/>
<polygon fill="#63b8ff" stroke="#63b8ff" points="366.07,-78.22 355.78,-75.72 362.27,-84.09 366.07,-78.22"/>
</a>
</g>
</g>
<!-- Node19&#45;&gt;Node14 -->
<g id="edge26_Node000019_Node000014" class="edge">
<title>Node19&#45;&gt;Node14</title>
<g id="a_edge26_Node000019_Node000014"><a xlink:title=" ">
<path fill="none" stroke="#63b8ff" d="M399.49,-115.66C393.22,-113.92 386.68,-112.13 380.55,-110.5 330.47,-97.19 272.16,-82.68 236.56,-73.93"/>
<polygon fill="#63b8ff" stroke="#63b8ff" points="237.42,-70.54 226.87,-71.55 235.75,-77.33 237.42,-70.54"/>
</a>
</g>
</g>
<!-- Node20 -->
<g id="Node000020" class="node">
<title>Node20</title>
<g id="a_Node000020"><a xlink:href="ers_2include_2ers_2Configuration_8hpp.html" target="_top" xlink:title=" ">
<polygon fill="white" stroke="#666666" points="484.93,-74.5 378.18,-74.5 378.18,-55.25 484.93,-55.25 484.93,-74.5"/>
<text text-anchor="middle" x="431.55" y="-61" font-family="Helvetica,sans-Serif" font-size="10.00">ers/Configuration.hpp</text>
</a>
</g>
</g>
<!-- Node19&#45;&gt;Node20 -->
<g id="edge27_Node000019_Node000020" class="edge">
<title>Node19&#45;&gt;Node20</title>
<g id="a_edge27_Node000019_Node000020"><a xlink:title=" ">
<path fill="none" stroke="#63b8ff" d="M431.55,-115.81C431.55,-108.03 431.55,-96.45 431.55,-86.41"/>
<polygon fill="#63b8ff" stroke="#63b8ff" points="435.05,-86.41 431.55,-76.41 428.05,-86.41 435.05,-86.41"/>
</a>
</g>
</g>
<!-- Node20&#45;&gt;Node8 -->
<g id="edge28_Node000020_Node000008" class="edge">
<title>Node20&#45;&gt;Node8</title>
<g id="a_edge28_Node000020_Node000008"><a xlink:title=" ">
<path fill="none" stroke="#63b8ff" d="M380.49,-54.78C320.98,-44.18 224,-26.91 170.68,-17.41"/>
<polygon fill="#63b8ff" stroke="#63b8ff" points="171.62,-14.03 161.17,-15.72 170.4,-20.92 171.62,-14.03"/>
</a>
</g>
</g>
<!-- Node22 -->
<g id="Node000022" class="node">
<title>Node22</title>
<g id="a_Node000022"><a xlink:title=" ">
<polygon fill="#e0e0e0" stroke="#999999" points="673.18,-141 573.93,-141 573.93,-110.5 673.18,-110.5 673.18,-141"/>
<text text-anchor="start" x="581.93" y="-127.5" font-family="Helvetica,sans-Serif" font-size="10.00">boost/preprocessor</text>
<text text-anchor="middle" x="623.55" y="-116.25" font-family="Helvetica,sans-Serif" font-size="10.00">/if.hpp</text>
</a>
</g>
</g>
<!-- Node21&#45;&gt;Node22 -->
<g id="edge31_Node000021_Node000022" class="edge">
<title>Node21&#45;&gt;Node22</title>
<g id="a_edge31_Node000021_Node000022"><a xlink:title=" ">
<path fill="none" stroke="#63b8ff" d="M804.16,-176.53C768.44,-166.69 721.34,-153.7 684.2,-143.47"/>
<polygon fill="#63b8ff" stroke="#63b8ff" points="685.54,-140.21 674.97,-140.92 683.68,-146.95 685.54,-140.21"/>
</a>
</g>
</g>
<!-- Node23 -->
<g id="Node000023" class="node">
<title>Node23</title>
<g id="a_Node000023"><a xlink:title=" ">
<polygon fill="#e0e0e0" stroke="#999999" points="790.18,-141 690.93,-141 690.93,-110.5 790.18,-110.5 790.18,-141"/>
<text text-anchor="start" x="698.93" y="-127.5" font-family="Helvetica,sans-Serif" font-size="10.00">boost/preprocessor</text>
<text text-anchor="middle" x="740.55" y="-116.25" font-family="Helvetica,sans-Serif" font-size="10.00">/seq.hpp</text>
</a>
</g>
</g>
<!-- Node21&#45;&gt;Node23 -->
<g id="edge32_Node000021_Node000023" class="edge">
<title>Node21&#45;&gt;Node23</title>
<g id="a_edge32_Node000021_Node000023"><a xlink:title=" ">
<path fill="none" stroke="#63b8ff" d="M831,-176.61C815,-167.79 794.39,-156.43 776.89,-146.78"/>
<polygon fill="#63b8ff" stroke="#63b8ff" points="778.77,-143.82 768.32,-142.06 775.39,-149.95 778.77,-143.82"/>
</a>
</g>
</g>
<!-- Node24 -->
<g id="Node000024" class="node">
<title>Node24</title>
<g id="a_Node000024"><a xlink:title=" ">
<polygon fill="#e0e0e0" stroke="#999999" points="907.18,-141 807.93,-141 807.93,-110.5 907.18,-110.5 907.18,-141"/>
<text text-anchor="start" x="815.93" y="-127.5" font-family="Helvetica,sans-Serif" font-size="10.00">boost/preprocessor</text>
<text text-anchor="middle" x="857.55" y="-116.25" font-family="Helvetica,sans-Serif" font-size="10.00">/tuple.hpp</text>
</a>
</g>
</g>
<!-- Node21&#45;&gt;Node24 -->
<g id="edge33_Node000021_Node000024" class="edge">
<title>Node21&#45;&gt;Node24</title>
<g id="a_edge33_Node000021_Node000024"><a xlink:title=" ">
<path fill="none" stroke="#63b8ff" d="M857.55,-176.61C857.55,-169.52 857.55,-160.79 857.55,-152.63"/>
<polygon fill="#63b8ff" stroke="#63b8ff" points="861.05,-152.84 857.55,-142.84 854.05,-152.84 861.05,-152.84"/>
</a>
</g>
</g>
<!-- Node25 -->
<g id="Node000025" class="node">
<title>Node25</title>
<g id="a_Node000025"><a xlink:title=" ">
<polygon fill="#e0e0e0" stroke="#999999" points="1024.18,-141 924.93,-141 924.93,-110.5 1024.18,-110.5 1024.18,-141"/>
<text text-anchor="start" x="932.93" y="-127.5" font-family="Helvetica,sans-Serif" font-size="10.00">boost/preprocessor</text>
<text text-anchor="middle" x="974.55" y="-116.25" font-family="Helvetica,sans-Serif" font-size="10.00">/logical.hpp</text>
</a>
</g>
</g>
<!-- Node21&#45;&gt;Node25 -->
<g id="edge34_Node000021_Node000025" class="edge">
<title>Node21&#45;&gt;Node25</title>
<g id="a_edge34_Node000021_Node000025"><a xlink:title=" ">
<path fill="none" stroke="#63b8ff" d="M884.1,-176.61C900.11,-167.79 920.72,-156.43 938.22,-146.78"/>
<polygon fill="#63b8ff" stroke="#63b8ff" points="939.72,-149.95 946.78,-142.06 936.34,-143.82 939.72,-149.95"/>
</a>
</g>
</g>
<!-- Node26 -->
<g id="Node000026" class="node">
<title>Node26</title>
<g id="a_Node000026"><a xlink:title=" ">
<polygon fill="#e0e0e0" stroke="#999999" points="1141.18,-141 1041.93,-141 1041.93,-110.5 1141.18,-110.5 1141.18,-141"/>
<text text-anchor="start" x="1049.93" y="-127.5" font-family="Helvetica,sans-Serif" font-size="10.00">boost/preprocessor</text>
<text text-anchor="middle" x="1091.55" y="-116.25" font-family="Helvetica,sans-Serif" font-size="10.00">/stringize.hpp</text>
</a>
</g>
</g>
<!-- Node21&#45;&gt;Node26 -->
<g id="edge35_Node000021_Node000026" class="edge">
<title>Node21&#45;&gt;Node26</title>
<g id="a_edge35_Node000021_Node000026"><a xlink:title=" ">
<path fill="none" stroke="#63b8ff" d="M910.94,-176.53C946.67,-166.69 993.77,-153.7 1030.91,-143.47"/>
<polygon fill="#63b8ff" stroke="#63b8ff" points="1031.42,-146.95 1040.13,-140.92 1029.56,-140.21 1031.42,-146.95"/>
</a>
</g>
</g>
<!-- Node27 -->
<g id="Node000027" class="node">
<title>Node27</title>
<g id="a_Node000027"><a xlink:title=" ">
<polygon fill="#e0e0e0" stroke="#999999" points="1258.18,-141 1158.93,-141 1158.93,-110.5 1258.18,-110.5 1258.18,-141"/>
<text text-anchor="start" x="1166.93" y="-127.5" font-family="Helvetica,sans-Serif" font-size="10.00">boost/preprocessor</text>
<text text-anchor="middle" x="1208.55" y="-116.25" font-family="Helvetica,sans-Serif" font-size="10.00">/comparison.hpp</text>
</a>
</g>
</g>
<!-- Node21&#45;&gt;Node27 -->
<g id="edge36_Node000021_Node000027" class="edge">
<title>Node21&#45;&gt;Node27</title>
<g id="a_edge36_Node000021_Node000027"><a xlink:title=" ">
<path fill="none" stroke="#63b8ff" d="M927.67,-180.66C984.64,-171.73 1067.29,-158.03 1147.79,-141.5"/>
<polygon fill="#63b8ff" stroke="#63b8ff" points="1148.05,-145.02 1157.14,-139.56 1146.63,-138.17 1148.05,-145.02"/>
</a>
</g>
</g>
<!-- Node29&#45;&gt;Node7 -->
<g id="edge40_Node000029_Node000007" class="edge">
<title>Node29&#45;&gt;Node7</title>
<g id="a_edge40_Node000029_Node000007"><a xlink:title=" ">
<path fill="none" stroke="#63b8ff" d="M1325.74,-243.4C1327.37,-213.01 1326.24,-142.33 1284.55,-110.5 1206.06,-50.56 512.36,-88.74 372.15,-74.12"/>
<polygon fill="#63b8ff" stroke="#63b8ff" points="372.87,-70.68 362.5,-72.84 371.96,-77.62 372.87,-70.68"/>
</a>
</g>
</g>
<!-- Node30 -->
<g id="Node000030" class="node">
<title>Node30</title>
<g id="a_Node000030"><a xlink:title=" ">
<polygon fill="#e0e0e0" stroke="#999999" points="1398.18,-201.88 1352.93,-201.88 1352.93,-182.62 1398.18,-182.62 1398.18,-201.88"/>
<text text-anchor="middle" x="1375.55" y="-188.38" font-family="Helvetica,sans-Serif" font-size="10.00">cstdint</text>
</a>
</g>
</g>
<!-- Node29&#45;&gt;Node30 -->
<g id="edge39_Node000029_Node000030" class="edge">
<title>Node29&#45;&gt;Node30</title>
<g id="a_edge39_Node000029_Node000030"><a xlink:title=" ">
<path fill="none" stroke="#63b8ff" d="M1336.13,-243.11C1343.7,-233.54 1353.63,-220.97 1361.64,-210.85"/>
<polygon fill="#63b8ff" stroke="#63b8ff" points="1364.18,-213.27 1367.64,-203.26 1358.69,-208.93 1364.18,-213.27"/>
</a>
</g>
</g>
</g>
</svg>
