<?xml version="1.0" encoding="UTF-8" standalone="no"?>
<!DOCTYPE svg PUBLIC "-//W3C//DTD SVG 1.1//EN"
 "http://www.w3.org/Graphics/SVG/1.1/DTD/svg11.dtd">
<!-- Generated by graphviz version 9.0.0 (20230911.1827)
 -->
<!-- Title: /github/workspace/dev_area/build/hsilibs/codegen/include/hsilibs/hsireadoutinfo/InfoNljs.hpp Pages: 1 -->
<svg width="230pt" height="183pt"
 viewBox="0.00 0.00 230.25 182.75" xmlns="http://www.w3.org/2000/svg" xmlns:xlink="http://www.w3.org/1999/xlink">
<g id="graph0" class="graph" transform="scale(1 1) rotate(0) translate(4 178.75)">
<title>/github/workspace/dev_area/build/hsilibs/codegen/include/hsilibs/hsireadoutinfo/InfoNljs.hpp</title>
<!-- Node1 -->
<g id="Node000001" class="node">
<title>Node1</title>
<g id="a_Node000001"><a xlink:title=" ">
<polygon fill="#999999" stroke="#666666" points="185.88,-174.75 41.62,-174.75 41.62,-121.75 185.88,-121.75 185.88,-174.75"/>
<text text-anchor="start" x="49.62" y="-161.25" font-family="Helvetica,sans-Serif" font-size="10.00">/github/workspace/dev</text>
<text text-anchor="start" x="49.62" y="-150" font-family="Helvetica,sans-Serif" font-size="10.00">_area/build/hsilibs/codegen</text>
<text text-anchor="start" x="49.62" y="-138.75" font-family="Helvetica,sans-Serif" font-size="10.00">/include/hsilibs/hsireadoutinfo</text>
<text text-anchor="middle" x="113.75" y="-127.5" font-family="Helvetica,sans-Serif" font-size="10.00">/InfoNljs.hpp</text>
</a>
</g>
</g>
<!-- Node2 -->
<g id="Node000002" class="node">
<title>Node2</title>
<g id="a_Node000002"><a xlink:href="hsilibs_2codegen_2include_2hsilibs_2hsireadoutinfo_2InfoStructs_8hpp.html" target="_top" xlink:title=" ">
<polygon fill="white" stroke="#666666" points="107.5,-85.75 0,-85.75 0,-55.25 107.5,-55.25 107.5,-85.75"/>
<text text-anchor="start" x="8" y="-72.25" font-family="Helvetica,sans-Serif" font-size="10.00">hsilibs/hsireadoutinfo</text>
<text text-anchor="middle" x="53.75" y="-61" font-family="Helvetica,sans-Serif" font-size="10.00">/InfoStructs.hpp</text>
</a>
</g>
</g>
<!-- Node1&#45;&gt;Node2 -->
<g id="edge1_Node000001_Node000002" class="edge">
<title>Node1&#45;&gt;Node2</title>
<g id="a_edge1_Node000001_Node000002"><a xlink:title=" ">
<path fill="none" stroke="#63b8ff" d="M93.44,-121.6C86.62,-113 79.05,-103.45 72.37,-95.01"/>
<polygon fill="#63b8ff" stroke="#63b8ff" points="75.18,-92.92 66.23,-87.26 69.7,-97.27 75.18,-92.92"/>
</a>
</g>
</g>
<!-- Node5 -->
<g id="Node000005" class="node">
<title>Node5</title>
<g id="a_Node000005"><a xlink:title=" ">
<polygon fill="#e0e0e0" stroke="#999999" points="222.25,-80.12 125.25,-80.12 125.25,-60.88 222.25,-60.88 222.25,-80.12"/>
<text text-anchor="middle" x="173.75" y="-66.62" font-family="Helvetica,sans-Serif" font-size="10.00">nlohmann/json.hpp</text>
</a>
</g>
</g>
<!-- Node1&#45;&gt;Node5 -->
<g id="edge4_Node000001_Node000005" class="edge">
<title>Node1&#45;&gt;Node5</title>
<g id="a_edge4_Node000001_Node000005"><a xlink:title=" ">
<path fill="none" stroke="#63b8ff" d="M134.06,-121.6C142.44,-111.03 151.95,-99.03 159.55,-89.42"/>
<polygon fill="#63b8ff" stroke="#63b8ff" points="162.26,-91.64 165.73,-81.63 156.78,-87.29 162.26,-91.64"/>
</a>
</g>
</g>
<!-- Node3 -->
<g id="Node000003" class="node">
<title>Node3</title>
<g id="a_Node000003"><a xlink:title=" ">
<polygon fill="#e0e0e0" stroke="#999999" points="46.38,-19.25 1.12,-19.25 1.12,0 46.38,0 46.38,-19.25"/>
<text text-anchor="middle" x="23.75" y="-5.75" font-family="Helvetica,sans-Serif" font-size="10.00">cstdint</text>
</a>
</g>
</g>
<!-- Node2&#45;&gt;Node3 -->
<g id="edge2_Node000002_Node000003" class="edge">
<title>Node2&#45;&gt;Node3</title>
<g id="a_edge2_Node000002_Node000003"><a xlink:title=" ">
<path fill="none" stroke="#63b8ff" d="M46.33,-54.95C42.47,-47.36 37.69,-37.99 33.53,-29.82"/>
<polygon fill="#63b8ff" stroke="#63b8ff" points="36.72,-28.37 29.06,-21.05 30.48,-31.55 36.72,-28.37"/>
</a>
</g>
</g>
<!-- Node4 -->
<g id="Node000004" class="node">
<title>Node4</title>
<g id="a_Node000004"><a xlink:title=" ">
<polygon fill="#e0e0e0" stroke="#999999" points="104.75,-19.25 64.75,-19.25 64.75,0 104.75,0 104.75,-19.25"/>
<text text-anchor="middle" x="84.75" y="-5.75" font-family="Helvetica,sans-Serif" font-size="10.00">string</text>
</a>
</g>
</g>
<!-- Node2&#45;&gt;Node4 -->
<g id="edge3_Node000002_Node000004" class="edge">
<title>Node2&#45;&gt;Node4</title>
<g id="a_edge3_Node000002_Node000004"><a xlink:title=" ">
<path fill="none" stroke="#63b8ff" d="M61.41,-54.95C65.41,-47.36 70.34,-37.99 74.64,-29.82"/>
<polygon fill="#63b8ff" stroke="#63b8ff" points="77.7,-31.52 79.27,-21.04 71.51,-28.26 77.7,-31.52"/>
</a>
</g>
</g>
</g>
</svg>
