<?xml version="1.0" encoding="UTF-8" standalone="no"?>
<!DOCTYPE svg PUBLIC "-//W3C//DTD SVG 1.1//EN"
 "http://www.w3.org/Graphics/SVG/1.1/DTD/svg11.dtd">
<!-- Generated by graphviz version 9.0.0 (20230911.1827)
 -->
<!-- Title: /github/workspace/dev_area/build/hsilibs/codegen/include/hsilibs/hsireadoutinfo/InfoStructs.hpp Pages: 1 -->
<svg width="152pt" height="116pt"
 viewBox="0.00 0.00 152.25 116.25" xmlns="http://www.w3.org/2000/svg" xmlns:xlink="http://www.w3.org/1999/xlink">
<g id="graph0" class="graph" transform="scale(1 1) rotate(0) translate(4 112.25)">
<title>/github/workspace/dev_area/build/hsilibs/codegen/include/hsilibs/hsireadoutinfo/InfoStructs.hpp</title>
<!-- Node1 -->
<g id="Node000001" class="node">
<title>Node1</title>
<g id="a_Node000001"><a xlink:title=" ">
<polygon fill="#999999" stroke="#666666" points="144.25,-108.25 0,-108.25 0,-55.25 144.25,-55.25 144.25,-108.25"/>
<text text-anchor="start" x="8" y="-94.75" font-family="Helvetica,sans-Serif" font-size="10.00">/github/workspace/dev</text>
<text text-anchor="start" x="8" y="-83.5" font-family="Helvetica,sans-Serif" font-size="10.00">_area/build/hsilibs/codegen</text>
<text text-anchor="start" x="8" y="-72.25" font-family="Helvetica,sans-Serif" font-size="10.00">/include/hsilibs/hsireadoutinfo</text>
<text text-anchor="middle" x="72.12" y="-61" font-family="Helvetica,sans-Serif" font-size="10.00">/InfoStructs.hpp</text>
</a>
</g>
</g>
<!-- Node2 -->
<g id="Node000002" class="node">
<title>Node2</title>
<g id="a_Node000002"><a xlink:title=" ">
<polygon fill="#e0e0e0" stroke="#999999" points="64.75,-19.25 19.5,-19.25 19.5,0 64.75,0 64.75,-19.25"/>
<text text-anchor="middle" x="42.12" y="-5.75" font-family="Helvetica,sans-Serif" font-size="10.00">cstdint</text>
</a>
</g>
</g>
<!-- Node1&#45;&gt;Node2 -->
<g id="edge1_Node000001_Node000002" class="edge">
<title>Node1&#45;&gt;Node2</title>
<g id="a_edge1_Node000001_Node000002"><a xlink:title=" ">
<path fill="none" stroke="#63b8ff" d="M61.12,-55.04C57.62,-46.83 53.79,-37.89 50.5,-30.2"/>
<polygon fill="#63b8ff" stroke="#63b8ff" points="53.77,-28.95 46.62,-21.13 47.33,-31.7 53.77,-28.95"/>
</a>
</g>
</g>
<!-- Node3 -->
<g id="Node000003" class="node">
<title>Node3</title>
<g id="a_Node000003"><a xlink:title=" ">
<polygon fill="#e0e0e0" stroke="#999999" points="123.12,-19.25 83.12,-19.25 83.12,0 123.12,0 123.12,-19.25"/>
<text text-anchor="middle" x="103.12" y="-5.75" font-family="Helvetica,sans-Serif" font-size="10.00">string</text>
</a>
</g>
</g>
<!-- Node1&#45;&gt;Node3 -->
<g id="edge2_Node000001_Node000003" class="edge">
<title>Node1&#45;&gt;Node3</title>
<g id="a_edge2_Node000001_Node000003"><a xlink:title=" ">
<path fill="none" stroke="#63b8ff" d="M83.49,-55.04C87.12,-46.83 91.07,-37.89 94.47,-30.2"/>
<polygon fill="#63b8ff" stroke="#63b8ff" points="97.64,-31.68 98.49,-21.12 91.24,-28.85 97.64,-31.68"/>
</a>
</g>
</g>
</g>
</svg>
