<?xml version="1.0" encoding="UTF-8" standalone="no"?>
<!DOCTYPE svg PUBLIC "-//W3C//DTD SVG 1.1//EN"
 "http://www.w3.org/Graphics/SVG/1.1/DTD/svg11.dtd">
<!-- Generated by graphviz version 9.0.0 (20230911.1827)
 -->
<!-- Title: /github/workspace/dev_area/sourcecode/timing/include/timing/I2C9546SwitchNode.hpp Pages: 1 -->
<svg width="2403pt" height="459pt"
 viewBox="0.00 0.00 2403.00 459.00" xmlns="http://www.w3.org/2000/svg" xmlns:xlink="http://www.w3.org/1999/xlink">
<g id="graph0" class="graph" transform="scale(1 1) rotate(0) translate(4 455)">
<title>/github/workspace/dev_area/sourcecode/timing/include/timing/I2C9546SwitchNode.hpp</title>
<!-- Node1 -->
<g id="Node000001" class="node">
<title>Node1</title>
<g id="a_Node000001"><a xlink:title=" ">
<polygon fill="#999999" stroke="#666666" points="1915.62,-451 1726.38,-451 1726.38,-409.25 1915.62,-409.25 1915.62,-451"/>
<text text-anchor="start" x="1734.38" y="-437.5" font-family="Helvetica,sans-Serif" font-size="10.00">/github/workspace/dev</text>
<text text-anchor="start" x="1734.38" y="-426.25" font-family="Helvetica,sans-Serif" font-size="10.00">_area/sourcecode/timing</text>
<text text-anchor="middle" x="1821" y="-415" font-family="Helvetica,sans-Serif" font-size="10.00">/include/timing/I2C9546SwitchNode.hpp</text>
</a>
</g>
</g>
<!-- Node2 -->
<g id="Node000002" class="node">
<title>Node2</title>
<g id="a_Node000002"><a xlink:href="I2CMasterNode_8hpp.html" target="_top" xlink:title=" ">
<polygon fill="white" stroke="#666666" points="1695.75,-373.25 1564.25,-373.25 1564.25,-354 1695.75,-354 1695.75,-373.25"/>
<text text-anchor="middle" x="1630" y="-359.75" font-family="Helvetica,sans-Serif" font-size="10.00">timing/I2CMasterNode.hpp</text>
</a>
</g>
</g>
<!-- Node1&#45;&gt;Node2 -->
<g id="edge1_Node000001_Node000002" class="edge">
<title>Node1&#45;&gt;Node2</title>
<g id="a_edge1_Node000001_Node000002"><a xlink:title=" ">
<path fill="none" stroke="#63b8ff" d="M1760.83,-408.81C1730.31,-398.5 1694.18,-386.3 1667.63,-377.33"/>
<polygon fill="#63b8ff" stroke="#63b8ff" points="1668.91,-374.07 1658.32,-374.19 1666.67,-380.7 1668.91,-374.07"/>
</a>
</g>
</g>
<!-- Node9 -->
<g id="Node000009" class="node">
<title>Node9</title>
<g id="a_Node000009"><a xlink:title=" ">
<polygon fill="#e0e0e0" stroke="#999999" points="1890,-74.5 1850,-74.5 1850,-55.25 1890,-55.25 1890,-74.5"/>
<text text-anchor="middle" x="1870" y="-61" font-family="Helvetica,sans-Serif" font-size="10.00">string</text>
</a>
</g>
</g>
<!-- Node1&#45;&gt;Node9 -->
<g id="edge67_Node000001_Node000009" class="edge">
<title>Node1&#45;&gt;Node9</title>
<g id="a_edge67_Node000001_Node000009"><a xlink:title=" ">
<path fill="none" stroke="#63b8ff" d="M1916.11,-428.63C2079.23,-425.18 2395,-406.02 2395,-309.38 2395,-309.38 2395,-309.38 2395,-191.25 2395,-89.19 2014.94,-70.04 1901.56,-66.6"/>
<polygon fill="#63b8ff" stroke="#63b8ff" points="1901.87,-63.11 1891.77,-66.32 1901.67,-70.1 1901.87,-63.11"/>
</a>
</g>
</g>
<!-- Node15 -->
<g id="Node000015" class="node">
<title>Node15</title>
<g id="a_Node000015"><a xlink:title=" ">
<polygon fill="#e0e0e0" stroke="#999999" points="1777.38,-135.38 1742.62,-135.38 1742.62,-116.12 1777.38,-116.12 1777.38,-135.38"/>
<text text-anchor="middle" x="1760" y="-121.88" font-family="Helvetica,sans-Serif" font-size="10.00">map</text>
</a>
</g>
</g>
<!-- Node1&#45;&gt;Node15 -->
<g id="edge66_Node000001_Node000015" class="edge">
<title>Node1&#45;&gt;Node15</title>
<g id="a_edge66_Node000001_Node000015"><a xlink:title=" ">
<path fill="none" stroke="#63b8ff" d="M1915.95,-409.58C1985.62,-390.25 2063.11,-355.23 2032,-298.75 1979.04,-202.6 1847.17,-152.73 1788.7,-134.73"/>
<polygon fill="#63b8ff" stroke="#63b8ff" points="1789.74,-131.39 1779.16,-131.89 1787.74,-138.1 1789.74,-131.39"/>
</a>
</g>
</g>
<!-- Node21 -->
<g id="Node000021" class="node">
<title>Node21</title>
<g id="a_Node000021"><a xlink:title=" ">
<polygon fill="#e0e0e0" stroke="#999999" points="637.5,-74.5 594.5,-74.5 594.5,-55.25 637.5,-55.25 637.5,-74.5"/>
<text text-anchor="middle" x="616" y="-61" font-family="Helvetica,sans-Serif" font-size="10.00">vector</text>
</a>
</g>
</g>
<!-- Node1&#45;&gt;Node21 -->
<g id="edge68_Node000001_Node000021" class="edge">
<title>Node1&#45;&gt;Node21</title>
<g id="a_edge68_Node000001_Node000021"><a xlink:title=" ">
<path fill="none" stroke="#63b8ff" d="M1725.98,-427.9C1351.74,-422.45 0,-396.73 0,-309.38 0,-309.38 0,-309.38 0,-191.25 0,-152.31 2.41,-133.26 34,-110.5 56.41,-94.36 462.74,-73.34 582.84,-67.46"/>
<polygon fill="#63b8ff" stroke="#63b8ff" points="582.84,-70.97 592.66,-66.99 582.5,-63.98 582.84,-70.97"/>
</a>
</g>
</g>
<!-- Node38 -->
<g id="Node000038" class="node">
<title>Node38</title>
<g id="a_Node000038"><a xlink:href="I2CSlave_8hpp.html" target="_top" xlink:title=" ">
<polygon fill="white" stroke="#666666" points="1872.5,-373.25 1769.5,-373.25 1769.5,-354 1872.5,-354 1872.5,-373.25"/>
<text text-anchor="middle" x="1821" y="-359.75" font-family="Helvetica,sans-Serif" font-size="10.00">timing/I2CSlave.hpp</text>
</a>
</g>
</g>
<!-- Node1&#45;&gt;Node38 -->
<g id="edge58_Node000001_Node000038" class="edge">
<title>Node1&#45;&gt;Node38</title>
<g id="a_edge58_Node000001_Node000038"><a xlink:title=" ">
<path fill="none" stroke="#63b8ff" d="M1821,-409.07C1821,-401.4 1821,-392.64 1821,-384.95"/>
<polygon fill="#63b8ff" stroke="#63b8ff" points="1824.5,-385.21 1821,-375.21 1817.5,-385.21 1824.5,-385.21"/>
</a>
</g>
</g>
<!-- Node3 -->
<g id="Node000003" class="node">
<title>Node3</title>
<g id="a_Node000003"><a xlink:href="TimingNode_8hpp.html" target="_top" xlink:title=" ">
<polygon fill="white" stroke="#666666" points="1644.88,-318 1529.12,-318 1529.12,-298.75 1644.88,-298.75 1644.88,-318"/>
<text text-anchor="middle" x="1587" y="-304.5" font-family="Helvetica,sans-Serif" font-size="10.00">timing/TimingNode.hpp</text>
</a>
</g>
</g>
<!-- Node2&#45;&gt;Node3 -->
<g id="edge2_Node000002_Node000003" class="edge">
<title>Node2&#45;&gt;Node3</title>
<g id="a_edge2_Node000002_Node000003"><a xlink:title=" ">
<path fill="none" stroke="#63b8ff" d="M1622.9,-353.83C1617.08,-346.63 1608.67,-336.21 1601.44,-327.26"/>
<polygon fill="#63b8ff" stroke="#63b8ff" points="1604.21,-325.12 1595.21,-319.54 1598.77,-329.52 1604.21,-325.12"/>
</a>
</g>
</g>
<!-- Node4 -->
<g id="Node000004" class="node">
<title>Node4</title>
<g id="a_Node000004"><a xlink:title=" ">
<polygon fill="#e0e0e0" stroke="#999999" points="1841.62,-262.75 1730.38,-262.75 1730.38,-243.5 1841.62,-243.5 1841.62,-262.75"/>
<text text-anchor="middle" x="1786" y="-249.25" font-family="Helvetica,sans-Serif" font-size="10.00">uhal/DerivedNode.hpp</text>
</a>
</g>
</g>
<!-- Node2&#45;&gt;Node4 -->
<g id="edge54_Node000002_Node000004" class="edge">
<title>Node2&#45;&gt;Node4</title>
<g id="a_edge54_Node000002_Node000004"><a xlink:title=" ">
<path fill="none" stroke="#63b8ff" d="M1636.82,-353.81C1647.45,-340.51 1669.14,-315.13 1692,-298.75 1709.96,-285.88 1732.22,-275.12 1750.56,-267.39"/>
<polygon fill="#63b8ff" stroke="#63b8ff" points="1751.78,-270.68 1759.73,-263.66 1749.14,-264.19 1751.78,-270.68"/>
</a>
</g>
</g>
<!-- Node2&#45;&gt;Node9 -->
<g id="edge55_Node000002_Node000009" class="edge">
<title>Node2&#45;&gt;Node9</title>
<g id="a_edge55_Node000002_Node000009"><a xlink:title=" ">
<path fill="none" stroke="#63b8ff" d="M1696.17,-354.07C1752.25,-343.08 1829.9,-318.26 1871,-262.75 1911.72,-207.75 1910.71,-176.86 1894,-110.5 1891.72,-101.46 1887.21,-92.25 1882.71,-84.56"/>
<polygon fill="#63b8ff" stroke="#63b8ff" points="1885.71,-82.75 1877.4,-76.17 1879.79,-86.49 1885.71,-82.75"/>
</a>
</g>
</g>
<!-- Node11 -->
<g id="Node000011" class="node">
<title>Node11</title>
<g id="a_Node000011"><a xlink:href="Issue_8hpp.html" target="_top" xlink:title=" ">
<polygon fill="white" stroke="#666666" points="1500.25,-262.75 1425.75,-262.75 1425.75,-243.5 1500.25,-243.5 1500.25,-262.75"/>
<text text-anchor="middle" x="1463" y="-249.25" font-family="Helvetica,sans-Serif" font-size="10.00">ers/Issue.hpp</text>
</a>
</g>
</g>
<!-- Node2&#45;&gt;Node11 -->
<g id="edge53_Node000002_Node000011" class="edge">
<title>Node2&#45;&gt;Node11</title>
<g id="a_edge53_Node000002_Node000011"><a xlink:title=" ">
<path fill="none" stroke="#63b8ff" d="M1563.81,-354.81C1537.12,-348.65 1507.8,-337.64 1487,-318 1474.74,-306.42 1468.7,-287.98 1465.74,-273.88"/>
<polygon fill="#63b8ff" stroke="#63b8ff" points="1469.26,-273.65 1464.12,-264.38 1462.36,-274.83 1469.26,-273.65"/>
</a>
</g>
</g>
<!-- Node2&#45;&gt;Node21 -->
<g id="edge57_Node000002_Node000021" class="edge">
<title>Node2&#45;&gt;Node21</title>
<g id="a_edge57_Node000002_Node000021"><a xlink:title=" ">
<path fill="none" stroke="#63b8ff" d="M1563.87,-361.64C1263,-356.71 38,-331.89 38,-254.12 38,-254.12 38,-254.12 38,-191.25 38,-154.38 29.03,-134.52 57,-110.5 77.06,-93.27 465.86,-73.14 582.93,-67.44"/>
<polygon fill="#63b8ff" stroke="#63b8ff" points="582.98,-70.95 592.8,-66.97 582.64,-63.95 582.98,-70.95"/>
</a>
</g>
</g>
<!-- Node36 -->
<g id="Node000036" class="node">
<title>Node36</title>
<g id="a_Node000036"><a xlink:href="include_2timing_2TimingIssues_8hpp.html" target="_top" xlink:title=" ">
<polygon fill="white" stroke="#666666" points="1793.25,-318 1700.75,-318 1700.75,-298.75 1793.25,-298.75 1793.25,-318"/>
<text text-anchor="middle" x="1747" y="-304.5" font-family="Helvetica,sans-Serif" font-size="10.00">TimingIssues.hpp</text>
</a>
</g>
</g>
<!-- Node2&#45;&gt;Node36 -->
<g id="edge50_Node000002_Node000036" class="edge">
<title>Node2&#45;&gt;Node36</title>
<g id="a_edge50_Node000002_Node000036"><a xlink:title=" ">
<path fill="none" stroke="#63b8ff" d="M1649.85,-353.59C1668.17,-345.25 1695.65,-332.75 1716.71,-323.16"/>
<polygon fill="#63b8ff" stroke="#63b8ff" points="1718.03,-326.41 1725.68,-319.08 1715.13,-320.04 1718.03,-326.41"/>
</a>
</g>
</g>
<!-- Node37 -->
<g id="Node000037" class="node">
<title>Node37</title>
<g id="a_Node000037"><a xlink:title=" ">
<polygon fill="#e0e0e0" stroke="#999999" points="981.38,-318 898.62,-318 898.62,-298.75 981.38,-298.75 981.38,-318"/>
<text text-anchor="middle" x="940" y="-304.5" font-family="Helvetica,sans-Serif" font-size="10.00">unordered_map</text>
</a>
</g>
</g>
<!-- Node2&#45;&gt;Node37 -->
<g id="edge56_Node000002_Node000037" class="edge">
<title>Node2&#45;&gt;Node37</title>
<g id="a_edge56_Node000002_Node000037"><a xlink:title=" ">
<path fill="none" stroke="#63b8ff" d="M1564.01,-359.85C1448.44,-354.57 1202,-341.46 995,-318 994.32,-317.92 993.65,-317.84 992.96,-317.76"/>
<polygon fill="#63b8ff" stroke="#63b8ff" points="993.56,-314.31 983.19,-316.49 992.66,-321.25 993.56,-314.31"/>
</a>
</g>
</g>
<!-- Node3&#45;&gt;Node4 -->
<g id="edge3_Node000003_Node000004" class="edge">
<title>Node3&#45;&gt;Node4</title>
<g id="a_edge3_Node000003_Node000004"><a xlink:title=" ">
<path fill="none" stroke="#63b8ff" d="M1620.76,-298.34C1653.92,-289.47 1704.72,-275.87 1741.24,-266.1"/>
<polygon fill="#63b8ff" stroke="#63b8ff" points="1741.86,-269.56 1750.61,-263.59 1740.05,-262.8 1741.86,-269.56"/>
</a>
</g>
</g>
<!-- Node5 -->
<g id="Node000005" class="node">
<title>Node5</title>
<g id="a_Node000005"><a xlink:href="InfoCollector_8hpp.html" target="_top" xlink:title=" ">
<polygon fill="white" stroke="#666666" points="2156.38,-262.75 2025.62,-262.75 2025.62,-243.5 2156.38,-243.5 2156.38,-262.75"/>
<text text-anchor="middle" x="2091" y="-249.25" font-family="Helvetica,sans-Serif" font-size="10.00">opmonlib/InfoCollector.hpp</text>
</a>
</g>
</g>
<!-- Node3&#45;&gt;Node5 -->
<g id="edge4_Node000003_Node000005" class="edge">
<title>Node3&#45;&gt;Node5</title>
<g id="a_edge4_Node000003_Node000005"><a xlink:title=" ">
<path fill="none" stroke="#63b8ff" d="M1645.31,-301.21C1736.38,-291.59 1912.43,-272.99 2013.88,-262.27"/>
<polygon fill="#63b8ff" stroke="#63b8ff" points="2014.19,-265.76 2023.76,-261.23 2013.45,-258.8 2014.19,-265.76"/>
</a>
</g>
</g>
<!-- Node3&#45;&gt;Node9 -->
<g id="edge48_Node000003_Node000009" class="edge">
<title>Node3&#45;&gt;Node9</title>
<g id="a_edge48_Node000003_Node000009"><a xlink:title=" ">
<path fill="none" stroke="#63b8ff" d="M1610.92,-298.3C1631.44,-290.13 1661.47,-277.2 1686,-262.75 1721.36,-241.92 1730.7,-236.25 1760,-207.5 1800.59,-167.67 1839.26,-112.58 1858.08,-84.28"/>
<polygon fill="#63b8ff" stroke="#63b8ff" points="1860.89,-86.38 1863.46,-76.1 1855.04,-82.53 1860.89,-86.38"/>
</a>
</g>
</g>
<!-- Node3&#45;&gt;Node11 -->
<g id="edge10_Node000003_Node000011" class="edge">
<title>Node3&#45;&gt;Node11</title>
<g id="a_edge10_Node000003_Node000011"><a xlink:title=" ">
<path fill="none" stroke="#63b8ff" d="M1565.97,-298.34C1546.37,-289.93 1516.89,-277.27 1494.49,-267.65"/>
<polygon fill="#63b8ff" stroke="#63b8ff" points="1496.1,-264.53 1485.53,-263.8 1493.34,-270.96 1496.1,-264.53"/>
</a>
</g>
</g>
<!-- Node3&#45;&gt;Node15 -->
<g id="edge47_Node000003_Node000015" class="edge">
<title>Node3&#45;&gt;Node15</title>
<g id="a_edge47_Node000003_Node000015"><a xlink:title=" ">
<path fill="none" stroke="#63b8ff" d="M1601.42,-298.37C1638.61,-275.07 1735.26,-214.18 1740,-207.5 1752.73,-189.59 1757.39,-164.44 1759.08,-146.99"/>
<polygon fill="#63b8ff" stroke="#63b8ff" points="1762.56,-147.35 1759.76,-137.13 1755.58,-146.87 1762.56,-147.35"/>
</a>
</g>
</g>
<!-- Node18 -->
<g id="Node000018" class="node">
<title>Node18</title>
<g id="a_Node000018"><a xlink:title=" ">
<polygon fill="#e0e0e0" stroke="#999999" points="1104.62,-135.38 1059.38,-135.38 1059.38,-116.12 1104.62,-116.12 1104.62,-135.38"/>
<text text-anchor="middle" x="1082" y="-121.88" font-family="Helvetica,sans-Serif" font-size="10.00">chrono</text>
</a>
</g>
</g>
<!-- Node3&#45;&gt;Node18 -->
<g id="edge46_Node000003_Node000018" class="edge">
<title>Node3&#45;&gt;Node18</title>
<g id="a_edge46_Node000003_Node000018"><a xlink:title=" ">
<path fill="none" stroke="#63b8ff" d="M1528.96,-303.15C1413.61,-293.56 1161.46,-266.26 1101,-207.5 1084.97,-191.92 1081.39,-165.54 1081.06,-147.19"/>
<polygon fill="#63b8ff" stroke="#63b8ff" points="1084.56,-147.32 1081.23,-137.27 1077.56,-147.21 1084.56,-147.32"/>
</a>
</g>
</g>
<!-- Node35 -->
<g id="Node000035" class="node">
<title>Node35</title>
<g id="a_Node000035"><a xlink:title=" ">
<polygon fill="#e0e0e0" stroke="#999999" points="1611.88,-262.75 1562.12,-262.75 1562.12,-243.5 1611.88,-243.5 1611.88,-262.75"/>
<text text-anchor="middle" x="1587" y="-249.25" font-family="Helvetica,sans-Serif" font-size="10.00">typeinfo</text>
</a>
</g>
</g>
<!-- Node3&#45;&gt;Node35 -->
<g id="edge49_Node000003_Node000035" class="edge">
<title>Node3&#45;&gt;Node35</title>
<g id="a_edge49_Node000003_Node000035"><a xlink:title=" ">
<path fill="none" stroke="#63b8ff" d="M1587,-298.58C1587,-292.07 1587,-282.92 1587,-274.62"/>
<polygon fill="#63b8ff" stroke="#63b8ff" points="1590.5,-274.62 1587,-264.62 1583.5,-274.62 1590.5,-274.62"/>
</a>
</g>
</g>
<!-- Node6 -->
<g id="Node000006" class="node">
<title>Node6</title>
<g id="a_Node000006"><a xlink:title=" ">
<polygon fill="#e0e0e0" stroke="#999999" points="2052.5,-201.88 1955.5,-201.88 1955.5,-182.62 2052.5,-182.62 2052.5,-201.88"/>
<text text-anchor="middle" x="2004" y="-188.38" font-family="Helvetica,sans-Serif" font-size="10.00">nlohmann/json.hpp</text>
</a>
</g>
</g>
<!-- Node5&#45;&gt;Node6 -->
<g id="edge5_Node000005_Node000006" class="edge">
<title>Node5&#45;&gt;Node6</title>
<g id="a_edge5_Node000005_Node000006"><a xlink:title=" ">
<path fill="none" stroke="#63b8ff" d="M2077.79,-243.18C2064.25,-234.02 2042.93,-219.59 2026.68,-208.6"/>
<polygon fill="#63b8ff" stroke="#63b8ff" points="2028.83,-205.83 2018.59,-203.12 2024.91,-211.63 2028.83,-205.83"/>
</a>
</g>
</g>
<!-- Node7 -->
<g id="Node000007" class="node">
<title>Node7</title>
<g id="a_Node000007"><a xlink:title=" ">
<polygon fill="#e0e0e0" stroke="#999999" points="2111,-201.88 2071,-201.88 2071,-182.62 2111,-182.62 2111,-201.88"/>
<text text-anchor="middle" x="2091" y="-188.38" font-family="Helvetica,sans-Serif" font-size="10.00">ctime</text>
</a>
</g>
</g>
<!-- Node5&#45;&gt;Node7 -->
<g id="edge6_Node000005_Node000007" class="edge">
<title>Node5&#45;&gt;Node7</title>
<g id="a_edge6_Node000005_Node000007"><a xlink:title=" ">
<path fill="none" stroke="#63b8ff" d="M2091,-243.18C2091,-235.4 2091,-223.83 2091,-213.78"/>
<polygon fill="#63b8ff" stroke="#63b8ff" points="2094.5,-213.79 2091,-203.79 2087.5,-213.79 2094.5,-213.79"/>
</a>
</g>
</g>
<!-- Node8 -->
<g id="Node000008" class="node">
<title>Node8</title>
<g id="a_Node000008"><a xlink:title=" ">
<polygon fill="#e0e0e0" stroke="#999999" points="1311.75,-19.25 1258.25,-19.25 1258.25,0 1311.75,0 1311.75,-19.25"/>
<text text-anchor="middle" x="1285" y="-5.75" font-family="Helvetica,sans-Serif" font-size="10.00">iostream</text>
</a>
</g>
</g>
<!-- Node5&#45;&gt;Node8 -->
<g id="edge7_Node000005_Node000008" class="edge">
<title>Node5&#45;&gt;Node8</title>
<g id="a_edge7_Node000005_Node000008"><a xlink:title=" ">
<path fill="none" stroke="#63b8ff" d="M2156.83,-250.36C2231.89,-245.83 2339.44,-230.2 2300,-177 2180.95,-16.44 1493.87,-9.46 1323.31,-10.24"/>
<polygon fill="#63b8ff" stroke="#63b8ff" points="1323.43,-6.74 1313.45,-10.3 1323.47,-13.74 1323.43,-6.74"/>
</a>
</g>
</g>
<!-- Node5&#45;&gt;Node9 -->
<g id="edge8_Node000005_Node000009" class="edge">
<title>Node5&#45;&gt;Node9</title>
<g id="a_edge8_Node000005_Node000009"><a xlink:title=" ">
<path fill="none" stroke="#63b8ff" d="M2099.5,-243.24C2112.44,-228.58 2134.17,-198.8 2120,-177 2070.81,-101.31 1956.87,-76.76 1901.43,-69.13"/>
<polygon fill="#63b8ff" stroke="#63b8ff" points="1902.08,-65.68 1891.72,-67.9 1901.2,-72.63 1902.08,-65.68"/>
</a>
</g>
</g>
<!-- Node10 -->
<g id="Node000010" class="node">
<title>Node10</title>
<g id="a_Node000010"><a xlink:href="JSONTags_8hpp.html" target="_top" xlink:title=" ">
<polygon fill="white" stroke="#666666" points="2291.38,-201.88 2166.62,-201.88 2166.62,-182.62 2291.38,-182.62 2291.38,-201.88"/>
<text text-anchor="middle" x="2229" y="-188.38" font-family="Helvetica,sans-Serif" font-size="10.00">opmonlib/JSONTags.hpp</text>
</a>
</g>
</g>
<!-- Node5&#45;&gt;Node10 -->
<g id="edge9_Node000005_Node000010" class="edge">
<title>Node5&#45;&gt;Node10</title>
<g id="a_edge9_Node000005_Node000010"><a xlink:title=" ">
<path fill="none" stroke="#63b8ff" d="M2112.26,-243.05C2135.02,-233.35 2171.36,-217.84 2197.46,-206.71"/>
<polygon fill="#63b8ff" stroke="#63b8ff" points="2198.73,-209.97 2206.55,-202.83 2195.98,-203.53 2198.73,-209.97"/>
</a>
</g>
</g>
<!-- Node11&#45;&gt;Node8 -->
<g id="edge16_Node000011_Node000008" class="edge">
<title>Node11&#45;&gt;Node8</title>
<g id="a_edge16_Node000011_Node000008"><a xlink:title=" ">
<path fill="none" stroke="#63b8ff" d="M1425.4,-246.54C1383.48,-239.5 1319.5,-226.03 1304,-207.5 1261.15,-156.28 1272.44,-69.26 1280.34,-30.39"/>
<polygon fill="#63b8ff" stroke="#63b8ff" points="1283.71,-31.37 1282.44,-20.85 1276.87,-29.87 1283.71,-31.37"/>
</a>
</g>
</g>
<!-- Node11&#45;&gt;Node9 -->
<g id="edge15_Node000011_Node000009" class="edge">
<title>Node11&#45;&gt;Node9</title>
<g id="a_edge15_Node000011_Node000009"><a xlink:title=" ">
<path fill="none" stroke="#63b8ff" d="M1500.74,-248.18C1555.08,-241.87 1651.93,-228.09 1680,-207.5 1719.79,-178.32 1695.94,-141.91 1734,-110.5 1764.29,-85.51 1809,-74.36 1838.8,-69.5"/>
<polygon fill="#63b8ff" stroke="#63b8ff" points="1838.92,-73.02 1848.3,-68.09 1837.9,-66.09 1838.92,-73.02"/>
</a>
</g>
</g>
<!-- Node12 -->
<g id="Node000012" class="node">
<title>Node12</title>
<g id="a_Node000012"><a xlink:title=" ">
<polygon fill="#e0e0e0" stroke="#999999" points="1358.62,-201.88 1313.38,-201.88 1313.38,-182.62 1358.62,-182.62 1358.62,-201.88"/>
<text text-anchor="middle" x="1336" y="-188.38" font-family="Helvetica,sans-Serif" font-size="10.00">math.h</text>
</a>
</g>
</g>
<!-- Node11&#45;&gt;Node12 -->
<g id="edge11_Node000011_Node000012" class="edge">
<title>Node11&#45;&gt;Node12</title>
<g id="a_edge11_Node000011_Node000012"><a xlink:title=" ">
<path fill="none" stroke="#63b8ff" d="M1443.43,-243.05C1422.68,-233.43 1389.64,-218.12 1365.67,-207.01"/>
<polygon fill="#63b8ff" stroke="#63b8ff" points="1367.3,-203.9 1356.75,-202.87 1364.35,-210.25 1367.3,-203.9"/>
</a>
</g>
</g>
<!-- Node13 -->
<g id="Node000013" class="node">
<title>Node13</title>
<g id="a_Node000013"><a xlink:title=" ">
<polygon fill="#e0e0e0" stroke="#999999" points="1421.25,-201.88 1376.75,-201.88 1376.75,-182.62 1421.25,-182.62 1421.25,-201.88"/>
<text text-anchor="middle" x="1399" y="-188.38" font-family="Helvetica,sans-Serif" font-size="10.00">stdio.h</text>
</a>
</g>
</g>
<!-- Node11&#45;&gt;Node13 -->
<g id="edge12_Node000011_Node000013" class="edge">
<title>Node11&#45;&gt;Node13</title>
<g id="a_edge12_Node000011_Node000013"><a xlink:title=" ">
<path fill="none" stroke="#63b8ff" d="M1453.28,-243.18C1443.69,-234.37 1428.81,-220.68 1417.06,-209.86"/>
<polygon fill="#63b8ff" stroke="#63b8ff" points="1419.65,-207.5 1409.93,-203.3 1414.92,-212.65 1419.65,-207.5"/>
</a>
</g>
</g>
<!-- Node14 -->
<g id="Node000014" class="node">
<title>Node14</title>
<g id="a_Node000014"><a xlink:title=" ">
<polygon fill="#e0e0e0" stroke="#999999" points="1486.75,-201.88 1439.25,-201.88 1439.25,-182.62 1486.75,-182.62 1486.75,-201.88"/>
<text text-anchor="middle" x="1463" y="-188.38" font-family="Helvetica,sans-Serif" font-size="10.00">string.h</text>
</a>
</g>
</g>
<!-- Node11&#45;&gt;Node14 -->
<g id="edge13_Node000011_Node000014" class="edge">
<title>Node11&#45;&gt;Node14</title>
<g id="a_edge13_Node000011_Node000014"><a xlink:title=" ">
<path fill="none" stroke="#63b8ff" d="M1463,-243.18C1463,-235.4 1463,-223.83 1463,-213.78"/>
<polygon fill="#63b8ff" stroke="#63b8ff" points="1466.5,-213.79 1463,-203.79 1459.5,-213.79 1466.5,-213.79"/>
</a>
</g>
</g>
<!-- Node11&#45;&gt;Node15 -->
<g id="edge14_Node000011_Node000015" class="edge">
<title>Node11&#45;&gt;Node15</title>
<g id="a_edge14_Node000011_Node000015"><a xlink:title=" ">
<path fill="none" stroke="#63b8ff" d="M1500.6,-247.18C1566.1,-238.32 1695.81,-219.52 1713,-207.5 1734.05,-192.78 1747.04,-165.39 1753.89,-146.62"/>
<polygon fill="#63b8ff" stroke="#63b8ff" points="1757.19,-147.78 1757.04,-137.19 1750.55,-145.56 1757.19,-147.78"/>
</a>
</g>
</g>
<!-- Node16 -->
<g id="Node000016" class="node">
<title>Node16</title>
<g id="a_Node000016"><a xlink:title=" ">
<polygon fill="#e0e0e0" stroke="#999999" points="1555.62,-201.88 1504.38,-201.88 1504.38,-182.62 1555.62,-182.62 1555.62,-201.88"/>
<text text-anchor="middle" x="1530" y="-188.38" font-family="Helvetica,sans-Serif" font-size="10.00">sstream</text>
</a>
</g>
</g>
<!-- Node11&#45;&gt;Node16 -->
<g id="edge17_Node000011_Node000016" class="edge">
<title>Node11&#45;&gt;Node16</title>
<g id="a_edge17_Node000011_Node000016"><a xlink:title=" ">
<path fill="none" stroke="#63b8ff" d="M1473.18,-243.18C1483.21,-234.37 1498.79,-220.68 1511.1,-209.86"/>
<polygon fill="#63b8ff" stroke="#63b8ff" points="1513.39,-212.51 1518.59,-203.28 1508.77,-207.25 1513.39,-212.51"/>
</a>
</g>
</g>
<!-- Node17 -->
<g id="Node000017" class="node">
<title>Node17</title>
<g id="a_Node000017"><a xlink:title=" ">
<polygon fill="#e0e0e0" stroke="#999999" points="1624.25,-201.88 1573.75,-201.88 1573.75,-182.62 1624.25,-182.62 1624.25,-201.88"/>
<text text-anchor="middle" x="1599" y="-188.38" font-family="Helvetica,sans-Serif" font-size="10.00">memory</text>
</a>
</g>
</g>
<!-- Node11&#45;&gt;Node17 -->
<g id="edge18_Node000011_Node000017" class="edge">
<title>Node11&#45;&gt;Node17</title>
<g id="a_edge18_Node000011_Node000017"><a xlink:title=" ">
<path fill="none" stroke="#63b8ff" d="M1483.95,-243.05C1506.38,-233.35 1542.2,-217.84 1567.91,-206.71"/>
<polygon fill="#63b8ff" stroke="#63b8ff" points="1569.07,-210.02 1576.86,-202.84 1566.29,-203.6 1569.07,-210.02"/>
</a>
</g>
</g>
<!-- Node11&#45;&gt;Node18 -->
<g id="edge19_Node000011_Node000018" class="edge">
<title>Node11&#45;&gt;Node18</title>
<g id="a_edge19_Node000011_Node000018"><a xlink:title=" ">
<path fill="none" stroke="#63b8ff" d="M1425.26,-250.98C1349.21,-248.04 1180.73,-238.16 1133,-207.5 1110.81,-193.25 1096.5,-165.53 1088.85,-146.58"/>
<polygon fill="#63b8ff" stroke="#63b8ff" points="1092.16,-145.43 1085.38,-137.29 1085.6,-147.88 1092.16,-145.43"/>
</a>
</g>
</g>
<!-- Node19 -->
<g id="Node000019" class="node">
<title>Node19</title>
<g id="a_Node000019"><a xlink:title=" ">
<polygon fill="#e0e0e0" stroke="#999999" points="1671.4,-201.88 1642.6,-201.88 1642.6,-182.62 1671.4,-182.62 1671.4,-201.88"/>
<text text-anchor="middle" x="1657" y="-188.38" font-family="Helvetica,sans-Serif" font-size="10.00">list</text>
</a>
</g>
</g>
<!-- Node11&#45;&gt;Node19 -->
<g id="edge20_Node000011_Node000019" class="edge">
<title>Node11&#45;&gt;Node19</title>
<g id="a_edge20_Node000011_Node000019"><a xlink:title=" ">
<path fill="none" stroke="#63b8ff" d="M1500.45,-245.43C1533.3,-238.88 1582.26,-227.47 1632.69,-206.78"/>
<polygon fill="#63b8ff" stroke="#63b8ff" points="1633.88,-210.07 1641.73,-202.96 1631.16,-203.63 1633.88,-210.07"/>
</a>
</g>
</g>
<!-- Node20 -->
<g id="Node000020" class="node">
<title>Node20</title>
<g id="a_Node000020"><a xlink:href="IssueFactory_8hpp.html" target="_top" xlink:title=" ">
<polygon fill="white" stroke="#666666" points="1257.38,-201.88 1150.62,-201.88 1150.62,-182.62 1257.38,-182.62 1257.38,-201.88"/>
<text text-anchor="middle" x="1204" y="-188.38" font-family="Helvetica,sans-Serif" font-size="10.00">ers/IssueFactory.hpp</text>
</a>
</g>
</g>
<!-- Node11&#45;&gt;Node20 -->
<g id="edge21_Node000011_Node000020" class="edge">
<title>Node11&#45;&gt;Node20</title>
<g id="a_edge21_Node000011_Node000020"><a xlink:title=" ">
<path fill="none" stroke="#63b8ff" d="M1425.34,-243.56C1380.43,-233.36 1305.17,-216.25 1255.06,-204.86"/>
<polygon fill="#63b8ff" stroke="#63b8ff" points="1255.84,-201.44 1245.31,-202.64 1254.29,-208.27 1255.84,-201.44"/>
</a>
</g>
</g>
<!-- Node22 -->
<g id="Node000022" class="node">
<title>Node22</title>
<g id="a_Node000022"><a xlink:href="Severity_8hpp.html" target="_top" xlink:title=" ">
<polygon fill="white" stroke="#666666" points="1246.88,-135.38 1161.12,-135.38 1161.12,-116.12 1246.88,-116.12 1246.88,-135.38"/>
<text text-anchor="middle" x="1204" y="-121.88" font-family="Helvetica,sans-Serif" font-size="10.00">ers/Severity.hpp</text>
</a>
</g>
</g>
<!-- Node11&#45;&gt;Node22 -->
<g id="edge38_Node000011_Node000022" class="edge">
<title>Node11&#45;&gt;Node22</title>
<g id="a_edge38_Node000011_Node000022"><a xlink:title=" ">
<path fill="none" stroke="#63b8ff" d="M1425.51,-252.77C1348.86,-253.19 1178.39,-249.3 1142,-207.5 1122.93,-185.59 1153.9,-158.53 1178.52,-141.96"/>
<polygon fill="#63b8ff" stroke="#63b8ff" points="1180.39,-144.92 1186.91,-136.57 1176.61,-139.03 1180.39,-144.92"/>
</a>
</g>
</g>
<!-- Node23 -->
<g id="Node000023" class="node">
<title>Node23</title>
<g id="a_Node000023"><a xlink:href="LocalContext_8hpp.html" target="_top" xlink:title=" ">
<polygon fill="white" stroke="#666666" points="290.75,-201.88 183.25,-201.88 183.25,-182.62 290.75,-182.62 290.75,-201.88"/>
<text text-anchor="middle" x="237" y="-188.38" font-family="Helvetica,sans-Serif" font-size="10.00">ers/LocalContext.hpp</text>
</a>
</g>
</g>
<!-- Node11&#45;&gt;Node23 -->
<g id="edge30_Node000011_Node000023" class="edge">
<title>Node11&#45;&gt;Node23</title>
<g id="a_edge30_Node000011_Node000023"><a xlink:title=" ">
<path fill="none" stroke="#63b8ff" d="M1425.3,-250.31C1251.41,-241.96 525.72,-207.12 302.57,-196.4"/>
<polygon fill="#63b8ff" stroke="#63b8ff" points="302.75,-192.9 292.6,-195.92 302.42,-199.9 302.75,-192.9"/>
</a>
</g>
</g>
<!-- Node28 -->
<g id="Node000028" class="node">
<title>Node28</title>
<g id="a_Node000028"><a xlink:href="IssueDeclarationMacro_8hpp.html" target="_top" xlink:title=" ">
<polygon fill="white" stroke="#666666" points="788.88,-207.5 649.12,-207.5 649.12,-177 788.88,-177 788.88,-207.5"/>
<text text-anchor="start" x="657.12" y="-194" font-family="Helvetica,sans-Serif" font-size="10.00">ers/internal/IssueDeclaration</text>
<text text-anchor="middle" x="719" y="-182.75" font-family="Helvetica,sans-Serif" font-size="10.00">Macro.hpp</text>
</a>
</g>
</g>
<!-- Node11&#45;&gt;Node28 -->
<g id="edge39_Node000011_Node000028" class="edge">
<title>Node11&#45;&gt;Node28</title>
<g id="a_edge39_Node000011_Node000028"><a xlink:title=" ">
<path fill="none" stroke="#63b8ff" d="M1425.34,-249.14C1310.09,-240.03 960.36,-212.35 800.41,-199.69"/>
<polygon fill="#63b8ff" stroke="#63b8ff" points="800.98,-196.23 790.74,-198.93 800.43,-203.2 800.98,-196.23"/>
</a>
</g>
</g>
<!-- Node20&#45;&gt;Node9 -->
<g id="edge23_Node000020_Node000009" class="edge">
<title>Node20&#45;&gt;Node9</title>
<g id="a_edge23_Node000020_Node000009"><a xlink:title=" ">
<path fill="none" stroke="#63b8ff" d="M1252.43,-182.13C1381.56,-157.82 1731.48,-91.95 1838.49,-71.81"/>
<polygon fill="#63b8ff" stroke="#63b8ff" points="1839.08,-75.26 1848.26,-69.97 1837.79,-68.38 1839.08,-75.26"/>
</a>
</g>
</g>
<!-- Node20&#45;&gt;Node15 -->
<g id="edge25_Node000020_Node000015" class="edge">
<title>Node20&#45;&gt;Node15</title>
<g id="a_edge25_Node000020_Node000015"><a xlink:title=" ">
<path fill="none" stroke="#63b8ff" d="M1257.67,-183.28C1272.65,-181.14 1288.95,-178.9 1304,-177 1464.97,-156.67 1658.51,-136.87 1730.85,-129.64"/>
<polygon fill="#63b8ff" stroke="#63b8ff" points="1731.05,-133.14 1740.65,-128.66 1730.35,-126.17 1731.05,-133.14"/>
</a>
</g>
</g>
<!-- Node20&#45;&gt;Node18 -->
<g id="edge22_Node000020_Node000018" class="edge">
<title>Node20&#45;&gt;Node18</title>
<g id="a_edge22_Node000020_Node000018"><a xlink:title=" ">
<path fill="none" stroke="#63b8ff" d="M1186.78,-182.15C1166.62,-171.49 1132.96,-153.69 1109.25,-141.16"/>
<polygon fill="#63b8ff" stroke="#63b8ff" points="1110.95,-138.1 1100.47,-136.52 1107.68,-144.28 1110.95,-138.1"/>
</a>
</g>
</g>
<!-- Node20&#45;&gt;Node21 -->
<g id="edge24_Node000020_Node000021" class="edge">
<title>Node20&#45;&gt;Node21</title>
<g id="a_edge24_Node000020_Node000021"><a xlink:title=" ">
<path fill="none" stroke="#63b8ff" d="M1194.66,-182.25C1173.64,-162.09 1123.67,-114.71 1114,-110.5 1030.13,-74.01 746.87,-67.36 649.33,-66.15"/>
<polygon fill="#63b8ff" stroke="#63b8ff" points="649.42,-62.65 639.38,-66.03 649.34,-69.65 649.42,-62.65"/>
</a>
</g>
</g>
<!-- Node20&#45;&gt;Node22 -->
<g id="edge26_Node000020_Node000022" class="edge">
<title>Node20&#45;&gt;Node22</title>
<g id="a_edge26_Node000020_Node000022"><a xlink:title=" ">
<path fill="none" stroke="#63b8ff" d="M1204,-182.28C1204,-173.23 1204,-158.95 1204,-147.13"/>
<polygon fill="#63b8ff" stroke="#63b8ff" points="1207.5,-147.16 1204,-137.16 1200.5,-147.16 1207.5,-147.16"/>
</a>
</g>
</g>
<!-- Node22&#45;&gt;Node8 -->
<g id="edge29_Node000022_Node000008" class="edge">
<title>Node22&#45;&gt;Node8</title>
<g id="a_edge29_Node000022_Node000008"><a xlink:title=" ">
<path fill="none" stroke="#63b8ff" d="M1210.36,-115.79C1223.6,-97.13 1254.4,-53.73 1272.02,-28.91"/>
<polygon fill="#63b8ff" stroke="#63b8ff" points="1274.86,-30.95 1277.8,-20.77 1269.16,-26.9 1274.86,-30.95"/>
</a>
</g>
</g>
<!-- Node22&#45;&gt;Node9 -->
<g id="edge27_Node000022_Node000009" class="edge">
<title>Node22&#45;&gt;Node9</title>
<g id="a_edge27_Node000022_Node000009"><a xlink:title=" ">
<path fill="none" stroke="#63b8ff" d="M1236.35,-115.64C1244.35,-113.67 1252.94,-111.79 1261,-110.5 1479.91,-75.38 1747.59,-67.86 1838.26,-66.28"/>
<polygon fill="#63b8ff" stroke="#63b8ff" points="1838.16,-69.79 1848.1,-66.13 1838.05,-62.79 1838.16,-69.79"/>
</a>
</g>
</g>
<!-- Node22&#45;&gt;Node21 -->
<g id="edge28_Node000022_Node000021" class="edge">
<title>Node22&#45;&gt;Node21</title>
<g id="a_edge28_Node000022_Node000021"><a xlink:title=" ">
<path fill="none" stroke="#63b8ff" d="M1171.33,-115.63C1163.42,-113.68 1154.95,-111.82 1147,-110.5 960.41,-79.54 733.18,-69.57 649.23,-66.81"/>
<polygon fill="#63b8ff" stroke="#63b8ff" points="649.52,-63.32 639.42,-66.5 649.3,-70.31 649.52,-63.32"/>
</a>
</g>
</g>
<!-- Node24 -->
<g id="Node000024" class="node">
<title>Node24</title>
<g id="a_Node000024"><a xlink:title=" ">
<polygon fill="#e0e0e0" stroke="#999999" points="232.38,-135.38 167.62,-135.38 167.62,-116.12 232.38,-116.12 232.38,-135.38"/>
<text text-anchor="middle" x="200" y="-121.88" font-family="Helvetica,sans-Serif" font-size="10.00">sys/types.h</text>
</a>
</g>
</g>
<!-- Node23&#45;&gt;Node24 -->
<g id="edge31_Node000023_Node000024" class="edge">
<title>Node23&#45;&gt;Node24</title>
<g id="a_edge31_Node000023_Node000024"><a xlink:title=" ">
<path fill="none" stroke="#63b8ff" d="M231.86,-182.28C226.39,-172.75 217.59,-157.41 210.62,-145.27"/>
<polygon fill="#63b8ff" stroke="#63b8ff" points="213.87,-143.89 205.85,-136.96 207.79,-147.37 213.87,-143.89"/>
</a>
</g>
</g>
<!-- Node25 -->
<g id="Node000025" class="node">
<title>Node25</title>
<g id="a_Node000025"><a xlink:title=" ">
<polygon fill="#e0e0e0" stroke="#999999" points="299.88,-135.38 250.12,-135.38 250.12,-116.12 299.88,-116.12 299.88,-135.38"/>
<text text-anchor="middle" x="275" y="-121.88" font-family="Helvetica,sans-Serif" font-size="10.00">unistd.h</text>
</a>
</g>
</g>
<!-- Node23&#45;&gt;Node25 -->
<g id="edge32_Node000023_Node000025" class="edge">
<title>Node23&#45;&gt;Node25</title>
<g id="a_edge32_Node000023_Node000025"><a xlink:title=" ">
<path fill="none" stroke="#63b8ff" d="M242.28,-182.28C247.9,-172.75 256.94,-157.41 264.09,-145.27"/>
<polygon fill="#63b8ff" stroke="#63b8ff" points="266.93,-147.34 268.99,-136.95 260.9,-143.79 266.93,-147.34"/>
</a>
</g>
</g>
<!-- Node26 -->
<g id="Node000026" class="node">
<title>Node26</title>
<g id="a_Node000026"><a xlink:href="Context_8hpp.html" target="_top" xlink:title=" ">
<polygon fill="white" stroke="#666666" points="149.75,-135.38 66.25,-135.38 66.25,-116.12 149.75,-116.12 149.75,-135.38"/>
<text text-anchor="middle" x="108" y="-121.88" font-family="Helvetica,sans-Serif" font-size="10.00">ers/Context.hpp</text>
</a>
</g>
</g>
<!-- Node23&#45;&gt;Node26 -->
<g id="edge33_Node000023_Node000026" class="edge">
<title>Node23&#45;&gt;Node26</title>
<g id="a_edge33_Node000023_Node000026"><a xlink:title=" ">
<path fill="none" stroke="#63b8ff" d="M218.79,-182.15C197.28,-171.39 161.25,-153.37 136.14,-140.82"/>
<polygon fill="#63b8ff" stroke="#63b8ff" points="137.98,-137.83 127.47,-136.49 134.85,-144.09 137.98,-137.83"/>
</a>
</g>
</g>
<!-- Node26&#45;&gt;Node9 -->
<g id="edge34_Node000026_Node000009" class="edge">
<title>Node26&#45;&gt;Node9</title>
<g id="a_edge34_Node000026_Node000009"><a xlink:title=" ">
<path fill="none" stroke="#63b8ff" d="M135.79,-115.65C143.25,-113.58 151.36,-111.65 159,-110.5 330.95,-84.64 1618.93,-68.76 1838.28,-66.23"/>
<polygon fill="#63b8ff" stroke="#63b8ff" points="1838.09,-69.73 1848.05,-66.12 1838.01,-62.73 1838.09,-69.73"/>
</a>
</g>
</g>
<!-- Node26&#45;&gt;Node21 -->
<g id="edge35_Node000026_Node000021" class="edge">
<title>Node26&#45;&gt;Node21</title>
<g id="a_edge35_Node000026_Node000021"><a xlink:title=" ">
<path fill="none" stroke="#63b8ff" d="M137.19,-115.65C144.27,-113.7 151.86,-111.84 159,-110.5 316.31,-81.08 507.94,-70.36 583.32,-67.1"/>
<polygon fill="#63b8ff" stroke="#63b8ff" points="583.04,-70.62 592.89,-66.7 582.75,-63.62 583.04,-70.62"/>
</a>
</g>
</g>
<!-- Node27 -->
<g id="Node000027" class="node">
<title>Node27</title>
<g id="a_Node000027"><a xlink:href="ers_2include_2ers_2Configuration_8hpp.html" target="_top" xlink:title=" ">
<polygon fill="white" stroke="#666666" points="369.38,-74.5 262.62,-74.5 262.62,-55.25 369.38,-55.25 369.38,-74.5"/>
<text text-anchor="middle" x="316" y="-61" font-family="Helvetica,sans-Serif" font-size="10.00">ers/Configuration.hpp</text>
</a>
</g>
</g>
<!-- Node26&#45;&gt;Node27 -->
<g id="edge36_Node000026_Node000027" class="edge">
<title>Node26&#45;&gt;Node27</title>
<g id="a_edge36_Node000026_Node000027"><a xlink:title=" ">
<path fill="none" stroke="#63b8ff" d="M140.04,-115.68C175.7,-105.59 233.48,-89.23 273.03,-78.04"/>
<polygon fill="#63b8ff" stroke="#63b8ff" points="273.79,-81.46 282.46,-75.37 271.89,-74.72 273.79,-81.46"/>
</a>
</g>
</g>
<!-- Node27&#45;&gt;Node8 -->
<g id="edge37_Node000027_Node000008" class="edge">
<title>Node27&#45;&gt;Node8</title>
<g id="a_edge37_Node000027_Node000008"><a xlink:title=" ">
<path fill="none" stroke="#63b8ff" d="M369.83,-60.92C545.02,-51.29 1096.34,-20.99 1246.76,-12.73"/>
<polygon fill="#63b8ff" stroke="#63b8ff" points="1246.78,-16.23 1256.57,-12.19 1246.4,-9.24 1246.78,-16.23"/>
</a>
</g>
</g>
<!-- Node29 -->
<g id="Node000029" class="node">
<title>Node29</title>
<g id="a_Node000029"><a xlink:title=" ">
<polygon fill="#e0e0e0" stroke="#999999" points="534.62,-141 435.38,-141 435.38,-110.5 534.62,-110.5 534.62,-141"/>
<text text-anchor="start" x="443.38" y="-127.5" font-family="Helvetica,sans-Serif" font-size="10.00">boost/preprocessor</text>
<text text-anchor="middle" x="485" y="-116.25" font-family="Helvetica,sans-Serif" font-size="10.00">/if.hpp</text>
</a>
</g>
</g>
<!-- Node28&#45;&gt;Node29 -->
<g id="edge40_Node000028_Node000029" class="edge">
<title>Node28&#45;&gt;Node29</title>
<g id="a_edge40_Node000028_Node000029"><a xlink:title=" ">
<path fill="none" stroke="#63b8ff" d="M665.61,-176.53C629.88,-166.69 582.79,-153.7 545.65,-143.47"/>
<polygon fill="#63b8ff" stroke="#63b8ff" points="546.99,-140.21 536.42,-140.92 545.13,-146.95 546.99,-140.21"/>
</a>
</g>
</g>
<!-- Node30 -->
<g id="Node000030" class="node">
<title>Node30</title>
<g id="a_Node000030"><a xlink:title=" ">
<polygon fill="#e0e0e0" stroke="#999999" points="651.62,-141 552.38,-141 552.38,-110.5 651.62,-110.5 651.62,-141"/>
<text text-anchor="start" x="560.38" y="-127.5" font-family="Helvetica,sans-Serif" font-size="10.00">boost/preprocessor</text>
<text text-anchor="middle" x="602" y="-116.25" font-family="Helvetica,sans-Serif" font-size="10.00">/seq.hpp</text>
</a>
</g>
</g>
<!-- Node28&#45;&gt;Node30 -->
<g id="edge41_Node000028_Node000030" class="edge">
<title>Node28&#45;&gt;Node30</title>
<g id="a_edge41_Node000028_Node000030"><a xlink:title=" ">
<path fill="none" stroke="#63b8ff" d="M692.45,-176.61C676.44,-167.79 655.83,-156.43 638.33,-146.78"/>
<polygon fill="#63b8ff" stroke="#63b8ff" points="640.22,-143.82 629.77,-142.06 636.84,-149.95 640.22,-143.82"/>
</a>
</g>
</g>
<!-- Node31 -->
<g id="Node000031" class="node">
<title>Node31</title>
<g id="a_Node000031"><a xlink:title=" ">
<polygon fill="#e0e0e0" stroke="#999999" points="768.62,-141 669.38,-141 669.38,-110.5 768.62,-110.5 768.62,-141"/>
<text text-anchor="start" x="677.38" y="-127.5" font-family="Helvetica,sans-Serif" font-size="10.00">boost/preprocessor</text>
<text text-anchor="middle" x="719" y="-116.25" font-family="Helvetica,sans-Serif" font-size="10.00">/tuple.hpp</text>
</a>
</g>
</g>
<!-- Node28&#45;&gt;Node31 -->
<g id="edge42_Node000028_Node000031" class="edge">
<title>Node28&#45;&gt;Node31</title>
<g id="a_edge42_Node000028_Node000031"><a xlink:title=" ">
<path fill="none" stroke="#63b8ff" d="M719,-176.61C719,-169.52 719,-160.79 719,-152.63"/>
<polygon fill="#63b8ff" stroke="#63b8ff" points="722.5,-152.84 719,-142.84 715.5,-152.84 722.5,-152.84"/>
</a>
</g>
</g>
<!-- Node32 -->
<g id="Node000032" class="node">
<title>Node32</title>
<g id="a_Node000032"><a xlink:title=" ">
<polygon fill="#e0e0e0" stroke="#999999" points="885.62,-141 786.38,-141 786.38,-110.5 885.62,-110.5 885.62,-141"/>
<text text-anchor="start" x="794.38" y="-127.5" font-family="Helvetica,sans-Serif" font-size="10.00">boost/preprocessor</text>
<text text-anchor="middle" x="836" y="-116.25" font-family="Helvetica,sans-Serif" font-size="10.00">/logical.hpp</text>
</a>
</g>
</g>
<!-- Node28&#45;&gt;Node32 -->
<g id="edge43_Node000028_Node000032" class="edge">
<title>Node28&#45;&gt;Node32</title>
<g id="a_edge43_Node000028_Node000032"><a xlink:title=" ">
<path fill="none" stroke="#63b8ff" d="M745.55,-176.61C761.56,-167.79 782.17,-156.43 799.67,-146.78"/>
<polygon fill="#63b8ff" stroke="#63b8ff" points="801.16,-149.95 808.23,-142.06 797.78,-143.82 801.16,-149.95"/>
</a>
</g>
</g>
<!-- Node33 -->
<g id="Node000033" class="node">
<title>Node33</title>
<g id="a_Node000033"><a xlink:title=" ">
<polygon fill="#e0e0e0" stroke="#999999" points="1002.62,-141 903.38,-141 903.38,-110.5 1002.62,-110.5 1002.62,-141"/>
<text text-anchor="start" x="911.38" y="-127.5" font-family="Helvetica,sans-Serif" font-size="10.00">boost/preprocessor</text>
<text text-anchor="middle" x="953" y="-116.25" font-family="Helvetica,sans-Serif" font-size="10.00">/stringize.hpp</text>
</a>
</g>
</g>
<!-- Node28&#45;&gt;Node33 -->
<g id="edge44_Node000028_Node000033" class="edge">
<title>Node28&#45;&gt;Node33</title>
<g id="a_edge44_Node000028_Node000033"><a xlink:title=" ">
<path fill="none" stroke="#63b8ff" d="M772.39,-176.53C808.12,-166.69 855.21,-153.7 892.35,-143.47"/>
<polygon fill="#63b8ff" stroke="#63b8ff" points="892.87,-146.95 901.58,-140.92 891.01,-140.21 892.87,-146.95"/>
</a>
</g>
</g>
<!-- Node34 -->
<g id="Node000034" class="node">
<title>Node34</title>
<g id="a_Node000034"><a xlink:title=" ">
<polygon fill="#e0e0e0" stroke="#999999" points="417.62,-141 318.38,-141 318.38,-110.5 417.62,-110.5 417.62,-141"/>
<text text-anchor="start" x="326.38" y="-127.5" font-family="Helvetica,sans-Serif" font-size="10.00">boost/preprocessor</text>
<text text-anchor="middle" x="368" y="-116.25" font-family="Helvetica,sans-Serif" font-size="10.00">/comparison.hpp</text>
</a>
</g>
</g>
<!-- Node28&#45;&gt;Node34 -->
<g id="edge45_Node000028_Node000034" class="edge">
<title>Node28&#45;&gt;Node34</title>
<g id="a_edge45_Node000028_Node000034"><a xlink:title=" ">
<path fill="none" stroke="#63b8ff" d="M648.88,-180.66C591.91,-171.73 509.26,-158.03 428.76,-141.5"/>
<polygon fill="#63b8ff" stroke="#63b8ff" points="429.92,-138.17 419.42,-139.56 428.5,-145.02 429.92,-138.17"/>
</a>
</g>
</g>
<!-- Node36&#45;&gt;Node9 -->
<g id="edge52_Node000036_Node000009" class="edge">
<title>Node36&#45;&gt;Node9</title>
<g id="a_edge52_Node000036_Node000009"><a xlink:title=" ">
<path fill="none" stroke="#63b8ff" d="M1790.38,-298.32C1811.48,-291.79 1835.56,-280.83 1851,-262.75 1894.37,-211.97 1882.81,-124.72 1874.75,-85.72"/>
<polygon fill="#63b8ff" stroke="#63b8ff" points="1878.21,-85.14 1872.61,-76.14 1871.37,-86.66 1878.21,-85.14"/>
</a>
</g>
</g>
<!-- Node36&#45;&gt;Node11 -->
<g id="edge51_Node000036_Node000011" class="edge">
<title>Node36&#45;&gt;Node11</title>
<g id="a_edge51_Node000036_Node000011"><a xlink:title=" ">
<path fill="none" stroke="#63b8ff" d="M1700.42,-298.64C1648.38,-288.88 1564.5,-273.16 1511.64,-263.24"/>
<polygon fill="#63b8ff" stroke="#63b8ff" points="1512.48,-259.84 1502.01,-261.44 1511.19,-266.72 1512.48,-259.84"/>
</a>
</g>
</g>
<!-- Node38&#45;&gt;Node4 -->
<g id="edge62_Node000038_Node000004" class="edge">
<title>Node38&#45;&gt;Node4</title>
<g id="a_edge62_Node000038_Node000004"><a xlink:title=" ">
<path fill="none" stroke="#63b8ff" d="M1818.57,-353.9C1815.09,-341.56 1808.41,-318.32 1802,-298.75 1799.28,-290.44 1796.06,-281.34 1793.22,-273.54"/>
<polygon fill="#63b8ff" stroke="#63b8ff" points="1796.59,-272.56 1789.86,-264.39 1790.02,-274.98 1796.59,-272.56"/>
</a>
</g>
</g>
<!-- Node38&#45;&gt;Node5 -->
<g id="edge61_Node000038_Node000005" class="edge">
<title>Node38&#45;&gt;Node5</title>
<g id="a_edge61_Node000038_Node000005"><a xlink:title=" ">
<path fill="none" stroke="#63b8ff" d="M1872.68,-360.44C1917.41,-356.58 1982.52,-346.12 2032,-318 2051.62,-306.85 2068.45,-286.94 2079.05,-272.3"/>
<polygon fill="#63b8ff" stroke="#63b8ff" points="2081.69,-274.64 2084.49,-264.43 2075.93,-270.66 2081.69,-274.64"/>
</a>
</g>
</g>
<!-- Node38&#45;&gt;Node9 -->
<g id="edge64_Node000038_Node000009" class="edge">
<title>Node38&#45;&gt;Node9</title>
<g id="a_edge64_Node000038_Node000009"><a xlink:title=" ">
<path fill="none" stroke="#63b8ff" d="M1872.89,-362.21C2000.44,-359.8 2319,-344.71 2319,-254.12 2319,-254.12 2319,-254.12 2319,-191.25 2319,-104.53 2004.39,-75.14 1901.87,-67.87"/>
<polygon fill="#63b8ff" stroke="#63b8ff" points="1902.18,-64.38 1891.97,-67.19 1901.71,-71.37 1902.18,-64.38"/>
</a>
</g>
</g>
<!-- Node38&#45;&gt;Node11 -->
<g id="edge60_Node000038_Node000011" class="edge">
<title>Node38&#45;&gt;Node11</title>
<g id="a_edge60_Node000038_Node000011"><a xlink:title=" ">
<path fill="none" stroke="#63b8ff" d="M1769.16,-359.2C1694.76,-353.57 1562.02,-340.67 1520,-318 1500.42,-307.44 1484.25,-287.39 1474.2,-272.56"/>
<polygon fill="#63b8ff" stroke="#63b8ff" points="1477.16,-270.7 1468.81,-264.17 1471.27,-274.48 1477.16,-270.7"/>
</a>
</g>
</g>
<!-- Node38&#45;&gt;Node21 -->
<g id="edge65_Node000038_Node000021" class="edge">
<title>Node38&#45;&gt;Node21</title>
<g id="a_edge65_Node000038_Node000021"><a xlink:title=" ">
<path fill="none" stroke="#63b8ff" d="M1769.06,-356.16C1704.15,-347.95 1589.71,-333.03 1492,-318 1348.92,-295.99 1306.46,-313.82 1171,-262.75 1127.08,-246.19 1115.29,-239.55 1081,-207.5 1042.34,-171.38 1057.58,-137.35 1012,-110.5 950.78,-74.44 732.87,-67.52 649.12,-66.19"/>
<polygon fill="#63b8ff" stroke="#63b8ff" points="649.34,-62.69 639.29,-66.05 649.24,-69.69 649.34,-62.69"/>
</a>
</g>
</g>
<!-- Node38&#45;&gt;Node36 -->
<g id="edge59_Node000038_Node000036" class="edge">
<title>Node38&#45;&gt;Node36</title>
<g id="a_edge59_Node000038_Node000036"><a xlink:title=" ">
<path fill="none" stroke="#63b8ff" d="M1808.45,-353.59C1797.54,-345.74 1781.5,-334.2 1768.54,-324.87"/>
<polygon fill="#63b8ff" stroke="#63b8ff" points="1770.76,-322.16 1760.6,-319.16 1766.67,-327.84 1770.76,-322.16"/>
</a>
</g>
</g>
<!-- Node39 -->
<g id="Node000039" class="node">
<title>Node39</title>
<g id="a_Node000039"><a xlink:title=" ">
<polygon fill="#e0e0e0" stroke="#999999" points="2023.38,-318 1886.62,-318 1886.62,-298.75 2023.38,-298.75 2023.38,-318"/>
<text text-anchor="middle" x="1955" y="-304.5" font-family="Helvetica,sans-Serif" font-size="10.00">boost/core/noncopyable.hpp</text>
</a>
</g>
</g>
<!-- Node38&#45;&gt;Node39 -->
<g id="edge63_Node000038_Node000039" class="edge">
<title>Node38&#45;&gt;Node39</title>
<g id="a_edge63_Node000038_Node000039"><a xlink:title=" ">
<path fill="none" stroke="#63b8ff" d="M1843.73,-353.59C1865.1,-345.1 1897.34,-332.29 1921.63,-322.64"/>
<polygon fill="#63b8ff" stroke="#63b8ff" points="1922.75,-325.96 1930.75,-319.01 1920.16,-319.45 1922.75,-325.96"/>
</a>
</g>
</g>
</g>
</svg>
