<?xml version="1.0" encoding="UTF-8" standalone="no"?>
<!DOCTYPE svg PUBLIC "-//W3C//DTD SVG 1.1//EN"
 "http://www.w3.org/Graphics/SVG/1.1/DTD/svg11.dtd">
<!-- Generated by graphviz version 9.0.0 (20230911.1827)
 -->
<!-- Title: /github/workspace/dev_area/sourcecode/timing/include/timing/I2CSlave.hpp Pages: 1 -->
<svg width="1743pt" height="404pt"
 viewBox="0.00 0.00 1743.38 403.75" xmlns="http://www.w3.org/2000/svg" xmlns:xlink="http://www.w3.org/1999/xlink">
<g id="graph0" class="graph" transform="scale(1 1) rotate(0) translate(4 399.75)">
<title>/github/workspace/dev_area/sourcecode/timing/include/timing/I2CSlave.hpp</title>
<!-- Node1 -->
<g id="Node000001" class="node">
<title>Node1</title>
<g id="a_Node000001"><a xlink:title=" ">
<polygon fill="#999999" stroke="#666666" points="1472.88,-395.75 1333.12,-395.75 1333.12,-354 1472.88,-354 1472.88,-395.75"/>
<text text-anchor="start" x="1341.12" y="-382.25" font-family="Helvetica,sans-Serif" font-size="10.00">/github/workspace/dev</text>
<text text-anchor="start" x="1341.12" y="-371" font-family="Helvetica,sans-Serif" font-size="10.00">_area/sourcecode/timing</text>
<text text-anchor="middle" x="1403" y="-359.75" font-family="Helvetica,sans-Serif" font-size="10.00">/include/timing/I2CSlave.hpp</text>
</a>
</g>
</g>
<!-- Node2 -->
<g id="Node000002" class="node">
<title>Node2</title>
<g id="a_Node000002"><a xlink:href="include_2timing_2TimingIssues_8hpp.html" target="_top" xlink:title=" ">
<polygon fill="white" stroke="#666666" points="524.25,-318 431.75,-318 431.75,-298.75 524.25,-298.75 524.25,-318"/>
<text text-anchor="middle" x="478" y="-304.5" font-family="Helvetica,sans-Serif" font-size="10.00">TimingIssues.hpp</text>
</a>
</g>
</g>
<!-- Node1&#45;&gt;Node2 -->
<g id="edge1_Node000001_Node000002" class="edge">
<title>Node1&#45;&gt;Node2</title>
<g id="a_edge1_Node000001_Node000002"><a xlink:title=" ">
<path fill="none" stroke="#63b8ff" d="M1332.72,-368.97C1156.39,-356.68 697.85,-324.71 535.78,-313.4"/>
<polygon fill="#63b8ff" stroke="#63b8ff" points="536.36,-309.94 526.14,-312.73 535.88,-316.92 536.36,-309.94"/>
</a>
</g>
</g>
<!-- Node3 -->
<g id="Node000003" class="node">
<title>Node3</title>
<g id="a_Node000003"><a xlink:href="Issue_8hpp.html" target="_top" xlink:title=" ">
<polygon fill="white" stroke="#666666" points="515.25,-262.75 440.75,-262.75 440.75,-243.5 515.25,-243.5 515.25,-262.75"/>
<text text-anchor="middle" x="478" y="-249.25" font-family="Helvetica,sans-Serif" font-size="10.00">ers/Issue.hpp</text>
</a>
</g>
</g>
<!-- Node1&#45;&gt;Node3 -->
<g id="edge39_Node000001_Node000003" class="edge">
<title>Node1&#45;&gt;Node3</title>
<g id="a_edge39_Node000001_Node000003"><a xlink:title=" ">
<path fill="none" stroke="#63b8ff" d="M1332.72,-364.78C1152.95,-341.5 679.81,-280.25 526.62,-260.42"/>
<polygon fill="#63b8ff" stroke="#63b8ff" points="527.17,-256.96 516.81,-259.15 526.28,-263.9 527.17,-256.96"/>
</a>
</g>
</g>
<!-- Node8 -->
<g id="Node000008" class="node">
<title>Node8</title>
<g id="a_Node000008"><a xlink:title=" ">
<polygon fill="#e0e0e0" stroke="#999999" points="172,-74.5 132,-74.5 132,-55.25 172,-55.25 172,-74.5"/>
<text text-anchor="middle" x="152" y="-61" font-family="Helvetica,sans-Serif" font-size="10.00">string</text>
</a>
</g>
</g>
<!-- Node1&#45;&gt;Node8 -->
<g id="edge48_Node000001_Node000008" class="edge">
<title>Node1&#45;&gt;Node8</title>
<g id="a_edge48_Node000001_Node000008"><a xlink:title=" ">
<path fill="none" stroke="#63b8ff" d="M1332.94,-371.61C1049.14,-361.97 0,-321.77 0,-254.12 0,-254.12 0,-254.12 0,-191.25 0,-129.26 76.17,-92.21 120.67,-75.85"/>
<polygon fill="#63b8ff" stroke="#63b8ff" points="121.8,-79.16 130.07,-72.55 119.48,-72.56 121.8,-79.16"/>
</a>
</g>
</g>
<!-- Node15 -->
<g id="Node000015" class="node">
<title>Node15</title>
<g id="a_Node000015"><a xlink:title=" ">
<polygon fill="#e0e0e0" stroke="#999999" points="338.5,-74.5 295.5,-74.5 295.5,-55.25 338.5,-55.25 338.5,-74.5"/>
<text text-anchor="middle" x="317" y="-61" font-family="Helvetica,sans-Serif" font-size="10.00">vector</text>
</a>
</g>
</g>
<!-- Node1&#45;&gt;Node15 -->
<g id="edge49_Node000001_Node000015" class="edge">
<title>Node1&#45;&gt;Node15</title>
<g id="a_edge49_Node000001_Node000015"><a xlink:title=" ">
<path fill="none" stroke="#63b8ff" d="M1403,-353.53C1403,-329.71 1403,-289.05 1403,-254.12 1403,-254.12 1403,-254.12 1403,-191.25 1403,-154.38 1412.49,-133.9 1384,-110.5 1340.53,-74.79 428,-79.87 372,-74.5 364.89,-73.82 357.3,-72.81 350.1,-71.72"/>
<polygon fill="#63b8ff" stroke="#63b8ff" points="350.79,-68.29 340.36,-70.16 349.68,-75.2 350.79,-68.29"/>
</a>
</g>
</g>
<!-- Node29 -->
<g id="Node000029" class="node">
<title>Node29</title>
<g id="a_Node000029"><a xlink:href="InfoCollector_8hpp.html" target="_top" xlink:title=" ">
<polygon fill="white" stroke="#666666" points="1561.38,-135.38 1430.62,-135.38 1430.62,-116.12 1561.38,-116.12 1561.38,-135.38"/>
<text text-anchor="middle" x="1496" y="-121.88" font-family="Helvetica,sans-Serif" font-size="10.00">opmonlib/InfoCollector.hpp</text>
</a>
</g>
</g>
<!-- Node1&#45;&gt;Node29 -->
<g id="edge40_Node000001_Node000029" class="edge">
<title>Node1&#45;&gt;Node29</title>
<g id="a_edge40_Node000001_Node000029"><a xlink:title=" ">
<path fill="none" stroke="#63b8ff" d="M1410.61,-353.65C1428.21,-306.88 1471.54,-191.74 1488.77,-145.97"/>
<polygon fill="#63b8ff" stroke="#63b8ff" points="1491.94,-147.47 1492.19,-136.87 1485.39,-145 1491.94,-147.47"/>
</a>
</g>
</g>
<!-- Node33 -->
<g id="Node000033" class="node">
<title>Node33</title>
<g id="a_Node000033"><a xlink:title=" ">
<polygon fill="#e0e0e0" stroke="#999999" points="1580.62,-318 1469.38,-318 1469.38,-298.75 1580.62,-298.75 1580.62,-318"/>
<text text-anchor="middle" x="1525" y="-304.5" font-family="Helvetica,sans-Serif" font-size="10.00">uhal/DerivedNode.hpp</text>
</a>
</g>
</g>
<!-- Node1&#45;&gt;Node33 -->
<g id="edge46_Node000001_Node000033" class="edge">
<title>Node1&#45;&gt;Node33</title>
<g id="a_edge46_Node000001_Node000033"><a xlink:title=" ">
<path fill="none" stroke="#63b8ff" d="M1441.27,-353.64C1459.61,-343.95 1481.15,-332.56 1497.8,-323.76"/>
<polygon fill="#63b8ff" stroke="#63b8ff" points="1499.4,-326.87 1506.6,-319.1 1496.13,-320.68 1499.4,-326.87"/>
</a>
</g>
</g>
<!-- Node34 -->
<g id="Node000034" class="node">
<title>Node34</title>
<g id="a_Node000034"><a xlink:title=" ">
<polygon fill="#e0e0e0" stroke="#999999" points="1735.38,-318 1598.62,-318 1598.62,-298.75 1735.38,-298.75 1735.38,-318"/>
<text text-anchor="middle" x="1667" y="-304.5" font-family="Helvetica,sans-Serif" font-size="10.00">boost/core/noncopyable.hpp</text>
</a>
</g>
</g>
<!-- Node1&#45;&gt;Node34 -->
<g id="edge47_Node000001_Node000034" class="edge">
<title>Node1&#45;&gt;Node34</title>
<g id="a_edge47_Node000001_Node000034"><a xlink:title=" ">
<path fill="none" stroke="#63b8ff" d="M1473.05,-356.76C1519.13,-345.5 1578.23,-331.06 1619.02,-321.1"/>
<polygon fill="#63b8ff" stroke="#63b8ff" points="1619.66,-324.54 1628.54,-318.77 1618,-317.74 1619.66,-324.54"/>
</a>
</g>
</g>
<!-- Node2&#45;&gt;Node3 -->
<g id="edge2_Node000002_Node000003" class="edge">
<title>Node2&#45;&gt;Node3</title>
<g id="a_edge2_Node000002_Node000003"><a xlink:title=" ">
<path fill="none" stroke="#63b8ff" d="M478,-298.58C478,-292.07 478,-282.92 478,-274.62"/>
<polygon fill="#63b8ff" stroke="#63b8ff" points="481.5,-274.62 478,-264.62 474.5,-274.62 481.5,-274.62"/>
</a>
</g>
</g>
<!-- Node2&#45;&gt;Node8 -->
<g id="edge38_Node000002_Node000008" class="edge">
<title>Node2&#45;&gt;Node8</title>
<g id="a_edge38_Node000002_Node000008"><a xlink:title=" ">
<path fill="none" stroke="#63b8ff" d="M431.26,-300.16C347.62,-286.22 177.64,-252.92 141,-207.5 112.57,-172.26 130.58,-114.71 143.04,-84.98"/>
<polygon fill="#63b8ff" stroke="#63b8ff" points="146.12,-86.68 146.97,-76.12 139.72,-83.84 146.12,-86.68"/>
</a>
</g>
</g>
<!-- Node4 -->
<g id="Node000004" class="node">
<title>Node4</title>
<g id="a_Node000004"><a xlink:title=" ">
<polygon fill="#e0e0e0" stroke="#999999" points="387.62,-201.88 342.38,-201.88 342.38,-182.62 387.62,-182.62 387.62,-201.88"/>
<text text-anchor="middle" x="365" y="-188.38" font-family="Helvetica,sans-Serif" font-size="10.00">math.h</text>
</a>
</g>
</g>
<!-- Node3&#45;&gt;Node4 -->
<g id="edge3_Node000003_Node000004" class="edge">
<title>Node3&#45;&gt;Node4</title>
<g id="a_edge3_Node000003_Node000004"><a xlink:title=" ">
<path fill="none" stroke="#63b8ff" d="M460.84,-243.18C442.67,-233.72 413.72,-218.64 392.39,-207.52"/>
<polygon fill="#63b8ff" stroke="#63b8ff" points="394.15,-204.49 383.67,-202.98 390.92,-210.7 394.15,-204.49"/>
</a>
</g>
</g>
<!-- Node5 -->
<g id="Node000005" class="node">
<title>Node5</title>
<g id="a_Node000005"><a xlink:title=" ">
<polygon fill="#e0e0e0" stroke="#999999" points="450.25,-201.88 405.75,-201.88 405.75,-182.62 450.25,-182.62 450.25,-201.88"/>
<text text-anchor="middle" x="428" y="-188.38" font-family="Helvetica,sans-Serif" font-size="10.00">stdio.h</text>
</a>
</g>
</g>
<!-- Node3&#45;&gt;Node5 -->
<g id="edge4_Node000003_Node000005" class="edge">
<title>Node3&#45;&gt;Node5</title>
<g id="a_edge4_Node000003_Node000005"><a xlink:title=" ">
<path fill="none" stroke="#63b8ff" d="M470.41,-243.18C463.14,-234.62 451.97,-221.48 442.92,-210.82"/>
<polygon fill="#63b8ff" stroke="#63b8ff" points="445.79,-208.79 436.65,-203.43 440.45,-213.32 445.79,-208.79"/>
</a>
</g>
</g>
<!-- Node6 -->
<g id="Node000006" class="node">
<title>Node6</title>
<g id="a_Node000006"><a xlink:title=" ">
<polygon fill="#e0e0e0" stroke="#999999" points="864.75,-201.88 817.25,-201.88 817.25,-182.62 864.75,-182.62 864.75,-201.88"/>
<text text-anchor="middle" x="841" y="-188.38" font-family="Helvetica,sans-Serif" font-size="10.00">string.h</text>
</a>
</g>
</g>
<!-- Node3&#45;&gt;Node6 -->
<g id="edge5_Node000003_Node000006" class="edge">
<title>Node3&#45;&gt;Node6</title>
<g id="a_edge5_Node000003_Node000006"><a xlink:title=" ">
<path fill="none" stroke="#63b8ff" d="M515.54,-250.38C577.48,-246.77 704.53,-236.25 808,-207.5 809.35,-207.12 810.72,-206.7 812.1,-206.25"/>
<polygon fill="#63b8ff" stroke="#63b8ff" points="812.96,-209.67 821.06,-202.84 810.47,-203.13 812.96,-209.67"/>
</a>
</g>
</g>
<!-- Node7 -->
<g id="Node000007" class="node">
<title>Node7</title>
<g id="a_Node000007"><a xlink:title=" ">
<polygon fill="#e0e0e0" stroke="#999999" points="420.38,-135.38 385.62,-135.38 385.62,-116.12 420.38,-116.12 420.38,-135.38"/>
<text text-anchor="middle" x="403" y="-121.88" font-family="Helvetica,sans-Serif" font-size="10.00">map</text>
</a>
</g>
</g>
<!-- Node3&#45;&gt;Node7 -->
<g id="edge6_Node000003_Node000007" class="edge">
<title>Node3&#45;&gt;Node7</title>
<g id="a_edge6_Node000003_Node000007"><a xlink:title=" ">
<path fill="none" stroke="#63b8ff" d="M477.42,-243.15C476.11,-228.37 471.94,-198.42 459,-177 450.77,-163.37 437.68,-151.33 426.23,-142.46"/>
<polygon fill="#63b8ff" stroke="#63b8ff" points="428.49,-139.77 418.35,-136.67 424.34,-145.41 428.49,-139.77"/>
</a>
</g>
</g>
<!-- Node3&#45;&gt;Node8 -->
<g id="edge7_Node000003_Node000008" class="edge">
<title>Node3&#45;&gt;Node8</title>
<g id="a_edge7_Node000003_Node000008"><a xlink:title=" ">
<path fill="none" stroke="#63b8ff" d="M440.28,-252.36C364.91,-251.97 199.71,-246.57 162,-207.5 130.56,-174.92 139.09,-116.18 146.42,-85.59"/>
<polygon fill="#63b8ff" stroke="#63b8ff" points="149.74,-86.72 148.89,-76.16 142.97,-84.95 149.74,-86.72"/>
</a>
</g>
</g>
<!-- Node9 -->
<g id="Node000009" class="node">
<title>Node9</title>
<g id="a_Node000009"><a xlink:title=" ">
<polygon fill="#e0e0e0" stroke="#999999" points="387.75,-19.25 334.25,-19.25 334.25,0 387.75,0 387.75,-19.25"/>
<text text-anchor="middle" x="361" y="-5.75" font-family="Helvetica,sans-Serif" font-size="10.00">iostream</text>
</a>
</g>
</g>
<!-- Node3&#45;&gt;Node9 -->
<g id="edge8_Node000003_Node000009" class="edge">
<title>Node3&#45;&gt;Node9</title>
<g id="a_edge8_Node000003_Node000009"><a xlink:title=" ">
<path fill="none" stroke="#63b8ff" d="M440.31,-252.64C361.34,-252.89 182.37,-248.76 141,-207.5 92.75,-159.39 79.48,-107.68 123,-55.25 147.92,-25.23 261.83,-15.28 322.58,-12.08"/>
<polygon fill="#63b8ff" stroke="#63b8ff" points="322.65,-15.58 332.47,-11.6 322.31,-8.59 322.65,-15.58"/>
</a>
</g>
</g>
<!-- Node10 -->
<g id="Node000010" class="node">
<title>Node10</title>
<g id="a_Node000010"><a xlink:title=" ">
<polygon fill="#e0e0e0" stroke="#999999" points="557.62,-201.88 506.38,-201.88 506.38,-182.62 557.62,-182.62 557.62,-201.88"/>
<text text-anchor="middle" x="532" y="-188.38" font-family="Helvetica,sans-Serif" font-size="10.00">sstream</text>
</a>
</g>
</g>
<!-- Node3&#45;&gt;Node10 -->
<g id="edge9_Node000003_Node000010" class="edge">
<title>Node3&#45;&gt;Node10</title>
<g id="a_edge9_Node000003_Node000010"><a xlink:title=" ">
<path fill="none" stroke="#63b8ff" d="M486.2,-243.18C494.13,-234.54 506.35,-221.21 516.18,-210.5"/>
<polygon fill="#63b8ff" stroke="#63b8ff" points="518.52,-213.13 522.7,-203.39 513.36,-208.4 518.52,-213.13"/>
</a>
</g>
</g>
<!-- Node11 -->
<g id="Node000011" class="node">
<title>Node11</title>
<g id="a_Node000011"><a xlink:title=" ">
<polygon fill="#e0e0e0" stroke="#999999" points="626.25,-201.88 575.75,-201.88 575.75,-182.62 626.25,-182.62 626.25,-201.88"/>
<text text-anchor="middle" x="601" y="-188.38" font-family="Helvetica,sans-Serif" font-size="10.00">memory</text>
</a>
</g>
</g>
<!-- Node3&#45;&gt;Node11 -->
<g id="edge10_Node000003_Node000011" class="edge">
<title>Node3&#45;&gt;Node11</title>
<g id="a_edge10_Node000003_Node000011"><a xlink:title=" ">
<path fill="none" stroke="#63b8ff" d="M496.95,-243.05C516.96,-233.48 548.76,-218.25 571.95,-207.16"/>
<polygon fill="#63b8ff" stroke="#63b8ff" points="573.36,-210.36 580.87,-202.89 570.33,-204.05 573.36,-210.36"/>
</a>
</g>
</g>
<!-- Node12 -->
<g id="Node000012" class="node">
<title>Node12</title>
<g id="a_Node000012"><a xlink:title=" ">
<polygon fill="#e0e0e0" stroke="#999999" points="367.62,-135.38 322.38,-135.38 322.38,-116.12 367.62,-116.12 367.62,-135.38"/>
<text text-anchor="middle" x="345" y="-121.88" font-family="Helvetica,sans-Serif" font-size="10.00">chrono</text>
</a>
</g>
</g>
<!-- Node3&#45;&gt;Node12 -->
<g id="edge11_Node000003_Node000012" class="edge">
<title>Node3&#45;&gt;Node12</title>
<g id="a_edge11_Node000003_Node000012"><a xlink:title=" ">
<path fill="none" stroke="#63b8ff" d="M440.41,-252.17C406.23,-249.95 357.49,-240.66 333,-207.5 319.88,-189.73 327.18,-163.67 334.9,-145.99"/>
<polygon fill="#63b8ff" stroke="#63b8ff" points="337.99,-147.66 339.17,-137.13 331.68,-144.62 337.99,-147.66"/>
</a>
</g>
</g>
<!-- Node13 -->
<g id="Node000013" class="node">
<title>Node13</title>
<g id="a_Node000013"><a xlink:title=" ">
<polygon fill="#e0e0e0" stroke="#999999" points="673.4,-201.88 644.6,-201.88 644.6,-182.62 673.4,-182.62 673.4,-201.88"/>
<text text-anchor="middle" x="659" y="-188.38" font-family="Helvetica,sans-Serif" font-size="10.00">list</text>
</a>
</g>
</g>
<!-- Node3&#45;&gt;Node13 -->
<g id="edge12_Node000003_Node000013" class="edge">
<title>Node3&#45;&gt;Node13</title>
<g id="a_edge12_Node000003_Node000013"><a xlink:title=" ">
<path fill="none" stroke="#63b8ff" d="M515.73,-244.3C545.86,-237.42 589.08,-226.14 634.72,-206.84"/>
<polygon fill="#63b8ff" stroke="#63b8ff" points="635.95,-210.12 643.72,-202.92 633.15,-203.7 635.95,-210.12"/>
</a>
</g>
</g>
<!-- Node14 -->
<g id="Node000014" class="node">
<title>Node14</title>
<g id="a_Node000014"><a xlink:href="IssueFactory_8hpp.html" target="_top" xlink:title=" ">
<polygon fill="white" stroke="#666666" points="286.38,-201.88 179.62,-201.88 179.62,-182.62 286.38,-182.62 286.38,-201.88"/>
<text text-anchor="middle" x="233" y="-188.38" font-family="Helvetica,sans-Serif" font-size="10.00">ers/IssueFactory.hpp</text>
</a>
</g>
</g>
<!-- Node3&#45;&gt;Node14 -->
<g id="edge13_Node000003_Node000014" class="edge">
<title>Node3&#45;&gt;Node14</title>
<g id="a_edge13_Node000003_Node000014"><a xlink:title=" ">
<path fill="none" stroke="#63b8ff" d="M440.26,-243.05C397.72,-232.83 328.45,-216.19 281.83,-204.98"/>
<polygon fill="#63b8ff" stroke="#63b8ff" points="282.8,-201.62 272.26,-202.68 281.16,-208.42 282.8,-201.62"/>
</a>
</g>
</g>
<!-- Node16 -->
<g id="Node000016" class="node">
<title>Node16</title>
<g id="a_Node000016"><a xlink:href="Severity_8hpp.html" target="_top" xlink:title=" ">
<polygon fill="white" stroke="#666666" points="265.88,-135.38 180.12,-135.38 180.12,-116.12 265.88,-116.12 265.88,-135.38"/>
<text text-anchor="middle" x="223" y="-121.88" font-family="Helvetica,sans-Serif" font-size="10.00">ers/Severity.hpp</text>
</a>
</g>
</g>
<!-- Node3&#45;&gt;Node16 -->
<g id="edge30_Node000003_Node000016" class="edge">
<title>Node3&#45;&gt;Node16</title>
<g id="a_edge30_Node000003_Node000016"><a xlink:title=" ">
<path fill="none" stroke="#63b8ff" d="M440.44,-252.5C366.32,-252.34 205.45,-247.31 171,-207.5 153.13,-186.85 179.41,-159.57 200.66,-142.6"/>
<polygon fill="#63b8ff" stroke="#63b8ff" points="202.56,-145.55 208.4,-136.71 198.32,-139.98 202.56,-145.55"/>
</a>
</g>
</g>
<!-- Node17 -->
<g id="Node000017" class="node">
<title>Node17</title>
<g id="a_Node000017"><a xlink:href="LocalContext_8hpp.html" target="_top" xlink:title=" ">
<polygon fill="white" stroke="#666666" points="798.75,-201.88 691.25,-201.88 691.25,-182.62 798.75,-182.62 798.75,-201.88"/>
<text text-anchor="middle" x="745" y="-188.38" font-family="Helvetica,sans-Serif" font-size="10.00">ers/LocalContext.hpp</text>
</a>
</g>
</g>
<!-- Node3&#45;&gt;Node17 -->
<g id="edge22_Node000003_Node000017" class="edge">
<title>Node3&#45;&gt;Node17</title>
<g id="a_edge22_Node000003_Node000017"><a xlink:title=" ">
<path fill="none" stroke="#63b8ff" d="M515.62,-243.98C556.56,-235.09 623.96,-220.41 682,-207.5 685.84,-206.65 689.81,-205.76 693.8,-204.86"/>
<polygon fill="#63b8ff" stroke="#63b8ff" points="694.55,-208.28 703.54,-202.67 693.02,-201.45 694.55,-208.28"/>
</a>
</g>
</g>
<!-- Node22 -->
<g id="Node000022" class="node">
<title>Node22</title>
<g id="a_Node000022"><a xlink:href="IssueDeclarationMacro_8hpp.html" target="_top" xlink:title=" ">
<polygon fill="white" stroke="#666666" points="1043.88,-207.5 904.12,-207.5 904.12,-177 1043.88,-177 1043.88,-207.5"/>
<text text-anchor="start" x="912.12" y="-194" font-family="Helvetica,sans-Serif" font-size="10.00">ers/internal/IssueDeclaration</text>
<text text-anchor="middle" x="974" y="-182.75" font-family="Helvetica,sans-Serif" font-size="10.00">Macro.hpp</text>
</a>
</g>
</g>
<!-- Node3&#45;&gt;Node22 -->
<g id="edge31_Node000003_Node000022" class="edge">
<title>Node3&#45;&gt;Node22</title>
<g id="a_edge31_Node000003_Node000022"><a xlink:title=" ">
<path fill="none" stroke="#63b8ff" d="M515.72,-248.25C586.18,-240.92 742.58,-224.27 874,-207.5 880.03,-206.73 886.27,-205.91 892.54,-205.06"/>
<polygon fill="#63b8ff" stroke="#63b8ff" points="892.9,-208.54 902.33,-203.72 891.95,-201.61 892.9,-208.54"/>
</a>
</g>
</g>
<!-- Node14&#45;&gt;Node7 -->
<g id="edge17_Node000014_Node000007" class="edge">
<title>Node14&#45;&gt;Node7</title>
<g id="a_edge17_Node000014_Node000007"><a xlink:title=" ">
<path fill="none" stroke="#63b8ff" d="M263.63,-182.19C293.17,-173.06 338.9,-157.95 377,-141 377.11,-140.95 377.22,-140.9 377.33,-140.85"/>
<polygon fill="#63b8ff" stroke="#63b8ff" points="378.79,-144.03 386.18,-136.44 375.67,-137.77 378.79,-144.03"/>
</a>
</g>
</g>
<!-- Node14&#45;&gt;Node8 -->
<g id="edge15_Node000014_Node000008" class="edge">
<title>Node14&#45;&gt;Node8</title>
<g id="a_edge15_Node000014_Node000008"><a xlink:title=" ">
<path fill="none" stroke="#63b8ff" d="M216.79,-182.24C202.59,-173.51 182.49,-158.98 171,-141 160.37,-124.36 155.68,-102.11 153.62,-86.15"/>
<polygon fill="#63b8ff" stroke="#63b8ff" points="157.12,-86.02 152.62,-76.43 150.16,-86.74 157.12,-86.02"/>
</a>
</g>
</g>
<!-- Node14&#45;&gt;Node12 -->
<g id="edge14_Node000014_Node000012" class="edge">
<title>Node14&#45;&gt;Node12</title>
<g id="a_edge14_Node000014_Node000012"><a xlink:title=" ">
<path fill="none" stroke="#63b8ff" d="M248.57,-182.28C266.86,-171.75 297.46,-154.13 319.28,-141.56"/>
<polygon fill="#63b8ff" stroke="#63b8ff" points="320.97,-144.63 327.89,-136.61 317.47,-138.56 320.97,-144.63"/>
</a>
</g>
</g>
<!-- Node14&#45;&gt;Node15 -->
<g id="edge16_Node000014_Node000015" class="edge">
<title>Node14&#45;&gt;Node15</title>
<g id="a_edge16_Node000014_Node000015"><a xlink:title=" ">
<path fill="none" stroke="#63b8ff" d="M241.28,-182.4C250.16,-172.66 264.43,-156.36 275,-141 287.55,-122.78 299.63,-100.5 307.59,-84.96"/>
<polygon fill="#63b8ff" stroke="#63b8ff" points="310.56,-86.84 311.92,-76.34 304.3,-83.7 310.56,-86.84"/>
</a>
</g>
</g>
<!-- Node14&#45;&gt;Node16 -->
<g id="edge18_Node000014_Node000016" class="edge">
<title>Node14&#45;&gt;Node16</title>
<g id="a_edge18_Node000014_Node000016"><a xlink:title=" ">
<path fill="none" stroke="#63b8ff" d="M231.61,-182.28C230.19,-173.14 227.94,-158.64 226.1,-146.75"/>
<polygon fill="#63b8ff" stroke="#63b8ff" points="229.6,-146.48 224.61,-137.14 222.68,-147.56 229.6,-146.48"/>
</a>
</g>
</g>
<!-- Node16&#45;&gt;Node8 -->
<g id="edge19_Node000016_Node000008" class="edge">
<title>Node16&#45;&gt;Node8</title>
<g id="a_edge19_Node000016_Node000008"><a xlink:title=" ">
<path fill="none" stroke="#63b8ff" d="M212.22,-115.81C201.48,-106.9 184.75,-93.03 171.65,-82.17"/>
<polygon fill="#63b8ff" stroke="#63b8ff" points="173.98,-79.56 164.05,-75.87 169.51,-84.94 173.98,-79.56"/>
</a>
</g>
</g>
<!-- Node16&#45;&gt;Node9 -->
<g id="edge21_Node000016_Node000009" class="edge">
<title>Node16&#45;&gt;Node9</title>
<g id="a_edge21_Node000016_Node000009"><a xlink:title=" ">
<path fill="none" stroke="#63b8ff" d="M229.64,-115.85C240.41,-101.83 262.81,-74.22 286,-55.25 300.25,-43.59 317.87,-32.95 332.45,-24.98"/>
<polygon fill="#63b8ff" stroke="#63b8ff" points="333.91,-28.17 341.1,-20.39 330.63,-21.99 333.91,-28.17"/>
</a>
</g>
</g>
<!-- Node16&#45;&gt;Node15 -->
<g id="edge20_Node000016_Node000015" class="edge">
<title>Node16&#45;&gt;Node15</title>
<g id="a_edge20_Node000016_Node000015"><a xlink:title=" ">
<path fill="none" stroke="#63b8ff" d="M237.28,-115.81C252.05,-106.56 275.37,-91.95 292.99,-80.92"/>
<polygon fill="#63b8ff" stroke="#63b8ff" points="294.69,-83.98 301.31,-75.7 290.97,-78.05 294.69,-83.98"/>
</a>
</g>
</g>
<!-- Node18 -->
<g id="Node000018" class="node">
<title>Node18</title>
<g id="a_Node000018"><a xlink:title=" ">
<polygon fill="#e0e0e0" stroke="#999999" points="604.38,-135.38 539.62,-135.38 539.62,-116.12 604.38,-116.12 604.38,-135.38"/>
<text text-anchor="middle" x="572" y="-121.88" font-family="Helvetica,sans-Serif" font-size="10.00">sys/types.h</text>
</a>
</g>
</g>
<!-- Node17&#45;&gt;Node18 -->
<g id="edge23_Node000017_Node000018" class="edge">
<title>Node17&#45;&gt;Node18</title>
<g id="a_edge23_Node000017_Node000018"><a xlink:title=" ">
<path fill="none" stroke="#63b8ff" d="M720.58,-182.15C690.96,-171.1 640.8,-152.4 607.06,-139.82"/>
<polygon fill="#63b8ff" stroke="#63b8ff" points="608.31,-136.55 597.71,-136.34 605.86,-143.11 608.31,-136.55"/>
</a>
</g>
</g>
<!-- Node19 -->
<g id="Node000019" class="node">
<title>Node19</title>
<g id="a_Node000019"><a xlink:title=" ">
<polygon fill="#e0e0e0" stroke="#999999" points="671.88,-135.38 622.12,-135.38 622.12,-116.12 671.88,-116.12 671.88,-135.38"/>
<text text-anchor="middle" x="647" y="-121.88" font-family="Helvetica,sans-Serif" font-size="10.00">unistd.h</text>
</a>
</g>
</g>
<!-- Node17&#45;&gt;Node19 -->
<g id="edge24_Node000017_Node000019" class="edge">
<title>Node17&#45;&gt;Node19</title>
<g id="a_edge24_Node000017_Node000019"><a xlink:title=" ">
<path fill="none" stroke="#63b8ff" d="M731.37,-182.28C715.59,-171.89 689.33,-154.61 670.29,-142.08"/>
<polygon fill="#63b8ff" stroke="#63b8ff" points="672.37,-139.26 662.09,-136.68 668.52,-145.1 672.37,-139.26"/>
</a>
</g>
</g>
<!-- Node20 -->
<g id="Node000020" class="node">
<title>Node20</title>
<g id="a_Node000020"><a xlink:href="Context_8hpp.html" target="_top" xlink:title=" ">
<polygon fill="white" stroke="#666666" points="521.75,-135.38 438.25,-135.38 438.25,-116.12 521.75,-116.12 521.75,-135.38"/>
<text text-anchor="middle" x="480" y="-121.88" font-family="Helvetica,sans-Serif" font-size="10.00">ers/Context.hpp</text>
</a>
</g>
</g>
<!-- Node17&#45;&gt;Node20 -->
<g id="edge25_Node000017_Node000020" class="edge">
<title>Node17&#45;&gt;Node20</title>
<g id="a_edge25_Node000017_Node000020"><a xlink:title=" ">
<path fill="none" stroke="#63b8ff" d="M705.34,-182.15C652.98,-170.09 563.62,-149.38 531,-141 528.27,-140.3 525.47,-139.56 522.64,-138.81"/>
<polygon fill="#63b8ff" stroke="#63b8ff" points="523.8,-135.5 513.24,-136.25 521.97,-142.25 523.8,-135.5"/>
</a>
</g>
</g>
<!-- Node20&#45;&gt;Node8 -->
<g id="edge26_Node000020_Node000008" class="edge">
<title>Node20&#45;&gt;Node8</title>
<g id="a_edge26_Node000020_Node000008"><a xlink:title=" ">
<path fill="none" stroke="#63b8ff" d="M449.67,-115.67C442.9,-113.81 435.73,-111.98 429,-110.5 340.91,-91.16 235.34,-76.45 183.66,-69.79"/>
<polygon fill="#63b8ff" stroke="#63b8ff" points="184.17,-66.33 173.81,-68.54 183.29,-73.27 184.17,-66.33"/>
</a>
</g>
</g>
<!-- Node20&#45;&gt;Node15 -->
<g id="edge27_Node000020_Node000015" class="edge">
<title>Node20&#45;&gt;Node15</title>
<g id="a_edge27_Node000020_Node000015"><a xlink:title=" ">
<path fill="none" stroke="#63b8ff" d="M454.89,-115.68C426.57,-105.45 380.45,-88.79 349.43,-77.59"/>
<polygon fill="#63b8ff" stroke="#63b8ff" points="350.77,-74.35 340.17,-74.24 348.39,-80.93 350.77,-74.35"/>
</a>
</g>
</g>
<!-- Node21 -->
<g id="Node000021" class="node">
<title>Node21</title>
<g id="a_Node000021"><a xlink:href="ers_2include_2ers_2Configuration_8hpp.html" target="_top" xlink:title=" ">
<polygon fill="white" stroke="#666666" points="487.38,-74.5 380.62,-74.5 380.62,-55.25 487.38,-55.25 487.38,-74.5"/>
<text text-anchor="middle" x="434" y="-61" font-family="Helvetica,sans-Serif" font-size="10.00">ers/Configuration.hpp</text>
</a>
</g>
</g>
<!-- Node20&#45;&gt;Node21 -->
<g id="edge28_Node000020_Node000021" class="edge">
<title>Node20&#45;&gt;Node21</title>
<g id="a_edge28_Node000020_Node000021"><a xlink:title=" ">
<path fill="none" stroke="#63b8ff" d="M473.01,-115.81C466.39,-107.34 456.26,-94.37 447.98,-83.77"/>
<polygon fill="#63b8ff" stroke="#63b8ff" points="450.9,-81.82 441.98,-76.09 445.38,-86.13 450.9,-81.82"/>
</a>
</g>
</g>
<!-- Node21&#45;&gt;Node9 -->
<g id="edge29_Node000021_Node000009" class="edge">
<title>Node21&#45;&gt;Node9</title>
<g id="a_edge29_Node000021_Node000009"><a xlink:title=" ">
<path fill="none" stroke="#63b8ff" d="M421.62,-54.84C410.85,-46.99 395.03,-35.45 382.25,-26.12"/>
<polygon fill="#63b8ff" stroke="#63b8ff" points="384.56,-23.48 374.42,-20.42 380.44,-29.14 384.56,-23.48"/>
</a>
</g>
</g>
<!-- Node23 -->
<g id="Node000023" class="node">
<title>Node23</title>
<g id="a_Node000023"><a xlink:title=" ">
<polygon fill="#e0e0e0" stroke="#999999" points="789.62,-141 690.38,-141 690.38,-110.5 789.62,-110.5 789.62,-141"/>
<text text-anchor="start" x="698.38" y="-127.5" font-family="Helvetica,sans-Serif" font-size="10.00">boost/preprocessor</text>
<text text-anchor="middle" x="740" y="-116.25" font-family="Helvetica,sans-Serif" font-size="10.00">/if.hpp</text>
</a>
</g>
</g>
<!-- Node22&#45;&gt;Node23 -->
<g id="edge32_Node000022_Node000023" class="edge">
<title>Node22&#45;&gt;Node23</title>
<g id="a_edge32_Node000022_Node000023"><a xlink:title=" ">
<path fill="none" stroke="#63b8ff" d="M920.61,-176.53C884.88,-166.69 837.79,-153.7 800.65,-143.47"/>
<polygon fill="#63b8ff" stroke="#63b8ff" points="801.99,-140.21 791.42,-140.92 800.13,-146.95 801.99,-140.21"/>
</a>
</g>
</g>
<!-- Node24 -->
<g id="Node000024" class="node">
<title>Node24</title>
<g id="a_Node000024"><a xlink:title=" ">
<polygon fill="#e0e0e0" stroke="#999999" points="906.62,-141 807.38,-141 807.38,-110.5 906.62,-110.5 906.62,-141"/>
<text text-anchor="start" x="815.38" y="-127.5" font-family="Helvetica,sans-Serif" font-size="10.00">boost/preprocessor</text>
<text text-anchor="middle" x="857" y="-116.25" font-family="Helvetica,sans-Serif" font-size="10.00">/seq.hpp</text>
</a>
</g>
</g>
<!-- Node22&#45;&gt;Node24 -->
<g id="edge33_Node000022_Node000024" class="edge">
<title>Node22&#45;&gt;Node24</title>
<g id="a_edge33_Node000022_Node000024"><a xlink:title=" ">
<path fill="none" stroke="#63b8ff" d="M947.45,-176.61C931.44,-167.79 910.83,-156.43 893.33,-146.78"/>
<polygon fill="#63b8ff" stroke="#63b8ff" points="895.22,-143.82 884.77,-142.06 891.84,-149.95 895.22,-143.82"/>
</a>
</g>
</g>
<!-- Node25 -->
<g id="Node000025" class="node">
<title>Node25</title>
<g id="a_Node000025"><a xlink:title=" ">
<polygon fill="#e0e0e0" stroke="#999999" points="1023.62,-141 924.38,-141 924.38,-110.5 1023.62,-110.5 1023.62,-141"/>
<text text-anchor="start" x="932.38" y="-127.5" font-family="Helvetica,sans-Serif" font-size="10.00">boost/preprocessor</text>
<text text-anchor="middle" x="974" y="-116.25" font-family="Helvetica,sans-Serif" font-size="10.00">/tuple.hpp</text>
</a>
</g>
</g>
<!-- Node22&#45;&gt;Node25 -->
<g id="edge34_Node000022_Node000025" class="edge">
<title>Node22&#45;&gt;Node25</title>
<g id="a_edge34_Node000022_Node000025"><a xlink:title=" ">
<path fill="none" stroke="#63b8ff" d="M974,-176.61C974,-169.52 974,-160.79 974,-152.63"/>
<polygon fill="#63b8ff" stroke="#63b8ff" points="977.5,-152.84 974,-142.84 970.5,-152.84 977.5,-152.84"/>
</a>
</g>
</g>
<!-- Node26 -->
<g id="Node000026" class="node">
<title>Node26</title>
<g id="a_Node000026"><a xlink:title=" ">
<polygon fill="#e0e0e0" stroke="#999999" points="1140.62,-141 1041.38,-141 1041.38,-110.5 1140.62,-110.5 1140.62,-141"/>
<text text-anchor="start" x="1049.38" y="-127.5" font-family="Helvetica,sans-Serif" font-size="10.00">boost/preprocessor</text>
<text text-anchor="middle" x="1091" y="-116.25" font-family="Helvetica,sans-Serif" font-size="10.00">/logical.hpp</text>
</a>
</g>
</g>
<!-- Node22&#45;&gt;Node26 -->
<g id="edge35_Node000022_Node000026" class="edge">
<title>Node22&#45;&gt;Node26</title>
<g id="a_edge35_Node000022_Node000026"><a xlink:title=" ">
<path fill="none" stroke="#63b8ff" d="M1000.55,-176.61C1016.56,-167.79 1037.17,-156.43 1054.67,-146.78"/>
<polygon fill="#63b8ff" stroke="#63b8ff" points="1056.16,-149.95 1063.23,-142.06 1052.78,-143.82 1056.16,-149.95"/>
</a>
</g>
</g>
<!-- Node27 -->
<g id="Node000027" class="node">
<title>Node27</title>
<g id="a_Node000027"><a xlink:title=" ">
<polygon fill="#e0e0e0" stroke="#999999" points="1257.62,-141 1158.38,-141 1158.38,-110.5 1257.62,-110.5 1257.62,-141"/>
<text text-anchor="start" x="1166.38" y="-127.5" font-family="Helvetica,sans-Serif" font-size="10.00">boost/preprocessor</text>
<text text-anchor="middle" x="1208" y="-116.25" font-family="Helvetica,sans-Serif" font-size="10.00">/stringize.hpp</text>
</a>
</g>
</g>
<!-- Node22&#45;&gt;Node27 -->
<g id="edge36_Node000022_Node000027" class="edge">
<title>Node22&#45;&gt;Node27</title>
<g id="a_edge36_Node000022_Node000027"><a xlink:title=" ">
<path fill="none" stroke="#63b8ff" d="M1027.39,-176.53C1063.12,-166.69 1110.21,-153.7 1147.35,-143.47"/>
<polygon fill="#63b8ff" stroke="#63b8ff" points="1147.87,-146.95 1156.58,-140.92 1146.01,-140.21 1147.87,-146.95"/>
</a>
</g>
</g>
<!-- Node28 -->
<g id="Node000028" class="node">
<title>Node28</title>
<g id="a_Node000028"><a xlink:title=" ">
<polygon fill="#e0e0e0" stroke="#999999" points="1374.62,-141 1275.38,-141 1275.38,-110.5 1374.62,-110.5 1374.62,-141"/>
<text text-anchor="start" x="1283.38" y="-127.5" font-family="Helvetica,sans-Serif" font-size="10.00">boost/preprocessor</text>
<text text-anchor="middle" x="1325" y="-116.25" font-family="Helvetica,sans-Serif" font-size="10.00">/comparison.hpp</text>
</a>
</g>
</g>
<!-- Node22&#45;&gt;Node28 -->
<g id="edge37_Node000022_Node000028" class="edge">
<title>Node22&#45;&gt;Node28</title>
<g id="a_edge37_Node000022_Node000028"><a xlink:title=" ">
<path fill="none" stroke="#63b8ff" d="M1044.12,-180.66C1101.09,-171.73 1183.74,-158.03 1264.24,-141.5"/>
<polygon fill="#63b8ff" stroke="#63b8ff" points="1264.5,-145.02 1273.58,-139.56 1263.08,-138.17 1264.5,-145.02"/>
</a>
</g>
</g>
<!-- Node29&#45;&gt;Node8 -->
<g id="edge44_Node000029_Node000008" class="edge">
<title>Node29&#45;&gt;Node8</title>
<g id="a_edge44_Node000029_Node000008"><a xlink:title=" ">
<path fill="none" stroke="#63b8ff" d="M1432.73,-115.65C1416.85,-113.65 1399.83,-111.76 1384,-110.5 897.29,-71.64 773.69,-98.18 286,-74.5 250.91,-72.8 210.7,-70.11 183.55,-68.19"/>
<polygon fill="#63b8ff" stroke="#63b8ff" points="184.15,-64.72 173.93,-67.5 183.65,-71.7 184.15,-64.72"/>
</a>
</g>
</g>
<!-- Node29&#45;&gt;Node9 -->
<g id="edge43_Node000029_Node000009" class="edge">
<title>Node29&#45;&gt;Node9</title>
<g id="a_edge43_Node000029_Node000009"><a xlink:title=" ">
<path fill="none" stroke="#63b8ff" d="M1449.32,-115.66C1438.72,-113.78 1427.49,-111.94 1417,-110.5 1020.79,-56.13 536.86,-22.13 399.17,-13.07"/>
<polygon fill="#63b8ff" stroke="#63b8ff" points="399.74,-9.6 389.53,-12.44 399.28,-16.58 399.74,-9.6"/>
</a>
</g>
</g>
<!-- Node30 -->
<g id="Node000030" class="node">
<title>Node30</title>
<g id="a_Node000030"><a xlink:title=" ">
<polygon fill="#e0e0e0" stroke="#999999" points="1457.5,-74.5 1360.5,-74.5 1360.5,-55.25 1457.5,-55.25 1457.5,-74.5"/>
<text text-anchor="middle" x="1409" y="-61" font-family="Helvetica,sans-Serif" font-size="10.00">nlohmann/json.hpp</text>
</a>
</g>
</g>
<!-- Node29&#45;&gt;Node30 -->
<g id="edge41_Node000029_Node000030" class="edge">
<title>Node29&#45;&gt;Node30</title>
<g id="a_edge41_Node000029_Node000030"><a xlink:title=" ">
<path fill="none" stroke="#63b8ff" d="M1482.79,-115.81C1469.25,-106.64 1447.93,-92.22 1431.68,-81.23"/>
<polygon fill="#63b8ff" stroke="#63b8ff" points="1433.83,-78.46 1423.59,-75.75 1429.91,-84.25 1433.83,-78.46"/>
</a>
</g>
</g>
<!-- Node31 -->
<g id="Node000031" class="node">
<title>Node31</title>
<g id="a_Node000031"><a xlink:title=" ">
<polygon fill="#e0e0e0" stroke="#999999" points="1516,-74.5 1476,-74.5 1476,-55.25 1516,-55.25 1516,-74.5"/>
<text text-anchor="middle" x="1496" y="-61" font-family="Helvetica,sans-Serif" font-size="10.00">ctime</text>
</a>
</g>
</g>
<!-- Node29&#45;&gt;Node31 -->
<g id="edge42_Node000029_Node000031" class="edge">
<title>Node29&#45;&gt;Node31</title>
<g id="a_edge42_Node000029_Node000031"><a xlink:title=" ">
<path fill="none" stroke="#63b8ff" d="M1496,-115.81C1496,-108.03 1496,-96.45 1496,-86.41"/>
<polygon fill="#63b8ff" stroke="#63b8ff" points="1499.5,-86.41 1496,-76.41 1492.5,-86.41 1499.5,-86.41"/>
</a>
</g>
</g>
<!-- Node32 -->
<g id="Node000032" class="node">
<title>Node32</title>
<g id="a_Node000032"><a xlink:href="JSONTags_8hpp.html" target="_top" xlink:title=" ">
<polygon fill="white" stroke="#666666" points="1658.38,-74.5 1533.62,-74.5 1533.62,-55.25 1658.38,-55.25 1658.38,-74.5"/>
<text text-anchor="middle" x="1596" y="-61" font-family="Helvetica,sans-Serif" font-size="10.00">opmonlib/JSONTags.hpp</text>
</a>
</g>
</g>
<!-- Node29&#45;&gt;Node32 -->
<g id="edge45_Node000029_Node000032" class="edge">
<title>Node29&#45;&gt;Node32</title>
<g id="a_edge45_Node000029_Node000032"><a xlink:title=" ">
<path fill="none" stroke="#63b8ff" d="M1511.19,-115.81C1527.05,-106.47 1552.18,-91.67 1570.98,-80.61"/>
<polygon fill="#63b8ff" stroke="#63b8ff" points="1572.52,-83.76 1579.36,-75.67 1568.97,-77.73 1572.52,-83.76"/>
</a>
</g>
</g>
</g>
</svg>
