<?xml version="1.0" encoding="UTF-8" standalone="no"?>
<!DOCTYPE svg PUBLIC "-//W3C//DTD SVG 1.1//EN"
 "http://www.w3.org/Graphics/SVG/1.1/DTD/svg11.dtd">
<!-- Generated by graphviz version 9.0.0 (20230911.1827)
 -->
<!-- Title: /github/workspace/dev_area/sourcecode/timinglibs/include/timinglibs/TimingIssues.hpp Pages: 1 -->
<svg width="652pt" height="283pt"
 viewBox="0.00 0.00 651.88 283.00" xmlns="http://www.w3.org/2000/svg" xmlns:xlink="http://www.w3.org/1999/xlink">
<g id="graph0" class="graph" transform="scale(1 1) rotate(0) translate(4 279)">
<title>/github/workspace/dev_area/sourcecode/timinglibs/include/timinglibs/TimingIssues.hpp</title>
<!-- Node1 -->
<g id="Node000001" class="node">
<title>Node1</title>
<g id="a_Node000001"><a xlink:title=" ">
<polygon fill="#999999" stroke="#666666" points="372.5,-275 199,-275 199,-233.25 372.5,-233.25 372.5,-275"/>
<text text-anchor="start" x="207" y="-261.5" font-family="Helvetica,sans-Serif" font-size="10.00">/github/workspace/dev</text>
<text text-anchor="start" x="207" y="-250.25" font-family="Helvetica,sans-Serif" font-size="10.00">_area/sourcecode/timinglibs</text>
<text text-anchor="middle" x="285.75" y="-239" font-family="Helvetica,sans-Serif" font-size="10.00">/include/timinglibs/TimingIssues.hpp</text>
</a>
</g>
</g>
<!-- Node2 -->
<g id="Node000002" class="node">
<title>Node2</title>
<g id="a_Node000002"><a xlink:href="sourcecode_2timinglibs_2include_2timinglibs_2TimingController_8hpp.html" target="_top" xlink:title=" ">
<polygon fill="white" stroke="#666666" points="282.5,-197.25 97,-197.25 97,-155.5 282.5,-155.5 282.5,-197.25"/>
<text text-anchor="start" x="105" y="-183.75" font-family="Helvetica,sans-Serif" font-size="10.00">/github/workspace/dev</text>
<text text-anchor="start" x="105" y="-172.5" font-family="Helvetica,sans-Serif" font-size="10.00">_area/sourcecode/timinglibs</text>
<text text-anchor="middle" x="189.75" y="-161.25" font-family="Helvetica,sans-Serif" font-size="10.00">/include/timinglibs/TimingController.hpp</text>
</a>
</g>
</g>
<!-- Node1&#45;&gt;Node2 -->
<g id="edge1_Node000001_Node000002" class="edge">
<title>Node1&#45;&gt;Node2</title>
<g id="a_edge1_Node000001_Node000002"><a xlink:title=" ">
<path fill="none" stroke="#63b8ff" d="M251.29,-225.94C239.51,-216.64 226.53,-206.4 215.55,-197.73"/>
<polygon fill="#63b8ff" stroke="#63b8ff" points="248.82,-228.44 258.84,-231.89 253.15,-222.95 248.82,-228.44"/>
</a>
</g>
</g>
<!-- Node3 -->
<g id="Node000003" class="node">
<title>Node3</title>
<g id="a_Node000003"><a xlink:href="sourcecode_2timinglibs_2src_2TimingController_8cpp.html" target="_top" xlink:title=" ">
<polygon fill="white" stroke="#666666" points="137.5,-119.5 0,-119.5 0,-77.75 137.5,-77.75 137.5,-119.5"/>
<text text-anchor="start" x="8" y="-106" font-family="Helvetica,sans-Serif" font-size="10.00">/github/workspace/dev</text>
<text text-anchor="start" x="8" y="-94.75" font-family="Helvetica,sans-Serif" font-size="10.00">_area/sourcecode/timinglibs</text>
<text text-anchor="middle" x="68.75" y="-83.5" font-family="Helvetica,sans-Serif" font-size="10.00">/src/TimingController.cpp</text>
</a>
</g>
</g>
<!-- Node1&#45;&gt;Node3 -->
<g id="edge5_Node000001_Node000003" class="edge">
<title>Node1&#45;&gt;Node3</title>
<g id="a_edge5_Node000001_Node000003"><a xlink:title=" ">
<path fill="none" stroke="#63b8ff" d="M187.45,-246.66C151.44,-239.36 113.29,-225 87.75,-197.25 68.46,-176.29 66.14,-141.79 66.93,-119.92"/>
<polygon fill="#63b8ff" stroke="#63b8ff" points="186.59,-250.06 197.06,-248.43 187.86,-243.18 186.59,-250.06"/>
</a>
</g>
</g>
<!-- Node6 -->
<g id="Node000006" class="node">
<title>Node6</title>
<g id="a_Node000006"><a xlink:href="sourcecode_2timinglibs_2src_2TimingHardwareInterface_8cpp.html" target="_top" xlink:title=" ">
<polygon fill="white" stroke="#666666" points="463.25,-197.25 300.25,-197.25 300.25,-155.5 463.25,-155.5 463.25,-197.25"/>
<text text-anchor="start" x="308.25" y="-183.75" font-family="Helvetica,sans-Serif" font-size="10.00">/github/workspace/dev</text>
<text text-anchor="start" x="308.25" y="-172.5" font-family="Helvetica,sans-Serif" font-size="10.00">_area/sourcecode/timinglibs</text>
<text text-anchor="middle" x="381.75" y="-161.25" font-family="Helvetica,sans-Serif" font-size="10.00">/src/TimingHardwareInterface.cpp</text>
</a>
</g>
</g>
<!-- Node1&#45;&gt;Node6 -->
<g id="edge6_Node000001_Node000006" class="edge">
<title>Node1&#45;&gt;Node6</title>
<g id="a_edge6_Node000001_Node000006"><a xlink:title=" ">
<path fill="none" stroke="#63b8ff" d="M320.21,-225.94C331.99,-216.64 344.97,-206.4 355.95,-197.73"/>
<polygon fill="#63b8ff" stroke="#63b8ff" points="318.35,-222.95 312.66,-231.89 322.68,-228.44 318.35,-222.95"/>
</a>
</g>
</g>
<!-- Node7 -->
<g id="Node000007" class="node">
<title>Node7</title>
<g id="a_Node000007"><a xlink:href="sourcecode_2timinglibs_2src_2TimingHardwareManager_8hpp.html" target="_top" xlink:title=" ">
<polygon fill="white" stroke="#666666" points="643.88,-197.25 481.62,-197.25 481.62,-155.5 643.88,-155.5 643.88,-197.25"/>
<text text-anchor="start" x="489.62" y="-183.75" font-family="Helvetica,sans-Serif" font-size="10.00">/github/workspace/dev</text>
<text text-anchor="start" x="489.62" y="-172.5" font-family="Helvetica,sans-Serif" font-size="10.00">_area/sourcecode/timinglibs</text>
<text text-anchor="middle" x="562.75" y="-161.25" font-family="Helvetica,sans-Serif" font-size="10.00">/src/TimingHardwareManager.hpp</text>
</a>
</g>
</g>
<!-- Node1&#45;&gt;Node7 -->
<g id="edge7_Node000001_Node000007" class="edge">
<title>Node1&#45;&gt;Node7</title>
<g id="a_edge7_Node000001_Node000007"><a xlink:title=" ">
<path fill="none" stroke="#63b8ff" d="M370.9,-229.84C408.42,-219.58 452.11,-207.63 488.31,-197.73"/>
<polygon fill="#63b8ff" stroke="#63b8ff" points="370.16,-226.41 361.44,-232.43 372.01,-233.16 370.16,-226.41"/>
</a>
</g>
</g>
<!-- Node2&#45;&gt;Node3 -->
<g id="edge2_Node000002_Node000003" class="edge">
<title>Node2&#45;&gt;Node3</title>
<g id="a_edge2_Node000002_Node000003"><a xlink:title=" ">
<path fill="none" stroke="#63b8ff" d="M147.63,-149.01C132.43,-139.49 115.52,-128.9 101.27,-119.98"/>
<polygon fill="#63b8ff" stroke="#63b8ff" points="145.71,-151.93 156.04,-154.27 149.42,-146 145.71,-151.93"/>
</a>
</g>
</g>
<!-- Node4 -->
<g id="Node000004" class="node">
<title>Node4</title>
<g id="a_Node000004"><a xlink:href="sourcecode_2timinglibs_2src_2TimingMasterController_8hpp.html" target="_top" xlink:title=" ">
<polygon fill="white" stroke="#666666" points="309.75,-119.5 155.75,-119.5 155.75,-77.75 309.75,-77.75 309.75,-119.5"/>
<text text-anchor="start" x="163.75" y="-106" font-family="Helvetica,sans-Serif" font-size="10.00">/github/workspace/dev</text>
<text text-anchor="start" x="163.75" y="-94.75" font-family="Helvetica,sans-Serif" font-size="10.00">_area/sourcecode/timinglibs</text>
<text text-anchor="middle" x="232.75" y="-83.5" font-family="Helvetica,sans-Serif" font-size="10.00">/src/TimingMasterController.hpp</text>
</a>
</g>
</g>
<!-- Node2&#45;&gt;Node4 -->
<g id="edge3_Node000002_Node000004" class="edge">
<title>Node2&#45;&gt;Node4</title>
<g id="a_edge3_Node000002_Node000004"><a xlink:title=" ">
<path fill="none" stroke="#63b8ff" d="M206.91,-145.15C211.71,-136.7 216.81,-127.71 221.19,-119.98"/>
<polygon fill="#63b8ff" stroke="#63b8ff" points="203.91,-143.33 202.02,-153.76 210,-146.79 203.91,-143.33"/>
</a>
</g>
</g>
<!-- Node5 -->
<g id="Node000005" class="node">
<title>Node5</title>
<g id="a_Node000005"><a xlink:href="sourcecode_2timinglibs_2src_2TimingMasterController_8cpp.html" target="_top" xlink:title=" ">
<polygon fill="white" stroke="#666666" points="309.75,-41.75 155.75,-41.75 155.75,0 309.75,0 309.75,-41.75"/>
<text text-anchor="start" x="163.75" y="-28.25" font-family="Helvetica,sans-Serif" font-size="10.00">/github/workspace/dev</text>
<text text-anchor="start" x="163.75" y="-17" font-family="Helvetica,sans-Serif" font-size="10.00">_area/sourcecode/timinglibs</text>
<text text-anchor="middle" x="232.75" y="-5.75" font-family="Helvetica,sans-Serif" font-size="10.00">/src/TimingMasterController.cpp</text>
</a>
</g>
</g>
<!-- Node4&#45;&gt;Node5 -->
<g id="edge4_Node000004_Node000005" class="edge">
<title>Node4&#45;&gt;Node5</title>
<g id="a_edge4_Node000004_Node000005"><a xlink:title=" ">
<path fill="none" stroke="#63b8ff" d="M232.75,-66C232.75,-57.96 232.75,-49.54 232.75,-42.23"/>
<polygon fill="#63b8ff" stroke="#63b8ff" points="229.25,-65.81 232.75,-75.81 236.25,-65.81 229.25,-65.81"/>
</a>
</g>
</g>
<!-- Node8 -->
<g id="Node000008" class="node">
<title>Node8</title>
<g id="a_Node000008"><a xlink:href="sourcecode_2timinglibs_2src_2TimingHardwareManager_8cpp.html" target="_top" xlink:title=" ">
<polygon fill="white" stroke="#666666" points="643.88,-119.5 481.62,-119.5 481.62,-77.75 643.88,-77.75 643.88,-119.5"/>
<text text-anchor="start" x="489.62" y="-106" font-family="Helvetica,sans-Serif" font-size="10.00">/github/workspace/dev</text>
<text text-anchor="start" x="489.62" y="-94.75" font-family="Helvetica,sans-Serif" font-size="10.00">_area/sourcecode/timinglibs</text>
<text text-anchor="middle" x="562.75" y="-83.5" font-family="Helvetica,sans-Serif" font-size="10.00">/src/TimingHardwareManager.cpp</text>
</a>
</g>
</g>
<!-- Node7&#45;&gt;Node8 -->
<g id="edge8_Node000007_Node000008" class="edge">
<title>Node7&#45;&gt;Node8</title>
<g id="a_edge8_Node000007_Node000008"><a xlink:title=" ">
<path fill="none" stroke="#63b8ff" d="M562.75,-143.75C562.75,-135.71 562.75,-127.29 562.75,-119.98"/>
<polygon fill="#63b8ff" stroke="#63b8ff" points="559.25,-143.56 562.75,-153.56 566.25,-143.56 559.25,-143.56"/>
</a>
</g>
</g>
</g>
</svg>
