<?xml version="1.0" encoding="UTF-8" standalone="no"?>
<!DOCTYPE svg PUBLIC "-//W3C//DTD SVG 1.1//EN"
 "http://www.w3.org/Graphics/SVG/1.1/DTD/svg11.dtd">
<!-- Generated by graphviz version 9.0.0 (20230911.1827)
 -->
<!-- Title: /github/workspace/dev_area/build/appdal/codegen/include/appdal/StandaloneCandidateMaker.hpp Pages: 1 -->
<svg width="1262pt" height="228pt"
 viewBox="0.00 0.00 1262.25 227.75" xmlns="http://www.w3.org/2000/svg" xmlns:xlink="http://www.w3.org/1999/xlink">
<g id="graph0" class="graph" transform="scale(1 1) rotate(0) translate(4 223.75)">
<title>/github/workspace/dev_area/build/appdal/codegen/include/appdal/StandaloneCandidateMaker.hpp</title>
<!-- Node1 -->
<g id="Node000001" class="node">
<title>Node1</title>
<g id="a_Node000001"><a xlink:title=" ">
<polygon fill="#999999" stroke="#666666" points="707.12,-219.75 530.62,-219.75 530.62,-166.75 707.12,-166.75 707.12,-219.75"/>
<text text-anchor="start" x="538.62" y="-206.25" font-family="Helvetica,sans-Serif" font-size="10.00">/github/workspace/dev</text>
<text text-anchor="start" x="538.62" y="-195" font-family="Helvetica,sans-Serif" font-size="10.00">_area/build/appdal/codegen</text>
<text text-anchor="start" x="538.62" y="-183.75" font-family="Helvetica,sans-Serif" font-size="10.00">/include/appdal/StandaloneCandidate</text>
<text text-anchor="middle" x="618.88" y="-172.5" font-family="Helvetica,sans-Serif" font-size="10.00">Maker.hpp</text>
</a>
</g>
</g>
<!-- Node2 -->
<g id="Node000002" class="node">
<title>Node2</title>
<g id="a_Node000002"><a xlink:href="include_2appdal_2CustomTriggerCandidateMaker_8hpp.html" target="_top" xlink:title=" ">
<polygon fill="white" stroke="#666666" points="256.62,-130.75 65.12,-130.75 65.12,-77.75 256.62,-77.75 256.62,-130.75"/>
<text text-anchor="start" x="73.12" y="-117.25" font-family="Helvetica,sans-Serif" font-size="10.00">/github/workspace/dev</text>
<text text-anchor="start" x="73.12" y="-106" font-family="Helvetica,sans-Serif" font-size="10.00">_area/build/appdal/codegen</text>
<text text-anchor="start" x="73.12" y="-94.75" font-family="Helvetica,sans-Serif" font-size="10.00">/include/appdal/CustomTriggerCandidate</text>
<text text-anchor="middle" x="160.88" y="-83.5" font-family="Helvetica,sans-Serif" font-size="10.00">Maker.hpp</text>
</a>
</g>
</g>
<!-- Node1&#45;&gt;Node2 -->
<g id="edge1_Node000001_Node000002" class="edge">
<title>Node1&#45;&gt;Node2</title>
<g id="a_edge1_Node000001_Node000002"><a xlink:title=" ">
<path fill="none" stroke="#63b8ff" d="M519.34,-176.1C449.6,-164.43 354.33,-147.78 270.88,-130.75 266.36,-129.83 261.75,-128.86 257.1,-127.86"/>
<polygon fill="#63b8ff" stroke="#63b8ff" points="518.38,-179.48 528.82,-177.68 519.53,-172.58 518.38,-179.48"/>
</a>
</g>
</g>
<!-- Node4 -->
<g id="Node000004" class="node">
<title>Node4</title>
<g id="a_Node000004"><a xlink:href="dump__dunedaq____appdal_8cpp.html" target="_top" xlink:title=" ">
<polygon fill="white" stroke="#666666" points="364.12,-41.75 205.62,-41.75 205.62,0 364.12,0 364.12,-41.75"/>
<text text-anchor="start" x="213.62" y="-28.25" font-family="Helvetica,sans-Serif" font-size="10.00">/github/workspace/dev</text>
<text text-anchor="start" x="213.62" y="-17" font-family="Helvetica,sans-Serif" font-size="10.00">_area/build/appdal/codegen</text>
<text text-anchor="middle" x="284.88" y="-5.75" font-family="Helvetica,sans-Serif" font-size="10.00">/src/dump_dunedaq__appdal.cpp</text>
</a>
</g>
</g>
<!-- Node1&#45;&gt;Node4 -->
<g id="edge10_Node000001_Node000004" class="edge">
<title>Node1&#45;&gt;Node4</title>
<g id="a_edge10_Node000001_Node000004"><a xlink:title=" ">
<path fill="none" stroke="#63b8ff" d="M519.22,-184.96C438.48,-176.92 333.44,-160.92 303.88,-130.75 280.91,-107.32 280.15,-66.61 282.17,-42.16"/>
<polygon fill="#63b8ff" stroke="#63b8ff" points="518.65,-188.42 528.94,-185.9 519.32,-181.45 518.65,-188.42"/>
</a>
</g>
</g>
<!-- Node5 -->
<g id="Node000005" class="node">
<title>Node5</title>
<g id="a_Node000005"><a xlink:href="include_2appdal_2RandomTriggerCandidateMaker_8hpp.html" target="_top" xlink:title=" ">
<polygon fill="white" stroke="#666666" points="506.75,-130.75 313,-130.75 313,-77.75 506.75,-77.75 506.75,-130.75"/>
<text text-anchor="start" x="321" y="-117.25" font-family="Helvetica,sans-Serif" font-size="10.00">/github/workspace/dev</text>
<text text-anchor="start" x="321" y="-106" font-family="Helvetica,sans-Serif" font-size="10.00">_area/build/appdal/codegen</text>
<text text-anchor="start" x="321" y="-94.75" font-family="Helvetica,sans-Serif" font-size="10.00">/include/appdal/RandomTriggerCandidate</text>
<text text-anchor="middle" x="409.88" y="-83.5" font-family="Helvetica,sans-Serif" font-size="10.00">Maker.hpp</text>
</a>
</g>
</g>
<!-- Node1&#45;&gt;Node5 -->
<g id="edge4_Node000001_Node000005" class="edge">
<title>Node1&#45;&gt;Node5</title>
<g id="a_edge4_Node000001_Node000005"><a xlink:title=" ">
<path fill="none" stroke="#63b8ff" d="M545.92,-161.88C521.8,-151.84 495.21,-140.77 471.98,-131.1"/>
<polygon fill="#63b8ff" stroke="#63b8ff" points="544.48,-165.07 555.05,-165.68 547.17,-158.61 544.48,-165.07"/>
</a>
</g>
</g>
<!-- Node7 -->
<g id="Node000007" class="node">
<title>Node7</title>
<g id="a_Node000007"><a xlink:href="src_2CustomTriggerCandidateMaker_8hpp.html" target="_top" xlink:title=" ">
<polygon fill="white" stroke="#666666" points="712.75,-125.12 525,-125.12 525,-83.38 712.75,-83.38 712.75,-125.12"/>
<text text-anchor="start" x="533" y="-111.62" font-family="Helvetica,sans-Serif" font-size="10.00">/github/workspace/dev</text>
<text text-anchor="start" x="533" y="-100.38" font-family="Helvetica,sans-Serif" font-size="10.00">_area/build/appdal/codegen</text>
<text text-anchor="middle" x="618.88" y="-89.12" font-family="Helvetica,sans-Serif" font-size="10.00">/src/CustomTriggerCandidateMaker.hpp</text>
</a>
</g>
</g>
<!-- Node1&#45;&gt;Node7 -->
<g id="edge7_Node000001_Node000007" class="edge">
<title>Node1&#45;&gt;Node7</title>
<g id="a_edge7_Node000001_Node000007"><a xlink:title=" ">
<path fill="none" stroke="#63b8ff" d="M618.88,-155.38C618.88,-145.13 618.88,-134.37 618.88,-125.46"/>
<polygon fill="#63b8ff" stroke="#63b8ff" points="615.38,-155.1 618.88,-165.1 622.38,-155.1 615.38,-155.1"/>
</a>
</g>
</g>
<!-- Node8 -->
<g id="Node000008" class="node">
<title>Node8</title>
<g id="a_Node000008"><a xlink:href="src_2RandomTriggerCandidateMaker_8hpp.html" target="_top" xlink:title=" ">
<polygon fill="white" stroke="#666666" points="920.88,-125.12 730.88,-125.12 730.88,-83.38 920.88,-83.38 920.88,-125.12"/>
<text text-anchor="start" x="738.88" y="-111.62" font-family="Helvetica,sans-Serif" font-size="10.00">/github/workspace/dev</text>
<text text-anchor="start" x="738.88" y="-100.38" font-family="Helvetica,sans-Serif" font-size="10.00">_area/build/appdal/codegen</text>
<text text-anchor="middle" x="825.88" y="-89.12" font-family="Helvetica,sans-Serif" font-size="10.00">/src/RandomTriggerCandidateMaker.hpp</text>
</a>
</g>
</g>
<!-- Node1&#45;&gt;Node8 -->
<g id="edge8_Node000001_Node000008" class="edge">
<title>Node1&#45;&gt;Node8</title>
<g id="a_edge8_Node000001_Node000008"><a xlink:title=" ">
<path fill="none" stroke="#63b8ff" d="M691.06,-161.91C719.66,-149.89 751.79,-136.39 777.5,-125.58"/>
<polygon fill="#63b8ff" stroke="#63b8ff" points="689.96,-158.58 682.1,-165.68 692.67,-165.03 689.96,-158.58"/>
</a>
</g>
</g>
<!-- Node9 -->
<g id="Node000009" class="node">
<title>Node9</title>
<g id="a_Node000009"><a xlink:href="StandaloneCandidateMaker_8cpp.html" target="_top" xlink:title=" ">
<polygon fill="white" stroke="#666666" points="1111.25,-125.12 938.5,-125.12 938.5,-83.38 1111.25,-83.38 1111.25,-125.12"/>
<text text-anchor="start" x="946.5" y="-111.62" font-family="Helvetica,sans-Serif" font-size="10.00">/github/workspace/dev</text>
<text text-anchor="start" x="946.5" y="-100.38" font-family="Helvetica,sans-Serif" font-size="10.00">_area/build/appdal/codegen</text>
<text text-anchor="middle" x="1024.88" y="-89.12" font-family="Helvetica,sans-Serif" font-size="10.00">/src/StandaloneCandidateMaker.cpp</text>
</a>
</g>
</g>
<!-- Node1&#45;&gt;Node9 -->
<g id="edge9_Node000001_Node000009" class="edge">
<title>Node1&#45;&gt;Node9</title>
<g id="a_edge9_Node000001_Node000009"><a xlink:title=" ">
<path fill="none" stroke="#63b8ff" d="M718.55,-174.3C779.75,-162.84 859.6,-147.11 929.88,-130.75 936.78,-129.14 943.94,-127.39 951.09,-125.57"/>
<polygon fill="#63b8ff" stroke="#63b8ff" points="718.03,-170.84 708.84,-176.11 719.31,-177.72 718.03,-170.84"/>
</a>
</g>
</g>
<!-- Node10 -->
<g id="Node000010" class="node">
<title>Node10</title>
<g id="a_Node000010"><a xlink:href="sourcecode_2appdal_2src_2MLTApplication_8cpp.html" target="_top" xlink:title=" ">
<polygon fill="white" stroke="#666666" points="1254.25,-125.12 1129.5,-125.12 1129.5,-83.38 1254.25,-83.38 1254.25,-125.12"/>
<text text-anchor="start" x="1137.5" y="-111.62" font-family="Helvetica,sans-Serif" font-size="10.00">/github/workspace/dev</text>
<text text-anchor="start" x="1137.5" y="-100.38" font-family="Helvetica,sans-Serif" font-size="10.00">_area/sourcecode/appdal</text>
<text text-anchor="middle" x="1191.88" y="-89.12" font-family="Helvetica,sans-Serif" font-size="10.00">/src/MLTApplication.cpp</text>
</a>
</g>
</g>
<!-- Node1&#45;&gt;Node10 -->
<g id="edge11_Node000001_Node000010" class="edge">
<title>Node1&#45;&gt;Node10</title>
<g id="a_edge11_Node000001_Node000010"><a xlink:title=" ">
<path fill="none" stroke="#63b8ff" d="M718.44,-186.45C820.35,-179.02 982.78,-163.03 1119.88,-130.75 1126.07,-129.29 1132.47,-127.48 1138.79,-125.51"/>
<polygon fill="#63b8ff" stroke="#63b8ff" points="718.47,-182.94 708.74,-187.14 718.97,-189.92 718.47,-182.94"/>
</a>
</g>
</g>
<!-- Node3 -->
<g id="Node000003" class="node">
<title>Node3</title>
<g id="a_Node000003"><a xlink:href="CustomTriggerCandidateMaker_8cpp.html" target="_top" xlink:title=" ">
<polygon fill="white" stroke="#666666" points="187.75,-41.75 0,-41.75 0,0 187.75,0 187.75,-41.75"/>
<text text-anchor="start" x="8" y="-28.25" font-family="Helvetica,sans-Serif" font-size="10.00">/github/workspace/dev</text>
<text text-anchor="start" x="8" y="-17" font-family="Helvetica,sans-Serif" font-size="10.00">_area/build/appdal/codegen</text>
<text text-anchor="middle" x="93.88" y="-5.75" font-family="Helvetica,sans-Serif" font-size="10.00">/src/CustomTriggerCandidateMaker.cpp</text>
</a>
</g>
</g>
<!-- Node2&#45;&gt;Node3 -->
<g id="edge2_Node000002_Node000003" class="edge">
<title>Node2&#45;&gt;Node3</title>
<g id="a_edge2_Node000002_Node000003"><a xlink:title=" ">
<path fill="none" stroke="#63b8ff" d="M132.38,-68.64C124.91,-59.56 117.1,-50.08 110.48,-42.04"/>
<polygon fill="#63b8ff" stroke="#63b8ff" points="129.66,-70.84 138.71,-76.33 135.06,-66.39 129.66,-70.84"/>
</a>
</g>
</g>
<!-- Node2&#45;&gt;Node4 -->
<g id="edge3_Node000002_Node000004" class="edge">
<title>Node2&#45;&gt;Node4</title>
<g id="a_edge3_Node000002_Node000004"><a xlink:title=" ">
<path fill="none" stroke="#63b8ff" d="M210,-71.01C224.8,-61.3 240.64,-50.91 253.91,-42.19"/>
<polygon fill="#63b8ff" stroke="#63b8ff" points="208.16,-68.04 201.72,-76.45 212,-73.89 208.16,-68.04"/>
</a>
</g>
</g>
<!-- Node5&#45;&gt;Node4 -->
<g id="edge6_Node000005_Node000004" class="edge">
<title>Node5&#45;&gt;Node4</title>
<g id="a_edge6_Node000005_Node000004"><a xlink:title=" ">
<path fill="none" stroke="#63b8ff" d="M360.36,-71.01C345.43,-61.3 329.47,-50.91 316.09,-42.19"/>
<polygon fill="#63b8ff" stroke="#63b8ff" points="358.42,-73.93 368.71,-76.45 362.24,-68.06 358.42,-73.93"/>
</a>
</g>
</g>
<!-- Node6 -->
<g id="Node000006" class="node">
<title>Node6</title>
<g id="a_Node000006"><a xlink:href="RandomTriggerCandidateMaker_8cpp.html" target="_top" xlink:title=" ">
<polygon fill="white" stroke="#666666" points="571.88,-41.75 381.88,-41.75 381.88,0 571.88,0 571.88,-41.75"/>
<text text-anchor="start" x="389.88" y="-28.25" font-family="Helvetica,sans-Serif" font-size="10.00">/github/workspace/dev</text>
<text text-anchor="start" x="389.88" y="-17" font-family="Helvetica,sans-Serif" font-size="10.00">_area/build/appdal/codegen</text>
<text text-anchor="middle" x="476.88" y="-5.75" font-family="Helvetica,sans-Serif" font-size="10.00">/src/RandomTriggerCandidateMaker.cpp</text>
</a>
</g>
</g>
<!-- Node5&#45;&gt;Node6 -->
<g id="edge5_Node000005_Node000006" class="edge">
<title>Node5&#45;&gt;Node6</title>
<g id="a_edge5_Node000005_Node000006"><a xlink:title=" ">
<path fill="none" stroke="#63b8ff" d="M438.37,-68.64C445.84,-59.56 453.65,-50.08 460.27,-42.04"/>
<polygon fill="#63b8ff" stroke="#63b8ff" points="435.69,-66.39 432.04,-76.33 441.09,-70.84 435.69,-66.39"/>
</a>
</g>
</g>
</g>
</svg>
