<?xml version="1.0" encoding="UTF-8" standalone="no"?>
<!DOCTYPE svg PUBLIC "-//W3C//DTD SVG 1.1//EN"
 "http://www.w3.org/Graphics/SVG/1.1/DTD/svg11.dtd">
<!-- Generated by graphviz version 9.0.0 (20230911.1827)
 -->
<!-- Title: /github/workspace/dev_area/build/coredal/codegen/include/coredal/QueueWithId.hpp Pages: 1 -->
<svg width="542pt" height="139pt"
 viewBox="0.00 0.00 541.50 138.75" xmlns="http://www.w3.org/2000/svg" xmlns:xlink="http://www.w3.org/1999/xlink">
<g id="graph0" class="graph" transform="scale(1 1) rotate(0) translate(4 134.75)">
<title>/github/workspace/dev_area/build/coredal/codegen/include/coredal/QueueWithId.hpp</title>
<!-- Node1 -->
<g id="Node000001" class="node">
<title>Node1</title>
<g id="a_Node000001"><a xlink:title=" ">
<polygon fill="#999999" stroke="#666666" points="317.5,-130.75 156,-130.75 156,-89 317.5,-89 317.5,-130.75"/>
<text text-anchor="start" x="164" y="-117.25" font-family="Helvetica,sans-Serif" font-size="10.00">/github/workspace/dev</text>
<text text-anchor="start" x="164" y="-106" font-family="Helvetica,sans-Serif" font-size="10.00">_area/build/coredal/codegen</text>
<text text-anchor="middle" x="236.75" y="-94.75" font-family="Helvetica,sans-Serif" font-size="10.00">/include/coredal/QueueWithId.hpp</text>
</a>
</g>
</g>
<!-- Node2 -->
<g id="Node000002" class="node">
<title>Node2</title>
<g id="a_Node000002"><a xlink:href="QueueWithId_8cpp.html" target="_top" xlink:title=" ">
<polygon fill="white" stroke="#666666" points="137.5,-47.38 0,-47.38 0,-5.62 137.5,-5.62 137.5,-47.38"/>
<text text-anchor="start" x="8" y="-33.88" font-family="Helvetica,sans-Serif" font-size="10.00">/github/workspace/dev</text>
<text text-anchor="start" x="8" y="-22.62" font-family="Helvetica,sans-Serif" font-size="10.00">_area/build/coredal/codegen</text>
<text text-anchor="middle" x="68.75" y="-11.38" font-family="Helvetica,sans-Serif" font-size="10.00">/src/QueueWithId.cpp</text>
</a>
</g>
</g>
<!-- Node1&#45;&gt;Node2 -->
<g id="edge1_Node000001_Node000002" class="edge">
<title>Node1&#45;&gt;Node2</title>
<g id="a_edge1_Node000001_Node000002"><a xlink:title=" ">
<path fill="none" stroke="#63b8ff" d="M184.55,-83.59C160.82,-72.09 133.12,-58.68 110.76,-47.85"/>
<polygon fill="#63b8ff" stroke="#63b8ff" points="182.9,-86.68 193.43,-87.89 185.95,-80.38 182.9,-86.68"/>
</a>
</g>
</g>
<!-- Node3 -->
<g id="Node000003" class="node">
<title>Node3</title>
<g id="a_Node000003"><a xlink:href="dump__dunedaq____coredal_8cpp.html" target="_top" xlink:title=" ">
<polygon fill="white" stroke="#666666" points="317.5,-47.38 156,-47.38 156,-5.62 317.5,-5.62 317.5,-47.38"/>
<text text-anchor="start" x="164" y="-33.88" font-family="Helvetica,sans-Serif" font-size="10.00">/github/workspace/dev</text>
<text text-anchor="start" x="164" y="-22.62" font-family="Helvetica,sans-Serif" font-size="10.00">_area/build/coredal/codegen</text>
<text text-anchor="middle" x="236.75" y="-11.38" font-family="Helvetica,sans-Serif" font-size="10.00">/src/dump_dunedaq__coredal.cpp</text>
</a>
</g>
</g>
<!-- Node1&#45;&gt;Node3 -->
<g id="edge2_Node000001_Node000003" class="edge">
<title>Node1&#45;&gt;Node3</title>
<g id="a_edge2_Node000001_Node000003"><a xlink:title=" ">
<path fill="none" stroke="#63b8ff" d="M236.75,-77.52C236.75,-67.49 236.75,-56.67 236.75,-47.67"/>
<polygon fill="#63b8ff" stroke="#63b8ff" points="233.25,-77.25 236.75,-87.25 240.25,-77.25 233.25,-77.25"/>
</a>
</g>
</g>
<!-- Node4 -->
<g id="Node000004" class="node">
<title>Node4</title>
<g id="a_Node000004"><a xlink:href="FakeCardReaderBase_8hpp.html" target="_top" xlink:title=" ">
<polygon fill="white" stroke="#666666" points="533.5,-53 336,-53 336,0 533.5,0 533.5,-53"/>
<text text-anchor="start" x="344" y="-39.5" font-family="Helvetica,sans-Serif" font-size="10.00">/github/workspace/dev</text>
<text text-anchor="start" x="344" y="-28.25" font-family="Helvetica,sans-Serif" font-size="10.00">_area/sourcecode/readoutmodules</text>
<text text-anchor="start" x="344" y="-17" font-family="Helvetica,sans-Serif" font-size="10.00">/include/readoutmodules/FakeCardReader</text>
<text text-anchor="middle" x="434.75" y="-5.75" font-family="Helvetica,sans-Serif" font-size="10.00">Base.hpp</text>
</a>
</g>
</g>
<!-- Node1&#45;&gt;Node4 -->
<g id="edge3_Node000001_Node000004" class="edge">
<title>Node1&#45;&gt;Node4</title>
<g id="a_edge3_Node000001_Node000004"><a xlink:title=" ">
<path fill="none" stroke="#63b8ff" d="M296.82,-84.19C320.51,-74.45 347.74,-63.26 371.71,-53.41"/>
<polygon fill="#63b8ff" stroke="#63b8ff" points="295.52,-80.94 287.6,-87.98 298.18,-87.41 295.52,-80.94"/>
</a>
</g>
</g>
</g>
</svg>
