<?xml version="1.0" encoding="UTF-8" standalone="no"?>
<!DOCTYPE svg PUBLIC "-//W3C//DTD SVG 1.1//EN"
 "http://www.w3.org/Graphics/SVG/1.1/DTD/svg11.dtd">
<!-- Generated by graphviz version 9.0.0 (20230911.1827)
 -->
<!-- Title: /github/workspace/dev_area/build/coredal/codegen/include/coredal/ConnectionService.hpp Pages: 1 -->
<svg width="326pt" height="128pt"
 viewBox="0.00 0.00 325.50 127.50" xmlns="http://www.w3.org/2000/svg" xmlns:xlink="http://www.w3.org/1999/xlink">
<g id="graph0" class="graph" transform="scale(1 1) rotate(0) translate(4 123.5)">
<title>/github/workspace/dev_area/build/coredal/codegen/include/coredal/ConnectionService.hpp</title>
<!-- Node1 -->
<g id="Node000001" class="node">
<title>Node1</title>
<g id="a_Node000001"><a xlink:title=" ">
<polygon fill="#999999" stroke="#666666" points="246.25,-119.5 59.25,-119.5 59.25,-77.75 246.25,-77.75 246.25,-119.5"/>
<text text-anchor="start" x="67.25" y="-106" font-family="Helvetica,sans-Serif" font-size="10.00">/github/workspace/dev</text>
<text text-anchor="start" x="67.25" y="-94.75" font-family="Helvetica,sans-Serif" font-size="10.00">_area/build/coredal/codegen</text>
<text text-anchor="middle" x="152.75" y="-83.5" font-family="Helvetica,sans-Serif" font-size="10.00">/include/coredal/ConnectionService.hpp</text>
</a>
</g>
</g>
<!-- Node2 -->
<g id="Node000002" class="node">
<title>Node2</title>
<g id="a_Node000002"><a xlink:href="ConnectionService_8cpp.html" target="_top" xlink:title=" ">
<polygon fill="white" stroke="#666666" points="137.5,-41.75 0,-41.75 0,0 137.5,0 137.5,-41.75"/>
<text text-anchor="start" x="8" y="-28.25" font-family="Helvetica,sans-Serif" font-size="10.00">/github/workspace/dev</text>
<text text-anchor="start" x="8" y="-17" font-family="Helvetica,sans-Serif" font-size="10.00">_area/build/coredal/codegen</text>
<text text-anchor="middle" x="68.75" y="-5.75" font-family="Helvetica,sans-Serif" font-size="10.00">/src/ConnectionService.cpp</text>
</a>
</g>
</g>
<!-- Node1&#45;&gt;Node2 -->
<g id="edge1_Node000001_Node000002" class="edge">
<title>Node1&#45;&gt;Node2</title>
<g id="a_edge1_Node000001_Node000002"><a xlink:title=" ">
<path fill="none" stroke="#63b8ff" d="M121.99,-69.89C111.84,-60.73 100.75,-50.73 91.32,-42.23"/>
<polygon fill="#63b8ff" stroke="#63b8ff" points="119.35,-72.21 129.12,-76.31 124.03,-67.02 119.35,-72.21"/>
</a>
</g>
</g>
<!-- Node3 -->
<g id="Node000003" class="node">
<title>Node3</title>
<g id="a_Node000003"><a xlink:href="dump__dunedaq____coredal_8cpp.html" target="_top" xlink:title=" ">
<polygon fill="white" stroke="#666666" points="317.5,-41.75 156,-41.75 156,0 317.5,0 317.5,-41.75"/>
<text text-anchor="start" x="164" y="-28.25" font-family="Helvetica,sans-Serif" font-size="10.00">/github/workspace/dev</text>
<text text-anchor="start" x="164" y="-17" font-family="Helvetica,sans-Serif" font-size="10.00">_area/build/coredal/codegen</text>
<text text-anchor="middle" x="236.75" y="-5.75" font-family="Helvetica,sans-Serif" font-size="10.00">/src/dump_dunedaq__coredal.cpp</text>
</a>
</g>
</g>
<!-- Node1&#45;&gt;Node3 -->
<g id="edge2_Node000001_Node000003" class="edge">
<title>Node1&#45;&gt;Node3</title>
<g id="a_edge2_Node000001_Node000003"><a xlink:title=" ">
<path fill="none" stroke="#63b8ff" d="M183.51,-69.89C193.66,-60.73 204.75,-50.73 214.18,-42.23"/>
<polygon fill="#63b8ff" stroke="#63b8ff" points="181.47,-67.02 176.38,-76.31 186.15,-72.21 181.47,-67.02"/>
</a>
</g>
</g>
</g>
</svg>
