<?xml version="1.0" encoding="UTF-8" standalone="no"?>
<!DOCTYPE svg PUBLIC "-//W3C//DTD SVG 1.1//EN"
 "http://www.w3.org/Graphics/SVG/1.1/DTD/svg11.dtd">
<!-- Generated by graphviz version 9.0.0 (20230911.1827)
 -->
<!-- Title: /github/workspace/dev_area/build/coredal/codegen/include/coredal/StreamParameters.hpp Pages: 1 -->
<svg width="1542pt" height="217pt"
 viewBox="0.00 0.00 1541.88 216.50" xmlns="http://www.w3.org/2000/svg" xmlns:xlink="http://www.w3.org/1999/xlink">
<g id="graph0" class="graph" transform="scale(1 1) rotate(0) translate(4 212.5)">
<title>/github/workspace/dev_area/build/coredal/codegen/include/coredal/StreamParameters.hpp</title>
<!-- Node1 -->
<g id="Node000001" class="node">
<title>Node1</title>
<g id="a_Node000001"><a xlink:title=" ">
<polygon fill="#999999" stroke="#666666" points="895.62,-208.5 708.62,-208.5 708.62,-166.75 895.62,-166.75 895.62,-208.5"/>
<text text-anchor="start" x="716.62" y="-195" font-family="Helvetica,sans-Serif" font-size="10.00">/github/workspace/dev</text>
<text text-anchor="start" x="716.62" y="-183.75" font-family="Helvetica,sans-Serif" font-size="10.00">_area/build/coredal/codegen</text>
<text text-anchor="middle" x="802.12" y="-172.5" font-family="Helvetica,sans-Serif" font-size="10.00">/include/coredal/StreamParameters.hpp</text>
</a>
</g>
</g>
<!-- Node2 -->
<g id="Node000002" class="node">
<title>Node2</title>
<g id="a_Node000002"><a xlink:href="include_2appdal_2EthStreamParameters_8hpp.html" target="_top" xlink:title=" ">
<polygon fill="white" stroke="#666666" points="316.25,-125.12 118,-125.12 118,-83.38 316.25,-83.38 316.25,-125.12"/>
<text text-anchor="start" x="126" y="-111.62" font-family="Helvetica,sans-Serif" font-size="10.00">/github/workspace/dev</text>
<text text-anchor="start" x="126" y="-100.38" font-family="Helvetica,sans-Serif" font-size="10.00">_area/build/appdal/codegen</text>
<text text-anchor="middle" x="217.12" y="-89.12" font-family="Helvetica,sans-Serif" font-size="10.00">/include/appdal/EthStreamParameters.hpp</text>
</a>
</g>
</g>
<!-- Node1&#45;&gt;Node2 -->
<g id="edge1_Node000001_Node000002" class="edge">
<title>Node1&#45;&gt;Node2</title>
<g id="a_edge1_Node000001_Node000002"><a xlink:title=" ">
<path fill="none" stroke="#63b8ff" d="M697.16,-177.84C600.17,-168.88 452.3,-153.13 325.12,-130.75 316.59,-129.25 307.71,-127.48 298.89,-125.6"/>
<polygon fill="#63b8ff" stroke="#63b8ff" points="696.65,-181.3 706.93,-178.73 697.29,-174.33 696.65,-181.3"/>
</a>
</g>
</g>
<!-- Node5 -->
<g id="Node000005" class="node">
<title>Node5</title>
<g id="a_Node000005"><a xlink:href="IfaceWrapper_8cpp.html" target="_top" xlink:title=" ">
<polygon fill="white" stroke="#666666" points="132.25,-41.75 0,-41.75 0,0 132.25,0 132.25,-41.75"/>
<text text-anchor="start" x="8" y="-28.25" font-family="Helvetica,sans-Serif" font-size="10.00">/github/workspace/dev</text>
<text text-anchor="start" x="8" y="-17" font-family="Helvetica,sans-Serif" font-size="10.00">_area/sourcecode/dpdklibs</text>
<text text-anchor="middle" x="66.12" y="-5.75" font-family="Helvetica,sans-Serif" font-size="10.00">/src/IfaceWrapper.cpp</text>
</a>
</g>
</g>
<!-- Node1&#45;&gt;Node5 -->
<g id="edge13_Node000001_Node000005" class="edge">
<title>Node1&#45;&gt;Node5</title>
<g id="a_edge13_Node000001_Node000005"><a xlink:title=" ">
<path fill="none" stroke="#63b8ff" d="M696.67,-184.2C514.34,-179.11 155.18,-164.86 109.12,-130.75 80.87,-109.82 71.17,-67.46 67.84,-42.19"/>
<polygon fill="#63b8ff" stroke="#63b8ff" points="696.54,-187.7 706.63,-184.47 696.73,-180.7 696.54,-187.7"/>
</a>
</g>
</g>
<!-- Node6 -->
<g id="Node000006" class="node">
<title>Node6</title>
<g id="a_Node000006"><a xlink:href="include_2appdal_2FelixStreamParameters_8hpp.html" target="_top" xlink:title=" ">
<polygon fill="white" stroke="#666666" points="538.25,-125.12 334,-125.12 334,-83.38 538.25,-83.38 538.25,-125.12"/>
<text text-anchor="start" x="342" y="-111.62" font-family="Helvetica,sans-Serif" font-size="10.00">/github/workspace/dev</text>
<text text-anchor="start" x="342" y="-100.38" font-family="Helvetica,sans-Serif" font-size="10.00">_area/build/appdal/codegen</text>
<text text-anchor="middle" x="436.12" y="-89.12" font-family="Helvetica,sans-Serif" font-size="10.00">/include/appdal/FelixStreamParameters.hpp</text>
</a>
</g>
</g>
<!-- Node1&#45;&gt;Node6 -->
<g id="edge5_Node000001_Node000006" class="edge">
<title>Node1&#45;&gt;Node6</title>
<g id="a_edge5_Node000001_Node000006"><a xlink:title=" ">
<path fill="none" stroke="#63b8ff" d="M697.02,-163.84C650.99,-153.8 596.35,-141.8 547.12,-130.75 539.7,-129.08 531.99,-127.34 524.26,-125.58"/>
<polygon fill="#63b8ff" stroke="#63b8ff" points="696.22,-167.25 706.74,-165.96 697.71,-160.41 696.22,-167.25"/>
</a>
</g>
</g>
<!-- Node8 -->
<g id="Node000008" class="node">
<title>Node8</title>
<g id="a_Node000008"><a xlink:href="src_2EthStreamParameters_8hpp.html" target="_top" xlink:title=" ">
<polygon fill="white" stroke="#666666" points="705.88,-125.12 556.38,-125.12 556.38,-83.38 705.88,-83.38 705.88,-125.12"/>
<text text-anchor="start" x="564.38" y="-111.62" font-family="Helvetica,sans-Serif" font-size="10.00">/github/workspace/dev</text>
<text text-anchor="start" x="564.38" y="-100.38" font-family="Helvetica,sans-Serif" font-size="10.00">_area/build/appdal/codegen</text>
<text text-anchor="middle" x="631.12" y="-89.12" font-family="Helvetica,sans-Serif" font-size="10.00">/src/EthStreamParameters.hpp</text>
</a>
</g>
</g>
<!-- Node1&#45;&gt;Node8 -->
<g id="edge8_Node000001_Node000008" class="edge">
<title>Node1&#45;&gt;Node8</title>
<g id="a_edge8_Node000001_Node000008"><a xlink:title=" ">
<path fill="none" stroke="#63b8ff" d="M749.31,-161.49C725.09,-149.97 696.74,-136.48 673.88,-125.6"/>
<polygon fill="#63b8ff" stroke="#63b8ff" points="747.52,-164.51 758.05,-165.65 750.52,-158.19 747.52,-164.51"/>
</a>
</g>
</g>
<!-- Node9 -->
<g id="Node000009" class="node">
<title>Node9</title>
<g id="a_Node000009"><a xlink:href="src_2FelixStreamParameters_8hpp.html" target="_top" xlink:title=" ">
<polygon fill="white" stroke="#666666" points="879.88,-125.12 724.38,-125.12 724.38,-83.38 879.88,-83.38 879.88,-125.12"/>
<text text-anchor="start" x="732.38" y="-111.62" font-family="Helvetica,sans-Serif" font-size="10.00">/github/workspace/dev</text>
<text text-anchor="start" x="732.38" y="-100.38" font-family="Helvetica,sans-Serif" font-size="10.00">_area/build/appdal/codegen</text>
<text text-anchor="middle" x="802.12" y="-89.12" font-family="Helvetica,sans-Serif" font-size="10.00">/src/FelixStreamParameters.hpp</text>
</a>
</g>
</g>
<!-- Node1&#45;&gt;Node9 -->
<g id="edge9_Node000001_Node000009" class="edge">
<title>Node1&#45;&gt;Node9</title>
<g id="a_edge9_Node000001_Node000009"><a xlink:title=" ">
<path fill="none" stroke="#63b8ff" d="M802.12,-155.27C802.12,-145.24 802.12,-134.42 802.12,-125.42"/>
<polygon fill="#63b8ff" stroke="#63b8ff" points="798.63,-155 802.13,-165 805.63,-155 798.63,-155"/>
</a>
</g>
</g>
<!-- Node10 -->
<g id="Node000010" class="node">
<title>Node10</title>
<g id="a_Node000010"><a xlink:href="DROStreamConf_8cpp.html" target="_top" xlink:title=" ">
<polygon fill="white" stroke="#666666" points="1035.88,-125.12 898.38,-125.12 898.38,-83.38 1035.88,-83.38 1035.88,-125.12"/>
<text text-anchor="start" x="906.38" y="-111.62" font-family="Helvetica,sans-Serif" font-size="10.00">/github/workspace/dev</text>
<text text-anchor="start" x="906.38" y="-100.38" font-family="Helvetica,sans-Serif" font-size="10.00">_area/build/coredal/codegen</text>
<text text-anchor="middle" x="967.12" y="-89.12" font-family="Helvetica,sans-Serif" font-size="10.00">/src/DROStreamConf.cpp</text>
</a>
</g>
</g>
<!-- Node1&#45;&gt;Node10 -->
<g id="edge10_Node000001_Node000010" class="edge">
<title>Node1&#45;&gt;Node10</title>
<g id="a_edge10_Node000001_Node000010"><a xlink:title=" ">
<path fill="none" stroke="#63b8ff" d="M853.4,-161.34C876.7,-149.84 903.91,-136.43 925.87,-125.6"/>
<polygon fill="#63b8ff" stroke="#63b8ff" points="852.11,-158.07 844.69,-165.63 855.21,-164.35 852.11,-158.07"/>
</a>
</g>
</g>
<!-- Node11 -->
<g id="Node000011" class="node">
<title>Node11</title>
<g id="a_Node000011"><a xlink:href="StreamParameters_8cpp.html" target="_top" xlink:title=" ">
<polygon fill="white" stroke="#666666" points="1191.88,-125.12 1054.38,-125.12 1054.38,-83.38 1191.88,-83.38 1191.88,-125.12"/>
<text text-anchor="start" x="1062.38" y="-111.62" font-family="Helvetica,sans-Serif" font-size="10.00">/github/workspace/dev</text>
<text text-anchor="start" x="1062.38" y="-100.38" font-family="Helvetica,sans-Serif" font-size="10.00">_area/build/coredal/codegen</text>
<text text-anchor="middle" x="1123.12" y="-89.12" font-family="Helvetica,sans-Serif" font-size="10.00">/src/StreamParameters.cpp</text>
</a>
</g>
</g>
<!-- Node1&#45;&gt;Node11 -->
<g id="edge11_Node000001_Node000011" class="edge">
<title>Node1&#45;&gt;Node11</title>
<g id="a_edge11_Node000001_Node000011"><a xlink:title=" ">
<path fill="none" stroke="#63b8ff" d="M907.15,-164.64C950.14,-155.08 1000.23,-143.22 1045.12,-130.75 1050.89,-129.15 1056.86,-127.39 1062.82,-125.56"/>
<polygon fill="#63b8ff" stroke="#63b8ff" points="906.58,-161.18 897.57,-166.76 908.09,-168.02 906.58,-161.18"/>
</a>
</g>
</g>
<!-- Node12 -->
<g id="Node000012" class="node">
<title>Node12</title>
<g id="a_Node000012"><a xlink:href="dump__dunedaq____coredal_8cpp.html" target="_top" xlink:title=" ">
<polygon fill="white" stroke="#666666" points="1371.88,-125.12 1210.38,-125.12 1210.38,-83.38 1371.88,-83.38 1371.88,-125.12"/>
<text text-anchor="start" x="1218.38" y="-111.62" font-family="Helvetica,sans-Serif" font-size="10.00">/github/workspace/dev</text>
<text text-anchor="start" x="1218.38" y="-100.38" font-family="Helvetica,sans-Serif" font-size="10.00">_area/build/coredal/codegen</text>
<text text-anchor="middle" x="1291.12" y="-89.12" font-family="Helvetica,sans-Serif" font-size="10.00">/src/dump_dunedaq__coredal.cpp</text>
</a>
</g>
</g>
<!-- Node1&#45;&gt;Node12 -->
<g id="edge12_Node000001_Node000012" class="edge">
<title>Node1&#45;&gt;Node12</title>
<g id="a_edge12_Node000001_Node000012"><a xlink:title=" ">
<path fill="none" stroke="#63b8ff" d="M907.05,-175.91C987.92,-166.69 1102.25,-151.58 1201.12,-130.75 1208.28,-129.24 1215.69,-127.48 1223.06,-125.59"/>
<polygon fill="#63b8ff" stroke="#63b8ff" points="906.92,-172.4 897.37,-177 907.7,-179.36 906.92,-172.4"/>
</a>
</g>
</g>
<!-- Node13 -->
<g id="Node000013" class="node">
<title>Node13</title>
<g id="a_Node000013"><a xlink:href="SourceEmulatorModel_8hpp.html" target="_top" xlink:title=" ">
<polygon fill="white" stroke="#666666" points="1533.88,-130.75 1390.38,-130.75 1390.38,-77.75 1533.88,-77.75 1533.88,-130.75"/>
<text text-anchor="start" x="1398.38" y="-117.25" font-family="Helvetica,sans-Serif" font-size="10.00">/github/workspace/dev</text>
<text text-anchor="start" x="1398.38" y="-106" font-family="Helvetica,sans-Serif" font-size="10.00">_area/sourcecode/readoutlibs</text>
<text text-anchor="start" x="1398.38" y="-94.75" font-family="Helvetica,sans-Serif" font-size="10.00">/include/readoutlibs/models</text>
<text text-anchor="middle" x="1462.12" y="-83.5" font-family="Helvetica,sans-Serif" font-size="10.00">/SourceEmulatorModel.hpp</text>
</a>
</g>
</g>
<!-- Node1&#45;&gt;Node13 -->
<g id="edge14_Node000001_Node000013" class="edge">
<title>Node1&#45;&gt;Node13</title>
<g id="a_edge14_Node000001_Node000013"><a xlink:title=" ">
<path fill="none" stroke="#63b8ff" d="M907.43,-183.06C1024.21,-177.59 1217.71,-163.98 1381.12,-130.75 1384.01,-130.16 1386.95,-129.51 1389.9,-128.81"/>
<polygon fill="#63b8ff" stroke="#63b8ff" points="907.36,-179.56 897.53,-183.51 907.68,-186.55 907.36,-179.56"/>
</a>
</g>
</g>
<!-- Node3 -->
<g id="Node000003" class="node">
<title>Node3</title>
<g id="a_Node000003"><a xlink:href="EthStreamParameters_8cpp.html" target="_top" xlink:title=" ">
<polygon fill="white" stroke="#666666" points="299.88,-41.75 150.38,-41.75 150.38,0 299.88,0 299.88,-41.75"/>
<text text-anchor="start" x="158.38" y="-28.25" font-family="Helvetica,sans-Serif" font-size="10.00">/github/workspace/dev</text>
<text text-anchor="start" x="158.38" y="-17" font-family="Helvetica,sans-Serif" font-size="10.00">_area/build/appdal/codegen</text>
<text text-anchor="middle" x="225.12" y="-5.75" font-family="Helvetica,sans-Serif" font-size="10.00">/src/EthStreamParameters.cpp</text>
</a>
</g>
</g>
<!-- Node2&#45;&gt;Node3 -->
<g id="edge2_Node000002_Node000003" class="edge">
<title>Node2&#45;&gt;Node3</title>
<g id="a_edge2_Node000002_Node000003"><a xlink:title=" ">
<path fill="none" stroke="#63b8ff" d="M220.21,-71.89C221.19,-61.87 222.26,-51.05 223.14,-42.04"/>
<polygon fill="#63b8ff" stroke="#63b8ff" points="216.75,-71.33 219.25,-81.63 223.71,-72.02 216.75,-71.33"/>
</a>
</g>
</g>
<!-- Node4 -->
<g id="Node000004" class="node">
<title>Node4</title>
<g id="a_Node000004"><a xlink:href="dump__dunedaq____appdal_8cpp.html" target="_top" xlink:title=" ">
<polygon fill="white" stroke="#666666" points="476.38,-41.75 317.88,-41.75 317.88,0 476.38,0 476.38,-41.75"/>
<text text-anchor="start" x="325.88" y="-28.25" font-family="Helvetica,sans-Serif" font-size="10.00">/github/workspace/dev</text>
<text text-anchor="start" x="325.88" y="-17" font-family="Helvetica,sans-Serif" font-size="10.00">_area/build/appdal/codegen</text>
<text text-anchor="middle" x="397.12" y="-5.75" font-family="Helvetica,sans-Serif" font-size="10.00">/src/dump_dunedaq__appdal.cpp</text>
</a>
</g>
</g>
<!-- Node2&#45;&gt;Node4 -->
<g id="edge3_Node000002_Node000004" class="edge">
<title>Node2&#45;&gt;Node4</title>
<g id="a_edge3_Node000002_Node000004"><a xlink:title=" ">
<path fill="none" stroke="#63b8ff" d="M272.37,-78.27C297.95,-66.71 327.95,-53.15 352.12,-42.22"/>
<polygon fill="#63b8ff" stroke="#63b8ff" points="271.13,-74.99 263.46,-82.3 274.02,-81.37 271.13,-74.99"/>
</a>
</g>
</g>
<!-- Node2&#45;&gt;Node5 -->
<g id="edge4_Node000002_Node000005" class="edge">
<title>Node2&#45;&gt;Node5</title>
<g id="a_edge4_Node000002_Node000005"><a xlink:title=" ">
<path fill="none" stroke="#63b8ff" d="M169.34,-77.5C148.21,-66.11 123.71,-52.91 103.88,-42.22"/>
<polygon fill="#63b8ff" stroke="#63b8ff" points="167.61,-80.54 178.08,-82.21 170.94,-74.38 167.61,-80.54"/>
</a>
</g>
</g>
<!-- Node6&#45;&gt;Node4 -->
<g id="edge7_Node000006_Node000004" class="edge">
<title>Node6&#45;&gt;Node4</title>
<g id="a_edge7_Node000006_Node000004"><a xlink:title=" ">
<path fill="none" stroke="#63b8ff" d="M421.56,-72.87C416.63,-62.58 411.25,-51.34 406.79,-42.04"/>
<polygon fill="#63b8ff" stroke="#63b8ff" points="418.35,-74.26 425.83,-81.77 424.66,-71.24 418.35,-74.26"/>
</a>
</g>
</g>
<!-- Node7 -->
<g id="Node000007" class="node">
<title>Node7</title>
<g id="a_Node000007"><a xlink:href="FelixStreamParameters_8cpp.html" target="_top" xlink:title=" ">
<polygon fill="white" stroke="#666666" points="649.88,-41.75 494.38,-41.75 494.38,0 649.88,0 649.88,-41.75"/>
<text text-anchor="start" x="502.38" y="-28.25" font-family="Helvetica,sans-Serif" font-size="10.00">/github/workspace/dev</text>
<text text-anchor="start" x="502.38" y="-17" font-family="Helvetica,sans-Serif" font-size="10.00">_area/build/appdal/codegen</text>
<text text-anchor="middle" x="572.12" y="-5.75" font-family="Helvetica,sans-Serif" font-size="10.00">/src/FelixStreamParameters.cpp</text>
</a>
</g>
</g>
<!-- Node6&#45;&gt;Node7 -->
<g id="edge6_Node000006_Node000007" class="edge">
<title>Node6&#45;&gt;Node7</title>
<g id="a_edge6_Node000006_Node000007"><a xlink:title=" ">
<path fill="none" stroke="#63b8ff" d="M479.94,-77.03C498.8,-65.75 520.51,-52.76 538.12,-42.22"/>
<polygon fill="#63b8ff" stroke="#63b8ff" points="478.18,-74.01 471.39,-82.15 481.77,-80.02 478.18,-74.01"/>
</a>
</g>
</g>
<!-- Node14 -->
<g id="Node000014" class="node">
<title>Node14</title>
<g id="a_Node000014"><a xlink:href="Readoutlibs_8cpp.html" target="_top" xlink:title=" ">
<polygon fill="white" stroke="#666666" points="1533.88,-41.75 1390.38,-41.75 1390.38,0 1533.88,0 1533.88,-41.75"/>
<text text-anchor="start" x="1398.38" y="-28.25" font-family="Helvetica,sans-Serif" font-size="10.00">/github/workspace/dev</text>
<text text-anchor="start" x="1398.38" y="-17" font-family="Helvetica,sans-Serif" font-size="10.00">_area/sourcecode/readoutlibs</text>
<text text-anchor="middle" x="1462.12" y="-5.75" font-family="Helvetica,sans-Serif" font-size="10.00">/src/Readoutlibs.cpp</text>
</a>
</g>
</g>
<!-- Node13&#45;&gt;Node14 -->
<g id="edge15_Node000013_Node000014" class="edge">
<title>Node13&#45;&gt;Node14</title>
<g id="a_edge15_Node000013_Node000014"><a xlink:title=" ">
<path fill="none" stroke="#63b8ff" d="M1462.12,-66.08C1462.12,-57.8 1462.12,-49.33 1462.12,-42.04"/>
<polygon fill="#63b8ff" stroke="#63b8ff" points="1458.63,-65.99 1462.13,-75.99 1465.63,-65.99 1458.63,-65.99"/>
</a>
</g>
</g>
</g>
</svg>
