<?xml version="1.0" encoding="UTF-8" standalone="no"?>
<!DOCTYPE svg PUBLIC "-//W3C//DTD SVG 1.1//EN"
 "http://www.w3.org/Graphics/SVG/1.1/DTD/svg11.dtd">
<!-- Generated by graphviz version 9.0.0 (20230911.1827)
 -->
<!-- Title: /github/workspace/dev_area/build/appdal/codegen/include/appdal/DataReader.hpp Pages: 1 -->
<svg width="1609pt" height="217pt"
 viewBox="0.00 0.00 1609.25 216.50" xmlns="http://www.w3.org/2000/svg" xmlns:xlink="http://www.w3.org/1999/xlink">
<g id="graph0" class="graph" transform="scale(1 1) rotate(0) translate(4 212.5)">
<title>/github/workspace/dev_area/build/appdal/codegen/include/appdal/DataReader.hpp</title>
<!-- Node1 -->
<g id="Node000001" class="node">
<title>Node1</title>
<g id="a_Node000001"><a xlink:title=" ">
<polygon fill="#999999" stroke="#666666" points="853.12,-208.5 699.88,-208.5 699.88,-166.75 853.12,-166.75 853.12,-208.5"/>
<text text-anchor="start" x="707.88" y="-195" font-family="Helvetica,sans-Serif" font-size="10.00">/github/workspace/dev</text>
<text text-anchor="start" x="707.88" y="-183.75" font-family="Helvetica,sans-Serif" font-size="10.00">_area/build/appdal/codegen</text>
<text text-anchor="middle" x="776.5" y="-172.5" font-family="Helvetica,sans-Serif" font-size="10.00">/include/appdal/DataReader.hpp</text>
</a>
</g>
</g>
<!-- Node2 -->
<g id="Node000002" class="node">
<title>Node2</title>
<g id="a_Node000002"><a xlink:href="include_2appdal_2FDFakeCardReader_8hpp.html" target="_top" xlink:title=" ">
<polygon fill="white" stroke="#666666" points="208.38,-125.12 20.62,-125.12 20.62,-83.38 208.38,-83.38 208.38,-125.12"/>
<text text-anchor="start" x="28.62" y="-111.62" font-family="Helvetica,sans-Serif" font-size="10.00">/github/workspace/dev</text>
<text text-anchor="start" x="28.62" y="-100.38" font-family="Helvetica,sans-Serif" font-size="10.00">_area/build/appdal/codegen</text>
<text text-anchor="middle" x="114.5" y="-89.12" font-family="Helvetica,sans-Serif" font-size="10.00">/include/appdal/FDFakeCardReader.hpp</text>
</a>
</g>
</g>
<!-- Node1&#45;&gt;Node2 -->
<g id="edge1_Node000001_Node000002" class="edge">
<title>Node1&#45;&gt;Node2</title>
<g id="a_edge1_Node000001_Node000002"><a xlink:title=" ">
<path fill="none" stroke="#63b8ff" d="M688.12,-181.3C578.38,-173.87 385.71,-158.13 222.5,-130.75 213.76,-129.28 204.67,-127.52 195.65,-125.62"/>
<polygon fill="#63b8ff" stroke="#63b8ff" points="687.73,-184.79 697.94,-181.96 688.2,-177.8 687.73,-184.79"/>
</a>
</g>
</g>
<!-- Node4 -->
<g id="Node000004" class="node">
<title>Node4</title>
<g id="a_Node000004"><a xlink:href="dump__dunedaq____appdal_8cpp.html" target="_top" xlink:title=" ">
<polygon fill="white" stroke="#666666" points="315.75,-41.75 157.25,-41.75 157.25,0 315.75,0 315.75,-41.75"/>
<text text-anchor="start" x="165.25" y="-28.25" font-family="Helvetica,sans-Serif" font-size="10.00">/github/workspace/dev</text>
<text text-anchor="start" x="165.25" y="-17" font-family="Helvetica,sans-Serif" font-size="10.00">_area/build/appdal/codegen</text>
<text text-anchor="middle" x="236.5" y="-5.75" font-family="Helvetica,sans-Serif" font-size="10.00">/src/dump_dunedaq__appdal.cpp</text>
</a>
</g>
</g>
<!-- Node1&#45;&gt;Node4 -->
<g id="edge14_Node000001_Node000004" class="edge">
<title>Node1&#45;&gt;Node4</title>
<g id="a_edge14_Node000001_Node000004"><a xlink:title=" ">
<path fill="none" stroke="#63b8ff" d="M688.34,-182.88C548,-176.09 286.42,-159.69 255.5,-130.75 231.41,-108.2 231.11,-66.8 233.51,-42.06"/>
<polygon fill="#63b8ff" stroke="#63b8ff" points="687.8,-186.36 697.95,-183.34 688.13,-179.37 687.8,-186.36"/>
</a>
</g>
</g>
<!-- Node5 -->
<g id="Node000005" class="node">
<title>Node5</title>
<g id="a_Node000005"><a xlink:href="include_2appdal_2FelixCardReader_8hpp.html" target="_top" xlink:title=" ">
<polygon fill="white" stroke="#666666" points="438.25,-125.12 264.75,-125.12 264.75,-83.38 438.25,-83.38 438.25,-125.12"/>
<text text-anchor="start" x="272.75" y="-111.62" font-family="Helvetica,sans-Serif" font-size="10.00">/github/workspace/dev</text>
<text text-anchor="start" x="272.75" y="-100.38" font-family="Helvetica,sans-Serif" font-size="10.00">_area/build/appdal/codegen</text>
<text text-anchor="middle" x="351.5" y="-89.12" font-family="Helvetica,sans-Serif" font-size="10.00">/include/appdal/FelixCardReader.hpp</text>
</a>
</g>
</g>
<!-- Node1&#45;&gt;Node5 -->
<g id="edge4_Node000001_Node000005" class="edge">
<title>Node1&#45;&gt;Node5</title>
<g id="a_edge4_Node000001_Node000005"><a xlink:title=" ">
<path fill="none" stroke="#63b8ff" d="M688.41,-173.9C621.91,-163.76 528.58,-148.37 447.5,-130.75 440.25,-129.18 432.73,-127.41 425.24,-125.56"/>
<polygon fill="#63b8ff" stroke="#63b8ff" points="687.76,-177.34 698.17,-175.38 688.81,-170.42 687.76,-177.34"/>
</a>
</g>
</g>
<!-- Node7 -->
<g id="Node000007" class="node">
<title>Node7</title>
<g id="a_Node000007"><a xlink:href="include_2appdal_2NICReceiver_8hpp.html" target="_top" xlink:title=" ">
<polygon fill="white" stroke="#666666" points="614.38,-125.12 456.62,-125.12 456.62,-83.38 614.38,-83.38 614.38,-125.12"/>
<text text-anchor="start" x="464.62" y="-111.62" font-family="Helvetica,sans-Serif" font-size="10.00">/github/workspace/dev</text>
<text text-anchor="start" x="464.62" y="-100.38" font-family="Helvetica,sans-Serif" font-size="10.00">_area/build/appdal/codegen</text>
<text text-anchor="middle" x="535.5" y="-89.12" font-family="Helvetica,sans-Serif" font-size="10.00">/include/appdal/NICReceiver.hpp</text>
</a>
</g>
</g>
<!-- Node1&#45;&gt;Node7 -->
<g id="edge7_Node000001_Node000007" class="edge">
<title>Node1&#45;&gt;Node7</title>
<g id="a_edge7_Node000001_Node000007"><a xlink:title=" ">
<path fill="none" stroke="#63b8ff" d="M705.71,-162.72C670.79,-150.93 629.13,-136.86 595.76,-125.6"/>
<polygon fill="#63b8ff" stroke="#63b8ff" points="704.28,-165.93 714.87,-165.82 706.52,-159.3 704.28,-165.93"/>
</a>
</g>
</g>
<!-- Node9 -->
<g id="Node000009" class="node">
<title>Node9</title>
<g id="a_Node000009"><a xlink:href="DataReader_8cpp.html" target="_top" xlink:title=" ">
<polygon fill="white" stroke="#666666" points="766.75,-125.12 632.25,-125.12 632.25,-83.38 766.75,-83.38 766.75,-125.12"/>
<text text-anchor="start" x="640.25" y="-111.62" font-family="Helvetica,sans-Serif" font-size="10.00">/github/workspace/dev</text>
<text text-anchor="start" x="640.25" y="-100.38" font-family="Helvetica,sans-Serif" font-size="10.00">_area/build/appdal/codegen</text>
<text text-anchor="middle" x="699.5" y="-89.12" font-family="Helvetica,sans-Serif" font-size="10.00">/src/DataReader.cpp</text>
</a>
</g>
</g>
<!-- Node1&#45;&gt;Node9 -->
<g id="edge10_Node000001_Node000009" class="edge">
<title>Node1&#45;&gt;Node9</title>
<g id="a_edge10_Node000001_Node000009"><a xlink:title=" ">
<path fill="none" stroke="#63b8ff" d="M749.59,-158.18C739.36,-147.38 727.94,-135.3 718.58,-125.42"/>
<polygon fill="#63b8ff" stroke="#63b8ff" points="747.01,-160.55 756.43,-165.41 752.1,-155.74 747.01,-160.55"/>
</a>
</g>
</g>
<!-- Node10 -->
<g id="Node000010" class="node">
<title>Node10</title>
<g id="a_Node000010"><a xlink:href="src_2FDFakeCardReader_8hpp.html" target="_top" xlink:title=" ">
<polygon fill="white" stroke="#666666" points="924,-125.12 785,-125.12 785,-83.38 924,-83.38 924,-125.12"/>
<text text-anchor="start" x="793" y="-111.62" font-family="Helvetica,sans-Serif" font-size="10.00">/github/workspace/dev</text>
<text text-anchor="start" x="793" y="-100.38" font-family="Helvetica,sans-Serif" font-size="10.00">_area/build/appdal/codegen</text>
<text text-anchor="middle" x="854.5" y="-89.12" font-family="Helvetica,sans-Serif" font-size="10.00">/src/FDFakeCardReader.hpp</text>
</a>
</g>
</g>
<!-- Node1&#45;&gt;Node10 -->
<g id="edge11_Node000001_Node000010" class="edge">
<title>Node1&#45;&gt;Node10</title>
<g id="a_edge11_Node000001_Node000010"><a xlink:title=" ">
<path fill="none" stroke="#63b8ff" d="M803.46,-158.5C813.89,-147.62 825.6,-135.4 835.17,-125.42"/>
<polygon fill="#63b8ff" stroke="#63b8ff" points="801.22,-155.78 796.83,-165.42 806.27,-160.62 801.22,-155.78"/>
</a>
</g>
</g>
<!-- Node11 -->
<g id="Node000011" class="node">
<title>Node11</title>
<g id="a_Node000011"><a xlink:href="src_2FelixCardReader_8hpp.html" target="_top" xlink:title=" ">
<polygon fill="white" stroke="#666666" points="1076.75,-125.12 942.25,-125.12 942.25,-83.38 1076.75,-83.38 1076.75,-125.12"/>
<text text-anchor="start" x="950.25" y="-111.62" font-family="Helvetica,sans-Serif" font-size="10.00">/github/workspace/dev</text>
<text text-anchor="start" x="950.25" y="-100.38" font-family="Helvetica,sans-Serif" font-size="10.00">_area/build/appdal/codegen</text>
<text text-anchor="middle" x="1009.5" y="-89.12" font-family="Helvetica,sans-Serif" font-size="10.00">/src/FelixCardReader.hpp</text>
</a>
</g>
</g>
<!-- Node1&#45;&gt;Node11 -->
<g id="edge12_Node000001_Node000011" class="edge">
<title>Node1&#45;&gt;Node11</title>
<g id="a_edge12_Node000001_Node000011"><a xlink:title=" ">
<path fill="none" stroke="#63b8ff" d="M845.38,-162.57C879.05,-150.81 919.12,-136.82 951.24,-125.6"/>
<polygon fill="#63b8ff" stroke="#63b8ff" points="844.41,-159.2 836.12,-165.8 846.72,-165.81 844.41,-159.2"/>
</a>
</g>
</g>
<!-- Node12 -->
<g id="Node000012" class="node">
<title>Node12</title>
<g id="a_Node000012"><a xlink:href="src_2NICReceiver_8hpp.html" target="_top" xlink:title=" ">
<polygon fill="white" stroke="#666666" points="1229.75,-125.12 1095.25,-125.12 1095.25,-83.38 1229.75,-83.38 1229.75,-125.12"/>
<text text-anchor="start" x="1103.25" y="-111.62" font-family="Helvetica,sans-Serif" font-size="10.00">/github/workspace/dev</text>
<text text-anchor="start" x="1103.25" y="-100.38" font-family="Helvetica,sans-Serif" font-size="10.00">_area/build/appdal/codegen</text>
<text text-anchor="middle" x="1162.5" y="-89.12" font-family="Helvetica,sans-Serif" font-size="10.00">/src/NICReceiver.hpp</text>
</a>
</g>
</g>
<!-- Node1&#45;&gt;Node12 -->
<g id="edge13_Node000001_Node000012" class="edge">
<title>Node1&#45;&gt;Node12</title>
<g id="a_edge13_Node000001_Node000012"><a xlink:title=" ">
<path fill="none" stroke="#63b8ff" d="M864.68,-174.07C926.88,-164.39 1011.89,-149.49 1085.5,-130.75 1091.5,-129.22 1097.72,-127.46 1103.9,-125.6"/>
<polygon fill="#63b8ff" stroke="#63b8ff" points="864.18,-170.6 854.83,-175.58 865.25,-177.52 864.18,-170.6"/>
</a>
</g>
</g>
<!-- Node13 -->
<g id="Node000013" class="node">
<title>Node13</title>
<g id="a_Node000013"><a xlink:href="sourcecode_2appdal_2src_2ReadoutApplication_8cpp.html" target="_top" xlink:title=" ">
<polygon fill="white" stroke="#666666" points="1385.25,-125.12 1247.75,-125.12 1247.75,-83.38 1385.25,-83.38 1385.25,-125.12"/>
<text text-anchor="start" x="1255.75" y="-111.62" font-family="Helvetica,sans-Serif" font-size="10.00">/github/workspace/dev</text>
<text text-anchor="start" x="1255.75" y="-100.38" font-family="Helvetica,sans-Serif" font-size="10.00">_area/sourcecode/appdal</text>
<text text-anchor="middle" x="1316.5" y="-89.12" font-family="Helvetica,sans-Serif" font-size="10.00">/src/ReadoutApplication.cpp</text>
</a>
</g>
</g>
<!-- Node1&#45;&gt;Node13 -->
<g id="edge15_Node000001_Node000013" class="edge">
<title>Node1&#45;&gt;Node13</title>
<g id="a_edge15_Node000001_Node000013"><a xlink:title=" ">
<path fill="none" stroke="#63b8ff" d="M864.71,-181.11C958.32,-174.06 1110.16,-159.2 1238.5,-130.75 1245.04,-129.3 1251.8,-127.52 1258.49,-125.59"/>
<polygon fill="#63b8ff" stroke="#63b8ff" points="864.53,-177.61 854.81,-181.84 865.04,-184.59 864.53,-177.61"/>
</a>
</g>
</g>
<!-- Node14 -->
<g id="Node000014" class="node">
<title>Node14</title>
<g id="a_Node000014"><a xlink:href="FakeCardReaderBase_8hpp.html" target="_top" xlink:title=" ">
<polygon fill="white" stroke="#666666" points="1601.25,-130.75 1403.75,-130.75 1403.75,-77.75 1601.25,-77.75 1601.25,-130.75"/>
<text text-anchor="start" x="1411.75" y="-117.25" font-family="Helvetica,sans-Serif" font-size="10.00">/github/workspace/dev</text>
<text text-anchor="start" x="1411.75" y="-106" font-family="Helvetica,sans-Serif" font-size="10.00">_area/sourcecode/readoutmodules</text>
<text text-anchor="start" x="1411.75" y="-94.75" font-family="Helvetica,sans-Serif" font-size="10.00">/include/readoutmodules/FakeCardReader</text>
<text text-anchor="middle" x="1502.5" y="-83.5" font-family="Helvetica,sans-Serif" font-size="10.00">Base.hpp</text>
</a>
</g>
</g>
<!-- Node1&#45;&gt;Node14 -->
<g id="edge16_Node000001_Node000014" class="edge">
<title>Node1&#45;&gt;Node14</title>
<g id="a_edge16_Node000001_Node000014"><a xlink:title=" ">
<path fill="none" stroke="#63b8ff" d="M864.86,-182.58C985.25,-176.17 1207.27,-161.16 1394.5,-130.75 1397.45,-130.27 1400.43,-129.76 1403.44,-129.21"/>
<polygon fill="#63b8ff" stroke="#63b8ff" points="864.85,-179.07 855.04,-183.09 865.21,-186.07 864.85,-179.07"/>
</a>
</g>
</g>
<!-- Node3 -->
<g id="Node000003" class="node">
<title>Node3</title>
<g id="a_Node000003"><a xlink:href="FDFakeCardReader_8cpp.html" target="_top" xlink:title=" ">
<polygon fill="white" stroke="#666666" points="139,-41.75 0,-41.75 0,0 139,0 139,-41.75"/>
<text text-anchor="start" x="8" y="-28.25" font-family="Helvetica,sans-Serif" font-size="10.00">/github/workspace/dev</text>
<text text-anchor="start" x="8" y="-17" font-family="Helvetica,sans-Serif" font-size="10.00">_area/build/appdal/codegen</text>
<text text-anchor="middle" x="69.5" y="-5.75" font-family="Helvetica,sans-Serif" font-size="10.00">/src/FDFakeCardReader.cpp</text>
</a>
</g>
</g>
<!-- Node2&#45;&gt;Node3 -->
<g id="edge2_Node000002_Node000003" class="edge">
<title>Node2&#45;&gt;Node3</title>
<g id="a_edge2_Node000002_Node000003"><a xlink:title=" ">
<path fill="none" stroke="#63b8ff" d="M97.88,-73.19C92.14,-62.81 85.85,-51.44 80.65,-42.04"/>
<polygon fill="#63b8ff" stroke="#63b8ff" points="94.74,-74.75 102.64,-81.81 100.87,-71.37 94.74,-74.75"/>
</a>
</g>
</g>
<!-- Node2&#45;&gt;Node4 -->
<g id="edge3_Node000002_Node000004" class="edge">
<title>Node2&#45;&gt;Node4</title>
<g id="a_edge3_Node000002_Node000004"><a xlink:title=" ">
<path fill="none" stroke="#63b8ff" d="M154.51,-76.56C171.26,-65.39 190.41,-52.61 205.99,-42.22"/>
<polygon fill="#63b8ff" stroke="#63b8ff" points="152.61,-73.62 146.23,-82.09 156.49,-79.45 152.61,-73.62"/>
</a>
</g>
</g>
<!-- Node5&#45;&gt;Node4 -->
<g id="edge6_Node000005_Node000004" class="edge">
<title>Node5&#45;&gt;Node4</title>
<g id="a_edge6_Node000005_Node000004"><a xlink:title=" ">
<path fill="none" stroke="#63b8ff" d="M313.79,-76.56C298,-65.39 279.94,-52.61 265.26,-42.22"/>
<polygon fill="#63b8ff" stroke="#63b8ff" points="311.36,-79.13 321.54,-82.05 315.4,-73.42 311.36,-79.13"/>
</a>
</g>
</g>
<!-- Node6 -->
<g id="Node000006" class="node">
<title>Node6</title>
<g id="a_Node000006"><a xlink:href="FelixCardReader_8cpp.html" target="_top" xlink:title=" ">
<polygon fill="white" stroke="#666666" points="468.75,-41.75 334.25,-41.75 334.25,0 468.75,0 468.75,-41.75"/>
<text text-anchor="start" x="342.25" y="-28.25" font-family="Helvetica,sans-Serif" font-size="10.00">/github/workspace/dev</text>
<text text-anchor="start" x="342.25" y="-17" font-family="Helvetica,sans-Serif" font-size="10.00">_area/build/appdal/codegen</text>
<text text-anchor="middle" x="401.5" y="-5.75" font-family="Helvetica,sans-Serif" font-size="10.00">/src/FelixCardReader.cpp</text>
</a>
</g>
</g>
<!-- Node5&#45;&gt;Node6 -->
<g id="edge5_Node000005_Node000006" class="edge">
<title>Node5&#45;&gt;Node6</title>
<g id="a_edge5_Node000005_Node000006"><a xlink:title=" ">
<path fill="none" stroke="#63b8ff" d="M369.77,-73.52C376.2,-63.05 383.28,-51.54 389.11,-42.04"/>
<polygon fill="#63b8ff" stroke="#63b8ff" points="366.91,-71.49 364.65,-81.85 372.87,-75.16 366.91,-71.49"/>
</a>
</g>
</g>
<!-- Node7&#45;&gt;Node4 -->
<g id="edge9_Node000007_Node000004" class="edge">
<title>Node7&#45;&gt;Node4</title>
<g id="a_edge9_Node000007_Node000004"><a xlink:title=" ">
<path fill="none" stroke="#63b8ff" d="M454.88,-79.81C452.39,-79.11 449.93,-78.42 447.5,-77.75 403.68,-65.6 354.58,-52.56 314.78,-42.14"/>
<polygon fill="#63b8ff" stroke="#63b8ff" points="453.86,-83.16 464.43,-82.51 455.76,-76.42 453.86,-83.16"/>
</a>
</g>
</g>
<!-- Node8 -->
<g id="Node000008" class="node">
<title>Node8</title>
<g id="a_Node000008"><a xlink:href="NICReceiver_8cpp.html" target="_top" xlink:title=" ">
<polygon fill="white" stroke="#666666" points="621.75,-41.75 487.25,-41.75 487.25,0 621.75,0 621.75,-41.75"/>
<text text-anchor="start" x="495.25" y="-28.25" font-family="Helvetica,sans-Serif" font-size="10.00">/github/workspace/dev</text>
<text text-anchor="start" x="495.25" y="-17" font-family="Helvetica,sans-Serif" font-size="10.00">_area/build/appdal/codegen</text>
<text text-anchor="middle" x="554.5" y="-5.75" font-family="Helvetica,sans-Serif" font-size="10.00">/src/NICReceiver.cpp</text>
</a>
</g>
</g>
<!-- Node7&#45;&gt;Node8 -->
<g id="edge8_Node000007_Node000008" class="edge">
<title>Node7&#45;&gt;Node8</title>
<g id="a_edge8_Node000007_Node000008"><a xlink:title=" ">
<path fill="none" stroke="#63b8ff" d="M542.75,-72.22C545.11,-62.1 547.67,-51.14 549.79,-42.04"/>
<polygon fill="#63b8ff" stroke="#63b8ff" points="539.41,-71.13 540.54,-81.66 546.22,-72.72 539.41,-71.13"/>
</a>
</g>
</g>
</g>
</svg>
