<?xml version="1.0" encoding="UTF-8" standalone="no"?>
<!DOCTYPE svg PUBLIC "-//W3C//DTD SVG 1.1//EN"
 "http://www.w3.org/Graphics/SVG/1.1/DTD/svg11.dtd">
<!-- Generated by graphviz version 9.0.0 (20230911.1827)
 -->
<!-- Title: /github/workspace/dev_area/build/appdal/codegen/include/appdal/QueueDescriptor.hpp Pages: 1 -->
<svg width="1727pt" height="128pt"
 viewBox="0.00 0.00 1726.88 127.50" xmlns="http://www.w3.org/2000/svg" xmlns:xlink="http://www.w3.org/1999/xlink">
<g id="graph0" class="graph" transform="scale(1 1) rotate(0) translate(4 123.5)">
<title>/github/workspace/dev_area/build/appdal/codegen/include/appdal/QueueDescriptor.hpp</title>
<!-- Node1 -->
<g id="Node000001" class="node">
<title>Node1</title>
<g id="a_Node000001"><a xlink:title=" ">
<polygon fill="#999999" stroke="#666666" points="942.62,-119.5 767.62,-119.5 767.62,-77.75 942.62,-77.75 942.62,-119.5"/>
<text text-anchor="start" x="775.62" y="-106" font-family="Helvetica,sans-Serif" font-size="10.00">/github/workspace/dev</text>
<text text-anchor="start" x="775.62" y="-94.75" font-family="Helvetica,sans-Serif" font-size="10.00">_area/build/appdal/codegen</text>
<text text-anchor="middle" x="855.12" y="-83.5" font-family="Helvetica,sans-Serif" font-size="10.00">/include/appdal/QueueDescriptor.hpp</text>
</a>
</g>
</g>
<!-- Node2 -->
<g id="Node000002" class="node">
<title>Node2</title>
<g id="a_Node000002"><a xlink:href="QueueConnectionRule_8cpp.html" target="_top" xlink:title=" ">
<polygon fill="white" stroke="#666666" points="150.25,-41.75 0,-41.75 0,0 150.25,0 150.25,-41.75"/>
<text text-anchor="start" x="8" y="-28.25" font-family="Helvetica,sans-Serif" font-size="10.00">/github/workspace/dev</text>
<text text-anchor="start" x="8" y="-17" font-family="Helvetica,sans-Serif" font-size="10.00">_area/build/appdal/codegen</text>
<text text-anchor="middle" x="75.12" y="-5.75" font-family="Helvetica,sans-Serif" font-size="10.00">/src/QueueConnectionRule.cpp</text>
</a>
</g>
</g>
<!-- Node1&#45;&gt;Node2 -->
<g id="edge1_Node000001_Node000002" class="edge">
<title>Node1&#45;&gt;Node2</title>
<g id="a_edge1_Node000001_Node000002"><a xlink:title=" ">
<path fill="none" stroke="#63b8ff" d="M756.12,-94.42C620.65,-88.95 370.23,-75 159.12,-41.75 156.31,-41.31 153.45,-40.82 150.57,-40.3"/>
<polygon fill="#63b8ff" stroke="#63b8ff" points="755.63,-97.9 765.76,-94.8 755.91,-90.91 755.63,-97.9"/>
</a>
</g>
</g>
<!-- Node3 -->
<g id="Node000003" class="node">
<title>Node3</title>
<g id="a_Node000003"><a xlink:href="QueueDescriptor_8cpp.html" target="_top" xlink:title=" ">
<polygon fill="white" stroke="#666666" points="302.38,-41.75 167.88,-41.75 167.88,0 302.38,0 302.38,-41.75"/>
<text text-anchor="start" x="175.88" y="-28.25" font-family="Helvetica,sans-Serif" font-size="10.00">/github/workspace/dev</text>
<text text-anchor="start" x="175.88" y="-17" font-family="Helvetica,sans-Serif" font-size="10.00">_area/build/appdal/codegen</text>
<text text-anchor="middle" x="235.12" y="-5.75" font-family="Helvetica,sans-Serif" font-size="10.00">/src/QueueDescriptor.cpp</text>
</a>
</g>
</g>
<!-- Node1&#45;&gt;Node3 -->
<g id="edge2_Node000001_Node000003" class="edge">
<title>Node1&#45;&gt;Node3</title>
<g id="a_edge2_Node000001_Node000003"><a xlink:title=" ">
<path fill="none" stroke="#63b8ff" d="M756.24,-91.92C646.93,-84.58 465.95,-69.36 312.12,-41.75 309,-41.19 305.81,-40.57 302.6,-39.9"/>
<polygon fill="#63b8ff" stroke="#63b8ff" points="755.85,-95.4 766.06,-92.57 756.31,-88.42 755.85,-95.4"/>
</a>
</g>
</g>
<!-- Node4 -->
<g id="Node000004" class="node">
<title>Node4</title>
<g id="a_Node000004"><a xlink:href="dump__dunedaq____appdal_8cpp.html" target="_top" xlink:title=" ">
<polygon fill="white" stroke="#666666" points="479.38,-41.75 320.88,-41.75 320.88,0 479.38,0 479.38,-41.75"/>
<text text-anchor="start" x="328.88" y="-28.25" font-family="Helvetica,sans-Serif" font-size="10.00">/github/workspace/dev</text>
<text text-anchor="start" x="328.88" y="-17" font-family="Helvetica,sans-Serif" font-size="10.00">_area/build/appdal/codegen</text>
<text text-anchor="middle" x="400.12" y="-5.75" font-family="Helvetica,sans-Serif" font-size="10.00">/src/dump_dunedaq__appdal.cpp</text>
</a>
</g>
</g>
<!-- Node1&#45;&gt;Node4 -->
<g id="edge3_Node000001_Node000004" class="edge">
<title>Node1&#45;&gt;Node4</title>
<g id="a_edge3_Node000001_Node000004"><a xlink:title=" ">
<path fill="none" stroke="#63b8ff" d="M756.08,-84.37C682.26,-74.04 579.11,-58.65 489.12,-41.75 486.01,-41.17 482.84,-40.55 479.65,-39.92"/>
<polygon fill="#63b8ff" stroke="#63b8ff" points="755.32,-87.8 765.71,-85.71 756.29,-80.86 755.32,-87.8"/>
</a>
</g>
</g>
<!-- Node5 -->
<g id="Node000005" class="node">
<title>Node5</title>
<g id="a_Node000005"><a xlink:href="sourcecode_2appdal_2src_2DFApplication_8cpp.html" target="_top" xlink:title=" ">
<polygon fill="white" stroke="#666666" points="622.5,-41.75 497.75,-41.75 497.75,0 622.5,0 622.5,-41.75"/>
<text text-anchor="start" x="505.75" y="-28.25" font-family="Helvetica,sans-Serif" font-size="10.00">/github/workspace/dev</text>
<text text-anchor="start" x="505.75" y="-17" font-family="Helvetica,sans-Serif" font-size="10.00">_area/sourcecode/appdal</text>
<text text-anchor="middle" x="560.12" y="-5.75" font-family="Helvetica,sans-Serif" font-size="10.00">/src/DFApplication.cpp</text>
</a>
</g>
</g>
<!-- Node1&#45;&gt;Node5 -->
<g id="edge4_Node000001_Node000005" class="edge">
<title>Node1&#45;&gt;Node5</title>
<g id="a_edge4_Node000001_Node000005"><a xlink:title=" ">
<path fill="none" stroke="#63b8ff" d="M760.85,-74.53C721.07,-64.65 674.28,-52.85 632.12,-41.75 629.12,-40.96 626.04,-40.14 622.93,-39.31"/>
<polygon fill="#63b8ff" stroke="#63b8ff" points="759.86,-77.89 770.41,-76.9 761.54,-71.1 759.86,-77.89"/>
</a>
</g>
</g>
<!-- Node6 -->
<g id="Node000006" class="node">
<title>Node6</title>
<g id="a_Node000006"><a xlink:href="sourcecode_2appdal_2src_2DFOApplication_8cpp.html" target="_top" xlink:title=" ">
<polygon fill="white" stroke="#666666" points="765.5,-41.75 640.75,-41.75 640.75,0 765.5,0 765.5,-41.75"/>
<text text-anchor="start" x="648.75" y="-28.25" font-family="Helvetica,sans-Serif" font-size="10.00">/github/workspace/dev</text>
<text text-anchor="start" x="648.75" y="-17" font-family="Helvetica,sans-Serif" font-size="10.00">_area/sourcecode/appdal</text>
<text text-anchor="middle" x="703.12" y="-5.75" font-family="Helvetica,sans-Serif" font-size="10.00">/src/DFOApplication.cpp</text>
</a>
</g>
</g>
<!-- Node1&#45;&gt;Node6 -->
<g id="edge5_Node000001_Node000006" class="edge">
<title>Node1&#45;&gt;Node6</title>
<g id="a_edge5_Node000001_Node000006"><a xlink:title=" ">
<path fill="none" stroke="#63b8ff" d="M804.11,-72.2C784.54,-62.45 762.47,-51.45 743.97,-42.23"/>
<polygon fill="#63b8ff" stroke="#63b8ff" points="802.53,-75.32 813.04,-76.65 805.65,-69.06 802.53,-75.32"/>
</a>
</g>
</g>
<!-- Node7 -->
<g id="Node000007" class="node">
<title>Node7</title>
<g id="a_Node000007"><a xlink:href="sourcecode_2appdal_2src_2FakeDataApplication_8cpp.html" target="_top" xlink:title=" ">
<polygon fill="white" stroke="#666666" points="926.88,-41.75 783.38,-41.75 783.38,0 926.88,0 926.88,-41.75"/>
<text text-anchor="start" x="791.38" y="-28.25" font-family="Helvetica,sans-Serif" font-size="10.00">/github/workspace/dev</text>
<text text-anchor="start" x="791.38" y="-17" font-family="Helvetica,sans-Serif" font-size="10.00">_area/sourcecode/appdal</text>
<text text-anchor="middle" x="855.12" y="-5.75" font-family="Helvetica,sans-Serif" font-size="10.00">/src/FakeDataApplication.cpp</text>
</a>
</g>
</g>
<!-- Node1&#45;&gt;Node7 -->
<g id="edge6_Node000001_Node000007" class="edge">
<title>Node1&#45;&gt;Node7</title>
<g id="a_edge6_Node000001_Node000007"><a xlink:title=" ">
<path fill="none" stroke="#63b8ff" d="M855.12,-66C855.12,-57.96 855.12,-49.54 855.12,-42.23"/>
<polygon fill="#63b8ff" stroke="#63b8ff" points="851.63,-65.81 855.13,-75.81 858.63,-65.81 851.63,-65.81"/>
</a>
</g>
</g>
<!-- Node8 -->
<g id="Node000008" class="node">
<title>Node8</title>
<g id="a_Node000008"><a xlink:href="sourcecode_2appdal_2src_2FakeHSIApplication_8cpp.html" target="_top" xlink:title=" ">
<polygon fill="white" stroke="#666666" points="1085.38,-41.75 944.88,-41.75 944.88,0 1085.38,0 1085.38,-41.75"/>
<text text-anchor="start" x="952.88" y="-28.25" font-family="Helvetica,sans-Serif" font-size="10.00">/github/workspace/dev</text>
<text text-anchor="start" x="952.88" y="-17" font-family="Helvetica,sans-Serif" font-size="10.00">_area/sourcecode/appdal</text>
<text text-anchor="middle" x="1015.12" y="-5.75" font-family="Helvetica,sans-Serif" font-size="10.00">/src/FakeHSIApplication.cpp</text>
</a>
</g>
</g>
<!-- Node1&#45;&gt;Node8 -->
<g id="edge7_Node000001_Node000008" class="edge">
<title>Node1&#45;&gt;Node8</title>
<g id="a_edge7_Node000001_Node000008"><a xlink:title=" ">
<path fill="none" stroke="#63b8ff" d="M908.25,-72.47C929,-62.65 952.48,-51.54 972.13,-42.23"/>
<polygon fill="#63b8ff" stroke="#63b8ff" points="906.91,-69.24 899.37,-76.68 909.91,-75.56 906.91,-69.24"/>
</a>
</g>
</g>
<!-- Node9 -->
<g id="Node000009" class="node">
<title>Node9</title>
<g id="a_Node000009"><a xlink:href="sourcecode_2appdal_2src_2HSIEventToTCApplication_8cpp.html" target="_top" xlink:title=" ">
<polygon fill="white" stroke="#666666" points="1270.88,-41.75 1103.38,-41.75 1103.38,0 1270.88,0 1270.88,-41.75"/>
<text text-anchor="start" x="1111.38" y="-28.25" font-family="Helvetica,sans-Serif" font-size="10.00">/github/workspace/dev</text>
<text text-anchor="start" x="1111.38" y="-17" font-family="Helvetica,sans-Serif" font-size="10.00">_area/sourcecode/appdal</text>
<text text-anchor="middle" x="1187.12" y="-5.75" font-family="Helvetica,sans-Serif" font-size="10.00">/src/HSIEventToTCApplication.cpp</text>
</a>
</g>
</g>
<!-- Node1&#45;&gt;Node9 -->
<g id="edge8_Node000001_Node000009" class="edge">
<title>Node1&#45;&gt;Node9</title>
<g id="a_edge8_Node000001_Node000009"><a xlink:title=" ">
<path fill="none" stroke="#63b8ff" d="M953.71,-75.13C1001.2,-64.3 1057.55,-51.44 1102.98,-41.07"/>
<polygon fill="#63b8ff" stroke="#63b8ff" points="953.23,-71.65 944.26,-77.29 954.79,-78.47 953.23,-71.65"/>
</a>
</g>
</g>
<!-- Node10 -->
<g id="Node000010" class="node">
<title>Node10</title>
<g id="a_Node000010"><a xlink:href="sourcecode_2appdal_2src_2MLTApplication_8cpp.html" target="_top" xlink:title=" ">
<polygon fill="white" stroke="#666666" points="1413.5,-41.75 1288.75,-41.75 1288.75,0 1413.5,0 1413.5,-41.75"/>
<text text-anchor="start" x="1296.75" y="-28.25" font-family="Helvetica,sans-Serif" font-size="10.00">/github/workspace/dev</text>
<text text-anchor="start" x="1296.75" y="-17" font-family="Helvetica,sans-Serif" font-size="10.00">_area/sourcecode/appdal</text>
<text text-anchor="middle" x="1351.12" y="-5.75" font-family="Helvetica,sans-Serif" font-size="10.00">/src/MLTApplication.cpp</text>
</a>
</g>
</g>
<!-- Node1&#45;&gt;Node10 -->
<g id="edge9_Node000001_Node000010" class="edge">
<title>Node1&#45;&gt;Node10</title>
<g id="a_edge9_Node000001_Node000010"><a xlink:title=" ">
<path fill="none" stroke="#63b8ff" d="M954.22,-88.63C1040.78,-79.81 1169.53,-64.38 1280.12,-41.75 1282.88,-41.19 1285.69,-40.57 1288.52,-39.92"/>
<polygon fill="#63b8ff" stroke="#63b8ff" points="953.93,-85.14 944.33,-89.62 954.63,-92.1 953.93,-85.14"/>
</a>
</g>
</g>
<!-- Node11 -->
<g id="Node000011" class="node">
<title>Node11</title>
<g id="a_Node000011"><a xlink:href="sourcecode_2appdal_2src_2ReadoutApplication_8cpp.html" target="_top" xlink:title=" ">
<polygon fill="white" stroke="#666666" points="1568.88,-41.75 1431.38,-41.75 1431.38,0 1568.88,0 1568.88,-41.75"/>
<text text-anchor="start" x="1439.38" y="-28.25" font-family="Helvetica,sans-Serif" font-size="10.00">/github/workspace/dev</text>
<text text-anchor="start" x="1439.38" y="-17" font-family="Helvetica,sans-Serif" font-size="10.00">_area/sourcecode/appdal</text>
<text text-anchor="middle" x="1500.12" y="-5.75" font-family="Helvetica,sans-Serif" font-size="10.00">/src/ReadoutApplication.cpp</text>
</a>
</g>
</g>
<!-- Node1&#45;&gt;Node11 -->
<g id="edge10_Node000001_Node000011" class="edge">
<title>Node1&#45;&gt;Node11</title>
<g id="a_edge10_Node000001_Node000011"><a xlink:title=" ">
<path fill="none" stroke="#63b8ff" d="M954.54,-92.39C1068.23,-85.36 1259.65,-70.29 1422.12,-41.75 1425.02,-41.24 1427.96,-40.68 1430.92,-40.09"/>
<polygon fill="#63b8ff" stroke="#63b8ff" points="954.38,-88.9 944.61,-93 954.81,-95.88 954.38,-88.9"/>
</a>
</g>
</g>
<!-- Node12 -->
<g id="Node000012" class="node">
<title>Node12</title>
<g id="a_Node000012"><a xlink:href="sourcecode_2appdal_2src_2TriggerApplication_8cpp.html" target="_top" xlink:title=" ">
<polygon fill="white" stroke="#666666" points="1718.88,-41.75 1587.38,-41.75 1587.38,0 1718.88,0 1718.88,-41.75"/>
<text text-anchor="start" x="1595.38" y="-28.25" font-family="Helvetica,sans-Serif" font-size="10.00">/github/workspace/dev</text>
<text text-anchor="start" x="1595.38" y="-17" font-family="Helvetica,sans-Serif" font-size="10.00">_area/sourcecode/appdal</text>
<text text-anchor="middle" x="1653.12" y="-5.75" font-family="Helvetica,sans-Serif" font-size="10.00">/src/TriggerApplication.cpp</text>
</a>
</g>
</g>
<!-- Node1&#45;&gt;Node12 -->
<g id="edge11_Node000001_Node000012" class="edge">
<title>Node1&#45;&gt;Node12</title>
<g id="a_edge11_Node000001_Node000012"><a xlink:title=" ">
<path fill="none" stroke="#63b8ff" d="M954.21,-95.66C1094.15,-91.6 1357.28,-79.23 1578.12,-41.75 1581.05,-41.25 1584.02,-40.7 1587.01,-40.09"/>
<polygon fill="#63b8ff" stroke="#63b8ff" points="954.53,-92.15 944.63,-95.93 954.73,-99.15 954.53,-92.15"/>
</a>
</g>
</g>
</g>
</svg>
