<?xml version="1.0" encoding="UTF-8" standalone="no"?>
<!DOCTYPE svg PUBLIC "-//W3C//DTD SVG 1.1//EN"
 "http://www.w3.org/Graphics/SVG/1.1/DTD/svg11.dtd">
<!-- Generated by graphviz version 9.0.0 (20230911.1827)
 -->
<!-- Title: /github/workspace/dev_area/build/appdal/codegen/include/appdal/TAAlgorithm.hpp Pages: 1 -->
<svg width="1289pt" height="228pt"
 viewBox="0.00 0.00 1288.75 227.75" xmlns="http://www.w3.org/2000/svg" xmlns:xlink="http://www.w3.org/1999/xlink">
<g id="graph0" class="graph" transform="scale(1 1) rotate(0) translate(4 223.75)">
<title>/github/workspace/dev_area/build/appdal/codegen/include/appdal/TAAlgorithm.hpp</title>
<!-- Node1 -->
<g id="Node000001" class="node">
<title>Node1</title>
<g id="a_Node000001"><a xlink:title=" ">
<polygon fill="#999999" stroke="#666666" points="706.25,-219.75 550,-219.75 550,-178 706.25,-178 706.25,-219.75"/>
<text text-anchor="start" x="558" y="-206.25" font-family="Helvetica,sans-Serif" font-size="10.00">/github/workspace/dev</text>
<text text-anchor="start" x="558" y="-195" font-family="Helvetica,sans-Serif" font-size="10.00">_area/build/appdal/codegen</text>
<text text-anchor="middle" x="628.12" y="-183.75" font-family="Helvetica,sans-Serif" font-size="10.00">/include/appdal/TAAlgorithm.hpp</text>
</a>
</g>
</g>
<!-- Node2 -->
<g id="Node000002" class="node">
<title>Node2</title>
<g id="a_Node000002"><a xlink:href="include_2appdal_2TriggerActivityMakerHorizontalMuonPlugin_8hpp.html" target="_top" xlink:title=" ">
<polygon fill="white" stroke="#666666" points="236.88,-142 63.38,-142 63.38,-89 236.88,-89 236.88,-142"/>
<text text-anchor="start" x="71.38" y="-128.5" font-family="Helvetica,sans-Serif" font-size="10.00">/github/workspace/dev</text>
<text text-anchor="start" x="71.38" y="-117.25" font-family="Helvetica,sans-Serif" font-size="10.00">_area/build/appdal/codegen</text>
<text text-anchor="start" x="71.38" y="-106" font-family="Helvetica,sans-Serif" font-size="10.00">/include/appdal/TriggerActivityMaker</text>
<text text-anchor="middle" x="150.12" y="-94.75" font-family="Helvetica,sans-Serif" font-size="10.00">HorizontalMuonPlugin.hpp</text>
</a>
</g>
</g>
<!-- Node1&#45;&gt;Node2 -->
<g id="edge1_Node000001_Node000002" class="edge">
<title>Node1&#45;&gt;Node2</title>
<g id="a_edge1_Node000001_Node000002"><a xlink:title=" ">
<path fill="none" stroke="#63b8ff" d="M538.71,-187.19C462.05,-177.41 348.84,-161.52 251.12,-142 246.6,-141.1 241.98,-140.12 237.32,-139.09"/>
<polygon fill="#63b8ff" stroke="#63b8ff" points="537.89,-190.61 548.25,-188.4 538.77,-183.67 537.89,-190.61"/>
</a>
</g>
</g>
<!-- Node4 -->
<g id="Node000004" class="node">
<title>Node4</title>
<g id="a_Node000004"><a xlink:href="dump__dunedaq____appdal_8cpp.html" target="_top" xlink:title=" ">
<polygon fill="white" stroke="#666666" points="344.38,-47.38 185.88,-47.38 185.88,-5.62 344.38,-5.62 344.38,-47.38"/>
<text text-anchor="start" x="193.88" y="-33.88" font-family="Helvetica,sans-Serif" font-size="10.00">/github/workspace/dev</text>
<text text-anchor="start" x="193.88" y="-22.62" font-family="Helvetica,sans-Serif" font-size="10.00">_area/build/appdal/codegen</text>
<text text-anchor="middle" x="265.12" y="-11.38" font-family="Helvetica,sans-Serif" font-size="10.00">/src/dump_dunedaq__appdal.cpp</text>
</a>
</g>
</g>
<!-- Node1&#45;&gt;Node4 -->
<g id="edge11_Node000001_Node000004" class="edge">
<title>Node1&#45;&gt;Node4</title>
<g id="a_edge11_Node000001_Node000004"><a xlink:title=" ">
<path fill="none" stroke="#63b8ff" d="M538.39,-194.87C448.63,-189.91 319.01,-176.76 284.12,-142 259.29,-117.25 259.44,-73.25 262.08,-47.6"/>
<polygon fill="#63b8ff" stroke="#63b8ff" points="538,-198.36 548.17,-195.39 538.37,-191.37 538,-198.36"/>
</a>
</g>
</g>
<!-- Node5 -->
<g id="Node000005" class="node">
<title>Node5</title>
<g id="a_Node000005"><a xlink:href="include_2appdal_2TriggerActivityMakerPrescalePlugin_8hpp.html" target="_top" xlink:title=" ">
<polygon fill="white" stroke="#666666" points="466.88,-142 293.38,-142 293.38,-89 466.88,-89 466.88,-142"/>
<text text-anchor="start" x="301.38" y="-128.5" font-family="Helvetica,sans-Serif" font-size="10.00">/github/workspace/dev</text>
<text text-anchor="start" x="301.38" y="-117.25" font-family="Helvetica,sans-Serif" font-size="10.00">_area/build/appdal/codegen</text>
<text text-anchor="start" x="301.38" y="-106" font-family="Helvetica,sans-Serif" font-size="10.00">/include/appdal/TriggerActivityMaker</text>
<text text-anchor="middle" x="380.12" y="-94.75" font-family="Helvetica,sans-Serif" font-size="10.00">PrescalePlugin.hpp</text>
</a>
</g>
</g>
<!-- Node1&#45;&gt;Node5 -->
<g id="edge4_Node000001_Node000005" class="edge">
<title>Node1&#45;&gt;Node5</title>
<g id="a_edge4_Node000001_Node000005"><a xlink:title=" ">
<path fill="none" stroke="#63b8ff" d="M555.29,-173.98C525.06,-164.06 489.92,-152.53 459.08,-142.41"/>
<polygon fill="#63b8ff" stroke="#63b8ff" points="554.15,-177.29 564.75,-177.08 556.34,-170.64 554.15,-177.29"/>
</a>
</g>
</g>
<!-- Node7 -->
<g id="Node000007" class="node">
<title>Node7</title>
<g id="a_Node000007"><a xlink:href="TAAlgorithm_8cpp.html" target="_top" xlink:title=" ">
<polygon fill="white" stroke="#666666" points="619.38,-136.38 484.88,-136.38 484.88,-94.62 619.38,-94.62 619.38,-136.38"/>
<text text-anchor="start" x="492.88" y="-122.88" font-family="Helvetica,sans-Serif" font-size="10.00">/github/workspace/dev</text>
<text text-anchor="start" x="492.88" y="-111.62" font-family="Helvetica,sans-Serif" font-size="10.00">_area/build/appdal/codegen</text>
<text text-anchor="middle" x="552.12" y="-100.38" font-family="Helvetica,sans-Serif" font-size="10.00">/src/TAAlgorithm.cpp</text>
</a>
</g>
</g>
<!-- Node1&#45;&gt;Node7 -->
<g id="edge7_Node000001_Node000007" class="edge">
<title>Node1&#45;&gt;Node7</title>
<g id="a_edge7_Node000001_Node000007"><a xlink:title=" ">
<path fill="none" stroke="#63b8ff" d="M601.56,-169.43C591.47,-158.63 580.19,-146.55 570.96,-136.67"/>
<polygon fill="#63b8ff" stroke="#63b8ff" points="598.92,-171.73 608.31,-176.65 604.04,-166.96 598.92,-171.73"/>
</a>
</g>
</g>
<!-- Node8 -->
<g id="Node000008" class="node">
<title>Node8</title>
<g id="a_Node000008"><a xlink:href="TPDataProcessor_8cpp.html" target="_top" xlink:title=" ">
<polygon fill="white" stroke="#666666" points="772.38,-136.38 637.88,-136.38 637.88,-94.62 772.38,-94.62 772.38,-136.38"/>
<text text-anchor="start" x="645.88" y="-122.88" font-family="Helvetica,sans-Serif" font-size="10.00">/github/workspace/dev</text>
<text text-anchor="start" x="645.88" y="-111.62" font-family="Helvetica,sans-Serif" font-size="10.00">_area/build/appdal/codegen</text>
<text text-anchor="middle" x="705.12" y="-100.38" font-family="Helvetica,sans-Serif" font-size="10.00">/src/TPDataProcessor.cpp</text>
</a>
</g>
</g>
<!-- Node1&#45;&gt;Node8 -->
<g id="edge8_Node000001_Node000008" class="edge">
<title>Node1&#45;&gt;Node8</title>
<g id="a_edge8_Node000001_Node000008"><a xlink:title=" ">
<path fill="none" stroke="#63b8ff" d="M655.04,-169.43C665.26,-158.63 676.69,-146.55 686.04,-136.67"/>
<polygon fill="#63b8ff" stroke="#63b8ff" points="652.53,-166.99 648.2,-176.66 657.61,-171.8 652.53,-166.99"/>
</a>
</g>
</g>
<!-- Node9 -->
<g id="Node000009" class="node">
<title>Node9</title>
<g id="a_Node000009"><a xlink:href="src_2TriggerActivityMakerHorizontalMuonPlugin_8hpp.html" target="_top" xlink:title=" ">
<polygon fill="white" stroke="#666666" points="958.25,-142 790,-142 790,-89 958.25,-89 958.25,-142"/>
<text text-anchor="start" x="798" y="-128.5" font-family="Helvetica,sans-Serif" font-size="10.00">/github/workspace/dev</text>
<text text-anchor="start" x="798" y="-117.25" font-family="Helvetica,sans-Serif" font-size="10.00">_area/build/appdal/codegen</text>
<text text-anchor="start" x="798" y="-106" font-family="Helvetica,sans-Serif" font-size="10.00">/src/TriggerActivityMakerHorizontal</text>
<text text-anchor="middle" x="874.12" y="-94.75" font-family="Helvetica,sans-Serif" font-size="10.00">MuonPlugin.hpp</text>
</a>
</g>
</g>
<!-- Node1&#45;&gt;Node9 -->
<g id="edge9_Node000001_Node000009" class="edge">
<title>Node1&#45;&gt;Node9</title>
<g id="a_edge9_Node000001_Node000009"><a xlink:title=" ">
<path fill="none" stroke="#63b8ff" d="M700.37,-173.98C730.36,-164.06 765.21,-152.53 795.81,-142.41"/>
<polygon fill="#63b8ff" stroke="#63b8ff" points="699.4,-170.61 691,-177.08 701.6,-177.26 699.4,-170.61"/>
</a>
</g>
</g>
<!-- Node10 -->
<g id="Node000010" class="node">
<title>Node10</title>
<g id="a_Node000010"><a xlink:href="src_2TriggerActivityMakerPrescalePlugin_8hpp.html" target="_top" xlink:title=" ">
<polygon fill="white" stroke="#666666" points="1139.62,-142 976.62,-142 976.62,-89 1139.62,-89 1139.62,-142"/>
<text text-anchor="start" x="984.62" y="-128.5" font-family="Helvetica,sans-Serif" font-size="10.00">/github/workspace/dev</text>
<text text-anchor="start" x="984.62" y="-117.25" font-family="Helvetica,sans-Serif" font-size="10.00">_area/build/appdal/codegen</text>
<text text-anchor="start" x="984.62" y="-106" font-family="Helvetica,sans-Serif" font-size="10.00">/src/TriggerActivityMakerPrescale</text>
<text text-anchor="middle" x="1058.12" y="-94.75" font-family="Helvetica,sans-Serif" font-size="10.00">Plugin.hpp</text>
</a>
</g>
</g>
<!-- Node1&#45;&gt;Node10 -->
<g id="edge10_Node000001_Node000010" class="edge">
<title>Node1&#45;&gt;Node10</title>
<g id="a_edge10_Node000001_Node000010"><a xlink:title=" ">
<path fill="none" stroke="#63b8ff" d="M717.88,-185.83C786.51,-175.95 883.28,-160.6 967.12,-142 970.17,-141.32 973.26,-140.61 976.38,-139.86"/>
<polygon fill="#63b8ff" stroke="#63b8ff" points="717.59,-182.33 708.19,-187.21 718.58,-189.26 717.59,-182.33"/>
</a>
</g>
</g>
<!-- Node11 -->
<g id="Node000011" class="node">
<title>Node11</title>
<g id="a_Node000011"><a xlink:href="TPProcessor_8cpp.html" target="_top" xlink:title=" ">
<polygon fill="white" stroke="#666666" points="1280.75,-136.38 1157.5,-136.38 1157.5,-94.62 1280.75,-94.62 1280.75,-136.38"/>
<text text-anchor="start" x="1165.5" y="-122.88" font-family="Helvetica,sans-Serif" font-size="10.00">/github/workspace/dev</text>
<text text-anchor="start" x="1165.5" y="-111.62" font-family="Helvetica,sans-Serif" font-size="10.00">_area/sourcecode/trigger</text>
<text text-anchor="middle" x="1219.12" y="-100.38" font-family="Helvetica,sans-Serif" font-size="10.00">/src/TPProcessor.cpp</text>
</a>
</g>
</g>
<!-- Node1&#45;&gt;Node11 -->
<g id="edge12_Node000001_Node000011" class="edge">
<title>Node1&#45;&gt;Node11</title>
<g id="a_edge12_Node000001_Node000011"><a xlink:title=" ">
<path fill="none" stroke="#63b8ff" d="M717.8,-194.85C822.5,-189.81 1000.29,-176.55 1149.12,-142 1155.17,-140.6 1161.41,-138.82 1167.56,-136.87"/>
<polygon fill="#63b8ff" stroke="#63b8ff" points="717.68,-191.35 707.85,-195.32 718.01,-198.35 717.68,-191.35"/>
</a>
</g>
</g>
<!-- Node3 -->
<g id="Node000003" class="node">
<title>Node3</title>
<g id="a_Node000003"><a xlink:href="TriggerActivityMakerHorizontalMuonPlugin_8cpp.html" target="_top" xlink:title=" ">
<polygon fill="white" stroke="#666666" points="168.25,-53 0,-53 0,0 168.25,0 168.25,-53"/>
<text text-anchor="start" x="8" y="-39.5" font-family="Helvetica,sans-Serif" font-size="10.00">/github/workspace/dev</text>
<text text-anchor="start" x="8" y="-28.25" font-family="Helvetica,sans-Serif" font-size="10.00">_area/build/appdal/codegen</text>
<text text-anchor="start" x="8" y="-17" font-family="Helvetica,sans-Serif" font-size="10.00">/src/TriggerActivityMakerHorizontal</text>
<text text-anchor="middle" x="84.12" y="-5.75" font-family="Helvetica,sans-Serif" font-size="10.00">MuonPlugin.cpp</text>
</a>
</g>
</g>
<!-- Node2&#45;&gt;Node3 -->
<g id="edge2_Node000002_Node000003" class="edge">
<title>Node2&#45;&gt;Node3</title>
<g id="a_edge2_Node000002_Node000003"><a xlink:title=" ">
<path fill="none" stroke="#63b8ff" d="M123.85,-79.87C117.11,-70.99 109.99,-61.59 103.66,-53.25"/>
<polygon fill="#63b8ff" stroke="#63b8ff" points="120.93,-81.81 129.77,-87.66 126.51,-77.58 120.93,-81.81"/>
</a>
</g>
</g>
<!-- Node2&#45;&gt;Node4 -->
<g id="edge3_Node000002_Node000004" class="edge">
<title>Node2&#45;&gt;Node4</title>
<g id="a_edge3_Node000002_Node000004"><a xlink:title=" ">
<path fill="none" stroke="#63b8ff" d="M193.09,-81.99C208.35,-70.45 225.06,-57.81 238.55,-47.61"/>
<polygon fill="#63b8ff" stroke="#63b8ff" points="191.39,-78.9 185.52,-87.72 195.61,-84.48 191.39,-78.9"/>
</a>
</g>
</g>
<!-- Node5&#45;&gt;Node4 -->
<g id="edge6_Node000005_Node000004" class="edge">
<title>Node5&#45;&gt;Node4</title>
<g id="a_edge6_Node000005_Node000004"><a xlink:title=" ">
<path fill="none" stroke="#63b8ff" d="M337.16,-81.99C321.9,-70.45 305.19,-57.81 291.7,-47.61"/>
<polygon fill="#63b8ff" stroke="#63b8ff" points="334.64,-84.48 344.73,-87.72 338.86,-78.9 334.64,-84.48"/>
</a>
</g>
</g>
<!-- Node6 -->
<g id="Node000006" class="node">
<title>Node6</title>
<g id="a_Node000006"><a xlink:href="TriggerActivityMakerPrescalePlugin_8cpp.html" target="_top" xlink:title=" ">
<polygon fill="white" stroke="#666666" points="525.62,-53 362.62,-53 362.62,0 525.62,0 525.62,-53"/>
<text text-anchor="start" x="370.62" y="-39.5" font-family="Helvetica,sans-Serif" font-size="10.00">/github/workspace/dev</text>
<text text-anchor="start" x="370.62" y="-28.25" font-family="Helvetica,sans-Serif" font-size="10.00">_area/build/appdal/codegen</text>
<text text-anchor="start" x="370.62" y="-17" font-family="Helvetica,sans-Serif" font-size="10.00">/src/TriggerActivityMakerPrescale</text>
<text text-anchor="middle" x="444.12" y="-5.75" font-family="Helvetica,sans-Serif" font-size="10.00">Plugin.cpp</text>
</a>
</g>
</g>
<!-- Node5&#45;&gt;Node6 -->
<g id="edge5_Node000005_Node000006" class="edge">
<title>Node5&#45;&gt;Node6</title>
<g id="a_edge5_Node000005_Node000006"><a xlink:title=" ">
<path fill="none" stroke="#63b8ff" d="M405.6,-79.87C412.13,-70.99 419.05,-61.59 425.18,-53.25"/>
<polygon fill="#63b8ff" stroke="#63b8ff" points="402.98,-77.52 399.88,-87.65 408.62,-81.67 402.98,-77.52"/>
</a>
</g>
</g>
</g>
</svg>
