<?xml version="1.0" encoding="UTF-8" standalone="no"?>
<!DOCTYPE svg PUBLIC "-//W3C//DTD SVG 1.1//EN"
 "http://www.w3.org/Graphics/SVG/1.1/DTD/svg11.dtd">
<!-- Generated by graphviz version 9.0.0 (20230911.1827)
 -->
<!-- Title: /github/workspace/dev_area/build/appdal/codegen/include/appdal/TPStreamWriterApplication.hpp Pages: 1 -->
<svg width="669pt" height="128pt"
 viewBox="0.00 0.00 668.50 127.50" xmlns="http://www.w3.org/2000/svg" xmlns:xlink="http://www.w3.org/1999/xlink">
<g id="graph0" class="graph" transform="scale(1 1) rotate(0) translate(4 123.5)">
<title>/github/workspace/dev_area/build/appdal/codegen/include/appdal/TPStreamWriterApplication.hpp</title>
<!-- Node1 -->
<g id="Node000001" class="node">
<title>Node1</title>
<g id="a_Node000001"><a xlink:title=" ">
<polygon fill="#999999" stroke="#666666" points="461.62,-119.5 241.62,-119.5 241.62,-77.75 461.62,-77.75 461.62,-119.5"/>
<text text-anchor="start" x="249.62" y="-106" font-family="Helvetica,sans-Serif" font-size="10.00">/github/workspace/dev</text>
<text text-anchor="start" x="249.62" y="-94.75" font-family="Helvetica,sans-Serif" font-size="10.00">_area/build/appdal/codegen</text>
<text text-anchor="middle" x="351.62" y="-83.5" font-family="Helvetica,sans-Serif" font-size="10.00">/include/appdal/TPStreamWriterApplication.hpp</text>
</a>
</g>
</g>
<!-- Node2 -->
<g id="Node000002" class="node">
<title>Node2</title>
<g id="a_Node000002"><a xlink:href="TPStreamWriterApplication_8cpp.html" target="_top" xlink:title=" ">
<polygon fill="white" stroke="#666666" points="171.25,-41.75 0,-41.75 0,0 171.25,0 171.25,-41.75"/>
<text text-anchor="start" x="8" y="-28.25" font-family="Helvetica,sans-Serif" font-size="10.00">/github/workspace/dev</text>
<text text-anchor="start" x="8" y="-17" font-family="Helvetica,sans-Serif" font-size="10.00">_area/build/appdal/codegen</text>
<text text-anchor="middle" x="85.62" y="-5.75" font-family="Helvetica,sans-Serif" font-size="10.00">/src/TPStreamWriterApplication.cpp</text>
</a>
</g>
</g>
<!-- Node1&#45;&gt;Node2 -->
<g id="edge1_Node000001_Node000002" class="edge">
<title>Node1&#45;&gt;Node2</title>
<g id="a_edge1_Node000001_Node000002"><a xlink:title=" ">
<path fill="none" stroke="#63b8ff" d="M269.39,-74.21C233.46,-63.98 191.72,-52.09 157.1,-42.23"/>
<polygon fill="#63b8ff" stroke="#63b8ff" points="268.31,-77.54 278.89,-76.91 270.23,-70.81 268.31,-77.54"/>
</a>
</g>
</g>
<!-- Node3 -->
<g id="Node000003" class="node">
<title>Node3</title>
<g id="a_Node000003"><a xlink:href="dump__dunedaq____appdal_8cpp.html" target="_top" xlink:title=" ">
<polygon fill="white" stroke="#666666" points="347.88,-41.75 189.38,-41.75 189.38,0 347.88,0 347.88,-41.75"/>
<text text-anchor="start" x="197.38" y="-28.25" font-family="Helvetica,sans-Serif" font-size="10.00">/github/workspace/dev</text>
<text text-anchor="start" x="197.38" y="-17" font-family="Helvetica,sans-Serif" font-size="10.00">_area/build/appdal/codegen</text>
<text text-anchor="middle" x="268.62" y="-5.75" font-family="Helvetica,sans-Serif" font-size="10.00">/src/dump_dunedaq__appdal.cpp</text>
</a>
</g>
</g>
<!-- Node1&#45;&gt;Node3 -->
<g id="edge2_Node000001_Node000003" class="edge">
<title>Node1&#45;&gt;Node3</title>
<g id="a_edge2_Node000001_Node000003"><a xlink:title=" ">
<path fill="none" stroke="#63b8ff" d="M320.93,-69.61C310.99,-60.53 300.15,-50.64 290.93,-42.23"/>
<polygon fill="#63b8ff" stroke="#63b8ff" points="318.52,-72.15 328.26,-76.31 323.24,-66.98 318.52,-72.15"/>
</a>
</g>
</g>
<!-- Node4 -->
<g id="Node000004" class="node">
<title>Node4</title>
<g id="a_Node000004"><a xlink:href="appdal_2pybindsrc_2dal__methods_8cpp.html" target="_top" xlink:title=" ">
<polygon fill="white" stroke="#666666" points="503,-41.75 366.25,-41.75 366.25,0 503,0 503,-41.75"/>
<text text-anchor="start" x="374.25" y="-28.25" font-family="Helvetica,sans-Serif" font-size="10.00">/github/workspace/dev</text>
<text text-anchor="start" x="374.25" y="-17" font-family="Helvetica,sans-Serif" font-size="10.00">_area/sourcecode/appdal</text>
<text text-anchor="middle" x="434.62" y="-5.75" font-family="Helvetica,sans-Serif" font-size="10.00">/pybindsrc/dal_methods.cpp</text>
</a>
</g>
</g>
<!-- Node1&#45;&gt;Node4 -->
<g id="edge3_Node000001_Node000004" class="edge">
<title>Node1&#45;&gt;Node4</title>
<g id="a_edge3_Node000001_Node000004"><a xlink:title=" ">
<path fill="none" stroke="#63b8ff" d="M382.32,-69.61C392.26,-60.53 403.1,-50.64 412.32,-42.23"/>
<polygon fill="#63b8ff" stroke="#63b8ff" points="380.01,-66.98 374.99,-76.31 384.73,-72.15 380.01,-66.98"/>
</a>
</g>
</g>
<!-- Node5 -->
<g id="Node000005" class="node">
<title>Node5</title>
<g id="a_Node000005"><a xlink:href="TPWriterApplication_8cpp.html" target="_top" xlink:title=" ">
<polygon fill="white" stroke="#666666" points="660.5,-41.75 520.75,-41.75 520.75,0 660.5,0 660.5,-41.75"/>
<text text-anchor="start" x="528.75" y="-28.25" font-family="Helvetica,sans-Serif" font-size="10.00">/github/workspace/dev</text>
<text text-anchor="start" x="528.75" y="-17" font-family="Helvetica,sans-Serif" font-size="10.00">_area/sourcecode/appdal</text>
<text text-anchor="middle" x="590.62" y="-5.75" font-family="Helvetica,sans-Serif" font-size="10.00">/src/TPWriterApplication.cpp</text>
</a>
</g>
</g>
<!-- Node1&#45;&gt;Node5 -->
<g id="edge4_Node000001_Node000005" class="edge">
<title>Node1&#45;&gt;Node5</title>
<g id="a_edge4_Node000001_Node000005"><a xlink:title=" ">
<path fill="none" stroke="#63b8ff" d="M426.35,-73.94C458.44,-63.77 495.57,-52 526.4,-42.23"/>
<polygon fill="#63b8ff" stroke="#63b8ff" points="425.59,-70.51 417.12,-76.87 427.71,-77.18 425.59,-70.51"/>
</a>
</g>
</g>
</g>
</svg>
