<?xml version="1.0" encoding="UTF-8" standalone="no"?>
<!DOCTYPE svg PUBLIC "-//W3C//DTD SVG 1.1//EN"
 "http://www.w3.org/Graphics/SVG/1.1/DTD/svg11.dtd">
<!-- Generated by graphviz version 9.0.0 (20230911.1827)
 -->
<!-- Title: /github/workspace/dev_area/build/coredal/codegen/include/coredal/Jsonable.hpp Pages: 1 -->
<svg width="2850pt" height="306pt"
 viewBox="0.00 0.00 2850.38 305.50" xmlns="http://www.w3.org/2000/svg" xmlns:xlink="http://www.w3.org/1999/xlink">
<g id="graph0" class="graph" transform="scale(1 1) rotate(0) translate(4 301.5)">
<title>/github/workspace/dev_area/build/coredal/codegen/include/coredal/Jsonable.hpp</title>
<!-- Node1 -->
<g id="Node000001" class="node">
<title>Node1</title>
<g id="a_Node000001"><a xlink:title=" ">
<polygon fill="#999999" stroke="#666666" points="2365.62,-297.5 2221.38,-297.5 2221.38,-255.75 2365.62,-255.75 2365.62,-297.5"/>
<text text-anchor="start" x="2229.38" y="-284" font-family="Helvetica,sans-Serif" font-size="10.00">/github/workspace/dev</text>
<text text-anchor="start" x="2229.38" y="-272.75" font-family="Helvetica,sans-Serif" font-size="10.00">_area/build/coredal/codegen</text>
<text text-anchor="middle" x="2293.5" y="-261.5" font-family="Helvetica,sans-Serif" font-size="10.00">/include/coredal/Jsonable.hpp</text>
</a>
</g>
</g>
<!-- Node2 -->
<g id="Node000002" class="node">
<title>Node2</title>
<g id="a_Node000002"><a xlink:href="include_2appdal_2TAAlgorithm_8hpp.html" target="_top" xlink:title=" ">
<polygon fill="white" stroke="#666666" points="793.62,-219.75 637.38,-219.75 637.38,-178 793.62,-178 793.62,-219.75"/>
<text text-anchor="start" x="645.38" y="-206.25" font-family="Helvetica,sans-Serif" font-size="10.00">/github/workspace/dev</text>
<text text-anchor="start" x="645.38" y="-195" font-family="Helvetica,sans-Serif" font-size="10.00">_area/build/appdal/codegen</text>
<text text-anchor="middle" x="715.5" y="-183.75" font-family="Helvetica,sans-Serif" font-size="10.00">/include/appdal/TAAlgorithm.hpp</text>
</a>
</g>
</g>
<!-- Node1&#45;&gt;Node2 -->
<g id="edge1_Node000001_Node000002" class="edge">
<title>Node1&#45;&gt;Node2</title>
<g id="a_edge1_Node000001_Node000002"><a xlink:title=" ">
<path fill="none" stroke="#63b8ff" d="M2209.59,-271.6C1934.24,-258.38 1060.69,-216.45 793.74,-203.63"/>
<polygon fill="#63b8ff" stroke="#63b8ff" points="2209.41,-275.09 2219.56,-272.08 2209.74,-268.1 2209.41,-275.09"/>
</a>
</g>
</g>
<!-- Node13 -->
<g id="Node000013" class="node">
<title>Node13</title>
<g id="a_Node000013"><a xlink:href="include_2appdal_2TCAlgorithm_8hpp.html" target="_top" xlink:title=" ">
<polygon fill="white" stroke="#666666" points="2055.62,-219.75 1899.38,-219.75 1899.38,-178 2055.62,-178 2055.62,-219.75"/>
<text text-anchor="start" x="1907.38" y="-206.25" font-family="Helvetica,sans-Serif" font-size="10.00">/github/workspace/dev</text>
<text text-anchor="start" x="1907.38" y="-195" font-family="Helvetica,sans-Serif" font-size="10.00">_area/build/appdal/codegen</text>
<text text-anchor="middle" x="1977.5" y="-183.75" font-family="Helvetica,sans-Serif" font-size="10.00">/include/appdal/TCAlgorithm.hpp</text>
</a>
</g>
</g>
<!-- Node1&#45;&gt;Node13 -->
<g id="edge14_Node000001_Node000013" class="edge">
<title>Node1&#45;&gt;Node13</title>
<g id="a_edge14_Node000001_Node000013"><a xlink:title=" ">
<path fill="none" stroke="#63b8ff" d="M2210.08,-255.63C2162.37,-244.19 2102.89,-229.93 2056.02,-218.7"/>
<polygon fill="#63b8ff" stroke="#63b8ff" points="2208.99,-258.97 2219.53,-257.89 2210.62,-252.16 2208.99,-258.97"/>
</a>
</g>
</g>
<!-- Node26 -->
<g id="Node000026" class="node">
<title>Node26</title>
<g id="a_Node000026"><a xlink:href="src_2TAAlgorithm_8hpp.html" target="_top" xlink:title=" ">
<polygon fill="white" stroke="#666666" points="2207.75,-219.75 2073.25,-219.75 2073.25,-178 2207.75,-178 2207.75,-219.75"/>
<text text-anchor="start" x="2081.25" y="-206.25" font-family="Helvetica,sans-Serif" font-size="10.00">/github/workspace/dev</text>
<text text-anchor="start" x="2081.25" y="-195" font-family="Helvetica,sans-Serif" font-size="10.00">_area/build/appdal/codegen</text>
<text text-anchor="middle" x="2140.5" y="-183.75" font-family="Helvetica,sans-Serif" font-size="10.00">/src/TAAlgorithm.hpp</text>
</a>
</g>
</g>
<!-- Node1&#45;&gt;Node26 -->
<g id="edge31_Node000001_Node000026" class="edge">
<title>Node1&#45;&gt;Node26</title>
<g id="a_edge31_Node000001_Node000026"><a xlink:title=" ">
<path fill="none" stroke="#63b8ff" d="M2242.42,-250.34C2222.65,-240.55 2200.32,-229.49 2181.61,-220.23"/>
<polygon fill="#63b8ff" stroke="#63b8ff" points="2240.63,-253.35 2251.14,-254.65 2243.73,-247.08 2240.63,-253.35"/>
</a>
</g>
</g>
<!-- Node27 -->
<g id="Node000027" class="node">
<title>Node27</title>
<g id="a_Node000027"><a xlink:href="src_2TCAlgorithm_8hpp.html" target="_top" xlink:title=" ">
<polygon fill="white" stroke="#666666" points="2360.75,-219.75 2226.25,-219.75 2226.25,-178 2360.75,-178 2360.75,-219.75"/>
<text text-anchor="start" x="2234.25" y="-206.25" font-family="Helvetica,sans-Serif" font-size="10.00">/github/workspace/dev</text>
<text text-anchor="start" x="2234.25" y="-195" font-family="Helvetica,sans-Serif" font-size="10.00">_area/build/appdal/codegen</text>
<text text-anchor="middle" x="2293.5" y="-183.75" font-family="Helvetica,sans-Serif" font-size="10.00">/src/TCAlgorithm.hpp</text>
</a>
</g>
</g>
<!-- Node1&#45;&gt;Node27 -->
<g id="edge32_Node000001_Node000027" class="edge">
<title>Node1&#45;&gt;Node27</title>
<g id="a_edge32_Node000001_Node000027"><a xlink:title=" ">
<path fill="none" stroke="#63b8ff" d="M2293.5,-244C2293.5,-235.96 2293.5,-227.54 2293.5,-220.23"/>
<polygon fill="#63b8ff" stroke="#63b8ff" points="2290,-243.81 2293.5,-253.81 2297,-243.81 2290,-243.81"/>
</a>
</g>
</g>
<!-- Node28 -->
<g id="Node000028" class="node">
<title>Node28</title>
<g id="a_Node000028"><a xlink:href="Jsonable_8cpp.html" target="_top" xlink:title=" ">
<polygon fill="white" stroke="#666666" points="2516.25,-219.75 2378.75,-219.75 2378.75,-178 2516.25,-178 2516.25,-219.75"/>
<text text-anchor="start" x="2386.75" y="-206.25" font-family="Helvetica,sans-Serif" font-size="10.00">/github/workspace/dev</text>
<text text-anchor="start" x="2386.75" y="-195" font-family="Helvetica,sans-Serif" font-size="10.00">_area/build/coredal/codegen</text>
<text text-anchor="middle" x="2447.5" y="-183.75" font-family="Helvetica,sans-Serif" font-size="10.00">/src/Jsonable.cpp</text>
</a>
</g>
</g>
<!-- Node1&#45;&gt;Node28 -->
<g id="edge33_Node000001_Node000028" class="edge">
<title>Node1&#45;&gt;Node28</title>
<g id="a_edge33_Node000001_Node000028"><a xlink:title=" ">
<path fill="none" stroke="#63b8ff" d="M2344.91,-250.34C2364.81,-240.55 2387.29,-229.49 2406.12,-220.23"/>
<polygon fill="#63b8ff" stroke="#63b8ff" points="2343.56,-247.1 2336.13,-254.66 2346.65,-253.38 2343.56,-247.1"/>
</a>
</g>
</g>
<!-- Node29 -->
<g id="Node000029" class="node">
<title>Node29</title>
<g id="a_Node000029"><a xlink:href="dump__dunedaq____coredal_8cpp.html" target="_top" xlink:title=" ">
<polygon fill="white" stroke="#666666" points="2696.25,-219.75 2534.75,-219.75 2534.75,-178 2696.25,-178 2696.25,-219.75"/>
<text text-anchor="start" x="2542.75" y="-206.25" font-family="Helvetica,sans-Serif" font-size="10.00">/github/workspace/dev</text>
<text text-anchor="start" x="2542.75" y="-195" font-family="Helvetica,sans-Serif" font-size="10.00">_area/build/coredal/codegen</text>
<text text-anchor="middle" x="2615.5" y="-183.75" font-family="Helvetica,sans-Serif" font-size="10.00">/src/dump_dunedaq__coredal.cpp</text>
</a>
</g>
</g>
<!-- Node1&#45;&gt;Node29 -->
<g id="edge34_Node000001_Node000029" class="edge">
<title>Node1&#45;&gt;Node29</title>
<g id="a_edge34_Node000001_Node000029"><a xlink:title=" ">
<path fill="none" stroke="#63b8ff" d="M2376.87,-256.01C2425.39,-244.6 2486.29,-230.27 2534.42,-218.95"/>
<polygon fill="#63b8ff" stroke="#63b8ff" points="2376.17,-252.58 2367.24,-258.28 2377.77,-259.4 2376.17,-252.58"/>
</a>
</g>
</g>
<!-- Node30 -->
<g id="Node000030" class="node">
<title>Node30</title>
<g id="a_Node000030"><a xlink:href="dalMethods_8cpp.html" target="_top" xlink:title=" ">
<polygon fill="white" stroke="#666666" points="2842.38,-219.75 2714.62,-219.75 2714.62,-178 2842.38,-178 2842.38,-219.75"/>
<text text-anchor="start" x="2722.62" y="-206.25" font-family="Helvetica,sans-Serif" font-size="10.00">/github/workspace/dev</text>
<text text-anchor="start" x="2722.62" y="-195" font-family="Helvetica,sans-Serif" font-size="10.00">_area/sourcecode/coredal</text>
<text text-anchor="middle" x="2778.5" y="-183.75" font-family="Helvetica,sans-Serif" font-size="10.00">/src/dalMethods.cpp</text>
</a>
</g>
</g>
<!-- Node1&#45;&gt;Node30 -->
<g id="edge35_Node000001_Node000030" class="edge">
<title>Node1&#45;&gt;Node30</title>
<g id="a_edge35_Node000001_Node000030"><a xlink:title=" ">
<path fill="none" stroke="#63b8ff" d="M2377.02,-267.54C2460.63,-258.69 2592.73,-242.65 2705.5,-219.75 2708.46,-219.15 2711.48,-218.5 2714.52,-217.8"/>
<polygon fill="#63b8ff" stroke="#63b8ff" points="2376.89,-264.04 2367.31,-268.56 2377.62,-271 2376.89,-264.04"/>
</a>
</g>
</g>
<!-- Node3 -->
<g id="Node000003" class="node">
<title>Node3</title>
<g id="a_Node000003"><a xlink:href="include_2appdal_2TriggerActivityMakerHorizontalMuonPlugin_8hpp.html" target="_top" xlink:title=" ">
<polygon fill="white" stroke="#666666" points="687.25,-142 513.75,-142 513.75,-89 687.25,-89 687.25,-142"/>
<text text-anchor="start" x="521.75" y="-128.5" font-family="Helvetica,sans-Serif" font-size="10.00">/github/workspace/dev</text>
<text text-anchor="start" x="521.75" y="-117.25" font-family="Helvetica,sans-Serif" font-size="10.00">_area/build/appdal/codegen</text>
<text text-anchor="start" x="521.75" y="-106" font-family="Helvetica,sans-Serif" font-size="10.00">/include/appdal/TriggerActivityMaker</text>
<text text-anchor="middle" x="600.5" y="-94.75" font-family="Helvetica,sans-Serif" font-size="10.00">HorizontalMuonPlugin.hpp</text>
</a>
</g>
</g>
<!-- Node2&#45;&gt;Node3 -->
<g id="edge2_Node000002_Node000003" class="edge">
<title>Node2&#45;&gt;Node3</title>
<g id="a_edge2_Node000002_Node000003"><a xlink:title=" ">
<path fill="none" stroke="#63b8ff" d="M677.61,-171.06C664.58,-161.85 650.03,-151.55 637.11,-142.41"/>
<polygon fill="#63b8ff" stroke="#63b8ff" points="675.36,-173.76 685.54,-176.68 679.4,-168.04 675.36,-173.76"/>
</a>
</g>
</g>
<!-- Node5 -->
<g id="Node000005" class="node">
<title>Node5</title>
<g id="a_Node000005"><a xlink:href="dump__dunedaq____appdal_8cpp.html" target="_top" xlink:title=" ">
<polygon fill="white" stroke="#666666" points="2248.75,-47.38 2090.25,-47.38 2090.25,-5.62 2248.75,-5.62 2248.75,-47.38"/>
<text text-anchor="start" x="2098.25" y="-33.88" font-family="Helvetica,sans-Serif" font-size="10.00">/github/workspace/dev</text>
<text text-anchor="start" x="2098.25" y="-22.62" font-family="Helvetica,sans-Serif" font-size="10.00">_area/build/appdal/codegen</text>
<text text-anchor="middle" x="2169.5" y="-11.38" font-family="Helvetica,sans-Serif" font-size="10.00">/src/dump_dunedaq__appdal.cpp</text>
</a>
</g>
</g>
<!-- Node2&#45;&gt;Node5 -->
<g id="edge12_Node000002_Node000005" class="edge">
<title>Node2&#45;&gt;Node5</title>
<g id="a_edge12_Node000002_Node000005"><a xlink:title=" ">
<path fill="none" stroke="#63b8ff" d="M711.41,-166.43C710.12,-141.5 713.06,-107.82 734.5,-89 785.71,-44.04 1796.03,-31.02 2089.95,-28.18"/>
<polygon fill="#63b8ff" stroke="#63b8ff" points="707.92,-166.67 712.21,-176.36 714.9,-166.11 707.92,-166.67"/>
</a>
</g>
</g>
<!-- Node6 -->
<g id="Node000006" class="node">
<title>Node6</title>
<g id="a_Node000006"><a xlink:href="include_2appdal_2TriggerActivityMakerPrescalePlugin_8hpp.html" target="_top" xlink:title=" ">
<polygon fill="white" stroke="#666666" points="495.25,-142 321.75,-142 321.75,-89 495.25,-89 495.25,-142"/>
<text text-anchor="start" x="329.75" y="-128.5" font-family="Helvetica,sans-Serif" font-size="10.00">/github/workspace/dev</text>
<text text-anchor="start" x="329.75" y="-117.25" font-family="Helvetica,sans-Serif" font-size="10.00">_area/build/appdal/codegen</text>
<text text-anchor="start" x="329.75" y="-106" font-family="Helvetica,sans-Serif" font-size="10.00">/include/appdal/TriggerActivityMaker</text>
<text text-anchor="middle" x="408.5" y="-94.75" font-family="Helvetica,sans-Serif" font-size="10.00">PrescalePlugin.hpp</text>
</a>
</g>
</g>
<!-- Node2&#45;&gt;Node6 -->
<g id="edge5_Node000002_Node000006" class="edge">
<title>Node2&#45;&gt;Node6</title>
<g id="a_edge5_Node000002_Node000006"><a xlink:title=" ">
<path fill="none" stroke="#63b8ff" d="M627.81,-174.67C589.89,-164.63 545,-152.74 504.5,-142 501.58,-141.23 498.62,-140.44 495.62,-139.64"/>
<polygon fill="#63b8ff" stroke="#63b8ff" points="626.8,-178.02 637.36,-177.2 628.59,-171.26 626.8,-178.02"/>
</a>
</g>
</g>
<!-- Node8 -->
<g id="Node000008" class="node">
<title>Node8</title>
<g id="a_Node000008"><a xlink:href="TAAlgorithm_8cpp.html" target="_top" xlink:title=" ">
<polygon fill="white" stroke="#666666" points="877.75,-136.38 743.25,-136.38 743.25,-94.62 877.75,-94.62 877.75,-136.38"/>
<text text-anchor="start" x="751.25" y="-122.88" font-family="Helvetica,sans-Serif" font-size="10.00">/github/workspace/dev</text>
<text text-anchor="start" x="751.25" y="-111.62" font-family="Helvetica,sans-Serif" font-size="10.00">_area/build/appdal/codegen</text>
<text text-anchor="middle" x="810.5" y="-100.38" font-family="Helvetica,sans-Serif" font-size="10.00">/src/TAAlgorithm.cpp</text>
</a>
</g>
</g>
<!-- Node2&#45;&gt;Node8 -->
<g id="edge8_Node000002_Node000008" class="edge">
<title>Node2&#45;&gt;Node8</title>
<g id="a_edge8_Node000002_Node000008"><a xlink:title=" ">
<path fill="none" stroke="#63b8ff" d="M747.58,-170.39C760.48,-159.35 775.07,-146.85 786.96,-136.67"/>
<polygon fill="#63b8ff" stroke="#63b8ff" points="745.45,-167.61 740.13,-176.78 750,-172.93 745.45,-167.61"/>
</a>
</g>
</g>
<!-- Node9 -->
<g id="Node000009" class="node">
<title>Node9</title>
<g id="a_Node000009"><a xlink:href="TPDataProcessor_8cpp.html" target="_top" xlink:title=" ">
<polygon fill="white" stroke="#666666" points="1030.75,-136.38 896.25,-136.38 896.25,-94.62 1030.75,-94.62 1030.75,-136.38"/>
<text text-anchor="start" x="904.25" y="-122.88" font-family="Helvetica,sans-Serif" font-size="10.00">/github/workspace/dev</text>
<text text-anchor="start" x="904.25" y="-111.62" font-family="Helvetica,sans-Serif" font-size="10.00">_area/build/appdal/codegen</text>
<text text-anchor="middle" x="963.5" y="-100.38" font-family="Helvetica,sans-Serif" font-size="10.00">/src/TPDataProcessor.cpp</text>
</a>
</g>
</g>
<!-- Node2&#45;&gt;Node9 -->
<g id="edge9_Node000002_Node000009" class="edge">
<title>Node2&#45;&gt;Node9</title>
<g id="a_edge9_Node000002_Node000009"><a xlink:title=" ">
<path fill="none" stroke="#63b8ff" d="M788.95,-173.95C819.17,-164.08 854.53,-152.52 886.5,-142 891.58,-140.33 896.85,-138.59 902.14,-136.84"/>
<polygon fill="#63b8ff" stroke="#63b8ff" points="787.92,-170.6 779.5,-177.03 790.09,-177.26 787.92,-170.6"/>
</a>
</g>
</g>
<!-- Node10 -->
<g id="Node000010" class="node">
<title>Node10</title>
<g id="a_Node000010"><a xlink:href="src_2TriggerActivityMakerHorizontalMuonPlugin_8hpp.html" target="_top" xlink:title=" ">
<polygon fill="white" stroke="#666666" points="1216.62,-142 1048.38,-142 1048.38,-89 1216.62,-89 1216.62,-142"/>
<text text-anchor="start" x="1056.38" y="-128.5" font-family="Helvetica,sans-Serif" font-size="10.00">/github/workspace/dev</text>
<text text-anchor="start" x="1056.38" y="-117.25" font-family="Helvetica,sans-Serif" font-size="10.00">_area/build/appdal/codegen</text>
<text text-anchor="start" x="1056.38" y="-106" font-family="Helvetica,sans-Serif" font-size="10.00">/src/TriggerActivityMakerHorizontal</text>
<text text-anchor="middle" x="1132.5" y="-94.75" font-family="Helvetica,sans-Serif" font-size="10.00">MuonPlugin.hpp</text>
</a>
</g>
</g>
<!-- Node2&#45;&gt;Node10 -->
<g id="edge10_Node000002_Node000010" class="edge">
<title>Node2&#45;&gt;Node10</title>
<g id="a_edge10_Node000002_Node000010"><a xlink:title=" ">
<path fill="none" stroke="#63b8ff" d="M804.9,-184.84C870.22,-174.74 960.76,-159.54 1039.5,-142 1042.28,-141.38 1045.1,-140.73 1047.94,-140.06"/>
<polygon fill="#63b8ff" stroke="#63b8ff" points="804.67,-181.34 795.32,-186.31 805.73,-188.26 804.67,-181.34"/>
</a>
</g>
</g>
<!-- Node11 -->
<g id="Node000011" class="node">
<title>Node11</title>
<g id="a_Node000011"><a xlink:href="src_2TriggerActivityMakerPrescalePlugin_8hpp.html" target="_top" xlink:title=" ">
<polygon fill="white" stroke="#666666" points="163,-142 0,-142 0,-89 163,-89 163,-142"/>
<text text-anchor="start" x="8" y="-128.5" font-family="Helvetica,sans-Serif" font-size="10.00">/github/workspace/dev</text>
<text text-anchor="start" x="8" y="-117.25" font-family="Helvetica,sans-Serif" font-size="10.00">_area/build/appdal/codegen</text>
<text text-anchor="start" x="8" y="-106" font-family="Helvetica,sans-Serif" font-size="10.00">/src/TriggerActivityMakerPrescale</text>
<text text-anchor="middle" x="81.5" y="-94.75" font-family="Helvetica,sans-Serif" font-size="10.00">Plugin.hpp</text>
</a>
</g>
</g>
<!-- Node2&#45;&gt;Node11 -->
<g id="edge11_Node000002_Node000011" class="edge">
<title>Node2&#45;&gt;Node11</title>
<g id="a_edge11_Node000002_Node000011"><a xlink:title=" ">
<path fill="none" stroke="#63b8ff" d="M625.75,-193.44C517.33,-186.99 329.78,-172.31 171.5,-142 168.79,-141.48 166.04,-140.92 163.27,-140.32"/>
<polygon fill="#63b8ff" stroke="#63b8ff" points="625.26,-196.92 635.44,-194.01 625.67,-189.93 625.26,-196.92"/>
</a>
</g>
</g>
<!-- Node12 -->
<g id="Node000012" class="node">
<title>Node12</title>
<g id="a_Node000012"><a xlink:href="TPProcessor_8cpp.html" target="_top" xlink:title=" ">
<polygon fill="white" stroke="#666666" points="304.12,-136.38 180.88,-136.38 180.88,-94.62 304.12,-94.62 304.12,-136.38"/>
<text text-anchor="start" x="188.88" y="-122.88" font-family="Helvetica,sans-Serif" font-size="10.00">/github/workspace/dev</text>
<text text-anchor="start" x="188.88" y="-111.62" font-family="Helvetica,sans-Serif" font-size="10.00">_area/sourcecode/trigger</text>
<text text-anchor="middle" x="242.5" y="-100.38" font-family="Helvetica,sans-Serif" font-size="10.00">/src/TPProcessor.cpp</text>
</a>
</g>
</g>
<!-- Node2&#45;&gt;Node12 -->
<g id="edge13_Node000002_Node000012" class="edge">
<title>Node2&#45;&gt;Node12</title>
<g id="a_edge13_Node000002_Node000012"><a xlink:title=" ">
<path fill="none" stroke="#63b8ff" d="M625.6,-190.9C543.24,-183.22 418.4,-168.31 312.5,-142 306.6,-140.53 300.51,-138.75 294.49,-136.81"/>
<polygon fill="#63b8ff" stroke="#63b8ff" points="625.15,-194.37 635.43,-191.8 625.79,-187.4 625.15,-194.37"/>
</a>
</g>
</g>
<!-- Node4 -->
<g id="Node000004" class="node">
<title>Node4</title>
<g id="a_Node000004"><a xlink:href="TriggerActivityMakerHorizontalMuonPlugin_8cpp.html" target="_top" xlink:title=" ">
<polygon fill="white" stroke="#666666" points="684.62,-53 516.38,-53 516.38,0 684.62,0 684.62,-53"/>
<text text-anchor="start" x="524.38" y="-39.5" font-family="Helvetica,sans-Serif" font-size="10.00">/github/workspace/dev</text>
<text text-anchor="start" x="524.38" y="-28.25" font-family="Helvetica,sans-Serif" font-size="10.00">_area/build/appdal/codegen</text>
<text text-anchor="start" x="524.38" y="-17" font-family="Helvetica,sans-Serif" font-size="10.00">/src/TriggerActivityMakerHorizontal</text>
<text text-anchor="middle" x="600.5" y="-5.75" font-family="Helvetica,sans-Serif" font-size="10.00">MuonPlugin.cpp</text>
</a>
</g>
</g>
<!-- Node3&#45;&gt;Node4 -->
<g id="edge3_Node000003_Node000004" class="edge">
<title>Node3&#45;&gt;Node4</title>
<g id="a_edge3_Node000003_Node000004"><a xlink:title=" ">
<path fill="none" stroke="#63b8ff" d="M600.5,-77.61C600.5,-69.41 600.5,-60.89 600.5,-53.25"/>
<polygon fill="#63b8ff" stroke="#63b8ff" points="597,-77.35 600.5,-87.35 604,-77.35 597,-77.35"/>
</a>
</g>
</g>
<!-- Node3&#45;&gt;Node5 -->
<g id="edge4_Node000003_Node000005" class="edge">
<title>Node3&#45;&gt;Node5</title>
<g id="a_edge4_Node000003_Node000005"><a xlink:title=" ">
<path fill="none" stroke="#63b8ff" d="M698.92,-89.39C699.79,-89.25 700.64,-89.12 701.5,-89 973.01,-49.47 1824.84,-32.95 2089.94,-28.68"/>
<polygon fill="#63b8ff" stroke="#63b8ff" points="698.35,-85.93 689.09,-91.07 699.53,-92.83 698.35,-85.93"/>
</a>
</g>
</g>
<!-- Node6&#45;&gt;Node5 -->
<g id="edge7_Node000006_Node000005" class="edge">
<title>Node6&#45;&gt;Node5</title>
<g id="a_edge7_Node000006_Node000005"><a xlink:title=" ">
<path fill="none" stroke="#63b8ff" d="M506.75,-88.85C838.04,-42.21 1805.43,-30.57 2089.96,-28.09"/>
<polygon fill="#63b8ff" stroke="#63b8ff" points="506.6,-85.34 497.2,-90.24 507.6,-92.26 506.6,-85.34"/>
</a>
</g>
</g>
<!-- Node7 -->
<g id="Node000007" class="node">
<title>Node7</title>
<g id="a_Node000007"><a xlink:href="TriggerActivityMakerPrescalePlugin_8cpp.html" target="_top" xlink:title=" ">
<polygon fill="white" stroke="#666666" points="490,-53 327,-53 327,0 490,0 490,-53"/>
<text text-anchor="start" x="335" y="-39.5" font-family="Helvetica,sans-Serif" font-size="10.00">/github/workspace/dev</text>
<text text-anchor="start" x="335" y="-28.25" font-family="Helvetica,sans-Serif" font-size="10.00">_area/build/appdal/codegen</text>
<text text-anchor="start" x="335" y="-17" font-family="Helvetica,sans-Serif" font-size="10.00">/src/TriggerActivityMakerPrescale</text>
<text text-anchor="middle" x="408.5" y="-5.75" font-family="Helvetica,sans-Serif" font-size="10.00">Plugin.cpp</text>
</a>
</g>
</g>
<!-- Node6&#45;&gt;Node7 -->
<g id="edge6_Node000006_Node000007" class="edge">
<title>Node6&#45;&gt;Node7</title>
<g id="a_edge6_Node000006_Node000007"><a xlink:title=" ">
<path fill="none" stroke="#63b8ff" d="M408.5,-77.61C408.5,-69.41 408.5,-60.89 408.5,-53.25"/>
<polygon fill="#63b8ff" stroke="#63b8ff" points="405,-77.35 408.5,-87.35 412,-77.35 405,-77.35"/>
</a>
</g>
</g>
<!-- Node13&#45;&gt;Node5 -->
<g id="edge29_Node000013_Node000005" class="edge">
<title>Node13&#45;&gt;Node5</title>
<g id="a_edge29_Node000013_Node000005"><a xlink:title=" ">
<path fill="none" stroke="#63b8ff" d="M2066.89,-177.22C2134.15,-161.62 2214.89,-142.78 2215.5,-142 2238.25,-113.29 2210.08,-71.85 2188.87,-47.49"/>
<polygon fill="#63b8ff" stroke="#63b8ff" points="2066.23,-173.78 2057.28,-179.45 2067.81,-180.6 2066.23,-173.78"/>
</a>
</g>
</g>
<!-- Node14 -->
<g id="Node000014" class="node">
<title>Node14</title>
<g id="a_Node000014"><a xlink:href="include_2appdal_2TCCustom_8hpp.html" target="_top" xlink:title=" ">
<polygon fill="white" stroke="#666666" points="2410.88,-136.38 2262.12,-136.38 2262.12,-94.62 2410.88,-94.62 2410.88,-136.38"/>
<text text-anchor="start" x="2270.12" y="-122.88" font-family="Helvetica,sans-Serif" font-size="10.00">/github/workspace/dev</text>
<text text-anchor="start" x="2270.12" y="-111.62" font-family="Helvetica,sans-Serif" font-size="10.00">_area/build/appdal/codegen</text>
<text text-anchor="middle" x="2336.5" y="-100.38" font-family="Helvetica,sans-Serif" font-size="10.00">/include/appdal/TCCustom.hpp</text>
</a>
</g>
</g>
<!-- Node13&#45;&gt;Node14 -->
<g id="edge15_Node000013_Node000014" class="edge">
<title>Node13&#45;&gt;Node14</title>
<g id="a_edge15_Node000013_Node000014"><a xlink:title=" ">
<path fill="none" stroke="#63b8ff" d="M2067,-177.52C2147.97,-160.76 2170.99,-160.77 2248.5,-142 2254.99,-140.43 2261.72,-138.68 2268.44,-136.87"/>
<polygon fill="#63b8ff" stroke="#63b8ff" points="2066.28,-174.09 2057.21,-179.57 2067.72,-180.94 2066.28,-174.09"/>
</a>
</g>
</g>
<!-- Node16 -->
<g id="Node000016" class="node">
<title>Node16</title>
<g id="a_Node000016"><a xlink:href="include_2appdal_2TriggerCandidateMakerHorizontalMuonPlugin_8hpp.html" target="_top" xlink:title=" ">
<polygon fill="white" stroke="#666666" points="2586.38,-142 2428.62,-142 2428.62,-89 2586.38,-89 2586.38,-142"/>
<text text-anchor="start" x="2436.62" y="-128.5" font-family="Helvetica,sans-Serif" font-size="10.00">/github/workspace/dev</text>
<text text-anchor="start" x="2436.62" y="-117.25" font-family="Helvetica,sans-Serif" font-size="10.00">_area/build/appdal/codegen</text>
<text text-anchor="start" x="2436.62" y="-106" font-family="Helvetica,sans-Serif" font-size="10.00">/include/appdal/TriggerCandidate</text>
<text text-anchor="middle" x="2507.5" y="-94.75" font-family="Helvetica,sans-Serif" font-size="10.00">MakerHorizontalMuonPlugin.hpp</text>
</a>
</g>
</g>
<!-- Node13&#45;&gt;Node16 -->
<g id="edge18_Node000013_Node000016" class="edge">
<title>Node13&#45;&gt;Node16</title>
<g id="a_edge18_Node000013_Node000016"><a xlink:title=" ">
<path fill="none" stroke="#63b8ff" d="M2066.62,-177.77C2222.97,-153.16 2267.31,-171.51 2419.5,-142 2422.47,-141.42 2425.48,-140.79 2428.51,-140.12"/>
<polygon fill="#63b8ff" stroke="#63b8ff" points="2066.47,-174.25 2057.16,-179.3 2067.59,-181.16 2066.47,-174.25"/>
</a>
</g>
</g>
<!-- Node18 -->
<g id="Node000018" class="node">
<title>Node18</title>
<g id="a_Node000018"><a xlink:href="include_2appdal_2TriggerCandidateMakerPrescalePlugin_8hpp.html" target="_top" xlink:title=" ">
<polygon fill="white" stroke="#666666" points="2762.38,-142 2604.62,-142 2604.62,-89 2762.38,-89 2762.38,-142"/>
<text text-anchor="start" x="2612.62" y="-128.5" font-family="Helvetica,sans-Serif" font-size="10.00">/github/workspace/dev</text>
<text text-anchor="start" x="2612.62" y="-117.25" font-family="Helvetica,sans-Serif" font-size="10.00">_area/build/appdal/codegen</text>
<text text-anchor="start" x="2612.62" y="-106" font-family="Helvetica,sans-Serif" font-size="10.00">/include/appdal/TriggerCandidate</text>
<text text-anchor="middle" x="2683.5" y="-94.75" font-family="Helvetica,sans-Serif" font-size="10.00">MakerPrescalePlugin.hpp</text>
</a>
</g>
</g>
<!-- Node13&#45;&gt;Node18 -->
<g id="edge21_Node000013_Node000018" class="edge">
<title>Node13&#45;&gt;Node18</title>
<g id="a_edge21_Node000013_Node000018"><a xlink:title=" ">
<path fill="none" stroke="#63b8ff" d="M2067.35,-177.71C2300.56,-144.77 2366.21,-182.51 2595.5,-142 2598.48,-141.47 2601.5,-140.89 2604.53,-140.25"/>
<polygon fill="#63b8ff" stroke="#63b8ff" points="2067.01,-174.22 2057.61,-179.12 2068.01,-181.15 2067.01,-174.22"/>
</a>
</g>
</g>
<!-- Node20 -->
<g id="Node000020" class="node">
<title>Node20</title>
<g id="a_Node000020"><a xlink:href="TADataProcessor_8cpp.html" target="_top" xlink:title=" ">
<polygon fill="white" stroke="#666666" points="1368.75,-136.38 1234.25,-136.38 1234.25,-94.62 1368.75,-94.62 1368.75,-136.38"/>
<text text-anchor="start" x="1242.25" y="-122.88" font-family="Helvetica,sans-Serif" font-size="10.00">/github/workspace/dev</text>
<text text-anchor="start" x="1242.25" y="-111.62" font-family="Helvetica,sans-Serif" font-size="10.00">_area/build/appdal/codegen</text>
<text text-anchor="middle" x="1301.5" y="-100.38" font-family="Helvetica,sans-Serif" font-size="10.00">/src/TADataProcessor.cpp</text>
</a>
</g>
</g>
<!-- Node13&#45;&gt;Node20 -->
<g id="edge24_Node000013_Node000020" class="edge">
<title>Node13&#45;&gt;Node20</title>
<g id="a_edge24_Node000013_Node000020"><a xlink:title=" ">
<path fill="none" stroke="#63b8ff" d="M1887.65,-195.83C1769.66,-191.7 1556.58,-179.29 1378.5,-142 1371.75,-140.59 1364.76,-138.78 1357.87,-136.78"/>
<polygon fill="#63b8ff" stroke="#63b8ff" points="1887.5,-199.32 1897.61,-196.16 1887.73,-192.33 1887.5,-199.32"/>
</a>
</g>
</g>
<!-- Node21 -->
<g id="Node000021" class="node">
<title>Node21</title>
<g id="a_Node000021"><a xlink:href="TCAlgorithm_8cpp.html" target="_top" xlink:title=" ">
<polygon fill="white" stroke="#666666" points="1521.75,-136.38 1387.25,-136.38 1387.25,-94.62 1521.75,-94.62 1521.75,-136.38"/>
<text text-anchor="start" x="1395.25" y="-122.88" font-family="Helvetica,sans-Serif" font-size="10.00">/github/workspace/dev</text>
<text text-anchor="start" x="1395.25" y="-111.62" font-family="Helvetica,sans-Serif" font-size="10.00">_area/build/appdal/codegen</text>
<text text-anchor="middle" x="1454.5" y="-100.38" font-family="Helvetica,sans-Serif" font-size="10.00">/src/TCAlgorithm.cpp</text>
</a>
</g>
</g>
<!-- Node13&#45;&gt;Node21 -->
<g id="edge25_Node000013_Node000021" class="edge">
<title>Node13&#45;&gt;Node21</title>
<g id="a_edge25_Node000013_Node000021"><a xlink:title=" ">
<path fill="none" stroke="#63b8ff" d="M1887.61,-191.79C1796.9,-184.45 1653.22,-169.5 1531.5,-142 1525.04,-140.54 1518.36,-138.76 1511.76,-136.82"/>
<polygon fill="#63b8ff" stroke="#63b8ff" points="1887.2,-195.27 1897.44,-192.57 1887.75,-188.29 1887.2,-195.27"/>
</a>
</g>
</g>
<!-- Node22 -->
<g id="Node000022" class="node">
<title>Node22</title>
<g id="a_Node000022"><a xlink:href="src_2TCCustom_8hpp.html" target="_top" xlink:title=" ">
<polygon fill="white" stroke="#666666" points="1674.75,-136.38 1540.25,-136.38 1540.25,-94.62 1674.75,-94.62 1674.75,-136.38"/>
<text text-anchor="start" x="1548.25" y="-122.88" font-family="Helvetica,sans-Serif" font-size="10.00">/github/workspace/dev</text>
<text text-anchor="start" x="1548.25" y="-111.62" font-family="Helvetica,sans-Serif" font-size="10.00">_area/build/appdal/codegen</text>
<text text-anchor="middle" x="1607.5" y="-100.38" font-family="Helvetica,sans-Serif" font-size="10.00">/src/TCCustom.hpp</text>
</a>
</g>
</g>
<!-- Node13&#45;&gt;Node22 -->
<g id="edge26_Node000013_Node000022" class="edge">
<title>Node13&#45;&gt;Node22</title>
<g id="a_edge26_Node000013_Node000022"><a xlink:title=" ">
<path fill="none" stroke="#63b8ff" d="M1888.09,-184.13C1829.46,-174.32 1751.38,-159.75 1683.5,-142 1677.58,-140.45 1671.44,-138.68 1665.35,-136.81"/>
<polygon fill="#63b8ff" stroke="#63b8ff" points="1887.24,-187.54 1897.68,-185.72 1888.38,-180.63 1887.24,-187.54"/>
</a>
</g>
</g>
<!-- Node23 -->
<g id="Node000023" class="node">
<title>Node23</title>
<g id="a_Node000023"><a xlink:href="src_2TriggerCandidateMakerHorizontalMuonPlugin_8hpp.html" target="_top" xlink:title=" ">
<polygon fill="white" stroke="#666666" points="1872.25,-142 1692.75,-142 1692.75,-89 1872.25,-89 1872.25,-142"/>
<text text-anchor="start" x="1700.75" y="-128.5" font-family="Helvetica,sans-Serif" font-size="10.00">/github/workspace/dev</text>
<text text-anchor="start" x="1700.75" y="-117.25" font-family="Helvetica,sans-Serif" font-size="10.00">_area/build/appdal/codegen</text>
<text text-anchor="start" x="1700.75" y="-106" font-family="Helvetica,sans-Serif" font-size="10.00">/src/TriggerCandidateMakerHorizontal</text>
<text text-anchor="middle" x="1782.5" y="-94.75" font-family="Helvetica,sans-Serif" font-size="10.00">MuonPlugin.hpp</text>
</a>
</g>
</g>
<!-- Node13&#45;&gt;Node23 -->
<g id="edge27_Node000013_Node000023" class="edge">
<title>Node13&#45;&gt;Node23</title>
<g id="a_edge27_Node000013_Node000023"><a xlink:title=" ">
<path fill="none" stroke="#63b8ff" d="M1918.34,-173.19C1895.01,-163.45 1868.19,-152.26 1844.58,-142.41"/>
<polygon fill="#63b8ff" stroke="#63b8ff" points="1916.82,-176.35 1927.4,-176.97 1919.52,-169.89 1916.82,-176.35"/>
</a>
</g>
</g>
<!-- Node24 -->
<g id="Node000024" class="node">
<title>Node24</title>
<g id="a_Node000024"><a xlink:href="src_2TriggerCandidateMakerPrescalePlugin_8hpp.html" target="_top" xlink:title=" ">
<polygon fill="white" stroke="#666666" points="2064.62,-142 1890.38,-142 1890.38,-89 2064.62,-89 2064.62,-142"/>
<text text-anchor="start" x="1898.38" y="-128.5" font-family="Helvetica,sans-Serif" font-size="10.00">/github/workspace/dev</text>
<text text-anchor="start" x="1898.38" y="-117.25" font-family="Helvetica,sans-Serif" font-size="10.00">_area/build/appdal/codegen</text>
<text text-anchor="start" x="1898.38" y="-106" font-family="Helvetica,sans-Serif" font-size="10.00">/src/TriggerCandidateMakerPrescale</text>
<text text-anchor="middle" x="1977.5" y="-94.75" font-family="Helvetica,sans-Serif" font-size="10.00">Plugin.hpp</text>
</a>
</g>
</g>
<!-- Node13&#45;&gt;Node24 -->
<g id="edge28_Node000013_Node000024" class="edge">
<title>Node13&#45;&gt;Node24</title>
<g id="a_edge28_Node000013_Node000024"><a xlink:title=" ">
<path fill="none" stroke="#63b8ff" d="M1977.5,-166.52C1977.5,-158.49 1977.5,-149.94 1977.5,-142.23"/>
<polygon fill="#63b8ff" stroke="#63b8ff" points="1974,-166.25 1977.5,-176.25 1981,-166.25 1974,-166.25"/>
</a>
</g>
</g>
<!-- Node25 -->
<g id="Node000025" class="node">
<title>Node25</title>
<g id="a_Node000025"><a xlink:href="TAProcessor_8cpp.html" target="_top" xlink:title=" ">
<polygon fill="white" stroke="#666666" points="2206.12,-136.38 2082.88,-136.38 2082.88,-94.62 2206.12,-94.62 2206.12,-136.38"/>
<text text-anchor="start" x="2090.88" y="-122.88" font-family="Helvetica,sans-Serif" font-size="10.00">/github/workspace/dev</text>
<text text-anchor="start" x="2090.88" y="-111.62" font-family="Helvetica,sans-Serif" font-size="10.00">_area/sourcecode/trigger</text>
<text text-anchor="middle" x="2144.5" y="-100.38" font-family="Helvetica,sans-Serif" font-size="10.00">/src/TAProcessor.cpp</text>
</a>
</g>
</g>
<!-- Node13&#45;&gt;Node25 -->
<g id="edge30_Node000013_Node000025" class="edge">
<title>Node13&#45;&gt;Node25</title>
<g id="a_edge30_Node000013_Node000025"><a xlink:title=" ">
<path fill="none" stroke="#63b8ff" d="M2029.39,-172.59C2052.98,-161.09 2080.52,-147.68 2102.74,-136.85"/>
<polygon fill="#63b8ff" stroke="#63b8ff" points="2028.03,-169.36 2020.57,-176.89 2031.09,-175.65 2028.03,-169.36"/>
</a>
</g>
</g>
<!-- Node14&#45;&gt;Node5 -->
<g id="edge17_Node000014_Node000005" class="edge">
<title>Node14&#45;&gt;Node5</title>
<g id="a_edge17_Node000014_Node000005"><a xlink:title=" ">
<path fill="none" stroke="#63b8ff" d="M2287.68,-89.07C2262.51,-75.95 2232.21,-60.17 2208.6,-47.87"/>
<polygon fill="#63b8ff" stroke="#63b8ff" points="2285.94,-92.11 2296.42,-93.62 2289.17,-85.9 2285.94,-92.11"/>
</a>
</g>
</g>
<!-- Node15 -->
<g id="Node000015" class="node">
<title>Node15</title>
<g id="a_Node000015"><a xlink:href="TCCustom_8cpp.html" target="_top" xlink:title=" ">
<polygon fill="white" stroke="#666666" points="2401.75,-47.38 2267.25,-47.38 2267.25,-5.62 2401.75,-5.62 2401.75,-47.38"/>
<text text-anchor="start" x="2275.25" y="-33.88" font-family="Helvetica,sans-Serif" font-size="10.00">/github/workspace/dev</text>
<text text-anchor="start" x="2275.25" y="-22.62" font-family="Helvetica,sans-Serif" font-size="10.00">_area/build/appdal/codegen</text>
<text text-anchor="middle" x="2334.5" y="-11.38" font-family="Helvetica,sans-Serif" font-size="10.00">/src/TCCustom.cpp</text>
</a>
</g>
</g>
<!-- Node14&#45;&gt;Node15 -->
<g id="edge16_Node000014_Node000015" class="edge">
<title>Node14&#45;&gt;Node15</title>
<g id="a_edge16_Node000014_Node000015"><a xlink:title=" ">
<path fill="none" stroke="#63b8ff" d="M2335.78,-83.14C2335.51,-71.4 2335.21,-58.37 2334.97,-47.87"/>
<polygon fill="#63b8ff" stroke="#63b8ff" points="2332.27,-82.89 2336,-92.81 2339.27,-82.73 2332.27,-82.89"/>
</a>
</g>
</g>
<!-- Node16&#45;&gt;Node5 -->
<g id="edge20_Node000016_Node000005" class="edge">
<title>Node16&#45;&gt;Node5</title>
<g id="a_edge20_Node000016_Node000005"><a xlink:title=" ">
<path fill="none" stroke="#63b8ff" d="M2417.56,-88.58C2346.59,-70.78 2326.22,-70.26 2258.5,-53 2252.11,-51.37 2245.49,-49.61 2238.87,-47.8"/>
<polygon fill="#63b8ff" stroke="#63b8ff" points="2416.39,-91.89 2426.94,-90.96 2418.11,-85.1 2416.39,-91.89"/>
</a>
</g>
</g>
<!-- Node17 -->
<g id="Node000017" class="node">
<title>Node17</title>
<g id="a_Node000017"><a xlink:href="TriggerCandidateMakerHorizontalMuonPlugin_8cpp.html" target="_top" xlink:title=" ">
<polygon fill="white" stroke="#666666" points="2599.25,-53 2419.75,-53 2419.75,0 2599.25,0 2599.25,-53"/>
<text text-anchor="start" x="2427.75" y="-39.5" font-family="Helvetica,sans-Serif" font-size="10.00">/github/workspace/dev</text>
<text text-anchor="start" x="2427.75" y="-28.25" font-family="Helvetica,sans-Serif" font-size="10.00">_area/build/appdal/codegen</text>
<text text-anchor="start" x="2427.75" y="-17" font-family="Helvetica,sans-Serif" font-size="10.00">/src/TriggerCandidateMakerHorizontal</text>
<text text-anchor="middle" x="2509.5" y="-5.75" font-family="Helvetica,sans-Serif" font-size="10.00">MuonPlugin.cpp</text>
</a>
</g>
</g>
<!-- Node16&#45;&gt;Node17 -->
<g id="edge19_Node000016_Node000017" class="edge">
<title>Node16&#45;&gt;Node17</title>
<g id="a_edge19_Node000016_Node000017"><a xlink:title=" ">
<path fill="none" stroke="#63b8ff" d="M2508.35,-77.61C2508.54,-69.41 2508.73,-60.89 2508.91,-53.25"/>
<polygon fill="#63b8ff" stroke="#63b8ff" points="2504.85,-77.28 2508.12,-87.35 2511.85,-77.44 2504.85,-77.28"/>
</a>
</g>
</g>
<!-- Node18&#45;&gt;Node5 -->
<g id="edge23_Node000018_Node000005" class="edge">
<title>Node18&#45;&gt;Node5</title>
<g id="a_edge23_Node000018_Node000005"><a xlink:title=" ">
<path fill="none" stroke="#63b8ff" d="M2593.23,-88.72C2445.62,-60.97 2402.73,-81.15 2258.5,-53 2251.09,-51.55 2243.39,-49.78 2235.78,-47.84"/>
<polygon fill="#63b8ff" stroke="#63b8ff" points="2592.54,-92.16 2603.02,-90.61 2593.86,-85.28 2592.54,-92.16"/>
</a>
</g>
</g>
<!-- Node19 -->
<g id="Node000019" class="node">
<title>Node19</title>
<g id="a_Node000019"><a xlink:href="TriggerCandidateMakerPrescalePlugin_8cpp.html" target="_top" xlink:title=" ">
<polygon fill="white" stroke="#666666" points="2791.62,-53 2617.38,-53 2617.38,0 2791.62,0 2791.62,-53"/>
<text text-anchor="start" x="2625.38" y="-39.5" font-family="Helvetica,sans-Serif" font-size="10.00">/github/workspace/dev</text>
<text text-anchor="start" x="2625.38" y="-28.25" font-family="Helvetica,sans-Serif" font-size="10.00">_area/build/appdal/codegen</text>
<text text-anchor="start" x="2625.38" y="-17" font-family="Helvetica,sans-Serif" font-size="10.00">/src/TriggerCandidateMakerPrescale</text>
<text text-anchor="middle" x="2704.5" y="-5.75" font-family="Helvetica,sans-Serif" font-size="10.00">Plugin.cpp</text>
</a>
</g>
</g>
<!-- Node18&#45;&gt;Node19 -->
<g id="edge22_Node000018_Node000019" class="edge">
<title>Node18&#45;&gt;Node19</title>
<g id="a_edge22_Node000018_Node000019"><a xlink:title=" ">
<path fill="none" stroke="#63b8ff" d="M2692.34,-77.9C2694.34,-69.61 2696.42,-60.98 2698.28,-53.25"/>
<polygon fill="#63b8ff" stroke="#63b8ff" points="2688.99,-76.85 2690.04,-87.4 2695.79,-78.5 2688.99,-76.85"/>
</a>
</g>
</g>
</g>
</svg>
