<?xml version="1.0" encoding="UTF-8" standalone="no"?>
<!DOCTYPE svg PUBLIC "-//W3C//DTD SVG 1.1//EN"
 "http://www.w3.org/Graphics/SVG/1.1/DTD/svg11.dtd">
<!-- Generated by graphviz version 9.0.0 (20230911.1827)
 -->
<!-- Title: /github/workspace/dev_area/build/appdal/codegen/include/appdal/SourceIDConf.hpp Pages: 1 -->
<svg width="1702pt" height="205pt"
 viewBox="0.00 0.00 1701.75 205.25" xmlns="http://www.w3.org/2000/svg" xmlns:xlink="http://www.w3.org/1999/xlink">
<g id="graph0" class="graph" transform="scale(1 1) rotate(0) translate(4 201.25)">
<title>/github/workspace/dev_area/build/appdal/codegen/include/appdal/SourceIDConf.hpp</title>
<!-- Node1 -->
<g id="Node000001" class="node">
<title>Node1</title>
<g id="a_Node000001"><a xlink:title=" ">
<polygon fill="#999999" stroke="#666666" points="945,-197.25 782,-197.25 782,-155.5 945,-155.5 945,-197.25"/>
<text text-anchor="start" x="790" y="-183.75" font-family="Helvetica,sans-Serif" font-size="10.00">/github/workspace/dev</text>
<text text-anchor="start" x="790" y="-172.5" font-family="Helvetica,sans-Serif" font-size="10.00">_area/build/appdal/codegen</text>
<text text-anchor="middle" x="863.5" y="-161.25" font-family="Helvetica,sans-Serif" font-size="10.00">/include/appdal/SourceIDConf.hpp</text>
</a>
</g>
</g>
<!-- Node2 -->
<g id="Node000002" class="node">
<title>Node2</title>
<g id="a_Node000002"><a xlink:href="build_2appdal_2codegen_2src_2SmartDaqApplication_8cpp.html" target="_top" xlink:title=" ">
<polygon fill="white" stroke="#666666" points="145,-119.5 0,-119.5 0,-77.75 145,-77.75 145,-119.5"/>
<text text-anchor="start" x="8" y="-106" font-family="Helvetica,sans-Serif" font-size="10.00">/github/workspace/dev</text>
<text text-anchor="start" x="8" y="-94.75" font-family="Helvetica,sans-Serif" font-size="10.00">_area/build/appdal/codegen</text>
<text text-anchor="middle" x="72.5" y="-83.5" font-family="Helvetica,sans-Serif" font-size="10.00">/src/SmartDaqApplication.cpp</text>
</a>
</g>
</g>
<!-- Node1&#45;&gt;Node2 -->
<g id="edge1_Node000001_Node000002" class="edge">
<title>Node1&#45;&gt;Node2</title>
<g id="a_edge1_Node000001_Node000002"><a xlink:title=" ">
<path fill="none" stroke="#63b8ff" d="M770.48,-172.76C634.45,-167.87 373.61,-154.46 154.5,-119.5 151.46,-119.02 148.37,-118.48 145.26,-117.9"/>
<polygon fill="#63b8ff" stroke="#63b8ff" points="770.03,-176.25 780.14,-173.1 770.27,-169.25 770.03,-176.25"/>
</a>
</g>
</g>
<!-- Node3 -->
<g id="Node000003" class="node">
<title>Node3</title>
<g id="a_Node000003"><a xlink:href="SourceIDConf_8cpp.html" target="_top" xlink:title=" ">
<polygon fill="white" stroke="#666666" points="297.75,-119.5 163.25,-119.5 163.25,-77.75 297.75,-77.75 297.75,-119.5"/>
<text text-anchor="start" x="171.25" y="-106" font-family="Helvetica,sans-Serif" font-size="10.00">/github/workspace/dev</text>
<text text-anchor="start" x="171.25" y="-94.75" font-family="Helvetica,sans-Serif" font-size="10.00">_area/build/appdal/codegen</text>
<text text-anchor="middle" x="230.5" y="-83.5" font-family="Helvetica,sans-Serif" font-size="10.00">/src/SourceIDConf.cpp</text>
</a>
</g>
</g>
<!-- Node1&#45;&gt;Node3 -->
<g id="edge2_Node000001_Node000003" class="edge">
<title>Node1&#45;&gt;Node3</title>
<g id="a_edge2_Node000001_Node000003"><a xlink:title=" ">
<path fill="none" stroke="#63b8ff" d="M770.46,-170.37C659.56,-163.41 468.93,-148.27 307.5,-119.5 304.37,-118.94 301.19,-118.33 297.98,-117.66"/>
<polygon fill="#63b8ff" stroke="#63b8ff" points="770.23,-173.86 780.42,-170.99 770.66,-166.88 770.23,-173.86"/>
</a>
</g>
</g>
<!-- Node4 -->
<g id="Node000004" class="node">
<title>Node4</title>
<g id="a_Node000004"><a xlink:href="TCDataProcessor_8cpp.html" target="_top" xlink:title=" ">
<polygon fill="white" stroke="#666666" points="450.75,-119.5 316.25,-119.5 316.25,-77.75 450.75,-77.75 450.75,-119.5"/>
<text text-anchor="start" x="324.25" y="-106" font-family="Helvetica,sans-Serif" font-size="10.00">/github/workspace/dev</text>
<text text-anchor="start" x="324.25" y="-94.75" font-family="Helvetica,sans-Serif" font-size="10.00">_area/build/appdal/codegen</text>
<text text-anchor="middle" x="383.5" y="-83.5" font-family="Helvetica,sans-Serif" font-size="10.00">/src/TCDataProcessor.cpp</text>
</a>
</g>
</g>
<!-- Node1&#45;&gt;Node4 -->
<g id="edge3_Node000001_Node000004" class="edge">
<title>Node1&#45;&gt;Node4</title>
<g id="a_edge3_Node000001_Node000004"><a xlink:title=" ">
<path fill="none" stroke="#63b8ff" d="M770.45,-165.67C688.23,-156.35 565.29,-140.57 459.5,-119.5 456.69,-118.94 453.83,-118.34 450.95,-117.71"/>
<polygon fill="#63b8ff" stroke="#63b8ff" points="769.94,-169.14 780.27,-166.78 770.73,-162.18 769.94,-169.14"/>
</a>
</g>
</g>
<!-- Node5 -->
<g id="Node000005" class="node">
<title>Node5</title>
<g id="a_Node000005"><a xlink:href="TriggerDataHandler_8cpp.html" target="_top" xlink:title=" ">
<polygon fill="white" stroke="#666666" points="606.25,-119.5 468.75,-119.5 468.75,-77.75 606.25,-77.75 606.25,-119.5"/>
<text text-anchor="start" x="476.75" y="-106" font-family="Helvetica,sans-Serif" font-size="10.00">/github/workspace/dev</text>
<text text-anchor="start" x="476.75" y="-94.75" font-family="Helvetica,sans-Serif" font-size="10.00">_area/build/appdal/codegen</text>
<text text-anchor="middle" x="537.5" y="-83.5" font-family="Helvetica,sans-Serif" font-size="10.00">/src/TriggerDataHandler.cpp</text>
</a>
</g>
</g>
<!-- Node1&#45;&gt;Node5 -->
<g id="edge4_Node000001_Node000005" class="edge">
<title>Node1&#45;&gt;Node5</title>
<g id="a_edge4_Node000001_Node000005"><a xlink:title=" ">
<path fill="none" stroke="#63b8ff" d="M770.55,-155.08C723.94,-144.73 666.65,-131.78 615.5,-119.5 612.51,-118.78 609.46,-118.04 606.38,-117.29"/>
<polygon fill="#63b8ff" stroke="#63b8ff" points="769.55,-158.44 780.07,-157.19 771.06,-151.61 769.55,-158.44"/>
</a>
</g>
</g>
<!-- Node6 -->
<g id="Node000006" class="node">
<title>Node6</title>
<g id="a_Node000006"><a xlink:href="dump__dunedaq____appdal_8cpp.html" target="_top" xlink:title=" ">
<polygon fill="white" stroke="#666666" points="782.75,-119.5 624.25,-119.5 624.25,-77.75 782.75,-77.75 782.75,-119.5"/>
<text text-anchor="start" x="632.25" y="-106" font-family="Helvetica,sans-Serif" font-size="10.00">/github/workspace/dev</text>
<text text-anchor="start" x="632.25" y="-94.75" font-family="Helvetica,sans-Serif" font-size="10.00">_area/build/appdal/codegen</text>
<text text-anchor="middle" x="703.5" y="-83.5" font-family="Helvetica,sans-Serif" font-size="10.00">/src/dump_dunedaq__appdal.cpp</text>
</a>
</g>
</g>
<!-- Node1&#45;&gt;Node6 -->
<g id="edge5_Node000001_Node000006" class="edge">
<title>Node1&#45;&gt;Node6</title>
<g id="a_edge5_Node000001_Node000006"><a xlink:title=" ">
<path fill="none" stroke="#63b8ff" d="M810.37,-150.22C789.62,-140.4 766.15,-129.29 746.5,-119.98"/>
<polygon fill="#63b8ff" stroke="#63b8ff" points="808.72,-153.31 819.25,-154.43 811.71,-146.99 808.72,-153.31"/>
</a>
</g>
</g>
<!-- Node7 -->
<g id="Node000007" class="node">
<title>Node7</title>
<g id="a_Node000007"><a xlink:href="sourcecode_2appdal_2src_2DFApplication_8cpp.html" target="_top" xlink:title=" ">
<polygon fill="white" stroke="#666666" points="925.88,-119.5 801.12,-119.5 801.12,-77.75 925.88,-77.75 925.88,-119.5"/>
<text text-anchor="start" x="809.12" y="-106" font-family="Helvetica,sans-Serif" font-size="10.00">/github/workspace/dev</text>
<text text-anchor="start" x="809.12" y="-94.75" font-family="Helvetica,sans-Serif" font-size="10.00">_area/sourcecode/appdal</text>
<text text-anchor="middle" x="863.5" y="-83.5" font-family="Helvetica,sans-Serif" font-size="10.00">/src/DFApplication.cpp</text>
</a>
</g>
</g>
<!-- Node1&#45;&gt;Node7 -->
<g id="edge6_Node000001_Node000007" class="edge">
<title>Node1&#45;&gt;Node7</title>
<g id="a_edge6_Node000001_Node000007"><a xlink:title=" ">
<path fill="none" stroke="#63b8ff" d="M863.5,-143.75C863.5,-135.71 863.5,-127.29 863.5,-119.98"/>
<polygon fill="#63b8ff" stroke="#63b8ff" points="860,-143.56 863.5,-153.56 867,-143.56 860,-143.56"/>
</a>
</g>
</g>
<!-- Node8 -->
<g id="Node000008" class="node">
<title>Node8</title>
<g id="a_Node000008"><a xlink:href="sourcecode_2appdal_2src_2FakeHSIApplication_8cpp.html" target="_top" xlink:title=" ">
<polygon fill="white" stroke="#666666" points="1084.75,-119.5 944.25,-119.5 944.25,-77.75 1084.75,-77.75 1084.75,-119.5"/>
<text text-anchor="start" x="952.25" y="-106" font-family="Helvetica,sans-Serif" font-size="10.00">/github/workspace/dev</text>
<text text-anchor="start" x="952.25" y="-94.75" font-family="Helvetica,sans-Serif" font-size="10.00">_area/sourcecode/appdal</text>
<text text-anchor="middle" x="1014.5" y="-83.5" font-family="Helvetica,sans-Serif" font-size="10.00">/src/FakeHSIApplication.cpp</text>
</a>
</g>
</g>
<!-- Node1&#45;&gt;Node8 -->
<g id="edge7_Node000001_Node000008" class="edge">
<title>Node1&#45;&gt;Node8</title>
<g id="a_edge7_Node000001_Node000008"><a xlink:title=" ">
<path fill="none" stroke="#63b8ff" d="M914.18,-149.95C933.62,-140.2 955.54,-129.2 973.92,-119.98"/>
<polygon fill="#63b8ff" stroke="#63b8ff" points="912.69,-146.78 905.32,-154.4 915.83,-153.04 912.69,-146.78"/>
</a>
</g>
</g>
<!-- Node9 -->
<g id="Node000009" class="node">
<title>Node9</title>
<g id="a_Node000009"><a xlink:href="sourcecode_2appdal_2src_2MLTApplication_8cpp.html" target="_top" xlink:title=" ">
<polygon fill="white" stroke="#666666" points="1227.88,-119.5 1103.12,-119.5 1103.12,-77.75 1227.88,-77.75 1227.88,-119.5"/>
<text text-anchor="start" x="1111.12" y="-106" font-family="Helvetica,sans-Serif" font-size="10.00">/github/workspace/dev</text>
<text text-anchor="start" x="1111.12" y="-94.75" font-family="Helvetica,sans-Serif" font-size="10.00">_area/sourcecode/appdal</text>
<text text-anchor="middle" x="1165.5" y="-83.5" font-family="Helvetica,sans-Serif" font-size="10.00">/src/MLTApplication.cpp</text>
</a>
</g>
</g>
<!-- Node1&#45;&gt;Node9 -->
<g id="edge8_Node000001_Node000009" class="edge">
<title>Node1&#45;&gt;Node9</title>
<g id="a_edge8_Node000001_Node000009"><a xlink:title=" ">
<path fill="none" stroke="#63b8ff" d="M956.39,-153.5C998.35,-143.44 1048.5,-131.17 1093.5,-119.5 1096.51,-118.72 1099.59,-117.91 1102.7,-117.08"/>
<polygon fill="#63b8ff" stroke="#63b8ff" points="955.74,-150.06 946.82,-155.79 957.36,-156.87 955.74,-150.06"/>
</a>
</g>
</g>
<!-- Node10 -->
<g id="Node000010" class="node">
<title>Node10</title>
<g id="a_Node000010"><a xlink:href="TPWriterApplication_8cpp.html" target="_top" xlink:title=" ">
<polygon fill="white" stroke="#666666" points="1385.38,-119.5 1245.62,-119.5 1245.62,-77.75 1385.38,-77.75 1385.38,-119.5"/>
<text text-anchor="start" x="1253.62" y="-106" font-family="Helvetica,sans-Serif" font-size="10.00">/github/workspace/dev</text>
<text text-anchor="start" x="1253.62" y="-94.75" font-family="Helvetica,sans-Serif" font-size="10.00">_area/sourcecode/appdal</text>
<text text-anchor="middle" x="1315.5" y="-83.5" font-family="Helvetica,sans-Serif" font-size="10.00">/src/TPWriterApplication.cpp</text>
</a>
</g>
</g>
<!-- Node1&#45;&gt;Node10 -->
<g id="edge9_Node000001_Node000010" class="edge">
<title>Node1&#45;&gt;Node10</title>
<g id="a_edge9_Node000001_Node000010"><a xlink:title=" ">
<path fill="none" stroke="#63b8ff" d="M956.78,-163.98C1032.5,-154.11 1141.84,-138.45 1236.5,-119.5 1239.41,-118.92 1242.38,-118.3 1245.37,-117.65"/>
<polygon fill="#63b8ff" stroke="#63b8ff" points="956.36,-160.5 946.89,-165.25 957.26,-167.44 956.36,-160.5"/>
</a>
</g>
</g>
<!-- Node11 -->
<g id="Node000011" class="node">
<title>Node11</title>
<g id="a_Node000011"><a xlink:href="sourcecode_2appdal_2src_2TriggerApplication_8cpp.html" target="_top" xlink:title=" ">
<polygon fill="white" stroke="#666666" points="1535.25,-119.5 1403.75,-119.5 1403.75,-77.75 1535.25,-77.75 1535.25,-119.5"/>
<text text-anchor="start" x="1411.75" y="-106" font-family="Helvetica,sans-Serif" font-size="10.00">/github/workspace/dev</text>
<text text-anchor="start" x="1411.75" y="-94.75" font-family="Helvetica,sans-Serif" font-size="10.00">_area/sourcecode/appdal</text>
<text text-anchor="middle" x="1469.5" y="-83.5" font-family="Helvetica,sans-Serif" font-size="10.00">/src/TriggerApplication.cpp</text>
</a>
</g>
</g>
<!-- Node1&#45;&gt;Node11 -->
<g id="edge10_Node000001_Node000011" class="edge">
<title>Node1&#45;&gt;Node11</title>
<g id="a_edge10_Node000001_Node000011"><a xlink:title=" ">
<path fill="none" stroke="#63b8ff" d="M956.83,-169.93C1063.37,-162.69 1242.55,-147.46 1394.5,-119.5 1397.41,-118.96 1400.38,-118.37 1403.37,-117.74"/>
<polygon fill="#63b8ff" stroke="#63b8ff" points="956.73,-166.42 946.99,-170.58 957.2,-173.41 956.73,-166.42"/>
</a>
</g>
</g>
<!-- Node12 -->
<g id="Node000012" class="node">
<title>Node12</title>
<g id="a_Node000012"><a xlink:href="TCProcessor_8hpp.html" target="_top" xlink:title=" ">
<polygon fill="white" stroke="#666666" points="1693.75,-119.5 1553.25,-119.5 1553.25,-77.75 1693.75,-77.75 1693.75,-119.5"/>
<text text-anchor="start" x="1561.25" y="-106" font-family="Helvetica,sans-Serif" font-size="10.00">/github/workspace/dev</text>
<text text-anchor="start" x="1561.25" y="-94.75" font-family="Helvetica,sans-Serif" font-size="10.00">_area/sourcecode/trigger</text>
<text text-anchor="middle" x="1623.5" y="-83.5" font-family="Helvetica,sans-Serif" font-size="10.00">/src/trigger/TCProcessor.hpp</text>
</a>
</g>
</g>
<!-- Node1&#45;&gt;Node12 -->
<g id="edge11_Node000001_Node000012" class="edge">
<title>Node1&#45;&gt;Node12</title>
<g id="a_edge11_Node000001_Node000012"><a xlink:title=" ">
<path fill="none" stroke="#63b8ff" d="M956.49,-172.59C1088.15,-167.55 1336.11,-154.02 1544.5,-119.5 1547.29,-119.04 1550.13,-118.53 1552.99,-117.98"/>
<polygon fill="#63b8ff" stroke="#63b8ff" points="956.65,-169.08 946.79,-172.95 956.91,-176.08 956.65,-169.08"/>
</a>
</g>
</g>
<!-- Node13 -->
<g id="Node000013" class="node">
<title>Node13</title>
<g id="a_Node000013"><a xlink:href="TCProcessor_8cpp.html" target="_top" xlink:title=" ">
<polygon fill="white" stroke="#666666" points="1685.12,-41.75 1561.88,-41.75 1561.88,0 1685.12,0 1685.12,-41.75"/>
<text text-anchor="start" x="1569.88" y="-28.25" font-family="Helvetica,sans-Serif" font-size="10.00">/github/workspace/dev</text>
<text text-anchor="start" x="1569.88" y="-17" font-family="Helvetica,sans-Serif" font-size="10.00">_area/sourcecode/trigger</text>
<text text-anchor="middle" x="1623.5" y="-5.75" font-family="Helvetica,sans-Serif" font-size="10.00">/src/TCProcessor.cpp</text>
</a>
</g>
</g>
<!-- Node12&#45;&gt;Node13 -->
<g id="edge12_Node000012_Node000013" class="edge">
<title>Node12&#45;&gt;Node13</title>
<g id="a_edge12_Node000012_Node000013"><a xlink:title=" ">
<path fill="none" stroke="#63b8ff" d="M1623.5,-66C1623.5,-57.96 1623.5,-49.54 1623.5,-42.23"/>
<polygon fill="#63b8ff" stroke="#63b8ff" points="1620,-65.81 1623.5,-75.81 1627,-65.81 1620,-65.81"/>
</a>
</g>
</g>
</g>
</svg>
