<?xml version="1.0" encoding="UTF-8" standalone="no"?>
<!DOCTYPE svg PUBLIC "-//W3C//DTD SVG 1.1//EN"
 "http://www.w3.org/Graphics/SVG/1.1/DTD/svg11.dtd">
<!-- Generated by graphviz version 9.0.0 (20230911.1827)
 -->
<!-- Title: /github/workspace/dev_area/build/coredal/codegen/include/coredal/NetworkConnection.hpp Pages: 1 -->
<svg width="1882pt" height="128pt"
 viewBox="0.00 0.00 1882.12 127.50" xmlns="http://www.w3.org/2000/svg" xmlns:xlink="http://www.w3.org/1999/xlink">
<g id="graph0" class="graph" transform="scale(1 1) rotate(0) translate(4 123.5)">
<title>/github/workspace/dev_area/build/coredal/codegen/include/coredal/NetworkConnection.hpp</title>
<!-- Node1 -->
<g id="Node000001" class="node">
<title>Node1</title>
<g id="a_Node000001"><a xlink:title=" ">
<polygon fill="#999999" stroke="#666666" points="1034.88,-119.5 844.12,-119.5 844.12,-77.75 1034.88,-77.75 1034.88,-119.5"/>
<text text-anchor="start" x="852.12" y="-106" font-family="Helvetica,sans-Serif" font-size="10.00">/github/workspace/dev</text>
<text text-anchor="start" x="852.12" y="-94.75" font-family="Helvetica,sans-Serif" font-size="10.00">_area/build/coredal/codegen</text>
<text text-anchor="middle" x="939.5" y="-83.5" font-family="Helvetica,sans-Serif" font-size="10.00">/include/coredal/NetworkConnection.hpp</text>
</a>
</g>
</g>
<!-- Node2 -->
<g id="Node000002" class="node">
<title>Node2</title>
<g id="a_Node000002"><a xlink:href="NetworkConnection_8cpp.html" target="_top" xlink:title=" ">
<polygon fill="white" stroke="#666666" points="139,-41.75 0,-41.75 0,0 139,0 139,-41.75"/>
<text text-anchor="start" x="8" y="-28.25" font-family="Helvetica,sans-Serif" font-size="10.00">/github/workspace/dev</text>
<text text-anchor="start" x="8" y="-17" font-family="Helvetica,sans-Serif" font-size="10.00">_area/build/coredal/codegen</text>
<text text-anchor="middle" x="69.5" y="-5.75" font-family="Helvetica,sans-Serif" font-size="10.00">/src/NetworkConnection.cpp</text>
</a>
</g>
</g>
<!-- Node1&#45;&gt;Node2 -->
<g id="edge1_Node000001_Node000002" class="edge">
<title>Node1&#45;&gt;Node2</title>
<g id="a_edge1_Node000001_Node000002"><a xlink:title=" ">
<path fill="none" stroke="#63b8ff" d="M832.56,-96.14C679.73,-92.65 390.45,-80.95 147.5,-41.75 144.74,-41.3 141.94,-40.81 139.11,-40.27"/>
<polygon fill="#63b8ff" stroke="#63b8ff" points="832.19,-99.63 842.26,-96.35 832.34,-92.63 832.19,-99.63"/>
</a>
</g>
</g>
<!-- Node3 -->
<g id="Node000003" class="node">
<title>Node3</title>
<g id="a_Node000003"><a xlink:href="dump__dunedaq____coredal_8cpp.html" target="_top" xlink:title=" ">
<polygon fill="white" stroke="#666666" points="318.25,-41.75 156.75,-41.75 156.75,0 318.25,0 318.25,-41.75"/>
<text text-anchor="start" x="164.75" y="-28.25" font-family="Helvetica,sans-Serif" font-size="10.00">/github/workspace/dev</text>
<text text-anchor="start" x="164.75" y="-17" font-family="Helvetica,sans-Serif" font-size="10.00">_area/build/coredal/codegen</text>
<text text-anchor="middle" x="237.5" y="-5.75" font-family="Helvetica,sans-Serif" font-size="10.00">/src/dump_dunedaq__coredal.cpp</text>
</a>
</g>
</g>
<!-- Node1&#45;&gt;Node3 -->
<g id="edge2_Node000001_Node000003" class="edge">
<title>Node1&#45;&gt;Node3</title>
<g id="a_edge2_Node000001_Node000003"><a xlink:title=" ">
<path fill="none" stroke="#63b8ff" d="M832.41,-91.96C709.84,-84.52 503.34,-69.08 327.5,-41.75 324.5,-41.28 321.44,-40.78 318.36,-40.24"/>
<polygon fill="#63b8ff" stroke="#63b8ff" points="831.93,-95.43 842.13,-92.54 832.35,-88.45 831.93,-95.43"/>
</a>
</g>
</g>
<!-- Node4 -->
<g id="Node000004" class="node">
<title>Node4</title>
<g id="a_Node000004"><a xlink:href="sourcecode_2appdal_2src_2DFApplication_8cpp.html" target="_top" xlink:title=" ">
<polygon fill="white" stroke="#666666" points="460.88,-41.75 336.12,-41.75 336.12,0 460.88,0 460.88,-41.75"/>
<text text-anchor="start" x="344.12" y="-28.25" font-family="Helvetica,sans-Serif" font-size="10.00">/github/workspace/dev</text>
<text text-anchor="start" x="344.12" y="-17" font-family="Helvetica,sans-Serif" font-size="10.00">_area/sourcecode/appdal</text>
<text text-anchor="middle" x="398.5" y="-5.75" font-family="Helvetica,sans-Serif" font-size="10.00">/src/DFApplication.cpp</text>
</a>
</g>
</g>
<!-- Node1&#45;&gt;Node4 -->
<g id="edge3_Node000001_Node000004" class="edge">
<title>Node1&#45;&gt;Node4</title>
<g id="a_edge3_Node000001_Node000004"><a xlink:title=" ">
<path fill="none" stroke="#63b8ff" d="M832.22,-89.48C736.69,-81.12 593.44,-65.9 470.5,-41.75 467.45,-41.15 464.33,-40.49 461.2,-39.78"/>
<polygon fill="#63b8ff" stroke="#63b8ff" points="831.85,-92.96 842.12,-90.33 832.46,-85.98 831.85,-92.96"/>
</a>
</g>
</g>
<!-- Node5 -->
<g id="Node000005" class="node">
<title>Node5</title>
<g id="a_Node000005"><a xlink:href="sourcecode_2appdal_2src_2DFOApplication_8cpp.html" target="_top" xlink:title=" ">
<polygon fill="white" stroke="#666666" points="603.88,-41.75 479.12,-41.75 479.12,0 603.88,0 603.88,-41.75"/>
<text text-anchor="start" x="487.12" y="-28.25" font-family="Helvetica,sans-Serif" font-size="10.00">/github/workspace/dev</text>
<text text-anchor="start" x="487.12" y="-17" font-family="Helvetica,sans-Serif" font-size="10.00">_area/sourcecode/appdal</text>
<text text-anchor="middle" x="541.5" y="-5.75" font-family="Helvetica,sans-Serif" font-size="10.00">/src/DFOApplication.cpp</text>
</a>
</g>
</g>
<!-- Node1&#45;&gt;Node5 -->
<g id="edge4_Node000001_Node000005" class="edge">
<title>Node1&#45;&gt;Node5</title>
<g id="a_edge4_Node000001_Node000005"><a xlink:title=" ">
<path fill="none" stroke="#63b8ff" d="M832.49,-82.21C768.36,-72.26 685.39,-58.13 612.5,-41.75 609.75,-41.13 606.95,-40.47 604.13,-39.79"/>
<polygon fill="#63b8ff" stroke="#63b8ff" points="831.92,-85.66 842.34,-83.72 832.99,-78.74 831.92,-85.66"/>
</a>
</g>
</g>
<!-- Node6 -->
<g id="Node000006" class="node">
<title>Node6</title>
<g id="a_Node000006"><a xlink:href="sourcecode_2appdal_2src_2FakeDataApplication_8cpp.html" target="_top" xlink:title=" ">
<polygon fill="white" stroke="#666666" points="765.25,-41.75 621.75,-41.75 621.75,0 765.25,0 765.25,-41.75"/>
<text text-anchor="start" x="629.75" y="-28.25" font-family="Helvetica,sans-Serif" font-size="10.00">/github/workspace/dev</text>
<text text-anchor="start" x="629.75" y="-17" font-family="Helvetica,sans-Serif" font-size="10.00">_area/sourcecode/appdal</text>
<text text-anchor="middle" x="693.5" y="-5.75" font-family="Helvetica,sans-Serif" font-size="10.00">/src/FakeDataApplication.cpp</text>
</a>
</g>
</g>
<!-- Node1&#45;&gt;Node6 -->
<g id="edge5_Node000001_Node000006" class="edge">
<title>Node1&#45;&gt;Node6</title>
<g id="a_edge5_Node000001_Node000006"><a xlink:title=" ">
<path fill="none" stroke="#63b8ff" d="M862.59,-73.94C829.56,-63.77 791.34,-52 759.61,-42.23"/>
<polygon fill="#63b8ff" stroke="#63b8ff" points="861.54,-77.28 872.13,-76.88 863.6,-70.59 861.54,-77.28"/>
</a>
</g>
</g>
<!-- Node7 -->
<g id="Node000007" class="node">
<title>Node7</title>
<g id="a_Node000007"><a xlink:href="sourcecode_2appdal_2src_2FakeHSIApplication_8cpp.html" target="_top" xlink:title=" ">
<polygon fill="white" stroke="#666666" points="923.75,-41.75 783.25,-41.75 783.25,0 923.75,0 923.75,-41.75"/>
<text text-anchor="start" x="791.25" y="-28.25" font-family="Helvetica,sans-Serif" font-size="10.00">/github/workspace/dev</text>
<text text-anchor="start" x="791.25" y="-17" font-family="Helvetica,sans-Serif" font-size="10.00">_area/sourcecode/appdal</text>
<text text-anchor="middle" x="853.5" y="-5.75" font-family="Helvetica,sans-Serif" font-size="10.00">/src/FakeHSIApplication.cpp</text>
</a>
</g>
</g>
<!-- Node1&#45;&gt;Node7 -->
<g id="edge6_Node000001_Node000007" class="edge">
<title>Node1&#45;&gt;Node7</title>
<g id="a_edge6_Node000001_Node000007"><a xlink:title=" ">
<path fill="none" stroke="#63b8ff" d="M908.01,-69.89C897.62,-60.73 886.26,-50.73 876.61,-42.23"/>
<polygon fill="#63b8ff" stroke="#63b8ff" points="905.5,-72.34 915.32,-76.32 910.13,-67.09 905.5,-72.34"/>
</a>
</g>
</g>
<!-- Node8 -->
<g id="Node000008" class="node">
<title>Node8</title>
<g id="a_Node000008"><a xlink:href="sourcecode_2appdal_2src_2HSIEventToTCApplication_8cpp.html" target="_top" xlink:title=" ">
<polygon fill="white" stroke="#666666" points="1109.25,-41.75 941.75,-41.75 941.75,0 1109.25,0 1109.25,-41.75"/>
<text text-anchor="start" x="949.75" y="-28.25" font-family="Helvetica,sans-Serif" font-size="10.00">/github/workspace/dev</text>
<text text-anchor="start" x="949.75" y="-17" font-family="Helvetica,sans-Serif" font-size="10.00">_area/sourcecode/appdal</text>
<text text-anchor="middle" x="1025.5" y="-5.75" font-family="Helvetica,sans-Serif" font-size="10.00">/src/HSIEventToTCApplication.cpp</text>
</a>
</g>
</g>
<!-- Node1&#45;&gt;Node8 -->
<g id="edge7_Node000001_Node000008" class="edge">
<title>Node1&#45;&gt;Node8</title>
<g id="a_edge7_Node000001_Node000008"><a xlink:title=" ">
<path fill="none" stroke="#63b8ff" d="M970.99,-69.89C981.38,-60.73 992.74,-50.73 1002.39,-42.23"/>
<polygon fill="#63b8ff" stroke="#63b8ff" points="968.87,-67.09 963.68,-76.32 973.5,-72.34 968.87,-67.09"/>
</a>
</g>
</g>
<!-- Node9 -->
<g id="Node000009" class="node">
<title>Node9</title>
<g id="a_Node000009"><a xlink:href="sourcecode_2appdal_2src_2MLTApplication_8cpp.html" target="_top" xlink:title=" ">
<polygon fill="white" stroke="#666666" points="1251.88,-41.75 1127.12,-41.75 1127.12,0 1251.88,0 1251.88,-41.75"/>
<text text-anchor="start" x="1135.12" y="-28.25" font-family="Helvetica,sans-Serif" font-size="10.00">/github/workspace/dev</text>
<text text-anchor="start" x="1135.12" y="-17" font-family="Helvetica,sans-Serif" font-size="10.00">_area/sourcecode/appdal</text>
<text text-anchor="middle" x="1189.5" y="-5.75" font-family="Helvetica,sans-Serif" font-size="10.00">/src/MLTApplication.cpp</text>
</a>
</g>
</g>
<!-- Node1&#45;&gt;Node9 -->
<g id="edge8_Node000001_Node000009" class="edge">
<title>Node1&#45;&gt;Node9</title>
<g id="a_edge8_Node000001_Node000009"><a xlink:title=" ">
<path fill="none" stroke="#63b8ff" d="M1017.25,-74.07C1052.57,-63.37 1093.79,-50.88 1127.05,-40.8"/>
<polygon fill="#63b8ff" stroke="#63b8ff" points="1016.5,-70.64 1007.94,-76.89 1018.53,-77.34 1016.5,-70.64"/>
</a>
</g>
</g>
<!-- Node10 -->
<g id="Node000010" class="node">
<title>Node10</title>
<g id="a_Node000010"><a xlink:href="sourcecode_2appdal_2src_2ReadoutApplication_8cpp.html" target="_top" xlink:title=" ">
<polygon fill="white" stroke="#666666" points="1407.25,-41.75 1269.75,-41.75 1269.75,0 1407.25,0 1407.25,-41.75"/>
<text text-anchor="start" x="1277.75" y="-28.25" font-family="Helvetica,sans-Serif" font-size="10.00">/github/workspace/dev</text>
<text text-anchor="start" x="1277.75" y="-17" font-family="Helvetica,sans-Serif" font-size="10.00">_area/sourcecode/appdal</text>
<text text-anchor="middle" x="1338.5" y="-5.75" font-family="Helvetica,sans-Serif" font-size="10.00">/src/ReadoutApplication.cpp</text>
</a>
</g>
</g>
<!-- Node1&#45;&gt;Node10 -->
<g id="edge9_Node000001_Node000010" class="edge">
<title>Node1&#45;&gt;Node10</title>
<g id="a_edge9_Node000001_Node000010"><a xlink:title=" ">
<path fill="none" stroke="#63b8ff" d="M1046.12,-81.18C1108.78,-70.99 1189.4,-56.97 1260.5,-41.75 1263.51,-41.11 1266.57,-40.43 1269.66,-39.72"/>
<polygon fill="#63b8ff" stroke="#63b8ff" points="1045.84,-77.68 1036.53,-82.74 1046.96,-84.59 1045.84,-77.68"/>
</a>
</g>
</g>
<!-- Node11 -->
<g id="Node000011" class="node">
<title>Node11</title>
<g id="a_Node000011"><a xlink:href="TPWriterApplication_8cpp.html" target="_top" xlink:title=" ">
<polygon fill="white" stroke="#666666" points="1565.38,-41.75 1425.62,-41.75 1425.62,0 1565.38,0 1565.38,-41.75"/>
<text text-anchor="start" x="1433.62" y="-28.25" font-family="Helvetica,sans-Serif" font-size="10.00">/github/workspace/dev</text>
<text text-anchor="start" x="1433.62" y="-17" font-family="Helvetica,sans-Serif" font-size="10.00">_area/sourcecode/appdal</text>
<text text-anchor="middle" x="1495.5" y="-5.75" font-family="Helvetica,sans-Serif" font-size="10.00">/src/TPWriterApplication.cpp</text>
</a>
</g>
</g>
<!-- Node1&#45;&gt;Node11 -->
<g id="edge10_Node000001_Node000011" class="edge">
<title>Node1&#45;&gt;Node11</title>
<g id="a_edge10_Node000001_Node000011"><a xlink:title=" ">
<path fill="none" stroke="#63b8ff" d="M1046.36,-89.11C1143.42,-80.42 1290.28,-64.92 1416.5,-41.75 1419.42,-41.21 1422.39,-40.63 1425.39,-40.02"/>
<polygon fill="#63b8ff" stroke="#63b8ff" points="1046.23,-85.61 1036.58,-89.97 1046.85,-92.58 1046.23,-85.61"/>
</a>
</g>
</g>
<!-- Node12 -->
<g id="Node000012" class="node">
<title>Node12</title>
<g id="a_Node000012"><a xlink:href="sourcecode_2appdal_2src_2TriggerApplication_8cpp.html" target="_top" xlink:title=" ">
<polygon fill="white" stroke="#666666" points="1715.25,-41.75 1583.75,-41.75 1583.75,0 1715.25,0 1715.25,-41.75"/>
<text text-anchor="start" x="1591.75" y="-28.25" font-family="Helvetica,sans-Serif" font-size="10.00">/github/workspace/dev</text>
<text text-anchor="start" x="1591.75" y="-17" font-family="Helvetica,sans-Serif" font-size="10.00">_area/sourcecode/appdal</text>
<text text-anchor="middle" x="1649.5" y="-5.75" font-family="Helvetica,sans-Serif" font-size="10.00">/src/TriggerApplication.cpp</text>
</a>
</g>
</g>
<!-- Node1&#45;&gt;Node12 -->
<g id="edge11_Node000001_Node000012" class="edge">
<title>Node1&#45;&gt;Node12</title>
<g id="a_edge11_Node000001_Node000012"><a xlink:title=" ">
<path fill="none" stroke="#63b8ff" d="M1046.6,-93.8C1173.42,-87.98 1390.65,-73.95 1574.5,-41.75 1577.42,-41.24 1580.39,-40.67 1583.38,-40.05"/>
<polygon fill="#63b8ff" stroke="#63b8ff" points="1046.72,-90.29 1036.88,-94.23 1047.03,-97.28 1046.72,-90.29"/>
</a>
</g>
</g>
<!-- Node13 -->
<g id="Node000013" class="node">
<title>Node13</title>
<g id="a_Node000013"><a xlink:href="ModuleConfiguration_8cpp.html" target="_top" xlink:title=" ">
<polygon fill="white" stroke="#666666" points="1874.12,-41.75 1732.88,-41.75 1732.88,0 1874.12,0 1874.12,-41.75"/>
<text text-anchor="start" x="1740.88" y="-28.25" font-family="Helvetica,sans-Serif" font-size="10.00">/github/workspace/dev</text>
<text text-anchor="start" x="1740.88" y="-17" font-family="Helvetica,sans-Serif" font-size="10.00">_area/sourcecode/appfwk</text>
<text text-anchor="middle" x="1803.5" y="-5.75" font-family="Helvetica,sans-Serif" font-size="10.00">/src/ModuleConfiguration.cpp</text>
</a>
</g>
</g>
<!-- Node1&#45;&gt;Node13 -->
<g id="edge12_Node000001_Node000013" class="edge">
<title>Node1&#45;&gt;Node13</title>
<g id="a_edge12_Node000001_Node000013"><a xlink:title=" ">
<path fill="none" stroke="#63b8ff" d="M1046.41,-95.94C1198.11,-92.22 1484.13,-80.24 1724.5,-41.75 1727.15,-41.33 1729.85,-40.85 1732.56,-40.35"/>
<polygon fill="#63b8ff" stroke="#63b8ff" points="1046.7,-92.44 1036.79,-96.17 1046.87,-99.43 1046.7,-92.44"/>
</a>
</g>
</g>
</g>
</svg>
