<?xml version="1.0" encoding="UTF-8" standalone="no"?>
<!DOCTYPE svg PUBLIC "-//W3C//DTD SVG 1.1//EN"
 "http://www.w3.org/Graphics/SVG/1.1/DTD/svg11.dtd">
<!-- Generated by graphviz version 9.0.0 (20230911.1827)
 -->
<!-- Title: /github/workspace/dev_area/build/timinglibs/codegen/include/timinglibs/dal/EndpointLocation.hpp Pages: 1 -->
<svg width="548pt" height="150pt"
 viewBox="0.00 0.00 547.75 150.00" xmlns="http://www.w3.org/2000/svg" xmlns:xlink="http://www.w3.org/1999/xlink">
<g id="graph0" class="graph" transform="scale(1 1) rotate(0) translate(4 146)">
<title>/github/workspace/dev_area/build/timinglibs/codegen/include/timinglibs/dal/EndpointLocation.hpp</title>
<!-- Node1 -->
<g id="Node000001" class="node">
<title>Node1</title>
<g id="a_Node000001"><a xlink:title=" ">
<polygon fill="#999999" stroke="#666666" points="350,-142 216.25,-142 216.25,-89 350,-89 350,-142"/>
<text text-anchor="start" x="224.25" y="-128.5" font-family="Helvetica,sans-Serif" font-size="10.00">/github/workspace/dev</text>
<text text-anchor="start" x="224.25" y="-117.25" font-family="Helvetica,sans-Serif" font-size="10.00">_area/build/timinglibs</text>
<text text-anchor="start" x="224.25" y="-106" font-family="Helvetica,sans-Serif" font-size="10.00">/codegen/include/timinglibs</text>
<text text-anchor="middle" x="283.12" y="-94.75" font-family="Helvetica,sans-Serif" font-size="10.00">/dal/EndpointLocation.hpp</text>
</a>
</g>
</g>
<!-- Node2 -->
<g id="Node000002" class="node">
<title>Node2</title>
<g id="a_Node000002"><a xlink:href="EndpointLocation_8cpp.html" target="_top" xlink:title=" ">
<polygon fill="white" stroke="#666666" points="168.25,-47.38 0,-47.38 0,-5.62 168.25,-5.62 168.25,-47.38"/>
<text text-anchor="start" x="8" y="-33.88" font-family="Helvetica,sans-Serif" font-size="10.00">/github/workspace/dev</text>
<text text-anchor="start" x="8" y="-22.62" font-family="Helvetica,sans-Serif" font-size="10.00">_area/build/timinglibs</text>
<text text-anchor="middle" x="84.12" y="-11.38" font-family="Helvetica,sans-Serif" font-size="10.00">/codegen/src/EndpointLocation.cpp</text>
</a>
</g>
</g>
<!-- Node1&#45;&gt;Node2 -->
<g id="edge1_Node000001_Node000002" class="edge">
<title>Node1&#45;&gt;Node2</title>
<g id="a_edge1_Node000001_Node000002"><a xlink:title=" ">
<path fill="none" stroke="#63b8ff" d="M213.37,-84C185.96,-72.02 155.24,-58.59 130.63,-47.83"/>
<polygon fill="#63b8ff" stroke="#63b8ff" points="211.74,-87.11 222.3,-87.91 214.54,-80.7 211.74,-87.11"/>
</a>
</g>
</g>
<!-- Node3 -->
<g id="Node000003" class="node">
<title>Node3</title>
<g id="a_Node000003"><a xlink:href="build_2timinglibs_2codegen_2src_2TimingMasterController_8cpp.html" target="_top" xlink:title=" ">
<polygon fill="white" stroke="#666666" points="380,-47.38 186.25,-47.38 186.25,-5.62 380,-5.62 380,-47.38"/>
<text text-anchor="start" x="194.25" y="-33.88" font-family="Helvetica,sans-Serif" font-size="10.00">/github/workspace/dev</text>
<text text-anchor="start" x="194.25" y="-22.62" font-family="Helvetica,sans-Serif" font-size="10.00">_area/build/timinglibs</text>
<text text-anchor="middle" x="283.12" y="-11.38" font-family="Helvetica,sans-Serif" font-size="10.00">/codegen/src/TimingMasterController.cpp</text>
</a>
</g>
</g>
<!-- Node1&#45;&gt;Node3 -->
<g id="edge2_Node000001_Node000003" class="edge">
<title>Node1&#45;&gt;Node3</title>
<g id="a_edge2_Node000001_Node000003"><a xlink:title=" ">
<path fill="none" stroke="#63b8ff" d="M283.12,-77.63C283.12,-67.38 283.12,-56.62 283.12,-47.71"/>
<polygon fill="#63b8ff" stroke="#63b8ff" points="279.63,-77.35 283.13,-87.35 286.63,-77.35 279.63,-77.35"/>
</a>
</g>
</g>
<!-- Node4 -->
<g id="Node000004" class="node">
<title>Node4</title>
<g id="a_Node000004"><a xlink:href="dump__dunedaq____timinglibs____dal_8cpp.html" target="_top" xlink:title=" ">
<polygon fill="white" stroke="#666666" points="539.75,-53 398.5,-53 398.5,0 539.75,0 539.75,-53"/>
<text text-anchor="start" x="406.5" y="-39.5" font-family="Helvetica,sans-Serif" font-size="10.00">/github/workspace/dev</text>
<text text-anchor="start" x="406.5" y="-28.25" font-family="Helvetica,sans-Serif" font-size="10.00">_area/build/timinglibs</text>
<text text-anchor="start" x="406.5" y="-17" font-family="Helvetica,sans-Serif" font-size="10.00">/codegen/src/dump_dunedaq</text>
<text text-anchor="middle" x="469.12" y="-5.75" font-family="Helvetica,sans-Serif" font-size="10.00">__timinglibs__dal.cpp</text>
</a>
</g>
</g>
<!-- Node1&#45;&gt;Node4 -->
<g id="edge3_Node000001_Node000004" class="edge">
<title>Node1&#45;&gt;Node4</title>
<g id="a_edge3_Node000001_Node000004"><a xlink:title=" ">
<path fill="none" stroke="#63b8ff" d="M348.92,-83.73C370.15,-73.79 393.46,-62.89 413.86,-53.35"/>
<polygon fill="#63b8ff" stroke="#63b8ff" points="347.63,-80.47 340.05,-87.87 350.59,-86.81 347.63,-80.47"/>
</a>
</g>
</g>
</g>
</svg>
