<?xml version="1.0" encoding="UTF-8" standalone="no"?>
<!DOCTYPE svg PUBLIC "-//W3C//DTD SVG 1.1//EN"
 "http://www.w3.org/Graphics/SVG/1.1/DTD/svg11.dtd">
<!-- Generated by graphviz version 9.0.0 (20230911.1827)
 -->
<!-- Title: /github/workspace/dev_area/build/coredal/codegen/include/coredal/RCApplication.hpp Pages: 1 -->
<svg width="951pt" height="128pt"
 viewBox="0.00 0.00 950.62 127.50" xmlns="http://www.w3.org/2000/svg" xmlns:xlink="http://www.w3.org/1999/xlink">
<g id="graph0" class="graph" transform="scale(1 1) rotate(0) translate(4 123.5)">
<title>/github/workspace/dev_area/build/coredal/codegen/include/coredal/RCApplication.hpp</title>
<!-- Node1 -->
<g id="Node000001" class="node">
<title>Node1</title>
<g id="a_Node000001"><a xlink:title=" ">
<polygon fill="#999999" stroke="#666666" points="563.12,-119.5 396.38,-119.5 396.38,-77.75 563.12,-77.75 563.12,-119.5"/>
<text text-anchor="start" x="404.38" y="-106" font-family="Helvetica,sans-Serif" font-size="10.00">/github/workspace/dev</text>
<text text-anchor="start" x="404.38" y="-94.75" font-family="Helvetica,sans-Serif" font-size="10.00">_area/build/coredal/codegen</text>
<text text-anchor="middle" x="479.75" y="-83.5" font-family="Helvetica,sans-Serif" font-size="10.00">/include/coredal/RCApplication.hpp</text>
</a>
</g>
</g>
<!-- Node2 -->
<g id="Node000002" class="node">
<title>Node2</title>
<g id="a_Node000002"><a xlink:href="RCApplication_8cpp.html" target="_top" xlink:title=" ">
<polygon fill="white" stroke="#666666" points="137.5,-41.75 0,-41.75 0,0 137.5,0 137.5,-41.75"/>
<text text-anchor="start" x="8" y="-28.25" font-family="Helvetica,sans-Serif" font-size="10.00">/github/workspace/dev</text>
<text text-anchor="start" x="8" y="-17" font-family="Helvetica,sans-Serif" font-size="10.00">_area/build/coredal/codegen</text>
<text text-anchor="middle" x="68.75" y="-5.75" font-family="Helvetica,sans-Serif" font-size="10.00">/src/RCApplication.cpp</text>
</a>
</g>
</g>
<!-- Node1&#45;&gt;Node2 -->
<g id="edge1_Node000001_Node000002" class="edge">
<title>Node1&#45;&gt;Node2</title>
<g id="a_edge1_Node000001_Node000002"><a xlink:title=" ">
<path fill="none" stroke="#63b8ff" d="M384.56,-83.81C317.75,-73.59 226.46,-58.56 146.75,-41.75 143.74,-41.12 140.67,-40.44 137.58,-39.74"/>
<polygon fill="#63b8ff" stroke="#63b8ff" points="384,-87.26 394.41,-85.31 385.05,-80.34 384,-87.26"/>
</a>
</g>
</g>
<!-- Node3 -->
<g id="Node000003" class="node">
<title>Node3</title>
<g id="a_Node000003"><a xlink:href="Segment_8cpp.html" target="_top" xlink:title=" ">
<polygon fill="white" stroke="#666666" points="293.5,-41.75 156,-41.75 156,0 293.5,0 293.5,-41.75"/>
<text text-anchor="start" x="164" y="-28.25" font-family="Helvetica,sans-Serif" font-size="10.00">/github/workspace/dev</text>
<text text-anchor="start" x="164" y="-17" font-family="Helvetica,sans-Serif" font-size="10.00">_area/build/coredal/codegen</text>
<text text-anchor="middle" x="224.75" y="-5.75" font-family="Helvetica,sans-Serif" font-size="10.00">/src/Segment.cpp</text>
</a>
</g>
</g>
<!-- Node1&#45;&gt;Node3 -->
<g id="edge2_Node000001_Node000003" class="edge">
<title>Node1&#45;&gt;Node3</title>
<g id="a_edge2_Node000001_Node000003"><a xlink:title=" ">
<path fill="none" stroke="#63b8ff" d="M400.47,-74.07C366.13,-63.87 326.31,-52.05 293.27,-42.23"/>
<polygon fill="#63b8ff" stroke="#63b8ff" points="399.38,-77.4 409.96,-76.89 401.37,-70.69 399.38,-77.4"/>
</a>
</g>
</g>
<!-- Node4 -->
<g id="Node000004" class="node">
<title>Node4</title>
<g id="a_Node000004"><a xlink:href="dump__dunedaq____coredal_8cpp.html" target="_top" xlink:title=" ">
<polygon fill="white" stroke="#666666" points="473.5,-41.75 312,-41.75 312,0 473.5,0 473.5,-41.75"/>
<text text-anchor="start" x="320" y="-28.25" font-family="Helvetica,sans-Serif" font-size="10.00">/github/workspace/dev</text>
<text text-anchor="start" x="320" y="-17" font-family="Helvetica,sans-Serif" font-size="10.00">_area/build/coredal/codegen</text>
<text text-anchor="middle" x="392.75" y="-5.75" font-family="Helvetica,sans-Serif" font-size="10.00">/src/dump_dunedaq__coredal.cpp</text>
</a>
</g>
</g>
<!-- Node1&#45;&gt;Node4 -->
<g id="edge3_Node000001_Node000004" class="edge">
<title>Node1&#45;&gt;Node4</title>
<g id="a_edge3_Node000001_Node000004"><a xlink:title=" ">
<path fill="none" stroke="#63b8ff" d="M447.89,-69.89C437.38,-60.73 425.89,-50.73 416.13,-42.23"/>
<polygon fill="#63b8ff" stroke="#63b8ff" points="445.45,-72.4 455.29,-76.33 450.05,-67.13 445.45,-72.4"/>
</a>
</g>
</g>
<!-- Node5 -->
<g id="Node000005" class="node">
<title>Node5</title>
<g id="a_Node000005"><a xlink:href="get__apps__arguments_8cxx.html" target="_top" xlink:title=" ">
<polygon fill="white" stroke="#666666" points="641.88,-41.75 491.62,-41.75 491.62,0 641.88,0 641.88,-41.75"/>
<text text-anchor="start" x="499.62" y="-28.25" font-family="Helvetica,sans-Serif" font-size="10.00">/github/workspace/dev</text>
<text text-anchor="start" x="499.62" y="-17" font-family="Helvetica,sans-Serif" font-size="10.00">_area/sourcecode/appdal</text>
<text text-anchor="middle" x="566.75" y="-5.75" font-family="Helvetica,sans-Serif" font-size="10.00">/apps/get_apps_arguments.cxx</text>
</a>
</g>
</g>
<!-- Node1&#45;&gt;Node5 -->
<g id="edge4_Node000001_Node000005" class="edge">
<title>Node1&#45;&gt;Node5</title>
<g id="a_edge4_Node000001_Node000005"><a xlink:title=" ">
<path fill="none" stroke="#63b8ff" d="M511.61,-69.89C522.12,-60.73 533.61,-50.73 543.37,-42.23"/>
<polygon fill="#63b8ff" stroke="#63b8ff" points="509.45,-67.13 504.21,-76.33 514.05,-72.4 509.45,-67.13"/>
</a>
</g>
</g>
<!-- Node6 -->
<g id="Node000006" class="node">
<title>Node6</title>
<g id="a_Node000006"><a xlink:href="coredal_2pybindsrc_2dal__methods_8cpp.html" target="_top" xlink:title=" ">
<polygon fill="white" stroke="#666666" points="797.12,-41.75 660.38,-41.75 660.38,0 797.12,0 797.12,-41.75"/>
<text text-anchor="start" x="668.38" y="-28.25" font-family="Helvetica,sans-Serif" font-size="10.00">/github/workspace/dev</text>
<text text-anchor="start" x="668.38" y="-17" font-family="Helvetica,sans-Serif" font-size="10.00">_area/sourcecode/coredal</text>
<text text-anchor="middle" x="728.75" y="-5.75" font-family="Helvetica,sans-Serif" font-size="10.00">/pybindsrc/dal_methods.cpp</text>
</a>
</g>
</g>
<!-- Node1&#45;&gt;Node6 -->
<g id="edge5_Node000001_Node000006" class="edge">
<title>Node1&#45;&gt;Node6</title>
<g id="a_edge5_Node000001_Node000006"><a xlink:title=" ">
<path fill="none" stroke="#63b8ff" d="M557.16,-74.07C590.7,-63.87 629.58,-52.05 661.84,-42.23"/>
<polygon fill="#63b8ff" stroke="#63b8ff" points="556.47,-70.63 547.93,-76.88 558.51,-77.32 556.47,-70.63"/>
</a>
</g>
</g>
<!-- Node7 -->
<g id="Node000007" class="node">
<title>Node7</title>
<g id="a_Node000007"><a xlink:href="dalMethods_8cpp.html" target="_top" xlink:title=" ">
<polygon fill="white" stroke="#666666" points="942.62,-41.75 814.88,-41.75 814.88,0 942.62,0 942.62,-41.75"/>
<text text-anchor="start" x="822.88" y="-28.25" font-family="Helvetica,sans-Serif" font-size="10.00">/github/workspace/dev</text>
<text text-anchor="start" x="822.88" y="-17" font-family="Helvetica,sans-Serif" font-size="10.00">_area/sourcecode/coredal</text>
<text text-anchor="middle" x="878.75" y="-5.75" font-family="Helvetica,sans-Serif" font-size="10.00">/src/dalMethods.cpp</text>
</a>
</g>
</g>
<!-- Node1&#45;&gt;Node7 -->
<g id="edge6_Node000001_Node000007" class="edge">
<title>Node1&#45;&gt;Node7</title>
<g id="a_edge6_Node000001_Node000007"><a xlink:title=" ">
<path fill="none" stroke="#63b8ff" d="M574.69,-83.82C639.98,-73.72 728.5,-58.84 805.75,-41.75 808.7,-41.1 811.71,-40.4 814.74,-39.68"/>
<polygon fill="#63b8ff" stroke="#63b8ff" points="574.44,-80.32 565.09,-85.29 575.51,-87.23 574.44,-80.32"/>
</a>
</g>
</g>
</g>
</svg>
