<?xml version="1.0" encoding="UTF-8" standalone="no"?>
<!DOCTYPE svg PUBLIC "-//W3C//DTD SVG 1.1//EN"
 "http://www.w3.org/Graphics/SVG/1.1/DTD/svg11.dtd">
<!-- Generated by graphviz version 9.0.0 (20230911.1827)
 -->
<!-- Title: /github/workspace/dev_area/build/appdal/codegen/include/appdal/RandomTriggerCandidateMakerConf.hpp Pages: 1 -->
<svg width="564pt" height="150pt"
 viewBox="0.00 0.00 564.25 150.00" xmlns="http://www.w3.org/2000/svg" xmlns:xlink="http://www.w3.org/1999/xlink">
<g id="graph0" class="graph" transform="scale(1 1) rotate(0) translate(4 146)">
<title>/github/workspace/dev_area/build/appdal/codegen/include/appdal/RandomTriggerCandidateMakerConf.hpp</title>
<!-- Node1 -->
<g id="Node000001" class="node">
<title>Node1</title>
<g id="a_Node000001"><a xlink:title=" ">
<polygon fill="#999999" stroke="#666666" points="390.88,-142 197.12,-142 197.12,-89 390.88,-89 390.88,-142"/>
<text text-anchor="start" x="205.12" y="-128.5" font-family="Helvetica,sans-Serif" font-size="10.00">/github/workspace/dev</text>
<text text-anchor="start" x="205.12" y="-117.25" font-family="Helvetica,sans-Serif" font-size="10.00">_area/build/appdal/codegen</text>
<text text-anchor="start" x="205.12" y="-106" font-family="Helvetica,sans-Serif" font-size="10.00">/include/appdal/RandomTriggerCandidate</text>
<text text-anchor="middle" x="294" y="-94.75" font-family="Helvetica,sans-Serif" font-size="10.00">MakerConf.hpp</text>
</a>
</g>
</g>
<!-- Node2 -->
<g id="Node000002" class="node">
<title>Node2</title>
<g id="a_Node000002"><a xlink:href="RandomTriggerCandidateMaker_8cpp.html" target="_top" xlink:title=" ">
<polygon fill="white" stroke="#666666" points="190,-47.38 0,-47.38 0,-5.62 190,-5.62 190,-47.38"/>
<text text-anchor="start" x="8" y="-33.88" font-family="Helvetica,sans-Serif" font-size="10.00">/github/workspace/dev</text>
<text text-anchor="start" x="8" y="-22.62" font-family="Helvetica,sans-Serif" font-size="10.00">_area/build/appdal/codegen</text>
<text text-anchor="middle" x="95" y="-11.38" font-family="Helvetica,sans-Serif" font-size="10.00">/src/RandomTriggerCandidateMaker.cpp</text>
</a>
</g>
</g>
<!-- Node1&#45;&gt;Node2 -->
<g id="edge1_Node000001_Node000002" class="edge">
<title>Node1&#45;&gt;Node2</title>
<g id="a_edge1_Node000001_Node000002"><a xlink:title=" ">
<path fill="none" stroke="#63b8ff" d="M224.24,-84C196.84,-72.02 166.12,-58.59 141.51,-47.83"/>
<polygon fill="#63b8ff" stroke="#63b8ff" points="222.61,-87.11 233.18,-87.91 225.42,-80.7 222.61,-87.11"/>
</a>
</g>
</g>
<!-- Node3 -->
<g id="Node000003" class="node">
<title>Node3</title>
<g id="a_Node000003"><a xlink:href="RandomTriggerCandidateMakerConf_8cpp.html" target="_top" xlink:title=" ">
<polygon fill="white" stroke="#666666" points="380,-53 208,-53 208,0 380,0 380,-53"/>
<text text-anchor="start" x="216" y="-39.5" font-family="Helvetica,sans-Serif" font-size="10.00">/github/workspace/dev</text>
<text text-anchor="start" x="216" y="-28.25" font-family="Helvetica,sans-Serif" font-size="10.00">_area/build/appdal/codegen</text>
<text text-anchor="start" x="216" y="-17" font-family="Helvetica,sans-Serif" font-size="10.00">/src/RandomTriggerCandidateMaker</text>
<text text-anchor="middle" x="294" y="-5.75" font-family="Helvetica,sans-Serif" font-size="10.00">Conf.cpp</text>
</a>
</g>
</g>
<!-- Node1&#45;&gt;Node3 -->
<g id="edge2_Node000001_Node000003" class="edge">
<title>Node1&#45;&gt;Node3</title>
<g id="a_edge2_Node000001_Node000003"><a xlink:title=" ">
<path fill="none" stroke="#63b8ff" d="M294,-77.61C294,-69.41 294,-60.89 294,-53.25"/>
<polygon fill="#63b8ff" stroke="#63b8ff" points="290.5,-77.35 294,-87.35 297.5,-77.35 290.5,-77.35"/>
</a>
</g>
</g>
<!-- Node4 -->
<g id="Node000004" class="node">
<title>Node4</title>
<g id="a_Node000004"><a xlink:href="dump__dunedaq____appdal_8cpp.html" target="_top" xlink:title=" ">
<polygon fill="white" stroke="#666666" points="556.25,-47.38 397.75,-47.38 397.75,-5.62 556.25,-5.62 556.25,-47.38"/>
<text text-anchor="start" x="405.75" y="-33.88" font-family="Helvetica,sans-Serif" font-size="10.00">/github/workspace/dev</text>
<text text-anchor="start" x="405.75" y="-22.62" font-family="Helvetica,sans-Serif" font-size="10.00">_area/build/appdal/codegen</text>
<text text-anchor="middle" x="477" y="-11.38" font-family="Helvetica,sans-Serif" font-size="10.00">/src/dump_dunedaq__appdal.cpp</text>
</a>
</g>
</g>
<!-- Node1&#45;&gt;Node4 -->
<g id="edge3_Node000001_Node000004" class="edge">
<title>Node1&#45;&gt;Node4</title>
<g id="a_edge3_Node000001_Node000004"><a xlink:title=" ">
<path fill="none" stroke="#63b8ff" d="M358.61,-83.78C383.77,-71.82 411.89,-58.45 434.41,-47.75"/>
<polygon fill="#63b8ff" stroke="#63b8ff" points="357.31,-80.53 349.78,-87.98 360.31,-86.85 357.31,-80.53"/>
</a>
</g>
</g>
</g>
</svg>
