<?xml version="1.0" encoding="UTF-8" standalone="no"?>
<!DOCTYPE svg PUBLIC "-//W3C//DTD SVG 1.1//EN"
 "http://www.w3.org/Graphics/SVG/1.1/DTD/svg11.dtd">
<!-- Generated by graphviz version 9.0.0 (20230911.1827)
 -->
<!-- Title: /github/workspace/dev_area/build/appdal/codegen/include/appdal/FelixInterface.hpp Pages: 1 -->
<svg width="457pt" height="205pt"
 viewBox="0.00 0.00 457.38 205.25" xmlns="http://www.w3.org/2000/svg" xmlns:xlink="http://www.w3.org/1999/xlink">
<g id="graph0" class="graph" transform="scale(1 1) rotate(0) translate(4 201.25)">
<title>/github/workspace/dev_area/build/appdal/codegen/include/appdal/FelixInterface.hpp</title>
<!-- Node1 -->
<g id="Node000001" class="node">
<title>Node1</title>
<g id="a_Node000001"><a xlink:title=" ">
<polygon fill="#999999" stroke="#666666" points="312.62,-197.25 151.88,-197.25 151.88,-155.5 312.62,-155.5 312.62,-197.25"/>
<text text-anchor="start" x="159.88" y="-183.75" font-family="Helvetica,sans-Serif" font-size="10.00">/github/workspace/dev</text>
<text text-anchor="start" x="159.88" y="-172.5" font-family="Helvetica,sans-Serif" font-size="10.00">_area/build/appdal/codegen</text>
<text text-anchor="middle" x="232.25" y="-161.25" font-family="Helvetica,sans-Serif" font-size="10.00">/include/appdal/FelixInterface.hpp</text>
</a>
</g>
</g>
<!-- Node2 -->
<g id="Node000002" class="node">
<title>Node2</title>
<g id="a_Node000002"><a xlink:href="FelixInterface_8cpp.html" target="_top" xlink:title=" ">
<polygon fill="white" stroke="#666666" points="134.5,-119.5 0,-119.5 0,-77.75 134.5,-77.75 134.5,-119.5"/>
<text text-anchor="start" x="8" y="-106" font-family="Helvetica,sans-Serif" font-size="10.00">/github/workspace/dev</text>
<text text-anchor="start" x="8" y="-94.75" font-family="Helvetica,sans-Serif" font-size="10.00">_area/build/appdal/codegen</text>
<text text-anchor="middle" x="67.25" y="-83.5" font-family="Helvetica,sans-Serif" font-size="10.00">/src/FelixInterface.cpp</text>
</a>
</g>
</g>
<!-- Node1&#45;&gt;Node2 -->
<g id="edge1_Node000001_Node000002" class="edge">
<title>Node1&#45;&gt;Node2</title>
<g id="a_edge1_Node000001_Node000002"><a xlink:title=" ">
<path fill="none" stroke="#63b8ff" d="M177.76,-150.36C156.29,-140.5 131.95,-129.33 111.59,-119.98"/>
<polygon fill="#63b8ff" stroke="#63b8ff" points="176.11,-153.45 186.66,-154.44 179.03,-147.09 176.11,-153.45"/>
</a>
</g>
</g>
<!-- Node3 -->
<g id="Node000003" class="node">
<title>Node3</title>
<g id="a_Node000003"><a xlink:href="dump__dunedaq____appdal_8cpp.html" target="_top" xlink:title=" ">
<polygon fill="white" stroke="#666666" points="311.5,-119.5 153,-119.5 153,-77.75 311.5,-77.75 311.5,-119.5"/>
<text text-anchor="start" x="161" y="-106" font-family="Helvetica,sans-Serif" font-size="10.00">/github/workspace/dev</text>
<text text-anchor="start" x="161" y="-94.75" font-family="Helvetica,sans-Serif" font-size="10.00">_area/build/appdal/codegen</text>
<text text-anchor="middle" x="232.25" y="-83.5" font-family="Helvetica,sans-Serif" font-size="10.00">/src/dump_dunedaq__appdal.cpp</text>
</a>
</g>
</g>
<!-- Node1&#45;&gt;Node3 -->
<g id="edge2_Node000001_Node000003" class="edge">
<title>Node1&#45;&gt;Node3</title>
<g id="a_edge2_Node000001_Node000003"><a xlink:title=" ">
<path fill="none" stroke="#63b8ff" d="M232.25,-143.75C232.25,-135.71 232.25,-127.29 232.25,-119.98"/>
<polygon fill="#63b8ff" stroke="#63b8ff" points="228.75,-143.56 232.25,-153.56 235.75,-143.56 228.75,-143.56"/>
</a>
</g>
</g>
<!-- Node4 -->
<g id="Node000004" class="node">
<title>Node4</title>
<g id="a_Node000004"><a xlink:href="CardWrapper_8hpp.html" target="_top" xlink:title=" ">
<polygon fill="white" stroke="#666666" points="449.38,-119.5 329.12,-119.5 329.12,-77.75 449.38,-77.75 449.38,-119.5"/>
<text text-anchor="start" x="337.12" y="-106" font-family="Helvetica,sans-Serif" font-size="10.00">/github/workspace/dev</text>
<text text-anchor="start" x="337.12" y="-94.75" font-family="Helvetica,sans-Serif" font-size="10.00">_area/sourcecode/flxlibs</text>
<text text-anchor="middle" x="389.25" y="-83.5" font-family="Helvetica,sans-Serif" font-size="10.00">/src/CardWrapper.hpp</text>
</a>
</g>
</g>
<!-- Node1&#45;&gt;Node4 -->
<g id="edge3_Node000001_Node000004" class="edge">
<title>Node1&#45;&gt;Node4</title>
<g id="a_edge3_Node000001_Node000004"><a xlink:title=" ">
<path fill="none" stroke="#63b8ff" d="M284.66,-150.09C304.95,-140.3 327.86,-129.24 347.06,-119.98"/>
<polygon fill="#63b8ff" stroke="#63b8ff" points="283.17,-146.92 275.69,-154.42 286.21,-153.22 283.17,-146.92"/>
</a>
</g>
</g>
<!-- Node5 -->
<g id="Node000005" class="node">
<title>Node5</title>
<g id="a_Node000005"><a xlink:href="CardWrapper_8cpp.html" target="_top" xlink:title=" ">
<polygon fill="white" stroke="#666666" points="449.38,-41.75 329.12,-41.75 329.12,0 449.38,0 449.38,-41.75"/>
<text text-anchor="start" x="337.12" y="-28.25" font-family="Helvetica,sans-Serif" font-size="10.00">/github/workspace/dev</text>
<text text-anchor="start" x="337.12" y="-17" font-family="Helvetica,sans-Serif" font-size="10.00">_area/sourcecode/flxlibs</text>
<text text-anchor="middle" x="389.25" y="-5.75" font-family="Helvetica,sans-Serif" font-size="10.00">/src/CardWrapper.cpp</text>
</a>
</g>
</g>
<!-- Node4&#45;&gt;Node5 -->
<g id="edge4_Node000004_Node000005" class="edge">
<title>Node4&#45;&gt;Node5</title>
<g id="a_edge4_Node000004_Node000005"><a xlink:title=" ">
<path fill="none" stroke="#63b8ff" d="M389.25,-66C389.25,-57.96 389.25,-49.54 389.25,-42.23"/>
<polygon fill="#63b8ff" stroke="#63b8ff" points="385.75,-65.81 389.25,-75.81 392.75,-65.81 385.75,-65.81"/>
</a>
</g>
</g>
</g>
</svg>
