<?xml version="1.0" encoding="UTF-8" standalone="no"?>
<!DOCTYPE svg PUBLIC "-//W3C//DTD SVG 1.1//EN"
 "http://www.w3.org/Graphics/SVG/1.1/DTD/svg11.dtd">
<!-- Generated by graphviz version 9.0.0 (20230911.1827)
 -->
<!-- Title: /github/workspace/dev_area/build/appdal/codegen/include/appdal/CustomTriggerCandidateMakerConf.hpp Pages: 1 -->
<svg width="560pt" height="150pt"
 viewBox="0.00 0.00 560.12 150.00" xmlns="http://www.w3.org/2000/svg" xmlns:xlink="http://www.w3.org/1999/xlink">
<g id="graph0" class="graph" transform="scale(1 1) rotate(0) translate(4 146)">
<title>/github/workspace/dev_area/build/appdal/codegen/include/appdal/CustomTriggerCandidateMakerConf.hpp</title>
<!-- Node1 -->
<g id="Node000001" class="node">
<title>Node1</title>
<g id="a_Node000001"><a xlink:title=" ">
<polygon fill="#999999" stroke="#666666" points="386.62,-142 195.12,-142 195.12,-89 386.62,-89 386.62,-142"/>
<text text-anchor="start" x="203.12" y="-128.5" font-family="Helvetica,sans-Serif" font-size="10.00">/github/workspace/dev</text>
<text text-anchor="start" x="203.12" y="-117.25" font-family="Helvetica,sans-Serif" font-size="10.00">_area/build/appdal/codegen</text>
<text text-anchor="start" x="203.12" y="-106" font-family="Helvetica,sans-Serif" font-size="10.00">/include/appdal/CustomTriggerCandidate</text>
<text text-anchor="middle" x="290.88" y="-94.75" font-family="Helvetica,sans-Serif" font-size="10.00">MakerConf.hpp</text>
</a>
</g>
</g>
<!-- Node2 -->
<g id="Node000002" class="node">
<title>Node2</title>
<g id="a_Node000002"><a xlink:href="CustomTriggerCandidateMaker_8cpp.html" target="_top" xlink:title=" ">
<polygon fill="white" stroke="#666666" points="187.75,-47.38 0,-47.38 0,-5.62 187.75,-5.62 187.75,-47.38"/>
<text text-anchor="start" x="8" y="-33.88" font-family="Helvetica,sans-Serif" font-size="10.00">/github/workspace/dev</text>
<text text-anchor="start" x="8" y="-22.62" font-family="Helvetica,sans-Serif" font-size="10.00">_area/build/appdal/codegen</text>
<text text-anchor="middle" x="93.88" y="-11.38" font-family="Helvetica,sans-Serif" font-size="10.00">/src/CustomTriggerCandidateMaker.cpp</text>
</a>
</g>
</g>
<!-- Node1&#45;&gt;Node2 -->
<g id="edge1_Node000001_Node000002" class="edge">
<title>Node1&#45;&gt;Node2</title>
<g id="a_edge1_Node000001_Node000002"><a xlink:title=" ">
<path fill="none" stroke="#63b8ff" d="M221.82,-84C194.69,-72.02 164.28,-58.59 139.91,-47.83"/>
<polygon fill="#63b8ff" stroke="#63b8ff" points="220.09,-87.07 230.65,-87.9 222.92,-80.66 220.09,-87.07"/>
</a>
</g>
</g>
<!-- Node3 -->
<g id="Node000003" class="node">
<title>Node3</title>
<g id="a_Node000003"><a xlink:href="CustomTriggerCandidateMakerConf_8cpp.html" target="_top" xlink:title=" ">
<polygon fill="white" stroke="#666666" points="375.75,-53 206,-53 206,0 375.75,0 375.75,-53"/>
<text text-anchor="start" x="214" y="-39.5" font-family="Helvetica,sans-Serif" font-size="10.00">/github/workspace/dev</text>
<text text-anchor="start" x="214" y="-28.25" font-family="Helvetica,sans-Serif" font-size="10.00">_area/build/appdal/codegen</text>
<text text-anchor="start" x="214" y="-17" font-family="Helvetica,sans-Serif" font-size="10.00">/src/CustomTriggerCandidateMaker</text>
<text text-anchor="middle" x="290.88" y="-5.75" font-family="Helvetica,sans-Serif" font-size="10.00">Conf.cpp</text>
</a>
</g>
</g>
<!-- Node1&#45;&gt;Node3 -->
<g id="edge2_Node000001_Node000003" class="edge">
<title>Node1&#45;&gt;Node3</title>
<g id="a_edge2_Node000001_Node000003"><a xlink:title=" ">
<path fill="none" stroke="#63b8ff" d="M290.88,-77.61C290.88,-69.41 290.88,-60.89 290.88,-53.25"/>
<polygon fill="#63b8ff" stroke="#63b8ff" points="287.38,-77.35 290.88,-87.35 294.38,-77.35 287.38,-77.35"/>
</a>
</g>
</g>
<!-- Node4 -->
<g id="Node000004" class="node">
<title>Node4</title>
<g id="a_Node000004"><a xlink:href="dump__dunedaq____appdal_8cpp.html" target="_top" xlink:title=" ">
<polygon fill="white" stroke="#666666" points="552.12,-47.38 393.62,-47.38 393.62,-5.62 552.12,-5.62 552.12,-47.38"/>
<text text-anchor="start" x="401.62" y="-33.88" font-family="Helvetica,sans-Serif" font-size="10.00">/github/workspace/dev</text>
<text text-anchor="start" x="401.62" y="-22.62" font-family="Helvetica,sans-Serif" font-size="10.00">_area/build/appdal/codegen</text>
<text text-anchor="middle" x="472.88" y="-11.38" font-family="Helvetica,sans-Serif" font-size="10.00">/src/dump_dunedaq__appdal.cpp</text>
</a>
</g>
</g>
<!-- Node1&#45;&gt;Node4 -->
<g id="edge3_Node000001_Node000004" class="edge">
<title>Node1&#45;&gt;Node4</title>
<g id="a_edge3_Node000001_Node000004"><a xlink:title=" ">
<path fill="none" stroke="#63b8ff" d="M355.14,-83.78C380.15,-71.82 408.12,-58.45 430.52,-47.75"/>
<polygon fill="#63b8ff" stroke="#63b8ff" points="353.87,-80.51 346.35,-87.98 356.89,-86.82 353.87,-80.51"/>
</a>
</g>
</g>
</g>
</svg>
