<?xml version="1.0" encoding="UTF-8" standalone="no"?>
<!DOCTYPE svg PUBLIC "-//W3C//DTD SVG 1.1//EN"
 "http://www.w3.org/Graphics/SVG/1.1/DTD/svg11.dtd">
<!-- Generated by graphviz version 9.0.0 (20230911.1827)
 -->
<!-- Title: /github/workspace/dev_area/build/appdal/codegen/include/appdal/TriggerApplication.hpp Pages: 1 -->
<svg width="985pt" height="205pt"
 viewBox="0.00 0.00 985.00 205.25" xmlns="http://www.w3.org/2000/svg" xmlns:xlink="http://www.w3.org/1999/xlink">
<g id="graph0" class="graph" transform="scale(1 1) rotate(0) translate(4 201.25)">
<title>/github/workspace/dev_area/build/appdal/codegen/include/appdal/TriggerApplication.hpp</title>
<!-- Node1 -->
<g id="Node000001" class="node">
<title>Node1</title>
<g id="a_Node000001"><a xlink:title=" ">
<polygon fill="#999999" stroke="#666666" points="542.38,-197.25 362.12,-197.25 362.12,-155.5 542.38,-155.5 542.38,-197.25"/>
<text text-anchor="start" x="370.12" y="-183.75" font-family="Helvetica,sans-Serif" font-size="10.00">/github/workspace/dev</text>
<text text-anchor="start" x="370.12" y="-172.5" font-family="Helvetica,sans-Serif" font-size="10.00">_area/build/appdal/codegen</text>
<text text-anchor="middle" x="452.25" y="-161.25" font-family="Helvetica,sans-Serif" font-size="10.00">/include/appdal/TriggerApplication.hpp</text>
</a>
</g>
</g>
<!-- Node2 -->
<g id="Node000002" class="node">
<title>Node2</title>
<g id="a_Node000002"><a xlink:href="include_2appdal_2MLTApplication_8hpp.html" target="_top" xlink:title=" ">
<polygon fill="white" stroke="#666666" points="329.5,-119.5 159,-119.5 159,-77.75 329.5,-77.75 329.5,-119.5"/>
<text text-anchor="start" x="167" y="-106" font-family="Helvetica,sans-Serif" font-size="10.00">/github/workspace/dev</text>
<text text-anchor="start" x="167" y="-94.75" font-family="Helvetica,sans-Serif" font-size="10.00">_area/build/appdal/codegen</text>
<text text-anchor="middle" x="244.25" y="-83.5" font-family="Helvetica,sans-Serif" font-size="10.00">/include/appdal/MLTApplication.hpp</text>
</a>
</g>
</g>
<!-- Node1&#45;&gt;Node2 -->
<g id="edge1_Node000001_Node000002" class="edge">
<title>Node1&#45;&gt;Node2</title>
<g id="a_edge1_Node000001_Node000002"><a xlink:title=" ">
<path fill="none" stroke="#63b8ff" d="M385.76,-151.16C358.17,-141.11 326.51,-129.58 300.14,-119.98"/>
<polygon fill="#63b8ff" stroke="#63b8ff" points="384.49,-154.42 395.09,-154.56 386.89,-147.85 384.49,-154.42"/>
</a>
</g>
</g>
<!-- Node4 -->
<g id="Node000004" class="node">
<title>Node4</title>
<g id="a_Node000004"><a xlink:href="dump__dunedaq____appdal_8cpp.html" target="_top" xlink:title=" ">
<polygon fill="white" stroke="#666666" points="158.5,-41.75 0,-41.75 0,0 158.5,0 158.5,-41.75"/>
<text text-anchor="start" x="8" y="-28.25" font-family="Helvetica,sans-Serif" font-size="10.00">/github/workspace/dev</text>
<text text-anchor="start" x="8" y="-17" font-family="Helvetica,sans-Serif" font-size="10.00">_area/build/appdal/codegen</text>
<text text-anchor="middle" x="79.25" y="-5.75" font-family="Helvetica,sans-Serif" font-size="10.00">/src/dump_dunedaq__appdal.cpp</text>
</a>
</g>
</g>
<!-- Node1&#45;&gt;Node4 -->
<g id="edge7_Node000001_Node000004" class="edge">
<title>Node1&#45;&gt;Node4</title>
<g id="a_edge7_Node000001_Node000004"><a xlink:title=" ">
<path fill="none" stroke="#63b8ff" d="M350.41,-164.7C276.17,-155.41 183.07,-140.19 150.25,-119.5 120.47,-100.72 99.2,-64.55 88.09,-41.9"/>
<polygon fill="#63b8ff" stroke="#63b8ff" points="349.83,-168.15 360.18,-165.9 350.68,-161.21 349.83,-168.15"/>
</a>
</g>
</g>
<!-- Node5 -->
<g id="Node000005" class="node">
<title>Node5</title>
<g id="a_Node000005"><a xlink:href="sourcecode_2appdal_2src_2MLTApplication_8cpp.html" target="_top" xlink:title=" ">
<polygon fill="white" stroke="#666666" points="454.62,-41.75 329.88,-41.75 329.88,0 454.62,0 454.62,-41.75"/>
<text text-anchor="start" x="337.88" y="-28.25" font-family="Helvetica,sans-Serif" font-size="10.00">/github/workspace/dev</text>
<text text-anchor="start" x="337.88" y="-17" font-family="Helvetica,sans-Serif" font-size="10.00">_area/sourcecode/appdal</text>
<text text-anchor="middle" x="392.25" y="-5.75" font-family="Helvetica,sans-Serif" font-size="10.00">/src/MLTApplication.cpp</text>
</a>
</g>
</g>
<!-- Node1&#45;&gt;Node5 -->
<g id="edge9_Node000001_Node000005" class="edge">
<title>Node1&#45;&gt;Node5</title>
<g id="a_edge9_Node000001_Node000005"><a xlink:title=" ">
<path fill="none" stroke="#63b8ff" d="M401.83,-148.7C391.54,-140.76 382.08,-131.03 376.25,-119.5 363.77,-94.83 373.31,-62.58 382.12,-42.04"/>
<polygon fill="#63b8ff" stroke="#63b8ff" points="399.6,-151.41 409.78,-154.35 403.66,-145.71 399.6,-151.41"/>
</a>
</g>
</g>
<!-- Node6 -->
<g id="Node000006" class="node">
<title>Node6</title>
<g id="a_Node000006"><a xlink:href="src_2MLTApplication_8hpp.html" target="_top" xlink:title=" ">
<polygon fill="white" stroke="#666666" points="519.5,-119.5 385,-119.5 385,-77.75 519.5,-77.75 519.5,-119.5"/>
<text text-anchor="start" x="393" y="-106" font-family="Helvetica,sans-Serif" font-size="10.00">/github/workspace/dev</text>
<text text-anchor="start" x="393" y="-94.75" font-family="Helvetica,sans-Serif" font-size="10.00">_area/build/appdal/codegen</text>
<text text-anchor="middle" x="452.25" y="-83.5" font-family="Helvetica,sans-Serif" font-size="10.00">/src/MLTApplication.hpp</text>
</a>
</g>
</g>
<!-- Node1&#45;&gt;Node6 -->
<g id="edge5_Node000001_Node000006" class="edge">
<title>Node1&#45;&gt;Node6</title>
<g id="a_edge5_Node000001_Node000006"><a xlink:title=" ">
<path fill="none" stroke="#63b8ff" d="M452.25,-143.75C452.25,-135.71 452.25,-127.29 452.25,-119.98"/>
<polygon fill="#63b8ff" stroke="#63b8ff" points="448.75,-143.56 452.25,-153.56 455.75,-143.56 448.75,-143.56"/>
</a>
</g>
</g>
<!-- Node7 -->
<g id="Node000007" class="node">
<title>Node7</title>
<g id="a_Node000007"><a xlink:href="build_2appdal_2codegen_2src_2TriggerApplication_8cpp.html" target="_top" xlink:title=" ">
<polygon fill="white" stroke="#666666" points="672.5,-119.5 538,-119.5 538,-77.75 672.5,-77.75 672.5,-119.5"/>
<text text-anchor="start" x="546" y="-106" font-family="Helvetica,sans-Serif" font-size="10.00">/github/workspace/dev</text>
<text text-anchor="start" x="546" y="-94.75" font-family="Helvetica,sans-Serif" font-size="10.00">_area/build/appdal/codegen</text>
<text text-anchor="middle" x="605.25" y="-83.5" font-family="Helvetica,sans-Serif" font-size="10.00">/src/TriggerApplication.cpp</text>
</a>
</g>
</g>
<!-- Node1&#45;&gt;Node7 -->
<g id="edge6_Node000001_Node000007" class="edge">
<title>Node1&#45;&gt;Node7</title>
<g id="a_edge6_Node000001_Node000007"><a xlink:title=" ">
<path fill="none" stroke="#63b8ff" d="M503.33,-150.09C523.1,-140.3 545.43,-129.24 564.14,-119.98"/>
<polygon fill="#63b8ff" stroke="#63b8ff" points="502.02,-146.83 494.61,-154.4 505.12,-153.1 502.02,-146.83"/>
</a>
</g>
</g>
<!-- Node8 -->
<g id="Node000008" class="node">
<title>Node8</title>
<g id="a_Node000008"><a xlink:href="appdal_2pybindsrc_2dal__methods_8cpp.html" target="_top" xlink:title=" ">
<polygon fill="white" stroke="#666666" points="827.62,-119.5 690.88,-119.5 690.88,-77.75 827.62,-77.75 827.62,-119.5"/>
<text text-anchor="start" x="698.88" y="-106" font-family="Helvetica,sans-Serif" font-size="10.00">/github/workspace/dev</text>
<text text-anchor="start" x="698.88" y="-94.75" font-family="Helvetica,sans-Serif" font-size="10.00">_area/sourcecode/appdal</text>
<text text-anchor="middle" x="759.25" y="-83.5" font-family="Helvetica,sans-Serif" font-size="10.00">/pybindsrc/dal_methods.cpp</text>
</a>
</g>
</g>
<!-- Node1&#45;&gt;Node8 -->
<g id="edge8_Node000001_Node000008" class="edge">
<title>Node1&#45;&gt;Node8</title>
<g id="a_edge8_Node000001_Node000008"><a xlink:title=" ">
<path fill="none" stroke="#63b8ff" d="M547.7,-152.32C588.81,-142.32 637.42,-130.43 681.25,-119.5 684.37,-118.72 687.56,-117.92 690.78,-117.11"/>
<polygon fill="#63b8ff" stroke="#63b8ff" points="546.95,-148.9 538.06,-154.66 548.6,-155.7 546.95,-148.9"/>
</a>
</g>
</g>
<!-- Node9 -->
<g id="Node000009" class="node">
<title>Node9</title>
<g id="a_Node000009"><a xlink:href="sourcecode_2appdal_2src_2TriggerApplication_8cpp.html" target="_top" xlink:title=" ">
<polygon fill="white" stroke="#666666" points="977,-119.5 845.5,-119.5 845.5,-77.75 977,-77.75 977,-119.5"/>
<text text-anchor="start" x="853.5" y="-106" font-family="Helvetica,sans-Serif" font-size="10.00">/github/workspace/dev</text>
<text text-anchor="start" x="853.5" y="-94.75" font-family="Helvetica,sans-Serif" font-size="10.00">_area/sourcecode/appdal</text>
<text text-anchor="middle" x="911.25" y="-83.5" font-family="Helvetica,sans-Serif" font-size="10.00">/src/TriggerApplication.cpp</text>
</a>
</g>
</g>
<!-- Node1&#45;&gt;Node9 -->
<g id="edge10_Node000001_Node000009" class="edge">
<title>Node1&#45;&gt;Node9</title>
<g id="a_edge10_Node000001_Node000009"><a xlink:title=" ">
<path fill="none" stroke="#63b8ff" d="M553.99,-163.8C631.71,-154.17 741.26,-138.93 836.25,-119.5 839.15,-118.91 842.11,-118.27 845.09,-117.6"/>
<polygon fill="#63b8ff" stroke="#63b8ff" points="553.76,-160.3 544.26,-164.99 554.61,-167.25 553.76,-160.3"/>
</a>
</g>
</g>
<!-- Node3 -->
<g id="Node000003" class="node">
<title>Node3</title>
<g id="a_Node000003"><a xlink:href="build_2appdal_2codegen_2src_2MLTApplication_8cpp.html" target="_top" xlink:title=" ">
<polygon fill="white" stroke="#666666" points="311.5,-41.75 177,-41.75 177,0 311.5,0 311.5,-41.75"/>
<text text-anchor="start" x="185" y="-28.25" font-family="Helvetica,sans-Serif" font-size="10.00">/github/workspace/dev</text>
<text text-anchor="start" x="185" y="-17" font-family="Helvetica,sans-Serif" font-size="10.00">_area/build/appdal/codegen</text>
<text text-anchor="middle" x="244.25" y="-5.75" font-family="Helvetica,sans-Serif" font-size="10.00">/src/MLTApplication.cpp</text>
</a>
</g>
</g>
<!-- Node2&#45;&gt;Node3 -->
<g id="edge2_Node000002_Node000003" class="edge">
<title>Node2&#45;&gt;Node3</title>
<g id="a_edge2_Node000002_Node000003"><a xlink:title=" ">
<path fill="none" stroke="#63b8ff" d="M244.25,-66C244.25,-57.96 244.25,-49.54 244.25,-42.23"/>
<polygon fill="#63b8ff" stroke="#63b8ff" points="240.75,-65.81 244.25,-75.81 247.75,-65.81 240.75,-65.81"/>
</a>
</g>
</g>
<!-- Node2&#45;&gt;Node4 -->
<g id="edge3_Node000002_Node000004" class="edge">
<title>Node2&#45;&gt;Node4</title>
<g id="a_edge3_Node000002_Node000004"><a xlink:title=" ">
<path fill="none" stroke="#63b8ff" d="M189.76,-72.61C168.29,-62.75 143.95,-51.58 123.59,-42.23"/>
<polygon fill="#63b8ff" stroke="#63b8ff" points="188.11,-75.7 198.66,-76.69 191.03,-69.34 188.11,-75.7"/>
</a>
</g>
</g>
<!-- Node2&#45;&gt;Node5 -->
<g id="edge4_Node000002_Node000005" class="edge">
<title>Node2&#45;&gt;Node5</title>
<g id="a_edge4_Node000002_Node000005"><a xlink:title=" ">
<path fill="none" stroke="#63b8ff" d="M293.92,-72.2C312.98,-62.45 334.47,-51.45 352.48,-42.23"/>
<polygon fill="#63b8ff" stroke="#63b8ff" points="292.57,-68.96 285.26,-76.64 295.76,-75.2 292.57,-68.96"/>
</a>
</g>
</g>
</g>
</svg>
