<?xml version="1.0" encoding="UTF-8" standalone="no"?>
<!DOCTYPE svg PUBLIC "-//W3C//DTD SVG 1.1//EN"
 "http://www.w3.org/Graphics/SVG/1.1/DTD/svg11.dtd">
<!-- Generated by graphviz version 9.0.0 (20230911.1827)
 -->
<!-- Title: /github/workspace/dev_area/build/coredal/codegen/include/coredal/ResourceSetOR.hpp Pages: 1 -->
<svg width="636pt" height="128pt"
 viewBox="0.00 0.00 635.62 127.50" xmlns="http://www.w3.org/2000/svg" xmlns:xlink="http://www.w3.org/1999/xlink">
<g id="graph0" class="graph" transform="scale(1 1) rotate(0) translate(4 123.5)">
<title>/github/workspace/dev_area/build/coredal/codegen/include/coredal/ResourceSetOR.hpp</title>
<!-- Node1 -->
<g id="Node000001" class="node">
<title>Node1</title>
<g id="a_Node000001"><a xlink:title=" ">
<polygon fill="#999999" stroke="#666666" points="405.62,-119.5 229.88,-119.5 229.88,-77.75 405.62,-77.75 405.62,-119.5"/>
<text text-anchor="start" x="237.88" y="-106" font-family="Helvetica,sans-Serif" font-size="10.00">/github/workspace/dev</text>
<text text-anchor="start" x="237.88" y="-94.75" font-family="Helvetica,sans-Serif" font-size="10.00">_area/build/coredal/codegen</text>
<text text-anchor="middle" x="317.75" y="-83.5" font-family="Helvetica,sans-Serif" font-size="10.00">/include/coredal/ResourceSetOR.hpp</text>
</a>
</g>
</g>
<!-- Node2 -->
<g id="Node000002" class="node">
<title>Node2</title>
<g id="a_Node000002"><a xlink:href="ResourceSetOR_8cpp.html" target="_top" xlink:title=" ">
<polygon fill="white" stroke="#666666" points="137.5,-41.75 0,-41.75 0,0 137.5,0 137.5,-41.75"/>
<text text-anchor="start" x="8" y="-28.25" font-family="Helvetica,sans-Serif" font-size="10.00">/github/workspace/dev</text>
<text text-anchor="start" x="8" y="-17" font-family="Helvetica,sans-Serif" font-size="10.00">_area/build/coredal/codegen</text>
<text text-anchor="middle" x="68.75" y="-5.75" font-family="Helvetica,sans-Serif" font-size="10.00">/src/ResourceSetOR.cpp</text>
</a>
</g>
</g>
<!-- Node1&#45;&gt;Node2 -->
<g id="edge1_Node000001_Node000002" class="edge">
<title>Node1&#45;&gt;Node2</title>
<g id="a_edge1_Node000001_Node000002"><a xlink:title=" ">
<path fill="none" stroke="#63b8ff" d="M240.34,-74.07C206.8,-63.87 167.92,-52.05 135.66,-42.23"/>
<polygon fill="#63b8ff" stroke="#63b8ff" points="238.99,-77.32 249.57,-76.88 241.03,-70.63 238.99,-77.32"/>
</a>
</g>
</g>
<!-- Node3 -->
<g id="Node000003" class="node">
<title>Node3</title>
<g id="a_Node000003"><a xlink:href="dump__dunedaq____coredal_8cpp.html" target="_top" xlink:title=" ">
<polygon fill="white" stroke="#666666" points="317.5,-41.75 156,-41.75 156,0 317.5,0 317.5,-41.75"/>
<text text-anchor="start" x="164" y="-28.25" font-family="Helvetica,sans-Serif" font-size="10.00">/github/workspace/dev</text>
<text text-anchor="start" x="164" y="-17" font-family="Helvetica,sans-Serif" font-size="10.00">_area/build/coredal/codegen</text>
<text text-anchor="middle" x="236.75" y="-5.75" font-family="Helvetica,sans-Serif" font-size="10.00">/src/dump_dunedaq__coredal.cpp</text>
</a>
</g>
</g>
<!-- Node1&#45;&gt;Node3 -->
<g id="edge2_Node000001_Node000003" class="edge">
<title>Node1&#45;&gt;Node3</title>
<g id="a_edge2_Node000001_Node000003"><a xlink:title=" ">
<path fill="none" stroke="#63b8ff" d="M287.8,-69.61C278.09,-60.53 267.51,-50.64 258.52,-42.23"/>
<polygon fill="#63b8ff" stroke="#63b8ff" points="285.24,-72.02 294.94,-76.29 290.02,-66.9 285.24,-72.02"/>
</a>
</g>
</g>
<!-- Node4 -->
<g id="Node000004" class="node">
<title>Node4</title>
<g id="a_Node000004"><a xlink:href="dalMethods_8cpp.html" target="_top" xlink:title=" ">
<polygon fill="white" stroke="#666666" points="463.62,-41.75 335.88,-41.75 335.88,0 463.62,0 463.62,-41.75"/>
<text text-anchor="start" x="343.88" y="-28.25" font-family="Helvetica,sans-Serif" font-size="10.00">/github/workspace/dev</text>
<text text-anchor="start" x="343.88" y="-17" font-family="Helvetica,sans-Serif" font-size="10.00">_area/sourcecode/coredal</text>
<text text-anchor="middle" x="399.75" y="-5.75" font-family="Helvetica,sans-Serif" font-size="10.00">/src/dalMethods.cpp</text>
</a>
</g>
</g>
<!-- Node1&#45;&gt;Node4 -->
<g id="edge3_Node000001_Node000004" class="edge">
<title>Node1&#45;&gt;Node4</title>
<g id="a_edge3_Node000001_Node000004"><a xlink:title=" ">
<path fill="none" stroke="#63b8ff" d="M348.07,-69.61C357.9,-60.53 368.61,-50.64 377.71,-42.23"/>
<polygon fill="#63b8ff" stroke="#63b8ff" points="345.81,-66.94 340.84,-76.3 350.56,-72.08 345.81,-66.94"/>
</a>
</g>
</g>
<!-- Node5 -->
<g id="Node000005" class="node">
<title>Node5</title>
<g id="a_Node000005"><a xlink:href="disabled-components_8cpp.html" target="_top" xlink:title=" ">
<polygon fill="white" stroke="#666666" points="627.62,-41.75 481.88,-41.75 481.88,0 627.62,0 627.62,-41.75"/>
<text text-anchor="start" x="489.88" y="-28.25" font-family="Helvetica,sans-Serif" font-size="10.00">/github/workspace/dev</text>
<text text-anchor="start" x="489.88" y="-17" font-family="Helvetica,sans-Serif" font-size="10.00">_area/sourcecode/coredal</text>
<text text-anchor="middle" x="554.75" y="-5.75" font-family="Helvetica,sans-Serif" font-size="10.00">/src/disabled&#45;components.cpp</text>
</a>
</g>
</g>
<!-- Node1&#45;&gt;Node5 -->
<g id="edge4_Node000001_Node000005" class="edge">
<title>Node1&#45;&gt;Node5</title>
<g id="a_edge4_Node000001_Node000005"><a xlink:title=" ">
<path fill="none" stroke="#63b8ff" d="M391.85,-73.94C423.67,-63.77 460.49,-52 491.06,-42.23"/>
<polygon fill="#63b8ff" stroke="#63b8ff" points="391.16,-70.49 382.7,-76.86 393.29,-77.15 391.16,-70.49"/>
</a>
</g>
</g>
</g>
</svg>
