<?xml version="1.0" encoding="UTF-8" standalone="no"?>
<!DOCTYPE svg PUBLIC "-//W3C//DTD SVG 1.1//EN"
 "http://www.w3.org/Graphics/SVG/1.1/DTD/svg11.dtd">
<!-- Generated by graphviz version 9.0.0 (20230911.1827)
 -->
<!-- Title: /github/workspace/dev_area/build/appdal/codegen/include/appdal/HSI2TCTranslatorConf.hpp Pages: 1 -->
<svg width="884pt" height="139pt"
 viewBox="0.00 0.00 884.12 138.75" xmlns="http://www.w3.org/2000/svg" xmlns:xlink="http://www.w3.org/1999/xlink">
<g id="graph0" class="graph" transform="scale(1 1) rotate(0) translate(4 134.75)">
<title>/github/workspace/dev_area/build/appdal/codegen/include/appdal/HSI2TCTranslatorConf.hpp</title>
<!-- Node1 -->
<g id="Node000001" class="node">
<title>Node1</title>
<g id="a_Node000001"><a xlink:title=" ">
<polygon fill="#999999" stroke="#666666" points="516.75,-130.75 353.75,-130.75 353.75,-77.75 516.75,-77.75 516.75,-130.75"/>
<text text-anchor="start" x="361.75" y="-117.25" font-family="Helvetica,sans-Serif" font-size="10.00">/github/workspace/dev</text>
<text text-anchor="start" x="361.75" y="-106" font-family="Helvetica,sans-Serif" font-size="10.00">_area/build/appdal/codegen</text>
<text text-anchor="start" x="361.75" y="-94.75" font-family="Helvetica,sans-Serif" font-size="10.00">/include/appdal/HSI2TCTranslator</text>
<text text-anchor="middle" x="435.25" y="-83.5" font-family="Helvetica,sans-Serif" font-size="10.00">Conf.hpp</text>
</a>
</g>
</g>
<!-- Node2 -->
<g id="Node000002" class="node">
<title>Node2</title>
<g id="a_Node000002"><a xlink:href="HSI2TCTranslatorConf_8cpp.html" target="_top" xlink:title=" ">
<polygon fill="white" stroke="#666666" points="152.5,-41.75 0,-41.75 0,0 152.5,0 152.5,-41.75"/>
<text text-anchor="start" x="8" y="-28.25" font-family="Helvetica,sans-Serif" font-size="10.00">/github/workspace/dev</text>
<text text-anchor="start" x="8" y="-17" font-family="Helvetica,sans-Serif" font-size="10.00">_area/build/appdal/codegen</text>
<text text-anchor="middle" x="76.25" y="-5.75" font-family="Helvetica,sans-Serif" font-size="10.00">/src/HSI2TCTranslatorConf.cpp</text>
</a>
</g>
</g>
<!-- Node1&#45;&gt;Node2 -->
<g id="edge1_Node000001_Node000002" class="edge">
<title>Node1&#45;&gt;Node2</title>
<g id="a_edge1_Node000001_Node000002"><a xlink:title=" ">
<path fill="none" stroke="#63b8ff" d="M342.29,-82.6C289.22,-70.76 221.48,-55.55 161.25,-41.75 158.44,-41.11 155.58,-40.45 152.7,-39.78"/>
<polygon fill="#63b8ff" stroke="#63b8ff" points="341.38,-85.98 351.9,-84.74 342.9,-79.15 341.38,-85.98"/>
</a>
</g>
</g>
<!-- Node3 -->
<g id="Node000003" class="node">
<title>Node3</title>
<g id="a_Node000003"><a xlink:href="build_2appdal_2codegen_2src_2HSIEventToTCApplication_8cpp.html" target="_top" xlink:title=" ">
<polygon fill="white" stroke="#666666" points="338,-41.75 170.5,-41.75 170.5,0 338,0 338,-41.75"/>
<text text-anchor="start" x="178.5" y="-28.25" font-family="Helvetica,sans-Serif" font-size="10.00">/github/workspace/dev</text>
<text text-anchor="start" x="178.5" y="-17" font-family="Helvetica,sans-Serif" font-size="10.00">_area/build/appdal/codegen</text>
<text text-anchor="middle" x="254.25" y="-5.75" font-family="Helvetica,sans-Serif" font-size="10.00">/src/HSIEventToTCApplication.cpp</text>
</a>
</g>
</g>
<!-- Node1&#45;&gt;Node3 -->
<g id="edge2_Node000001_Node000003" class="edge">
<title>Node1&#45;&gt;Node3</title>
<g id="a_edge2_Node000001_Node000003"><a xlink:title=" ">
<path fill="none" stroke="#63b8ff" d="M367.24,-72.67C344.59,-62.49 319.93,-51.4 299.45,-42.19"/>
<polygon fill="#63b8ff" stroke="#63b8ff" points="365.55,-75.75 376.1,-76.66 368.42,-69.37 365.55,-75.75"/>
</a>
</g>
</g>
<!-- Node4 -->
<g id="Node000004" class="node">
<title>Node4</title>
<g id="a_Node000004"><a xlink:href="dump__dunedaq____appdal_8cpp.html" target="_top" xlink:title=" ">
<polygon fill="white" stroke="#666666" points="514.5,-41.75 356,-41.75 356,0 514.5,0 514.5,-41.75"/>
<text text-anchor="start" x="364" y="-28.25" font-family="Helvetica,sans-Serif" font-size="10.00">/github/workspace/dev</text>
<text text-anchor="start" x="364" y="-17" font-family="Helvetica,sans-Serif" font-size="10.00">_area/build/appdal/codegen</text>
<text text-anchor="middle" x="435.25" y="-5.75" font-family="Helvetica,sans-Serif" font-size="10.00">/src/dump_dunedaq__appdal.cpp</text>
</a>
</g>
</g>
<!-- Node1&#45;&gt;Node4 -->
<g id="edge3_Node000001_Node000004" class="edge">
<title>Node1&#45;&gt;Node4</title>
<g id="a_edge3_Node000001_Node000004"><a xlink:title=" ">
<path fill="none" stroke="#63b8ff" d="M435.25,-66.08C435.25,-57.8 435.25,-49.33 435.25,-42.04"/>
<polygon fill="#63b8ff" stroke="#63b8ff" points="431.75,-65.99 435.25,-75.99 438.75,-65.99 431.75,-65.99"/>
</a>
</g>
</g>
<!-- Node5 -->
<g id="Node000005" class="node">
<title>Node5</title>
<g id="a_Node000005"><a xlink:href="sourcecode_2appdal_2src_2HSIEventToTCApplication_8cpp.html" target="_top" xlink:title=" ">
<polygon fill="white" stroke="#666666" points="700,-41.75 532.5,-41.75 532.5,0 700,0 700,-41.75"/>
<text text-anchor="start" x="540.5" y="-28.25" font-family="Helvetica,sans-Serif" font-size="10.00">/github/workspace/dev</text>
<text text-anchor="start" x="540.5" y="-17" font-family="Helvetica,sans-Serif" font-size="10.00">_area/sourcecode/appdal</text>
<text text-anchor="middle" x="616.25" y="-5.75" font-family="Helvetica,sans-Serif" font-size="10.00">/src/HSIEventToTCApplication.cpp</text>
</a>
</g>
</g>
<!-- Node1&#45;&gt;Node5 -->
<g id="edge4_Node000001_Node000005" class="edge">
<title>Node1&#45;&gt;Node5</title>
<g id="a_edge4_Node000001_Node000005"><a xlink:title=" ">
<path fill="none" stroke="#63b8ff" d="M503.26,-72.67C525.91,-62.49 550.57,-51.4 571.05,-42.19"/>
<polygon fill="#63b8ff" stroke="#63b8ff" points="502.08,-69.37 494.4,-76.66 504.95,-75.75 502.08,-69.37"/>
</a>
</g>
</g>
<!-- Node6 -->
<g id="Node000006" class="node">
<title>Node6</title>
<g id="a_Node000006"><a xlink:href="HSISourceModel_8hpp.html" target="_top" xlink:title=" ">
<polygon fill="white" stroke="#666666" points="876.12,-41.75 718.38,-41.75 718.38,0 876.12,0 876.12,-41.75"/>
<text text-anchor="start" x="726.38" y="-28.25" font-family="Helvetica,sans-Serif" font-size="10.00">/github/workspace/dev</text>
<text text-anchor="start" x="726.38" y="-17" font-family="Helvetica,sans-Serif" font-size="10.00">_area/sourcecode/trigger</text>
<text text-anchor="middle" x="797.25" y="-5.75" font-family="Helvetica,sans-Serif" font-size="10.00">/src/trigger/HSISourceModel.hpp</text>
</a>
</g>
</g>
<!-- Node1&#45;&gt;Node6 -->
<g id="edge5_Node000001_Node000006" class="edge">
<title>Node1&#45;&gt;Node6</title>
<g id="a_edge5_Node000001_Node000006"><a xlink:title=" ">
<path fill="none" stroke="#63b8ff" d="M528.17,-82.43C581.22,-70.53 648.97,-55.32 709.25,-41.75 712.15,-41.1 715.11,-40.43 718.1,-39.76"/>
<polygon fill="#63b8ff" stroke="#63b8ff" points="527.55,-78.98 518.56,-84.58 529.09,-85.81 527.55,-78.98"/>
</a>
</g>
</g>
</g>
</svg>
