<?xml version="1.0" encoding="UTF-8" standalone="no"?>
<!DOCTYPE svg PUBLIC "-//W3C//DTD SVG 1.1//EN"
 "http://www.w3.org/Graphics/SVG/1.1/DTD/svg11.dtd">
<!-- Generated by graphviz version 9.0.0 (20230911.1827)
 -->
<!-- Title: /github/workspace/dev_area/build/coredal/codegen/include/coredal/DROStreamConf.hpp Pages: 1 -->
<svg width="1280pt" height="306pt"
 viewBox="0.00 0.00 1280.00 305.50" xmlns="http://www.w3.org/2000/svg" xmlns:xlink="http://www.w3.org/1999/xlink">
<g id="graph0" class="graph" transform="scale(1 1) rotate(0) translate(4 301.5)">
<title>/github/workspace/dev_area/build/coredal/codegen/include/coredal/DROStreamConf.hpp</title>
<!-- Node1 -->
<g id="Node000001" class="node">
<title>Node1</title>
<g id="a_Node000001"><a xlink:title=" ">
<polygon fill="#999999" stroke="#666666" points="713.25,-297.5 535.25,-297.5 535.25,-255.75 713.25,-255.75 713.25,-297.5"/>
<text text-anchor="start" x="543.25" y="-284" font-family="Helvetica,sans-Serif" font-size="10.00">/github/workspace/dev</text>
<text text-anchor="start" x="543.25" y="-272.75" font-family="Helvetica,sans-Serif" font-size="10.00">_area/build/coredal/codegen</text>
<text text-anchor="middle" x="624.25" y="-261.5" font-family="Helvetica,sans-Serif" font-size="10.00">/include/coredal/DROStreamConf.hpp</text>
</a>
</g>
</g>
<!-- Node2 -->
<g id="Node000002" class="node">
<title>Node2</title>
<g id="a_Node000002"><a xlink:href="HermesLinkConf_8cpp.html" target="_top" xlink:title=" ">
<polygon fill="white" stroke="#666666" points="134.5,-214.12 0,-214.12 0,-172.38 134.5,-172.38 134.5,-214.12"/>
<text text-anchor="start" x="8" y="-200.62" font-family="Helvetica,sans-Serif" font-size="10.00">/github/workspace/dev</text>
<text text-anchor="start" x="8" y="-189.38" font-family="Helvetica,sans-Serif" font-size="10.00">_area/build/appdal/codegen</text>
<text text-anchor="middle" x="67.25" y="-178.12" font-family="Helvetica,sans-Serif" font-size="10.00">/src/HermesLinkConf.cpp</text>
</a>
</g>
</g>
<!-- Node1&#45;&gt;Node2 -->
<g id="edge1_Node000001_Node000002" class="edge">
<title>Node1&#45;&gt;Node2</title>
<g id="a_edge1_Node000001_Node000002"><a xlink:title=" ">
<path fill="none" stroke="#63b8ff" d="M523.73,-270.05C425.71,-263.19 272.88,-248.7 143.25,-219.75 136.73,-218.29 129.98,-216.49 123.32,-214.51"/>
<polygon fill="#63b8ff" stroke="#63b8ff" points="523.39,-273.54 533.61,-270.73 523.87,-266.56 523.39,-273.54"/>
</a>
</g>
</g>
<!-- Node3 -->
<g id="Node000003" class="node">
<title>Node3</title>
<g id="a_Node000003"><a xlink:href="DROStreamConf_8cpp.html" target="_top" xlink:title=" ">
<polygon fill="white" stroke="#666666" points="290,-214.12 152.5,-214.12 152.5,-172.38 290,-172.38 290,-214.12"/>
<text text-anchor="start" x="160.5" y="-200.62" font-family="Helvetica,sans-Serif" font-size="10.00">/github/workspace/dev</text>
<text text-anchor="start" x="160.5" y="-189.38" font-family="Helvetica,sans-Serif" font-size="10.00">_area/build/coredal/codegen</text>
<text text-anchor="middle" x="221.25" y="-178.12" font-family="Helvetica,sans-Serif" font-size="10.00">/src/DROStreamConf.cpp</text>
</a>
</g>
</g>
<!-- Node1&#45;&gt;Node3 -->
<g id="edge2_Node000001_Node000003" class="edge">
<title>Node1&#45;&gt;Node3</title>
<g id="a_edge2_Node000001_Node000003"><a xlink:title=" ">
<path fill="none" stroke="#63b8ff" d="M523.9,-262.23C459.26,-252.66 373.71,-238.22 299.25,-219.75 293.03,-218.21 286.58,-216.42 280.19,-214.52"/>
<polygon fill="#63b8ff" stroke="#63b8ff" points="523,-265.64 533.4,-263.63 524.01,-258.71 523,-265.64"/>
</a>
</g>
</g>
<!-- Node4 -->
<g id="Node000004" class="node">
<title>Node4</title>
<g id="a_Node000004"><a xlink:href="dump__dunedaq____coredal_8cpp.html" target="_top" xlink:title=" ">
<polygon fill="white" stroke="#666666" points="470,-214.12 308.5,-214.12 308.5,-172.38 470,-172.38 470,-214.12"/>
<text text-anchor="start" x="316.5" y="-200.62" font-family="Helvetica,sans-Serif" font-size="10.00">/github/workspace/dev</text>
<text text-anchor="start" x="316.5" y="-189.38" font-family="Helvetica,sans-Serif" font-size="10.00">_area/build/coredal/codegen</text>
<text text-anchor="middle" x="389.25" y="-178.12" font-family="Helvetica,sans-Serif" font-size="10.00">/src/dump_dunedaq__coredal.cpp</text>
</a>
</g>
</g>
<!-- Node1&#45;&gt;Node4 -->
<g id="edge3_Node000001_Node000004" class="edge">
<title>Node1&#45;&gt;Node4</title>
<g id="a_edge3_Node000001_Node000004"><a xlink:title=" ">
<path fill="none" stroke="#63b8ff" d="M554.78,-251.57C520.82,-239.81 480.41,-225.82 448.01,-214.6"/>
<polygon fill="#63b8ff" stroke="#63b8ff" points="553.53,-254.84 564.13,-254.81 555.82,-248.23 553.53,-254.84"/>
</a>
</g>
</g>
<!-- Node5 -->
<g id="Node000005" class="node">
<title>Node5</title>
<g id="a_Node000005"><a xlink:href="sourcecode_2appdal_2src_2MLTApplication_8cpp.html" target="_top" xlink:title=" ">
<polygon fill="white" stroke="#666666" points="612.62,-214.12 487.88,-214.12 487.88,-172.38 612.62,-172.38 612.62,-214.12"/>
<text text-anchor="start" x="495.88" y="-200.62" font-family="Helvetica,sans-Serif" font-size="10.00">/github/workspace/dev</text>
<text text-anchor="start" x="495.88" y="-189.38" font-family="Helvetica,sans-Serif" font-size="10.00">_area/sourcecode/appdal</text>
<text text-anchor="middle" x="550.25" y="-178.12" font-family="Helvetica,sans-Serif" font-size="10.00">/src/MLTApplication.cpp</text>
</a>
</g>
</g>
<!-- Node1&#45;&gt;Node5 -->
<g id="edge4_Node000001_Node000005" class="edge">
<title>Node1&#45;&gt;Node5</title>
<g id="a_edge4_Node000001_Node000005"><a xlink:title=" ">
<path fill="none" stroke="#63b8ff" d="M598.39,-247.18C588.56,-236.38 577.58,-224.3 568.59,-214.42"/>
<polygon fill="#63b8ff" stroke="#63b8ff" points="595.62,-249.35 604.94,-254.39 600.8,-244.64 595.62,-249.35"/>
</a>
</g>
</g>
<!-- Node6 -->
<g id="Node000006" class="node">
<title>Node6</title>
<g id="a_Node000006"><a xlink:href="sourcecode_2appdal_2src_2ReadoutApplication_8cpp.html" target="_top" xlink:title=" ">
<polygon fill="white" stroke="#666666" points="768,-214.12 630.5,-214.12 630.5,-172.38 768,-172.38 768,-214.12"/>
<text text-anchor="start" x="638.5" y="-200.62" font-family="Helvetica,sans-Serif" font-size="10.00">/github/workspace/dev</text>
<text text-anchor="start" x="638.5" y="-189.38" font-family="Helvetica,sans-Serif" font-size="10.00">_area/sourcecode/appdal</text>
<text text-anchor="middle" x="699.25" y="-178.12" font-family="Helvetica,sans-Serif" font-size="10.00">/src/ReadoutApplication.cpp</text>
</a>
</g>
</g>
<!-- Node1&#45;&gt;Node6 -->
<g id="edge5_Node000001_Node000006" class="edge">
<title>Node1&#45;&gt;Node6</title>
<g id="a_edge5_Node000001_Node000006"><a xlink:title=" ">
<path fill="none" stroke="#63b8ff" d="M650.46,-247.18C660.42,-236.38 671.55,-224.3 680.66,-214.42"/>
<polygon fill="#63b8ff" stroke="#63b8ff" points="648.02,-244.67 643.82,-254.4 653.17,-249.42 648.02,-244.67"/>
</a>
</g>
</g>
<!-- Node7 -->
<g id="Node000007" class="node">
<title>Node7</title>
<g id="a_Node000007"><a xlink:href="IfaceWrapper_8cpp.html" target="_top" xlink:title=" ">
<polygon fill="white" stroke="#666666" points="918.38,-214.12 786.12,-214.12 786.12,-172.38 918.38,-172.38 918.38,-214.12"/>
<text text-anchor="start" x="794.12" y="-200.62" font-family="Helvetica,sans-Serif" font-size="10.00">/github/workspace/dev</text>
<text text-anchor="start" x="794.12" y="-189.38" font-family="Helvetica,sans-Serif" font-size="10.00">_area/sourcecode/dpdklibs</text>
<text text-anchor="middle" x="852.25" y="-178.12" font-family="Helvetica,sans-Serif" font-size="10.00">/src/IfaceWrapper.cpp</text>
</a>
</g>
</g>
<!-- Node1&#45;&gt;Node7 -->
<g id="edge6_Node000001_Node000007" class="edge">
<title>Node1&#45;&gt;Node7</title>
<g id="a_edge6_Node000001_Node000007"><a xlink:title=" ">
<path fill="none" stroke="#63b8ff" d="M691.65,-251.57C724.6,-239.81 763.81,-225.82 795.24,-214.6"/>
<polygon fill="#63b8ff" stroke="#63b8ff" points="690.86,-248.13 682.62,-254.79 693.22,-254.73 690.86,-248.13"/>
</a>
</g>
</g>
<!-- Node8 -->
<g id="Node000008" class="node">
<title>Node8</title>
<g id="a_Node000008"><a xlink:href="SourceEmulatorConcept_8hpp.html" target="_top" xlink:title=" ">
<polygon fill="white" stroke="#666666" points="1118,-219.75 974.5,-219.75 974.5,-166.75 1118,-166.75 1118,-219.75"/>
<text text-anchor="start" x="982.5" y="-206.25" font-family="Helvetica,sans-Serif" font-size="10.00">/github/workspace/dev</text>
<text text-anchor="start" x="982.5" y="-195" font-family="Helvetica,sans-Serif" font-size="10.00">_area/sourcecode/readoutlibs</text>
<text text-anchor="start" x="982.5" y="-183.75" font-family="Helvetica,sans-Serif" font-size="10.00">/include/readoutlibs/concepts</text>
<text text-anchor="middle" x="1046.25" y="-172.5" font-family="Helvetica,sans-Serif" font-size="10.00">/SourceEmulatorConcept.hpp</text>
</a>
</g>
</g>
<!-- Node1&#45;&gt;Node8 -->
<g id="edge7_Node000001_Node000008" class="edge">
<title>Node1&#45;&gt;Node8</title>
<g id="a_edge7_Node000001_Node000008"><a xlink:title=" ">
<path fill="none" stroke="#63b8ff" d="M724.61,-262.25C791.73,-252.49 881.78,-237.83 960.25,-219.75 964.8,-218.7 969.47,-217.55 974.16,-216.33"/>
<polygon fill="#63b8ff" stroke="#63b8ff" points="724.52,-258.72 715.12,-263.61 725.52,-265.65 724.52,-258.72"/>
</a>
</g>
</g>
<!-- Node9 -->
<g id="Node000009" class="node">
<title>Node9</title>
<g id="a_Node000009"><a xlink:href="SourceEmulatorModel_8hpp.html" target="_top" xlink:title=" ">
<polygon fill="white" stroke="#666666" points="1018,-130.75 874.5,-130.75 874.5,-77.75 1018,-77.75 1018,-130.75"/>
<text text-anchor="start" x="882.5" y="-117.25" font-family="Helvetica,sans-Serif" font-size="10.00">/github/workspace/dev</text>
<text text-anchor="start" x="882.5" y="-106" font-family="Helvetica,sans-Serif" font-size="10.00">_area/sourcecode/readoutlibs</text>
<text text-anchor="start" x="882.5" y="-94.75" font-family="Helvetica,sans-Serif" font-size="10.00">/include/readoutlibs/models</text>
<text text-anchor="middle" x="946.25" y="-83.5" font-family="Helvetica,sans-Serif" font-size="10.00">/SourceEmulatorModel.hpp</text>
</a>
</g>
</g>
<!-- Node1&#45;&gt;Node9 -->
<g id="edge12_Node000001_Node000009" class="edge">
<title>Node1&#45;&gt;Node9</title>
<g id="a_edge12_Node000001_Node000009"><a xlink:title=" ">
<path fill="none" stroke="#63b8ff" d="M724.65,-269.36C801.67,-262.38 899.38,-248.12 927.25,-219.75 950.12,-196.46 951.66,-156.8 949.7,-130.81"/>
<polygon fill="#63b8ff" stroke="#63b8ff" points="724.61,-265.85 714.96,-270.2 725.22,-272.82 724.61,-265.85"/>
</a>
</g>
</g>
<!-- Node8&#45;&gt;Node9 -->
<g id="edge8_Node000008_Node000009" class="edge">
<title>Node8&#45;&gt;Node9</title>
<g id="a_edge8_Node000008_Node000009"><a xlink:title=" ">
<path fill="none" stroke="#63b8ff" d="M1007.87,-158.86C997.32,-149.68 986.03,-139.86 976.04,-131.17"/>
<polygon fill="#63b8ff" stroke="#63b8ff" points="1005.53,-161.47 1015.38,-165.39 1010.13,-156.19 1005.53,-161.47"/>
</a>
</g>
</g>
<!-- Node10 -->
<g id="Node000010" class="node">
<title>Node10</title>
<g id="a_Node000010"><a xlink:href="Readoutlibs_8cpp.html" target="_top" xlink:title=" ">
<polygon fill="white" stroke="#666666" points="1068,-41.75 924.5,-41.75 924.5,0 1068,0 1068,-41.75"/>
<text text-anchor="start" x="932.5" y="-28.25" font-family="Helvetica,sans-Serif" font-size="10.00">/github/workspace/dev</text>
<text text-anchor="start" x="932.5" y="-17" font-family="Helvetica,sans-Serif" font-size="10.00">_area/sourcecode/readoutlibs</text>
<text text-anchor="middle" x="996.25" y="-5.75" font-family="Helvetica,sans-Serif" font-size="10.00">/src/Readoutlibs.cpp</text>
</a>
</g>
</g>
<!-- Node8&#45;&gt;Node10 -->
<g id="edge10_Node000008_Node000010" class="edge">
<title>Node8&#45;&gt;Node10</title>
<g id="a_edge10_Node000008_Node000010"><a xlink:title=" ">
<path fill="none" stroke="#63b8ff" d="M1043.36,-155.36C1040.78,-132.52 1036.01,-102.86 1027.25,-77.75 1022.9,-65.28 1015.9,-52.33 1009.65,-42.04"/>
<polygon fill="#63b8ff" stroke="#63b8ff" points="1039.86,-155.52 1044.36,-165.11 1046.82,-154.81 1039.86,-155.52"/>
</a>
</g>
</g>
<!-- Node11 -->
<g id="Node000011" class="node">
<title>Node11</title>
<g id="a_Node000011"><a xlink:href="FakeCardReaderBase_8hpp.html" target="_top" xlink:title=" ">
<polygon fill="white" stroke="#666666" points="1272,-130.75 1074.5,-130.75 1074.5,-77.75 1272,-77.75 1272,-130.75"/>
<text text-anchor="start" x="1082.5" y="-117.25" font-family="Helvetica,sans-Serif" font-size="10.00">/github/workspace/dev</text>
<text text-anchor="start" x="1082.5" y="-106" font-family="Helvetica,sans-Serif" font-size="10.00">_area/sourcecode/readoutmodules</text>
<text text-anchor="start" x="1082.5" y="-94.75" font-family="Helvetica,sans-Serif" font-size="10.00">/include/readoutmodules/FakeCardReader</text>
<text text-anchor="middle" x="1173.25" y="-83.5" font-family="Helvetica,sans-Serif" font-size="10.00">Base.hpp</text>
</a>
</g>
</g>
<!-- Node8&#45;&gt;Node11 -->
<g id="edge11_Node000008_Node000011" class="edge">
<title>Node8&#45;&gt;Node11</title>
<g id="a_edge11_Node000008_Node000011"><a xlink:title=" ">
<path fill="none" stroke="#63b8ff" d="M1093.39,-159.96C1107.25,-150.46 1122.22,-140.21 1135.42,-131.17"/>
<polygon fill="#63b8ff" stroke="#63b8ff" points="1091.53,-156.99 1085.26,-165.53 1095.49,-162.76 1091.53,-156.99"/>
</a>
</g>
</g>
<!-- Node9&#45;&gt;Node10 -->
<g id="edge9_Node000009_Node000010" class="edge">
<title>Node9&#45;&gt;Node10</title>
<g id="a_edge9_Node000009_Node000010"><a xlink:title=" ">
<path fill="none" stroke="#63b8ff" d="M968.04,-67.78C973.46,-58.97 979.07,-49.83 983.86,-42.04"/>
<polygon fill="#63b8ff" stroke="#63b8ff" points="965.12,-65.86 962.86,-76.21 971.08,-69.52 965.12,-65.86"/>
</a>
</g>
</g>
</g>
</svg>
