<?xml version="1.0" encoding="UTF-8" standalone="no"?>
<!DOCTYPE svg PUBLIC "-//W3C//DTD SVG 1.1//EN"
 "http://www.w3.org/Graphics/SVG/1.1/DTD/svg11.dtd">
<!-- Generated by graphviz version 9.0.0 (20230911.1827)
 -->
<!-- Title: /github/workspace/dev_area/build/appdal/codegen/include/appdal/HDF5PathParams.hpp Pages: 1 -->
<svg width="495pt" height="128pt"
 viewBox="0.00 0.00 495.12 127.50" xmlns="http://www.w3.org/2000/svg" xmlns:xlink="http://www.w3.org/1999/xlink">
<g id="graph0" class="graph" transform="scale(1 1) rotate(0) translate(4 123.5)">
<title>/github/workspace/dev_area/build/appdal/codegen/include/appdal/HDF5PathParams.hpp</title>
<!-- Node1 -->
<g id="Node000001" class="node">
<title>Node1</title>
<g id="a_Node000001"><a xlink:title=" ">
<polygon fill="#999999" stroke="#666666" points="333.75,-119.5 152,-119.5 152,-77.75 333.75,-77.75 333.75,-119.5"/>
<text text-anchor="start" x="160" y="-106" font-family="Helvetica,sans-Serif" font-size="10.00">/github/workspace/dev</text>
<text text-anchor="start" x="160" y="-94.75" font-family="Helvetica,sans-Serif" font-size="10.00">_area/build/appdal/codegen</text>
<text text-anchor="middle" x="242.88" y="-83.5" font-family="Helvetica,sans-Serif" font-size="10.00">/include/appdal/HDF5PathParams.hpp</text>
</a>
</g>
</g>
<!-- Node2 -->
<g id="Node000002" class="node">
<title>Node2</title>
<g id="a_Node000002"><a xlink:href="HDF5FileLayoutParams_8cpp.html" target="_top" xlink:title=" ">
<polygon fill="white" stroke="#666666" points="157.75,-41.75 0,-41.75 0,0 157.75,0 157.75,-41.75"/>
<text text-anchor="start" x="8" y="-28.25" font-family="Helvetica,sans-Serif" font-size="10.00">/github/workspace/dev</text>
<text text-anchor="start" x="8" y="-17" font-family="Helvetica,sans-Serif" font-size="10.00">_area/build/appdal/codegen</text>
<text text-anchor="middle" x="78.88" y="-5.75" font-family="Helvetica,sans-Serif" font-size="10.00">/src/HDF5FileLayoutParams.cpp</text>
</a>
</g>
</g>
<!-- Node1&#45;&gt;Node2 -->
<g id="edge1_Node000001_Node000002" class="edge">
<title>Node1&#45;&gt;Node2</title>
<g id="a_edge1_Node000001_Node000002"><a xlink:title=" ">
<path fill="none" stroke="#63b8ff" d="M188.71,-72.61C167.37,-62.75 143.18,-51.58 122.95,-42.23"/>
<polygon fill="#63b8ff" stroke="#63b8ff" points="187.01,-75.67 197.55,-76.69 189.94,-69.32 187.01,-75.67"/>
</a>
</g>
</g>
<!-- Node3 -->
<g id="Node000003" class="node">
<title>Node3</title>
<g id="a_Node000003"><a xlink:href="HDF5PathParams_8cpp.html" target="_top" xlink:title=" ">
<polygon fill="white" stroke="#666666" points="310.12,-41.75 175.62,-41.75 175.62,0 310.12,0 310.12,-41.75"/>
<text text-anchor="start" x="183.62" y="-28.25" font-family="Helvetica,sans-Serif" font-size="10.00">/github/workspace/dev</text>
<text text-anchor="start" x="183.62" y="-17" font-family="Helvetica,sans-Serif" font-size="10.00">_area/build/appdal/codegen</text>
<text text-anchor="middle" x="242.88" y="-5.75" font-family="Helvetica,sans-Serif" font-size="10.00">/src/HDF5PathParams.cpp</text>
</a>
</g>
</g>
<!-- Node1&#45;&gt;Node3 -->
<g id="edge2_Node000001_Node000003" class="edge">
<title>Node1&#45;&gt;Node3</title>
<g id="a_edge2_Node000001_Node000003"><a xlink:title=" ">
<path fill="none" stroke="#63b8ff" d="M242.88,-66C242.88,-57.96 242.88,-49.54 242.88,-42.23"/>
<polygon fill="#63b8ff" stroke="#63b8ff" points="239.38,-65.81 242.88,-75.81 246.38,-65.81 239.38,-65.81"/>
</a>
</g>
</g>
<!-- Node4 -->
<g id="Node000004" class="node">
<title>Node4</title>
<g id="a_Node000004"><a xlink:href="dump__dunedaq____appdal_8cpp.html" target="_top" xlink:title=" ">
<polygon fill="white" stroke="#666666" points="487.12,-41.75 328.62,-41.75 328.62,0 487.12,0 487.12,-41.75"/>
<text text-anchor="start" x="336.62" y="-28.25" font-family="Helvetica,sans-Serif" font-size="10.00">/github/workspace/dev</text>
<text text-anchor="start" x="336.62" y="-17" font-family="Helvetica,sans-Serif" font-size="10.00">_area/build/appdal/codegen</text>
<text text-anchor="middle" x="407.88" y="-5.75" font-family="Helvetica,sans-Serif" font-size="10.00">/src/dump_dunedaq__appdal.cpp</text>
</a>
</g>
</g>
<!-- Node1&#45;&gt;Node4 -->
<g id="edge3_Node000001_Node000004" class="edge">
<title>Node1&#45;&gt;Node4</title>
<g id="a_edge3_Node000001_Node000004"><a xlink:title=" ">
<path fill="none" stroke="#63b8ff" d="M297.37,-72.61C318.84,-62.75 343.18,-51.58 363.54,-42.23"/>
<polygon fill="#63b8ff" stroke="#63b8ff" points="296.1,-69.34 288.47,-76.69 299.02,-75.7 296.1,-69.34"/>
</a>
</g>
</g>
</g>
</svg>
