<?xml version="1.0" encoding="UTF-8" standalone="no"?>
<!DOCTYPE svg PUBLIC "-//W3C//DTD SVG 1.1//EN"
 "http://www.w3.org/Graphics/SVG/1.1/DTD/svg11.dtd">
<!-- Generated by graphviz version 9.0.0 (20230911.1827)
 -->
<!-- Title: /github/workspace/dev_area/build/coredal/codegen/include/coredal/DaqApplication.hpp Pages: 1 -->
<svg width="1411pt" height="128pt"
 viewBox="0.00 0.00 1410.62 127.50" xmlns="http://www.w3.org/2000/svg" xmlns:xlink="http://www.w3.org/1999/xlink">
<g id="graph0" class="graph" transform="scale(1 1) rotate(0) translate(4 123.5)">
<title>/github/workspace/dev_area/build/coredal/codegen/include/coredal/DaqApplication.hpp</title>
<!-- Node1 -->
<g id="Node000001" class="node">
<title>Node1</title>
<g id="a_Node000001"><a xlink:title=" ">
<polygon fill="#999999" stroke="#666666" points="825,-119.5 654.5,-119.5 654.5,-77.75 825,-77.75 825,-119.5"/>
<text text-anchor="start" x="662.5" y="-106" font-family="Helvetica,sans-Serif" font-size="10.00">/github/workspace/dev</text>
<text text-anchor="start" x="662.5" y="-94.75" font-family="Helvetica,sans-Serif" font-size="10.00">_area/build/coredal/codegen</text>
<text text-anchor="middle" x="739.75" y="-83.5" font-family="Helvetica,sans-Serif" font-size="10.00">/include/coredal/DaqApplication.hpp</text>
</a>
</g>
</g>
<!-- Node2 -->
<g id="Node000002" class="node">
<title>Node2</title>
<g id="a_Node000002"><a xlink:href="DaqApplication_8cpp.html" target="_top" xlink:title=" ">
<polygon fill="white" stroke="#666666" points="137.5,-41.75 0,-41.75 0,0 137.5,0 137.5,-41.75"/>
<text text-anchor="start" x="8" y="-28.25" font-family="Helvetica,sans-Serif" font-size="10.00">/github/workspace/dev</text>
<text text-anchor="start" x="8" y="-17" font-family="Helvetica,sans-Serif" font-size="10.00">_area/build/coredal/codegen</text>
<text text-anchor="middle" x="68.75" y="-5.75" font-family="Helvetica,sans-Serif" font-size="10.00">/src/DaqApplication.cpp</text>
</a>
</g>
</g>
<!-- Node1&#45;&gt;Node2 -->
<g id="edge1_Node000001_Node000002" class="edge">
<title>Node1&#45;&gt;Node2</title>
<g id="a_edge1_Node000001_Node000002"><a xlink:title=" ">
<path fill="none" stroke="#63b8ff" d="M642.77,-93.12C524.83,-86.59 320.04,-71.8 146.75,-41.75 143.86,-41.25 140.92,-40.7 137.95,-40.1"/>
<polygon fill="#63b8ff" stroke="#63b8ff" points="642.57,-96.62 652.74,-93.67 642.95,-89.63 642.57,-96.62"/>
</a>
</g>
</g>
<!-- Node3 -->
<g id="Node000003" class="node">
<title>Node3</title>
<g id="a_Node000003"><a xlink:href="dump__dunedaq____coredal_8cpp.html" target="_top" xlink:title=" ">
<polygon fill="white" stroke="#666666" points="317.5,-41.75 156,-41.75 156,0 317.5,0 317.5,-41.75"/>
<text text-anchor="start" x="164" y="-28.25" font-family="Helvetica,sans-Serif" font-size="10.00">/github/workspace/dev</text>
<text text-anchor="start" x="164" y="-17" font-family="Helvetica,sans-Serif" font-size="10.00">_area/build/coredal/codegen</text>
<text text-anchor="middle" x="236.75" y="-5.75" font-family="Helvetica,sans-Serif" font-size="10.00">/src/dump_dunedaq__coredal.cpp</text>
</a>
</g>
</g>
<!-- Node1&#45;&gt;Node3 -->
<g id="edge2_Node000001_Node000003" class="edge">
<title>Node1&#45;&gt;Node3</title>
<g id="a_edge2_Node000001_Node000003"><a xlink:title=" ">
<path fill="none" stroke="#63b8ff" d="M642.69,-86.8C558.77,-76.89 434.36,-60.88 326.75,-41.75 323.76,-41.22 320.71,-40.66 317.64,-40.07"/>
<polygon fill="#63b8ff" stroke="#63b8ff" points="642.16,-90.26 652.5,-87.95 642.98,-83.31 642.16,-90.26"/>
</a>
</g>
</g>
<!-- Node4 -->
<g id="Node000004" class="node">
<title>Node4</title>
<g id="a_Node000004"><a xlink:href="get__apps__arguments_8cxx.html" target="_top" xlink:title=" ">
<polygon fill="white" stroke="#666666" points="485.88,-41.75 335.62,-41.75 335.62,0 485.88,0 485.88,-41.75"/>
<text text-anchor="start" x="343.62" y="-28.25" font-family="Helvetica,sans-Serif" font-size="10.00">/github/workspace/dev</text>
<text text-anchor="start" x="343.62" y="-17" font-family="Helvetica,sans-Serif" font-size="10.00">_area/sourcecode/appdal</text>
<text text-anchor="middle" x="410.75" y="-5.75" font-family="Helvetica,sans-Serif" font-size="10.00">/apps/get_apps_arguments.cxx</text>
</a>
</g>
</g>
<!-- Node1&#45;&gt;Node4 -->
<g id="edge3_Node000001_Node000004" class="edge">
<title>Node1&#45;&gt;Node4</title>
<g id="a_edge3_Node000001_Node000004"><a xlink:title=" ">
<path fill="none" stroke="#63b8ff" d="M643.15,-75.78C598.04,-65.54 543.63,-53.11 494.75,-41.75 491.98,-41.11 489.15,-40.45 486.3,-39.78"/>
<polygon fill="#63b8ff" stroke="#63b8ff" points="642.1,-79.14 652.63,-77.94 643.65,-72.31 642.1,-79.14"/>
</a>
</g>
</g>
<!-- Node5 -->
<g id="Node000005" class="node">
<title>Node5</title>
<g id="a_Node000005"><a xlink:href="ConfigurationManager_8cpp.html" target="_top" xlink:title=" ">
<polygon fill="white" stroke="#666666" points="651.38,-41.75 504.12,-41.75 504.12,0 651.38,0 651.38,-41.75"/>
<text text-anchor="start" x="512.12" y="-28.25" font-family="Helvetica,sans-Serif" font-size="10.00">/github/workspace/dev</text>
<text text-anchor="start" x="512.12" y="-17" font-family="Helvetica,sans-Serif" font-size="10.00">_area/sourcecode/appfwk</text>
<text text-anchor="middle" x="577.75" y="-5.75" font-family="Helvetica,sans-Serif" font-size="10.00">/src/ConfigurationManager.cpp</text>
</a>
</g>
</g>
<!-- Node1&#45;&gt;Node5 -->
<g id="edge4_Node000001_Node000005" class="edge">
<title>Node1&#45;&gt;Node5</title>
<g id="a_edge4_Node000001_Node000005"><a xlink:title=" ">
<path fill="none" stroke="#63b8ff" d="M685.96,-72.47C664.95,-62.65 641.18,-51.54 621.28,-42.23"/>
<polygon fill="#63b8ff" stroke="#63b8ff" points="684.42,-75.62 694.97,-76.68 687.39,-69.28 684.42,-75.62"/>
</a>
</g>
</g>
<!-- Node6 -->
<g id="Node000006" class="node">
<title>Node6</title>
<g id="a_Node000006"><a xlink:href="ModuleConfiguration_8cpp.html" target="_top" xlink:title=" ">
<polygon fill="white" stroke="#666666" points="810.38,-41.75 669.12,-41.75 669.12,0 810.38,0 810.38,-41.75"/>
<text text-anchor="start" x="677.12" y="-28.25" font-family="Helvetica,sans-Serif" font-size="10.00">/github/workspace/dev</text>
<text text-anchor="start" x="677.12" y="-17" font-family="Helvetica,sans-Serif" font-size="10.00">_area/sourcecode/appfwk</text>
<text text-anchor="middle" x="739.75" y="-5.75" font-family="Helvetica,sans-Serif" font-size="10.00">/src/ModuleConfiguration.cpp</text>
</a>
</g>
</g>
<!-- Node1&#45;&gt;Node6 -->
<g id="edge5_Node000001_Node000006" class="edge">
<title>Node1&#45;&gt;Node6</title>
<g id="a_edge5_Node000001_Node000006"><a xlink:title=" ">
<path fill="none" stroke="#63b8ff" d="M739.75,-66C739.75,-57.96 739.75,-49.54 739.75,-42.23"/>
<polygon fill="#63b8ff" stroke="#63b8ff" points="736.25,-65.81 739.75,-75.81 743.25,-65.81 736.25,-65.81"/>
</a>
</g>
</g>
<!-- Node7 -->
<g id="Node000007" class="node">
<title>Node7</title>
<g id="a_Node000007"><a xlink:href="list__apps_8cxx.html" target="_top" xlink:title=" ">
<polygon fill="white" stroke="#666666" points="956.62,-41.75 828.88,-41.75 828.88,0 956.62,0 956.62,-41.75"/>
<text text-anchor="start" x="836.88" y="-28.25" font-family="Helvetica,sans-Serif" font-size="10.00">/github/workspace/dev</text>
<text text-anchor="start" x="836.88" y="-17" font-family="Helvetica,sans-Serif" font-size="10.00">_area/sourcecode/coredal</text>
<text text-anchor="middle" x="892.75" y="-5.75" font-family="Helvetica,sans-Serif" font-size="10.00">/apps/list_apps.cxx</text>
</a>
</g>
</g>
<!-- Node1&#45;&gt;Node7 -->
<g id="edge6_Node000001_Node000007" class="edge">
<title>Node1&#45;&gt;Node7</title>
<g id="a_edge6_Node000001_Node000007"><a xlink:title=" ">
<path fill="none" stroke="#63b8ff" d="M790.83,-72.34C810.6,-62.55 832.93,-51.49 851.64,-42.23"/>
<polygon fill="#63b8ff" stroke="#63b8ff" points="789.52,-69.08 782.11,-76.65 792.62,-75.35 789.52,-69.08"/>
</a>
</g>
</g>
<!-- Node8 -->
<g id="Node000008" class="node">
<title>Node8</title>
<g id="a_Node000008"><a xlink:href="coredal_2pybindsrc_2dal__methods_8cpp.html" target="_top" xlink:title=" ">
<polygon fill="white" stroke="#666666" points="1111.12,-41.75 974.38,-41.75 974.38,0 1111.12,0 1111.12,-41.75"/>
<text text-anchor="start" x="982.38" y="-28.25" font-family="Helvetica,sans-Serif" font-size="10.00">/github/workspace/dev</text>
<text text-anchor="start" x="982.38" y="-17" font-family="Helvetica,sans-Serif" font-size="10.00">_area/sourcecode/coredal</text>
<text text-anchor="middle" x="1042.75" y="-5.75" font-family="Helvetica,sans-Serif" font-size="10.00">/pybindsrc/dal_methods.cpp</text>
</a>
</g>
</g>
<!-- Node1&#45;&gt;Node8 -->
<g id="edge7_Node000001_Node000008" class="edge">
<title>Node1&#45;&gt;Node8</title>
<g id="a_edge7_Node000001_Node000008"><a xlink:title=" ">
<path fill="none" stroke="#63b8ff" d="M833.95,-74.56C874.53,-64.57 922.5,-52.68 965.75,-41.75 968.43,-41.07 971.16,-40.38 973.91,-39.68"/>
<polygon fill="#63b8ff" stroke="#63b8ff" points="833.33,-71.11 824.45,-76.9 835,-77.91 833.33,-71.11"/>
</a>
</g>
</g>
<!-- Node9 -->
<g id="Node000009" class="node">
<title>Node9</title>
<g id="a_Node000009"><a xlink:href="coredal_2pybindsrc_2module_8cpp.html" target="_top" xlink:title=" ">
<polygon fill="white" stroke="#666666" points="1256.62,-41.75 1128.88,-41.75 1128.88,0 1256.62,0 1256.62,-41.75"/>
<text text-anchor="start" x="1136.88" y="-28.25" font-family="Helvetica,sans-Serif" font-size="10.00">/github/workspace/dev</text>
<text text-anchor="start" x="1136.88" y="-17" font-family="Helvetica,sans-Serif" font-size="10.00">_area/sourcecode/coredal</text>
<text text-anchor="middle" x="1192.75" y="-5.75" font-family="Helvetica,sans-Serif" font-size="10.00">/pybindsrc/module.cpp</text>
</a>
</g>
</g>
<!-- Node1&#45;&gt;Node9 -->
<g id="edge8_Node000001_Node000009" class="edge">
<title>Node1&#45;&gt;Node9</title>
<g id="a_edge8_Node000001_Node000009"><a xlink:title=" ">
<path fill="none" stroke="#63b8ff" d="M836.29,-86.67C913.44,-77.14 1024.1,-61.73 1119.75,-41.75 1122.71,-41.13 1125.72,-40.47 1128.76,-39.76"/>
<polygon fill="#63b8ff" stroke="#63b8ff" points="836.16,-83.16 826.66,-87.85 837.01,-90.11 836.16,-83.16"/>
</a>
</g>
</g>
<!-- Node10 -->
<g id="Node000010" class="node">
<title>Node10</title>
<g id="a_Node000010"><a xlink:href="dalMethods_8cpp.html" target="_top" xlink:title=" ">
<polygon fill="white" stroke="#666666" points="1402.62,-41.75 1274.88,-41.75 1274.88,0 1402.62,0 1402.62,-41.75"/>
<text text-anchor="start" x="1282.88" y="-28.25" font-family="Helvetica,sans-Serif" font-size="10.00">/github/workspace/dev</text>
<text text-anchor="start" x="1282.88" y="-17" font-family="Helvetica,sans-Serif" font-size="10.00">_area/sourcecode/coredal</text>
<text text-anchor="middle" x="1338.75" y="-5.75" font-family="Helvetica,sans-Serif" font-size="10.00">/src/dalMethods.cpp</text>
</a>
</g>
</g>
<!-- Node1&#45;&gt;Node10 -->
<g id="edge9_Node000001_Node000010" class="edge">
<title>Node1&#45;&gt;Node10</title>
<g id="a_edge9_Node000001_Node000010"><a xlink:title=" ">
<path fill="none" stroke="#63b8ff" d="M836.39,-92.01C942.42,-84.77 1117.28,-69.66 1265.75,-41.75 1268.59,-41.22 1271.48,-40.63 1274.39,-40"/>
<polygon fill="#63b8ff" stroke="#63b8ff" points="836.34,-88.51 826.59,-92.67 836.81,-95.49 836.34,-88.51"/>
</a>
</g>
</g>
</g>
</svg>
