<?xml version="1.0" encoding="UTF-8" standalone="no"?>
<!DOCTYPE svg PUBLIC "-//W3C//DTD SVG 1.1//EN"
 "http://www.w3.org/Graphics/SVG/1.1/DTD/svg11.dtd">
<!-- Generated by graphviz version 9.0.0 (20230911.1827)
 -->
<!-- Title: /github/workspace/dev_area/build/listrev/codegen/include/listrev/dal/RandomListGeneratorSet.hpp Pages: 1 -->
<svg width="646pt" height="150pt"
 viewBox="0.00 0.00 646.25 150.00" xmlns="http://www.w3.org/2000/svg" xmlns:xlink="http://www.w3.org/1999/xlink">
<g id="graph0" class="graph" transform="scale(1 1) rotate(0) translate(4 146)">
<title>/github/workspace/dev_area/build/listrev/codegen/include/listrev/dal/RandomListGeneratorSet.hpp</title>
<!-- Node1 -->
<g id="Node000001" class="node">
<title>Node1</title>
<g id="a_Node000001"><a xlink:title=" ">
<polygon fill="#999999" stroke="#666666" points="415.62,-142 222.62,-142 222.62,-89 415.62,-89 415.62,-142"/>
<text text-anchor="start" x="230.62" y="-128.5" font-family="Helvetica,sans-Serif" font-size="10.00">/github/workspace/dev</text>
<text text-anchor="start" x="230.62" y="-117.25" font-family="Helvetica,sans-Serif" font-size="10.00">_area/build/listrev/codegen</text>
<text text-anchor="start" x="230.62" y="-106" font-family="Helvetica,sans-Serif" font-size="10.00">/include/listrev/dal/RandomListGenerator</text>
<text text-anchor="middle" x="319.12" y="-94.75" font-family="Helvetica,sans-Serif" font-size="10.00">Set.hpp</text>
</a>
</g>
</g>
<!-- Node2 -->
<g id="Node000002" class="node">
<title>Node2</title>
<g id="a_Node000002"><a xlink:href="ListReverser_8cpp.html" target="_top" xlink:title=" ">
<polygon fill="white" stroke="#666666" points="132.25,-47.38 0,-47.38 0,-5.62 132.25,-5.62 132.25,-47.38"/>
<text text-anchor="start" x="8" y="-33.88" font-family="Helvetica,sans-Serif" font-size="10.00">/github/workspace/dev</text>
<text text-anchor="start" x="8" y="-22.62" font-family="Helvetica,sans-Serif" font-size="10.00">_area/build/listrev/codegen</text>
<text text-anchor="middle" x="66.12" y="-11.38" font-family="Helvetica,sans-Serif" font-size="10.00">/src/ListReverser.cpp</text>
</a>
</g>
</g>
<!-- Node1&#45;&gt;Node2 -->
<g id="edge1_Node000001_Node000002" class="edge">
<title>Node1&#45;&gt;Node2</title>
<g id="a_edge1_Node000001_Node000002"><a xlink:title=" ">
<path fill="none" stroke="#63b8ff" d="M232.73,-84.79C197.32,-72.61 157.23,-58.83 125.25,-47.83"/>
<polygon fill="#63b8ff" stroke="#63b8ff" points="231.53,-88.08 242.13,-88.02 233.81,-81.46 231.53,-88.08"/>
</a>
</g>
</g>
<!-- Node3 -->
<g id="Node000003" class="node">
<title>Node3</title>
<g id="a_Node000003"><a xlink:href="RandomListGeneratorSet_8cpp.html" target="_top" xlink:title=" ">
<polygon fill="white" stroke="#666666" points="314,-47.38 150.25,-47.38 150.25,-5.62 314,-5.62 314,-47.38"/>
<text text-anchor="start" x="158.25" y="-33.88" font-family="Helvetica,sans-Serif" font-size="10.00">/github/workspace/dev</text>
<text text-anchor="start" x="158.25" y="-22.62" font-family="Helvetica,sans-Serif" font-size="10.00">_area/build/listrev/codegen</text>
<text text-anchor="middle" x="232.12" y="-11.38" font-family="Helvetica,sans-Serif" font-size="10.00">/src/RandomListGeneratorSet.cpp</text>
</a>
</g>
</g>
<!-- Node1&#45;&gt;Node3 -->
<g id="edge2_Node000001_Node000003" class="edge">
<title>Node1&#45;&gt;Node3</title>
<g id="a_edge2_Node000001_Node000003"><a xlink:title=" ">
<path fill="none" stroke="#63b8ff" d="M285.54,-80.92C274.34,-69.71 262.2,-57.58 252.34,-47.71"/>
<polygon fill="#63b8ff" stroke="#63b8ff" points="282.88,-83.2 292.42,-87.8 287.83,-78.25 282.88,-83.2"/>
</a>
</g>
</g>
<!-- Node4 -->
<g id="Node000004" class="node">
<title>Node4</title>
<g id="a_Node000004"><a xlink:href="ReversedListValidator_8cpp.html" target="_top" xlink:title=" ">
<polygon fill="white" stroke="#666666" points="481.88,-47.38 332.38,-47.38 332.38,-5.62 481.88,-5.62 481.88,-47.38"/>
<text text-anchor="start" x="340.38" y="-33.88" font-family="Helvetica,sans-Serif" font-size="10.00">/github/workspace/dev</text>
<text text-anchor="start" x="340.38" y="-22.62" font-family="Helvetica,sans-Serif" font-size="10.00">_area/build/listrev/codegen</text>
<text text-anchor="middle" x="407.12" y="-11.38" font-family="Helvetica,sans-Serif" font-size="10.00">/src/ReversedListValidator.cpp</text>
</a>
</g>
</g>
<!-- Node1&#45;&gt;Node4 -->
<g id="edge3_Node000001_Node000004" class="edge">
<title>Node1&#45;&gt;Node4</title>
<g id="a_edge3_Node000001_Node000004"><a xlink:title=" ">
<path fill="none" stroke="#63b8ff" d="M353.09,-80.92C364.43,-69.71 376.7,-57.58 386.68,-47.71"/>
<polygon fill="#63b8ff" stroke="#63b8ff" points="350.78,-78.28 346.13,-87.8 355.7,-83.26 350.78,-78.28"/>
</a>
</g>
</g>
<!-- Node5 -->
<g id="Node000005" class="node">
<title>Node5</title>
<g id="a_Node000005"><a xlink:href="dump__dunedaq____listrev____dal_8cpp.html" target="_top" xlink:title=" ">
<polygon fill="white" stroke="#666666" points="638.25,-53 500,-53 500,0 638.25,0 638.25,-53"/>
<text text-anchor="start" x="508" y="-39.5" font-family="Helvetica,sans-Serif" font-size="10.00">/github/workspace/dev</text>
<text text-anchor="start" x="508" y="-28.25" font-family="Helvetica,sans-Serif" font-size="10.00">_area/build/listrev/codegen</text>
<text text-anchor="start" x="508" y="-17" font-family="Helvetica,sans-Serif" font-size="10.00">/src/dump_dunedaq__listrev</text>
<text text-anchor="middle" x="569.12" y="-5.75" font-family="Helvetica,sans-Serif" font-size="10.00">__dal.cpp</text>
</a>
</g>
</g>
<!-- Node1&#45;&gt;Node5 -->
<g id="edge4_Node000001_Node000005" class="edge">
<title>Node1&#45;&gt;Node5</title>
<g id="a_edge4_Node000001_Node000005"><a xlink:title=" ">
<path fill="none" stroke="#63b8ff" d="M404.58,-84.76C435.54,-73.99 470.11,-61.96 499.54,-51.72"/>
<polygon fill="#63b8ff" stroke="#63b8ff" points="403.52,-81.43 395.22,-88.02 405.82,-88.04 403.52,-81.43"/>
</a>
</g>
</g>
</g>
</svg>
