<?xml version="1.0" encoding="UTF-8" standalone="no"?>
<!DOCTYPE svg PUBLIC "-//W3C//DTD SVG 1.1//EN"
 "http://www.w3.org/Graphics/SVG/1.1/DTD/svg11.dtd">
<!-- Generated by graphviz version 9.0.0 (20230911.1827)
 -->
<!-- Title: /github/workspace/dev_area/build/appdal/codegen/include/appdal/DataRecorderConf.hpp Pages: 1 -->
<svg width="1801pt" height="383pt"
 viewBox="0.00 0.00 1801.00 383.25" xmlns="http://www.w3.org/2000/svg" xmlns:xlink="http://www.w3.org/1999/xlink">
<g id="graph0" class="graph" transform="scale(1 1) rotate(0) translate(4 379.25)">
<title>/github/workspace/dev_area/build/appdal/codegen/include/appdal/DataRecorderConf.hpp</title>
<!-- Node1 -->
<g id="Node000001" class="node">
<title>Node1</title>
<g id="a_Node000001"><a xlink:title=" ">
<polygon fill="#999999" stroke="#666666" points="864.12,-375.25 682.38,-375.25 682.38,-333.5 864.12,-333.5 864.12,-375.25"/>
<text text-anchor="start" x="690.38" y="-361.75" font-family="Helvetica,sans-Serif" font-size="10.00">/github/workspace/dev</text>
<text text-anchor="start" x="690.38" y="-350.5" font-family="Helvetica,sans-Serif" font-size="10.00">_area/build/appdal/codegen</text>
<text text-anchor="middle" x="773.25" y="-339.25" font-family="Helvetica,sans-Serif" font-size="10.00">/include/appdal/DataRecorderConf.hpp</text>
</a>
</g>
</g>
<!-- Node2 -->
<g id="Node000002" class="node">
<title>Node2</title>
<g id="a_Node000002"><a xlink:href="DataRecorder_8cpp.html" target="_top" xlink:title=" ">
<polygon fill="white" stroke="#666666" points="134.5,-291.88 0,-291.88 0,-250.12 134.5,-250.12 134.5,-291.88"/>
<text text-anchor="start" x="8" y="-278.38" font-family="Helvetica,sans-Serif" font-size="10.00">/github/workspace/dev</text>
<text text-anchor="start" x="8" y="-267.12" font-family="Helvetica,sans-Serif" font-size="10.00">_area/build/appdal/codegen</text>
<text text-anchor="middle" x="67.25" y="-255.88" font-family="Helvetica,sans-Serif" font-size="10.00">/src/DataRecorder.cpp</text>
</a>
</g>
</g>
<!-- Node1&#45;&gt;Node2 -->
<g id="edge1_Node000001_Node000002" class="edge">
<title>Node1&#45;&gt;Node2</title>
<g id="a_edge1_Node000001_Node000002"><a xlink:title=" ">
<path fill="none" stroke="#63b8ff" d="M670.46,-351.51C545.03,-347.58 327.08,-335.36 144.25,-297.5 137.49,-296.1 130.5,-294.3 123.61,-292.31"/>
<polygon fill="#63b8ff" stroke="#63b8ff" points="670.32,-355.01 680.42,-351.81 670.53,-348.01 670.32,-355.01"/>
</a>
</g>
</g>
<!-- Node3 -->
<g id="Node000003" class="node">
<title>Node3</title>
<g id="a_Node000003"><a xlink:href="DataRecorderConf_8cpp.html" target="_top" xlink:title=" ">
<polygon fill="white" stroke="#666666" points="287.5,-291.88 153,-291.88 153,-250.12 287.5,-250.12 287.5,-291.88"/>
<text text-anchor="start" x="161" y="-278.38" font-family="Helvetica,sans-Serif" font-size="10.00">/github/workspace/dev</text>
<text text-anchor="start" x="161" y="-267.12" font-family="Helvetica,sans-Serif" font-size="10.00">_area/build/appdal/codegen</text>
<text text-anchor="middle" x="220.25" y="-255.88" font-family="Helvetica,sans-Serif" font-size="10.00">/src/DataRecorderConf.cpp</text>
</a>
</g>
</g>
<!-- Node1&#45;&gt;Node3 -->
<g id="edge2_Node000001_Node000003" class="edge">
<title>Node1&#45;&gt;Node3</title>
<g id="a_edge2_Node000001_Node000003"><a xlink:title=" ">
<path fill="none" stroke="#63b8ff" d="M670.89,-347.54C573.6,-340.54 423.63,-326.01 296.25,-297.5 289.73,-296.04 282.98,-294.23 276.33,-292.26"/>
<polygon fill="#63b8ff" stroke="#63b8ff" points="670.47,-351.01 680.69,-348.23 670.96,-344.03 670.47,-351.01"/>
</a>
</g>
</g>
<!-- Node4 -->
<g id="Node000004" class="node">
<title>Node4</title>
<g id="a_Node000004"><a xlink:href="build_2appdal_2codegen_2src_2ReadoutApplication_8cpp.html" target="_top" xlink:title=" ">
<polygon fill="white" stroke="#666666" points="443,-291.88 305.5,-291.88 305.5,-250.12 443,-250.12 443,-291.88"/>
<text text-anchor="start" x="313.5" y="-278.38" font-family="Helvetica,sans-Serif" font-size="10.00">/github/workspace/dev</text>
<text text-anchor="start" x="313.5" y="-267.12" font-family="Helvetica,sans-Serif" font-size="10.00">_area/build/appdal/codegen</text>
<text text-anchor="middle" x="374.25" y="-255.88" font-family="Helvetica,sans-Serif" font-size="10.00">/src/ReadoutApplication.cpp</text>
</a>
</g>
</g>
<!-- Node1&#45;&gt;Node4 -->
<g id="edge3_Node000001_Node000004" class="edge">
<title>Node1&#45;&gt;Node4</title>
<g id="a_edge3_Node000001_Node000004"><a xlink:title=" ">
<path fill="none" stroke="#63b8ff" d="M670.69,-339.36C607.28,-329.75 524.48,-315.5 452.25,-297.5 446.03,-295.95 439.58,-294.16 433.19,-292.25"/>
<polygon fill="#63b8ff" stroke="#63b8ff" points="669.99,-342.8 680.4,-340.82 671.03,-335.88 669.99,-342.8"/>
</a>
</g>
</g>
<!-- Node5 -->
<g id="Node000005" class="node">
<title>Node5</title>
<g id="a_Node000005"><a xlink:href="RequestHandler_8cpp.html" target="_top" xlink:title=" ">
<polygon fill="white" stroke="#666666" points="595.5,-291.88 461,-291.88 461,-250.12 595.5,-250.12 595.5,-291.88"/>
<text text-anchor="start" x="469" y="-278.38" font-family="Helvetica,sans-Serif" font-size="10.00">/github/workspace/dev</text>
<text text-anchor="start" x="469" y="-267.12" font-family="Helvetica,sans-Serif" font-size="10.00">_area/build/appdal/codegen</text>
<text text-anchor="middle" x="528.25" y="-255.88" font-family="Helvetica,sans-Serif" font-size="10.00">/src/RequestHandler.cpp</text>
</a>
</g>
</g>
<!-- Node1&#45;&gt;Node5 -->
<g id="edge4_Node000001_Node000005" class="edge">
<title>Node1&#45;&gt;Node5</title>
<g id="a_edge4_Node000001_Node000005"><a xlink:title=" ">
<path fill="none" stroke="#63b8ff" d="M701.28,-329.47C665.79,-317.68 623.43,-303.61 589.51,-292.35"/>
<polygon fill="#63b8ff" stroke="#63b8ff" points="700.03,-332.74 710.62,-332.57 702.23,-326.1 700.03,-332.74"/>
</a>
</g>
</g>
<!-- Node6 -->
<g id="Node000006" class="node">
<title>Node6</title>
<g id="a_Node000006"><a xlink:href="dump__dunedaq____appdal_8cpp.html" target="_top" xlink:title=" ">
<polygon fill="white" stroke="#666666" points="772.5,-291.88 614,-291.88 614,-250.12 772.5,-250.12 772.5,-291.88"/>
<text text-anchor="start" x="622" y="-278.38" font-family="Helvetica,sans-Serif" font-size="10.00">/github/workspace/dev</text>
<text text-anchor="start" x="622" y="-267.12" font-family="Helvetica,sans-Serif" font-size="10.00">_area/build/appdal/codegen</text>
<text text-anchor="middle" x="693.25" y="-255.88" font-family="Helvetica,sans-Serif" font-size="10.00">/src/dump_dunedaq__appdal.cpp</text>
</a>
</g>
</g>
<!-- Node1&#45;&gt;Node6 -->
<g id="edge5_Node000001_Node000006" class="edge">
<title>Node1&#45;&gt;Node6</title>
<g id="a_edge5_Node000001_Node000006"><a xlink:title=" ">
<path fill="none" stroke="#63b8ff" d="M745.6,-325.25C734.9,-314.37 722.89,-302.15 713.08,-292.17"/>
<polygon fill="#63b8ff" stroke="#63b8ff" points="742.91,-327.5 752.41,-332.18 747.9,-322.6 742.91,-327.5"/>
</a>
</g>
</g>
<!-- Node7 -->
<g id="Node000007" class="node">
<title>Node7</title>
<g id="a_Node000007"><a xlink:href="sourcecode_2appdal_2src_2MLTApplication_8cpp.html" target="_top" xlink:title=" ">
<polygon fill="white" stroke="#666666" points="915.62,-291.88 790.88,-291.88 790.88,-250.12 915.62,-250.12 915.62,-291.88"/>
<text text-anchor="start" x="798.88" y="-278.38" font-family="Helvetica,sans-Serif" font-size="10.00">/github/workspace/dev</text>
<text text-anchor="start" x="798.88" y="-267.12" font-family="Helvetica,sans-Serif" font-size="10.00">_area/sourcecode/appdal</text>
<text text-anchor="middle" x="853.25" y="-255.88" font-family="Helvetica,sans-Serif" font-size="10.00">/src/MLTApplication.cpp</text>
</a>
</g>
</g>
<!-- Node1&#45;&gt;Node7 -->
<g id="edge6_Node000001_Node000007" class="edge">
<title>Node1&#45;&gt;Node7</title>
<g id="a_edge6_Node000001_Node000007"><a xlink:title=" ">
<path fill="none" stroke="#63b8ff" d="M800.9,-325.25C811.6,-314.37 823.61,-302.15 833.42,-292.17"/>
<polygon fill="#63b8ff" stroke="#63b8ff" points="798.6,-322.6 794.09,-332.18 803.59,-327.5 798.6,-322.6"/>
</a>
</g>
</g>
<!-- Node8 -->
<g id="Node000008" class="node">
<title>Node8</title>
<g id="a_Node000008"><a xlink:href="sourcecode_2appdal_2src_2ReadoutApplication_8cpp.html" target="_top" xlink:title=" ">
<polygon fill="white" stroke="#666666" points="1071,-291.88 933.5,-291.88 933.5,-250.12 1071,-250.12 1071,-291.88"/>
<text text-anchor="start" x="941.5" y="-278.38" font-family="Helvetica,sans-Serif" font-size="10.00">/github/workspace/dev</text>
<text text-anchor="start" x="941.5" y="-267.12" font-family="Helvetica,sans-Serif" font-size="10.00">_area/sourcecode/appdal</text>
<text text-anchor="middle" x="1002.25" y="-255.88" font-family="Helvetica,sans-Serif" font-size="10.00">/src/ReadoutApplication.cpp</text>
</a>
</g>
</g>
<!-- Node1&#45;&gt;Node8 -->
<g id="edge7_Node000001_Node000008" class="edge">
<title>Node1&#45;&gt;Node8</title>
<g id="a_edge7_Node000001_Node000008"><a xlink:title=" ">
<path fill="none" stroke="#63b8ff" d="M840.95,-329.32C874.04,-317.56 913.42,-303.57 944.99,-292.35"/>
<polygon fill="#63b8ff" stroke="#63b8ff" points="840.12,-325.9 831.87,-332.54 842.47,-332.49 840.12,-325.9"/>
</a>
</g>
</g>
<!-- Node9 -->
<g id="Node000009" class="node">
<title>Node9</title>
<g id="a_Node000009"><a xlink:href="sourcecode_2appdal_2src_2TriggerApplication_8cpp.html" target="_top" xlink:title=" ">
<polygon fill="white" stroke="#666666" points="1221,-291.88 1089.5,-291.88 1089.5,-250.12 1221,-250.12 1221,-291.88"/>
<text text-anchor="start" x="1097.5" y="-278.38" font-family="Helvetica,sans-Serif" font-size="10.00">/github/workspace/dev</text>
<text text-anchor="start" x="1097.5" y="-267.12" font-family="Helvetica,sans-Serif" font-size="10.00">_area/sourcecode/appdal</text>
<text text-anchor="middle" x="1155.25" y="-255.88" font-family="Helvetica,sans-Serif" font-size="10.00">/src/TriggerApplication.cpp</text>
</a>
</g>
</g>
<!-- Node1&#45;&gt;Node9 -->
<g id="edge8_Node000001_Node000009" class="edge">
<title>Node1&#45;&gt;Node9</title>
<g id="a_edge8_Node000001_Node000009"><a xlink:title=" ">
<path fill="none" stroke="#63b8ff" d="M875.38,-338.67C935.5,-329.05 1012.74,-315.02 1080.25,-297.5 1086.11,-295.98 1092.17,-294.23 1098.19,-292.37"/>
<polygon fill="#63b8ff" stroke="#63b8ff" points="875.18,-335.15 865.85,-340.17 876.27,-342.07 875.18,-335.15"/>
</a>
</g>
</g>
<!-- Node10 -->
<g id="Node000010" class="node">
<title>Node10</title>
<g id="a_Node000010"><a xlink:href="DefaultRequestHandlerModel_8hpp.html" target="_top" xlink:title=" ">
<polygon fill="white" stroke="#666666" points="1403.12,-297.5 1239.38,-297.5 1239.38,-244.5 1403.12,-244.5 1403.12,-297.5"/>
<text text-anchor="start" x="1247.38" y="-284" font-family="Helvetica,sans-Serif" font-size="10.00">/github/workspace/dev</text>
<text text-anchor="start" x="1247.38" y="-272.75" font-family="Helvetica,sans-Serif" font-size="10.00">_area/sourcecode/readoutlibs</text>
<text text-anchor="start" x="1247.38" y="-261.5" font-family="Helvetica,sans-Serif" font-size="10.00">/include/readoutlibs/models</text>
<text text-anchor="middle" x="1321.25" y="-250.25" font-family="Helvetica,sans-Serif" font-size="10.00">/DefaultRequestHandlerModel.hpp</text>
</a>
</g>
</g>
<!-- Node1&#45;&gt;Node10 -->
<g id="edge9_Node000001_Node000010" class="edge">
<title>Node1&#45;&gt;Node10</title>
<g id="a_edge9_Node000001_Node000010"><a xlink:title=" ">
<path fill="none" stroke="#63b8ff" d="M875.9,-345.31C968.99,-336.93 1109.68,-321.62 1230.25,-297.5 1233.15,-296.92 1236.08,-296.3 1239.05,-295.64"/>
<polygon fill="#63b8ff" stroke="#63b8ff" points="875.67,-341.81 866.02,-346.18 876.29,-348.78 875.67,-341.81"/>
</a>
</g>
</g>
<!-- Node20 -->
<g id="Node000020" class="node">
<title>Node20</title>
<g id="a_Node000020"><a xlink:href="RecorderModel_8hpp.html" target="_top" xlink:title=" ">
<polygon fill="white" stroke="#666666" points="1793,-208.5 1649.5,-208.5 1649.5,-155.5 1793,-155.5 1793,-208.5"/>
<text text-anchor="start" x="1657.5" y="-195" font-family="Helvetica,sans-Serif" font-size="10.00">/github/workspace/dev</text>
<text text-anchor="start" x="1657.5" y="-183.75" font-family="Helvetica,sans-Serif" font-size="10.00">_area/sourcecode/readoutlibs</text>
<text text-anchor="start" x="1657.5" y="-172.5" font-family="Helvetica,sans-Serif" font-size="10.00">/include/readoutlibs/models</text>
<text text-anchor="middle" x="1721.25" y="-161.25" font-family="Helvetica,sans-Serif" font-size="10.00">/RecorderModel.hpp</text>
</a>
</g>
</g>
<!-- Node1&#45;&gt;Node20 -->
<g id="edge21_Node000001_Node000020" class="edge">
<title>Node1&#45;&gt;Node20</title>
<g id="a_edge21_Node000001_Node000020"><a xlink:title=" ">
<path fill="none" stroke="#63b8ff" d="M875.63,-352.81C1002.9,-350.2 1226.1,-339.33 1412.25,-297.5 1503.65,-276.96 1604.55,-235.85 1665.4,-208.89"/>
<polygon fill="#63b8ff" stroke="#63b8ff" points="875.81,-349.3 865.88,-352.99 875.95,-356.3 875.81,-349.3"/>
</a>
</g>
</g>
<!-- Node11 -->
<g id="Node000011" class="node">
<title>Node11</title>
<g id="a_Node000011"><a xlink:href="DAPHNEListRequestHandler_8hpp.html" target="_top" xlink:title=" ">
<polygon fill="white" stroke="#666666" points="935.5,-208.5 771,-208.5 771,-155.5 935.5,-155.5 935.5,-208.5"/>
<text text-anchor="start" x="779" y="-195" font-family="Helvetica,sans-Serif" font-size="10.00">/github/workspace/dev</text>
<text text-anchor="start" x="779" y="-183.75" font-family="Helvetica,sans-Serif" font-size="10.00">_area/sourcecode/fdreadoutlibs</text>
<text text-anchor="start" x="779" y="-172.5" font-family="Helvetica,sans-Serif" font-size="10.00">/include/fdreadoutlibs/daphne</text>
<text text-anchor="middle" x="853.25" y="-161.25" font-family="Helvetica,sans-Serif" font-size="10.00">/DAPHNEListRequestHandler.hpp</text>
</a>
</g>
</g>
<!-- Node10&#45;&gt;Node11 -->
<g id="edge10_Node000010_Node000011" class="edge">
<title>Node10&#45;&gt;Node11</title>
<g id="a_edge10_Node000010_Node000011"><a xlink:title=" ">
<path fill="none" stroke="#63b8ff" d="M1227.9,-244.15C1107.47,-220.46 1072.8,-230.81 955.25,-208.5 948.88,-207.29 942.32,-205.93 935.74,-204.48"/>
<polygon fill="#63b8ff" stroke="#63b8ff" points="1227.06,-247.56 1237.56,-246.1 1228.44,-240.69 1227.06,-247.56"/>
</a>
</g>
</g>
<!-- Node14 -->
<g id="Node000014" class="node">
<title>Node14</title>
<g id="a_Node000014"><a xlink:href="DefaultSkipListRequestHandler_8hpp.html" target="_top" xlink:title=" ">
<polygon fill="white" stroke="#666666" points="1138,-208.5 964.5,-208.5 964.5,-155.5 1138,-155.5 1138,-208.5"/>
<text text-anchor="start" x="972.5" y="-195" font-family="Helvetica,sans-Serif" font-size="10.00">/github/workspace/dev</text>
<text text-anchor="start" x="972.5" y="-183.75" font-family="Helvetica,sans-Serif" font-size="10.00">_area/sourcecode/readoutlibs</text>
<text text-anchor="start" x="972.5" y="-172.5" font-family="Helvetica,sans-Serif" font-size="10.00">/include/readoutlibs/models</text>
<text text-anchor="middle" x="1051.25" y="-161.25" font-family="Helvetica,sans-Serif" font-size="10.00">/DefaultSkipListRequestHandler.hpp</text>
</a>
</g>
</g>
<!-- Node10&#45;&gt;Node14 -->
<g id="edge13_Node000010_Node000014" class="edge">
<title>Node10&#45;&gt;Node14</title>
<g id="a_edge13_Node000010_Node000014"><a xlink:title=" ">
<path fill="none" stroke="#63b8ff" d="M1229.93,-240.58C1198.01,-230.29 1162.43,-218.82 1131.48,-208.85"/>
<polygon fill="#63b8ff" stroke="#63b8ff" points="1228.57,-243.82 1239.17,-243.55 1230.72,-237.15 1228.57,-243.82"/>
</a>
</g>
</g>
<!-- Node17 -->
<g id="Node000017" class="node">
<title>Node17</title>
<g id="a_Node000017"><a xlink:href="EmptyFragmentRequestHandlerModel_8hpp.html" target="_top" xlink:title=" ">
<polygon fill="white" stroke="#666666" points="1356.88,-208.5 1155.62,-208.5 1155.62,-155.5 1356.88,-155.5 1356.88,-208.5"/>
<text text-anchor="start" x="1163.62" y="-195" font-family="Helvetica,sans-Serif" font-size="10.00">/github/workspace/dev</text>
<text text-anchor="start" x="1163.62" y="-183.75" font-family="Helvetica,sans-Serif" font-size="10.00">_area/sourcecode/readoutlibs</text>
<text text-anchor="start" x="1163.62" y="-172.5" font-family="Helvetica,sans-Serif" font-size="10.00">/include/readoutlibs/models</text>
<text text-anchor="middle" x="1256.25" y="-161.25" font-family="Helvetica,sans-Serif" font-size="10.00">/EmptyFragmentRequestHandlerModel.hpp</text>
</a>
</g>
</g>
<!-- Node10&#45;&gt;Node17 -->
<g id="edge16_Node000010_Node000017" class="edge">
<title>Node10&#45;&gt;Node17</title>
<g id="a_edge16_Node000010_Node000017"><a xlink:title=" ">
<path fill="none" stroke="#63b8ff" d="M1295.37,-235.37C1288.74,-226.49 1281.72,-217.09 1275.49,-208.75"/>
<polygon fill="#63b8ff" stroke="#63b8ff" points="1292.4,-237.24 1301.19,-243.16 1298.01,-233.05 1292.4,-237.24"/>
</a>
</g>
</g>
<!-- Node18 -->
<g id="Node000018" class="node">
<title>Node18</title>
<g id="a_Node000018"><a xlink:href="Readoutlibs_8cpp.html" target="_top" xlink:title=" ">
<polygon fill="white" stroke="#666666" points="1525,-119.5 1381.5,-119.5 1381.5,-77.75 1525,-77.75 1525,-119.5"/>
<text text-anchor="start" x="1389.5" y="-106" font-family="Helvetica,sans-Serif" font-size="10.00">/github/workspace/dev</text>
<text text-anchor="start" x="1389.5" y="-94.75" font-family="Helvetica,sans-Serif" font-size="10.00">_area/sourcecode/readoutlibs</text>
<text text-anchor="middle" x="1453.25" y="-83.5" font-family="Helvetica,sans-Serif" font-size="10.00">/src/Readoutlibs.cpp</text>
</a>
</g>
</g>
<!-- Node10&#45;&gt;Node18 -->
<g id="edge20_Node000010_Node000018" class="edge">
<title>Node10&#45;&gt;Node18</title>
<g id="a_edge20_Node000010_Node000018"><a xlink:title=" ">
<path fill="none" stroke="#63b8ff" d="M1347,-234.93C1353.31,-226.3 1360.04,-217.08 1366.25,-208.5 1383.25,-185.03 1386.23,-178.2 1404.25,-155.5 1413.88,-143.37 1425.24,-130.34 1434.61,-119.91"/>
<polygon fill="#63b8ff" stroke="#63b8ff" points="1344.33,-232.65 1341.25,-242.79 1349.98,-236.78 1344.33,-232.65"/>
</a>
</g>
</g>
<!-- Node19 -->
<g id="Node000019" class="node">
<title>Node19</title>
<g id="a_Node000019"><a xlink:href="ZeroCopyRecordingRequestHandlerModel_8hpp.html" target="_top" xlink:title=" ">
<polygon fill="white" stroke="#666666" points="1631.12,-208.5 1413.38,-208.5 1413.38,-155.5 1631.12,-155.5 1631.12,-208.5"/>
<text text-anchor="start" x="1421.38" y="-195" font-family="Helvetica,sans-Serif" font-size="10.00">/github/workspace/dev</text>
<text text-anchor="start" x="1421.38" y="-183.75" font-family="Helvetica,sans-Serif" font-size="10.00">_area/sourcecode/readoutlibs</text>
<text text-anchor="start" x="1421.38" y="-172.5" font-family="Helvetica,sans-Serif" font-size="10.00">/include/readoutlibs/models</text>
<text text-anchor="middle" x="1522.25" y="-161.25" font-family="Helvetica,sans-Serif" font-size="10.00">/ZeroCopyRecordingRequestHandlerModel.hpp</text>
</a>
</g>
</g>
<!-- Node10&#45;&gt;Node19 -->
<g id="edge18_Node000010_Node000019" class="edge">
<title>Node10&#45;&gt;Node19</title>
<g id="a_edge18_Node000010_Node000019"><a xlink:title=" ">
<path fill="none" stroke="#63b8ff" d="M1391.72,-239.5C1414.84,-229.49 1440.28,-218.48 1462.52,-208.85"/>
<polygon fill="#63b8ff" stroke="#63b8ff" points="1390.46,-236.23 1382.67,-243.41 1393.24,-242.65 1390.46,-236.23"/>
</a>
</g>
</g>
<!-- Node12 -->
<g id="Node000012" class="node">
<title>Node12</title>
<g id="a_Node000012"><a xlink:href="FDReadoutlibs_8cpp.html" target="_top" xlink:title=" ">
<polygon fill="white" stroke="#666666" points="727.12,-119.5 575.38,-119.5 575.38,-77.75 727.12,-77.75 727.12,-119.5"/>
<text text-anchor="start" x="583.38" y="-106" font-family="Helvetica,sans-Serif" font-size="10.00">/github/workspace/dev</text>
<text text-anchor="start" x="583.38" y="-94.75" font-family="Helvetica,sans-Serif" font-size="10.00">_area/sourcecode/fdreadoutlibs</text>
<text text-anchor="middle" x="651.25" y="-83.5" font-family="Helvetica,sans-Serif" font-size="10.00">/src/FDReadoutlibs.cpp</text>
</a>
</g>
</g>
<!-- Node11&#45;&gt;Node12 -->
<g id="edge11_Node000011_Node000012" class="edge">
<title>Node11&#45;&gt;Node12</title>
<g id="a_edge11_Node000011_Node000012"><a xlink:title=" ">
<path fill="none" stroke="#63b8ff" d="M778.37,-150.84C752.81,-140.54 724.86,-129.28 701.69,-119.94"/>
<polygon fill="#63b8ff" stroke="#63b8ff" points="776.79,-153.97 787.38,-154.46 779.41,-147.48 776.79,-153.97"/>
</a>
</g>
</g>
<!-- Node13 -->
<g id="Node000013" class="node">
<title>Node13</title>
<g id="a_Node000013"><a xlink:href="DAPHNEListRequestHandler_8cpp.html" target="_top" xlink:title=" ">
<polygon fill="white" stroke="#666666" points="961,-119.5 745.5,-119.5 745.5,-77.75 961,-77.75 961,-119.5"/>
<text text-anchor="start" x="753.5" y="-106" font-family="Helvetica,sans-Serif" font-size="10.00">/github/workspace/dev</text>
<text text-anchor="start" x="753.5" y="-94.75" font-family="Helvetica,sans-Serif" font-size="10.00">_area/sourcecode/fdreadoutlibs</text>
<text text-anchor="middle" x="853.25" y="-83.5" font-family="Helvetica,sans-Serif" font-size="10.00">/src/daphne/DAPHNEListRequestHandler.cpp</text>
</a>
</g>
</g>
<!-- Node11&#45;&gt;Node13 -->
<g id="edge12_Node000011_Node000013" class="edge">
<title>Node11&#45;&gt;Node13</title>
<g id="a_edge12_Node000011_Node000013"><a xlink:title=" ">
<path fill="none" stroke="#63b8ff" d="M853.25,-143.83C853.25,-135.55 853.25,-127.08 853.25,-119.79"/>
<polygon fill="#63b8ff" stroke="#63b8ff" points="849.75,-143.74 853.25,-153.74 856.75,-143.74 849.75,-143.74"/>
</a>
</g>
</g>
<!-- Node15 -->
<g id="Node000015" class="node">
<title>Node15</title>
<g id="a_Node000015"><a xlink:href="TPRequestHandler_8hpp.html" target="_top" xlink:title=" ">
<polygon fill="white" stroke="#666666" points="1145.25,-119.5 979.25,-119.5 979.25,-77.75 1145.25,-77.75 1145.25,-119.5"/>
<text text-anchor="start" x="987.25" y="-106" font-family="Helvetica,sans-Serif" font-size="10.00">/github/workspace/dev</text>
<text text-anchor="start" x="987.25" y="-94.75" font-family="Helvetica,sans-Serif" font-size="10.00">_area/sourcecode/trigger</text>
<text text-anchor="middle" x="1062.25" y="-83.5" font-family="Helvetica,sans-Serif" font-size="10.00">/src/trigger/TPRequestHandler.hpp</text>
</a>
</g>
</g>
<!-- Node14&#45;&gt;Node15 -->
<g id="edge14_Node000014_Node000015" class="edge">
<title>Node14&#45;&gt;Node15</title>
<g id="a_edge14_Node000014_Node000015"><a xlink:title=" ">
<path fill="none" stroke="#63b8ff" d="M1056.24,-144.11C1057.37,-135.74 1058.53,-127.16 1059.52,-119.79"/>
<polygon fill="#63b8ff" stroke="#63b8ff" points="1052.8,-143.37 1054.93,-153.75 1059.74,-144.31 1052.8,-143.37"/>
</a>
</g>
</g>
<!-- Node16 -->
<g id="Node000016" class="node">
<title>Node16</title>
<g id="a_Node000016"><a xlink:href="TPRequestHandler_8cpp.html" target="_top" xlink:title=" ">
<polygon fill="white" stroke="#666666" points="1130.25,-41.75 994.25,-41.75 994.25,0 1130.25,0 1130.25,-41.75"/>
<text text-anchor="start" x="1002.25" y="-28.25" font-family="Helvetica,sans-Serif" font-size="10.00">/github/workspace/dev</text>
<text text-anchor="start" x="1002.25" y="-17" font-family="Helvetica,sans-Serif" font-size="10.00">_area/sourcecode/trigger</text>
<text text-anchor="middle" x="1062.25" y="-5.75" font-family="Helvetica,sans-Serif" font-size="10.00">/src/TPRequestHandler.cpp</text>
</a>
</g>
</g>
<!-- Node15&#45;&gt;Node16 -->
<g id="edge15_Node000015_Node000016" class="edge">
<title>Node15&#45;&gt;Node16</title>
<g id="a_edge15_Node000015_Node000016"><a xlink:title=" ">
<path fill="none" stroke="#63b8ff" d="M1062.25,-66C1062.25,-57.96 1062.25,-49.54 1062.25,-42.23"/>
<polygon fill="#63b8ff" stroke="#63b8ff" points="1058.75,-65.81 1062.25,-75.81 1065.75,-65.81 1058.75,-65.81"/>
</a>
</g>
</g>
<!-- Node17&#45;&gt;Node18 -->
<g id="edge17_Node000017_Node000018" class="edge">
<title>Node17&#45;&gt;Node18</title>
<g id="a_edge17_Node000017_Node000018"><a xlink:title=" ">
<path fill="none" stroke="#63b8ff" d="M1329.61,-150.7C1354.44,-140.44 1381.56,-129.24 1404.06,-119.94"/>
<polygon fill="#63b8ff" stroke="#63b8ff" points="1328.43,-147.4 1320.52,-154.45 1331.1,-153.87 1328.43,-147.4"/>
</a>
</g>
</g>
<!-- Node19&#45;&gt;Node18 -->
<g id="edge19_Node000019_Node000018" class="edge">
<title>Node19&#45;&gt;Node18</title>
<g id="a_edge19_Node000019_Node000018"><a xlink:title=" ">
<path fill="none" stroke="#63b8ff" d="M1493.14,-146.67C1485.38,-137.51 1477.24,-127.91 1470.35,-119.79"/>
<polygon fill="#63b8ff" stroke="#63b8ff" points="1490.3,-148.73 1499.44,-154.1 1495.64,-144.21 1490.3,-148.73"/>
</a>
</g>
</g>
<!-- Node20&#45;&gt;Node18 -->
<g id="edge22_Node000020_Node000018" class="edge">
<title>Node20&#45;&gt;Node18</title>
<g id="a_edge22_Node000020_Node000018"><a xlink:title=" ">
<path fill="none" stroke="#63b8ff" d="M1638.37,-154.94C1594.6,-141.55 1554.8,-129.64 1522.15,-119.95"/>
<polygon fill="#63b8ff" stroke="#63b8ff" points="1637.24,-158.25 1647.83,-157.84 1639.3,-151.56 1637.24,-158.25"/>
</a>
</g>
</g>
</g>
</svg>
