<?xml version="1.0" encoding="UTF-8" standalone="no"?>
<!DOCTYPE svg PUBLIC "-//W3C//DTD SVG 1.1//EN"
 "http://www.w3.org/Graphics/SVG/1.1/DTD/svg11.dtd">
<!-- Generated by graphviz version 9.0.0 (20230911.1827)
 -->
<!-- Title: /github/workspace/dev_area/build/appdal/codegen/include/appdal/LatencyBuffer.hpp Pages: 1 -->
<svg width="1719pt" height="561pt"
 viewBox="0.00 0.00 1718.75 561.25" xmlns="http://www.w3.org/2000/svg" xmlns:xlink="http://www.w3.org/1999/xlink">
<g id="graph0" class="graph" transform="scale(1 1) rotate(0) translate(4 557.25)">
<title>/github/workspace/dev_area/build/appdal/codegen/include/appdal/LatencyBuffer.hpp</title>
<!-- Node1 -->
<g id="Node000001" class="node">
<title>Node1</title>
<g id="a_Node000001"><a xlink:title=" ">
<polygon fill="#999999" stroke="#666666" points="604.12,-553.25 441.88,-553.25 441.88,-511.5 604.12,-511.5 604.12,-553.25"/>
<text text-anchor="start" x="449.88" y="-539.75" font-family="Helvetica,sans-Serif" font-size="10.00">/github/workspace/dev</text>
<text text-anchor="start" x="449.88" y="-528.5" font-family="Helvetica,sans-Serif" font-size="10.00">_area/build/appdal/codegen</text>
<text text-anchor="middle" x="523" y="-517.25" font-family="Helvetica,sans-Serif" font-size="10.00">/include/appdal/LatencyBuffer.hpp</text>
</a>
</g>
</g>
<!-- Node2 -->
<g id="Node000002" class="node">
<title>Node2</title>
<g id="a_Node000002"><a xlink:href="LatencyBuffer_8cpp.html" target="_top" xlink:title=" ">
<polygon fill="white" stroke="#666666" points="266.25,-469.88 131.75,-469.88 131.75,-428.12 266.25,-428.12 266.25,-469.88"/>
<text text-anchor="start" x="139.75" y="-456.38" font-family="Helvetica,sans-Serif" font-size="10.00">/github/workspace/dev</text>
<text text-anchor="start" x="139.75" y="-445.12" font-family="Helvetica,sans-Serif" font-size="10.00">_area/build/appdal/codegen</text>
<text text-anchor="middle" x="199" y="-433.88" font-family="Helvetica,sans-Serif" font-size="10.00">/src/LatencyBuffer.cpp</text>
</a>
</g>
</g>
<!-- Node1&#45;&gt;Node2 -->
<g id="edge1_Node000001_Node000002" class="edge">
<title>Node1&#45;&gt;Node2</title>
<g id="a_edge1_Node000001_Node000002"><a xlink:title=" ">
<path fill="none" stroke="#63b8ff" d="M430.44,-512.87C383.58,-502.91 325.96,-489.75 275,-475.5 269.37,-473.93 263.54,-472.18 257.73,-470.37"/>
<polygon fill="#63b8ff" stroke="#63b8ff" points="429.51,-516.25 440.02,-514.89 430.96,-509.4 429.51,-516.25"/>
</a>
</g>
</g>
<!-- Node3 -->
<g id="Node000003" class="node">
<title>Node3</title>
<g id="a_Node000003"><a xlink:href="ReadoutModuleConf_8cpp.html" target="_top" xlink:title=" ">
<polygon fill="white" stroke="#666666" points="425.62,-469.88 284.38,-469.88 284.38,-428.12 425.62,-428.12 425.62,-469.88"/>
<text text-anchor="start" x="292.38" y="-456.38" font-family="Helvetica,sans-Serif" font-size="10.00">/github/workspace/dev</text>
<text text-anchor="start" x="292.38" y="-445.12" font-family="Helvetica,sans-Serif" font-size="10.00">_area/build/appdal/codegen</text>
<text text-anchor="middle" x="355" y="-433.88" font-family="Helvetica,sans-Serif" font-size="10.00">/src/ReadoutModuleConf.cpp</text>
</a>
</g>
</g>
<!-- Node1&#45;&gt;Node3 -->
<g id="edge2_Node000001_Node000003" class="edge">
<title>Node1&#45;&gt;Node3</title>
<g id="a_edge2_Node000001_Node000003"><a xlink:title=" ">
<path fill="none" stroke="#63b8ff" d="M470.8,-506.09C447.07,-494.59 419.37,-481.18 397.01,-470.35"/>
<polygon fill="#63b8ff" stroke="#63b8ff" points="469.15,-509.18 479.68,-510.39 472.2,-502.88 469.15,-509.18"/>
</a>
</g>
</g>
<!-- Node4 -->
<g id="Node000004" class="node">
<title>Node4</title>
<g id="a_Node000004"><a xlink:href="dump__dunedaq____appdal_8cpp.html" target="_top" xlink:title=" ">
<polygon fill="white" stroke="#666666" points="602.25,-469.88 443.75,-469.88 443.75,-428.12 602.25,-428.12 602.25,-469.88"/>
<text text-anchor="start" x="451.75" y="-456.38" font-family="Helvetica,sans-Serif" font-size="10.00">/github/workspace/dev</text>
<text text-anchor="start" x="451.75" y="-445.12" font-family="Helvetica,sans-Serif" font-size="10.00">_area/build/appdal/codegen</text>
<text text-anchor="middle" x="523" y="-433.88" font-family="Helvetica,sans-Serif" font-size="10.00">/src/dump_dunedaq__appdal.cpp</text>
</a>
</g>
</g>
<!-- Node1&#45;&gt;Node4 -->
<g id="edge3_Node000001_Node000004" class="edge">
<title>Node1&#45;&gt;Node4</title>
<g id="a_edge3_Node000001_Node000004"><a xlink:title=" ">
<path fill="none" stroke="#63b8ff" d="M523,-500.02C523,-489.99 523,-479.17 523,-470.17"/>
<polygon fill="#63b8ff" stroke="#63b8ff" points="519.5,-499.75 523,-509.75 526.5,-499.75 519.5,-499.75"/>
</a>
</g>
</g>
<!-- Node5 -->
<g id="Node000005" class="node">
<title>Node5</title>
<g id="a_Node000005"><a xlink:href="LatencyBufferConcept_8hpp.html" target="_top" xlink:title=" ">
<polygon fill="white" stroke="#666666" points="1133.75,-475.5 990.25,-475.5 990.25,-422.5 1133.75,-422.5 1133.75,-475.5"/>
<text text-anchor="start" x="998.25" y="-462" font-family="Helvetica,sans-Serif" font-size="10.00">/github/workspace/dev</text>
<text text-anchor="start" x="998.25" y="-450.75" font-family="Helvetica,sans-Serif" font-size="10.00">_area/sourcecode/readoutlibs</text>
<text text-anchor="start" x="998.25" y="-439.5" font-family="Helvetica,sans-Serif" font-size="10.00">/include/readoutlibs/concepts</text>
<text text-anchor="middle" x="1062" y="-428.25" font-family="Helvetica,sans-Serif" font-size="10.00">/LatencyBufferConcept.hpp</text>
</a>
</g>
</g>
<!-- Node1&#45;&gt;Node5 -->
<g id="edge4_Node000001_Node000005" class="edge">
<title>Node1&#45;&gt;Node5</title>
<g id="a_edge4_Node000001_Node000005"><a xlink:title=" ">
<path fill="none" stroke="#63b8ff" d="M615.91,-517.35C722.08,-501.32 893.58,-475.43 990.08,-460.86"/>
<polygon fill="#63b8ff" stroke="#63b8ff" points="615.43,-513.88 606.07,-518.83 616.48,-520.8 615.43,-513.88"/>
</a>
</g>
</g>
<!-- Node23 -->
<g id="Node000023" class="node">
<title>Node23</title>
<g id="a_Node000023"><a xlink:href="DefaultRequestHandlerModel_8hpp.html" target="_top" xlink:title=" ">
<polygon fill="white" stroke="#666666" points="612.88,-297.5 449.12,-297.5 449.12,-244.5 612.88,-244.5 612.88,-297.5"/>
<text text-anchor="start" x="457.12" y="-284" font-family="Helvetica,sans-Serif" font-size="10.00">/github/workspace/dev</text>
<text text-anchor="start" x="457.12" y="-272.75" font-family="Helvetica,sans-Serif" font-size="10.00">_area/sourcecode/readoutlibs</text>
<text text-anchor="start" x="457.12" y="-261.5" font-family="Helvetica,sans-Serif" font-size="10.00">/include/readoutlibs/models</text>
<text text-anchor="middle" x="531" y="-250.25" font-family="Helvetica,sans-Serif" font-size="10.00">/DefaultRequestHandlerModel.hpp</text>
</a>
</g>
</g>
<!-- Node1&#45;&gt;Node23 -->
<g id="edge28_Node000001_Node000023" class="edge">
<title>Node1&#45;&gt;Node23</title>
<g id="a_edge28_Node000001_Node000023"><a xlink:title=" ">
<path fill="none" stroke="#63b8ff" d="M582.96,-504.92C594.2,-497.12 604.46,-487.39 611,-475.5 644.37,-414.79 589.5,-337.22 555.25,-297.68"/>
<polygon fill="#63b8ff" stroke="#63b8ff" points="581.19,-501.89 574.63,-510.21 584.95,-507.8 581.19,-501.89"/>
</a>
</g>
</g>
<!-- Node6 -->
<g id="Node000006" class="node">
<title>Node6</title>
<g id="a_Node000006"><a xlink:href="IterableQueueModel_8hpp.html" target="_top" xlink:title=" ">
<polygon fill="white" stroke="#666666" points="1133.75,-386.5 990.25,-386.5 990.25,-333.5 1133.75,-333.5 1133.75,-386.5"/>
<text text-anchor="start" x="998.25" y="-373" font-family="Helvetica,sans-Serif" font-size="10.00">/github/workspace/dev</text>
<text text-anchor="start" x="998.25" y="-361.75" font-family="Helvetica,sans-Serif" font-size="10.00">_area/sourcecode/readoutlibs</text>
<text text-anchor="start" x="998.25" y="-350.5" font-family="Helvetica,sans-Serif" font-size="10.00">/include/readoutlibs/models</text>
<text text-anchor="middle" x="1062" y="-339.25" font-family="Helvetica,sans-Serif" font-size="10.00">/IterableQueueModel.hpp</text>
</a>
</g>
</g>
<!-- Node5&#45;&gt;Node6 -->
<g id="edge5_Node000005_Node000006" class="edge">
<title>Node5&#45;&gt;Node6</title>
<g id="a_edge5_Node000005_Node000006"><a xlink:title=" ">
<path fill="none" stroke="#63b8ff" d="M1062,-411.11C1062,-402.91 1062,-394.39 1062,-386.75"/>
<polygon fill="#63b8ff" stroke="#63b8ff" points="1058.5,-410.85 1062,-420.85 1065.5,-410.85 1058.5,-410.85"/>
</a>
</g>
</g>
<!-- Node12 -->
<g id="Node000012" class="node">
<title>Node12</title>
<g id="a_Node000012"><a xlink:href="Readoutlibs_8cpp.html" target="_top" xlink:title=" ">
<polygon fill="white" stroke="#666666" points="1226.75,-119.5 1083.25,-119.5 1083.25,-77.75 1226.75,-77.75 1226.75,-119.5"/>
<text text-anchor="start" x="1091.25" y="-106" font-family="Helvetica,sans-Serif" font-size="10.00">/github/workspace/dev</text>
<text text-anchor="start" x="1091.25" y="-94.75" font-family="Helvetica,sans-Serif" font-size="10.00">_area/sourcecode/readoutlibs</text>
<text text-anchor="middle" x="1155" y="-83.5" font-family="Helvetica,sans-Serif" font-size="10.00">/src/Readoutlibs.cpp</text>
</a>
</g>
</g>
<!-- Node5&#45;&gt;Node12 -->
<g id="edge27_Node000005_Node000012" class="edge">
<title>Node5&#45;&gt;Node12</title>
<g id="a_edge27_Node000005_Node000012"><a xlink:title=" ">
<path fill="none" stroke="#63b8ff" d="M1145.15,-432.68C1264.66,-408.77 1475.54,-358.91 1520,-297.5 1601.16,-185.4 1355.27,-130.15 1227.25,-109.52"/>
<polygon fill="#63b8ff" stroke="#63b8ff" points="1144.49,-429.24 1135.36,-434.61 1145.85,-436.1 1144.49,-429.24"/>
</a>
</g>
</g>
<!-- Node16 -->
<g id="Node000016" class="node">
<title>Node16</title>
<g id="a_Node000016"><a xlink:href="ReadoutModel_8hpp.html" target="_top" xlink:title=" ">
<polygon fill="white" stroke="#666666" points="1710.75,-386.5 1567.25,-386.5 1567.25,-333.5 1710.75,-333.5 1710.75,-386.5"/>
<text text-anchor="start" x="1575.25" y="-373" font-family="Helvetica,sans-Serif" font-size="10.00">/github/workspace/dev</text>
<text text-anchor="start" x="1575.25" y="-361.75" font-family="Helvetica,sans-Serif" font-size="10.00">_area/sourcecode/readoutlibs</text>
<text text-anchor="start" x="1575.25" y="-350.5" font-family="Helvetica,sans-Serif" font-size="10.00">/include/readoutlibs/models</text>
<text text-anchor="middle" x="1639" y="-339.25" font-family="Helvetica,sans-Serif" font-size="10.00">/ReadoutModel.hpp</text>
</a>
</g>
</g>
<!-- Node5&#45;&gt;Node16 -->
<g id="edge17_Node000005_Node000016" class="edge">
<title>Node5&#45;&gt;Node16</title>
<g id="a_edge17_Node000005_Node000016"><a xlink:title=" ">
<path fill="none" stroke="#63b8ff" d="M1145.5,-441.73C1243.76,-433.39 1411.46,-416.14 1553,-386.5 1557.57,-385.54 1562.25,-384.46 1566.96,-383.29"/>
<polygon fill="#63b8ff" stroke="#63b8ff" points="1145.35,-438.23 1135.67,-442.55 1145.93,-445.21 1145.35,-438.23"/>
</a>
</g>
</g>
<!-- Node17 -->
<g id="Node000017" class="node">
<title>Node17</title>
<g id="a_Node000017"><a xlink:href="SkipListLatencyBufferModel_8hpp.html" target="_top" xlink:title=" ">
<polygon fill="white" stroke="#666666" points="384.62,-297.5 225.38,-297.5 225.38,-244.5 384.62,-244.5 384.62,-297.5"/>
<text text-anchor="start" x="233.38" y="-284" font-family="Helvetica,sans-Serif" font-size="10.00">/github/workspace/dev</text>
<text text-anchor="start" x="233.38" y="-272.75" font-family="Helvetica,sans-Serif" font-size="10.00">_area/sourcecode/readoutlibs</text>
<text text-anchor="start" x="233.38" y="-261.5" font-family="Helvetica,sans-Serif" font-size="10.00">/include/readoutlibs/models</text>
<text text-anchor="middle" x="305" y="-250.25" font-family="Helvetica,sans-Serif" font-size="10.00">/SkipListLatencyBufferModel.hpp</text>
</a>
</g>
</g>
<!-- Node5&#45;&gt;Node17 -->
<g id="edge19_Node000005_Node000017" class="edge">
<title>Node5&#45;&gt;Node17</title>
<g id="a_edge19_Node000005_Node000017"><a xlink:title=" ">
<path fill="none" stroke="#63b8ff" d="M978.61,-428.61C831.89,-394.5 529.46,-324.19 385.1,-290.62"/>
<polygon fill="#63b8ff" stroke="#63b8ff" points="977.75,-432.01 988.28,-430.86 979.34,-425.19 977.75,-432.01"/>
</a>
</g>
</g>
<!-- Node7 -->
<g id="Node000007" class="node">
<title>Node7</title>
<g id="a_Node000007"><a xlink:href="SSPFrameProcessor_8hpp.html" target="_top" xlink:title=" ">
<polygon fill="white" stroke="#666666" points="1064.88,-208.5 913.12,-208.5 913.12,-155.5 1064.88,-155.5 1064.88,-208.5"/>
<text text-anchor="start" x="921.12" y="-195" font-family="Helvetica,sans-Serif" font-size="10.00">/github/workspace/dev</text>
<text text-anchor="start" x="921.12" y="-183.75" font-family="Helvetica,sans-Serif" font-size="10.00">_area/sourcecode/fdreadoutlibs</text>
<text text-anchor="start" x="921.12" y="-172.5" font-family="Helvetica,sans-Serif" font-size="10.00">/include/fdreadoutlibs/ssp</text>
<text text-anchor="middle" x="989" y="-161.25" font-family="Helvetica,sans-Serif" font-size="10.00">/SSPFrameProcessor.hpp</text>
</a>
</g>
</g>
<!-- Node6&#45;&gt;Node7 -->
<g id="edge6_Node000006_Node000007" class="edge">
<title>Node6&#45;&gt;Node7</title>
<g id="a_edge6_Node000006_Node000007"><a xlink:title=" ">
<path fill="none" stroke="#63b8ff" d="M979.02,-346.89C868.94,-330.64 687.8,-303.14 683,-297.5 667.74,-279.56 667.74,-262.45 683,-244.5 715.23,-206.59 855.51,-219.67 904,-208.5 906.85,-207.84 909.75,-207.14 912.67,-206.41"/>
<polygon fill="#63b8ff" stroke="#63b8ff" points="978.2,-350.31 988.61,-348.31 979.22,-343.39 978.2,-350.31"/>
</a>
</g>
</g>
<!-- Node9 -->
<g id="Node000009" class="node">
<title>Node9</title>
<g id="a_Node000009"><a xlink:href="WIBEthFrameProcessor_8cpp.html" target="_top" xlink:title=" ">
<polygon fill="white" stroke="#666666" points="1511,-291.88 1321,-291.88 1321,-250.12 1511,-250.12 1511,-291.88"/>
<text text-anchor="start" x="1329" y="-278.38" font-family="Helvetica,sans-Serif" font-size="10.00">/github/workspace/dev</text>
<text text-anchor="start" x="1329" y="-267.12" font-family="Helvetica,sans-Serif" font-size="10.00">_area/sourcecode/fdreadoutlibs</text>
<text text-anchor="middle" x="1416" y="-255.88" font-family="Helvetica,sans-Serif" font-size="10.00">/src/wibeth/WIBEthFrameProcessor.cpp</text>
</a>
</g>
</g>
<!-- Node6&#45;&gt;Node9 -->
<g id="edge8_Node000006_Node000009" class="edge">
<title>Node6&#45;&gt;Node9</title>
<g id="a_edge8_Node000006_Node000009"><a xlink:title=" ">
<path fill="none" stroke="#63b8ff" d="M1145.15,-338.57C1201.83,-324.64 1276.57,-306.27 1333.18,-292.36"/>
<polygon fill="#63b8ff" stroke="#63b8ff" points="1144.41,-335.14 1135.53,-340.93 1146.08,-341.94 1144.41,-335.14"/>
</a>
</g>
</g>
<!-- Node10 -->
<g id="Node000010" class="node">
<title>Node10</title>
<g id="a_Node000010"><a xlink:href="BinarySearchQueueModel_8hpp.html" target="_top" xlink:title=" ">
<polygon fill="white" stroke="#666666" points="841.75,-297.5 692.25,-297.5 692.25,-244.5 841.75,-244.5 841.75,-297.5"/>
<text text-anchor="start" x="700.25" y="-284" font-family="Helvetica,sans-Serif" font-size="10.00">/github/workspace/dev</text>
<text text-anchor="start" x="700.25" y="-272.75" font-family="Helvetica,sans-Serif" font-size="10.00">_area/sourcecode/readoutlibs</text>
<text text-anchor="start" x="700.25" y="-261.5" font-family="Helvetica,sans-Serif" font-size="10.00">/include/readoutlibs/models</text>
<text text-anchor="middle" x="767" y="-250.25" font-family="Helvetica,sans-Serif" font-size="10.00">/BinarySearchQueueModel.hpp</text>
</a>
</g>
</g>
<!-- Node6&#45;&gt;Node10 -->
<g id="edge9_Node000006_Node000010" class="edge">
<title>Node6&#45;&gt;Node10</title>
<g id="a_edge9_Node000006_Node000010"><a xlink:title=" ">
<path fill="none" stroke="#63b8ff" d="M978.98,-335.24C939.81,-323.95 892.46,-310.18 850,-297.5 847.4,-296.72 844.76,-295.93 842.09,-295.13"/>
<polygon fill="#63b8ff" stroke="#63b8ff" points="977.76,-338.54 988.34,-337.94 979.7,-331.81 977.76,-338.54"/>
</a>
</g>
</g>
<!-- Node6&#45;&gt;Node12 -->
<g id="edge13_Node000006_Node000012" class="edge">
<title>Node6&#45;&gt;Node12</title>
<g id="a_edge13_Node000006_Node000012"><a xlink:title=" ">
<path fill="none" stroke="#63b8ff" d="M1145.02,-345.41C1197.4,-334.96 1258.07,-318.7 1274,-297.5 1293.53,-271.5 1258.28,-159.95 1255,-155.5 1243.72,-140.22 1226.94,-128.56 1210.33,-119.95"/>
<polygon fill="#63b8ff" stroke="#63b8ff" points="1144.62,-341.93 1135.47,-347.27 1145.96,-348.8 1144.62,-341.93"/>
</a>
</g>
</g>
<!-- Node13 -->
<g id="Node000013" class="node">
<title>Node13</title>
<g id="a_Node000013"><a xlink:href="TAProcessor_8cpp.html" target="_top" xlink:title=" ">
<polygon fill="white" stroke="#666666" points="982.62,-291.88 859.38,-291.88 859.38,-250.12 982.62,-250.12 982.62,-291.88"/>
<text text-anchor="start" x="867.38" y="-278.38" font-family="Helvetica,sans-Serif" font-size="10.00">/github/workspace/dev</text>
<text text-anchor="start" x="867.38" y="-267.12" font-family="Helvetica,sans-Serif" font-size="10.00">_area/sourcecode/trigger</text>
<text text-anchor="middle" x="921" y="-255.88" font-family="Helvetica,sans-Serif" font-size="10.00">/src/TAProcessor.cpp</text>
</a>
</g>
</g>
<!-- Node6&#45;&gt;Node13 -->
<g id="edge14_Node000006_Node000013" class="edge">
<title>Node6&#45;&gt;Node13</title>
<g id="a_edge14_Node000006_Node000013"><a xlink:title=" ">
<path fill="none" stroke="#63b8ff" d="M1010.36,-327.14C991.38,-315.43 970.43,-302.5 953.58,-292.11"/>
<polygon fill="#63b8ff" stroke="#63b8ff" points="1008.44,-330.07 1018.79,-332.34 1012.12,-324.11 1008.44,-330.07"/>
</a>
</g>
</g>
<!-- Node14 -->
<g id="Node000014" class="node">
<title>Node14</title>
<g id="a_Node000014"><a xlink:href="TCProcessor_8cpp.html" target="_top" xlink:title=" ">
<polygon fill="white" stroke="#666666" points="1123.62,-291.88 1000.38,-291.88 1000.38,-250.12 1123.62,-250.12 1123.62,-291.88"/>
<text text-anchor="start" x="1008.38" y="-278.38" font-family="Helvetica,sans-Serif" font-size="10.00">/github/workspace/dev</text>
<text text-anchor="start" x="1008.38" y="-267.12" font-family="Helvetica,sans-Serif" font-size="10.00">_area/sourcecode/trigger</text>
<text text-anchor="middle" x="1062" y="-255.88" font-family="Helvetica,sans-Serif" font-size="10.00">/src/TCProcessor.cpp</text>
</a>
</g>
</g>
<!-- Node6&#45;&gt;Node14 -->
<g id="edge15_Node000006_Node000014" class="edge">
<title>Node6&#45;&gt;Node14</title>
<g id="a_edge15_Node000006_Node000014"><a xlink:title=" ">
<path fill="none" stroke="#63b8ff" d="M1062,-322.13C1062,-311.88 1062,-301.12 1062,-292.21"/>
<polygon fill="#63b8ff" stroke="#63b8ff" points="1058.5,-321.85 1062,-331.85 1065.5,-321.85 1058.5,-321.85"/>
</a>
</g>
</g>
<!-- Node15 -->
<g id="Node000015" class="node">
<title>Node15</title>
<g id="a_Node000015"><a xlink:href="TPProcessor_8cpp.html" target="_top" xlink:title=" ">
<polygon fill="white" stroke="#666666" points="1264.62,-291.88 1141.38,-291.88 1141.38,-250.12 1264.62,-250.12 1264.62,-291.88"/>
<text text-anchor="start" x="1149.38" y="-278.38" font-family="Helvetica,sans-Serif" font-size="10.00">/github/workspace/dev</text>
<text text-anchor="start" x="1149.38" y="-267.12" font-family="Helvetica,sans-Serif" font-size="10.00">_area/sourcecode/trigger</text>
<text text-anchor="middle" x="1203" y="-255.88" font-family="Helvetica,sans-Serif" font-size="10.00">/src/TPProcessor.cpp</text>
</a>
</g>
</g>
<!-- Node6&#45;&gt;Node15 -->
<g id="edge16_Node000006_Node000015" class="edge">
<title>Node6&#45;&gt;Node15</title>
<g id="a_edge16_Node000006_Node000015"><a xlink:title=" ">
<path fill="none" stroke="#63b8ff" d="M1113.64,-327.14C1132.62,-315.43 1153.57,-302.5 1170.42,-292.11"/>
<polygon fill="#63b8ff" stroke="#63b8ff" points="1111.88,-324.11 1105.21,-332.34 1115.56,-330.07 1111.88,-324.11"/>
</a>
</g>
</g>
<!-- Node8 -->
<g id="Node000008" class="node">
<title>Node8</title>
<g id="a_Node000008"><a xlink:href="FDReadoutlibs_8cpp.html" target="_top" xlink:title=" ">
<polygon fill="white" stroke="#666666" points="817.88,-119.5 666.12,-119.5 666.12,-77.75 817.88,-77.75 817.88,-119.5"/>
<text text-anchor="start" x="674.12" y="-106" font-family="Helvetica,sans-Serif" font-size="10.00">/github/workspace/dev</text>
<text text-anchor="start" x="674.12" y="-94.75" font-family="Helvetica,sans-Serif" font-size="10.00">_area/sourcecode/fdreadoutlibs</text>
<text text-anchor="middle" x="742" y="-83.5" font-family="Helvetica,sans-Serif" font-size="10.00">/src/FDReadoutlibs.cpp</text>
</a>
</g>
</g>
<!-- Node7&#45;&gt;Node8 -->
<g id="edge7_Node000007_Node000008" class="edge">
<title>Node7&#45;&gt;Node8</title>
<g id="a_edge7_Node000007_Node000008"><a xlink:title=" ">
<path fill="none" stroke="#63b8ff" d="M902.04,-152.35C869.62,-141.67 833.51,-129.77 803.8,-119.99"/>
<polygon fill="#63b8ff" stroke="#63b8ff" points="900.85,-155.64 911.44,-155.45 903.04,-148.99 900.85,-155.64"/>
</a>
</g>
</g>
<!-- Node11 -->
<g id="Node000011" class="node">
<title>Node11</title>
<g id="a_Node000011"><a xlink:href="FixedRateQueueModel_8hpp.html" target="_top" xlink:title=" ">
<polygon fill="white" stroke="#666666" points="1226.75,-208.5 1083.25,-208.5 1083.25,-155.5 1226.75,-155.5 1226.75,-208.5"/>
<text text-anchor="start" x="1091.25" y="-195" font-family="Helvetica,sans-Serif" font-size="10.00">/github/workspace/dev</text>
<text text-anchor="start" x="1091.25" y="-183.75" font-family="Helvetica,sans-Serif" font-size="10.00">_area/sourcecode/readoutlibs</text>
<text text-anchor="start" x="1091.25" y="-172.5" font-family="Helvetica,sans-Serif" font-size="10.00">/include/readoutlibs/models</text>
<text text-anchor="middle" x="1155" y="-161.25" font-family="Helvetica,sans-Serif" font-size="10.00">/FixedRateQueueModel.hpp</text>
</a>
</g>
</g>
<!-- Node10&#45;&gt;Node11 -->
<g id="edge10_Node000010_Node000011" class="edge">
<title>Node10&#45;&gt;Node11</title>
<g id="a_edge10_Node000010_Node000011"><a xlink:title=" ">
<path fill="none" stroke="#63b8ff" d="M853.19,-243.9C950.3,-222.32 979.42,-230.86 1074,-208.5 1077.01,-207.79 1080.08,-207.02 1083.16,-206.21"/>
<polygon fill="#63b8ff" stroke="#63b8ff" points="852.42,-240.48 843.45,-246.12 853.98,-247.31 852.42,-240.48"/>
</a>
</g>
</g>
<!-- Node10&#45;&gt;Node12 -->
<g id="edge12_Node000010_Node000012" class="edge">
<title>Node10&#45;&gt;Node12</title>
<g id="a_edge12_Node000010_Node000012"><a xlink:title=" ">
<path fill="none" stroke="#63b8ff" d="M853.14,-244.38C952.79,-230.99 1180.19,-269.76 1236,-208.5 1251.86,-191.09 1246.95,-176.36 1236,-155.5 1228.14,-140.53 1214.24,-128.78 1200.16,-120"/>
<polygon fill="#63b8ff" stroke="#63b8ff" points="852.72,-240.9 843.42,-245.98 853.85,-247.81 852.72,-240.9"/>
</a>
</g>
</g>
<!-- Node11&#45;&gt;Node12 -->
<g id="edge11_Node000011_Node000012" class="edge">
<title>Node11&#45;&gt;Node12</title>
<g id="a_edge11_Node000011_Node000012"><a xlink:title=" ">
<path fill="none" stroke="#63b8ff" d="M1155,-143.83C1155,-135.55 1155,-127.08 1155,-119.79"/>
<polygon fill="#63b8ff" stroke="#63b8ff" points="1151.5,-143.74 1155,-153.74 1158.5,-143.74 1151.5,-143.74"/>
</a>
</g>
</g>
<!-- Node16&#45;&gt;Node12 -->
<g id="edge18_Node000016_Node000012" class="edge">
<title>Node16&#45;&gt;Node12</title>
<g id="a_edge18_Node000016_Node000012"><a xlink:title=" ">
<path fill="none" stroke="#63b8ff" d="M1634.44,-322.07C1626.58,-275.36 1605.85,-196.11 1553,-155.5 1503.35,-117.34 1327.65,-105.22 1227.08,-101.39"/>
<polygon fill="#63b8ff" stroke="#63b8ff" points="1630.94,-322.37 1635.94,-331.71 1637.86,-321.29 1630.94,-322.37"/>
</a>
</g>
</g>
<!-- Node17&#45;&gt;Node12 -->
<g id="edge26_Node000017_Node000012" class="edge">
<title>Node17&#45;&gt;Node12</title>
<g id="a_edge26_Node000017_Node000012"><a xlink:title=" ">
<path fill="none" stroke="#63b8ff" d="M341.56,-236.79C378.39,-203.4 430.19,-156.7 433,-155.5 462.57,-142.87 906.16,-114.73 1083.01,-103.95"/>
<polygon fill="#63b8ff" stroke="#63b8ff" points="339.67,-233.78 334.61,-243.09 344.37,-238.96 339.67,-233.78"/>
</a>
</g>
</g>
<!-- Node18 -->
<g id="Node000018" class="node">
<title>Node18</title>
<g id="a_Node000018"><a xlink:href="DAPHNEListRequestHandler_8hpp.html" target="_top" xlink:title=" ">
<polygon fill="white" stroke="#666666" points="363.25,-208.5 198.75,-208.5 198.75,-155.5 363.25,-155.5 363.25,-208.5"/>
<text text-anchor="start" x="206.75" y="-195" font-family="Helvetica,sans-Serif" font-size="10.00">/github/workspace/dev</text>
<text text-anchor="start" x="206.75" y="-183.75" font-family="Helvetica,sans-Serif" font-size="10.00">_area/sourcecode/fdreadoutlibs</text>
<text text-anchor="start" x="206.75" y="-172.5" font-family="Helvetica,sans-Serif" font-size="10.00">/include/fdreadoutlibs/daphne</text>
<text text-anchor="middle" x="281" y="-161.25" font-family="Helvetica,sans-Serif" font-size="10.00">/DAPHNEListRequestHandler.hpp</text>
</a>
</g>
</g>
<!-- Node17&#45;&gt;Node18 -->
<g id="edge20_Node000017_Node000018" class="edge">
<title>Node17&#45;&gt;Node18</title>
<g id="a_edge20_Node000017_Node000018"><a xlink:title=" ">
<path fill="none" stroke="#63b8ff" d="M294.9,-233.4C292.62,-225.11 290.24,-216.48 288.1,-208.75"/>
<polygon fill="#63b8ff" stroke="#63b8ff" points="291.49,-234.2 297.53,-242.91 298.24,-232.34 291.49,-234.2"/>
</a>
</g>
</g>
<!-- Node20 -->
<g id="Node000020" class="node">
<title>Node20</title>
<g id="a_Node000020"><a xlink:href="DefaultSkipListRequestHandler_8hpp.html" target="_top" xlink:title=" ">
<polygon fill="white" stroke="#666666" points="180.75,-208.5 7.25,-208.5 7.25,-155.5 180.75,-155.5 180.75,-208.5"/>
<text text-anchor="start" x="15.25" y="-195" font-family="Helvetica,sans-Serif" font-size="10.00">/github/workspace/dev</text>
<text text-anchor="start" x="15.25" y="-183.75" font-family="Helvetica,sans-Serif" font-size="10.00">_area/sourcecode/readoutlibs</text>
<text text-anchor="start" x="15.25" y="-172.5" font-family="Helvetica,sans-Serif" font-size="10.00">/include/readoutlibs/models</text>
<text text-anchor="middle" x="94" y="-161.25" font-family="Helvetica,sans-Serif" font-size="10.00">/DefaultSkipListRequestHandler.hpp</text>
</a>
</g>
</g>
<!-- Node17&#45;&gt;Node20 -->
<g id="edge23_Node000017_Node000020" class="edge">
<title>Node17&#45;&gt;Node20</title>
<g id="a_edge23_Node000017_Node000020"><a xlink:title=" ">
<path fill="none" stroke="#63b8ff" d="M231.35,-239.63C207,-229.59 180.15,-218.52 156.7,-208.85"/>
<polygon fill="#63b8ff" stroke="#63b8ff" points="230,-242.86 240.58,-243.44 232.67,-236.39 230,-242.86"/>
</a>
</g>
</g>
<!-- Node18&#45;&gt;Node8 -->
<g id="edge21_Node000018_Node000008" class="edge">
<title>Node18&#45;&gt;Node8</title>
<g id="a_edge21_Node000018_Node000008"><a xlink:title=" ">
<path fill="none" stroke="#63b8ff" d="M374.52,-156.02C375.35,-155.85 376.18,-155.67 377,-155.5 475.99,-134.84 591.58,-118.42 665.72,-108.87"/>
<polygon fill="#63b8ff" stroke="#63b8ff" points="374.08,-152.54 365.08,-158.13 375.6,-159.37 374.08,-152.54"/>
</a>
</g>
</g>
<!-- Node19 -->
<g id="Node000019" class="node">
<title>Node19</title>
<g id="a_Node000019"><a xlink:href="DAPHNEListRequestHandler_8cpp.html" target="_top" xlink:title=" ">
<polygon fill="white" stroke="#666666" points="399.75,-119.5 184.25,-119.5 184.25,-77.75 399.75,-77.75 399.75,-119.5"/>
<text text-anchor="start" x="192.25" y="-106" font-family="Helvetica,sans-Serif" font-size="10.00">/github/workspace/dev</text>
<text text-anchor="start" x="192.25" y="-94.75" font-family="Helvetica,sans-Serif" font-size="10.00">_area/sourcecode/fdreadoutlibs</text>
<text text-anchor="middle" x="292" y="-83.5" font-family="Helvetica,sans-Serif" font-size="10.00">/src/daphne/DAPHNEListRequestHandler.cpp</text>
</a>
</g>
</g>
<!-- Node18&#45;&gt;Node19 -->
<g id="edge22_Node000018_Node000019" class="edge">
<title>Node18&#45;&gt;Node19</title>
<g id="a_edge22_Node000018_Node000019"><a xlink:title=" ">
<path fill="none" stroke="#63b8ff" d="M285.99,-144.11C287.12,-135.74 288.28,-127.16 289.27,-119.79"/>
<polygon fill="#63b8ff" stroke="#63b8ff" points="282.55,-143.37 284.68,-153.75 289.49,-144.31 282.55,-143.37"/>
</a>
</g>
</g>
<!-- Node21 -->
<g id="Node000021" class="node">
<title>Node21</title>
<g id="a_Node000021"><a xlink:href="TPRequestHandler_8hpp.html" target="_top" xlink:title=" ">
<polygon fill="white" stroke="#666666" points="166,-119.5 0,-119.5 0,-77.75 166,-77.75 166,-119.5"/>
<text text-anchor="start" x="8" y="-106" font-family="Helvetica,sans-Serif" font-size="10.00">/github/workspace/dev</text>
<text text-anchor="start" x="8" y="-94.75" font-family="Helvetica,sans-Serif" font-size="10.00">_area/sourcecode/trigger</text>
<text text-anchor="middle" x="83" y="-83.5" font-family="Helvetica,sans-Serif" font-size="10.00">/src/trigger/TPRequestHandler.hpp</text>
</a>
</g>
</g>
<!-- Node20&#45;&gt;Node21 -->
<g id="edge24_Node000020_Node000021" class="edge">
<title>Node20&#45;&gt;Node21</title>
<g id="a_edge24_Node000020_Node000021"><a xlink:title=" ">
<path fill="none" stroke="#63b8ff" d="M89.01,-144.11C87.88,-135.74 86.72,-127.16 85.73,-119.79"/>
<polygon fill="#63b8ff" stroke="#63b8ff" points="85.51,-144.31 90.32,-153.75 92.45,-143.37 85.51,-144.31"/>
</a>
</g>
</g>
<!-- Node22 -->
<g id="Node000022" class="node">
<title>Node22</title>
<g id="a_Node000022"><a xlink:href="TPRequestHandler_8cpp.html" target="_top" xlink:title=" ">
<polygon fill="white" stroke="#666666" points="151,-41.75 15,-41.75 15,0 151,0 151,-41.75"/>
<text text-anchor="start" x="23" y="-28.25" font-family="Helvetica,sans-Serif" font-size="10.00">/github/workspace/dev</text>
<text text-anchor="start" x="23" y="-17" font-family="Helvetica,sans-Serif" font-size="10.00">_area/sourcecode/trigger</text>
<text text-anchor="middle" x="83" y="-5.75" font-family="Helvetica,sans-Serif" font-size="10.00">/src/TPRequestHandler.cpp</text>
</a>
</g>
</g>
<!-- Node21&#45;&gt;Node22 -->
<g id="edge25_Node000021_Node000022" class="edge">
<title>Node21&#45;&gt;Node22</title>
<g id="a_edge25_Node000021_Node000022"><a xlink:title=" ">
<path fill="none" stroke="#63b8ff" d="M83,-66C83,-57.96 83,-49.54 83,-42.23"/>
<polygon fill="#63b8ff" stroke="#63b8ff" points="79.5,-65.81 83,-75.81 86.5,-65.81 79.5,-65.81"/>
</a>
</g>
</g>
<!-- Node23&#45;&gt;Node12 -->
<g id="edge35_Node000023_Node000012" class="edge">
<title>Node23&#45;&gt;Node12</title>
<g id="a_edge35_Node000023_Node000012"><a xlink:title=" ">
<path fill="none" stroke="#63b8ff" d="M471.71,-237.15C462.14,-229.09 453.56,-219.54 448,-208.5 437.4,-187.46 432.01,-172.8 448,-155.5 458.7,-143.92 905.09,-115.09 1082.95,-104.03"/>
<polygon fill="#63b8ff" stroke="#63b8ff" points="469.48,-239.85 479.52,-243.22 473.77,-234.32 469.48,-239.85"/>
</a>
</g>
</g>
<!-- Node23&#45;&gt;Node18 -->
<g id="edge29_Node000023_Node000018" class="edge">
<title>Node23&#45;&gt;Node18</title>
<g id="a_edge29_Node000023_Node000018"><a xlink:title=" ">
<path fill="none" stroke="#63b8ff" d="M445.67,-240.31C416.31,-230.09 383.7,-218.74 355.29,-208.85"/>
<polygon fill="#63b8ff" stroke="#63b8ff" points="444.31,-243.54 454.9,-243.52 446.61,-236.93 444.31,-243.54"/>
</a>
</g>
</g>
<!-- Node23&#45;&gt;Node20 -->
<g id="edge30_Node000023_Node000020" class="edge">
<title>Node23&#45;&gt;Node20</title>
<g id="a_edge30_Node000023_Node000020"><a xlink:title=" ">
<path fill="none" stroke="#63b8ff" d="M437.7,-252.51C423.08,-249.81 408.13,-247.06 394,-244.5 303.41,-228.08 279.91,-228.34 190,-208.5 187.05,-207.85 184.06,-207.17 181.04,-206.47"/>
<polygon fill="#63b8ff" stroke="#63b8ff" points="436.84,-255.91 447.31,-254.29 438.12,-249.03 436.84,-255.91"/>
</a>
</g>
</g>
<!-- Node24 -->
<g id="Node000024" class="node">
<title>Node24</title>
<g id="a_Node000024"><a xlink:href="EmptyFragmentRequestHandlerModel_8hpp.html" target="_top" xlink:title=" ">
<polygon fill="white" stroke="#666666" points="658.62,-208.5 457.38,-208.5 457.38,-155.5 658.62,-155.5 658.62,-208.5"/>
<text text-anchor="start" x="465.38" y="-195" font-family="Helvetica,sans-Serif" font-size="10.00">/github/workspace/dev</text>
<text text-anchor="start" x="465.38" y="-183.75" font-family="Helvetica,sans-Serif" font-size="10.00">_area/sourcecode/readoutlibs</text>
<text text-anchor="start" x="465.38" y="-172.5" font-family="Helvetica,sans-Serif" font-size="10.00">/include/readoutlibs/models</text>
<text text-anchor="middle" x="558" y="-161.25" font-family="Helvetica,sans-Serif" font-size="10.00">/EmptyFragmentRequestHandlerModel.hpp</text>
</a>
</g>
</g>
<!-- Node23&#45;&gt;Node24 -->
<g id="edge31_Node000023_Node000024" class="edge">
<title>Node23&#45;&gt;Node24</title>
<g id="a_edge31_Node000023_Node000024"><a xlink:title=" ">
<path fill="none" stroke="#63b8ff" d="M542.36,-233.4C544.93,-225.11 547.61,-216.48 550.01,-208.75"/>
<polygon fill="#63b8ff" stroke="#63b8ff" points="539.02,-232.33 539.4,-242.92 545.71,-234.41 539.02,-232.33"/>
</a>
</g>
</g>
<!-- Node25 -->
<g id="Node000025" class="node">
<title>Node25</title>
<g id="a_Node000025"><a xlink:href="ZeroCopyRecordingRequestHandlerModel_8hpp.html" target="_top" xlink:title=" ">
<polygon fill="white" stroke="#666666" points="894.88,-208.5 677.12,-208.5 677.12,-155.5 894.88,-155.5 894.88,-208.5"/>
<text text-anchor="start" x="685.12" y="-195" font-family="Helvetica,sans-Serif" font-size="10.00">/github/workspace/dev</text>
<text text-anchor="start" x="685.12" y="-183.75" font-family="Helvetica,sans-Serif" font-size="10.00">_area/sourcecode/readoutlibs</text>
<text text-anchor="start" x="685.12" y="-172.5" font-family="Helvetica,sans-Serif" font-size="10.00">/include/readoutlibs/models</text>
<text text-anchor="middle" x="786" y="-161.25" font-family="Helvetica,sans-Serif" font-size="10.00">/ZeroCopyRecordingRequestHandlerModel.hpp</text>
</a>
</g>
</g>
<!-- Node23&#45;&gt;Node25 -->
<g id="edge33_Node000023_Node000025" class="edge">
<title>Node23&#45;&gt;Node25</title>
<g id="a_edge33_Node000023_Node000025"><a xlink:title=" ">
<path fill="none" stroke="#63b8ff" d="M618.03,-240.31C647.98,-230.09 681.25,-218.74 710.23,-208.85"/>
<polygon fill="#63b8ff" stroke="#63b8ff" points="616.93,-236.98 608.6,-243.53 619.19,-243.61 616.93,-236.98"/>
</a>
</g>
</g>
<!-- Node24&#45;&gt;Node12 -->
<g id="edge32_Node000024_Node000012" class="edge">
<title>Node24&#45;&gt;Node12</title>
<g id="a_edge32_Node000024_Node000012"><a xlink:title=" ">
<path fill="none" stroke="#63b8ff" d="M669.87,-155.26C822.41,-129.45 989.69,-113.26 1082.85,-105.32"/>
<polygon fill="#63b8ff" stroke="#63b8ff" points="669.67,-151.75 660.4,-156.88 670.85,-158.65 669.67,-151.75"/>
</a>
</g>
</g>
<!-- Node25&#45;&gt;Node12 -->
<g id="edge34_Node000025_Node000012" class="edge">
<title>Node25&#45;&gt;Node12</title>
<g id="a_edge34_Node000025_Node000012"><a xlink:title=" ">
<path fill="none" stroke="#63b8ff" d="M906.35,-154.46C964.62,-141.61 1032.65,-126.61 1082.8,-115.55"/>
<polygon fill="#63b8ff" stroke="#63b8ff" points="905.7,-151.02 896.69,-156.59 907.21,-157.85 905.7,-151.02"/>
</a>
</g>
</g>
</g>
</svg>
