<?xml version="1.0" encoding="UTF-8" standalone="no"?>
<!DOCTYPE svg PUBLIC "-//W3C//DTD SVG 1.1//EN"
 "http://www.w3.org/Graphics/SVG/1.1/DTD/svg11.dtd">
<!-- Generated by graphviz version 9.0.0 (20230911.1827)
 -->
<!-- Title: /github/workspace/dev_area/build/coredal/codegen/include/coredal/VariableBase.hpp Pages: 1 -->
<svg width="1209pt" height="205pt"
 viewBox="0.00 0.00 1208.50 205.25" xmlns="http://www.w3.org/2000/svg" xmlns:xlink="http://www.w3.org/1999/xlink">
<g id="graph0" class="graph" transform="scale(1 1) rotate(0) translate(4 201.25)">
<title>/github/workspace/dev_area/build/coredal/codegen/include/coredal/VariableBase.hpp</title>
<!-- Node1 -->
<g id="Node000001" class="node">
<title>Node1</title>
<g id="a_Node000001"><a xlink:title=" ">
<polygon fill="#999999" stroke="#666666" points="667.25,-197.25 504.25,-197.25 504.25,-155.5 667.25,-155.5 667.25,-197.25"/>
<text text-anchor="start" x="512.25" y="-183.75" font-family="Helvetica,sans-Serif" font-size="10.00">/github/workspace/dev</text>
<text text-anchor="start" x="512.25" y="-172.5" font-family="Helvetica,sans-Serif" font-size="10.00">_area/build/coredal/codegen</text>
<text text-anchor="middle" x="585.75" y="-161.25" font-family="Helvetica,sans-Serif" font-size="10.00">/include/coredal/VariableBase.hpp</text>
</a>
</g>
</g>
<!-- Node2 -->
<g id="Node000002" class="node">
<title>Node2</title>
<g id="a_Node000002"><a xlink:href="include_2coredal_2Variable_8hpp.html" target="_top" xlink:title=" ">
<polygon fill="white" stroke="#666666" points="209,-119.5 68.5,-119.5 68.5,-77.75 209,-77.75 209,-119.5"/>
<text text-anchor="start" x="76.5" y="-106" font-family="Helvetica,sans-Serif" font-size="10.00">/github/workspace/dev</text>
<text text-anchor="start" x="76.5" y="-94.75" font-family="Helvetica,sans-Serif" font-size="10.00">_area/build/coredal/codegen</text>
<text text-anchor="middle" x="138.75" y="-83.5" font-family="Helvetica,sans-Serif" font-size="10.00">/include/coredal/Variable.hpp</text>
</a>
</g>
</g>
<!-- Node1&#45;&gt;Node2 -->
<g id="edge1_Node000001_Node000002" class="edge">
<title>Node1&#45;&gt;Node2</title>
<g id="a_edge1_Node000001_Node000002"><a xlink:title=" ">
<path fill="none" stroke="#63b8ff" d="M492.9,-163.16C419.35,-152.98 314.13,-137.31 222.75,-119.5 218.34,-118.64 213.81,-117.71 209.24,-116.73"/>
<polygon fill="#63b8ff" stroke="#63b8ff" points="492.09,-166.58 502.47,-164.48 493.04,-159.65 492.09,-166.58"/>
</a>
</g>
</g>
<!-- Node4 -->
<g id="Node000004" class="node">
<title>Node4</title>
<g id="a_Node000004"><a xlink:href="dump__dunedaq____coredal_8cpp.html" target="_top" xlink:title=" ">
<polygon fill="white" stroke="#666666" points="317.5,-41.75 156,-41.75 156,0 317.5,0 317.5,-41.75"/>
<text text-anchor="start" x="164" y="-28.25" font-family="Helvetica,sans-Serif" font-size="10.00">/github/workspace/dev</text>
<text text-anchor="start" x="164" y="-17" font-family="Helvetica,sans-Serif" font-size="10.00">_area/build/coredal/codegen</text>
<text text-anchor="middle" x="236.75" y="-5.75" font-family="Helvetica,sans-Serif" font-size="10.00">/src/dump_dunedaq__coredal.cpp</text>
</a>
</g>
</g>
<!-- Node1&#45;&gt;Node4 -->
<g id="edge12_Node000001_Node000004" class="edge">
<title>Node1&#45;&gt;Node4</title>
<g id="a_edge12_Node000001_Node000004"><a xlink:title=" ">
<path fill="none" stroke="#63b8ff" d="M492.77,-171.22C407.19,-165.4 288.69,-151.64 255.75,-119.5 235.24,-99.48 233.34,-64.38 234.54,-42.17"/>
<polygon fill="#63b8ff" stroke="#63b8ff" points="492.37,-174.7 502.58,-171.86 492.83,-167.71 492.37,-174.7"/>
</a>
</g>
</g>
<!-- Node5 -->
<g id="Node000005" class="node">
<title>Node5</title>
<g id="a_Node000005"><a xlink:href="include_2coredal_2VariableSet_8hpp.html" target="_top" xlink:title=" ">
<polygon fill="white" stroke="#666666" points="420.5,-119.5 265,-119.5 265,-77.75 420.5,-77.75 420.5,-119.5"/>
<text text-anchor="start" x="273" y="-106" font-family="Helvetica,sans-Serif" font-size="10.00">/github/workspace/dev</text>
<text text-anchor="start" x="273" y="-94.75" font-family="Helvetica,sans-Serif" font-size="10.00">_area/build/coredal/codegen</text>
<text text-anchor="middle" x="342.75" y="-83.5" font-family="Helvetica,sans-Serif" font-size="10.00">/include/coredal/VariableSet.hpp</text>
</a>
</g>
</g>
<!-- Node1&#45;&gt;Node5 -->
<g id="edge4_Node000001_Node000005" class="edge">
<title>Node1&#45;&gt;Node5</title>
<g id="a_edge4_Node000001_Node000005"><a xlink:title=" ">
<path fill="none" stroke="#63b8ff" d="M509.78,-151.69C477.15,-141.52 439.4,-129.75 408.05,-119.98"/>
<polygon fill="#63b8ff" stroke="#63b8ff" points="508.6,-154.99 519.19,-154.62 510.68,-148.31 508.6,-154.99"/>
</a>
</g>
</g>
<!-- Node7 -->
<g id="Node000007" class="node">
<title>Node7</title>
<g id="a_Node000007"><a xlink:href="Application_8cpp.html" target="_top" xlink:title=" ">
<polygon fill="white" stroke="#666666" points="576.5,-119.5 439,-119.5 439,-77.75 576.5,-77.75 576.5,-119.5"/>
<text text-anchor="start" x="447" y="-106" font-family="Helvetica,sans-Serif" font-size="10.00">/github/workspace/dev</text>
<text text-anchor="start" x="447" y="-94.75" font-family="Helvetica,sans-Serif" font-size="10.00">_area/build/coredal/codegen</text>
<text text-anchor="middle" x="507.75" y="-83.5" font-family="Helvetica,sans-Serif" font-size="10.00">/src/Application.cpp</text>
</a>
</g>
</g>
<!-- Node1&#45;&gt;Node7 -->
<g id="edge7_Node000001_Node000007" class="edge">
<title>Node1&#45;&gt;Node7</title>
<g id="a_edge7_Node000001_Node000007"><a xlink:title=" ">
<path fill="none" stroke="#63b8ff" d="M556.62,-147.09C547.35,-138.09 537.29,-128.31 528.71,-119.98"/>
<polygon fill="#63b8ff" stroke="#63b8ff" points="554.15,-149.56 563.76,-154.02 559.03,-144.54 554.15,-149.56"/>
</a>
</g>
</g>
<!-- Node8 -->
<g id="Node000008" class="node">
<title>Node8</title>
<g id="a_Node000008"><a xlink:href="Session_8cpp.html" target="_top" xlink:title=" ">
<polygon fill="white" stroke="#666666" points="732.5,-119.5 595,-119.5 595,-77.75 732.5,-77.75 732.5,-119.5"/>
<text text-anchor="start" x="603" y="-106" font-family="Helvetica,sans-Serif" font-size="10.00">/github/workspace/dev</text>
<text text-anchor="start" x="603" y="-94.75" font-family="Helvetica,sans-Serif" font-size="10.00">_area/build/coredal/codegen</text>
<text text-anchor="middle" x="663.75" y="-83.5" font-family="Helvetica,sans-Serif" font-size="10.00">/src/Session.cpp</text>
</a>
</g>
</g>
<!-- Node1&#45;&gt;Node8 -->
<g id="edge8_Node000001_Node000008" class="edge">
<title>Node1&#45;&gt;Node8</title>
<g id="a_edge8_Node000001_Node000008"><a xlink:title=" ">
<path fill="none" stroke="#63b8ff" d="M614.88,-147.09C624.15,-138.09 634.21,-128.31 642.79,-119.98"/>
<polygon fill="#63b8ff" stroke="#63b8ff" points="612.47,-144.54 607.74,-154.02 617.35,-149.56 612.47,-144.54"/>
</a>
</g>
</g>
<!-- Node9 -->
<g id="Node000009" class="node">
<title>Node9</title>
<g id="a_Node000009"><a xlink:href="src_2Variable_8hpp.html" target="_top" xlink:title=" ">
<polygon fill="white" stroke="#666666" points="888.5,-119.5 751,-119.5 751,-77.75 888.5,-77.75 888.5,-119.5"/>
<text text-anchor="start" x="759" y="-106" font-family="Helvetica,sans-Serif" font-size="10.00">/github/workspace/dev</text>
<text text-anchor="start" x="759" y="-94.75" font-family="Helvetica,sans-Serif" font-size="10.00">_area/build/coredal/codegen</text>
<text text-anchor="middle" x="819.75" y="-83.5" font-family="Helvetica,sans-Serif" font-size="10.00">/src/Variable.hpp</text>
</a>
</g>
</g>
<!-- Node1&#45;&gt;Node9 -->
<g id="edge9_Node000001_Node000009" class="edge">
<title>Node1&#45;&gt;Node9</title>
<g id="a_edge9_Node000001_Node000009"><a xlink:title=" ">
<path fill="none" stroke="#63b8ff" d="M659.32,-151.56C690.65,-141.42 726.81,-129.71 756.87,-119.98"/>
<polygon fill="#63b8ff" stroke="#63b8ff" points="658.33,-148.2 649.9,-154.61 660.49,-154.86 658.33,-148.2"/>
</a>
</g>
</g>
<!-- Node10 -->
<g id="Node000010" class="node">
<title>Node10</title>
<g id="a_Node000010"><a xlink:href="VariableBase_8cpp.html" target="_top" xlink:title=" ">
<polygon fill="white" stroke="#666666" points="1044.5,-119.5 907,-119.5 907,-77.75 1044.5,-77.75 1044.5,-119.5"/>
<text text-anchor="start" x="915" y="-106" font-family="Helvetica,sans-Serif" font-size="10.00">/github/workspace/dev</text>
<text text-anchor="start" x="915" y="-94.75" font-family="Helvetica,sans-Serif" font-size="10.00">_area/build/coredal/codegen</text>
<text text-anchor="middle" x="975.75" y="-83.5" font-family="Helvetica,sans-Serif" font-size="10.00">/src/VariableBase.cpp</text>
</a>
</g>
</g>
<!-- Node1&#45;&gt;Node10 -->
<g id="edge10_Node000001_Node000010" class="edge">
<title>Node1&#45;&gt;Node10</title>
<g id="a_edge10_Node000001_Node000010"><a xlink:title=" ">
<path fill="none" stroke="#63b8ff" d="M678.5,-160.57C740.74,-150.19 824.44,-135.38 897.75,-119.5 900.75,-118.85 903.82,-118.16 906.91,-117.45"/>
<polygon fill="#63b8ff" stroke="#63b8ff" points="678.31,-157.05 669.02,-162.14 679.46,-163.96 678.31,-157.05"/>
</a>
</g>
</g>
<!-- Node11 -->
<g id="Node000011" class="node">
<title>Node11</title>
<g id="a_Node000011"><a xlink:href="src_2VariableSet_8hpp.html" target="_top" xlink:title=" ">
<polygon fill="white" stroke="#666666" points="1200.5,-119.5 1063,-119.5 1063,-77.75 1200.5,-77.75 1200.5,-119.5"/>
<text text-anchor="start" x="1071" y="-106" font-family="Helvetica,sans-Serif" font-size="10.00">/github/workspace/dev</text>
<text text-anchor="start" x="1071" y="-94.75" font-family="Helvetica,sans-Serif" font-size="10.00">_area/build/coredal/codegen</text>
<text text-anchor="middle" x="1131.75" y="-83.5" font-family="Helvetica,sans-Serif" font-size="10.00">/src/VariableSet.hpp</text>
</a>
</g>
</g>
<!-- Node1&#45;&gt;Node11 -->
<g id="edge11_Node000001_Node000011" class="edge">
<title>Node1&#45;&gt;Node11</title>
<g id="a_edge11_Node000001_Node000011"><a xlink:title=" ">
<path fill="none" stroke="#63b8ff" d="M678.68,-167.89C773.51,-159.4 924.66,-143.55 1053.75,-119.5 1056.63,-118.96 1059.57,-118.38 1062.53,-117.76"/>
<polygon fill="#63b8ff" stroke="#63b8ff" points="678.56,-164.38 668.91,-168.75 679.18,-171.36 678.56,-164.38"/>
</a>
</g>
</g>
<!-- Node3 -->
<g id="Node000003" class="node">
<title>Node3</title>
<g id="a_Node000003"><a xlink:href="Variable_8cpp.html" target="_top" xlink:title=" ">
<polygon fill="white" stroke="#666666" points="137.5,-41.75 0,-41.75 0,0 137.5,0 137.5,-41.75"/>
<text text-anchor="start" x="8" y="-28.25" font-family="Helvetica,sans-Serif" font-size="10.00">/github/workspace/dev</text>
<text text-anchor="start" x="8" y="-17" font-family="Helvetica,sans-Serif" font-size="10.00">_area/build/coredal/codegen</text>
<text text-anchor="middle" x="68.75" y="-5.75" font-family="Helvetica,sans-Serif" font-size="10.00">/src/Variable.cpp</text>
</a>
</g>
</g>
<!-- Node2&#45;&gt;Node3 -->
<g id="edge2_Node000002_Node000003" class="edge">
<title>Node2&#45;&gt;Node3</title>
<g id="a_edge2_Node000002_Node000003"><a xlink:title=" ">
<path fill="none" stroke="#63b8ff" d="M112.36,-69.06C104.11,-60.14 95.18,-50.47 87.56,-42.23"/>
<polygon fill="#63b8ff" stroke="#63b8ff" points="109.61,-71.24 118.96,-76.21 114.75,-66.49 109.61,-71.24"/>
</a>
</g>
</g>
<!-- Node2&#45;&gt;Node4 -->
<g id="edge3_Node000002_Node000004" class="edge">
<title>Node2&#45;&gt;Node4</title>
<g id="a_edge3_Node000002_Node000004"><a xlink:title=" ">
<path fill="none" stroke="#63b8ff" d="M173.92,-70.44C185.96,-61.14 199.2,-50.9 210.42,-42.23"/>
<polygon fill="#63b8ff" stroke="#63b8ff" points="171.98,-67.51 166.21,-76.4 176.26,-73.05 171.98,-67.51"/>
</a>
</g>
</g>
<!-- Node5&#45;&gt;Node4 -->
<g id="edge6_Node000005_Node000004" class="edge">
<title>Node5&#45;&gt;Node4</title>
<g id="a_edge6_Node000005_Node000004"><a xlink:title=" ">
<path fill="none" stroke="#63b8ff" d="M305.09,-70.71C291.97,-61.34 277.48,-50.98 265.23,-42.23"/>
<polygon fill="#63b8ff" stroke="#63b8ff" points="302.94,-73.48 313.11,-76.45 307.01,-67.78 302.94,-73.48"/>
</a>
</g>
</g>
<!-- Node6 -->
<g id="Node000006" class="node">
<title>Node6</title>
<g id="a_Node000006"><a xlink:href="VariableSet_8cpp.html" target="_top" xlink:title=" ">
<polygon fill="white" stroke="#666666" points="473.5,-41.75 336,-41.75 336,0 473.5,0 473.5,-41.75"/>
<text text-anchor="start" x="344" y="-28.25" font-family="Helvetica,sans-Serif" font-size="10.00">/github/workspace/dev</text>
<text text-anchor="start" x="344" y="-17" font-family="Helvetica,sans-Serif" font-size="10.00">_area/build/coredal/codegen</text>
<text text-anchor="middle" x="404.75" y="-5.75" font-family="Helvetica,sans-Serif" font-size="10.00">/src/VariableSet.cpp</text>
</a>
</g>
</g>
<!-- Node5&#45;&gt;Node6 -->
<g id="edge5_Node000005_Node000006" class="edge">
<title>Node5&#45;&gt;Node6</title>
<g id="a_edge5_Node000005_Node000006"><a xlink:title=" ">
<path fill="none" stroke="#63b8ff" d="M366.58,-68.51C373.76,-59.74 381.48,-50.3 388.09,-42.23"/>
<polygon fill="#63b8ff" stroke="#63b8ff" points="363.95,-66.2 360.32,-76.15 369.37,-70.63 363.95,-66.2"/>
</a>
</g>
</g>
</g>
</svg>
