<?xml version="1.0" encoding="UTF-8" standalone="no"?>
<!DOCTYPE svg PUBLIC "-//W3C//DTD SVG 1.1//EN"
 "http://www.w3.org/Graphics/SVG/1.1/DTD/svg11.dtd">
<!-- Generated by graphviz version 9.0.0 (20230911.1827)
 -->
<!-- Title: /github/workspace/dev_area/build/appdal/codegen/include/appdal/TCAlgorithm.hpp Pages: 1 -->
<svg width="1592pt" height="228pt"
 viewBox="0.00 0.00 1591.88 227.75" xmlns="http://www.w3.org/2000/svg" xmlns:xlink="http://www.w3.org/1999/xlink">
<g id="graph0" class="graph" transform="scale(1 1) rotate(0) translate(4 223.75)">
<title>/github/workspace/dev_area/build/appdal/codegen/include/appdal/TCAlgorithm.hpp</title>
<!-- Node1 -->
<g id="Node000001" class="node">
<title>Node1</title>
<g id="a_Node000001"><a xlink:title=" ">
<polygon fill="#999999" stroke="#666666" points="833.38,-219.75 677.12,-219.75 677.12,-178 833.38,-178 833.38,-219.75"/>
<text text-anchor="start" x="685.12" y="-206.25" font-family="Helvetica,sans-Serif" font-size="10.00">/github/workspace/dev</text>
<text text-anchor="start" x="685.12" y="-195" font-family="Helvetica,sans-Serif" font-size="10.00">_area/build/appdal/codegen</text>
<text text-anchor="middle" x="755.25" y="-183.75" font-family="Helvetica,sans-Serif" font-size="10.00">/include/appdal/TCAlgorithm.hpp</text>
</a>
</g>
</g>
<!-- Node2 -->
<g id="Node000002" class="node">
<title>Node2</title>
<g id="a_Node000002"><a xlink:href="include_2appdal_2TCCustom_8hpp.html" target="_top" xlink:title=" ">
<polygon fill="white" stroke="#666666" points="204.62,-136.38 55.88,-136.38 55.88,-94.62 204.62,-94.62 204.62,-136.38"/>
<text text-anchor="start" x="63.88" y="-122.88" font-family="Helvetica,sans-Serif" font-size="10.00">/github/workspace/dev</text>
<text text-anchor="start" x="63.88" y="-111.62" font-family="Helvetica,sans-Serif" font-size="10.00">_area/build/appdal/codegen</text>
<text text-anchor="middle" x="130.25" y="-100.38" font-family="Helvetica,sans-Serif" font-size="10.00">/include/appdal/TCCustom.hpp</text>
</a>
</g>
</g>
<!-- Node1&#45;&gt;Node2 -->
<g id="edge1_Node000001_Node000002" class="edge">
<title>Node1&#45;&gt;Node2</title>
<g id="a_edge1_Node000001_Node000002"><a xlink:title=" ">
<path fill="none" stroke="#63b8ff" d="M665.38,-193.43C558.14,-187 373.8,-172.38 218.25,-142 210.91,-140.57 203.3,-138.8 195.77,-136.87"/>
<polygon fill="#63b8ff" stroke="#63b8ff" points="665.09,-196.92 675.28,-194.01 665.5,-189.93 665.09,-196.92"/>
</a>
</g>
</g>
<!-- Node4 -->
<g id="Node000004" class="node">
<title>Node4</title>
<g id="a_Node000004"><a xlink:href="dump__dunedaq____appdal_8cpp.html" target="_top" xlink:title=" ">
<polygon fill="white" stroke="#666666" points="311.5,-47.38 153,-47.38 153,-5.62 311.5,-5.62 311.5,-47.38"/>
<text text-anchor="start" x="161" y="-33.88" font-family="Helvetica,sans-Serif" font-size="10.00">/github/workspace/dev</text>
<text text-anchor="start" x="161" y="-22.62" font-family="Helvetica,sans-Serif" font-size="10.00">_area/build/appdal/codegen</text>
<text text-anchor="middle" x="232.25" y="-11.38" font-family="Helvetica,sans-Serif" font-size="10.00">/src/dump_dunedaq__appdal.cpp</text>
</a>
</g>
</g>
<!-- Node1&#45;&gt;Node4 -->
<g id="edge15_Node000001_Node000004" class="edge">
<title>Node1&#45;&gt;Node4</title>
<g id="a_edge15_Node000001_Node000004"><a xlink:title=" ">
<path fill="none" stroke="#63b8ff" d="M665.49,-193.73C528.68,-186.57 280.68,-169.88 251.25,-142 225.8,-117.89 226.17,-73.66 229.01,-47.8"/>
<polygon fill="#63b8ff" stroke="#63b8ff" points="665.08,-197.22 675.24,-194.24 665.44,-190.23 665.08,-197.22"/>
</a>
</g>
</g>
<!-- Node5 -->
<g id="Node000005" class="node">
<title>Node5</title>
<g id="a_Node000005"><a xlink:href="include_2appdal_2TriggerCandidateMakerHorizontalMuonPlugin_8hpp.html" target="_top" xlink:title=" ">
<polygon fill="white" stroke="#666666" points="418.12,-142 260.38,-142 260.38,-89 418.12,-89 418.12,-142"/>
<text text-anchor="start" x="268.38" y="-128.5" font-family="Helvetica,sans-Serif" font-size="10.00">/github/workspace/dev</text>
<text text-anchor="start" x="268.38" y="-117.25" font-family="Helvetica,sans-Serif" font-size="10.00">_area/build/appdal/codegen</text>
<text text-anchor="start" x="268.38" y="-106" font-family="Helvetica,sans-Serif" font-size="10.00">/include/appdal/TriggerCandidate</text>
<text text-anchor="middle" x="339.25" y="-94.75" font-family="Helvetica,sans-Serif" font-size="10.00">MakerHorizontalMuonPlugin.hpp</text>
</a>
</g>
</g>
<!-- Node1&#45;&gt;Node5 -->
<g id="edge4_Node000001_Node000005" class="edge">
<title>Node1&#45;&gt;Node5</title>
<g id="a_edge4_Node000001_Node000005"><a xlink:title=" ">
<path fill="none" stroke="#63b8ff" d="M665.66,-185.42C599.42,-175.53 507.22,-160.34 427.25,-142 424.3,-141.32 421.31,-140.61 418.29,-139.86"/>
<polygon fill="#63b8ff" stroke="#63b8ff" points="664.99,-188.85 675.39,-186.86 666.01,-181.93 664.99,-188.85"/>
</a>
</g>
</g>
<!-- Node7 -->
<g id="Node000007" class="node">
<title>Node7</title>
<g id="a_Node000007"><a xlink:href="include_2appdal_2TriggerCandidateMakerPrescalePlugin_8hpp.html" target="_top" xlink:title=" ">
<polygon fill="white" stroke="#666666" points="594.12,-142 436.38,-142 436.38,-89 594.12,-89 594.12,-142"/>
<text text-anchor="start" x="444.38" y="-128.5" font-family="Helvetica,sans-Serif" font-size="10.00">/github/workspace/dev</text>
<text text-anchor="start" x="444.38" y="-117.25" font-family="Helvetica,sans-Serif" font-size="10.00">_area/build/appdal/codegen</text>
<text text-anchor="start" x="444.38" y="-106" font-family="Helvetica,sans-Serif" font-size="10.00">/include/appdal/TriggerCandidate</text>
<text text-anchor="middle" x="515.25" y="-94.75" font-family="Helvetica,sans-Serif" font-size="10.00">MakerPrescalePlugin.hpp</text>
</a>
</g>
</g>
<!-- Node1&#45;&gt;Node7 -->
<g id="edge7_Node000001_Node000007" class="edge">
<title>Node1&#45;&gt;Node7</title>
<g id="a_edge7_Node000001_Node000007"><a xlink:title=" ">
<path fill="none" stroke="#63b8ff" d="M684.76,-173.98C655.51,-164.06 621.5,-152.53 591.66,-142.41"/>
<polygon fill="#63b8ff" stroke="#63b8ff" points="683.28,-177.17 693.87,-177.06 685.53,-170.54 683.28,-177.17"/>
</a>
</g>
</g>
<!-- Node9 -->
<g id="Node000009" class="node">
<title>Node9</title>
<g id="a_Node000009"><a xlink:href="TADataProcessor_8cpp.html" target="_top" xlink:title=" ">
<polygon fill="white" stroke="#666666" points="746.5,-136.38 612,-136.38 612,-94.62 746.5,-94.62 746.5,-136.38"/>
<text text-anchor="start" x="620" y="-122.88" font-family="Helvetica,sans-Serif" font-size="10.00">/github/workspace/dev</text>
<text text-anchor="start" x="620" y="-111.62" font-family="Helvetica,sans-Serif" font-size="10.00">_area/build/appdal/codegen</text>
<text text-anchor="middle" x="679.25" y="-100.38" font-family="Helvetica,sans-Serif" font-size="10.00">/src/TADataProcessor.cpp</text>
</a>
</g>
</g>
<!-- Node1&#45;&gt;Node9 -->
<g id="edge10_Node000001_Node000009" class="edge">
<title>Node1&#45;&gt;Node9</title>
<g id="a_edge10_Node000001_Node000009"><a xlink:title=" ">
<path fill="none" stroke="#63b8ff" d="M728.69,-169.43C718.59,-158.63 707.32,-146.55 698.08,-136.67"/>
<polygon fill="#63b8ff" stroke="#63b8ff" points="726.05,-171.73 735.43,-176.65 731.16,-166.96 726.05,-171.73"/>
</a>
</g>
</g>
<!-- Node10 -->
<g id="Node000010" class="node">
<title>Node10</title>
<g id="a_Node000010"><a xlink:href="TCAlgorithm_8cpp.html" target="_top" xlink:title=" ">
<polygon fill="white" stroke="#666666" points="899.5,-136.38 765,-136.38 765,-94.62 899.5,-94.62 899.5,-136.38"/>
<text text-anchor="start" x="773" y="-122.88" font-family="Helvetica,sans-Serif" font-size="10.00">/github/workspace/dev</text>
<text text-anchor="start" x="773" y="-111.62" font-family="Helvetica,sans-Serif" font-size="10.00">_area/build/appdal/codegen</text>
<text text-anchor="middle" x="832.25" y="-100.38" font-family="Helvetica,sans-Serif" font-size="10.00">/src/TCAlgorithm.cpp</text>
</a>
</g>
</g>
<!-- Node1&#45;&gt;Node10 -->
<g id="edge11_Node000001_Node000010" class="edge">
<title>Node1&#45;&gt;Node10</title>
<g id="a_edge11_Node000001_Node000010"><a xlink:title=" ">
<path fill="none" stroke="#63b8ff" d="M782.16,-169.43C792.39,-158.63 803.81,-146.55 813.17,-136.67"/>
<polygon fill="#63b8ff" stroke="#63b8ff" points="779.65,-166.99 775.32,-176.66 784.74,-171.8 779.65,-166.99"/>
</a>
</g>
</g>
<!-- Node11 -->
<g id="Node000011" class="node">
<title>Node11</title>
<g id="a_Node000011"><a xlink:href="src_2TCCustom_8hpp.html" target="_top" xlink:title=" ">
<polygon fill="white" stroke="#666666" points="1052.5,-136.38 918,-136.38 918,-94.62 1052.5,-94.62 1052.5,-136.38"/>
<text text-anchor="start" x="926" y="-122.88" font-family="Helvetica,sans-Serif" font-size="10.00">/github/workspace/dev</text>
<text text-anchor="start" x="926" y="-111.62" font-family="Helvetica,sans-Serif" font-size="10.00">_area/build/appdal/codegen</text>
<text text-anchor="middle" x="985.25" y="-100.38" font-family="Helvetica,sans-Serif" font-size="10.00">/src/TCCustom.hpp</text>
</a>
</g>
</g>
<!-- Node1&#45;&gt;Node11 -->
<g id="edge12_Node000001_Node000011" class="edge">
<title>Node1&#45;&gt;Node11</title>
<g id="a_edge12_Node000001_Node000011"><a xlink:title=" ">
<path fill="none" stroke="#63b8ff" d="M823.24,-173.82C856.48,-162.06 896.03,-148.07 927.74,-136.85"/>
<polygon fill="#63b8ff" stroke="#63b8ff" points="822.38,-170.41 814.12,-177.05 824.72,-177.01 822.38,-170.41"/>
</a>
</g>
</g>
<!-- Node12 -->
<g id="Node000012" class="node">
<title>Node12</title>
<g id="a_Node000012"><a xlink:href="src_2TriggerCandidateMakerHorizontalMuonPlugin_8hpp.html" target="_top" xlink:title=" ">
<polygon fill="white" stroke="#666666" points="1250,-142 1070.5,-142 1070.5,-89 1250,-89 1250,-142"/>
<text text-anchor="start" x="1078.5" y="-128.5" font-family="Helvetica,sans-Serif" font-size="10.00">/github/workspace/dev</text>
<text text-anchor="start" x="1078.5" y="-117.25" font-family="Helvetica,sans-Serif" font-size="10.00">_area/build/appdal/codegen</text>
<text text-anchor="start" x="1078.5" y="-106" font-family="Helvetica,sans-Serif" font-size="10.00">/src/TriggerCandidateMakerHorizontal</text>
<text text-anchor="middle" x="1160.25" y="-94.75" font-family="Helvetica,sans-Serif" font-size="10.00">MuonPlugin.hpp</text>
</a>
</g>
</g>
<!-- Node1&#45;&gt;Node12 -->
<g id="edge13_Node000001_Node000012" class="edge">
<title>Node1&#45;&gt;Node12</title>
<g id="a_edge13_Node000001_Node000012"><a xlink:title=" ">
<path fill="none" stroke="#63b8ff" d="M845.02,-183.22C906.18,-172.81 988.88,-157.91 1061.25,-142 1064.2,-141.35 1067.19,-140.68 1070.21,-139.98"/>
<polygon fill="#63b8ff" stroke="#63b8ff" points="844.62,-179.74 835.35,-184.86 845.79,-186.64 844.62,-179.74"/>
</a>
</g>
</g>
<!-- Node13 -->
<g id="Node000013" class="node">
<title>Node13</title>
<g id="a_Node000013"><a xlink:href="src_2TriggerCandidateMakerPrescalePlugin_8hpp.html" target="_top" xlink:title=" ">
<polygon fill="white" stroke="#666666" points="1442.38,-142 1268.12,-142 1268.12,-89 1442.38,-89 1442.38,-142"/>
<text text-anchor="start" x="1276.12" y="-128.5" font-family="Helvetica,sans-Serif" font-size="10.00">/github/workspace/dev</text>
<text text-anchor="start" x="1276.12" y="-117.25" font-family="Helvetica,sans-Serif" font-size="10.00">_area/build/appdal/codegen</text>
<text text-anchor="start" x="1276.12" y="-106" font-family="Helvetica,sans-Serif" font-size="10.00">/src/TriggerCandidateMakerPrescale</text>
<text text-anchor="middle" x="1355.25" y="-94.75" font-family="Helvetica,sans-Serif" font-size="10.00">Plugin.hpp</text>
</a>
</g>
</g>
<!-- Node1&#45;&gt;Node13 -->
<g id="edge14_Node000001_Node000013" class="edge">
<title>Node1&#45;&gt;Node13</title>
<g id="a_edge14_Node000001_Node000013"><a xlink:title=" ">
<path fill="none" stroke="#63b8ff" d="M844.89,-192C946.13,-184.42 1115.52,-168.9 1259.25,-142 1262.05,-141.48 1264.88,-140.91 1267.74,-140.32"/>
<polygon fill="#63b8ff" stroke="#63b8ff" points="844.71,-188.5 835,-192.72 845.23,-195.48 844.71,-188.5"/>
</a>
</g>
</g>
<!-- Node14 -->
<g id="Node000014" class="node">
<title>Node14</title>
<g id="a_Node000014"><a xlink:href="TAProcessor_8cpp.html" target="_top" xlink:title=" ">
<polygon fill="white" stroke="#666666" points="1583.88,-136.38 1460.62,-136.38 1460.62,-94.62 1583.88,-94.62 1583.88,-136.38"/>
<text text-anchor="start" x="1468.62" y="-122.88" font-family="Helvetica,sans-Serif" font-size="10.00">/github/workspace/dev</text>
<text text-anchor="start" x="1468.62" y="-111.62" font-family="Helvetica,sans-Serif" font-size="10.00">_area/sourcecode/trigger</text>
<text text-anchor="middle" x="1522.25" y="-100.38" font-family="Helvetica,sans-Serif" font-size="10.00">/src/TAProcessor.cpp</text>
</a>
</g>
</g>
<!-- Node1&#45;&gt;Node14 -->
<g id="edge16_Node000001_Node000014" class="edge">
<title>Node1&#45;&gt;Node14</title>
<g id="a_edge16_Node000001_Node000014"><a xlink:title=" ">
<path fill="none" stroke="#63b8ff" d="M845.1,-198.2C978.77,-197 1237.23,-188.17 1451.25,-142 1457.65,-140.62 1464.26,-138.8 1470.75,-136.78"/>
<polygon fill="#63b8ff" stroke="#63b8ff" points="845.22,-194.7 835.25,-198.28 845.27,-201.7 845.22,-194.7"/>
</a>
</g>
</g>
<!-- Node3 -->
<g id="Node000003" class="node">
<title>Node3</title>
<g id="a_Node000003"><a xlink:href="TCCustom_8cpp.html" target="_top" xlink:title=" ">
<polygon fill="white" stroke="#666666" points="134.5,-47.38 0,-47.38 0,-5.62 134.5,-5.62 134.5,-47.38"/>
<text text-anchor="start" x="8" y="-33.88" font-family="Helvetica,sans-Serif" font-size="10.00">/github/workspace/dev</text>
<text text-anchor="start" x="8" y="-22.62" font-family="Helvetica,sans-Serif" font-size="10.00">_area/build/appdal/codegen</text>
<text text-anchor="middle" x="67.25" y="-11.38" font-family="Helvetica,sans-Serif" font-size="10.00">/src/TCCustom.cpp</text>
</a>
</g>
</g>
<!-- Node2&#45;&gt;Node3 -->
<g id="edge2_Node000002_Node000003" class="edge">
<title>Node2&#45;&gt;Node3</title>
<g id="a_edge2_Node000002_Node000003"><a xlink:title=" ">
<path fill="none" stroke="#63b8ff" d="M109.13,-85.33C100.23,-73.04 90.08,-59.02 82,-47.87"/>
<polygon fill="#63b8ff" stroke="#63b8ff" points="106.05,-87.05 114.75,-93.1 111.72,-82.94 106.05,-87.05"/>
</a>
</g>
</g>
<!-- Node2&#45;&gt;Node4 -->
<g id="edge3_Node000002_Node000004" class="edge">
<title>Node2&#45;&gt;Node4</title>
<g id="a_edge3_Node000002_Node000004"><a xlink:title=" ">
<path fill="none" stroke="#63b8ff" d="M162.34,-87.13C177.24,-74.42 194.65,-59.57 208.37,-47.87"/>
<polygon fill="#63b8ff" stroke="#63b8ff" points="160.4,-84.19 155.06,-93.34 164.94,-89.51 160.4,-84.19"/>
</a>
</g>
</g>
<!-- Node5&#45;&gt;Node4 -->
<g id="edge6_Node000005_Node000004" class="edge">
<title>Node5&#45;&gt;Node4</title>
<g id="a_edge6_Node000005_Node000004"><a xlink:title=" ">
<path fill="none" stroke="#63b8ff" d="M298.87,-81.67C284.79,-70.22 269.41,-57.71 256.98,-47.61"/>
<polygon fill="#63b8ff" stroke="#63b8ff" points="296.29,-84.08 306.26,-87.68 300.71,-78.65 296.29,-84.08"/>
</a>
</g>
</g>
<!-- Node6 -->
<g id="Node000006" class="node">
<title>Node6</title>
<g id="a_Node000006"><a xlink:href="TriggerCandidateMakerHorizontalMuonPlugin_8cpp.html" target="_top" xlink:title=" ">
<polygon fill="white" stroke="#666666" points="509,-53 329.5,-53 329.5,0 509,0 509,-53"/>
<text text-anchor="start" x="337.5" y="-39.5" font-family="Helvetica,sans-Serif" font-size="10.00">/github/workspace/dev</text>
<text text-anchor="start" x="337.5" y="-28.25" font-family="Helvetica,sans-Serif" font-size="10.00">_area/build/appdal/codegen</text>
<text text-anchor="start" x="337.5" y="-17" font-family="Helvetica,sans-Serif" font-size="10.00">/src/TriggerCandidateMakerHorizontal</text>
<text text-anchor="middle" x="419.25" y="-5.75" font-family="Helvetica,sans-Serif" font-size="10.00">MuonPlugin.cpp</text>
</a>
</g>
</g>
<!-- Node5&#45;&gt;Node6 -->
<g id="edge5_Node000005_Node000006" class="edge">
<title>Node5&#45;&gt;Node6</title>
<g id="a_edge5_Node000005_Node000006"><a xlink:title=" ">
<path fill="none" stroke="#63b8ff" d="M370.58,-80.43C378.9,-71.38 387.74,-61.77 395.57,-53.25"/>
<polygon fill="#63b8ff" stroke="#63b8ff" points="368.04,-78.02 363.84,-87.75 373.19,-82.76 368.04,-78.02"/>
</a>
</g>
</g>
<!-- Node7&#45;&gt;Node4 -->
<g id="edge9_Node000007_Node000004" class="edge">
<title>Node7&#45;&gt;Node4</title>
<g id="a_edge9_Node000007_Node000004"><a xlink:title=" ">
<path fill="none" stroke="#63b8ff" d="M425.19,-86.81C384.08,-74.18 336.27,-59.48 298.52,-47.87"/>
<polygon fill="#63b8ff" stroke="#63b8ff" points="424.01,-90.11 434.6,-89.71 426.07,-83.42 424.01,-90.11"/>
</a>
</g>
</g>
<!-- Node8 -->
<g id="Node000008" class="node">
<title>Node8</title>
<g id="a_Node000008"><a xlink:href="TriggerCandidateMakerPrescalePlugin_8cpp.html" target="_top" xlink:title=" ">
<polygon fill="white" stroke="#666666" points="701.38,-53 527.12,-53 527.12,0 701.38,0 701.38,-53"/>
<text text-anchor="start" x="535.12" y="-39.5" font-family="Helvetica,sans-Serif" font-size="10.00">/github/workspace/dev</text>
<text text-anchor="start" x="535.12" y="-28.25" font-family="Helvetica,sans-Serif" font-size="10.00">_area/build/appdal/codegen</text>
<text text-anchor="start" x="535.12" y="-17" font-family="Helvetica,sans-Serif" font-size="10.00">/src/TriggerCandidateMakerPrescale</text>
<text text-anchor="middle" x="614.25" y="-5.75" font-family="Helvetica,sans-Serif" font-size="10.00">Plugin.cpp</text>
</a>
</g>
</g>
<!-- Node7&#45;&gt;Node8 -->
<g id="edge8_Node000007_Node000008" class="edge">
<title>Node7&#45;&gt;Node8</title>
<g id="a_edge8_Node000007_Node000008"><a xlink:title=" ">
<path fill="none" stroke="#63b8ff" d="M553.25,-81.11C563.7,-71.93 574.87,-62.11 584.76,-53.42"/>
<polygon fill="#63b8ff" stroke="#63b8ff" points="551.02,-78.4 545.82,-87.63 555.64,-83.66 551.02,-78.4"/>
</a>
</g>
</g>
</g>
</svg>
