<?xml version="1.0" encoding="UTF-8" standalone="no"?>
<!DOCTYPE svg PUBLIC "-//W3C//DTD SVG 1.1//EN"
 "http://www.w3.org/Graphics/SVG/1.1/DTD/svg11.dtd">
<!-- Generated by graphviz version 9.0.0 (20230911.1827)
 -->
<!-- Title: /github/workspace/dev_area/build/coredal/codegen/include/coredal/HostComponent.hpp Pages: 1 -->
<svg width="2148pt" height="205pt"
 viewBox="0.00 0.00 2147.62 205.25" xmlns="http://www.w3.org/2000/svg" xmlns:xlink="http://www.w3.org/1999/xlink">
<g id="graph0" class="graph" transform="scale(1 1) rotate(0) translate(4 201.25)">
<title>/github/workspace/dev_area/build/coredal/codegen/include/coredal/HostComponent.hpp</title>
<!-- Node1 -->
<g id="Node000001" class="node">
<title>Node1</title>
<g id="a_Node000001"><a xlink:title=" ">
<polygon fill="#999999" stroke="#666666" points="1228.62,-197.25 1052.88,-197.25 1052.88,-155.5 1228.62,-155.5 1228.62,-197.25"/>
<text text-anchor="start" x="1060.88" y="-183.75" font-family="Helvetica,sans-Serif" font-size="10.00">/github/workspace/dev</text>
<text text-anchor="start" x="1060.88" y="-172.5" font-family="Helvetica,sans-Serif" font-size="10.00">_area/build/coredal/codegen</text>
<text text-anchor="middle" x="1140.75" y="-161.25" font-family="Helvetica,sans-Serif" font-size="10.00">/include/coredal/HostComponent.hpp</text>
</a>
</g>
</g>
<!-- Node2 -->
<g id="Node000002" class="node">
<title>Node2</title>
<g id="a_Node000002"><a xlink:href="include_2coredal_2NetworkDevice_8hpp.html" target="_top" xlink:title=" ">
<polygon fill="white" stroke="#666666" points="516.75,-119.5 344.75,-119.5 344.75,-77.75 516.75,-77.75 516.75,-119.5"/>
<text text-anchor="start" x="352.75" y="-106" font-family="Helvetica,sans-Serif" font-size="10.00">/github/workspace/dev</text>
<text text-anchor="start" x="352.75" y="-94.75" font-family="Helvetica,sans-Serif" font-size="10.00">_area/build/coredal/codegen</text>
<text text-anchor="middle" x="430.75" y="-83.5" font-family="Helvetica,sans-Serif" font-size="10.00">/include/coredal/NetworkDevice.hpp</text>
</a>
</g>
</g>
<!-- Node1&#45;&gt;Node2 -->
<g id="edge1_Node000001_Node000002" class="edge">
<title>Node1&#45;&gt;Node2</title>
<g id="a_edge1_Node000001_Node000002"><a xlink:title=" ">
<path fill="none" stroke="#63b8ff" d="M1041.09,-169.47C920,-161.55 709.69,-145.4 530.75,-119.5 526.28,-118.85 521.71,-118.14 517.11,-117.37"/>
<polygon fill="#63b8ff" stroke="#63b8ff" points="1040.81,-172.96 1051.02,-170.11 1041.26,-165.97 1040.81,-172.96"/>
</a>
</g>
</g>
<!-- Node5 -->
<g id="Node000005" class="node">
<title>Node5</title>
<g id="a_Node000005"><a xlink:href="dump__dunedaq____coredal_8cpp.html" target="_top" xlink:title=" ">
<polygon fill="white" stroke="#666666" points="631.5,-41.75 470,-41.75 470,0 631.5,0 631.5,-41.75"/>
<text text-anchor="start" x="478" y="-28.25" font-family="Helvetica,sans-Serif" font-size="10.00">/github/workspace/dev</text>
<text text-anchor="start" x="478" y="-17" font-family="Helvetica,sans-Serif" font-size="10.00">_area/build/coredal/codegen</text>
<text text-anchor="middle" x="550.75" y="-5.75" font-family="Helvetica,sans-Serif" font-size="10.00">/src/dump_dunedaq__coredal.cpp</text>
</a>
</g>
</g>
<!-- Node1&#45;&gt;Node5 -->
<g id="edge21_Node000001_Node000005" class="edge">
<title>Node1&#45;&gt;Node5</title>
<g id="a_edge21_Node000001_Node000005"><a xlink:title=" ">
<path fill="none" stroke="#63b8ff" d="M1041.17,-172.37C885.16,-166.68 597.34,-151.9 563.75,-119.5 543.2,-99.67 543.93,-64.17 546.92,-41.88"/>
<polygon fill="#63b8ff" stroke="#63b8ff" points="1041,-175.86 1051.12,-172.72 1041.25,-168.87 1041,-175.86"/>
</a>
</g>
</g>
<!-- Node6 -->
<g id="Node000006" class="node">
<title>Node6</title>
<g id="a_Node000006"><a xlink:href="include_2coredal_2ProcessingResource_8hpp.html" target="_top" xlink:title=" ">
<polygon fill="white" stroke="#666666" points="326.38,-119.5 131.12,-119.5 131.12,-77.75 326.38,-77.75 326.38,-119.5"/>
<text text-anchor="start" x="139.12" y="-106" font-family="Helvetica,sans-Serif" font-size="10.00">/github/workspace/dev</text>
<text text-anchor="start" x="139.12" y="-94.75" font-family="Helvetica,sans-Serif" font-size="10.00">_area/build/coredal/codegen</text>
<text text-anchor="middle" x="228.75" y="-83.5" font-family="Helvetica,sans-Serif" font-size="10.00">/include/coredal/ProcessingResource.hpp</text>
</a>
</g>
</g>
<!-- Node1&#45;&gt;Node6 -->
<g id="edge5_Node000001_Node000006" class="edge">
<title>Node1&#45;&gt;Node6</title>
<g id="a_edge5_Node000001_Node000006"><a xlink:title=" ">
<path fill="none" stroke="#63b8ff" d="M1041.42,-172.14C889.08,-166.35 588.78,-151.67 335.75,-119.5 332.75,-119.12 329.71,-118.71 326.64,-118.27"/>
<polygon fill="#63b8ff" stroke="#63b8ff" points="1040.94,-175.62 1051.07,-172.5 1041.2,-168.63 1040.94,-175.62"/>
</a>
</g>
</g>
<!-- Node8 -->
<g id="Node000008" class="node">
<title>Node8</title>
<g id="a_Node000008"><a xlink:href="include_2coredal_2StorageDevice_8hpp.html" target="_top" xlink:title=" ">
<polygon fill="white" stroke="#666666" points="742.25,-119.5 573.25,-119.5 573.25,-77.75 742.25,-77.75 742.25,-119.5"/>
<text text-anchor="start" x="581.25" y="-106" font-family="Helvetica,sans-Serif" font-size="10.00">/github/workspace/dev</text>
<text text-anchor="start" x="581.25" y="-94.75" font-family="Helvetica,sans-Serif" font-size="10.00">_area/build/coredal/codegen</text>
<text text-anchor="middle" x="657.75" y="-83.5" font-family="Helvetica,sans-Serif" font-size="10.00">/include/coredal/StorageDevice.hpp</text>
</a>
</g>
</g>
<!-- Node1&#45;&gt;Node8 -->
<g id="edge9_Node000001_Node000008" class="edge">
<title>Node1&#45;&gt;Node8</title>
<g id="a_edge9_Node000001_Node000008"><a xlink:title=" ">
<path fill="none" stroke="#63b8ff" d="M1041.17,-163.01C962.19,-152.75 849.11,-137.03 750.75,-119.5 747.99,-119.01 745.18,-118.49 742.35,-117.96"/>
<polygon fill="#63b8ff" stroke="#63b8ff" points="1040.71,-166.48 1051.07,-164.29 1041.61,-159.54 1040.71,-166.48"/>
</a>
</g>
</g>
<!-- Node11 -->
<g id="Node000011" class="node">
<title>Node11</title>
<g id="a_Node000011"><a xlink:href="DaqModule_8cpp.html" target="_top" xlink:title=" ">
<polygon fill="white" stroke="#666666" points="897.5,-119.5 760,-119.5 760,-77.75 897.5,-77.75 897.5,-119.5"/>
<text text-anchor="start" x="768" y="-106" font-family="Helvetica,sans-Serif" font-size="10.00">/github/workspace/dev</text>
<text text-anchor="start" x="768" y="-94.75" font-family="Helvetica,sans-Serif" font-size="10.00">_area/build/coredal/codegen</text>
<text text-anchor="middle" x="828.75" y="-83.5" font-family="Helvetica,sans-Serif" font-size="10.00">/src/DaqModule.cpp</text>
</a>
</g>
</g>
<!-- Node1&#45;&gt;Node11 -->
<g id="edge14_Node000001_Node000011" class="edge">
<title>Node1&#45;&gt;Node11</title>
<g id="a_edge14_Node000001_Node000011"><a xlink:title=" ">
<path fill="none" stroke="#63b8ff" d="M1043.2,-152.43C1001.18,-142.46 951.51,-130.55 906.75,-119.5 903.77,-118.76 900.72,-118.01 897.64,-117.24"/>
<polygon fill="#63b8ff" stroke="#63b8ff" points="1042.26,-155.8 1052.8,-154.71 1043.88,-148.99 1042.26,-155.8"/>
</a>
</g>
</g>
<!-- Node12 -->
<g id="Node000012" class="node">
<title>Node12</title>
<g id="a_Node000012"><a xlink:href="HostComponent_8cpp.html" target="_top" xlink:title=" ">
<polygon fill="white" stroke="#666666" points="1053.5,-119.5 916,-119.5 916,-77.75 1053.5,-77.75 1053.5,-119.5"/>
<text text-anchor="start" x="924" y="-106" font-family="Helvetica,sans-Serif" font-size="10.00">/github/workspace/dev</text>
<text text-anchor="start" x="924" y="-94.75" font-family="Helvetica,sans-Serif" font-size="10.00">_area/build/coredal/codegen</text>
<text text-anchor="middle" x="984.75" y="-83.5" font-family="Helvetica,sans-Serif" font-size="10.00">/src/HostComponent.cpp</text>
</a>
</g>
</g>
<!-- Node1&#45;&gt;Node12 -->
<g id="edge15_Node000001_Node000012" class="edge">
<title>Node1&#45;&gt;Node12</title>
<g id="a_edge15_Node000001_Node000012"><a xlink:title=" ">
<path fill="none" stroke="#63b8ff" d="M1088.67,-150.09C1068.51,-140.3 1045.75,-129.24 1026.67,-119.98"/>
<polygon fill="#63b8ff" stroke="#63b8ff" points="1087.06,-153.19 1097.58,-154.41 1090.12,-146.9 1087.06,-153.19"/>
</a>
</g>
</g>
<!-- Node13 -->
<g id="Node000013" class="node">
<title>Node13</title>
<g id="a_Node000013"><a xlink:href="src_2NetworkDevice_8hpp.html" target="_top" xlink:title=" ">
<polygon fill="white" stroke="#666666" points="1209.5,-119.5 1072,-119.5 1072,-77.75 1209.5,-77.75 1209.5,-119.5"/>
<text text-anchor="start" x="1080" y="-106" font-family="Helvetica,sans-Serif" font-size="10.00">/github/workspace/dev</text>
<text text-anchor="start" x="1080" y="-94.75" font-family="Helvetica,sans-Serif" font-size="10.00">_area/build/coredal/codegen</text>
<text text-anchor="middle" x="1140.75" y="-83.5" font-family="Helvetica,sans-Serif" font-size="10.00">/src/NetworkDevice.hpp</text>
</a>
</g>
</g>
<!-- Node1&#45;&gt;Node13 -->
<g id="edge16_Node000001_Node000013" class="edge">
<title>Node1&#45;&gt;Node13</title>
<g id="a_edge16_Node000001_Node000013"><a xlink:title=" ">
<path fill="none" stroke="#63b8ff" d="M1140.75,-143.75C1140.75,-135.71 1140.75,-127.29 1140.75,-119.98"/>
<polygon fill="#63b8ff" stroke="#63b8ff" points="1137.25,-143.56 1140.75,-153.56 1144.25,-143.56 1137.25,-143.56"/>
</a>
</g>
</g>
<!-- Node14 -->
<g id="Node000014" class="node">
<title>Node14</title>
<g id="a_Node000014"><a xlink:href="PhysicalHost_8cpp.html" target="_top" xlink:title=" ">
<polygon fill="white" stroke="#666666" points="1365.5,-119.5 1228,-119.5 1228,-77.75 1365.5,-77.75 1365.5,-119.5"/>
<text text-anchor="start" x="1236" y="-106" font-family="Helvetica,sans-Serif" font-size="10.00">/github/workspace/dev</text>
<text text-anchor="start" x="1236" y="-94.75" font-family="Helvetica,sans-Serif" font-size="10.00">_area/build/coredal/codegen</text>
<text text-anchor="middle" x="1296.75" y="-83.5" font-family="Helvetica,sans-Serif" font-size="10.00">/src/PhysicalHost.cpp</text>
</a>
</g>
</g>
<!-- Node1&#45;&gt;Node14 -->
<g id="edge17_Node000001_Node000014" class="edge">
<title>Node1&#45;&gt;Node14</title>
<g id="a_edge17_Node000001_Node000014"><a xlink:title=" ">
<path fill="none" stroke="#63b8ff" d="M1192.83,-150.09C1212.99,-140.3 1235.75,-129.24 1254.83,-119.98"/>
<polygon fill="#63b8ff" stroke="#63b8ff" points="1191.38,-146.9 1183.92,-154.41 1194.44,-153.19 1191.38,-146.9"/>
</a>
</g>
</g>
<!-- Node15 -->
<g id="Node000015" class="node">
<title>Node15</title>
<g id="a_Node000015"><a xlink:href="src_2ProcessingResource_8hpp.html" target="_top" xlink:title=" ">
<polygon fill="white" stroke="#666666" points="1527.5,-119.5 1384,-119.5 1384,-77.75 1527.5,-77.75 1527.5,-119.5"/>
<text text-anchor="start" x="1392" y="-106" font-family="Helvetica,sans-Serif" font-size="10.00">/github/workspace/dev</text>
<text text-anchor="start" x="1392" y="-94.75" font-family="Helvetica,sans-Serif" font-size="10.00">_area/build/coredal/codegen</text>
<text text-anchor="middle" x="1455.75" y="-83.5" font-family="Helvetica,sans-Serif" font-size="10.00">/src/ProcessingResource.hpp</text>
</a>
</g>
</g>
<!-- Node1&#45;&gt;Node15 -->
<g id="edge18_Node000001_Node000015" class="edge">
<title>Node1&#45;&gt;Node15</title>
<g id="a_edge18_Node000001_Node000015"><a xlink:title=" ">
<path fill="none" stroke="#63b8ff" d="M1237.73,-152.36C1279.85,-142.33 1329.75,-130.39 1374.75,-119.5 1377.71,-118.78 1380.72,-118.05 1383.77,-117.31"/>
<polygon fill="#63b8ff" stroke="#63b8ff" points="1237.02,-148.93 1228.11,-154.65 1238.64,-155.74 1237.02,-148.93"/>
</a>
</g>
</g>
<!-- Node16 -->
<g id="Node000016" class="node">
<title>Node16</title>
<g id="a_Node000016"><a xlink:href="src_2StorageDevice_8hpp.html" target="_top" xlink:title=" ">
<polygon fill="white" stroke="#666666" points="1683.5,-119.5 1546,-119.5 1546,-77.75 1683.5,-77.75 1683.5,-119.5"/>
<text text-anchor="start" x="1554" y="-106" font-family="Helvetica,sans-Serif" font-size="10.00">/github/workspace/dev</text>
<text text-anchor="start" x="1554" y="-94.75" font-family="Helvetica,sans-Serif" font-size="10.00">_area/build/coredal/codegen</text>
<text text-anchor="middle" x="1614.75" y="-83.5" font-family="Helvetica,sans-Serif" font-size="10.00">/src/StorageDevice.hpp</text>
</a>
</g>
</g>
<!-- Node1&#45;&gt;Node16 -->
<g id="edge19_Node000001_Node000016" class="edge">
<title>Node1&#45;&gt;Node16</title>
<g id="a_edge19_Node000001_Node000016"><a xlink:title=" ">
<path fill="none" stroke="#63b8ff" d="M1240,-164.42C1320.4,-154.82 1436.4,-139.3 1536.75,-119.5 1539.63,-118.93 1542.56,-118.32 1545.52,-117.68"/>
<polygon fill="#63b8ff" stroke="#63b8ff" points="1239.92,-160.91 1230.4,-165.56 1240.75,-167.86 1239.92,-160.91"/>
</a>
</g>
</g>
<!-- Node17 -->
<g id="Node000017" class="node">
<title>Node17</title>
<g id="a_Node000017"><a xlink:href="VirtualHost_8cpp.html" target="_top" xlink:title=" ">
<polygon fill="white" stroke="#666666" points="1839.5,-119.5 1702,-119.5 1702,-77.75 1839.5,-77.75 1839.5,-119.5"/>
<text text-anchor="start" x="1710" y="-106" font-family="Helvetica,sans-Serif" font-size="10.00">/github/workspace/dev</text>
<text text-anchor="start" x="1710" y="-94.75" font-family="Helvetica,sans-Serif" font-size="10.00">_area/build/coredal/codegen</text>
<text text-anchor="middle" x="1770.75" y="-83.5" font-family="Helvetica,sans-Serif" font-size="10.00">/src/VirtualHost.cpp</text>
</a>
</g>
</g>
<!-- Node1&#45;&gt;Node17 -->
<g id="edge20_Node000001_Node000017" class="edge">
<title>Node1&#45;&gt;Node17</title>
<g id="a_edge20_Node000001_Node000017"><a xlink:title=" ">
<path fill="none" stroke="#63b8ff" d="M1239.95,-169.79C1350.92,-162.51 1535.71,-147.3 1692.75,-119.5 1695.64,-118.99 1698.58,-118.43 1701.54,-117.83"/>
<polygon fill="#63b8ff" stroke="#63b8ff" points="1240.05,-166.28 1230.29,-170.41 1240.5,-173.26 1240.05,-166.28"/>
</a>
</g>
</g>
<!-- Node18 -->
<g id="Node000018" class="node">
<title>Node18</title>
<g id="a_Node000018"><a xlink:href="coredal_2pybindsrc_2dal__methods_8cpp.html" target="_top" xlink:title=" ">
<polygon fill="white" stroke="#666666" points="1994.12,-119.5 1857.38,-119.5 1857.38,-77.75 1994.12,-77.75 1994.12,-119.5"/>
<text text-anchor="start" x="1865.38" y="-106" font-family="Helvetica,sans-Serif" font-size="10.00">/github/workspace/dev</text>
<text text-anchor="start" x="1865.38" y="-94.75" font-family="Helvetica,sans-Serif" font-size="10.00">_area/sourcecode/coredal</text>
<text text-anchor="middle" x="1925.75" y="-83.5" font-family="Helvetica,sans-Serif" font-size="10.00">/pybindsrc/dal_methods.cpp</text>
</a>
</g>
</g>
<!-- Node1&#45;&gt;Node18 -->
<g id="edge22_Node000001_Node000018" class="edge">
<title>Node1&#45;&gt;Node18</title>
<g id="a_edge22_Node000001_Node000018"><a xlink:title=" ">
<path fill="none" stroke="#63b8ff" d="M1240.42,-172.96C1378.08,-168.39 1633.77,-155.45 1848.75,-119.5 1851.47,-119.04 1854.24,-118.54 1857.03,-117.99"/>
<polygon fill="#63b8ff" stroke="#63b8ff" points="1240.49,-169.46 1230.61,-173.28 1240.72,-176.45 1240.49,-169.46"/>
</a>
</g>
</g>
<!-- Node19 -->
<g id="Node000019" class="node">
<title>Node19</title>
<g id="a_Node000019"><a xlink:href="coredal_2pybindsrc_2module_8cpp.html" target="_top" xlink:title=" ">
<polygon fill="white" stroke="#666666" points="2139.62,-119.5 2011.88,-119.5 2011.88,-77.75 2139.62,-77.75 2139.62,-119.5"/>
<text text-anchor="start" x="2019.88" y="-106" font-family="Helvetica,sans-Serif" font-size="10.00">/github/workspace/dev</text>
<text text-anchor="start" x="2019.88" y="-94.75" font-family="Helvetica,sans-Serif" font-size="10.00">_area/sourcecode/coredal</text>
<text text-anchor="middle" x="2075.75" y="-83.5" font-family="Helvetica,sans-Serif" font-size="10.00">/pybindsrc/module.cpp</text>
</a>
</g>
</g>
<!-- Node1&#45;&gt;Node19 -->
<g id="edge23_Node000001_Node000019" class="edge">
<title>Node1&#45;&gt;Node19</title>
<g id="a_edge23_Node000001_Node000019"><a xlink:title=" ">
<path fill="none" stroke="#63b8ff" d="M1240.22,-175.39C1401.45,-173.98 1729.37,-165.1 2002.75,-119.5 2005.6,-119.02 2008.5,-118.48 2011.42,-117.89"/>
<polygon fill="#63b8ff" stroke="#63b8ff" points="1240.39,-171.89 1230.42,-175.47 1240.45,-178.89 1240.39,-171.89"/>
</a>
</g>
</g>
<!-- Node3 -->
<g id="Node000003" class="node">
<title>Node3</title>
<g id="a_Node000003"><a xlink:href="RoHwConfig_8cpp.html" target="_top" xlink:title=" ">
<polygon fill="white" stroke="#666666" points="296,-41.75 161.5,-41.75 161.5,0 296,0 296,-41.75"/>
<text text-anchor="start" x="169.5" y="-28.25" font-family="Helvetica,sans-Serif" font-size="10.00">/github/workspace/dev</text>
<text text-anchor="start" x="169.5" y="-17" font-family="Helvetica,sans-Serif" font-size="10.00">_area/build/appdal/codegen</text>
<text text-anchor="middle" x="228.75" y="-5.75" font-family="Helvetica,sans-Serif" font-size="10.00">/src/RoHwConfig.cpp</text>
</a>
</g>
</g>
<!-- Node2&#45;&gt;Node3 -->
<g id="edge2_Node000002_Node000003" class="edge">
<title>Node2&#45;&gt;Node3</title>
<g id="a_edge2_Node000002_Node000003"><a xlink:title=" ">
<path fill="none" stroke="#63b8ff" d="M366.18,-73.41C339.38,-63.36 308.64,-51.83 283.03,-42.23"/>
<polygon fill="#63b8ff" stroke="#63b8ff" points="364.61,-76.56 375.2,-76.79 367.07,-70.01 364.61,-76.56"/>
</a>
</g>
</g>
<!-- Node4 -->
<g id="Node000004" class="node">
<title>Node4</title>
<g id="a_Node000004"><a xlink:href="NetworkDevice_8cpp.html" target="_top" xlink:title=" ">
<polygon fill="white" stroke="#666666" points="451.5,-41.75 314,-41.75 314,0 451.5,0 451.5,-41.75"/>
<text text-anchor="start" x="322" y="-28.25" font-family="Helvetica,sans-Serif" font-size="10.00">/github/workspace/dev</text>
<text text-anchor="start" x="322" y="-17" font-family="Helvetica,sans-Serif" font-size="10.00">_area/build/coredal/codegen</text>
<text text-anchor="middle" x="382.75" y="-5.75" font-family="Helvetica,sans-Serif" font-size="10.00">/src/NetworkDevice.cpp</text>
</a>
</g>
</g>
<!-- Node2&#45;&gt;Node4 -->
<g id="edge3_Node000002_Node000004" class="edge">
<title>Node2&#45;&gt;Node4</title>
<g id="a_edge3_Node000002_Node000004"><a xlink:title=" ">
<path fill="none" stroke="#63b8ff" d="M411.77,-67.68C406.37,-59.14 400.6,-50.05 395.65,-42.23"/>
<polygon fill="#63b8ff" stroke="#63b8ff" points="408.77,-69.47 417.08,-76.05 414.68,-65.73 408.77,-69.47"/>
</a>
</g>
</g>
<!-- Node2&#45;&gt;Node5 -->
<g id="edge4_Node000002_Node000005" class="edge">
<title>Node2&#45;&gt;Node5</title>
<g id="a_edge4_Node000002_Node000005"><a xlink:title=" ">
<path fill="none" stroke="#63b8ff" d="M472.52,-71.26C487.6,-61.74 504.37,-51.15 518.5,-42.23"/>
<polygon fill="#63b8ff" stroke="#63b8ff" points="470.78,-68.22 464.19,-76.52 474.51,-74.14 470.78,-68.22"/>
</a>
</g>
</g>
<!-- Node6&#45;&gt;Node3 -->
<g id="edge6_Node000006_Node000003" class="edge">
<title>Node6&#45;&gt;Node3</title>
<g id="a_edge6_Node000006_Node000003"><a xlink:title=" ">
<path fill="none" stroke="#63b8ff" d="M228.75,-66C228.75,-57.96 228.75,-49.54 228.75,-42.23"/>
<polygon fill="#63b8ff" stroke="#63b8ff" points="225.25,-65.81 228.75,-75.81 232.25,-65.81 225.25,-65.81"/>
</a>
</g>
</g>
<!-- Node6&#45;&gt;Node5 -->
<g id="edge8_Node000006_Node000005" class="edge">
<title>Node6&#45;&gt;Node5</title>
<g id="a_edge8_Node000006_Node000005"><a xlink:title=" ">
<path fill="none" stroke="#63b8ff" d="M326.21,-74.7C372.09,-63.9 426.17,-51.18 469.76,-40.93"/>
<polygon fill="#63b8ff" stroke="#63b8ff" points="325.45,-71.28 316.51,-76.98 327.05,-78.1 325.45,-71.28"/>
</a>
</g>
</g>
<!-- Node7 -->
<g id="Node000007" class="node">
<title>Node7</title>
<g id="a_Node000007"><a xlink:href="ProcessingResource_8cpp.html" target="_top" xlink:title=" ">
<polygon fill="white" stroke="#666666" points="143.5,-41.75 0,-41.75 0,0 143.5,0 143.5,-41.75"/>
<text text-anchor="start" x="8" y="-28.25" font-family="Helvetica,sans-Serif" font-size="10.00">/github/workspace/dev</text>
<text text-anchor="start" x="8" y="-17" font-family="Helvetica,sans-Serif" font-size="10.00">_area/build/coredal/codegen</text>
<text text-anchor="middle" x="71.75" y="-5.75" font-family="Helvetica,sans-Serif" font-size="10.00">/src/ProcessingResource.cpp</text>
</a>
</g>
</g>
<!-- Node6&#45;&gt;Node7 -->
<g id="edge7_Node000006_Node000007" class="edge">
<title>Node6&#45;&gt;Node7</title>
<g id="a_edge7_Node000006_Node000007"><a xlink:title=" ">
<path fill="none" stroke="#63b8ff" d="M176.34,-72.34C156.05,-62.55 133.14,-51.49 113.94,-42.23"/>
<polygon fill="#63b8ff" stroke="#63b8ff" points="174.79,-75.47 185.31,-76.67 177.83,-69.17 174.79,-75.47"/>
</a>
</g>
</g>
<!-- Node8&#45;&gt;Node3 -->
<g id="edge11_Node000008_Node000003" class="edge">
<title>Node8&#45;&gt;Node3</title>
<g id="a_edge11_Node000008_Node000003"><a xlink:title=" ">
<path fill="none" stroke="#63b8ff" d="M561.71,-82.92C465.92,-68.18 329.5,-46.93 304.75,-41.75 301.95,-41.16 299.09,-40.54 296.21,-39.89"/>
<polygon fill="#63b8ff" stroke="#63b8ff" points="560.98,-86.35 571.4,-84.41 562.05,-79.43 560.98,-86.35"/>
</a>
</g>
</g>
<!-- Node8&#45;&gt;Node5 -->
<g id="edge13_Node000008_Node000005" class="edge">
<title>Node8&#45;&gt;Node5</title>
<g id="a_edge13_Node000008_Node000005"><a xlink:title=" ">
<path fill="none" stroke="#63b8ff" d="M619.73,-70.71C606.49,-61.34 591.87,-50.98 579.5,-42.23"/>
<polygon fill="#63b8ff" stroke="#63b8ff" points="617.66,-73.53 627.84,-76.45 621.7,-67.82 617.66,-73.53"/>
</a>
</g>
</g>
<!-- Node9 -->
<g id="Node000009" class="node">
<title>Node9</title>
<g id="a_Node000009"><a xlink:href="DFHWConf_8cpp.html" target="_top" xlink:title=" ">
<polygon fill="white" stroke="#666666" points="784,-41.75 649.5,-41.75 649.5,0 784,0 784,-41.75"/>
<text text-anchor="start" x="657.5" y="-28.25" font-family="Helvetica,sans-Serif" font-size="10.00">/github/workspace/dev</text>
<text text-anchor="start" x="657.5" y="-17" font-family="Helvetica,sans-Serif" font-size="10.00">_area/build/appdal/codegen</text>
<text text-anchor="middle" x="716.75" y="-5.75" font-family="Helvetica,sans-Serif" font-size="10.00">/src/DFHWConf.cpp</text>
</a>
</g>
</g>
<!-- Node8&#45;&gt;Node9 -->
<g id="edge10_Node000008_Node000009" class="edge">
<title>Node8&#45;&gt;Node9</title>
<g id="a_edge10_Node000008_Node000009"><a xlink:title=" ">
<path fill="none" stroke="#63b8ff" d="M680.43,-68.51C687.26,-59.74 694.61,-50.3 700.9,-42.23"/>
<polygon fill="#63b8ff" stroke="#63b8ff" points="677.87,-66.09 674.49,-76.13 683.4,-70.39 677.87,-66.09"/>
</a>
</g>
</g>
<!-- Node10 -->
<g id="Node000010" class="node">
<title>Node10</title>
<g id="a_Node000010"><a xlink:href="StorageDevice_8cpp.html" target="_top" xlink:title=" ">
<polygon fill="white" stroke="#666666" points="939.5,-41.75 802,-41.75 802,0 939.5,0 939.5,-41.75"/>
<text text-anchor="start" x="810" y="-28.25" font-family="Helvetica,sans-Serif" font-size="10.00">/github/workspace/dev</text>
<text text-anchor="start" x="810" y="-17" font-family="Helvetica,sans-Serif" font-size="10.00">_area/build/coredal/codegen</text>
<text text-anchor="middle" x="870.75" y="-5.75" font-family="Helvetica,sans-Serif" font-size="10.00">/src/StorageDevice.cpp</text>
</a>
</g>
</g>
<!-- Node8&#45;&gt;Node10 -->
<g id="edge12_Node000008_Node000010" class="edge">
<title>Node8&#45;&gt;Node10</title>
<g id="a_edge12_Node000008_Node000010"><a xlink:title=" ">
<path fill="none" stroke="#63b8ff" d="M725.46,-73.54C753.81,-63.46 786.39,-51.88 813.51,-42.23"/>
<polygon fill="#63b8ff" stroke="#63b8ff" points="724.51,-70.17 716.26,-76.82 726.85,-76.77 724.51,-70.17"/>
</a>
</g>
</g>
</g>
</svg>
