<?xml version="1.0" encoding="UTF-8" standalone="no"?>
<!DOCTYPE svg PUBLIC "-//W3C//DTD SVG 1.1//EN"
 "http://www.w3.org/Graphics/SVG/1.1/DTD/svg11.dtd">
<!-- Generated by graphviz version 9.0.0 (20230911.1827)
 -->
<!-- Title: /github/workspace/dev_area/build/appdal/codegen/include/appdal/ModuleLevelTriggerConf.hpp Pages: 1 -->
<svg width="797pt" height="139pt"
 viewBox="0.00 0.00 796.62 138.75" xmlns="http://www.w3.org/2000/svg" xmlns:xlink="http://www.w3.org/1999/xlink">
<g id="graph0" class="graph" transform="scale(1 1) rotate(0) translate(4 134.75)">
<title>/github/workspace/dev_area/build/appdal/codegen/include/appdal/ModuleLevelTriggerConf.hpp</title>
<!-- Node1 -->
<g id="Node000001" class="node">
<title>Node1</title>
<g id="a_Node000001"><a xlink:title=" ">
<polygon fill="#999999" stroke="#666666" points="474.12,-130.75 304.38,-130.75 304.38,-77.75 474.12,-77.75 474.12,-130.75"/>
<text text-anchor="start" x="312.38" y="-117.25" font-family="Helvetica,sans-Serif" font-size="10.00">/github/workspace/dev</text>
<text text-anchor="start" x="312.38" y="-106" font-family="Helvetica,sans-Serif" font-size="10.00">_area/build/appdal/codegen</text>
<text text-anchor="start" x="312.38" y="-94.75" font-family="Helvetica,sans-Serif" font-size="10.00">/include/appdal/ModuleLevelTrigger</text>
<text text-anchor="middle" x="389.25" y="-83.5" font-family="Helvetica,sans-Serif" font-size="10.00">Conf.hpp</text>
</a>
</g>
</g>
<!-- Node2 -->
<g id="Node000002" class="node">
<title>Node2</title>
<g id="a_Node000002"><a xlink:href="build_2appdal_2codegen_2src_2MLTApplication_8cpp.html" target="_top" xlink:title=" ">
<polygon fill="white" stroke="#666666" points="134.5,-41.75 0,-41.75 0,0 134.5,0 134.5,-41.75"/>
<text text-anchor="start" x="8" y="-28.25" font-family="Helvetica,sans-Serif" font-size="10.00">/github/workspace/dev</text>
<text text-anchor="start" x="8" y="-17" font-family="Helvetica,sans-Serif" font-size="10.00">_area/build/appdal/codegen</text>
<text text-anchor="middle" x="67.25" y="-5.75" font-family="Helvetica,sans-Serif" font-size="10.00">/src/MLTApplication.cpp</text>
</a>
</g>
</g>
<!-- Node1&#45;&gt;Node2 -->
<g id="edge1_Node000001_Node000002" class="edge">
<title>Node1&#45;&gt;Node2</title>
<g id="a_edge1_Node000001_Node000002"><a xlink:title=" ">
<path fill="none" stroke="#63b8ff" d="M293.05,-79.46C247.6,-68.15 192.6,-54.37 143.25,-41.75 140.48,-41.04 137.64,-40.31 134.79,-39.58"/>
<polygon fill="#63b8ff" stroke="#63b8ff" points="292.07,-82.82 302.62,-81.84 293.76,-76.03 292.07,-82.82"/>
</a>
</g>
</g>
<!-- Node3 -->
<g id="Node000003" class="node">
<title>Node3</title>
<g id="a_Node000003"><a xlink:href="ModuleLevelTrigger_8cpp.html" target="_top" xlink:title=" ">
<polygon fill="white" stroke="#666666" points="291.75,-41.75 152.75,-41.75 152.75,0 291.75,0 291.75,-41.75"/>
<text text-anchor="start" x="160.75" y="-28.25" font-family="Helvetica,sans-Serif" font-size="10.00">/github/workspace/dev</text>
<text text-anchor="start" x="160.75" y="-17" font-family="Helvetica,sans-Serif" font-size="10.00">_area/build/appdal/codegen</text>
<text text-anchor="middle" x="222.25" y="-5.75" font-family="Helvetica,sans-Serif" font-size="10.00">/src/ModuleLevelTrigger.cpp</text>
</a>
</g>
</g>
<!-- Node1&#45;&gt;Node3 -->
<g id="edge2_Node000001_Node000003" class="edge">
<title>Node1&#45;&gt;Node3</title>
<g id="a_edge2_Node000001_Node000003"><a xlink:title=" ">
<path fill="none" stroke="#63b8ff" d="M325.65,-72.26C304.99,-62.19 282.59,-51.28 263.95,-42.19"/>
<polygon fill="#63b8ff" stroke="#63b8ff" points="324.07,-75.38 334.59,-76.62 327.13,-69.09 324.07,-75.38"/>
</a>
</g>
</g>
<!-- Node4 -->
<g id="Node000004" class="node">
<title>Node4</title>
<g id="a_Node000004"><a xlink:href="ModuleLevelTriggerConf_8cpp.html" target="_top" xlink:title=" ">
<polygon fill="white" stroke="#666666" points="468.88,-41.75 309.62,-41.75 309.62,0 468.88,0 468.88,-41.75"/>
<text text-anchor="start" x="317.62" y="-28.25" font-family="Helvetica,sans-Serif" font-size="10.00">/github/workspace/dev</text>
<text text-anchor="start" x="317.62" y="-17" font-family="Helvetica,sans-Serif" font-size="10.00">_area/build/appdal/codegen</text>
<text text-anchor="middle" x="389.25" y="-5.75" font-family="Helvetica,sans-Serif" font-size="10.00">/src/ModuleLevelTriggerConf.cpp</text>
</a>
</g>
</g>
<!-- Node1&#45;&gt;Node4 -->
<g id="edge3_Node000001_Node000004" class="edge">
<title>Node1&#45;&gt;Node4</title>
<g id="a_edge3_Node000001_Node000004"><a xlink:title=" ">
<path fill="none" stroke="#63b8ff" d="M389.25,-66.08C389.25,-57.8 389.25,-49.33 389.25,-42.04"/>
<polygon fill="#63b8ff" stroke="#63b8ff" points="385.75,-65.99 389.25,-75.99 392.75,-65.99 385.75,-65.99"/>
</a>
</g>
</g>
<!-- Node5 -->
<g id="Node000005" class="node">
<title>Node5</title>
<g id="a_Node000005"><a xlink:href="dump__dunedaq____appdal_8cpp.html" target="_top" xlink:title=" ">
<polygon fill="white" stroke="#666666" points="645.5,-41.75 487,-41.75 487,0 645.5,0 645.5,-41.75"/>
<text text-anchor="start" x="495" y="-28.25" font-family="Helvetica,sans-Serif" font-size="10.00">/github/workspace/dev</text>
<text text-anchor="start" x="495" y="-17" font-family="Helvetica,sans-Serif" font-size="10.00">_area/build/appdal/codegen</text>
<text text-anchor="middle" x="566.25" y="-5.75" font-family="Helvetica,sans-Serif" font-size="10.00">/src/dump_dunedaq__appdal.cpp</text>
</a>
</g>
</g>
<!-- Node1&#45;&gt;Node5 -->
<g id="edge4_Node000001_Node000005" class="edge">
<title>Node1&#45;&gt;Node5</title>
<g id="a_edge4_Node000001_Node000005"><a xlink:title=" ">
<path fill="none" stroke="#63b8ff" d="M456.06,-72.54C478.13,-62.39 502.11,-51.36 522.05,-42.19"/>
<polygon fill="#63b8ff" stroke="#63b8ff" points="454.74,-69.29 447.12,-76.65 457.66,-75.65 454.74,-69.29"/>
</a>
</g>
</g>
<!-- Node6 -->
<g id="Node000006" class="node">
<title>Node6</title>
<g id="a_Node000006"><a xlink:href="sourcecode_2appdal_2src_2MLTApplication_8cpp.html" target="_top" xlink:title=" ">
<polygon fill="white" stroke="#666666" points="788.62,-41.75 663.88,-41.75 663.88,0 788.62,0 788.62,-41.75"/>
<text text-anchor="start" x="671.88" y="-28.25" font-family="Helvetica,sans-Serif" font-size="10.00">/github/workspace/dev</text>
<text text-anchor="start" x="671.88" y="-17" font-family="Helvetica,sans-Serif" font-size="10.00">_area/sourcecode/appdal</text>
<text text-anchor="middle" x="726.25" y="-5.75" font-family="Helvetica,sans-Serif" font-size="10.00">/src/MLTApplication.cpp</text>
</a>
</g>
</g>
<!-- Node1&#45;&gt;Node6 -->
<g id="edge5_Node000001_Node000006" class="edge">
<title>Node1&#45;&gt;Node6</title>
<g id="a_edge5_Node000001_Node000006"><a xlink:title=" ">
<path fill="none" stroke="#63b8ff" d="M485.71,-81.87C536.06,-70.46 598.61,-55.88 654.25,-41.75 657.27,-40.98 660.35,-40.19 663.46,-39.37"/>
<polygon fill="#63b8ff" stroke="#63b8ff" points="484.96,-78.45 475.98,-84.07 486.5,-85.28 484.96,-78.45"/>
</a>
</g>
</g>
</g>
</svg>
