<?xml version="1.0" encoding="UTF-8" standalone="no"?>
<!DOCTYPE svg PUBLIC "-//W3C//DTD SVG 1.1//EN"
 "http://www.w3.org/Graphics/SVG/1.1/DTD/svg11.dtd">
<!-- Generated by graphviz version 9.0.0 (20230911.1827)
 -->
<!-- Title: /github/workspace/dev_area/build/coredal/codegen/include/coredal/ReadoutInterface.hpp Pages: 1 -->
<svg width="2121pt" height="294pt"
 viewBox="0.00 0.00 2121.00 294.25" xmlns="http://www.w3.org/2000/svg" xmlns:xlink="http://www.w3.org/1999/xlink">
<g id="graph0" class="graph" transform="scale(1 1) rotate(0) translate(4 290.25)">
<title>/github/workspace/dev_area/build/coredal/codegen/include/coredal/ReadoutInterface.hpp</title>
<!-- Node1 -->
<g id="Node000001" class="node">
<title>Node1</title>
<g id="a_Node000001"><a xlink:title=" ">
<polygon fill="#999999" stroke="#666666" points="1290,-286.25 1110.5,-286.25 1110.5,-244.5 1290,-244.5 1290,-286.25"/>
<text text-anchor="start" x="1118.5" y="-272.75" font-family="Helvetica,sans-Serif" font-size="10.00">/github/workspace/dev</text>
<text text-anchor="start" x="1118.5" y="-261.5" font-family="Helvetica,sans-Serif" font-size="10.00">_area/build/coredal/codegen</text>
<text text-anchor="middle" x="1200.25" y="-250.25" font-family="Helvetica,sans-Serif" font-size="10.00">/include/coredal/ReadoutInterface.hpp</text>
</a>
</g>
</g>
<!-- Node2 -->
<g id="Node000002" class="node">
<title>Node2</title>
<g id="a_Node000002"><a xlink:href="include_2appdal_2FelixInterface_8hpp.html" target="_top" xlink:title=" ">
<polygon fill="white" stroke="#666666" points="407.62,-202.88 246.88,-202.88 246.88,-161.12 407.62,-161.12 407.62,-202.88"/>
<text text-anchor="start" x="254.88" y="-189.38" font-family="Helvetica,sans-Serif" font-size="10.00">/github/workspace/dev</text>
<text text-anchor="start" x="254.88" y="-178.12" font-family="Helvetica,sans-Serif" font-size="10.00">_area/build/appdal/codegen</text>
<text text-anchor="middle" x="327.25" y="-166.88" font-family="Helvetica,sans-Serif" font-size="10.00">/include/appdal/FelixInterface.hpp</text>
</a>
</g>
</g>
<!-- Node1&#45;&gt;Node2 -->
<g id="edge1_Node000001_Node000002" class="edge">
<title>Node1&#45;&gt;Node2</title>
<g id="a_edge1_Node000001_Node000002"><a xlink:title=" ">
<path fill="none" stroke="#63b8ff" d="M1098.72,-258.93C960.38,-250.94 705.03,-234.13 488.25,-208.5 461.97,-205.39 433.41,-201.15 407.74,-197.02"/>
<polygon fill="#63b8ff" stroke="#63b8ff" points="1098.42,-262.42 1108.6,-259.5 1098.82,-255.43 1098.42,-262.42"/>
</a>
</g>
</g>
<!-- Node7 -->
<g id="Node000007" class="node">
<title>Node7</title>
<g id="a_Node000007"><a xlink:href="include_2appdal_2NICInterface_8hpp.html" target="_top" xlink:title=" ">
<polygon fill="white" stroke="#666666" points="655.12,-202.88 497.38,-202.88 497.38,-161.12 655.12,-161.12 655.12,-202.88"/>
<text text-anchor="start" x="505.38" y="-189.38" font-family="Helvetica,sans-Serif" font-size="10.00">/github/workspace/dev</text>
<text text-anchor="start" x="505.38" y="-178.12" font-family="Helvetica,sans-Serif" font-size="10.00">_area/build/appdal/codegen</text>
<text text-anchor="middle" x="576.25" y="-166.88" font-family="Helvetica,sans-Serif" font-size="10.00">/include/appdal/NICInterface.hpp</text>
</a>
</g>
</g>
<!-- Node1&#45;&gt;Node7 -->
<g id="edge6_Node000001_Node000007" class="edge">
<title>Node1&#45;&gt;Node7</title>
<g id="a_edge6_Node000001_Node000007"><a xlink:title=" ">
<path fill="none" stroke="#63b8ff" d="M1099.14,-259.22C990.78,-252.44 814.13,-237.78 664.25,-208.5 656.91,-207.07 649.3,-205.3 641.77,-203.37"/>
<polygon fill="#63b8ff" stroke="#63b8ff" points="1098.67,-262.7 1108.87,-259.81 1099.1,-255.71 1098.67,-262.7"/>
</a>
</g>
</g>
<!-- Node12 -->
<g id="Node000012" class="node">
<title>Node12</title>
<g id="a_Node000012"><a xlink:href="DataReader_8cpp.html" target="_top" xlink:title=" ">
<polygon fill="white" stroke="#666666" points="807.5,-202.88 673,-202.88 673,-161.12 807.5,-161.12 807.5,-202.88"/>
<text text-anchor="start" x="681" y="-189.38" font-family="Helvetica,sans-Serif" font-size="10.00">/github/workspace/dev</text>
<text text-anchor="start" x="681" y="-178.12" font-family="Helvetica,sans-Serif" font-size="10.00">_area/build/appdal/codegen</text>
<text text-anchor="middle" x="740.25" y="-166.88" font-family="Helvetica,sans-Serif" font-size="10.00">/src/DataReader.cpp</text>
</a>
</g>
</g>
<!-- Node1&#45;&gt;Node12 -->
<g id="edge13_Node000001_Node000012" class="edge">
<title>Node1&#45;&gt;Node12</title>
<g id="a_edge13_Node000001_Node000012"><a xlink:title=" ">
<path fill="none" stroke="#63b8ff" d="M1098.8,-254.47C1021.07,-245.71 911.52,-230.8 817.25,-208.5 810.95,-207.01 804.42,-205.23 797.96,-203.31"/>
<polygon fill="#63b8ff" stroke="#63b8ff" points="1098.2,-257.93 1108.53,-255.55 1098.97,-250.97 1098.2,-257.93"/>
</a>
</g>
</g>
<!-- Node13 -->
<g id="Node000013" class="node">
<title>Node13</title>
<g id="a_Node000013"><a xlink:href="src_2FelixInterface_8hpp.html" target="_top" xlink:title=" ">
<polygon fill="white" stroke="#666666" points="960.5,-202.88 826,-202.88 826,-161.12 960.5,-161.12 960.5,-202.88"/>
<text text-anchor="start" x="834" y="-189.38" font-family="Helvetica,sans-Serif" font-size="10.00">/github/workspace/dev</text>
<text text-anchor="start" x="834" y="-178.12" font-family="Helvetica,sans-Serif" font-size="10.00">_area/build/appdal/codegen</text>
<text text-anchor="middle" x="893.25" y="-166.88" font-family="Helvetica,sans-Serif" font-size="10.00">/src/FelixInterface.hpp</text>
</a>
</g>
</g>
<!-- Node1&#45;&gt;Node13 -->
<g id="edge14_Node000001_Node000013" class="edge">
<title>Node1&#45;&gt;Node13</title>
<g id="a_edge14_Node000001_Node000013"><a xlink:title=" ">
<path fill="none" stroke="#63b8ff" d="M1099.06,-241.67C1058.78,-232.15 1012.13,-220.5 970.25,-208.5 964.56,-206.87 958.67,-205.09 952.79,-203.25"/>
<polygon fill="#63b8ff" stroke="#63b8ff" points="1098.23,-245.07 1108.77,-243.95 1099.83,-238.26 1098.23,-245.07"/>
</a>
</g>
</g>
<!-- Node14 -->
<g id="Node000014" class="node">
<title>Node14</title>
<g id="a_Node000014"><a xlink:href="src_2NICInterface_8hpp.html" target="_top" xlink:title=" ">
<polygon fill="white" stroke="#666666" points="1113.5,-202.88 979,-202.88 979,-161.12 1113.5,-161.12 1113.5,-202.88"/>
<text text-anchor="start" x="987" y="-189.38" font-family="Helvetica,sans-Serif" font-size="10.00">/github/workspace/dev</text>
<text text-anchor="start" x="987" y="-178.12" font-family="Helvetica,sans-Serif" font-size="10.00">_area/build/appdal/codegen</text>
<text text-anchor="middle" x="1046.25" y="-166.88" font-family="Helvetica,sans-Serif" font-size="10.00">/src/NICInterface.hpp</text>
</a>
</g>
</g>
<!-- Node1&#45;&gt;Node14 -->
<g id="edge15_Node000001_Node000014" class="edge">
<title>Node1&#45;&gt;Node14</title>
<g id="a_edge15_Node000001_Node000014"><a xlink:title=" ">
<path fill="none" stroke="#63b8ff" d="M1151.81,-238.78C1130.19,-227.35 1105.07,-214.08 1084.76,-203.35"/>
<polygon fill="#63b8ff" stroke="#63b8ff" points="1149.97,-241.77 1160.45,-243.34 1153.24,-235.58 1149.97,-241.77"/>
</a>
</g>
</g>
<!-- Node15 -->
<g id="Node000015" class="node">
<title>Node15</title>
<g id="a_Node000015"><a xlink:href="ReadoutInterface_8cpp.html" target="_top" xlink:title=" ">
<polygon fill="white" stroke="#666666" points="1269,-202.88 1131.5,-202.88 1131.5,-161.12 1269,-161.12 1269,-202.88"/>
<text text-anchor="start" x="1139.5" y="-189.38" font-family="Helvetica,sans-Serif" font-size="10.00">/github/workspace/dev</text>
<text text-anchor="start" x="1139.5" y="-178.12" font-family="Helvetica,sans-Serif" font-size="10.00">_area/build/coredal/codegen</text>
<text text-anchor="middle" x="1200.25" y="-166.88" font-family="Helvetica,sans-Serif" font-size="10.00">/src/ReadoutInterface.cpp</text>
</a>
</g>
</g>
<!-- Node1&#45;&gt;Node15 -->
<g id="edge16_Node000001_Node000015" class="edge">
<title>Node1&#45;&gt;Node15</title>
<g id="a_edge16_Node000001_Node000015"><a xlink:title=" ">
<path fill="none" stroke="#63b8ff" d="M1200.25,-233.02C1200.25,-222.99 1200.25,-212.17 1200.25,-203.17"/>
<polygon fill="#63b8ff" stroke="#63b8ff" points="1196.75,-232.75 1200.25,-242.75 1203.75,-232.75 1196.75,-232.75"/>
</a>
</g>
</g>
<!-- Node16 -->
<g id="Node000016" class="node">
<title>Node16</title>
<g id="a_Node000016"><a xlink:href="dump__dunedaq____coredal_8cpp.html" target="_top" xlink:title=" ">
<polygon fill="white" stroke="#666666" points="1449,-202.88 1287.5,-202.88 1287.5,-161.12 1449,-161.12 1449,-202.88"/>
<text text-anchor="start" x="1295.5" y="-189.38" font-family="Helvetica,sans-Serif" font-size="10.00">/github/workspace/dev</text>
<text text-anchor="start" x="1295.5" y="-178.12" font-family="Helvetica,sans-Serif" font-size="10.00">_area/build/coredal/codegen</text>
<text text-anchor="middle" x="1368.25" y="-166.88" font-family="Helvetica,sans-Serif" font-size="10.00">/src/dump_dunedaq__coredal.cpp</text>
</a>
</g>
</g>
<!-- Node1&#45;&gt;Node16 -->
<g id="edge17_Node000001_Node000016" class="edge">
<title>Node1&#45;&gt;Node16</title>
<g id="a_edge17_Node000001_Node000016"><a xlink:title=" ">
<path fill="none" stroke="#63b8ff" d="M1252.45,-239.09C1276.18,-227.59 1303.88,-214.18 1326.24,-203.35"/>
<polygon fill="#63b8ff" stroke="#63b8ff" points="1251.05,-235.88 1243.57,-243.39 1254.1,-242.18 1251.05,-235.88"/>
</a>
</g>
</g>
<!-- Node17 -->
<g id="Node000017" class="node">
<title>Node17</title>
<g id="a_Node000017"><a xlink:href="sourcecode_2appdal_2src_2MLTApplication_8cpp.html" target="_top" xlink:title=" ">
<polygon fill="white" stroke="#666666" points="1591.62,-202.88 1466.88,-202.88 1466.88,-161.12 1591.62,-161.12 1591.62,-202.88"/>
<text text-anchor="start" x="1474.88" y="-189.38" font-family="Helvetica,sans-Serif" font-size="10.00">/github/workspace/dev</text>
<text text-anchor="start" x="1474.88" y="-178.12" font-family="Helvetica,sans-Serif" font-size="10.00">_area/sourcecode/appdal</text>
<text text-anchor="middle" x="1529.25" y="-166.88" font-family="Helvetica,sans-Serif" font-size="10.00">/src/MLTApplication.cpp</text>
</a>
</g>
</g>
<!-- Node1&#45;&gt;Node17 -->
<g id="edge18_Node000001_Node000017" class="edge">
<title>Node1&#45;&gt;Node17</title>
<g id="a_edge18_Node000001_Node000017"><a xlink:title=" ">
<path fill="none" stroke="#63b8ff" d="M1301.24,-245.71C1349.18,-236.03 1407.06,-223.17 1458.25,-208.5 1463.66,-206.95 1469.26,-205.2 1474.83,-203.36"/>
<polygon fill="#63b8ff" stroke="#63b8ff" points="1300.83,-242.22 1291.71,-247.61 1302.2,-249.08 1300.83,-242.22"/>
</a>
</g>
</g>
<!-- Node18 -->
<g id="Node000018" class="node">
<title>Node18</title>
<g id="a_Node000018"><a xlink:href="sourcecode_2appdal_2src_2ReadoutApplication_8cpp.html" target="_top" xlink:title=" ">
<polygon fill="white" stroke="#666666" points="1747,-202.88 1609.5,-202.88 1609.5,-161.12 1747,-161.12 1747,-202.88"/>
<text text-anchor="start" x="1617.5" y="-189.38" font-family="Helvetica,sans-Serif" font-size="10.00">/github/workspace/dev</text>
<text text-anchor="start" x="1617.5" y="-178.12" font-family="Helvetica,sans-Serif" font-size="10.00">_area/sourcecode/appdal</text>
<text text-anchor="middle" x="1678.25" y="-166.88" font-family="Helvetica,sans-Serif" font-size="10.00">/src/ReadoutApplication.cpp</text>
</a>
</g>
</g>
<!-- Node1&#45;&gt;Node18 -->
<g id="edge19_Node000001_Node000018" class="edge">
<title>Node1&#45;&gt;Node18</title>
<g id="a_edge19_Node000001_Node000018"><a xlink:title=" ">
<path fill="none" stroke="#63b8ff" d="M1301.69,-255.22C1383.09,-246.68 1499.94,-231.71 1600.25,-208.5 1606.63,-207.02 1613.24,-205.25 1619.79,-203.34"/>
<polygon fill="#63b8ff" stroke="#63b8ff" points="1301.54,-251.72 1291.95,-256.23 1302.26,-258.68 1301.54,-251.72"/>
</a>
</g>
</g>
<!-- Node19 -->
<g id="Node000019" class="node">
<title>Node19</title>
<g id="a_Node000019"><a xlink:href="sourcecode_2appdal_2src_2TriggerApplication_8cpp.html" target="_top" xlink:title=" ">
<polygon fill="white" stroke="#666666" points="1897,-202.88 1765.5,-202.88 1765.5,-161.12 1897,-161.12 1897,-202.88"/>
<text text-anchor="start" x="1773.5" y="-189.38" font-family="Helvetica,sans-Serif" font-size="10.00">/github/workspace/dev</text>
<text text-anchor="start" x="1773.5" y="-178.12" font-family="Helvetica,sans-Serif" font-size="10.00">_area/sourcecode/appdal</text>
<text text-anchor="middle" x="1831.25" y="-166.88" font-family="Helvetica,sans-Serif" font-size="10.00">/src/TriggerApplication.cpp</text>
</a>
</g>
</g>
<!-- Node1&#45;&gt;Node19 -->
<g id="edge20_Node000001_Node000019" class="edge">
<title>Node1&#45;&gt;Node19</title>
<g id="a_edge20_Node000001_Node000019"><a xlink:title=" ">
<path fill="none" stroke="#63b8ff" d="M1301.61,-261.1C1413.89,-255.89 1599.75,-242.5 1756.25,-208.5 1762.7,-207.1 1769.37,-205.33 1775.95,-203.37"/>
<polygon fill="#63b8ff" stroke="#63b8ff" points="1301.65,-257.6 1291.82,-261.55 1301.96,-264.59 1301.65,-257.6"/>
</a>
</g>
</g>
<!-- Node20 -->
<g id="Node000020" class="node">
<title>Node20</title>
<g id="a_Node000020"><a xlink:href="FakeCardReaderBase_8hpp.html" target="_top" xlink:title=" ">
<polygon fill="white" stroke="#666666" points="2113,-208.5 1915.5,-208.5 1915.5,-155.5 2113,-155.5 2113,-208.5"/>
<text text-anchor="start" x="1923.5" y="-195" font-family="Helvetica,sans-Serif" font-size="10.00">/github/workspace/dev</text>
<text text-anchor="start" x="1923.5" y="-183.75" font-family="Helvetica,sans-Serif" font-size="10.00">_area/sourcecode/readoutmodules</text>
<text text-anchor="start" x="1923.5" y="-172.5" font-family="Helvetica,sans-Serif" font-size="10.00">/include/readoutmodules/FakeCardReader</text>
<text text-anchor="middle" x="2014.25" y="-161.25" font-family="Helvetica,sans-Serif" font-size="10.00">Base.hpp</text>
</a>
</g>
</g>
<!-- Node1&#45;&gt;Node20 -->
<g id="edge21_Node000001_Node000020" class="edge">
<title>Node1&#45;&gt;Node20</title>
<g id="a_edge21_Node000001_Node000020"><a xlink:title=" ">
<path fill="none" stroke="#63b8ff" d="M1301.81,-261.21C1439.49,-255.82 1692.7,-241.96 1906.25,-208.5 1909.2,-208.04 1912.19,-207.54 1915.2,-207.01"/>
<polygon fill="#63b8ff" stroke="#63b8ff" points="1301.85,-257.71 1291.99,-261.59 1302.12,-264.7 1301.85,-257.71"/>
</a>
</g>
</g>
<!-- Node3 -->
<g id="Node000003" class="node">
<title>Node3</title>
<g id="a_Node000003"><a xlink:href="FelixInterface_8cpp.html" target="_top" xlink:title=" ">
<polygon fill="white" stroke="#666666" points="134.5,-119.5 0,-119.5 0,-77.75 134.5,-77.75 134.5,-119.5"/>
<text text-anchor="start" x="8" y="-106" font-family="Helvetica,sans-Serif" font-size="10.00">/github/workspace/dev</text>
<text text-anchor="start" x="8" y="-94.75" font-family="Helvetica,sans-Serif" font-size="10.00">_area/build/appdal/codegen</text>
<text text-anchor="middle" x="67.25" y="-83.5" font-family="Helvetica,sans-Serif" font-size="10.00">/src/FelixInterface.cpp</text>
</a>
</g>
</g>
<!-- Node2&#45;&gt;Node3 -->
<g id="edge2_Node000002_Node000003" class="edge">
<title>Node2&#45;&gt;Node3</title>
<g id="a_edge2_Node000002_Node000003"><a xlink:title=" ">
<path fill="none" stroke="#63b8ff" d="M251.36,-157.25C213.6,-145.43 168.41,-131.29 132.26,-119.97"/>
<polygon fill="#63b8ff" stroke="#63b8ff" points="250.28,-160.58 260.87,-160.22 252.37,-153.9 250.28,-160.58"/>
</a>
</g>
</g>
<!-- Node4 -->
<g id="Node000004" class="node">
<title>Node4</title>
<g id="a_Node000004"><a xlink:href="dump__dunedaq____appdal_8cpp.html" target="_top" xlink:title=" ">
<polygon fill="white" stroke="#666666" points="448.5,-119.5 290,-119.5 290,-77.75 448.5,-77.75 448.5,-119.5"/>
<text text-anchor="start" x="298" y="-106" font-family="Helvetica,sans-Serif" font-size="10.00">/github/workspace/dev</text>
<text text-anchor="start" x="298" y="-94.75" font-family="Helvetica,sans-Serif" font-size="10.00">_area/build/appdal/codegen</text>
<text text-anchor="middle" x="369.25" y="-83.5" font-family="Helvetica,sans-Serif" font-size="10.00">/src/dump_dunedaq__appdal.cpp</text>
</a>
</g>
</g>
<!-- Node2&#45;&gt;Node4 -->
<g id="edge3_Node000002_Node000004" class="edge">
<title>Node2&#45;&gt;Node4</title>
<g id="a_edge3_Node000002_Node000004"><a xlink:title=" ">
<path fill="none" stroke="#63b8ff" d="M342.76,-150.94C348.12,-140.56 353.99,-129.19 358.84,-119.79"/>
<polygon fill="#63b8ff" stroke="#63b8ff" points="339.8,-149.05 338.33,-159.54 346.02,-152.26 339.8,-149.05"/>
</a>
</g>
</g>
<!-- Node5 -->
<g id="Node000005" class="node">
<title>Node5</title>
<g id="a_Node000005"><a xlink:href="CardWrapper_8hpp.html" target="_top" xlink:title=" ">
<polygon fill="white" stroke="#666666" points="272.38,-119.5 152.12,-119.5 152.12,-77.75 272.38,-77.75 272.38,-119.5"/>
<text text-anchor="start" x="160.12" y="-106" font-family="Helvetica,sans-Serif" font-size="10.00">/github/workspace/dev</text>
<text text-anchor="start" x="160.12" y="-94.75" font-family="Helvetica,sans-Serif" font-size="10.00">_area/sourcecode/flxlibs</text>
<text text-anchor="middle" x="212.25" y="-83.5" font-family="Helvetica,sans-Serif" font-size="10.00">/src/CardWrapper.hpp</text>
</a>
</g>
</g>
<!-- Node2&#45;&gt;Node5 -->
<g id="edge4_Node000002_Node000005" class="edge">
<title>Node2&#45;&gt;Node5</title>
<g id="a_edge4_Node000002_Node000005"><a xlink:title=" ">
<path fill="none" stroke="#63b8ff" d="M289.54,-154.31C273.75,-143.14 255.69,-130.36 241.01,-119.97"/>
<polygon fill="#63b8ff" stroke="#63b8ff" points="287.11,-156.88 297.29,-159.8 291.15,-151.17 287.11,-156.88"/>
</a>
</g>
</g>
<!-- Node6 -->
<g id="Node000006" class="node">
<title>Node6</title>
<g id="a_Node000006"><a xlink:href="CardWrapper_8cpp.html" target="_top" xlink:title=" ">
<polygon fill="white" stroke="#666666" points="272.38,-41.75 152.12,-41.75 152.12,0 272.38,0 272.38,-41.75"/>
<text text-anchor="start" x="160.12" y="-28.25" font-family="Helvetica,sans-Serif" font-size="10.00">/github/workspace/dev</text>
<text text-anchor="start" x="160.12" y="-17" font-family="Helvetica,sans-Serif" font-size="10.00">_area/sourcecode/flxlibs</text>
<text text-anchor="middle" x="212.25" y="-5.75" font-family="Helvetica,sans-Serif" font-size="10.00">/src/CardWrapper.cpp</text>
</a>
</g>
</g>
<!-- Node5&#45;&gt;Node6 -->
<g id="edge5_Node000005_Node000006" class="edge">
<title>Node5&#45;&gt;Node6</title>
<g id="a_edge5_Node000005_Node000006"><a xlink:title=" ">
<path fill="none" stroke="#63b8ff" d="M212.25,-66C212.25,-57.96 212.25,-49.54 212.25,-42.23"/>
<polygon fill="#63b8ff" stroke="#63b8ff" points="208.75,-65.81 212.25,-75.81 215.75,-65.81 208.75,-65.81"/>
</a>
</g>
</g>
<!-- Node7&#45;&gt;Node4 -->
<g id="edge9_Node000007_Node000004" class="edge">
<title>Node7&#45;&gt;Node4</title>
<g id="a_edge9_Node000007_Node000004"><a xlink:title=" ">
<path fill="none" stroke="#63b8ff" d="M513.89,-156.48C484.22,-144.82 449.17,-131.04 421.01,-119.97"/>
<polygon fill="#63b8ff" stroke="#63b8ff" points="512.55,-159.72 523.14,-160.12 515.11,-153.21 512.55,-159.72"/>
</a>
</g>
</g>
<!-- Node8 -->
<g id="Node000008" class="node">
<title>Node8</title>
<g id="a_Node000008"><a xlink:href="HermesLinkConf_8cpp.html" target="_top" xlink:title=" ">
<polygon fill="white" stroke="#666666" points="601.5,-119.5 467,-119.5 467,-77.75 601.5,-77.75 601.5,-119.5"/>
<text text-anchor="start" x="475" y="-106" font-family="Helvetica,sans-Serif" font-size="10.00">/github/workspace/dev</text>
<text text-anchor="start" x="475" y="-94.75" font-family="Helvetica,sans-Serif" font-size="10.00">_area/build/appdal/codegen</text>
<text text-anchor="middle" x="534.25" y="-83.5" font-family="Helvetica,sans-Serif" font-size="10.00">/src/HermesLinkConf.cpp</text>
</a>
</g>
</g>
<!-- Node7&#45;&gt;Node8 -->
<g id="edge7_Node000007_Node000008" class="edge">
<title>Node7&#45;&gt;Node8</title>
<g id="a_edge7_Node000007_Node000008"><a xlink:title=" ">
<path fill="none" stroke="#63b8ff" d="M560.74,-150.94C555.38,-140.56 549.51,-129.19 544.66,-119.79"/>
<polygon fill="#63b8ff" stroke="#63b8ff" points="557.48,-152.26 565.17,-159.54 563.7,-149.05 557.48,-152.26"/>
</a>
</g>
</g>
<!-- Node9 -->
<g id="Node000009" class="node">
<title>Node9</title>
<g id="a_Node000009"><a xlink:href="NICInterface_8cpp.html" target="_top" xlink:title=" ">
<polygon fill="white" stroke="#666666" points="754.5,-119.5 620,-119.5 620,-77.75 754.5,-77.75 754.5,-119.5"/>
<text text-anchor="start" x="628" y="-106" font-family="Helvetica,sans-Serif" font-size="10.00">/github/workspace/dev</text>
<text text-anchor="start" x="628" y="-94.75" font-family="Helvetica,sans-Serif" font-size="10.00">_area/build/appdal/codegen</text>
<text text-anchor="middle" x="687.25" y="-83.5" font-family="Helvetica,sans-Serif" font-size="10.00">/src/NICInterface.cpp</text>
</a>
</g>
</g>
<!-- Node7&#45;&gt;Node9 -->
<g id="edge8_Node000007_Node000009" class="edge">
<title>Node7&#45;&gt;Node9</title>
<g id="a_edge8_Node000007_Node000009"><a xlink:title=" ">
<path fill="none" stroke="#63b8ff" d="M613.08,-154C628.22,-142.9 645.45,-130.27 659.5,-119.97"/>
<polygon fill="#63b8ff" stroke="#63b8ff" points="611.19,-151.05 605.19,-159.78 615.33,-156.69 611.19,-151.05"/>
</a>
</g>
</g>
<!-- Node10 -->
<g id="Node000010" class="node">
<title>Node10</title>
<g id="a_Node000010"><a xlink:href="IfaceWrapper_8cpp.html" target="_top" xlink:title=" ">
<polygon fill="white" stroke="#666666" points="895.38,-41.75 763.12,-41.75 763.12,0 895.38,0 895.38,-41.75"/>
<text text-anchor="start" x="771.12" y="-28.25" font-family="Helvetica,sans-Serif" font-size="10.00">/github/workspace/dev</text>
<text text-anchor="start" x="771.12" y="-17" font-family="Helvetica,sans-Serif" font-size="10.00">_area/sourcecode/dpdklibs</text>
<text text-anchor="middle" x="829.25" y="-5.75" font-family="Helvetica,sans-Serif" font-size="10.00">/src/IfaceWrapper.cpp</text>
</a>
</g>
</g>
<!-- Node7&#45;&gt;Node10 -->
<g id="edge10_Node000007_Node000010" class="edge">
<title>Node7&#45;&gt;Node10</title>
<g id="a_edge10_Node000007_Node000010"><a xlink:title=" ">
<path fill="none" stroke="#63b8ff" d="M656.18,-157.35C702.74,-143.11 754.06,-126.44 763.25,-119.5 790.35,-99.03 810.05,-64.06 820.56,-42"/>
<polygon fill="#63b8ff" stroke="#63b8ff" points="655.4,-153.93 646.85,-160.19 657.44,-160.63 655.4,-153.93"/>
</a>
</g>
</g>
<!-- Node11 -->
<g id="Node000011" class="node">
<title>Node11</title>
<g id="a_Node000011"><a xlink:href="IfaceWrapper_8hpp.html" target="_top" xlink:title=" ">
<polygon fill="white" stroke="#666666" points="942.38,-119.5 810.12,-119.5 810.12,-77.75 942.38,-77.75 942.38,-119.5"/>
<text text-anchor="start" x="818.12" y="-106" font-family="Helvetica,sans-Serif" font-size="10.00">/github/workspace/dev</text>
<text text-anchor="start" x="818.12" y="-94.75" font-family="Helvetica,sans-Serif" font-size="10.00">_area/sourcecode/dpdklibs</text>
<text text-anchor="middle" x="876.25" y="-83.5" font-family="Helvetica,sans-Serif" font-size="10.00">/src/IfaceWrapper.hpp</text>
</a>
</g>
</g>
<!-- Node7&#45;&gt;Node11 -->
<g id="edge11_Node000007_Node000011" class="edge">
<title>Node7&#45;&gt;Node11</title>
<g id="a_edge11_Node000007_Node000011"><a xlink:title=" ">
<path fill="none" stroke="#63b8ff" d="M656.87,-157.55C659.36,-156.86 661.82,-156.17 664.25,-155.5 712.86,-142.05 767.94,-127.56 809.77,-116.7"/>
<polygon fill="#63b8ff" stroke="#63b8ff" points="655.99,-154.17 647.31,-160.25 657.89,-160.9 655.99,-154.17"/>
</a>
</g>
</g>
<!-- Node11&#45;&gt;Node10 -->
<g id="edge12_Node000011_Node000010" class="edge">
<title>Node11&#45;&gt;Node10</title>
<g id="a_edge12_Node000011_Node000010"><a xlink:title=" ">
<path fill="none" stroke="#63b8ff" d="M857.67,-67.68C852.37,-59.14 846.73,-50.05 841.88,-42.23"/>
<polygon fill="#63b8ff" stroke="#63b8ff" points="854.61,-69.39 862.86,-76.04 860.56,-65.7 854.61,-69.39"/>
</a>
</g>
</g>
</g>
</svg>
