<?xml version="1.0" encoding="UTF-8" standalone="no"?>
<!DOCTYPE svg PUBLIC "-//W3C//DTD SVG 1.1//EN"
 "http://www.w3.org/Graphics/SVG/1.1/DTD/svg11.dtd">
<!-- Generated by graphviz version 9.0.0 (20230911.1827)
 -->
<!-- Title: /github/workspace/dev_area/build/appdal/codegen/include/appdal/FakeHSIEventGeneratorConf.hpp Pages: 1 -->
<svg width="860pt" height="139pt"
 viewBox="0.00 0.00 859.50 138.75" xmlns="http://www.w3.org/2000/svg" xmlns:xlink="http://www.w3.org/1999/xlink">
<g id="graph0" class="graph" transform="scale(1 1) rotate(0) translate(4 134.75)">
<title>/github/workspace/dev_area/build/appdal/codegen/include/appdal/FakeHSIEventGeneratorConf.hpp</title>
<!-- Node1 -->
<g id="Node000001" class="node">
<title>Node1</title>
<g id="a_Node000001"><a xlink:title=" ">
<polygon fill="#999999" stroke="#666666" points="521.62,-130.75 330.88,-130.75 330.88,-77.75 521.62,-77.75 521.62,-130.75"/>
<text text-anchor="start" x="338.88" y="-117.25" font-family="Helvetica,sans-Serif" font-size="10.00">/github/workspace/dev</text>
<text text-anchor="start" x="338.88" y="-106" font-family="Helvetica,sans-Serif" font-size="10.00">_area/build/appdal/codegen</text>
<text text-anchor="start" x="338.88" y="-94.75" font-family="Helvetica,sans-Serif" font-size="10.00">/include/appdal/FakeHSIEventGenerator</text>
<text text-anchor="middle" x="426.25" y="-83.5" font-family="Helvetica,sans-Serif" font-size="10.00">Conf.hpp</text>
</a>
</g>
</g>
<!-- Node2 -->
<g id="Node000002" class="node">
<title>Node2</title>
<g id="a_Node000002"><a xlink:href="build_2appdal_2codegen_2src_2FakeHSIApplication_8cpp.html" target="_top" xlink:title=" ">
<polygon fill="white" stroke="#666666" points="140.5,-41.75 0,-41.75 0,0 140.5,0 140.5,-41.75"/>
<text text-anchor="start" x="8" y="-28.25" font-family="Helvetica,sans-Serif" font-size="10.00">/github/workspace/dev</text>
<text text-anchor="start" x="8" y="-17" font-family="Helvetica,sans-Serif" font-size="10.00">_area/build/appdal/codegen</text>
<text text-anchor="middle" x="70.25" y="-5.75" font-family="Helvetica,sans-Serif" font-size="10.00">/src/FakeHSIApplication.cpp</text>
</a>
</g>
</g>
<!-- Node1&#45;&gt;Node2 -->
<g id="edge1_Node000001_Node000002" class="edge">
<title>Node1&#45;&gt;Node2</title>
<g id="a_edge1_Node000001_Node000002"><a xlink:title=" ">
<path fill="none" stroke="#63b8ff" d="M319.44,-80.27C267.93,-69 205.3,-55.02 149.25,-41.75 146.5,-41.1 143.69,-40.43 140.86,-39.74"/>
<polygon fill="#63b8ff" stroke="#63b8ff" points="318.6,-83.67 329.11,-82.38 320.09,-76.83 318.6,-83.67"/>
</a>
</g>
</g>
<!-- Node3 -->
<g id="Node000003" class="node">
<title>Node3</title>
<g id="a_Node000003"><a xlink:href="FakeHSIEventGenerator_8cpp.html" target="_top" xlink:title=" ">
<polygon fill="white" stroke="#666666" points="318.25,-41.75 158.25,-41.75 158.25,0 318.25,0 318.25,-41.75"/>
<text text-anchor="start" x="166.25" y="-28.25" font-family="Helvetica,sans-Serif" font-size="10.00">/github/workspace/dev</text>
<text text-anchor="start" x="166.25" y="-17" font-family="Helvetica,sans-Serif" font-size="10.00">_area/build/appdal/codegen</text>
<text text-anchor="middle" x="238.25" y="-5.75" font-family="Helvetica,sans-Serif" font-size="10.00">/src/FakeHSIEventGenerator.cpp</text>
</a>
</g>
</g>
<!-- Node1&#45;&gt;Node3 -->
<g id="edge2_Node000001_Node000003" class="edge">
<title>Node1&#45;&gt;Node3</title>
<g id="a_edge2_Node000001_Node000003"><a xlink:title=" ">
<path fill="none" stroke="#63b8ff" d="M355.93,-72.81C332.31,-62.59 306.57,-51.45 285.19,-42.19"/>
<polygon fill="#63b8ff" stroke="#63b8ff" points="354.29,-75.92 364.86,-76.68 357.07,-69.49 354.29,-75.92"/>
</a>
</g>
</g>
<!-- Node4 -->
<g id="Node000004" class="node">
<title>Node4</title>
<g id="a_Node000004"><a xlink:href="FakeHSIEventGeneratorConf_8cpp.html" target="_top" xlink:title=" ">
<polygon fill="white" stroke="#666666" points="516.38,-41.75 336.12,-41.75 336.12,0 516.38,0 516.38,-41.75"/>
<text text-anchor="start" x="344.12" y="-28.25" font-family="Helvetica,sans-Serif" font-size="10.00">/github/workspace/dev</text>
<text text-anchor="start" x="344.12" y="-17" font-family="Helvetica,sans-Serif" font-size="10.00">_area/build/appdal/codegen</text>
<text text-anchor="middle" x="426.25" y="-5.75" font-family="Helvetica,sans-Serif" font-size="10.00">/src/FakeHSIEventGeneratorConf.cpp</text>
</a>
</g>
</g>
<!-- Node1&#45;&gt;Node4 -->
<g id="edge3_Node000001_Node000004" class="edge">
<title>Node1&#45;&gt;Node4</title>
<g id="a_edge3_Node000001_Node000004"><a xlink:title=" ">
<path fill="none" stroke="#63b8ff" d="M426.25,-66.08C426.25,-57.8 426.25,-49.33 426.25,-42.04"/>
<polygon fill="#63b8ff" stroke="#63b8ff" points="422.75,-65.99 426.25,-75.99 429.75,-65.99 422.75,-65.99"/>
</a>
</g>
</g>
<!-- Node5 -->
<g id="Node000005" class="node">
<title>Node5</title>
<g id="a_Node000005"><a xlink:href="dump__dunedaq____appdal_8cpp.html" target="_top" xlink:title=" ">
<polygon fill="white" stroke="#666666" points="692.5,-41.75 534,-41.75 534,0 692.5,0 692.5,-41.75"/>
<text text-anchor="start" x="542" y="-28.25" font-family="Helvetica,sans-Serif" font-size="10.00">/github/workspace/dev</text>
<text text-anchor="start" x="542" y="-17" font-family="Helvetica,sans-Serif" font-size="10.00">_area/build/appdal/codegen</text>
<text text-anchor="middle" x="613.25" y="-5.75" font-family="Helvetica,sans-Serif" font-size="10.00">/src/dump_dunedaq__appdal.cpp</text>
</a>
</g>
</g>
<!-- Node1&#45;&gt;Node5 -->
<g id="edge4_Node000001_Node000005" class="edge">
<title>Node1&#45;&gt;Node5</title>
<g id="a_edge4_Node000001_Node000005"><a xlink:title=" ">
<path fill="none" stroke="#63b8ff" d="M496.2,-72.81C519.69,-62.59 545.3,-51.45 566.56,-42.19"/>
<polygon fill="#63b8ff" stroke="#63b8ff" points="495.09,-69.48 487.32,-76.67 497.89,-75.89 495.09,-69.48"/>
</a>
</g>
</g>
<!-- Node6 -->
<g id="Node000006" class="node">
<title>Node6</title>
<g id="a_Node000006"><a xlink:href="sourcecode_2appdal_2src_2FakeHSIApplication_8cpp.html" target="_top" xlink:title=" ">
<polygon fill="white" stroke="#666666" points="851.5,-41.75 711,-41.75 711,0 851.5,0 851.5,-41.75"/>
<text text-anchor="start" x="719" y="-28.25" font-family="Helvetica,sans-Serif" font-size="10.00">/github/workspace/dev</text>
<text text-anchor="start" x="719" y="-17" font-family="Helvetica,sans-Serif" font-size="10.00">_area/sourcecode/appdal</text>
<text text-anchor="middle" x="781.25" y="-5.75" font-family="Helvetica,sans-Serif" font-size="10.00">/src/FakeHSIApplication.cpp</text>
</a>
</g>
</g>
<!-- Node1&#45;&gt;Node6 -->
<g id="edge5_Node000001_Node000006" class="edge">
<title>Node1&#45;&gt;Node6</title>
<g id="a_edge5_Node000001_Node000006"><a xlink:title=" ">
<path fill="none" stroke="#63b8ff" d="M532.88,-80.02C583.89,-68.74 645.8,-54.84 701.25,-41.75 704.31,-41.03 707.44,-40.28 710.6,-39.52"/>
<polygon fill="#63b8ff" stroke="#63b8ff" points="532.32,-76.55 523.31,-82.13 533.82,-83.39 532.32,-76.55"/>
</a>
</g>
</g>
</g>
</svg>
