<?xml version="1.0" encoding="UTF-8" standalone="no"?>
<!DOCTYPE svg PUBLIC "-//W3C//DTD SVG 1.1//EN"
 "http://www.w3.org/Graphics/SVG/1.1/DTD/svg11.dtd">
<!-- Generated by graphviz version 9.0.0 (20230911.1827)
 -->
<!-- Title: /github/workspace/dev_area/build/appdal/codegen/include/appdal/DataRecorder.hpp Pages: 1 -->
<svg width="675pt" height="306pt"
 viewBox="0.00 0.00 675.00 305.50" xmlns="http://www.w3.org/2000/svg" xmlns:xlink="http://www.w3.org/1999/xlink">
<g id="graph0" class="graph" transform="scale(1 1) rotate(0) translate(4 301.5)">
<title>/github/workspace/dev_area/build/appdal/codegen/include/appdal/DataRecorder.hpp</title>
<!-- Node1 -->
<g id="Node000001" class="node">
<title>Node1</title>
<g id="a_Node000001"><a xlink:title=" ">
<polygon fill="#999999" stroke="#666666" points="479,-297.5 317.5,-297.5 317.5,-255.75 479,-255.75 479,-297.5"/>
<text text-anchor="start" x="325.5" y="-284" font-family="Helvetica,sans-Serif" font-size="10.00">/github/workspace/dev</text>
<text text-anchor="start" x="325.5" y="-272.75" font-family="Helvetica,sans-Serif" font-size="10.00">_area/build/appdal/codegen</text>
<text text-anchor="middle" x="398.25" y="-261.5" font-family="Helvetica,sans-Serif" font-size="10.00">/include/appdal/DataRecorder.hpp</text>
</a>
</g>
</g>
<!-- Node2 -->
<g id="Node000002" class="node">
<title>Node2</title>
<g id="a_Node000002"><a xlink:href="DataRecorder_8cpp.html" target="_top" xlink:title=" ">
<polygon fill="white" stroke="#666666" points="134.5,-214.12 0,-214.12 0,-172.38 134.5,-172.38 134.5,-214.12"/>
<text text-anchor="start" x="8" y="-200.62" font-family="Helvetica,sans-Serif" font-size="10.00">/github/workspace/dev</text>
<text text-anchor="start" x="8" y="-189.38" font-family="Helvetica,sans-Serif" font-size="10.00">_area/build/appdal/codegen</text>
<text text-anchor="middle" x="67.25" y="-178.12" font-family="Helvetica,sans-Serif" font-size="10.00">/src/DataRecorder.cpp</text>
</a>
</g>
</g>
<!-- Node1&#45;&gt;Node2 -->
<g id="edge1_Node000001_Node000002" class="edge">
<title>Node1&#45;&gt;Node2</title>
<g id="a_edge1_Node000001_Node000002"><a xlink:title=" ">
<path fill="none" stroke="#63b8ff" d="M305.98,-257.72C257.54,-247.72 197.36,-234.35 144.25,-219.75 138.41,-218.15 132.36,-216.36 126.34,-214.5"/>
<polygon fill="#63b8ff" stroke="#63b8ff" points="305.1,-261.11 315.6,-259.69 306.5,-254.25 305.1,-261.11"/>
</a>
</g>
</g>
<!-- Node3 -->
<g id="Node000003" class="node">
<title>Node3</title>
<g id="a_Node000003"><a xlink:href="dump__dunedaq____appdal_8cpp.html" target="_top" xlink:title=" ">
<polygon fill="white" stroke="#666666" points="311.5,-214.12 153,-214.12 153,-172.38 311.5,-172.38 311.5,-214.12"/>
<text text-anchor="start" x="161" y="-200.62" font-family="Helvetica,sans-Serif" font-size="10.00">/github/workspace/dev</text>
<text text-anchor="start" x="161" y="-189.38" font-family="Helvetica,sans-Serif" font-size="10.00">_area/build/appdal/codegen</text>
<text text-anchor="middle" x="232.25" y="-178.12" font-family="Helvetica,sans-Serif" font-size="10.00">/src/dump_dunedaq__appdal.cpp</text>
</a>
</g>
</g>
<!-- Node1&#45;&gt;Node3 -->
<g id="edge2_Node000001_Node000003" class="edge">
<title>Node1&#45;&gt;Node3</title>
<g id="a_edge2_Node000001_Node000003"><a xlink:title=" ">
<path fill="none" stroke="#63b8ff" d="M346.67,-250.34C323.22,-238.84 295.85,-225.43 273.76,-214.6"/>
<polygon fill="#63b8ff" stroke="#63b8ff" points="344.91,-253.38 355.43,-254.63 347.99,-247.09 344.91,-253.38"/>
</a>
</g>
</g>
<!-- Node4 -->
<g id="Node000004" class="node">
<title>Node4</title>
<g id="a_Node000004"><a xlink:href="sourcecode_2appdal_2src_2ReadoutApplication_8cpp.html" target="_top" xlink:title=" ">
<polygon fill="white" stroke="#666666" points="467,-214.12 329.5,-214.12 329.5,-172.38 467,-172.38 467,-214.12"/>
<text text-anchor="start" x="337.5" y="-200.62" font-family="Helvetica,sans-Serif" font-size="10.00">/github/workspace/dev</text>
<text text-anchor="start" x="337.5" y="-189.38" font-family="Helvetica,sans-Serif" font-size="10.00">_area/sourcecode/appdal</text>
<text text-anchor="middle" x="398.25" y="-178.12" font-family="Helvetica,sans-Serif" font-size="10.00">/src/ReadoutApplication.cpp</text>
</a>
</g>
</g>
<!-- Node1&#45;&gt;Node4 -->
<g id="edge3_Node000001_Node000004" class="edge">
<title>Node1&#45;&gt;Node4</title>
<g id="a_edge3_Node000001_Node000004"><a xlink:title=" ">
<path fill="none" stroke="#63b8ff" d="M398.25,-244.27C398.25,-234.24 398.25,-223.42 398.25,-214.42"/>
<polygon fill="#63b8ff" stroke="#63b8ff" points="394.75,-244 398.25,-254 401.75,-244 394.75,-244"/>
</a>
</g>
</g>
<!-- Node5 -->
<g id="Node000005" class="node">
<title>Node5</title>
<g id="a_Node000005"><a xlink:href="RecorderConcept_8hpp.html" target="_top" xlink:title=" ">
<polygon fill="white" stroke="#666666" points="667,-219.75 523.5,-219.75 523.5,-166.75 667,-166.75 667,-219.75"/>
<text text-anchor="start" x="531.5" y="-206.25" font-family="Helvetica,sans-Serif" font-size="10.00">/github/workspace/dev</text>
<text text-anchor="start" x="531.5" y="-195" font-family="Helvetica,sans-Serif" font-size="10.00">_area/sourcecode/readoutlibs</text>
<text text-anchor="start" x="531.5" y="-183.75" font-family="Helvetica,sans-Serif" font-size="10.00">/include/readoutlibs/concepts</text>
<text text-anchor="middle" x="595.25" y="-172.5" font-family="Helvetica,sans-Serif" font-size="10.00">/RecorderConcept.hpp</text>
</a>
</g>
</g>
<!-- Node1&#45;&gt;Node5 -->
<g id="edge4_Node000001_Node000005" class="edge">
<title>Node1&#45;&gt;Node5</title>
<g id="a_edge4_Node000001_Node000005"><a xlink:title=" ">
<path fill="none" stroke="#63b8ff" d="M458.01,-250.94C481.58,-241.2 508.68,-230.01 532.53,-220.16"/>
<polygon fill="#63b8ff" stroke="#63b8ff" points="456.76,-247.67 448.85,-254.72 459.43,-254.14 456.76,-247.67"/>
</a>
</g>
</g>
<!-- Node6 -->
<g id="Node000006" class="node">
<title>Node6</title>
<g id="a_Node000006"><a xlink:href="RecorderModel_8hpp.html" target="_top" xlink:title=" ">
<polygon fill="white" stroke="#666666" points="567,-130.75 423.5,-130.75 423.5,-77.75 567,-77.75 567,-130.75"/>
<text text-anchor="start" x="431.5" y="-117.25" font-family="Helvetica,sans-Serif" font-size="10.00">/github/workspace/dev</text>
<text text-anchor="start" x="431.5" y="-106" font-family="Helvetica,sans-Serif" font-size="10.00">_area/sourcecode/readoutlibs</text>
<text text-anchor="start" x="431.5" y="-94.75" font-family="Helvetica,sans-Serif" font-size="10.00">/include/readoutlibs/models</text>
<text text-anchor="middle" x="495.25" y="-83.5" font-family="Helvetica,sans-Serif" font-size="10.00">/RecorderModel.hpp</text>
</a>
</g>
</g>
<!-- Node1&#45;&gt;Node6 -->
<g id="edge8_Node000001_Node000006" class="edge">
<title>Node1&#45;&gt;Node6</title>
<g id="a_edge8_Node000001_Node000006"><a xlink:title=" ">
<path fill="none" stroke="#63b8ff" d="M447.67,-249.12C458.63,-241.06 469.1,-231.24 476.25,-219.75 493.08,-192.72 496.37,-155.44 496.43,-130.86"/>
<polygon fill="#63b8ff" stroke="#63b8ff" points="445.92,-246.08 439.66,-254.62 449.88,-251.85 445.92,-246.08"/>
</a>
</g>
</g>
<!-- Node5&#45;&gt;Node6 -->
<g id="edge5_Node000005_Node000006" class="edge">
<title>Node5&#45;&gt;Node6</title>
<g id="a_edge5_Node000005_Node000006"><a xlink:title=" ">
<path fill="none" stroke="#63b8ff" d="M556.87,-158.86C546.32,-149.68 535.03,-139.86 525.04,-131.17"/>
<polygon fill="#63b8ff" stroke="#63b8ff" points="554.53,-161.47 564.38,-165.39 559.13,-156.19 554.53,-161.47"/>
</a>
</g>
</g>
<!-- Node7 -->
<g id="Node000007" class="node">
<title>Node7</title>
<g id="a_Node000007"><a xlink:href="Readoutlibs_8cpp.html" target="_top" xlink:title=" ">
<polygon fill="white" stroke="#666666" points="617,-41.75 473.5,-41.75 473.5,0 617,0 617,-41.75"/>
<text text-anchor="start" x="481.5" y="-28.25" font-family="Helvetica,sans-Serif" font-size="10.00">/github/workspace/dev</text>
<text text-anchor="start" x="481.5" y="-17" font-family="Helvetica,sans-Serif" font-size="10.00">_area/sourcecode/readoutlibs</text>
<text text-anchor="middle" x="545.25" y="-5.75" font-family="Helvetica,sans-Serif" font-size="10.00">/src/Readoutlibs.cpp</text>
</a>
</g>
</g>
<!-- Node5&#45;&gt;Node7 -->
<g id="edge7_Node000005_Node000007" class="edge">
<title>Node5&#45;&gt;Node7</title>
<g id="a_edge7_Node000005_Node000007"><a xlink:title=" ">
<path fill="none" stroke="#63b8ff" d="M592.36,-155.36C589.78,-132.52 585.01,-102.86 576.25,-77.75 571.9,-65.28 564.9,-52.33 558.65,-42.04"/>
<polygon fill="#63b8ff" stroke="#63b8ff" points="588.86,-155.52 593.36,-165.11 595.82,-154.81 588.86,-155.52"/>
</a>
</g>
</g>
<!-- Node6&#45;&gt;Node7 -->
<g id="edge6_Node000006_Node000007" class="edge">
<title>Node6&#45;&gt;Node7</title>
<g id="a_edge6_Node000006_Node000007"><a xlink:title=" ">
<path fill="none" stroke="#63b8ff" d="M517.04,-67.78C522.46,-58.97 528.07,-49.83 532.86,-42.04"/>
<polygon fill="#63b8ff" stroke="#63b8ff" points="514.12,-65.86 511.86,-76.21 520.08,-69.52 514.12,-65.86"/>
</a>
</g>
</g>
</g>
</svg>
