<?xml version="1.0" encoding="UTF-8" standalone="no"?>
<!DOCTYPE svg PUBLIC "-//W3C//DTD SVG 1.1//EN"
 "http://www.w3.org/Graphics/SVG/1.1/DTD/svg11.dtd">
<!-- Generated by graphviz version 9.0.0 (20230911.1827)
 -->
<!-- Title: /github/workspace/dev_area/build/coredal/codegen/include/coredal/GeoId.hpp Pages: 1 -->
<svg width="1310pt" height="217pt"
 viewBox="0.00 0.00 1310.00 216.50" xmlns="http://www.w3.org/2000/svg" xmlns:xlink="http://www.w3.org/1999/xlink">
<g id="graph0" class="graph" transform="scale(1 1) rotate(0) translate(4 212.5)">
<title>/github/workspace/dev_area/build/coredal/codegen/include/coredal/GeoId.hpp</title>
<!-- Node1 -->
<g id="Node000001" class="node">
<title>Node1</title>
<g id="a_Node000001"><a xlink:title=" ">
<polygon fill="#999999" stroke="#666666" points="698,-208.5 560.5,-208.5 560.5,-166.75 698,-166.75 698,-208.5"/>
<text text-anchor="start" x="568.5" y="-195" font-family="Helvetica,sans-Serif" font-size="10.00">/github/workspace/dev</text>
<text text-anchor="start" x="568.5" y="-183.75" font-family="Helvetica,sans-Serif" font-size="10.00">_area/build/coredal/codegen</text>
<text text-anchor="middle" x="629.25" y="-172.5" font-family="Helvetica,sans-Serif" font-size="10.00">/include/coredal/GeoId.hpp</text>
</a>
</g>
</g>
<!-- Node2 -->
<g id="Node000002" class="node">
<title>Node2</title>
<g id="a_Node000002"><a xlink:href="ReadoutModule_8cpp.html" target="_top" xlink:title=" ">
<polygon fill="white" stroke="#666666" points="134.5,-125.12 0,-125.12 0,-83.38 134.5,-83.38 134.5,-125.12"/>
<text text-anchor="start" x="8" y="-111.62" font-family="Helvetica,sans-Serif" font-size="10.00">/github/workspace/dev</text>
<text text-anchor="start" x="8" y="-100.38" font-family="Helvetica,sans-Serif" font-size="10.00">_area/build/appdal/codegen</text>
<text text-anchor="middle" x="67.25" y="-89.12" font-family="Helvetica,sans-Serif" font-size="10.00">/src/ReadoutModule.cpp</text>
</a>
</g>
</g>
<!-- Node1&#45;&gt;Node2 -->
<g id="edge1_Node000001_Node000002" class="edge">
<title>Node1&#45;&gt;Node2</title>
<g id="a_edge1_Node000001_Node000002"><a xlink:title=" ">
<path fill="none" stroke="#63b8ff" d="M548.6,-182.53C451.47,-176.41 283.85,-162.06 143.25,-130.75 136.73,-129.3 129.98,-127.49 123.32,-125.52"/>
<polygon fill="#63b8ff" stroke="#63b8ff" points="548.38,-186.02 558.57,-183.14 548.81,-179.03 548.38,-186.02"/>
</a>
</g>
</g>
<!-- Node3 -->
<g id="Node000003" class="node">
<title>Node3</title>
<g id="a_Node000003"><a xlink:href="DROStreamConf_8cpp.html" target="_top" xlink:title=" ">
<polygon fill="white" stroke="#666666" points="290,-125.12 152.5,-125.12 152.5,-83.38 290,-83.38 290,-125.12"/>
<text text-anchor="start" x="160.5" y="-111.62" font-family="Helvetica,sans-Serif" font-size="10.00">/github/workspace/dev</text>
<text text-anchor="start" x="160.5" y="-100.38" font-family="Helvetica,sans-Serif" font-size="10.00">_area/build/coredal/codegen</text>
<text text-anchor="middle" x="221.25" y="-89.12" font-family="Helvetica,sans-Serif" font-size="10.00">/src/DROStreamConf.cpp</text>
</a>
</g>
</g>
<!-- Node1&#45;&gt;Node3 -->
<g id="edge2_Node000001_Node000003" class="edge">
<title>Node1&#45;&gt;Node3</title>
<g id="a_edge2_Node000001_Node000003"><a xlink:title=" ">
<path fill="none" stroke="#63b8ff" d="M548.71,-176.39C481.47,-167.04 383.38,-151.5 299.25,-130.75 293.03,-129.21 286.58,-127.43 280.18,-125.53"/>
<polygon fill="#63b8ff" stroke="#63b8ff" points="548.18,-179.85 558.57,-177.75 549.14,-172.92 548.18,-179.85"/>
</a>
</g>
</g>
<!-- Node4 -->
<g id="Node000004" class="node">
<title>Node4</title>
<g id="a_Node000004"><a xlink:href="GeoId_8cpp.html" target="_top" xlink:title=" ">
<polygon fill="white" stroke="#666666" points="446,-125.12 308.5,-125.12 308.5,-83.38 446,-83.38 446,-125.12"/>
<text text-anchor="start" x="316.5" y="-111.62" font-family="Helvetica,sans-Serif" font-size="10.00">/github/workspace/dev</text>
<text text-anchor="start" x="316.5" y="-100.38" font-family="Helvetica,sans-Serif" font-size="10.00">_area/build/coredal/codegen</text>
<text text-anchor="middle" x="377.25" y="-89.12" font-family="Helvetica,sans-Serif" font-size="10.00">/src/GeoId.cpp</text>
</a>
</g>
</g>
<!-- Node1&#45;&gt;Node4 -->
<g id="edge3_Node000001_Node000004" class="edge">
<title>Node1&#45;&gt;Node4</title>
<g id="a_edge3_Node000001_Node000004"><a xlink:title=" ">
<path fill="none" stroke="#63b8ff" d="M554.91,-162.85C524.07,-152.96 487.92,-141.34 455.25,-130.75 450.1,-129.08 444.76,-127.35 439.4,-125.6"/>
<polygon fill="#63b8ff" stroke="#63b8ff" points="553.56,-166.09 564.15,-165.81 555.69,-159.42 553.56,-166.09"/>
</a>
</g>
</g>
<!-- Node5 -->
<g id="Node000005" class="node">
<title>Node5</title>
<g id="a_Node000005"><a xlink:href="dump__dunedaq____coredal_8cpp.html" target="_top" xlink:title=" ">
<polygon fill="white" stroke="#666666" points="626,-125.12 464.5,-125.12 464.5,-83.38 626,-83.38 626,-125.12"/>
<text text-anchor="start" x="472.5" y="-111.62" font-family="Helvetica,sans-Serif" font-size="10.00">/github/workspace/dev</text>
<text text-anchor="start" x="472.5" y="-100.38" font-family="Helvetica,sans-Serif" font-size="10.00">_area/build/coredal/codegen</text>
<text text-anchor="middle" x="545.25" y="-89.12" font-family="Helvetica,sans-Serif" font-size="10.00">/src/dump_dunedaq__coredal.cpp</text>
</a>
</g>
</g>
<!-- Node1&#45;&gt;Node5 -->
<g id="edge4_Node000001_Node000005" class="edge">
<title>Node1&#45;&gt;Node5</title>
<g id="a_edge4_Node000001_Node000005"><a xlink:title=" ">
<path fill="none" stroke="#63b8ff" d="M600.22,-158.5C588.98,-147.62 576.37,-135.4 566.07,-125.42"/>
<polygon fill="#63b8ff" stroke="#63b8ff" points="597.78,-161.01 607.4,-165.46 602.65,-155.98 597.78,-161.01"/>
</a>
</g>
</g>
<!-- Node6 -->
<g id="Node000006" class="node">
<title>Node6</title>
<g id="a_Node000006"><a xlink:href="sourcecode_2appdal_2src_2ReadoutApplication_8cpp.html" target="_top" xlink:title=" ">
<polygon fill="white" stroke="#666666" points="782,-125.12 644.5,-125.12 644.5,-83.38 782,-83.38 782,-125.12"/>
<text text-anchor="start" x="652.5" y="-111.62" font-family="Helvetica,sans-Serif" font-size="10.00">/github/workspace/dev</text>
<text text-anchor="start" x="652.5" y="-100.38" font-family="Helvetica,sans-Serif" font-size="10.00">_area/sourcecode/appdal</text>
<text text-anchor="middle" x="713.25" y="-89.12" font-family="Helvetica,sans-Serif" font-size="10.00">/src/ReadoutApplication.cpp</text>
</a>
</g>
</g>
<!-- Node1&#45;&gt;Node6 -->
<g id="edge5_Node000001_Node000006" class="edge">
<title>Node1&#45;&gt;Node6</title>
<g id="a_edge5_Node000001_Node000006"><a xlink:title=" ">
<path fill="none" stroke="#63b8ff" d="M658.28,-158.5C669.52,-147.62 682.13,-135.4 692.43,-125.42"/>
<polygon fill="#63b8ff" stroke="#63b8ff" points="655.85,-155.98 651.1,-165.46 660.72,-161.01 655.85,-155.98"/>
</a>
</g>
</g>
<!-- Node7 -->
<g id="Node000007" class="node">
<title>Node7</title>
<g id="a_Node000007"><a xlink:href="IfaceWrapper_8cpp.html" target="_top" xlink:title=" ">
<polygon fill="white" stroke="#666666" points="932.38,-125.12 800.12,-125.12 800.12,-83.38 932.38,-83.38 932.38,-125.12"/>
<text text-anchor="start" x="808.12" y="-111.62" font-family="Helvetica,sans-Serif" font-size="10.00">/github/workspace/dev</text>
<text text-anchor="start" x="808.12" y="-100.38" font-family="Helvetica,sans-Serif" font-size="10.00">_area/sourcecode/dpdklibs</text>
<text text-anchor="middle" x="866.25" y="-89.12" font-family="Helvetica,sans-Serif" font-size="10.00">/src/IfaceWrapper.cpp</text>
</a>
</g>
</g>
<!-- Node1&#45;&gt;Node7 -->
<g id="edge6_Node000001_Node000007" class="edge">
<title>Node1&#45;&gt;Node7</title>
<g id="a_edge6_Node000001_Node000007"><a xlink:title=" ">
<path fill="none" stroke="#63b8ff" d="M699.31,-162.57C733.56,-150.81 774.32,-136.82 806.99,-125.6"/>
<polygon fill="#63b8ff" stroke="#63b8ff" points="698.2,-159.25 689.88,-165.81 700.47,-165.87 698.2,-159.25"/>
</a>
</g>
</g>
<!-- Node8 -->
<g id="Node000008" class="node">
<title>Node8</title>
<g id="a_Node000008"><a xlink:href="WIBEthFrameProcessor_8cpp.html" target="_top" xlink:title=" ">
<polygon fill="white" stroke="#666666" points="1140.25,-125.12 950.25,-125.12 950.25,-83.38 1140.25,-83.38 1140.25,-125.12"/>
<text text-anchor="start" x="958.25" y="-111.62" font-family="Helvetica,sans-Serif" font-size="10.00">/github/workspace/dev</text>
<text text-anchor="start" x="958.25" y="-100.38" font-family="Helvetica,sans-Serif" font-size="10.00">_area/sourcecode/fdreadoutlibs</text>
<text text-anchor="middle" x="1045.25" y="-89.12" font-family="Helvetica,sans-Serif" font-size="10.00">/src/wibeth/WIBEthFrameProcessor.cpp</text>
</a>
</g>
</g>
<!-- Node1&#45;&gt;Node8 -->
<g id="edge7_Node000001_Node000008" class="edge">
<title>Node1&#45;&gt;Node8</title>
<g id="a_edge7_Node000001_Node000008"><a xlink:title=" ">
<path fill="none" stroke="#63b8ff" d="M709.35,-173.71C772.54,-163.18 862.79,-147.38 941.25,-130.75 948.8,-129.15 956.63,-127.4 964.46,-125.59"/>
<polygon fill="#63b8ff" stroke="#63b8ff" points="709.06,-170.21 699.77,-175.3 710.2,-177.12 709.06,-170.21"/>
</a>
</g>
</g>
<!-- Node9 -->
<g id="Node000009" class="node">
<title>Node9</title>
<g id="a_Node000009"><a xlink:href="SourceEmulatorModel_8hpp.html" target="_top" xlink:title=" ">
<polygon fill="white" stroke="#666666" points="1302,-130.75 1158.5,-130.75 1158.5,-77.75 1302,-77.75 1302,-130.75"/>
<text text-anchor="start" x="1166.5" y="-117.25" font-family="Helvetica,sans-Serif" font-size="10.00">/github/workspace/dev</text>
<text text-anchor="start" x="1166.5" y="-106" font-family="Helvetica,sans-Serif" font-size="10.00">_area/sourcecode/readoutlibs</text>
<text text-anchor="start" x="1166.5" y="-94.75" font-family="Helvetica,sans-Serif" font-size="10.00">/include/readoutlibs/models</text>
<text text-anchor="middle" x="1230.25" y="-83.5" font-family="Helvetica,sans-Serif" font-size="10.00">/SourceEmulatorModel.hpp</text>
</a>
</g>
</g>
<!-- Node1&#45;&gt;Node9 -->
<g id="edge8_Node000001_Node000009" class="edge">
<title>Node1&#45;&gt;Node9</title>
<g id="a_edge8_Node000001_Node000009"><a xlink:title=" ">
<path fill="none" stroke="#63b8ff" d="M709.71,-182.92C812.55,-177.07 995.69,-162.84 1149.25,-130.75 1152.14,-130.15 1155.07,-129.48 1158.01,-128.77"/>
<polygon fill="#63b8ff" stroke="#63b8ff" points="709.79,-179.41 699.99,-183.46 710.17,-186.4 709.79,-179.41"/>
</a>
</g>
</g>
<!-- Node10 -->
<g id="Node000010" class="node">
<title>Node10</title>
<g id="a_Node000010"><a xlink:href="Readoutlibs_8cpp.html" target="_top" xlink:title=" ">
<polygon fill="white" stroke="#666666" points="1302,-41.75 1158.5,-41.75 1158.5,0 1302,0 1302,-41.75"/>
<text text-anchor="start" x="1166.5" y="-28.25" font-family="Helvetica,sans-Serif" font-size="10.00">/github/workspace/dev</text>
<text text-anchor="start" x="1166.5" y="-17" font-family="Helvetica,sans-Serif" font-size="10.00">_area/sourcecode/readoutlibs</text>
<text text-anchor="middle" x="1230.25" y="-5.75" font-family="Helvetica,sans-Serif" font-size="10.00">/src/Readoutlibs.cpp</text>
</a>
</g>
</g>
<!-- Node9&#45;&gt;Node10 -->
<g id="edge9_Node000009_Node000010" class="edge">
<title>Node9&#45;&gt;Node10</title>
<g id="a_edge9_Node000009_Node000010"><a xlink:title=" ">
<path fill="none" stroke="#63b8ff" d="M1230.25,-66.08C1230.25,-57.8 1230.25,-49.33 1230.25,-42.04"/>
<polygon fill="#63b8ff" stroke="#63b8ff" points="1226.75,-65.99 1230.25,-75.99 1233.75,-65.99 1226.75,-65.99"/>
</a>
</g>
</g>
</g>
</svg>
