<?xml version="1.0" encoding="UTF-8" standalone="no"?>
<!DOCTYPE svg PUBLIC "-//W3C//DTD SVG 1.1//EN"
 "http://www.w3.org/Graphics/SVG/1.1/DTD/svg11.dtd">
<!-- Generated by graphviz version 9.0.0 (20230911.1827)
 -->
<!-- Title: /github/workspace/dev_area/build/appdal/codegen/include/appdal/IpbusDevice.hpp Pages: 1 -->
<svg width="556pt" height="205pt"
 viewBox="0.00 0.00 555.50 205.25" xmlns="http://www.w3.org/2000/svg" xmlns:xlink="http://www.w3.org/1999/xlink">
<g id="graph0" class="graph" transform="scale(1 1) rotate(0) translate(4 201.25)">
<title>/github/workspace/dev_area/build/appdal/codegen/include/appdal/IpbusDevice.hpp</title>
<!-- Node1 -->
<g id="Node000001" class="node">
<title>Node1</title>
<g id="a_Node000001"><a xlink:title=" ">
<polygon fill="#999999" stroke="#666666" points="357.38,-197.25 201.12,-197.25 201.12,-155.5 357.38,-155.5 357.38,-197.25"/>
<text text-anchor="start" x="209.12" y="-183.75" font-family="Helvetica,sans-Serif" font-size="10.00">/github/workspace/dev</text>
<text text-anchor="start" x="209.12" y="-172.5" font-family="Helvetica,sans-Serif" font-size="10.00">_area/build/appdal/codegen</text>
<text text-anchor="middle" x="279.25" y="-161.25" font-family="Helvetica,sans-Serif" font-size="10.00">/include/appdal/IpbusDevice.hpp</text>
</a>
</g>
</g>
<!-- Node2 -->
<g id="Node000002" class="node">
<title>Node2</title>
<g id="a_Node000002"><a xlink:href="include_2appdal_2HermesController_8hpp.html" target="_top" xlink:title=" ">
<polygon fill="white" stroke="#666666" points="204.25,-119.5 26.25,-119.5 26.25,-77.75 204.25,-77.75 204.25,-119.5"/>
<text text-anchor="start" x="34.25" y="-106" font-family="Helvetica,sans-Serif" font-size="10.00">/github/workspace/dev</text>
<text text-anchor="start" x="34.25" y="-94.75" font-family="Helvetica,sans-Serif" font-size="10.00">_area/build/appdal/codegen</text>
<text text-anchor="middle" x="115.25" y="-83.5" font-family="Helvetica,sans-Serif" font-size="10.00">/include/appdal/HermesController.hpp</text>
</a>
</g>
</g>
<!-- Node1&#45;&gt;Node2 -->
<g id="edge1_Node000001_Node000002" class="edge">
<title>Node1&#45;&gt;Node2</title>
<g id="a_edge1_Node000001_Node000002"><a xlink:title=" ">
<path fill="none" stroke="#63b8ff" d="M225.09,-150.36C203.75,-140.5 179.56,-129.33 159.32,-119.98"/>
<polygon fill="#63b8ff" stroke="#63b8ff" points="223.38,-153.42 233.93,-154.44 226.32,-147.07 223.38,-153.42"/>
</a>
</g>
</g>
<!-- Node4 -->
<g id="Node000004" class="node">
<title>Node4</title>
<g id="a_Node000004"><a xlink:href="dump__dunedaq____appdal_8cpp.html" target="_top" xlink:title=" ">
<polygon fill="white" stroke="#666666" points="311.5,-41.75 153,-41.75 153,0 311.5,0 311.5,-41.75"/>
<text text-anchor="start" x="161" y="-28.25" font-family="Helvetica,sans-Serif" font-size="10.00">/github/workspace/dev</text>
<text text-anchor="start" x="161" y="-17" font-family="Helvetica,sans-Serif" font-size="10.00">_area/build/appdal/codegen</text>
<text text-anchor="middle" x="232.25" y="-5.75" font-family="Helvetica,sans-Serif" font-size="10.00">/src/dump_dunedaq__appdal.cpp</text>
</a>
</g>
</g>
<!-- Node1&#45;&gt;Node4 -->
<g id="edge6_Node000001_Node000004" class="edge">
<title>Node1&#45;&gt;Node4</title>
<g id="a_edge6_Node000001_Node000004"><a xlink:title=" ">
<path fill="none" stroke="#63b8ff" d="M262.21,-145.12C258.16,-136.99 254.17,-128.07 251.25,-119.5 242.4,-93.51 237.21,-62.15 234.55,-42.11"/>
<polygon fill="#63b8ff" stroke="#63b8ff" points="259.07,-146.66 266.8,-153.91 265.28,-143.43 259.07,-146.66"/>
</a>
</g>
</g>
<!-- Node5 -->
<g id="Node000005" class="node">
<title>Node5</title>
<g id="a_Node000005"><a xlink:href="src_2HermesController_8hpp.html" target="_top" xlink:title=" ">
<polygon fill="white" stroke="#666666" points="394.5,-119.5 260,-119.5 260,-77.75 394.5,-77.75 394.5,-119.5"/>
<text text-anchor="start" x="268" y="-106" font-family="Helvetica,sans-Serif" font-size="10.00">/github/workspace/dev</text>
<text text-anchor="start" x="268" y="-94.75" font-family="Helvetica,sans-Serif" font-size="10.00">_area/build/appdal/codegen</text>
<text text-anchor="middle" x="327.25" y="-83.5" font-family="Helvetica,sans-Serif" font-size="10.00">/src/HermesController.hpp</text>
</a>
</g>
</g>
<!-- Node1&#45;&gt;Node5 -->
<g id="edge4_Node000001_Node000005" class="edge">
<title>Node1&#45;&gt;Node5</title>
<g id="a_edge4_Node000001_Node000005"><a xlink:title=" ">
<path fill="none" stroke="#63b8ff" d="M298.23,-145.43C303.63,-136.89 309.4,-127.8 314.35,-119.98"/>
<polygon fill="#63b8ff" stroke="#63b8ff" points="295.32,-143.48 292.92,-153.8 301.23,-147.22 295.32,-143.48"/>
</a>
</g>
</g>
<!-- Node6 -->
<g id="Node000006" class="node">
<title>Node6</title>
<g id="a_Node000006"><a xlink:href="IpbusDevice_8cpp.html" target="_top" xlink:title=" ">
<polygon fill="white" stroke="#666666" points="547.5,-119.5 413,-119.5 413,-77.75 547.5,-77.75 547.5,-119.5"/>
<text text-anchor="start" x="421" y="-106" font-family="Helvetica,sans-Serif" font-size="10.00">/github/workspace/dev</text>
<text text-anchor="start" x="421" y="-94.75" font-family="Helvetica,sans-Serif" font-size="10.00">_area/build/appdal/codegen</text>
<text text-anchor="middle" x="480.25" y="-83.5" font-family="Helvetica,sans-Serif" font-size="10.00">/src/IpbusDevice.cpp</text>
</a>
</g>
</g>
<!-- Node1&#45;&gt;Node6 -->
<g id="edge5_Node000001_Node000006" class="edge">
<title>Node1&#45;&gt;Node6</title>
<g id="a_edge5_Node000001_Node000006"><a xlink:title=" ">
<path fill="none" stroke="#63b8ff" d="M343.86,-151.03C370.44,-141.01 400.87,-129.54 426.24,-119.98"/>
<polygon fill="#63b8ff" stroke="#63b8ff" points="342.65,-147.74 334.53,-154.54 345.12,-154.29 342.65,-147.74"/>
</a>
</g>
</g>
<!-- Node3 -->
<g id="Node000003" class="node">
<title>Node3</title>
<g id="a_Node000003"><a xlink:href="HermesController_8cpp.html" target="_top" xlink:title=" ">
<polygon fill="white" stroke="#666666" points="134.5,-41.75 0,-41.75 0,0 134.5,0 134.5,-41.75"/>
<text text-anchor="start" x="8" y="-28.25" font-family="Helvetica,sans-Serif" font-size="10.00">/github/workspace/dev</text>
<text text-anchor="start" x="8" y="-17" font-family="Helvetica,sans-Serif" font-size="10.00">_area/build/appdal/codegen</text>
<text text-anchor="middle" x="67.25" y="-5.75" font-family="Helvetica,sans-Serif" font-size="10.00">/src/HermesController.cpp</text>
</a>
</g>
</g>
<!-- Node2&#45;&gt;Node3 -->
<g id="edge2_Node000002_Node000003" class="edge">
<title>Node2&#45;&gt;Node3</title>
<g id="a_edge2_Node000002_Node000003"><a xlink:title=" ">
<path fill="none" stroke="#63b8ff" d="M96.27,-67.68C90.87,-59.14 85.1,-50.05 80.15,-42.23"/>
<polygon fill="#63b8ff" stroke="#63b8ff" points="93.27,-69.47 101.58,-76.05 99.18,-65.73 93.27,-69.47"/>
</a>
</g>
</g>
<!-- Node2&#45;&gt;Node4 -->
<g id="edge3_Node000002_Node000004" class="edge">
<title>Node2&#45;&gt;Node4</title>
<g id="a_edge3_Node000002_Node000004"><a xlink:title=" ">
<path fill="none" stroke="#63b8ff" d="M155.98,-71.26C170.68,-61.74 187.03,-51.15 200.81,-42.23"/>
<polygon fill="#63b8ff" stroke="#63b8ff" points="154.37,-68.13 147.87,-76.5 158.17,-74.01 154.37,-68.13"/>
</a>
</g>
</g>
</g>
</svg>
