<?xml version="1.0" encoding="UTF-8" standalone="no"?>
<!DOCTYPE svg PUBLIC "-//W3C//DTD SVG 1.1//EN"
 "http://www.w3.org/Graphics/SVG/1.1/DTD/svg11.dtd">
<!-- Generated by graphviz version 9.0.0 (20230911.1827)
 -->
<!-- Title: /github/workspace/dev_area/sourcecode/opmonlib/include/opmonlib/InfoManager.hpp Pages: 1 -->
<svg width="290pt" height="128pt"
 viewBox="0.00 0.00 289.50 127.50" xmlns="http://www.w3.org/2000/svg" xmlns:xlink="http://www.w3.org/1999/xlink">
<g id="graph0" class="graph" transform="scale(1 1) rotate(0) translate(4 123.5)">
<title>/github/workspace/dev_area/sourcecode/opmonlib/include/opmonlib/InfoManager.hpp</title>
<!-- Node1 -->
<g id="Node000001" class="node">
<title>Node1</title>
<g id="a_Node000001"><a xlink:title=" ">
<polygon fill="#999999" stroke="#666666" points="222.25,-119.5 55.5,-119.5 55.5,-77.75 222.25,-77.75 222.25,-119.5"/>
<text text-anchor="start" x="63.5" y="-106" font-family="Helvetica,sans-Serif" font-size="10.00">/github/workspace/dev</text>
<text text-anchor="start" x="63.5" y="-94.75" font-family="Helvetica,sans-Serif" font-size="10.00">_area/sourcecode/opmonlib</text>
<text text-anchor="middle" x="138.88" y="-83.5" font-family="Helvetica,sans-Serif" font-size="10.00">/include/opmonlib/InfoManager.hpp</text>
</a>
</g>
</g>
<!-- Node2 -->
<g id="Node000002" class="node">
<title>Node2</title>
<g id="a_Node000002"><a xlink:href="sourcecode_2appfwk_2src_2Application_8hpp.html" target="_top" xlink:title=" ">
<polygon fill="white" stroke="#666666" points="127.75,-41.75 0,-41.75 0,0 127.75,0 127.75,-41.75"/>
<text text-anchor="start" x="8" y="-28.25" font-family="Helvetica,sans-Serif" font-size="10.00">/github/workspace/dev</text>
<text text-anchor="start" x="8" y="-17" font-family="Helvetica,sans-Serif" font-size="10.00">_area/sourcecode/appfwk</text>
<text text-anchor="middle" x="63.88" y="-5.75" font-family="Helvetica,sans-Serif" font-size="10.00">/src/Application.hpp</text>
</a>
</g>
</g>
<!-- Node1&#45;&gt;Node2 -->
<g id="edge1_Node000001_Node000002" class="edge">
<title>Node1&#45;&gt;Node2</title>
<g id="a_edge1_Node000001_Node000002"><a xlink:title=" ">
<path fill="none" stroke="#63b8ff" d="M110.87,-69.34C101.95,-60.34 92.27,-50.56 84.03,-42.23"/>
<polygon fill="#63b8ff" stroke="#63b8ff" points="108.19,-71.61 117.71,-76.25 113.16,-66.68 108.19,-71.61"/>
</a>
</g>
</g>
<!-- Node3 -->
<g id="Node000003" class="node">
<title>Node3</title>
<g id="a_Node000003"><a xlink:href="InfoManager_8cpp.html" target="_top" xlink:title=" ">
<polygon fill="white" stroke="#666666" points="281.5,-41.75 146.25,-41.75 146.25,0 281.5,0 281.5,-41.75"/>
<text text-anchor="start" x="154.25" y="-28.25" font-family="Helvetica,sans-Serif" font-size="10.00">/github/workspace/dev</text>
<text text-anchor="start" x="154.25" y="-17" font-family="Helvetica,sans-Serif" font-size="10.00">_area/sourcecode/opmonlib</text>
<text text-anchor="middle" x="213.88" y="-5.75" font-family="Helvetica,sans-Serif" font-size="10.00">/src/InfoManager.cpp</text>
</a>
</g>
</g>
<!-- Node1&#45;&gt;Node3 -->
<g id="edge2_Node000001_Node000003" class="edge">
<title>Node1&#45;&gt;Node3</title>
<g id="a_edge2_Node000001_Node000003"><a xlink:title=" ">
<path fill="none" stroke="#63b8ff" d="M166.88,-69.34C175.8,-60.34 185.48,-50.56 193.72,-42.23"/>
<polygon fill="#63b8ff" stroke="#63b8ff" points="164.59,-66.68 160.04,-76.25 169.56,-71.61 164.59,-66.68"/>
</a>
</g>
</g>
</g>
</svg>
