<?xml version="1.0" encoding="UTF-8" standalone="no"?>
<!DOCTYPE svg PUBLIC "-//W3C//DTD SVG 1.1//EN"
 "http://www.w3.org/Graphics/SVG/1.1/DTD/svg11.dtd">
<!-- Generated by graphviz version 9.0.0 (20230911.1827)
 -->
<!-- Title: /github/workspace/dev_area/sourcecode/opmonlib/include/opmonlib/InfoProvider.hpp Pages: 1 -->
<svg width="290pt" height="205pt"
 viewBox="0.00 0.00 289.50 205.25" xmlns="http://www.w3.org/2000/svg" xmlns:xlink="http://www.w3.org/1999/xlink">
<g id="graph0" class="graph" transform="scale(1 1) rotate(0) translate(4 201.25)">
<title>/github/workspace/dev_area/sourcecode/opmonlib/include/opmonlib/InfoProvider.hpp</title>
<!-- Node1 -->
<g id="Node000001" class="node">
<title>Node1</title>
<g id="a_Node000001"><a xlink:title=" ">
<polygon fill="#999999" stroke="#666666" points="201.5,-197.25 36.25,-197.25 36.25,-155.5 201.5,-155.5 201.5,-197.25"/>
<text text-anchor="start" x="44.25" y="-183.75" font-family="Helvetica,sans-Serif" font-size="10.00">/github/workspace/dev</text>
<text text-anchor="start" x="44.25" y="-172.5" font-family="Helvetica,sans-Serif" font-size="10.00">_area/sourcecode/opmonlib</text>
<text text-anchor="middle" x="118.88" y="-161.25" font-family="Helvetica,sans-Serif" font-size="10.00">/include/opmonlib/InfoProvider.hpp</text>
</a>
</g>
</g>
<!-- Node2 -->
<g id="Node000002" class="node">
<title>Node2</title>
<g id="a_Node000002"><a xlink:href="sourcecode_2appfwk_2src_2Application_8hpp.html" target="_top" xlink:title=" ">
<polygon fill="white" stroke="#666666" points="127.75,-41.75 0,-41.75 0,0 127.75,0 127.75,-41.75"/>
<text text-anchor="start" x="8" y="-28.25" font-family="Helvetica,sans-Serif" font-size="10.00">/github/workspace/dev</text>
<text text-anchor="start" x="8" y="-17" font-family="Helvetica,sans-Serif" font-size="10.00">_area/sourcecode/appfwk</text>
<text text-anchor="middle" x="63.88" y="-5.75" font-family="Helvetica,sans-Serif" font-size="10.00">/src/Application.hpp</text>
</a>
</g>
</g>
<!-- Node1&#45;&gt;Node2 -->
<g id="edge1_Node000001_Node000002" class="edge">
<title>Node1&#45;&gt;Node2</title>
<g id="a_edge1_Node000001_Node000002"><a xlink:title=" ">
<path fill="none" stroke="#63b8ff" d="M96.84,-145.75C91.6,-137.58 86.49,-128.48 82.88,-119.5 72.57,-93.87 67.72,-62.14 65.54,-41.95"/>
<polygon fill="#63b8ff" stroke="#63b8ff" points="93.86,-147.59 102.35,-153.93 99.66,-143.68 93.86,-147.59"/>
</a>
</g>
</g>
<!-- Node3 -->
<g id="Node000003" class="node">
<title>Node3</title>
<g id="a_Node000003"><a xlink:href="InfoManager_8hpp.html" target="_top" xlink:title=" ">
<polygon fill="white" stroke="#666666" points="258.25,-119.5 91.5,-119.5 91.5,-77.75 258.25,-77.75 258.25,-119.5"/>
<text text-anchor="start" x="99.5" y="-106" font-family="Helvetica,sans-Serif" font-size="10.00">/github/workspace/dev</text>
<text text-anchor="start" x="99.5" y="-94.75" font-family="Helvetica,sans-Serif" font-size="10.00">_area/sourcecode/opmonlib</text>
<text text-anchor="middle" x="174.88" y="-83.5" font-family="Helvetica,sans-Serif" font-size="10.00">/include/opmonlib/InfoManager.hpp</text>
</a>
</g>
</g>
<!-- Node1&#45;&gt;Node3 -->
<g id="edge2_Node000001_Node000003" class="edge">
<title>Node1&#45;&gt;Node3</title>
<g id="a_edge2_Node000001_Node000003"><a xlink:title=" ">
<path fill="none" stroke="#63b8ff" d="M140.6,-145.98C147.03,-137.29 153.92,-127.97 159.83,-119.98"/>
<polygon fill="#63b8ff" stroke="#63b8ff" points="137.91,-143.74 134.78,-153.86 143.54,-147.9 137.91,-143.74"/>
</a>
</g>
</g>
<!-- Node3&#45;&gt;Node2 -->
<g id="edge3_Node000003_Node000002" class="edge">
<title>Node3&#45;&gt;Node2</title>
<g id="a_edge3_Node000003_Node000002"><a xlink:title=" ">
<path fill="none" stroke="#63b8ff" d="M135.84,-70.98C121.99,-61.54 106.65,-51.07 93.7,-42.23"/>
<polygon fill="#63b8ff" stroke="#63b8ff" points="133.65,-73.73 143.88,-76.47 137.59,-67.94 133.65,-73.73"/>
</a>
</g>
</g>
<!-- Node4 -->
<g id="Node000004" class="node">
<title>Node4</title>
<g id="a_Node000004"><a xlink:href="InfoManager_8cpp.html" target="_top" xlink:title=" ">
<polygon fill="white" stroke="#666666" points="281.5,-41.75 146.25,-41.75 146.25,0 281.5,0 281.5,-41.75"/>
<text text-anchor="start" x="154.25" y="-28.25" font-family="Helvetica,sans-Serif" font-size="10.00">/github/workspace/dev</text>
<text text-anchor="start" x="154.25" y="-17" font-family="Helvetica,sans-Serif" font-size="10.00">_area/sourcecode/opmonlib</text>
<text text-anchor="middle" x="213.88" y="-5.75" font-family="Helvetica,sans-Serif" font-size="10.00">/src/InfoManager.cpp</text>
</a>
</g>
</g>
<!-- Node3&#45;&gt;Node4 -->
<g id="edge4_Node000003_Node000004" class="edge">
<title>Node3&#45;&gt;Node4</title>
<g id="a_edge4_Node000003_Node000004"><a xlink:title=" ">
<path fill="none" stroke="#63b8ff" d="M190.58,-67.12C194.89,-58.75 199.46,-49.88 203.39,-42.23"/>
<polygon fill="#63b8ff" stroke="#63b8ff" points="187.48,-65.49 186.02,-75.98 193.71,-68.69 187.48,-65.49"/>
</a>
</g>
</g>
</g>
</svg>
