<?xml version="1.0" encoding="UTF-8" standalone="no"?>
<!DOCTYPE svg PUBLIC "-//W3C//DTD SVG 1.1//EN"
 "http://www.w3.org/Graphics/SVG/1.1/DTD/svg11.dtd">
<!-- Generated by graphviz version 9.0.0 (20230911.1827)
 -->
<!-- Title: Graphical Class Hierarchy Pages: 1 -->
<svg width="278pt" height="137pt"
 viewBox="0.00 0.00 277.75 136.50" xmlns="http://www.w3.org/2000/svg" xmlns:xlink="http://www.w3.org/1999/xlink">
<g id="graph0" class="graph" transform="scale(1 1) rotate(0) translate(4 132.5)">
<title>Graphical Class Hierarchy</title>
<!-- Node0 -->
<g id="Node000000" class="node">
<title>Node0</title>
<g id="a_Node000000"><a xlink:title=" ">
<polygon fill="#e0e0e0" stroke="#999999" points="128.5,-73.88 0,-73.88 0,-54.62 128.5,-54.62 128.5,-73.88"/>
<text text-anchor="middle" x="64.25" y="-60.38" font-family="Helvetica,sans-Serif" font-size="10.00">google::protobuf::Message</text>
</a>
</g>
</g>
<!-- Node1 -->
<g id="Node000001" class="node">
<title>Node1</title>
<g id="a_Node000001"><a xlink:href="classdunedaq_1_1ersschema_1_1Context.html" target="_top" xlink:title=" ">
<polygon fill="white" stroke="#666666" points="269.75,-128.5 164.5,-128.5 164.5,-98 269.75,-98 269.75,-128.5"/>
<text text-anchor="start" x="172.5" y="-115" font-family="Helvetica,sans-Serif" font-size="10.00">dunedaq::ersschema</text>
<text text-anchor="middle" x="217.12" y="-103.75" font-family="Helvetica,sans-Serif" font-size="10.00">::Context</text>
</a>
</g>
</g>
<!-- Node0&#45;&gt;Node1 -->
<g id="edge355_Node000000_Node000001" class="edge">
<title>Node0&#45;&gt;Node1</title>
<g id="a_edge355_Node000000_Node000001"><a xlink:title=" ">
<path fill="none" stroke="#63b8ff" d="M107.06,-77.83C125.88,-83.94 148.21,-91.19 167.74,-97.54"/>
<polygon fill="#63b8ff" stroke="#63b8ff" points="108.18,-74.51 97.59,-74.75 106.02,-81.17 108.18,-74.51"/>
</a>
</g>
</g>
<!-- Node2 -->
<g id="Node000002" class="node">
<title>Node2</title>
<g id="a_Node000002"><a xlink:href="classdunedaq_1_1ersschema_1_1IssueChain.html" target="_top" xlink:title=" ">
<polygon fill="white" stroke="#666666" points="269.75,-79.5 164.5,-79.5 164.5,-49 269.75,-49 269.75,-79.5"/>
<text text-anchor="start" x="172.5" y="-66" font-family="Helvetica,sans-Serif" font-size="10.00">dunedaq::ersschema</text>
<text text-anchor="middle" x="217.12" y="-54.75" font-family="Helvetica,sans-Serif" font-size="10.00">::IssueChain</text>
</a>
</g>
</g>
<!-- Node0&#45;&gt;Node2 -->
<g id="edge356_Node000000_Node000002" class="edge">
<title>Node0&#45;&gt;Node2</title>
<g id="a_edge356_Node000000_Node000002"><a xlink:title=" ">
<path fill="none" stroke="#63b8ff" d="M140.18,-64.25C148.26,-64.25 156.35,-64.25 164.08,-64.25"/>
<polygon fill="#63b8ff" stroke="#63b8ff" points="140.31,-60.75 130.31,-64.25 140.31,-67.75 140.31,-60.75"/>
</a>
</g>
</g>
<!-- Node3 -->
<g id="Node000003" class="node">
<title>Node3</title>
<g id="a_Node000003"><a xlink:href="classdunedaq_1_1ersschema_1_1SimpleIssue.html" target="_top" xlink:title=" ">
<polygon fill="white" stroke="#666666" points="269.75,-30.5 164.5,-30.5 164.5,0 269.75,0 269.75,-30.5"/>
<text text-anchor="start" x="172.5" y="-17" font-family="Helvetica,sans-Serif" font-size="10.00">dunedaq::ersschema</text>
<text text-anchor="middle" x="217.12" y="-5.75" font-family="Helvetica,sans-Serif" font-size="10.00">::SimpleIssue</text>
</a>
</g>
</g>
<!-- Node0&#45;&gt;Node3 -->
<g id="edge357_Node000000_Node000003" class="edge">
<title>Node0&#45;&gt;Node3</title>
<g id="a_edge357_Node000000_Node000003"><a xlink:title=" ">
<path fill="none" stroke="#63b8ff" d="M107.06,-50.67C125.88,-44.56 148.21,-37.31 167.74,-30.96"/>
<polygon fill="#63b8ff" stroke="#63b8ff" points="106.02,-47.33 97.59,-53.75 108.18,-53.99 106.02,-47.33"/>
</a>
</g>
</g>
</g>
</svg>
