<?xml version="1.0" encoding="UTF-8" standalone="no"?>
<!DOCTYPE svg PUBLIC "-//W3C//DTD SVG 1.1//EN"
 "http://www.w3.org/Graphics/SVG/1.1/DTD/svg11.dtd">
<!-- Generated by graphviz version 9.0.0 (20230911.1827)
 -->
<!-- Title: Graphical Class Hierarchy Pages: 1 -->
<svg width="242pt" height="125pt"
 viewBox="0.00 0.00 241.75 124.88" xmlns="http://www.w3.org/2000/svg" xmlns:xlink="http://www.w3.org/1999/xlink">
<g id="graph0" class="graph" transform="scale(1 1) rotate(0) translate(4 120.88)">
<title>Graphical Class Hierarchy</title>
<!-- Node0 -->
<g id="Node000000" class="node">
<title>Node0</title>
<g id="a_Node000000"><a xlink:title=" ">
<polygon fill="#e0e0e0" stroke="#999999" points="58,-73.88 0,-73.88 0,-54.62 58,-54.62 58,-73.88"/>
<text text-anchor="middle" x="29" y="-60.38" font-family="Helvetica,sans-Serif" font-size="10.00">Exception</text>
</a>
</g>
</g>
<!-- Node1 -->
<g id="Node000001" class="node">
<title>Node1</title>
<g id="a_Node000001"><a xlink:href="classERSPublisher_1_1ERSException.html" target="_top" xlink:title=" ">
<polygon fill="white" stroke="#666666" points="233.75,-116.88 94,-116.88 94,-97.62 233.75,-97.62 233.75,-116.88"/>
<text text-anchor="middle" x="163.88" y="-103.38" font-family="Helvetica,sans-Serif" font-size="10.00">ERSPublisher.ERSException</text>
</a>
</g>
</g>
<!-- Node0&#45;&gt;Node1 -->
<g id="edge350_Node000000_Node000001" class="edge">
<title>Node0&#45;&gt;Node1</title>
<g id="a_edge350_Node000000_Node000001"><a xlink:title=" ">
<path fill="none" stroke="#63b8ff" d="M66,-78.39C75.08,-81.78 84.85,-85.28 94,-88.25 103.67,-91.39 114.22,-94.47 124.08,-97.2"/>
<polygon fill="#63b8ff" stroke="#63b8ff" points="67.36,-75.17 56.77,-74.89 64.88,-81.71 67.36,-75.17"/>
</a>
</g>
</g>
<!-- Node2 -->
<g id="Node000002" class="node">
<title>Node2</title>
<g id="a_Node000002"><a xlink:href="classafc_1_1click__texttable_1_1ArraySizeError.html" target="_top" xlink:title=" ">
<polygon fill="white" stroke="#666666" points="223.25,-79.5 104.5,-79.5 104.5,-49 223.25,-49 223.25,-79.5"/>
<text text-anchor="start" x="112.5" y="-66" font-family="Helvetica,sans-Serif" font-size="10.00">afc.click_texttable.Array</text>
<text text-anchor="middle" x="163.88" y="-54.75" font-family="Helvetica,sans-Serif" font-size="10.00">SizeError</text>
</a>
</g>
</g>
<!-- Node0&#45;&gt;Node2 -->
<g id="edge351_Node000000_Node000002" class="edge">
<title>Node0&#45;&gt;Node2</title>
<g id="a_edge351_Node000000_Node000002"><a xlink:title=" ">
<path fill="none" stroke="#63b8ff" d="M69.46,-64.25C80.34,-64.25 92.39,-64.25 104.11,-64.25"/>
<polygon fill="#63b8ff" stroke="#63b8ff" points="69.69,-60.75 59.69,-64.25 69.69,-67.75 69.69,-60.75"/>
</a>
</g>
</g>
<!-- Node3 -->
<g id="Node000003" class="node">
<title>Node3</title>
<g id="a_Node000003"><a xlink:href="classtiming_1_1cli_1_1pdt_1_1click__texttable_1_1ArraySizeError.html" target="_top" xlink:title=" ">
<polygon fill="white" stroke="#666666" points="224.75,-30.5 103,-30.5 103,0 224.75,0 224.75,-30.5"/>
<text text-anchor="start" x="111" y="-17" font-family="Helvetica,sans-Serif" font-size="10.00">timing.cli.pdt.click</text>
<text text-anchor="middle" x="163.88" y="-5.75" font-family="Helvetica,sans-Serif" font-size="10.00">_texttable.ArraySizeError</text>
</a>
</g>
</g>
<!-- Node0&#45;&gt;Node3 -->
<g id="edge352_Node000000_Node000003" class="edge">
<title>Node0&#45;&gt;Node3</title>
<g id="a_edge352_Node000000_Node000003"><a xlink:title=" ">
<path fill="none" stroke="#63b8ff" d="M67.42,-50.14C76.14,-46.88 85.39,-43.43 94,-40.25 102.23,-37.21 111.03,-33.99 119.5,-30.92"/>
<polygon fill="#63b8ff" stroke="#63b8ff" points="66.31,-46.82 58.17,-53.61 68.77,-53.38 66.31,-46.82"/>
</a>
</g>
</g>
</g>
</svg>
