<?xml version="1.0" encoding="UTF-8" standalone="no"?>
<!DOCTYPE svg PUBLIC "-//W3C//DTD SVG 1.1//EN"
 "http://www.w3.org/Graphics/SVG/1.1/DTD/svg11.dtd">
<!-- Generated by graphviz version 9.0.0 (20230911.1827)
 -->
<!-- Title: /github/workspace/dev_area/build/iomanager/codegen/include/iomanager/connection/Nljs.hpp Pages: 1 -->
<svg width="262pt" height="183pt"
 viewBox="0.00 0.00 262.12 182.75" xmlns="http://www.w3.org/2000/svg" xmlns:xlink="http://www.w3.org/1999/xlink">
<g id="graph0" class="graph" transform="scale(1 1) rotate(0) translate(4 178.75)">
<title>/github/workspace/dev_area/build/iomanager/codegen/include/iomanager/connection/Nljs.hpp</title>
<!-- Node1 -->
<g id="Node000001" class="node">
<title>Node1</title>
<g id="a_Node000001"><a xlink:title=" ">
<polygon fill="#999999" stroke="#666666" points="213.38,-174.75 75.88,-174.75 75.88,-121.75 213.38,-121.75 213.38,-174.75"/>
<text text-anchor="start" x="83.88" y="-161.25" font-family="Helvetica,sans-Serif" font-size="10.00">/github/workspace/dev</text>
<text text-anchor="start" x="83.88" y="-150" font-family="Helvetica,sans-Serif" font-size="10.00">_area/build/iomanager</text>
<text text-anchor="start" x="83.88" y="-138.75" font-family="Helvetica,sans-Serif" font-size="10.00">/codegen/include/iomanager</text>
<text text-anchor="middle" x="144.62" y="-127.5" font-family="Helvetica,sans-Serif" font-size="10.00">/connection/Nljs.hpp</text>
</a>
</g>
</g>
<!-- Node2 -->
<g id="Node000002" class="node">
<title>Node2</title>
<g id="a_Node000002"><a xlink:href="iomanager_2codegen_2include_2iomanager_2connection_2Structs_8hpp.html" target="_top" xlink:title=" ">
<polygon fill="white" stroke="#666666" points="139.25,-85.75 28,-85.75 28,-55.25 139.25,-55.25 139.25,-85.75"/>
<text text-anchor="start" x="36" y="-72.25" font-family="Helvetica,sans-Serif" font-size="10.00">iomanager/connection</text>
<text text-anchor="middle" x="83.62" y="-61" font-family="Helvetica,sans-Serif" font-size="10.00">/Structs.hpp</text>
</a>
</g>
</g>
<!-- Node1&#45;&gt;Node2 -->
<g id="edge1_Node000001_Node000002" class="edge">
<title>Node1&#45;&gt;Node2</title>
<g id="a_edge1_Node000001_Node000002"><a xlink:title=" ">
<path fill="none" stroke="#63b8ff" d="M123.97,-121.6C117.04,-113 109.35,-103.45 102.56,-95.01"/>
<polygon fill="#63b8ff" stroke="#63b8ff" points="105.31,-92.84 96.31,-87.25 99.85,-97.23 105.31,-92.84"/>
</a>
</g>
</g>
<!-- Node6 -->
<g id="Node000006" class="node">
<title>Node6</title>
<g id="a_Node000006"><a xlink:title=" ">
<polygon fill="#e0e0e0" stroke="#999999" points="254.12,-80.12 157.12,-80.12 157.12,-60.88 254.12,-60.88 254.12,-80.12"/>
<text text-anchor="middle" x="205.62" y="-66.62" font-family="Helvetica,sans-Serif" font-size="10.00">nlohmann/json.hpp</text>
</a>
</g>
</g>
<!-- Node1&#45;&gt;Node6 -->
<g id="edge5_Node000001_Node000006" class="edge">
<title>Node1&#45;&gt;Node6</title>
<g id="a_edge5_Node000001_Node000006"><a xlink:title=" ">
<path fill="none" stroke="#63b8ff" d="M165.28,-121.6C173.88,-110.92 183.66,-98.77 191.44,-89.12"/>
<polygon fill="#63b8ff" stroke="#63b8ff" points="193.93,-91.6 197.48,-81.62 188.48,-87.21 193.93,-91.6"/>
</a>
</g>
</g>
<!-- Node3 -->
<g id="Node000003" class="node">
<title>Node3</title>
<g id="a_Node000003"><a xlink:title=" ">
<polygon fill="#e0e0e0" stroke="#999999" points="45.25,-19.25 0,-19.25 0,0 45.25,0 45.25,-19.25"/>
<text text-anchor="middle" x="22.62" y="-5.75" font-family="Helvetica,sans-Serif" font-size="10.00">cstdint</text>
</a>
</g>
</g>
<!-- Node2&#45;&gt;Node3 -->
<g id="edge2_Node000002_Node000003" class="edge">
<title>Node2&#45;&gt;Node3</title>
<g id="a_edge2_Node000002_Node000003"><a xlink:title=" ">
<path fill="none" stroke="#63b8ff" d="M68.55,-54.95C59.97,-46.67 49.19,-36.27 40.23,-27.62"/>
<polygon fill="#63b8ff" stroke="#63b8ff" points="42.74,-25.18 33.12,-20.75 37.88,-30.22 42.74,-25.18"/>
</a>
</g>
</g>
<!-- Node4 -->
<g id="Node000004" class="node">
<title>Node4</title>
<g id="a_Node000004"><a xlink:title=" ">
<polygon fill="#e0e0e0" stroke="#999999" points="103.62,-19.25 63.62,-19.25 63.62,0 103.62,0 103.62,-19.25"/>
<text text-anchor="middle" x="83.62" y="-5.75" font-family="Helvetica,sans-Serif" font-size="10.00">string</text>
</a>
</g>
</g>
<!-- Node2&#45;&gt;Node4 -->
<g id="edge3_Node000002_Node000004" class="edge">
<title>Node2&#45;&gt;Node4</title>
<g id="a_edge3_Node000002_Node000004"><a xlink:title=" ">
<path fill="none" stroke="#63b8ff" d="M83.62,-54.95C83.62,-47.71 83.62,-38.84 83.62,-30.94"/>
<polygon fill="#63b8ff" stroke="#63b8ff" points="87.13,-31.21 83.63,-21.21 80.13,-31.21 87.13,-31.21"/>
</a>
</g>
</g>
<!-- Node5 -->
<g id="Node000005" class="node">
<title>Node5</title>
<g id="a_Node000005"><a xlink:title=" ">
<polygon fill="#e0e0e0" stroke="#999999" points="165.12,-19.25 122.12,-19.25 122.12,0 165.12,0 165.12,-19.25"/>
<text text-anchor="middle" x="143.62" y="-5.75" font-family="Helvetica,sans-Serif" font-size="10.00">vector</text>
</a>
</g>
</g>
<!-- Node2&#45;&gt;Node5 -->
<g id="edge4_Node000002_Node000005" class="edge">
<title>Node2&#45;&gt;Node5</title>
<g id="a_edge4_Node000002_Node000005"><a xlink:title=" ">
<path fill="none" stroke="#63b8ff" d="M98.46,-54.95C106.89,-46.67 117.49,-36.27 126.31,-27.62"/>
<polygon fill="#63b8ff" stroke="#63b8ff" points="128.61,-30.26 133.3,-20.76 123.71,-25.27 128.61,-30.26"/>
</a>
</g>
</g>
</g>
</svg>
