<?xml version="1.0" encoding="UTF-8" standalone="no"?>
<!DOCTYPE svg PUBLIC "-//W3C//DTD SVG 1.1//EN"
 "http://www.w3.org/Graphics/SVG/1.1/DTD/svg11.dtd">
<!-- Generated by graphviz version 9.0.0 (20230911.1827)
 -->
<!-- Title: /github/workspace/dev_area/sourcecode/ipm/include/ipm/Sender.hpp Pages: 1 -->
<svg width="2076pt" height="349pt"
 viewBox="0.00 0.00 2076.25 348.50" xmlns="http://www.w3.org/2000/svg" xmlns:xlink="http://www.w3.org/1999/xlink">
<g id="graph0" class="graph" transform="scale(1 1) rotate(0) translate(4 344.5)">
<title>/github/workspace/dev_area/sourcecode/ipm/include/ipm/Sender.hpp</title>
<!-- Node1 -->
<g id="Node000001" class="node">
<title>Node1</title>
<g id="a_Node000001"><a xlink:title=" ">
<polygon fill="#999999" stroke="#666666" points="1673,-340.5 1552.75,-340.5 1552.75,-298.75 1673,-298.75 1673,-340.5"/>
<text text-anchor="start" x="1560.75" y="-327" font-family="Helvetica,sans-Serif" font-size="10.00">/github/workspace/dev</text>
<text text-anchor="start" x="1560.75" y="-315.75" font-family="Helvetica,sans-Serif" font-size="10.00">_area/sourcecode/ipm</text>
<text text-anchor="middle" x="1612.88" y="-304.5" font-family="Helvetica,sans-Serif" font-size="10.00">/include/ipm/Sender.hpp</text>
</a>
</g>
</g>
<!-- Node2 -->
<g id="Node000002" class="node">
<title>Node2</title>
<g id="a_Node000002"><a xlink:title=" ">
<polygon fill="#e0e0e0" stroke="#999999" points="133.75,-262.75 0,-262.75 0,-243.5 133.75,-243.5 133.75,-262.75"/>
<text text-anchor="middle" x="66.88" y="-249.25" font-family="Helvetica,sans-Serif" font-size="10.00">cetlib/BasicPluginFactory.h</text>
</a>
</g>
</g>
<!-- Node1&#45;&gt;Node2 -->
<g id="edge1_Node000001_Node000002" class="edge">
<title>Node1&#45;&gt;Node2</title>
<g id="a_edge1_Node000001_Node000002"><a xlink:title=" ">
<path fill="none" stroke="#63b8ff" d="M1552.57,-317.95C1353.38,-315.39 698.17,-304.22 145.39,-262.88"/>
<polygon fill="#63b8ff" stroke="#63b8ff" points="145.73,-259.39 135.5,-262.13 145.2,-266.37 145.73,-259.39"/>
</a>
</g>
</g>
<!-- Node3 -->
<g id="Node000003" class="node">
<title>Node3</title>
<g id="a_Node000003"><a xlink:title=" ">
<polygon fill="#e0e0e0" stroke="#999999" points="275.88,-262.75 151.88,-262.75 151.88,-243.5 275.88,-243.5 275.88,-262.75"/>
<text text-anchor="middle" x="213.88" y="-249.25" font-family="Helvetica,sans-Serif" font-size="10.00">cetlib/compiler_macros.h</text>
</a>
</g>
</g>
<!-- Node1&#45;&gt;Node3 -->
<g id="edge2_Node000001_Node000003" class="edge">
<title>Node1&#45;&gt;Node3</title>
<g id="a_edge2_Node000001_Node000003"><a xlink:title=" ">
<path fill="none" stroke="#63b8ff" d="M1552.46,-317.6C1364.9,-314.07 776.07,-300.56 289.88,-262.75 289.03,-262.68 288.18,-262.62 287.33,-262.55"/>
<polygon fill="#63b8ff" stroke="#63b8ff" points="287.83,-259.08 277.56,-261.68 287.21,-266.05 287.83,-259.08"/>
</a>
</g>
</g>
<!-- Node4 -->
<g id="Node000004" class="node">
<title>Node4</title>
<g id="a_Node000004"><a xlink:href="Issue_8hpp.html" target="_top" xlink:title=" ">
<polygon fill="white" stroke="#666666" points="1282.12,-262.75 1207.62,-262.75 1207.62,-243.5 1282.12,-243.5 1282.12,-262.75"/>
<text text-anchor="middle" x="1244.88" y="-249.25" font-family="Helvetica,sans-Serif" font-size="10.00">ers/Issue.hpp</text>
</a>
</g>
</g>
<!-- Node1&#45;&gt;Node4 -->
<g id="edge3_Node000001_Node000004" class="edge">
<title>Node1&#45;&gt;Node4</title>
<g id="a_edge3_Node000001_Node000004"><a xlink:title=" ">
<path fill="none" stroke="#63b8ff" d="M1552.52,-308.05C1480.14,-295.36 1360.25,-274.35 1293.52,-262.65"/>
<polygon fill="#63b8ff" stroke="#63b8ff" points="1294.43,-259.26 1283.98,-260.98 1293.22,-266.15 1294.43,-259.26"/>
</a>
</g>
</g>
<!-- Node9 -->
<g id="Node000009" class="node">
<title>Node9</title>
<g id="a_Node000009"><a xlink:title=" ">
<polygon fill="#e0e0e0" stroke="#999999" points="1630.88,-74.5 1590.88,-74.5 1590.88,-55.25 1630.88,-55.25 1630.88,-74.5"/>
<text text-anchor="middle" x="1610.88" y="-61" font-family="Helvetica,sans-Serif" font-size="10.00">string</text>
</a>
</g>
</g>
<!-- Node1&#45;&gt;Node9 -->
<g id="edge48_Node000001_Node000009" class="edge">
<title>Node1&#45;&gt;Node9</title>
<g id="a_edge48_Node000001_Node000009"><a xlink:title=" ">
<path fill="none" stroke="#63b8ff" d="M1622.79,-298.66C1635.14,-271.41 1653.82,-220.96 1646.88,-177 1641.64,-143.87 1628.15,-107.17 1619.25,-85.34"/>
<polygon fill="#63b8ff" stroke="#63b8ff" points="1622.53,-84.12 1615.44,-76.25 1616.08,-86.83 1622.53,-84.12"/>
</a>
</g>
</g>
<!-- Node12 -->
<g id="Node000012" class="node">
<title>Node12</title>
<g id="a_Node000012"><a xlink:title=" ">
<polygon fill="#e0e0e0" stroke="#999999" points="1638.12,-201.88 1587.62,-201.88 1587.62,-182.62 1638.12,-182.62 1638.12,-201.88"/>
<text text-anchor="middle" x="1612.88" y="-188.38" font-family="Helvetica,sans-Serif" font-size="10.00">memory</text>
</a>
</g>
</g>
<!-- Node1&#45;&gt;Node12 -->
<g id="edge47_Node000001_Node000012" class="edge">
<title>Node1&#45;&gt;Node12</title>
<g id="a_edge47_Node000001_Node000012"><a xlink:title=" ">
<path fill="none" stroke="#63b8ff" d="M1612.88,-298.48C1612.88,-275.12 1612.88,-236.83 1612.88,-213.45"/>
<polygon fill="#63b8ff" stroke="#63b8ff" points="1616.38,-213.69 1612.88,-203.69 1609.38,-213.69 1616.38,-213.69"/>
</a>
</g>
</g>
<!-- Node16 -->
<g id="Node000016" class="node">
<title>Node16</title>
<g id="a_Node000016"><a xlink:title=" ">
<polygon fill="#e0e0e0" stroke="#999999" points="1178.38,-74.5 1135.38,-74.5 1135.38,-55.25 1178.38,-55.25 1178.38,-74.5"/>
<text text-anchor="middle" x="1156.88" y="-61" font-family="Helvetica,sans-Serif" font-size="10.00">vector</text>
</a>
</g>
</g>
<!-- Node1&#45;&gt;Node16 -->
<g id="edge49_Node000001_Node000016" class="edge">
<title>Node1&#45;&gt;Node16</title>
<g id="a_edge49_Node000001_Node000016"><a xlink:title=" ">
<path fill="none" stroke="#63b8ff" d="M1552.46,-317C1344.17,-310.77 657.55,-284.7 452.88,-207.5 405.67,-189.69 383.83,-185.93 360.88,-141 354.71,-128.93 351.56,-120.35 360.88,-110.5 387.5,-82.35 976.73,-69.3 1123.83,-66.47"/>
<polygon fill="#63b8ff" stroke="#63b8ff" points="1123.72,-69.98 1133.65,-66.29 1123.59,-62.98 1123.72,-69.98"/>
</a>
</g>
</g>
<!-- Node30 -->
<g id="Node000030" class="node">
<title>Node30</title>
<g id="a_Node000030"><a xlink:title=" ">
<polygon fill="#e0e0e0" stroke="#999999" points="1791.38,-201.88 1694.38,-201.88 1694.38,-182.62 1791.38,-182.62 1791.38,-201.88"/>
<text text-anchor="middle" x="1742.88" y="-188.38" font-family="Helvetica,sans-Serif" font-size="10.00">nlohmann/json.hpp</text>
</a>
</g>
</g>
<!-- Node1&#45;&gt;Node30 -->
<g id="edge39_Node000001_Node000030" class="edge">
<title>Node1&#45;&gt;Node30</title>
<g id="a_edge39_Node000001_Node000030"><a xlink:title=" ">
<path fill="none" stroke="#63b8ff" d="M1638.73,-298.47C1651.48,-288.18 1666.87,-275.23 1679.88,-262.75 1697.42,-245.92 1715.93,-225.08 1728.31,-210.63"/>
<polygon fill="#63b8ff" stroke="#63b8ff" points="1730.71,-213.21 1734.51,-203.32 1725.37,-208.69 1730.71,-213.21"/>
</a>
</g>
</g>
<!-- Node31 -->
<g id="Node000031" class="node">
<title>Node31</title>
<g id="a_Node000031"><a xlink:href="InfoCollector_8hpp.html" target="_top" xlink:title=" ">
<polygon fill="white" stroke="#666666" points="1885.25,-262.75 1754.5,-262.75 1754.5,-243.5 1885.25,-243.5 1885.25,-262.75"/>
<text text-anchor="middle" x="1819.88" y="-249.25" font-family="Helvetica,sans-Serif" font-size="10.00">opmonlib/InfoCollector.hpp</text>
</a>
</g>
</g>
<!-- Node1&#45;&gt;Node31 -->
<g id="edge40_Node000001_Node000031" class="edge">
<title>Node1&#45;&gt;Node31</title>
<g id="a_edge40_Node000001_Node000031"><a xlink:title=" ">
<path fill="none" stroke="#63b8ff" d="M1673.3,-299.8C1707.59,-289.11 1749.55,-276.04 1779.77,-266.62"/>
<polygon fill="#63b8ff" stroke="#63b8ff" points="1780.79,-269.97 1789.3,-263.65 1778.71,-263.29 1780.79,-269.97"/>
</a>
</g>
</g>
<!-- Node34 -->
<g id="Node000034" class="node">
<title>Node34</title>
<g id="a_Node000034"><a xlink:title=" ">
<polygon fill="#e0e0e0" stroke="#999999" points="1948.5,-262.75 1903.25,-262.75 1903.25,-243.5 1948.5,-243.5 1948.5,-262.75"/>
<text text-anchor="middle" x="1925.88" y="-249.25" font-family="Helvetica,sans-Serif" font-size="10.00">atomic</text>
</a>
</g>
</g>
<!-- Node1&#45;&gt;Node34 -->
<g id="edge46_Node000001_Node000034" class="edge">
<title>Node1&#45;&gt;Node34</title>
<g id="a_edge46_Node000001_Node000034"><a xlink:title=" ">
<path fill="none" stroke="#63b8ff" d="M1673.42,-307.8C1728.05,-297.76 1810.83,-281.86 1891.94,-263.08"/>
<polygon fill="#63b8ff" stroke="#63b8ff" points="1892.43,-266.55 1901.38,-260.87 1890.84,-259.74 1892.43,-266.55"/>
</a>
</g>
</g>
<!-- Node5 -->
<g id="Node000005" class="node">
<title>Node5</title>
<g id="a_Node000005"><a xlink:title=" ">
<polygon fill="#e0e0e0" stroke="#999999" points="923.5,-201.88 878.25,-201.88 878.25,-182.62 923.5,-182.62 923.5,-201.88"/>
<text text-anchor="middle" x="900.88" y="-188.38" font-family="Helvetica,sans-Serif" font-size="10.00">math.h</text>
</a>
</g>
</g>
<!-- Node4&#45;&gt;Node5 -->
<g id="edge4_Node000004_Node000005" class="edge">
<title>Node4&#45;&gt;Node5</title>
<g id="a_edge4_Node000004_Node000005"><a xlink:title=" ">
<path fill="none" stroke="#63b8ff" d="M1207.19,-250.1C1147.83,-246.17 1029.36,-235.3 932.88,-207.5 931.71,-207.16 930.52,-206.79 929.34,-206.39"/>
<polygon fill="#63b8ff" stroke="#63b8ff" points="930.82,-203.22 920.23,-202.84 928.27,-209.74 930.82,-203.22"/>
</a>
</g>
</g>
<!-- Node6 -->
<g id="Node000006" class="node">
<title>Node6</title>
<g id="a_Node000006"><a xlink:title=" ">
<polygon fill="#e0e0e0" stroke="#999999" points="986.12,-201.88 941.62,-201.88 941.62,-182.62 986.12,-182.62 986.12,-201.88"/>
<text text-anchor="middle" x="963.88" y="-188.38" font-family="Helvetica,sans-Serif" font-size="10.00">stdio.h</text>
</a>
</g>
</g>
<!-- Node4&#45;&gt;Node6 -->
<g id="edge5_Node000004_Node000006" class="edge">
<title>Node4&#45;&gt;Node6</title>
<g id="a_edge5_Node000004_Node000006"><a xlink:title=" ">
<path fill="none" stroke="#63b8ff" d="M1207.32,-248.43C1157.78,-242.89 1068.29,-230.51 994.88,-207.5 993.91,-207.2 992.94,-206.87 991.96,-206.53"/>
<polygon fill="#63b8ff" stroke="#63b8ff" points="993.59,-203.41 983,-202.9 990.96,-209.9 993.59,-203.41"/>
</a>
</g>
</g>
<!-- Node7 -->
<g id="Node000007" class="node">
<title>Node7</title>
<g id="a_Node000007"><a xlink:title=" ">
<polygon fill="#e0e0e0" stroke="#999999" points="1051.62,-201.88 1004.12,-201.88 1004.12,-182.62 1051.62,-182.62 1051.62,-201.88"/>
<text text-anchor="middle" x="1027.88" y="-188.38" font-family="Helvetica,sans-Serif" font-size="10.00">string.h</text>
</a>
</g>
</g>
<!-- Node4&#45;&gt;Node7 -->
<g id="edge6_Node000004_Node000007" class="edge">
<title>Node4&#45;&gt;Node7</title>
<g id="a_edge6_Node000004_Node000007"><a xlink:title=" ">
<path fill="none" stroke="#63b8ff" d="M1207.35,-244.97C1169.79,-237.36 1110.6,-224.13 1060.88,-207.5 1059.89,-207.17 1058.9,-206.82 1057.89,-206.46"/>
<polygon fill="#63b8ff" stroke="#63b8ff" points="1059.2,-203.22 1048.61,-202.8 1056.63,-209.73 1059.2,-203.22"/>
</a>
</g>
</g>
<!-- Node8 -->
<g id="Node000008" class="node">
<title>Node8</title>
<g id="a_Node000008"><a xlink:title=" ">
<polygon fill="#e0e0e0" stroke="#999999" points="1358.25,-135.38 1323.5,-135.38 1323.5,-116.12 1358.25,-116.12 1358.25,-135.38"/>
<text text-anchor="middle" x="1340.88" y="-121.88" font-family="Helvetica,sans-Serif" font-size="10.00">map</text>
</a>
</g>
</g>
<!-- Node4&#45;&gt;Node8 -->
<g id="edge7_Node000004_Node000008" class="edge">
<title>Node4&#45;&gt;Node8</title>
<g id="a_edge7_Node000004_Node000008"><a xlink:title=" ">
<path fill="none" stroke="#63b8ff" d="M1245.82,-243.42C1247.82,-228.52 1253.6,-197.72 1268.88,-177 1275.45,-168.09 1297.75,-153.11 1315.81,-141.81"/>
<polygon fill="#63b8ff" stroke="#63b8ff" points="1317.57,-144.84 1324.26,-136.62 1313.91,-138.88 1317.57,-144.84"/>
</a>
</g>
</g>
<!-- Node4&#45;&gt;Node9 -->
<g id="edge8_Node000004_Node000009" class="edge">
<title>Node4&#45;&gt;Node9</title>
<g id="a_edge8_Node000004_Node000009"><a xlink:title=" ">
<path fill="none" stroke="#63b8ff" d="M1282.5,-252.49C1337.48,-251.64 1441.81,-244.68 1520.88,-207.5 1561.49,-188.4 1574.65,-179.99 1596.88,-141 1606.52,-124.08 1609.71,-101.87 1610.67,-86"/>
<polygon fill="#63b8ff" stroke="#63b8ff" points="1614.16,-86.47 1611,-76.36 1607.16,-86.23 1614.16,-86.47"/>
</a>
</g>
</g>
<!-- Node10 -->
<g id="Node000010" class="node">
<title>Node10</title>
<g id="a_Node000010"><a xlink:title=" ">
<polygon fill="#e0e0e0" stroke="#999999" points="1172.62,-19.25 1119.12,-19.25 1119.12,0 1172.62,0 1172.62,-19.25"/>
<text text-anchor="middle" x="1145.88" y="-5.75" font-family="Helvetica,sans-Serif" font-size="10.00">iostream</text>
</a>
</g>
</g>
<!-- Node4&#45;&gt;Node10 -->
<g id="edge9_Node000004_Node000010" class="edge">
<title>Node4&#45;&gt;Node10</title>
<g id="a_edge9_Node000004_Node000010"><a xlink:title=" ">
<path fill="none" stroke="#63b8ff" d="M1207.29,-251.25C1059.68,-247.63 524.38,-232.88 452.88,-207.5 405.33,-190.62 383.83,-185.93 360.88,-141 290.34,-2.99 364.88,-92.13 604.88,-55.25 791.89,-26.51 1018.32,-15.4 1107.31,-11.95"/>
<polygon fill="#63b8ff" stroke="#63b8ff" points="1107.32,-15.45 1117.18,-11.57 1107.06,-8.45 1107.32,-15.45"/>
</a>
</g>
</g>
<!-- Node11 -->
<g id="Node000011" class="node">
<title>Node11</title>
<g id="a_Node000011"><a xlink:title=" ">
<polygon fill="#e0e0e0" stroke="#999999" points="1362.5,-201.88 1311.25,-201.88 1311.25,-182.62 1362.5,-182.62 1362.5,-201.88"/>
<text text-anchor="middle" x="1336.88" y="-188.38" font-family="Helvetica,sans-Serif" font-size="10.00">sstream</text>
</a>
</g>
</g>
<!-- Node4&#45;&gt;Node11 -->
<g id="edge10_Node000004_Node000011" class="edge">
<title>Node4&#45;&gt;Node11</title>
<g id="a_edge10_Node000004_Node000011"><a xlink:title=" ">
<path fill="none" stroke="#63b8ff" d="M1258.85,-243.18C1273.3,-233.93 1296.13,-219.32 1313.37,-208.29"/>
<polygon fill="#63b8ff" stroke="#63b8ff" points="1314.96,-211.43 1321.5,-203.09 1311.19,-205.53 1314.96,-211.43"/>
</a>
</g>
</g>
<!-- Node4&#45;&gt;Node12 -->
<g id="edge11_Node000004_Node000012" class="edge">
<title>Node4&#45;&gt;Node12</title>
<g id="a_edge11_Node000004_Node000012"><a xlink:title=" ">
<path fill="none" stroke="#63b8ff" d="M1282.37,-249.68C1343.96,-245.08 1470.08,-233.18 1573.88,-207.5 1575.89,-207 1577.94,-206.44 1580,-205.82"/>
<polygon fill="#63b8ff" stroke="#63b8ff" points="1581.03,-209.17 1589.42,-202.71 1578.83,-202.52 1581.03,-209.17"/>
</a>
</g>
</g>
<!-- Node13 -->
<g id="Node000013" class="node">
<title>Node13</title>
<g id="a_Node000013"><a xlink:title=" ">
<polygon fill="#e0e0e0" stroke="#999999" points="1421.5,-135.38 1376.25,-135.38 1376.25,-116.12 1421.5,-116.12 1421.5,-135.38"/>
<text text-anchor="middle" x="1398.88" y="-121.88" font-family="Helvetica,sans-Serif" font-size="10.00">chrono</text>
</a>
</g>
</g>
<!-- Node4&#45;&gt;Node13 -->
<g id="edge12_Node000004_Node000013" class="edge">
<title>Node4&#45;&gt;Node13</title>
<g id="a_edge12_Node000004_Node000013"><a xlink:title=" ">
<path fill="none" stroke="#63b8ff" d="M1249.82,-243.24C1258.63,-228.05 1278.33,-196.82 1301.88,-177 1312.81,-167.8 1344.48,-152.01 1368.69,-140.59"/>
<polygon fill="#63b8ff" stroke="#63b8ff" points="1369.91,-143.88 1377.48,-136.48 1366.94,-137.54 1369.91,-143.88"/>
</a>
</g>
</g>
<!-- Node14 -->
<g id="Node000014" class="node">
<title>Node14</title>
<g id="a_Node000014"><a xlink:title=" ">
<polygon fill="#e0e0e0" stroke="#999999" points="490.27,-201.88 461.48,-201.88 461.48,-182.62 490.27,-182.62 490.27,-201.88"/>
<text text-anchor="middle" x="475.88" y="-188.38" font-family="Helvetica,sans-Serif" font-size="10.00">list</text>
</a>
</g>
</g>
<!-- Node4&#45;&gt;Node14 -->
<g id="edge13_Node000004_Node000014" class="edge">
<title>Node4&#45;&gt;Node14</title>
<g id="a_edge13_Node000004_Node000014"><a xlink:title=" ">
<path fill="none" stroke="#63b8ff" d="M1207.55,-252.3C1075.78,-252.53 633.06,-250.07 498.88,-207.5 498.64,-207.43 498.4,-207.35 498.17,-207.27"/>
<polygon fill="#63b8ff" stroke="#63b8ff" points="499.86,-204.2 489.34,-202.95 496.79,-210.49 499.86,-204.2"/>
</a>
</g>
</g>
<!-- Node15 -->
<g id="Node000015" class="node">
<title>Node15</title>
<g id="a_Node000015"><a xlink:href="IssueFactory_8hpp.html" target="_top" xlink:title=" ">
<polygon fill="white" stroke="#666666" points="1490.25,-201.88 1383.5,-201.88 1383.5,-182.62 1490.25,-182.62 1490.25,-201.88"/>
<text text-anchor="middle" x="1436.88" y="-188.38" font-family="Helvetica,sans-Serif" font-size="10.00">ers/IssueFactory.hpp</text>
</a>
</g>
</g>
<!-- Node4&#45;&gt;Node15 -->
<g id="edge14_Node000004_Node000015" class="edge">
<title>Node4&#45;&gt;Node15</title>
<g id="a_edge14_Node000004_Node000015"><a xlink:title=" ">
<path fill="none" stroke="#63b8ff" d="M1274.45,-243.05C1307.15,-233.03 1360.01,-216.82 1396.5,-205.63"/>
<polygon fill="#63b8ff" stroke="#63b8ff" points="1397.28,-209.05 1405.82,-202.77 1395.23,-202.36 1397.28,-209.05"/>
</a>
</g>
</g>
<!-- Node17 -->
<g id="Node000017" class="node">
<title>Node17</title>
<g id="a_Node000017"><a xlink:href="Severity_8hpp.html" target="_top" xlink:title=" ">
<polygon fill="white" stroke="#666666" points="1563.75,-135.38 1478,-135.38 1478,-116.12 1563.75,-116.12 1563.75,-135.38"/>
<text text-anchor="middle" x="1520.88" y="-121.88" font-family="Helvetica,sans-Serif" font-size="10.00">ers/Severity.hpp</text>
</a>
</g>
</g>
<!-- Node4&#45;&gt;Node17 -->
<g id="edge31_Node000004_Node000017" class="edge">
<title>Node4&#45;&gt;Node17</title>
<g id="a_edge31_Node000004_Node000017"><a xlink:title=" ">
<path fill="none" stroke="#63b8ff" d="M1282.54,-250.35C1345.37,-246.63 1467.78,-235.86 1498.88,-207.5 1515.62,-192.23 1520.13,-165.58 1521.09,-147.1"/>
<polygon fill="#63b8ff" stroke="#63b8ff" points="1524.59,-147.42 1521.27,-137.36 1517.59,-147.29 1524.59,-147.42"/>
</a>
</g>
</g>
<!-- Node18 -->
<g id="Node000018" class="node">
<title>Node18</title>
<g id="a_Node000018"><a xlink:href="LocalContext_8hpp.html" target="_top" xlink:title=" ">
<polygon fill="white" stroke="#666666" points="615.62,-201.88 508.12,-201.88 508.12,-182.62 615.62,-182.62 615.62,-201.88"/>
<text text-anchor="middle" x="561.88" y="-188.38" font-family="Helvetica,sans-Serif" font-size="10.00">ers/LocalContext.hpp</text>
</a>
</g>
</g>
<!-- Node4&#45;&gt;Node18 -->
<g id="edge23_Node000004_Node000018" class="edge">
<title>Node4&#45;&gt;Node18</title>
<g id="a_edge23_Node000004_Node000018"><a xlink:title=" ">
<path fill="none" stroke="#63b8ff" d="M1207.18,-248.88C1095.93,-239.29 767.98,-211.02 627.24,-198.88"/>
<polygon fill="#63b8ff" stroke="#63b8ff" points="627.6,-195.4 617.34,-198.03 627,-202.38 627.6,-195.4"/>
</a>
</g>
</g>
<!-- Node23 -->
<g id="Node000023" class="node">
<title>Node23</title>
<g id="a_Node000023"><a xlink:href="IssueDeclarationMacro_8hpp.html" target="_top" xlink:title=" ">
<polygon fill="white" stroke="#666666" points="1209.75,-207.5 1070,-207.5 1070,-177 1209.75,-177 1209.75,-207.5"/>
<text text-anchor="start" x="1078" y="-194" font-family="Helvetica,sans-Serif" font-size="10.00">ers/internal/IssueDeclaration</text>
<text text-anchor="middle" x="1139.88" y="-182.75" font-family="Helvetica,sans-Serif" font-size="10.00">Macro.hpp</text>
</a>
</g>
</g>
<!-- Node4&#45;&gt;Node23 -->
<g id="edge32_Node000004_Node000023" class="edge">
<title>Node4&#45;&gt;Node23</title>
<g id="a_edge32_Node000004_Node000023"><a xlink:title=" ">
<path fill="none" stroke="#63b8ff" d="M1228.93,-243.18C1214.86,-235.29 1193.84,-223.51 1175.75,-213.37"/>
<polygon fill="#63b8ff" stroke="#63b8ff" points="1177.55,-210.36 1167.11,-208.52 1174.12,-216.47 1177.55,-210.36"/>
</a>
</g>
</g>
<!-- Node15&#45;&gt;Node8 -->
<g id="edge18_Node000015_Node000008" class="edge">
<title>Node15&#45;&gt;Node8</title>
<g id="a_edge18_Node000015_Node000008"><a xlink:title=" ">
<path fill="none" stroke="#63b8ff" d="M1423.53,-182.28C1408.14,-171.94 1382.58,-154.77 1363.95,-142.25"/>
<polygon fill="#63b8ff" stroke="#63b8ff" points="1365.93,-139.37 1355.68,-136.69 1362.02,-145.18 1365.93,-139.37"/>
</a>
</g>
</g>
<!-- Node15&#45;&gt;Node9 -->
<g id="edge16_Node000015_Node000009" class="edge">
<title>Node15&#45;&gt;Node9</title>
<g id="a_edge16_Node000015_Node000009"><a xlink:title=" ">
<path fill="none" stroke="#63b8ff" d="M1486.84,-182.21C1514.83,-175.01 1548.83,-162.44 1572.88,-141 1589.55,-126.13 1599.86,-102.22 1605.46,-85.38"/>
<polygon fill="#63b8ff" stroke="#63b8ff" points="1608.74,-86.63 1608.29,-76.04 1602.04,-84.6 1608.74,-86.63"/>
</a>
</g>
</g>
<!-- Node15&#45;&gt;Node13 -->
<g id="edge15_Node000015_Node000013" class="edge">
<title>Node15&#45;&gt;Node13</title>
<g id="a_edge15_Node000015_Node000013"><a xlink:title=" ">
<path fill="none" stroke="#63b8ff" d="M1431.59,-182.28C1425.98,-172.75 1416.94,-157.41 1409.78,-145.27"/>
<polygon fill="#63b8ff" stroke="#63b8ff" points="1412.97,-143.79 1404.88,-136.95 1406.94,-147.34 1412.97,-143.79"/>
</a>
</g>
</g>
<!-- Node15&#45;&gt;Node16 -->
<g id="edge17_Node000015_Node000016" class="edge">
<title>Node15&#45;&gt;Node16</title>
<g id="a_edge17_Node000015_Node000016"><a xlink:title=" ">
<path fill="none" stroke="#63b8ff" d="M1439.36,-182.36C1443.37,-165.87 1449.11,-130.4 1430.88,-110.5 1414.72,-92.86 1258.85,-75.75 1189.67,-68.95"/>
<polygon fill="#63b8ff" stroke="#63b8ff" points="1190.38,-65.5 1180.09,-68.02 1189.7,-72.47 1190.38,-65.5"/>
</a>
</g>
</g>
<!-- Node15&#45;&gt;Node17 -->
<g id="edge19_Node000015_Node000017" class="edge">
<title>Node15&#45;&gt;Node17</title>
<g id="a_edge19_Node000015_Node000017"><a xlink:title=" ">
<path fill="none" stroke="#63b8ff" d="M1448.55,-182.28C1461.89,-172.04 1483.97,-155.09 1500.23,-142.6"/>
<polygon fill="#63b8ff" stroke="#63b8ff" points="1502.02,-145.64 1507.82,-136.77 1497.76,-140.09 1502.02,-145.64"/>
</a>
</g>
</g>
<!-- Node17&#45;&gt;Node9 -->
<g id="edge20_Node000017_Node000009" class="edge">
<title>Node17&#45;&gt;Node9</title>
<g id="a_edge20_Node000017_Node000009"><a xlink:title=" ">
<path fill="none" stroke="#63b8ff" d="M1534.54,-115.81C1548.68,-106.56 1571.02,-91.95 1587.88,-80.92"/>
<polygon fill="#63b8ff" stroke="#63b8ff" points="1589.36,-84.13 1595.81,-75.73 1585.53,-78.28 1589.36,-84.13"/>
</a>
</g>
</g>
<!-- Node17&#45;&gt;Node10 -->
<g id="edge22_Node000017_Node000010" class="edge">
<title>Node17&#45;&gt;Node10</title>
<g id="a_edge22_Node000017_Node000010"><a xlink:title=" ">
<path fill="none" stroke="#63b8ff" d="M1491.14,-115.7C1423.58,-95.14 1258.63,-44.94 1183.85,-22.18"/>
<polygon fill="#63b8ff" stroke="#63b8ff" points="1185.1,-18.9 1174.51,-19.34 1183.06,-25.6 1185.1,-18.9"/>
</a>
</g>
</g>
<!-- Node17&#45;&gt;Node16 -->
<g id="edge21_Node000017_Node000016" class="edge">
<title>Node17&#45;&gt;Node16</title>
<g id="a_edge21_Node000017_Node000016"><a xlink:title=" ">
<path fill="none" stroke="#63b8ff" d="M1486.94,-115.67C1479.38,-113.82 1471.38,-111.98 1463.88,-110.5 1364.92,-90.99 1246.47,-76.15 1189.99,-69.58"/>
<polygon fill="#63b8ff" stroke="#63b8ff" points="1190.43,-66.11 1180.09,-68.44 1189.63,-73.06 1190.43,-66.11"/>
</a>
</g>
</g>
<!-- Node19 -->
<g id="Node000019" class="node">
<title>Node19</title>
<g id="a_Node000019"><a xlink:title=" ">
<polygon fill="#e0e0e0" stroke="#999999" points="502.25,-135.38 437.5,-135.38 437.5,-116.12 502.25,-116.12 502.25,-135.38"/>
<text text-anchor="middle" x="469.88" y="-121.88" font-family="Helvetica,sans-Serif" font-size="10.00">sys/types.h</text>
</a>
</g>
</g>
<!-- Node18&#45;&gt;Node19 -->
<g id="edge24_Node000018_Node000019" class="edge">
<title>Node18&#45;&gt;Node19</title>
<g id="a_edge24_Node000018_Node000019"><a xlink:title=" ">
<path fill="none" stroke="#63b8ff" d="M549.08,-182.28C534.4,-171.99 510.06,-154.93 492.23,-142.43"/>
<polygon fill="#63b8ff" stroke="#63b8ff" points="494.29,-139.59 484.09,-136.72 490.27,-145.33 494.29,-139.59"/>
</a>
</g>
</g>
<!-- Node20 -->
<g id="Node000020" class="node">
<title>Node20</title>
<g id="a_Node000020"><a xlink:title=" ">
<polygon fill="#e0e0e0" stroke="#999999" points="419.75,-135.38 370,-135.38 370,-116.12 419.75,-116.12 419.75,-135.38"/>
<text text-anchor="middle" x="394.88" y="-121.88" font-family="Helvetica,sans-Serif" font-size="10.00">unistd.h</text>
</a>
</g>
</g>
<!-- Node18&#45;&gt;Node20 -->
<g id="edge25_Node000018_Node000020" class="edge">
<title>Node18&#45;&gt;Node20</title>
<g id="a_edge25_Node000018_Node000020"><a xlink:title=" ">
<path fill="none" stroke="#63b8ff" d="M537.26,-182.25C510.49,-172.39 466.48,-155.98 428.88,-141 428.09,-140.69 427.3,-140.37 426.51,-140.05"/>
<polygon fill="#63b8ff" stroke="#63b8ff" points="428.03,-136.89 417.45,-136.34 425.37,-143.37 428.03,-136.89"/>
</a>
</g>
</g>
<!-- Node21 -->
<g id="Node000021" class="node">
<title>Node21</title>
<g id="a_Node000021"><a xlink:href="Context_8hpp.html" target="_top" xlink:title=" ">
<polygon fill="white" stroke="#666666" points="603.62,-135.38 520.12,-135.38 520.12,-116.12 603.62,-116.12 603.62,-135.38"/>
<text text-anchor="middle" x="561.88" y="-121.88" font-family="Helvetica,sans-Serif" font-size="10.00">ers/Context.hpp</text>
</a>
</g>
</g>
<!-- Node18&#45;&gt;Node21 -->
<g id="edge26_Node000018_Node000021" class="edge">
<title>Node18&#45;&gt;Node21</title>
<g id="a_edge26_Node000018_Node000021"><a xlink:title=" ">
<path fill="none" stroke="#63b8ff" d="M561.88,-182.28C561.88,-173.23 561.88,-158.95 561.88,-147.13"/>
<polygon fill="#63b8ff" stroke="#63b8ff" points="565.38,-147.16 561.88,-137.16 558.38,-147.16 565.38,-147.16"/>
</a>
</g>
</g>
<!-- Node21&#45;&gt;Node9 -->
<g id="edge27_Node000021_Node000009" class="edge">
<title>Node21&#45;&gt;Node9</title>
<g id="a_edge27_Node000021_Node000009"><a xlink:title=" ">
<path fill="none" stroke="#63b8ff" d="M589.38,-115.67C596.62,-113.62 604.48,-111.7 611.88,-110.5 804.8,-79.14 1431.21,-68.42 1579.29,-66.3"/>
<polygon fill="#63b8ff" stroke="#63b8ff" points="1579.16,-69.8 1589.11,-66.16 1579.07,-62.8 1579.16,-69.8"/>
</a>
</g>
</g>
<!-- Node21&#45;&gt;Node16 -->
<g id="edge28_Node000021_Node000016" class="edge">
<title>Node21&#45;&gt;Node16</title>
<g id="a_edge28_Node000021_Node000016"><a xlink:title=" ">
<path fill="none" stroke="#63b8ff" d="M590.2,-115.63C597.22,-113.67 604.77,-111.79 611.88,-110.5 803.7,-75.66 1038.5,-68 1123.87,-66.33"/>
<polygon fill="#63b8ff" stroke="#63b8ff" points="1123.68,-69.84 1133.61,-66.16 1123.55,-62.84 1123.68,-69.84"/>
</a>
</g>
</g>
<!-- Node22 -->
<g id="Node000022" class="node">
<title>Node22</title>
<g id="a_Node000022"><a xlink:href="ers_2include_2ers_2Configuration_8hpp.html" target="_top" xlink:title=" ">
<polygon fill="white" stroke="#666666" points="720.25,-74.5 613.5,-74.5 613.5,-55.25 720.25,-55.25 720.25,-74.5"/>
<text text-anchor="middle" x="666.88" y="-61" font-family="Helvetica,sans-Serif" font-size="10.00">ers/Configuration.hpp</text>
</a>
</g>
</g>
<!-- Node21&#45;&gt;Node22 -->
<g id="edge29_Node000021_Node000022" class="edge">
<title>Node21&#45;&gt;Node22</title>
<g id="a_edge29_Node000021_Node000022"><a xlink:title=" ">
<path fill="none" stroke="#63b8ff" d="M577.82,-115.81C594.55,-106.43 621.11,-91.54 640.88,-80.45"/>
<polygon fill="#63b8ff" stroke="#63b8ff" points="642.45,-83.58 649.46,-75.64 639.02,-77.48 642.45,-83.58"/>
</a>
</g>
</g>
<!-- Node22&#45;&gt;Node10 -->
<g id="edge30_Node000022_Node000010" class="edge">
<title>Node22&#45;&gt;Node10</title>
<g id="a_edge30_Node000022_Node000010"><a xlink:title=" ">
<path fill="none" stroke="#63b8ff" d="M720.43,-57.92C817.91,-47.08 1022.1,-24.39 1107.27,-14.92"/>
<polygon fill="#63b8ff" stroke="#63b8ff" points="1107.66,-18.4 1117.21,-13.81 1106.88,-11.44 1107.66,-18.4"/>
</a>
</g>
</g>
<!-- Node24 -->
<g id="Node000024" class="node">
<title>Node24</title>
<g id="a_Node000024"><a xlink:title=" ">
<polygon fill="#e0e0e0" stroke="#999999" points="954.5,-141 855.25,-141 855.25,-110.5 954.5,-110.5 954.5,-141"/>
<text text-anchor="start" x="863.25" y="-127.5" font-family="Helvetica,sans-Serif" font-size="10.00">boost/preprocessor</text>
<text text-anchor="middle" x="904.88" y="-116.25" font-family="Helvetica,sans-Serif" font-size="10.00">/if.hpp</text>
</a>
</g>
</g>
<!-- Node23&#45;&gt;Node24 -->
<g id="edge33_Node000023_Node000024" class="edge">
<title>Node23&#45;&gt;Node24</title>
<g id="a_edge33_Node000023_Node000024"><a xlink:title=" ">
<path fill="none" stroke="#63b8ff" d="M1086.26,-176.53C1050.25,-166.65 1002.76,-153.62 965.4,-143.36"/>
<polygon fill="#63b8ff" stroke="#63b8ff" points="966.68,-140.08 956.11,-140.81 964.83,-146.83 966.68,-140.08"/>
</a>
</g>
</g>
<!-- Node25 -->
<g id="Node000025" class="node">
<title>Node25</title>
<g id="a_Node000025"><a xlink:title=" ">
<polygon fill="#e0e0e0" stroke="#999999" points="1071.5,-141 972.25,-141 972.25,-110.5 1071.5,-110.5 1071.5,-141"/>
<text text-anchor="start" x="980.25" y="-127.5" font-family="Helvetica,sans-Serif" font-size="10.00">boost/preprocessor</text>
<text text-anchor="middle" x="1021.88" y="-116.25" font-family="Helvetica,sans-Serif" font-size="10.00">/seq.hpp</text>
</a>
</g>
</g>
<!-- Node23&#45;&gt;Node25 -->
<g id="edge34_Node000023_Node000025" class="edge">
<title>Node23&#45;&gt;Node25</title>
<g id="a_edge34_Node000023_Node000025"><a xlink:title=" ">
<path fill="none" stroke="#63b8ff" d="M1113.1,-176.61C1096.96,-167.79 1076.17,-156.43 1058.52,-146.78"/>
<polygon fill="#63b8ff" stroke="#63b8ff" points="1060.33,-143.78 1049.87,-142.05 1056.97,-149.92 1060.33,-143.78"/>
</a>
</g>
</g>
<!-- Node26 -->
<g id="Node000026" class="node">
<title>Node26</title>
<g id="a_Node000026"><a xlink:title=" ">
<polygon fill="#e0e0e0" stroke="#999999" points="1188.5,-141 1089.25,-141 1089.25,-110.5 1188.5,-110.5 1188.5,-141"/>
<text text-anchor="start" x="1097.25" y="-127.5" font-family="Helvetica,sans-Serif" font-size="10.00">boost/preprocessor</text>
<text text-anchor="middle" x="1138.88" y="-116.25" font-family="Helvetica,sans-Serif" font-size="10.00">/tuple.hpp</text>
</a>
</g>
</g>
<!-- Node23&#45;&gt;Node26 -->
<g id="edge35_Node000023_Node000026" class="edge">
<title>Node23&#45;&gt;Node26</title>
<g id="a_edge35_Node000023_Node000026"><a xlink:title=" ">
<path fill="none" stroke="#63b8ff" d="M1139.65,-176.61C1139.54,-169.52 1139.4,-160.79 1139.28,-152.63"/>
<polygon fill="#63b8ff" stroke="#63b8ff" points="1142.78,-152.79 1139.12,-142.84 1135.78,-152.89 1142.78,-152.79"/>
</a>
</g>
</g>
<!-- Node27 -->
<g id="Node000027" class="node">
<title>Node27</title>
<g id="a_Node000027"><a xlink:title=" ">
<polygon fill="#e0e0e0" stroke="#999999" points="1305.5,-141 1206.25,-141 1206.25,-110.5 1305.5,-110.5 1305.5,-141"/>
<text text-anchor="start" x="1214.25" y="-127.5" font-family="Helvetica,sans-Serif" font-size="10.00">boost/preprocessor</text>
<text text-anchor="middle" x="1255.88" y="-116.25" font-family="Helvetica,sans-Serif" font-size="10.00">/logical.hpp</text>
</a>
</g>
</g>
<!-- Node23&#45;&gt;Node27 -->
<g id="edge36_Node000023_Node000027" class="edge">
<title>Node23&#45;&gt;Node27</title>
<g id="a_edge36_Node000023_Node000027"><a xlink:title=" ">
<path fill="none" stroke="#63b8ff" d="M1166.2,-176.61C1182.07,-167.79 1202.5,-156.43 1219.85,-146.78"/>
<polygon fill="#63b8ff" stroke="#63b8ff" points="1221.3,-149.98 1228.33,-142.06 1217.89,-143.86 1221.3,-149.98"/>
</a>
</g>
</g>
<!-- Node28 -->
<g id="Node000028" class="node">
<title>Node28</title>
<g id="a_Node000028"><a xlink:title=" ">
<polygon fill="#e0e0e0" stroke="#999999" points="720.5,-141 621.25,-141 621.25,-110.5 720.5,-110.5 720.5,-141"/>
<text text-anchor="start" x="629.25" y="-127.5" font-family="Helvetica,sans-Serif" font-size="10.00">boost/preprocessor</text>
<text text-anchor="middle" x="670.88" y="-116.25" font-family="Helvetica,sans-Serif" font-size="10.00">/stringize.hpp</text>
</a>
</g>
</g>
<!-- Node23&#45;&gt;Node28 -->
<g id="edge37_Node000023_Node000028" class="edge">
<title>Node23&#45;&gt;Node28</title>
<g id="a_edge37_Node000023_Node000028"><a xlink:title=" ">
<path fill="none" stroke="#63b8ff" d="M1069.71,-178.33C1066.72,-177.86 1063.77,-177.42 1060.88,-177 917.56,-156.33 877.01,-166.25 731.87,-141.39"/>
<polygon fill="#63b8ff" stroke="#63b8ff" points="732.72,-137.98 722.26,-139.72 731.51,-144.88 732.72,-137.98"/>
</a>
</g>
</g>
<!-- Node29 -->
<g id="Node000029" class="node">
<title>Node29</title>
<g id="a_Node000029"><a xlink:title=" ">
<polygon fill="#e0e0e0" stroke="#999999" points="837.5,-141 738.25,-141 738.25,-110.5 837.5,-110.5 837.5,-141"/>
<text text-anchor="start" x="746.25" y="-127.5" font-family="Helvetica,sans-Serif" font-size="10.00">boost/preprocessor</text>
<text text-anchor="middle" x="787.88" y="-116.25" font-family="Helvetica,sans-Serif" font-size="10.00">/comparison.hpp</text>
</a>
</g>
</g>
<!-- Node23&#45;&gt;Node29 -->
<g id="edge38_Node000023_Node000029" class="edge">
<title>Node23&#45;&gt;Node29</title>
<g id="a_edge38_Node000023_Node000029"><a xlink:title=" ">
<path fill="none" stroke="#63b8ff" d="M1069.67,-178.54C1066.7,-178.02 1063.76,-177.5 1060.88,-177 968.96,-161.02 942.69,-160.58 848.95,-141.55"/>
<polygon fill="#63b8ff" stroke="#63b8ff" points="849.79,-138.15 839.29,-139.57 848.38,-145.01 849.79,-138.15"/>
</a>
</g>
</g>
<!-- Node31&#45;&gt;Node9 -->
<g id="edge44_Node000031_Node000009" class="edge">
<title>Node31&#45;&gt;Node9</title>
<g id="a_edge44_Node000031_Node000009"><a xlink:title=" ">
<path fill="none" stroke="#63b8ff" d="M1819.78,-243.32C1819.2,-228.26 1816.07,-197.22 1800.88,-177 1760.17,-122.86 1684.75,-90.42 1642.2,-75.58"/>
<polygon fill="#63b8ff" stroke="#63b8ff" points="1643.4,-72.3 1632.81,-72.43 1641.17,-78.93 1643.4,-72.3"/>
</a>
</g>
</g>
<!-- Node31&#45;&gt;Node10 -->
<g id="edge43_Node000031_Node000010" class="edge">
<title>Node31&#45;&gt;Node10</title>
<g id="a_edge43_Node000031_Node000010"><a xlink:title=" ">
<path fill="none" stroke="#63b8ff" d="M1822.07,-243.4C1825.26,-228.98 1829.86,-199.54 1820.88,-177 1784.99,-86.94 1733.47,-80.55 1639.88,-55.25 1554,-32.04 1284.99,-17.23 1184.37,-12.38"/>
<polygon fill="#63b8ff" stroke="#63b8ff" points="1184.62,-8.88 1174.46,-11.91 1184.29,-15.88 1184.62,-8.88"/>
</a>
</g>
</g>
<!-- Node31&#45;&gt;Node30 -->
<g id="edge41_Node000031_Node000030" class="edge">
<title>Node31&#45;&gt;Node30</title>
<g id="a_edge41_Node000031_Node000030"><a xlink:title=" ">
<path fill="none" stroke="#63b8ff" d="M1808.18,-243.18C1796.42,-234.19 1778.04,-220.14 1763.77,-209.23"/>
<polygon fill="#63b8ff" stroke="#63b8ff" points="1765.95,-206.49 1755.88,-203.2 1761.7,-212.05 1765.95,-206.49"/>
</a>
</g>
</g>
<!-- Node32 -->
<g id="Node000032" class="node">
<title>Node32</title>
<g id="a_Node000032"><a xlink:title=" ">
<polygon fill="#e0e0e0" stroke="#999999" points="1925.88,-201.88 1885.88,-201.88 1885.88,-182.62 1925.88,-182.62 1925.88,-201.88"/>
<text text-anchor="middle" x="1905.88" y="-188.38" font-family="Helvetica,sans-Serif" font-size="10.00">ctime</text>
</a>
</g>
</g>
<!-- Node31&#45;&gt;Node32 -->
<g id="edge42_Node000031_Node000032" class="edge">
<title>Node31&#45;&gt;Node32</title>
<g id="a_edge42_Node000031_Node000032"><a xlink:title=" ">
<path fill="none" stroke="#63b8ff" d="M1832.94,-243.18C1846.32,-234.02 1867.39,-219.59 1883.45,-208.6"/>
<polygon fill="#63b8ff" stroke="#63b8ff" points="1885.17,-211.67 1891.44,-203.13 1881.21,-205.89 1885.17,-211.67"/>
</a>
</g>
</g>
<!-- Node33 -->
<g id="Node000033" class="node">
<title>Node33</title>
<g id="a_Node000033"><a xlink:href="JSONTags_8hpp.html" target="_top" xlink:title=" ">
<polygon fill="white" stroke="#666666" points="2068.25,-201.88 1943.5,-201.88 1943.5,-182.62 2068.25,-182.62 2068.25,-201.88"/>
<text text-anchor="middle" x="2005.88" y="-188.38" font-family="Helvetica,sans-Serif" font-size="10.00">opmonlib/JSONTags.hpp</text>
</a>
</g>
</g>
<!-- Node31&#45;&gt;Node33 -->
<g id="edge45_Node000031_Node000033" class="edge">
<title>Node31&#45;&gt;Node33</title>
<g id="a_edge45_Node000031_Node000033"><a xlink:title=" ">
<path fill="none" stroke="#63b8ff" d="M1848.53,-243.05C1880.07,-233.07 1930.97,-216.96 1966.31,-205.77"/>
<polygon fill="#63b8ff" stroke="#63b8ff" points="1967.27,-209.14 1975.74,-202.79 1965.15,-202.47 1967.27,-209.14"/>
</a>
</g>
</g>
</g>
</svg>
