<?xml version="1.0" encoding="UTF-8" standalone="no"?>
<!DOCTYPE svg PUBLIC "-//W3C//DTD SVG 1.1//EN"
 "http://www.w3.org/Graphics/SVG/1.1/DTD/svg11.dtd">
<!-- Generated by graphviz version 9.0.0 (20230911.1827)
 -->
<!-- Title: /github/workspace/dev_area/build/ipm/codegen/include/ipm/senderinfo/InfoNljs.hpp Pages: 1 -->
<svg width="272pt" height="172pt"
 viewBox="0.00 0.00 271.88 171.50" xmlns="http://www.w3.org/2000/svg" xmlns:xlink="http://www.w3.org/1999/xlink">
<g id="graph0" class="graph" transform="scale(1 1) rotate(0) translate(4 167.5)">
<title>/github/workspace/dev_area/build/ipm/codegen/include/ipm/senderinfo/InfoNljs.hpp</title>
<!-- Node1 -->
<g id="Node000001" class="node">
<title>Node1</title>
<g id="a_Node000001"><a xlink:title=" ">
<polygon fill="#999999" stroke="#666666" points="205.25,-163.5 83.5,-163.5 83.5,-110.5 205.25,-110.5 205.25,-163.5"/>
<text text-anchor="start" x="91.5" y="-150" font-family="Helvetica,sans-Serif" font-size="10.00">/github/workspace/dev</text>
<text text-anchor="start" x="91.5" y="-138.75" font-family="Helvetica,sans-Serif" font-size="10.00">_area/build/ipm/codegen</text>
<text text-anchor="start" x="91.5" y="-127.5" font-family="Helvetica,sans-Serif" font-size="10.00">/include/ipm/senderinfo</text>
<text text-anchor="middle" x="144.38" y="-116.25" font-family="Helvetica,sans-Serif" font-size="10.00">/InfoNljs.hpp</text>
</a>
</g>
</g>
<!-- Node2 -->
<g id="Node000002" class="node">
<title>Node2</title>
<g id="a_Node000002"><a xlink:href="ipm_2codegen_2include_2ipm_2senderinfo_2InfoStructs_8hpp.html" target="_top" xlink:title=" ">
<polygon fill="white" stroke="#666666" points="148.75,-74.5 0,-74.5 0,-55.25 148.75,-55.25 148.75,-74.5"/>
<text text-anchor="middle" x="74.38" y="-61" font-family="Helvetica,sans-Serif" font-size="10.00">ipm/senderinfo/InfoStructs.hpp</text>
</a>
</g>
</g>
<!-- Node1&#45;&gt;Node2 -->
<g id="edge1_Node000001_Node000002" class="edge">
<title>Node1&#45;&gt;Node2</title>
<g id="a_edge1_Node000001_Node000002"><a xlink:title=" ">
<path fill="none" stroke="#63b8ff" d="M118.71,-110.29C109.65,-101.22 99.7,-91.24 91.52,-83.05"/>
<polygon fill="#63b8ff" stroke="#63b8ff" points="94.08,-80.66 84.54,-76.06 89.13,-85.61 94.08,-80.66"/>
</a>
</g>
</g>
<!-- Node4 -->
<g id="Node000004" class="node">
<title>Node4</title>
<g id="a_Node000004"><a xlink:title=" ">
<polygon fill="#e0e0e0" stroke="#999999" points="263.88,-74.5 166.88,-74.5 166.88,-55.25 263.88,-55.25 263.88,-74.5"/>
<text text-anchor="middle" x="215.38" y="-61" font-family="Helvetica,sans-Serif" font-size="10.00">nlohmann/json.hpp</text>
</a>
</g>
</g>
<!-- Node1&#45;&gt;Node4 -->
<g id="edge3_Node000001_Node000004" class="edge">
<title>Node1&#45;&gt;Node4</title>
<g id="a_edge3_Node000001_Node000004"><a xlink:title=" ">
<path fill="none" stroke="#63b8ff" d="M170.41,-110.29C179.59,-101.22 189.69,-91.24 197.98,-83.05"/>
<polygon fill="#63b8ff" stroke="#63b8ff" points="200.42,-85.57 205.07,-76.05 195.5,-80.59 200.42,-85.57"/>
</a>
</g>
</g>
<!-- Node3 -->
<g id="Node000003" class="node">
<title>Node3</title>
<g id="a_Node000003"><a xlink:title=" ">
<polygon fill="#e0e0e0" stroke="#999999" points="97,-19.25 51.75,-19.25 51.75,0 97,0 97,-19.25"/>
<text text-anchor="middle" x="74.38" y="-5.75" font-family="Helvetica,sans-Serif" font-size="10.00">cstdint</text>
</a>
</g>
</g>
<!-- Node2&#45;&gt;Node3 -->
<g id="edge2_Node000002_Node000003" class="edge">
<title>Node2&#45;&gt;Node3</title>
<g id="a_edge2_Node000002_Node000003"><a xlink:title=" ">
<path fill="none" stroke="#63b8ff" d="M74.38,-55.08C74.38,-48.57 74.38,-39.42 74.38,-31.12"/>
<polygon fill="#63b8ff" stroke="#63b8ff" points="77.88,-31.12 74.38,-21.12 70.88,-31.12 77.88,-31.12"/>
</a>
</g>
</g>
</g>
</svg>
