<?xml version="1.0" encoding="UTF-8" standalone="no"?>
<!DOCTYPE svg PUBLIC "-//W3C//DTD SVG 1.1//EN"
 "http://www.w3.org/Graphics/SVG/1.1/DTD/svg11.dtd">
<!-- Generated by graphviz version 9.0.0 (20230911.1827)
 -->
<!-- Title: /github/workspace/dev_area/sourcecode/oks/include/oks/kernel.hpp Pages: 1 -->
<svg width="5421pt" height="217pt"
 viewBox="0.00 0.00 5421.25 216.50" xmlns="http://www.w3.org/2000/svg" xmlns:xlink="http://www.w3.org/1999/xlink">
<g id="graph0" class="graph" transform="scale(1 1) rotate(0) translate(4 212.5)">
<title>/github/workspace/dev_area/sourcecode/oks/include/oks/kernel.hpp</title>
<!-- Node1 -->
<g id="Node000001" class="node">
<title>Node1</title>
<g id="a_Node000001"><a xlink:title=" ">
<polygon fill="#999999" stroke="#666666" points="2778.25,-208.5 2662.5,-208.5 2662.5,-166.75 2778.25,-166.75 2778.25,-208.5"/>
<text text-anchor="start" x="2670.5" y="-195" font-family="Helvetica,sans-Serif" font-size="10.00">/github/workspace/dev</text>
<text text-anchor="start" x="2670.5" y="-183.75" font-family="Helvetica,sans-Serif" font-size="10.00">_area/sourcecode/oks</text>
<text text-anchor="middle" x="2720.38" y="-172.5" font-family="Helvetica,sans-Serif" font-size="10.00">/include/oks/kernel.hpp</text>
</a>
</g>
</g>
<!-- Node2 -->
<g id="Node000002" class="node">
<title>Node2</title>
<g id="a_Node000002"><a xlink:href="sourcecode_2appdal_2src_2DFApplication_8cpp.html" target="_top" xlink:title=" ">
<polygon fill="white" stroke="#666666" points="124.75,-125.12 0,-125.12 0,-83.38 124.75,-83.38 124.75,-125.12"/>
<text text-anchor="start" x="8" y="-111.62" font-family="Helvetica,sans-Serif" font-size="10.00">/github/workspace/dev</text>
<text text-anchor="start" x="8" y="-100.38" font-family="Helvetica,sans-Serif" font-size="10.00">_area/sourcecode/appdal</text>
<text text-anchor="middle" x="62.38" y="-89.12" font-family="Helvetica,sans-Serif" font-size="10.00">/src/DFApplication.cpp</text>
</a>
</g>
</g>
<!-- Node1&#45;&gt;Node2 -->
<g id="edge1_Node000001_Node000002" class="edge">
<title>Node1&#45;&gt;Node2</title>
<g id="a_edge1_Node000001_Node000002"><a xlink:title=" ">
<path fill="none" stroke="#63b8ff" d="M2650.78,-186.44C2264.03,-185.25 387.74,-177.11 134.38,-130.75 127.46,-129.48 120.32,-127.65 113.35,-125.54"/>
<polygon fill="#63b8ff" stroke="#63b8ff" points="2650.52,-189.94 2660.53,-186.47 2650.54,-182.94 2650.52,-189.94"/>
</a>
</g>
</g>
<!-- Node3 -->
<g id="Node000003" class="node">
<title>Node3</title>
<g id="a_Node000003"><a xlink:href="sourcecode_2appdal_2src_2DFOApplication_8cpp.html" target="_top" xlink:title=" ">
<polygon fill="white" stroke="#666666" points="267.75,-125.12 143,-125.12 143,-83.38 267.75,-83.38 267.75,-125.12"/>
<text text-anchor="start" x="151" y="-111.62" font-family="Helvetica,sans-Serif" font-size="10.00">/github/workspace/dev</text>
<text text-anchor="start" x="151" y="-100.38" font-family="Helvetica,sans-Serif" font-size="10.00">_area/sourcecode/appdal</text>
<text text-anchor="middle" x="205.38" y="-89.12" font-family="Helvetica,sans-Serif" font-size="10.00">/src/DFOApplication.cpp</text>
</a>
</g>
</g>
<!-- Node1&#45;&gt;Node3 -->
<g id="edge2_Node000001_Node000003" class="edge">
<title>Node1&#45;&gt;Node3</title>
<g id="a_edge2_Node000001_Node000003"><a xlink:title=" ">
<path fill="none" stroke="#63b8ff" d="M2650.75,-186.37C2276.82,-184.8 514.88,-175.1 276.38,-130.75 269.55,-129.48 262.51,-127.64 255.63,-125.53"/>
<polygon fill="#63b8ff" stroke="#63b8ff" points="2650.65,-189.87 2660.67,-186.41 2650.68,-182.87 2650.65,-189.87"/>
</a>
</g>
</g>
<!-- Node4 -->
<g id="Node000004" class="node">
<title>Node4</title>
<g id="a_Node000004"><a xlink:href="sourcecode_2appdal_2src_2FakeDataApplication_8cpp.html" target="_top" xlink:title=" ">
<polygon fill="white" stroke="#666666" points="429.12,-125.12 285.62,-125.12 285.62,-83.38 429.12,-83.38 429.12,-125.12"/>
<text text-anchor="start" x="293.62" y="-111.62" font-family="Helvetica,sans-Serif" font-size="10.00">/github/workspace/dev</text>
<text text-anchor="start" x="293.62" y="-100.38" font-family="Helvetica,sans-Serif" font-size="10.00">_area/sourcecode/appdal</text>
<text text-anchor="middle" x="357.38" y="-89.12" font-family="Helvetica,sans-Serif" font-size="10.00">/src/FakeDataApplication.cpp</text>
</a>
</g>
</g>
<!-- Node1&#45;&gt;Node4 -->
<g id="edge3_Node000001_Node000004" class="edge">
<title>Node1&#45;&gt;Node4</title>
<g id="a_edge3_Node000001_Node000004"><a xlink:title=" ">
<path fill="none" stroke="#63b8ff" d="M2650.55,-186.08C2291.45,-183.12 660.81,-167.73 438.38,-130.75 430.67,-129.47 422.68,-127.62 414.86,-125.51"/>
<polygon fill="#63b8ff" stroke="#63b8ff" points="2650.5,-189.58 2660.53,-186.16 2650.56,-182.58 2650.5,-189.58"/>
</a>
</g>
</g>
<!-- Node5 -->
<g id="Node000005" class="node">
<title>Node5</title>
<g id="a_Node000005"><a xlink:href="sourcecode_2appdal_2src_2FakeHSIApplication_8cpp.html" target="_top" xlink:title=" ">
<polygon fill="white" stroke="#666666" points="587.62,-125.12 447.12,-125.12 447.12,-83.38 587.62,-83.38 587.62,-125.12"/>
<text text-anchor="start" x="455.12" y="-111.62" font-family="Helvetica,sans-Serif" font-size="10.00">/github/workspace/dev</text>
<text text-anchor="start" x="455.12" y="-100.38" font-family="Helvetica,sans-Serif" font-size="10.00">_area/sourcecode/appdal</text>
<text text-anchor="middle" x="517.38" y="-89.12" font-family="Helvetica,sans-Serif" font-size="10.00">/src/FakeHSIApplication.cpp</text>
</a>
</g>
</g>
<!-- Node1&#45;&gt;Node5 -->
<g id="edge4_Node000001_Node000005" class="edge">
<title>Node1&#45;&gt;Node5</title>
<g id="a_edge4_Node000001_Node000005"><a xlink:title=" ">
<path fill="none" stroke="#63b8ff" d="M2650.73,-185.97C2307.28,-182.61 802.32,-165.95 596.38,-130.75 588.99,-129.49 581.34,-127.69 573.85,-125.62"/>
<polygon fill="#63b8ff" stroke="#63b8ff" points="2650.67,-189.47 2660.7,-186.07 2650.73,-182.47 2650.67,-189.47"/>
</a>
</g>
</g>
<!-- Node6 -->
<g id="Node000006" class="node">
<title>Node6</title>
<g id="a_Node000006"><a xlink:href="sourcecode_2appdal_2src_2HSIEventToTCApplication_8cpp.html" target="_top" xlink:title=" ">
<polygon fill="white" stroke="#666666" points="773.12,-125.12 605.62,-125.12 605.62,-83.38 773.12,-83.38 773.12,-125.12"/>
<text text-anchor="start" x="613.62" y="-111.62" font-family="Helvetica,sans-Serif" font-size="10.00">/github/workspace/dev</text>
<text text-anchor="start" x="613.62" y="-100.38" font-family="Helvetica,sans-Serif" font-size="10.00">_area/sourcecode/appdal</text>
<text text-anchor="middle" x="689.38" y="-89.12" font-family="Helvetica,sans-Serif" font-size="10.00">/src/HSIEventToTCApplication.cpp</text>
</a>
</g>
</g>
<!-- Node1&#45;&gt;Node6 -->
<g id="edge5_Node000001_Node000006" class="edge">
<title>Node1&#45;&gt;Node6</title>
<g id="a_edge5_Node000001_Node000006"><a xlink:title=" ">
<path fill="none" stroke="#63b8ff" d="M2651.06,-186.87C2349.83,-187.58 1152.9,-186.75 781.38,-130.75 772.85,-129.47 764,-127.65 755.29,-125.57"/>
<polygon fill="#63b8ff" stroke="#63b8ff" points="2650.73,-190.37 2660.72,-186.84 2650.71,-183.37 2650.73,-190.37"/>
</a>
</g>
</g>
<!-- Node7 -->
<g id="Node000007" class="node">
<title>Node7</title>
<g id="a_Node000007"><a xlink:href="sourcecode_2appdal_2src_2SmartDaqApplication_8cpp.html" target="_top" xlink:title=" ">
<polygon fill="white" stroke="#666666" points="935.88,-125.12 790.88,-125.12 790.88,-83.38 935.88,-83.38 935.88,-125.12"/>
<text text-anchor="start" x="798.88" y="-111.62" font-family="Helvetica,sans-Serif" font-size="10.00">/github/workspace/dev</text>
<text text-anchor="start" x="798.88" y="-100.38" font-family="Helvetica,sans-Serif" font-size="10.00">_area/sourcecode/appdal</text>
<text text-anchor="middle" x="863.38" y="-89.12" font-family="Helvetica,sans-Serif" font-size="10.00">/src/SmartDaqApplication.cpp</text>
</a>
</g>
</g>
<!-- Node1&#45;&gt;Node7 -->
<g id="edge6_Node000001_Node000007" class="edge">
<title>Node1&#45;&gt;Node7</title>
<g id="a_edge6_Node000001_Node000007"><a xlink:title=" ">
<path fill="none" stroke="#63b8ff" d="M2650.86,-186.97C2365.26,-188 1281.28,-187.97 944.38,-130.75 936.82,-129.47 928.99,-127.65 921.31,-125.58"/>
<polygon fill="#63b8ff" stroke="#63b8ff" points="2650.78,-190.47 2660.76,-186.93 2650.75,-183.47 2650.78,-190.47"/>
</a>
</g>
</g>
<!-- Node8 -->
<g id="Node000008" class="node">
<title>Node8</title>
<g id="a_Node000008"><a xlink:href="TPWriterApplication_8cpp.html" target="_top" xlink:title=" ">
<polygon fill="white" stroke="#666666" points="1093.25,-125.12 953.5,-125.12 953.5,-83.38 1093.25,-83.38 1093.25,-125.12"/>
<text text-anchor="start" x="961.5" y="-111.62" font-family="Helvetica,sans-Serif" font-size="10.00">/github/workspace/dev</text>
<text text-anchor="start" x="961.5" y="-100.38" font-family="Helvetica,sans-Serif" font-size="10.00">_area/sourcecode/appdal</text>
<text text-anchor="middle" x="1023.38" y="-89.12" font-family="Helvetica,sans-Serif" font-size="10.00">/src/TPWriterApplication.cpp</text>
</a>
</g>
</g>
<!-- Node1&#45;&gt;Node8 -->
<g id="edge7_Node000001_Node000008" class="edge">
<title>Node1&#45;&gt;Node8</title>
<g id="a_edge7_Node000001_Node000008"><a xlink:title=" ">
<path fill="none" stroke="#63b8ff" d="M2650.87,-186.79C2381.56,-187.01 1406.7,-184.05 1102.38,-130.75 1094.99,-129.46 1087.35,-127.64 1079.86,-125.56"/>
<polygon fill="#63b8ff" stroke="#63b8ff" points="2650.53,-190.29 2660.52,-186.78 2650.52,-183.29 2650.53,-190.29"/>
</a>
</g>
</g>
<!-- Node9 -->
<g id="Node000009" class="node">
<title>Node9</title>
<g id="a_Node000009"><a xlink:href="SchemaKernelWrapper_8cpp.html" target="_top" xlink:title=" ">
<polygon fill="white" stroke="#666666" points="1281.62,-130.75 1111.12,-130.75 1111.12,-77.75 1281.62,-77.75 1281.62,-130.75"/>
<text text-anchor="start" x="1119.12" y="-117.25" font-family="Helvetica,sans-Serif" font-size="10.00">/github/workspace/dev</text>
<text text-anchor="start" x="1119.12" y="-106" font-family="Helvetica,sans-Serif" font-size="10.00">_area/sourcecode/dbe</text>
<text text-anchor="start" x="1119.12" y="-94.75" font-family="Helvetica,sans-Serif" font-size="10.00">/apps/SchemaEditor/SchemaKernel</text>
<text text-anchor="middle" x="1196.38" y="-83.5" font-family="Helvetica,sans-Serif" font-size="10.00">Wrapper.cpp</text>
</a>
</g>
</g>
<!-- Node1&#45;&gt;Node9 -->
<g id="edge8_Node000001_Node000009" class="edge">
<title>Node1&#45;&gt;Node9</title>
<g id="a_edge8_Node000001_Node000009"><a xlink:title=" ">
<path fill="none" stroke="#63b8ff" d="M2650.94,-185.99C2402.34,-183.38 1557.36,-171.64 1290.38,-130.75 1287.62,-130.33 1284.82,-129.85 1282.01,-129.34"/>
<polygon fill="#63b8ff" stroke="#63b8ff" points="2650.77,-189.49 2660.8,-186.09 2650.84,-182.49 2650.77,-189.49"/>
</a>
</g>
</g>
<!-- Node10 -->
<g id="Node000010" class="node">
<title>Node10</title>
<g id="a_Node000010"><a xlink:href="oks__clone__repository_8cxx.html" target="_top" xlink:title=" ">
<polygon fill="white" stroke="#666666" points="1450.88,-125.12 1299.88,-125.12 1299.88,-83.38 1450.88,-83.38 1450.88,-125.12"/>
<text text-anchor="start" x="1307.88" y="-111.62" font-family="Helvetica,sans-Serif" font-size="10.00">/github/workspace/dev</text>
<text text-anchor="start" x="1307.88" y="-100.38" font-family="Helvetica,sans-Serif" font-size="10.00">_area/sourcecode/oks</text>
<text text-anchor="middle" x="1375.38" y="-89.12" font-family="Helvetica,sans-Serif" font-size="10.00">/apps/oks_clone_repository.cxx</text>
</a>
</g>
</g>
<!-- Node1&#45;&gt;Node10 -->
<g id="edge9_Node000001_Node000010" class="edge">
<title>Node1&#45;&gt;Node10</title>
<g id="a_edge9_Node000001_Node000010"><a xlink:title=" ">
<path fill="none" stroke="#63b8ff" d="M2650.88,-185.8C2421.85,-182.73 1692.2,-170.04 1460.38,-130.75 1452.63,-129.44 1444.59,-127.64 1436.7,-125.59"/>
<polygon fill="#63b8ff" stroke="#63b8ff" points="2650.81,-189.3 2660.86,-185.93 2650.9,-182.3 2650.81,-189.3"/>
</a>
</g>
</g>
<!-- Node11 -->
<g id="Node000011" class="node">
<title>Node11</title>
<g id="a_Node000011"><a xlink:href="oks__dump_8cxx.html" target="_top" xlink:title=" ">
<polygon fill="white" stroke="#666666" points="1583.5,-125.12 1469.25,-125.12 1469.25,-83.38 1583.5,-83.38 1583.5,-125.12"/>
<text text-anchor="start" x="1477.25" y="-111.62" font-family="Helvetica,sans-Serif" font-size="10.00">/github/workspace/dev</text>
<text text-anchor="start" x="1477.25" y="-100.38" font-family="Helvetica,sans-Serif" font-size="10.00">_area/sourcecode/oks</text>
<text text-anchor="middle" x="1526.38" y="-89.12" font-family="Helvetica,sans-Serif" font-size="10.00">/apps/oks_dump.cxx</text>
</a>
</g>
</g>
<!-- Node1&#45;&gt;Node11 -->
<g id="edge10_Node000001_Node000011" class="edge">
<title>Node1&#45;&gt;Node11</title>
<g id="a_edge10_Node000001_Node000011"><a xlink:title=" ">
<path fill="none" stroke="#63b8ff" d="M2650.92,-186.07C2437.91,-183.93 1796.02,-173.96 1592.38,-130.75 1586.25,-129.45 1579.94,-127.66 1573.77,-125.62"/>
<polygon fill="#63b8ff" stroke="#63b8ff" points="2650.69,-189.57 2660.72,-186.17 2650.75,-182.57 2650.69,-189.57"/>
</a>
</g>
</g>
<!-- Node12 -->
<g id="Node000012" class="node">
<title>Node12</title>
<g id="a_Node000012"><a xlink:href="oks__git__repository_8cxx.html" target="_top" xlink:title=" ">
<polygon fill="white" stroke="#666666" points="1739.5,-125.12 1601.25,-125.12 1601.25,-83.38 1739.5,-83.38 1739.5,-125.12"/>
<text text-anchor="start" x="1609.25" y="-111.62" font-family="Helvetica,sans-Serif" font-size="10.00">/github/workspace/dev</text>
<text text-anchor="start" x="1609.25" y="-100.38" font-family="Helvetica,sans-Serif" font-size="10.00">_area/sourcecode/oks</text>
<text text-anchor="middle" x="1670.38" y="-89.12" font-family="Helvetica,sans-Serif" font-size="10.00">/apps/oks_git_repository.cxx</text>
</a>
</g>
</g>
<!-- Node1&#45;&gt;Node12 -->
<g id="edge11_Node000001_Node000012" class="edge">
<title>Node1&#45;&gt;Node12</title>
<g id="a_edge11_Node000001_Node000012"><a xlink:title=" ">
<path fill="none" stroke="#63b8ff" d="M2650.94,-184.96C2458.6,-179.99 1921.72,-163.49 1748.38,-130.75 1741.24,-129.4 1733.84,-127.58 1726.59,-125.52"/>
<polygon fill="#63b8ff" stroke="#63b8ff" points="2650.69,-188.46 2660.78,-185.21 2650.87,-181.46 2650.69,-188.46"/>
</a>
</g>
</g>
<!-- Node13 -->
<g id="Node000013" class="node">
<title>Node13</title>
<g id="a_Node000013"><a xlink:href="oks__validate__repository_8cxx.html" target="_top" xlink:title=" ">
<polygon fill="white" stroke="#666666" points="1919.12,-125.12 1757.62,-125.12 1757.62,-83.38 1919.12,-83.38 1919.12,-125.12"/>
<text text-anchor="start" x="1765.62" y="-111.62" font-family="Helvetica,sans-Serif" font-size="10.00">/github/workspace/dev</text>
<text text-anchor="start" x="1765.62" y="-100.38" font-family="Helvetica,sans-Serif" font-size="10.00">_area/sourcecode/oks</text>
<text text-anchor="middle" x="1838.38" y="-89.12" font-family="Helvetica,sans-Serif" font-size="10.00">/apps/oks_validate_repository.cxx</text>
</a>
</g>
</g>
<!-- Node1&#45;&gt;Node13 -->
<g id="edge12_Node000001_Node000013" class="edge">
<title>Node1&#45;&gt;Node13</title>
<g id="a_edge12_Node000001_Node000013"><a xlink:title=" ">
<path fill="none" stroke="#63b8ff" d="M2651,-186.5C2512.54,-185.21 2192.51,-176.98 1928.38,-130.75 1920.54,-129.38 1912.4,-127.6 1904.37,-125.61"/>
<polygon fill="#63b8ff" stroke="#63b8ff" points="2650.7,-190 2660.73,-186.58 2650.76,-183 2650.7,-190"/>
</a>
</g>
</g>
<!-- Node14 -->
<g id="Node000014" class="node">
<title>Node14</title>
<g id="a_Node000014"><a xlink:href="attribute_8cpp.html" target="_top" xlink:title=" ">
<polygon fill="white" stroke="#666666" points="2051.5,-125.12 1937.25,-125.12 1937.25,-83.38 2051.5,-83.38 2051.5,-125.12"/>
<text text-anchor="start" x="1945.25" y="-111.62" font-family="Helvetica,sans-Serif" font-size="10.00">/github/workspace/dev</text>
<text text-anchor="start" x="1945.25" y="-100.38" font-family="Helvetica,sans-Serif" font-size="10.00">_area/sourcecode/oks</text>
<text text-anchor="middle" x="1994.38" y="-89.12" font-family="Helvetica,sans-Serif" font-size="10.00">/src/attribute.cpp</text>
</a>
</g>
</g>
<!-- Node1&#45;&gt;Node14 -->
<g id="edge13_Node000001_Node000014" class="edge">
<title>Node1&#45;&gt;Node14</title>
<g id="a_edge13_Node000001_Node000014"><a xlink:title=" ">
<path fill="none" stroke="#63b8ff" d="M2650.82,-187.18C2529.39,-186.72 2271.51,-179.42 2060.38,-130.75 2054.39,-129.37 2048.23,-127.56 2042.18,-125.53"/>
<polygon fill="#63b8ff" stroke="#63b8ff" points="2650.62,-190.67 2660.63,-187.2 2650.63,-183.67 2650.62,-190.67"/>
</a>
</g>
</g>
<!-- Node15 -->
<g id="Node000015" class="node">
<title>Node15</title>
<g id="a_Node000015"><a xlink:href="class_8cpp.html" target="_top" xlink:title=" ">
<polygon fill="white" stroke="#666666" points="2183.5,-125.12 2069.25,-125.12 2069.25,-83.38 2183.5,-83.38 2183.5,-125.12"/>
<text text-anchor="start" x="2077.25" y="-111.62" font-family="Helvetica,sans-Serif" font-size="10.00">/github/workspace/dev</text>
<text text-anchor="start" x="2077.25" y="-100.38" font-family="Helvetica,sans-Serif" font-size="10.00">_area/sourcecode/oks</text>
<text text-anchor="middle" x="2126.38" y="-89.12" font-family="Helvetica,sans-Serif" font-size="10.00">/src/class.cpp</text>
</a>
</g>
</g>
<!-- Node1&#45;&gt;Node15 -->
<g id="edge14_Node000001_Node000015" class="edge">
<title>Node1&#45;&gt;Node15</title>
<g id="a_edge14_Node000001_Node000015"><a xlink:title=" ">
<path fill="none" stroke="#63b8ff" d="M2650.74,-185.07C2548.78,-181.49 2353.49,-169.68 2192.38,-130.75 2186.52,-129.34 2180.5,-127.53 2174.57,-125.53"/>
<polygon fill="#63b8ff" stroke="#63b8ff" points="2650.48,-188.56 2660.59,-185.4 2650.71,-181.56 2650.48,-188.56"/>
</a>
</g>
</g>
<!-- Node16 -->
<g id="Node000016" class="node">
<title>Node16</title>
<g id="a_Node000016"><a xlink:href="data_8cpp.html" target="_top" xlink:title=" ">
<polygon fill="white" stroke="#666666" points="2315.5,-125.12 2201.25,-125.12 2201.25,-83.38 2315.5,-83.38 2315.5,-125.12"/>
<text text-anchor="start" x="2209.25" y="-111.62" font-family="Helvetica,sans-Serif" font-size="10.00">/github/workspace/dev</text>
<text text-anchor="start" x="2209.25" y="-100.38" font-family="Helvetica,sans-Serif" font-size="10.00">_area/sourcecode/oks</text>
<text text-anchor="middle" x="2258.38" y="-89.12" font-family="Helvetica,sans-Serif" font-size="10.00">/src/data.cpp</text>
</a>
</g>
</g>
<!-- Node1&#45;&gt;Node16 -->
<g id="edge15_Node000001_Node000016" class="edge">
<title>Node1&#45;&gt;Node16</title>
<g id="a_edge15_Node000001_Node000016"><a xlink:title=" ">
<path fill="none" stroke="#63b8ff" d="M2650.81,-181.65C2570.98,-174.83 2436.62,-159.94 2324.38,-130.75 2318.79,-129.3 2313.03,-127.52 2307.35,-125.58"/>
<polygon fill="#63b8ff" stroke="#63b8ff" points="2650.42,-185.13 2660.67,-182.47 2651,-178.15 2650.42,-185.13"/>
</a>
</g>
</g>
<!-- Node17 -->
<g id="Node000017" class="node">
<title>Node17</title>
<g id="a_Node000017"><a xlink:href="file_8cpp.html" target="_top" xlink:title=" ">
<polygon fill="white" stroke="#666666" points="2447.5,-125.12 2333.25,-125.12 2333.25,-83.38 2447.5,-83.38 2447.5,-125.12"/>
<text text-anchor="start" x="2341.25" y="-111.62" font-family="Helvetica,sans-Serif" font-size="10.00">/github/workspace/dev</text>
<text text-anchor="start" x="2341.25" y="-100.38" font-family="Helvetica,sans-Serif" font-size="10.00">_area/sourcecode/oks</text>
<text text-anchor="middle" x="2390.38" y="-89.12" font-family="Helvetica,sans-Serif" font-size="10.00">/src/file.cpp</text>
</a>
</g>
</g>
<!-- Node1&#45;&gt;Node17 -->
<g id="edge16_Node000001_Node000017" class="edge">
<title>Node1&#45;&gt;Node17</title>
<g id="a_edge16_Node000001_Node000017"><a xlink:title=" ">
<path fill="none" stroke="#63b8ff" d="M2650.92,-175.07C2597.23,-165.38 2521.36,-150.05 2456.38,-130.75 2451.19,-129.21 2445.84,-127.45 2440.54,-125.58"/>
<polygon fill="#63b8ff" stroke="#63b8ff" points="2650.08,-178.47 2660.54,-176.78 2651.31,-171.58 2650.08,-178.47"/>
</a>
</g>
</g>
<!-- Node18 -->
<g id="Node000018" class="node">
<title>Node18</title>
<g id="a_Node000018"><a xlink:href="kernel_8cpp.html" target="_top" xlink:title=" ">
<polygon fill="white" stroke="#666666" points="2579.5,-125.12 2465.25,-125.12 2465.25,-83.38 2579.5,-83.38 2579.5,-125.12"/>
<text text-anchor="start" x="2473.25" y="-111.62" font-family="Helvetica,sans-Serif" font-size="10.00">/github/workspace/dev</text>
<text text-anchor="start" x="2473.25" y="-100.38" font-family="Helvetica,sans-Serif" font-size="10.00">_area/sourcecode/oks</text>
<text text-anchor="middle" x="2522.38" y="-89.12" font-family="Helvetica,sans-Serif" font-size="10.00">/src/kernel.cpp</text>
</a>
</g>
</g>
<!-- Node1&#45;&gt;Node18 -->
<g id="edge17_Node000001_Node000018" class="edge">
<title>Node1&#45;&gt;Node18</title>
<g id="a_edge17_Node000001_Node000018"><a xlink:title=" ">
<path fill="none" stroke="#63b8ff" d="M2660.35,-161.96C2632.06,-150.33 2598.71,-136.62 2571.88,-125.6"/>
<polygon fill="#63b8ff" stroke="#63b8ff" points="2658.94,-165.16 2669.52,-165.73 2661.6,-158.69 2658.94,-165.16"/>
</a>
</g>
</g>
<!-- Node19 -->
<g id="Node000019" class="node">
<title>Node19</title>
<g id="a_Node000019"><a xlink:href="object_8cpp.html" target="_top" xlink:title=" ">
<polygon fill="white" stroke="#666666" points="2711.5,-125.12 2597.25,-125.12 2597.25,-83.38 2711.5,-83.38 2711.5,-125.12"/>
<text text-anchor="start" x="2605.25" y="-111.62" font-family="Helvetica,sans-Serif" font-size="10.00">/github/workspace/dev</text>
<text text-anchor="start" x="2605.25" y="-100.38" font-family="Helvetica,sans-Serif" font-size="10.00">_area/sourcecode/oks</text>
<text text-anchor="middle" x="2654.38" y="-89.12" font-family="Helvetica,sans-Serif" font-size="10.00">/src/object.cpp</text>
</a>
</g>
</g>
<!-- Node1&#45;&gt;Node19 -->
<g id="edge18_Node000001_Node000019" class="edge">
<title>Node1&#45;&gt;Node19</title>
<g id="a_edge18_Node000001_Node000019"><a xlink:title=" ">
<path fill="none" stroke="#63b8ff" d="M2697.05,-157.86C2688.35,-147.14 2678.67,-135.2 2670.73,-125.42"/>
<polygon fill="#63b8ff" stroke="#63b8ff" points="2694.09,-159.77 2703.11,-165.33 2699.53,-155.36 2694.09,-159.77"/>
</a>
</g>
</g>
<!-- Node20 -->
<g id="Node000020" class="node">
<title>Node20</title>
<g id="a_Node000020"><a xlink:href="profiler_8cpp.html" target="_top" xlink:title=" ">
<polygon fill="white" stroke="#666666" points="2843.5,-125.12 2729.25,-125.12 2729.25,-83.38 2843.5,-83.38 2843.5,-125.12"/>
<text text-anchor="start" x="2737.25" y="-111.62" font-family="Helvetica,sans-Serif" font-size="10.00">/github/workspace/dev</text>
<text text-anchor="start" x="2737.25" y="-100.38" font-family="Helvetica,sans-Serif" font-size="10.00">_area/sourcecode/oks</text>
<text text-anchor="middle" x="2786.38" y="-89.12" font-family="Helvetica,sans-Serif" font-size="10.00">/src/profiler.cpp</text>
</a>
</g>
</g>
<!-- Node1&#45;&gt;Node20 -->
<g id="edge19_Node000001_Node000020" class="edge">
<title>Node1&#45;&gt;Node20</title>
<g id="a_edge19_Node000001_Node000020"><a xlink:title=" ">
<path fill="none" stroke="#63b8ff" d="M2743.7,-157.86C2752.4,-147.14 2762.08,-135.2 2770.02,-125.42"/>
<polygon fill="#63b8ff" stroke="#63b8ff" points="2741.22,-155.36 2737.64,-165.33 2746.66,-159.77 2741.22,-155.36"/>
</a>
</g>
</g>
<!-- Node21 -->
<g id="Node000021" class="node">
<title>Node21</title>
<g id="a_Node000021"><a xlink:href="query_8cpp.html" target="_top" xlink:title=" ">
<polygon fill="white" stroke="#666666" points="2975.5,-125.12 2861.25,-125.12 2861.25,-83.38 2975.5,-83.38 2975.5,-125.12"/>
<text text-anchor="start" x="2869.25" y="-111.62" font-family="Helvetica,sans-Serif" font-size="10.00">/github/workspace/dev</text>
<text text-anchor="start" x="2869.25" y="-100.38" font-family="Helvetica,sans-Serif" font-size="10.00">_area/sourcecode/oks</text>
<text text-anchor="middle" x="2918.38" y="-89.12" font-family="Helvetica,sans-Serif" font-size="10.00">/src/query.cpp</text>
</a>
</g>
</g>
<!-- Node1&#45;&gt;Node21 -->
<g id="edge20_Node000001_Node000021" class="edge">
<title>Node1&#45;&gt;Node21</title>
<g id="a_edge20_Node000001_Node000021"><a xlink:title=" ">
<path fill="none" stroke="#63b8ff" d="M2780.4,-161.96C2808.69,-150.33 2842.04,-136.62 2868.87,-125.6"/>
<polygon fill="#63b8ff" stroke="#63b8ff" points="2779.15,-158.69 2771.23,-165.73 2781.81,-165.16 2779.15,-158.69"/>
</a>
</g>
</g>
<!-- Node22 -->
<g id="Node000022" class="node">
<title>Node22</title>
<g id="a_Node000022"><a xlink:href="relationship_8cpp.html" target="_top" xlink:title=" ">
<polygon fill="white" stroke="#666666" points="3107.5,-125.12 2993.25,-125.12 2993.25,-83.38 3107.5,-83.38 3107.5,-125.12"/>
<text text-anchor="start" x="3001.25" y="-111.62" font-family="Helvetica,sans-Serif" font-size="10.00">/github/workspace/dev</text>
<text text-anchor="start" x="3001.25" y="-100.38" font-family="Helvetica,sans-Serif" font-size="10.00">_area/sourcecode/oks</text>
<text text-anchor="middle" x="3050.38" y="-89.12" font-family="Helvetica,sans-Serif" font-size="10.00">/src/relationship.cpp</text>
</a>
</g>
</g>
<!-- Node1&#45;&gt;Node22 -->
<g id="edge21_Node000001_Node000022" class="edge">
<title>Node1&#45;&gt;Node22</title>
<g id="a_edge21_Node000001_Node000022"><a xlink:title=" ">
<path fill="none" stroke="#63b8ff" d="M2789.83,-175.07C2843.52,-165.38 2919.39,-150.05 2984.38,-130.75 2989.56,-129.21 2994.91,-127.45 3000.21,-125.58"/>
<polygon fill="#63b8ff" stroke="#63b8ff" points="2789.44,-171.58 2780.21,-176.78 2790.67,-178.47 2789.44,-171.58"/>
</a>
</g>
</g>
<!-- Node23 -->
<g id="Node000023" class="node">
<title>Node23</title>
<g id="a_Node000023"><a xlink:href="xml_8cpp.html" target="_top" xlink:title=" ">
<polygon fill="white" stroke="#666666" points="3239.5,-125.12 3125.25,-125.12 3125.25,-83.38 3239.5,-83.38 3239.5,-125.12"/>
<text text-anchor="start" x="3133.25" y="-111.62" font-family="Helvetica,sans-Serif" font-size="10.00">/github/workspace/dev</text>
<text text-anchor="start" x="3133.25" y="-100.38" font-family="Helvetica,sans-Serif" font-size="10.00">_area/sourcecode/oks</text>
<text text-anchor="middle" x="3182.38" y="-89.12" font-family="Helvetica,sans-Serif" font-size="10.00">/src/xml.cpp</text>
</a>
</g>
</g>
<!-- Node1&#45;&gt;Node23 -->
<g id="edge22_Node000001_Node000023" class="edge">
<title>Node1&#45;&gt;Node23</title>
<g id="a_edge22_Node000001_Node000023"><a xlink:title=" ">
<path fill="none" stroke="#63b8ff" d="M2789.94,-181.65C2869.77,-174.83 3004.13,-159.94 3116.38,-130.75 3121.96,-129.3 3127.72,-127.52 3133.4,-125.58"/>
<polygon fill="#63b8ff" stroke="#63b8ff" points="2789.75,-178.15 2780.08,-182.47 2790.33,-185.13 2789.75,-178.15"/>
</a>
</g>
</g>
<!-- Node24 -->
<g id="Node000024" class="node">
<title>Node24</title>
<g id="a_Node000024"><a xlink:href="OksConfigObject_8hpp.html" target="_top" xlink:title=" ">
<polygon fill="white" stroke="#666666" points="3453.38,-125.12 3257.38,-125.12 3257.38,-83.38 3453.38,-83.38 3453.38,-125.12"/>
<text text-anchor="start" x="3265.38" y="-111.62" font-family="Helvetica,sans-Serif" font-size="10.00">/github/workspace/dev</text>
<text text-anchor="start" x="3265.38" y="-100.38" font-family="Helvetica,sans-Serif" font-size="10.00">_area/sourcecode/oksconflibs</text>
<text text-anchor="middle" x="3355.38" y="-89.12" font-family="Helvetica,sans-Serif" font-size="10.00">/include/oksconflibs/OksConfigObject.hpp</text>
</a>
</g>
</g>
<!-- Node1&#45;&gt;Node24 -->
<g id="edge23_Node000001_Node000024" class="edge">
<title>Node1&#45;&gt;Node24</title>
<g id="a_edge23_Node000001_Node000024"><a xlink:title=" ">
<path fill="none" stroke="#63b8ff" d="M2789.82,-182.13C2891.15,-174.94 3085.22,-158.71 3248.38,-130.75 3257.03,-129.27 3266.03,-127.49 3274.98,-125.58"/>
<polygon fill="#63b8ff" stroke="#63b8ff" points="2789.77,-178.63 2780.04,-182.82 2790.26,-185.61 2789.77,-178.63"/>
</a>
</g>
</g>
<!-- Node26 -->
<g id="Node000026" class="node">
<title>Node26</title>
<g id="a_Node000026"><a xlink:href="OksConfiguration_8cpp.html" target="_top" xlink:title=" ">
<polygon fill="white" stroke="#666666" points="3572.88,-41.75 3427.88,-41.75 3427.88,0 3572.88,0 3572.88,-41.75"/>
<text text-anchor="start" x="3435.88" y="-28.25" font-family="Helvetica,sans-Serif" font-size="10.00">/github/workspace/dev</text>
<text text-anchor="start" x="3435.88" y="-17" font-family="Helvetica,sans-Serif" font-size="10.00">_area/sourcecode/oksconflibs</text>
<text text-anchor="middle" x="3500.38" y="-5.75" font-family="Helvetica,sans-Serif" font-size="10.00">/src/OksConfiguration.cpp</text>
</a>
</g>
</g>
<!-- Node1&#45;&gt;Node26 -->
<g id="edge26_Node000001_Node000026" class="edge">
<title>Node1&#45;&gt;Node26</title>
<g id="a_edge26_Node000001_Node000026"><a xlink:title=" ">
<path fill="none" stroke="#63b8ff" d="M2790.06,-185.67C2964.51,-182.68 3409.81,-171.14 3462.38,-130.75 3489.84,-109.65 3497.54,-67.35 3499.64,-42.13"/>
<polygon fill="#63b8ff" stroke="#63b8ff" points="2790.18,-182.17 2780.24,-185.83 2790.29,-189.17 2790.18,-182.17"/>
</a>
</g>
</g>
<!-- Node27 -->
<g id="Node000027" class="node">
<title>Node27</title>
<g id="a_Node000027"><a xlink:href="oksdalgen_8cxx.html" target="_top" xlink:title=" ">
<polygon fill="white" stroke="#666666" points="3649.62,-125.12 3509.12,-125.12 3509.12,-83.38 3649.62,-83.38 3649.62,-125.12"/>
<text text-anchor="start" x="3517.12" y="-111.62" font-family="Helvetica,sans-Serif" font-size="10.00">/github/workspace/dev</text>
<text text-anchor="start" x="3517.12" y="-100.38" font-family="Helvetica,sans-Serif" font-size="10.00">_area/sourcecode/oksdalgen</text>
<text text-anchor="middle" x="3579.38" y="-89.12" font-family="Helvetica,sans-Serif" font-size="10.00">/apps/oksdalgen.cxx</text>
</a>
</g>
</g>
<!-- Node1&#45;&gt;Node27 -->
<g id="edge27_Node000001_Node000027" class="edge">
<title>Node1&#45;&gt;Node27</title>
<g id="a_edge27_Node000001_Node000027"><a xlink:title=" ">
<path fill="none" stroke="#63b8ff" d="M2789.77,-186.77C2926.15,-185.94 3238.26,-178.43 3495.38,-130.75 3502.87,-129.36 3510.64,-127.54 3518.29,-125.51"/>
<polygon fill="#63b8ff" stroke="#63b8ff" points="2789.79,-183.27 2779.81,-186.82 2789.83,-190.27 2789.79,-183.27"/>
</a>
</g>
</g>
<!-- Node28 -->
<g id="Node000028" class="node">
<title>Node28</title>
<g id="a_Node000028"><a xlink:href="utils_8cpp.html" target="_top" xlink:title=" ">
<polygon fill="white" stroke="#666666" points="3808.62,-125.12 3668.12,-125.12 3668.12,-83.38 3808.62,-83.38 3808.62,-125.12"/>
<text text-anchor="start" x="3676.12" y="-111.62" font-family="Helvetica,sans-Serif" font-size="10.00">/github/workspace/dev</text>
<text text-anchor="start" x="3676.12" y="-100.38" font-family="Helvetica,sans-Serif" font-size="10.00">_area/sourcecode/oksdalgen</text>
<text text-anchor="middle" x="3738.38" y="-89.12" font-family="Helvetica,sans-Serif" font-size="10.00">/apps/utils.cpp</text>
</a>
</g>
</g>
<!-- Node1&#45;&gt;Node28 -->
<g id="edge28_Node000001_Node000028" class="edge">
<title>Node1&#45;&gt;Node28</title>
<g id="a_edge28_Node000001_Node000028"><a xlink:title=" ">
<path fill="none" stroke="#63b8ff" d="M2789.96,-184.73C2977.71,-179.24 3491.76,-161.76 3658.38,-130.75 3665.54,-129.42 3672.96,-127.63 3680.26,-125.62"/>
<polygon fill="#63b8ff" stroke="#63b8ff" points="2790.01,-181.22 2780.11,-185.01 2790.21,-188.22 2790.01,-181.22"/>
</a>
</g>
</g>
<!-- Node29 -->
<g id="Node000029" class="node">
<title>Node29</title>
<g id="a_Node000029"><a xlink:href="oks__diff__data_8cxx.html" target="_top" xlink:title=" ">
<polygon fill="white" stroke="#666666" points="3956.38,-125.12 3826.38,-125.12 3826.38,-83.38 3956.38,-83.38 3956.38,-125.12"/>
<text text-anchor="start" x="3834.38" y="-111.62" font-family="Helvetica,sans-Serif" font-size="10.00">/github/workspace/dev</text>
<text text-anchor="start" x="3834.38" y="-100.38" font-family="Helvetica,sans-Serif" font-size="10.00">_area/sourcecode/oksutils</text>
<text text-anchor="middle" x="3891.38" y="-89.12" font-family="Helvetica,sans-Serif" font-size="10.00">/apps/oks_diff_data.cxx</text>
</a>
</g>
</g>
<!-- Node1&#45;&gt;Node29 -->
<g id="edge29_Node000001_Node000029" class="edge">
<title>Node1&#45;&gt;Node29</title>
<g id="a_edge29_Node000001_Node000029"><a xlink:title=" ">
<path fill="none" stroke="#63b8ff" d="M2789.98,-185.63C2999.05,-182.24 3619.28,-169.13 3817.38,-130.75 3824.18,-129.43 3831.21,-127.63 3838.1,-125.58"/>
<polygon fill="#63b8ff" stroke="#63b8ff" points="2790.02,-182.13 2780.08,-185.79 2790.13,-189.13 2790.02,-182.13"/>
</a>
</g>
</g>
<!-- Node30 -->
<g id="Node000030" class="node">
<title>Node30</title>
<g id="a_Node000030"><a xlink:href="oks__diff__schema_8cxx.html" target="_top" xlink:title=" ">
<polygon fill="white" stroke="#666666" points="4107.88,-125.12 3974.88,-125.12 3974.88,-83.38 4107.88,-83.38 4107.88,-125.12"/>
<text text-anchor="start" x="3982.88" y="-111.62" font-family="Helvetica,sans-Serif" font-size="10.00">/github/workspace/dev</text>
<text text-anchor="start" x="3982.88" y="-100.38" font-family="Helvetica,sans-Serif" font-size="10.00">_area/sourcecode/oksutils</text>
<text text-anchor="middle" x="4041.38" y="-89.12" font-family="Helvetica,sans-Serif" font-size="10.00">/apps/oks_diff_schema.cxx</text>
</a>
</g>
</g>
<!-- Node1&#45;&gt;Node30 -->
<g id="edge30_Node000001_Node000030" class="edge">
<title>Node1&#45;&gt;Node30</title>
<g id="a_edge30_Node000001_Node000030"><a xlink:title=" ">
<path fill="none" stroke="#63b8ff" d="M2789.87,-186.05C3017.21,-183.77 3737.23,-173.28 3965.38,-130.75 3972.35,-129.45 3979.57,-127.65 3986.65,-125.61"/>
<polygon fill="#63b8ff" stroke="#63b8ff" points="2789.94,-182.55 2779.98,-186.15 2790.01,-189.55 2789.94,-182.55"/>
</a>
</g>
</g>
<!-- Node31 -->
<g id="Node000031" class="node">
<title>Node31</title>
<g id="a_Node000031"><a xlink:href="oks__get__data_8cxx.html" target="_top" xlink:title=" ">
<polygon fill="white" stroke="#666666" points="4256.38,-125.12 4126.38,-125.12 4126.38,-83.38 4256.38,-83.38 4256.38,-125.12"/>
<text text-anchor="start" x="4134.38" y="-111.62" font-family="Helvetica,sans-Serif" font-size="10.00">/github/workspace/dev</text>
<text text-anchor="start" x="4134.38" y="-100.38" font-family="Helvetica,sans-Serif" font-size="10.00">_area/sourcecode/oksutils</text>
<text text-anchor="middle" x="4191.38" y="-89.12" font-family="Helvetica,sans-Serif" font-size="10.00">/apps/oks_get_data.cxx</text>
</a>
</g>
</g>
<!-- Node1&#45;&gt;Node31 -->
<g id="edge31_Node000001_Node000031" class="edge">
<title>Node1&#45;&gt;Node31</title>
<g id="a_edge31_Node000001_Node000031"><a xlink:title=" ">
<path fill="none" stroke="#63b8ff" d="M2789.92,-186.48C3035,-185.55 3857.72,-178.85 4116.38,-130.75 4123.41,-129.44 4130.68,-127.61 4137.8,-125.53"/>
<polygon fill="#63b8ff" stroke="#63b8ff" points="2790.19,-182.98 2780.2,-186.51 2790.21,-189.98 2790.19,-182.98"/>
</a>
</g>
</g>
<!-- Node32 -->
<g id="Node000032" class="node">
<title>Node32</title>
<g id="a_Node000032"><a xlink:href="oks__get__schema_8cxx.html" target="_top" xlink:title=" ">
<polygon fill="white" stroke="#666666" points="4408.25,-125.12 4274.5,-125.12 4274.5,-83.38 4408.25,-83.38 4408.25,-125.12"/>
<text text-anchor="start" x="4282.5" y="-111.62" font-family="Helvetica,sans-Serif" font-size="10.00">/github/workspace/dev</text>
<text text-anchor="start" x="4282.5" y="-100.38" font-family="Helvetica,sans-Serif" font-size="10.00">_area/sourcecode/oksutils</text>
<text text-anchor="middle" x="4341.38" y="-89.12" font-family="Helvetica,sans-Serif" font-size="10.00">/apps/oks_get_schema.cxx</text>
</a>
</g>
</g>
<!-- Node1&#45;&gt;Node32 -->
<g id="edge32_Node000001_Node000032" class="edge">
<title>Node1&#45;&gt;Node32</title>
<g id="a_edge32_Node000001_Node000032"><a xlink:title=" ">
<path fill="none" stroke="#63b8ff" d="M2789.77,-186.76C3051.17,-186.84 3976.22,-183.35 4265.38,-130.75 4272.5,-129.45 4279.86,-127.63 4287.07,-125.55"/>
<polygon fill="#63b8ff" stroke="#63b8ff" points="2790.07,-183.26 2780.07,-186.75 2790.06,-190.26 2790.07,-183.26"/>
</a>
</g>
</g>
<!-- Node33 -->
<g id="Node000033" class="node">
<title>Node33</title>
<g id="a_Node000033"><a xlink:href="oks__merge_8cxx.html" target="_top" xlink:title=" ">
<polygon fill="white" stroke="#666666" points="4556.38,-125.12 4426.38,-125.12 4426.38,-83.38 4556.38,-83.38 4556.38,-125.12"/>
<text text-anchor="start" x="4434.38" y="-111.62" font-family="Helvetica,sans-Serif" font-size="10.00">/github/workspace/dev</text>
<text text-anchor="start" x="4434.38" y="-100.38" font-family="Helvetica,sans-Serif" font-size="10.00">_area/sourcecode/oksutils</text>
<text text-anchor="middle" x="4491.38" y="-89.12" font-family="Helvetica,sans-Serif" font-size="10.00">/apps/oks_merge.cxx</text>
</a>
</g>
</g>
<!-- Node1&#45;&gt;Node33 -->
<g id="edge33_Node000001_Node000033" class="edge">
<title>Node1&#45;&gt;Node33</title>
<g id="a_edge33_Node000001_Node000033"><a xlink:title=" ">
<path fill="none" stroke="#63b8ff" d="M2790.01,-187.1C3067.84,-188.55 4097.48,-189.75 4417.38,-130.75 4424.32,-129.47 4431.5,-127.66 4438.53,-125.58"/>
<polygon fill="#63b8ff" stroke="#63b8ff" points="2790.04,-183.6 2780.02,-187.04 2790,-190.6 2790.04,-183.6"/>
</a>
</g>
</g>
<!-- Node34 -->
<g id="Node000034" class="node">
<title>Node34</title>
<g id="a_Node000034"><a xlink:href="oks__refresh_8cxx.html" target="_top" xlink:title=" ">
<polygon fill="white" stroke="#666666" points="4704.38,-125.12 4574.38,-125.12 4574.38,-83.38 4704.38,-83.38 4704.38,-125.12"/>
<text text-anchor="start" x="4582.38" y="-111.62" font-family="Helvetica,sans-Serif" font-size="10.00">/github/workspace/dev</text>
<text text-anchor="start" x="4582.38" y="-100.38" font-family="Helvetica,sans-Serif" font-size="10.00">_area/sourcecode/oksutils</text>
<text text-anchor="middle" x="4639.38" y="-89.12" font-family="Helvetica,sans-Serif" font-size="10.00">/apps/oks_refresh.cxx</text>
</a>
</g>
</g>
<!-- Node1&#45;&gt;Node34 -->
<g id="edge34_Node000001_Node000034" class="edge">
<title>Node1&#45;&gt;Node34</title>
<g id="a_edge34_Node000001_Node000034"><a xlink:title=" ">
<path fill="none" stroke="#63b8ff" d="M2789.89,-185.76C3104.63,-181.67 4388.57,-163.12 4565.38,-130.75 4572.33,-129.48 4579.51,-127.67 4586.54,-125.6"/>
<polygon fill="#63b8ff" stroke="#63b8ff" points="2790.13,-182.25 2780.18,-185.88 2790.22,-189.25 2790.13,-182.25"/>
</a>
</g>
</g>
<!-- Node35 -->
<g id="Node000035" class="node">
<title>Node35</title>
<g id="a_Node000035"><a xlink:href="oks__report__equal__objects_8cxx.html" target="_top" xlink:title=" ">
<polygon fill="white" stroke="#666666" points="4892.62,-125.12 4722.12,-125.12 4722.12,-83.38 4892.62,-83.38 4892.62,-125.12"/>
<text text-anchor="start" x="4730.12" y="-111.62" font-family="Helvetica,sans-Serif" font-size="10.00">/github/workspace/dev</text>
<text text-anchor="start" x="4730.12" y="-100.38" font-family="Helvetica,sans-Serif" font-size="10.00">_area/sourcecode/oksutils</text>
<text text-anchor="middle" x="4807.38" y="-89.12" font-family="Helvetica,sans-Serif" font-size="10.00">/apps/oks_report_equal_objects.cxx</text>
</a>
</g>
</g>
<!-- Node1&#45;&gt;Node35 -->
<g id="edge35_Node000001_Node000035" class="edge">
<title>Node1&#45;&gt;Node35</title>
<g id="a_edge35_Node000001_Node000035"><a xlink:title=" ">
<path fill="none" stroke="#63b8ff" d="M2790.08,-186.88C3097.11,-187.67 4330.7,-187.2 4713.38,-130.75 4722.07,-129.47 4731.12,-127.65 4740.01,-125.58"/>
<polygon fill="#63b8ff" stroke="#63b8ff" points="2790.22,-183.38 2780.21,-186.85 2790.2,-190.38 2790.22,-183.38"/>
</a>
</g>
</g>
<!-- Node36 -->
<g id="Node000036" class="node">
<title>Node36</title>
<g id="a_Node000036"><a xlink:href="oks__report__no__descriptions_8cxx.html" target="_top" xlink:title=" ">
<polygon fill="white" stroke="#666666" points="5089.75,-125.12 4911,-125.12 4911,-83.38 5089.75,-83.38 5089.75,-125.12"/>
<text text-anchor="start" x="4919" y="-111.62" font-family="Helvetica,sans-Serif" font-size="10.00">/github/workspace/dev</text>
<text text-anchor="start" x="4919" y="-100.38" font-family="Helvetica,sans-Serif" font-size="10.00">_area/sourcecode/oksutils</text>
<text text-anchor="middle" x="5000.38" y="-89.12" font-family="Helvetica,sans-Serif" font-size="10.00">/apps/oks_report_no_descriptions.cxx</text>
</a>
</g>
</g>
<!-- Node1&#45;&gt;Node36 -->
<g id="edge36_Node000001_Node000036" class="edge">
<title>Node1&#45;&gt;Node36</title>
<g id="a_edge36_Node000001_Node000036"><a xlink:title=" ">
<path fill="none" stroke="#63b8ff" d="M2789.66,-186.96C3113.41,-188.19 4479.21,-189.75 4901.38,-130.75 4910.52,-129.47 4920.03,-127.66 4929.38,-125.59"/>
<polygon fill="#63b8ff" stroke="#63b8ff" points="2790.11,-183.46 2780.1,-186.92 2790.08,-190.46 2790.11,-183.46"/>
</a>
</g>
</g>
<!-- Node37 -->
<g id="Node000037" class="node">
<title>Node37</title>
<g id="a_Node000037"><a xlink:href="oks__tutorial_8cxx.html" target="_top" xlink:title=" ">
<polygon fill="white" stroke="#666666" points="5237.38,-125.12 5107.38,-125.12 5107.38,-83.38 5237.38,-83.38 5237.38,-125.12"/>
<text text-anchor="start" x="5115.38" y="-111.62" font-family="Helvetica,sans-Serif" font-size="10.00">/github/workspace/dev</text>
<text text-anchor="start" x="5115.38" y="-100.38" font-family="Helvetica,sans-Serif" font-size="10.00">_area/sourcecode/oksutils</text>
<text text-anchor="middle" x="5172.38" y="-89.12" font-family="Helvetica,sans-Serif" font-size="10.00">/apps/oks_tutorial.cxx</text>
</a>
</g>
</g>
<!-- Node1&#45;&gt;Node37 -->
<g id="edge37_Node000001_Node000037" class="edge">
<title>Node1&#45;&gt;Node37</title>
<g id="a_edge37_Node000001_Node000037"><a xlink:title=" ">
<path fill="none" stroke="#63b8ff" d="M2789.89,-186.27C3157.46,-184.2 4866.42,-172.4 5098.38,-130.75 5105.46,-129.48 5112.79,-127.64 5119.95,-125.52"/>
<polygon fill="#63b8ff" stroke="#63b8ff" points="2790.14,-182.76 2780.16,-186.32 2790.18,-189.76 2790.14,-182.76"/>
</a>
</g>
</g>
<!-- Node38 -->
<g id="Node000038" class="node">
<title>Node38</title>
<g id="a_Node000038"><a xlink:href="access_8hpp.html" target="_top" xlink:title=" ">
<polygon fill="white" stroke="#666666" points="5413.25,-125.12 5255.5,-125.12 5255.5,-83.38 5413.25,-83.38 5413.25,-125.12"/>
<text text-anchor="start" x="5263.5" y="-111.62" font-family="Helvetica,sans-Serif" font-size="10.00">/github/workspace/dev</text>
<text text-anchor="start" x="5263.5" y="-100.38" font-family="Helvetica,sans-Serif" font-size="10.00">_area/sourcecode/oksutils</text>
<text text-anchor="middle" x="5334.38" y="-89.12" font-family="Helvetica,sans-Serif" font-size="10.00">/include/oksutils/oks/access.hpp</text>
</a>
</g>
</g>
<!-- Node1&#45;&gt;Node38 -->
<g id="edge38_Node000001_Node000038" class="edge">
<title>Node1&#45;&gt;Node38</title>
<g id="a_edge38_Node000001_Node000038"><a xlink:title=" ">
<path fill="none" stroke="#63b8ff" d="M2790.14,-186.16C3171.72,-183.49 4998.08,-168.81 5246.38,-130.75 5254.71,-129.47 5263.36,-127.63 5271.85,-125.51"/>
<polygon fill="#63b8ff" stroke="#63b8ff" points="2790.24,-182.66 2780.26,-186.23 2790.28,-189.66 2790.24,-182.66"/>
</a>
</g>
</g>
<!-- Node25 -->
<g id="Node000025" class="node">
<title>Node25</title>
<g id="a_Node000025"><a xlink:href="OksConfigObject_8cpp.html" target="_top" xlink:title=" ">
<polygon fill="white" stroke="#666666" points="3409.88,-41.75 3264.88,-41.75 3264.88,0 3409.88,0 3409.88,-41.75"/>
<text text-anchor="start" x="3272.88" y="-28.25" font-family="Helvetica,sans-Serif" font-size="10.00">/github/workspace/dev</text>
<text text-anchor="start" x="3272.88" y="-17" font-family="Helvetica,sans-Serif" font-size="10.00">_area/sourcecode/oksconflibs</text>
<text text-anchor="middle" x="3337.38" y="-5.75" font-family="Helvetica,sans-Serif" font-size="10.00">/src/OksConfigObject.cpp</text>
</a>
</g>
</g>
<!-- Node24&#45;&gt;Node25 -->
<g id="edge24_Node000024_Node000025" class="edge">
<title>Node24&#45;&gt;Node25</title>
<g id="a_edge24_Node000024_Node000025"><a xlink:title=" ">
<path fill="none" stroke="#63b8ff" d="M3348.51,-72.22C3346.27,-62.1 3343.85,-51.14 3341.84,-42.04"/>
<polygon fill="#63b8ff" stroke="#63b8ff" points="3345.02,-72.65 3350.6,-81.66 3351.86,-71.14 3345.02,-72.65"/>
</a>
</g>
</g>
<!-- Node24&#45;&gt;Node26 -->
<g id="edge25_Node000024_Node000026" class="edge">
<title>Node24&#45;&gt;Node26</title>
<g id="a_edge25_Node000024_Node000026"><a xlink:title=" ">
<path fill="none" stroke="#63b8ff" d="M3401.54,-77.34C3421.77,-65.99 3445.17,-52.86 3464.12,-42.22"/>
<polygon fill="#63b8ff" stroke="#63b8ff" points="3399.92,-74.24 3392.91,-82.18 3403.34,-80.34 3399.92,-74.24"/>
</a>
</g>
</g>
<!-- Node38&#45;&gt;Node26 -->
<g id="edge39_Node000038_Node000026" class="edge">
<title>Node38&#45;&gt;Node26</title>
<g id="a_edge39_Node000038_Node000026"><a xlink:title=" ">
<path fill="none" stroke="#63b8ff" d="M5260.37,-80.38C5255.66,-79.37 5250.97,-78.48 5246.38,-77.75 4916.31,-25.49 3860.65,-21.8 3573.23,-21.78"/>
<polygon fill="#63b8ff" stroke="#63b8ff" points="5259.35,-83.74 5269.88,-82.6 5260.94,-76.92 5259.35,-83.74"/>
</a>
</g>
</g>
<!-- Node39 -->
<g id="Node000039" class="node">
<title>Node39</title>
<g id="a_Node000039"><a xlink:href="oks__access_8cpp.html" target="_top" xlink:title=" ">
<polygon fill="white" stroke="#666666" points="5399.38,-41.75 5269.38,-41.75 5269.38,0 5399.38,0 5399.38,-41.75"/>
<text text-anchor="start" x="5277.38" y="-28.25" font-family="Helvetica,sans-Serif" font-size="10.00">/github/workspace/dev</text>
<text text-anchor="start" x="5277.38" y="-17" font-family="Helvetica,sans-Serif" font-size="10.00">_area/sourcecode/oksutils</text>
<text text-anchor="middle" x="5334.38" y="-5.75" font-family="Helvetica,sans-Serif" font-size="10.00">/src/lib/oks_access.cpp</text>
</a>
</g>
</g>
<!-- Node38&#45;&gt;Node39 -->
<g id="edge40_Node000038_Node000039" class="edge">
<title>Node38&#45;&gt;Node39</title>
<g id="a_edge40_Node000038_Node000039"><a xlink:title=" ">
<path fill="none" stroke="#63b8ff" d="M5334.38,-71.89C5334.38,-61.87 5334.38,-51.05 5334.38,-42.04"/>
<polygon fill="#63b8ff" stroke="#63b8ff" points="5330.88,-71.62 5334.38,-81.62 5337.88,-71.62 5330.88,-71.62"/>
</a>
</g>
</g>
</g>
</svg>
