<?xml version="1.0" encoding="UTF-8" standalone="no"?>
<!DOCTYPE svg PUBLIC "-//W3C//DTD SVG 1.1//EN"
 "http://www.w3.org/Graphics/SVG/1.1/DTD/svg11.dtd">
<!-- Generated by graphviz version 9.0.0 (20230911.1827)
 -->
<!-- Title: /github/workspace/dev_area/sourcecode/readoutlibs/include/readoutlibs/concepts/LatencyBufferConcept.hpp Pages: 1 -->
<svg width="1492pt" height="406pt"
 viewBox="0.00 0.00 1492.06 405.75" xmlns="http://www.w3.org/2000/svg" xmlns:xlink="http://www.w3.org/1999/xlink">
<g id="graph0" class="graph" transform="scale(1 1) rotate(0) translate(4 401.75)">
<title>/github/workspace/dev_area/sourcecode/readoutlibs/include/readoutlibs/concepts/LatencyBufferConcept.hpp</title>
<!-- Node1 -->
<g id="Node000001" class="node">
<title>Node1</title>
<g id="a_Node000001"><a xlink:title=" ">
<polygon fill="#999999" stroke="#666666" points="394.06,-397.75 250.56,-397.75 250.56,-344.75 394.06,-344.75 394.06,-397.75"/>
<text text-anchor="start" x="258.56" y="-384.25" font-family="Helvetica,sans-Serif" font-size="10.00">/github/workspace/dev</text>
<text text-anchor="start" x="258.56" y="-373" font-family="Helvetica,sans-Serif" font-size="10.00">_area/sourcecode/readoutlibs</text>
<text text-anchor="start" x="258.56" y="-361.75" font-family="Helvetica,sans-Serif" font-size="10.00">/include/readoutlibs/concepts</text>
<text text-anchor="middle" x="322.31" y="-350.5" font-family="Helvetica,sans-Serif" font-size="10.00">/LatencyBufferConcept.hpp</text>
</a>
</g>
</g>
<!-- Node2 -->
<g id="Node000002" class="node">
<title>Node2</title>
<g id="a_Node000002"><a xlink:href="IterableQueueModel_8hpp.html" target="_top" xlink:title=" ">
<polygon fill="white" stroke="#666666" points="567.06,-308.75 423.56,-308.75 423.56,-255.75 567.06,-255.75 567.06,-308.75"/>
<text text-anchor="start" x="431.56" y="-295.25" font-family="Helvetica,sans-Serif" font-size="10.00">/github/workspace/dev</text>
<text text-anchor="start" x="431.56" y="-284" font-family="Helvetica,sans-Serif" font-size="10.00">_area/sourcecode/readoutlibs</text>
<text text-anchor="start" x="431.56" y="-272.75" font-family="Helvetica,sans-Serif" font-size="10.00">/include/readoutlibs/models</text>
<text text-anchor="middle" x="495.31" y="-261.5" font-family="Helvetica,sans-Serif" font-size="10.00">/IterableQueueModel.hpp</text>
</a>
</g>
</g>
<!-- Node1&#45;&gt;Node2 -->
<g id="edge1_Node000001_Node000002" class="edge">
<title>Node1&#45;&gt;Node2</title>
<g id="a_edge1_Node000001_Node000002"><a xlink:title=" ">
<path fill="none" stroke="#63b8ff" d="M383.81,-339.32C403.43,-329.45 424.93,-318.64 443.77,-309.17"/>
<polygon fill="#63b8ff" stroke="#63b8ff" points="382.46,-336.08 375.1,-343.7 385.6,-342.34 382.46,-336.08"/>
</a>
</g>
</g>
<!-- Node8 -->
<g id="Node000008" class="node">
<title>Node8</title>
<g id="a_Node000008"><a xlink:href="Readoutlibs_8cpp.html" target="_top" xlink:title=" ">
<polygon fill="white" stroke="#666666" points="791.06,-41.75 647.56,-41.75 647.56,0 791.06,0 791.06,-41.75"/>
<text text-anchor="start" x="655.56" y="-28.25" font-family="Helvetica,sans-Serif" font-size="10.00">/github/workspace/dev</text>
<text text-anchor="start" x="655.56" y="-17" font-family="Helvetica,sans-Serif" font-size="10.00">_area/sourcecode/readoutlibs</text>
<text text-anchor="middle" x="719.31" y="-5.75" font-family="Helvetica,sans-Serif" font-size="10.00">/src/Readoutlibs.cpp</text>
</a>
</g>
</g>
<!-- Node1&#45;&gt;Node8 -->
<g id="edge23_Node000001_Node000008" class="edge">
<title>Node1&#45;&gt;Node8</title>
<g id="a_edge23_Node000001_Node000008"><a xlink:title=" ">
<path fill="none" stroke="#63b8ff" d="M238.93,-365C186.42,-358.25 119.34,-343.01 69.31,-308.75 12.49,-269.84 -13.57,-232.37 7.31,-166.75 22,-120.57 28.26,-101.84 70.31,-77.75 119.4,-49.62 488.35,-31.32 647.07,-24.68"/>
<polygon fill="#63b8ff" stroke="#63b8ff" points="238.4,-368.46 248.74,-366.17 239.23,-361.51 238.4,-368.46"/>
</a>
</g>
</g>
<!-- Node12 -->
<g id="Node000012" class="node">
<title>Node12</title>
<g id="a_Node000012"><a xlink:href="ReadoutModel_8hpp.html" target="_top" xlink:title=" ">
<polygon fill="white" stroke="#666666" points="222.06,-308.75 78.56,-308.75 78.56,-255.75 222.06,-255.75 222.06,-308.75"/>
<text text-anchor="start" x="86.56" y="-295.25" font-family="Helvetica,sans-Serif" font-size="10.00">/github/workspace/dev</text>
<text text-anchor="start" x="86.56" y="-284" font-family="Helvetica,sans-Serif" font-size="10.00">_area/sourcecode/readoutlibs</text>
<text text-anchor="start" x="86.56" y="-272.75" font-family="Helvetica,sans-Serif" font-size="10.00">/include/readoutlibs/models</text>
<text text-anchor="middle" x="150.31" y="-261.5" font-family="Helvetica,sans-Serif" font-size="10.00">/ReadoutModel.hpp</text>
</a>
</g>
</g>
<!-- Node1&#45;&gt;Node12 -->
<g id="edge13_Node000001_Node000012" class="edge">
<title>Node1&#45;&gt;Node12</title>
<g id="a_edge13_Node000001_Node000012"><a xlink:title=" ">
<path fill="none" stroke="#63b8ff" d="M261.16,-339.32C241.65,-329.45 220.28,-318.64 201.55,-309.17"/>
<polygon fill="#63b8ff" stroke="#63b8ff" points="259.31,-342.31 269.82,-343.7 262.47,-336.06 259.31,-342.31"/>
</a>
</g>
</g>
<!-- Node13 -->
<g id="Node000013" class="node">
<title>Node13</title>
<g id="a_Node000013"><a xlink:href="SkipListLatencyBufferModel_8hpp.html" target="_top" xlink:title=" ">
<polygon fill="white" stroke="#666666" points="1293.93,-308.75 1134.68,-308.75 1134.68,-255.75 1293.93,-255.75 1293.93,-308.75"/>
<text text-anchor="start" x="1142.68" y="-295.25" font-family="Helvetica,sans-Serif" font-size="10.00">/github/workspace/dev</text>
<text text-anchor="start" x="1142.68" y="-284" font-family="Helvetica,sans-Serif" font-size="10.00">_area/sourcecode/readoutlibs</text>
<text text-anchor="start" x="1142.68" y="-272.75" font-family="Helvetica,sans-Serif" font-size="10.00">/include/readoutlibs/models</text>
<text text-anchor="middle" x="1214.31" y="-261.5" font-family="Helvetica,sans-Serif" font-size="10.00">/SkipListLatencyBufferModel.hpp</text>
</a>
</g>
</g>
<!-- Node1&#45;&gt;Node13 -->
<g id="edge15_Node000001_Node000013" class="edge">
<title>Node1&#45;&gt;Node13</title>
<g id="a_edge15_Node000001_Node000013"><a xlink:title=" ">
<path fill="none" stroke="#63b8ff" d="M405.76,-362.11C577.01,-345.41 966.17,-307.45 1134.39,-291.04"/>
<polygon fill="#63b8ff" stroke="#63b8ff" points="405.67,-358.6 396.05,-363.06 406.35,-365.57 405.67,-358.6"/>
</a>
</g>
</g>
<!-- Node3 -->
<g id="Node000003" class="node">
<title>Node3</title>
<g id="a_Node000003"><a xlink:href="SSPFrameProcessor_8hpp.html" target="_top" xlink:title=" ">
<polygon fill="white" stroke="#666666" points="1020.18,-219.75 868.43,-219.75 868.43,-166.75 1020.18,-166.75 1020.18,-219.75"/>
<text text-anchor="start" x="876.43" y="-206.25" font-family="Helvetica,sans-Serif" font-size="10.00">/github/workspace/dev</text>
<text text-anchor="start" x="876.43" y="-195" font-family="Helvetica,sans-Serif" font-size="10.00">_area/sourcecode/fdreadoutlibs</text>
<text text-anchor="start" x="876.43" y="-183.75" font-family="Helvetica,sans-Serif" font-size="10.00">/include/fdreadoutlibs/ssp</text>
<text text-anchor="middle" x="944.31" y="-172.5" font-family="Helvetica,sans-Serif" font-size="10.00">/SSPFrameProcessor.hpp</text>
</a>
</g>
</g>
<!-- Node2&#45;&gt;Node3 -->
<g id="edge2_Node000002_Node000003" class="edge">
<title>Node2&#45;&gt;Node3</title>
<g id="a_edge2_Node000002_Node000003"><a xlink:title=" ">
<path fill="none" stroke="#63b8ff" d="M578.23,-269.61C651.31,-258.74 760.45,-241.02 854.31,-219.75 858.9,-218.71 863.61,-217.58 868.34,-216.39"/>
<polygon fill="#63b8ff" stroke="#63b8ff" points="578.15,-266.08 568.77,-271 579.17,-273.01 578.15,-266.08"/>
</a>
</g>
</g>
<!-- Node5 -->
<g id="Node000005" class="node">
<title>Node5</title>
<g id="a_Node000005"><a xlink:href="WIBEthFrameProcessor_8cpp.html" target="_top" xlink:title=" ">
<polygon fill="white" stroke="#666666" points="503.31,-214.12 313.31,-214.12 313.31,-172.38 503.31,-172.38 503.31,-214.12"/>
<text text-anchor="start" x="321.31" y="-200.62" font-family="Helvetica,sans-Serif" font-size="10.00">/github/workspace/dev</text>
<text text-anchor="start" x="321.31" y="-189.38" font-family="Helvetica,sans-Serif" font-size="10.00">_area/sourcecode/fdreadoutlibs</text>
<text text-anchor="middle" x="408.31" y="-178.12" font-family="Helvetica,sans-Serif" font-size="10.00">/src/wibeth/WIBEthFrameProcessor.cpp</text>
</a>
</g>
</g>
<!-- Node2&#45;&gt;Node5 -->
<g id="edge4_Node000002_Node000005" class="edge">
<title>Node2&#45;&gt;Node5</title>
<g id="a_edge4_Node000002_Node000005"><a xlink:title=" ">
<path fill="none" stroke="#63b8ff" d="M461.73,-247.67C450.52,-236.46 438.39,-224.33 428.52,-214.46"/>
<polygon fill="#63b8ff" stroke="#63b8ff" points="459.06,-249.95 468.6,-254.55 464.01,-245 459.06,-249.95"/>
</a>
</g>
</g>
<!-- Node6 -->
<g id="Node000006" class="node">
<title>Node6</title>
<g id="a_Node000006"><a xlink:href="BinarySearchQueueModel_8hpp.html" target="_top" xlink:title=" ">
<polygon fill="white" stroke="#666666" points="812.06,-219.75 662.56,-219.75 662.56,-166.75 812.06,-166.75 812.06,-219.75"/>
<text text-anchor="start" x="670.56" y="-206.25" font-family="Helvetica,sans-Serif" font-size="10.00">/github/workspace/dev</text>
<text text-anchor="start" x="670.56" y="-195" font-family="Helvetica,sans-Serif" font-size="10.00">_area/sourcecode/readoutlibs</text>
<text text-anchor="start" x="670.56" y="-183.75" font-family="Helvetica,sans-Serif" font-size="10.00">/include/readoutlibs/models</text>
<text text-anchor="middle" x="737.31" y="-172.5" font-family="Helvetica,sans-Serif" font-size="10.00">/BinarySearchQueueModel.hpp</text>
</a>
</g>
</g>
<!-- Node2&#45;&gt;Node6 -->
<g id="edge5_Node000002_Node000006" class="edge">
<title>Node2&#45;&gt;Node6</title>
<g id="a_edge5_Node000002_Node000006"><a xlink:title=" ">
<path fill="none" stroke="#63b8ff" d="M577.95,-251.54C606.3,-241.35 637.77,-230.03 665.21,-220.17"/>
<polygon fill="#63b8ff" stroke="#63b8ff" points="576.91,-248.19 568.68,-254.87 579.28,-254.78 576.91,-248.19"/>
</a>
</g>
</g>
<!-- Node2&#45;&gt;Node8 -->
<g id="edge9_Node000002_Node000008" class="edge">
<title>Node2&#45;&gt;Node8</title>
<g id="a_edge9_Node000002_Node000008"><a xlink:title=" ">
<path fill="none" stroke="#63b8ff" d="M578.72,-277.29C664.92,-271.23 791.05,-256.24 821.31,-219.75 868.67,-162.62 787.61,-79.88 744.12,-42.08"/>
<polygon fill="#63b8ff" stroke="#63b8ff" points="578.61,-273.78 568.87,-277.95 579.08,-280.77 578.61,-273.78"/>
</a>
</g>
</g>
<!-- Node9 -->
<g id="Node000009" class="node">
<title>Node9</title>
<g id="a_Node000009"><a xlink:href="TAProcessor_8cpp.html" target="_top" xlink:title=" ">
<polygon fill="white" stroke="#666666" points="644.93,-214.12 521.68,-214.12 521.68,-172.38 644.93,-172.38 644.93,-214.12"/>
<text text-anchor="start" x="529.68" y="-200.62" font-family="Helvetica,sans-Serif" font-size="10.00">/github/workspace/dev</text>
<text text-anchor="start" x="529.68" y="-189.38" font-family="Helvetica,sans-Serif" font-size="10.00">_area/sourcecode/trigger</text>
<text text-anchor="middle" x="583.31" y="-178.12" font-family="Helvetica,sans-Serif" font-size="10.00">/src/TAProcessor.cpp</text>
</a>
</g>
</g>
<!-- Node2&#45;&gt;Node9 -->
<g id="edge10_Node000002_Node000009" class="edge">
<title>Node2&#45;&gt;Node9</title>
<g id="a_edge10_Node000002_Node000009"><a xlink:title=" ">
<path fill="none" stroke="#63b8ff" d="M529.28,-247.67C540.61,-236.46 552.88,-224.33 562.86,-214.46"/>
<polygon fill="#63b8ff" stroke="#63b8ff" points="526.96,-245.03 522.31,-254.55 531.88,-250.01 526.96,-245.03"/>
</a>
</g>
</g>
<!-- Node10 -->
<g id="Node000010" class="node">
<title>Node10</title>
<g id="a_Node000010"><a xlink:href="TCProcessor_8cpp.html" target="_top" xlink:title=" ">
<polygon fill="white" stroke="#666666" points="153.93,-214.12 30.68,-214.12 30.68,-172.38 153.93,-172.38 153.93,-214.12"/>
<text text-anchor="start" x="38.68" y="-200.62" font-family="Helvetica,sans-Serif" font-size="10.00">/github/workspace/dev</text>
<text text-anchor="start" x="38.68" y="-189.38" font-family="Helvetica,sans-Serif" font-size="10.00">_area/sourcecode/trigger</text>
<text text-anchor="middle" x="92.31" y="-178.12" font-family="Helvetica,sans-Serif" font-size="10.00">/src/TCProcessor.cpp</text>
</a>
</g>
</g>
<!-- Node2&#45;&gt;Node10 -->
<g id="edge11_Node000002_Node000010" class="edge">
<title>Node2&#45;&gt;Node10</title>
<g id="a_edge11_Node000002_Node000010"><a xlink:title=" ">
<path fill="none" stroke="#63b8ff" d="M412.02,-269.81C344.14,-259.55 246.13,-242.59 162.31,-219.75 156.69,-218.22 150.89,-216.44 145.13,-214.55"/>
<polygon fill="#63b8ff" stroke="#63b8ff" points="411.17,-273.22 421.58,-271.24 412.21,-266.3 411.17,-273.22"/>
</a>
</g>
</g>
<!-- Node11 -->
<g id="Node000011" class="node">
<title>Node11</title>
<g id="a_Node000011"><a xlink:href="TPProcessor_8cpp.html" target="_top" xlink:title=" ">
<polygon fill="white" stroke="#666666" points="294.93,-214.12 171.68,-214.12 171.68,-172.38 294.93,-172.38 294.93,-214.12"/>
<text text-anchor="start" x="179.68" y="-200.62" font-family="Helvetica,sans-Serif" font-size="10.00">/github/workspace/dev</text>
<text text-anchor="start" x="179.68" y="-189.38" font-family="Helvetica,sans-Serif" font-size="10.00">_area/sourcecode/trigger</text>
<text text-anchor="middle" x="233.31" y="-178.12" font-family="Helvetica,sans-Serif" font-size="10.00">/src/TPProcessor.cpp</text>
</a>
</g>
</g>
<!-- Node2&#45;&gt;Node11 -->
<g id="edge12_Node000002_Node000011" class="edge">
<title>Node2&#45;&gt;Node11</title>
<g id="a_edge12_Node000002_Node000011"><a xlink:title=" ">
<path fill="none" stroke="#63b8ff" d="M412.73,-255.32C379.03,-244.57 339.72,-231.81 304.31,-219.75 299.47,-218.1 294.46,-216.37 289.44,-214.61"/>
<polygon fill="#63b8ff" stroke="#63b8ff" points="411.44,-258.58 422.03,-258.28 413.56,-251.91 411.44,-258.58"/>
</a>
</g>
</g>
<!-- Node4 -->
<g id="Node000004" class="node">
<title>Node4</title>
<g id="a_Node000004"><a xlink:href="FDReadoutlibs_8cpp.html" target="_top" xlink:title=" ">
<polygon fill="white" stroke="#666666" points="1020.18,-125.12 868.43,-125.12 868.43,-83.38 1020.18,-83.38 1020.18,-125.12"/>
<text text-anchor="start" x="876.43" y="-111.62" font-family="Helvetica,sans-Serif" font-size="10.00">/github/workspace/dev</text>
<text text-anchor="start" x="876.43" y="-100.38" font-family="Helvetica,sans-Serif" font-size="10.00">_area/sourcecode/fdreadoutlibs</text>
<text text-anchor="middle" x="944.31" y="-89.12" font-family="Helvetica,sans-Serif" font-size="10.00">/src/FDReadoutlibs.cpp</text>
</a>
</g>
</g>
<!-- Node3&#45;&gt;Node4 -->
<g id="edge3_Node000003_Node000004" class="edge">
<title>Node3&#45;&gt;Node4</title>
<g id="a_edge3_Node000003_Node000004"><a xlink:title=" ">
<path fill="none" stroke="#63b8ff" d="M944.31,-155.38C944.31,-145.13 944.31,-134.37 944.31,-125.46"/>
<polygon fill="#63b8ff" stroke="#63b8ff" points="940.81,-155.1 944.31,-165.1 947.81,-155.1 940.81,-155.1"/>
</a>
</g>
</g>
<!-- Node7 -->
<g id="Node000007" class="node">
<title>Node7</title>
<g id="a_Node000007"><a xlink:href="FixedRateQueueModel_8hpp.html" target="_top" xlink:title=" ">
<polygon fill="white" stroke="#666666" points="741.06,-130.75 597.56,-130.75 597.56,-77.75 741.06,-77.75 741.06,-130.75"/>
<text text-anchor="start" x="605.56" y="-117.25" font-family="Helvetica,sans-Serif" font-size="10.00">/github/workspace/dev</text>
<text text-anchor="start" x="605.56" y="-106" font-family="Helvetica,sans-Serif" font-size="10.00">_area/sourcecode/readoutlibs</text>
<text text-anchor="start" x="605.56" y="-94.75" font-family="Helvetica,sans-Serif" font-size="10.00">/include/readoutlibs/models</text>
<text text-anchor="middle" x="669.31" y="-83.5" font-family="Helvetica,sans-Serif" font-size="10.00">/FixedRateQueueModel.hpp</text>
</a>
</g>
</g>
<!-- Node6&#45;&gt;Node7 -->
<g id="edge6_Node000006_Node000007" class="edge">
<title>Node6&#45;&gt;Node7</title>
<g id="a_edge6_Node000006_Node000007"><a xlink:title=" ">
<path fill="none" stroke="#63b8ff" d="M710.24,-157.62C703.3,-148.74 695.95,-139.34 689.43,-131"/>
<polygon fill="#63b8ff" stroke="#63b8ff" points="707.43,-159.7 716.34,-165.43 712.94,-155.39 707.43,-159.7"/>
</a>
</g>
</g>
<!-- Node6&#45;&gt;Node8 -->
<g id="edge8_Node000006_Node000008" class="edge">
<title>Node6&#45;&gt;Node8</title>
<g id="a_edge8_Node000006_Node000008"><a xlink:title=" ">
<path fill="none" stroke="#63b8ff" d="M748.26,-155.23C753.31,-132.57 756.88,-103.15 750.31,-77.75 747.03,-65.08 740.18,-52.22 733.76,-42.03"/>
<polygon fill="#63b8ff" stroke="#63b8ff" points="744.86,-154.39 745.89,-164.94 751.66,-156.05 744.86,-154.39"/>
</a>
</g>
</g>
<!-- Node7&#45;&gt;Node8 -->
<g id="edge7_Node000007_Node000008" class="edge">
<title>Node7&#45;&gt;Node8</title>
<g id="a_edge7_Node000007_Node000008"><a xlink:title=" ">
<path fill="none" stroke="#63b8ff" d="M691.1,-67.78C696.51,-58.97 702.13,-49.83 706.92,-42.04"/>
<polygon fill="#63b8ff" stroke="#63b8ff" points="688.17,-65.86 685.92,-76.21 694.14,-69.52 688.17,-65.86"/>
</a>
</g>
</g>
<!-- Node12&#45;&gt;Node8 -->
<g id="edge14_Node000012_Node000008" class="edge">
<title>Node12&#45;&gt;Node8</title>
<g id="a_edge14_Node000012_Node000008"><a xlink:title=" ">
<path fill="none" stroke="#63b8ff" d="M68.04,-258.71C49.59,-249.66 32.26,-237.1 21.31,-219.75 8.74,-199.83 6.44,-185.02 21.31,-166.75 99.77,-70.33 484.86,-36.03 647.07,-25.72"/>
<polygon fill="#63b8ff" stroke="#63b8ff" points="66.44,-261.83 77,-262.76 69.33,-255.45 66.44,-261.83"/>
</a>
</g>
</g>
<!-- Node13&#45;&gt;Node8 -->
<g id="edge22_Node000013_Node000008" class="edge">
<title>Node13&#45;&gt;Node8</title>
<g id="a_edge22_Node000013_Node000008"><a xlink:title=" ">
<path fill="none" stroke="#63b8ff" d="M1239.51,-245.96C1268.08,-201.29 1305.52,-124.52 1263.31,-77.75 1232.26,-43.35 932.12,-28.92 791.43,-24.01"/>
<polygon fill="#63b8ff" stroke="#63b8ff" points="1236.63,-243.98 1234.05,-254.26 1242.47,-247.83 1236.63,-243.98"/>
</a>
</g>
</g>
<!-- Node14 -->
<g id="Node000014" class="node">
<title>Node14</title>
<g id="a_Node000014"><a xlink:href="DAPHNEListRequestHandler_8hpp.html" target="_top" xlink:title=" ">
<polygon fill="white" stroke="#666666" points="1228.56,-219.75 1064.06,-219.75 1064.06,-166.75 1228.56,-166.75 1228.56,-219.75"/>
<text text-anchor="start" x="1072.06" y="-206.25" font-family="Helvetica,sans-Serif" font-size="10.00">/github/workspace/dev</text>
<text text-anchor="start" x="1072.06" y="-195" font-family="Helvetica,sans-Serif" font-size="10.00">_area/sourcecode/fdreadoutlibs</text>
<text text-anchor="start" x="1072.06" y="-183.75" font-family="Helvetica,sans-Serif" font-size="10.00">/include/fdreadoutlibs/daphne</text>
<text text-anchor="middle" x="1146.31" y="-172.5" font-family="Helvetica,sans-Serif" font-size="10.00">/DAPHNEListRequestHandler.hpp</text>
</a>
</g>
</g>
<!-- Node13&#45;&gt;Node14 -->
<g id="edge16_Node000013_Node000014" class="edge">
<title>Node13&#45;&gt;Node14</title>
<g id="a_edge16_Node000013_Node000014"><a xlink:title=" ">
<path fill="none" stroke="#63b8ff" d="M1187.24,-246.62C1180.3,-237.74 1172.95,-228.34 1166.43,-220"/>
<polygon fill="#63b8ff" stroke="#63b8ff" points="1184.43,-248.7 1193.34,-254.43 1189.94,-244.39 1184.43,-248.7"/>
</a>
</g>
</g>
<!-- Node16 -->
<g id="Node000016" class="node">
<title>Node16</title>
<g id="a_Node000016"><a xlink:href="DefaultSkipListRequestHandler_8hpp.html" target="_top" xlink:title=" ">
<polygon fill="white" stroke="#666666" points="1484.06,-219.75 1310.56,-219.75 1310.56,-166.75 1484.06,-166.75 1484.06,-219.75"/>
<text text-anchor="start" x="1318.56" y="-206.25" font-family="Helvetica,sans-Serif" font-size="10.00">/github/workspace/dev</text>
<text text-anchor="start" x="1318.56" y="-195" font-family="Helvetica,sans-Serif" font-size="10.00">_area/sourcecode/readoutlibs</text>
<text text-anchor="start" x="1318.56" y="-183.75" font-family="Helvetica,sans-Serif" font-size="10.00">/include/readoutlibs/models</text>
<text text-anchor="middle" x="1397.31" y="-172.5" font-family="Helvetica,sans-Serif" font-size="10.00">/DefaultSkipListRequestHandler.hpp</text>
</a>
</g>
</g>
<!-- Node13&#45;&gt;Node16 -->
<g id="edge19_Node000013_Node000016" class="edge">
<title>Node13&#45;&gt;Node16</title>
<g id="a_edge19_Node000013_Node000016"><a xlink:title=" ">
<path fill="none" stroke="#63b8ff" d="M1279.08,-250.46C1299.91,-240.55 1322.77,-229.69 1342.79,-220.17"/>
<polygon fill="#63b8ff" stroke="#63b8ff" points="1277.61,-247.28 1270.08,-254.73 1280.62,-253.6 1277.61,-247.28"/>
</a>
</g>
</g>
<!-- Node14&#45;&gt;Node4 -->
<g id="edge17_Node000014_Node000004" class="edge">
<title>Node14&#45;&gt;Node4</title>
<g id="a_edge17_Node000014_Node000004"><a xlink:title=" ">
<path fill="none" stroke="#63b8ff" d="M1075.5,-161.75C1047.68,-149.77 1016.5,-136.34 991.51,-125.58"/>
<polygon fill="#63b8ff" stroke="#63b8ff" points="1074.02,-164.93 1084.58,-165.67 1076.78,-158.5 1074.02,-164.93"/>
</a>
</g>
</g>
<!-- Node15 -->
<g id="Node000015" class="node">
<title>Node15</title>
<g id="a_Node000015"><a xlink:href="DAPHNEListRequestHandler_8cpp.html" target="_top" xlink:title=" ">
<polygon fill="white" stroke="#666666" points="1254.06,-125.12 1038.56,-125.12 1038.56,-83.38 1254.06,-83.38 1254.06,-125.12"/>
<text text-anchor="start" x="1046.56" y="-111.62" font-family="Helvetica,sans-Serif" font-size="10.00">/github/workspace/dev</text>
<text text-anchor="start" x="1046.56" y="-100.38" font-family="Helvetica,sans-Serif" font-size="10.00">_area/sourcecode/fdreadoutlibs</text>
<text text-anchor="middle" x="1146.31" y="-89.12" font-family="Helvetica,sans-Serif" font-size="10.00">/src/daphne/DAPHNEListRequestHandler.cpp</text>
</a>
</g>
</g>
<!-- Node14&#45;&gt;Node15 -->
<g id="edge18_Node000014_Node000015" class="edge">
<title>Node14&#45;&gt;Node15</title>
<g id="a_edge18_Node000014_Node000015"><a xlink:title=" ">
<path fill="none" stroke="#63b8ff" d="M1146.31,-155.38C1146.31,-145.13 1146.31,-134.37 1146.31,-125.46"/>
<polygon fill="#63b8ff" stroke="#63b8ff" points="1142.81,-155.1 1146.31,-165.1 1149.81,-155.1 1142.81,-155.1"/>
</a>
</g>
</g>
<!-- Node17 -->
<g id="Node000017" class="node">
<title>Node17</title>
<g id="a_Node000017"><a xlink:href="TPRequestHandler_8hpp.html" target="_top" xlink:title=" ">
<polygon fill="white" stroke="#666666" points="1480.31,-125.12 1314.31,-125.12 1314.31,-83.38 1480.31,-83.38 1480.31,-125.12"/>
<text text-anchor="start" x="1322.31" y="-111.62" font-family="Helvetica,sans-Serif" font-size="10.00">/github/workspace/dev</text>
<text text-anchor="start" x="1322.31" y="-100.38" font-family="Helvetica,sans-Serif" font-size="10.00">_area/sourcecode/trigger</text>
<text text-anchor="middle" x="1397.31" y="-89.12" font-family="Helvetica,sans-Serif" font-size="10.00">/src/trigger/TPRequestHandler.hpp</text>
</a>
</g>
</g>
<!-- Node16&#45;&gt;Node17 -->
<g id="edge20_Node000016_Node000017" class="edge">
<title>Node16&#45;&gt;Node17</title>
<g id="a_edge20_Node000016_Node000017"><a xlink:title=" ">
<path fill="none" stroke="#63b8ff" d="M1397.31,-155.38C1397.31,-145.13 1397.31,-134.37 1397.31,-125.46"/>
<polygon fill="#63b8ff" stroke="#63b8ff" points="1393.81,-155.1 1397.31,-165.1 1400.81,-155.1 1393.81,-155.1"/>
</a>
</g>
</g>
<!-- Node18 -->
<g id="Node000018" class="node">
<title>Node18</title>
<g id="a_Node000018"><a xlink:href="TPRequestHandler_8cpp.html" target="_top" xlink:title=" ">
<polygon fill="white" stroke="#666666" points="1465.31,-41.75 1329.31,-41.75 1329.31,0 1465.31,0 1465.31,-41.75"/>
<text text-anchor="start" x="1337.31" y="-28.25" font-family="Helvetica,sans-Serif" font-size="10.00">/github/workspace/dev</text>
<text text-anchor="start" x="1337.31" y="-17" font-family="Helvetica,sans-Serif" font-size="10.00">_area/sourcecode/trigger</text>
<text text-anchor="middle" x="1397.31" y="-5.75" font-family="Helvetica,sans-Serif" font-size="10.00">/src/TPRequestHandler.cpp</text>
</a>
</g>
</g>
<!-- Node17&#45;&gt;Node18 -->
<g id="edge21_Node000017_Node000018" class="edge">
<title>Node17&#45;&gt;Node18</title>
<g id="a_edge21_Node000017_Node000018"><a xlink:title=" ">
<path fill="none" stroke="#63b8ff" d="M1397.31,-71.89C1397.31,-61.87 1397.31,-51.05 1397.31,-42.04"/>
<polygon fill="#63b8ff" stroke="#63b8ff" points="1393.81,-71.62 1397.31,-81.62 1400.81,-71.62 1393.81,-71.62"/>
</a>
</g>
</g>
</g>
</svg>
