<?xml version="1.0" encoding="UTF-8" standalone="no"?>
<!DOCTYPE svg PUBLIC "-//W3C//DTD SVG 1.1//EN"
 "http://www.w3.org/Graphics/SVG/1.1/DTD/svg11.dtd">
<!-- Generated by graphviz version 9.0.0 (20230911.1827)
 -->
<!-- Title: /github/workspace/dev_area/build/listrev/codegen/include/listrev/reversedlistvalidatorinfo/InfoNljs.hpp Pages: 1 -->
<svg width="272pt" height="183pt"
 viewBox="0.00 0.00 271.50 182.75" xmlns="http://www.w3.org/2000/svg" xmlns:xlink="http://www.w3.org/1999/xlink">
<g id="graph0" class="graph" transform="scale(1 1) rotate(0) translate(4 178.75)">
<title>/github/workspace/dev_area/build/listrev/codegen/include/listrev/reversedlistvalidatorinfo/InfoNljs.hpp</title>
<!-- Node1 -->
<g id="Node000001" class="node">
<title>Node1</title>
<g id="a_Node000001"><a xlink:title=" ">
<polygon fill="#999999" stroke="#666666" points="236.38,-174.75 51.62,-174.75 51.62,-121.75 236.38,-121.75 236.38,-174.75"/>
<text text-anchor="start" x="59.62" y="-161.25" font-family="Helvetica,sans-Serif" font-size="10.00">/github/workspace/dev</text>
<text text-anchor="start" x="59.62" y="-150" font-family="Helvetica,sans-Serif" font-size="10.00">_area/build/listrev/codegen</text>
<text text-anchor="start" x="59.62" y="-138.75" font-family="Helvetica,sans-Serif" font-size="10.00">/include/listrev/reversedlistvalidatorinfo</text>
<text text-anchor="middle" x="144" y="-127.5" font-family="Helvetica,sans-Serif" font-size="10.00">/InfoNljs.hpp</text>
</a>
</g>
</g>
<!-- Node2 -->
<g id="Node000002" class="node">
<title>Node2</title>
<g id="a_Node000002"><a xlink:href="listrev_2codegen_2include_2listrev_2reversedlistvalidatorinfo_2InfoStructs_8hpp.html" target="_top" xlink:title=" ">
<polygon fill="white" stroke="#666666" points="148,-85.75 0,-85.75 0,-55.25 148,-55.25 148,-85.75"/>
<text text-anchor="start" x="8" y="-72.25" font-family="Helvetica,sans-Serif" font-size="10.00">listrev/reversedlistvalidatorinfo</text>
<text text-anchor="middle" x="74" y="-61" font-family="Helvetica,sans-Serif" font-size="10.00">/InfoStructs.hpp</text>
</a>
</g>
</g>
<!-- Node1&#45;&gt;Node2 -->
<g id="edge1_Node000001_Node000002" class="edge">
<title>Node1&#45;&gt;Node2</title>
<g id="a_edge1_Node000001_Node000002"><a xlink:title=" ">
<path fill="none" stroke="#63b8ff" d="M120.3,-121.6C112.18,-112.81 103.14,-103.04 95.23,-94.47"/>
<polygon fill="#63b8ff" stroke="#63b8ff" points="97.85,-92.15 88.49,-87.18 92.71,-96.9 97.85,-92.15"/>
</a>
</g>
</g>
<!-- Node4 -->
<g id="Node000004" class="node">
<title>Node4</title>
<g id="a_Node000004"><a xlink:title=" ">
<polygon fill="#e0e0e0" stroke="#999999" points="263.5,-80.12 166.5,-80.12 166.5,-60.88 263.5,-60.88 263.5,-80.12"/>
<text text-anchor="middle" x="215" y="-66.62" font-family="Helvetica,sans-Serif" font-size="10.00">nlohmann/json.hpp</text>
</a>
</g>
</g>
<!-- Node1&#45;&gt;Node4 -->
<g id="edge3_Node000001_Node000004" class="edge">
<title>Node1&#45;&gt;Node4</title>
<g id="a_edge3_Node000001_Node000004"><a xlink:title=" ">
<path fill="none" stroke="#63b8ff" d="M168.04,-121.6C178.16,-110.81 189.67,-98.52 198.77,-88.82"/>
<polygon fill="#63b8ff" stroke="#63b8ff" points="201.3,-91.23 205.59,-81.54 196.19,-86.45 201.3,-91.23"/>
</a>
</g>
</g>
<!-- Node3 -->
<g id="Node000003" class="node">
<title>Node3</title>
<g id="a_Node000003"><a xlink:title=" ">
<polygon fill="#e0e0e0" stroke="#999999" points="96.62,-19.25 51.38,-19.25 51.38,0 96.62,0 96.62,-19.25"/>
<text text-anchor="middle" x="74" y="-5.75" font-family="Helvetica,sans-Serif" font-size="10.00">cstdint</text>
</a>
</g>
</g>
<!-- Node2&#45;&gt;Node3 -->
<g id="edge2_Node000002_Node000003" class="edge">
<title>Node2&#45;&gt;Node3</title>
<g id="a_edge2_Node000002_Node000003"><a xlink:title=" ">
<path fill="none" stroke="#63b8ff" d="M74,-54.95C74,-47.71 74,-38.84 74,-30.94"/>
<polygon fill="#63b8ff" stroke="#63b8ff" points="77.5,-31.21 74,-21.21 70.5,-31.21 77.5,-31.21"/>
</a>
</g>
</g>
</g>
</svg>
