<?xml version="1.0" encoding="UTF-8" standalone="no"?>
<!DOCTYPE svg PUBLIC "-//W3C//DTD SVG 1.1//EN"
 "http://www.w3.org/Graphics/SVG/1.1/DTD/svg11.dtd">
<!-- Generated by graphviz version 9.0.0 (20230911.1827)
 -->
<!-- Title: /github/workspace/dev_area/build/listrev/codegen/include/listrev/listreverserinfo/InfoNljs.hpp Pages: 1 -->
<svg width="232pt" height="183pt"
 viewBox="0.00 0.00 232.00 182.75" xmlns="http://www.w3.org/2000/svg" xmlns:xlink="http://www.w3.org/1999/xlink">
<g id="graph0" class="graph" transform="scale(1 1) rotate(0) translate(4 178.75)">
<title>/github/workspace/dev_area/build/listrev/codegen/include/listrev/listreverserinfo/InfoNljs.hpp</title>
<!-- Node1 -->
<g id="Node000001" class="node">
<title>Node1</title>
<g id="a_Node000001"><a xlink:title=" ">
<polygon fill="#999999" stroke="#666666" points="187.38,-174.75 41.62,-174.75 41.62,-121.75 187.38,-121.75 187.38,-174.75"/>
<text text-anchor="start" x="49.62" y="-161.25" font-family="Helvetica,sans-Serif" font-size="10.00">/github/workspace/dev</text>
<text text-anchor="start" x="49.62" y="-150" font-family="Helvetica,sans-Serif" font-size="10.00">_area/build/listrev/codegen</text>
<text text-anchor="start" x="49.62" y="-138.75" font-family="Helvetica,sans-Serif" font-size="10.00">/include/listrev/listreverserinfo</text>
<text text-anchor="middle" x="114.5" y="-127.5" font-family="Helvetica,sans-Serif" font-size="10.00">/InfoNljs.hpp</text>
</a>
</g>
</g>
<!-- Node2 -->
<g id="Node000002" class="node">
<title>Node2</title>
<g id="a_Node000002"><a xlink:href="listrev_2codegen_2include_2listrev_2listreverserinfo_2InfoStructs_8hpp.html" target="_top" xlink:title=" ">
<polygon fill="white" stroke="#666666" points="109,-85.75 0,-85.75 0,-55.25 109,-55.25 109,-85.75"/>
<text text-anchor="start" x="8" y="-72.25" font-family="Helvetica,sans-Serif" font-size="10.00">listrev/listreverserinfo</text>
<text text-anchor="middle" x="54.5" y="-61" font-family="Helvetica,sans-Serif" font-size="10.00">/InfoStructs.hpp</text>
</a>
</g>
</g>
<!-- Node1&#45;&gt;Node2 -->
<g id="edge1_Node000001_Node000002" class="edge">
<title>Node1&#45;&gt;Node2</title>
<g id="a_edge1_Node000001_Node000002"><a xlink:title=" ">
<path fill="none" stroke="#63b8ff" d="M94.19,-121.6C87.37,-113 79.8,-103.45 73.12,-95.01"/>
<polygon fill="#63b8ff" stroke="#63b8ff" points="75.93,-92.92 66.98,-87.26 70.45,-97.27 75.93,-92.92"/>
</a>
</g>
</g>
<!-- Node4 -->
<g id="Node000004" class="node">
<title>Node4</title>
<g id="a_Node000004"><a xlink:title=" ">
<polygon fill="#e0e0e0" stroke="#999999" points="224,-80.12 127,-80.12 127,-60.88 224,-60.88 224,-80.12"/>
<text text-anchor="middle" x="175.5" y="-66.62" font-family="Helvetica,sans-Serif" font-size="10.00">nlohmann/json.hpp</text>
</a>
</g>
</g>
<!-- Node1&#45;&gt;Node4 -->
<g id="edge3_Node000001_Node000004" class="edge">
<title>Node1&#45;&gt;Node4</title>
<g id="a_edge3_Node000001_Node000004"><a xlink:title=" ">
<path fill="none" stroke="#63b8ff" d="M135.15,-121.6C143.76,-110.92 153.54,-98.77 161.31,-89.12"/>
<polygon fill="#63b8ff" stroke="#63b8ff" points="163.81,-91.6 167.35,-81.62 158.35,-87.21 163.81,-91.6"/>
</a>
</g>
</g>
<!-- Node3 -->
<g id="Node000003" class="node">
<title>Node3</title>
<g id="a_Node000003"><a xlink:title=" ">
<polygon fill="#e0e0e0" stroke="#999999" points="77.12,-19.25 31.88,-19.25 31.88,0 77.12,0 77.12,-19.25"/>
<text text-anchor="middle" x="54.5" y="-5.75" font-family="Helvetica,sans-Serif" font-size="10.00">cstdint</text>
</a>
</g>
</g>
<!-- Node2&#45;&gt;Node3 -->
<g id="edge2_Node000002_Node000003" class="edge">
<title>Node2&#45;&gt;Node3</title>
<g id="a_edge2_Node000002_Node000003"><a xlink:title=" ">
<path fill="none" stroke="#63b8ff" d="M54.5,-54.95C54.5,-47.71 54.5,-38.84 54.5,-30.94"/>
<polygon fill="#63b8ff" stroke="#63b8ff" points="58,-31.21 54.5,-21.21 51,-31.21 58,-31.21"/>
</a>
</g>
</g>
</g>
</svg>
