<?xml version="1.0" encoding="UTF-8" standalone="no"?>
<!DOCTYPE svg PUBLIC "-//W3C//DTD SVG 1.1//EN"
 "http://www.w3.org/Graphics/SVG/1.1/DTD/svg11.dtd">
<!-- Generated by graphviz version 9.0.0 (20230911.1827)
 -->
<!-- Title: /github/workspace/dev_area/build/listrev/codegen/include/listrev/randomdatalistgeneratorinfo/InfoNljs.hpp Pages: 1 -->
<svg width="288pt" height="183pt"
 viewBox="0.00 0.00 288.12 182.75" xmlns="http://www.w3.org/2000/svg" xmlns:xlink="http://www.w3.org/1999/xlink">
<g id="graph0" class="graph" transform="scale(1 1) rotate(0) translate(4 178.75)">
<title>/github/workspace/dev_area/build/listrev/codegen/include/listrev/randomdatalistgeneratorinfo/InfoNljs.hpp</title>
<!-- Node1 -->
<g id="Node000001" class="node">
<title>Node1</title>
<g id="a_Node000001"><a xlink:title=" ">
<polygon fill="#999999" stroke="#666666" points="257.62,-174.75 55.62,-174.75 55.62,-121.75 257.62,-121.75 257.62,-174.75"/>
<text text-anchor="start" x="63.62" y="-161.25" font-family="Helvetica,sans-Serif" font-size="10.00">/github/workspace/dev</text>
<text text-anchor="start" x="63.62" y="-150" font-family="Helvetica,sans-Serif" font-size="10.00">_area/build/listrev/codegen</text>
<text text-anchor="start" x="63.62" y="-138.75" font-family="Helvetica,sans-Serif" font-size="10.00">/include/listrev/randomdatalistgeneratorinfo</text>
<text text-anchor="middle" x="156.62" y="-127.5" font-family="Helvetica,sans-Serif" font-size="10.00">/InfoNljs.hpp</text>
</a>
</g>
</g>
<!-- Node2 -->
<g id="Node000002" class="node">
<title>Node2</title>
<g id="a_Node000002"><a xlink:href="listrev_2codegen_2include_2listrev_2randomdatalistgeneratorinfo_2InfoStructs_8hpp.html" target="_top" xlink:title=" ">
<polygon fill="white" stroke="#666666" points="165.25,-85.75 0,-85.75 0,-55.25 165.25,-55.25 165.25,-85.75"/>
<text text-anchor="start" x="8" y="-72.25" font-family="Helvetica,sans-Serif" font-size="10.00">listrev/randomdatalistgeneratorinfo</text>
<text text-anchor="middle" x="82.62" y="-61" font-family="Helvetica,sans-Serif" font-size="10.00">/InfoStructs.hpp</text>
</a>
</g>
</g>
<!-- Node1&#45;&gt;Node2 -->
<g id="edge1_Node000001_Node000002" class="edge">
<title>Node1&#45;&gt;Node2</title>
<g id="a_edge1_Node000001_Node000002"><a xlink:title=" ">
<path fill="none" stroke="#63b8ff" d="M131.57,-121.6C122.89,-112.72 113.23,-102.83 104.8,-94.2"/>
<polygon fill="#63b8ff" stroke="#63b8ff" points="107.41,-91.86 97.92,-87.15 102.4,-96.75 107.41,-91.86"/>
</a>
</g>
</g>
<!-- Node4 -->
<g id="Node000004" class="node">
<title>Node4</title>
<g id="a_Node000004"><a xlink:title=" ">
<polygon fill="#e0e0e0" stroke="#999999" points="280.12,-80.12 183.12,-80.12 183.12,-60.88 280.12,-60.88 280.12,-80.12"/>
<text text-anchor="middle" x="231.62" y="-66.62" font-family="Helvetica,sans-Serif" font-size="10.00">nlohmann/json.hpp</text>
</a>
</g>
</g>
<!-- Node1&#45;&gt;Node4 -->
<g id="edge3_Node000001_Node000004" class="edge">
<title>Node1&#45;&gt;Node4</title>
<g id="a_edge3_Node000001_Node000004"><a xlink:title=" ">
<path fill="none" stroke="#63b8ff" d="M182.02,-121.6C192.82,-110.69 205.12,-98.27 214.77,-88.52"/>
<polygon fill="#63b8ff" stroke="#63b8ff" points="217.16,-91.08 221.71,-81.52 212.19,-86.16 217.16,-91.08"/>
</a>
</g>
</g>
<!-- Node3 -->
<g id="Node000003" class="node">
<title>Node3</title>
<g id="a_Node000003"><a xlink:title=" ">
<polygon fill="#e0e0e0" stroke="#999999" points="105.25,-19.25 60,-19.25 60,0 105.25,0 105.25,-19.25"/>
<text text-anchor="middle" x="82.62" y="-5.75" font-family="Helvetica,sans-Serif" font-size="10.00">cstdint</text>
</a>
</g>
</g>
<!-- Node2&#45;&gt;Node3 -->
<g id="edge2_Node000002_Node000003" class="edge">
<title>Node2&#45;&gt;Node3</title>
<g id="a_edge2_Node000002_Node000003"><a xlink:title=" ">
<path fill="none" stroke="#63b8ff" d="M82.62,-54.95C82.62,-47.71 82.62,-38.84 82.62,-30.94"/>
<polygon fill="#63b8ff" stroke="#63b8ff" points="86.13,-31.21 82.63,-21.21 79.13,-31.21 86.13,-31.21"/>
</a>
</g>
</g>
</g>
</svg>
