<?xml version="1.0" encoding="UTF-8" standalone="no"?>
<!DOCTYPE svg PUBLIC "-//W3C//DTD SVG 1.1//EN"
 "http://www.w3.org/Graphics/SVG/1.1/DTD/svg11.dtd">
<!-- Generated by graphviz version 9.0.0 (20230911.1827)
 -->
<!-- Title: /github/workspace/dev_area/sourcecode/timing/include/timing/MasterDesign.hpp Pages: 1 -->
<svg width="1699pt" height="283pt"
 viewBox="0.00 0.00 1699.38 283.00" xmlns="http://www.w3.org/2000/svg" xmlns:xlink="http://www.w3.org/1999/xlink">
<g id="graph0" class="graph" transform="scale(1 1) rotate(0) translate(4 279)">
<title>/github/workspace/dev_area/sourcecode/timing/include/timing/MasterDesign.hpp</title>
<!-- Node1 -->
<g id="Node000001" class="node">
<title>Node1</title>
<g id="a_Node000001"><a xlink:title=" ">
<polygon fill="#999999" stroke="#666666" points="1358.12,-275 1198.12,-275 1198.12,-233.25 1358.12,-233.25 1358.12,-275"/>
<text text-anchor="start" x="1206.12" y="-261.5" font-family="Helvetica,sans-Serif" font-size="10.00">/github/workspace/dev</text>
<text text-anchor="start" x="1206.12" y="-250.25" font-family="Helvetica,sans-Serif" font-size="10.00">_area/sourcecode/timing</text>
<text text-anchor="middle" x="1278.12" y="-239" font-family="Helvetica,sans-Serif" font-size="10.00">/include/timing/MasterDesign.hpp</text>
</a>
</g>
</g>
<!-- Node2 -->
<g id="Node000002" class="node">
<title>Node2</title>
<g id="a_Node000002"><a xlink:href="BoreasDesign_8hpp.html" target="_top" xlink:title=" ">
<polygon fill="white" stroke="#666666" points="1172.5,-197.25 1011.75,-197.25 1011.75,-155.5 1172.5,-155.5 1172.5,-197.25"/>
<text text-anchor="start" x="1019.75" y="-183.75" font-family="Helvetica,sans-Serif" font-size="10.00">/github/workspace/dev</text>
<text text-anchor="start" x="1019.75" y="-172.5" font-family="Helvetica,sans-Serif" font-size="10.00">_area/sourcecode/timing</text>
<text text-anchor="middle" x="1092.12" y="-161.25" font-family="Helvetica,sans-Serif" font-size="10.00">/include/timing/BoreasDesign.hpp</text>
</a>
</g>
</g>
<!-- Node1&#45;&gt;Node2 -->
<g id="edge1_Node000001_Node000002" class="edge">
<title>Node1&#45;&gt;Node2</title>
<g id="a_edge1_Node000001_Node000002"><a xlink:title=" ">
<path fill="none" stroke="#63b8ff" d="M1217.68,-228.51C1193.24,-218.56 1165.37,-207.21 1142.11,-197.73"/>
<polygon fill="#63b8ff" stroke="#63b8ff" points="1216.3,-231.72 1226.88,-232.25 1218.94,-225.24 1216.3,-231.72"/>
</a>
</g>
</g>
<!-- Node5 -->
<g id="Node000005" class="node">
<title>Node5</title>
<g id="a_Node000005"><a xlink:href="MasterMuxDesign_8hpp.html" target="_top" xlink:title=" ">
<polygon fill="white" stroke="#666666" points="740.12,-197.25 562.12,-197.25 562.12,-155.5 740.12,-155.5 740.12,-197.25"/>
<text text-anchor="start" x="570.12" y="-183.75" font-family="Helvetica,sans-Serif" font-size="10.00">/github/workspace/dev</text>
<text text-anchor="start" x="570.12" y="-172.5" font-family="Helvetica,sans-Serif" font-size="10.00">_area/sourcecode/timing</text>
<text text-anchor="middle" x="651.12" y="-161.25" font-family="Helvetica,sans-Serif" font-size="10.00">/include/timing/MasterMuxDesign.hpp</text>
</a>
</g>
</g>
<!-- Node1&#45;&gt;Node5 -->
<g id="edge4_Node000001_Node000005" class="edge">
<title>Node1&#45;&gt;Node5</title>
<g id="a_edge4_Node000001_Node000005"><a xlink:title=" ">
<path fill="none" stroke="#63b8ff" d="M1186.47,-242.05C1066.86,-227.6 858.9,-202.48 740.45,-188.17"/>
<polygon fill="#63b8ff" stroke="#63b8ff" points="1185.91,-245.51 1196.26,-243.23 1186.75,-238.56 1185.91,-245.51"/>
</a>
</g>
</g>
<!-- Node16 -->
<g id="Node000016" class="node">
<title>Node16</title>
<g id="a_Node000016"><a xlink:href="OuroborosDesign_8hpp.html" target="_top" xlink:title=" ">
<polygon fill="white" stroke="#666666" points="1365.62,-197.25 1190.62,-197.25 1190.62,-155.5 1365.62,-155.5 1365.62,-197.25"/>
<text text-anchor="start" x="1198.62" y="-183.75" font-family="Helvetica,sans-Serif" font-size="10.00">/github/workspace/dev</text>
<text text-anchor="start" x="1198.62" y="-172.5" font-family="Helvetica,sans-Serif" font-size="10.00">_area/sourcecode/timing</text>
<text text-anchor="middle" x="1278.12" y="-161.25" font-family="Helvetica,sans-Serif" font-size="10.00">/include/timing/OuroborosDesign.hpp</text>
</a>
</g>
</g>
<!-- Node1&#45;&gt;Node16 -->
<g id="edge19_Node000001_Node000016" class="edge">
<title>Node1&#45;&gt;Node16</title>
<g id="a_edge19_Node000001_Node000016"><a xlink:title=" ">
<path fill="none" stroke="#63b8ff" d="M1278.12,-221.5C1278.12,-213.46 1278.12,-205.04 1278.12,-197.73"/>
<polygon fill="#63b8ff" stroke="#63b8ff" points="1274.63,-221.31 1278.13,-231.31 1281.63,-221.31 1274.63,-221.31"/>
</a>
</g>
</g>
<!-- Node18 -->
<g id="Node000018" class="node">
<title>Node18</title>
<g id="a_Node000018"><a xlink:href="OverlordDesign_8hpp.html" target="_top" xlink:title=" ">
<polygon fill="white" stroke="#666666" points="1550.5,-197.25 1383.75,-197.25 1383.75,-155.5 1550.5,-155.5 1550.5,-197.25"/>
<text text-anchor="start" x="1391.75" y="-183.75" font-family="Helvetica,sans-Serif" font-size="10.00">/github/workspace/dev</text>
<text text-anchor="start" x="1391.75" y="-172.5" font-family="Helvetica,sans-Serif" font-size="10.00">_area/sourcecode/timing</text>
<text text-anchor="middle" x="1467.12" y="-161.25" font-family="Helvetica,sans-Serif" font-size="10.00">/include/timing/OverlordDesign.hpp</text>
</a>
</g>
</g>
<!-- Node1&#45;&gt;Node18 -->
<g id="edge22_Node000001_Node000018" class="edge">
<title>Node1&#45;&gt;Node18</title>
<g id="a_edge22_Node000001_Node000018"><a xlink:title=" ">
<path fill="none" stroke="#63b8ff" d="M1339.21,-228.64C1364.12,-218.66 1392.59,-207.25 1416.34,-197.73"/>
<polygon fill="#63b8ff" stroke="#63b8ff" points="1338.16,-225.29 1330.18,-232.26 1340.76,-231.79 1338.16,-225.29"/>
</a>
</g>
</g>
<!-- Node20 -->
<g id="Node000020" class="node">
<title>Node20</title>
<g id="a_Node000020"><a xlink:href="MasterDesign_8cpp.html" target="_top" xlink:title=" ">
<polygon fill="white" stroke="#666666" points="1691.38,-197.25 1568.88,-197.25 1568.88,-155.5 1691.38,-155.5 1691.38,-197.25"/>
<text text-anchor="start" x="1576.88" y="-183.75" font-family="Helvetica,sans-Serif" font-size="10.00">/github/workspace/dev</text>
<text text-anchor="start" x="1576.88" y="-172.5" font-family="Helvetica,sans-Serif" font-size="10.00">_area/sourcecode/timing</text>
<text text-anchor="middle" x="1630.12" y="-161.25" font-family="Helvetica,sans-Serif" font-size="10.00">/src/MasterDesign.cpp</text>
</a>
</g>
</g>
<!-- Node1&#45;&gt;Node20 -->
<g id="edge25_Node000001_Node000020" class="edge">
<title>Node1&#45;&gt;Node20</title>
<g id="a_edge25_Node000001_Node000020"><a xlink:title=" ">
<path fill="none" stroke="#63b8ff" d="M1369.57,-236.78C1424.71,-226.46 1496.21,-212.29 1559.12,-197.25 1562.24,-196.51 1565.42,-195.72 1568.63,-194.9"/>
<polygon fill="#63b8ff" stroke="#63b8ff" points="1369.1,-233.3 1359.91,-238.57 1370.38,-240.19 1369.1,-233.3"/>
</a>
</g>
</g>
<!-- Node3 -->
<g id="Node000003" class="node">
<title>Node3</title>
<g id="a_Node000003"><a xlink:href="top__designs_8cpp.html" target="_top" xlink:title=" ">
<polygon fill="white" stroke="#666666" points="900,-41.75 766.25,-41.75 766.25,0 900,0 900,-41.75"/>
<text text-anchor="start" x="774.25" y="-28.25" font-family="Helvetica,sans-Serif" font-size="10.00">/github/workspace/dev</text>
<text text-anchor="start" x="774.25" y="-17" font-family="Helvetica,sans-Serif" font-size="10.00">_area/sourcecode/timing</text>
<text text-anchor="middle" x="833.12" y="-5.75" font-family="Helvetica,sans-Serif" font-size="10.00">/pybindsrc/top_designs.cpp</text>
</a>
</g>
</g>
<!-- Node2&#45;&gt;Node3 -->
<g id="edge2_Node000002_Node000003" class="edge">
<title>Node2&#45;&gt;Node3</title>
<g id="a_edge2_Node000002_Node000003"><a xlink:title=" ">
<path fill="none" stroke="#63b8ff" d="M1000.24,-164.41C941.55,-155.5 872.73,-140.87 852.12,-119.5 832.23,-98.87 830.15,-63.94 831.14,-41.94"/>
<polygon fill="#63b8ff" stroke="#63b8ff" points="999.54,-167.84 1009.95,-165.84 1000.56,-160.92 999.54,-167.84"/>
</a>
</g>
</g>
<!-- Node4 -->
<g id="Node000004" class="node">
<title>Node4</title>
<g id="a_Node000004"><a xlink:href="BoreasDesign_8cpp.html" target="_top" xlink:title=" ">
<polygon fill="white" stroke="#666666" points="1195.38,-119.5 1072.88,-119.5 1072.88,-77.75 1195.38,-77.75 1195.38,-119.5"/>
<text text-anchor="start" x="1080.88" y="-106" font-family="Helvetica,sans-Serif" font-size="10.00">/github/workspace/dev</text>
<text text-anchor="start" x="1080.88" y="-94.75" font-family="Helvetica,sans-Serif" font-size="10.00">_area/sourcecode/timing</text>
<text text-anchor="middle" x="1134.12" y="-83.5" font-family="Helvetica,sans-Serif" font-size="10.00">/src/BoreasDesign.cpp</text>
</a>
</g>
</g>
<!-- Node2&#45;&gt;Node4 -->
<g id="edge3_Node000002_Node000004" class="edge">
<title>Node2&#45;&gt;Node4</title>
<g id="a_edge3_Node000002_Node000004"><a xlink:title=" ">
<path fill="none" stroke="#63b8ff" d="M1108.88,-145.15C1113.57,-136.7 1118.55,-127.71 1122.84,-119.98"/>
<polygon fill="#63b8ff" stroke="#63b8ff" points="1105.9,-143.31 1104.11,-153.75 1112.02,-146.7 1105.9,-143.31"/>
</a>
</g>
</g>
<!-- Node6 -->
<g id="Node000006" class="node">
<title>Node6</title>
<g id="a_Node000006"><a xlink:href="FanoutDesign_8hpp.html" target="_top" xlink:title=" ">
<polygon fill="white" stroke="#666666" points="300.12,-119.5 140.12,-119.5 140.12,-77.75 300.12,-77.75 300.12,-119.5"/>
<text text-anchor="start" x="148.12" y="-106" font-family="Helvetica,sans-Serif" font-size="10.00">/github/workspace/dev</text>
<text text-anchor="start" x="148.12" y="-94.75" font-family="Helvetica,sans-Serif" font-size="10.00">_area/sourcecode/timing</text>
<text text-anchor="middle" x="220.12" y="-83.5" font-family="Helvetica,sans-Serif" font-size="10.00">/include/timing/FanoutDesign.hpp</text>
</a>
</g>
</g>
<!-- Node5&#45;&gt;Node6 -->
<g id="edge5_Node000005_Node000006" class="edge">
<title>Node5&#45;&gt;Node6</title>
<g id="a_edge5_Node000005_Node000006"><a xlink:title=" ">
<path fill="none" stroke="#63b8ff" d="M550.76,-160.54C482.46,-150.06 390.12,-135.15 309.12,-119.5 306.33,-118.96 303.48,-118.4 300.61,-117.82"/>
<polygon fill="#63b8ff" stroke="#63b8ff" points="550.03,-163.97 560.45,-162.02 551.09,-157.05 550.03,-163.97"/>
</a>
</g>
</g>
<!-- Node9 -->
<g id="Node000009" class="node">
<title>Node9</title>
<g id="a_Node000009"><a xlink:href="GaiaDesign_8hpp.html" target="_top" xlink:title=" ">
<polygon fill="white" stroke="#666666" points="805.25,-119.5 655,-119.5 655,-77.75 805.25,-77.75 805.25,-119.5"/>
<text text-anchor="start" x="663" y="-106" font-family="Helvetica,sans-Serif" font-size="10.00">/github/workspace/dev</text>
<text text-anchor="start" x="663" y="-94.75" font-family="Helvetica,sans-Serif" font-size="10.00">_area/sourcecode/timing</text>
<text text-anchor="middle" x="730.12" y="-83.5" font-family="Helvetica,sans-Serif" font-size="10.00">/include/timing/GaiaDesign.hpp</text>
</a>
</g>
</g>
<!-- Node5&#45;&gt;Node9 -->
<g id="edge9_Node000005_Node000009" class="edge">
<title>Node5&#45;&gt;Node9</title>
<g id="a_edge9_Node000005_Node000009"><a xlink:title=" ">
<path fill="none" stroke="#63b8ff" d="M680.34,-147.36C689.81,-138.28 700.12,-128.39 708.9,-119.98"/>
<polygon fill="#63b8ff" stroke="#63b8ff" points="678.18,-144.58 673.39,-154.03 683.03,-149.63 678.18,-144.58"/>
</a>
</g>
</g>
<!-- Node11 -->
<g id="Node000011" class="node">
<title>Node11</title>
<g id="a_Node000011"><a xlink:href="KerberosDesign_8hpp.html" target="_top" xlink:title=" ">
<polygon fill="white" stroke="#666666" points="487.62,-119.5 318.62,-119.5 318.62,-77.75 487.62,-77.75 487.62,-119.5"/>
<text text-anchor="start" x="326.62" y="-106" font-family="Helvetica,sans-Serif" font-size="10.00">/github/workspace/dev</text>
<text text-anchor="start" x="326.62" y="-94.75" font-family="Helvetica,sans-Serif" font-size="10.00">_area/sourcecode/timing</text>
<text text-anchor="middle" x="403.12" y="-83.5" font-family="Helvetica,sans-Serif" font-size="10.00">/include/timing/KerberosDesign.hpp</text>
</a>
</g>
</g>
<!-- Node5&#45;&gt;Node11 -->
<g id="edge12_Node000005_Node000011" class="edge">
<title>Node5&#45;&gt;Node11</title>
<g id="a_edge12_Node000005_Node000011"><a xlink:title=" ">
<path fill="none" stroke="#63b8ff" d="M574.02,-151.82C540.62,-141.62 501.9,-129.8 469.77,-119.98"/>
<polygon fill="#63b8ff" stroke="#63b8ff" points="572.63,-155.06 583.22,-154.63 574.68,-148.36 572.63,-155.06"/>
</a>
</g>
</g>
<!-- Node13 -->
<g id="Node000013" class="node">
<title>Node13</title>
<g id="a_Node000013"><a xlink:href="OuroborosMuxDesign_8hpp.html" target="_top" xlink:title=" ">
<polygon fill="white" stroke="#666666" points="1054.62,-119.5 861.62,-119.5 861.62,-77.75 1054.62,-77.75 1054.62,-119.5"/>
<text text-anchor="start" x="869.62" y="-106" font-family="Helvetica,sans-Serif" font-size="10.00">/github/workspace/dev</text>
<text text-anchor="start" x="869.62" y="-94.75" font-family="Helvetica,sans-Serif" font-size="10.00">_area/sourcecode/timing</text>
<text text-anchor="middle" x="958.12" y="-83.5" font-family="Helvetica,sans-Serif" font-size="10.00">/include/timing/OuroborosMuxDesign.hpp</text>
</a>
</g>
</g>
<!-- Node5&#45;&gt;Node13 -->
<g id="edge15_Node000005_Node000013" class="edge">
<title>Node5&#45;&gt;Node13</title>
<g id="a_edge15_Node000005_Node000013"><a xlink:title=" ">
<path fill="none" stroke="#63b8ff" d="M744.43,-152.35C786.25,-142.03 835.16,-129.97 875.63,-119.98"/>
<polygon fill="#63b8ff" stroke="#63b8ff" points="743.74,-148.92 734.86,-154.71 745.41,-155.72 743.74,-148.92"/>
</a>
</g>
</g>
<!-- Node15 -->
<g id="Node000015" class="node">
<title>Node15</title>
<g id="a_Node000015"><a xlink:href="MasterMuxDesign_8cpp.html" target="_top" xlink:title=" ">
<polygon fill="white" stroke="#666666" points="636.88,-119.5 505.38,-119.5 505.38,-77.75 636.88,-77.75 636.88,-119.5"/>
<text text-anchor="start" x="513.38" y="-106" font-family="Helvetica,sans-Serif" font-size="10.00">/github/workspace/dev</text>
<text text-anchor="start" x="513.38" y="-94.75" font-family="Helvetica,sans-Serif" font-size="10.00">_area/sourcecode/timing</text>
<text text-anchor="middle" x="571.12" y="-83.5" font-family="Helvetica,sans-Serif" font-size="10.00">/src/MasterMuxDesign.cpp</text>
</a>
</g>
</g>
<!-- Node5&#45;&gt;Node15 -->
<g id="edge18_Node000005_Node000015" class="edge">
<title>Node5&#45;&gt;Node15</title>
<g id="a_edge18_Node000005_Node000015"><a xlink:title=" ">
<path fill="none" stroke="#63b8ff" d="M621.54,-147.36C611.95,-138.28 601.51,-128.39 592.62,-119.98"/>
<polygon fill="#63b8ff" stroke="#63b8ff" points="618.92,-149.7 628.59,-154.03 623.73,-144.62 618.92,-149.7"/>
</a>
</g>
</g>
<!-- Node6&#45;&gt;Node3 -->
<g id="edge6_Node000006_Node000003" class="edge">
<title>Node6&#45;&gt;Node3</title>
<g id="a_edge6_Node000006_Node000003"><a xlink:title=" ">
<path fill="none" stroke="#63b8ff" d="M311.88,-77.46C508.67,-48.9 563.84,-74.53 757.12,-41.75 760.08,-41.25 763.09,-40.69 766.13,-40.08"/>
<polygon fill="#63b8ff" stroke="#63b8ff" points="311.44,-73.98 302.06,-78.91 312.46,-80.91 311.44,-73.98"/>
</a>
</g>
</g>
<!-- Node7 -->
<g id="Node000007" class="node">
<title>Node7</title>
<g id="a_Node000007"><a xlink:href="FanoutDesign_8cpp.html" target="_top" xlink:title=" ">
<polygon fill="white" stroke="#666666" points="302.38,-41.75 179.88,-41.75 179.88,0 302.38,0 302.38,-41.75"/>
<text text-anchor="start" x="187.88" y="-28.25" font-family="Helvetica,sans-Serif" font-size="10.00">/github/workspace/dev</text>
<text text-anchor="start" x="187.88" y="-17" font-family="Helvetica,sans-Serif" font-size="10.00">_area/sourcecode/timing</text>
<text text-anchor="middle" x="241.12" y="-5.75" font-family="Helvetica,sans-Serif" font-size="10.00">/src/FanoutDesign.cpp</text>
</a>
</g>
</g>
<!-- Node6&#45;&gt;Node7 -->
<g id="edge7_Node000006_Node000007" class="edge">
<title>Node6&#45;&gt;Node7</title>
<g id="a_edge7_Node000006_Node000007"><a xlink:title=" ">
<path fill="none" stroke="#63b8ff" d="M228.81,-66.28C231.07,-58.16 233.43,-49.62 235.48,-42.23"/>
<polygon fill="#63b8ff" stroke="#63b8ff" points="225.46,-65.3 226.16,-75.87 232.2,-67.17 225.46,-65.3"/>
</a>
</g>
</g>
<!-- Node8 -->
<g id="Node000008" class="node">
<title>Node8</title>
<g id="a_Node000008"><a xlink:href="sourcecode_2timinglibs_2src_2TimingHardwareManager_8cpp.html" target="_top" xlink:title=" ">
<polygon fill="white" stroke="#666666" points="162.25,-41.75 0,-41.75 0,0 162.25,0 162.25,-41.75"/>
<text text-anchor="start" x="8" y="-28.25" font-family="Helvetica,sans-Serif" font-size="10.00">/github/workspace/dev</text>
<text text-anchor="start" x="8" y="-17" font-family="Helvetica,sans-Serif" font-size="10.00">_area/sourcecode/timinglibs</text>
<text text-anchor="middle" x="81.12" y="-5.75" font-family="Helvetica,sans-Serif" font-size="10.00">/src/TimingHardwareManager.cpp</text>
</a>
</g>
</g>
<!-- Node6&#45;&gt;Node8 -->
<g id="edge8_Node000006_Node000008" class="edge">
<title>Node6&#45;&gt;Node8</title>
<g id="a_edge8_Node000006_Node000008"><a xlink:title=" ">
<path fill="none" stroke="#63b8ff" d="M173.23,-72.07C155.39,-62.35 135.32,-51.41 118.48,-42.23"/>
<polygon fill="#63b8ff" stroke="#63b8ff" points="171.09,-74.89 181.55,-76.6 174.44,-68.74 171.09,-74.89"/>
</a>
</g>
</g>
<!-- Node9&#45;&gt;Node3 -->
<g id="edge10_Node000009_Node000003" class="edge">
<title>Node9&#45;&gt;Node3</title>
<g id="a_edge10_Node000009_Node000003"><a xlink:title=" ">
<path fill="none" stroke="#63b8ff" d="M766.72,-70.71C779.47,-61.34 793.55,-50.98 805.45,-42.23"/>
<polygon fill="#63b8ff" stroke="#63b8ff" points="764.93,-67.68 758.95,-76.43 769.08,-73.32 764.93,-67.68"/>
</a>
</g>
</g>
<!-- Node10 -->
<g id="Node000010" class="node">
<title>Node10</title>
<g id="a_Node000010"><a xlink:href="GaiaDesign_8cpp.html" target="_top" xlink:title=" ">
<polygon fill="white" stroke="#666666" points="748.38,-41.75 625.88,-41.75 625.88,0 748.38,0 748.38,-41.75"/>
<text text-anchor="start" x="633.88" y="-28.25" font-family="Helvetica,sans-Serif" font-size="10.00">/github/workspace/dev</text>
<text text-anchor="start" x="633.88" y="-17" font-family="Helvetica,sans-Serif" font-size="10.00">_area/sourcecode/timing</text>
<text text-anchor="middle" x="687.12" y="-5.75" font-family="Helvetica,sans-Serif" font-size="10.00">/src/GaiaDesign.cpp</text>
</a>
</g>
</g>
<!-- Node9&#45;&gt;Node10 -->
<g id="edge11_Node000009_Node000010" class="edge">
<title>Node9&#45;&gt;Node10</title>
<g id="a_edge11_Node000009_Node000010"><a xlink:title=" ">
<path fill="none" stroke="#63b8ff" d="M712.97,-67.4C708.17,-58.95 703.07,-49.96 698.68,-42.23"/>
<polygon fill="#63b8ff" stroke="#63b8ff" points="709.87,-69.04 717.85,-76.01 715.96,-65.58 709.87,-69.04"/>
</a>
</g>
</g>
<!-- Node11&#45;&gt;Node3 -->
<g id="edge13_Node000011_Node000003" class="edge">
<title>Node11&#45;&gt;Node3</title>
<g id="a_edge13_Node000011_Node000003"><a xlink:title=" ">
<path fill="none" stroke="#63b8ff" d="M499.28,-77.27C613.47,-57.91 645.87,-63.89 757.12,-41.75 760.07,-41.16 763.07,-40.53 766.09,-39.87"/>
<polygon fill="#63b8ff" stroke="#63b8ff" points="498.72,-73.82 489.46,-78.97 499.91,-80.71 498.72,-73.82"/>
</a>
</g>
</g>
<!-- Node12 -->
<g id="Node000012" class="node">
<title>Node12</title>
<g id="a_Node000012"><a xlink:href="KerberosDesign_8cpp.html" target="_top" xlink:title=" ">
<polygon fill="white" stroke="#666666" points="464.38,-41.75 341.88,-41.75 341.88,0 464.38,0 464.38,-41.75"/>
<text text-anchor="start" x="349.88" y="-28.25" font-family="Helvetica,sans-Serif" font-size="10.00">/github/workspace/dev</text>
<text text-anchor="start" x="349.88" y="-17" font-family="Helvetica,sans-Serif" font-size="10.00">_area/sourcecode/timing</text>
<text text-anchor="middle" x="403.12" y="-5.75" font-family="Helvetica,sans-Serif" font-size="10.00">/src/KerberosDesign.cpp</text>
</a>
</g>
</g>
<!-- Node11&#45;&gt;Node12 -->
<g id="edge14_Node000011_Node000012" class="edge">
<title>Node11&#45;&gt;Node12</title>
<g id="a_edge14_Node000011_Node000012"><a xlink:title=" ">
<path fill="none" stroke="#63b8ff" d="M403.12,-66C403.12,-57.96 403.12,-49.54 403.12,-42.23"/>
<polygon fill="#63b8ff" stroke="#63b8ff" points="399.63,-65.81 403.13,-75.81 406.63,-65.81 399.63,-65.81"/>
</a>
</g>
</g>
<!-- Node13&#45;&gt;Node3 -->
<g id="edge16_Node000013_Node000003" class="edge">
<title>Node13&#45;&gt;Node3</title>
<g id="a_edge16_Node000013_Node000003"><a xlink:title=" ">
<path fill="none" stroke="#63b8ff" d="M915.06,-71.53C899.24,-61.94 881.58,-51.24 866.72,-42.23"/>
<polygon fill="#63b8ff" stroke="#63b8ff" points="912.97,-74.35 923.33,-76.54 916.59,-68.37 912.97,-74.35"/>
</a>
</g>
</g>
<!-- Node14 -->
<g id="Node000014" class="node">
<title>Node14</title>
<g id="a_Node000014"><a xlink:href="OuroborosMuxDesign_8cpp.html" target="_top" xlink:title=" ">
<polygon fill="white" stroke="#666666" points="1064.38,-41.75 917.88,-41.75 917.88,0 1064.38,0 1064.38,-41.75"/>
<text text-anchor="start" x="925.88" y="-28.25" font-family="Helvetica,sans-Serif" font-size="10.00">/github/workspace/dev</text>
<text text-anchor="start" x="925.88" y="-17" font-family="Helvetica,sans-Serif" font-size="10.00">_area/sourcecode/timing</text>
<text text-anchor="middle" x="991.12" y="-5.75" font-family="Helvetica,sans-Serif" font-size="10.00">/src/OuroborosMuxDesign.cpp</text>
</a>
</g>
</g>
<!-- Node13&#45;&gt;Node14 -->
<g id="edge17_Node000013_Node000014" class="edge">
<title>Node13&#45;&gt;Node14</title>
<g id="a_edge17_Node000013_Node000014"><a xlink:title=" ">
<path fill="none" stroke="#63b8ff" d="M971.54,-66.84C975.15,-58.55 978.96,-49.79 982.26,-42.23"/>
<polygon fill="#63b8ff" stroke="#63b8ff" points="968.36,-65.37 967.57,-75.94 974.78,-68.17 968.36,-65.37"/>
</a>
</g>
</g>
<!-- Node16&#45;&gt;Node3 -->
<g id="edge20_Node000016_Node000003" class="edge">
<title>Node16&#45;&gt;Node3</title>
<g id="a_edge20_Node000016_Node000003"><a xlink:title=" ">
<path fill="none" stroke="#63b8ff" d="M1326.61,-148.35C1336.48,-140.42 1345.55,-130.78 1351.12,-119.5 1359.34,-102.86 1363.7,-91.39 1351.12,-77.75 1317.73,-41.52 957.7,-50.01 909.12,-41.75 906.17,-41.25 903.16,-40.68 900.12,-40.07"/>
<polygon fill="#63b8ff" stroke="#63b8ff" points="1324.57,-145.5 1318.6,-154.25 1328.73,-151.13 1324.57,-145.5"/>
</a>
</g>
</g>
<!-- Node17 -->
<g id="Node000017" class="node">
<title>Node17</title>
<g id="a_Node000017"><a xlink:href="OuroborosDesign_8cpp.html" target="_top" xlink:title=" ">
<polygon fill="white" stroke="#666666" points="1342.38,-119.5 1213.88,-119.5 1213.88,-77.75 1342.38,-77.75 1342.38,-119.5"/>
<text text-anchor="start" x="1221.88" y="-106" font-family="Helvetica,sans-Serif" font-size="10.00">/github/workspace/dev</text>
<text text-anchor="start" x="1221.88" y="-94.75" font-family="Helvetica,sans-Serif" font-size="10.00">_area/sourcecode/timing</text>
<text text-anchor="middle" x="1278.12" y="-83.5" font-family="Helvetica,sans-Serif" font-size="10.00">/src/OuroborosDesign.cpp</text>
</a>
</g>
</g>
<!-- Node16&#45;&gt;Node17 -->
<g id="edge21_Node000016_Node000017" class="edge">
<title>Node16&#45;&gt;Node17</title>
<g id="a_edge21_Node000016_Node000017"><a xlink:title=" ">
<path fill="none" stroke="#63b8ff" d="M1278.12,-143.75C1278.12,-135.71 1278.12,-127.29 1278.12,-119.98"/>
<polygon fill="#63b8ff" stroke="#63b8ff" points="1274.63,-143.56 1278.13,-153.56 1281.63,-143.56 1274.63,-143.56"/>
</a>
</g>
</g>
<!-- Node18&#45;&gt;Node3 -->
<g id="edge23_Node000018_Node000003" class="edge">
<title>Node18&#45;&gt;Node3</title>
<g id="a_edge23_Node000018_Node000003"><a xlink:title=" ">
<path fill="none" stroke="#63b8ff" d="M1446.95,-146.08C1429.33,-123.12 1401.54,-92.65 1369.12,-77.75 1275.96,-34.93 1010.23,-58.79 909.12,-41.75 906.17,-41.25 903.15,-40.69 900.12,-40.09"/>
<polygon fill="#63b8ff" stroke="#63b8ff" points="1443.96,-147.93 1452.74,-153.87 1449.58,-143.76 1443.96,-147.93"/>
</a>
</g>
</g>
<!-- Node19 -->
<g id="Node000019" class="node">
<title>Node19</title>
<g id="a_Node000019"><a xlink:href="OverlordDesign_8cpp.html" target="_top" xlink:title=" ">
<polygon fill="white" stroke="#666666" points="1558.38,-119.5 1435.88,-119.5 1435.88,-77.75 1558.38,-77.75 1558.38,-119.5"/>
<text text-anchor="start" x="1443.88" y="-106" font-family="Helvetica,sans-Serif" font-size="10.00">/github/workspace/dev</text>
<text text-anchor="start" x="1443.88" y="-94.75" font-family="Helvetica,sans-Serif" font-size="10.00">_area/sourcecode/timing</text>
<text text-anchor="middle" x="1497.12" y="-83.5" font-family="Helvetica,sans-Serif" font-size="10.00">/src/OverlordDesign.cpp</text>
</a>
</g>
</g>
<!-- Node18&#45;&gt;Node19 -->
<g id="edge24_Node000018_Node000019" class="edge">
<title>Node18&#45;&gt;Node19</title>
<g id="a_edge24_Node000018_Node000019"><a xlink:title=" ">
<path fill="none" stroke="#63b8ff" d="M1479.32,-144.59C1482.6,-136.3 1486.07,-127.54 1489.06,-119.98"/>
<polygon fill="#63b8ff" stroke="#63b8ff" points="1476.15,-143.08 1475.72,-153.67 1482.66,-145.66 1476.15,-143.08"/>
</a>
</g>
</g>
</g>
</svg>
