<?xml version="1.0" encoding="UTF-8" standalone="no"?>
<!DOCTYPE svg PUBLIC "-//W3C//DTD SVG 1.1//EN"
 "http://www.w3.org/Graphics/SVG/1.1/DTD/svg11.dtd">
<!-- Generated by graphviz version 9.0.0 (20230911.1827)
 -->
<!-- Title: /github/workspace/dev_area/sourcecode/timing/include/timing/MasterMuxDesign.hpp Pages: 1 -->
<svg width="908pt" height="205pt"
 viewBox="0.00 0.00 908.38 205.25" xmlns="http://www.w3.org/2000/svg" xmlns:xlink="http://www.w3.org/1999/xlink">
<g id="graph0" class="graph" transform="scale(1 1) rotate(0) translate(4 201.25)">
<title>/github/workspace/dev_area/sourcecode/timing/include/timing/MasterMuxDesign.hpp</title>
<!-- Node1 -->
<g id="Node000001" class="node">
<title>Node1</title>
<g id="a_Node000001"><a xlink:title=" ">
<polygon fill="#999999" stroke="#666666" points="553.25,-197.25 375.25,-197.25 375.25,-155.5 553.25,-155.5 553.25,-197.25"/>
<text text-anchor="start" x="383.25" y="-183.75" font-family="Helvetica,sans-Serif" font-size="10.00">/github/workspace/dev</text>
<text text-anchor="start" x="383.25" y="-172.5" font-family="Helvetica,sans-Serif" font-size="10.00">_area/sourcecode/timing</text>
<text text-anchor="middle" x="464.25" y="-161.25" font-family="Helvetica,sans-Serif" font-size="10.00">/include/timing/MasterMuxDesign.hpp</text>
</a>
</g>
</g>
<!-- Node2 -->
<g id="Node000002" class="node">
<title>Node2</title>
<g id="a_Node000002"><a xlink:href="FanoutDesign_8hpp.html" target="_top" xlink:title=" ">
<polygon fill="white" stroke="#666666" points="739.25,-119.5 579.25,-119.5 579.25,-77.75 739.25,-77.75 739.25,-119.5"/>
<text text-anchor="start" x="587.25" y="-106" font-family="Helvetica,sans-Serif" font-size="10.00">/github/workspace/dev</text>
<text text-anchor="start" x="587.25" y="-94.75" font-family="Helvetica,sans-Serif" font-size="10.00">_area/sourcecode/timing</text>
<text text-anchor="middle" x="659.25" y="-83.5" font-family="Helvetica,sans-Serif" font-size="10.00">/include/timing/FanoutDesign.hpp</text>
</a>
</g>
</g>
<!-- Node1&#45;&gt;Node2 -->
<g id="edge1_Node000001_Node000002" class="edge">
<title>Node1&#45;&gt;Node2</title>
<g id="a_edge1_Node000001_Node000002"><a xlink:title=" ">
<path fill="none" stroke="#63b8ff" d="M526.93,-151.03C552.71,-141.01 582.24,-129.54 606.85,-119.98"/>
<polygon fill="#63b8ff" stroke="#63b8ff" points="525.97,-147.64 517.92,-154.53 528.51,-154.17 525.97,-147.64"/>
</a>
</g>
</g>
<!-- Node6 -->
<g id="Node000006" class="node">
<title>Node6</title>
<g id="a_Node000006"><a xlink:href="GaiaDesign_8hpp.html" target="_top" xlink:title=" ">
<polygon fill="white" stroke="#666666" points="162.38,-119.5 12.12,-119.5 12.12,-77.75 162.38,-77.75 162.38,-119.5"/>
<text text-anchor="start" x="20.12" y="-106" font-family="Helvetica,sans-Serif" font-size="10.00">/github/workspace/dev</text>
<text text-anchor="start" x="20.12" y="-94.75" font-family="Helvetica,sans-Serif" font-size="10.00">_area/sourcecode/timing</text>
<text text-anchor="middle" x="87.25" y="-83.5" font-family="Helvetica,sans-Serif" font-size="10.00">/include/timing/GaiaDesign.hpp</text>
</a>
</g>
</g>
<!-- Node1&#45;&gt;Node6 -->
<g id="edge5_Node000001_Node000006" class="edge">
<title>Node1&#45;&gt;Node6</title>
<g id="a_edge5_Node000001_Node000006"><a xlink:title=" ">
<path fill="none" stroke="#63b8ff" d="M363.81,-157.35C307.14,-146.9 235.11,-133.14 171.25,-119.5 168.47,-118.91 165.63,-118.29 162.77,-117.66"/>
<polygon fill="#63b8ff" stroke="#63b8ff" points="362.97,-160.75 373.44,-159.12 364.24,-153.87 362.97,-160.75"/>
</a>
</g>
</g>
<!-- Node8 -->
<g id="Node000008" class="node">
<title>Node8</title>
<g id="a_Node000008"><a xlink:href="KerberosDesign_8hpp.html" target="_top" xlink:title=" ">
<polygon fill="white" stroke="#666666" points="349.75,-119.5 180.75,-119.5 180.75,-77.75 349.75,-77.75 349.75,-119.5"/>
<text text-anchor="start" x="188.75" y="-106" font-family="Helvetica,sans-Serif" font-size="10.00">/github/workspace/dev</text>
<text text-anchor="start" x="188.75" y="-94.75" font-family="Helvetica,sans-Serif" font-size="10.00">_area/sourcecode/timing</text>
<text text-anchor="middle" x="265.25" y="-83.5" font-family="Helvetica,sans-Serif" font-size="10.00">/include/timing/KerberosDesign.hpp</text>
</a>
</g>
</g>
<!-- Node1&#45;&gt;Node8 -->
<g id="edge8_Node000001_Node000008" class="edge">
<title>Node1&#45;&gt;Node8</title>
<g id="a_edge8_Node000001_Node000008"><a xlink:title=" ">
<path fill="none" stroke="#63b8ff" d="M400.29,-151.03C373.97,-141.01 343.84,-129.54 318.73,-119.98"/>
<polygon fill="#63b8ff" stroke="#63b8ff" points="398.92,-154.25 409.51,-154.54 401.41,-147.71 398.92,-154.25"/>
</a>
</g>
</g>
<!-- Node10 -->
<g id="Node000010" class="node">
<title>Node10</title>
<g id="a_Node000010"><a xlink:href="OuroborosMuxDesign_8hpp.html" target="_top" xlink:title=" ">
<polygon fill="white" stroke="#666666" points="560.75,-119.5 367.75,-119.5 367.75,-77.75 560.75,-77.75 560.75,-119.5"/>
<text text-anchor="start" x="375.75" y="-106" font-family="Helvetica,sans-Serif" font-size="10.00">/github/workspace/dev</text>
<text text-anchor="start" x="375.75" y="-94.75" font-family="Helvetica,sans-Serif" font-size="10.00">_area/sourcecode/timing</text>
<text text-anchor="middle" x="464.25" y="-83.5" font-family="Helvetica,sans-Serif" font-size="10.00">/include/timing/OuroborosMuxDesign.hpp</text>
</a>
</g>
</g>
<!-- Node1&#45;&gt;Node10 -->
<g id="edge11_Node000001_Node000010" class="edge">
<title>Node1&#45;&gt;Node10</title>
<g id="a_edge11_Node000001_Node000010"><a xlink:title=" ">
<path fill="none" stroke="#63b8ff" d="M464.25,-143.75C464.25,-135.71 464.25,-127.29 464.25,-119.98"/>
<polygon fill="#63b8ff" stroke="#63b8ff" points="460.75,-143.56 464.25,-153.56 467.75,-143.56 460.75,-143.56"/>
</a>
</g>
</g>
<!-- Node12 -->
<g id="Node000012" class="node">
<title>Node12</title>
<g id="a_Node000012"><a xlink:href="MasterMuxDesign_8cpp.html" target="_top" xlink:title=" ">
<polygon fill="white" stroke="#666666" points="889,-119.5 757.5,-119.5 757.5,-77.75 889,-77.75 889,-119.5"/>
<text text-anchor="start" x="765.5" y="-106" font-family="Helvetica,sans-Serif" font-size="10.00">/github/workspace/dev</text>
<text text-anchor="start" x="765.5" y="-94.75" font-family="Helvetica,sans-Serif" font-size="10.00">_area/sourcecode/timing</text>
<text text-anchor="middle" x="823.25" y="-83.5" font-family="Helvetica,sans-Serif" font-size="10.00">/src/MasterMuxDesign.cpp</text>
</a>
</g>
</g>
<!-- Node1&#45;&gt;Node12 -->
<g id="edge14_Node000001_Node000012" class="edge">
<title>Node1&#45;&gt;Node12</title>
<g id="a_edge14_Node000001_Node000012"><a xlink:title=" ">
<path fill="none" stroke="#63b8ff" d="M564.53,-157.29C619.05,-147.04 687.55,-133.5 748.25,-119.5 751.14,-118.83 754.08,-118.14 757.05,-117.42"/>
<polygon fill="#63b8ff" stroke="#63b8ff" points="564.14,-153.8 554.95,-159.08 565.43,-160.68 564.14,-153.8"/>
</a>
</g>
</g>
<!-- Node3 -->
<g id="Node000003" class="node">
<title>Node3</title>
<g id="a_Node000003"><a xlink:href="top__designs_8cpp.html" target="_top" xlink:title=" ">
<polygon fill="white" stroke="#666666" points="415.12,-41.75 281.38,-41.75 281.38,0 415.12,0 415.12,-41.75"/>
<text text-anchor="start" x="289.38" y="-28.25" font-family="Helvetica,sans-Serif" font-size="10.00">/github/workspace/dev</text>
<text text-anchor="start" x="289.38" y="-17" font-family="Helvetica,sans-Serif" font-size="10.00">_area/sourcecode/timing</text>
<text text-anchor="middle" x="348.25" y="-5.75" font-family="Helvetica,sans-Serif" font-size="10.00">/pybindsrc/top_designs.cpp</text>
</a>
</g>
</g>
<!-- Node2&#45;&gt;Node3 -->
<g id="edge2_Node000002_Node000003" class="edge">
<title>Node2&#45;&gt;Node3</title>
<g id="a_edge2_Node000002_Node000003"><a xlink:title=" ">
<path fill="none" stroke="#63b8ff" d="M567.78,-76.38C524.25,-66.14 471.5,-53.55 424.25,-41.75 421.34,-41.02 418.37,-40.27 415.37,-39.51"/>
<polygon fill="#63b8ff" stroke="#63b8ff" points="566.92,-79.77 577.45,-78.65 568.52,-72.96 566.92,-79.77"/>
</a>
</g>
</g>
<!-- Node4 -->
<g id="Node000004" class="node">
<title>Node4</title>
<g id="a_Node000004"><a xlink:href="FanoutDesign_8cpp.html" target="_top" xlink:title=" ">
<polygon fill="white" stroke="#666666" points="720.5,-41.75 598,-41.75 598,0 720.5,0 720.5,-41.75"/>
<text text-anchor="start" x="606" y="-28.25" font-family="Helvetica,sans-Serif" font-size="10.00">/github/workspace/dev</text>
<text text-anchor="start" x="606" y="-17" font-family="Helvetica,sans-Serif" font-size="10.00">_area/sourcecode/timing</text>
<text text-anchor="middle" x="659.25" y="-5.75" font-family="Helvetica,sans-Serif" font-size="10.00">/src/FanoutDesign.cpp</text>
</a>
</g>
</g>
<!-- Node2&#45;&gt;Node4 -->
<g id="edge3_Node000002_Node000004" class="edge">
<title>Node2&#45;&gt;Node4</title>
<g id="a_edge3_Node000002_Node000004"><a xlink:title=" ">
<path fill="none" stroke="#63b8ff" d="M659.25,-66C659.25,-57.96 659.25,-49.54 659.25,-42.23"/>
<polygon fill="#63b8ff" stroke="#63b8ff" points="655.75,-65.81 659.25,-75.81 662.75,-65.81 655.75,-65.81"/>
</a>
</g>
</g>
<!-- Node5 -->
<g id="Node000005" class="node">
<title>Node5</title>
<g id="a_Node000005"><a xlink:href="sourcecode_2timinglibs_2src_2TimingHardwareManager_8cpp.html" target="_top" xlink:title=" ">
<polygon fill="white" stroke="#666666" points="900.38,-41.75 738.12,-41.75 738.12,0 900.38,0 900.38,-41.75"/>
<text text-anchor="start" x="746.12" y="-28.25" font-family="Helvetica,sans-Serif" font-size="10.00">/github/workspace/dev</text>
<text text-anchor="start" x="746.12" y="-17" font-family="Helvetica,sans-Serif" font-size="10.00">_area/sourcecode/timinglibs</text>
<text text-anchor="middle" x="819.25" y="-5.75" font-family="Helvetica,sans-Serif" font-size="10.00">/src/TimingHardwareManager.cpp</text>
</a>
</g>
</g>
<!-- Node2&#45;&gt;Node5 -->
<g id="edge4_Node000002_Node000005" class="edge">
<title>Node2&#45;&gt;Node5</title>
<g id="a_edge4_Node000002_Node000005"><a xlink:title=" ">
<path fill="none" stroke="#63b8ff" d="M712.38,-72.47C733.13,-62.65 756.6,-51.54 776.25,-42.23"/>
<polygon fill="#63b8ff" stroke="#63b8ff" points="711.04,-69.24 703.5,-76.68 714.03,-75.56 711.04,-69.24"/>
</a>
</g>
</g>
<!-- Node6&#45;&gt;Node3 -->
<g id="edge6_Node000006_Node000003" class="edge">
<title>Node6&#45;&gt;Node3</title>
<g id="a_edge6_Node000006_Node000003"><a xlink:title=" ">
<path fill="none" stroke="#63b8ff" d="M168.25,-74.12C204.53,-63.59 246.81,-51.32 281.27,-41.32"/>
<polygon fill="#63b8ff" stroke="#63b8ff" points="167.27,-70.75 158.65,-76.9 169.23,-77.48 167.27,-70.75"/>
</a>
</g>
</g>
<!-- Node7 -->
<g id="Node000007" class="node">
<title>Node7</title>
<g id="a_Node000007"><a xlink:href="GaiaDesign_8cpp.html" target="_top" xlink:title=" ">
<polygon fill="white" stroke="#666666" points="122.5,-41.75 0,-41.75 0,0 122.5,0 122.5,-41.75"/>
<text text-anchor="start" x="8" y="-28.25" font-family="Helvetica,sans-Serif" font-size="10.00">/github/workspace/dev</text>
<text text-anchor="start" x="8" y="-17" font-family="Helvetica,sans-Serif" font-size="10.00">_area/sourcecode/timing</text>
<text text-anchor="middle" x="61.25" y="-5.75" font-family="Helvetica,sans-Serif" font-size="10.00">/src/GaiaDesign.cpp</text>
</a>
</g>
</g>
<!-- Node6&#45;&gt;Node7 -->
<g id="edge7_Node000006_Node000007" class="edge">
<title>Node6&#45;&gt;Node7</title>
<g id="a_edge7_Node000006_Node000007"><a xlink:title=" ">
<path fill="none" stroke="#63b8ff" d="M76.59,-66.56C73.77,-58.36 70.8,-49.71 68.24,-42.23"/>
<polygon fill="#63b8ff" stroke="#63b8ff" points="73.23,-67.57 79.79,-75.89 79.86,-65.3 73.23,-67.57"/>
</a>
</g>
</g>
<!-- Node8&#45;&gt;Node3 -->
<g id="edge9_Node000008_Node000003" class="edge">
<title>Node8&#45;&gt;Node3</title>
<g id="a_edge9_Node000008_Node000003"><a xlink:title=" ">
<path fill="none" stroke="#63b8ff" d="M295.94,-69.61C305.89,-60.53 316.73,-50.64 325.95,-42.23"/>
<polygon fill="#63b8ff" stroke="#63b8ff" points="293.64,-66.98 288.61,-76.31 298.36,-72.15 293.64,-66.98"/>
</a>
</g>
</g>
<!-- Node9 -->
<g id="Node000009" class="node">
<title>Node9</title>
<g id="a_Node000009"><a xlink:href="KerberosDesign_8cpp.html" target="_top" xlink:title=" ">
<polygon fill="white" stroke="#666666" points="263.5,-41.75 141,-41.75 141,0 263.5,0 263.5,-41.75"/>
<text text-anchor="start" x="149" y="-28.25" font-family="Helvetica,sans-Serif" font-size="10.00">/github/workspace/dev</text>
<text text-anchor="start" x="149" y="-17" font-family="Helvetica,sans-Serif" font-size="10.00">_area/sourcecode/timing</text>
<text text-anchor="middle" x="202.25" y="-5.75" font-family="Helvetica,sans-Serif" font-size="10.00">/src/KerberosDesign.cpp</text>
</a>
</g>
</g>
<!-- Node8&#45;&gt;Node9 -->
<g id="edge10_Node000008_Node000009" class="edge">
<title>Node8&#45;&gt;Node9</title>
<g id="a_edge10_Node000008_Node000009"><a xlink:title=" ">
<path fill="none" stroke="#63b8ff" d="M241.04,-68.51C233.74,-59.74 225.89,-50.3 219.18,-42.23"/>
<polygon fill="#63b8ff" stroke="#63b8ff" points="238.31,-70.71 247.4,-76.16 243.7,-66.24 238.31,-70.71"/>
</a>
</g>
</g>
<!-- Node10&#45;&gt;Node3 -->
<g id="edge12_Node000010_Node000003" class="edge">
<title>Node10&#45;&gt;Node3</title>
<g id="a_edge12_Node000010_Node000003"><a xlink:title=" ">
<path fill="none" stroke="#63b8ff" d="M423.87,-71.26C409.3,-61.74 393.09,-51.15 379.42,-42.23"/>
<polygon fill="#63b8ff" stroke="#63b8ff" points="421.61,-73.96 431.9,-76.5 425.44,-68.1 421.61,-73.96"/>
</a>
</g>
</g>
<!-- Node11 -->
<g id="Node000011" class="node">
<title>Node11</title>
<g id="a_Node000011"><a xlink:href="OuroborosMuxDesign_8cpp.html" target="_top" xlink:title=" ">
<polygon fill="white" stroke="#666666" points="579.5,-41.75 433,-41.75 433,0 579.5,0 579.5,-41.75"/>
<text text-anchor="start" x="441" y="-28.25" font-family="Helvetica,sans-Serif" font-size="10.00">/github/workspace/dev</text>
<text text-anchor="start" x="441" y="-17" font-family="Helvetica,sans-Serif" font-size="10.00">_area/sourcecode/timing</text>
<text text-anchor="middle" x="506.25" y="-5.75" font-family="Helvetica,sans-Serif" font-size="10.00">/src/OuroborosMuxDesign.cpp</text>
</a>
</g>
</g>
<!-- Node10&#45;&gt;Node11 -->
<g id="edge13_Node000010_Node000011" class="edge">
<title>Node10&#45;&gt;Node11</title>
<g id="a_edge13_Node000010_Node000011"><a xlink:title=" ">
<path fill="none" stroke="#63b8ff" d="M481.01,-67.4C485.7,-58.95 490.68,-49.96 494.96,-42.23"/>
<polygon fill="#63b8ff" stroke="#63b8ff" points="478.03,-65.56 476.24,-76 484.15,-68.95 478.03,-65.56"/>
</a>
</g>
</g>
</g>
</svg>
