<?xml version="1.0" encoding="UTF-8" standalone="no"?>
<!DOCTYPE svg PUBLIC "-//W3C//DTD SVG 1.1//EN"
 "http://www.w3.org/Graphics/SVG/1.1/DTD/svg11.dtd">
<!-- Generated by graphviz version 9.0.0 (20230911.1827)
 -->
<!-- Title: /github/workspace/dev_area/sourcecode/opmonlib/include/opmonlib/OpmonService.hpp Pages: 1 -->
<svg width="290pt" height="205pt"
 viewBox="0.00 0.00 289.50 205.25" xmlns="http://www.w3.org/2000/svg" xmlns:xlink="http://www.w3.org/1999/xlink">
<g id="graph0" class="graph" transform="scale(1 1) rotate(0) translate(4 201.25)">
<title>/github/workspace/dev_area/sourcecode/opmonlib/include/opmonlib/OpmonService.hpp</title>
<!-- Node1 -->
<g id="Node000001" class="node">
<title>Node1</title>
<g id="a_Node000001"><a xlink:title=" ">
<polygon fill="#999999" stroke="#666666" points="246.5,-197.25 69.25,-197.25 69.25,-155.5 246.5,-155.5 246.5,-197.25"/>
<text text-anchor="start" x="77.25" y="-183.75" font-family="Helvetica,sans-Serif" font-size="10.00">/github/workspace/dev</text>
<text text-anchor="start" x="77.25" y="-172.5" font-family="Helvetica,sans-Serif" font-size="10.00">_area/sourcecode/opmonlib</text>
<text text-anchor="middle" x="157.88" y="-161.25" font-family="Helvetica,sans-Serif" font-size="10.00">/include/opmonlib/OpmonService.hpp</text>
</a>
</g>
</g>
<!-- Node2 -->
<g id="Node000002" class="node">
<title>Node2</title>
<g id="a_Node000002"><a xlink:href="InfoManager_8hpp.html" target="_top" xlink:title=" ">
<polygon fill="white" stroke="#666666" points="186.25,-119.5 19.5,-119.5 19.5,-77.75 186.25,-77.75 186.25,-119.5"/>
<text text-anchor="start" x="27.5" y="-106" font-family="Helvetica,sans-Serif" font-size="10.00">/github/workspace/dev</text>
<text text-anchor="start" x="27.5" y="-94.75" font-family="Helvetica,sans-Serif" font-size="10.00">_area/sourcecode/opmonlib</text>
<text text-anchor="middle" x="102.88" y="-83.5" font-family="Helvetica,sans-Serif" font-size="10.00">/include/opmonlib/InfoManager.hpp</text>
</a>
</g>
</g>
<!-- Node1&#45;&gt;Node2 -->
<g id="edge1_Node000001_Node000002" class="edge">
<title>Node1&#45;&gt;Node2</title>
<g id="a_edge1_Node000001_Node000002"><a xlink:title=" ">
<path fill="none" stroke="#63b8ff" d="M136.53,-145.98C130.22,-137.29 123.45,-127.97 117.65,-119.98"/>
<polygon fill="#63b8ff" stroke="#63b8ff" points="133.54,-147.82 142.25,-153.85 139.2,-143.7 133.54,-147.82"/>
</a>
</g>
</g>
<!-- Node4 -->
<g id="Node000004" class="node">
<title>Node4</title>
<g id="a_Node000004"><a xlink:href="InfoManager_8cpp.html" target="_top" xlink:title=" ">
<polygon fill="white" stroke="#666666" points="281.5,-41.75 146.25,-41.75 146.25,0 281.5,0 281.5,-41.75"/>
<text text-anchor="start" x="154.25" y="-28.25" font-family="Helvetica,sans-Serif" font-size="10.00">/github/workspace/dev</text>
<text text-anchor="start" x="154.25" y="-17" font-family="Helvetica,sans-Serif" font-size="10.00">_area/sourcecode/opmonlib</text>
<text text-anchor="middle" x="213.88" y="-5.75" font-family="Helvetica,sans-Serif" font-size="10.00">/src/InfoManager.cpp</text>
</a>
</g>
</g>
<!-- Node1&#45;&gt;Node4 -->
<g id="edge4_Node000001_Node000004" class="edge">
<title>Node1&#45;&gt;Node4</title>
<g id="a_edge4_Node000001_Node000004"><a xlink:title=" ">
<path fill="none" stroke="#63b8ff" d="M180.55,-145.82C185.93,-137.65 191.18,-128.53 194.88,-119.5 205.34,-93.93 210.15,-62.19 212.28,-41.98"/>
<polygon fill="#63b8ff" stroke="#63b8ff" points="177.69,-143.79 174.87,-154 183.44,-147.78 177.69,-143.79"/>
</a>
</g>
</g>
<!-- Node3 -->
<g id="Node000003" class="node">
<title>Node3</title>
<g id="a_Node000003"><a xlink:href="sourcecode_2appfwk_2src_2Application_8hpp.html" target="_top" xlink:title=" ">
<polygon fill="white" stroke="#666666" points="127.75,-41.75 0,-41.75 0,0 127.75,0 127.75,-41.75"/>
<text text-anchor="start" x="8" y="-28.25" font-family="Helvetica,sans-Serif" font-size="10.00">/github/workspace/dev</text>
<text text-anchor="start" x="8" y="-17" font-family="Helvetica,sans-Serif" font-size="10.00">_area/sourcecode/appfwk</text>
<text text-anchor="middle" x="63.88" y="-5.75" font-family="Helvetica,sans-Serif" font-size="10.00">/src/Application.hpp</text>
</a>
</g>
</g>
<!-- Node2&#45;&gt;Node3 -->
<g id="edge2_Node000002_Node000003" class="edge">
<title>Node2&#45;&gt;Node3</title>
<g id="a_edge2_Node000002_Node000003"><a xlink:title=" ">
<path fill="none" stroke="#63b8ff" d="M87.17,-67.12C82.86,-58.75 78.29,-49.88 74.36,-42.23"/>
<polygon fill="#63b8ff" stroke="#63b8ff" points="84.04,-68.69 91.73,-75.98 90.27,-65.49 84.04,-68.69"/>
</a>
</g>
</g>
<!-- Node2&#45;&gt;Node4 -->
<g id="edge3_Node000002_Node000004" class="edge">
<title>Node2&#45;&gt;Node4</title>
<g id="a_edge3_Node000002_Node000004"><a xlink:title=" ">
<path fill="none" stroke="#63b8ff" d="M141.91,-70.98C155.76,-61.54 171.1,-51.07 184.05,-42.23"/>
<polygon fill="#63b8ff" stroke="#63b8ff" points="140.16,-67.94 133.87,-76.47 144.1,-73.73 140.16,-67.94"/>
</a>
</g>
</g>
</g>
</svg>
