<?xml version="1.0" encoding="UTF-8" standalone="no"?>
<!DOCTYPE svg PUBLIC "-//W3C//DTD SVG 1.1//EN"
 "http://www.w3.org/Graphics/SVG/1.1/DTD/svg11.dtd">
<!-- Generated by graphviz version 9.0.0 (20230911.1827)
 -->
<!-- Title: /github/workspace/dev_area/sourcecode/timing/include/timing/PDIEchoMonitorNode.hpp Pages: 1 -->
<svg width="1660pt" height="470pt"
 viewBox="0.00 0.00 1660.09 470.25" xmlns="http://www.w3.org/2000/svg" xmlns:xlink="http://www.w3.org/1999/xlink">
<g id="graph0" class="graph" transform="scale(1 1) rotate(0) translate(4 466.25)">
<title>/github/workspace/dev_area/sourcecode/timing/include/timing/PDIEchoMonitorNode.hpp</title>
<!-- Node1 -->
<g id="Node000001" class="node">
<title>Node1</title>
<g id="a_Node000001"><a xlink:title=" ">
<polygon fill="#999999" stroke="#666666" points="486.75,-462.25 334.25,-462.25 334.25,-409.25 486.75,-409.25 486.75,-462.25"/>
<text text-anchor="start" x="342.25" y="-448.75" font-family="Helvetica,sans-Serif" font-size="10.00">/github/workspace/dev</text>
<text text-anchor="start" x="342.25" y="-437.5" font-family="Helvetica,sans-Serif" font-size="10.00">_area/sourcecode/timing</text>
<text text-anchor="start" x="342.25" y="-426.25" font-family="Helvetica,sans-Serif" font-size="10.00">/include/timing/PDIEchoMonitor</text>
<text text-anchor="middle" x="410.5" y="-415" font-family="Helvetica,sans-Serif" font-size="10.00">Node.hpp</text>
</a>
</g>
</g>
<!-- Node2 -->
<g id="Node000002" class="node">
<title>Node2</title>
<g id="a_Node000002"><a xlink:href="EchoMonitorNode_8hpp.html" target="_top" xlink:title=" ">
<polygon fill="white" stroke="#666666" points="480.75,-373.25 340.25,-373.25 340.25,-354 480.75,-354 480.75,-373.25"/>
<text text-anchor="middle" x="410.5" y="-359.75" font-family="Helvetica,sans-Serif" font-size="10.00">timing/EchoMonitorNode.hpp</text>
</a>
</g>
</g>
<!-- Node1&#45;&gt;Node2 -->
<g id="edge1_Node000001_Node000002" class="edge">
<title>Node1&#45;&gt;Node2</title>
<g id="a_edge1_Node000001_Node000002"><a xlink:title=" ">
<path fill="none" stroke="#63b8ff" d="M410.5,-409.04C410.5,-401.12 410.5,-392.52 410.5,-385.02"/>
<polygon fill="#63b8ff" stroke="#63b8ff" points="414,-385.25 410.5,-375.25 407,-385.25 414,-385.25"/>
</a>
</g>
</g>
<!-- Node4 -->
<g id="Node000004" class="node">
<title>Node4</title>
<g id="a_Node000004"><a xlink:title=" ">
<polygon fill="#e0e0e0" stroke="#999999" points="874.12,-262.75 762.88,-262.75 762.88,-243.5 874.12,-243.5 874.12,-262.75"/>
<text text-anchor="middle" x="818.5" y="-249.25" font-family="Helvetica,sans-Serif" font-size="10.00">uhal/DerivedNode.hpp</text>
</a>
</g>
</g>
<!-- Node1&#45;&gt;Node4 -->
<g id="edge52_Node000001_Node000004" class="edge">
<title>Node1&#45;&gt;Node4</title>
<g id="a_edge52_Node000001_Node000004"><a xlink:title=" ">
<path fill="none" stroke="#63b8ff" d="M468.96,-408.87C556.83,-369.97 719.88,-297.79 787.68,-267.77"/>
<polygon fill="#63b8ff" stroke="#63b8ff" points="788.98,-271.02 796.71,-263.77 786.15,-264.62 788.98,-271.02"/>
</a>
</g>
</g>
<!-- Node9 -->
<g id="Node000009" class="node">
<title>Node9</title>
<g id="a_Node000009"><a xlink:title=" ">
<polygon fill="#e0e0e0" stroke="#999999" points="453.5,-74.5 413.5,-74.5 413.5,-55.25 453.5,-55.25 453.5,-74.5"/>
<text text-anchor="middle" x="433.5" y="-61" font-family="Helvetica,sans-Serif" font-size="10.00">string</text>
</a>
</g>
</g>
<!-- Node1&#45;&gt;Node9 -->
<g id="edge53_Node000001_Node000009" class="edge">
<title>Node1&#45;&gt;Node9</title>
<g id="a_edge53_Node000001_Node000009"><a xlink:title=" ">
<path fill="none" stroke="#63b8ff" d="M374.89,-408.99C360.94,-398.41 345.06,-385.72 331.5,-373.25 262.28,-309.61 232.15,-268.8 252.5,-177 259.56,-145.16 258.81,-131.8 283.5,-110.5 301.3,-95.14 363.61,-80.15 402.1,-72.05"/>
<polygon fill="#63b8ff" stroke="#63b8ff" points="402.63,-75.52 411.72,-70.07 401.22,-68.66 402.63,-75.52"/>
</a>
</g>
</g>
<!-- Node3 -->
<g id="Node000003" class="node">
<title>Node3</title>
<g id="a_Node000003"><a xlink:href="TimingNode_8hpp.html" target="_top" xlink:title=" ">
<polygon fill="white" stroke="#666666" points="468.38,-318 352.62,-318 352.62,-298.75 468.38,-298.75 468.38,-318"/>
<text text-anchor="middle" x="410.5" y="-304.5" font-family="Helvetica,sans-Serif" font-size="10.00">timing/TimingNode.hpp</text>
</a>
</g>
</g>
<!-- Node2&#45;&gt;Node3 -->
<g id="edge2_Node000002_Node000003" class="edge">
<title>Node2&#45;&gt;Node3</title>
<g id="a_edge2_Node000002_Node000003"><a xlink:title=" ">
<path fill="none" stroke="#63b8ff" d="M410.5,-353.83C410.5,-347.32 410.5,-338.17 410.5,-329.87"/>
<polygon fill="#63b8ff" stroke="#63b8ff" points="414,-329.87 410.5,-319.87 407,-329.87 414,-329.87"/>
</a>
</g>
</g>
<!-- Node2&#45;&gt;Node4 -->
<g id="edge50_Node000002_Node000004" class="edge">
<title>Node2&#45;&gt;Node4</title>
<g id="a_edge50_Node000002_Node000004"><a xlink:title=" ">
<path fill="none" stroke="#63b8ff" d="M444.58,-353.56C517.93,-334.05 690.77,-288.09 773.21,-266.17"/>
<polygon fill="#63b8ff" stroke="#63b8ff" points="774,-269.58 782.76,-263.63 772.2,-262.82 774,-269.58"/>
</a>
</g>
</g>
<!-- Node2&#45;&gt;Node9 -->
<g id="edge51_Node000002_Node000009" class="edge">
<title>Node2&#45;&gt;Node9</title>
<g id="a_edge51_Node000002_Node000009"><a xlink:title=" ">
<path fill="none" stroke="#63b8ff" d="M377.1,-353.6C334.56,-339.84 266.5,-309.22 266.5,-254.12 266.5,-254.12 266.5,-254.12 266.5,-191.25 266.5,-124.12 353.86,-88.51 402.21,-73.94"/>
<polygon fill="#63b8ff" stroke="#63b8ff" points="402.92,-77.38 411.57,-71.26 400.99,-70.65 402.92,-77.38"/>
</a>
</g>
</g>
<!-- Node3&#45;&gt;Node4 -->
<g id="edge3_Node000003_Node000004" class="edge">
<title>Node3&#45;&gt;Node4</title>
<g id="a_edge3_Node000003_Node000004"><a xlink:title=" ">
<path fill="none" stroke="#63b8ff" d="M468.77,-299.84C534.68,-291.31 645.57,-276.92 751.28,-263.04"/>
<polygon fill="#63b8ff" stroke="#63b8ff" points="751.52,-266.54 760.98,-261.76 750.61,-259.6 751.52,-266.54"/>
</a>
</g>
</g>
<!-- Node5 -->
<g id="Node000005" class="node">
<title>Node5</title>
<g id="a_Node000005"><a xlink:href="InfoCollector_8hpp.html" target="_top" xlink:title=" ">
<polygon fill="white" stroke="#666666" points="200.88,-135.38 70.12,-135.38 70.12,-116.12 200.88,-116.12 200.88,-135.38"/>
<text text-anchor="middle" x="135.5" y="-121.88" font-family="Helvetica,sans-Serif" font-size="10.00">opmonlib/InfoCollector.hpp</text>
</a>
</g>
</g>
<!-- Node3&#45;&gt;Node5 -->
<g id="edge4_Node000003_Node000005" class="edge">
<title>Node3&#45;&gt;Node5</title>
<g id="a_edge4_Node000003_Node000005"><a xlink:title=" ">
<path fill="none" stroke="#63b8ff" d="M376.16,-298.25C351.32,-290.8 317.51,-278.87 290.5,-262.75 233.33,-228.63 177.42,-172.31 151.11,-144.05"/>
<polygon fill="#63b8ff" stroke="#63b8ff" points="153.73,-141.73 144.39,-136.73 148.58,-146.46 153.73,-141.73"/>
</a>
</g>
</g>
<!-- Node3&#45;&gt;Node9 -->
<g id="edge48_Node000003_Node000009" class="edge">
<title>Node3&#45;&gt;Node9</title>
<g id="a_edge48_Node000003_Node000009"><a xlink:title=" ">
<path fill="none" stroke="#63b8ff" d="M373.71,-298.34C355.23,-291.74 334.47,-280.71 323.5,-262.75 319.04,-255.45 322.43,-251.99 323.5,-243.5 331.12,-182.97 320.82,-159.25 357.5,-110.5 368.94,-95.3 387.19,-84.34 402.94,-77.09"/>
<polygon fill="#63b8ff" stroke="#63b8ff" points="404.11,-80.39 411.93,-73.24 401.36,-73.95 404.11,-80.39"/>
</a>
</g>
</g>
<!-- Node11 -->
<g id="Node000011" class="node">
<title>Node11</title>
<g id="a_Node000011"><a xlink:href="Issue_8hpp.html" target="_top" xlink:title=" ">
<polygon fill="white" stroke="#666666" points="744.75,-262.75 670.25,-262.75 670.25,-243.5 744.75,-243.5 744.75,-262.75"/>
<text text-anchor="middle" x="707.5" y="-249.25" font-family="Helvetica,sans-Serif" font-size="10.00">ers/Issue.hpp</text>
</a>
</g>
</g>
<!-- Node3&#45;&gt;Node11 -->
<g id="edge10_Node000003_Node000011" class="edge">
<title>Node3&#45;&gt;Node11</title>
<g id="a_edge10_Node000003_Node000011"><a xlink:title=" ">
<path fill="none" stroke="#63b8ff" d="M461.22,-298.28C516.59,-288.35 604.62,-272.57 659.07,-262.81"/>
<polygon fill="#63b8ff" stroke="#63b8ff" points="659.44,-266.3 668.67,-261.09 658.21,-259.41 659.44,-266.3"/>
</a>
</g>
</g>
<!-- Node15 -->
<g id="Node000015" class="node">
<title>Node15</title>
<g id="a_Node000015"><a xlink:title=" ">
<polygon fill="#e0e0e0" stroke="#999999" points="400.88,-135.38 366.12,-135.38 366.12,-116.12 400.88,-116.12 400.88,-135.38"/>
<text text-anchor="middle" x="383.5" y="-121.88" font-family="Helvetica,sans-Serif" font-size="10.00">map</text>
</a>
</g>
</g>
<!-- Node3&#45;&gt;Node15 -->
<g id="edge47_Node000003_Node000015" class="edge">
<title>Node3&#45;&gt;Node15</title>
<g id="a_edge47_Node000003_Node000015"><a xlink:title=" ">
<path fill="none" stroke="#63b8ff" d="M408.77,-298.37C406.12,-285.69 400.42,-262.06 391.5,-243.5 383.06,-225.94 372.32,-226.09 366.5,-207.5 360.03,-186.84 367.12,-162.43 374.02,-145.9"/>
<polygon fill="#63b8ff" stroke="#63b8ff" points="377.01,-147.79 377.97,-137.23 370.64,-144.88 377.01,-147.79"/>
</a>
</g>
</g>
<!-- Node18 -->
<g id="Node000018" class="node">
<title>Node18</title>
<g id="a_Node000018"><a xlink:title=" ">
<polygon fill="#e0e0e0" stroke="#999999" points="464.12,-135.38 418.88,-135.38 418.88,-116.12 464.12,-116.12 464.12,-135.38"/>
<text text-anchor="middle" x="441.5" y="-121.88" font-family="Helvetica,sans-Serif" font-size="10.00">chrono</text>
</a>
</g>
</g>
<!-- Node3&#45;&gt;Node18 -->
<g id="edge46_Node000003_Node000018" class="edge">
<title>Node3&#45;&gt;Node18</title>
<g id="a_edge46_Node000003_Node000018"><a xlink:title=" ">
<path fill="none" stroke="#63b8ff" d="M412,-298.66C416.7,-271.25 431.28,-186.27 438.02,-147.01"/>
<polygon fill="#63b8ff" stroke="#63b8ff" points="441.45,-147.74 439.69,-137.29 434.55,-146.56 441.45,-147.74"/>
</a>
</g>
</g>
<!-- Node35 -->
<g id="Node000035" class="node">
<title>Node35</title>
<g id="a_Node000035"><a xlink:title=" ">
<polygon fill="#e0e0e0" stroke="#999999" points="382.38,-262.75 332.62,-262.75 332.62,-243.5 382.38,-243.5 382.38,-262.75"/>
<text text-anchor="middle" x="357.5" y="-249.25" font-family="Helvetica,sans-Serif" font-size="10.00">typeinfo</text>
</a>
</g>
</g>
<!-- Node3&#45;&gt;Node35 -->
<g id="edge49_Node000003_Node000035" class="edge">
<title>Node3&#45;&gt;Node35</title>
<g id="a_edge49_Node000003_Node000035"><a xlink:title=" ">
<path fill="none" stroke="#63b8ff" d="M401.75,-298.58C394.35,-291.15 383.54,-280.29 374.45,-271.16"/>
<polygon fill="#63b8ff" stroke="#63b8ff" points="377.04,-268.8 367.51,-264.18 372.08,-273.74 377.04,-268.8"/>
</a>
</g>
</g>
<!-- Node6 -->
<g id="Node000006" class="node">
<title>Node6</title>
<g id="a_Node000006"><a xlink:title=" ">
<polygon fill="#e0e0e0" stroke="#999999" points="97,-74.5 0,-74.5 0,-55.25 97,-55.25 97,-74.5"/>
<text text-anchor="middle" x="48.5" y="-61" font-family="Helvetica,sans-Serif" font-size="10.00">nlohmann/json.hpp</text>
</a>
</g>
</g>
<!-- Node5&#45;&gt;Node6 -->
<g id="edge5_Node000005_Node000006" class="edge">
<title>Node5&#45;&gt;Node6</title>
<g id="a_edge5_Node000005_Node000006"><a xlink:title=" ">
<path fill="none" stroke="#63b8ff" d="M122.29,-115.81C108.75,-106.64 87.43,-92.22 71.18,-81.23"/>
<polygon fill="#63b8ff" stroke="#63b8ff" points="73.33,-78.46 63.09,-75.75 69.41,-84.25 73.33,-78.46"/>
</a>
</g>
</g>
<!-- Node7 -->
<g id="Node000007" class="node">
<title>Node7</title>
<g id="a_Node000007"><a xlink:title=" ">
<polygon fill="#e0e0e0" stroke="#999999" points="155.5,-74.5 115.5,-74.5 115.5,-55.25 155.5,-55.25 155.5,-74.5"/>
<text text-anchor="middle" x="135.5" y="-61" font-family="Helvetica,sans-Serif" font-size="10.00">ctime</text>
</a>
</g>
</g>
<!-- Node5&#45;&gt;Node7 -->
<g id="edge6_Node000005_Node000007" class="edge">
<title>Node5&#45;&gt;Node7</title>
<g id="a_edge6_Node000005_Node000007"><a xlink:title=" ">
<path fill="none" stroke="#63b8ff" d="M135.5,-115.81C135.5,-108.03 135.5,-96.45 135.5,-86.41"/>
<polygon fill="#63b8ff" stroke="#63b8ff" points="139,-86.41 135.5,-76.41 132,-86.41 139,-86.41"/>
</a>
</g>
</g>
<!-- Node8 -->
<g id="Node000008" class="node">
<title>Node8</title>
<g id="a_Node000008"><a xlink:title=" ">
<polygon fill="#e0e0e0" stroke="#999999" points="783.25,-19.25 729.75,-19.25 729.75,0 783.25,0 783.25,-19.25"/>
<text text-anchor="middle" x="756.5" y="-5.75" font-family="Helvetica,sans-Serif" font-size="10.00">iostream</text>
</a>
</g>
</g>
<!-- Node5&#45;&gt;Node8 -->
<g id="edge7_Node000005_Node000008" class="edge">
<title>Node5&#45;&gt;Node8</title>
<g id="a_edge7_Node000005_Node000008"><a xlink:title=" ">
<path fill="none" stroke="#63b8ff" d="M165.47,-115.67C214.86,-101.02 316.63,-72.1 404.5,-55.25 517.55,-33.57 653.12,-19.76 718.09,-13.89"/>
<polygon fill="#63b8ff" stroke="#63b8ff" points="718.22,-17.39 727.87,-13.02 717.6,-10.42 718.22,-17.39"/>
</a>
</g>
</g>
<!-- Node5&#45;&gt;Node9 -->
<g id="edge8_Node000005_Node000009" class="edge">
<title>Node5&#45;&gt;Node9</title>
<g id="a_edge8_Node000005_Node000009"><a xlink:title=" ">
<path fill="none" stroke="#63b8ff" d="M181.41,-115.68C242.58,-103.59 349.21,-82.53 402.02,-72.09"/>
<polygon fill="#63b8ff" stroke="#63b8ff" points="402.42,-75.58 411.55,-70.21 401.06,-68.72 402.42,-75.58"/>
</a>
</g>
</g>
<!-- Node10 -->
<g id="Node000010" class="node">
<title>Node10</title>
<g id="a_Node000010"><a xlink:href="JSONTags_8hpp.html" target="_top" xlink:title=" ">
<polygon fill="white" stroke="#666666" points="297.88,-74.5 173.12,-74.5 173.12,-55.25 297.88,-55.25 297.88,-74.5"/>
<text text-anchor="middle" x="235.5" y="-61" font-family="Helvetica,sans-Serif" font-size="10.00">opmonlib/JSONTags.hpp</text>
</a>
</g>
</g>
<!-- Node5&#45;&gt;Node10 -->
<g id="edge9_Node000005_Node000010" class="edge">
<title>Node5&#45;&gt;Node10</title>
<g id="a_edge9_Node000005_Node000010"><a xlink:title=" ">
<path fill="none" stroke="#63b8ff" d="M150.69,-115.81C166.55,-106.47 191.68,-91.67 210.48,-80.61"/>
<polygon fill="#63b8ff" stroke="#63b8ff" points="212.02,-83.76 218.86,-75.67 208.47,-77.73 212.02,-83.76"/>
</a>
</g>
</g>
<!-- Node11&#45;&gt;Node8 -->
<g id="edge16_Node000011_Node000008" class="edge">
<title>Node11&#45;&gt;Node8</title>
<g id="a_edge16_Node000011_Node000008"><a xlink:title=" ">
<path fill="none" stroke="#63b8ff" d="M745.1,-244.68C747.93,-244.24 750.76,-243.84 753.5,-243.5 1021.29,-210.57 1092.48,-246.19 1359.5,-207.5 1488.65,-188.79 1564.34,-243.2 1645.5,-141 1653.93,-130.38 1654.53,-120.61 1645.5,-110.5 1587.88,-46.04 957.87,-18.15 794.84,-11.98"/>
<polygon fill="#63b8ff" stroke="#63b8ff" points="795.13,-8.49 785,-11.62 794.87,-15.49 795.13,-8.49"/>
</a>
</g>
</g>
<!-- Node11&#45;&gt;Node9 -->
<g id="edge15_Node000011_Node000009" class="edge">
<title>Node11&#45;&gt;Node9</title>
<g id="a_edge15_Node000011_Node000009"><a xlink:title=" ">
<path fill="none" stroke="#63b8ff" d="M704.62,-243.04C699.17,-227.27 685.83,-194.82 663.5,-177 621.97,-143.86 596.02,-166.68 549.5,-141 531.14,-130.87 530.74,-122.44 513.5,-110.5 497.14,-99.17 477.66,-88.25 462.02,-80.05"/>
<polygon fill="#63b8ff" stroke="#63b8ff" points="463.73,-77 453.24,-75.53 460.53,-83.22 463.73,-77"/>
</a>
</g>
</g>
<!-- Node12 -->
<g id="Node000012" class="node">
<title>Node12</title>
<g id="a_Node000012"><a xlink:title=" ">
<polygon fill="#e0e0e0" stroke="#999999" points="492.12,-201.88 446.88,-201.88 446.88,-182.62 492.12,-182.62 492.12,-201.88"/>
<text text-anchor="middle" x="469.5" y="-188.38" font-family="Helvetica,sans-Serif" font-size="10.00">math.h</text>
</a>
</g>
</g>
<!-- Node11&#45;&gt;Node12 -->
<g id="edge11_Node000011_Node000012" class="edge">
<title>Node11&#45;&gt;Node12</title>
<g id="a_edge11_Node000011_Node000012"><a xlink:title=" ">
<path fill="none" stroke="#63b8ff" d="M670.03,-245.54C629.33,-237.99 562.62,-224.43 506.5,-207.5 504.93,-207.03 503.34,-206.52 501.74,-205.99"/>
<polygon fill="#63b8ff" stroke="#63b8ff" points="503.25,-202.81 492.65,-202.75 500.89,-209.4 503.25,-202.81"/>
</a>
</g>
</g>
<!-- Node13 -->
<g id="Node000013" class="node">
<title>Node13</title>
<g id="a_Node000013"><a xlink:title=" ">
<polygon fill="#e0e0e0" stroke="#999999" points="754.75,-201.88 710.25,-201.88 710.25,-182.62 754.75,-182.62 754.75,-201.88"/>
<text text-anchor="middle" x="732.5" y="-188.38" font-family="Helvetica,sans-Serif" font-size="10.00">stdio.h</text>
</a>
</g>
</g>
<!-- Node11&#45;&gt;Node13 -->
<g id="edge12_Node000011_Node000013" class="edge">
<title>Node11&#45;&gt;Node13</title>
<g id="a_edge12_Node000011_Node000013"><a xlink:title=" ">
<path fill="none" stroke="#63b8ff" d="M711.3,-243.18C714.71,-235.14 719.84,-223.05 724.21,-212.78"/>
<polygon fill="#63b8ff" stroke="#63b8ff" points="727.39,-214.24 728.08,-203.67 720.95,-211.51 727.39,-214.24"/>
</a>
</g>
</g>
<!-- Node14 -->
<g id="Node000014" class="node">
<title>Node14</title>
<g id="a_Node000014"><a xlink:title=" ">
<polygon fill="#e0e0e0" stroke="#999999" points="820.25,-201.88 772.75,-201.88 772.75,-182.62 820.25,-182.62 820.25,-201.88"/>
<text text-anchor="middle" x="796.5" y="-188.38" font-family="Helvetica,sans-Serif" font-size="10.00">string.h</text>
</a>
</g>
</g>
<!-- Node11&#45;&gt;Node14 -->
<g id="edge13_Node000011_Node000014" class="edge">
<title>Node11&#45;&gt;Node14</title>
<g id="a_edge13_Node000011_Node000014"><a xlink:title=" ">
<path fill="none" stroke="#63b8ff" d="M721.02,-243.18C734.87,-234.02 756.68,-219.59 773.3,-208.6"/>
<polygon fill="#63b8ff" stroke="#63b8ff" points="775.18,-211.55 781.59,-203.11 771.32,-205.71 775.18,-211.55"/>
</a>
</g>
</g>
<!-- Node11&#45;&gt;Node15 -->
<g id="edge14_Node000011_Node000015" class="edge">
<title>Node11&#45;&gt;Node15</title>
<g id="a_edge14_Node000011_Node000015"><a xlink:title=" ">
<path fill="none" stroke="#63b8ff" d="M669.97,-249.59C605.1,-244.62 475.34,-231.89 437.5,-207.5 414.84,-192.9 399.43,-165.05 391.04,-146.19"/>
<polygon fill="#63b8ff" stroke="#63b8ff" points="394.38,-145.1 387.31,-137.21 387.92,-147.79 394.38,-145.1"/>
</a>
</g>
</g>
<!-- Node16 -->
<g id="Node000016" class="node">
<title>Node16</title>
<g id="a_Node000016"><a xlink:title=" ">
<polygon fill="#e0e0e0" stroke="#999999" points="1235.12,-201.88 1183.88,-201.88 1183.88,-182.62 1235.12,-182.62 1235.12,-201.88"/>
<text text-anchor="middle" x="1209.5" y="-188.38" font-family="Helvetica,sans-Serif" font-size="10.00">sstream</text>
</a>
</g>
</g>
<!-- Node11&#45;&gt;Node16 -->
<g id="edge17_Node000011_Node000016" class="edge">
<title>Node11&#45;&gt;Node16</title>
<g id="a_edge17_Node000011_Node000016"><a xlink:title=" ">
<path fill="none" stroke="#63b8ff" d="M745.11,-244.76C747.94,-244.3 750.76,-243.87 753.5,-243.5 939.58,-218.16 991.91,-251.4 1174.5,-207.5 1176.13,-207.11 1177.79,-206.65 1179.45,-206.15"/>
<polygon fill="#63b8ff" stroke="#63b8ff" points="1180.55,-209.47 1188.8,-202.82 1178.2,-202.88 1180.55,-209.47"/>
</a>
</g>
</g>
<!-- Node17 -->
<g id="Node000017" class="node">
<title>Node17</title>
<g id="a_Node000017"><a xlink:title=" ">
<polygon fill="#e0e0e0" stroke="#999999" points="1303.75,-201.88 1253.25,-201.88 1253.25,-182.62 1303.75,-182.62 1303.75,-201.88"/>
<text text-anchor="middle" x="1278.5" y="-188.38" font-family="Helvetica,sans-Serif" font-size="10.00">memory</text>
</a>
</g>
</g>
<!-- Node11&#45;&gt;Node17 -->
<g id="edge18_Node000011_Node000017" class="edge">
<title>Node11&#45;&gt;Node17</title>
<g id="a_edge18_Node000011_Node000017"><a xlink:title=" ">
<path fill="none" stroke="#63b8ff" d="M745.1,-244.72C747.94,-244.27 750.76,-243.86 753.5,-243.5 970.48,-215.29 1031.71,-258.45 1244.5,-207.5 1246.09,-207.12 1247.71,-206.67 1249.33,-206.17"/>
<polygon fill="#63b8ff" stroke="#63b8ff" points="1250.18,-209.59 1258.38,-202.87 1247.79,-203.01 1250.18,-209.59"/>
</a>
</g>
</g>
<!-- Node11&#45;&gt;Node18 -->
<g id="edge19_Node000011_Node000018" class="edge">
<title>Node11&#45;&gt;Node18</title>
<g id="a_edge19_Node000011_Node000018"><a xlink:title=" ">
<path fill="none" stroke="#63b8ff" d="M669.79,-246.86C634.6,-240.87 581.38,-229.01 539.5,-207.5 537.28,-206.36 488.95,-166.25 461.01,-143"/>
<polygon fill="#63b8ff" stroke="#63b8ff" points="463.5,-140.52 453.57,-136.81 459.02,-145.9 463.5,-140.52"/>
</a>
</g>
</g>
<!-- Node19 -->
<g id="Node000019" class="node">
<title>Node19</title>
<g id="a_Node000019"><a xlink:title=" ">
<polygon fill="#e0e0e0" stroke="#999999" points="1350.9,-201.88 1322.1,-201.88 1322.1,-182.62 1350.9,-182.62 1350.9,-201.88"/>
<text text-anchor="middle" x="1336.5" y="-188.38" font-family="Helvetica,sans-Serif" font-size="10.00">list</text>
</a>
</g>
</g>
<!-- Node11&#45;&gt;Node19 -->
<g id="edge20_Node000011_Node000019" class="edge">
<title>Node11&#45;&gt;Node19</title>
<g id="a_edge20_Node000011_Node000019"><a xlink:title=" ">
<path fill="none" stroke="#63b8ff" d="M745.1,-244.69C747.93,-244.25 750.76,-243.84 753.5,-243.5 1000.52,-212.5 1074.66,-281.09 1312.5,-207.5 1312.86,-207.39 1313.23,-207.27 1313.59,-207.14"/>
<polygon fill="#63b8ff" stroke="#63b8ff" points="1314.93,-210.38 1322.46,-202.93 1311.92,-204.06 1314.93,-210.38"/>
</a>
</g>
</g>
<!-- Node20 -->
<g id="Node000020" class="node">
<title>Node20</title>
<g id="a_Node000020"><a xlink:href="IssueFactory_8hpp.html" target="_top" xlink:title=" ">
<polygon fill="white" stroke="#666666" points="654.88,-201.88 548.12,-201.88 548.12,-182.62 654.88,-182.62 654.88,-201.88"/>
<text text-anchor="middle" x="601.5" y="-188.38" font-family="Helvetica,sans-Serif" font-size="10.00">ers/IssueFactory.hpp</text>
</a>
</g>
</g>
<!-- Node11&#45;&gt;Node20 -->
<g id="edge21_Node000011_Node000020" class="edge">
<title>Node11&#45;&gt;Node20</title>
<g id="a_edge21_Node000011_Node000020"><a xlink:title=" ">
<path fill="none" stroke="#63b8ff" d="M691.4,-243.18C674.51,-233.8 647.7,-218.91 627.75,-207.83"/>
<polygon fill="#63b8ff" stroke="#63b8ff" points="629.52,-204.81 619.07,-203.01 626.12,-210.93 629.52,-204.81"/>
</a>
</g>
</g>
<!-- Node22 -->
<g id="Node000022" class="node">
<title>Node22</title>
<g id="a_Node000022"><a xlink:href="Severity_8hpp.html" target="_top" xlink:title=" ">
<polygon fill="white" stroke="#666666" points="644.38,-135.38 558.62,-135.38 558.62,-116.12 644.38,-116.12 644.38,-135.38"/>
<text text-anchor="middle" x="601.5" y="-121.88" font-family="Helvetica,sans-Serif" font-size="10.00">ers/Severity.hpp</text>
</a>
</g>
</g>
<!-- Node11&#45;&gt;Node22 -->
<g id="edge38_Node000011_Node000022" class="edge">
<title>Node11&#45;&gt;Node22</title>
<g id="a_edge38_Node000011_Node000022"><a xlink:title=" ">
<path fill="none" stroke="#63b8ff" d="M745.12,-243.38C777.15,-235.08 819.52,-221.78 829.5,-207.5 837.27,-196.39 837.99,-187.57 829.5,-177 818.6,-163.44 719.77,-145.47 655.85,-135.1"/>
<polygon fill="#63b8ff" stroke="#63b8ff" points="656.67,-131.68 646.24,-133.56 655.56,-138.6 656.67,-131.68"/>
</a>
</g>
</g>
<!-- Node23 -->
<g id="Node000023" class="node">
<title>Node23</title>
<g id="a_Node000023"><a xlink:href="LocalContext_8hpp.html" target="_top" xlink:title=" ">
<polygon fill="white" stroke="#666666" points="984.25,-201.88 876.75,-201.88 876.75,-182.62 984.25,-182.62 984.25,-201.88"/>
<text text-anchor="middle" x="930.5" y="-188.38" font-family="Helvetica,sans-Serif" font-size="10.00">ers/LocalContext.hpp</text>
</a>
</g>
</g>
<!-- Node11&#45;&gt;Node23 -->
<g id="edge30_Node000011_Node000023" class="edge">
<title>Node11&#45;&gt;Node23</title>
<g id="a_edge30_Node000011_Node000023"><a xlink:title=" ">
<path fill="none" stroke="#63b8ff" d="M741.86,-243.05C780.24,-232.92 842.55,-216.47 884.97,-205.27"/>
<polygon fill="#63b8ff" stroke="#63b8ff" points="885.87,-208.65 894.64,-202.72 884.08,-201.89 885.87,-208.65"/>
</a>
</g>
</g>
<!-- Node28 -->
<g id="Node000028" class="node">
<title>Node28</title>
<g id="a_Node000028"><a xlink:href="IssueDeclarationMacro_8hpp.html" target="_top" xlink:title=" ">
<polygon fill="white" stroke="#666666" points="1165.38,-207.5 1025.62,-207.5 1025.62,-177 1165.38,-177 1165.38,-207.5"/>
<text text-anchor="start" x="1033.62" y="-194" font-family="Helvetica,sans-Serif" font-size="10.00">ers/internal/IssueDeclaration</text>
<text text-anchor="middle" x="1095.5" y="-182.75" font-family="Helvetica,sans-Serif" font-size="10.00">Macro.hpp</text>
</a>
</g>
</g>
<!-- Node11&#45;&gt;Node28 -->
<g id="edge39_Node000011_Node000028" class="edge">
<title>Node11&#45;&gt;Node28</title>
<g id="a_edge39_Node000011_Node000028"><a xlink:title=" ">
<path fill="none" stroke="#63b8ff" d="M745.13,-244.94C747.96,-244.44 750.78,-243.96 753.5,-243.5 802.15,-235.37 929.32,-216.96 1014.12,-204.83"/>
<polygon fill="#63b8ff" stroke="#63b8ff" points="1014.37,-208.33 1023.77,-203.45 1013.38,-201.4 1014.37,-208.33"/>
</a>
</g>
</g>
<!-- Node20&#45;&gt;Node9 -->
<g id="edge23_Node000020_Node000009" class="edge">
<title>Node20&#45;&gt;Node9</title>
<g id="a_edge23_Node000020_Node000009"><a xlink:title=" ">
<path fill="none" stroke="#63b8ff" d="M583.92,-182.21C566.27,-172.83 538.59,-157.26 516.5,-141 491.94,-122.91 466.3,-98.77 450.13,-82.79"/>
<polygon fill="#63b8ff" stroke="#63b8ff" points="452.81,-80.52 443.26,-75.92 447.86,-85.46 452.81,-80.52"/>
</a>
</g>
</g>
<!-- Node20&#45;&gt;Node15 -->
<g id="edge25_Node000020_Node000015" class="edge">
<title>Node20&#45;&gt;Node15</title>
<g id="a_edge25_Node000020_Node000015"><a xlink:title=" ">
<path fill="none" stroke="#63b8ff" d="M553.91,-182.2C514.42,-173.89 457.2,-159.98 409.5,-141 409.27,-140.91 409.05,-140.82 408.82,-140.72"/>
<polygon fill="#63b8ff" stroke="#63b8ff" points="410.49,-137.65 399.96,-136.49 407.47,-143.96 410.49,-137.65"/>
</a>
</g>
</g>
<!-- Node20&#45;&gt;Node18 -->
<g id="edge22_Node000020_Node000018" class="edge">
<title>Node20&#45;&gt;Node18</title>
<g id="a_edge22_Node000020_Node000018"><a xlink:title=" ">
<path fill="none" stroke="#63b8ff" d="M578.92,-182.15C551.64,-171.15 505.54,-152.56 474.33,-139.99"/>
<polygon fill="#63b8ff" stroke="#63b8ff" points="475.96,-136.87 465.37,-136.37 473.34,-143.36 475.96,-136.87"/>
</a>
</g>
</g>
<!-- Node21 -->
<g id="Node000021" class="node">
<title>Node21</title>
<g id="a_Node000021"><a xlink:title=" ">
<polygon fill="#e0e0e0" stroke="#999999" points="694,-74.5 651,-74.5 651,-55.25 694,-55.25 694,-74.5"/>
<text text-anchor="middle" x="672.5" y="-61" font-family="Helvetica,sans-Serif" font-size="10.00">vector</text>
</a>
</g>
</g>
<!-- Node20&#45;&gt;Node21 -->
<g id="edge24_Node000020_Node000021" class="edge">
<title>Node20&#45;&gt;Node21</title>
<g id="a_edge24_Node000020_Node000021"><a xlink:title=" ">
<path fill="none" stroke="#63b8ff" d="M614.16,-182.34C626.08,-173.28 643.56,-158.16 653.5,-141 663.4,-123.92 668.19,-101.73 670.48,-85.9"/>
<polygon fill="#63b8ff" stroke="#63b8ff" points="673.92,-86.65 671.65,-76.3 666.97,-85.81 673.92,-86.65"/>
</a>
</g>
</g>
<!-- Node20&#45;&gt;Node22 -->
<g id="edge26_Node000020_Node000022" class="edge">
<title>Node20&#45;&gt;Node22</title>
<g id="a_edge26_Node000020_Node000022"><a xlink:title=" ">
<path fill="none" stroke="#63b8ff" d="M601.5,-182.28C601.5,-173.23 601.5,-158.95 601.5,-147.13"/>
<polygon fill="#63b8ff" stroke="#63b8ff" points="605,-147.16 601.5,-137.16 598,-147.16 605,-147.16"/>
</a>
</g>
</g>
<!-- Node22&#45;&gt;Node8 -->
<g id="edge29_Node000022_Node000008" class="edge">
<title>Node22&#45;&gt;Node8</title>
<g id="a_edge29_Node000022_Node000008"><a xlink:title=" ">
<path fill="none" stroke="#63b8ff" d="M604.43,-115.79C609.64,-101.16 621.85,-72.12 641.5,-55.25 663.52,-36.34 694.46,-24.95 718.7,-18.41"/>
<polygon fill="#63b8ff" stroke="#63b8ff" points="719.34,-21.86 728.18,-16.03 717.63,-15.07 719.34,-21.86"/>
</a>
</g>
</g>
<!-- Node22&#45;&gt;Node9 -->
<g id="edge27_Node000022_Node000009" class="edge">
<title>Node22&#45;&gt;Node9</title>
<g id="a_edge27_Node000022_Node000009"><a xlink:title=" ">
<path fill="none" stroke="#63b8ff" d="M575.62,-115.68C545.65,-105.18 496.32,-87.89 464.38,-76.7"/>
<polygon fill="#63b8ff" stroke="#63b8ff" points="465.88,-73.52 455.29,-73.51 463.57,-80.12 465.88,-73.52"/>
</a>
</g>
</g>
<!-- Node22&#45;&gt;Node21 -->
<g id="edge28_Node000022_Node000021" class="edge">
<title>Node22&#45;&gt;Node21</title>
<g id="a_edge28_Node000022_Node000021"><a xlink:title=" ">
<path fill="none" stroke="#63b8ff" d="M612.28,-115.81C623.02,-106.9 639.75,-93.03 652.85,-82.17"/>
<polygon fill="#63b8ff" stroke="#63b8ff" points="654.99,-84.94 660.45,-75.87 650.52,-79.56 654.99,-84.94"/>
</a>
</g>
</g>
<!-- Node24 -->
<g id="Node000024" class="node">
<title>Node24</title>
<g id="a_Node000024"><a xlink:title=" ">
<polygon fill="#e0e0e0" stroke="#999999" points="832.88,-135.38 768.12,-135.38 768.12,-116.12 832.88,-116.12 832.88,-135.38"/>
<text text-anchor="middle" x="800.5" y="-121.88" font-family="Helvetica,sans-Serif" font-size="10.00">sys/types.h</text>
</a>
</g>
</g>
<!-- Node23&#45;&gt;Node24 -->
<g id="edge31_Node000023_Node000024" class="edge">
<title>Node23&#45;&gt;Node24</title>
<g id="a_edge31_Node000023_Node000024"><a xlink:title=" ">
<path fill="none" stroke="#63b8ff" d="M912.15,-182.15C890.47,-171.39 854.16,-153.37 828.85,-140.82"/>
<polygon fill="#63b8ff" stroke="#63b8ff" points="830.63,-137.79 820.11,-136.48 827.51,-144.06 830.63,-137.79"/>
</a>
</g>
</g>
<!-- Node25 -->
<g id="Node000025" class="node">
<title>Node25</title>
<g id="a_Node000025"><a xlink:title=" ">
<polygon fill="#e0e0e0" stroke="#999999" points="750.38,-135.38 700.62,-135.38 700.62,-116.12 750.38,-116.12 750.38,-135.38"/>
<text text-anchor="middle" x="725.5" y="-121.88" font-family="Helvetica,sans-Serif" font-size="10.00">unistd.h</text>
</a>
</g>
</g>
<!-- Node23&#45;&gt;Node25 -->
<g id="edge32_Node000023_Node000025" class="edge">
<title>Node23&#45;&gt;Node25</title>
<g id="a_edge32_Node000023_Node000025"><a xlink:title=" ">
<path fill="none" stroke="#63b8ff" d="M895.42,-182.17C860.6,-172.87 805.86,-157.47 759.5,-141 758.55,-140.66 757.59,-140.31 756.62,-139.95"/>
<polygon fill="#63b8ff" stroke="#63b8ff" points="758.21,-136.82 747.62,-136.42 755.65,-143.33 758.21,-136.82"/>
</a>
</g>
</g>
<!-- Node26 -->
<g id="Node000026" class="node">
<title>Node26</title>
<g id="a_Node000026"><a xlink:href="Context_8hpp.html" target="_top" xlink:title=" ">
<polygon fill="white" stroke="#666666" points="934.25,-135.38 850.75,-135.38 850.75,-116.12 934.25,-116.12 934.25,-135.38"/>
<text text-anchor="middle" x="892.5" y="-121.88" font-family="Helvetica,sans-Serif" font-size="10.00">ers/Context.hpp</text>
</a>
</g>
</g>
<!-- Node23&#45;&gt;Node26 -->
<g id="edge33_Node000023_Node000026" class="edge">
<title>Node23&#45;&gt;Node26</title>
<g id="a_edge33_Node000023_Node000026"><a xlink:title=" ">
<path fill="none" stroke="#63b8ff" d="M925.22,-182.28C919.6,-172.75 910.56,-157.41 903.41,-145.27"/>
<polygon fill="#63b8ff" stroke="#63b8ff" points="906.6,-143.79 898.51,-136.95 900.57,-147.34 906.6,-143.79"/>
</a>
</g>
</g>
<!-- Node26&#45;&gt;Node9 -->
<g id="edge34_Node000026_Node000009" class="edge">
<title>Node26&#45;&gt;Node9</title>
<g id="a_edge34_Node000026_Node000009"><a xlink:title=" ">
<path fill="none" stroke="#63b8ff" d="M863.03,-115.63C856.03,-113.71 848.54,-111.86 841.5,-110.5 702.57,-83.68 533.68,-71.62 464.9,-67.56"/>
<polygon fill="#63b8ff" stroke="#63b8ff" points="465.32,-64.07 455.14,-67 464.92,-71.06 465.32,-64.07"/>
</a>
</g>
</g>
<!-- Node26&#45;&gt;Node21 -->
<g id="edge35_Node000026_Node000021" class="edge">
<title>Node26&#45;&gt;Node21</title>
<g id="a_edge35_Node000026_Node000021"><a xlink:title=" ">
<path fill="none" stroke="#63b8ff" d="M860.14,-115.63C853.96,-113.91 847.53,-112.14 841.5,-110.5 794.14,-97.63 739.18,-83.21 705.11,-74.34"/>
<polygon fill="#63b8ff" stroke="#63b8ff" points="706.43,-71.06 695.87,-71.93 704.66,-77.84 706.43,-71.06"/>
</a>
</g>
</g>
<!-- Node27 -->
<g id="Node000027" class="node">
<title>Node27</title>
<g id="a_Node000027"><a xlink:href="ers_2include_2ers_2Configuration_8hpp.html" target="_top" xlink:title=" ">
<polygon fill="white" stroke="#666666" points="882.88,-74.5 776.12,-74.5 776.12,-55.25 882.88,-55.25 882.88,-74.5"/>
<text text-anchor="middle" x="829.5" y="-61" font-family="Helvetica,sans-Serif" font-size="10.00">ers/Configuration.hpp</text>
</a>
</g>
</g>
<!-- Node26&#45;&gt;Node27 -->
<g id="edge36_Node000026_Node000027" class="edge">
<title>Node26&#45;&gt;Node27</title>
<g id="a_edge36_Node000026_Node000027"><a xlink:title=" ">
<path fill="none" stroke="#63b8ff" d="M882.93,-115.81C873.5,-106.99 858.85,-93.3 847.27,-82.48"/>
<polygon fill="#63b8ff" stroke="#63b8ff" points="849.96,-80.21 840.26,-75.93 845.18,-85.32 849.96,-80.21"/>
</a>
</g>
</g>
<!-- Node27&#45;&gt;Node8 -->
<g id="edge37_Node000027_Node000008" class="edge">
<title>Node27&#45;&gt;Node8</title>
<g id="a_edge37_Node000027_Node000008"><a xlink:title=" ">
<path fill="none" stroke="#63b8ff" d="M817.12,-54.84C806.35,-46.99 790.53,-35.45 777.75,-26.12"/>
<polygon fill="#63b8ff" stroke="#63b8ff" points="780.06,-23.48 769.92,-20.42 775.94,-29.14 780.06,-23.48"/>
</a>
</g>
</g>
<!-- Node29 -->
<g id="Node000029" class="node">
<title>Node29</title>
<g id="a_Node000029"><a xlink:title=" ">
<polygon fill="#e0e0e0" stroke="#999999" points="1519.12,-141 1419.88,-141 1419.88,-110.5 1519.12,-110.5 1519.12,-141"/>
<text text-anchor="start" x="1427.88" y="-127.5" font-family="Helvetica,sans-Serif" font-size="10.00">boost/preprocessor</text>
<text text-anchor="middle" x="1469.5" y="-116.25" font-family="Helvetica,sans-Serif" font-size="10.00">/if.hpp</text>
</a>
</g>
</g>
<!-- Node28&#45;&gt;Node29 -->
<g id="edge40_Node000028_Node000029" class="edge">
<title>Node28&#45;&gt;Node29</title>
<g id="a_edge40_Node000028_Node000029"><a xlink:title=" ">
<path fill="none" stroke="#63b8ff" d="M1165.69,-178.48C1168.67,-177.98 1171.61,-177.48 1174.5,-177 1276.01,-160.14 1305.03,-161.6 1408.32,-141.53"/>
<polygon fill="#63b8ff" stroke="#63b8ff" points="1408.96,-144.98 1418.09,-139.61 1407.6,-138.11 1408.96,-144.98"/>
</a>
</g>
</g>
<!-- Node30 -->
<g id="Node000030" class="node">
<title>Node30</title>
<g id="a_Node000030"><a xlink:title=" ">
<polygon fill="#e0e0e0" stroke="#999999" points="1636.12,-141 1536.88,-141 1536.88,-110.5 1636.12,-110.5 1636.12,-141"/>
<text text-anchor="start" x="1544.88" y="-127.5" font-family="Helvetica,sans-Serif" font-size="10.00">boost/preprocessor</text>
<text text-anchor="middle" x="1586.5" y="-116.25" font-family="Helvetica,sans-Serif" font-size="10.00">/seq.hpp</text>
</a>
</g>
</g>
<!-- Node28&#45;&gt;Node30 -->
<g id="edge41_Node000028_Node000030" class="edge">
<title>Node28&#45;&gt;Node30</title>
<g id="a_edge41_Node000028_Node000030"><a xlink:title=" ">
<path fill="none" stroke="#63b8ff" d="M1165.67,-178.3C1168.65,-177.85 1171.6,-177.41 1174.5,-177 1327.43,-155.46 1370.65,-167.34 1525.28,-141.41"/>
<polygon fill="#63b8ff" stroke="#63b8ff" points="1525.85,-144.86 1535.11,-139.73 1524.67,-137.96 1525.85,-144.86"/>
</a>
</g>
</g>
<!-- Node31 -->
<g id="Node000031" class="node">
<title>Node31</title>
<g id="a_Node000031"><a xlink:title=" ">
<polygon fill="#e0e0e0" stroke="#999999" points="1051.12,-141 951.88,-141 951.88,-110.5 1051.12,-110.5 1051.12,-141"/>
<text text-anchor="start" x="959.88" y="-127.5" font-family="Helvetica,sans-Serif" font-size="10.00">boost/preprocessor</text>
<text text-anchor="middle" x="1001.5" y="-116.25" font-family="Helvetica,sans-Serif" font-size="10.00">/tuple.hpp</text>
</a>
</g>
</g>
<!-- Node28&#45;&gt;Node31 -->
<g id="edge42_Node000028_Node000031" class="edge">
<title>Node28&#45;&gt;Node31</title>
<g id="a_edge42_Node000028_Node000031"><a xlink:title=" ">
<path fill="none" stroke="#63b8ff" d="M1074.17,-176.61C1061.67,-168.04 1045.68,-157.06 1031.88,-147.59"/>
<polygon fill="#63b8ff" stroke="#63b8ff" points="1034.22,-144.96 1023.99,-142.18 1030.26,-150.73 1034.22,-144.96"/>
</a>
</g>
</g>
<!-- Node32 -->
<g id="Node000032" class="node">
<title>Node32</title>
<g id="a_Node000032"><a xlink:title=" ">
<polygon fill="#e0e0e0" stroke="#999999" points="1168.12,-141 1068.88,-141 1068.88,-110.5 1168.12,-110.5 1168.12,-141"/>
<text text-anchor="start" x="1076.88" y="-127.5" font-family="Helvetica,sans-Serif" font-size="10.00">boost/preprocessor</text>
<text text-anchor="middle" x="1118.5" y="-116.25" font-family="Helvetica,sans-Serif" font-size="10.00">/logical.hpp</text>
</a>
</g>
</g>
<!-- Node28&#45;&gt;Node32 -->
<g id="edge43_Node000028_Node000032" class="edge">
<title>Node28&#45;&gt;Node32</title>
<g id="a_edge43_Node000028_Node000032"><a xlink:title=" ">
<path fill="none" stroke="#63b8ff" d="M1100.72,-176.61C1103.31,-169.36 1106.51,-160.38 1109.48,-152.06"/>
<polygon fill="#63b8ff" stroke="#63b8ff" points="1112.73,-153.35 1112.79,-142.75 1106.14,-151 1112.73,-153.35"/>
</a>
</g>
</g>
<!-- Node33 -->
<g id="Node000033" class="node">
<title>Node33</title>
<g id="a_Node000033"><a xlink:title=" ">
<polygon fill="#e0e0e0" stroke="#999999" points="1285.12,-141 1185.88,-141 1185.88,-110.5 1285.12,-110.5 1285.12,-141"/>
<text text-anchor="start" x="1193.88" y="-127.5" font-family="Helvetica,sans-Serif" font-size="10.00">boost/preprocessor</text>
<text text-anchor="middle" x="1235.5" y="-116.25" font-family="Helvetica,sans-Serif" font-size="10.00">/stringize.hpp</text>
</a>
</g>
</g>
<!-- Node28&#45;&gt;Node33 -->
<g id="edge44_Node000028_Node000033" class="edge">
<title>Node28&#45;&gt;Node33</title>
<g id="a_edge44_Node000028_Node000033"><a xlink:title=" ">
<path fill="none" stroke="#63b8ff" d="M1127.27,-176.61C1146.87,-167.58 1172.24,-155.9 1193.49,-146.11"/>
<polygon fill="#63b8ff" stroke="#63b8ff" points="1194.87,-149.32 1202.48,-141.96 1191.94,-142.97 1194.87,-149.32"/>
</a>
</g>
</g>
<!-- Node34 -->
<g id="Node000034" class="node">
<title>Node34</title>
<g id="a_Node000034"><a xlink:title=" ">
<polygon fill="#e0e0e0" stroke="#999999" points="1402.12,-141 1302.88,-141 1302.88,-110.5 1402.12,-110.5 1402.12,-141"/>
<text text-anchor="start" x="1310.88" y="-127.5" font-family="Helvetica,sans-Serif" font-size="10.00">boost/preprocessor</text>
<text text-anchor="middle" x="1352.5" y="-116.25" font-family="Helvetica,sans-Serif" font-size="10.00">/comparison.hpp</text>
</a>
</g>
</g>
<!-- Node28&#45;&gt;Node34 -->
<g id="edge45_Node000028_Node000034" class="edge">
<title>Node28&#45;&gt;Node34</title>
<g id="a_edge45_Node000028_Node000034"><a xlink:title=" ">
<path fill="none" stroke="#63b8ff" d="M1154.14,-176.53C1195.26,-166.21 1250.09,-152.45 1291.68,-142.01"/>
<polygon fill="#63b8ff" stroke="#63b8ff" points="1292.45,-145.43 1301.3,-139.6 1290.75,-138.64 1292.45,-145.43"/>
</a>
</g>
</g>
</g>
</svg>
