<?xml version="1.0" encoding="UTF-8" standalone="no"?>
<!DOCTYPE svg PUBLIC "-//W3C//DTD SVG 1.1//EN"
 "http://www.w3.org/Graphics/SVG/1.1/DTD/svg11.dtd">
<!-- Generated by graphviz version 9.0.0 (20230911.1827)
 -->
<!-- Title: /github/workspace/dev_area/sourcecode/fdreadoutlibs/include/fdreadoutlibs/wibeth/tpg/ProcessingInfo.hpp Pages: 1 -->
<svg width="1566pt" height="228pt"
 viewBox="0.00 0.00 1565.75 227.75" xmlns="http://www.w3.org/2000/svg" xmlns:xlink="http://www.w3.org/1999/xlink">
<g id="graph0" class="graph" transform="scale(1 1) rotate(0) translate(4 223.75)">
<title>/github/workspace/dev_area/sourcecode/fdreadoutlibs/include/fdreadoutlibs/wibeth/tpg/ProcessingInfo.hpp</title>
<!-- Node1 -->
<g id="Node000001" class="node">
<title>Node1</title>
<g id="a_Node000001"><a xlink:title=" ">
<polygon fill="#999999" stroke="#666666" points="958.75,-219.75 807,-219.75 807,-166.75 958.75,-166.75 958.75,-219.75"/>
<text text-anchor="start" x="815" y="-206.25" font-family="Helvetica,sans-Serif" font-size="10.00">/github/workspace/dev</text>
<text text-anchor="start" x="815" y="-195" font-family="Helvetica,sans-Serif" font-size="10.00">_area/sourcecode/fdreadoutlibs</text>
<text text-anchor="start" x="815" y="-183.75" font-family="Helvetica,sans-Serif" font-size="10.00">/include/fdreadoutlibs/wibeth</text>
<text text-anchor="middle" x="882.88" y="-172.5" font-family="Helvetica,sans-Serif" font-size="10.00">/tpg/ProcessingInfo.hpp</text>
</a>
</g>
</g>
<!-- Node2 -->
<g id="Node000002" class="node">
<title>Node2</title>
<g id="a_Node000002"><a xlink:href="WIBEthFrameProcessor_8hpp.html" target="_top" xlink:title=" ">
<polygon fill="white" stroke="#666666" points="351.75,-130.75 200,-130.75 200,-77.75 351.75,-77.75 351.75,-130.75"/>
<text text-anchor="start" x="208" y="-117.25" font-family="Helvetica,sans-Serif" font-size="10.00">/github/workspace/dev</text>
<text text-anchor="start" x="208" y="-106" font-family="Helvetica,sans-Serif" font-size="10.00">_area/sourcecode/fdreadoutlibs</text>
<text text-anchor="start" x="208" y="-94.75" font-family="Helvetica,sans-Serif" font-size="10.00">/include/fdreadoutlibs/wibeth</text>
<text text-anchor="middle" x="275.88" y="-83.5" font-family="Helvetica,sans-Serif" font-size="10.00">/WIBEthFrameProcessor.hpp</text>
</a>
</g>
</g>
<!-- Node1&#45;&gt;Node2 -->
<g id="edge1_Node000001_Node000002" class="edge">
<title>Node1&#45;&gt;Node2</title>
<g id="a_edge1_Node000001_Node000002"><a xlink:title=" ">
<path fill="none" stroke="#63b8ff" d="M795.16,-186.6C690.83,-178.81 511.81,-162.03 360.88,-130.75 358.01,-130.16 355.1,-129.51 352.17,-128.82"/>
<polygon fill="#63b8ff" stroke="#63b8ff" points="794.83,-190.09 805.06,-187.33 795.34,-183.11 794.83,-190.09"/>
</a>
</g>
</g>
<!-- Node5 -->
<g id="Node000005" class="node">
<title>Node5</title>
<g id="a_Node000005"><a xlink:href="ProcessAVX2_8hpp.html" target="_top" xlink:title=" ">
<polygon fill="white" stroke="#666666" points="521.75,-130.75 370,-130.75 370,-77.75 521.75,-77.75 521.75,-130.75"/>
<text text-anchor="start" x="378" y="-117.25" font-family="Helvetica,sans-Serif" font-size="10.00">/github/workspace/dev</text>
<text text-anchor="start" x="378" y="-106" font-family="Helvetica,sans-Serif" font-size="10.00">_area/sourcecode/fdreadoutlibs</text>
<text text-anchor="start" x="378" y="-94.75" font-family="Helvetica,sans-Serif" font-size="10.00">/include/fdreadoutlibs/wibeth</text>
<text text-anchor="middle" x="445.88" y="-83.5" font-family="Helvetica,sans-Serif" font-size="10.00">/tpg/ProcessAVX2.hpp</text>
</a>
</g>
</g>
<!-- Node1&#45;&gt;Node5 -->
<g id="edge4_Node000001_Node000005" class="edge">
<title>Node1&#45;&gt;Node5</title>
<g id="a_edge4_Node000001_Node000005"><a xlink:title=" ">
<path fill="none" stroke="#63b8ff" d="M795.61,-179.95C724.02,-169.15 620.27,-151.89 530.88,-130.75 528.03,-130.08 525.13,-129.36 522.22,-128.62"/>
<polygon fill="#63b8ff" stroke="#63b8ff" points="794.91,-183.38 805.32,-181.4 795.95,-176.46 794.91,-183.38"/>
</a>
</g>
</g>
<!-- Node7 -->
<g id="Node000007" class="node">
<title>Node7</title>
<g id="a_Node000007"><a xlink:href="ProcessAVX2FIR_8hpp.html" target="_top" xlink:title=" ">
<polygon fill="white" stroke="#666666" points="1047.75,-130.75 896,-130.75 896,-77.75 1047.75,-77.75 1047.75,-130.75"/>
<text text-anchor="start" x="904" y="-117.25" font-family="Helvetica,sans-Serif" font-size="10.00">/github/workspace/dev</text>
<text text-anchor="start" x="904" y="-106" font-family="Helvetica,sans-Serif" font-size="10.00">_area/sourcecode/fdreadoutlibs</text>
<text text-anchor="start" x="904" y="-94.75" font-family="Helvetica,sans-Serif" font-size="10.00">/include/fdreadoutlibs/wibeth</text>
<text text-anchor="middle" x="971.88" y="-83.5" font-family="Helvetica,sans-Serif" font-size="10.00">/tpg/ProcessAVX2FIR.hpp</text>
</a>
</g>
</g>
<!-- Node1&#45;&gt;Node7 -->
<g id="edge7_Node000001_Node000007" class="edge">
<title>Node1&#45;&gt;Node7</title>
<g id="a_edge7_Node000001_Node000007"><a xlink:title=" ">
<path fill="none" stroke="#63b8ff" d="M917.16,-158.74C926.58,-149.53 936.64,-139.69 945.53,-131"/>
<polygon fill="#63b8ff" stroke="#63b8ff" points="914.88,-156.07 910.18,-165.56 919.78,-161.07 914.88,-156.07"/>
</a>
</g>
</g>
<!-- Node9 -->
<g id="Node000009" class="node">
<title>Node9</title>
<g id="a_Node000009"><a xlink:href="ProcessAbsRSAVX2_8hpp.html" target="_top" xlink:title=" ">
<polygon fill="white" stroke="#666666" points="691.75,-130.75 540,-130.75 540,-77.75 691.75,-77.75 691.75,-130.75"/>
<text text-anchor="start" x="548" y="-117.25" font-family="Helvetica,sans-Serif" font-size="10.00">/github/workspace/dev</text>
<text text-anchor="start" x="548" y="-106" font-family="Helvetica,sans-Serif" font-size="10.00">_area/sourcecode/fdreadoutlibs</text>
<text text-anchor="start" x="548" y="-94.75" font-family="Helvetica,sans-Serif" font-size="10.00">/include/fdreadoutlibs/wibeth</text>
<text text-anchor="middle" x="615.88" y="-83.5" font-family="Helvetica,sans-Serif" font-size="10.00">/tpg/ProcessAbsRSAVX2.hpp</text>
</a>
</g>
</g>
<!-- Node1&#45;&gt;Node9 -->
<g id="edge9_Node000001_Node000009" class="edge">
<title>Node1&#45;&gt;Node9</title>
<g id="a_edge9_Node000001_Node000009"><a xlink:title=" ">
<path fill="none" stroke="#63b8ff" d="M796.02,-163.95C762.52,-153.03 724.55,-140.66 692.13,-130.1"/>
<polygon fill="#63b8ff" stroke="#63b8ff" points="794.69,-167.2 805.28,-166.97 796.86,-160.54 794.69,-167.2"/>
</a>
</g>
</g>
<!-- Node11 -->
<g id="Node000011" class="node">
<title>Node11</title>
<g id="a_Node000011"><a xlink:href="ProcessNaive_8hpp.html" target="_top" xlink:title=" ">
<polygon fill="white" stroke="#666666" points="1217.75,-130.75 1066,-130.75 1066,-77.75 1217.75,-77.75 1217.75,-130.75"/>
<text text-anchor="start" x="1074" y="-117.25" font-family="Helvetica,sans-Serif" font-size="10.00">/github/workspace/dev</text>
<text text-anchor="start" x="1074" y="-106" font-family="Helvetica,sans-Serif" font-size="10.00">_area/sourcecode/fdreadoutlibs</text>
<text text-anchor="start" x="1074" y="-94.75" font-family="Helvetica,sans-Serif" font-size="10.00">/include/fdreadoutlibs/wibeth</text>
<text text-anchor="middle" x="1141.88" y="-83.5" font-family="Helvetica,sans-Serif" font-size="10.00">/tpg/ProcessNaive.hpp</text>
</a>
</g>
</g>
<!-- Node1&#45;&gt;Node11 -->
<g id="edge12_Node000001_Node000011" class="edge">
<title>Node1&#45;&gt;Node11</title>
<g id="a_edge12_Node000001_Node000011"><a xlink:title=" ">
<path fill="none" stroke="#63b8ff" d="M969.98,-162.99C1000.99,-152.57 1035.64,-140.93 1065.67,-130.85"/>
<polygon fill="#63b8ff" stroke="#63b8ff" points="968.98,-159.63 960.62,-166.14 971.21,-166.27 968.98,-159.63"/>
</a>
</g>
</g>
<!-- Node12 -->
<g id="Node000012" class="node">
<title>Node12</title>
<g id="a_Node000012"><a xlink:href="ProcessNaiveFIR_8hpp.html" target="_top" xlink:title=" ">
<polygon fill="white" stroke="#666666" points="1387.75,-130.75 1236,-130.75 1236,-77.75 1387.75,-77.75 1387.75,-130.75"/>
<text text-anchor="start" x="1244" y="-117.25" font-family="Helvetica,sans-Serif" font-size="10.00">/github/workspace/dev</text>
<text text-anchor="start" x="1244" y="-106" font-family="Helvetica,sans-Serif" font-size="10.00">_area/sourcecode/fdreadoutlibs</text>
<text text-anchor="start" x="1244" y="-94.75" font-family="Helvetica,sans-Serif" font-size="10.00">/include/fdreadoutlibs/wibeth</text>
<text text-anchor="middle" x="1311.88" y="-83.5" font-family="Helvetica,sans-Serif" font-size="10.00">/tpg/ProcessNaiveFIR.hpp</text>
</a>
</g>
</g>
<!-- Node1&#45;&gt;Node12 -->
<g id="edge13_Node000001_Node000012" class="edge">
<title>Node1&#45;&gt;Node12</title>
<g id="a_edge13_Node000001_Node000012"><a xlink:title=" ">
<path fill="none" stroke="#63b8ff" d="M970.17,-179.47C1040.05,-168.57 1140.33,-151.4 1226.88,-130.75 1229.72,-130.07 1232.62,-129.35 1235.53,-128.6"/>
<polygon fill="#63b8ff" stroke="#63b8ff" points="970.07,-175.95 960.72,-180.94 971.14,-182.87 970.07,-175.95"/>
</a>
</g>
</g>
<!-- Node13 -->
<g id="Node000013" class="node">
<title>Node13</title>
<g id="a_Node000013"><a xlink:href="ProcessNaiveRS_8hpp.html" target="_top" xlink:title=" ">
<polygon fill="white" stroke="#666666" points="1557.75,-130.75 1406,-130.75 1406,-77.75 1557.75,-77.75 1557.75,-130.75"/>
<text text-anchor="start" x="1414" y="-117.25" font-family="Helvetica,sans-Serif" font-size="10.00">/github/workspace/dev</text>
<text text-anchor="start" x="1414" y="-106" font-family="Helvetica,sans-Serif" font-size="10.00">_area/sourcecode/fdreadoutlibs</text>
<text text-anchor="start" x="1414" y="-94.75" font-family="Helvetica,sans-Serif" font-size="10.00">/include/fdreadoutlibs/wibeth</text>
<text text-anchor="middle" x="1481.88" y="-83.5" font-family="Helvetica,sans-Serif" font-size="10.00">/tpg/ProcessNaiveRS.hpp</text>
</a>
</g>
</g>
<!-- Node1&#45;&gt;Node13 -->
<g id="edge14_Node000001_Node000013" class="edge">
<title>Node1&#45;&gt;Node13</title>
<g id="a_edge14_Node000001_Node000013"><a xlink:title=" ">
<path fill="none" stroke="#63b8ff" d="M970.13,-186.42C1072.98,-178.48 1248.68,-161.61 1396.88,-130.75 1399.74,-130.15 1402.65,-129.5 1405.58,-128.82"/>
<polygon fill="#63b8ff" stroke="#63b8ff" points="970.09,-182.91 960.38,-187.16 970.62,-189.89 970.09,-182.91"/>
</a>
</g>
</g>
<!-- Node14 -->
<g id="Node000014" class="node">
<title>Node14</title>
<g id="a_Node000014"><a xlink:href="ProcessStandardRSAVX2_8hpp.html" target="_top" xlink:title=" ">
<polygon fill="white" stroke="#666666" points="877.62,-130.75 710.12,-130.75 710.12,-77.75 877.62,-77.75 877.62,-130.75"/>
<text text-anchor="start" x="718.12" y="-117.25" font-family="Helvetica,sans-Serif" font-size="10.00">/github/workspace/dev</text>
<text text-anchor="start" x="718.12" y="-106" font-family="Helvetica,sans-Serif" font-size="10.00">_area/sourcecode/fdreadoutlibs</text>
<text text-anchor="start" x="718.12" y="-94.75" font-family="Helvetica,sans-Serif" font-size="10.00">/include/fdreadoutlibs/wibeth</text>
<text text-anchor="middle" x="793.88" y="-83.5" font-family="Helvetica,sans-Serif" font-size="10.00">/tpg/ProcessStandardRSAVX2.hpp</text>
</a>
</g>
</g>
<!-- Node1&#45;&gt;Node14 -->
<g id="edge15_Node000001_Node000014" class="edge">
<title>Node1&#45;&gt;Node14</title>
<g id="a_edge15_Node000001_Node000014"><a xlink:title=" ">
<path fill="none" stroke="#63b8ff" d="M848.59,-158.74C839.17,-149.53 829.11,-139.69 820.22,-131"/>
<polygon fill="#63b8ff" stroke="#63b8ff" points="845.97,-161.07 855.57,-165.56 850.87,-156.07 845.97,-161.07"/>
</a>
</g>
</g>
<!-- Node3 -->
<g id="Node000003" class="node">
<title>Node3</title>
<g id="a_Node000003"><a xlink:href="FDReadoutlibs_8cpp.html" target="_top" xlink:title=" ">
<polygon fill="white" stroke="#666666" points="151.75,-41.75 0,-41.75 0,0 151.75,0 151.75,-41.75"/>
<text text-anchor="start" x="8" y="-28.25" font-family="Helvetica,sans-Serif" font-size="10.00">/github/workspace/dev</text>
<text text-anchor="start" x="8" y="-17" font-family="Helvetica,sans-Serif" font-size="10.00">_area/sourcecode/fdreadoutlibs</text>
<text text-anchor="middle" x="75.88" y="-5.75" font-family="Helvetica,sans-Serif" font-size="10.00">/src/FDReadoutlibs.cpp</text>
</a>
</g>
</g>
<!-- Node2&#45;&gt;Node3 -->
<g id="edge2_Node000002_Node000003" class="edge">
<title>Node2&#45;&gt;Node3</title>
<g id="a_edge2_Node000002_Node000003"><a xlink:title=" ">
<path fill="none" stroke="#63b8ff" d="M201.4,-72.95C176.19,-62.69 148.65,-51.49 125.82,-42.19"/>
<polygon fill="#63b8ff" stroke="#63b8ff" points="200.06,-76.18 210.64,-76.71 202.7,-69.7 200.06,-76.18"/>
</a>
</g>
</g>
<!-- Node4 -->
<g id="Node000004" class="node">
<title>Node4</title>
<g id="a_Node000004"><a xlink:href="WIBEthFrameProcessor_8cpp.html" target="_top" xlink:title=" ">
<polygon fill="white" stroke="#666666" points="540.88,-41.75 350.88,-41.75 350.88,0 540.88,0 540.88,-41.75"/>
<text text-anchor="start" x="358.88" y="-28.25" font-family="Helvetica,sans-Serif" font-size="10.00">/github/workspace/dev</text>
<text text-anchor="start" x="358.88" y="-17" font-family="Helvetica,sans-Serif" font-size="10.00">_area/sourcecode/fdreadoutlibs</text>
<text text-anchor="middle" x="445.88" y="-5.75" font-family="Helvetica,sans-Serif" font-size="10.00">/src/wibeth/WIBEthFrameProcessor.cpp</text>
</a>
</g>
</g>
<!-- Node2&#45;&gt;Node4 -->
<g id="edge3_Node000002_Node000004" class="edge">
<title>Node2&#45;&gt;Node4</title>
<g id="a_edge3_Node000002_Node000004"><a xlink:title=" ">
<path fill="none" stroke="#63b8ff" d="M340.33,-72.4C361.44,-62.29 384.36,-51.32 403.43,-42.19"/>
<polygon fill="#63b8ff" stroke="#63b8ff" points="339.01,-69.15 331.5,-76.63 342.03,-75.46 339.01,-69.15"/>
</a>
</g>
</g>
<!-- Node5&#45;&gt;Node4 -->
<g id="edge5_Node000005_Node000004" class="edge">
<title>Node5&#45;&gt;Node4</title>
<g id="a_edge5_Node000005_Node000004"><a xlink:title=" ">
<path fill="none" stroke="#63b8ff" d="M445.88,-66.08C445.88,-57.8 445.88,-49.33 445.88,-42.04"/>
<polygon fill="#63b8ff" stroke="#63b8ff" points="442.38,-65.99 445.88,-75.99 449.38,-65.99 442.38,-65.99"/>
</a>
</g>
</g>
<!-- Node6 -->
<g id="Node000006" class="node">
<title>Node6</title>
<g id="a_Node000006"><a xlink:href="ProcessAVX2_8cpp.html" target="_top" xlink:title=" ">
<polygon fill="white" stroke="#666666" points="332.38,-41.75 169.38,-41.75 169.38,0 332.38,0 332.38,-41.75"/>
<text text-anchor="start" x="177.38" y="-28.25" font-family="Helvetica,sans-Serif" font-size="10.00">/github/workspace/dev</text>
<text text-anchor="start" x="177.38" y="-17" font-family="Helvetica,sans-Serif" font-size="10.00">_area/sourcecode/fdreadoutlibs</text>
<text text-anchor="middle" x="250.88" y="-5.75" font-family="Helvetica,sans-Serif" font-size="10.00">/src/wibeth/tpg/ProcessAVX2.cpp</text>
</a>
</g>
</g>
<!-- Node5&#45;&gt;Node6 -->
<g id="edge6_Node000005_Node000006" class="edge">
<title>Node5&#45;&gt;Node6</title>
<g id="a_edge6_Node000005_Node000006"><a xlink:title=" ">
<path fill="none" stroke="#63b8ff" d="M373.26,-72.95C348.68,-62.69 321.83,-51.49 299.57,-42.19"/>
<polygon fill="#63b8ff" stroke="#63b8ff" points="371.67,-76.07 382.24,-76.7 374.36,-69.61 371.67,-76.07"/>
</a>
</g>
</g>
<!-- Node8 -->
<g id="Node000008" class="node">
<title>Node8</title>
<g id="a_Node000008"><a xlink:href="ProcessAVX2FIR_8cpp.html" target="_top" xlink:title=" ">
<polygon fill="white" stroke="#666666" points="1183.25,-41.75 1004.5,-41.75 1004.5,0 1183.25,0 1183.25,-41.75"/>
<text text-anchor="start" x="1012.5" y="-28.25" font-family="Helvetica,sans-Serif" font-size="10.00">/github/workspace/dev</text>
<text text-anchor="start" x="1012.5" y="-17" font-family="Helvetica,sans-Serif" font-size="10.00">_area/sourcecode/fdreadoutlibs</text>
<text text-anchor="middle" x="1093.88" y="-5.75" font-family="Helvetica,sans-Serif" font-size="10.00">/src/wibeth/tpg/ProcessAVX2FIR.cpp</text>
</a>
</g>
</g>
<!-- Node7&#45;&gt;Node8 -->
<g id="edge8_Node000007_Node000008" class="edge">
<title>Node7&#45;&gt;Node8</title>
<g id="a_edge8_Node000007_Node000008"><a xlink:title=" ">
<path fill="none" stroke="#63b8ff" d="M1020.2,-71.01C1034.77,-61.3 1050.35,-50.91 1063.41,-42.19"/>
<polygon fill="#63b8ff" stroke="#63b8ff" points="1018.45,-67.98 1012.07,-76.44 1022.33,-73.8 1018.45,-67.98"/>
</a>
</g>
</g>
<!-- Node9&#45;&gt;Node4 -->
<g id="edge10_Node000009_Node000004" class="edge">
<title>Node9&#45;&gt;Node4</title>
<g id="a_edge10_Node000009_Node000004"><a xlink:title=" ">
<path fill="none" stroke="#63b8ff" d="M551.42,-72.4C530.31,-62.29 507.39,-51.32 488.32,-42.19"/>
<polygon fill="#63b8ff" stroke="#63b8ff" points="549.72,-75.46 560.25,-76.63 552.74,-69.15 549.72,-75.46"/>
</a>
</g>
</g>
<!-- Node10 -->
<g id="Node000010" class="node">
<title>Node10</title>
<g id="a_Node000010"><a xlink:href="ProcessAbsRSAVX2_8cpp.html" target="_top" xlink:title=" ">
<polygon fill="white" stroke="#666666" points="752.75,-41.75 559,-41.75 559,0 752.75,0 752.75,-41.75"/>
<text text-anchor="start" x="567" y="-28.25" font-family="Helvetica,sans-Serif" font-size="10.00">/github/workspace/dev</text>
<text text-anchor="start" x="567" y="-17" font-family="Helvetica,sans-Serif" font-size="10.00">_area/sourcecode/fdreadoutlibs</text>
<text text-anchor="middle" x="655.88" y="-5.75" font-family="Helvetica,sans-Serif" font-size="10.00">/src/wibeth/tpg/ProcessAbsRSAVX2.cpp</text>
</a>
</g>
</g>
<!-- Node9&#45;&gt;Node10 -->
<g id="edge11_Node000009_Node000010" class="edge">
<title>Node9&#45;&gt;Node10</title>
<g id="a_edge11_Node000009_Node000010"><a xlink:title=" ">
<path fill="none" stroke="#63b8ff" d="M633.59,-67.22C637.83,-58.58 642.22,-49.66 645.96,-42.04"/>
<polygon fill="#63b8ff" stroke="#63b8ff" points="630.47,-65.63 629.2,-76.14 636.75,-68.71 630.47,-65.63"/>
</a>
</g>
</g>
<!-- Node14&#45;&gt;Node4 -->
<g id="edge16_Node000014_Node000004" class="edge">
<title>Node14&#45;&gt;Node4</title>
<g id="a_edge16_Node000014_Node000004"><a xlink:title=" ">
<path fill="none" stroke="#63b8ff" d="M698.64,-77.24C641.18,-63.22 586.33,-51.13 541.21,-41.54"/>
<polygon fill="#63b8ff" stroke="#63b8ff" points="697.76,-80.63 708.31,-79.62 699.43,-73.84 697.76,-80.63"/>
</a>
</g>
</g>
<!-- Node15 -->
<g id="Node000015" class="node">
<title>Node15</title>
<g id="a_Node000015"><a xlink:href="ProcessStandardRSAVX2_8cpp.html" target="_top" xlink:title=" ">
<polygon fill="white" stroke="#666666" points="986.62,-41.75 771.12,-41.75 771.12,0 986.62,0 986.62,-41.75"/>
<text text-anchor="start" x="779.12" y="-28.25" font-family="Helvetica,sans-Serif" font-size="10.00">/github/workspace/dev</text>
<text text-anchor="start" x="779.12" y="-17" font-family="Helvetica,sans-Serif" font-size="10.00">_area/sourcecode/fdreadoutlibs</text>
<text text-anchor="middle" x="878.88" y="-5.75" font-family="Helvetica,sans-Serif" font-size="10.00">/src/wibeth/tpg/ProcessStandardRSAVX2.cpp</text>
</a>
</g>
</g>
<!-- Node14&#45;&gt;Node15 -->
<g id="edge17_Node000014_Node000015" class="edge">
<title>Node14&#45;&gt;Node15</title>
<g id="a_edge17_Node000014_Node000015"><a xlink:title=" ">
<path fill="none" stroke="#63b8ff" d="M828.85,-69.77C838.68,-60.36 849.06,-50.41 857.81,-42.04"/>
<polygon fill="#63b8ff" stroke="#63b8ff" points="826.67,-67.01 821.86,-76.46 831.51,-72.07 826.67,-67.01"/>
</a>
</g>
</g>
</g>
</svg>
