<?xml version="1.0" encoding="UTF-8" standalone="no"?>
<!DOCTYPE svg PUBLIC "-//W3C//DTD SVG 1.1//EN"
 "http://www.w3.org/Graphics/SVG/1.1/DTD/svg11.dtd">
<!-- Generated by graphviz version 9.0.0 (20230911.1827)
 -->
<!-- Title: /github/workspace/dev_area/sourcecode/iomanager/include/iomanager/queue/QueueBase.hpp Pages: 1 -->
<svg width="2087pt" height="360pt"
 viewBox="0.00 0.00 2087.12 359.75" xmlns="http://www.w3.org/2000/svg" xmlns:xlink="http://www.w3.org/1999/xlink">
<g id="graph0" class="graph" transform="scale(1 1) rotate(0) translate(4 355.75)">
<title>/github/workspace/dev_area/sourcecode/iomanager/include/iomanager/queue/QueueBase.hpp</title>
<!-- Node1 -->
<g id="Node000001" class="node">
<title>Node1</title>
<g id="a_Node000001"><a xlink:title=" ">
<polygon fill="#999999" stroke="#666666" points="1616.62,-351.75 1475.38,-351.75 1475.38,-298.75 1616.62,-298.75 1616.62,-351.75"/>
<text text-anchor="start" x="1483.38" y="-338.25" font-family="Helvetica,sans-Serif" font-size="10.00">/github/workspace/dev</text>
<text text-anchor="start" x="1483.38" y="-327" font-family="Helvetica,sans-Serif" font-size="10.00">_area/sourcecode/iomanager</text>
<text text-anchor="start" x="1483.38" y="-315.75" font-family="Helvetica,sans-Serif" font-size="10.00">/include/iomanager/queue</text>
<text text-anchor="middle" x="1546" y="-304.5" font-family="Helvetica,sans-Serif" font-size="10.00">/QueueBase.hpp</text>
</a>
</g>
</g>
<!-- Node2 -->
<g id="Node000002" class="node">
<title>Node2</title>
<g id="a_Node000002"><a xlink:href="iomanager_2codegen_2include_2iomanager_2queueinfo_2InfoNljs_8hpp.html" target="_top" xlink:title=" ">
<polygon fill="white" stroke="#666666" points="226,-207.5 120,-207.5 120,-177 226,-177 226,-207.5"/>
<text text-anchor="start" x="128" y="-194" font-family="Helvetica,sans-Serif" font-size="10.00">iomanager/queueinfo</text>
<text text-anchor="middle" x="173" y="-182.75" font-family="Helvetica,sans-Serif" font-size="10.00">/InfoNljs.hpp</text>
</a>
</g>
</g>
<!-- Node1&#45;&gt;Node2 -->
<g id="edge1_Node000001_Node000002" class="edge">
<title>Node1&#45;&gt;Node2</title>
<g id="a_edge1_Node000001_Node000002"><a xlink:title=" ">
<path fill="none" stroke="#63b8ff" d="M1475.23,-323.11C1255.58,-319.18 587.58,-304.06 375,-262.75 318.81,-251.83 256.94,-228.81 216.67,-212.26"/>
<polygon fill="#63b8ff" stroke="#63b8ff" points="218.14,-209.08 207.56,-208.46 215.45,-215.54 218.14,-209.08"/>
</a>
</g>
</g>
<!-- Node5 -->
<g id="Node000005" class="node">
<title>Node5</title>
<g id="a_Node000005"><a xlink:title=" ">
<polygon fill="#e0e0e0" stroke="#999999" points="603,-74.5 563,-74.5 563,-55.25 603,-55.25 603,-74.5"/>
<text text-anchor="middle" x="583" y="-61" font-family="Helvetica,sans-Serif" font-size="10.00">string</text>
</a>
</g>
</g>
<!-- Node1&#45;&gt;Node5 -->
<g id="edge54_Node000001_Node000005" class="edge">
<title>Node1&#45;&gt;Node5</title>
<g id="a_edge54_Node000001_Node000005"><a xlink:title=" ">
<path fill="none" stroke="#63b8ff" d="M1475.14,-324.95C1325.97,-324.21 970.69,-310.7 696,-207.5 645.69,-188.6 624.16,-186.15 595,-141 584.37,-124.54 582.03,-101.93 581.94,-85.83"/>
<polygon fill="#63b8ff" stroke="#63b8ff" points="585.43,-86.15 582.2,-76.06 578.44,-85.96 585.43,-86.15"/>
</a>
</g>
</g>
<!-- Node7 -->
<g id="Node000007" class="node">
<title>Node7</title>
<g id="a_Node000007"><a xlink:href="NamedObject_8hpp.html" target="_top" xlink:title=" ">
<polygon fill="white" stroke="#666666" points="535.88,-262.75 408.12,-262.75 408.12,-243.5 535.88,-243.5 535.88,-262.75"/>
<text text-anchor="middle" x="472" y="-249.25" font-family="Helvetica,sans-Serif" font-size="10.00">utilities/NamedObject.hpp</text>
</a>
</g>
</g>
<!-- Node1&#45;&gt;Node7 -->
<g id="edge6_Node000001_Node000007" class="edge">
<title>Node1&#45;&gt;Node7</title>
<g id="a_edge6_Node000001_Node000007"><a xlink:title=" ">
<path fill="none" stroke="#63b8ff" d="M1474.96,-321.05C1311.53,-313.42 896.29,-292.57 550,-262.75 549.16,-262.68 548.32,-262.6 547.47,-262.53"/>
<polygon fill="#63b8ff" stroke="#63b8ff" points="548.04,-259.07 537.76,-261.62 547.39,-266.04 548.04,-259.07"/>
</a>
</g>
</g>
<!-- Node8 -->
<g id="Node000008" class="node">
<title>Node8</title>
<g id="a_Node000008"><a xlink:href="InfoCollector_8hpp.html" target="_top" xlink:title=" ">
<polygon fill="white" stroke="#666666" points="415.38,-201.88 284.62,-201.88 284.62,-182.62 415.38,-182.62 415.38,-201.88"/>
<text text-anchor="middle" x="350" y="-188.38" font-family="Helvetica,sans-Serif" font-size="10.00">opmonlib/InfoCollector.hpp</text>
</a>
</g>
</g>
<!-- Node1&#45;&gt;Node8 -->
<g id="edge8_Node000001_Node000008" class="edge">
<title>Node1&#45;&gt;Node8</title>
<g id="a_edge8_Node000001_Node000008"><a xlink:title=" ">
<path fill="none" stroke="#63b8ff" d="M1475.2,-324.02C1239.8,-322.76 492.91,-314.68 399,-262.75 379.06,-251.72 365.35,-228.72 357.61,-212.2"/>
<polygon fill="#63b8ff" stroke="#63b8ff" points="360.99,-211.19 353.8,-203.41 354.56,-213.98 360.99,-211.19"/>
</a>
</g>
</g>
<!-- Node12 -->
<g id="Node000012" class="node">
<title>Node12</title>
<g id="a_Node000012"><a xlink:href="Issue_8hpp.html" target="_top" xlink:title=" ">
<polygon fill="white" stroke="#666666" points="1461.25,-262.75 1386.75,-262.75 1386.75,-243.5 1461.25,-243.5 1461.25,-262.75"/>
<text text-anchor="middle" x="1424" y="-249.25" font-family="Helvetica,sans-Serif" font-size="10.00">ers/Issue.hpp</text>
</a>
</g>
</g>
<!-- Node1&#45;&gt;Node12 -->
<g id="edge14_Node000001_Node000012" class="edge">
<title>Node1&#45;&gt;Node12</title>
<g id="a_edge14_Node000001_Node000012"><a xlink:title=" ">
<path fill="none" stroke="#63b8ff" d="M1500.92,-298.34C1483.66,-288.42 1464.57,-277.44 1449.73,-268.91"/>
<polygon fill="#63b8ff" stroke="#63b8ff" points="1451.48,-265.88 1441.07,-263.94 1447.99,-271.95 1451.48,-265.88"/>
</a>
</g>
</g>
<!-- Node18 -->
<g id="Node000018" class="node">
<title>Node18</title>
<g id="a_Node000018"><a xlink:title=" ">
<polygon fill="#e0e0e0" stroke="#999999" points="1911.25,-201.88 1860.75,-201.88 1860.75,-182.62 1911.25,-182.62 1911.25,-201.88"/>
<text text-anchor="middle" x="1886" y="-188.38" font-family="Helvetica,sans-Serif" font-size="10.00">memory</text>
</a>
</g>
</g>
<!-- Node1&#45;&gt;Node18 -->
<g id="edge53_Node000001_Node000018" class="edge">
<title>Node1&#45;&gt;Node18</title>
<g id="a_edge53_Node000001_Node000018"><a xlink:title=" ">
<path fill="none" stroke="#63b8ff" d="M1613.17,-298.37C1685.05,-270.67 1796.22,-227.84 1851.84,-206.41"/>
<polygon fill="#63b8ff" stroke="#63b8ff" points="1853.03,-209.7 1861.11,-202.84 1850.52,-203.17 1853.03,-209.7"/>
</a>
</g>
</g>
<!-- Node19 -->
<g id="Node000019" class="node">
<title>Node19</title>
<g id="a_Node000019"><a xlink:title=" ">
<polygon fill="#e0e0e0" stroke="#999999" points="1610.62,-135.38 1565.38,-135.38 1565.38,-116.12 1610.62,-116.12 1610.62,-135.38"/>
<text text-anchor="middle" x="1588" y="-121.88" font-family="Helvetica,sans-Serif" font-size="10.00">chrono</text>
</a>
</g>
</g>
<!-- Node1&#45;&gt;Node19 -->
<g id="edge51_Node000001_Node000019" class="edge">
<title>Node1&#45;&gt;Node19</title>
<g id="a_edge51_Node000001_Node000019"><a xlink:title=" ">
<path fill="none" stroke="#63b8ff" d="M1579.55,-298.4C1604.27,-277.08 1635.94,-244.41 1650,-207.5 1654.82,-194.83 1655.83,-189.24 1650,-177 1642.87,-162.05 1628.88,-150.11 1616,-141.62"/>
<polygon fill="#63b8ff" stroke="#63b8ff" points="1618.14,-138.83 1607.78,-136.6 1614.49,-144.8 1618.14,-138.83"/>
</a>
</g>
</g>
<!-- Node22 -->
<g id="Node000022" class="node">
<title>Node22</title>
<g id="a_Node000022"><a xlink:title=" ">
<polygon fill="#e0e0e0" stroke="#999999" points="1568.5,-74.5 1525.5,-74.5 1525.5,-55.25 1568.5,-55.25 1568.5,-74.5"/>
<text text-anchor="middle" x="1547" y="-61" font-family="Helvetica,sans-Serif" font-size="10.00">vector</text>
</a>
</g>
</g>
<!-- Node1&#45;&gt;Node22 -->
<g id="edge55_Node000001_Node000022" class="edge">
<title>Node1&#45;&gt;Node22</title>
<g id="a_edge55_Node000001_Node000022"><a xlink:title=" ">
<path fill="none" stroke="#63b8ff" d="M1616.96,-325.03C1736.52,-322.95 1961.28,-302.63 1920,-177 1908.54,-142.12 1902.65,-129.1 1871,-110.5 1761.68,-46.28 1713.03,-95.57 1588,-74.5 1585.34,-74.05 1582.58,-73.55 1579.82,-73.02"/>
<polygon fill="#63b8ff" stroke="#63b8ff" points="1580.62,-69.61 1570.13,-71.07 1579.24,-76.48 1580.62,-69.61"/>
</a>
</g>
</g>
<!-- Node36 -->
<g id="Node000036" class="node">
<title>Node36</title>
<g id="a_Node000036"><a xlink:title=" ">
<polygon fill="#e0e0e0" stroke="#999999" points="2012.62,-262.75 1967.38,-262.75 1967.38,-243.5 2012.62,-243.5 2012.62,-262.75"/>
<text text-anchor="middle" x="1990" y="-249.25" font-family="Helvetica,sans-Serif" font-size="10.00">atomic</text>
</a>
</g>
</g>
<!-- Node1&#45;&gt;Node36 -->
<g id="edge50_Node000001_Node000036" class="edge">
<title>Node1&#45;&gt;Node36</title>
<g id="a_edge50_Node000001_Node000036"><a xlink:title=" ">
<path fill="none" stroke="#63b8ff" d="M1616.87,-315.27C1698.31,-304.55 1835.79,-285.23 1953,-262.75 1953.99,-262.56 1955,-262.36 1956.01,-262.16"/>
<polygon fill="#63b8ff" stroke="#63b8ff" points="1956.45,-265.64 1965.49,-260.11 1954.97,-258.8 1956.45,-265.64"/>
</a>
</g>
</g>
<!-- Node37 -->
<g id="Node000037" class="node">
<title>Node37</title>
<g id="a_Node000037"><a xlink:title=" ">
<polygon fill="#e0e0e0" stroke="#999999" points="2079.12,-262.75 2030.88,-262.75 2030.88,-243.5 2079.12,-243.5 2079.12,-262.75"/>
<text text-anchor="middle" x="2055" y="-249.25" font-family="Helvetica,sans-Serif" font-size="10.00">cstddef</text>
</a>
</g>
</g>
<!-- Node1&#45;&gt;Node37 -->
<g id="edge52_Node000001_Node000037" class="edge">
<title>Node1&#45;&gt;Node37</title>
<g id="a_edge52_Node000001_Node000037"><a xlink:title=" ">
<path fill="none" stroke="#63b8ff" d="M1617.02,-317.92C1708.16,-309.16 1871.27,-291.36 2019.47,-263.03"/>
<polygon fill="#63b8ff" stroke="#63b8ff" points="2019.93,-266.5 2029.09,-261.17 2018.6,-259.63 2019.93,-266.5"/>
</a>
</g>
</g>
<!-- Node3 -->
<g id="Node000003" class="node">
<title>Node3</title>
<g id="a_Node000003"><a xlink:href="iomanager_2codegen_2include_2iomanager_2queueinfo_2InfoStructs_8hpp.html" target="_top" xlink:title=" ">
<polygon fill="white" stroke="#666666" points="106,-141 0,-141 0,-110.5 106,-110.5 106,-141"/>
<text text-anchor="start" x="8" y="-127.5" font-family="Helvetica,sans-Serif" font-size="10.00">iomanager/queueinfo</text>
<text text-anchor="middle" x="53" y="-116.25" font-family="Helvetica,sans-Serif" font-size="10.00">/InfoStructs.hpp</text>
</a>
</g>
</g>
<!-- Node2&#45;&gt;Node3 -->
<g id="edge2_Node000002_Node000003" class="edge">
<title>Node2&#45;&gt;Node3</title>
<g id="a_edge2_Node000002_Node000003"><a xlink:title=" ">
<path fill="none" stroke="#63b8ff" d="M145.77,-176.61C129.28,-167.75 108.02,-156.32 90.01,-146.64"/>
<polygon fill="#63b8ff" stroke="#63b8ff" points="91.92,-143.7 81.46,-142.04 88.61,-149.86 91.92,-143.7"/>
</a>
</g>
</g>
<!-- Node6 -->
<g id="Node000006" class="node">
<title>Node6</title>
<g id="a_Node000006"><a xlink:title=" ">
<polygon fill="#e0e0e0" stroke="#999999" points="221.5,-135.38 124.5,-135.38 124.5,-116.12 221.5,-116.12 221.5,-135.38"/>
<text text-anchor="middle" x="173" y="-121.88" font-family="Helvetica,sans-Serif" font-size="10.00">nlohmann/json.hpp</text>
</a>
</g>
</g>
<!-- Node2&#45;&gt;Node6 -->
<g id="edge5_Node000002_Node000006" class="edge">
<title>Node2&#45;&gt;Node6</title>
<g id="a_edge5_Node000002_Node000006"><a xlink:title=" ">
<path fill="none" stroke="#63b8ff" d="M173,-176.61C173,-167.83 173,-156.52 173,-146.9"/>
<polygon fill="#63b8ff" stroke="#63b8ff" points="176.5,-147.09 173,-137.09 169.5,-147.09 176.5,-147.09"/>
</a>
</g>
</g>
<!-- Node4 -->
<g id="Node000004" class="node">
<title>Node4</title>
<g id="a_Node000004"><a xlink:title=" ">
<polygon fill="#e0e0e0" stroke="#999999" points="75.62,-74.5 30.38,-74.5 30.38,-55.25 75.62,-55.25 75.62,-74.5"/>
<text text-anchor="middle" x="53" y="-61" font-family="Helvetica,sans-Serif" font-size="10.00">cstdint</text>
</a>
</g>
</g>
<!-- Node3&#45;&gt;Node4 -->
<g id="edge3_Node000003_Node000004" class="edge">
<title>Node3&#45;&gt;Node4</title>
<g id="a_edge3_Node000003_Node000004"><a xlink:title=" ">
<path fill="none" stroke="#63b8ff" d="M53,-110.2C53,-102.96 53,-94.09 53,-86.19"/>
<polygon fill="#63b8ff" stroke="#63b8ff" points="56.5,-86.46 53,-76.46 49.5,-86.46 56.5,-86.46"/>
</a>
</g>
</g>
<!-- Node3&#45;&gt;Node5 -->
<g id="edge4_Node000003_Node000005" class="edge">
<title>Node3&#45;&gt;Node5</title>
<g id="a_edge4_Node000003_Node000005"><a xlink:title=" ">
<path fill="none" stroke="#63b8ff" d="M106.35,-112.02C109.27,-111.47 112.17,-110.96 115,-110.5 278.28,-84.07 476.33,-71.52 551.78,-67.44"/>
<polygon fill="#63b8ff" stroke="#63b8ff" points="551.5,-70.96 561.3,-66.93 551.13,-63.97 551.5,-70.96"/>
</a>
</g>
</g>
<!-- Node7&#45;&gt;Node5 -->
<g id="edge7_Node000007_Node000005" class="edge">
<title>Node7&#45;&gt;Node5</title>
<g id="a_edge7_Node000007_Node000005"><a xlink:title=" ">
<path fill="none" stroke="#63b8ff" d="M476.36,-243.27C487.61,-220.62 518.94,-158.94 550,-110.5 555.78,-101.49 562.75,-91.89 568.8,-83.92"/>
<polygon fill="#63b8ff" stroke="#63b8ff" points="571.54,-86.1 574.88,-76.05 566,-81.82 571.54,-86.1"/>
</a>
</g>
</g>
<!-- Node8&#45;&gt;Node5 -->
<g id="edge12_Node000008_Node000005" class="edge">
<title>Node8&#45;&gt;Node5</title>
<g id="a_edge12_Node000008_Node000005"><a xlink:title=" ">
<path fill="none" stroke="#63b8ff" d="M375.83,-182.2C400.45,-173.15 438.24,-158.13 469,-141 489.47,-129.6 492.52,-123.52 512,-110.5 527.24,-100.32 544.66,-89.36 558.44,-80.85"/>
<polygon fill="#63b8ff" stroke="#63b8ff" points="560.18,-83.88 566.87,-75.66 556.52,-77.92 560.18,-83.88"/>
</a>
</g>
</g>
<!-- Node8&#45;&gt;Node6 -->
<g id="edge9_Node000008_Node000006" class="edge">
<title>Node8&#45;&gt;Node6</title>
<g id="a_edge9_Node000008_Node000006"><a xlink:title=" ">
<path fill="none" stroke="#63b8ff" d="M325.02,-182.15C294.58,-171.05 242.95,-152.24 208.42,-139.66"/>
<polygon fill="#63b8ff" stroke="#63b8ff" points="209.87,-136.46 199.28,-136.33 207.48,-143.04 209.87,-136.46"/>
</a>
</g>
</g>
<!-- Node9 -->
<g id="Node000009" class="node">
<title>Node9</title>
<g id="a_Node000009"><a xlink:title=" ">
<polygon fill="#e0e0e0" stroke="#999999" points="460,-135.38 420,-135.38 420,-116.12 460,-116.12 460,-135.38"/>
<text text-anchor="middle" x="440" y="-121.88" font-family="Helvetica,sans-Serif" font-size="10.00">ctime</text>
</a>
</g>
</g>
<!-- Node8&#45;&gt;Node9 -->
<g id="edge10_Node000008_Node000009" class="edge">
<title>Node8&#45;&gt;Node9</title>
<g id="a_edge10_Node000008_Node000009"><a xlink:title=" ">
<path fill="none" stroke="#63b8ff" d="M362.51,-182.28C376.94,-171.94 400.91,-154.77 418.37,-142.25"/>
<polygon fill="#63b8ff" stroke="#63b8ff" points="419.98,-145.4 426.07,-136.73 415.9,-139.71 419.98,-145.4"/>
</a>
</g>
</g>
<!-- Node10 -->
<g id="Node000010" class="node">
<title>Node10</title>
<g id="a_Node000010"><a xlink:title=" ">
<polygon fill="#e0e0e0" stroke="#999999" points="1609.75,-19.25 1556.25,-19.25 1556.25,0 1609.75,0 1609.75,-19.25"/>
<text text-anchor="middle" x="1583" y="-5.75" font-family="Helvetica,sans-Serif" font-size="10.00">iostream</text>
</a>
</g>
</g>
<!-- Node8&#45;&gt;Node10 -->
<g id="edge11_Node000008_Node000010" class="edge">
<title>Node8&#45;&gt;Node10</title>
<g id="a_edge11_Node000008_Node000010"><a xlink:title=" ">
<path fill="none" stroke="#63b8ff" d="M328.36,-182.13C297.21,-167.75 245.88,-138.53 269,-110.5 352.27,-9.54 1336.45,-9.27 1544.52,-10.35"/>
<polygon fill="#63b8ff" stroke="#63b8ff" points="1544.48,-13.85 1554.5,-10.41 1544.52,-6.85 1544.48,-13.85"/>
</a>
</g>
</g>
<!-- Node11 -->
<g id="Node000011" class="node">
<title>Node11</title>
<g id="a_Node000011"><a xlink:href="JSONTags_8hpp.html" target="_top" xlink:title=" ">
<polygon fill="white" stroke="#666666" points="402.38,-135.38 277.62,-135.38 277.62,-116.12 402.38,-116.12 402.38,-135.38"/>
<text text-anchor="middle" x="340" y="-121.88" font-family="Helvetica,sans-Serif" font-size="10.00">opmonlib/JSONTags.hpp</text>
</a>
</g>
</g>
<!-- Node8&#45;&gt;Node11 -->
<g id="edge13_Node000008_Node000011" class="edge">
<title>Node8&#45;&gt;Node11</title>
<g id="a_edge13_Node000008_Node000011"><a xlink:title=" ">
<path fill="none" stroke="#63b8ff" d="M348.61,-182.28C347.19,-173.14 344.94,-158.64 343.1,-146.75"/>
<polygon fill="#63b8ff" stroke="#63b8ff" points="346.6,-146.48 341.61,-137.14 339.68,-147.56 346.6,-146.48"/>
</a>
</g>
</g>
<!-- Node12&#45;&gt;Node5 -->
<g id="edge19_Node000012_Node000005" class="edge">
<title>Node12&#45;&gt;Node5</title>
<g id="a_edge19_Node000012_Node000005"><a xlink:title=" ">
<path fill="none" stroke="#63b8ff" d="M1386.63,-251.78C1244.94,-249.74 742.68,-235.85 621,-141 603.38,-127.26 593.25,-103.14 587.95,-85.93"/>
<polygon fill="#63b8ff" stroke="#63b8ff" points="591.34,-85.05 585.31,-76.34 584.59,-86.91 591.34,-85.05"/>
</a>
</g>
</g>
<!-- Node12&#45;&gt;Node10 -->
<g id="edge20_Node000012_Node000010" class="edge">
<title>Node12&#45;&gt;Node10</title>
<g id="a_edge20_Node000012_Node000010"><a xlink:title=" ">
<path fill="none" stroke="#63b8ff" d="M1461.57,-251.29C1547.07,-248.83 1753.43,-239.66 1814,-207.5 1831.19,-198.37 1864.25,-159.25 1871,-141 1909.42,-37.14 1708.39,-16.01 1621.48,-11.72"/>
<polygon fill="#63b8ff" stroke="#63b8ff" points="1621.67,-8.22 1611.52,-11.28 1621.36,-15.21 1621.67,-8.22"/>
</a>
</g>
</g>
<!-- Node13 -->
<g id="Node000013" class="node">
<title>Node13</title>
<g id="a_Node000013"><a xlink:title=" ">
<polygon fill="#e0e0e0" stroke="#999999" points="1578.62,-201.88 1533.38,-201.88 1533.38,-182.62 1578.62,-182.62 1578.62,-201.88"/>
<text text-anchor="middle" x="1556" y="-188.38" font-family="Helvetica,sans-Serif" font-size="10.00">math.h</text>
</a>
</g>
</g>
<!-- Node12&#45;&gt;Node13 -->
<g id="edge15_Node000012_Node000013" class="edge">
<title>Node12&#45;&gt;Node13</title>
<g id="a_edge15_Node000012_Node000013"><a xlink:title=" ">
<path fill="none" stroke="#63b8ff" d="M1444.34,-243.05C1466.01,-233.39 1500.56,-217.98 1525.49,-206.86"/>
<polygon fill="#63b8ff" stroke="#63b8ff" points="1526.77,-210.12 1534.48,-202.85 1523.92,-203.73 1526.77,-210.12"/>
</a>
</g>
</g>
<!-- Node14 -->
<g id="Node000014" class="node">
<title>Node14</title>
<g id="a_Node000014"><a xlink:title=" ">
<polygon fill="#e0e0e0" stroke="#999999" points="1641.25,-201.88 1596.75,-201.88 1596.75,-182.62 1641.25,-182.62 1641.25,-201.88"/>
<text text-anchor="middle" x="1619" y="-188.38" font-family="Helvetica,sans-Serif" font-size="10.00">stdio.h</text>
</a>
</g>
</g>
<!-- Node12&#45;&gt;Node14 -->
<g id="edge16_Node000012_Node000014" class="edge">
<title>Node12&#45;&gt;Node14</title>
<g id="a_edge16_Node000012_Node000014"><a xlink:title=" ">
<path fill="none" stroke="#63b8ff" d="M1461.67,-243.75C1495.27,-235.84 1545.56,-222.91 1588,-207.5 1588.64,-207.27 1589.29,-207.02 1589.94,-206.78"/>
<polygon fill="#63b8ff" stroke="#63b8ff" points="1591.25,-210.02 1599.12,-202.93 1588.55,-203.57 1591.25,-210.02"/>
</a>
</g>
</g>
<!-- Node15 -->
<g id="Node000015" class="node">
<title>Node15</title>
<g id="a_Node000015"><a xlink:title=" ">
<polygon fill="#e0e0e0" stroke="#999999" points="972.75,-201.88 925.25,-201.88 925.25,-182.62 972.75,-182.62 972.75,-201.88"/>
<text text-anchor="middle" x="949" y="-188.38" font-family="Helvetica,sans-Serif" font-size="10.00">string.h</text>
</a>
</g>
</g>
<!-- Node12&#45;&gt;Node15 -->
<g id="edge17_Node000012_Node000015" class="edge">
<title>Node12&#45;&gt;Node15</title>
<g id="a_edge17_Node000012_Node000015"><a xlink:title=" ">
<path fill="none" stroke="#63b8ff" d="M1386.36,-252.18C1309.21,-251.46 1128.13,-245.45 982,-207.5 980.61,-207.14 979.2,-206.73 977.78,-206.28"/>
<polygon fill="#63b8ff" stroke="#63b8ff" points="979.16,-203.05 968.56,-202.8 976.69,-209.6 979.16,-203.05"/>
</a>
</g>
</g>
<!-- Node16 -->
<g id="Node000016" class="node">
<title>Node16</title>
<g id="a_Node000016"><a xlink:title=" ">
<polygon fill="#e0e0e0" stroke="#999999" points="1367.38,-135.38 1332.62,-135.38 1332.62,-116.12 1367.38,-116.12 1367.38,-135.38"/>
<text text-anchor="middle" x="1350" y="-121.88" font-family="Helvetica,sans-Serif" font-size="10.00">map</text>
</a>
</g>
</g>
<!-- Node12&#45;&gt;Node16 -->
<g id="edge18_Node000012_Node000016" class="edge">
<title>Node12&#45;&gt;Node16</title>
<g id="a_edge18_Node000012_Node000016"><a xlink:title=" ">
<path fill="none" stroke="#63b8ff" d="M1386.27,-249.9C1330.45,-245.74 1230.07,-234.59 1208,-207.5 1199.44,-196.99 1199.96,-187.91 1208,-177 1240.02,-133.54 1274.3,-162.08 1324,-141 1324.11,-140.95 1324.22,-140.91 1324.33,-140.86"/>
<polygon fill="#63b8ff" stroke="#63b8ff" points="1325.76,-144.05 1333.22,-136.52 1322.7,-137.76 1325.76,-144.05"/>
</a>
</g>
</g>
<!-- Node17 -->
<g id="Node000017" class="node">
<title>Node17</title>
<g id="a_Node000017"><a xlink:title=" ">
<polygon fill="#e0e0e0" stroke="#999999" points="1268.62,-201.88 1217.38,-201.88 1217.38,-182.62 1268.62,-182.62 1268.62,-201.88"/>
<text text-anchor="middle" x="1243" y="-188.38" font-family="Helvetica,sans-Serif" font-size="10.00">sstream</text>
</a>
</g>
</g>
<!-- Node12&#45;&gt;Node17 -->
<g id="edge21_Node000012_Node000017" class="edge">
<title>Node12&#45;&gt;Node17</title>
<g id="a_edge21_Node000012_Node000017"><a xlink:title=" ">
<path fill="none" stroke="#63b8ff" d="M1391.25,-243.03C1361.48,-234.55 1316.46,-221.18 1278,-207.5 1277.03,-207.15 1276.04,-206.8 1275.05,-206.43"/>
<polygon fill="#63b8ff" stroke="#63b8ff" points="1276.36,-203.18 1265.77,-202.85 1273.83,-209.71 1276.36,-203.18"/>
</a>
</g>
</g>
<!-- Node12&#45;&gt;Node18 -->
<g id="edge22_Node000012_Node000018" class="edge">
<title>Node12&#45;&gt;Node18</title>
<g id="a_edge22_Node000012_Node000018"><a xlink:title=" ">
<path fill="none" stroke="#63b8ff" d="M1461.57,-251.24C1536.04,-248.82 1707.26,-239.88 1847,-207.5 1849.02,-207.03 1851.08,-206.49 1853.14,-205.9"/>
<polygon fill="#63b8ff" stroke="#63b8ff" points="1854.15,-209.25 1862.57,-202.82 1851.98,-202.59 1854.15,-209.25"/>
</a>
</g>
</g>
<!-- Node12&#45;&gt;Node19 -->
<g id="edge23_Node000012_Node000019" class="edge">
<title>Node12&#45;&gt;Node19</title>
<g id="a_edge23_Node000012_Node000019"><a xlink:title=" ">
<path fill="none" stroke="#63b8ff" d="M1436.97,-243.09C1449.61,-234.21 1469.32,-220.18 1486,-207.5 1503.24,-194.39 1507.04,-190.46 1524,-177 1538.64,-165.38 1555.23,-152.35 1567.86,-142.47"/>
<polygon fill="#63b8ff" stroke="#63b8ff" points="1569.73,-145.46 1575.45,-136.54 1565.42,-139.94 1569.73,-145.46"/>
</a>
</g>
</g>
<!-- Node20 -->
<g id="Node000020" class="node">
<title>Node20</title>
<g id="a_Node000020"><a xlink:title=" ">
<polygon fill="#e0e0e0" stroke="#999999" points="1315.4,-201.88 1286.6,-201.88 1286.6,-182.62 1315.4,-182.62 1315.4,-201.88"/>
<text text-anchor="middle" x="1301" y="-188.38" font-family="Helvetica,sans-Serif" font-size="10.00">list</text>
</a>
</g>
</g>
<!-- Node12&#45;&gt;Node20 -->
<g id="edge24_Node000012_Node000020" class="edge">
<title>Node12&#45;&gt;Node20</title>
<g id="a_edge24_Node000012_Node000020"><a xlink:title=" ">
<path fill="none" stroke="#63b8ff" d="M1404.26,-243.08C1384.99,-234.18 1354.86,-220.15 1329,-207.5 1327.92,-206.97 1326.82,-206.43 1325.71,-205.88"/>
<polygon fill="#63b8ff" stroke="#63b8ff" points="1327.64,-202.93 1317.13,-201.56 1324.49,-209.18 1327.64,-202.93"/>
</a>
</g>
</g>
<!-- Node21 -->
<g id="Node000021" class="node">
<title>Node21</title>
<g id="a_Node000021"><a xlink:href="IssueFactory_8hpp.html" target="_top" xlink:title=" ">
<polygon fill="white" stroke="#666666" points="1477.38,-201.88 1370.62,-201.88 1370.62,-182.62 1477.38,-182.62 1477.38,-201.88"/>
<text text-anchor="middle" x="1424" y="-188.38" font-family="Helvetica,sans-Serif" font-size="10.00">ers/IssueFactory.hpp</text>
</a>
</g>
</g>
<!-- Node12&#45;&gt;Node21 -->
<g id="edge25_Node000012_Node000021" class="edge">
<title>Node12&#45;&gt;Node21</title>
<g id="a_edge25_Node000012_Node000021"><a xlink:title=" ">
<path fill="none" stroke="#63b8ff" d="M1424,-243.18C1424,-235.4 1424,-223.83 1424,-213.78"/>
<polygon fill="#63b8ff" stroke="#63b8ff" points="1427.5,-213.79 1424,-203.79 1420.5,-213.79 1427.5,-213.79"/>
</a>
</g>
</g>
<!-- Node23 -->
<g id="Node000023" class="node">
<title>Node23</title>
<g id="a_Node000023"><a xlink:href="Severity_8hpp.html" target="_top" xlink:title=" ">
<polygon fill="white" stroke="#666666" points="1508.88,-135.38 1423.12,-135.38 1423.12,-116.12 1508.88,-116.12 1508.88,-135.38"/>
<text text-anchor="middle" x="1466" y="-121.88" font-family="Helvetica,sans-Serif" font-size="10.00">ers/Severity.hpp</text>
</a>
</g>
</g>
<!-- Node12&#45;&gt;Node23 -->
<g id="edge42_Node000012_Node000023" class="edge">
<title>Node12&#45;&gt;Node23</title>
<g id="a_edge42_Node000012_Node000023"><a xlink:title=" ">
<path fill="none" stroke="#63b8ff" d="M1402.56,-243.12C1388.21,-235.82 1370.47,-224.02 1362,-207.5 1355.82,-195.44 1354.8,-188.48 1362,-177 1373.38,-158.87 1393.34,-147.12 1412.76,-139.59"/>
<polygon fill="#63b8ff" stroke="#63b8ff" points="1413.74,-142.95 1422.01,-136.32 1411.41,-136.35 1413.74,-142.95"/>
</a>
</g>
</g>
<!-- Node24 -->
<g id="Node000024" class="node">
<title>Node24</title>
<g id="a_Node000024"><a xlink:href="LocalContext_8hpp.html" target="_top" xlink:title=" ">
<polygon fill="white" stroke="#666666" points="1804.75,-201.88 1697.25,-201.88 1697.25,-182.62 1804.75,-182.62 1804.75,-201.88"/>
<text text-anchor="middle" x="1751" y="-188.38" font-family="Helvetica,sans-Serif" font-size="10.00">ers/LocalContext.hpp</text>
</a>
</g>
</g>
<!-- Node12&#45;&gt;Node24 -->
<g id="edge34_Node000012_Node000024" class="edge">
<title>Node12&#45;&gt;Node24</title>
<g id="a_edge34_Node000012_Node000024"><a xlink:title=" ">
<path fill="none" stroke="#63b8ff" d="M1461.51,-245.37C1517.17,-235.35 1622.27,-216.43 1689.35,-204.35"/>
<polygon fill="#63b8ff" stroke="#63b8ff" points="1689.88,-207.81 1699.11,-202.59 1688.64,-200.92 1689.88,-207.81"/>
</a>
</g>
</g>
<!-- Node29 -->
<g id="Node000029" class="node">
<title>Node29</title>
<g id="a_Node000029"><a xlink:href="IssueDeclarationMacro_8hpp.html" target="_top" xlink:title=" ">
<polygon fill="white" stroke="#666666" points="1130.88,-207.5 991.12,-207.5 991.12,-177 1130.88,-177 1130.88,-207.5"/>
<text text-anchor="start" x="999.12" y="-194" font-family="Helvetica,sans-Serif" font-size="10.00">ers/internal/IssueDeclaration</text>
<text text-anchor="middle" x="1061" y="-182.75" font-family="Helvetica,sans-Serif" font-size="10.00">Macro.hpp</text>
</a>
</g>
</g>
<!-- Node12&#45;&gt;Node29 -->
<g id="edge43_Node000012_Node000029" class="edge">
<title>Node12&#45;&gt;Node29</title>
<g id="a_edge43_Node000012_Node000029"><a xlink:title=" ">
<path fill="none" stroke="#63b8ff" d="M1386.52,-246.05C1329.2,-236.75 1218.39,-218.78 1142.11,-206.4"/>
<polygon fill="#63b8ff" stroke="#63b8ff" points="1143.04,-203.01 1132.61,-204.86 1141.92,-209.92 1143.04,-203.01"/>
</a>
</g>
</g>
<!-- Node21&#45;&gt;Node5 -->
<g id="edge27_Node000021_Node000005" class="edge">
<title>Node21&#45;&gt;Node5</title>
<g id="a_edge27_Node000021_Node000005"><a xlink:title=" ">
<path fill="none" stroke="#63b8ff" d="M1421.68,-182.22C1416.67,-164.82 1403.05,-126.91 1376,-110.5 1310.13,-70.53 754.82,-66.34 614.9,-65.92"/>
<polygon fill="#63b8ff" stroke="#63b8ff" points="614.92,-62.42 604.91,-65.89 614.9,-69.42 614.92,-62.42"/>
</a>
</g>
</g>
<!-- Node21&#45;&gt;Node16 -->
<g id="edge29_Node000021_Node000016" class="edge">
<title>Node21&#45;&gt;Node16</title>
<g id="a_edge29_Node000021_Node000016"><a xlink:title=" ">
<path fill="none" stroke="#63b8ff" d="M1413.71,-182.28C1402.11,-172.17 1383.02,-155.53 1368.75,-143.1"/>
<polygon fill="#63b8ff" stroke="#63b8ff" points="1371.18,-140.57 1361.34,-136.64 1366.58,-145.85 1371.18,-140.57"/>
</a>
</g>
</g>
<!-- Node21&#45;&gt;Node19 -->
<g id="edge26_Node000021_Node000019" class="edge">
<title>Node21&#45;&gt;Node19</title>
<g id="a_edge26_Node000021_Node000019"><a xlink:title=" ">
<path fill="none" stroke="#63b8ff" d="M1447.15,-182.15C1475.11,-171.15 1522.36,-152.56 1554.35,-139.99"/>
<polygon fill="#63b8ff" stroke="#63b8ff" points="1555.53,-143.28 1563.56,-136.36 1552.97,-136.77 1555.53,-143.28"/>
</a>
</g>
</g>
<!-- Node21&#45;&gt;Node22 -->
<g id="edge28_Node000021_Node000022" class="edge">
<title>Node21&#45;&gt;Node22</title>
<g id="a_edge28_Node000021_Node000022"><a xlink:title=" ">
<path fill="none" stroke="#63b8ff" d="M1452.1,-182.27C1472.81,-174.36 1500.35,-160.96 1518,-141 1531.88,-125.31 1539.44,-102.26 1543.33,-85.83"/>
<polygon fill="#63b8ff" stroke="#63b8ff" points="1546.71,-86.78 1545.33,-76.28 1539.86,-85.35 1546.71,-86.78"/>
</a>
</g>
</g>
<!-- Node21&#45;&gt;Node23 -->
<g id="edge30_Node000021_Node000023" class="edge">
<title>Node21&#45;&gt;Node23</title>
<g id="a_edge30_Node000021_Node000023"><a xlink:title=" ">
<path fill="none" stroke="#63b8ff" d="M1429.84,-182.28C1436.05,-172.75 1446.03,-157.41 1453.94,-145.27"/>
<polygon fill="#63b8ff" stroke="#63b8ff" points="1456.86,-147.2 1459.38,-136.91 1450.99,-143.38 1456.86,-147.2"/>
</a>
</g>
</g>
<!-- Node23&#45;&gt;Node5 -->
<g id="edge31_Node000023_Node000005" class="edge">
<title>Node23&#45;&gt;Node5</title>
<g id="a_edge31_Node000023_Node000005"><a xlink:title=" ">
<path fill="none" stroke="#63b8ff" d="M1434.26,-115.68C1426.09,-113.66 1417.27,-111.75 1409,-110.5 1102.05,-64.27 724.59,-64.29 614.5,-65.42"/>
<polygon fill="#63b8ff" stroke="#63b8ff" points="614.74,-61.92 604.78,-65.53 614.82,-68.92 614.74,-61.92"/>
</a>
</g>
</g>
<!-- Node23&#45;&gt;Node10 -->
<g id="edge33_Node000023_Node000010" class="edge">
<title>Node23&#45;&gt;Node10</title>
<g id="a_edge33_Node000023_Node000010"><a xlink:title=" ">
<path fill="none" stroke="#63b8ff" d="M1471.12,-115.88C1479.49,-101.89 1497.16,-74.34 1517,-55.25 1528.88,-43.82 1543.99,-33.37 1556.76,-25.45"/>
<polygon fill="#63b8ff" stroke="#63b8ff" points="1558.32,-28.6 1565.1,-20.46 1554.72,-22.6 1558.32,-28.6"/>
</a>
</g>
</g>
<!-- Node23&#45;&gt;Node22 -->
<g id="edge32_Node000023_Node000022" class="edge">
<title>Node23&#45;&gt;Node22</title>
<g id="a_edge32_Node000023_Node000022"><a xlink:title=" ">
<path fill="none" stroke="#63b8ff" d="M1478.3,-115.81C1490.79,-106.73 1510.38,-92.49 1525.45,-81.54"/>
<polygon fill="#63b8ff" stroke="#63b8ff" points="1527.33,-84.5 1533.36,-75.79 1523.21,-78.84 1527.33,-84.5"/>
</a>
</g>
</g>
<!-- Node25 -->
<g id="Node000025" class="node">
<title>Node25</title>
<g id="a_Node000025"><a xlink:title=" ">
<polygon fill="#e0e0e0" stroke="#999999" points="1794.38,-135.38 1729.62,-135.38 1729.62,-116.12 1794.38,-116.12 1794.38,-135.38"/>
<text text-anchor="middle" x="1762" y="-121.88" font-family="Helvetica,sans-Serif" font-size="10.00">sys/types.h</text>
</a>
</g>
</g>
<!-- Node24&#45;&gt;Node25 -->
<g id="edge35_Node000024_Node000025" class="edge">
<title>Node24&#45;&gt;Node25</title>
<g id="a_edge35_Node000024_Node000025"><a xlink:title=" ">
<path fill="none" stroke="#63b8ff" d="M1752.53,-182.28C1754.09,-173.14 1756.56,-158.64 1758.59,-146.75"/>
<polygon fill="#63b8ff" stroke="#63b8ff" points="1762,-147.58 1760.23,-137.13 1755.1,-146.4 1762,-147.58"/>
</a>
</g>
</g>
<!-- Node26 -->
<g id="Node000026" class="node">
<title>Node26</title>
<g id="a_Node000026"><a xlink:title=" ">
<polygon fill="#e0e0e0" stroke="#999999" points="1861.88,-135.38 1812.12,-135.38 1812.12,-116.12 1861.88,-116.12 1861.88,-135.38"/>
<text text-anchor="middle" x="1837" y="-121.88" font-family="Helvetica,sans-Serif" font-size="10.00">unistd.h</text>
</a>
</g>
</g>
<!-- Node24&#45;&gt;Node26 -->
<g id="edge36_Node000024_Node000026" class="edge">
<title>Node24&#45;&gt;Node26</title>
<g id="a_edge36_Node000024_Node000026"><a xlink:title=" ">
<path fill="none" stroke="#63b8ff" d="M1762.96,-182.28C1776.62,-172.04 1799.22,-155.09 1815.87,-142.6"/>
<polygon fill="#63b8ff" stroke="#63b8ff" points="1817.76,-145.56 1823.66,-136.76 1813.56,-139.96 1817.76,-145.56"/>
</a>
</g>
</g>
<!-- Node27 -->
<g id="Node000027" class="node">
<title>Node27</title>
<g id="a_Node000027"><a xlink:href="Context_8hpp.html" target="_top" xlink:title=" ">
<polygon fill="white" stroke="#666666" points="1711.75,-135.38 1628.25,-135.38 1628.25,-116.12 1711.75,-116.12 1711.75,-135.38"/>
<text text-anchor="middle" x="1670" y="-121.88" font-family="Helvetica,sans-Serif" font-size="10.00">ers/Context.hpp</text>
</a>
</g>
</g>
<!-- Node24&#45;&gt;Node27 -->
<g id="edge37_Node000024_Node000027" class="edge">
<title>Node24&#45;&gt;Node27</title>
<g id="a_edge37_Node000024_Node000027"><a xlink:title=" ">
<path fill="none" stroke="#63b8ff" d="M1739.74,-182.28C1726.99,-172.13 1705.98,-155.4 1690.35,-142.95"/>
<polygon fill="#63b8ff" stroke="#63b8ff" points="1692.62,-140.28 1682.61,-136.79 1688.25,-145.76 1692.62,-140.28"/>
</a>
</g>
</g>
<!-- Node27&#45;&gt;Node5 -->
<g id="edge38_Node000027_Node000005" class="edge">
<title>Node27&#45;&gt;Node5</title>
<g id="a_edge38_Node000027_Node000005"><a xlink:title=" ">
<path fill="none" stroke="#63b8ff" d="M1642.49,-115.66C1635.25,-113.61 1627.4,-111.7 1620,-110.5 1419.09,-78.01 765.37,-68.11 614.34,-66.23"/>
<polygon fill="#63b8ff" stroke="#63b8ff" points="614.75,-62.74 604.71,-66.12 614.66,-69.74 614.75,-62.74"/>
</a>
</g>
</g>
<!-- Node27&#45;&gt;Node22 -->
<g id="edge39_Node000027_Node000022" class="edge">
<title>Node27&#45;&gt;Node22</title>
<g id="a_edge39_Node000027_Node000022"><a xlink:title=" ">
<path fill="none" stroke="#63b8ff" d="M1651.05,-115.68C1631.04,-106.1 1599.24,-90.88 1576.05,-79.78"/>
<polygon fill="#63b8ff" stroke="#63b8ff" points="1577.67,-76.67 1567.13,-75.51 1574.64,-82.99 1577.67,-76.67"/>
</a>
</g>
</g>
<!-- Node28 -->
<g id="Node000028" class="node">
<title>Node28</title>
<g id="a_Node000028"><a xlink:href="ers_2include_2ers_2Configuration_8hpp.html" target="_top" xlink:title=" ">
<polygon fill="white" stroke="#666666" points="1703.38,-74.5 1596.62,-74.5 1596.62,-55.25 1703.38,-55.25 1703.38,-74.5"/>
<text text-anchor="middle" x="1650" y="-61" font-family="Helvetica,sans-Serif" font-size="10.00">ers/Configuration.hpp</text>
</a>
</g>
</g>
<!-- Node27&#45;&gt;Node28 -->
<g id="edge40_Node000027_Node000028" class="edge">
<title>Node27&#45;&gt;Node28</title>
<g id="a_edge40_Node000027_Node000028"><a xlink:title=" ">
<path fill="none" stroke="#63b8ff" d="M1666.96,-115.81C1664.26,-107.85 1660.21,-95.94 1656.75,-85.74"/>
<polygon fill="#63b8ff" stroke="#63b8ff" points="1660.08,-84.68 1653.55,-76.33 1653.46,-86.93 1660.08,-84.68"/>
</a>
</g>
</g>
<!-- Node28&#45;&gt;Node10 -->
<g id="edge41_Node000028_Node000010" class="edge">
<title>Node28&#45;&gt;Node10</title>
<g id="a_edge41_Node000028_Node000010"><a xlink:title=" ">
<path fill="none" stroke="#63b8ff" d="M1638.63,-54.84C1628.95,-47.15 1614.8,-35.9 1603.19,-26.68"/>
<polygon fill="#63b8ff" stroke="#63b8ff" points="1605.39,-23.95 1595.38,-20.47 1601.03,-29.43 1605.39,-23.95"/>
</a>
</g>
</g>
<!-- Node30 -->
<g id="Node000030" class="node">
<title>Node30</title>
<g id="a_Node000030"><a xlink:title=" ">
<polygon fill="#e0e0e0" stroke="#999999" points="963.62,-141 864.38,-141 864.38,-110.5 963.62,-110.5 963.62,-141"/>
<text text-anchor="start" x="872.38" y="-127.5" font-family="Helvetica,sans-Serif" font-size="10.00">boost/preprocessor</text>
<text text-anchor="middle" x="914" y="-116.25" font-family="Helvetica,sans-Serif" font-size="10.00">/if.hpp</text>
</a>
</g>
</g>
<!-- Node29&#45;&gt;Node30 -->
<g id="edge44_Node000029_Node000030" class="edge">
<title>Node29&#45;&gt;Node30</title>
<g id="a_edge44_Node000029_Node000030"><a xlink:title=" ">
<path fill="none" stroke="#63b8ff" d="M1027.64,-176.61C1006.95,-167.53 980.13,-155.77 957.74,-145.94"/>
<polygon fill="#63b8ff" stroke="#63b8ff" points="959.43,-142.86 948.86,-142.05 956.62,-149.27 959.43,-142.86"/>
</a>
</g>
</g>
<!-- Node31 -->
<g id="Node000031" class="node">
<title>Node31</title>
<g id="a_Node000031"><a xlink:title=" ">
<polygon fill="#e0e0e0" stroke="#999999" points="1080.62,-141 981.38,-141 981.38,-110.5 1080.62,-110.5 1080.62,-141"/>
<text text-anchor="start" x="989.38" y="-127.5" font-family="Helvetica,sans-Serif" font-size="10.00">boost/preprocessor</text>
<text text-anchor="middle" x="1031" y="-116.25" font-family="Helvetica,sans-Serif" font-size="10.00">/seq.hpp</text>
</a>
</g>
</g>
<!-- Node29&#45;&gt;Node31 -->
<g id="edge45_Node000029_Node000031" class="edge">
<title>Node29&#45;&gt;Node31</title>
<g id="a_edge45_Node000029_Node000031"><a xlink:title=" ">
<path fill="none" stroke="#63b8ff" d="M1054.19,-176.61C1050.74,-169.19 1046.45,-159.97 1042.51,-151.49"/>
<polygon fill="#63b8ff" stroke="#63b8ff" points="1045.81,-150.29 1038.42,-142.7 1039.46,-153.24 1045.81,-150.29"/>
</a>
</g>
</g>
<!-- Node32 -->
<g id="Node000032" class="node">
<title>Node32</title>
<g id="a_Node000032"><a xlink:title=" ">
<polygon fill="#e0e0e0" stroke="#999999" points="1197.62,-141 1098.38,-141 1098.38,-110.5 1197.62,-110.5 1197.62,-141"/>
<text text-anchor="start" x="1106.38" y="-127.5" font-family="Helvetica,sans-Serif" font-size="10.00">boost/preprocessor</text>
<text text-anchor="middle" x="1148" y="-116.25" font-family="Helvetica,sans-Serif" font-size="10.00">/tuple.hpp</text>
</a>
</g>
</g>
<!-- Node29&#45;&gt;Node32 -->
<g id="edge46_Node000029_Node000032" class="edge">
<title>Node29&#45;&gt;Node32</title>
<g id="a_edge46_Node000029_Node000032"><a xlink:title=" ">
<path fill="none" stroke="#63b8ff" d="M1080.74,-176.61C1092.09,-168.2 1106.54,-157.48 1119.14,-148.14"/>
<polygon fill="#63b8ff" stroke="#63b8ff" points="1121.17,-151 1127.12,-142.23 1117,-145.37 1121.17,-151"/>
</a>
</g>
</g>
<!-- Node33 -->
<g id="Node000033" class="node">
<title>Node33</title>
<g id="a_Node000033"><a xlink:title=" ">
<polygon fill="#e0e0e0" stroke="#999999" points="1314.62,-141 1215.38,-141 1215.38,-110.5 1314.62,-110.5 1314.62,-141"/>
<text text-anchor="start" x="1223.38" y="-127.5" font-family="Helvetica,sans-Serif" font-size="10.00">boost/preprocessor</text>
<text text-anchor="middle" x="1265" y="-116.25" font-family="Helvetica,sans-Serif" font-size="10.00">/logical.hpp</text>
</a>
</g>
</g>
<!-- Node29&#45;&gt;Node33 -->
<g id="edge47_Node000029_Node000033" class="edge">
<title>Node29&#45;&gt;Node33</title>
<g id="a_edge47_Node000029_Node000033"><a xlink:title=" ">
<path fill="none" stroke="#63b8ff" d="M1107.55,-176.53C1137.32,-167.12 1176.14,-154.85 1207.79,-144.84"/>
<polygon fill="#63b8ff" stroke="#63b8ff" points="1208.73,-148.21 1217.21,-141.86 1206.62,-141.54 1208.73,-148.21"/>
</a>
</g>
</g>
<!-- Node34 -->
<g id="Node000034" class="node">
<title>Node34</title>
<g id="a_Node000034"><a xlink:title=" ">
<polygon fill="#e0e0e0" stroke="#999999" points="729.62,-141 630.38,-141 630.38,-110.5 729.62,-110.5 729.62,-141"/>
<text text-anchor="start" x="638.38" y="-127.5" font-family="Helvetica,sans-Serif" font-size="10.00">boost/preprocessor</text>
<text text-anchor="middle" x="680" y="-116.25" font-family="Helvetica,sans-Serif" font-size="10.00">/stringize.hpp</text>
</a>
</g>
</g>
<!-- Node29&#45;&gt;Node34 -->
<g id="edge48_Node000029_Node000034" class="edge">
<title>Node29&#45;&gt;Node34</title>
<g id="a_edge48_Node000029_Node000034"><a xlink:title=" ">
<path fill="none" stroke="#63b8ff" d="M990.81,-178.47C987.83,-177.97 984.89,-177.47 982,-177 877.42,-159.86 847.53,-161.94 741.16,-141.52"/>
<polygon fill="#63b8ff" stroke="#63b8ff" points="741.89,-138.09 731.41,-139.62 740.55,-144.97 741.89,-138.09"/>
</a>
</g>
</g>
<!-- Node35 -->
<g id="Node000035" class="node">
<title>Node35</title>
<g id="a_Node000035"><a xlink:title=" ">
<polygon fill="#e0e0e0" stroke="#999999" points="846.62,-141 747.38,-141 747.38,-110.5 846.62,-110.5 846.62,-141"/>
<text text-anchor="start" x="755.38" y="-127.5" font-family="Helvetica,sans-Serif" font-size="10.00">boost/preprocessor</text>
<text text-anchor="middle" x="797" y="-116.25" font-family="Helvetica,sans-Serif" font-size="10.00">/comparison.hpp</text>
</a>
</g>
</g>
<!-- Node29&#45;&gt;Node35 -->
<g id="edge49_Node000029_Node000035" class="edge">
<title>Node29&#45;&gt;Node35</title>
<g id="a_edge49_Node000029_Node000035"><a xlink:title=" ">
<path fill="none" stroke="#63b8ff" d="M1000.6,-176.54C962.19,-167.19 911.09,-154.72 857.99,-141.73"/>
<polygon fill="#63b8ff" stroke="#63b8ff" points="859,-138.37 848.46,-139.4 857.34,-145.17 859,-138.37"/>
</a>
</g>
</g>
</g>
</svg>
