<?xml version="1.0" encoding="UTF-8" standalone="no"?>
<!DOCTYPE svg PUBLIC "-//W3C//DTD SVG 1.1//EN"
 "http://www.w3.org/Graphics/SVG/1.1/DTD/svg11.dtd">
<!-- Generated by graphviz version 9.0.0 (20230911.1827)
 -->
<!-- Title: /github/workspace/dev_area/build/rcif/codegen/include/rcif/runinfo/InfoStructs.hpp Pages: 1 -->
<svg width="220pt" height="283pt"
 viewBox="0.00 0.00 220.38 283.00" xmlns="http://www.w3.org/2000/svg" xmlns:xlink="http://www.w3.org/1999/xlink">
<g id="graph0" class="graph" transform="scale(1 1) rotate(0) translate(4 279)">
<title>/github/workspace/dev_area/build/rcif/codegen/include/rcif/runinfo/InfoStructs.hpp</title>
<!-- Node1 -->
<g id="Node000001" class="node">
<title>Node1</title>
<g id="a_Node000001"><a xlink:title=" ">
<polygon fill="#999999" stroke="#666666" points="212.38,-275 44.88,-275 44.88,-233.25 212.38,-233.25 212.38,-275"/>
<text text-anchor="start" x="52.88" y="-261.5" font-family="Helvetica,sans-Serif" font-size="10.00">/github/workspace/dev</text>
<text text-anchor="start" x="52.88" y="-250.25" font-family="Helvetica,sans-Serif" font-size="10.00">_area/build/rcif/codegen</text>
<text text-anchor="middle" x="128.62" y="-239" font-family="Helvetica,sans-Serif" font-size="10.00">/include/rcif/runinfo/InfoStructs.hpp</text>
</a>
</g>
</g>
<!-- Node2 -->
<g id="Node000002" class="node">
<title>Node2</title>
<g id="a_Node000002"><a xlink:href="rcif_2codegen_2include_2rcif_2runinfo_2InfoNljs_8hpp.html" target="_top" xlink:title=" ">
<polygon fill="white" stroke="#666666" points="153.25,-197.25 0,-197.25 0,-155.5 153.25,-155.5 153.25,-197.25"/>
<text text-anchor="start" x="8" y="-183.75" font-family="Helvetica,sans-Serif" font-size="10.00">/github/workspace/dev</text>
<text text-anchor="start" x="8" y="-172.5" font-family="Helvetica,sans-Serif" font-size="10.00">_area/build/rcif/codegen</text>
<text text-anchor="middle" x="76.62" y="-161.25" font-family="Helvetica,sans-Serif" font-size="10.00">/include/rcif/runinfo/InfoNljs.hpp</text>
</a>
</g>
</g>
<!-- Node1&#45;&gt;Node2 -->
<g id="edge1_Node000001_Node000002" class="edge">
<title>Node1&#45;&gt;Node2</title>
<g id="a_edge1_Node000001_Node000002"><a xlink:title=" ">
<path fill="none" stroke="#63b8ff" d="M108.26,-223.45C102.34,-214.84 96.02,-205.63 90.6,-197.73"/>
<polygon fill="#63b8ff" stroke="#63b8ff" points="105.29,-225.31 113.83,-231.58 111.06,-221.35 105.29,-225.31"/>
</a>
</g>
</g>
<!-- Node4 -->
<g id="Node000004" class="node">
<title>Node4</title>
<g id="a_Node000004"><a xlink:href="sourcecode_2appfwk_2src_2Application_8hpp.html" target="_top" xlink:title=" ">
<polygon fill="white" stroke="#666666" points="193.5,-41.75 65.75,-41.75 65.75,0 193.5,0 193.5,-41.75"/>
<text text-anchor="start" x="73.75" y="-28.25" font-family="Helvetica,sans-Serif" font-size="10.00">/github/workspace/dev</text>
<text text-anchor="start" x="73.75" y="-17" font-family="Helvetica,sans-Serif" font-size="10.00">_area/sourcecode/appfwk</text>
<text text-anchor="middle" x="129.62" y="-5.75" font-family="Helvetica,sans-Serif" font-size="10.00">/src/Application.hpp</text>
</a>
</g>
</g>
<!-- Node1&#45;&gt;Node4 -->
<g id="edge4_Node000001_Node000004" class="edge">
<title>Node1&#45;&gt;Node4</title>
<g id="a_edge4_Node000001_Node000004"><a xlink:title=" ">
<path fill="none" stroke="#63b8ff" d="M150.86,-223.28C155.69,-215.23 160.1,-206.24 162.62,-197.25 168.62,-175.85 158.4,-84.33 156.62,-77.75 153.28,-65.37 147.22,-52.43 141.68,-42.12"/>
<polygon fill="#63b8ff" stroke="#63b8ff" points="147.95,-221.34 145.46,-231.64 153.83,-225.14 147.95,-221.34"/>
</a>
</g>
</g>
<!-- Node3 -->
<g id="Node000003" class="node">
<title>Node3</title>
<g id="a_Node000003"><a xlink:href="Application_8hxx.html" target="_top" xlink:title=" ">
<polygon fill="white" stroke="#666666" points="147.5,-119.5 19.75,-119.5 19.75,-77.75 147.5,-77.75 147.5,-119.5"/>
<text text-anchor="start" x="27.75" y="-106" font-family="Helvetica,sans-Serif" font-size="10.00">/github/workspace/dev</text>
<text text-anchor="start" x="27.75" y="-94.75" font-family="Helvetica,sans-Serif" font-size="10.00">_area/sourcecode/appfwk</text>
<text text-anchor="middle" x="83.62" y="-83.5" font-family="Helvetica,sans-Serif" font-size="10.00">/src/detail/Application.hxx</text>
</a>
</g>
</g>
<!-- Node2&#45;&gt;Node3 -->
<g id="edge2_Node000002_Node000003" class="edge">
<title>Node2&#45;&gt;Node3</title>
<g id="a_edge2_Node000002_Node000003"><a xlink:title=" ">
<path fill="none" stroke="#63b8ff" d="M79.55,-143.75C80.29,-135.71 81.07,-127.29 81.74,-119.98"/>
<polygon fill="#63b8ff" stroke="#63b8ff" points="76.08,-143.29 78.64,-153.57 83.05,-143.93 76.08,-143.29"/>
</a>
</g>
</g>
<!-- Node3&#45;&gt;Node4 -->
<g id="edge3_Node000003_Node000004" class="edge">
<title>Node3&#45;&gt;Node4</title>
<g id="a_edge3_Node000003_Node000004"><a xlink:title=" ">
<path fill="none" stroke="#63b8ff" d="M101.81,-67.68C106.99,-59.14 112.52,-50.05 117.26,-42.23"/>
<polygon fill="#63b8ff" stroke="#63b8ff" points="98.94,-65.67 96.74,-76.03 104.92,-69.3 98.94,-65.67"/>
</a>
</g>
</g>
</g>
</svg>
