<?xml version="1.0" encoding="UTF-8" standalone="no"?>
<!DOCTYPE svg PUBLIC "-//W3C//DTD SVG 1.1//EN"
 "http://www.w3.org/Graphics/SVG/1.1/DTD/svg11.dtd">
<!-- Generated by graphviz version 9.0.0 (20230911.1827)
 -->
<!-- Title: /github/workspace/dev_area/sourcecode/readoutlibs/include/readoutlibs/concepts/SourceConcept.hpp Pages: 1 -->
<svg width="702pt" height="228pt"
 viewBox="0.00 0.00 702.00 227.75" xmlns="http://www.w3.org/2000/svg" xmlns:xlink="http://www.w3.org/1999/xlink">
<g id="graph0" class="graph" transform="scale(1 1) rotate(0) translate(4 223.75)">
<title>/github/workspace/dev_area/sourcecode/readoutlibs/include/readoutlibs/concepts/SourceConcept.hpp</title>
<!-- Node1 -->
<g id="Node000001" class="node">
<title>Node1</title>
<g id="a_Node000001"><a xlink:title=" ">
<polygon fill="#999999" stroke="#666666" points="402.5,-219.75 259,-219.75 259,-166.75 402.5,-166.75 402.5,-219.75"/>
<text text-anchor="start" x="267" y="-206.25" font-family="Helvetica,sans-Serif" font-size="10.00">/github/workspace/dev</text>
<text text-anchor="start" x="267" y="-195" font-family="Helvetica,sans-Serif" font-size="10.00">_area/sourcecode/readoutlibs</text>
<text text-anchor="start" x="267" y="-183.75" font-family="Helvetica,sans-Serif" font-size="10.00">/include/readoutlibs/concepts</text>
<text text-anchor="middle" x="330.75" y="-172.5" font-family="Helvetica,sans-Serif" font-size="10.00">/SourceConcept.hpp</text>
</a>
</g>
</g>
<!-- Node2 -->
<g id="Node000002" class="node">
<title>Node2</title>
<g id="a_Node000002"><a xlink:href="DataSubscriberModel_8hpp.html" target="_top" xlink:title=" ">
<polygon fill="white" stroke="#666666" points="143.5,-130.75 0,-130.75 0,-77.75 143.5,-77.75 143.5,-130.75"/>
<text text-anchor="start" x="8" y="-117.25" font-family="Helvetica,sans-Serif" font-size="10.00">/github/workspace/dev</text>
<text text-anchor="start" x="8" y="-106" font-family="Helvetica,sans-Serif" font-size="10.00">_area/sourcecode/readoutlibs</text>
<text text-anchor="start" x="8" y="-94.75" font-family="Helvetica,sans-Serif" font-size="10.00">/include/readoutlibs/models</text>
<text text-anchor="middle" x="71.75" y="-83.5" font-family="Helvetica,sans-Serif" font-size="10.00">/DataSubscriberModel.hpp</text>
</a>
</g>
</g>
<!-- Node1&#45;&gt;Node2 -->
<g id="edge1_Node000001_Node000002" class="edge">
<title>Node1&#45;&gt;Node2</title>
<g id="a_edge1_Node000001_Node000002"><a xlink:title=" ">
<path fill="none" stroke="#63b8ff" d="M247.93,-164.43C214.48,-153.2 176.25,-140.35 143.96,-129.51"/>
<polygon fill="#63b8ff" stroke="#63b8ff" points="246.58,-167.67 257.17,-167.53 248.8,-161.03 246.58,-167.67"/>
</a>
</g>
</g>
<!-- Node4 -->
<g id="Node000004" class="node">
<title>Node4</title>
<g id="a_Node000004"><a xlink:href="HSISourceModel_8hpp.html" target="_top" xlink:title=" ">
<polygon fill="white" stroke="#666666" points="319.62,-125.12 161.88,-125.12 161.88,-83.38 319.62,-83.38 319.62,-125.12"/>
<text text-anchor="start" x="169.88" y="-111.62" font-family="Helvetica,sans-Serif" font-size="10.00">/github/workspace/dev</text>
<text text-anchor="start" x="169.88" y="-100.38" font-family="Helvetica,sans-Serif" font-size="10.00">_area/sourcecode/trigger</text>
<text text-anchor="middle" x="240.75" y="-89.12" font-family="Helvetica,sans-Serif" font-size="10.00">/src/trigger/HSISourceModel.hpp</text>
</a>
</g>
</g>
<!-- Node1&#45;&gt;Node4 -->
<g id="edge3_Node000001_Node000004" class="edge">
<title>Node1&#45;&gt;Node4</title>
<g id="a_edge3_Node000001_Node000004"><a xlink:title=" ">
<path fill="none" stroke="#63b8ff" d="M296.01,-158.67C284.42,-147.46 271.87,-135.33 261.66,-125.46"/>
<polygon fill="#63b8ff" stroke="#63b8ff" points="293.52,-161.13 303.15,-165.57 298.39,-156.1 293.52,-161.13"/>
</a>
</g>
</g>
<!-- Node5 -->
<g id="Node000005" class="node">
<title>Node5</title>
<g id="a_Node000005"><a xlink:href="TPSetSourceModel_8hpp.html" target="_top" xlink:title=" ">
<polygon fill="white" stroke="#666666" points="505.88,-125.12 337.62,-125.12 337.62,-83.38 505.88,-83.38 505.88,-125.12"/>
<text text-anchor="start" x="345.62" y="-111.62" font-family="Helvetica,sans-Serif" font-size="10.00">/github/workspace/dev</text>
<text text-anchor="start" x="345.62" y="-100.38" font-family="Helvetica,sans-Serif" font-size="10.00">_area/sourcecode/trigger</text>
<text text-anchor="middle" x="421.75" y="-89.12" font-family="Helvetica,sans-Serif" font-size="10.00">/src/trigger/TPSetSourceModel.hpp</text>
</a>
</g>
</g>
<!-- Node1&#45;&gt;Node5 -->
<g id="edge4_Node000001_Node000005" class="edge">
<title>Node1&#45;&gt;Node5</title>
<g id="a_edge4_Node000001_Node000005"><a xlink:title=" ">
<path fill="none" stroke="#63b8ff" d="M365.88,-158.67C377.6,-147.46 390.29,-135.33 400.61,-125.46"/>
<polygon fill="#63b8ff" stroke="#63b8ff" points="363.46,-156.13 358.65,-165.57 368.3,-161.19 363.46,-156.13"/>
</a>
</g>
</g>
<!-- Node6 -->
<g id="Node000006" class="node">
<title>Node6</title>
<g id="a_Node000006"><a xlink:href="TriggerSourceModel_8hpp.html" target="_top" xlink:title=" ">
<polygon fill="white" stroke="#666666" points="694,-125.12 523.5,-125.12 523.5,-83.38 694,-83.38 694,-125.12"/>
<text text-anchor="start" x="531.5" y="-111.62" font-family="Helvetica,sans-Serif" font-size="10.00">/github/workspace/dev</text>
<text text-anchor="start" x="531.5" y="-100.38" font-family="Helvetica,sans-Serif" font-size="10.00">_area/sourcecode/trigger</text>
<text text-anchor="middle" x="608.75" y="-89.12" font-family="Helvetica,sans-Serif" font-size="10.00">/src/trigger/TriggerSourceModel.hpp</text>
</a>
</g>
</g>
<!-- Node1&#45;&gt;Node6 -->
<g id="edge5_Node000001_Node000006" class="edge">
<title>Node1&#45;&gt;Node6</title>
<g id="a_edge5_Node000001_Node000006"><a xlink:title=" ">
<path fill="none" stroke="#63b8ff" d="M413.65,-166.31C455.27,-153.28 504.94,-137.74 543.75,-125.59"/>
<polygon fill="#63b8ff" stroke="#63b8ff" points="412.65,-162.95 404.15,-169.28 414.74,-169.63 412.65,-162.95"/>
</a>
</g>
</g>
<!-- Node3 -->
<g id="Node000003" class="node">
<title>Node3</title>
<g id="a_Node000003"><a xlink:href="Readoutlibs_8cpp.html" target="_top" xlink:title=" ">
<polygon fill="white" stroke="#666666" points="143.5,-41.75 0,-41.75 0,0 143.5,0 143.5,-41.75"/>
<text text-anchor="start" x="8" y="-28.25" font-family="Helvetica,sans-Serif" font-size="10.00">/github/workspace/dev</text>
<text text-anchor="start" x="8" y="-17" font-family="Helvetica,sans-Serif" font-size="10.00">_area/sourcecode/readoutlibs</text>
<text text-anchor="middle" x="71.75" y="-5.75" font-family="Helvetica,sans-Serif" font-size="10.00">/src/Readoutlibs.cpp</text>
</a>
</g>
</g>
<!-- Node2&#45;&gt;Node3 -->
<g id="edge2_Node000002_Node000003" class="edge">
<title>Node2&#45;&gt;Node3</title>
<g id="a_edge2_Node000002_Node000003"><a xlink:title=" ">
<path fill="none" stroke="#63b8ff" d="M71.75,-66.08C71.75,-57.8 71.75,-49.33 71.75,-42.04"/>
<polygon fill="#63b8ff" stroke="#63b8ff" points="68.25,-65.99 71.75,-75.99 75.25,-65.99 68.25,-65.99"/>
</a>
</g>
</g>
</g>
</svg>
