<?xml version="1.0" encoding="UTF-8" standalone="no"?>
<!DOCTYPE svg PUBLIC "-//W3C//DTD SVG 1.1//EN"
 "http://www.w3.org/Graphics/SVG/1.1/DTD/svg11.dtd">
<!-- Generated by graphviz version 9.0.0 (20230911.1827)
 -->
<!-- Title: /github/workspace/dev_area/build/readoutlibs/codegen/include/readoutlibs/recorderinfo/InfoNljs.hpp Pages: 1 -->
<svg width="240pt" height="183pt"
 viewBox="0.00 0.00 240.12 182.75" xmlns="http://www.w3.org/2000/svg" xmlns:xlink="http://www.w3.org/1999/xlink">
<g id="graph0" class="graph" transform="scale(1 1) rotate(0) translate(4 178.75)">
<title>/github/workspace/dev_area/build/readoutlibs/codegen/include/readoutlibs/recorderinfo/InfoNljs.hpp</title>
<!-- Node1 -->
<g id="Node000001" class="node">
<title>Node1</title>
<g id="a_Node000001"><a xlink:title=" ">
<polygon fill="#999999" stroke="#666666" points="190.5,-174.75 50.75,-174.75 50.75,-121.75 190.5,-121.75 190.5,-174.75"/>
<text text-anchor="start" x="58.75" y="-161.25" font-family="Helvetica,sans-Serif" font-size="10.00">/github/workspace/dev</text>
<text text-anchor="start" x="58.75" y="-150" font-family="Helvetica,sans-Serif" font-size="10.00">_area/build/readoutlibs</text>
<text text-anchor="start" x="58.75" y="-138.75" font-family="Helvetica,sans-Serif" font-size="10.00">/codegen/include/readoutlibs</text>
<text text-anchor="middle" x="120.62" y="-127.5" font-family="Helvetica,sans-Serif" font-size="10.00">/recorderinfo/InfoNljs.hpp</text>
</a>
</g>
</g>
<!-- Node2 -->
<g id="Node000002" class="node">
<title>Node2</title>
<g id="a_Node000002"><a xlink:href="readoutlibs_2codegen_2include_2readoutlibs_2recorderinfo_2InfoStructs_8hpp.html" target="_top" xlink:title=" ">
<polygon fill="white" stroke="#666666" points="117.25,-85.75 0,-85.75 0,-55.25 117.25,-55.25 117.25,-85.75"/>
<text text-anchor="start" x="8" y="-72.25" font-family="Helvetica,sans-Serif" font-size="10.00">readoutlibs/recorderinfo</text>
<text text-anchor="middle" x="58.62" y="-61" font-family="Helvetica,sans-Serif" font-size="10.00">/InfoStructs.hpp</text>
</a>
</g>
</g>
<!-- Node1&#45;&gt;Node2 -->
<g id="edge1_Node000001_Node000002" class="edge">
<title>Node1&#45;&gt;Node2</title>
<g id="a_edge1_Node000001_Node000002"><a xlink:title=" ">
<path fill="none" stroke="#63b8ff" d="M99.63,-121.6C92.51,-112.9 84.6,-103.24 77.65,-94.74"/>
<polygon fill="#63b8ff" stroke="#63b8ff" points="80.55,-92.76 71.51,-87.24 75.14,-97.2 80.55,-92.76"/>
</a>
</g>
</g>
<!-- Node4 -->
<g id="Node000004" class="node">
<title>Node4</title>
<g id="a_Node000004"><a xlink:title=" ">
<polygon fill="#e0e0e0" stroke="#999999" points="232.12,-80.12 135.12,-80.12 135.12,-60.88 232.12,-60.88 232.12,-80.12"/>
<text text-anchor="middle" x="183.62" y="-66.62" font-family="Helvetica,sans-Serif" font-size="10.00">nlohmann/json.hpp</text>
</a>
</g>
</g>
<!-- Node1&#45;&gt;Node4 -->
<g id="edge3_Node000001_Node000004" class="edge">
<title>Node1&#45;&gt;Node4</title>
<g id="a_edge3_Node000001_Node000004"><a xlink:title=" ">
<path fill="none" stroke="#63b8ff" d="M141.95,-121.6C150.84,-110.92 160.94,-98.77 168.97,-89.12"/>
<polygon fill="#63b8ff" stroke="#63b8ff" points="171.52,-91.53 175.22,-81.6 166.14,-87.05 171.52,-91.53"/>
</a>
</g>
</g>
<!-- Node3 -->
<g id="Node000003" class="node">
<title>Node3</title>
<g id="a_Node000003"><a xlink:title=" ">
<polygon fill="#e0e0e0" stroke="#999999" points="81.25,-19.25 36,-19.25 36,0 81.25,0 81.25,-19.25"/>
<text text-anchor="middle" x="58.62" y="-5.75" font-family="Helvetica,sans-Serif" font-size="10.00">cstdint</text>
</a>
</g>
</g>
<!-- Node2&#45;&gt;Node3 -->
<g id="edge2_Node000002_Node000003" class="edge">
<title>Node2&#45;&gt;Node3</title>
<g id="a_edge2_Node000002_Node000003"><a xlink:title=" ">
<path fill="none" stroke="#63b8ff" d="M58.62,-54.95C58.62,-47.71 58.62,-38.84 58.62,-30.94"/>
<polygon fill="#63b8ff" stroke="#63b8ff" points="62.13,-31.21 58.63,-21.21 55.13,-31.21 62.13,-31.21"/>
</a>
</g>
</g>
</g>
</svg>
