<?xml version="1.0" encoding="UTF-8" standalone="no"?>
<!DOCTYPE svg PUBLIC "-//W3C//DTD SVG 1.1//EN"
 "http://www.w3.org/Graphics/SVG/1.1/DTD/svg11.dtd">
<!-- Generated by graphviz version 9.0.0 (20230911.1827)
 -->
<!-- Title: /github/workspace/dev_area/build/readoutlibs/codegen/include/readoutlibs/readoutinfo/InfoStructs.hpp Pages: 1 -->
<svg width="1106pt" height="484pt"
 viewBox="0.00 0.00 1105.62 483.50" xmlns="http://www.w3.org/2000/svg" xmlns:xlink="http://www.w3.org/1999/xlink">
<g id="graph0" class="graph" transform="scale(1 1) rotate(0) translate(4 479.5)">
<title>/github/workspace/dev_area/build/readoutlibs/codegen/include/readoutlibs/readoutinfo/InfoStructs.hpp</title>
<!-- Node1 -->
<g id="Node000001" class="node">
<title>Node1</title>
<g id="a_Node000001"><a xlink:title=" ">
<polygon fill="#999999" stroke="#666666" points="808.75,-475.5 669,-475.5 669,-422.5 808.75,-422.5 808.75,-475.5"/>
<text text-anchor="start" x="677" y="-462" font-family="Helvetica,sans-Serif" font-size="10.00">/github/workspace/dev</text>
<text text-anchor="start" x="677" y="-450.75" font-family="Helvetica,sans-Serif" font-size="10.00">_area/build/readoutlibs</text>
<text text-anchor="start" x="677" y="-439.5" font-family="Helvetica,sans-Serif" font-size="10.00">/codegen/include/readoutlibs</text>
<text text-anchor="middle" x="738.88" y="-428.25" font-family="Helvetica,sans-Serif" font-size="10.00">/readoutinfo/InfoStructs.hpp</text>
</a>
</g>
</g>
<!-- Node2 -->
<g id="Node000002" class="node">
<title>Node2</title>
<g id="a_Node000002"><a xlink:href="readoutlibs_2codegen_2include_2readoutlibs_2readoutinfo_2InfoNljs_8hpp.html" target="_top" xlink:title=" ">
<polygon fill="white" stroke="#666666" points="808.75,-386.5 669,-386.5 669,-333.5 808.75,-333.5 808.75,-386.5"/>
<text text-anchor="start" x="677" y="-373" font-family="Helvetica,sans-Serif" font-size="10.00">/github/workspace/dev</text>
<text text-anchor="start" x="677" y="-361.75" font-family="Helvetica,sans-Serif" font-size="10.00">_area/build/readoutlibs</text>
<text text-anchor="start" x="677" y="-350.5" font-family="Helvetica,sans-Serif" font-size="10.00">/codegen/include/readoutlibs</text>
<text text-anchor="middle" x="738.88" y="-339.25" font-family="Helvetica,sans-Serif" font-size="10.00">/readoutinfo/InfoNljs.hpp</text>
</a>
</g>
</g>
<!-- Node1&#45;&gt;Node2 -->
<g id="edge1_Node000001_Node000002" class="edge">
<title>Node1&#45;&gt;Node2</title>
<g id="a_edge1_Node000001_Node000002"><a xlink:title=" ">
<path fill="none" stroke="#63b8ff" d="M738.88,-411.11C738.88,-402.91 738.88,-394.39 738.88,-386.75"/>
<polygon fill="#63b8ff" stroke="#63b8ff" points="735.38,-410.85 738.88,-420.85 742.38,-410.85 735.38,-410.85"/>
</a>
</g>
</g>
<!-- Node3 -->
<g id="Node000003" class="node">
<title>Node3</title>
<g id="a_Node000003"><a xlink:href="WIBEthFrameProcessor_8cpp.html" target="_top" xlink:title=" ">
<polygon fill="white" stroke="#666666" points="638.88,-291.88 448.88,-291.88 448.88,-250.12 638.88,-250.12 638.88,-291.88"/>
<text text-anchor="start" x="456.88" y="-278.38" font-family="Helvetica,sans-Serif" font-size="10.00">/github/workspace/dev</text>
<text text-anchor="start" x="456.88" y="-267.12" font-family="Helvetica,sans-Serif" font-size="10.00">_area/sourcecode/fdreadoutlibs</text>
<text text-anchor="middle" x="543.88" y="-255.88" font-family="Helvetica,sans-Serif" font-size="10.00">/src/wibeth/WIBEthFrameProcessor.cpp</text>
</a>
</g>
</g>
<!-- Node2&#45;&gt;Node3 -->
<g id="edge2_Node000002_Node000003" class="edge">
<title>Node2&#45;&gt;Node3</title>
<g id="a_edge2_Node000002_Node000003"><a xlink:title=" ">
<path fill="none" stroke="#63b8ff" d="M670.16,-328.34C643.4,-316.4 613.46,-303.04 589.45,-292.33"/>
<polygon fill="#63b8ff" stroke="#63b8ff" points="668.69,-331.52 679.25,-332.4 671.54,-325.13 668.69,-331.52"/>
</a>
</g>
</g>
<!-- Node4 -->
<g id="Node000004" class="node">
<title>Node4</title>
<g id="a_Node000004"><a xlink:href="DefaultRequestHandlerModel_8hpp.html" target="_top" xlink:title=" ">
<polygon fill="white" stroke="#666666" points="820.75,-297.5 657,-297.5 657,-244.5 820.75,-244.5 820.75,-297.5"/>
<text text-anchor="start" x="665" y="-284" font-family="Helvetica,sans-Serif" font-size="10.00">/github/workspace/dev</text>
<text text-anchor="start" x="665" y="-272.75" font-family="Helvetica,sans-Serif" font-size="10.00">_area/sourcecode/readoutlibs</text>
<text text-anchor="start" x="665" y="-261.5" font-family="Helvetica,sans-Serif" font-size="10.00">/include/readoutlibs/models</text>
<text text-anchor="middle" x="738.88" y="-250.25" font-family="Helvetica,sans-Serif" font-size="10.00">/DefaultRequestHandlerModel.hpp</text>
</a>
</g>
</g>
<!-- Node2&#45;&gt;Node4 -->
<g id="edge3_Node000002_Node000004" class="edge">
<title>Node2&#45;&gt;Node4</title>
<g id="a_edge3_Node000002_Node000004"><a xlink:title=" ">
<path fill="none" stroke="#63b8ff" d="M738.88,-322.11C738.88,-313.91 738.88,-305.39 738.88,-297.75"/>
<polygon fill="#63b8ff" stroke="#63b8ff" points="735.38,-321.85 738.88,-331.85 742.38,-321.85 735.38,-321.85"/>
</a>
</g>
</g>
<!-- Node14 -->
<g id="Node000014" class="node">
<title>Node14</title>
<g id="a_Node000014"><a xlink:href="ReadoutModel_8hpp.html" target="_top" xlink:title=" ">
<polygon fill="white" stroke="#666666" points="1097.62,-297.5 954.12,-297.5 954.12,-244.5 1097.62,-244.5 1097.62,-297.5"/>
<text text-anchor="start" x="962.12" y="-284" font-family="Helvetica,sans-Serif" font-size="10.00">/github/workspace/dev</text>
<text text-anchor="start" x="962.12" y="-272.75" font-family="Helvetica,sans-Serif" font-size="10.00">_area/sourcecode/readoutlibs</text>
<text text-anchor="start" x="962.12" y="-261.5" font-family="Helvetica,sans-Serif" font-size="10.00">/include/readoutlibs/models</text>
<text text-anchor="middle" x="1025.88" y="-250.25" font-family="Helvetica,sans-Serif" font-size="10.00">/ReadoutModel.hpp</text>
</a>
</g>
</g>
<!-- Node2&#45;&gt;Node14 -->
<g id="edge15_Node000002_Node000014" class="edge">
<title>Node2&#45;&gt;Node14</title>
<g id="a_edge15_Node000002_Node000014"><a xlink:title=" ">
<path fill="none" stroke="#63b8ff" d="M819.86,-334.45C861.93,-321.7 912.92,-306.24 953.65,-293.9"/>
<polygon fill="#63b8ff" stroke="#63b8ff" points="819.09,-331.03 810.53,-337.28 821.12,-337.73 819.09,-331.03"/>
</a>
</g>
</g>
<!-- Node5 -->
<g id="Node000005" class="node">
<title>Node5</title>
<g id="a_Node000005"><a xlink:href="DAPHNEListRequestHandler_8hpp.html" target="_top" xlink:title=" ">
<polygon fill="white" stroke="#666666" points="360.12,-208.5 195.62,-208.5 195.62,-155.5 360.12,-155.5 360.12,-208.5"/>
<text text-anchor="start" x="203.62" y="-195" font-family="Helvetica,sans-Serif" font-size="10.00">/github/workspace/dev</text>
<text text-anchor="start" x="203.62" y="-183.75" font-family="Helvetica,sans-Serif" font-size="10.00">_area/sourcecode/fdreadoutlibs</text>
<text text-anchor="start" x="203.62" y="-172.5" font-family="Helvetica,sans-Serif" font-size="10.00">/include/fdreadoutlibs/daphne</text>
<text text-anchor="middle" x="277.88" y="-161.25" font-family="Helvetica,sans-Serif" font-size="10.00">/DAPHNEListRequestHandler.hpp</text>
</a>
</g>
</g>
<!-- Node4&#45;&gt;Node5 -->
<g id="edge4_Node000004_Node000005" class="edge">
<title>Node4&#45;&gt;Node5</title>
<g id="a_edge4_Node000004_Node000005"><a xlink:title=" ">
<path fill="none" stroke="#63b8ff" d="M645.43,-244.13C528.14,-220.86 494.34,-230.42 379.88,-208.5 373.51,-207.28 366.95,-205.91 360.37,-204.45"/>
<polygon fill="#63b8ff" stroke="#63b8ff" points="644.68,-247.55 655.18,-246.11 646.07,-240.69 644.68,-247.55"/>
</a>
</g>
</g>
<!-- Node8 -->
<g id="Node000008" class="node">
<title>Node8</title>
<g id="a_Node000008"><a xlink:href="DefaultSkipListRequestHandler_8hpp.html" target="_top" xlink:title=" ">
<polygon fill="white" stroke="#666666" points="562.62,-208.5 389.12,-208.5 389.12,-155.5 562.62,-155.5 562.62,-208.5"/>
<text text-anchor="start" x="397.12" y="-195" font-family="Helvetica,sans-Serif" font-size="10.00">/github/workspace/dev</text>
<text text-anchor="start" x="397.12" y="-183.75" font-family="Helvetica,sans-Serif" font-size="10.00">_area/sourcecode/readoutlibs</text>
<text text-anchor="start" x="397.12" y="-172.5" font-family="Helvetica,sans-Serif" font-size="10.00">/include/readoutlibs/models</text>
<text text-anchor="middle" x="475.88" y="-161.25" font-family="Helvetica,sans-Serif" font-size="10.00">/DefaultSkipListRequestHandler.hpp</text>
</a>
</g>
</g>
<!-- Node4&#45;&gt;Node8 -->
<g id="edge7_Node000004_Node000008" class="edge">
<title>Node4&#45;&gt;Node8</title>
<g id="a_edge7_Node000004_Node000008"><a xlink:title=" ">
<path fill="none" stroke="#63b8ff" d="M649.52,-240.44C618.53,-230.19 584.04,-218.78 554.02,-208.85"/>
<polygon fill="#63b8ff" stroke="#63b8ff" points="648.29,-243.72 658.89,-243.54 650.49,-237.08 648.29,-243.72"/>
</a>
</g>
</g>
<!-- Node11 -->
<g id="Node000011" class="node">
<title>Node11</title>
<g id="a_Node000011"><a xlink:href="EmptyFragmentRequestHandlerModel_8hpp.html" target="_top" xlink:title=" ">
<polygon fill="white" stroke="#666666" points="781.5,-208.5 580.25,-208.5 580.25,-155.5 781.5,-155.5 781.5,-208.5"/>
<text text-anchor="start" x="588.25" y="-195" font-family="Helvetica,sans-Serif" font-size="10.00">/github/workspace/dev</text>
<text text-anchor="start" x="588.25" y="-183.75" font-family="Helvetica,sans-Serif" font-size="10.00">_area/sourcecode/readoutlibs</text>
<text text-anchor="start" x="588.25" y="-172.5" font-family="Helvetica,sans-Serif" font-size="10.00">/include/readoutlibs/models</text>
<text text-anchor="middle" x="680.88" y="-161.25" font-family="Helvetica,sans-Serif" font-size="10.00">/EmptyFragmentRequestHandlerModel.hpp</text>
</a>
</g>
</g>
<!-- Node4&#45;&gt;Node11 -->
<g id="edge10_Node000004_Node000011" class="edge">
<title>Node4&#45;&gt;Node11</title>
<g id="a_edge10_Node000004_Node000011"><a xlink:title=" ">
<path fill="none" stroke="#63b8ff" d="M715.41,-234.8C709.6,-226.09 703.49,-216.92 698.04,-208.75"/>
<polygon fill="#63b8ff" stroke="#63b8ff" points="712.49,-236.73 720.95,-243.11 718.31,-232.85 712.49,-236.73"/>
</a>
</g>
</g>
<!-- Node12 -->
<g id="Node000012" class="node">
<title>Node12</title>
<g id="a_Node000012"><a xlink:href="Readoutlibs_8cpp.html" target="_top" xlink:title=" ">
<polygon fill="white" stroke="#666666" points="949.62,-119.5 806.12,-119.5 806.12,-77.75 949.62,-77.75 949.62,-119.5"/>
<text text-anchor="start" x="814.12" y="-106" font-family="Helvetica,sans-Serif" font-size="10.00">/github/workspace/dev</text>
<text text-anchor="start" x="814.12" y="-94.75" font-family="Helvetica,sans-Serif" font-size="10.00">_area/sourcecode/readoutlibs</text>
<text text-anchor="middle" x="877.88" y="-83.5" font-family="Helvetica,sans-Serif" font-size="10.00">/src/Readoutlibs.cpp</text>
</a>
</g>
</g>
<!-- Node4&#45;&gt;Node12 -->
<g id="edge14_Node000004_Node000012" class="edge">
<title>Node4&#45;&gt;Node12</title>
<g id="a_edge14_Node000004_Node000012"><a xlink:title=" ">
<path fill="none" stroke="#63b8ff" d="M769.02,-235.33C776.31,-226.67 783.99,-217.34 790.88,-208.5 808.69,-185.64 810.85,-178.2 828.88,-155.5 838.5,-143.37 849.87,-130.34 859.23,-119.91"/>
<polygon fill="#63b8ff" stroke="#63b8ff" points="766.4,-233.01 762.59,-242.89 771.74,-237.54 766.4,-233.01"/>
</a>
</g>
</g>
<!-- Node13 -->
<g id="Node000013" class="node">
<title>Node13</title>
<g id="a_Node000013"><a xlink:href="ZeroCopyRecordingRequestHandlerModel_8hpp.html" target="_top" xlink:title=" ">
<polygon fill="white" stroke="#666666" points="1055.75,-208.5 838,-208.5 838,-155.5 1055.75,-155.5 1055.75,-208.5"/>
<text text-anchor="start" x="846" y="-195" font-family="Helvetica,sans-Serif" font-size="10.00">/github/workspace/dev</text>
<text text-anchor="start" x="846" y="-183.75" font-family="Helvetica,sans-Serif" font-size="10.00">_area/sourcecode/readoutlibs</text>
<text text-anchor="start" x="846" y="-172.5" font-family="Helvetica,sans-Serif" font-size="10.00">/include/readoutlibs/models</text>
<text text-anchor="middle" x="946.88" y="-161.25" font-family="Helvetica,sans-Serif" font-size="10.00">/ZeroCopyRecordingRequestHandlerModel.hpp</text>
</a>
</g>
</g>
<!-- Node4&#45;&gt;Node13 -->
<g id="edge12_Node000004_Node000013" class="edge">
<title>Node4&#45;&gt;Node13</title>
<g id="a_edge12_Node000004_Node000013"><a xlink:title=" ">
<path fill="none" stroke="#63b8ff" d="M811.48,-239.63C835.48,-229.59 861.95,-218.52 885.07,-208.85"/>
<polygon fill="#63b8ff" stroke="#63b8ff" points="810.27,-236.34 802.4,-243.43 812.97,-242.8 810.27,-236.34"/>
</a>
</g>
</g>
<!-- Node6 -->
<g id="Node000006" class="node">
<title>Node6</title>
<g id="a_Node000006"><a xlink:href="FDReadoutlibs_8cpp.html" target="_top" xlink:title=" ">
<polygon fill="white" stroke="#666666" points="151.75,-119.5 0,-119.5 0,-77.75 151.75,-77.75 151.75,-119.5"/>
<text text-anchor="start" x="8" y="-106" font-family="Helvetica,sans-Serif" font-size="10.00">/github/workspace/dev</text>
<text text-anchor="start" x="8" y="-94.75" font-family="Helvetica,sans-Serif" font-size="10.00">_area/sourcecode/fdreadoutlibs</text>
<text text-anchor="middle" x="75.88" y="-83.5" font-family="Helvetica,sans-Serif" font-size="10.00">/src/FDReadoutlibs.cpp</text>
</a>
</g>
</g>
<!-- Node5&#45;&gt;Node6 -->
<g id="edge5_Node000005_Node000006" class="edge">
<title>Node5&#45;&gt;Node6</title>
<g id="a_edge5_Node000005_Node000006"><a xlink:title=" ">
<path fill="none" stroke="#63b8ff" d="M203,-150.84C177.44,-140.54 149.49,-129.28 126.31,-119.94"/>
<polygon fill="#63b8ff" stroke="#63b8ff" points="201.42,-153.97 212,-154.46 204.03,-147.48 201.42,-153.97"/>
</a>
</g>
</g>
<!-- Node7 -->
<g id="Node000007" class="node">
<title>Node7</title>
<g id="a_Node000007"><a xlink:href="DAPHNEListRequestHandler_8cpp.html" target="_top" xlink:title=" ">
<polygon fill="white" stroke="#666666" points="385.62,-119.5 170.12,-119.5 170.12,-77.75 385.62,-77.75 385.62,-119.5"/>
<text text-anchor="start" x="178.12" y="-106" font-family="Helvetica,sans-Serif" font-size="10.00">/github/workspace/dev</text>
<text text-anchor="start" x="178.12" y="-94.75" font-family="Helvetica,sans-Serif" font-size="10.00">_area/sourcecode/fdreadoutlibs</text>
<text text-anchor="middle" x="277.88" y="-83.5" font-family="Helvetica,sans-Serif" font-size="10.00">/src/daphne/DAPHNEListRequestHandler.cpp</text>
</a>
</g>
</g>
<!-- Node5&#45;&gt;Node7 -->
<g id="edge6_Node000005_Node000007" class="edge">
<title>Node5&#45;&gt;Node7</title>
<g id="a_edge6_Node000005_Node000007"><a xlink:title=" ">
<path fill="none" stroke="#63b8ff" d="M277.88,-143.83C277.88,-135.55 277.88,-127.08 277.88,-119.79"/>
<polygon fill="#63b8ff" stroke="#63b8ff" points="274.38,-143.74 277.88,-153.74 281.38,-143.74 274.38,-143.74"/>
</a>
</g>
</g>
<!-- Node9 -->
<g id="Node000009" class="node">
<title>Node9</title>
<g id="a_Node000009"><a xlink:href="TPRequestHandler_8hpp.html" target="_top" xlink:title=" ">
<polygon fill="white" stroke="#666666" points="569.88,-119.5 403.88,-119.5 403.88,-77.75 569.88,-77.75 569.88,-119.5"/>
<text text-anchor="start" x="411.88" y="-106" font-family="Helvetica,sans-Serif" font-size="10.00">/github/workspace/dev</text>
<text text-anchor="start" x="411.88" y="-94.75" font-family="Helvetica,sans-Serif" font-size="10.00">_area/sourcecode/trigger</text>
<text text-anchor="middle" x="486.88" y="-83.5" font-family="Helvetica,sans-Serif" font-size="10.00">/src/trigger/TPRequestHandler.hpp</text>
</a>
</g>
</g>
<!-- Node8&#45;&gt;Node9 -->
<g id="edge8_Node000008_Node000009" class="edge">
<title>Node8&#45;&gt;Node9</title>
<g id="a_edge8_Node000008_Node000009"><a xlink:title=" ">
<path fill="none" stroke="#63b8ff" d="M480.86,-144.11C481.99,-135.74 483.15,-127.16 484.15,-119.79"/>
<polygon fill="#63b8ff" stroke="#63b8ff" points="477.43,-143.37 479.56,-153.75 484.37,-144.31 477.43,-143.37"/>
</a>
</g>
</g>
<!-- Node10 -->
<g id="Node000010" class="node">
<title>Node10</title>
<g id="a_Node000010"><a xlink:href="TPRequestHandler_8cpp.html" target="_top" xlink:title=" ">
<polygon fill="white" stroke="#666666" points="554.88,-41.75 418.88,-41.75 418.88,0 554.88,0 554.88,-41.75"/>
<text text-anchor="start" x="426.88" y="-28.25" font-family="Helvetica,sans-Serif" font-size="10.00">/github/workspace/dev</text>
<text text-anchor="start" x="426.88" y="-17" font-family="Helvetica,sans-Serif" font-size="10.00">_area/sourcecode/trigger</text>
<text text-anchor="middle" x="486.88" y="-5.75" font-family="Helvetica,sans-Serif" font-size="10.00">/src/TPRequestHandler.cpp</text>
</a>
</g>
</g>
<!-- Node9&#45;&gt;Node10 -->
<g id="edge9_Node000009_Node000010" class="edge">
<title>Node9&#45;&gt;Node10</title>
<g id="a_edge9_Node000009_Node000010"><a xlink:title=" ">
<path fill="none" stroke="#63b8ff" d="M486.88,-66C486.88,-57.96 486.88,-49.54 486.88,-42.23"/>
<polygon fill="#63b8ff" stroke="#63b8ff" points="483.38,-65.81 486.88,-75.81 490.38,-65.81 483.38,-65.81"/>
</a>
</g>
</g>
<!-- Node11&#45;&gt;Node12 -->
<g id="edge11_Node000011_Node000012" class="edge">
<title>Node11&#45;&gt;Node12</title>
<g id="a_edge11_Node000011_Node000012"><a xlink:title=" ">
<path fill="none" stroke="#63b8ff" d="M754.23,-150.7C779.07,-140.44 806.19,-129.24 828.68,-119.94"/>
<polygon fill="#63b8ff" stroke="#63b8ff" points="753.05,-147.4 745.15,-154.45 755.73,-153.87 753.05,-147.4"/>
</a>
</g>
</g>
<!-- Node13&#45;&gt;Node12 -->
<g id="edge13_Node000013_Node000012" class="edge">
<title>Node13&#45;&gt;Node12</title>
<g id="a_edge13_Node000013_Node000012"><a xlink:title=" ">
<path fill="none" stroke="#63b8ff" d="M917.77,-146.67C910,-137.51 901.86,-127.91 894.98,-119.79"/>
<polygon fill="#63b8ff" stroke="#63b8ff" points="914.93,-148.73 924.06,-154.1 920.27,-144.21 914.93,-148.73"/>
</a>
</g>
</g>
<!-- Node14&#45;&gt;Node12 -->
<g id="edge16_Node000014_Node000012" class="edge">
<title>Node14&#45;&gt;Node12</title>
<g id="a_edge16_Node000014_Node000012"><a xlink:title=" ">
<path fill="none" stroke="#63b8ff" d="M1053.84,-234.71C1069.34,-210.59 1082.3,-178.89 1064.88,-155.5 1050.76,-136.55 996.5,-121.66 950.04,-112.03"/>
<polygon fill="#63b8ff" stroke="#63b8ff" points="1050.96,-232.72 1048.21,-242.96 1056.74,-236.67 1050.96,-232.72"/>
</a>
</g>
</g>
</g>
</svg>
