<?xml version="1.0" encoding="UTF-8" standalone="no"?>
<!DOCTYPE svg PUBLIC "-//W3C//DTD SVG 1.1//EN"
 "http://www.w3.org/Graphics/SVG/1.1/DTD/svg11.dtd">
<!-- Generated by graphviz version 9.0.0 (20230911.1827)
 -->
<!-- Title: /github/workspace/dev_area/build/readoutlibs/codegen/include/readoutlibs/sourceemulatorinfo/InfoNljs.hpp Pages: 1 -->
<svg width="272pt" height="183pt"
 viewBox="0.00 0.00 271.88 182.75" xmlns="http://www.w3.org/2000/svg" xmlns:xlink="http://www.w3.org/1999/xlink">
<g id="graph0" class="graph" transform="scale(1 1) rotate(0) translate(4 178.75)">
<title>/github/workspace/dev_area/build/readoutlibs/codegen/include/readoutlibs/sourceemulatorinfo/InfoNljs.hpp</title>
<!-- Node1 -->
<g id="Node000001" class="node">
<title>Node1</title>
<g id="a_Node000001"><a xlink:title=" ">
<polygon fill="#999999" stroke="#666666" points="222.5,-174.75 66.25,-174.75 66.25,-121.75 222.5,-121.75 222.5,-174.75"/>
<text text-anchor="start" x="74.25" y="-161.25" font-family="Helvetica,sans-Serif" font-size="10.00">/github/workspace/dev</text>
<text text-anchor="start" x="74.25" y="-150" font-family="Helvetica,sans-Serif" font-size="10.00">_area/build/readoutlibs</text>
<text text-anchor="start" x="74.25" y="-138.75" font-family="Helvetica,sans-Serif" font-size="10.00">/codegen/include/readoutlibs</text>
<text text-anchor="middle" x="144.38" y="-127.5" font-family="Helvetica,sans-Serif" font-size="10.00">/sourceemulatorinfo/InfoNljs.hpp</text>
</a>
</g>
</g>
<!-- Node2 -->
<g id="Node000002" class="node">
<title>Node2</title>
<g id="a_Node000002"><a xlink:href="readoutlibs_2codegen_2include_2readoutlibs_2sourceemulatorinfo_2InfoStructs_8hpp.html" target="_top" xlink:title=" ">
<polygon fill="white" stroke="#666666" points="148.75,-85.75 0,-85.75 0,-55.25 148.75,-55.25 148.75,-85.75"/>
<text text-anchor="start" x="8" y="-72.25" font-family="Helvetica,sans-Serif" font-size="10.00">readoutlibs/sourceemulatorinfo</text>
<text text-anchor="middle" x="74.38" y="-61" font-family="Helvetica,sans-Serif" font-size="10.00">/InfoStructs.hpp</text>
</a>
</g>
</g>
<!-- Node1&#45;&gt;Node2 -->
<g id="edge1_Node000001_Node000002" class="edge">
<title>Node1&#45;&gt;Node2</title>
<g id="a_edge1_Node000001_Node000002"><a xlink:title=" ">
<path fill="none" stroke="#63b8ff" d="M120.68,-121.6C112.55,-112.81 103.52,-103.04 95.6,-94.47"/>
<polygon fill="#63b8ff" stroke="#63b8ff" points="98.23,-92.15 88.87,-87.18 93.08,-96.9 98.23,-92.15"/>
</a>
</g>
</g>
<!-- Node4 -->
<g id="Node000004" class="node">
<title>Node4</title>
<g id="a_Node000004"><a xlink:title=" ">
<polygon fill="#e0e0e0" stroke="#999999" points="263.88,-80.12 166.88,-80.12 166.88,-60.88 263.88,-60.88 263.88,-80.12"/>
<text text-anchor="middle" x="215.38" y="-66.62" font-family="Helvetica,sans-Serif" font-size="10.00">nlohmann/json.hpp</text>
</a>
</g>
</g>
<!-- Node1&#45;&gt;Node4 -->
<g id="edge3_Node000001_Node000004" class="edge">
<title>Node1&#45;&gt;Node4</title>
<g id="a_edge3_Node000001_Node000004"><a xlink:title=" ">
<path fill="none" stroke="#63b8ff" d="M168.41,-121.6C178.53,-110.81 190.05,-98.52 199.14,-88.82"/>
<polygon fill="#63b8ff" stroke="#63b8ff" points="201.68,-91.23 205.96,-81.54 196.57,-86.45 201.68,-91.23"/>
</a>
</g>
</g>
<!-- Node3 -->
<g id="Node000003" class="node">
<title>Node3</title>
<g id="a_Node000003"><a xlink:title=" ">
<polygon fill="#e0e0e0" stroke="#999999" points="97,-19.25 51.75,-19.25 51.75,0 97,0 97,-19.25"/>
<text text-anchor="middle" x="74.38" y="-5.75" font-family="Helvetica,sans-Serif" font-size="10.00">cstdint</text>
</a>
</g>
</g>
<!-- Node2&#45;&gt;Node3 -->
<g id="edge2_Node000002_Node000003" class="edge">
<title>Node2&#45;&gt;Node3</title>
<g id="a_edge2_Node000002_Node000003"><a xlink:title=" ">
<path fill="none" stroke="#63b8ff" d="M74.38,-54.95C74.38,-47.71 74.38,-38.84 74.38,-30.94"/>
<polygon fill="#63b8ff" stroke="#63b8ff" points="77.88,-31.21 74.38,-21.21 70.88,-31.21 77.88,-31.21"/>
</a>
</g>
</g>
</g>
</svg>
