<?xml version="1.0" encoding="UTF-8" standalone="no"?>
<!DOCTYPE svg PUBLIC "-//W3C//DTD SVG 1.1//EN"
 "http://www.w3.org/Graphics/SVG/1.1/DTD/svg11.dtd">
<!-- Generated by graphviz version 9.0.0 (20230911.1827)
 -->
<!-- Title: /github/workspace/dev_area/sourcecode/restcmd/include/RestEndpoint.hpp Pages: 1 -->
<svg width="1208pt" height="216pt"
 viewBox="0.00 0.00 1207.56 215.50" xmlns="http://www.w3.org/2000/svg" xmlns:xlink="http://www.w3.org/1999/xlink">
<g id="graph0" class="graph" transform="scale(1 1) rotate(0) translate(4 211.5)">
<title>/github/workspace/dev_area/sourcecode/restcmd/include/RestEndpoint.hpp</title>
<!-- Node1 -->
<g id="Node000001" class="node">
<title>Node1</title>
<g id="a_Node000001"><a xlink:title=" ">
<polygon fill="#999999" stroke="#666666" points="756.06,-207.5 624.56,-207.5 624.56,-165.75 756.06,-165.75 756.06,-207.5"/>
<text text-anchor="start" x="632.56" y="-194" font-family="Helvetica,sans-Serif" font-size="10.00">/github/workspace/dev</text>
<text text-anchor="start" x="632.56" y="-182.75" font-family="Helvetica,sans-Serif" font-size="10.00">_area/sourcecode/restcmd</text>
<text text-anchor="middle" x="690.31" y="-171.5" font-family="Helvetica,sans-Serif" font-size="10.00">/include/RestEndpoint.hpp</text>
</a>
</g>
</g>
<!-- Node2 -->
<g id="Node000002" class="node">
<title>Node2</title>
<g id="a_Node000002"><a xlink:title=" ">
<polygon fill="#e0e0e0" stroke="#999999" points="809.81,-19.25 712.81,-19.25 712.81,0 809.81,0 809.81,-19.25"/>
<text text-anchor="middle" x="761.31" y="-5.75" font-family="Helvetica,sans-Serif" font-size="10.00">nlohmann/json.hpp</text>
</a>
</g>
</g>
<!-- Node1&#45;&gt;Node2 -->
<g id="edge1_Node000001_Node000002" class="edge">
<title>Node1&#45;&gt;Node2</title>
<g id="a_edge1_Node000001_Node000002"><a xlink:title=" ">
<path fill="none" stroke="#63b8ff" d="M624.12,-185.21C460.24,-183.51 45.79,-174.75 4.31,-129.75 -1.49,-123.46 -1.33,-116.93 4.31,-110.5 50.17,-58.19 529.86,-24.51 701.03,-14.08"/>
<polygon fill="#63b8ff" stroke="#63b8ff" points="701.05,-17.59 710.82,-13.49 700.63,-10.6 701.05,-17.59"/>
</a>
</g>
</g>
<!-- Node3 -->
<g id="Node000003" class="node">
<title>Node3</title>
<g id="a_Node000003"><a xlink:title=" ">
<polygon fill="#e0e0e0" stroke="#999999" points="93.18,-129.75 13.43,-129.75 13.43,-110.5 93.18,-110.5 93.18,-129.75"/>
<text text-anchor="middle" x="53.31" y="-116.25" font-family="Helvetica,sans-Serif" font-size="10.00">pistache/http.h</text>
</a>
</g>
</g>
<!-- Node1&#45;&gt;Node3 -->
<g id="edge2_Node000001_Node000003" class="edge">
<title>Node1&#45;&gt;Node3</title>
<g id="a_edge2_Node000001_Node000003"><a xlink:title=" ">
<path fill="none" stroke="#63b8ff" d="M624.42,-181.08C517.54,-173.33 299.57,-155.97 104.95,-130.01"/>
<polygon fill="#63b8ff" stroke="#63b8ff" points="105.52,-126.55 95.15,-128.69 104.59,-133.49 105.52,-126.55"/>
</a>
</g>
</g>
<!-- Node4 -->
<g id="Node000004" class="node">
<title>Node4</title>
<g id="a_Node000004"><a xlink:title=" ">
<polygon fill="#e0e0e0" stroke="#999999" points="225.43,-129.75 111.18,-129.75 111.18,-110.5 225.43,-110.5 225.43,-129.75"/>
<text text-anchor="middle" x="168.31" y="-116.25" font-family="Helvetica,sans-Serif" font-size="10.00">pistache/http_header.h</text>
</a>
</g>
</g>
<!-- Node1&#45;&gt;Node4 -->
<g id="edge3_Node000001_Node000004" class="edge">
<title>Node1&#45;&gt;Node4</title>
<g id="a_edge3_Node000001_Node000004"><a xlink:title=" ">
<path fill="none" stroke="#63b8ff" d="M624.21,-177.69C537.74,-167.28 381.18,-148.3 237.13,-130.1"/>
<polygon fill="#63b8ff" stroke="#63b8ff" points="237.76,-126.65 227.4,-128.87 236.88,-133.6 237.76,-126.65"/>
</a>
</g>
</g>
<!-- Node5 -->
<g id="Node000005" class="node">
<title>Node5</title>
<g id="a_Node000005"><a xlink:title=" ">
<polygon fill="#e0e0e0" stroke="#999999" points="353.56,-129.75 243.06,-129.75 243.06,-110.5 353.56,-110.5 353.56,-129.75"/>
<text text-anchor="middle" x="298.31" y="-116.25" font-family="Helvetica,sans-Serif" font-size="10.00">pistache/description.h</text>
</a>
</g>
</g>
<!-- Node1&#45;&gt;Node5 -->
<g id="edge4_Node000001_Node000005" class="edge">
<title>Node1&#45;&gt;Node5</title>
<g id="a_edge4_Node000001_Node000005"><a xlink:title=" ">
<path fill="none" stroke="#63b8ff" d="M624.26,-174.76C552.08,-162.88 437.1,-143.96 364.76,-132.06"/>
<polygon fill="#63b8ff" stroke="#63b8ff" points="365.46,-128.63 355.03,-130.46 364.33,-135.53 365.46,-128.63"/>
</a>
</g>
</g>
<!-- Node6 -->
<g id="Node000006" class="node">
<title>Node6</title>
<g id="a_Node000006"><a xlink:title=" ">
<polygon fill="#e0e0e0" stroke="#999999" points="459.31,-129.75 371.31,-129.75 371.31,-110.5 459.31,-110.5 459.31,-129.75"/>
<text text-anchor="middle" x="415.31" y="-116.25" font-family="Helvetica,sans-Serif" font-size="10.00">pistache/router.h</text>
</a>
</g>
</g>
<!-- Node1&#45;&gt;Node6 -->
<g id="edge5_Node000001_Node000006" class="edge">
<title>Node1&#45;&gt;Node6</title>
<g id="a_edge5_Node000001_Node000006"><a xlink:title=" ">
<path fill="none" stroke="#63b8ff" d="M624.09,-170.09C575.11,-158.61 509.46,-143.21 464.94,-132.77"/>
<polygon fill="#63b8ff" stroke="#63b8ff" points="465.83,-129.38 455.3,-130.5 464.23,-136.2 465.83,-129.38"/>
</a>
</g>
</g>
<!-- Node7 -->
<g id="Node000007" class="node">
<title>Node7</title>
<g id="a_Node000007"><a xlink:title=" ">
<polygon fill="#e0e0e0" stroke="#999999" points="577.31,-129.75 477.31,-129.75 477.31,-110.5 577.31,-110.5 577.31,-129.75"/>
<text text-anchor="middle" x="527.31" y="-116.25" font-family="Helvetica,sans-Serif" font-size="10.00">pistache/endpoint.h</text>
</a>
</g>
</g>
<!-- Node1&#45;&gt;Node7 -->
<g id="edge6_Node000001_Node000007" class="edge">
<title>Node1&#45;&gt;Node7</title>
<g id="a_edge6_Node000001_Node000007"><a xlink:title=" ">
<path fill="none" stroke="#63b8ff" d="M639.18,-165.39C613.51,-155.23 583.14,-143.22 560.53,-134.27"/>
<polygon fill="#63b8ff" stroke="#63b8ff" points="562.1,-131.13 551.51,-130.7 559.52,-137.64 562.1,-131.13"/>
</a>
</g>
</g>
<!-- Node8 -->
<g id="Node000008" class="node">
<title>Node8</title>
<g id="a_Node000008"><a xlink:title=" ">
<polygon fill="#e0e0e0" stroke="#999999" points="681.56,-129.75 595.06,-129.75 595.06,-110.5 681.56,-110.5 681.56,-129.75"/>
<text text-anchor="middle" x="638.31" y="-116.25" font-family="Helvetica,sans-Serif" font-size="10.00">pistache/client.h</text>
</a>
</g>
</g>
<!-- Node1&#45;&gt;Node8 -->
<g id="edge7_Node000001_Node000008" class="edge">
<title>Node1&#45;&gt;Node8</title>
<g id="a_edge7_Node000001_Node000008"><a xlink:title=" ">
<path fill="none" stroke="#63b8ff" d="M674.14,-165.57C667.28,-157.06 659.36,-147.23 652.7,-138.98"/>
<polygon fill="#63b8ff" stroke="#63b8ff" points="655.57,-136.96 646.57,-131.37 650.12,-141.36 655.57,-136.96"/>
</a>
</g>
</g>
<!-- Node9 -->
<g id="Node000009" class="node">
<title>Node9</title>
<g id="a_Node000009"><a xlink:title=" ">
<polygon fill="#e0e0e0" stroke="#999999" points="786.93,-129.75 699.68,-129.75 699.68,-110.5 786.93,-110.5 786.93,-129.75"/>
<text text-anchor="middle" x="743.31" y="-116.25" font-family="Helvetica,sans-Serif" font-size="10.00">pistache/mime.h</text>
</a>
</g>
</g>
<!-- Node1&#45;&gt;Node9 -->
<g id="edge8_Node000001_Node000009" class="edge">
<title>Node1&#45;&gt;Node9</title>
<g id="a_edge8_Node000001_Node000009"><a xlink:title=" ">
<path fill="none" stroke="#63b8ff" d="M706.79,-165.57C713.78,-157.06 721.86,-147.23 728.64,-138.98"/>
<polygon fill="#63b8ff" stroke="#63b8ff" points="731.25,-141.31 734.9,-131.36 725.84,-136.87 731.25,-141.31"/>
</a>
</g>
</g>
<!-- Node10 -->
<g id="Node000010" class="node">
<title>Node10</title>
<g id="a_Node000010"><a xlink:href="cmdlib_2codegen_2include_2cmdlib_2cmd_2Nljs_8hpp.html" target="_top" xlink:title=" ">
<polygon fill="white" stroke="#666666" points="909.56,-129.75 805.06,-129.75 805.06,-110.5 909.56,-110.5 909.56,-129.75"/>
<text text-anchor="middle" x="857.31" y="-116.25" font-family="Helvetica,sans-Serif" font-size="10.00">cmdlib/cmd/Nljs.hpp</text>
</a>
</g>
</g>
<!-- Node1&#45;&gt;Node10 -->
<g id="edge9_Node000001_Node000010" class="edge">
<title>Node1&#45;&gt;Node10</title>
<g id="a_edge9_Node000001_Node000010"><a xlink:title=" ">
<path fill="none" stroke="#63b8ff" d="M742.69,-165.39C769,-155.23 800.11,-143.22 823.28,-134.27"/>
<polygon fill="#63b8ff" stroke="#63b8ff" points="824.48,-137.56 832.55,-130.69 821.96,-131.03 824.48,-137.56"/>
</a>
</g>
</g>
<!-- Node13 -->
<g id="Node000013" class="node">
<title>Node13</title>
<g id="a_Node000013"><a xlink:title=" ">
<polygon fill="#e0e0e0" stroke="#999999" points="944.31,-19.25 904.31,-19.25 904.31,0 944.31,0 944.31,-19.25"/>
<text text-anchor="middle" x="924.31" y="-5.75" font-family="Helvetica,sans-Serif" font-size="10.00">string</text>
</a>
</g>
</g>
<!-- Node1&#45;&gt;Node13 -->
<g id="edge19_Node000001_Node000013" class="edge">
<title>Node1&#45;&gt;Node13</title>
<g id="a_edge19_Node000001_Node000013"><a xlink:title=" ">
<path fill="none" stroke="#63b8ff" d="M756.52,-178.16C816.28,-169.94 897.87,-154.49 918.31,-129.75 941.32,-101.9 935.75,-56.69 929.87,-30.71"/>
<polygon fill="#63b8ff" stroke="#63b8ff" points="933.3,-29.97 927.46,-21.13 926.51,-31.68 933.3,-29.97"/>
</a>
</g>
</g>
<!-- Node14 -->
<g id="Node000014" class="node">
<title>Node14</title>
<g id="a_Node000014"><a xlink:title=" ">
<polygon fill="#e0e0e0" stroke="#999999" points="1008.81,-129.75 965.81,-129.75 965.81,-110.5 1008.81,-110.5 1008.81,-129.75"/>
<text text-anchor="middle" x="987.31" y="-116.25" font-family="Helvetica,sans-Serif" font-size="10.00">thread</text>
</a>
</g>
</g>
<!-- Node1&#45;&gt;Node14 -->
<g id="edge15_Node000001_Node000014" class="edge">
<title>Node1&#45;&gt;Node14</title>
<g id="a_edge15_Node000001_Node000014"><a xlink:title=" ">
<path fill="none" stroke="#63b8ff" d="M756.38,-171.94C809.2,-160.89 885.1,-144.77 951.31,-129.75 952.47,-129.49 953.65,-129.22 954.84,-128.94"/>
<polygon fill="#63b8ff" stroke="#63b8ff" points="955.22,-132.45 964.15,-126.76 953.62,-125.63 955.22,-132.45"/>
</a>
</g>
</g>
<!-- Node15 -->
<g id="Node000015" class="node">
<title>Node15</title>
<g id="a_Node000015"><a xlink:title=" ">
<polygon fill="#e0e0e0" stroke="#999999" points="1071.93,-129.75 1026.68,-129.75 1026.68,-110.5 1071.93,-110.5 1071.93,-129.75"/>
<text text-anchor="middle" x="1049.31" y="-116.25" font-family="Helvetica,sans-Serif" font-size="10.00">chrono</text>
</a>
</g>
</g>
<!-- Node1&#45;&gt;Node15 -->
<g id="edge16_Node000001_Node000015" class="edge">
<title>Node1&#45;&gt;Node15</title>
<g id="a_edge16_Node000001_Node000015"><a xlink:title=" ">
<path fill="none" stroke="#63b8ff" d="M756.35,-176.41C820.33,-167.03 920.28,-151.16 1015.12,-130.3"/>
<polygon fill="#63b8ff" stroke="#63b8ff" points="1015.87,-133.71 1024.88,-128.12 1014.35,-126.88 1015.87,-133.71"/>
</a>
</g>
</g>
<!-- Node16 -->
<g id="Node000016" class="node">
<title>Node16</title>
<g id="a_Node000016"><a xlink:title=" ">
<polygon fill="#e0e0e0" stroke="#999999" points="1130.68,-129.75 1089.93,-129.75 1089.93,-110.5 1130.68,-110.5 1130.68,-129.75"/>
<text text-anchor="middle" x="1110.31" y="-116.25" font-family="Helvetica,sans-Serif" font-size="10.00">future</text>
</a>
</g>
</g>
<!-- Node1&#45;&gt;Node16 -->
<g id="edge17_Node000001_Node000016" class="edge">
<title>Node1&#45;&gt;Node16</title>
<g id="a_edge17_Node000001_Node000016"><a xlink:title=" ">
<path fill="none" stroke="#63b8ff" d="M756.21,-179.2C832,-171.15 960.22,-155.48 1078.45,-130.12"/>
<polygon fill="#63b8ff" stroke="#63b8ff" points="1078.99,-133.58 1088.02,-128.04 1077.5,-126.74 1078.99,-133.58"/>
</a>
</g>
</g>
<!-- Node17 -->
<g id="Node000017" class="node">
<title>Node17</title>
<g id="a_Node000017"><a xlink:title=" ">
<polygon fill="#e0e0e0" stroke="#999999" points="1199.56,-129.75 1149.06,-129.75 1149.06,-110.5 1199.56,-110.5 1199.56,-129.75"/>
<text text-anchor="middle" x="1174.31" y="-116.25" font-family="Helvetica,sans-Serif" font-size="10.00">memory</text>
</a>
</g>
</g>
<!-- Node1&#45;&gt;Node17 -->
<g id="edge18_Node000001_Node000017" class="edge">
<title>Node1&#45;&gt;Node17</title>
<g id="a_edge18_Node000001_Node000017"><a xlink:title=" ">
<path fill="none" stroke="#63b8ff" d="M756.49,-179.85C842.17,-171.83 996.25,-155.55 1137.74,-129.82"/>
<polygon fill="#63b8ff" stroke="#63b8ff" points="1138.08,-133.31 1147.28,-128.06 1136.81,-126.43 1138.08,-133.31"/>
</a>
</g>
</g>
<!-- Node10&#45;&gt;Node2 -->
<g id="edge14_Node000010_Node000002" class="edge">
<title>Node10&#45;&gt;Node2</title>
<g id="a_edge14_Node000010_Node000002"><a xlink:title=" ">
<path fill="none" stroke="#63b8ff" d="M833.24,-110.13C816.77,-102.84 795.58,-91.05 782.31,-74.5 772.13,-61.81 766.81,-44.01 764.08,-30.42"/>
<polygon fill="#63b8ff" stroke="#63b8ff" points="767.59,-30.17 762.48,-20.89 760.68,-31.33 767.59,-30.17"/>
</a>
</g>
</g>
<!-- Node11 -->
<g id="Node000011" class="node">
<title>Node11</title>
<g id="a_Node000011"><a xlink:href="cmdlib_2codegen_2include_2cmdlib_2cmd_2Structs_8hpp.html" target="_top" xlink:title=" ">
<polygon fill="white" stroke="#666666" points="909.68,-74.5 790.93,-74.5 790.93,-55.25 909.68,-55.25 909.68,-74.5"/>
<text text-anchor="middle" x="850.31" y="-61" font-family="Helvetica,sans-Serif" font-size="10.00">cmdlib/cmd/Structs.hpp</text>
</a>
</g>
</g>
<!-- Node10&#45;&gt;Node11 -->
<g id="edge10_Node000010_Node000011" class="edge">
<title>Node10&#45;&gt;Node11</title>
<g id="a_edge10_Node000010_Node000011"><a xlink:title=" ">
<path fill="none" stroke="#63b8ff" d="M856.15,-110.33C855.29,-103.74 854.07,-94.46 852.96,-86.07"/>
<polygon fill="#63b8ff" stroke="#63b8ff" points="856.46,-85.82 851.69,-76.36 849.52,-86.73 856.46,-85.82"/>
</a>
</g>
</g>
<!-- Node11&#45;&gt;Node2 -->
<g id="edge12_Node000011_Node000002" class="edge">
<title>Node11&#45;&gt;Node2</title>
<g id="a_edge12_Node000011_Node000002"><a xlink:title=" ">
<path fill="none" stroke="#63b8ff" d="M835.21,-54.84C821.79,-46.81 801.9,-34.91 786.14,-25.48"/>
<polygon fill="#63b8ff" stroke="#63b8ff" points="788.16,-22.61 777.78,-20.48 784.56,-28.62 788.16,-22.61"/>
</a>
</g>
</g>
<!-- Node12 -->
<g id="Node000012" class="node">
<title>Node12</title>
<g id="a_Node000012"><a xlink:title=" ">
<polygon fill="#e0e0e0" stroke="#999999" points="872.93,-19.25 827.68,-19.25 827.68,0 872.93,0 872.93,-19.25"/>
<text text-anchor="middle" x="850.31" y="-5.75" font-family="Helvetica,sans-Serif" font-size="10.00">cstdint</text>
</a>
</g>
</g>
<!-- Node11&#45;&gt;Node12 -->
<g id="edge11_Node000011_Node000012" class="edge">
<title>Node11&#45;&gt;Node12</title>
<g id="a_edge11_Node000011_Node000012"><a xlink:title=" ">
<path fill="none" stroke="#63b8ff" d="M850.31,-55.08C850.31,-48.57 850.31,-39.42 850.31,-31.12"/>
<polygon fill="#63b8ff" stroke="#63b8ff" points="853.81,-31.12 850.31,-21.12 846.81,-31.12 853.81,-31.12"/>
</a>
</g>
</g>
<!-- Node11&#45;&gt;Node13 -->
<g id="edge13_Node000011_Node000013" class="edge">
<title>Node11&#45;&gt;Node13</title>
<g id="a_edge13_Node000011_Node000013"><a xlink:title=" ">
<path fill="none" stroke="#63b8ff" d="M862.86,-54.84C873.77,-46.99 889.81,-35.45 902.77,-26.12"/>
<polygon fill="#63b8ff" stroke="#63b8ff" points="904.64,-29.09 910.71,-20.41 900.55,-23.41 904.64,-29.09"/>
</a>
</g>
</g>
</g>
</svg>
