<?xml version="1.0" encoding="UTF-8" standalone="no"?>
<!DOCTYPE svg PUBLIC "-//W3C//DTD SVG 1.1//EN"
 "http://www.w3.org/Graphics/SVG/1.1/DTD/svg11.dtd">
<!-- Generated by graphviz version 9.0.0 (20230911.1827)
 -->
<!-- Title: /github/workspace/dev_area/sourcecode/iomanager/include/iomanager/SchemaUtils.hpp Pages: 1 -->
<svg width="1529pt" height="404pt"
 viewBox="0.00 0.00 1528.56 403.75" xmlns="http://www.w3.org/2000/svg" xmlns:xlink="http://www.w3.org/1999/xlink">
<g id="graph0" class="graph" transform="scale(1 1) rotate(0) translate(4 399.75)">
<title>/github/workspace/dev_area/sourcecode/iomanager/include/iomanager/SchemaUtils.hpp</title>
<!-- Node1 -->
<g id="Node000001" class="node">
<title>Node1</title>
<g id="a_Node000001"><a xlink:title=" ">
<polygon fill="#999999" stroke="#666666" points="462.12,-395.75 287.12,-395.75 287.12,-354 462.12,-354 462.12,-395.75"/>
<text text-anchor="start" x="295.12" y="-382.25" font-family="Helvetica,sans-Serif" font-size="10.00">/github/workspace/dev</text>
<text text-anchor="start" x="295.12" y="-371" font-family="Helvetica,sans-Serif" font-size="10.00">_area/sourcecode/iomanager</text>
<text text-anchor="middle" x="374.62" y="-359.75" font-family="Helvetica,sans-Serif" font-size="10.00">/include/iomanager/SchemaUtils.hpp</text>
</a>
</g>
</g>
<!-- Node2 -->
<g id="Node000002" class="node">
<title>Node2</title>
<g id="a_Node000002"><a xlink:href="iomanager_2codegen_2include_2iomanager_2connection_2Structs_8hpp.html" target="_top" xlink:title=" ">
<polygon fill="white" stroke="#666666" points="111.25,-141 0,-141 0,-110.5 111.25,-110.5 111.25,-141"/>
<text text-anchor="start" x="8" y="-127.5" font-family="Helvetica,sans-Serif" font-size="10.00">iomanager/connection</text>
<text text-anchor="middle" x="55.62" y="-116.25" font-family="Helvetica,sans-Serif" font-size="10.00">/Structs.hpp</text>
</a>
</g>
</g>
<!-- Node1&#45;&gt;Node2 -->
<g id="edge1_Node000001_Node000002" class="edge">
<title>Node1&#45;&gt;Node2</title>
<g id="a_edge1_Node000001_Node000002"><a xlink:title=" ">
<path fill="none" stroke="#63b8ff" d="M299.26,-353.5C273.52,-344.72 245.28,-332.98 221.62,-318 151.91,-273.87 95.2,-191.66 69.89,-150.92"/>
<polygon fill="#63b8ff" stroke="#63b8ff" points="72.99,-149.28 64.8,-142.57 67.02,-152.93 72.99,-149.28"/>
</a>
</g>
</g>
<!-- Node6 -->
<g id="Node000006" class="node">
<title>Node6</title>
<g id="a_Node000006"><a xlink:href="Serialization_8hpp.html" target="_top" xlink:title=" ">
<polygon fill="white" stroke="#666666" points="444.88,-318 304.38,-318 304.38,-298.75 444.88,-298.75 444.88,-318"/>
<text text-anchor="middle" x="374.62" y="-304.5" font-family="Helvetica,sans-Serif" font-size="10.00">serialization/Serialization.hpp</text>
</a>
</g>
</g>
<!-- Node1&#45;&gt;Node6 -->
<g id="edge5_Node000001_Node000006" class="edge">
<title>Node1&#45;&gt;Node6</title>
<g id="a_edge5_Node000001_Node000006"><a xlink:title=" ">
<path fill="none" stroke="#63b8ff" d="M374.62,-353.82C374.62,-346.15 374.62,-337.39 374.62,-329.7"/>
<polygon fill="#63b8ff" stroke="#63b8ff" points="378.13,-329.96 374.63,-319.96 371.13,-329.96 378.13,-329.96"/>
</a>
</g>
</g>
<!-- Node13 -->
<g id="Node000013" class="node">
<title>Node13</title>
<g id="a_Node000013"><a xlink:title=" ">
<polygon fill="#e0e0e0" stroke="#999999" points="207.25,-201.88 156,-201.88 156,-182.62 207.25,-182.62 207.25,-201.88"/>
<text text-anchor="middle" x="181.62" y="-188.38" font-family="Helvetica,sans-Serif" font-size="10.00">sstream</text>
</a>
</g>
</g>
<!-- Node1&#45;&gt;Node13 -->
<g id="edge50_Node000001_Node000013" class="edge">
<title>Node1&#45;&gt;Node13</title>
<g id="a_edge50_Node000001_Node000013"><a xlink:title=" ">
<path fill="none" stroke="#63b8ff" d="M316.33,-353.57C275.04,-336.06 221.97,-306.59 192.62,-262.75 182.96,-248.3 180.64,-228.44 180.49,-213.65"/>
<polygon fill="#63b8ff" stroke="#63b8ff" points="183.98,-213.82 180.74,-203.73 176.98,-213.64 183.98,-213.82"/>
</a>
</g>
</g>
<!-- Node35 -->
<g id="Node000035" class="node">
<title>Node35</title>
<g id="a_Node000035"><a xlink:title=" ">
<polygon fill="#e0e0e0" stroke="#999999" points="520.62,-318 462.62,-318 462.62,-298.75 520.62,-298.75 520.62,-318"/>
<text text-anchor="middle" x="491.62" y="-304.5" font-family="Helvetica,sans-Serif" font-size="10.00">functional</text>
</a>
</g>
</g>
<!-- Node1&#45;&gt;Node35 -->
<g id="edge48_Node000001_Node000035" class="edge">
<title>Node1&#45;&gt;Node35</title>
<g id="a_edge48_Node000001_Node000035"><a xlink:title=" ">
<path fill="none" stroke="#63b8ff" d="M411.32,-353.64C428.92,-343.95 449.58,-332.56 465.54,-323.76"/>
<polygon fill="#63b8ff" stroke="#63b8ff" points="466.87,-327.02 473.94,-319.13 463.49,-320.89 466.87,-327.02"/>
</a>
</g>
</g>
<!-- Node36 -->
<g id="Node000036" class="node">
<title>Node36</title>
<g id="a_Node000036"><a xlink:title=" ">
<polygon fill="#e0e0e0" stroke="#999999" points="578.25,-318 539,-318 539,-298.75 578.25,-298.75 578.25,-318"/>
<text text-anchor="middle" x="558.62" y="-304.5" font-family="Helvetica,sans-Serif" font-size="10.00">regex</text>
</a>
</g>
</g>
<!-- Node1&#45;&gt;Node36 -->
<g id="edge49_Node000001_Node000036" class="edge">
<title>Node1&#45;&gt;Node36</title>
<g id="a_edge49_Node000001_Node000036"><a xlink:title=" ">
<path fill="none" stroke="#63b8ff" d="M432.59,-353.56C464.16,-342.49 501.95,-329.24 527.86,-320.16"/>
<polygon fill="#63b8ff" stroke="#63b8ff" points="528.82,-323.53 537.1,-316.92 526.5,-316.93 528.82,-323.53"/>
</a>
</g>
</g>
<!-- Node3 -->
<g id="Node000003" class="node">
<title>Node3</title>
<g id="a_Node000003"><a xlink:title=" ">
<polygon fill="#e0e0e0" stroke="#999999" points="78.25,-74.5 33,-74.5 33,-55.25 78.25,-55.25 78.25,-74.5"/>
<text text-anchor="middle" x="55.62" y="-61" font-family="Helvetica,sans-Serif" font-size="10.00">cstdint</text>
</a>
</g>
</g>
<!-- Node2&#45;&gt;Node3 -->
<g id="edge2_Node000002_Node000003" class="edge">
<title>Node2&#45;&gt;Node3</title>
<g id="a_edge2_Node000002_Node000003"><a xlink:title=" ">
<path fill="none" stroke="#63b8ff" d="M55.62,-110.2C55.62,-102.96 55.62,-94.09 55.62,-86.19"/>
<polygon fill="#63b8ff" stroke="#63b8ff" points="59.13,-86.46 55.63,-76.46 52.13,-86.46 59.13,-86.46"/>
</a>
</g>
</g>
<!-- Node4 -->
<g id="Node000004" class="node">
<title>Node4</title>
<g id="a_Node000004"><a xlink:title=" ">
<polygon fill="#e0e0e0" stroke="#999999" points="646.62,-74.5 606.62,-74.5 606.62,-55.25 646.62,-55.25 646.62,-74.5"/>
<text text-anchor="middle" x="626.62" y="-61" font-family="Helvetica,sans-Serif" font-size="10.00">string</text>
</a>
</g>
</g>
<!-- Node2&#45;&gt;Node4 -->
<g id="edge3_Node000002_Node000004" class="edge">
<title>Node2&#45;&gt;Node4</title>
<g id="a_edge3_Node000002_Node000004"><a xlink:title=" ">
<path fill="none" stroke="#63b8ff" d="M111.68,-118.97C230,-106.77 502.02,-78.72 594.88,-69.15"/>
<polygon fill="#63b8ff" stroke="#63b8ff" points="595.18,-72.64 604.77,-68.13 594.46,-65.67 595.18,-72.64"/>
</a>
</g>
</g>
<!-- Node5 -->
<g id="Node000005" class="node">
<title>Node5</title>
<g id="a_Node000005"><a xlink:title=" ">
<polygon fill="#e0e0e0" stroke="#999999" points="294.12,-74.5 251.12,-74.5 251.12,-55.25 294.12,-55.25 294.12,-74.5"/>
<text text-anchor="middle" x="272.62" y="-61" font-family="Helvetica,sans-Serif" font-size="10.00">vector</text>
</a>
</g>
</g>
<!-- Node2&#45;&gt;Node5 -->
<g id="edge4_Node000002_Node000005" class="edge">
<title>Node2&#45;&gt;Node5</title>
<g id="a_edge4_Node000002_Node000005"><a xlink:title=" ">
<path fill="none" stroke="#63b8ff" d="M109.82,-110.05C150.76,-98.94 205.6,-84.06 240.02,-74.72"/>
<polygon fill="#63b8ff" stroke="#63b8ff" points="240.67,-78.17 249.4,-72.18 238.84,-71.42 240.67,-78.17"/>
</a>
</g>
</g>
<!-- Node6&#45;&gt;Node4 -->
<g id="edge46_Node000006_Node000004" class="edge">
<title>Node6&#45;&gt;Node4</title>
<g id="a_edge46_Node000006_Node000004"><a xlink:title=" ">
<path fill="none" stroke="#63b8ff" d="M444.97,-299.69C687.59,-272.87 1476.44,-182.73 1510.62,-141 1519.21,-130.51 1519.97,-120.32 1510.62,-110.5 1480.66,-78.99 812.48,-68.31 658.21,-66.26"/>
<polygon fill="#63b8ff" stroke="#63b8ff" points="658.38,-62.77 648.34,-66.14 658.29,-69.77 658.38,-62.77"/>
</a>
</g>
</g>
<!-- Node6&#45;&gt;Node5 -->
<g id="edge47_Node000006_Node000005" class="edge">
<title>Node6&#45;&gt;Node5</title>
<g id="a_edge47_Node000006_Node000005"><a xlink:title=" ">
<path fill="none" stroke="#63b8ff" d="M303.95,-301.99C245.66,-293.05 169.05,-269.47 146.62,-207.5 126.14,-150.89 199.26,-102.87 242.67,-80.07"/>
<polygon fill="#63b8ff" stroke="#63b8ff" points="244.06,-83.29 251.39,-75.64 240.89,-77.05 244.06,-83.29"/>
</a>
</g>
</g>
<!-- Node7 -->
<g id="Node000007" class="node">
<title>Node7</title>
<g id="a_Node000007"><a xlink:href="Issue_8hpp.html" target="_top" xlink:title=" ">
<polygon fill="white" stroke="#666666" points="691.88,-262.75 617.38,-262.75 617.38,-243.5 691.88,-243.5 691.88,-262.75"/>
<text text-anchor="middle" x="654.62" y="-249.25" font-family="Helvetica,sans-Serif" font-size="10.00">ers/Issue.hpp</text>
</a>
</g>
</g>
<!-- Node6&#45;&gt;Node7 -->
<g id="edge6_Node000006_Node000007" class="edge">
<title>Node6&#45;&gt;Node7</title>
<g id="a_edge6_Node000006_Node000007"><a xlink:title=" ">
<path fill="none" stroke="#63b8ff" d="M422.44,-298.28C473.56,-288.56 554.18,-273.23 605.71,-263.43"/>
<polygon fill="#63b8ff" stroke="#63b8ff" points="606.22,-266.89 615.39,-261.59 604.92,-260.02 606.22,-266.89"/>
</a>
</g>
</g>
<!-- Node31 -->
<g id="Node000031" class="node">
<title>Node31</title>
<g id="a_Node000031"><a xlink:title=" ">
<polygon fill="#e0e0e0" stroke="#999999" points="319.25,-262.75 202,-262.75 202,-243.5 319.25,-243.5 319.25,-262.75"/>
<text text-anchor="middle" x="260.62" y="-249.25" font-family="Helvetica,sans-Serif" font-size="10.00">boost/preprocessor.hpp</text>
</a>
</g>
</g>
<!-- Node6&#45;&gt;Node31 -->
<g id="edge42_Node000006_Node000031" class="edge">
<title>Node6&#45;&gt;Node31</title>
<g id="a_edge42_Node000006_Node000031"><a xlink:title=" ">
<path fill="none" stroke="#63b8ff" d="M355.29,-298.34C337.52,-290.04 310.91,-277.61 290.42,-268.04"/>
<polygon fill="#63b8ff" stroke="#63b8ff" points="291.97,-264.9 281.43,-263.84 289.01,-271.25 291.97,-264.9"/>
</a>
</g>
</g>
<!-- Node32 -->
<g id="Node000032" class="node">
<title>Node32</title>
<g id="a_Node000032"><a xlink:title=" ">
<polygon fill="#e0e0e0" stroke="#999999" points="411.5,-262.75 337.75,-262.75 337.75,-243.5 411.5,-243.5 411.5,-262.75"/>
<text text-anchor="middle" x="374.62" y="-249.25" font-family="Helvetica,sans-Serif" font-size="10.00">msgpack.hpp</text>
</a>
</g>
</g>
<!-- Node6&#45;&gt;Node32 -->
<g id="edge43_Node000006_Node000032" class="edge">
<title>Node6&#45;&gt;Node32</title>
<g id="a_edge43_Node000006_Node000032"><a xlink:title=" ">
<path fill="none" stroke="#63b8ff" d="M374.62,-298.58C374.62,-292.07 374.62,-282.92 374.62,-274.62"/>
<polygon fill="#63b8ff" stroke="#63b8ff" points="378.13,-274.62 374.63,-264.62 371.13,-274.62 378.13,-274.62"/>
</a>
</g>
</g>
<!-- Node33 -->
<g id="Node000033" class="node">
<title>Node33</title>
<g id="a_Node000033"><a xlink:title=" ">
<polygon fill="#e0e0e0" stroke="#999999" points="526.12,-262.75 429.12,-262.75 429.12,-243.5 526.12,-243.5 526.12,-262.75"/>
<text text-anchor="middle" x="477.62" y="-249.25" font-family="Helvetica,sans-Serif" font-size="10.00">nlohmann/json.hpp</text>
</a>
</g>
</g>
<!-- Node6&#45;&gt;Node33 -->
<g id="edge44_Node000006_Node000033" class="edge">
<title>Node6&#45;&gt;Node33</title>
<g id="a_edge44_Node000006_Node000033"><a xlink:title=" ">
<path fill="none" stroke="#63b8ff" d="M392.1,-298.34C407.93,-290.16 431.53,-277.96 449.93,-268.44"/>
<polygon fill="#63b8ff" stroke="#63b8ff" points="451.45,-271.6 458.72,-263.9 448.23,-265.38 451.45,-271.6"/>
</a>
</g>
</g>
<!-- Node34 -->
<g id="Node000034" class="node">
<title>Node34</title>
<g id="a_Node000034"><a xlink:title=" ">
<polygon fill="#e0e0e0" stroke="#999999" points="599.5,-262.75 543.75,-262.75 543.75,-243.5 599.5,-243.5 599.5,-262.75"/>
<text text-anchor="middle" x="571.62" y="-249.25" font-family="Helvetica,sans-Serif" font-size="10.00">algorithm</text>
</a>
</g>
</g>
<!-- Node6&#45;&gt;Node34 -->
<g id="edge45_Node000006_Node000034" class="edge">
<title>Node6&#45;&gt;Node34</title>
<g id="a_edge45_Node000006_Node000034"><a xlink:title=" ">
<path fill="none" stroke="#63b8ff" d="M408.04,-298.34C442.56,-289.01 496.39,-274.46 532.78,-264.62"/>
<polygon fill="#63b8ff" stroke="#63b8ff" points="533.28,-268.12 542.02,-262.13 531.45,-261.36 533.28,-268.12"/>
</a>
</g>
</g>
<!-- Node7&#45;&gt;Node4 -->
<g id="edge11_Node000007_Node000004" class="edge">
<title>Node7&#45;&gt;Node4</title>
<g id="a_edge11_Node000007_Node000004"><a xlink:title=" ">
<path fill="none" stroke="#63b8ff" d="M692.16,-252.67C762.47,-252.16 903.75,-243.14 866.62,-177 851.59,-150.21 832.77,-158.65 807.62,-141 789.9,-128.56 788.74,-120.68 769.62,-110.5 733.55,-91.29 687.89,-78.85 657.99,-72.1"/>
<polygon fill="#63b8ff" stroke="#63b8ff" points="658.98,-68.74 648.46,-70.04 657.49,-75.58 658.98,-68.74"/>
</a>
</g>
</g>
<!-- Node8 -->
<g id="Node000008" class="node">
<title>Node8</title>
<g id="a_Node000008"><a xlink:title=" ">
<polygon fill="#e0e0e0" stroke="#999999" points="434.25,-201.88 389,-201.88 389,-182.62 434.25,-182.62 434.25,-201.88"/>
<text text-anchor="middle" x="411.62" y="-188.38" font-family="Helvetica,sans-Serif" font-size="10.00">math.h</text>
</a>
</g>
</g>
<!-- Node7&#45;&gt;Node8 -->
<g id="edge7_Node000007_Node000008" class="edge">
<title>Node7&#45;&gt;Node8</title>
<g id="a_edge7_Node000007_Node000008"><a xlink:title=" ">
<path fill="none" stroke="#63b8ff" d="M616.91,-244.6C560.74,-233.32 459.92,-212.79 443.62,-207.5 442.66,-207.19 441.69,-206.86 440.72,-206.51"/>
<polygon fill="#63b8ff" stroke="#63b8ff" points="442.31,-203.38 431.72,-202.92 439.72,-209.88 442.31,-203.38"/>
</a>
</g>
</g>
<!-- Node9 -->
<g id="Node000009" class="node">
<title>Node9</title>
<g id="a_Node000009"><a xlink:title=" ">
<polygon fill="#e0e0e0" stroke="#999999" points="496.88,-201.88 452.38,-201.88 452.38,-182.62 496.88,-182.62 496.88,-201.88"/>
<text text-anchor="middle" x="474.62" y="-188.38" font-family="Helvetica,sans-Serif" font-size="10.00">stdio.h</text>
</a>
</g>
</g>
<!-- Node7&#45;&gt;Node9 -->
<g id="edge8_Node000007_Node000009" class="edge">
<title>Node7&#45;&gt;Node9</title>
<g id="a_edge8_Node000007_Node000009"><a xlink:title=" ">
<path fill="none" stroke="#63b8ff" d="M619.24,-243.03C588.76,-234.84 543.77,-221.9 505.62,-207.5 504.98,-207.26 504.34,-207.01 503.69,-206.75"/>
<polygon fill="#63b8ff" stroke="#63b8ff" points="505.1,-203.55 494.53,-202.86 502.36,-209.99 505.1,-203.55"/>
</a>
</g>
</g>
<!-- Node10 -->
<g id="Node000010" class="node">
<title>Node10</title>
<g id="a_Node000010"><a xlink:title=" ">
<polygon fill="#e0e0e0" stroke="#999999" points="562.38,-201.88 514.88,-201.88 514.88,-182.62 562.38,-182.62 562.38,-201.88"/>
<text text-anchor="middle" x="538.62" y="-188.38" font-family="Helvetica,sans-Serif" font-size="10.00">string.h</text>
</a>
</g>
</g>
<!-- Node7&#45;&gt;Node10 -->
<g id="edge9_Node000007_Node000010" class="edge">
<title>Node7&#45;&gt;Node10</title>
<g id="a_edge9_Node000007_Node000010"><a xlink:title=" ">
<path fill="none" stroke="#63b8ff" d="M636.75,-243.05C617.97,-233.52 588.16,-218.39 566.32,-207.31"/>
<polygon fill="#63b8ff" stroke="#63b8ff" points="568.18,-204.32 557.68,-202.92 565.01,-210.57 568.18,-204.32"/>
</a>
</g>
</g>
<!-- Node11 -->
<g id="Node000011" class="node">
<title>Node11</title>
<g id="a_Node000011"><a xlink:title=" ">
<polygon fill="#e0e0e0" stroke="#999999" points="517,-135.38 482.25,-135.38 482.25,-116.12 517,-116.12 517,-135.38"/>
<text text-anchor="middle" x="499.62" y="-121.88" font-family="Helvetica,sans-Serif" font-size="10.00">map</text>
</a>
</g>
</g>
<!-- Node7&#45;&gt;Node11 -->
<g id="edge10_Node000007_Node000011" class="edge">
<title>Node7&#45;&gt;Node11</title>
<g id="a_edge10_Node000007_Node000011"><a xlink:title=" ">
<path fill="none" stroke="#63b8ff" d="M616.99,-244.97C614.16,-244.47 611.35,-243.97 608.62,-243.5 557.86,-234.75 413.1,-246.65 379.62,-207.5 370.82,-197.2 371.94,-188.17 379.62,-177 403.2,-142.73 429.1,-157.31 473.46,-140.28"/>
<polygon fill="#63b8ff" stroke="#63b8ff" points="474.64,-143.58 482.46,-136.43 471.89,-137.15 474.64,-143.58"/>
</a>
</g>
</g>
<!-- Node12 -->
<g id="Node000012" class="node">
<title>Node12</title>
<g id="a_Node000012"><a xlink:title=" ">
<polygon fill="#e0e0e0" stroke="#999999" points="744.38,-19.25 690.88,-19.25 690.88,0 744.38,0 744.38,-19.25"/>
<text text-anchor="middle" x="717.62" y="-5.75" font-family="Helvetica,sans-Serif" font-size="10.00">iostream</text>
</a>
</g>
</g>
<!-- Node7&#45;&gt;Node12 -->
<g id="edge12_Node000007_Node000012" class="edge">
<title>Node7&#45;&gt;Node12</title>
<g id="a_edge12_Node000007_Node000012"><a xlink:title=" ">
<path fill="none" stroke="#63b8ff" d="M692.32,-250.21C850.86,-241.78 1457.83,-205.45 1510.62,-141 1609.7,-20.05 927.5,-10.95 756.06,-10.56"/>
<polygon fill="#63b8ff" stroke="#63b8ff" points="756.14,-7.06 746.13,-10.55 756.13,-14.06 756.14,-7.06"/>
</a>
</g>
</g>
<!-- Node7&#45;&gt;Node13 -->
<g id="edge13_Node000007_Node000013" class="edge">
<title>Node7&#45;&gt;Node13</title>
<g id="a_edge13_Node000007_Node000013"><a xlink:title=" ">
<path fill="none" stroke="#63b8ff" d="M617.02,-244.78C614.18,-244.31 611.36,-243.88 608.62,-243.5 434.9,-219.31 385.82,-249.89 215.62,-207.5 214.03,-207.1 212.42,-206.64 210.8,-206.14"/>
<polygon fill="#63b8ff" stroke="#63b8ff" points="212.35,-202.98 201.76,-202.81 209.94,-209.55 212.35,-202.98"/>
</a>
</g>
</g>
<!-- Node14 -->
<g id="Node000014" class="node">
<title>Node14</title>
<g id="a_Node000014"><a xlink:title=" ">
<polygon fill="#e0e0e0" stroke="#999999" points="755.88,-201.88 705.38,-201.88 705.38,-182.62 755.88,-182.62 755.88,-201.88"/>
<text text-anchor="middle" x="730.62" y="-188.38" font-family="Helvetica,sans-Serif" font-size="10.00">memory</text>
</a>
</g>
</g>
<!-- Node7&#45;&gt;Node14 -->
<g id="edge14_Node000007_Node000014" class="edge">
<title>Node7&#45;&gt;Node14</title>
<g id="a_edge14_Node000007_Node000014"><a xlink:title=" ">
<path fill="none" stroke="#63b8ff" d="M666.17,-243.18C677.77,-234.19 695.92,-220.14 710,-209.23"/>
<polygon fill="#63b8ff" stroke="#63b8ff" points="712.02,-212.09 717.78,-203.2 707.73,-206.56 712.02,-212.09"/>
</a>
</g>
</g>
<!-- Node15 -->
<g id="Node000015" class="node">
<title>Node15</title>
<g id="a_Node000015"><a xlink:title=" ">
<polygon fill="#e0e0e0" stroke="#999999" points="656.25,-135.38 611,-135.38 611,-116.12 656.25,-116.12 656.25,-135.38"/>
<text text-anchor="middle" x="633.62" y="-121.88" font-family="Helvetica,sans-Serif" font-size="10.00">chrono</text>
</a>
</g>
</g>
<!-- Node7&#45;&gt;Node15 -->
<g id="edge15_Node000007_Node000015" class="edge">
<title>Node7&#45;&gt;Node15</title>
<g id="a_edge15_Node000007_Node000015"><a xlink:title=" ">
<path fill="none" stroke="#63b8ff" d="M692.26,-247.63C717.34,-242.45 748.57,-231.35 764.62,-207.5 772.2,-196.26 772.4,-188.1 764.62,-177 737.77,-138.65 709.04,-158.53 665.62,-141 665.01,-140.75 664.39,-140.5 663.76,-140.24"/>
<polygon fill="#63b8ff" stroke="#63b8ff" points="665.47,-137.16 654.9,-136.46 662.72,-143.6 665.47,-137.16"/>
</a>
</g>
</g>
<!-- Node16 -->
<g id="Node000016" class="node">
<title>Node16</title>
<g id="a_Node000016"><a xlink:title=" ">
<polygon fill="#e0e0e0" stroke="#999999" points="840.02,-201.88 811.23,-201.88 811.23,-182.62 840.02,-182.62 840.02,-201.88"/>
<text text-anchor="middle" x="825.62" y="-188.38" font-family="Helvetica,sans-Serif" font-size="10.00">list</text>
</a>
</g>
</g>
<!-- Node7&#45;&gt;Node16 -->
<g id="edge16_Node000007_Node000016" class="edge">
<title>Node7&#45;&gt;Node16</title>
<g id="a_edge16_Node000007_Node000016"><a xlink:title=" ">
<path fill="none" stroke="#63b8ff" d="M689.29,-243.07C718.61,-235 761.49,-222.21 797.62,-207.5 798.58,-207.11 799.54,-206.71 800.5,-206.28"/>
<polygon fill="#63b8ff" stroke="#63b8ff" points="801.84,-209.53 809.36,-202.07 798.83,-203.2 801.84,-209.53"/>
</a>
</g>
</g>
<!-- Node17 -->
<g id="Node000017" class="node">
<title>Node17</title>
<g id="a_Node000017"><a xlink:href="IssueFactory_8hpp.html" target="_top" xlink:title=" ">
<polygon fill="white" stroke="#666666" points="687,-201.88 580.25,-201.88 580.25,-182.62 687,-182.62 687,-201.88"/>
<text text-anchor="middle" x="633.62" y="-188.38" font-family="Helvetica,sans-Serif" font-size="10.00">ers/IssueFactory.hpp</text>
</a>
</g>
</g>
<!-- Node7&#45;&gt;Node17 -->
<g id="edge17_Node000007_Node000017" class="edge">
<title>Node7&#45;&gt;Node17</title>
<g id="a_edge17_Node000007_Node000017"><a xlink:title=" ">
<path fill="none" stroke="#63b8ff" d="M651.44,-243.18C648.6,-235.23 644.35,-223.31 640.71,-213.12"/>
<polygon fill="#63b8ff" stroke="#63b8ff" points="644.01,-211.94 637.35,-203.7 637.42,-214.3 644.01,-211.94"/>
</a>
</g>
</g>
<!-- Node18 -->
<g id="Node000018" class="node">
<title>Node18</title>
<g id="a_Node000018"><a xlink:href="Severity_8hpp.html" target="_top" xlink:title=" ">
<polygon fill="white" stroke="#666666" points="760.5,-135.38 674.75,-135.38 674.75,-116.12 760.5,-116.12 760.5,-135.38"/>
<text text-anchor="middle" x="717.62" y="-121.88" font-family="Helvetica,sans-Serif" font-size="10.00">ers/Severity.hpp</text>
</a>
</g>
</g>
<!-- Node7&#45;&gt;Node18 -->
<g id="edge34_Node000007_Node000018" class="edge">
<title>Node7&#45;&gt;Node18</title>
<g id="a_edge34_Node000007_Node000018"><a xlink:title=" ">
<path fill="none" stroke="#63b8ff" d="M692.34,-248.92C743.16,-243.74 829.47,-231.56 848.62,-207.5 857.07,-196.89 856.3,-188.17 848.62,-177 838.71,-162.57 798.62,-148.5 765.38,-138.94"/>
<polygon fill="#63b8ff" stroke="#63b8ff" points="766.45,-135.6 755.87,-136.28 764.56,-142.35 766.45,-135.6"/>
</a>
</g>
</g>
<!-- Node19 -->
<g id="Node000019" class="node">
<title>Node19</title>
<g id="a_Node000019"><a xlink:href="LocalContext_8hpp.html" target="_top" xlink:title=" ">
<polygon fill="white" stroke="#666666" points="332.38,-201.88 224.88,-201.88 224.88,-182.62 332.38,-182.62 332.38,-201.88"/>
<text text-anchor="middle" x="278.62" y="-188.38" font-family="Helvetica,sans-Serif" font-size="10.00">ers/LocalContext.hpp</text>
</a>
</g>
</g>
<!-- Node7&#45;&gt;Node19 -->
<g id="edge26_Node000007_Node000019" class="edge">
<title>Node7&#45;&gt;Node19</title>
<g id="a_edge26_Node000007_Node000019"><a xlink:title=" ">
<path fill="none" stroke="#63b8ff" d="M617,-244.91C614.17,-244.42 611.35,-243.94 608.62,-243.5 492.61,-224.66 462.44,-227.57 346.62,-207.5 341.4,-206.6 335.97,-205.58 330.55,-204.52"/>
<polygon fill="#63b8ff" stroke="#63b8ff" points="331.51,-201.14 321.01,-202.6 330.13,-208.01 331.51,-201.14"/>
</a>
</g>
</g>
<!-- Node24 -->
<g id="Node000024" class="node">
<title>Node24</title>
<g id="a_Node000024"><a xlink:href="IssueDeclarationMacro_8hpp.html" target="_top" xlink:title=" ">
<polygon fill="white" stroke="#666666" points="1170.5,-207.5 1030.75,-207.5 1030.75,-177 1170.5,-177 1170.5,-207.5"/>
<text text-anchor="start" x="1038.75" y="-194" font-family="Helvetica,sans-Serif" font-size="10.00">ers/internal/IssueDeclaration</text>
<text text-anchor="middle" x="1100.62" y="-182.75" font-family="Helvetica,sans-Serif" font-size="10.00">Macro.hpp</text>
</a>
</g>
</g>
<!-- Node7&#45;&gt;Node24 -->
<g id="edge35_Node000007_Node000024" class="edge">
<title>Node7&#45;&gt;Node24</title>
<g id="a_edge35_Node000007_Node000024"><a xlink:title=" ">
<path fill="none" stroke="#63b8ff" d="M692.27,-247.16C764.08,-237.68 922.13,-216.81 1019.18,-204"/>
<polygon fill="#63b8ff" stroke="#63b8ff" points="1019.46,-207.49 1028.92,-202.72 1018.54,-200.56 1019.46,-207.49"/>
</a>
</g>
</g>
<!-- Node17&#45;&gt;Node4 -->
<g id="edge19_Node000017_Node000004" class="edge">
<title>Node17&#45;&gt;Node4</title>
<g id="a_edge19_Node000017_Node000004"><a xlink:title=" ">
<path fill="none" stroke="#63b8ff" d="M625.75,-182.41C617.88,-172.94 606.31,-157.09 601.62,-141 597.83,-127.99 598.2,-123.62 601.62,-110.5 604.03,-101.28 608.81,-91.96 613.55,-84.23"/>
<polygon fill="#63b8ff" stroke="#63b8ff" points="616.32,-86.38 618.93,-76.11 610.49,-82.51 616.32,-86.38"/>
</a>
</g>
</g>
<!-- Node17&#45;&gt;Node5 -->
<g id="edge20_Node000017_Node000005" class="edge">
<title>Node17&#45;&gt;Node5</title>
<g id="a_edge20_Node000017_Node000005"><a xlink:title=" ">
<path fill="none" stroke="#63b8ff" d="M624.76,-182.25C607.42,-165.23 567.09,-128.44 525.62,-110.5 486.56,-93.6 365.13,-77.1 305.85,-69.79"/>
<polygon fill="#63b8ff" stroke="#63b8ff" points="306.38,-66.33 296.03,-68.6 305.54,-73.28 306.38,-66.33"/>
</a>
</g>
</g>
<!-- Node17&#45;&gt;Node11 -->
<g id="edge21_Node000017_Node000011" class="edge">
<title>Node17&#45;&gt;Node11</title>
<g id="a_edge21_Node000017_Node000011"><a xlink:title=" ">
<path fill="none" stroke="#63b8ff" d="M614.71,-182.15C591.99,-171.21 553.66,-152.76 527.53,-140.18"/>
<polygon fill="#63b8ff" stroke="#63b8ff" points="529.06,-137.03 518.53,-135.85 526.02,-143.34 529.06,-137.03"/>
</a>
</g>
</g>
<!-- Node17&#45;&gt;Node15 -->
<g id="edge18_Node000017_Node000015" class="edge">
<title>Node17&#45;&gt;Node15</title>
<g id="a_edge18_Node000017_Node000015"><a xlink:title=" ">
<path fill="none" stroke="#63b8ff" d="M633.62,-182.28C633.62,-173.23 633.62,-158.95 633.62,-147.13"/>
<polygon fill="#63b8ff" stroke="#63b8ff" points="637.13,-147.16 633.63,-137.16 630.13,-147.16 637.13,-147.16"/>
</a>
</g>
</g>
<!-- Node17&#45;&gt;Node18 -->
<g id="edge22_Node000017_Node000018" class="edge">
<title>Node17&#45;&gt;Node18</title>
<g id="a_edge22_Node000017_Node000018"><a xlink:title=" ">
<path fill="none" stroke="#63b8ff" d="M645.3,-182.28C658.64,-172.04 680.72,-155.09 696.98,-142.6"/>
<polygon fill="#63b8ff" stroke="#63b8ff" points="698.77,-145.64 704.57,-136.77 694.51,-140.09 698.77,-145.64"/>
</a>
</g>
</g>
<!-- Node18&#45;&gt;Node4 -->
<g id="edge23_Node000018_Node000004" class="edge">
<title>Node18&#45;&gt;Node4</title>
<g id="a_edge23_Node000018_Node000004"><a xlink:title=" ">
<path fill="none" stroke="#63b8ff" d="M703.8,-115.81C689.51,-106.56 666.92,-91.95 649.87,-80.92"/>
<polygon fill="#63b8ff" stroke="#63b8ff" points="652.14,-78.22 641.85,-75.72 648.34,-84.09 652.14,-78.22"/>
</a>
</g>
</g>
<!-- Node18&#45;&gt;Node5 -->
<g id="edge24_Node000018_Node000005" class="edge">
<title>Node18&#45;&gt;Node5</title>
<g id="a_edge24_Node000018_Node000005"><a xlink:title=" ">
<path fill="none" stroke="#63b8ff" d="M687.56,-115.67C680.42,-113.74 672.79,-111.88 665.62,-110.5 596.77,-97.24 387.64,-76.73 305.89,-68.98"/>
<polygon fill="#63b8ff" stroke="#63b8ff" points="306.35,-65.51 296.07,-68.06 305.69,-72.48 306.35,-65.51"/>
</a>
</g>
</g>
<!-- Node18&#45;&gt;Node12 -->
<g id="edge25_Node000018_Node000012" class="edge">
<title>Node18&#45;&gt;Node12</title>
<g id="a_edge25_Node000018_Node000012"><a xlink:title=" ">
<path fill="none" stroke="#63b8ff" d="M717.62,-115.79C717.62,-97.63 717.62,-56.04 717.62,-30.95"/>
<polygon fill="#63b8ff" stroke="#63b8ff" points="721.13,-31.05 717.63,-21.05 714.13,-31.05 721.13,-31.05"/>
</a>
</g>
</g>
<!-- Node20 -->
<g id="Node000020" class="node">
<title>Node20</title>
<g id="a_Node000020"><a xlink:title=" ">
<polygon fill="#e0e0e0" stroke="#999999" points="397,-135.38 332.25,-135.38 332.25,-116.12 397,-116.12 397,-135.38"/>
<text text-anchor="middle" x="364.62" y="-121.88" font-family="Helvetica,sans-Serif" font-size="10.00">sys/types.h</text>
</a>
</g>
</g>
<!-- Node19&#45;&gt;Node20 -->
<g id="edge27_Node000019_Node000020" class="edge">
<title>Node19&#45;&gt;Node20</title>
<g id="a_edge27_Node000019_Node000020"><a xlink:title=" ">
<path fill="none" stroke="#63b8ff" d="M290.58,-182.28C304.24,-172.04 326.84,-155.09 343.49,-142.6"/>
<polygon fill="#63b8ff" stroke="#63b8ff" points="345.38,-145.56 351.28,-136.76 341.18,-139.96 345.38,-145.56"/>
</a>
</g>
</g>
<!-- Node21 -->
<g id="Node000021" class="node">
<title>Node21</title>
<g id="a_Node000021"><a xlink:title=" ">
<polygon fill="#e0e0e0" stroke="#999999" points="464.5,-135.38 414.75,-135.38 414.75,-116.12 464.5,-116.12 464.5,-135.38"/>
<text text-anchor="middle" x="439.62" y="-121.88" font-family="Helvetica,sans-Serif" font-size="10.00">unistd.h</text>
</a>
</g>
</g>
<!-- Node19&#45;&gt;Node21 -->
<g id="edge28_Node000019_Node000021" class="edge">
<title>Node19&#45;&gt;Node21</title>
<g id="a_edge28_Node000019_Node000021"><a xlink:title=" ">
<path fill="none" stroke="#63b8ff" d="M302.09,-182.13C327.62,-172.17 369.61,-155.67 405.62,-141 406.25,-140.74 406.89,-140.48 407.53,-140.22"/>
<polygon fill="#63b8ff" stroke="#63b8ff" points="408.77,-143.5 416.67,-136.44 406.09,-137.03 408.77,-143.5"/>
</a>
</g>
</g>
<!-- Node22 -->
<g id="Node000022" class="node">
<title>Node22</title>
<g id="a_Node000022"><a xlink:href="Context_8hpp.html" target="_top" xlink:title=" ">
<polygon fill="white" stroke="#666666" points="314.38,-135.38 230.88,-135.38 230.88,-116.12 314.38,-116.12 314.38,-135.38"/>
<text text-anchor="middle" x="272.62" y="-121.88" font-family="Helvetica,sans-Serif" font-size="10.00">ers/Context.hpp</text>
</a>
</g>
</g>
<!-- Node19&#45;&gt;Node22 -->
<g id="edge29_Node000019_Node000022" class="edge">
<title>Node19&#45;&gt;Node22</title>
<g id="a_edge29_Node000019_Node000022"><a xlink:title=" ">
<path fill="none" stroke="#63b8ff" d="M277.79,-182.28C276.94,-173.14 275.59,-158.64 274.49,-146.75"/>
<polygon fill="#63b8ff" stroke="#63b8ff" points="278,-146.78 273.59,-137.15 271.03,-147.43 278,-146.78"/>
</a>
</g>
</g>
<!-- Node22&#45;&gt;Node4 -->
<g id="edge30_Node000022_Node000004" class="edge">
<title>Node22&#45;&gt;Node4</title>
<g id="a_edge30_Node000022_Node000004"><a xlink:title=" ">
<path fill="none" stroke="#63b8ff" d="M302.67,-115.68C309.52,-113.8 316.79,-111.95 323.62,-110.5 421.75,-89.65 539.8,-75.3 595.12,-69.19"/>
<polygon fill="#63b8ff" stroke="#63b8ff" points="595.19,-72.7 604.75,-68.14 594.43,-65.74 595.19,-72.7"/>
</a>
</g>
</g>
<!-- Node22&#45;&gt;Node5 -->
<g id="edge31_Node000022_Node000005" class="edge">
<title>Node22&#45;&gt;Node5</title>
<g id="a_edge31_Node000022_Node000005"><a xlink:title=" ">
<path fill="none" stroke="#63b8ff" d="M272.62,-115.81C272.62,-108.03 272.62,-96.45 272.62,-86.41"/>
<polygon fill="#63b8ff" stroke="#63b8ff" points="276.13,-86.41 272.63,-76.41 269.13,-86.41 276.13,-86.41"/>
</a>
</g>
</g>
<!-- Node23 -->
<g id="Node000023" class="node">
<title>Node23</title>
<g id="a_Node000023"><a xlink:href="ers_2include_2ers_2Configuration_8hpp.html" target="_top" xlink:title=" ">
<polygon fill="white" stroke="#666666" points="483,-74.5 376.25,-74.5 376.25,-55.25 483,-55.25 483,-74.5"/>
<text text-anchor="middle" x="429.62" y="-61" font-family="Helvetica,sans-Serif" font-size="10.00">ers/Configuration.hpp</text>
</a>
</g>
</g>
<!-- Node22&#45;&gt;Node23 -->
<g id="edge32_Node000022_Node000023" class="edge">
<title>Node22&#45;&gt;Node23</title>
<g id="a_edge32_Node000022_Node000023"><a xlink:title=" ">
<path fill="none" stroke="#63b8ff" d="M296.81,-115.68C322.97,-105.87 364.92,-90.14 394.67,-78.98"/>
<polygon fill="#63b8ff" stroke="#63b8ff" points="395.86,-82.28 403.99,-75.49 393.4,-75.72 395.86,-82.28"/>
</a>
</g>
</g>
<!-- Node23&#45;&gt;Node12 -->
<g id="edge33_Node000023_Node000012" class="edge">
<title>Node23&#45;&gt;Node12</title>
<g id="a_edge33_Node000023_Node000012"><a xlink:title=" ">
<path fill="none" stroke="#63b8ff" d="M478.81,-54.78C535.59,-44.28 627.79,-27.23 679.45,-17.68"/>
<polygon fill="#63b8ff" stroke="#63b8ff" points="680.06,-21.13 689.26,-15.87 678.79,-14.25 680.06,-21.13"/>
</a>
</g>
</g>
<!-- Node25 -->
<g id="Node000025" class="node">
<title>Node25</title>
<g id="a_Node000025"><a xlink:title=" ">
<polygon fill="#e0e0e0" stroke="#999999" points="1150.25,-141 1051,-141 1051,-110.5 1150.25,-110.5 1150.25,-141"/>
<text text-anchor="start" x="1059" y="-127.5" font-family="Helvetica,sans-Serif" font-size="10.00">boost/preprocessor</text>
<text text-anchor="middle" x="1100.62" y="-116.25" font-family="Helvetica,sans-Serif" font-size="10.00">/if.hpp</text>
</a>
</g>
</g>
<!-- Node24&#45;&gt;Node25 -->
<g id="edge36_Node000024_Node000025" class="edge">
<title>Node24&#45;&gt;Node25</title>
<g id="a_edge36_Node000024_Node000025"><a xlink:title=" ">
<path fill="none" stroke="#63b8ff" d="M1100.62,-176.61C1100.62,-169.52 1100.62,-160.79 1100.62,-152.63"/>
<polygon fill="#63b8ff" stroke="#63b8ff" points="1104.13,-152.84 1100.63,-142.84 1097.13,-152.84 1104.13,-152.84"/>
</a>
</g>
</g>
<!-- Node26 -->
<g id="Node000026" class="node">
<title>Node26</title>
<g id="a_Node000026"><a xlink:title=" ">
<polygon fill="#e0e0e0" stroke="#999999" points="1267.25,-141 1168,-141 1168,-110.5 1267.25,-110.5 1267.25,-141"/>
<text text-anchor="start" x="1176" y="-127.5" font-family="Helvetica,sans-Serif" font-size="10.00">boost/preprocessor</text>
<text text-anchor="middle" x="1217.62" y="-116.25" font-family="Helvetica,sans-Serif" font-size="10.00">/seq.hpp</text>
</a>
</g>
</g>
<!-- Node24&#45;&gt;Node26 -->
<g id="edge37_Node000024_Node000026" class="edge">
<title>Node24&#45;&gt;Node26</title>
<g id="a_edge37_Node000024_Node000026"><a xlink:title=" ">
<path fill="none" stroke="#63b8ff" d="M1127.17,-176.61C1143.18,-167.79 1163.79,-156.43 1181.29,-146.78"/>
<polygon fill="#63b8ff" stroke="#63b8ff" points="1182.79,-149.95 1189.86,-142.06 1179.41,-143.82 1182.79,-149.95"/>
</a>
</g>
</g>
<!-- Node27 -->
<g id="Node000027" class="node">
<title>Node27</title>
<g id="a_Node000027"><a xlink:title=" ">
<polygon fill="#e0e0e0" stroke="#999999" points="1384.25,-141 1285,-141 1285,-110.5 1384.25,-110.5 1384.25,-141"/>
<text text-anchor="start" x="1293" y="-127.5" font-family="Helvetica,sans-Serif" font-size="10.00">boost/preprocessor</text>
<text text-anchor="middle" x="1334.62" y="-116.25" font-family="Helvetica,sans-Serif" font-size="10.00">/tuple.hpp</text>
</a>
</g>
</g>
<!-- Node24&#45;&gt;Node27 -->
<g id="edge38_Node000024_Node000027" class="edge">
<title>Node24&#45;&gt;Node27</title>
<g id="a_edge38_Node000024_Node000027"><a xlink:title=" ">
<path fill="none" stroke="#63b8ff" d="M1154.02,-176.53C1189.74,-166.69 1236.84,-153.7 1273.98,-143.47"/>
<polygon fill="#63b8ff" stroke="#63b8ff" points="1274.49,-146.95 1283.21,-140.92 1272.63,-140.21 1274.49,-146.95"/>
</a>
</g>
</g>
<!-- Node28 -->
<g id="Node000028" class="node">
<title>Node28</title>
<g id="a_Node000028"><a xlink:title=" ">
<polygon fill="#e0e0e0" stroke="#999999" points="1501.25,-141 1402,-141 1402,-110.5 1501.25,-110.5 1501.25,-141"/>
<text text-anchor="start" x="1410" y="-127.5" font-family="Helvetica,sans-Serif" font-size="10.00">boost/preprocessor</text>
<text text-anchor="middle" x="1451.62" y="-116.25" font-family="Helvetica,sans-Serif" font-size="10.00">/logical.hpp</text>
</a>
</g>
</g>
<!-- Node24&#45;&gt;Node28 -->
<g id="edge39_Node000024_Node000028" class="edge">
<title>Node24&#45;&gt;Node28</title>
<g id="a_edge39_Node000024_Node000028"><a xlink:title=" ">
<path fill="none" stroke="#63b8ff" d="M1170.75,-180.66C1227.71,-171.73 1310.36,-158.03 1390.86,-141.5"/>
<polygon fill="#63b8ff" stroke="#63b8ff" points="1391.13,-145.02 1400.21,-139.56 1389.71,-138.17 1391.13,-145.02"/>
</a>
</g>
</g>
<!-- Node29 -->
<g id="Node000029" class="node">
<title>Node29</title>
<g id="a_Node000029"><a xlink:title=" ">
<polygon fill="#e0e0e0" stroke="#999999" points="916.25,-141 817,-141 817,-110.5 916.25,-110.5 916.25,-141"/>
<text text-anchor="start" x="825" y="-127.5" font-family="Helvetica,sans-Serif" font-size="10.00">boost/preprocessor</text>
<text text-anchor="middle" x="866.62" y="-116.25" font-family="Helvetica,sans-Serif" font-size="10.00">/stringize.hpp</text>
</a>
</g>
</g>
<!-- Node24&#45;&gt;Node29 -->
<g id="edge40_Node000024_Node000029" class="edge">
<title>Node24&#45;&gt;Node29</title>
<g id="a_edge40_Node000024_Node000029"><a xlink:title=" ">
<path fill="none" stroke="#63b8ff" d="M1047.23,-176.53C1011.51,-166.69 964.41,-153.7 927.27,-143.47"/>
<polygon fill="#63b8ff" stroke="#63b8ff" points="928.62,-140.21 918.04,-140.92 926.76,-146.95 928.62,-140.21"/>
</a>
</g>
</g>
<!-- Node30 -->
<g id="Node000030" class="node">
<title>Node30</title>
<g id="a_Node000030"><a xlink:title=" ">
<polygon fill="#e0e0e0" stroke="#999999" points="1033.25,-141 934,-141 934,-110.5 1033.25,-110.5 1033.25,-141"/>
<text text-anchor="start" x="942" y="-127.5" font-family="Helvetica,sans-Serif" font-size="10.00">boost/preprocessor</text>
<text text-anchor="middle" x="983.62" y="-116.25" font-family="Helvetica,sans-Serif" font-size="10.00">/comparison.hpp</text>
</a>
</g>
</g>
<!-- Node24&#45;&gt;Node30 -->
<g id="edge41_Node000024_Node000030" class="edge">
<title>Node24&#45;&gt;Node30</title>
<g id="a_edge41_Node000024_Node000030"><a xlink:title=" ">
<path fill="none" stroke="#63b8ff" d="M1074.08,-176.61C1058.07,-167.79 1037.46,-156.43 1019.96,-146.78"/>
<polygon fill="#63b8ff" stroke="#63b8ff" points="1021.84,-143.82 1011.39,-142.06 1018.46,-149.95 1021.84,-143.82"/>
</a>
</g>
</g>
</g>
</svg>
