<?xml version="1.0" encoding="UTF-8" standalone="no"?>
<!DOCTYPE svg PUBLIC "-//W3C//DTD SVG 1.1//EN"
 "http://www.w3.org/Graphics/SVG/1.1/DTD/svg11.dtd">
<!-- Generated by graphviz version 9.0.0 (20230911.1827)
 -->
<!-- Title: /github/workspace/dev_area/sourcecode/dbe/include/dbe/SchemaGraphicArrow.hpp Pages: 1 -->
<svg width="579pt" height="139pt"
 viewBox="0.00 0.00 579.12 138.75" xmlns="http://www.w3.org/2000/svg" xmlns:xlink="http://www.w3.org/1999/xlink">
<g id="graph0" class="graph" transform="scale(1 1) rotate(0) translate(4 134.75)">
<title>/github/workspace/dev_area/sourcecode/dbe/include/dbe/SchemaGraphicArrow.hpp</title>
<!-- Node1 -->
<g id="Node000001" class="node">
<title>Node1</title>
<g id="a_Node000001"><a xlink:title=" ">
<polygon fill="#999999" stroke="#666666" points="375.62,-130.75 190.88,-130.75 190.88,-89 375.62,-89 375.62,-130.75"/>
<text text-anchor="start" x="198.88" y="-117.25" font-family="Helvetica,sans-Serif" font-size="10.00">/github/workspace/dev</text>
<text text-anchor="start" x="198.88" y="-106" font-family="Helvetica,sans-Serif" font-size="10.00">_area/sourcecode/dbe</text>
<text text-anchor="middle" x="283.25" y="-94.75" font-family="Helvetica,sans-Serif" font-size="10.00">/include/dbe/SchemaGraphicArrow.hpp</text>
</a>
</g>
</g>
<!-- Node2 -->
<g id="Node000002" class="node">
<title>Node2</title>
<g id="a_Node000002"><a xlink:href="SchemaGraphicArrow_8cpp.html" target="_top" xlink:title=" ">
<polygon fill="white" stroke="#666666" points="176.5,-53 0,-53 0,0 176.5,0 176.5,-53"/>
<text text-anchor="start" x="8" y="-39.5" font-family="Helvetica,sans-Serif" font-size="10.00">/github/workspace/dev</text>
<text text-anchor="start" x="8" y="-28.25" font-family="Helvetica,sans-Serif" font-size="10.00">_area/sourcecode/dbe</text>
<text text-anchor="start" x="8" y="-17" font-family="Helvetica,sans-Serif" font-size="10.00">/apps/SchemaEditor/SchemaGraphic</text>
<text text-anchor="middle" x="88.25" y="-5.75" font-family="Helvetica,sans-Serif" font-size="10.00">Arrow.cpp</text>
</a>
</g>
</g>
<!-- Node1&#45;&gt;Node2 -->
<g id="edge1_Node000001_Node000002" class="edge">
<title>Node1&#45;&gt;Node2</title>
<g id="a_edge1_Node000001_Node000002"><a xlink:title=" ">
<path fill="none" stroke="#63b8ff" d="M224.09,-84.19C200.76,-74.45 173.94,-63.26 150.33,-53.41"/>
<polygon fill="#63b8ff" stroke="#63b8ff" points="222.57,-87.35 233.15,-87.97 225.27,-80.89 222.57,-87.35"/>
</a>
</g>
</g>
<!-- Node3 -->
<g id="Node000003" class="node">
<title>Node3</title>
<g id="a_Node000003"><a xlink:href="SchemaGraphicObject_8cpp.html" target="_top" xlink:title=" ">
<polygon fill="white" stroke="#666666" points="371.5,-53 195,-53 195,0 371.5,0 371.5,-53"/>
<text text-anchor="start" x="203" y="-39.5" font-family="Helvetica,sans-Serif" font-size="10.00">/github/workspace/dev</text>
<text text-anchor="start" x="203" y="-28.25" font-family="Helvetica,sans-Serif" font-size="10.00">_area/sourcecode/dbe</text>
<text text-anchor="start" x="203" y="-17" font-family="Helvetica,sans-Serif" font-size="10.00">/apps/SchemaEditor/SchemaGraphic</text>
<text text-anchor="middle" x="283.25" y="-5.75" font-family="Helvetica,sans-Serif" font-size="10.00">Object.cpp</text>
</a>
</g>
</g>
<!-- Node1&#45;&gt;Node3 -->
<g id="edge2_Node000001_Node000003" class="edge">
<title>Node1&#45;&gt;Node3</title>
<g id="a_edge2_Node000001_Node000003"><a xlink:title=" ">
<path fill="none" stroke="#63b8ff" d="M283.25,-77.52C283.25,-69.49 283.25,-60.94 283.25,-53.23"/>
<polygon fill="#63b8ff" stroke="#63b8ff" points="279.75,-77.25 283.25,-87.25 286.75,-77.25 279.75,-77.25"/>
</a>
</g>
</g>
<!-- Node4 -->
<g id="Node000004" class="node">
<title>Node4</title>
<g id="a_Node000004"><a xlink:href="SchemaGraphicsScene_8cpp.html" target="_top" xlink:title=" ">
<polygon fill="white" stroke="#666666" points="571.12,-53 389.38,-53 389.38,0 571.12,0 571.12,-53"/>
<text text-anchor="start" x="397.38" y="-39.5" font-family="Helvetica,sans-Serif" font-size="10.00">/github/workspace/dev</text>
<text text-anchor="start" x="397.38" y="-28.25" font-family="Helvetica,sans-Serif" font-size="10.00">_area/sourcecode/dbe</text>
<text text-anchor="start" x="397.38" y="-17" font-family="Helvetica,sans-Serif" font-size="10.00">/apps/SchemaEditor/SchemaGraphics</text>
<text text-anchor="middle" x="480.25" y="-5.75" font-family="Helvetica,sans-Serif" font-size="10.00">Scene.cpp</text>
</a>
</g>
</g>
<!-- Node1&#45;&gt;Node4 -->
<g id="edge3_Node000001_Node000004" class="edge">
<title>Node1&#45;&gt;Node4</title>
<g id="a_edge3_Node000001_Node000004"><a xlink:title=" ">
<path fill="none" stroke="#63b8ff" d="M343.01,-84.19C366.58,-74.45 393.68,-63.26 417.53,-53.41"/>
<polygon fill="#63b8ff" stroke="#63b8ff" points="341.76,-80.92 333.85,-87.97 344.43,-87.39 341.76,-80.92"/>
</a>
</g>
</g>
</g>
</svg>
