<?xml version="1.0" encoding="UTF-8" standalone="no"?>
<!DOCTYPE svg PUBLIC "-//W3C//DTD SVG 1.1//EN"
 "http://www.w3.org/Graphics/SVG/1.1/DTD/svg11.dtd">
<!-- Generated by graphviz version 9.0.0 (20230911.1827)
 -->
<!-- Title: /github/workspace/dev_area/sourcecode/dfmessages/include/dfmessages/SourceID_serialization.hpp Pages: 1 -->
<svg width="1431pt" height="650pt"
 viewBox="0.00 0.00 1430.88 650.25" xmlns="http://www.w3.org/2000/svg" xmlns:xlink="http://www.w3.org/1999/xlink">
<g id="graph0" class="graph" transform="scale(1 1) rotate(0) translate(4 646.25)">
<title>/github/workspace/dev_area/sourcecode/dfmessages/include/dfmessages/SourceID_serialization.hpp</title>
<!-- Node1 -->
<g id="Node000001" class="node">
<title>Node1</title>
<g id="a_Node000001"><a xlink:title=" ">
<polygon fill="#999999" stroke="#666666" points="928.5,-642.25 779,-642.25 779,-589.25 928.5,-589.25 928.5,-642.25"/>
<text text-anchor="start" x="787" y="-628.75" font-family="Helvetica,sans-Serif" font-size="10.00">/github/workspace/dev</text>
<text text-anchor="start" x="787" y="-617.5" font-family="Helvetica,sans-Serif" font-size="10.00">_area/sourcecode/dfmessages</text>
<text text-anchor="start" x="787" y="-606.25" font-family="Helvetica,sans-Serif" font-size="10.00">/include/dfmessages/SourceID</text>
<text text-anchor="middle" x="853.75" y="-595" font-family="Helvetica,sans-Serif" font-size="10.00">_serialization.hpp</text>
</a>
</g>
</g>
<!-- Node2 -->
<g id="Node000002" class="node">
<title>Node2</title>
<g id="a_Node000002"><a xlink:href="ComponentRequest__serialization_8hpp.html" target="_top" xlink:title=" ">
<polygon fill="white" stroke="#666666" points="702,-553.25 507.5,-553.25 507.5,-500.25 702,-500.25 702,-553.25"/>
<text text-anchor="start" x="515.5" y="-539.75" font-family="Helvetica,sans-Serif" font-size="10.00">/github/workspace/dev</text>
<text text-anchor="start" x="515.5" y="-528.5" font-family="Helvetica,sans-Serif" font-size="10.00">_area/sourcecode/dfmessages</text>
<text text-anchor="start" x="515.5" y="-517.25" font-family="Helvetica,sans-Serif" font-size="10.00">/include/dfmessages/ComponentRequest</text>
<text text-anchor="middle" x="604.75" y="-506" font-family="Helvetica,sans-Serif" font-size="10.00">_serialization.hpp</text>
</a>
</g>
</g>
<!-- Node1&#45;&gt;Node2 -->
<g id="edge1_Node000001_Node000002" class="edge">
<title>Node1&#45;&gt;Node2</title>
<g id="a_edge1_Node000001_Node000002"><a xlink:title=" ">
<path fill="none" stroke="#63b8ff" d="M768.77,-585.06C739.52,-574.84 707.03,-563.49 678.74,-553.6"/>
<polygon fill="#63b8ff" stroke="#63b8ff" points="767.36,-588.27 777.95,-588.27 769.66,-581.66 767.36,-588.27"/>
</a>
</g>
</g>
<!-- Node23 -->
<g id="Node000023" class="node">
<title>Node23</title>
<g id="a_Node000023"><a xlink:href="Serialization_8cpp.html" target="_top" xlink:title=" ">
<polygon fill="white" stroke="#666666" points="852.5,-464.25 703,-464.25 703,-422.5 852.5,-422.5 852.5,-464.25"/>
<text text-anchor="start" x="711" y="-450.75" font-family="Helvetica,sans-Serif" font-size="10.00">/github/workspace/dev</text>
<text text-anchor="start" x="711" y="-439.5" font-family="Helvetica,sans-Serif" font-size="10.00">_area/sourcecode/dfmessages</text>
<text text-anchor="middle" x="777.75" y="-428.25" font-family="Helvetica,sans-Serif" font-size="10.00">/src/Serialization.cpp</text>
</a>
</g>
</g>
<!-- Node1&#45;&gt;Node23 -->
<g id="edge29_Node000001_Node000023" class="edge">
<title>Node1&#45;&gt;Node23</title>
<g id="a_edge29_Node000001_Node000023"><a xlink:title=" ">
<path fill="none" stroke="#63b8ff" d="M802.57,-581.5C793.8,-573.36 785.88,-563.88 780.75,-553.25 767.04,-524.8 769.94,-487.14 773.61,-464.39"/>
<polygon fill="#63b8ff" stroke="#63b8ff" points="800.16,-584.05 810.03,-587.91 804.72,-578.74 800.16,-584.05"/>
</a>
</g>
</g>
<!-- Node24 -->
<g id="Node000024" class="node">
<title>Node24</title>
<g id="a_Node000024"><a xlink:href="TASet_8hpp.html" target="_top" xlink:title=" ">
<polygon fill="white" stroke="#666666" points="918,-547.62 789.5,-547.62 789.5,-505.88 918,-505.88 918,-547.62"/>
<text text-anchor="start" x="797.5" y="-534.12" font-family="Helvetica,sans-Serif" font-size="10.00">/github/workspace/dev</text>
<text text-anchor="start" x="797.5" y="-522.88" font-family="Helvetica,sans-Serif" font-size="10.00">_area/sourcecode/trigger</text>
<text text-anchor="middle" x="853.75" y="-511.62" font-family="Helvetica,sans-Serif" font-size="10.00">/include/trigger/TASet.hpp</text>
</a>
</g>
</g>
<!-- Node1&#45;&gt;Node24 -->
<g id="edge30_Node000001_Node000024" class="edge">
<title>Node1&#45;&gt;Node24</title>
<g id="a_edge30_Node000001_Node000024"><a xlink:title=" ">
<path fill="none" stroke="#63b8ff" d="M853.75,-577.88C853.75,-567.63 853.75,-556.87 853.75,-547.96"/>
<polygon fill="#63b8ff" stroke="#63b8ff" points="850.25,-577.6 853.75,-587.6 857.25,-577.6 850.25,-577.6"/>
</a>
</g>
</g>
<!-- Node25 -->
<g id="Node000025" class="node">
<title>Node25</title>
<g id="a_Node000025"><a xlink:href="TCSet_8hpp.html" target="_top" xlink:title=" ">
<polygon fill="white" stroke="#666666" points="1065,-547.62 936.5,-547.62 936.5,-505.88 1065,-505.88 1065,-547.62"/>
<text text-anchor="start" x="944.5" y="-534.12" font-family="Helvetica,sans-Serif" font-size="10.00">/github/workspace/dev</text>
<text text-anchor="start" x="944.5" y="-522.88" font-family="Helvetica,sans-Serif" font-size="10.00">_area/sourcecode/trigger</text>
<text text-anchor="middle" x="1000.75" y="-511.62" font-family="Helvetica,sans-Serif" font-size="10.00">/include/trigger/TCSet.hpp</text>
</a>
</g>
</g>
<!-- Node1&#45;&gt;Node25 -->
<g id="edge31_Node000001_Node000025" class="edge">
<title>Node1&#45;&gt;Node25</title>
<g id="a_edge31_Node000001_Node000025"><a xlink:title=" ">
<path fill="none" stroke="#63b8ff" d="M907.31,-583.05C927.18,-571.29 949.14,-558.3 966.78,-547.86"/>
<polygon fill="#63b8ff" stroke="#63b8ff" points="905.58,-580.01 898.76,-588.11 909.15,-586.03 905.58,-580.01"/>
</a>
</g>
</g>
<!-- Node26 -->
<g id="Node000026" class="node">
<title>Node26</title>
<g id="a_Node000026"><a xlink:href="TPSet_8hpp.html" target="_top" xlink:title=" ">
<polygon fill="white" stroke="#666666" points="1212,-547.62 1083.5,-547.62 1083.5,-505.88 1212,-505.88 1212,-547.62"/>
<text text-anchor="start" x="1091.5" y="-534.12" font-family="Helvetica,sans-Serif" font-size="10.00">/github/workspace/dev</text>
<text text-anchor="start" x="1091.5" y="-522.88" font-family="Helvetica,sans-Serif" font-size="10.00">_area/sourcecode/trigger</text>
<text text-anchor="middle" x="1147.75" y="-511.62" font-family="Helvetica,sans-Serif" font-size="10.00">/include/trigger/TPSet.hpp</text>
</a>
</g>
</g>
<!-- Node1&#45;&gt;Node26 -->
<g id="edge32_Node000001_Node000026" class="edge">
<title>Node1&#45;&gt;Node26</title>
<g id="a_edge32_Node000001_Node000026"><a xlink:title=" ">
<path fill="none" stroke="#63b8ff" d="M939.9,-591.94C980.65,-580.82 1029.88,-566.93 1073.75,-553.25 1078.94,-551.63 1084.31,-549.9 1089.69,-548.12"/>
<polygon fill="#63b8ff" stroke="#63b8ff" points="939.11,-588.53 930.38,-594.53 940.94,-595.28 939.11,-588.53"/>
</a>
</g>
</g>
<!-- Node3 -->
<g id="Node000003" class="node">
<title>Node3</title>
<g id="a_Node000003"><a xlink:href="DataRequest_8hpp.html" target="_top" xlink:title=" ">
<polygon fill="white" stroke="#666666" points="354.38,-464.25 171.12,-464.25 171.12,-422.5 354.38,-422.5 354.38,-464.25"/>
<text text-anchor="start" x="179.12" y="-450.75" font-family="Helvetica,sans-Serif" font-size="10.00">/github/workspace/dev</text>
<text text-anchor="start" x="179.12" y="-439.5" font-family="Helvetica,sans-Serif" font-size="10.00">_area/sourcecode/dfmessages</text>
<text text-anchor="middle" x="262.75" y="-428.25" font-family="Helvetica,sans-Serif" font-size="10.00">/include/dfmessages/DataRequest.hpp</text>
</a>
</g>
</g>
<!-- Node2&#45;&gt;Node3 -->
<g id="edge2_Node000002_Node000003" class="edge">
<title>Node2&#45;&gt;Node3</title>
<g id="a_edge2_Node000002_Node000003"><a xlink:title=" ">
<path fill="none" stroke="#63b8ff" d="M496.18,-499.92C448.37,-488.54 393.01,-475.37 348.21,-464.71"/>
<polygon fill="#63b8ff" stroke="#63b8ff" points="495.19,-503.28 505.73,-502.19 496.81,-496.47 495.19,-503.28"/>
</a>
</g>
</g>
<!-- Node16 -->
<g id="Node000016" class="node">
<title>Node16</title>
<g id="a_Node000016"><a xlink:href="TriggerDecision_8hpp.html" target="_top" xlink:title=" ">
<polygon fill="white" stroke="#666666" points="685,-464.25 490.5,-464.25 490.5,-422.5 685,-422.5 685,-464.25"/>
<text text-anchor="start" x="498.5" y="-450.75" font-family="Helvetica,sans-Serif" font-size="10.00">/github/workspace/dev</text>
<text text-anchor="start" x="498.5" y="-439.5" font-family="Helvetica,sans-Serif" font-size="10.00">_area/sourcecode/dfmessages</text>
<text text-anchor="middle" x="587.75" y="-428.25" font-family="Helvetica,sans-Serif" font-size="10.00">/include/dfmessages/TriggerDecision.hpp</text>
</a>
</g>
</g>
<!-- Node2&#45;&gt;Node16 -->
<g id="edge21_Node000002_Node000016" class="edge">
<title>Node2&#45;&gt;Node16</title>
<g id="a_edge21_Node000002_Node000016"><a xlink:title=" ">
<path fill="none" stroke="#63b8ff" d="M597.04,-488.86C595.3,-480.49 593.5,-471.91 591.96,-464.54"/>
<polygon fill="#63b8ff" stroke="#63b8ff" points="593.59,-489.45 599.06,-498.52 600.44,-488.02 593.59,-489.45"/>
</a>
</g>
</g>
<!-- Node2&#45;&gt;Node23 -->
<g id="edge28_Node000002_Node000023" class="edge">
<title>Node2&#45;&gt;Node23</title>
<g id="a_edge28_Node000002_Node000023"><a xlink:title=" ">
<path fill="none" stroke="#63b8ff" d="M670.34,-494.9C691.83,-484.79 715.15,-473.82 734.55,-464.69"/>
<polygon fill="#63b8ff" stroke="#63b8ff" points="668.89,-491.71 661.33,-499.13 671.87,-498.05 668.89,-491.71"/>
</a>
</g>
</g>
<!-- Node4 -->
<g id="Node000004" class="node">
<title>Node4</title>
<g id="a_Node000004"><a xlink:href="RequestHandlerConcept_8hpp.html" target="_top" xlink:title=" ">
<polygon fill="white" stroke="#666666" points="270.5,-386.5 127,-386.5 127,-333.5 270.5,-333.5 270.5,-386.5"/>
<text text-anchor="start" x="135" y="-373" font-family="Helvetica,sans-Serif" font-size="10.00">/github/workspace/dev</text>
<text text-anchor="start" x="135" y="-361.75" font-family="Helvetica,sans-Serif" font-size="10.00">_area/sourcecode/readoutlibs</text>
<text text-anchor="start" x="135" y="-350.5" font-family="Helvetica,sans-Serif" font-size="10.00">/include/readoutlibs/concepts</text>
<text text-anchor="middle" x="198.75" y="-339.25" font-family="Helvetica,sans-Serif" font-size="10.00">/RequestHandlerConcept.hpp</text>
</a>
</g>
</g>
<!-- Node3&#45;&gt;Node4 -->
<g id="edge3_Node000003_Node000004" class="edge">
<title>Node3&#45;&gt;Node4</title>
<g id="a_edge3_Node000003_Node000004"><a xlink:title=" ">
<path fill="none" stroke="#63b8ff" d="M239.84,-413.24C233.03,-404.58 225.62,-395.16 218.99,-386.73"/>
<polygon fill="#63b8ff" stroke="#63b8ff" points="237.06,-415.37 245.99,-421.07 242.56,-411.05 237.06,-415.37"/>
</a>
</g>
</g>
<!-- Node5 -->
<g id="Node000005" class="node">
<title>Node5</title>
<g id="a_Node000005"><a xlink:href="DefaultRequestHandlerModel_8hpp.html" target="_top" xlink:title=" ">
<polygon fill="white" stroke="#666666" points="413.62,-297.5 249.88,-297.5 249.88,-244.5 413.62,-244.5 413.62,-297.5"/>
<text text-anchor="start" x="257.88" y="-284" font-family="Helvetica,sans-Serif" font-size="10.00">/github/workspace/dev</text>
<text text-anchor="start" x="257.88" y="-272.75" font-family="Helvetica,sans-Serif" font-size="10.00">_area/sourcecode/readoutlibs</text>
<text text-anchor="start" x="257.88" y="-261.5" font-family="Helvetica,sans-Serif" font-size="10.00">/include/readoutlibs/models</text>
<text text-anchor="middle" x="331.75" y="-250.25" font-family="Helvetica,sans-Serif" font-size="10.00">/DefaultRequestHandlerModel.hpp</text>
</a>
</g>
</g>
<!-- Node3&#45;&gt;Node5 -->
<g id="edge19_Node000003_Node000005" class="edge">
<title>Node3&#45;&gt;Node5</title>
<g id="a_edge19_Node000003_Node000005"><a xlink:title=" ">
<path fill="none" stroke="#63b8ff" d="M275.1,-411.89C288.28,-379.34 308.93,-328.34 321.33,-297.74"/>
<polygon fill="#63b8ff" stroke="#63b8ff" points="272.01,-410.18 271.5,-420.76 278.5,-412.8 272.01,-410.18"/>
</a>
</g>
</g>
<!-- Node15 -->
<g id="Node000015" class="node">
<title>Node15</title>
<g id="a_Node000015"><a xlink:href="ReadoutModel_8hpp.html" target="_top" xlink:title=" ">
<polygon fill="white" stroke="#666666" points="143.5,-297.5 0,-297.5 0,-244.5 143.5,-244.5 143.5,-297.5"/>
<text text-anchor="start" x="8" y="-284" font-family="Helvetica,sans-Serif" font-size="10.00">/github/workspace/dev</text>
<text text-anchor="start" x="8" y="-272.75" font-family="Helvetica,sans-Serif" font-size="10.00">_area/sourcecode/readoutlibs</text>
<text text-anchor="start" x="8" y="-261.5" font-family="Helvetica,sans-Serif" font-size="10.00">/include/readoutlibs/models</text>
<text text-anchor="middle" x="71.75" y="-250.25" font-family="Helvetica,sans-Serif" font-size="10.00">/ReadoutModel.hpp</text>
</a>
</g>
</g>
<!-- Node3&#45;&gt;Node15 -->
<g id="edge20_Node000003_Node000015" class="edge">
<title>Node3&#45;&gt;Node15</title>
<g id="a_edge20_Node000003_Node000015"><a xlink:title=" ">
<path fill="none" stroke="#63b8ff" d="M165.81,-417.82C148.24,-410.01 131.24,-399.8 117.75,-386.5 93.19,-362.29 81.33,-323.24 75.91,-297.6"/>
<polygon fill="#63b8ff" stroke="#63b8ff" points="164.22,-420.95 174.8,-421.56 166.91,-414.49 164.22,-420.95"/>
</a>
</g>
</g>
<!-- Node4&#45;&gt;Node5 -->
<g id="edge4_Node000004_Node000005" class="edge">
<title>Node4&#45;&gt;Node5</title>
<g id="a_edge4_Node000004_Node000005"><a xlink:title=" ">
<path fill="none" stroke="#63b8ff" d="M247.7,-326.98C262.33,-317.41 278.18,-307.04 292.13,-297.92"/>
<polygon fill="#63b8ff" stroke="#63b8ff" points="246.01,-323.9 239.56,-332.3 249.85,-329.76 246.01,-323.9"/>
</a>
</g>
</g>
<!-- Node13 -->
<g id="Node000013" class="node">
<title>Node13</title>
<g id="a_Node000013"><a xlink:href="Readoutlibs_8cpp.html" target="_top" xlink:title=" ">
<polygon fill="white" stroke="#666666" points="325.5,-119.5 182,-119.5 182,-77.75 325.5,-77.75 325.5,-119.5"/>
<text text-anchor="start" x="190" y="-106" font-family="Helvetica,sans-Serif" font-size="10.00">/github/workspace/dev</text>
<text text-anchor="start" x="190" y="-94.75" font-family="Helvetica,sans-Serif" font-size="10.00">_area/sourcecode/readoutlibs</text>
<text text-anchor="middle" x="253.75" y="-83.5" font-family="Helvetica,sans-Serif" font-size="10.00">/src/Readoutlibs.cpp</text>
</a>
</g>
</g>
<!-- Node4&#45;&gt;Node13 -->
<g id="edge18_Node000004_Node000013" class="edge">
<title>Node4&#45;&gt;Node13</title>
<g id="a_edge18_Node000004_Node000013"><a xlink:title=" ">
<path fill="none" stroke="#63b8ff" d="M183.91,-322.94C169.02,-285.99 147.71,-230.88 143.75,-208.5 139.64,-185.3 131.43,-175.58 143.75,-155.5 153.44,-139.71 169.14,-128.21 185.68,-119.9"/>
<polygon fill="#63b8ff" stroke="#63b8ff" points="180.55,-323.95 187.55,-331.9 187.03,-321.32 180.55,-323.95"/>
</a>
</g>
</g>
<!-- Node4&#45;&gt;Node15 -->
<g id="edge16_Node000004_Node000015" class="edge">
<title>Node4&#45;&gt;Node15</title>
<g id="a_edge16_Node000004_Node000015"><a xlink:title=" ">
<path fill="none" stroke="#63b8ff" d="M151.61,-326.71C137.75,-317.21 122.78,-306.96 109.58,-297.92"/>
<polygon fill="#63b8ff" stroke="#63b8ff" points="149.51,-329.51 159.74,-332.28 153.47,-323.74 149.51,-329.51"/>
</a>
</g>
</g>
<!-- Node6 -->
<g id="Node000006" class="node">
<title>Node6</title>
<g id="a_Node000006"><a xlink:href="DAPHNEListRequestHandler_8hpp.html" target="_top" xlink:title=" ">
<polygon fill="white" stroke="#666666" points="811,-208.5 646.5,-208.5 646.5,-155.5 811,-155.5 811,-208.5"/>
<text text-anchor="start" x="654.5" y="-195" font-family="Helvetica,sans-Serif" font-size="10.00">/github/workspace/dev</text>
<text text-anchor="start" x="654.5" y="-183.75" font-family="Helvetica,sans-Serif" font-size="10.00">_area/sourcecode/fdreadoutlibs</text>
<text text-anchor="start" x="654.5" y="-172.5" font-family="Helvetica,sans-Serif" font-size="10.00">/include/fdreadoutlibs/daphne</text>
<text text-anchor="middle" x="728.75" y="-161.25" font-family="Helvetica,sans-Serif" font-size="10.00">/DAPHNEListRequestHandler.hpp</text>
</a>
</g>
</g>
<!-- Node5&#45;&gt;Node6 -->
<g id="edge5_Node000005_Node000006" class="edge">
<title>Node5&#45;&gt;Node6</title>
<g id="a_edge5_Node000005_Node000006"><a xlink:title=" ">
<path fill="none" stroke="#63b8ff" d="M425.18,-244.07C519.33,-223.82 546.7,-228.82 637.75,-208.5 640.47,-207.89 643.23,-207.25 646.02,-206.59"/>
<polygon fill="#63b8ff" stroke="#63b8ff" points="424.48,-240.64 415.47,-246.2 425.99,-247.48 424.48,-240.64"/>
</a>
</g>
</g>
<!-- Node9 -->
<g id="Node000009" class="node">
<title>Node9</title>
<g id="a_Node000009"><a xlink:href="DefaultSkipListRequestHandler_8hpp.html" target="_top" xlink:title=" ">
<polygon fill="white" stroke="#666666" points="1002.5,-208.5 829,-208.5 829,-155.5 1002.5,-155.5 1002.5,-208.5"/>
<text text-anchor="start" x="837" y="-195" font-family="Helvetica,sans-Serif" font-size="10.00">/github/workspace/dev</text>
<text text-anchor="start" x="837" y="-183.75" font-family="Helvetica,sans-Serif" font-size="10.00">_area/sourcecode/readoutlibs</text>
<text text-anchor="start" x="837" y="-172.5" font-family="Helvetica,sans-Serif" font-size="10.00">/include/readoutlibs/models</text>
<text text-anchor="middle" x="915.75" y="-161.25" font-family="Helvetica,sans-Serif" font-size="10.00">/DefaultSkipListRequestHandler.hpp</text>
</a>
</g>
</g>
<!-- Node5&#45;&gt;Node9 -->
<g id="edge8_Node000005_Node000009" class="edge">
<title>Node5&#45;&gt;Node9</title>
<g id="a_edge8_Node000005_Node000009"><a xlink:title=" ">
<path fill="none" stroke="#63b8ff" d="M425.03,-244.24C599.03,-213.54 648.87,-238.72 819.75,-208.5 822.64,-207.99 825.56,-207.43 828.51,-206.84"/>
<polygon fill="#63b8ff" stroke="#63b8ff" points="424.64,-240.76 415.42,-245.98 425.88,-247.64 424.64,-240.76"/>
</a>
</g>
</g>
<!-- Node12 -->
<g id="Node000012" class="node">
<title>Node12</title>
<g id="a_Node000012"><a xlink:href="EmptyFragmentRequestHandlerModel_8hpp.html" target="_top" xlink:title=" ">
<polygon fill="white" stroke="#666666" points="354.38,-208.5 153.12,-208.5 153.12,-155.5 354.38,-155.5 354.38,-208.5"/>
<text text-anchor="start" x="161.12" y="-195" font-family="Helvetica,sans-Serif" font-size="10.00">/github/workspace/dev</text>
<text text-anchor="start" x="161.12" y="-183.75" font-family="Helvetica,sans-Serif" font-size="10.00">_area/sourcecode/readoutlibs</text>
<text text-anchor="start" x="161.12" y="-172.5" font-family="Helvetica,sans-Serif" font-size="10.00">/include/readoutlibs/models</text>
<text text-anchor="middle" x="253.75" y="-161.25" font-family="Helvetica,sans-Serif" font-size="10.00">/EmptyFragmentRequestHandlerModel.hpp</text>
</a>
</g>
</g>
<!-- Node5&#45;&gt;Node12 -->
<g id="edge11_Node000005_Node000012" class="edge">
<title>Node5&#45;&gt;Node12</title>
<g id="a_edge11_Node000005_Node000012"><a xlink:title=" ">
<path fill="none" stroke="#63b8ff" d="M301.2,-235.93C293.09,-226.88 284.47,-217.27 276.84,-208.75"/>
<polygon fill="#63b8ff" stroke="#63b8ff" points="298.48,-238.13 307.76,-243.24 303.69,-233.46 298.48,-238.13"/>
</a>
</g>
</g>
<!-- Node5&#45;&gt;Node13 -->
<g id="edge15_Node000005_Node000013" class="edge">
<title>Node5&#45;&gt;Node13</title>
<g id="a_edge15_Node000005_Node000013"><a xlink:title=" ">
<path fill="none" stroke="#63b8ff" d="M355.72,-234.28C368.37,-210.59 378.51,-179.56 363.75,-155.5 354.06,-139.71 338.36,-128.21 321.82,-119.9"/>
<polygon fill="#63b8ff" stroke="#63b8ff" points="352.69,-232.53 350.76,-242.95 358.76,-236.01 352.69,-232.53"/>
</a>
</g>
</g>
<!-- Node14 -->
<g id="Node000014" class="node">
<title>Node14</title>
<g id="a_Node000014"><a xlink:href="ZeroCopyRecordingRequestHandlerModel_8hpp.html" target="_top" xlink:title=" ">
<polygon fill="white" stroke="#666666" points="628.62,-208.5 410.88,-208.5 410.88,-155.5 628.62,-155.5 628.62,-208.5"/>
<text text-anchor="start" x="418.88" y="-195" font-family="Helvetica,sans-Serif" font-size="10.00">/github/workspace/dev</text>
<text text-anchor="start" x="418.88" y="-183.75" font-family="Helvetica,sans-Serif" font-size="10.00">_area/sourcecode/readoutlibs</text>
<text text-anchor="start" x="418.88" y="-172.5" font-family="Helvetica,sans-Serif" font-size="10.00">/include/readoutlibs/models</text>
<text text-anchor="middle" x="519.75" y="-161.25" font-family="Helvetica,sans-Serif" font-size="10.00">/ZeroCopyRecordingRequestHandlerModel.hpp</text>
</a>
</g>
</g>
<!-- Node5&#45;&gt;Node14 -->
<g id="edge13_Node000005_Node000014" class="edge">
<title>Node5&#45;&gt;Node14</title>
<g id="a_edge13_Node000005_Node000014"><a xlink:title=" ">
<path fill="none" stroke="#63b8ff" d="M398.25,-239.23C419.71,-229.29 443.27,-218.39 463.89,-208.85"/>
<polygon fill="#63b8ff" stroke="#63b8ff" points="396.88,-236 389.28,-243.38 399.82,-242.36 396.88,-236"/>
</a>
</g>
</g>
<!-- Node7 -->
<g id="Node000007" class="node">
<title>Node7</title>
<g id="a_Node000007"><a xlink:href="FDReadoutlibs_8cpp.html" target="_top" xlink:title=" ">
<polygon fill="white" stroke="#666666" points="625.62,-119.5 473.88,-119.5 473.88,-77.75 625.62,-77.75 625.62,-119.5"/>
<text text-anchor="start" x="481.88" y="-106" font-family="Helvetica,sans-Serif" font-size="10.00">/github/workspace/dev</text>
<text text-anchor="start" x="481.88" y="-94.75" font-family="Helvetica,sans-Serif" font-size="10.00">_area/sourcecode/fdreadoutlibs</text>
<text text-anchor="middle" x="549.75" y="-83.5" font-family="Helvetica,sans-Serif" font-size="10.00">/src/FDReadoutlibs.cpp</text>
</a>
</g>
</g>
<!-- Node6&#45;&gt;Node7 -->
<g id="edge6_Node000006_Node000007" class="edge">
<title>Node6&#45;&gt;Node7</title>
<g id="a_edge6_Node000006_Node000007"><a xlink:title=" ">
<path fill="none" stroke="#63b8ff" d="M661.19,-150.29C638.87,-140.14 614.61,-129.11 594.45,-119.94"/>
<polygon fill="#63b8ff" stroke="#63b8ff" points="659.69,-153.45 670.24,-154.4 662.59,-147.08 659.69,-153.45"/>
</a>
</g>
</g>
<!-- Node8 -->
<g id="Node000008" class="node">
<title>Node8</title>
<g id="a_Node000008"><a xlink:href="DAPHNEListRequestHandler_8cpp.html" target="_top" xlink:title=" ">
<polygon fill="white" stroke="#666666" points="859.5,-119.5 644,-119.5 644,-77.75 859.5,-77.75 859.5,-119.5"/>
<text text-anchor="start" x="652" y="-106" font-family="Helvetica,sans-Serif" font-size="10.00">/github/workspace/dev</text>
<text text-anchor="start" x="652" y="-94.75" font-family="Helvetica,sans-Serif" font-size="10.00">_area/sourcecode/fdreadoutlibs</text>
<text text-anchor="middle" x="751.75" y="-83.5" font-family="Helvetica,sans-Serif" font-size="10.00">/src/daphne/DAPHNEListRequestHandler.cpp</text>
</a>
</g>
</g>
<!-- Node6&#45;&gt;Node8 -->
<g id="edge7_Node000006_Node000008" class="edge">
<title>Node6&#45;&gt;Node8</title>
<g id="a_edge7_Node000006_Node000008"><a xlink:title=" ">
<path fill="none" stroke="#63b8ff" d="M739.1,-144.4C741.49,-135.94 743.94,-127.24 746.05,-119.79"/>
<polygon fill="#63b8ff" stroke="#63b8ff" points="735.79,-143.22 736.44,-153.8 742.53,-145.12 735.79,-143.22"/>
</a>
</g>
</g>
<!-- Node10 -->
<g id="Node000010" class="node">
<title>Node10</title>
<g id="a_Node000010"><a xlink:href="TPRequestHandler_8hpp.html" target="_top" xlink:title=" ">
<polygon fill="white" stroke="#666666" points="1089.75,-119.5 923.75,-119.5 923.75,-77.75 1089.75,-77.75 1089.75,-119.5"/>
<text text-anchor="start" x="931.75" y="-106" font-family="Helvetica,sans-Serif" font-size="10.00">/github/workspace/dev</text>
<text text-anchor="start" x="931.75" y="-94.75" font-family="Helvetica,sans-Serif" font-size="10.00">_area/sourcecode/trigger</text>
<text text-anchor="middle" x="1006.75" y="-83.5" font-family="Helvetica,sans-Serif" font-size="10.00">/src/trigger/TPRequestHandler.hpp</text>
</a>
</g>
</g>
<!-- Node9&#45;&gt;Node10 -->
<g id="edge9_Node000009_Node000010" class="edge">
<title>Node9&#45;&gt;Node10</title>
<g id="a_edge9_Node000009_Node000010"><a xlink:title=" ">
<path fill="none" stroke="#63b8ff" d="M953.36,-147.37C963.77,-138.06 974.75,-128.24 984.03,-119.94"/>
<polygon fill="#63b8ff" stroke="#63b8ff" points="951.04,-144.74 945.92,-154.02 955.71,-149.96 951.04,-144.74"/>
</a>
</g>
</g>
<!-- Node11 -->
<g id="Node000011" class="node">
<title>Node11</title>
<g id="a_Node000011"><a xlink:href="TPRequestHandler_8cpp.html" target="_top" xlink:title=" ">
<polygon fill="white" stroke="#666666" points="1074.75,-41.75 938.75,-41.75 938.75,0 1074.75,0 1074.75,-41.75"/>
<text text-anchor="start" x="946.75" y="-28.25" font-family="Helvetica,sans-Serif" font-size="10.00">/github/workspace/dev</text>
<text text-anchor="start" x="946.75" y="-17" font-family="Helvetica,sans-Serif" font-size="10.00">_area/sourcecode/trigger</text>
<text text-anchor="middle" x="1006.75" y="-5.75" font-family="Helvetica,sans-Serif" font-size="10.00">/src/TPRequestHandler.cpp</text>
</a>
</g>
</g>
<!-- Node10&#45;&gt;Node11 -->
<g id="edge10_Node000010_Node000011" class="edge">
<title>Node10&#45;&gt;Node11</title>
<g id="a_edge10_Node000010_Node000011"><a xlink:title=" ">
<path fill="none" stroke="#63b8ff" d="M1006.75,-66C1006.75,-57.96 1006.75,-49.54 1006.75,-42.23"/>
<polygon fill="#63b8ff" stroke="#63b8ff" points="1003.25,-65.81 1006.75,-75.81 1010.25,-65.81 1003.25,-65.81"/>
</a>
</g>
</g>
<!-- Node12&#45;&gt;Node13 -->
<g id="edge12_Node000012_Node000013" class="edge">
<title>Node12&#45;&gt;Node13</title>
<g id="a_edge12_Node000012_Node000013"><a xlink:title=" ">
<path fill="none" stroke="#63b8ff" d="M253.75,-143.83C253.75,-135.55 253.75,-127.08 253.75,-119.79"/>
<polygon fill="#63b8ff" stroke="#63b8ff" points="250.25,-143.74 253.75,-153.74 257.25,-143.74 250.25,-143.74"/>
</a>
</g>
</g>
<!-- Node14&#45;&gt;Node13 -->
<g id="edge14_Node000014_Node000013" class="edge">
<title>Node14&#45;&gt;Node13</title>
<g id="a_edge14_Node000014_Node000013"><a xlink:title=" ">
<path fill="none" stroke="#63b8ff" d="M424.28,-151.79C389.79,-141.24 351.63,-129.57 320.17,-119.94"/>
<polygon fill="#63b8ff" stroke="#63b8ff" points="422.82,-155.01 433.41,-154.59 424.87,-148.31 422.82,-155.01"/>
</a>
</g>
</g>
<!-- Node15&#45;&gt;Node13 -->
<g id="edge17_Node000015_Node000013" class="edge">
<title>Node15&#45;&gt;Node13</title>
<g id="a_edge17_Node000015_Node000013"><a xlink:title=" ">
<path fill="none" stroke="#63b8ff" d="M76.19,-232.86C80.93,-208.13 90.7,-176.46 110.75,-155.5 129.64,-135.76 156.32,-122.87 181.54,-114.51"/>
<polygon fill="#63b8ff" stroke="#63b8ff" points="72.77,-232.08 74.54,-242.52 79.67,-233.25 72.77,-232.08"/>
</a>
</g>
</g>
<!-- Node17 -->
<g id="Node000017" class="node">
<title>Node17</title>
<g id="a_Node000017"><a xlink:href="TriggerInhibitAgent_8hpp.html" target="_top" xlink:title=" ">
<polygon fill="white" stroke="#666666" points="750.38,-380.88 567.12,-380.88 567.12,-339.12 750.38,-339.12 750.38,-380.88"/>
<text text-anchor="start" x="575.12" y="-367.38" font-family="Helvetica,sans-Serif" font-size="10.00">/github/workspace/dev</text>
<text text-anchor="start" x="575.12" y="-356.12" font-family="Helvetica,sans-Serif" font-size="10.00">_area/sourcecode/dfmodules</text>
<text text-anchor="middle" x="658.75" y="-344.88" font-family="Helvetica,sans-Serif" font-size="10.00">/src/dfmodules/TriggerInhibitAgent.hpp</text>
</a>
</g>
</g>
<!-- Node16&#45;&gt;Node17 -->
<g id="edge22_Node000016_Node000017" class="edge">
<title>Node16&#45;&gt;Node17</title>
<g id="a_edge22_Node000016_Node000017"><a xlink:title=" ">
<path fill="none" stroke="#63b8ff" d="M612.85,-413.61C622.2,-402.89 632.62,-390.95 641.16,-381.17"/>
<polygon fill="#63b8ff" stroke="#63b8ff" points="610.23,-411.28 606.3,-421.12 615.51,-415.89 610.23,-411.28"/>
</a>
</g>
</g>
<!-- Node19 -->
<g id="Node000019" class="node">
<title>Node19</title>
<g id="a_Node000019"><a xlink:href="TriggerRecordBuilderData_8hpp.html" target="_top" xlink:title=" ">
<polygon fill="white" stroke="#666666" points="942.88,-386.5 768.62,-386.5 768.62,-333.5 942.88,-333.5 942.88,-386.5"/>
<text text-anchor="start" x="776.62" y="-373" font-family="Helvetica,sans-Serif" font-size="10.00">/github/workspace/dev</text>
<text text-anchor="start" x="776.62" y="-361.75" font-family="Helvetica,sans-Serif" font-size="10.00">_area/sourcecode/dfmodules</text>
<text text-anchor="start" x="776.62" y="-350.5" font-family="Helvetica,sans-Serif" font-size="10.00">/src/dfmodules/TriggerRecordBuilder</text>
<text text-anchor="middle" x="855.75" y="-339.25" font-family="Helvetica,sans-Serif" font-size="10.00">Data.hpp</text>
</a>
</g>
</g>
<!-- Node16&#45;&gt;Node19 -->
<g id="edge24_Node000016_Node000019" class="edge">
<title>Node16&#45;&gt;Node19</title>
<g id="a_edge24_Node000016_Node000019"><a xlink:title=" ">
<path fill="none" stroke="#63b8ff" d="M665.6,-418.74C698.46,-408.76 736.81,-397.12 770.43,-386.91"/>
<polygon fill="#63b8ff" stroke="#63b8ff" points="664.69,-415.36 656.13,-421.61 666.72,-422.05 664.69,-415.36"/>
</a>
</g>
</g>
<!-- Node21 -->
<g id="Node000021" class="node">
<title>Node21</title>
<g id="a_Node000021"><a xlink:href="TCProcessor_8hpp.html" target="_top" xlink:title=" ">
<polygon fill="white" stroke="#666666" points="549,-380.88 408.5,-380.88 408.5,-339.12 549,-339.12 549,-380.88"/>
<text text-anchor="start" x="416.5" y="-367.38" font-family="Helvetica,sans-Serif" font-size="10.00">/github/workspace/dev</text>
<text text-anchor="start" x="416.5" y="-356.12" font-family="Helvetica,sans-Serif" font-size="10.00">_area/sourcecode/trigger</text>
<text text-anchor="middle" x="478.75" y="-344.88" font-family="Helvetica,sans-Serif" font-size="10.00">/src/trigger/TCProcessor.hpp</text>
</a>
</g>
</g>
<!-- Node16&#45;&gt;Node21 -->
<g id="edge26_Node000016_Node000021" class="edge">
<title>Node16&#45;&gt;Node21</title>
<g id="a_edge26_Node000016_Node000021"><a xlink:title=" ">
<path fill="none" stroke="#63b8ff" d="M551.58,-415.37C536.72,-404.28 519.8,-391.64 506,-381.35"/>
<polygon fill="#63b8ff" stroke="#63b8ff" points="549.21,-417.97 559.31,-421.15 553.39,-412.36 549.21,-417.97"/>
</a>
</g>
</g>
<!-- Node18 -->
<g id="Node000018" class="node">
<title>Node18</title>
<g id="a_Node000018"><a xlink:href="TriggerInhibitAgent_8cpp.html" target="_top" xlink:title=" ">
<polygon fill="white" stroke="#666666" points="729.38,-291.88 588.12,-291.88 588.12,-250.12 729.38,-250.12 729.38,-291.88"/>
<text text-anchor="start" x="596.12" y="-278.38" font-family="Helvetica,sans-Serif" font-size="10.00">/github/workspace/dev</text>
<text text-anchor="start" x="596.12" y="-267.12" font-family="Helvetica,sans-Serif" font-size="10.00">_area/sourcecode/dfmodules</text>
<text text-anchor="middle" x="658.75" y="-255.88" font-family="Helvetica,sans-Serif" font-size="10.00">/src/TriggerInhibitAgent.cpp</text>
</a>
</g>
</g>
<!-- Node17&#45;&gt;Node18 -->
<g id="edge23_Node000017_Node000018" class="edge">
<title>Node17&#45;&gt;Node18</title>
<g id="a_edge23_Node000017_Node000018"><a xlink:title=" ">
<path fill="none" stroke="#63b8ff" d="M658.75,-327.64C658.75,-315.9 658.75,-302.87 658.75,-292.37"/>
<polygon fill="#63b8ff" stroke="#63b8ff" points="655.25,-327.31 658.75,-337.31 662.25,-327.31 655.25,-327.31"/>
</a>
</g>
</g>
<!-- Node20 -->
<g id="Node000020" class="node">
<title>Node20</title>
<g id="a_Node000020"><a xlink:href="TriggerRecordBuilderData_8cpp.html" target="_top" xlink:title=" ">
<polygon fill="white" stroke="#666666" points="938,-291.88 773.5,-291.88 773.5,-250.12 938,-250.12 938,-291.88"/>
<text text-anchor="start" x="781.5" y="-278.38" font-family="Helvetica,sans-Serif" font-size="10.00">/github/workspace/dev</text>
<text text-anchor="start" x="781.5" y="-267.12" font-family="Helvetica,sans-Serif" font-size="10.00">_area/sourcecode/dfmodules</text>
<text text-anchor="middle" x="855.75" y="-255.88" font-family="Helvetica,sans-Serif" font-size="10.00">/src/TriggerRecordBuilderData.cpp</text>
</a>
</g>
</g>
<!-- Node19&#45;&gt;Node20 -->
<g id="edge25_Node000019_Node000020" class="edge">
<title>Node19&#45;&gt;Node20</title>
<g id="a_edge25_Node000019_Node000020"><a xlink:title=" ">
<path fill="none" stroke="#63b8ff" d="M855.75,-322.13C855.75,-311.88 855.75,-301.12 855.75,-292.21"/>
<polygon fill="#63b8ff" stroke="#63b8ff" points="852.25,-321.85 855.75,-331.85 859.25,-321.85 852.25,-321.85"/>
</a>
</g>
</g>
<!-- Node22 -->
<g id="Node000022" class="node">
<title>Node22</title>
<g id="a_Node000022"><a xlink:href="TCProcessor_8cpp.html" target="_top" xlink:title=" ">
<polygon fill="white" stroke="#666666" points="555.38,-291.88 432.12,-291.88 432.12,-250.12 555.38,-250.12 555.38,-291.88"/>
<text text-anchor="start" x="440.12" y="-278.38" font-family="Helvetica,sans-Serif" font-size="10.00">/github/workspace/dev</text>
<text text-anchor="start" x="440.12" y="-267.12" font-family="Helvetica,sans-Serif" font-size="10.00">_area/sourcecode/trigger</text>
<text text-anchor="middle" x="493.75" y="-255.88" font-family="Helvetica,sans-Serif" font-size="10.00">/src/TCProcessor.cpp</text>
</a>
</g>
</g>
<!-- Node21&#45;&gt;Node22 -->
<g id="edge27_Node000021_Node000022" class="edge">
<title>Node21&#45;&gt;Node22</title>
<g id="a_edge27_Node000021_Node000022"><a xlink:title=" ">
<path fill="none" stroke="#63b8ff" d="M484.16,-327.64C486.18,-315.9 488.43,-302.87 490.24,-292.37"/>
<polygon fill="#63b8ff" stroke="#63b8ff" points="480.74,-326.88 482.49,-337.33 487.63,-328.07 480.74,-326.88"/>
</a>
</g>
</g>
<!-- Node26&#45;&gt;Node10 -->
<g id="edge35_Node000026_Node000010" class="edge">
<title>Node26&#45;&gt;Node10</title>
<g id="a_edge35_Node000026_Node000010"><a xlink:title=" ">
<path fill="none" stroke="#63b8ff" d="M1089.03,-499.75C1074.14,-490.54 1059.6,-478.77 1049.75,-464.25 1023.55,-425.64 1030.75,-407.66 1030.75,-361 1030.75,-361 1030.75,-361 1030.75,-270 1030.75,-215.34 1018.49,-151.76 1011.49,-119.95"/>
<polygon fill="#63b8ff" stroke="#63b8ff" points="1087.1,-502.68 1097.5,-504.68 1090.61,-496.63 1087.1,-502.68"/>
</a>
</g>
</g>
<!-- Node27 -->
<g id="Node000027" class="node">
<title>Node27</title>
<g id="a_Node000027"><a xlink:href="TPBundleHandler_8hpp.html" target="_top" xlink:title=" ">
<polygon fill="white" stroke="#666666" points="1236.75,-464.25 1058.75,-464.25 1058.75,-422.5 1236.75,-422.5 1236.75,-464.25"/>
<text text-anchor="start" x="1066.75" y="-450.75" font-family="Helvetica,sans-Serif" font-size="10.00">/github/workspace/dev</text>
<text text-anchor="start" x="1066.75" y="-439.5" font-family="Helvetica,sans-Serif" font-size="10.00">_area/sourcecode/dfmodules</text>
<text text-anchor="middle" x="1147.75" y="-428.25" font-family="Helvetica,sans-Serif" font-size="10.00">/src/dfmodules/TPBundleHandler.hpp</text>
</a>
</g>
</g>
<!-- Node26&#45;&gt;Node27 -->
<g id="edge33_Node000026_Node000027" class="edge">
<title>Node26&#45;&gt;Node27</title>
<g id="a_edge33_Node000026_Node000027"><a xlink:title=" ">
<path fill="none" stroke="#63b8ff" d="M1147.75,-494.39C1147.75,-484.37 1147.75,-473.55 1147.75,-464.54"/>
<polygon fill="#63b8ff" stroke="#63b8ff" points="1144.25,-494.12 1147.75,-504.12 1151.25,-494.12 1144.25,-494.12"/>
</a>
</g>
</g>
<!-- Node29 -->
<g id="Node000029" class="node">
<title>Node29</title>
<g id="a_Node000029"><a xlink:href="TPSetSourceModel_8hpp.html" target="_top" xlink:title=" ">
<polygon fill="white" stroke="#666666" points="1422.88,-464.25 1254.62,-464.25 1254.62,-422.5 1422.88,-422.5 1422.88,-464.25"/>
<text text-anchor="start" x="1262.62" y="-450.75" font-family="Helvetica,sans-Serif" font-size="10.00">/github/workspace/dev</text>
<text text-anchor="start" x="1262.62" y="-439.5" font-family="Helvetica,sans-Serif" font-size="10.00">_area/sourcecode/trigger</text>
<text text-anchor="middle" x="1338.75" y="-428.25" font-family="Helvetica,sans-Serif" font-size="10.00">/src/trigger/TPSetSourceModel.hpp</text>
</a>
</g>
</g>
<!-- Node26&#45;&gt;Node29 -->
<g id="edge36_Node000026_Node000029" class="edge">
<title>Node26&#45;&gt;Node29</title>
<g id="a_edge36_Node000026_Node000029"><a xlink:title=" ">
<path fill="none" stroke="#63b8ff" d="M1206.01,-500.93C1233.23,-489.33 1265.23,-475.7 1290.99,-464.72"/>
<polygon fill="#63b8ff" stroke="#63b8ff" points="1204.68,-497.69 1196.85,-504.83 1207.42,-504.13 1204.68,-497.69"/>
</a>
</g>
</g>
<!-- Node28 -->
<g id="Node000028" class="node">
<title>Node28</title>
<g id="a_Node000028"><a xlink:href="TPBundleHandler_8cpp.html" target="_top" xlink:title=" ">
<polygon fill="white" stroke="#666666" points="1218.38,-380.88 1077.12,-380.88 1077.12,-339.12 1218.38,-339.12 1218.38,-380.88"/>
<text text-anchor="start" x="1085.12" y="-367.38" font-family="Helvetica,sans-Serif" font-size="10.00">/github/workspace/dev</text>
<text text-anchor="start" x="1085.12" y="-356.12" font-family="Helvetica,sans-Serif" font-size="10.00">_area/sourcecode/dfmodules</text>
<text text-anchor="middle" x="1147.75" y="-344.88" font-family="Helvetica,sans-Serif" font-size="10.00">/src/TPBundleHandler.cpp</text>
</a>
</g>
</g>
<!-- Node27&#45;&gt;Node28 -->
<g id="edge34_Node000027_Node000028" class="edge">
<title>Node27&#45;&gt;Node28</title>
<g id="a_edge34_Node000027_Node000028"><a xlink:title=" ">
<path fill="none" stroke="#63b8ff" d="M1147.75,-411.02C1147.75,-400.99 1147.75,-390.17 1147.75,-381.17"/>
<polygon fill="#63b8ff" stroke="#63b8ff" points="1144.25,-410.75 1147.75,-420.75 1151.25,-410.75 1144.25,-410.75"/>
</a>
</g>
</g>
</g>
</svg>
