<?xml version="1.0" encoding="UTF-8" standalone="no"?>
<!DOCTYPE svg PUBLIC "-//W3C//DTD SVG 1.1//EN"
 "http://www.w3.org/Graphics/SVG/1.1/DTD/svg11.dtd">
<!-- Generated by graphviz version 9.0.0 (20230911.1827)
 -->
<!-- Title: /github/workspace/dev_area/sourcecode/timing/include/timing/SpillInterfaceNode.hpp Pages: 1 -->
<svg width="447pt" height="217pt"
 viewBox="0.00 0.00 447.12 216.50" xmlns="http://www.w3.org/2000/svg" xmlns:xlink="http://www.w3.org/1999/xlink">
<g id="graph0" class="graph" transform="scale(1 1) rotate(0) translate(4 212.5)">
<title>/github/workspace/dev_area/sourcecode/timing/include/timing/SpillInterfaceNode.hpp</title>
<!-- Node1 -->
<g id="Node000001" class="node">
<title>Node1</title>
<g id="a_Node000001"><a xlink:title=" ">
<polygon fill="#999999" stroke="#666666" points="356.75,-208.5 217.75,-208.5 217.75,-155.5 356.75,-155.5 356.75,-208.5"/>
<text text-anchor="start" x="225.75" y="-195" font-family="Helvetica,sans-Serif" font-size="10.00">/github/workspace/dev</text>
<text text-anchor="start" x="225.75" y="-183.75" font-family="Helvetica,sans-Serif" font-size="10.00">_area/sourcecode/timing</text>
<text text-anchor="start" x="225.75" y="-172.5" font-family="Helvetica,sans-Serif" font-size="10.00">/include/timing/SpillInterface</text>
<text text-anchor="middle" x="287.25" y="-161.25" font-family="Helvetica,sans-Serif" font-size="10.00">Node.hpp</text>
</a>
</g>
</g>
<!-- Node2 -->
<g id="Node000002" class="node">
<title>Node2</title>
<g id="a_Node000002"><a xlink:href="PDIMasterNode_8hpp.html" target="_top" xlink:title=" ">
<polygon fill="white" stroke="#666666" points="287.12,-119.5 117.38,-119.5 117.38,-77.75 287.12,-77.75 287.12,-119.5"/>
<text text-anchor="start" x="125.38" y="-106" font-family="Helvetica,sans-Serif" font-size="10.00">/github/workspace/dev</text>
<text text-anchor="start" x="125.38" y="-94.75" font-family="Helvetica,sans-Serif" font-size="10.00">_area/sourcecode/timing</text>
<text text-anchor="middle" x="202.25" y="-83.5" font-family="Helvetica,sans-Serif" font-size="10.00">/include/timing/PDIMasterNode.hpp</text>
</a>
</g>
</g>
<!-- Node1&#45;&gt;Node2 -->
<g id="edge1_Node000001_Node000002" class="edge">
<title>Node1&#45;&gt;Node2</title>
<g id="a_edge1_Node000001_Node000002"><a xlink:title=" ">
<path fill="none" stroke="#63b8ff" d="M252.28,-147.52C242.45,-138.11 232.06,-128.16 223.32,-119.79"/>
<polygon fill="#63b8ff" stroke="#63b8ff" points="249.62,-149.82 259.26,-154.21 254.46,-144.76 249.62,-149.82"/>
</a>
</g>
</g>
<!-- Node6 -->
<g id="Node000006" class="node">
<title>Node6</title>
<g id="a_Node000006"><a xlink:href="SpillInterfaceNode_8cpp.html" target="_top" xlink:title=" ">
<polygon fill="white" stroke="#666666" points="439.12,-119.5 305.38,-119.5 305.38,-77.75 439.12,-77.75 439.12,-119.5"/>
<text text-anchor="start" x="313.38" y="-106" font-family="Helvetica,sans-Serif" font-size="10.00">/github/workspace/dev</text>
<text text-anchor="start" x="313.38" y="-94.75" font-family="Helvetica,sans-Serif" font-size="10.00">_area/sourcecode/timing</text>
<text text-anchor="middle" x="372.25" y="-83.5" font-family="Helvetica,sans-Serif" font-size="10.00">/src/SpillInterfaceNode.cpp</text>
</a>
</g>
</g>
<!-- Node1&#45;&gt;Node6 -->
<g id="edge5_Node000001_Node000006" class="edge">
<title>Node1&#45;&gt;Node6</title>
<g id="a_edge5_Node000001_Node000006"><a xlink:title=" ">
<path fill="none" stroke="#63b8ff" d="M322.22,-147.52C332.05,-138.11 342.44,-128.16 351.18,-119.79"/>
<polygon fill="#63b8ff" stroke="#63b8ff" points="320.04,-144.76 315.24,-154.21 324.88,-149.82 320.04,-144.76"/>
</a>
</g>
</g>
<!-- Node3 -->
<g id="Node000003" class="node">
<title>Node3</title>
<g id="a_Node000003"><a xlink:href="master_8cpp.html" target="_top" xlink:title=" ">
<polygon fill="white" stroke="#666666" points="122.5,-41.75 0,-41.75 0,0 122.5,0 122.5,-41.75"/>
<text text-anchor="start" x="8" y="-28.25" font-family="Helvetica,sans-Serif" font-size="10.00">/github/workspace/dev</text>
<text text-anchor="start" x="8" y="-17" font-family="Helvetica,sans-Serif" font-size="10.00">_area/sourcecode/timing</text>
<text text-anchor="middle" x="61.25" y="-5.75" font-family="Helvetica,sans-Serif" font-size="10.00">/pybindsrc/master.cpp</text>
</a>
</g>
</g>
<!-- Node2&#45;&gt;Node3 -->
<g id="edge2_Node000002_Node000003" class="edge">
<title>Node2&#45;&gt;Node3</title>
<g id="a_edge2_Node000002_Node000003"><a xlink:title=" ">
<path fill="none" stroke="#63b8ff" d="M154.43,-71.93C136.39,-62.24 116.14,-51.37 99.14,-42.23"/>
<polygon fill="#63b8ff" stroke="#63b8ff" points="152.67,-74.96 163.13,-76.61 155.98,-68.79 152.67,-74.96"/>
</a>
</g>
</g>
<!-- Node4 -->
<g id="Node000004" class="node">
<title>Node4</title>
<g id="a_Node000004"><a xlink:href="OverlordDesign_8cpp.html" target="_top" xlink:title=" ">
<polygon fill="white" stroke="#666666" points="263.5,-41.75 141,-41.75 141,0 263.5,0 263.5,-41.75"/>
<text text-anchor="start" x="149" y="-28.25" font-family="Helvetica,sans-Serif" font-size="10.00">/github/workspace/dev</text>
<text text-anchor="start" x="149" y="-17" font-family="Helvetica,sans-Serif" font-size="10.00">_area/sourcecode/timing</text>
<text text-anchor="middle" x="202.25" y="-5.75" font-family="Helvetica,sans-Serif" font-size="10.00">/src/OverlordDesign.cpp</text>
</a>
</g>
</g>
<!-- Node2&#45;&gt;Node4 -->
<g id="edge3_Node000002_Node000004" class="edge">
<title>Node2&#45;&gt;Node4</title>
<g id="a_edge3_Node000002_Node000004"><a xlink:title=" ">
<path fill="none" stroke="#63b8ff" d="M202.25,-66C202.25,-57.96 202.25,-49.54 202.25,-42.23"/>
<polygon fill="#63b8ff" stroke="#63b8ff" points="198.75,-65.81 202.25,-75.81 205.75,-65.81 198.75,-65.81"/>
</a>
</g>
</g>
<!-- Node5 -->
<g id="Node000005" class="node">
<title>Node5</title>
<g id="a_Node000005"><a xlink:href="PDIMasterNode_8cpp.html" target="_top" xlink:title=" ">
<polygon fill="white" stroke="#666666" points="404.88,-41.75 281.62,-41.75 281.62,0 404.88,0 404.88,-41.75"/>
<text text-anchor="start" x="289.62" y="-28.25" font-family="Helvetica,sans-Serif" font-size="10.00">/github/workspace/dev</text>
<text text-anchor="start" x="289.62" y="-17" font-family="Helvetica,sans-Serif" font-size="10.00">_area/sourcecode/timing</text>
<text text-anchor="middle" x="343.25" y="-5.75" font-family="Helvetica,sans-Serif" font-size="10.00">/src/PDIMasterNode.cpp</text>
</a>
</g>
</g>
<!-- Node2&#45;&gt;Node5 -->
<g id="edge4_Node000002_Node000005" class="edge">
<title>Node2&#45;&gt;Node5</title>
<g id="a_edge4_Node000002_Node000005"><a xlink:title=" ">
<path fill="none" stroke="#63b8ff" d="M250.07,-71.93C268.11,-62.24 288.36,-51.37 305.36,-42.23"/>
<polygon fill="#63b8ff" stroke="#63b8ff" points="248.52,-68.79 241.37,-76.61 251.83,-74.96 248.52,-68.79"/>
</a>
</g>
</g>
</g>
</svg>
