<?xml version="1.0" encoding="UTF-8" standalone="no"?>
<!DOCTYPE svg PUBLIC "-//W3C//DTD SVG 1.1//EN"
 "http://www.w3.org/Graphics/SVG/1.1/DTD/svg11.dtd">
<!-- Generated by graphviz version 9.0.0 (20230911.1827)
 -->
<!-- Title: /github/workspace/dev_area/sourcecode/timing/include/timing/SpillInterfaceNode.hpp Pages: 1 -->
<svg width="2089pt" height="493pt"
 viewBox="0.00 0.00 2088.62 492.75" xmlns="http://www.w3.org/2000/svg" xmlns:xlink="http://www.w3.org/1999/xlink">
<g id="graph0" class="graph" transform="scale(1 1) rotate(0) translate(4 488.75)">
<title>/github/workspace/dev_area/sourcecode/timing/include/timing/SpillInterfaceNode.hpp</title>
<!-- Node1 -->
<g id="Node000001" class="node">
<title>Node1</title>
<g id="a_Node000001"><a xlink:title=" ">
<polygon fill="#999999" stroke="#666666" points="304.5,-484.75 165.5,-484.75 165.5,-431.75 304.5,-431.75 304.5,-484.75"/>
<text text-anchor="start" x="173.5" y="-471.25" font-family="Helvetica,sans-Serif" font-size="10.00">/github/workspace/dev</text>
<text text-anchor="start" x="173.5" y="-460" font-family="Helvetica,sans-Serif" font-size="10.00">_area/sourcecode/timing</text>
<text text-anchor="start" x="173.5" y="-448.75" font-family="Helvetica,sans-Serif" font-size="10.00">/include/timing/SpillInterface</text>
<text text-anchor="middle" x="235" y="-437.5" font-family="Helvetica,sans-Serif" font-size="10.00">Node.hpp</text>
</a>
</g>
</g>
<!-- Node2 -->
<g id="Node000002" class="node">
<title>Node2</title>
<g id="a_Node000002"><a xlink:href="TimestampGeneratorNode_8hpp.html" target="_top" xlink:title=" ">
<polygon fill="white" stroke="#666666" points="764.38,-395.75 627.62,-395.75 627.62,-365.25 764.38,-365.25 764.38,-395.75"/>
<text text-anchor="start" x="635.62" y="-382.25" font-family="Helvetica,sans-Serif" font-size="10.00">timing/TimestampGenerator</text>
<text text-anchor="middle" x="696" y="-371" font-family="Helvetica,sans-Serif" font-size="10.00">Node.hpp</text>
</a>
</g>
</g>
<!-- Node1&#45;&gt;Node2 -->
<g id="edge1_Node000001_Node000002" class="edge">
<title>Node1&#45;&gt;Node2</title>
<g id="a_edge1_Node000001_Node000002"><a xlink:title=" ">
<path fill="none" stroke="#63b8ff" d="M304.52,-445.83C388.13,-432.09 528.2,-409.07 616.17,-394.62"/>
<polygon fill="#63b8ff" stroke="#63b8ff" points="616.63,-398.09 625.93,-393.01 615.5,-391.18 616.63,-398.09"/>
</a>
</g>
</g>
<!-- Node9 -->
<g id="Node000009" class="node">
<title>Node9</title>
<g id="a_Node000009"><a xlink:title=" ">
<polygon fill="#e0e0e0" stroke="#999999" points="828,-74.5 788,-74.5 788,-55.25 828,-55.25 828,-74.5"/>
<text text-anchor="middle" x="808" y="-61" font-family="Helvetica,sans-Serif" font-size="10.00">string</text>
</a>
</g>
</g>
<!-- Node1&#45;&gt;Node9 -->
<g id="edge64_Node000001_Node000009" class="edge">
<title>Node1&#45;&gt;Node9</title>
<g id="a_edge64_Node000001_Node000009"><a xlink:title=" ">
<path fill="none" stroke="#63b8ff" d="M226.09,-431.45C205.63,-370.18 159.2,-217.96 188,-177 200.56,-159.13 351.7,-115.34 373,-110.5 521.35,-76.76 704.02,-68.5 776.36,-66.5"/>
<polygon fill="#63b8ff" stroke="#63b8ff" points="776.35,-70 786.26,-66.25 776.18,-63 776.35,-70"/>
</a>
</g>
</g>
<!-- Node30 -->
<g id="Node000030" class="node">
<title>Node30</title>
<g id="a_Node000030"><a xlink:href="TimingNode_8hpp.html" target="_top" xlink:title=" ">
<polygon fill="white" stroke="#666666" points="656.88,-323.62 541.12,-323.62 541.12,-304.38 656.88,-304.38 656.88,-323.62"/>
<text text-anchor="middle" x="599" y="-310.12" font-family="Helvetica,sans-Serif" font-size="10.00">timing/TimingNode.hpp</text>
</a>
</g>
</g>
<!-- Node1&#45;&gt;Node30 -->
<g id="edge56_Node000001_Node000030" class="edge">
<title>Node1&#45;&gt;Node30</title>
<g id="a_edge56_Node000001_Node000030"><a xlink:title=" ">
<path fill="none" stroke="#63b8ff" d="M301.34,-431.32C379.33,-400.85 505.7,-351.46 565.54,-328.08"/>
<polygon fill="#63b8ff" stroke="#63b8ff" points="566.46,-331.47 574.5,-324.57 563.92,-324.95 566.46,-331.47"/>
</a>
</g>
</g>
<!-- Node31 -->
<g id="Node000031" class="node">
<title>Node31</title>
<g id="a_Node000031"><a xlink:title=" ">
<polygon fill="#e0e0e0" stroke="#999999" points="354.62,-262.75 243.38,-262.75 243.38,-243.5 354.62,-243.5 354.62,-262.75"/>
<text text-anchor="middle" x="299" y="-249.25" font-family="Helvetica,sans-Serif" font-size="10.00">uhal/DerivedNode.hpp</text>
</a>
</g>
</g>
<!-- Node1&#45;&gt;Node31 -->
<g id="edge63_Node000001_Node000031" class="edge">
<title>Node1&#45;&gt;Node31</title>
<g id="a_edge63_Node000001_Node000031"><a xlink:title=" ">
<path fill="none" stroke="#63b8ff" d="M243.11,-431.52C256.04,-390.47 281.07,-311.02 292.74,-274"/>
<polygon fill="#63b8ff" stroke="#63b8ff" points="296.02,-275.23 295.69,-264.64 289.34,-273.12 296.02,-275.23"/>
</a>
</g>
</g>
<!-- Node37 -->
<g id="Node000037" class="node">
<title>Node37</title>
<g id="a_Node000037"><a xlink:href="timing_2codegen_2include_2timing_2timingfirmwareinfo_2InfoNljs_8hpp.html" target="_top" xlink:title=" ">
<polygon fill="white" stroke="#666666" points="124,-395.75 0,-395.75 0,-365.25 124,-365.25 124,-395.75"/>
<text text-anchor="start" x="8" y="-382.25" font-family="Helvetica,sans-Serif" font-size="10.00">timing/timingfirmwareinfo</text>
<text text-anchor="middle" x="62" y="-371" font-family="Helvetica,sans-Serif" font-size="10.00">/InfoNljs.hpp</text>
</a>
</g>
</g>
<!-- Node1&#45;&gt;Node37 -->
<g id="edge57_Node000001_Node000037" class="edge">
<title>Node1&#45;&gt;Node37</title>
<g id="a_edge57_Node000001_Node000037"><a xlink:title=" ">
<path fill="none" stroke="#63b8ff" d="M175.95,-431.39C153,-421.35 127.19,-410.04 105.93,-400.74"/>
<polygon fill="#63b8ff" stroke="#63b8ff" points="107.54,-397.62 96.98,-396.81 104.73,-404.03 107.54,-397.62"/>
</a>
</g>
</g>
<!-- Node38 -->
<g id="Node000038" class="node">
<title>Node38</title>
<g id="a_Node000038"><a xlink:href="timing_2codegen_2include_2timing_2timingfirmwareinfo_2InfoStructs_8hpp.html" target="_top" xlink:title=" ">
<polygon fill="white" stroke="#666666" points="162,-329.25 38,-329.25 38,-298.75 162,-298.75 162,-329.25"/>
<text text-anchor="start" x="46" y="-315.75" font-family="Helvetica,sans-Serif" font-size="10.00">timing/timingfirmwareinfo</text>
<text text-anchor="middle" x="100" y="-304.5" font-family="Helvetica,sans-Serif" font-size="10.00">/InfoStructs.hpp</text>
</a>
</g>
</g>
<!-- Node1&#45;&gt;Node38 -->
<g id="edge62_Node000001_Node000038" class="edge">
<title>Node1&#45;&gt;Node38</title>
<g id="a_edge62_Node000001_Node000038"><a xlink:title=" ">
<path fill="none" stroke="#63b8ff" d="M209.97,-431.27C199.45,-420.33 187.11,-407.44 176,-395.75 157.54,-376.32 136.68,-354.14 121.49,-337.95"/>
<polygon fill="#63b8ff" stroke="#63b8ff" points="124.12,-335.63 114.72,-330.73 119.01,-340.42 124.12,-335.63"/>
</a>
</g>
</g>
<!-- Node3 -->
<g id="Node000003" class="node">
<title>Node3</title>
<g id="a_Node000003"><a xlink:href="include_2timing_2TimingIssues_8hpp.html" target="_top" xlink:title=" ">
<polygon fill="white" stroke="#666666" points="1300.25,-323.62 1207.75,-323.62 1207.75,-304.38 1300.25,-304.38 1300.25,-323.62"/>
<text text-anchor="middle" x="1254" y="-310.12" font-family="Helvetica,sans-Serif" font-size="10.00">TimingIssues.hpp</text>
</a>
</g>
</g>
<!-- Node2&#45;&gt;Node3 -->
<g id="edge2_Node000002_Node000003" class="edge">
<title>Node2&#45;&gt;Node3</title>
<g id="a_edge2_Node000002_Node000003"><a xlink:title=" ">
<path fill="none" stroke="#63b8ff" d="M764.55,-375.27C860.59,-368.74 1040.42,-354.25 1192,-329.25 1196.91,-328.44 1202.02,-327.47 1207.1,-326.43"/>
<polygon fill="#63b8ff" stroke="#63b8ff" points="1207.57,-329.91 1216.61,-324.37 1206.09,-323.07 1207.57,-329.91"/>
</a>
</g>
</g>
<!-- Node2&#45;&gt;Node9 -->
<g id="edge55_Node000002_Node000009" class="edge">
<title>Node2&#45;&gt;Node9</title>
<g id="a_edge55_Node000002_Node000009"><a xlink:title=" ">
<path fill="none" stroke="#63b8ff" d="M764.8,-375.91C897.98,-367.08 1178,-338.48 1178,-254.12 1178,-254.12 1178,-254.12 1178,-191.25 1178,-154.38 1186.4,-135.17 1159,-110.5 1112.42,-68.56 917.04,-65.13 839.71,-65.46"/>
<polygon fill="#63b8ff" stroke="#63b8ff" points="839.84,-61.96 829.86,-65.53 839.89,-68.96 839.84,-61.96"/>
</a>
</g>
</g>
<!-- Node13 -->
<g id="Node000013" class="node">
<title>Node13</title>
<g id="a_Node000013"><a xlink:title=" ">
<polygon fill="#e0e0e0" stroke="#999999" points="2080.62,-135.38 2035.38,-135.38 2035.38,-116.12 2080.62,-116.12 2080.62,-135.38"/>
<text text-anchor="middle" x="2058" y="-121.88" font-family="Helvetica,sans-Serif" font-size="10.00">chrono</text>
</a>
</g>
</g>
<!-- Node2&#45;&gt;Node13 -->
<g id="edge54_Node000002_Node000013" class="edge">
<title>Node2&#45;&gt;Node13</title>
<g id="a_edge54_Node000002_Node000013"><a xlink:title=" ">
<path fill="none" stroke="#63b8ff" d="M764.73,-376.61C943.63,-368.2 1437.96,-339.31 1842,-262.75 1939.36,-244.3 1997.23,-285.77 2058,-207.5 2071.28,-190.4 2068.54,-164.54 2064.27,-146.72"/>
<polygon fill="#63b8ff" stroke="#63b8ff" points="2067.64,-145.78 2061.58,-137.09 2060.9,-147.66 2067.64,-145.78"/>
</a>
</g>
</g>
<!-- Node2&#45;&gt;Node30 -->
<g id="edge40_Node000002_Node000030" class="edge">
<title>Node2&#45;&gt;Node30</title>
<g id="a_edge40_Node000002_Node000030"><a xlink:title=" ">
<path fill="none" stroke="#63b8ff" d="M673.99,-364.86C658.49,-354.56 637.79,-340.79 622.06,-330.33"/>
<polygon fill="#63b8ff" stroke="#63b8ff" points="624.08,-327.47 613.81,-324.85 620.2,-333.3 624.08,-327.47"/>
</a>
</g>
</g>
<!-- Node2&#45;&gt;Node31 -->
<g id="edge53_Node000002_Node000031" class="edge">
<title>Node2&#45;&gt;Node31</title>
<g id="a_edge53_Node000002_Node000031"><a xlink:title=" ">
<path fill="none" stroke="#63b8ff" d="M647.5,-364.84C614.83,-354.92 570.78,-341.44 532,-329.25 463.27,-307.64 383.39,-281.71 337.27,-266.65"/>
<polygon fill="#63b8ff" stroke="#63b8ff" points="338.61,-263.41 328.01,-263.63 336.43,-270.06 338.61,-263.41"/>
</a>
</g>
</g>
<!-- Node4 -->
<g id="Node000004" class="node">
<title>Node4</title>
<g id="a_Node000004"><a xlink:href="Issue_8hpp.html" target="_top" xlink:title=" ">
<polygon fill="white" stroke="#666666" points="1662.25,-262.75 1587.75,-262.75 1587.75,-243.5 1662.25,-243.5 1662.25,-262.75"/>
<text text-anchor="middle" x="1625" y="-249.25" font-family="Helvetica,sans-Serif" font-size="10.00">ers/Issue.hpp</text>
</a>
</g>
</g>
<!-- Node3&#45;&gt;Node4 -->
<g id="edge3_Node000003_Node000004" class="edge">
<title>Node3&#45;&gt;Node4</title>
<g id="a_edge3_Node000003_Node000004"><a xlink:title=" ">
<path fill="none" stroke="#63b8ff" d="M1300.61,-305.6C1371.18,-294.4 1504.49,-273.25 1576.28,-261.86"/>
<polygon fill="#63b8ff" stroke="#63b8ff" points="1576.44,-265.38 1585.76,-260.35 1575.34,-258.46 1576.44,-265.38"/>
</a>
</g>
</g>
<!-- Node3&#45;&gt;Node9 -->
<g id="edge39_Node000003_Node000009" class="edge">
<title>Node3&#45;&gt;Node9</title>
<g id="a_edge39_Node000003_Node000009"><a xlink:title=" ">
<path fill="none" stroke="#63b8ff" d="M1252.59,-304.14C1246.74,-268.53 1223.21,-136.51 1192,-110.5 1138.73,-66.12 921.31,-64.31 839.41,-65.26"/>
<polygon fill="#63b8ff" stroke="#63b8ff" points="839.59,-61.76 829.64,-65.4 839.69,-68.76 839.59,-61.76"/>
</a>
</g>
</g>
<!-- Node5 -->
<g id="Node000005" class="node">
<title>Node5</title>
<g id="a_Node000005"><a xlink:title=" ">
<polygon fill="#e0e0e0" stroke="#999999" points="1928.62,-201.88 1883.38,-201.88 1883.38,-182.62 1928.62,-182.62 1928.62,-201.88"/>
<text text-anchor="middle" x="1906" y="-188.38" font-family="Helvetica,sans-Serif" font-size="10.00">math.h</text>
</a>
</g>
</g>
<!-- Node4&#45;&gt;Node5 -->
<g id="edge4_Node000004_Node000005" class="edge">
<title>Node4&#45;&gt;Node5</title>
<g id="a_edge4_Node000004_Node000005"><a xlink:title=" ">
<path fill="none" stroke="#63b8ff" d="M1662.37,-248.28C1711.66,-242.57 1800.74,-230.01 1874,-207.5 1874.99,-207.2 1875.99,-206.87 1877,-206.52"/>
<polygon fill="#63b8ff" stroke="#63b8ff" points="1878.25,-209.79 1886.27,-202.87 1875.68,-203.28 1878.25,-209.79"/>
</a>
</g>
</g>
<!-- Node6 -->
<g id="Node000006" class="node">
<title>Node6</title>
<g id="a_Node000006"><a xlink:title=" ">
<polygon fill="#e0e0e0" stroke="#999999" points="1615.25,-201.88 1570.75,-201.88 1570.75,-182.62 1615.25,-182.62 1615.25,-201.88"/>
<text text-anchor="middle" x="1593" y="-188.38" font-family="Helvetica,sans-Serif" font-size="10.00">stdio.h</text>
</a>
</g>
</g>
<!-- Node4&#45;&gt;Node6 -->
<g id="edge5_Node000004_Node000006" class="edge">
<title>Node4&#45;&gt;Node6</title>
<g id="a_edge5_Node000004_Node000006"><a xlink:title=" ">
<path fill="none" stroke="#63b8ff" d="M1620.14,-243.18C1615.68,-234.97 1608.92,-222.53 1603.26,-212.12"/>
<polygon fill="#63b8ff" stroke="#63b8ff" points="1606.48,-210.72 1598.63,-203.61 1600.33,-214.06 1606.48,-210.72"/>
</a>
</g>
</g>
<!-- Node7 -->
<g id="Node000007" class="node">
<title>Node7</title>
<g id="a_Node000007"><a xlink:title=" ">
<polygon fill="#e0e0e0" stroke="#999999" points="1680.75,-201.88 1633.25,-201.88 1633.25,-182.62 1680.75,-182.62 1680.75,-201.88"/>
<text text-anchor="middle" x="1657" y="-188.38" font-family="Helvetica,sans-Serif" font-size="10.00">string.h</text>
</a>
</g>
</g>
<!-- Node4&#45;&gt;Node7 -->
<g id="edge6_Node000004_Node000007" class="edge">
<title>Node4&#45;&gt;Node7</title>
<g id="a_edge6_Node000004_Node000007"><a xlink:title=" ">
<path fill="none" stroke="#63b8ff" d="M1629.86,-243.18C1634.32,-234.97 1641.08,-222.53 1646.74,-212.12"/>
<polygon fill="#63b8ff" stroke="#63b8ff" points="1649.67,-214.06 1651.37,-203.61 1643.52,-210.72 1649.67,-214.06"/>
</a>
</g>
</g>
<!-- Node8 -->
<g id="Node000008" class="node">
<title>Node8</title>
<g id="a_Node000008"><a xlink:title=" ">
<polygon fill="#e0e0e0" stroke="#999999" points="1568.38,-135.38 1533.62,-135.38 1533.62,-116.12 1568.38,-116.12 1568.38,-135.38"/>
<text text-anchor="middle" x="1551" y="-121.88" font-family="Helvetica,sans-Serif" font-size="10.00">map</text>
</a>
</g>
</g>
<!-- Node4&#45;&gt;Node8 -->
<g id="edge7_Node000004_Node000008" class="edge">
<title>Node4&#45;&gt;Node8</title>
<g id="a_edge7_Node000004_Node000008"><a xlink:title=" ">
<path fill="none" stroke="#63b8ff" d="M1587.6,-248.65C1538.23,-243.21 1455.41,-230.79 1437,-207.5 1428.59,-196.87 1429.44,-188.25 1437,-177 1458.81,-144.52 1482.97,-156.91 1524.79,-140.36"/>
<polygon fill="#63b8ff" stroke="#63b8ff" points="1526.07,-143.62 1533.81,-136.39 1523.25,-137.21 1526.07,-143.62"/>
</a>
</g>
</g>
<!-- Node4&#45;&gt;Node9 -->
<g id="edge8_Node000004_Node000009" class="edge">
<title>Node4&#45;&gt;Node9</title>
<g id="a_edge8_Node000004_Node000009"><a xlink:title=" ">
<path fill="none" stroke="#63b8ff" d="M1587.66,-252.06C1469.67,-251.45 1094.51,-246.37 787,-207.5 777.7,-206.32 461.94,-148.26 456,-141 447.41,-130.51 447.04,-120.67 456,-110.5 477.04,-86.63 693.41,-72.22 776.11,-67.55"/>
<polygon fill="#63b8ff" stroke="#63b8ff" points="776.22,-71.05 786.01,-67 775.83,-64.06 776.22,-71.05"/>
</a>
</g>
</g>
<!-- Node10 -->
<g id="Node000010" class="node">
<title>Node10</title>
<g id="a_Node000010"><a xlink:title=" ">
<polygon fill="#e0e0e0" stroke="#999999" points="1600.75,-19.25 1547.25,-19.25 1547.25,0 1600.75,0 1600.75,-19.25"/>
<text text-anchor="middle" x="1574" y="-5.75" font-family="Helvetica,sans-Serif" font-size="10.00">iostream</text>
</a>
</g>
</g>
<!-- Node4&#45;&gt;Node10 -->
<g id="edge9_Node000004_Node000010" class="edge">
<title>Node4&#45;&gt;Node10</title>
<g id="a_edge9_Node000004_Node000010"><a xlink:title=" ">
<path fill="none" stroke="#63b8ff" d="M1662.53,-244.26C1664.04,-244 1665.53,-243.74 1667,-243.5 1731.3,-232.94 1914.85,-256.32 1958,-207.5 1966.98,-197.34 1965.44,-188.33 1958,-177 1879.14,-56.88 1692.94,-23.06 1612.32,-13.89"/>
<polygon fill="#63b8ff" stroke="#63b8ff" points="1613.04,-10.45 1602.72,-12.87 1612.29,-17.41 1613.04,-10.45"/>
</a>
</g>
</g>
<!-- Node11 -->
<g id="Node000011" class="node">
<title>Node11</title>
<g id="a_Node000011"><a xlink:title=" ">
<polygon fill="#e0e0e0" stroke="#999999" points="1749.62,-201.88 1698.38,-201.88 1698.38,-182.62 1749.62,-182.62 1749.62,-201.88"/>
<text text-anchor="middle" x="1724" y="-188.38" font-family="Helvetica,sans-Serif" font-size="10.00">sstream</text>
</a>
</g>
</g>
<!-- Node4&#45;&gt;Node11 -->
<g id="edge10_Node000004_Node000011" class="edge">
<title>Node4&#45;&gt;Node11</title>
<g id="a_edge10_Node000004_Node000011"><a xlink:title=" ">
<path fill="none" stroke="#63b8ff" d="M1640.04,-243.18C1655.66,-233.89 1680.39,-219.19 1698.97,-208.14"/>
<polygon fill="#63b8ff" stroke="#63b8ff" points="1700.72,-211.17 1707.52,-203.05 1697.14,-205.15 1700.72,-211.17"/>
</a>
</g>
</g>
<!-- Node12 -->
<g id="Node000012" class="node">
<title>Node12</title>
<g id="a_Node000012"><a xlink:title=" ">
<polygon fill="#e0e0e0" stroke="#999999" points="1818.25,-201.88 1767.75,-201.88 1767.75,-182.62 1818.25,-182.62 1818.25,-201.88"/>
<text text-anchor="middle" x="1793" y="-188.38" font-family="Helvetica,sans-Serif" font-size="10.00">memory</text>
</a>
</g>
</g>
<!-- Node4&#45;&gt;Node12 -->
<g id="edge11_Node000004_Node000012" class="edge">
<title>Node4&#45;&gt;Node12</title>
<g id="a_edge11_Node000004_Node000012"><a xlink:title=" ">
<path fill="none" stroke="#63b8ff" d="M1654.5,-243.01C1681.8,-234.4 1723.42,-220.86 1759,-207.5 1759.94,-207.15 1760.9,-206.78 1761.86,-206.41"/>
<polygon fill="#63b8ff" stroke="#63b8ff" points="1762.86,-209.78 1770.84,-202.81 1760.25,-203.28 1762.86,-209.78"/>
</a>
</g>
</g>
<!-- Node4&#45;&gt;Node13 -->
<g id="edge12_Node000004_Node000013" class="edge">
<title>Node4&#45;&gt;Node13</title>
<g id="a_edge12_Node000004_Node000013"><a xlink:title=" ">
<path fill="none" stroke="#63b8ff" d="M1662.7,-251.88C1747.88,-250.66 1952.23,-243.93 2009,-207.5 2031.07,-193.34 2044.68,-165.36 2051.8,-146.36"/>
<polygon fill="#63b8ff" stroke="#63b8ff" points="2055.05,-147.67 2054.99,-137.07 2048.43,-145.39 2055.05,-147.67"/>
</a>
</g>
</g>
<!-- Node14 -->
<g id="Node000014" class="node">
<title>Node14</title>
<g id="a_Node000014"><a xlink:title=" ">
<polygon fill="#e0e0e0" stroke="#999999" points="1865.4,-201.88 1836.6,-201.88 1836.6,-182.62 1865.4,-182.62 1865.4,-201.88"/>
<text text-anchor="middle" x="1851" y="-188.38" font-family="Helvetica,sans-Serif" font-size="10.00">list</text>
</a>
</g>
</g>
<!-- Node4&#45;&gt;Node14 -->
<g id="edge13_Node000004_Node000014" class="edge">
<title>Node4&#45;&gt;Node14</title>
<g id="a_edge13_Node000004_Node000014"><a xlink:title=" ">
<path fill="none" stroke="#63b8ff" d="M1662.54,-247.48C1703.91,-241.53 1771.89,-229.29 1827,-207.5 1827.11,-207.46 1827.22,-207.41 1827.33,-207.37"/>
<polygon fill="#63b8ff" stroke="#63b8ff" points="1828.69,-210.6 1836.07,-203 1825.56,-204.34 1828.69,-210.6"/>
</a>
</g>
</g>
<!-- Node15 -->
<g id="Node000015" class="node">
<title>Node15</title>
<g id="a_Node000015"><a xlink:href="IssueFactory_8hpp.html" target="_top" xlink:title=" ">
<polygon fill="white" stroke="#666666" points="1552.38,-201.88 1445.62,-201.88 1445.62,-182.62 1552.38,-182.62 1552.38,-201.88"/>
<text text-anchor="middle" x="1499" y="-188.38" font-family="Helvetica,sans-Serif" font-size="10.00">ers/IssueFactory.hpp</text>
</a>
</g>
</g>
<!-- Node4&#45;&gt;Node15 -->
<g id="edge14_Node000004_Node000015" class="edge">
<title>Node4&#45;&gt;Node15</title>
<g id="a_edge14_Node000004_Node000015"><a xlink:title=" ">
<path fill="none" stroke="#63b8ff" d="M1605.59,-243.05C1585,-233.43 1552.22,-218.12 1528.44,-207.01"/>
<polygon fill="#63b8ff" stroke="#63b8ff" points="1530.14,-203.94 1519.6,-202.87 1527.18,-210.28 1530.14,-203.94"/>
</a>
</g>
</g>
<!-- Node17 -->
<g id="Node000017" class="node">
<title>Node17</title>
<g id="a_Node000017"><a xlink:href="Severity_8hpp.html" target="_top" xlink:title=" ">
<polygon fill="white" stroke="#666666" points="1709.88,-135.38 1624.12,-135.38 1624.12,-116.12 1709.88,-116.12 1709.88,-135.38"/>
<text text-anchor="middle" x="1667" y="-121.88" font-family="Helvetica,sans-Serif" font-size="10.00">ers/Severity.hpp</text>
</a>
</g>
</g>
<!-- Node4&#45;&gt;Node17 -->
<g id="edge31_Node000004_Node000017" class="edge">
<title>Node4&#45;&gt;Node17</title>
<g id="a_edge31_Node000004_Node000017"><a xlink:title=" ">
<path fill="none" stroke="#63b8ff" d="M1662.71,-252.62C1738,-252.7 1902.75,-248.13 1938,-207.5 1999.61,-136.48 1817.38,-126.53 1721.66,-126.02"/>
<polygon fill="#63b8ff" stroke="#63b8ff" points="1721.67,-122.52 1711.67,-126.01 1721.66,-129.52 1721.67,-122.52"/>
</a>
</g>
</g>
<!-- Node18 -->
<g id="Node000018" class="node">
<title>Node18</title>
<g id="a_Node000018"><a xlink:href="LocalContext_8hpp.html" target="_top" xlink:title=" ">
<polygon fill="white" stroke="#666666" points="1351.75,-201.88 1244.25,-201.88 1244.25,-182.62 1351.75,-182.62 1351.75,-201.88"/>
<text text-anchor="middle" x="1298" y="-188.38" font-family="Helvetica,sans-Serif" font-size="10.00">ers/LocalContext.hpp</text>
</a>
</g>
</g>
<!-- Node4&#45;&gt;Node18 -->
<g id="edge23_Node000004_Node000018" class="edge">
<title>Node4&#45;&gt;Node18</title>
<g id="a_edge23_Node000004_Node000018"><a xlink:title=" ">
<path fill="none" stroke="#63b8ff" d="M1587.49,-245.37C1531.83,-235.35 1426.73,-216.43 1359.65,-204.35"/>
<polygon fill="#63b8ff" stroke="#63b8ff" points="1360.36,-200.92 1349.89,-202.59 1359.12,-207.81 1360.36,-200.92"/>
</a>
</g>
</g>
<!-- Node23 -->
<g id="Node000023" class="node">
<title>Node23</title>
<g id="a_Node000023"><a xlink:href="IssueDeclarationMacro_8hpp.html" target="_top" xlink:title=" ">
<polygon fill="white" stroke="#666666" points="935.88,-207.5 796.12,-207.5 796.12,-177 935.88,-177 935.88,-207.5"/>
<text text-anchor="start" x="804.12" y="-194" font-family="Helvetica,sans-Serif" font-size="10.00">ers/internal/IssueDeclaration</text>
<text text-anchor="middle" x="866" y="-182.75" font-family="Helvetica,sans-Serif" font-size="10.00">Macro.hpp</text>
</a>
</g>
</g>
<!-- Node4&#45;&gt;Node23 -->
<g id="edge32_Node000004_Node000023" class="edge">
<title>Node4&#45;&gt;Node23</title>
<g id="a_edge32_Node000004_Node000023"><a xlink:title=" ">
<path fill="none" stroke="#63b8ff" d="M1587.36,-249.21C1470.22,-240.12 1110.28,-212.2 947.48,-199.57"/>
<polygon fill="#63b8ff" stroke="#63b8ff" points="947.85,-196.09 937.61,-198.8 947.31,-203.07 947.85,-196.09"/>
</a>
</g>
</g>
<!-- Node15&#45;&gt;Node8 -->
<g id="edge18_Node000015_Node000008" class="edge">
<title>Node15&#45;&gt;Node8</title>
<g id="a_edge18_Node000015_Node000008"><a xlink:title=" ">
<path fill="none" stroke="#63b8ff" d="M1506.23,-182.28C1514.07,-172.56 1526.78,-156.79 1536.66,-144.53"/>
<polygon fill="#63b8ff" stroke="#63b8ff" points="1539.33,-146.8 1542.88,-136.82 1533.88,-142.41 1539.33,-146.8"/>
</a>
</g>
</g>
<!-- Node15&#45;&gt;Node9 -->
<g id="edge16_Node000015_Node000009" class="edge">
<title>Node15&#45;&gt;Node9</title>
<g id="a_edge16_Node000015_Node000009"><a xlink:title=" ">
<path fill="none" stroke="#63b8ff" d="M1484.44,-182.19C1468.94,-172.41 1443.83,-156.2 1423,-141 1405.5,-128.24 1405.14,-118.47 1385,-110.5 1284.57,-70.76 945.89,-66.3 839.95,-65.88"/>
<polygon fill="#63b8ff" stroke="#63b8ff" points="840.01,-62.38 830,-65.86 839.99,-69.38 840.01,-62.38"/>
</a>
</g>
</g>
<!-- Node15&#45;&gt;Node13 -->
<g id="edge15_Node000015_Node000013" class="edge">
<title>Node15&#45;&gt;Node13</title>
<g id="a_edge15_Node000015_Node000013"><a xlink:title=" ">
<path fill="none" stroke="#63b8ff" d="M1535.83,-182.13C1544.38,-180.23 1553.48,-178.39 1562,-177 1734.05,-148.93 1942.4,-133.93 2023.43,-128.8"/>
<polygon fill="#63b8ff" stroke="#63b8ff" points="2023.6,-132.3 2033.37,-128.18 2023.17,-125.31 2023.6,-132.3"/>
</a>
</g>
</g>
<!-- Node16 -->
<g id="Node000016" class="node">
<title>Node16</title>
<g id="a_Node000016"><a xlink:title=" ">
<polygon fill="#e0e0e0" stroke="#999999" points="1617.5,-74.5 1574.5,-74.5 1574.5,-55.25 1617.5,-55.25 1617.5,-74.5"/>
<text text-anchor="middle" x="1596" y="-61" font-family="Helvetica,sans-Serif" font-size="10.00">vector</text>
</a>
</g>
</g>
<!-- Node15&#45;&gt;Node16 -->
<g id="edge17_Node000015_Node000016" class="edge">
<title>Node15&#45;&gt;Node16</title>
<g id="a_edge17_Node000015_Node000016"><a xlink:title=" ">
<path fill="none" stroke="#63b8ff" d="M1521.86,-182.14C1539.51,-173.94 1563.18,-160.23 1577,-141 1588.65,-124.79 1593.17,-102.14 1594.92,-85.96"/>
<polygon fill="#63b8ff" stroke="#63b8ff" points="1598.4,-86.37 1595.7,-76.12 1591.42,-85.82 1598.4,-86.37"/>
</a>
</g>
</g>
<!-- Node15&#45;&gt;Node17 -->
<g id="edge19_Node000015_Node000017" class="edge">
<title>Node15&#45;&gt;Node17</title>
<g id="a_edge19_Node000015_Node000017"><a xlink:title=" ">
<path fill="none" stroke="#63b8ff" d="M1522.71,-182.15C1551.48,-171.1 1600.18,-152.4 1632.96,-139.82"/>
<polygon fill="#63b8ff" stroke="#63b8ff" points="1633.91,-143.2 1641.99,-136.35 1631.4,-136.67 1633.91,-143.2"/>
</a>
</g>
</g>
<!-- Node17&#45;&gt;Node9 -->
<g id="edge20_Node000017_Node000009" class="edge">
<title>Node17&#45;&gt;Node9</title>
<g id="a_edge20_Node000017_Node000009"><a xlink:title=" ">
<path fill="none" stroke="#63b8ff" d="M1623.63,-116.99C1608.87,-114.59 1592.26,-112.15 1577,-110.5 1291.79,-79.72 944.63,-69.19 839.58,-66.59"/>
<polygon fill="#63b8ff" stroke="#63b8ff" points="839.85,-63.09 829.77,-66.35 839.69,-70.09 839.85,-63.09"/>
</a>
</g>
</g>
<!-- Node17&#45;&gt;Node10 -->
<g id="edge22_Node000017_Node000010" class="edge">
<title>Node17&#45;&gt;Node10</title>
<g id="a_edge22_Node000017_Node000010"><a xlink:title=" ">
<path fill="none" stroke="#63b8ff" d="M1663.19,-116.01C1656.91,-102.21 1643.44,-74.9 1627,-55.25 1617.99,-44.48 1606.18,-34.26 1596,-26.32"/>
<polygon fill="#63b8ff" stroke="#63b8ff" points="1598.18,-23.58 1588.09,-20.37 1593.98,-29.18 1598.18,-23.58"/>
</a>
</g>
</g>
<!-- Node17&#45;&gt;Node16 -->
<g id="edge21_Node000017_Node000016" class="edge">
<title>Node17&#45;&gt;Node16</title>
<g id="a_edge21_Node000017_Node000016"><a xlink:title=" ">
<path fill="none" stroke="#63b8ff" d="M1656.22,-115.81C1645.48,-106.9 1628.75,-93.03 1615.65,-82.17"/>
<polygon fill="#63b8ff" stroke="#63b8ff" points="1617.98,-79.56 1608.05,-75.87 1613.51,-84.94 1617.98,-79.56"/>
</a>
</g>
</g>
<!-- Node19 -->
<g id="Node000019" class="node">
<title>Node19</title>
<g id="a_Node000019"><a xlink:title=" ">
<polygon fill="#e0e0e0" stroke="#999999" points="1376.38,-135.38 1311.62,-135.38 1311.62,-116.12 1376.38,-116.12 1376.38,-135.38"/>
<text text-anchor="middle" x="1344" y="-121.88" font-family="Helvetica,sans-Serif" font-size="10.00">sys/types.h</text>
</a>
</g>
</g>
<!-- Node18&#45;&gt;Node19 -->
<g id="edge24_Node000018_Node000019" class="edge">
<title>Node18&#45;&gt;Node19</title>
<g id="a_edge24_Node000018_Node000019"><a xlink:title=" ">
<path fill="none" stroke="#63b8ff" d="M1304.4,-182.28C1311.26,-172.65 1322.35,-157.1 1331.06,-144.9"/>
<polygon fill="#63b8ff" stroke="#63b8ff" points="1333.82,-147.05 1336.78,-136.87 1328.12,-142.98 1333.82,-147.05"/>
</a>
</g>
</g>
<!-- Node20 -->
<g id="Node000020" class="node">
<title>Node20</title>
<g id="a_Node000020"><a xlink:title=" ">
<polygon fill="#e0e0e0" stroke="#999999" points="1293.88,-135.38 1244.12,-135.38 1244.12,-116.12 1293.88,-116.12 1293.88,-135.38"/>
<text text-anchor="middle" x="1269" y="-121.88" font-family="Helvetica,sans-Serif" font-size="10.00">unistd.h</text>
</a>
</g>
</g>
<!-- Node18&#45;&gt;Node20 -->
<g id="edge25_Node000018_Node000020" class="edge">
<title>Node18&#45;&gt;Node20</title>
<g id="a_edge25_Node000018_Node000020"><a xlink:title=" ">
<path fill="none" stroke="#63b8ff" d="M1293.97,-182.28C1289.77,-172.94 1283.06,-158.03 1277.66,-146.01"/>
<polygon fill="#63b8ff" stroke="#63b8ff" points="1280.91,-144.71 1273.62,-137.02 1274.53,-147.58 1280.91,-144.71"/>
</a>
</g>
</g>
<!-- Node21 -->
<g id="Node000021" class="node">
<title>Node21</title>
<g id="a_Node000021"><a xlink:href="Context_8hpp.html" target="_top" xlink:title=" ">
<polygon fill="white" stroke="#666666" points="1515.75,-135.38 1432.25,-135.38 1432.25,-116.12 1515.75,-116.12 1515.75,-135.38"/>
<text text-anchor="middle" x="1474" y="-121.88" font-family="Helvetica,sans-Serif" font-size="10.00">ers/Context.hpp</text>
</a>
</g>
</g>
<!-- Node18&#45;&gt;Node21 -->
<g id="edge26_Node000018_Node000021" class="edge">
<title>Node18&#45;&gt;Node21</title>
<g id="a_edge26_Node000018_Node000021"><a xlink:title=" ">
<path fill="none" stroke="#63b8ff" d="M1322.84,-182.15C1353.11,-171.05 1404.45,-152.24 1438.78,-139.66"/>
<polygon fill="#63b8ff" stroke="#63b8ff" points="1439.68,-143.06 1447.86,-136.33 1437.27,-136.48 1439.68,-143.06"/>
</a>
</g>
</g>
<!-- Node21&#45;&gt;Node9 -->
<g id="edge27_Node000021_Node000009" class="edge">
<title>Node21&#45;&gt;Node9</title>
<g id="a_edge27_Node000021_Node000009"><a xlink:title=" ">
<path fill="none" stroke="#63b8ff" d="M1442.22,-115.63C1434.36,-113.66 1425.92,-111.79 1418,-110.5 1198.8,-74.88 930.64,-67.68 839.8,-66.23"/>
<polygon fill="#63b8ff" stroke="#63b8ff" points="839.99,-62.74 829.94,-66.09 839.89,-69.73 839.99,-62.74"/>
</a>
</g>
</g>
<!-- Node21&#45;&gt;Node16 -->
<g id="edge28_Node000021_Node000016" class="edge">
<title>Node21&#45;&gt;Node16</title>
<g id="a_edge28_Node000021_Node000016"><a xlink:title=" ">
<path fill="none" stroke="#63b8ff" d="M1492.8,-115.68C1512.64,-106.1 1544.19,-90.88 1567.18,-79.78"/>
<polygon fill="#63b8ff" stroke="#63b8ff" points="1568.54,-83.02 1576.02,-75.52 1565.49,-76.71 1568.54,-83.02"/>
</a>
</g>
</g>
<!-- Node22 -->
<g id="Node000022" class="node">
<title>Node22</title>
<g id="a_Node000022"><a xlink:href="ers_2include_2ers_2Configuration_8hpp.html" target="_top" xlink:title=" ">
<polygon fill="white" stroke="#666666" points="1541.38,-74.5 1434.62,-74.5 1434.62,-55.25 1541.38,-55.25 1541.38,-74.5"/>
<text text-anchor="middle" x="1488" y="-61" font-family="Helvetica,sans-Serif" font-size="10.00">ers/Configuration.hpp</text>
</a>
</g>
</g>
<!-- Node21&#45;&gt;Node22 -->
<g id="edge29_Node000021_Node000022" class="edge">
<title>Node21&#45;&gt;Node22</title>
<g id="a_edge29_Node000021_Node000022"><a xlink:title=" ">
<path fill="none" stroke="#63b8ff" d="M1476.13,-115.81C1478,-107.94 1480.79,-96.2 1483.2,-86.07"/>
<polygon fill="#63b8ff" stroke="#63b8ff" points="1486.6,-86.91 1485.5,-76.37 1479.79,-85.29 1486.6,-86.91"/>
</a>
</g>
</g>
<!-- Node22&#45;&gt;Node10 -->
<g id="edge30_Node000022_Node000010" class="edge">
<title>Node22&#45;&gt;Node10</title>
<g id="a_edge30_Node000022_Node000010"><a xlink:title=" ">
<path fill="none" stroke="#63b8ff" d="M1502.59,-54.84C1515.44,-46.89 1534.41,-35.14 1549.57,-25.75"/>
<polygon fill="#63b8ff" stroke="#63b8ff" points="1551.39,-28.74 1558.05,-20.5 1547.71,-22.79 1551.39,-28.74"/>
</a>
</g>
</g>
<!-- Node24 -->
<g id="Node000024" class="node">
<title>Node24</title>
<g id="a_Node000024"><a xlink:title=" ">
<polygon fill="#e0e0e0" stroke="#999999" points="681.62,-141 582.38,-141 582.38,-110.5 681.62,-110.5 681.62,-141"/>
<text text-anchor="start" x="590.38" y="-127.5" font-family="Helvetica,sans-Serif" font-size="10.00">boost/preprocessor</text>
<text text-anchor="middle" x="632" y="-116.25" font-family="Helvetica,sans-Serif" font-size="10.00">/if.hpp</text>
</a>
</g>
</g>
<!-- Node23&#45;&gt;Node24 -->
<g id="edge33_Node000023_Node000024" class="edge">
<title>Node23&#45;&gt;Node24</title>
<g id="a_edge33_Node000023_Node000024"><a xlink:title=" ">
<path fill="none" stroke="#63b8ff" d="M812.61,-176.53C776.88,-166.69 729.79,-153.7 692.65,-143.47"/>
<polygon fill="#63b8ff" stroke="#63b8ff" points="693.99,-140.21 683.42,-140.92 692.13,-146.95 693.99,-140.21"/>
</a>
</g>
</g>
<!-- Node25 -->
<g id="Node000025" class="node">
<title>Node25</title>
<g id="a_Node000025"><a xlink:title=" ">
<polygon fill="#e0e0e0" stroke="#999999" points="798.62,-141 699.38,-141 699.38,-110.5 798.62,-110.5 798.62,-141"/>
<text text-anchor="start" x="707.38" y="-127.5" font-family="Helvetica,sans-Serif" font-size="10.00">boost/preprocessor</text>
<text text-anchor="middle" x="749" y="-116.25" font-family="Helvetica,sans-Serif" font-size="10.00">/seq.hpp</text>
</a>
</g>
</g>
<!-- Node23&#45;&gt;Node25 -->
<g id="edge34_Node000023_Node000025" class="edge">
<title>Node23&#45;&gt;Node25</title>
<g id="a_edge34_Node000023_Node000025"><a xlink:title=" ">
<path fill="none" stroke="#63b8ff" d="M839.45,-176.61C823.44,-167.79 802.83,-156.43 785.33,-146.78"/>
<polygon fill="#63b8ff" stroke="#63b8ff" points="787.22,-143.82 776.77,-142.06 783.84,-149.95 787.22,-143.82"/>
</a>
</g>
</g>
<!-- Node26 -->
<g id="Node000026" class="node">
<title>Node26</title>
<g id="a_Node000026"><a xlink:title=" ">
<polygon fill="#e0e0e0" stroke="#999999" points="915.62,-141 816.38,-141 816.38,-110.5 915.62,-110.5 915.62,-141"/>
<text text-anchor="start" x="824.38" y="-127.5" font-family="Helvetica,sans-Serif" font-size="10.00">boost/preprocessor</text>
<text text-anchor="middle" x="866" y="-116.25" font-family="Helvetica,sans-Serif" font-size="10.00">/tuple.hpp</text>
</a>
</g>
</g>
<!-- Node23&#45;&gt;Node26 -->
<g id="edge35_Node000023_Node000026" class="edge">
<title>Node23&#45;&gt;Node26</title>
<g id="a_edge35_Node000023_Node000026"><a xlink:title=" ">
<path fill="none" stroke="#63b8ff" d="M866,-176.61C866,-169.52 866,-160.79 866,-152.63"/>
<polygon fill="#63b8ff" stroke="#63b8ff" points="869.5,-152.84 866,-142.84 862.5,-152.84 869.5,-152.84"/>
</a>
</g>
</g>
<!-- Node27 -->
<g id="Node000027" class="node">
<title>Node27</title>
<g id="a_Node000027"><a xlink:title=" ">
<polygon fill="#e0e0e0" stroke="#999999" points="1032.62,-141 933.38,-141 933.38,-110.5 1032.62,-110.5 1032.62,-141"/>
<text text-anchor="start" x="941.38" y="-127.5" font-family="Helvetica,sans-Serif" font-size="10.00">boost/preprocessor</text>
<text text-anchor="middle" x="983" y="-116.25" font-family="Helvetica,sans-Serif" font-size="10.00">/logical.hpp</text>
</a>
</g>
</g>
<!-- Node23&#45;&gt;Node27 -->
<g id="edge36_Node000023_Node000027" class="edge">
<title>Node23&#45;&gt;Node27</title>
<g id="a_edge36_Node000023_Node000027"><a xlink:title=" ">
<path fill="none" stroke="#63b8ff" d="M892.55,-176.61C908.56,-167.79 929.17,-156.43 946.67,-146.78"/>
<polygon fill="#63b8ff" stroke="#63b8ff" points="948.16,-149.95 955.23,-142.06 944.78,-143.82 948.16,-149.95"/>
</a>
</g>
</g>
<!-- Node28 -->
<g id="Node000028" class="node">
<title>Node28</title>
<g id="a_Node000028"><a xlink:title=" ">
<polygon fill="#e0e0e0" stroke="#999999" points="1149.62,-141 1050.38,-141 1050.38,-110.5 1149.62,-110.5 1149.62,-141"/>
<text text-anchor="start" x="1058.38" y="-127.5" font-family="Helvetica,sans-Serif" font-size="10.00">boost/preprocessor</text>
<text text-anchor="middle" x="1100" y="-116.25" font-family="Helvetica,sans-Serif" font-size="10.00">/stringize.hpp</text>
</a>
</g>
</g>
<!-- Node23&#45;&gt;Node28 -->
<g id="edge37_Node000023_Node000028" class="edge">
<title>Node23&#45;&gt;Node28</title>
<g id="a_edge37_Node000023_Node000028"><a xlink:title=" ">
<path fill="none" stroke="#63b8ff" d="M919.39,-176.53C955.12,-166.69 1002.21,-153.7 1039.35,-143.47"/>
<polygon fill="#63b8ff" stroke="#63b8ff" points="1039.87,-146.95 1048.58,-140.92 1038.01,-140.21 1039.87,-146.95"/>
</a>
</g>
</g>
<!-- Node29 -->
<g id="Node000029" class="node">
<title>Node29</title>
<g id="a_Node000029"><a xlink:title=" ">
<polygon fill="#e0e0e0" stroke="#999999" points="564.62,-141 465.38,-141 465.38,-110.5 564.62,-110.5 564.62,-141"/>
<text text-anchor="start" x="473.38" y="-127.5" font-family="Helvetica,sans-Serif" font-size="10.00">boost/preprocessor</text>
<text text-anchor="middle" x="515" y="-116.25" font-family="Helvetica,sans-Serif" font-size="10.00">/comparison.hpp</text>
</a>
</g>
</g>
<!-- Node23&#45;&gt;Node29 -->
<g id="edge38_Node000023_Node000029" class="edge">
<title>Node23&#45;&gt;Node29</title>
<g id="a_edge38_Node000023_Node000029"><a xlink:title=" ">
<path fill="none" stroke="#63b8ff" d="M795.88,-180.66C738.91,-171.73 656.26,-158.03 575.76,-141.5"/>
<polygon fill="#63b8ff" stroke="#63b8ff" points="576.92,-138.17 566.42,-139.56 575.5,-145.02 576.92,-138.17"/>
</a>
</g>
</g>
<!-- Node30&#45;&gt;Node4 -->
<g id="edge48_Node000030_Node000004" class="edge">
<title>Node30&#45;&gt;Node4</title>
<g id="a_edge48_Node000030_Node000004"><a xlink:title=" ">
<path fill="none" stroke="#63b8ff" d="M657.1,-309.67C840.69,-299.13 1406.2,-266.68 1576.18,-256.93"/>
<polygon fill="#63b8ff" stroke="#63b8ff" points="1576.2,-260.43 1585.98,-256.36 1575.8,-253.44 1576.2,-260.43"/>
</a>
</g>
</g>
<!-- Node30&#45;&gt;Node8 -->
<g id="edge50_Node000030_Node000008" class="edge">
<title>Node30&#45;&gt;Node8</title>
<g id="a_edge50_Node000030_Node000008"><a xlink:title=" ">
<path fill="none" stroke="#63b8ff" d="M657.09,-310.78C786.18,-304.61 1105.65,-282.38 1361,-207.5 1392.01,-198.41 1397.14,-189.36 1427,-177 1469.87,-159.25 1482.76,-160.2 1525,-141 1525.11,-140.95 1525.22,-140.9 1525.33,-140.85"/>
<polygon fill="#63b8ff" stroke="#63b8ff" points="1526.81,-144.03 1534.17,-136.41 1523.66,-137.77 1526.81,-144.03"/>
</a>
</g>
</g>
<!-- Node30&#45;&gt;Node9 -->
<g id="edge51_Node000030_Node000009" class="edge">
<title>Node30&#45;&gt;Node9</title>
<g id="a_edge51_Node000030_Node000009"><a xlink:title=" ">
<path fill="none" stroke="#63b8ff" d="M600.77,-304.02C604.93,-280.08 612.67,-213.98 580,-177 539.17,-130.78 483.52,-189.94 446,-141 437.75,-130.24 437.02,-120.65 446,-110.5 467.76,-85.89 692.17,-71.85 776.34,-67.42"/>
<polygon fill="#63b8ff" stroke="#63b8ff" points="776.38,-70.92 786.19,-66.91 776.02,-63.93 776.38,-70.92"/>
</a>
</g>
</g>
<!-- Node30&#45;&gt;Node13 -->
<g id="edge49_Node000030_Node000013" class="edge">
<title>Node30&#45;&gt;Node13</title>
<g id="a_edge49_Node000030_Node000013"><a xlink:title=" ">
<path fill="none" stroke="#63b8ff" d="M657.25,-312.38C818.69,-310.22 1285.34,-300.87 1671,-262.75 1834.27,-246.61 1913.47,-316.61 2036,-207.5 2053.02,-192.35 2057.44,-165.46 2058.31,-146.9"/>
<polygon fill="#63b8ff" stroke="#63b8ff" points="2061.81,-147.18 2058.44,-137.14 2054.81,-147.09 2061.81,-147.18"/>
</a>
</g>
</g>
<!-- Node30&#45;&gt;Node31 -->
<g id="edge41_Node000030_Node000031" class="edge">
<title>Node30&#45;&gt;Node31</title>
<g id="a_edge41_Node000030_Node000031"><a xlink:title=" ">
<path fill="none" stroke="#63b8ff" d="M552.78,-303.93C499.93,-293.56 413.36,-276.57 356.28,-265.37"/>
<polygon fill="#63b8ff" stroke="#63b8ff" points="357.24,-261.99 346.76,-263.5 355.89,-268.86 357.24,-261.99"/>
</a>
</g>
</g>
<!-- Node32 -->
<g id="Node000032" class="node">
<title>Node32</title>
<g id="a_Node000032"><a xlink:href="InfoCollector_8hpp.html" target="_top" xlink:title=" ">
<polygon fill="white" stroke="#666666" points="503.38,-262.75 372.62,-262.75 372.62,-243.5 503.38,-243.5 503.38,-262.75"/>
<text text-anchor="middle" x="438" y="-249.25" font-family="Helvetica,sans-Serif" font-size="10.00">opmonlib/InfoCollector.hpp</text>
</a>
</g>
</g>
<!-- Node30&#45;&gt;Node32 -->
<g id="edge42_Node000030_Node000032" class="edge">
<title>Node30&#45;&gt;Node32</title>
<g id="a_edge42_Node000030_Node000032"><a xlink:title=" ">
<path fill="none" stroke="#63b8ff" d="M574.2,-303.93C547.25,-294.08 503.97,-278.25 473.45,-267.09"/>
<polygon fill="#63b8ff" stroke="#63b8ff" points="474.85,-263.87 464.25,-263.73 472.44,-270.45 474.85,-263.87"/>
</a>
</g>
</g>
<!-- Node36 -->
<g id="Node000036" class="node">
<title>Node36</title>
<g id="a_Node000036"><a xlink:title=" ">
<polygon fill="#e0e0e0" stroke="#999999" points="570.88,-262.75 521.12,-262.75 521.12,-243.5 570.88,-243.5 570.88,-262.75"/>
<text text-anchor="middle" x="546" y="-249.25" font-family="Helvetica,sans-Serif" font-size="10.00">typeinfo</text>
</a>
</g>
</g>
<!-- Node30&#45;&gt;Node36 -->
<g id="edge52_Node000030_Node000036" class="edge">
<title>Node30&#45;&gt;Node36</title>
<g id="a_edge52_Node000030_Node000036"><a xlink:title=" ">
<path fill="none" stroke="#63b8ff" d="M590.95,-304.06C583.25,-295.5 571.41,-282.35 561.82,-271.7"/>
<polygon fill="#63b8ff" stroke="#63b8ff" points="564.43,-269.37 555.14,-264.28 559.23,-274.05 564.43,-269.37"/>
</a>
</g>
</g>
<!-- Node32&#45;&gt;Node9 -->
<g id="edge46_Node000032_Node000009" class="edge">
<title>Node32&#45;&gt;Node9</title>
<g id="a_edge46_Node000032_Node000009"><a xlink:title=" ">
<path fill="none" stroke="#63b8ff" d="M418.48,-243.09C404.94,-235.65 387.97,-223.69 380,-207.5 371.12,-189.46 373.26,-122.59 385,-110.5 412.19,-82.48 683.13,-70.3 776.54,-66.91"/>
<polygon fill="#63b8ff" stroke="#63b8ff" points="776.38,-70.42 786.25,-66.57 776.13,-63.42 776.38,-70.42"/>
</a>
</g>
</g>
<!-- Node32&#45;&gt;Node10 -->
<g id="edge45_Node000032_Node000010" class="edge">
<title>Node32&#45;&gt;Node10</title>
<g id="a_edge45_Node000032_Node000010"><a xlink:title=" ">
<path fill="none" stroke="#63b8ff" d="M413.89,-243.1C398.59,-235.97 380.04,-224.38 371,-207.5 362.63,-191.86 357.81,-127.38 373,-110.5 452.6,-22.05 1339.1,-11.93 1535.59,-10.77"/>
<polygon fill="#63b8ff" stroke="#63b8ff" points="1535.51,-14.27 1545.49,-10.72 1535.47,-7.27 1535.51,-14.27"/>
</a>
</g>
</g>
<!-- Node33 -->
<g id="Node000033" class="node">
<title>Node33</title>
<g id="a_Node000033"><a xlink:title=" ">
<polygon fill="#e0e0e0" stroke="#999999" points="294.5,-201.88 197.5,-201.88 197.5,-182.62 294.5,-182.62 294.5,-201.88"/>
<text text-anchor="middle" x="246" y="-188.38" font-family="Helvetica,sans-Serif" font-size="10.00">nlohmann/json.hpp</text>
</a>
</g>
</g>
<!-- Node32&#45;&gt;Node33 -->
<g id="edge43_Node000032_Node000033" class="edge">
<title>Node32&#45;&gt;Node33</title>
<g id="a_edge43_Node000032_Node000033"><a xlink:title=" ">
<path fill="none" stroke="#63b8ff" d="M408.42,-243.05C375.72,-233.03 322.86,-216.82 286.37,-205.63"/>
<polygon fill="#63b8ff" stroke="#63b8ff" points="287.65,-202.36 277.06,-202.77 285.59,-209.05 287.65,-202.36"/>
</a>
</g>
</g>
<!-- Node34 -->
<g id="Node000034" class="node">
<title>Node34</title>
<g id="a_Node000034"><a xlink:title=" ">
<polygon fill="#e0e0e0" stroke="#999999" points="571,-201.88 531,-201.88 531,-182.62 571,-182.62 571,-201.88"/>
<text text-anchor="middle" x="551" y="-188.38" font-family="Helvetica,sans-Serif" font-size="10.00">ctime</text>
</a>
</g>
</g>
<!-- Node32&#45;&gt;Node34 -->
<g id="edge44_Node000032_Node000034" class="edge">
<title>Node32&#45;&gt;Node34</title>
<g id="a_edge44_Node000032_Node000034"><a xlink:title=" ">
<path fill="none" stroke="#63b8ff" d="M455.16,-243.18C473.33,-233.72 502.28,-218.64 523.61,-207.52"/>
<polygon fill="#63b8ff" stroke="#63b8ff" points="525.08,-210.7 532.33,-202.98 521.85,-204.49 525.08,-210.7"/>
</a>
</g>
</g>
<!-- Node35 -->
<g id="Node000035" class="node">
<title>Node35</title>
<g id="a_Node000035"><a xlink:href="JSONTags_8hpp.html" target="_top" xlink:title=" ">
<polygon fill="white" stroke="#666666" points="513.38,-201.88 388.62,-201.88 388.62,-182.62 513.38,-182.62 513.38,-201.88"/>
<text text-anchor="middle" x="451" y="-188.38" font-family="Helvetica,sans-Serif" font-size="10.00">opmonlib/JSONTags.hpp</text>
</a>
</g>
</g>
<!-- Node32&#45;&gt;Node35 -->
<g id="edge47_Node000032_Node000035" class="edge">
<title>Node32&#45;&gt;Node35</title>
<g id="a_edge47_Node000032_Node000035"><a xlink:title=" ">
<path fill="none" stroke="#63b8ff" d="M439.97,-243.18C441.71,-235.32 444.3,-223.57 446.54,-213.45"/>
<polygon fill="#63b8ff" stroke="#63b8ff" points="449.94,-214.27 448.68,-203.75 443.11,-212.76 449.94,-214.27"/>
</a>
</g>
</g>
<!-- Node37&#45;&gt;Node33 -->
<g id="edge61_Node000037_Node000033" class="edge">
<title>Node37&#45;&gt;Node33</title>
<g id="a_edge61_Node000037_Node000033"><a xlink:title=" ">
<path fill="none" stroke="#63b8ff" d="M49.05,-364.84C41.6,-355.4 32.95,-342.45 29,-329.25 17.82,-291.85 19.28,-269.94 48,-243.5 85.25,-209.21 142.52,-197.54 185.9,-193.92"/>
<polygon fill="#63b8ff" stroke="#63b8ff" points="185.93,-197.43 195.66,-193.24 185.44,-190.44 185.93,-197.43"/>
</a>
</g>
</g>
<!-- Node37&#45;&gt;Node38 -->
<g id="edge58_Node000037_Node000038" class="edge">
<title>Node37&#45;&gt;Node38</title>
<g id="a_edge58_Node000037_Node000038"><a xlink:title=" ">
<path fill="none" stroke="#63b8ff" d="M70.62,-364.86C75.04,-357.36 80.55,-348.02 85.59,-339.46"/>
<polygon fill="#63b8ff" stroke="#63b8ff" points="88.58,-341.27 90.64,-330.88 82.55,-337.72 88.58,-341.27"/>
</a>
</g>
</g>
<!-- Node38&#45;&gt;Node9 -->
<g id="edge60_Node000038_Node000009" class="edge">
<title>Node38&#45;&gt;Node9</title>
<g id="a_edge60_Node000038_Node000009"><a xlink:title=" ">
<path fill="none" stroke="#63b8ff" d="M104.33,-298.47C113.88,-267.25 137.29,-195.13 155,-177 207.1,-123.67 236.74,-128.83 309,-110.5 481.41,-66.77 696.8,-64.43 776.48,-65.26"/>
<polygon fill="#63b8ff" stroke="#63b8ff" points="776.09,-68.75 786.14,-65.38 776.18,-61.75 776.09,-68.75"/>
</a>
</g>
</g>
<!-- Node39 -->
<g id="Node000039" class="node">
<title>Node39</title>
<g id="a_Node000039"><a xlink:title=" ">
<polygon fill="#e0e0e0" stroke="#999999" points="102.62,-262.75 57.38,-262.75 57.38,-243.5 102.62,-243.5 102.62,-262.75"/>
<text text-anchor="middle" x="80" y="-249.25" font-family="Helvetica,sans-Serif" font-size="10.00">cstdint</text>
</a>
</g>
</g>
<!-- Node38&#45;&gt;Node39 -->
<g id="edge59_Node000038_Node000039" class="edge">
<title>Node38&#45;&gt;Node39</title>
<g id="a_edge59_Node000038_Node000039"><a xlink:title=" ">
<path fill="none" stroke="#63b8ff" d="M95.06,-298.45C92.54,-291.03 89.44,-281.91 86.71,-273.88"/>
<polygon fill="#63b8ff" stroke="#63b8ff" points="90.1,-272.98 83.57,-264.63 83.47,-275.23 90.1,-272.98"/>
</a>
</g>
</g>
</g>
</svg>
