<?xml version="1.0" encoding="UTF-8" standalone="no"?>
<!DOCTYPE svg PUBLIC "-//W3C//DTD SVG 1.1//EN"
 "http://www.w3.org/Graphics/SVG/1.1/DTD/svg11.dtd">
<!-- Generated by graphviz version 9.0.0 (20230911.1827)
 -->
<!-- Title: /github/workspace/dev_area/sourcecode/fdreadoutlibs/include/fdreadoutlibs/SSPFrameTypeAdapter.hpp Pages: 1 -->
<svg width="1147pt" height="227pt"
 viewBox="0.00 0.00 1146.75 226.75" xmlns="http://www.w3.org/2000/svg" xmlns:xlink="http://www.w3.org/1999/xlink">
<g id="graph0" class="graph" transform="scale(1 1) rotate(0) translate(4 222.75)">
<title>/github/workspace/dev_area/sourcecode/fdreadoutlibs/include/fdreadoutlibs/SSPFrameTypeAdapter.hpp</title>
<!-- Node1 -->
<g id="Node000001" class="node">
<title>Node1</title>
<g id="a_Node000001"><a xlink:title=" ">
<polygon fill="#999999" stroke="#666666" points="995.25,-218.75 815,-218.75 815,-165.75 995.25,-165.75 995.25,-218.75"/>
<text text-anchor="start" x="823" y="-205.25" font-family="Helvetica,sans-Serif" font-size="10.00">/github/workspace/dev</text>
<text text-anchor="start" x="823" y="-194" font-family="Helvetica,sans-Serif" font-size="10.00">_area/sourcecode/fdreadoutlibs</text>
<text text-anchor="start" x="823" y="-182.75" font-family="Helvetica,sans-Serif" font-size="10.00">/include/fdreadoutlibs/SSPFrameType</text>
<text text-anchor="middle" x="905.12" y="-171.5" font-family="Helvetica,sans-Serif" font-size="10.00">Adapter.hpp</text>
</a>
</g>
</g>
<!-- Node2 -->
<g id="Node000002" class="node">
<title>Node2</title>
<g id="a_Node000002"><a xlink:href="FragmentHeader_8hpp.html" target="_top" xlink:title=" ">
<polygon fill="white" stroke="#666666" points="716.75,-129.75 539.5,-129.75 539.5,-110.5 716.75,-110.5 716.75,-129.75"/>
<text text-anchor="middle" x="628.12" y="-116.25" font-family="Helvetica,sans-Serif" font-size="10.00">daqdataformats/FragmentHeader.hpp</text>
</a>
</g>
</g>
<!-- Node1&#45;&gt;Node2 -->
<g id="edge1_Node000001_Node000002" class="edge">
<title>Node1&#45;&gt;Node2</title>
<g id="a_edge1_Node000001_Node000002"><a xlink:title=" ">
<path fill="none" stroke="#63b8ff" d="M814.81,-168.39C768.11,-156.56 713.06,-142.63 674.89,-132.96"/>
<polygon fill="#63b8ff" stroke="#63b8ff" points="676.13,-129.67 665.58,-130.61 674.41,-136.45 676.13,-129.67"/>
</a>
</g>
</g>
<!-- Node3 -->
<g id="Node000003" class="node">
<title>Node3</title>
<g id="a_Node000003"><a xlink:href="SourceID_8hpp.html" target="_top" xlink:title=" ">
<polygon fill="white" stroke="#666666" points="422.62,-74.5 277.62,-74.5 277.62,-55.25 422.62,-55.25 422.62,-74.5"/>
<text text-anchor="middle" x="350.12" y="-61" font-family="Helvetica,sans-Serif" font-size="10.00">daqdataformats/SourceID.hpp</text>
</a>
</g>
</g>
<!-- Node1&#45;&gt;Node3 -->
<g id="edge24_Node000001_Node000003" class="edge">
<title>Node1&#45;&gt;Node3</title>
<g id="a_edge24_Node000001_Node000003"><a xlink:title=" ">
<path fill="none" stroke="#63b8ff" d="M814.78,-181.03C738.24,-171.28 625.97,-154.4 530.12,-129.75 477.01,-116.09 417.4,-93.42 381.85,-79.08"/>
<polygon fill="#63b8ff" stroke="#63b8ff" points="383.61,-76.02 373.03,-75.49 380.97,-82.5 383.61,-76.02"/>
</a>
</g>
</g>
<!-- Node6 -->
<g id="Node000006" class="node">
<title>Node6</title>
<g id="a_Node000006"><a xlink:title=" ">
<polygon fill="#e0e0e0" stroke="#999999" points="682.75,-19.25 637.5,-19.25 637.5,0 682.75,0 682.75,-19.25"/>
<text text-anchor="middle" x="660.12" y="-5.75" font-family="Helvetica,sans-Serif" font-size="10.00">cstdint</text>
</a>
</g>
</g>
<!-- Node1&#45;&gt;Node6 -->
<g id="edge27_Node000001_Node000006" class="edge">
<title>Node1&#45;&gt;Node6</title>
<g id="a_edge27_Node000001_Node000006"><a xlink:title=" ">
<path fill="none" stroke="#63b8ff" d="M923.85,-165.32C930.34,-154.81 936.83,-142.22 940.12,-129.75 948.87,-96.72 947.16,-77.38 921.12,-55.25 887.48,-26.65 757.34,-15.85 694.49,-12.23"/>
<polygon fill="#63b8ff" stroke="#63b8ff" points="694.9,-8.75 684.73,-11.7 694.52,-15.74 694.9,-8.75"/>
</a>
</g>
</g>
<!-- Node13 -->
<g id="Node000013" class="node">
<title>Node13</title>
<g id="a_Node000013"><a xlink:title=" ">
<polygon fill="#e0e0e0" stroke="#999999" points="876.62,-19.25 839.62,-19.25 839.62,0 876.62,0 876.62,-19.25"/>
<text text-anchor="middle" x="858.12" y="-5.75" font-family="Helvetica,sans-Serif" font-size="10.00">tuple</text>
</a>
</g>
</g>
<!-- Node1&#45;&gt;Node13 -->
<g id="edge31_Node000001_Node000013" class="edge">
<title>Node1&#45;&gt;Node13</title>
<g id="a_edge31_Node000001_Node000013"><a xlink:title=" ">
<path fill="none" stroke="#63b8ff" d="M944.7,-165.27C956.04,-155.6 966.99,-143.57 973.12,-129.75 986.56,-99.49 991.83,-82.57 973.12,-55.25 954.16,-27.54 915.28,-17.03 888,-13.05"/>
<polygon fill="#63b8ff" stroke="#63b8ff" points="888.61,-9.6 878.26,-11.86 887.76,-16.55 888.61,-9.6"/>
</a>
</g>
</g>
<!-- Node20 -->
<g id="Node000020" class="node">
<title>Node20</title>
<g id="a_Node000020"><a xlink:title=" ">
<polygon fill="#e0e0e0" stroke="#999999" points="849.62,-74.5 806.62,-74.5 806.62,-55.25 849.62,-55.25 849.62,-74.5"/>
<text text-anchor="middle" x="828.12" y="-61" font-family="Helvetica,sans-Serif" font-size="10.00">vector</text>
</a>
</g>
</g>
<!-- Node1&#45;&gt;Node20 -->
<g id="edge29_Node000001_Node000020" class="edge">
<title>Node1&#45;&gt;Node20</title>
<g id="a_edge29_Node000001_Node000020"><a xlink:title=" ">
<path fill="none" stroke="#63b8ff" d="M814.52,-169.86C794.67,-160.81 776.05,-147.96 764.12,-129.75 751.43,-110.36 774.66,-92.1 796.6,-80.1"/>
<polygon fill="#63b8ff" stroke="#63b8ff" points="798.12,-83.25 805.43,-75.59 794.94,-77.02 798.12,-83.25"/>
</a>
</g>
</g>
<!-- Node21 -->
<g id="Node000021" class="node">
<title>Node21</title>
<g id="a_Node000021"><a xlink:href="SSPTypes_8hpp.html" target="_top" xlink:title=" ">
<polygon fill="white" stroke="#666666" points="930.62,-129.75 773.62,-129.75 773.62,-110.5 930.62,-110.5 930.62,-129.75"/>
<text text-anchor="middle" x="852.12" y="-116.25" font-family="Helvetica,sans-Serif" font-size="10.00">fddetdataformats/SSPTypes.hpp</text>
</a>
</g>
</g>
<!-- Node1&#45;&gt;Node21 -->
<g id="edge25_Node000001_Node000021" class="edge">
<title>Node1&#45;&gt;Node21</title>
<g id="a_edge25_Node000001_Node000021"><a xlink:title=" ">
<path fill="none" stroke="#63b8ff" d="M885.69,-165.54C879.13,-156.85 871.94,-147.34 865.9,-139.36"/>
<polygon fill="#63b8ff" stroke="#63b8ff" points="868.75,-137.31 859.92,-131.44 863.16,-141.53 868.75,-137.31"/>
</a>
</g>
</g>
<!-- Node22 -->
<g id="Node000022" class="node">
<title>Node22</title>
<g id="a_Node000022"><a xlink:title=" ">
<polygon fill="#e0e0e0" stroke="#999999" points="1075.38,-129.75 1024.88,-129.75 1024.88,-110.5 1075.38,-110.5 1075.38,-129.75"/>
<text text-anchor="middle" x="1050.12" y="-116.25" font-family="Helvetica,sans-Serif" font-size="10.00">memory</text>
</a>
</g>
</g>
<!-- Node1&#45;&gt;Node22 -->
<g id="edge28_Node000001_Node000022" class="edge">
<title>Node1&#45;&gt;Node22</title>
<g id="a_edge28_Node000001_Node000022"><a xlink:title=" ">
<path fill="none" stroke="#63b8ff" d="M958.71,-165.34C979.82,-155.13 1003.23,-143.8 1021.08,-135.17"/>
<polygon fill="#63b8ff" stroke="#63b8ff" points="1022.56,-138.35 1030.04,-130.84 1019.51,-132.04 1022.56,-138.35"/>
</a>
</g>
</g>
<!-- Node23 -->
<g id="Node000023" class="node">
<title>Node23</title>
<g id="a_Node000023"><a xlink:title=" ">
<polygon fill="#e0e0e0" stroke="#999999" points="1138.75,-129.75 1093.5,-129.75 1093.5,-110.5 1138.75,-110.5 1138.75,-129.75"/>
<text text-anchor="middle" x="1116.12" y="-116.25" font-family="Helvetica,sans-Serif" font-size="10.00">cstring</text>
</a>
</g>
</g>
<!-- Node1&#45;&gt;Node23 -->
<g id="edge30_Node000001_Node000023" class="edge">
<title>Node1&#45;&gt;Node23</title>
<g id="a_edge30_Node000001_Node000023"><a xlink:title=" ">
<path fill="none" stroke="#63b8ff" d="M983.09,-165.34C1017.4,-153.93 1055.89,-141.14 1082.6,-132.27"/>
<polygon fill="#63b8ff" stroke="#63b8ff" points="1083.46,-135.67 1091.85,-129.19 1081.26,-129.03 1083.46,-135.67"/>
</a>
</g>
</g>
<!-- Node2&#45;&gt;Node3 -->
<g id="edge2_Node000002_Node000003" class="edge">
<title>Node2&#45;&gt;Node3</title>
<g id="a_edge2_Node000002_Node000003"><a xlink:title=" ">
<path fill="none" stroke="#63b8ff" d="M580.65,-110.03C533.07,-100.92 459.74,-86.87 408.6,-77.08"/>
<polygon fill="#63b8ff" stroke="#63b8ff" points="409.37,-73.66 398.89,-75.22 408.05,-80.53 409.37,-73.66"/>
</a>
</g>
</g>
<!-- Node5 -->
<g id="Node000005" class="node">
<title>Node5</title>
<g id="a_Node000005"><a xlink:title=" ">
<polygon fill="#e0e0e0" stroke="#999999" points="48.25,-19.25 0,-19.25 0,0 48.25,0 48.25,-19.25"/>
<text text-anchor="middle" x="24.12" y="-5.75" font-family="Helvetica,sans-Serif" font-size="10.00">cstddef</text>
</a>
</g>
</g>
<!-- Node2&#45;&gt;Node5 -->
<g id="edge18_Node000002_Node000005" class="edge">
<title>Node2&#45;&gt;Node5</title>
<g id="a_edge18_Node000002_Node000005"><a xlink:title=" ">
<path fill="none" stroke="#63b8ff" d="M539.21,-111.42C466.04,-104.28 359.82,-92.1 268.12,-74.5 192.84,-60.05 106.42,-35.49 59.29,-21.41"/>
<polygon fill="#63b8ff" stroke="#63b8ff" points="60.5,-18.12 49.92,-18.59 58.48,-24.82 60.5,-18.12"/>
</a>
</g>
</g>
<!-- Node12 -->
<g id="Node000012" class="node">
<title>Node12</title>
<g id="a_Node000012"><a xlink:title=" ">
<polygon fill="#e0e0e0" stroke="#999999" points="619.12,-19.25 579.12,-19.25 579.12,0 619.12,0 619.12,-19.25"/>
<text text-anchor="middle" x="599.12" y="-5.75" font-family="Helvetica,sans-Serif" font-size="10.00">string</text>
</a>
</g>
</g>
<!-- Node2&#45;&gt;Node12 -->
<g id="edge22_Node000002_Node000012" class="edge">
<title>Node2&#45;&gt;Node12</title>
<g id="a_edge22_Node000002_Node000012"><a xlink:title=" ">
<path fill="none" stroke="#63b8ff" d="M625.75,-110.25C621.12,-92.92 610.78,-54.23 604.43,-30.49"/>
<polygon fill="#63b8ff" stroke="#63b8ff" points="607.89,-29.85 601.92,-21.09 601.12,-31.65 607.89,-29.85"/>
</a>
</g>
</g>
<!-- Node15 -->
<g id="Node000015" class="node">
<title>Node15</title>
<g id="a_Node000015"><a xlink:href="daqdataformats_2include_2daqdataformats_2Types_8hpp.html" target="_top" xlink:title=" ">
<polygon fill="white" stroke="#666666" points="571.5,-74.5 440.75,-74.5 440.75,-55.25 571.5,-55.25 571.5,-74.5"/>
<text text-anchor="middle" x="506.12" y="-61" font-family="Helvetica,sans-Serif" font-size="10.00">daqdataformats/Types.hpp</text>
</a>
</g>
</g>
<!-- Node2&#45;&gt;Node15 -->
<g id="edge14_Node000002_Node000015" class="edge">
<title>Node2&#45;&gt;Node15</title>
<g id="a_edge14_Node000002_Node000015"><a xlink:title=" ">
<path fill="none" stroke="#63b8ff" d="M607.43,-110.09C588.24,-101.72 559.41,-89.13 537.41,-79.53"/>
<polygon fill="#63b8ff" stroke="#63b8ff" points="538.87,-76.35 528.31,-75.56 536.07,-82.77 538.87,-76.35"/>
</a>
</g>
</g>
<!-- Node16 -->
<g id="Node000016" class="node">
<title>Node16</title>
<g id="a_Node000016"><a xlink:title=" ">
<polygon fill="#e0e0e0" stroke="#999999" points="667.12,-74.5 627.12,-74.5 627.12,-55.25 667.12,-55.25 667.12,-74.5"/>
<text text-anchor="middle" x="647.12" y="-61" font-family="Helvetica,sans-Serif" font-size="10.00">bitset</text>
</a>
</g>
</g>
<!-- Node2&#45;&gt;Node16 -->
<g id="edge17_Node000002_Node000016" class="edge">
<title>Node2&#45;&gt;Node16</title>
<g id="a_edge17_Node000002_Node000016"><a xlink:title=" ">
<path fill="none" stroke="#63b8ff" d="M631.26,-110.33C633.67,-103.59 637.08,-94.02 640.13,-85.49"/>
<polygon fill="#63b8ff" stroke="#63b8ff" points="643.35,-86.88 643.41,-76.28 636.75,-84.53 643.35,-86.88"/>
</a>
</g>
</g>
<!-- Node17 -->
<g id="Node000017" class="node">
<title>Node17</title>
<g id="a_Node000017"><a xlink:title=" ">
<polygon fill="#e0e0e0" stroke="#999999" points="912.38,-74.5 867.88,-74.5 867.88,-55.25 912.38,-55.25 912.38,-74.5"/>
<text text-anchor="middle" x="890.12" y="-61" font-family="Helvetica,sans-Serif" font-size="10.00">cstdlib</text>
</a>
</g>
</g>
<!-- Node2&#45;&gt;Node17 -->
<g id="edge19_Node000002_Node000017" class="edge">
<title>Node2&#45;&gt;Node17</title>
<g id="a_edge19_Node000002_Node000017"><a xlink:title=" ">
<path fill="none" stroke="#63b8ff" d="M681.6,-110.06C726.11,-102.22 791.36,-90.09 856.6,-74.95"/>
<polygon fill="#63b8ff" stroke="#63b8ff" points="857.08,-78.44 866.02,-72.74 855.48,-71.62 857.08,-78.44"/>
</a>
</g>
</g>
<!-- Node18 -->
<g id="Node000018" class="node">
<title>Node18</title>
<g id="a_Node000018"><a xlink:title=" ">
<polygon fill="#e0e0e0" stroke="#999999" points="719.5,-74.5 684.75,-74.5 684.75,-55.25 719.5,-55.25 719.5,-74.5"/>
<text text-anchor="middle" x="702.12" y="-61" font-family="Helvetica,sans-Serif" font-size="10.00">map</text>
</a>
</g>
</g>
<!-- Node2&#45;&gt;Node18 -->
<g id="edge20_Node000002_Node000018" class="edge">
<title>Node2&#45;&gt;Node18</title>
<g id="a_edge20_Node000002_Node000018"><a xlink:title=" ">
<path fill="none" stroke="#63b8ff" d="M640.68,-110.09C651.59,-102.24 667.63,-90.7 680.59,-81.37"/>
<polygon fill="#63b8ff" stroke="#63b8ff" points="682.46,-84.34 688.53,-75.66 678.37,-78.66 682.46,-84.34"/>
</a>
</g>
</g>
<!-- Node19 -->
<g id="Node000019" class="node">
<title>Node19</title>
<g id="a_Node000019"><a xlink:title=" ">
<polygon fill="#e0e0e0" stroke="#999999" points="788.38,-74.5 737.88,-74.5 737.88,-55.25 788.38,-55.25 788.38,-74.5"/>
<text text-anchor="middle" x="763.12" y="-61" font-family="Helvetica,sans-Serif" font-size="10.00">numeric</text>
</a>
</g>
</g>
<!-- Node2&#45;&gt;Node19 -->
<g id="edge21_Node000002_Node000019" class="edge">
<title>Node2&#45;&gt;Node19</title>
<g id="a_edge21_Node000002_Node000019"><a xlink:title=" ">
<path fill="none" stroke="#63b8ff" d="M651.03,-110.09C672.55,-101.6 705.04,-88.79 729.5,-79.14"/>
<polygon fill="#63b8ff" stroke="#63b8ff" points="730.69,-82.43 738.7,-75.51 728.12,-75.92 730.69,-82.43"/>
</a>
</g>
</g>
<!-- Node2&#45;&gt;Node20 -->
<g id="edge23_Node000002_Node000020" class="edge">
<title>Node2&#45;&gt;Node20</title>
<g id="a_edge23_Node000002_Node000020"><a xlink:title=" ">
<path fill="none" stroke="#63b8ff" d="M663.12,-110.03C695.05,-101.7 743.82,-88.89 795.41,-74.94"/>
<polygon fill="#63b8ff" stroke="#63b8ff" points="796.26,-78.33 804.99,-72.34 794.43,-71.58 796.26,-78.33"/>
</a>
</g>
</g>
<!-- Node4 -->
<g id="Node000004" class="node">
<title>Node4</title>
<g id="a_Node000004"><a xlink:title=" ">
<polygon fill="#e0e0e0" stroke="#999999" points="114.25,-19.25 66,-19.25 66,0 114.25,0 114.25,-19.25"/>
<text text-anchor="middle" x="90.12" y="-5.75" font-family="Helvetica,sans-Serif" font-size="10.00">cassert</text>
</a>
</g>
</g>
<!-- Node3&#45;&gt;Node4 -->
<g id="edge3_Node000003_Node000004" class="edge">
<title>Node3&#45;&gt;Node4</title>
<g id="a_edge3_Node000003_Node000004"><a xlink:title=" ">
<path fill="none" stroke="#63b8ff" d="M299,-54.75C255.3,-46.75 190.5,-34.39 125.45,-19.68"/>
<polygon fill="#63b8ff" stroke="#63b8ff" points="126.6,-16.35 116.07,-17.54 125.04,-23.17 126.6,-16.35"/>
</a>
</g>
</g>
<!-- Node3&#45;&gt;Node5 -->
<g id="edge4_Node000003_Node000005" class="edge">
<title>Node3&#45;&gt;Node5</title>
<g id="a_edge4_Node000003_Node000005"><a xlink:title=" ">
<path fill="none" stroke="#63b8ff" d="M277.2,-54.92C220.37,-47.45 139.26,-35.72 59.77,-19.62"/>
<polygon fill="#63b8ff" stroke="#63b8ff" points="60.55,-16.2 50.05,-17.62 59.14,-23.06 60.55,-16.2"/>
</a>
</g>
</g>
<!-- Node3&#45;&gt;Node6 -->
<g id="edge5_Node000003_Node000006" class="edge">
<title>Node3&#45;&gt;Node6</title>
<g id="a_edge5_Node000003_Node000006"><a xlink:title=" ">
<path fill="none" stroke="#63b8ff" d="M419.62,-54.77C473.43,-47.25 550.04,-35.53 625.93,-19.52"/>
<polygon fill="#63b8ff" stroke="#63b8ff" points="626.6,-22.96 635.64,-17.45 625.13,-16.12 626.6,-22.96"/>
</a>
</g>
</g>
<!-- Node7 -->
<g id="Node000007" class="node">
<title>Node7</title>
<g id="a_Node000007"><a xlink:title=" ">
<polygon fill="#e0e0e0" stroke="#999999" points="182,-19.25 132.25,-19.25 132.25,0 182,0 182,-19.25"/>
<text text-anchor="middle" x="157.12" y="-5.75" font-family="Helvetica,sans-Serif" font-size="10.00">iomanip</text>
</a>
</g>
</g>
<!-- Node3&#45;&gt;Node7 -->
<g id="edge6_Node000003_Node000007" class="edge">
<title>Node3&#45;&gt;Node7</title>
<g id="a_edge6_Node000003_Node000007"><a xlink:title=" ">
<path fill="none" stroke="#63b8ff" d="M317.39,-54.84C282.93,-45.34 228.86,-30.42 193.2,-20.58"/>
<polygon fill="#63b8ff" stroke="#63b8ff" points="194.35,-17.27 183.78,-17.98 192.49,-24.01 194.35,-17.27"/>
</a>
</g>
</g>
<!-- Node8 -->
<g id="Node000008" class="node">
<title>Node8</title>
<g id="a_Node000008"><a xlink:title=" ">
<polygon fill="#e0e0e0" stroke="#999999" points="248.25,-19.25 200,-19.25 200,0 248.25,0 248.25,-19.25"/>
<text text-anchor="middle" x="224.12" y="-5.75" font-family="Helvetica,sans-Serif" font-size="10.00">istream</text>
</a>
</g>
</g>
<!-- Node3&#45;&gt;Node8 -->
<g id="edge7_Node000003_Node000008" class="edge">
<title>Node3&#45;&gt;Node8</title>
<g id="a_edge7_Node000003_Node000008"><a xlink:title=" ">
<path fill="none" stroke="#63b8ff" d="M328.75,-54.84C308.84,-46.43 278.89,-33.77 256.12,-24.15"/>
<polygon fill="#63b8ff" stroke="#63b8ff" points="257.57,-20.96 247,-20.29 254.85,-27.41 257.57,-20.96"/>
</a>
</g>
</g>
<!-- Node9 -->
<g id="Node000009" class="node">
<title>Node9</title>
<g id="a_Node000009"><a xlink:title=" ">
<polygon fill="#e0e0e0" stroke="#999999" points="560.75,-19.25 521.5,-19.25 521.5,0 560.75,0 560.75,-19.25"/>
<text text-anchor="middle" x="541.12" y="-5.75" font-family="Helvetica,sans-Serif" font-size="10.00">limits</text>
</a>
</g>
</g>
<!-- Node3&#45;&gt;Node9 -->
<g id="edge8_Node000003_Node000009" class="edge">
<title>Node3&#45;&gt;Node9</title>
<g id="a_edge8_Node000003_Node000009"><a xlink:title=" ">
<path fill="none" stroke="#63b8ff" d="M384.56,-54.79C415.28,-46.6 461.77,-34.04 510.24,-20.03"/>
<polygon fill="#63b8ff" stroke="#63b8ff" points="511.18,-23.4 519.81,-17.25 509.23,-16.68 511.18,-23.4"/>
</a>
</g>
</g>
<!-- Node10 -->
<g id="Node000010" class="node">
<title>Node10</title>
<g id="a_Node000010"><a xlink:title=" ">
<polygon fill="#e0e0e0" stroke="#999999" points="317.75,-19.25 266.5,-19.25 266.5,0 317.75,0 317.75,-19.25"/>
<text text-anchor="middle" x="292.12" y="-5.75" font-family="Helvetica,sans-Serif" font-size="10.00">ostream</text>
</a>
</g>
</g>
<!-- Node3&#45;&gt;Node10 -->
<g id="edge9_Node000003_Node000010" class="edge">
<title>Node3&#45;&gt;Node10</title>
<g id="a_edge9_Node000003_Node000010"><a xlink:title=" ">
<path fill="none" stroke="#63b8ff" d="M340.29,-54.84C332.07,-47.3 320.14,-36.35 310.21,-27.23"/>
<polygon fill="#63b8ff" stroke="#63b8ff" points="312.67,-24.73 302.93,-20.55 307.93,-29.89 312.67,-24.73"/>
</a>
</g>
</g>
<!-- Node11 -->
<g id="Node000011" class="node">
<title>Node11</title>
<g id="a_Node000011"><a xlink:title=" ">
<polygon fill="#e0e0e0" stroke="#999999" points="386.75,-19.25 335.5,-19.25 335.5,0 386.75,0 386.75,-19.25"/>
<text text-anchor="middle" x="361.12" y="-5.75" font-family="Helvetica,sans-Serif" font-size="10.00">sstream</text>
</a>
</g>
</g>
<!-- Node3&#45;&gt;Node11 -->
<g id="edge10_Node000003_Node000011" class="edge">
<title>Node3&#45;&gt;Node11</title>
<g id="a_edge10_Node000003_Node000011"><a xlink:title=" ">
<path fill="none" stroke="#63b8ff" d="M351.94,-55.08C353.3,-48.49 355.22,-39.21 356.95,-30.82"/>
<polygon fill="#63b8ff" stroke="#63b8ff" points="360.37,-31.59 358.96,-21.09 353.51,-30.18 360.37,-31.59"/>
</a>
</g>
</g>
<!-- Node3&#45;&gt;Node12 -->
<g id="edge11_Node000003_Node000012" class="edge">
<title>Node3&#45;&gt;Node12</title>
<g id="a_edge11_Node000003_Node000012"><a xlink:title=" ">
<path fill="none" stroke="#63b8ff" d="M401.54,-54.79C443.86,-47 505.63,-34.96 568.07,-19.59"/>
<polygon fill="#63b8ff" stroke="#63b8ff" points="568.58,-23.07 577.44,-17.25 566.89,-16.28 568.58,-23.07"/>
</a>
</g>
</g>
<!-- Node3&#45;&gt;Node13 -->
<g id="edge12_Node000003_Node000013" class="edge">
<title>Node3&#45;&gt;Node13</title>
<g id="a_edge12_Node000003_Node000013"><a xlink:title=" ">
<path fill="none" stroke="#63b8ff" d="M423,-56.21C426.08,-55.88 429.14,-55.56 432.12,-55.25 580.73,-39.65 758.5,-21.05 828.1,-13.77"/>
<polygon fill="#63b8ff" stroke="#63b8ff" points="828.35,-17.26 837.93,-12.74 827.62,-10.3 828.35,-17.26"/>
</a>
</g>
</g>
<!-- Node14 -->
<g id="Node000014" class="node">
<title>Node14</title>
<g id="a_Node000014"><a xlink:href="SourceID_8hxx.html" target="_top" xlink:title=" ">
<polygon fill="white" stroke="#666666" points="503.75,-19.25 404.5,-19.25 404.5,0 503.75,0 503.75,-19.25"/>
<text text-anchor="middle" x="454.12" y="-5.75" font-family="Helvetica,sans-Serif" font-size="10.00">detail/SourceID.hxx</text>
</a>
</g>
</g>
<!-- Node3&#45;&gt;Node14 -->
<g id="edge13_Node000003_Node000014" class="edge">
<title>Node3&#45;&gt;Node14</title>
<g id="a_edge13_Node000003_Node000014"><a xlink:title=" ">
<path fill="none" stroke="#63b8ff" d="M367.77,-54.84C383.75,-46.66 407.58,-34.46 426.16,-24.94"/>
<polygon fill="#63b8ff" stroke="#63b8ff" points="427.74,-28.07 435.05,-20.39 424.55,-21.83 427.74,-28.07"/>
</a>
</g>
</g>
<!-- Node15&#45;&gt;Node6 -->
<g id="edge15_Node000015_Node000006" class="edge">
<title>Node15&#45;&gt;Node6</title>
<g id="a_edge15_Node000015_Node000006"><a xlink:title=" ">
<path fill="none" stroke="#63b8ff" d="M532.25,-54.84C558.31,-45.83 598.44,-31.95 626.79,-22.15"/>
<polygon fill="#63b8ff" stroke="#63b8ff" points="627.65,-25.56 635.96,-18.98 625.37,-18.94 627.65,-25.56"/>
</a>
</g>
</g>
<!-- Node15&#45;&gt;Node9 -->
<g id="edge16_Node000015_Node000009" class="edge">
<title>Node15&#45;&gt;Node9</title>
<g id="a_edge16_Node000015_Node000009"><a xlink:title=" ">
<path fill="none" stroke="#63b8ff" d="M511.9,-55.08C516.54,-48.03 523.2,-37.9 528.99,-29.08"/>
<polygon fill="#63b8ff" stroke="#63b8ff" points="531.82,-31.15 534.39,-20.87 525.97,-27.31 531.82,-31.15"/>
</a>
</g>
</g>
<!-- Node21&#45;&gt;Node17 -->
<g id="edge26_Node000021_Node000017" class="edge">
<title>Node21&#45;&gt;Node17</title>
<g id="a_edge26_Node000021_Node000017"><a xlink:title=" ">
<path fill="none" stroke="#63b8ff" d="M858.4,-110.33C863.48,-103.21 870.82,-92.93 877.16,-84.05"/>
<polygon fill="#63b8ff" stroke="#63b8ff" points="879.87,-86.26 882.83,-76.09 874.18,-82.2 879.87,-86.26"/>
</a>
</g>
</g>
</g>
</svg>
