<?xml version="1.0" encoding="UTF-8" standalone="no"?>
<!DOCTYPE svg PUBLIC "-//W3C//DTD SVG 1.1//EN"
 "http://www.w3.org/Graphics/SVG/1.1/DTD/svg11.dtd">
<!-- Generated by graphviz version 9.0.0 (20230911.1827)
 -->
<!-- Title: /github/workspace/dev_area/sourcecode/fddetdataformats/include/fddetdataformats/SSPTypes.hpp Pages: 1 -->
<svg width="421pt" height="306pt"
 viewBox="0.00 0.00 420.75 305.50" xmlns="http://www.w3.org/2000/svg" xmlns:xlink="http://www.w3.org/1999/xlink">
<g id="graph0" class="graph" transform="scale(1 1) rotate(0) translate(4 301.5)">
<title>/github/workspace/dev_area/sourcecode/fddetdataformats/include/fddetdataformats/SSPTypes.hpp</title>
<!-- Node1 -->
<g id="Node000001" class="node">
<title>Node1</title>
<g id="a_Node000001"><a xlink:title=" ">
<polygon fill="#999999" stroke="#666666" points="374.75,-297.5 181,-297.5 181,-255.75 374.75,-255.75 374.75,-297.5"/>
<text text-anchor="start" x="189" y="-284" font-family="Helvetica,sans-Serif" font-size="10.00">/github/workspace/dev</text>
<text text-anchor="start" x="189" y="-272.75" font-family="Helvetica,sans-Serif" font-size="10.00">_area/sourcecode/fddetdataformats</text>
<text text-anchor="middle" x="277.88" y="-261.5" font-family="Helvetica,sans-Serif" font-size="10.00">/include/fddetdataformats/SSPTypes.hpp</text>
</a>
</g>
</g>
<!-- Node2 -->
<g id="Node000002" class="node">
<title>Node2</title>
<g id="a_Node000002"><a xlink:href="ssp_8cpp.html" target="_top" xlink:title=" ">
<polygon fill="white" stroke="#666666" points="169.75,-214.12 0,-214.12 0,-172.38 169.75,-172.38 169.75,-214.12"/>
<text text-anchor="start" x="8" y="-200.62" font-family="Helvetica,sans-Serif" font-size="10.00">/github/workspace/dev</text>
<text text-anchor="start" x="8" y="-189.38" font-family="Helvetica,sans-Serif" font-size="10.00">_area/sourcecode/fddetdataformats</text>
<text text-anchor="middle" x="84.88" y="-178.12" font-family="Helvetica,sans-Serif" font-size="10.00">/pybindsrc/ssp.cpp</text>
</a>
</g>
</g>
<!-- Node1&#45;&gt;Node2 -->
<g id="edge1_Node000001_Node000002" class="edge">
<title>Node1&#45;&gt;Node2</title>
<g id="a_edge1_Node000001_Node000002"><a xlink:title=" ">
<path fill="none" stroke="#63b8ff" d="M219.37,-250.96C191.79,-239.33 159.28,-225.62 133.13,-214.6"/>
<polygon fill="#63b8ff" stroke="#63b8ff" points="217.7,-254.05 228.28,-254.71 220.42,-247.6 217.7,-254.05"/>
</a>
</g>
</g>
<!-- Node3 -->
<g id="Node000003" class="node">
<title>Node3</title>
<g id="a_Node000003"><a xlink:href="SSPFrameTypeAdapter_8hpp.html" target="_top" xlink:title=" ">
<polygon fill="white" stroke="#666666" points="368,-219.75 187.75,-219.75 187.75,-166.75 368,-166.75 368,-219.75"/>
<text text-anchor="start" x="195.75" y="-206.25" font-family="Helvetica,sans-Serif" font-size="10.00">/github/workspace/dev</text>
<text text-anchor="start" x="195.75" y="-195" font-family="Helvetica,sans-Serif" font-size="10.00">_area/sourcecode/fdreadoutlibs</text>
<text text-anchor="start" x="195.75" y="-183.75" font-family="Helvetica,sans-Serif" font-size="10.00">/include/fdreadoutlibs/SSPFrameType</text>
<text text-anchor="middle" x="277.88" y="-172.5" font-family="Helvetica,sans-Serif" font-size="10.00">Adapter.hpp</text>
</a>
</g>
</g>
<!-- Node1&#45;&gt;Node3 -->
<g id="edge2_Node000001_Node000003" class="edge">
<title>Node1&#45;&gt;Node3</title>
<g id="a_edge2_Node000001_Node000003"><a xlink:title=" ">
<path fill="none" stroke="#63b8ff" d="M277.88,-244.27C277.88,-236.24 277.88,-227.69 277.88,-219.98"/>
<polygon fill="#63b8ff" stroke="#63b8ff" points="274.38,-244 277.88,-254 281.38,-244 274.38,-244"/>
</a>
</g>
</g>
<!-- Node4 -->
<g id="Node000004" class="node">
<title>Node4</title>
<g id="a_Node000004"><a xlink:href="SSPFrameProcessor_8hpp.html" target="_top" xlink:title=" ">
<polygon fill="white" stroke="#666666" points="412.75,-130.75 261,-130.75 261,-77.75 412.75,-77.75 412.75,-130.75"/>
<text text-anchor="start" x="269" y="-117.25" font-family="Helvetica,sans-Serif" font-size="10.00">/github/workspace/dev</text>
<text text-anchor="start" x="269" y="-106" font-family="Helvetica,sans-Serif" font-size="10.00">_area/sourcecode/fdreadoutlibs</text>
<text text-anchor="start" x="269" y="-94.75" font-family="Helvetica,sans-Serif" font-size="10.00">/include/fdreadoutlibs/ssp</text>
<text text-anchor="middle" x="336.88" y="-83.5" font-family="Helvetica,sans-Serif" font-size="10.00">/SSPFrameProcessor.hpp</text>
</a>
</g>
</g>
<!-- Node1&#45;&gt;Node4 -->
<g id="edge5_Node000001_Node000004" class="edge">
<title>Node1&#45;&gt;Node4</title>
<g id="a_edge5_Node000001_Node000004"><a xlink:title=" ">
<path fill="none" stroke="#63b8ff" d="M346.58,-249.61C358.68,-241.86 369.69,-232.06 376.88,-219.75 393.44,-191.38 374.96,-155.07 358,-131.03"/>
<polygon fill="#63b8ff" stroke="#63b8ff" points="344.87,-246.55 338,-254.62 348.4,-252.6 344.87,-246.55"/>
</a>
</g>
</g>
<!-- Node3&#45;&gt;Node4 -->
<g id="edge3_Node000003_Node000004" class="edge">
<title>Node3&#45;&gt;Node4</title>
<g id="a_edge3_Node000003_Node000004"><a xlink:title=" ">
<path fill="none" stroke="#63b8ff" d="M301.55,-157.34C307.52,-148.54 313.81,-139.25 319.41,-131"/>
<polygon fill="#63b8ff" stroke="#63b8ff" points="298.82,-155.12 296.11,-165.37 304.62,-159.05 298.82,-155.12"/>
</a>
</g>
</g>
<!-- Node5 -->
<g id="Node000005" class="node">
<title>Node5</title>
<g id="a_Node000005"><a xlink:href="FDReadoutlibs_8cpp.html" target="_top" xlink:title=" ">
<polygon fill="white" stroke="#666666" points="412.75,-41.75 261,-41.75 261,0 412.75,0 412.75,-41.75"/>
<text text-anchor="start" x="269" y="-28.25" font-family="Helvetica,sans-Serif" font-size="10.00">/github/workspace/dev</text>
<text text-anchor="start" x="269" y="-17" font-family="Helvetica,sans-Serif" font-size="10.00">_area/sourcecode/fdreadoutlibs</text>
<text text-anchor="middle" x="336.88" y="-5.75" font-family="Helvetica,sans-Serif" font-size="10.00">/src/FDReadoutlibs.cpp</text>
</a>
</g>
</g>
<!-- Node4&#45;&gt;Node5 -->
<g id="edge4_Node000004_Node000005" class="edge">
<title>Node4&#45;&gt;Node5</title>
<g id="a_edge4_Node000004_Node000005"><a xlink:title=" ">
<path fill="none" stroke="#63b8ff" d="M336.88,-66.08C336.88,-57.8 336.88,-49.33 336.88,-42.04"/>
<polygon fill="#63b8ff" stroke="#63b8ff" points="333.38,-65.99 336.88,-75.99 340.38,-65.99 333.38,-65.99"/>
</a>
</g>
</g>
</g>
</svg>
