<?xml version="1.0" encoding="UTF-8" standalone="no"?>
<!DOCTYPE svg PUBLIC "-//W3C//DTD SVG 1.1//EN"
 "http://www.w3.org/Graphics/SVG/1.1/DTD/svg11.dtd">
<!-- Generated by graphviz version 9.0.0 (20230911.1827)
 -->
<!-- Title: dunedaq::dfmodules::hdf5datastore::ConfParams Pages: 1 -->
<svg width="441pt" height="98pt"
 viewBox="0.00 0.00 441.25 98.12" xmlns="http://www.w3.org/2000/svg" xmlns:xlink="http://www.w3.org/1999/xlink">
<g id="graph0" class="graph" transform="scale(1 1) rotate(0) translate(4 94.12)">
<title>dunedaq::dfmodules::hdf5datastore::ConfParams</title>
<!-- Node1 -->
<g id="Node000001" class="node">
<title>Node1</title>
<g id="a_Node000001"><a xlink:title=" ">
<polygon fill="#999999" stroke="#666666" points="433.25,-63.12 295,-63.12 295,-32.62 433.25,-32.62 433.25,-63.12"/>
<text text-anchor="start" x="303" y="-49.62" font-family="Helvetica,sans-Serif" font-size="10.00">dunedaq::dfmodules</text>
<text text-anchor="middle" x="364.12" y="-38.38" font-family="Helvetica,sans-Serif" font-size="10.00">::hdf5datastore::ConfParams</text>
</a>
</g>
</g>
<!-- Node2 -->
<g id="Node000002" class="node">
<title>Node2</title>
<g id="a_Node000002"><a xlink:href="structdunedaq_1_1dfmodules_1_1hdf5datastore_1_1FileNameParams.html" target="_top" xlink:title=" ">
<polygon fill="white" stroke="#666666" points="160,-90.12 0,-90.12 0,-59.62 160,-59.62 160,-90.12"/>
<text text-anchor="start" x="8" y="-76.62" font-family="Helvetica,sans-Serif" font-size="10.00">dunedaq::dfmodules</text>
<text text-anchor="middle" x="80" y="-65.38" font-family="Helvetica,sans-Serif" font-size="10.00">::hdf5datastore::FileNameParams</text>
</a>
</g>
</g>
<!-- Node2&#45;&gt;Node1 -->
<g id="edge1_Node000001_Node000002" class="edge">
<title>Node2&#45;&gt;Node1</title>
<g id="a_edge1_Node000001_Node000002"><a xlink:title=" ">
<path fill="none" stroke="#9a32cd" stroke-dasharray="5,2" d="M171.71,-66.19C211.7,-62.37 257.91,-57.94 294.9,-54.4"/>
<polygon fill="#9a32cd" stroke="#9a32cd" points="171.47,-62.7 161.84,-67.14 172.13,-69.67 171.47,-62.7"/>
</a>
</g>
<text text-anchor="middle" x="227.5" y="-66.62" font-family="Helvetica,sans-Serif" font-size="10.00" fill="grey"> filename_parameters</text>
</g>
<!-- Node3 -->
<g id="Node000003" class="node">
<title>Node3</title>
<g id="a_Node000003"><a xlink:href="structdunedaq_1_1hdf5libs_1_1hdf5filelayout_1_1FileLayoutParams.html" target="_top" xlink:title=" ">
<polygon fill="white" stroke="#666666" points="140.88,-41.75 19.12,-41.75 19.12,0 140.88,0 140.88,-41.75"/>
<text text-anchor="start" x="27.12" y="-28.25" font-family="Helvetica,sans-Serif" font-size="10.00">dunedaq::hdf5libs::</text>
<text text-anchor="start" x="27.12" y="-17" font-family="Helvetica,sans-Serif" font-size="10.00">hdf5filelayout::FileLayout</text>
<text text-anchor="middle" x="80" y="-5.75" font-family="Helvetica,sans-Serif" font-size="10.00">Params</text>
</a>
</g>
</g>
<!-- Node3&#45;&gt;Node1 -->
<g id="edge2_Node000001_Node000003" class="edge">
<title>Node3&#45;&gt;Node1</title>
<g id="a_edge2_Node000001_Node000003"><a xlink:title=" ">
<path fill="none" stroke="#9a32cd" stroke-dasharray="5,2" d="M152.57,-27.72C196.17,-31.9 251.58,-37.2 294.61,-41.32"/>
<polygon fill="#9a32cd" stroke="#9a32cd" points="152.97,-24.25 142.68,-26.78 152.3,-31.22 152.97,-24.25"/>
</a>
</g>
<text text-anchor="middle" x="227.5" y="-40.62" font-family="Helvetica,sans-Serif" font-size="10.00" fill="grey"> file_layout_parameters</text>
</g>
</g>
</svg>
