<?xml version="1.0" encoding="UTF-8" standalone="no"?>
<!DOCTYPE svg PUBLIC "-//W3C//DTD SVG 1.1//EN"
 "http://www.w3.org/Graphics/SVG/1.1/DTD/svg11.dtd">
<!-- Generated by graphviz version 9.0.0 (20230911.1827)
 -->
<!-- Title: /github/workspace/dev_area/sourcecode/ipm/include/ipm/Subscriber.hpp Pages: 1 -->
<svg width="1911pt" height="404pt"
 viewBox="0.00 0.00 1910.96 403.75" xmlns="http://www.w3.org/2000/svg" xmlns:xlink="http://www.w3.org/1999/xlink">
<g id="graph0" class="graph" transform="scale(1 1) rotate(0) translate(4 399.75)">
<title>/github/workspace/dev_area/sourcecode/ipm/include/ipm/Subscriber.hpp</title>
<!-- Node1 -->
<g id="Node000001" class="node">
<title>Node1</title>
<g id="a_Node000001"><a xlink:title=" ">
<polygon fill="#999999" stroke="#666666" points="1391.76,-395.75 1255.76,-395.75 1255.76,-354 1391.76,-354 1391.76,-395.75"/>
<text text-anchor="start" x="1263.76" y="-382.25" font-family="Helvetica,sans-Serif" font-size="10.00">/github/workspace/dev</text>
<text text-anchor="start" x="1263.76" y="-371" font-family="Helvetica,sans-Serif" font-size="10.00">_area/sourcecode/ipm</text>
<text text-anchor="middle" x="1323.76" y="-359.75" font-family="Helvetica,sans-Serif" font-size="10.00">/include/ipm/Subscriber.hpp</text>
</a>
</g>
</g>
<!-- Node2 -->
<g id="Node000002" class="node">
<title>Node2</title>
<g id="a_Node000002"><a xlink:href="ipm_2include_2ipm_2Receiver_8hpp.html" target="_top" xlink:title=" ">
<polygon fill="white" stroke="#666666" points="1413.26,-318 1322.26,-318 1322.26,-298.75 1413.26,-298.75 1413.26,-318"/>
<text text-anchor="middle" x="1367.76" y="-304.5" font-family="Helvetica,sans-Serif" font-size="10.00">ipm/Receiver.hpp</text>
</a>
</g>
</g>
<!-- Node1&#45;&gt;Node2 -->
<g id="edge1_Node000001_Node000002" class="edge">
<title>Node1&#45;&gt;Node2</title>
<g id="a_edge1_Node000001_Node000002"><a xlink:title=" ">
<path fill="none" stroke="#63b8ff" d="M1337.44,-353.82C1343.11,-345.5 1349.66,-335.91 1355.21,-327.77"/>
<polygon fill="#63b8ff" stroke="#63b8ff" points="1357.97,-329.93 1360.72,-319.7 1352.19,-325.98 1357.97,-329.93"/>
</a>
</g>
</g>
<!-- Node3 -->
<g id="Node000003" class="node">
<title>Node3</title>
<g id="a_Node000003"><a xlink:title=" ">
<polygon fill="#e0e0e0" stroke="#999999" points="943.63,-262.75 809.88,-262.75 809.88,-243.5 943.63,-243.5 943.63,-262.75"/>
<text text-anchor="middle" x="876.76" y="-249.25" font-family="Helvetica,sans-Serif" font-size="10.00">cetlib/BasicPluginFactory.h</text>
</a>
</g>
</g>
<!-- Node1&#45;&gt;Node3 -->
<g id="edge51_Node000001_Node000003" class="edge">
<title>Node1&#45;&gt;Node3</title>
<g id="a_edge51_Node000001_Node000003"><a xlink:title=" ">
<path fill="none" stroke="#63b8ff" d="M1255.38,-355.56C1162.84,-330.77 1000.28,-287.22 921.75,-266.18"/>
<polygon fill="#63b8ff" stroke="#63b8ff" points="922.81,-262.84 912.25,-263.63 921,-269.6 922.81,-262.84"/>
</a>
</g>
</g>
<!-- Node4 -->
<g id="Node000004" class="node">
<title>Node4</title>
<g id="a_Node000004"><a xlink:title=" ">
<polygon fill="#e0e0e0" stroke="#999999" points="1085.76,-262.75 961.76,-262.75 961.76,-243.5 1085.76,-243.5 1085.76,-262.75"/>
<text text-anchor="middle" x="1023.76" y="-249.25" font-family="Helvetica,sans-Serif" font-size="10.00">cetlib/compiler_macros.h</text>
</a>
</g>
</g>
<!-- Node1&#45;&gt;Node4 -->
<g id="edge52_Node000001_Node000004" class="edge">
<title>Node1&#45;&gt;Node4</title>
<g id="a_edge52_Node000001_Node000004"><a xlink:title=" ">
<path fill="none" stroke="#63b8ff" d="M1272.87,-353.56C1211.22,-328.95 1109.15,-288.21 1056.86,-267.34"/>
<polygon fill="#63b8ff" stroke="#63b8ff" points="1058.48,-264.22 1047.9,-263.76 1055.89,-270.72 1058.48,-264.22"/>
</a>
</g>
</g>
<!-- Node5 -->
<g id="Node000005" class="node">
<title>Node5</title>
<g id="a_Node000005"><a xlink:href="Issue_8hpp.html" target="_top" xlink:title=" ">
<polygon fill="white" stroke="#666666" points="1178.01,-262.75 1103.51,-262.75 1103.51,-243.5 1178.01,-243.5 1178.01,-262.75"/>
<text text-anchor="middle" x="1140.76" y="-249.25" font-family="Helvetica,sans-Serif" font-size="10.00">ers/Issue.hpp</text>
</a>
</g>
</g>
<!-- Node1&#45;&gt;Node5 -->
<g id="edge53_Node000001_Node000005" class="edge">
<title>Node1&#45;&gt;Node5</title>
<g id="a_edge53_Node000001_Node000005"><a xlink:title=" ">
<path fill="none" stroke="#63b8ff" d="M1292.71,-353.56C1256.28,-329.72 1196.68,-290.72 1164.01,-269.34"/>
<polygon fill="#63b8ff" stroke="#63b8ff" points="1165.95,-266.43 1155.67,-263.88 1162.12,-272.29 1165.95,-266.43"/>
</a>
</g>
</g>
<!-- Node10 -->
<g id="Node000010" class="node">
<title>Node10</title>
<g id="a_Node000010"><a xlink:title=" ">
<polygon fill="#e0e0e0" stroke="#999999" points="1220.76,-74.5 1180.76,-74.5 1180.76,-55.25 1220.76,-55.25 1220.76,-74.5"/>
<text text-anchor="middle" x="1200.76" y="-61" font-family="Helvetica,sans-Serif" font-size="10.00">string</text>
</a>
</g>
</g>
<!-- Node1&#45;&gt;Node10 -->
<g id="edge56_Node000001_Node000010" class="edge">
<title>Node1&#45;&gt;Node10</title>
<g id="a_edge56_Node000001_Node000010"><a xlink:title=" ">
<path fill="none" stroke="#63b8ff" d="M1255.57,-371.3C985.27,-360.65 3.76,-317.62 3.76,-254.12 3.76,-254.12 3.76,-254.12 3.76,-191.25 3.76,-154.38 -5.77,-133.86 22.76,-110.5 70.1,-71.72 1062.72,-78.91 1123.76,-74.5 1138.7,-73.42 1155.21,-71.65 1169.11,-69.99"/>
<polygon fill="#63b8ff" stroke="#63b8ff" points="1169.53,-73.46 1179.03,-68.77 1168.68,-66.52 1169.53,-73.46"/>
</a>
</g>
</g>
<!-- Node13 -->
<g id="Node000013" class="node">
<title>Node13</title>
<g id="a_Node000013"><a xlink:title=" ">
<polygon fill="#e0e0e0" stroke="#999999" points="1889.01,-201.88 1838.51,-201.88 1838.51,-182.62 1889.01,-182.62 1889.01,-201.88"/>
<text text-anchor="middle" x="1863.76" y="-188.38" font-family="Helvetica,sans-Serif" font-size="10.00">memory</text>
</a>
</g>
</g>
<!-- Node1&#45;&gt;Node13 -->
<g id="edge55_Node000001_Node000013" class="edge">
<title>Node1&#45;&gt;Node13</title>
<g id="a_edge55_Node000001_Node000013"><a xlink:title=" ">
<path fill="none" stroke="#63b8ff" d="M1392.05,-363.21C1446.94,-353.8 1525.68,-338.41 1592.76,-318 1655.17,-299.01 1669.47,-289.99 1728.76,-262.75 1767.24,-245.07 1810.6,-222.2 1837.55,-207.63"/>
<polygon fill="#63b8ff" stroke="#63b8ff" points="1838.92,-210.87 1846.04,-203.02 1835.58,-204.72 1838.92,-210.87"/>
</a>
</g>
</g>
<!-- Node17 -->
<g id="Node000017" class="node">
<title>Node17</title>
<g id="a_Node000017"><a xlink:title=" ">
<polygon fill="#e0e0e0" stroke="#999999" points="1402.26,-74.5 1359.26,-74.5 1359.26,-55.25 1402.26,-55.25 1402.26,-74.5"/>
<text text-anchor="middle" x="1380.76" y="-61" font-family="Helvetica,sans-Serif" font-size="10.00">vector</text>
</a>
</g>
</g>
<!-- Node1&#45;&gt;Node17 -->
<g id="edge57_Node000001_Node000017" class="edge">
<title>Node1&#45;&gt;Node17</title>
<g id="a_edge57_Node000001_Node000017"><a xlink:title=" ">
<path fill="none" stroke="#63b8ff" d="M1392.16,-365C1531.77,-345.26 1841.19,-292.62 1897.76,-207.5 1954.15,-122.64 1535.86,-79.34 1413.64,-68.58"/>
<polygon fill="#63b8ff" stroke="#63b8ff" points="1414.21,-65.12 1403.95,-67.75 1413.61,-72.09 1414.21,-65.12"/>
</a>
</g>
</g>
<!-- Node31 -->
<g id="Node000031" class="node">
<title>Node31</title>
<g id="a_Node000031"><a xlink:title=" ">
<polygon fill="#e0e0e0" stroke="#999999" points="1820.26,-201.88 1723.26,-201.88 1723.26,-182.62 1820.26,-182.62 1820.26,-201.88"/>
<text text-anchor="middle" x="1771.76" y="-188.38" font-family="Helvetica,sans-Serif" font-size="10.00">nlohmann/json.hpp</text>
</a>
</g>
</g>
<!-- Node1&#45;&gt;Node31 -->
<g id="edge54_Node000001_Node000031" class="edge">
<title>Node1&#45;&gt;Node31</title>
<g id="a_edge54_Node000001_Node000031"><a xlink:title=" ">
<path fill="none" stroke="#63b8ff" d="M1392.25,-360.83C1467.16,-344.77 1589.25,-313.24 1684.76,-262.75 1711.58,-248.57 1738.21,-225.66 1754.81,-210.05"/>
<polygon fill="#63b8ff" stroke="#63b8ff" points="1757.06,-212.73 1761.84,-203.28 1752.21,-207.69 1757.06,-212.73"/>
</a>
</g>
</g>
<!-- Node2&#45;&gt;Node3 -->
<g id="edge2_Node000002_Node000003" class="edge">
<title>Node2&#45;&gt;Node3</title>
<g id="a_edge2_Node000002_Node000003"><a xlink:title=" ">
<path fill="none" stroke="#63b8ff" d="M1322,-302.54C1247.54,-294.66 1095.21,-278.46 955.23,-263.02"/>
<polygon fill="#63b8ff" stroke="#63b8ff" points="955.72,-259.55 945.4,-261.93 954.95,-266.51 955.72,-259.55"/>
</a>
</g>
</g>
<!-- Node2&#45;&gt;Node4 -->
<g id="edge3_Node000002_Node000004" class="edge">
<title>Node2&#45;&gt;Node4</title>
<g id="a_edge3_Node000002_Node000004"><a xlink:title=" ">
<path fill="none" stroke="#63b8ff" d="M1322.08,-300.3C1263.65,-291.26 1161.87,-275.5 1093.66,-264.95"/>
<polygon fill="#63b8ff" stroke="#63b8ff" points="1094.51,-261.54 1084.09,-263.47 1093.44,-268.45 1094.51,-261.54"/>
</a>
</g>
</g>
<!-- Node2&#45;&gt;Node5 -->
<g id="edge4_Node000002_Node000005" class="edge">
<title>Node2&#45;&gt;Node5</title>
<g id="a_edge4_Node000002_Node000005"><a xlink:title=" ">
<path fill="none" stroke="#63b8ff" d="M1328.99,-298.28C1290.37,-289.22 1230.95,-275.28 1189.23,-265.5"/>
<polygon fill="#63b8ff" stroke="#63b8ff" points="1190.24,-262.14 1179.7,-263.26 1188.64,-268.95 1190.24,-262.14"/>
</a>
</g>
</g>
<!-- Node2&#45;&gt;Node10 -->
<g id="edge49_Node000002_Node000010" class="edge">
<title>Node2&#45;&gt;Node10</title>
<g id="a_edge49_Node000002_Node000010"><a xlink:title=" ">
<path fill="none" stroke="#63b8ff" d="M1366.96,-298.38C1364.52,-275.55 1355.25,-214.5 1323.76,-177 1302.27,-151.41 1283.08,-162.79 1257.76,-141 1238.62,-124.53 1221.85,-100.64 1211.55,-84.25"/>
<polygon fill="#63b8ff" stroke="#63b8ff" points="1214.72,-82.73 1206.53,-76 1208.74,-86.37 1214.72,-82.73"/>
</a>
</g>
</g>
<!-- Node2&#45;&gt;Node13 -->
<g id="edge48_Node000002_Node000013" class="edge">
<title>Node2&#45;&gt;Node13</title>
<g id="a_edge48_Node000002_Node000013"><a xlink:title=" ">
<path fill="none" stroke="#63b8ff" d="M1413.53,-304.17C1475.72,-299.08 1590.03,-287.14 1684.76,-262.75 1739.23,-248.73 1799.66,-223 1834.53,-207.08"/>
<polygon fill="#63b8ff" stroke="#63b8ff" points="1835.93,-210.29 1843.54,-202.92 1832.99,-203.94 1835.93,-210.29"/>
</a>
</g>
</g>
<!-- Node2&#45;&gt;Node17 -->
<g id="edge50_Node000002_Node000017" class="edge">
<title>Node2&#45;&gt;Node17</title>
<g id="a_edge50_Node000002_Node000017"><a xlink:title=" ">
<path fill="none" stroke="#63b8ff" d="M1387.28,-298.34C1400.81,-290.9 1417.79,-278.94 1425.76,-262.75 1455.79,-201.75 1414.49,-120.18 1392.7,-84.22"/>
<polygon fill="#63b8ff" stroke="#63b8ff" points="1395.75,-82.49 1387.47,-75.88 1389.82,-86.21 1395.75,-82.49"/>
</a>
</g>
</g>
<!-- Node2&#45;&gt;Node31 -->
<g id="edge40_Node000002_Node000031" class="edge">
<title>Node2&#45;&gt;Node31</title>
<g id="a_edge40_Node000002_Node000031"><a xlink:title=" ">
<path fill="none" stroke="#63b8ff" d="M1413.61,-305.27C1470.64,-301.5 1570.31,-291.11 1650.76,-262.75 1688.17,-249.56 1727.24,-224.81 1750.53,-208.68"/>
<polygon fill="#63b8ff" stroke="#63b8ff" points="1752.38,-211.65 1758.54,-203.02 1748.35,-205.93 1752.38,-211.65"/>
</a>
</g>
</g>
<!-- Node32 -->
<g id="Node000032" class="node">
<title>Node32</title>
<g id="a_Node000032"><a xlink:href="InfoCollector_8hpp.html" target="_top" xlink:title=" ">
<polygon fill="white" stroke="#666666" points="1642.13,-262.75 1511.38,-262.75 1511.38,-243.5 1642.13,-243.5 1642.13,-262.75"/>
<text text-anchor="middle" x="1576.76" y="-249.25" font-family="Helvetica,sans-Serif" font-size="10.00">opmonlib/InfoCollector.hpp</text>
</a>
</g>
</g>
<!-- Node2&#45;&gt;Node32 -->
<g id="edge41_Node000002_Node000032" class="edge">
<title>Node2&#45;&gt;Node32</title>
<g id="a_edge41_Node000002_Node000032"><a xlink:title=" ">
<path fill="none" stroke="#63b8ff" d="M1403.21,-298.34C1438.19,-289.43 1491.85,-275.76 1530.24,-265.98"/>
<polygon fill="#63b8ff" stroke="#63b8ff" points="1530.84,-269.44 1539.66,-263.58 1529.11,-262.65 1530.84,-269.44"/>
</a>
</g>
</g>
<!-- Node35 -->
<g id="Node000035" class="node">
<title>Node35</title>
<g id="a_Node000035"><a xlink:title=" ">
<polygon fill="#e0e0e0" stroke="#999999" points="1416.38,-262.75 1371.13,-262.75 1371.13,-243.5 1416.38,-243.5 1416.38,-262.75"/>
<text text-anchor="middle" x="1393.76" y="-249.25" font-family="Helvetica,sans-Serif" font-size="10.00">atomic</text>
</a>
</g>
</g>
<!-- Node2&#45;&gt;Node35 -->
<g id="edge47_Node000002_Node000035" class="edge">
<title>Node2&#45;&gt;Node35</title>
<g id="a_edge47_Node000002_Node000035"><a xlink:title=" ">
<path fill="none" stroke="#63b8ff" d="M1372.05,-298.58C1375.38,-291.76 1380.12,-282.06 1384.32,-273.45"/>
<polygon fill="#63b8ff" stroke="#63b8ff" points="1387.46,-274.99 1388.71,-264.47 1381.17,-271.92 1387.46,-274.99"/>
</a>
</g>
</g>
<!-- Node6 -->
<g id="Node000006" class="node">
<title>Node6</title>
<g id="a_Node000006"><a xlink:title=" ">
<polygon fill="#e0e0e0" stroke="#999999" points="1120.38,-201.88 1075.13,-201.88 1075.13,-182.62 1120.38,-182.62 1120.38,-201.88"/>
<text text-anchor="middle" x="1097.76" y="-188.38" font-family="Helvetica,sans-Serif" font-size="10.00">math.h</text>
</a>
</g>
</g>
<!-- Node5&#45;&gt;Node6 -->
<g id="edge5_Node000005_Node000006" class="edge">
<title>Node5&#45;&gt;Node6</title>
<g id="a_edge5_Node000005_Node000006"><a xlink:title=" ">
<path fill="none" stroke="#63b8ff" d="M1134.23,-243.18C1128.1,-234.8 1118.76,-222.01 1111.06,-211.47"/>
<polygon fill="#63b8ff" stroke="#63b8ff" points="1113.97,-209.51 1105.24,-203.5 1108.31,-213.64 1113.97,-209.51"/>
</a>
</g>
</g>
<!-- Node7 -->
<g id="Node000007" class="node">
<title>Node7</title>
<g id="a_Node000007"><a xlink:title=" ">
<polygon fill="#e0e0e0" stroke="#999999" points="908.01,-201.88 863.51,-201.88 863.51,-182.62 908.01,-182.62 908.01,-201.88"/>
<text text-anchor="middle" x="885.76" y="-188.38" font-family="Helvetica,sans-Serif" font-size="10.00">stdio.h</text>
</a>
</g>
</g>
<!-- Node5&#45;&gt;Node7 -->
<g id="edge6_Node000005_Node000007" class="edge">
<title>Node5&#45;&gt;Node7</title>
<g id="a_edge6_Node000005_Node000007"><a xlink:title=" ">
<path fill="none" stroke="#63b8ff" d="M1103.06,-244.82C1045.09,-233.53 938.91,-212.6 921.76,-207.5 920.38,-207.09 918.98,-206.65 917.58,-206.19"/>
<polygon fill="#63b8ff" stroke="#63b8ff" points="918.88,-202.94 908.28,-202.83 916.5,-209.52 918.88,-202.94"/>
</a>
</g>
</g>
<!-- Node8 -->
<g id="Node000008" class="node">
<title>Node8</title>
<g id="a_Node000008"><a xlink:title=" ">
<polygon fill="#e0e0e0" stroke="#999999" points="1057.51,-201.88 1010.01,-201.88 1010.01,-182.62 1057.51,-182.62 1057.51,-201.88"/>
<text text-anchor="middle" x="1033.76" y="-188.38" font-family="Helvetica,sans-Serif" font-size="10.00">string.h</text>
</a>
</g>
</g>
<!-- Node5&#45;&gt;Node8 -->
<g id="edge7_Node000005_Node000008" class="edge">
<title>Node5&#45;&gt;Node8</title>
<g id="a_edge7_Node000005_Node000008"><a xlink:title=" ">
<path fill="none" stroke="#63b8ff" d="M1124.51,-243.18C1107.38,-233.76 1080.14,-218.77 1059.97,-207.68"/>
<polygon fill="#63b8ff" stroke="#63b8ff" points="1061.94,-204.76 1051.49,-203.01 1058.56,-210.89 1061.94,-204.76"/>
</a>
</g>
</g>
<!-- Node9 -->
<g id="Node000009" class="node">
<title>Node9</title>
<g id="a_Node000009"><a xlink:title=" ">
<polygon fill="#e0e0e0" stroke="#999999" points="1109.13,-135.38 1074.38,-135.38 1074.38,-116.12 1109.13,-116.12 1109.13,-135.38"/>
<text text-anchor="middle" x="1091.76" y="-121.88" font-family="Helvetica,sans-Serif" font-size="10.00">map</text>
</a>
</g>
</g>
<!-- Node5&#45;&gt;Node9 -->
<g id="edge8_Node000005_Node000009" class="edge">
<title>Node5&#45;&gt;Node9</title>
<g id="a_edge8_Node000005_Node000009"><a xlink:title=" ">
<path fill="none" stroke="#63b8ff" d="M1103.12,-244.95C1100.29,-244.45 1097.48,-243.96 1094.76,-243.5 1041.58,-234.53 889.95,-248.36 854.76,-207.5 845.91,-197.23 846.01,-187.36 854.76,-177 916.11,-104.29 975.92,-172.29 1065.76,-141 1066.12,-140.87 1066.49,-140.74 1066.85,-140.61"/>
<polygon fill="#63b8ff" stroke="#63b8ff" points="1068.32,-143.78 1075.93,-136.41 1065.38,-137.43 1068.32,-143.78"/>
</a>
</g>
</g>
<!-- Node5&#45;&gt;Node10 -->
<g id="edge9_Node000005_Node000010" class="edge">
<title>Node5&#45;&gt;Node10</title>
<g id="a_edge9_Node000005_Node000010"><a xlink:title=" ">
<path fill="none" stroke="#63b8ff" d="M1103.15,-244.77C1100.31,-244.31 1097.49,-243.88 1094.76,-243.5 1050.11,-237.34 721.18,-240.75 690.76,-207.5 681.61,-197.5 685.28,-189.4 690.76,-177 695.19,-166.96 753.74,-114.97 763.76,-110.5 837.19,-77.77 1043.81,-82.98 1123.76,-74.5 1138.66,-72.92 1155.16,-71.08 1169.06,-69.51"/>
<polygon fill="#63b8ff" stroke="#63b8ff" points="1169.45,-72.99 1179,-68.38 1168.66,-66.03 1169.45,-72.99"/>
</a>
</g>
</g>
<!-- Node11 -->
<g id="Node000011" class="node">
<title>Node11</title>
<g id="a_Node000011"><a xlink:title=" ">
<polygon fill="#e0e0e0" stroke="#999999" points="1235.51,-19.25 1182.01,-19.25 1182.01,0 1235.51,0 1235.51,-19.25"/>
<text text-anchor="middle" x="1208.76" y="-5.75" font-family="Helvetica,sans-Serif" font-size="10.00">iostream</text>
</a>
</g>
</g>
<!-- Node5&#45;&gt;Node11 -->
<g id="edge10_Node000005_Node000011" class="edge">
<title>Node5&#45;&gt;Node11</title>
<g id="a_edge10_Node000005_Node000011"><a xlink:title=" ">
<path fill="none" stroke="#63b8ff" d="M1103.17,-244.64C1100.33,-244.21 1097.5,-243.82 1094.76,-243.5 767.29,-205.03 680.97,-248.09 353.76,-207.5 201.62,-188.63 -80.99,-223.35 22.76,-110.5 102.2,-24.08 975.11,-12.39 1170.23,-10.85"/>
<polygon fill="#63b8ff" stroke="#63b8ff" points="1170.09,-14.35 1180.07,-10.78 1170.04,-7.35 1170.09,-14.35"/>
</a>
</g>
</g>
<!-- Node12 -->
<g id="Node000012" class="node">
<title>Node12</title>
<g id="a_Node000012"><a xlink:title=" ">
<polygon fill="#e0e0e0" stroke="#999999" points="1314.38,-201.88 1263.13,-201.88 1263.13,-182.62 1314.38,-182.62 1314.38,-201.88"/>
<text text-anchor="middle" x="1288.76" y="-188.38" font-family="Helvetica,sans-Serif" font-size="10.00">sstream</text>
</a>
</g>
</g>
<!-- Node5&#45;&gt;Node12 -->
<g id="edge11_Node000005_Node000012" class="edge">
<title>Node5&#45;&gt;Node12</title>
<g id="a_edge11_Node000005_Node000012"><a xlink:title=" ">
<path fill="none" stroke="#63b8ff" d="M1163.73,-243.14C1186.58,-234.17 1222.63,-219.98 1253.76,-207.5 1254.53,-207.19 1255.32,-206.87 1256.11,-206.55"/>
<polygon fill="#63b8ff" stroke="#63b8ff" points="1257.19,-209.89 1265.15,-202.9 1254.57,-203.4 1257.19,-209.89"/>
</a>
</g>
</g>
<!-- Node5&#45;&gt;Node13 -->
<g id="edge12_Node000005_Node000013" class="edge">
<title>Node5&#45;&gt;Node13</title>
<g id="a_edge12_Node000005_Node000013"><a xlink:title=" ">
<path fill="none" stroke="#63b8ff" d="M1178.05,-250.43C1312.29,-244.25 1766.23,-222.43 1829.76,-207.5 1831.39,-207.12 1833.05,-206.66 1834.71,-206.15"/>
<polygon fill="#63b8ff" stroke="#63b8ff" points="1835.81,-209.48 1844,-202.76 1833.41,-202.9 1835.81,-209.48"/>
</a>
</g>
</g>
<!-- Node14 -->
<g id="Node000014" class="node">
<title>Node14</title>
<g id="a_Node000014"><a xlink:title=" ">
<polygon fill="#e0e0e0" stroke="#999999" points="1172.38,-135.38 1127.13,-135.38 1127.13,-116.12 1172.38,-116.12 1172.38,-135.38"/>
<text text-anchor="middle" x="1149.76" y="-121.88" font-family="Helvetica,sans-Serif" font-size="10.00">chrono</text>
</a>
</g>
</g>
<!-- Node5&#45;&gt;Node14 -->
<g id="edge13_Node000005_Node000014" class="edge">
<title>Node5&#45;&gt;Node14</title>
<g id="a_edge13_Node000005_Node000014"><a xlink:title=" ">
<path fill="none" stroke="#63b8ff" d="M1103.42,-244.4C1050.46,-233.26 959.41,-213.4 954.76,-207.5 946.36,-196.86 946.27,-187.57 954.76,-177 1001.22,-119.16 1047.29,-164.21 1117.76,-141 1118.72,-140.68 1119.69,-140.35 1120.66,-140"/>
<polygon fill="#63b8ff" stroke="#63b8ff" points="1121.67,-143.37 1129.65,-136.4 1119.07,-136.87 1121.67,-143.37"/>
</a>
</g>
</g>
<!-- Node15 -->
<g id="Node000015" class="node">
<title>Node15</title>
<g id="a_Node000015"><a xlink:title=" ">
<polygon fill="#e0e0e0" stroke="#999999" points="992.16,-201.88 963.36,-201.88 963.36,-182.62 992.16,-182.62 992.16,-201.88"/>
<text text-anchor="middle" x="977.76" y="-188.38" font-family="Helvetica,sans-Serif" font-size="10.00">list</text>
</a>
</g>
</g>
<!-- Node5&#45;&gt;Node15 -->
<g id="edge14_Node000005_Node000015" class="edge">
<title>Node5&#45;&gt;Node15</title>
<g id="a_edge14_Node000005_Node000015"><a xlink:title=" ">
<path fill="none" stroke="#63b8ff" d="M1103.87,-243.04C1077.39,-235.94 1040.9,-224.97 1001.44,-207.09"/>
<polygon fill="#63b8ff" stroke="#63b8ff" points="1002.98,-203.95 992.44,-202.9 1000.03,-210.3 1002.98,-203.95"/>
</a>
</g>
</g>
<!-- Node16 -->
<g id="Node000016" class="node">
<title>Node16</title>
<g id="a_Node000016"><a xlink:href="IssueFactory_8hpp.html" target="_top" xlink:title=" ">
<polygon fill="white" stroke="#666666" points="1245.13,-201.88 1138.38,-201.88 1138.38,-182.62 1245.13,-182.62 1245.13,-201.88"/>
<text text-anchor="middle" x="1191.76" y="-188.38" font-family="Helvetica,sans-Serif" font-size="10.00">ers/IssueFactory.hpp</text>
</a>
</g>
</g>
<!-- Node5&#45;&gt;Node16 -->
<g id="edge15_Node000005_Node000016" class="edge">
<title>Node5&#45;&gt;Node16</title>
<g id="a_edge15_Node000005_Node000016"><a xlink:title=" ">
<path fill="none" stroke="#63b8ff" d="M1148.5,-243.18C1155.92,-234.62 1167.31,-221.48 1176.54,-210.82"/>
<polygon fill="#63b8ff" stroke="#63b8ff" points="1179.05,-213.27 1182.95,-203.42 1173.75,-208.69 1179.05,-213.27"/>
</a>
</g>
</g>
<!-- Node18 -->
<g id="Node000018" class="node">
<title>Node18</title>
<g id="a_Node000018"><a xlink:href="Severity_8hpp.html" target="_top" xlink:title=" ">
<polygon fill="white" stroke="#666666" points="1352.63,-135.38 1266.88,-135.38 1266.88,-116.12 1352.63,-116.12 1352.63,-135.38"/>
<text text-anchor="middle" x="1309.76" y="-121.88" font-family="Helvetica,sans-Serif" font-size="10.00">ers/Severity.hpp</text>
</a>
</g>
</g>
<!-- Node5&#45;&gt;Node18 -->
<g id="edge32_Node000005_Node000018" class="edge">
<title>Node5&#45;&gt;Node18</title>
<g id="a_edge32_Node000005_Node000018"><a xlink:title=" ">
<path fill="none" stroke="#63b8ff" d="M1178.4,-248.36C1226.6,-242.67 1306.03,-230.07 1323.76,-207.5 1337.52,-189.98 1329.21,-163.68 1320.67,-145.89"/>
<polygon fill="#63b8ff" stroke="#63b8ff" points="1323.85,-144.41 1316.1,-137.19 1317.65,-147.67 1323.85,-144.41"/>
</a>
</g>
</g>
<!-- Node19 -->
<g id="Node000019" class="node">
<title>Node19</title>
<g id="a_Node000019"><a xlink:href="LocalContext_8hpp.html" target="_top" xlink:title=" ">
<polygon fill="white" stroke="#666666" points="807.51,-201.88 700.01,-201.88 700.01,-182.62 807.51,-182.62 807.51,-201.88"/>
<text text-anchor="middle" x="753.76" y="-188.38" font-family="Helvetica,sans-Serif" font-size="10.00">ers/LocalContext.hpp</text>
</a>
</g>
</g>
<!-- Node5&#45;&gt;Node19 -->
<g id="edge24_Node000005_Node000019" class="edge">
<title>Node5&#45;&gt;Node19</title>
<g id="a_edge24_Node000005_Node000019"><a xlink:title=" ">
<path fill="none" stroke="#63b8ff" d="M1103.13,-244.9C1100.3,-244.41 1097.49,-243.94 1094.76,-243.5 973.9,-224.22 942.4,-228.07 821.76,-207.5 816.53,-206.61 811.1,-205.6 805.68,-204.55"/>
<polygon fill="#63b8ff" stroke="#63b8ff" points="806.63,-201.17 796.14,-202.64 805.26,-208.04 806.63,-201.17"/>
</a>
</g>
</g>
<!-- Node24 -->
<g id="Node000024" class="node">
<title>Node24</title>
<g id="a_Node000024"><a xlink:href="IssueDeclarationMacro_8hpp.html" target="_top" xlink:title=" ">
<polygon fill="white" stroke="#666666" points="502.63,-207.5 362.88,-207.5 362.88,-177 502.63,-177 502.63,-207.5"/>
<text text-anchor="start" x="370.88" y="-194" font-family="Helvetica,sans-Serif" font-size="10.00">ers/internal/IssueDeclaration</text>
<text text-anchor="middle" x="432.76" y="-182.75" font-family="Helvetica,sans-Serif" font-size="10.00">Macro.hpp</text>
</a>
</g>
</g>
<!-- Node5&#45;&gt;Node24 -->
<g id="edge33_Node000005_Node000024" class="edge">
<title>Node5&#45;&gt;Node24</title>
<g id="a_edge33_Node000005_Node000024"><a xlink:title=" ">
<path fill="none" stroke="#63b8ff" d="M1103.16,-244.73C1100.32,-244.28 1097.5,-243.86 1094.76,-243.5 984.77,-229.06 665.92,-207.93 514.48,-198.33"/>
<polygon fill="#63b8ff" stroke="#63b8ff" points="514.7,-194.83 504.5,-197.7 514.26,-201.82 514.7,-194.83"/>
</a>
</g>
</g>
<!-- Node16&#45;&gt;Node9 -->
<g id="edge19_Node000016_Node000009" class="edge">
<title>Node16&#45;&gt;Node9</title>
<g id="a_edge19_Node000016_Node000009"><a xlink:title=" ">
<path fill="none" stroke="#63b8ff" d="M1177.85,-182.28C1161.75,-171.89 1134.95,-154.61 1115.52,-142.08"/>
<polygon fill="#63b8ff" stroke="#63b8ff" points="1117.44,-139.15 1107.14,-136.67 1113.64,-145.03 1117.44,-139.15"/>
</a>
</g>
</g>
<!-- Node16&#45;&gt;Node10 -->
<g id="edge17_Node000016_Node000010" class="edge">
<title>Node16&#45;&gt;Node10</title>
<g id="a_edge17_Node000016_Node000010"><a xlink:title=" ">
<path fill="none" stroke="#63b8ff" d="M1192.4,-182.23C1193.84,-162.26 1197.31,-113.89 1199.3,-86.21"/>
<polygon fill="#63b8ff" stroke="#63b8ff" points="1202.78,-86.54 1200.01,-76.32 1195.8,-86.04 1202.78,-86.54"/>
</a>
</g>
</g>
<!-- Node16&#45;&gt;Node14 -->
<g id="edge16_Node000016_Node000014" class="edge">
<title>Node16&#45;&gt;Node14</title>
<g id="a_edge16_Node000016_Node000014"><a xlink:title=" ">
<path fill="none" stroke="#63b8ff" d="M1185.92,-182.28C1179.71,-172.75 1169.72,-157.41 1161.81,-145.27"/>
<polygon fill="#63b8ff" stroke="#63b8ff" points="1164.76,-143.38 1156.37,-136.91 1158.9,-147.2 1164.76,-143.38"/>
</a>
</g>
</g>
<!-- Node16&#45;&gt;Node17 -->
<g id="edge18_Node000016_Node000017" class="edge">
<title>Node16&#45;&gt;Node17</title>
<g id="a_edge18_Node000016_Node000017"><a xlink:title=" ">
<path fill="none" stroke="#63b8ff" d="M1229.65,-182.16C1276.85,-170.51 1352.45,-150.68 1361.76,-141 1375.87,-126.31 1379.94,-102.72 1380.9,-85.89"/>
<polygon fill="#63b8ff" stroke="#63b8ff" points="1384.4,-86.19 1381.12,-76.12 1377.4,-86.04 1384.4,-86.19"/>
</a>
</g>
</g>
<!-- Node16&#45;&gt;Node18 -->
<g id="edge20_Node000016_Node000018" class="edge">
<title>Node16&#45;&gt;Node18</title>
<g id="a_edge20_Node000016_Node000018"><a xlink:title=" ">
<path fill="none" stroke="#63b8ff" d="M1208.41,-182.15C1227.83,-171.53 1260.17,-153.85 1283.09,-141.32"/>
<polygon fill="#63b8ff" stroke="#63b8ff" points="1284.76,-144.4 1291.86,-136.53 1281.4,-138.26 1284.76,-144.4"/>
</a>
</g>
</g>
<!-- Node18&#45;&gt;Node10 -->
<g id="edge21_Node000018_Node000010" class="edge">
<title>Node18&#45;&gt;Node10</title>
<g id="a_edge21_Node000018_Node000010"><a xlink:title=" ">
<path fill="none" stroke="#63b8ff" d="M1293.2,-115.81C1275.76,-106.38 1248.01,-91.4 1227.46,-80.3"/>
<polygon fill="#63b8ff" stroke="#63b8ff" points="1229.26,-77.29 1218.8,-75.62 1225.93,-83.45 1229.26,-77.29"/>
</a>
</g>
</g>
<!-- Node18&#45;&gt;Node11 -->
<g id="edge23_Node000018_Node000011" class="edge">
<title>Node18&#45;&gt;Node11</title>
<g id="a_edge23_Node000018_Node000011"><a xlink:title=" ">
<path fill="none" stroke="#63b8ff" d="M1301.83,-115.79C1285.09,-96.88 1245.88,-52.57 1224.07,-27.93"/>
<polygon fill="#63b8ff" stroke="#63b8ff" points="1226.9,-25.84 1217.65,-20.67 1221.65,-30.48 1226.9,-25.84"/>
</a>
</g>
</g>
<!-- Node18&#45;&gt;Node17 -->
<g id="edge22_Node000018_Node000017" class="edge">
<title>Node18&#45;&gt;Node17</title>
<g id="a_edge22_Node000018_Node000017"><a xlink:title=" ">
<path fill="none" stroke="#63b8ff" d="M1320.54,-115.81C1331.28,-106.9 1348.01,-93.03 1361.11,-82.17"/>
<polygon fill="#63b8ff" stroke="#63b8ff" points="1363.24,-84.94 1368.71,-75.87 1358.78,-79.56 1363.24,-84.94"/>
</a>
</g>
</g>
<!-- Node20 -->
<g id="Node000020" class="node">
<title>Node20</title>
<g id="a_Node000020"><a xlink:title=" ">
<polygon fill="#e0e0e0" stroke="#999999" points="837.13,-135.38 772.38,-135.38 772.38,-116.12 837.13,-116.12 837.13,-135.38"/>
<text text-anchor="middle" x="804.76" y="-121.88" font-family="Helvetica,sans-Serif" font-size="10.00">sys/types.h</text>
</a>
</g>
</g>
<!-- Node19&#45;&gt;Node20 -->
<g id="edge25_Node000019_Node000020" class="edge">
<title>Node19&#45;&gt;Node20</title>
<g id="a_edge25_Node000019_Node000020"><a xlink:title=" ">
<path fill="none" stroke="#63b8ff" d="M760.85,-182.28C768.54,-172.56 781.01,-156.79 790.7,-144.53"/>
<polygon fill="#63b8ff" stroke="#63b8ff" points="793.33,-146.84 796.79,-136.83 787.84,-142.5 793.33,-146.84"/>
</a>
</g>
</g>
<!-- Node21 -->
<g id="Node000021" class="node">
<title>Node21</title>
<g id="a_Node000021"><a xlink:title=" ">
<polygon fill="#e0e0e0" stroke="#999999" points="904.63,-135.38 854.88,-135.38 854.88,-116.12 904.63,-116.12 904.63,-135.38"/>
<text text-anchor="middle" x="879.76" y="-121.88" font-family="Helvetica,sans-Serif" font-size="10.00">unistd.h</text>
</a>
</g>
</g>
<!-- Node19&#45;&gt;Node21 -->
<g id="edge26_Node000019_Node000021" class="edge">
<title>Node19&#45;&gt;Node21</title>
<g id="a_edge26_Node000019_Node000021"><a xlink:title=" ">
<path fill="none" stroke="#63b8ff" d="M771.54,-182.15C792.46,-171.44 827.44,-153.53 851.95,-140.99"/>
<polygon fill="#63b8ff" stroke="#63b8ff" points="853.41,-144.17 860.71,-136.5 850.22,-137.94 853.41,-144.17"/>
</a>
</g>
</g>
<!-- Node22 -->
<g id="Node000022" class="node">
<title>Node22</title>
<g id="a_Node000022"><a xlink:href="Context_8hpp.html" target="_top" xlink:title=" ">
<polygon fill="white" stroke="#666666" points="1056.51,-135.38 973.01,-135.38 973.01,-116.12 1056.51,-116.12 1056.51,-135.38"/>
<text text-anchor="middle" x="1014.76" y="-121.88" font-family="Helvetica,sans-Serif" font-size="10.00">ers/Context.hpp</text>
</a>
</g>
</g>
<!-- Node19&#45;&gt;Node22 -->
<g id="edge27_Node000019_Node000022" class="edge">
<title>Node19&#45;&gt;Node22</title>
<g id="a_edge27_Node000019_Node000022"><a xlink:title=" ">
<path fill="none" stroke="#63b8ff" d="M790.6,-182.15C836.84,-170.72 916.26,-151.09 967.09,-138.53"/>
<polygon fill="#63b8ff" stroke="#63b8ff" points="967.77,-141.97 976.63,-136.17 966.09,-135.17 967.77,-141.97"/>
</a>
</g>
</g>
<!-- Node22&#45;&gt;Node10 -->
<g id="edge28_Node000022_Node000010" class="edge">
<title>Node22&#45;&gt;Node10</title>
<g id="a_edge28_Node000022_Node000010"><a xlink:title=" ">
<path fill="none" stroke="#63b8ff" d="M1043.41,-115.68C1077.62,-104.85 1134.6,-86.81 1169.8,-75.68"/>
<polygon fill="#63b8ff" stroke="#63b8ff" points="1170.48,-79.13 1178.96,-72.78 1168.37,-72.46 1170.48,-79.13"/>
</a>
</g>
</g>
<!-- Node22&#45;&gt;Node17 -->
<g id="edge29_Node000022_Node000017" class="edge">
<title>Node22&#45;&gt;Node17</title>
<g id="a_edge29_Node000022_Node000017"><a xlink:title=" ">
<path fill="none" stroke="#63b8ff" d="M1044.8,-115.65C1051.65,-113.77 1058.92,-111.93 1065.76,-110.5 1167.45,-89.19 1289.78,-75.1 1347.51,-69.13"/>
<polygon fill="#63b8ff" stroke="#63b8ff" points="1347.72,-72.63 1357.31,-68.13 1347.01,-65.66 1347.72,-72.63"/>
</a>
</g>
</g>
<!-- Node23 -->
<g id="Node000023" class="node">
<title>Node23</title>
<g id="a_Node000023"><a xlink:href="ers_2include_2ers_2Configuration_8hpp.html" target="_top" xlink:title=" ">
<polygon fill="white" stroke="#666666" points="1115.13,-74.5 1008.38,-74.5 1008.38,-55.25 1115.13,-55.25 1115.13,-74.5"/>
<text text-anchor="middle" x="1061.76" y="-61" font-family="Helvetica,sans-Serif" font-size="10.00">ers/Configuration.hpp</text>
</a>
</g>
</g>
<!-- Node22&#45;&gt;Node23 -->
<g id="edge30_Node000022_Node000023" class="edge">
<title>Node22&#45;&gt;Node23</title>
<g id="a_edge30_Node000022_Node000023"><a xlink:title=" ">
<path fill="none" stroke="#63b8ff" d="M1021.9,-115.81C1028.66,-107.34 1039.01,-94.37 1047.47,-83.77"/>
<polygon fill="#63b8ff" stroke="#63b8ff" points="1050.1,-86.08 1053.61,-76.08 1044.63,-81.72 1050.1,-86.08"/>
</a>
</g>
</g>
<!-- Node23&#45;&gt;Node11 -->
<g id="edge31_Node000023_Node000011" class="edge">
<title>Node23&#45;&gt;Node11</title>
<g id="a_edge31_Node000023_Node000011"><a xlink:title=" ">
<path fill="none" stroke="#63b8ff" d="M1086.69,-54.84C1110.45,-46.24 1146.46,-33.19 1173.22,-23.5"/>
<polygon fill="#63b8ff" stroke="#63b8ff" points="1174.06,-26.91 1182.28,-20.22 1171.68,-20.33 1174.06,-26.91"/>
</a>
</g>
</g>
<!-- Node25 -->
<g id="Node000025" class="node">
<title>Node25</title>
<g id="a_Node000025"><a xlink:title=" ">
<polygon fill="#e0e0e0" stroke="#999999" points="599.38,-141 500.13,-141 500.13,-110.5 599.38,-110.5 599.38,-141"/>
<text text-anchor="start" x="508.13" y="-127.5" font-family="Helvetica,sans-Serif" font-size="10.00">boost/preprocessor</text>
<text text-anchor="middle" x="549.76" y="-116.25" font-family="Helvetica,sans-Serif" font-size="10.00">/if.hpp</text>
</a>
</g>
</g>
<!-- Node24&#45;&gt;Node25 -->
<g id="edge34_Node000024_Node000025" class="edge">
<title>Node24&#45;&gt;Node25</title>
<g id="a_edge34_Node000024_Node000025"><a xlink:title=" ">
<path fill="none" stroke="#63b8ff" d="M459.31,-176.61C475.31,-167.79 495.92,-156.43 513.42,-146.78"/>
<polygon fill="#63b8ff" stroke="#63b8ff" points="514.92,-149.95 521.99,-142.06 511.54,-143.82 514.92,-149.95"/>
</a>
</g>
</g>
<!-- Node26 -->
<g id="Node000026" class="node">
<title>Node26</title>
<g id="a_Node000026"><a xlink:title=" ">
<polygon fill="#e0e0e0" stroke="#999999" points="716.38,-141 617.13,-141 617.13,-110.5 716.38,-110.5 716.38,-141"/>
<text text-anchor="start" x="625.13" y="-127.5" font-family="Helvetica,sans-Serif" font-size="10.00">boost/preprocessor</text>
<text text-anchor="middle" x="666.76" y="-116.25" font-family="Helvetica,sans-Serif" font-size="10.00">/seq.hpp</text>
</a>
</g>
</g>
<!-- Node24&#45;&gt;Node26 -->
<g id="edge35_Node000024_Node000026" class="edge">
<title>Node24&#45;&gt;Node26</title>
<g id="a_edge35_Node000024_Node000026"><a xlink:title=" ">
<path fill="none" stroke="#63b8ff" d="M486.15,-176.53C521.87,-166.69 568.97,-153.7 606.11,-143.47"/>
<polygon fill="#63b8ff" stroke="#63b8ff" points="606.63,-146.95 615.34,-140.92 604.77,-140.21 606.63,-146.95"/>
</a>
</g>
</g>
<!-- Node27 -->
<g id="Node000027" class="node">
<title>Node27</title>
<g id="a_Node000027"><a xlink:title=" ">
<polygon fill="#e0e0e0" stroke="#999999" points="131.38,-141 32.13,-141 32.13,-110.5 131.38,-110.5 131.38,-141"/>
<text text-anchor="start" x="40.13" y="-127.5" font-family="Helvetica,sans-Serif" font-size="10.00">boost/preprocessor</text>
<text text-anchor="middle" x="81.76" y="-116.25" font-family="Helvetica,sans-Serif" font-size="10.00">/tuple.hpp</text>
</a>
</g>
</g>
<!-- Node24&#45;&gt;Node27 -->
<g id="edge36_Node000024_Node000027" class="edge">
<title>Node24&#45;&gt;Node27</title>
<g id="a_edge36_Node000024_Node000027"><a xlink:title=" ">
<path fill="none" stroke="#63b8ff" d="M362.64,-180.66C305.67,-171.73 223.02,-158.03 142.52,-141.5"/>
<polygon fill="#63b8ff" stroke="#63b8ff" points="143.68,-138.17 133.17,-139.56 142.26,-145.02 143.68,-138.17"/>
</a>
</g>
</g>
<!-- Node28 -->
<g id="Node000028" class="node">
<title>Node28</title>
<g id="a_Node000028"><a xlink:title=" ">
<polygon fill="#e0e0e0" stroke="#999999" points="248.38,-141 149.13,-141 149.13,-110.5 248.38,-110.5 248.38,-141"/>
<text text-anchor="start" x="157.13" y="-127.5" font-family="Helvetica,sans-Serif" font-size="10.00">boost/preprocessor</text>
<text text-anchor="middle" x="198.76" y="-116.25" font-family="Helvetica,sans-Serif" font-size="10.00">/logical.hpp</text>
</a>
</g>
</g>
<!-- Node24&#45;&gt;Node28 -->
<g id="edge37_Node000024_Node000028" class="edge">
<title>Node24&#45;&gt;Node28</title>
<g id="a_edge37_Node000024_Node000028"><a xlink:title=" ">
<path fill="none" stroke="#63b8ff" d="M379.37,-176.53C343.64,-166.69 296.55,-153.7 259.4,-143.47"/>
<polygon fill="#63b8ff" stroke="#63b8ff" points="260.75,-140.21 250.18,-140.92 258.89,-146.95 260.75,-140.21"/>
</a>
</g>
</g>
<!-- Node29 -->
<g id="Node000029" class="node">
<title>Node29</title>
<g id="a_Node000029"><a xlink:title=" ">
<polygon fill="#e0e0e0" stroke="#999999" points="365.38,-141 266.13,-141 266.13,-110.5 365.38,-110.5 365.38,-141"/>
<text text-anchor="start" x="274.13" y="-127.5" font-family="Helvetica,sans-Serif" font-size="10.00">boost/preprocessor</text>
<text text-anchor="middle" x="315.76" y="-116.25" font-family="Helvetica,sans-Serif" font-size="10.00">/stringize.hpp</text>
</a>
</g>
</g>
<!-- Node24&#45;&gt;Node29 -->
<g id="edge38_Node000024_Node000029" class="edge">
<title>Node24&#45;&gt;Node29</title>
<g id="a_edge38_Node000024_Node000029"><a xlink:title=" ">
<path fill="none" stroke="#63b8ff" d="M406.21,-176.61C390.2,-167.79 369.59,-156.43 352.09,-146.78"/>
<polygon fill="#63b8ff" stroke="#63b8ff" points="353.97,-143.82 343.53,-142.06 350.59,-149.95 353.97,-143.82"/>
</a>
</g>
</g>
<!-- Node30 -->
<g id="Node000030" class="node">
<title>Node30</title>
<g id="a_Node000030"><a xlink:title=" ">
<polygon fill="#e0e0e0" stroke="#999999" points="482.38,-141 383.13,-141 383.13,-110.5 482.38,-110.5 482.38,-141"/>
<text text-anchor="start" x="391.13" y="-127.5" font-family="Helvetica,sans-Serif" font-size="10.00">boost/preprocessor</text>
<text text-anchor="middle" x="432.76" y="-116.25" font-family="Helvetica,sans-Serif" font-size="10.00">/comparison.hpp</text>
</a>
</g>
</g>
<!-- Node24&#45;&gt;Node30 -->
<g id="edge39_Node000024_Node000030" class="edge">
<title>Node24&#45;&gt;Node30</title>
<g id="a_edge39_Node000024_Node000030"><a xlink:title=" ">
<path fill="none" stroke="#63b8ff" d="M432.76,-176.61C432.76,-169.52 432.76,-160.79 432.76,-152.63"/>
<polygon fill="#63b8ff" stroke="#63b8ff" points="436.26,-152.84 432.76,-142.84 429.26,-152.84 436.26,-152.84"/>
</a>
</g>
</g>
<!-- Node32&#45;&gt;Node10 -->
<g id="edge45_Node000032_Node000010" class="edge">
<title>Node32&#45;&gt;Node10</title>
<g id="a_edge45_Node000032_Node000010"><a xlink:title=" ">
<path fill="none" stroke="#63b8ff" d="M1550.83,-243.05C1529.79,-235.14 1499.79,-222.58 1475.76,-207.5 1419.41,-172.13 1420.53,-141.67 1361.76,-110.5 1319.81,-88.25 1265.68,-76.21 1232.09,-70.42"/>
<polygon fill="#63b8ff" stroke="#63b8ff" points="1233.05,-67.03 1222.62,-68.87 1231.92,-73.94 1233.05,-67.03"/>
</a>
</g>
</g>
<!-- Node32&#45;&gt;Node11 -->
<g id="edge44_Node000032_Node000011" class="edge">
<title>Node32&#45;&gt;Node11</title>
<g id="a_edge44_Node000032_Node000011"><a xlink:title=" ">
<path fill="none" stroke="#63b8ff" d="M1622.81,-243.08C1642.63,-236.66 1663.94,-225.79 1675.76,-207.5 1683.11,-196.11 1683.06,-188.42 1675.76,-177 1581.19,-29.25 1341.19,-11.31 1247.27,-10.13"/>
<polygon fill="#63b8ff" stroke="#63b8ff" points="1247.32,-6.63 1237.3,-10.07 1247.28,-13.63 1247.32,-6.63"/>
</a>
</g>
</g>
<!-- Node32&#45;&gt;Node31 -->
<g id="edge42_Node000032_Node000031" class="edge">
<title>Node32&#45;&gt;Node31</title>
<g id="a_edge42_Node000032_Node000031"><a xlink:title=" ">
<path fill="none" stroke="#63b8ff" d="M1606.8,-243.05C1640.01,-233.03 1693.69,-216.82 1730.75,-205.63"/>
<polygon fill="#63b8ff" stroke="#63b8ff" points="1731.67,-209.01 1740.23,-202.77 1729.65,-202.31 1731.67,-209.01"/>
</a>
</g>
</g>
<!-- Node33 -->
<g id="Node000033" class="node">
<title>Node33</title>
<g id="a_Node000033"><a xlink:title=" ">
<polygon fill="#e0e0e0" stroke="#999999" points="1524.76,-201.88 1484.76,-201.88 1484.76,-182.62 1524.76,-182.62 1524.76,-201.88"/>
<text text-anchor="middle" x="1504.76" y="-188.38" font-family="Helvetica,sans-Serif" font-size="10.00">ctime</text>
</a>
</g>
</g>
<!-- Node32&#45;&gt;Node33 -->
<g id="edge43_Node000032_Node000033" class="edge">
<title>Node32&#45;&gt;Node33</title>
<g id="a_edge43_Node000032_Node000033"><a xlink:title=" ">
<path fill="none" stroke="#63b8ff" d="M1565.82,-243.18C1554.93,-234.28 1537.97,-220.41 1524.68,-209.54"/>
<polygon fill="#63b8ff" stroke="#63b8ff" points="1526.92,-206.85 1516.97,-203.23 1522.49,-212.27 1526.92,-206.85"/>
</a>
</g>
</g>
<!-- Node34 -->
<g id="Node000034" class="node">
<title>Node34</title>
<g id="a_Node000034"><a xlink:href="JSONTags_8hpp.html" target="_top" xlink:title=" ">
<polygon fill="white" stroke="#666666" points="1667.13,-201.88 1542.38,-201.88 1542.38,-182.62 1667.13,-182.62 1667.13,-201.88"/>
<text text-anchor="middle" x="1604.76" y="-188.38" font-family="Helvetica,sans-Serif" font-size="10.00">opmonlib/JSONTags.hpp</text>
</a>
</g>
</g>
<!-- Node32&#45;&gt;Node34 -->
<g id="edge46_Node000032_Node000034" class="edge">
<title>Node32&#45;&gt;Node34</title>
<g id="a_edge46_Node000032_Node000034"><a xlink:title=" ">
<path fill="none" stroke="#63b8ff" d="M1581.01,-243.18C1584.87,-235.06 1590.71,-222.79 1595.62,-212.45"/>
<polygon fill="#63b8ff" stroke="#63b8ff" points="1598.68,-214.18 1599.81,-203.64 1592.36,-211.17 1598.68,-214.18"/>
</a>
</g>
</g>
</g>
</svg>
