<?xml version="1.0" encoding="UTF-8" standalone="no"?>
<!DOCTYPE svg PUBLIC "-//W3C//DTD SVG 1.1//EN"
 "http://www.w3.org/Graphics/SVG/1.1/DTD/svg11.dtd">
<!-- Generated by graphviz version 9.0.0 (20230911.1827)
 -->
<!-- Title: /github/workspace/dev_area/sourcecode/readoutlibs/include/readoutlibs/models/detail/TaskRawDataProcessorModel.hxx Pages: 1 -->
<svg width="1696pt" height="317pt"
 viewBox="0.00 0.00 1695.62 316.75" xmlns="http://www.w3.org/2000/svg" xmlns:xlink="http://www.w3.org/1999/xlink">
<g id="graph0" class="graph" transform="scale(1 1) rotate(0) translate(4 312.75)">
<title>/github/workspace/dev_area/sourcecode/readoutlibs/include/readoutlibs/models/detail/TaskRawDataProcessorModel.hxx</title>
<!-- Node1 -->
<g id="Node000001" class="node">
<title>Node1</title>
<g id="a_Node000001"><a xlink:title=" ">
<polygon fill="#999999" stroke="#666666" points="985.25,-308.75 791.5,-308.75 791.5,-255.75 985.25,-255.75 985.25,-308.75"/>
<text text-anchor="start" x="799.5" y="-295.25" font-family="Helvetica,sans-Serif" font-size="10.00">/github/workspace/dev</text>
<text text-anchor="start" x="799.5" y="-284" font-family="Helvetica,sans-Serif" font-size="10.00">_area/sourcecode/readoutlibs</text>
<text text-anchor="start" x="799.5" y="-272.75" font-family="Helvetica,sans-Serif" font-size="10.00">/include/readoutlibs/models</text>
<text text-anchor="middle" x="888.38" y="-261.5" font-family="Helvetica,sans-Serif" font-size="10.00">/detail/TaskRawDataProcessorModel.hxx</text>
</a>
</g>
</g>
<!-- Node2 -->
<g id="Node000002" class="node">
<title>Node2</title>
<g id="a_Node000002"><a xlink:href="TaskRawDataProcessorModel_8hpp.html" target="_top" xlink:title=" ">
<polygon fill="white" stroke="#666666" points="972.88,-219.75 803.88,-219.75 803.88,-166.75 972.88,-166.75 972.88,-219.75"/>
<text text-anchor="start" x="811.88" y="-206.25" font-family="Helvetica,sans-Serif" font-size="10.00">/github/workspace/dev</text>
<text text-anchor="start" x="811.88" y="-195" font-family="Helvetica,sans-Serif" font-size="10.00">_area/sourcecode/readoutlibs</text>
<text text-anchor="start" x="811.88" y="-183.75" font-family="Helvetica,sans-Serif" font-size="10.00">/include/readoutlibs/models</text>
<text text-anchor="middle" x="888.38" y="-172.5" font-family="Helvetica,sans-Serif" font-size="10.00">/TaskRawDataProcessorModel.hpp</text>
</a>
</g>
</g>
<!-- Node1&#45;&gt;Node2 -->
<g id="edge1_Node000001_Node000002" class="edge">
<title>Node1&#45;&gt;Node2</title>
<g id="a_edge1_Node000001_Node000002"><a xlink:title=" ">
<path fill="none" stroke="#63b8ff" d="M888.38,-244.36C888.38,-236.16 888.38,-227.64 888.38,-220"/>
<polygon fill="#63b8ff" stroke="#63b8ff" points="884.88,-244.1 888.38,-254.1 891.88,-244.1 884.88,-244.1"/>
</a>
</g>
</g>
<!-- Node3 -->
<g id="Node000003" class="node">
<title>Node3</title>
<g id="a_Node000003"><a xlink:href="DAPHNEFrameProcessor_8hpp.html" target="_top" xlink:title=" ">
<polygon fill="white" stroke="#666666" points="689.25,-130.75 537.5,-130.75 537.5,-77.75 689.25,-77.75 689.25,-130.75"/>
<text text-anchor="start" x="545.5" y="-117.25" font-family="Helvetica,sans-Serif" font-size="10.00">/github/workspace/dev</text>
<text text-anchor="start" x="545.5" y="-106" font-family="Helvetica,sans-Serif" font-size="10.00">_area/sourcecode/fdreadoutlibs</text>
<text text-anchor="start" x="545.5" y="-94.75" font-family="Helvetica,sans-Serif" font-size="10.00">/include/fdreadoutlibs/daphne</text>
<text text-anchor="middle" x="613.38" y="-83.5" font-family="Helvetica,sans-Serif" font-size="10.00">/DAPHNEFrameProcessor.hpp</text>
</a>
</g>
</g>
<!-- Node2&#45;&gt;Node3 -->
<g id="edge2_Node000002_Node000003" class="edge">
<title>Node2&#45;&gt;Node3</title>
<g id="a_edge2_Node000002_Node000003"><a xlink:title=" ">
<path fill="none" stroke="#63b8ff" d="M795.66,-162.92C761.12,-151.99 722.33,-139.72 689.45,-129.32"/>
<polygon fill="#63b8ff" stroke="#63b8ff" points="794.21,-166.13 804.8,-165.81 796.32,-159.46 794.21,-166.13"/>
</a>
</g>
</g>
<!-- Node6 -->
<g id="Node000006" class="node">
<title>Node6</title>
<g id="a_Node000006"><a xlink:href="DAPHNEStreamFrameProcessor_8hpp.html" target="_top" xlink:title=" ">
<polygon fill="white" stroke="#666666" points="889.25,-130.75 707.5,-130.75 707.5,-77.75 889.25,-77.75 889.25,-130.75"/>
<text text-anchor="start" x="715.5" y="-117.25" font-family="Helvetica,sans-Serif" font-size="10.00">/github/workspace/dev</text>
<text text-anchor="start" x="715.5" y="-106" font-family="Helvetica,sans-Serif" font-size="10.00">_area/sourcecode/fdreadoutlibs</text>
<text text-anchor="start" x="715.5" y="-94.75" font-family="Helvetica,sans-Serif" font-size="10.00">/include/fdreadoutlibs/daphne</text>
<text text-anchor="middle" x="798.38" y="-83.5" font-family="Helvetica,sans-Serif" font-size="10.00">/DAPHNEStreamFrameProcessor.hpp</text>
</a>
</g>
</g>
<!-- Node2&#45;&gt;Node6 -->
<g id="edge5_Node000002_Node000006" class="edge">
<title>Node2&#45;&gt;Node6</title>
<g id="a_edge5_Node000002_Node000006"><a xlink:title=" ">
<path fill="none" stroke="#63b8ff" d="M853.7,-158.74C844.18,-149.53 834.01,-139.69 825.01,-131"/>
<polygon fill="#63b8ff" stroke="#63b8ff" points="851.15,-161.13 860.77,-165.57 856.01,-156.1 851.15,-161.13"/>
</a>
</g>
</g>
<!-- Node8 -->
<g id="Node000008" class="node">
<title>Node8</title>
<g id="a_Node000008"><a xlink:href="SSPFrameProcessor_8hpp.html" target="_top" xlink:title=" ">
<polygon fill="white" stroke="#666666" points="349.25,-130.75 197.5,-130.75 197.5,-77.75 349.25,-77.75 349.25,-130.75"/>
<text text-anchor="start" x="205.5" y="-117.25" font-family="Helvetica,sans-Serif" font-size="10.00">/github/workspace/dev</text>
<text text-anchor="start" x="205.5" y="-106" font-family="Helvetica,sans-Serif" font-size="10.00">_area/sourcecode/fdreadoutlibs</text>
<text text-anchor="start" x="205.5" y="-94.75" font-family="Helvetica,sans-Serif" font-size="10.00">/include/fdreadoutlibs/ssp</text>
<text text-anchor="middle" x="273.38" y="-83.5" font-family="Helvetica,sans-Serif" font-size="10.00">/SSPFrameProcessor.hpp</text>
</a>
</g>
</g>
<!-- Node2&#45;&gt;Node8 -->
<g id="edge7_Node000002_Node000008" class="edge">
<title>Node2&#45;&gt;Node8</title>
<g id="a_edge7_Node000002_Node000008"><a xlink:title=" ">
<path fill="none" stroke="#63b8ff" d="M792.27,-186.2C685.46,-178.3 508.27,-161.68 358.38,-130.75 355.51,-130.16 352.6,-129.51 349.67,-128.83"/>
<polygon fill="#63b8ff" stroke="#63b8ff" points="791.92,-189.69 802.15,-186.92 792.43,-182.71 791.92,-189.69"/>
</a>
</g>
</g>
<!-- Node9 -->
<g id="Node000009" class="node">
<title>Node9</title>
<g id="a_Node000009"><a xlink:href="TDEFrameProcessor_8hpp.html" target="_top" xlink:title=" ">
<polygon fill="white" stroke="#666666" points="179.25,-130.75 27.5,-130.75 27.5,-77.75 179.25,-77.75 179.25,-130.75"/>
<text text-anchor="start" x="35.5" y="-117.25" font-family="Helvetica,sans-Serif" font-size="10.00">/github/workspace/dev</text>
<text text-anchor="start" x="35.5" y="-106" font-family="Helvetica,sans-Serif" font-size="10.00">_area/sourcecode/fdreadoutlibs</text>
<text text-anchor="start" x="35.5" y="-94.75" font-family="Helvetica,sans-Serif" font-size="10.00">/include/fdreadoutlibs/tde</text>
<text text-anchor="middle" x="103.38" y="-83.5" font-family="Helvetica,sans-Serif" font-size="10.00">/TDEFrameProcessor.hpp</text>
</a>
</g>
</g>
<!-- Node2&#45;&gt;Node9 -->
<g id="edge9_Node000002_Node000009" class="edge">
<title>Node2&#45;&gt;Node9</title>
<g id="a_edge9_Node000002_Node000009"><a xlink:title=" ">
<path fill="none" stroke="#63b8ff" d="M792.41,-190C656.74,-185.41 401.63,-171.66 188.38,-130.75 185.5,-130.2 182.58,-129.59 179.65,-128.93"/>
<polygon fill="#63b8ff" stroke="#63b8ff" points="791.94,-193.48 802.05,-190.31 792.17,-186.49 791.94,-193.48"/>
</a>
</g>
</g>
<!-- Node11 -->
<g id="Node000011" class="node">
<title>Node11</title>
<g id="a_Node000011"><a xlink:href="WIBEthFrameProcessor_8hpp.html" target="_top" xlink:title=" ">
<polygon fill="white" stroke="#666666" points="519.25,-130.75 367.5,-130.75 367.5,-77.75 519.25,-77.75 519.25,-130.75"/>
<text text-anchor="start" x="375.5" y="-117.25" font-family="Helvetica,sans-Serif" font-size="10.00">/github/workspace/dev</text>
<text text-anchor="start" x="375.5" y="-106" font-family="Helvetica,sans-Serif" font-size="10.00">_area/sourcecode/fdreadoutlibs</text>
<text text-anchor="start" x="375.5" y="-94.75" font-family="Helvetica,sans-Serif" font-size="10.00">/include/fdreadoutlibs/wibeth</text>
<text text-anchor="middle" x="443.38" y="-83.5" font-family="Helvetica,sans-Serif" font-size="10.00">/WIBEthFrameProcessor.hpp</text>
</a>
</g>
</g>
<!-- Node2&#45;&gt;Node11 -->
<g id="edge12_Node000002_Node000011" class="edge">
<title>Node2&#45;&gt;Node11</title>
<g id="a_edge12_Node000002_Node000011"><a xlink:title=" ">
<path fill="none" stroke="#63b8ff" d="M792.43,-179.12C719.53,-168.36 617.04,-151.54 528.38,-130.75 525.53,-130.08 522.63,-129.37 519.71,-128.63"/>
<polygon fill="#63b8ff" stroke="#63b8ff" points="791.51,-182.52 801.91,-180.51 792.53,-175.6 791.51,-182.52"/>
</a>
</g>
</g>
<!-- Node13 -->
<g id="Node000013" class="node">
<title>Node13</title>
<g id="a_Node000013"><a xlink:href="sourcecode_2hsilibs_2src_2HSIFrameProcessor_8hpp.html" target="_top" xlink:title=" ">
<polygon fill="white" stroke="#666666" points="1049.75,-125.12 907,-125.12 907,-83.38 1049.75,-83.38 1049.75,-125.12"/>
<text text-anchor="start" x="915" y="-111.62" font-family="Helvetica,sans-Serif" font-size="10.00">/github/workspace/dev</text>
<text text-anchor="start" x="915" y="-100.38" font-family="Helvetica,sans-Serif" font-size="10.00">_area/sourcecode/hsilibs</text>
<text text-anchor="middle" x="978.38" y="-89.12" font-family="Helvetica,sans-Serif" font-size="10.00">/src/HSIFrameProcessor.hpp</text>
</a>
</g>
</g>
<!-- Node2&#45;&gt;Node13 -->
<g id="edge15_Node000002_Node000013" class="edge">
<title>Node2&#45;&gt;Node13</title>
<g id="a_edge15_Node000002_Node000013"><a xlink:title=" ">
<path fill="none" stroke="#63b8ff" d="M923.12,-158.67C934.71,-147.46 947.26,-135.33 957.47,-125.46"/>
<polygon fill="#63b8ff" stroke="#63b8ff" points="920.74,-156.1 915.98,-165.57 925.6,-161.13 920.74,-156.1"/>
</a>
</g>
</g>
<!-- Node15 -->
<g id="Node000015" class="node">
<title>Node15</title>
<g id="a_Node000015"><a xlink:href="Readoutlibs_8cpp.html" target="_top" xlink:title=" ">
<polygon fill="white" stroke="#666666" points="1211.12,-125.12 1067.62,-125.12 1067.62,-83.38 1211.12,-83.38 1211.12,-125.12"/>
<text text-anchor="start" x="1075.62" y="-111.62" font-family="Helvetica,sans-Serif" font-size="10.00">/github/workspace/dev</text>
<text text-anchor="start" x="1075.62" y="-100.38" font-family="Helvetica,sans-Serif" font-size="10.00">_area/sourcecode/readoutlibs</text>
<text text-anchor="middle" x="1139.38" y="-89.12" font-family="Helvetica,sans-Serif" font-size="10.00">/src/Readoutlibs.cpp</text>
</a>
</g>
</g>
<!-- Node2&#45;&gt;Node15 -->
<g id="edge17_Node000002_Node000015" class="edge">
<title>Node2&#45;&gt;Node15</title>
<g id="a_edge17_Node000002_Node000015"><a xlink:title=" ">
<path fill="none" stroke="#63b8ff" d="M974.08,-162.54C1009.22,-150.36 1048.99,-136.58 1080.72,-125.58"/>
<polygon fill="#63b8ff" stroke="#63b8ff" points="973.08,-159.19 964.77,-165.77 975.37,-165.8 973.08,-159.19"/>
</a>
</g>
</g>
<!-- Node16 -->
<g id="Node000016" class="node">
<title>Node16</title>
<g id="a_Node000016"><a xlink:href="TAProcessor_8hpp.html" target="_top" xlink:title=" ">
<polygon fill="white" stroke="#666666" points="1369.62,-125.12 1229.12,-125.12 1229.12,-83.38 1369.62,-83.38 1369.62,-125.12"/>
<text text-anchor="start" x="1237.12" y="-111.62" font-family="Helvetica,sans-Serif" font-size="10.00">/github/workspace/dev</text>
<text text-anchor="start" x="1237.12" y="-100.38" font-family="Helvetica,sans-Serif" font-size="10.00">_area/sourcecode/trigger</text>
<text text-anchor="middle" x="1299.38" y="-89.12" font-family="Helvetica,sans-Serif" font-size="10.00">/src/trigger/TAProcessor.hpp</text>
</a>
</g>
</g>
<!-- Node2&#45;&gt;Node16 -->
<g id="edge18_Node000002_Node000016" class="edge">
<title>Node2&#45;&gt;Node16</title>
<g id="a_edge18_Node000002_Node000016"><a xlink:title=" ">
<path fill="none" stroke="#63b8ff" d="M984.61,-177.8C1051.27,-166.96 1141.81,-150.62 1220.38,-130.75 1226.52,-129.2 1232.89,-127.42 1239.22,-125.55"/>
<polygon fill="#63b8ff" stroke="#63b8ff" points="984.1,-174.33 974.78,-179.38 985.21,-181.25 984.1,-174.33"/>
</a>
</g>
</g>
<!-- Node18 -->
<g id="Node000018" class="node">
<title>Node18</title>
<g id="a_Node000018"><a xlink:href="TCProcessor_8hpp.html" target="_top" xlink:title=" ">
<polygon fill="white" stroke="#666666" points="1528.62,-125.12 1388.12,-125.12 1388.12,-83.38 1528.62,-83.38 1528.62,-125.12"/>
<text text-anchor="start" x="1396.12" y="-111.62" font-family="Helvetica,sans-Serif" font-size="10.00">/github/workspace/dev</text>
<text text-anchor="start" x="1396.12" y="-100.38" font-family="Helvetica,sans-Serif" font-size="10.00">_area/sourcecode/trigger</text>
<text text-anchor="middle" x="1458.38" y="-89.12" font-family="Helvetica,sans-Serif" font-size="10.00">/src/trigger/TCProcessor.hpp</text>
</a>
</g>
</g>
<!-- Node2&#45;&gt;Node18 -->
<g id="edge20_Node000002_Node000018" class="edge">
<title>Node2&#45;&gt;Node18</title>
<g id="a_edge20_Node000002_Node000018"><a xlink:title=" ">
<path fill="none" stroke="#63b8ff" d="M984.51,-185.43C1083.95,-177.16 1243.33,-160.48 1378.38,-130.75 1385.07,-129.28 1392,-127.49 1398.85,-125.54"/>
<polygon fill="#63b8ff" stroke="#63b8ff" points="984.47,-181.93 974.79,-186.23 985.04,-188.9 984.47,-181.93"/>
</a>
</g>
</g>
<!-- Node20 -->
<g id="Node000020" class="node">
<title>Node20</title>
<g id="a_Node000020"><a xlink:href="TPProcessor_8hpp.html" target="_top" xlink:title=" ">
<polygon fill="white" stroke="#666666" points="1687.62,-125.12 1547.12,-125.12 1547.12,-83.38 1687.62,-83.38 1687.62,-125.12"/>
<text text-anchor="start" x="1555.12" y="-111.62" font-family="Helvetica,sans-Serif" font-size="10.00">/github/workspace/dev</text>
<text text-anchor="start" x="1555.12" y="-100.38" font-family="Helvetica,sans-Serif" font-size="10.00">_area/sourcecode/trigger</text>
<text text-anchor="middle" x="1617.38" y="-89.12" font-family="Helvetica,sans-Serif" font-size="10.00">/src/trigger/TPProcessor.hpp</text>
</a>
</g>
</g>
<!-- Node2&#45;&gt;Node20 -->
<g id="edge22_Node000002_Node000020" class="edge">
<title>Node2&#45;&gt;Node20</title>
<g id="a_edge22_Node000002_Node000020"><a xlink:title=" ">
<path fill="none" stroke="#63b8ff" d="M984.49,-189.56C1112.02,-184.53 1343.62,-170.33 1537.38,-130.75 1544.23,-129.35 1551.33,-127.58 1558.34,-125.62"/>
<polygon fill="#63b8ff" stroke="#63b8ff" points="984.61,-186.05 974.75,-189.93 984.88,-193.05 984.61,-186.05"/>
</a>
</g>
</g>
<!-- Node4 -->
<g id="Node000004" class="node">
<title>Node4</title>
<g id="a_Node000004"><a xlink:href="FDReadoutlibs_8cpp.html" target="_top" xlink:title=" ">
<polygon fill="white" stroke="#666666" points="330.25,-41.75 178.5,-41.75 178.5,0 330.25,0 330.25,-41.75"/>
<text text-anchor="start" x="186.5" y="-28.25" font-family="Helvetica,sans-Serif" font-size="10.00">/github/workspace/dev</text>
<text text-anchor="start" x="186.5" y="-17" font-family="Helvetica,sans-Serif" font-size="10.00">_area/sourcecode/fdreadoutlibs</text>
<text text-anchor="middle" x="254.38" y="-5.75" font-family="Helvetica,sans-Serif" font-size="10.00">/src/FDReadoutlibs.cpp</text>
</a>
</g>
</g>
<!-- Node3&#45;&gt;Node4 -->
<g id="edge3_Node000003_Node000004" class="edge">
<title>Node3&#45;&gt;Node4</title>
<g id="a_edge3_Node000003_Node000004"><a xlink:title=" ">
<path fill="none" stroke="#63b8ff" d="M526.08,-77.29C443.38,-57.57 419.59,-58.76 339.38,-41.75 336.41,-41.12 333.39,-40.47 330.34,-39.8"/>
<polygon fill="#63b8ff" stroke="#63b8ff" points="525.01,-80.63 535.55,-79.58 526.65,-73.83 525.01,-80.63"/>
</a>
</g>
</g>
<!-- Node5 -->
<g id="Node000005" class="node">
<title>Node5</title>
<g id="a_Node000005"><a xlink:href="DAPHNEFrameProcessor_8cpp.html" target="_top" xlink:title=" ">
<polygon fill="white" stroke="#666666" points="758,-41.75 556.75,-41.75 556.75,0 758,0 758,-41.75"/>
<text text-anchor="start" x="564.75" y="-28.25" font-family="Helvetica,sans-Serif" font-size="10.00">/github/workspace/dev</text>
<text text-anchor="start" x="564.75" y="-17" font-family="Helvetica,sans-Serif" font-size="10.00">_area/sourcecode/fdreadoutlibs</text>
<text text-anchor="middle" x="657.38" y="-5.75" font-family="Helvetica,sans-Serif" font-size="10.00">/src/daphne/DAPHNEFrameProcessor.cpp</text>
</a>
</g>
</g>
<!-- Node3&#45;&gt;Node5 -->
<g id="edge4_Node000003_Node000005" class="edge">
<title>Node3&#45;&gt;Node5</title>
<g id="a_edge4_Node000003_Node000005"><a xlink:title=" ">
<path fill="none" stroke="#63b8ff" d="M632.71,-67.5C637.42,-58.78 642.31,-49.74 646.47,-42.04"/>
<polygon fill="#63b8ff" stroke="#63b8ff" points="629.69,-65.71 628.02,-76.17 635.85,-69.04 629.69,-65.71"/>
</a>
</g>
</g>
<!-- Node7 -->
<g id="Node000007" class="node">
<title>Node7</title>
<g id="a_Node000007"><a xlink:href="DAPHNEStreamFrameProcessor_8cpp.html" target="_top" xlink:title=" ">
<polygon fill="white" stroke="#666666" points="1008.75,-41.75 776,-41.75 776,0 1008.75,0 1008.75,-41.75"/>
<text text-anchor="start" x="784" y="-28.25" font-family="Helvetica,sans-Serif" font-size="10.00">/github/workspace/dev</text>
<text text-anchor="start" x="784" y="-17" font-family="Helvetica,sans-Serif" font-size="10.00">_area/sourcecode/fdreadoutlibs</text>
<text text-anchor="middle" x="892.38" y="-5.75" font-family="Helvetica,sans-Serif" font-size="10.00">/src/daphne/DAPHNEStreamFrameProcessor.cpp</text>
</a>
</g>
</g>
<!-- Node6&#45;&gt;Node7 -->
<g id="edge6_Node000006_Node000007" class="edge">
<title>Node6&#45;&gt;Node7</title>
<g id="a_edge6_Node000006_Node000007"><a xlink:title=" ">
<path fill="none" stroke="#63b8ff" d="M836.9,-69.9C847.75,-60.51 859.22,-50.57 868.9,-42.19"/>
<polygon fill="#63b8ff" stroke="#63b8ff" points="834.79,-67.1 829.52,-76.29 839.37,-72.39 834.79,-67.1"/>
</a>
</g>
</g>
<!-- Node8&#45;&gt;Node4 -->
<g id="edge8_Node000008_Node000004" class="edge">
<title>Node8&#45;&gt;Node4</title>
<g id="a_edge8_Node000008_Node000004"><a xlink:title=" ">
<path fill="none" stroke="#63b8ff" d="M264.76,-66.36C262.81,-57.99 260.8,-49.41 259.08,-42.04"/>
<polygon fill="#63b8ff" stroke="#63b8ff" points="261.34,-67.09 267.02,-76.03 268.15,-65.49 261.34,-67.09"/>
</a>
</g>
</g>
<!-- Node9&#45;&gt;Node4 -->
<g id="edge10_Node000009_Node000004" class="edge">
<title>Node9&#45;&gt;Node4</title>
<g id="a_edge10_Node000009_Node000004"><a xlink:title=" ">
<path fill="none" stroke="#63b8ff" d="M161.65,-71.85C180.12,-61.89 200.04,-51.16 216.67,-42.19"/>
<polygon fill="#63b8ff" stroke="#63b8ff" points="160.04,-68.74 152.9,-76.56 163.36,-74.9 160.04,-68.74"/>
</a>
</g>
</g>
<!-- Node10 -->
<g id="Node000010" class="node">
<title>Node10</title>
<g id="a_Node000010"><a xlink:href="TDEFrameProcessor_8cpp.html" target="_top" xlink:title=" ">
<polygon fill="white" stroke="#666666" points="160.75,-41.75 0,-41.75 0,0 160.75,0 160.75,-41.75"/>
<text text-anchor="start" x="8" y="-28.25" font-family="Helvetica,sans-Serif" font-size="10.00">/github/workspace/dev</text>
<text text-anchor="start" x="8" y="-17" font-family="Helvetica,sans-Serif" font-size="10.00">_area/sourcecode/fdreadoutlibs</text>
<text text-anchor="middle" x="80.38" y="-5.75" font-family="Helvetica,sans-Serif" font-size="10.00">/src/tde/TDEFrameProcessor.cpp</text>
</a>
</g>
</g>
<!-- Node9&#45;&gt;Node10 -->
<g id="edge11_Node000009_Node000010" class="edge">
<title>Node9&#45;&gt;Node10</title>
<g id="a_edge11_Node000009_Node000010"><a xlink:title=" ">
<path fill="none" stroke="#63b8ff" d="M93.03,-66.65C90.64,-58.19 88.18,-49.49 86.08,-42.04"/>
<polygon fill="#63b8ff" stroke="#63b8ff" points="89.6,-67.37 95.69,-76.05 96.33,-65.47 89.6,-67.37"/>
</a>
</g>
</g>
<!-- Node11&#45;&gt;Node4 -->
<g id="edge13_Node000011_Node000004" class="edge">
<title>Node11&#45;&gt;Node4</title>
<g id="a_edge13_Node000011_Node000004"><a xlink:title=" ">
<path fill="none" stroke="#63b8ff" d="M372.68,-72.81C348.94,-62.59 323.06,-51.45 301.57,-42.19"/>
<polygon fill="#63b8ff" stroke="#63b8ff" points="371.1,-75.94 381.66,-76.68 373.86,-69.51 371.1,-75.94"/>
</a>
</g>
</g>
<!-- Node12 -->
<g id="Node000012" class="node">
<title>Node12</title>
<g id="a_Node000012"><a xlink:href="WIBEthFrameProcessor_8cpp.html" target="_top" xlink:title=" ">
<polygon fill="white" stroke="#666666" points="538.38,-41.75 348.38,-41.75 348.38,0 538.38,0 538.38,-41.75"/>
<text text-anchor="start" x="356.38" y="-28.25" font-family="Helvetica,sans-Serif" font-size="10.00">/github/workspace/dev</text>
<text text-anchor="start" x="356.38" y="-17" font-family="Helvetica,sans-Serif" font-size="10.00">_area/sourcecode/fdreadoutlibs</text>
<text text-anchor="middle" x="443.38" y="-5.75" font-family="Helvetica,sans-Serif" font-size="10.00">/src/wibeth/WIBEthFrameProcessor.cpp</text>
</a>
</g>
</g>
<!-- Node11&#45;&gt;Node12 -->
<g id="edge14_Node000011_Node000012" class="edge">
<title>Node11&#45;&gt;Node12</title>
<g id="a_edge14_Node000011_Node000012"><a xlink:title=" ">
<path fill="none" stroke="#63b8ff" d="M443.38,-66.08C443.38,-57.8 443.38,-49.33 443.38,-42.04"/>
<polygon fill="#63b8ff" stroke="#63b8ff" points="439.88,-65.99 443.38,-75.99 446.88,-65.99 439.88,-65.99"/>
</a>
</g>
</g>
<!-- Node14 -->
<g id="Node000014" class="node">
<title>Node14</title>
<g id="a_Node000014"><a xlink:href="sourcecode_2hsilibs_2src_2HSIFrameProcessor_8cpp.html" target="_top" xlink:title=" ">
<polygon fill="white" stroke="#666666" points="1169.75,-41.75 1027,-41.75 1027,0 1169.75,0 1169.75,-41.75"/>
<text text-anchor="start" x="1035" y="-28.25" font-family="Helvetica,sans-Serif" font-size="10.00">/github/workspace/dev</text>
<text text-anchor="start" x="1035" y="-17" font-family="Helvetica,sans-Serif" font-size="10.00">_area/sourcecode/hsilibs</text>
<text text-anchor="middle" x="1098.38" y="-5.75" font-family="Helvetica,sans-Serif" font-size="10.00">/src/HSIFrameProcessor.cpp</text>
</a>
</g>
</g>
<!-- Node13&#45;&gt;Node14 -->
<g id="edge16_Node000013_Node000014" class="edge">
<title>Node13&#45;&gt;Node14</title>
<g id="a_edge16_Node000013_Node000014"><a xlink:title=" ">
<path fill="none" stroke="#63b8ff" d="M1017.73,-76.56C1034.2,-65.39 1053.04,-52.61 1068.37,-42.22"/>
<polygon fill="#63b8ff" stroke="#63b8ff" points="1015.91,-73.57 1009.6,-82.08 1019.84,-79.36 1015.91,-73.57"/>
</a>
</g>
</g>
<!-- Node17 -->
<g id="Node000017" class="node">
<title>Node17</title>
<g id="a_Node000017"><a xlink:href="TAProcessor_8cpp.html" target="_top" xlink:title=" ">
<polygon fill="white" stroke="#666666" points="1361,-41.75 1237.75,-41.75 1237.75,0 1361,0 1361,-41.75"/>
<text text-anchor="start" x="1245.75" y="-28.25" font-family="Helvetica,sans-Serif" font-size="10.00">/github/workspace/dev</text>
<text text-anchor="start" x="1245.75" y="-17" font-family="Helvetica,sans-Serif" font-size="10.00">_area/sourcecode/trigger</text>
<text text-anchor="middle" x="1299.38" y="-5.75" font-family="Helvetica,sans-Serif" font-size="10.00">/src/TAProcessor.cpp</text>
</a>
</g>
</g>
<!-- Node16&#45;&gt;Node17 -->
<g id="edge19_Node000016_Node000017" class="edge">
<title>Node16&#45;&gt;Node17</title>
<g id="a_edge19_Node000016_Node000017"><a xlink:title=" ">
<path fill="none" stroke="#63b8ff" d="M1299.38,-71.89C1299.38,-61.87 1299.38,-51.05 1299.38,-42.04"/>
<polygon fill="#63b8ff" stroke="#63b8ff" points="1295.88,-71.62 1299.38,-81.62 1302.88,-71.62 1295.88,-71.62"/>
</a>
</g>
</g>
<!-- Node19 -->
<g id="Node000019" class="node">
<title>Node19</title>
<g id="a_Node000019"><a xlink:href="TCProcessor_8cpp.html" target="_top" xlink:title=" ">
<polygon fill="white" stroke="#666666" points="1520,-41.75 1396.75,-41.75 1396.75,0 1520,0 1520,-41.75"/>
<text text-anchor="start" x="1404.75" y="-28.25" font-family="Helvetica,sans-Serif" font-size="10.00">/github/workspace/dev</text>
<text text-anchor="start" x="1404.75" y="-17" font-family="Helvetica,sans-Serif" font-size="10.00">_area/sourcecode/trigger</text>
<text text-anchor="middle" x="1458.38" y="-5.75" font-family="Helvetica,sans-Serif" font-size="10.00">/src/TCProcessor.cpp</text>
</a>
</g>
</g>
<!-- Node18&#45;&gt;Node19 -->
<g id="edge21_Node000018_Node000019" class="edge">
<title>Node18&#45;&gt;Node19</title>
<g id="a_edge21_Node000018_Node000019"><a xlink:title=" ">
<path fill="none" stroke="#63b8ff" d="M1458.38,-71.89C1458.38,-61.87 1458.38,-51.05 1458.38,-42.04"/>
<polygon fill="#63b8ff" stroke="#63b8ff" points="1454.88,-71.62 1458.38,-81.62 1461.88,-71.62 1454.88,-71.62"/>
</a>
</g>
</g>
<!-- Node21 -->
<g id="Node000021" class="node">
<title>Node21</title>
<g id="a_Node000021"><a xlink:href="TPProcessor_8cpp.html" target="_top" xlink:title=" ">
<polygon fill="white" stroke="#666666" points="1679,-41.75 1555.75,-41.75 1555.75,0 1679,0 1679,-41.75"/>
<text text-anchor="start" x="1563.75" y="-28.25" font-family="Helvetica,sans-Serif" font-size="10.00">/github/workspace/dev</text>
<text text-anchor="start" x="1563.75" y="-17" font-family="Helvetica,sans-Serif" font-size="10.00">_area/sourcecode/trigger</text>
<text text-anchor="middle" x="1617.38" y="-5.75" font-family="Helvetica,sans-Serif" font-size="10.00">/src/TPProcessor.cpp</text>
</a>
</g>
</g>
<!-- Node20&#45;&gt;Node21 -->
<g id="edge23_Node000020_Node000021" class="edge">
<title>Node20&#45;&gt;Node21</title>
<g id="a_edge23_Node000020_Node000021"><a xlink:title=" ">
<path fill="none" stroke="#63b8ff" d="M1617.38,-71.89C1617.38,-61.87 1617.38,-51.05 1617.38,-42.04"/>
<polygon fill="#63b8ff" stroke="#63b8ff" points="1613.88,-71.62 1617.38,-81.62 1620.88,-71.62 1613.88,-71.62"/>
</a>
</g>
</g>
</g>
</svg>
