<?xml version="1.0" encoding="UTF-8" standalone="no"?>
<!DOCTYPE svg PUBLIC "-//W3C//DTD SVG 1.1//EN"
 "http://www.w3.org/Graphics/SVG/1.1/DTD/svg11.dtd">
<!-- Generated by graphviz version 9.0.0 (20230911.1827)
 -->
<!-- Title: /github/workspace/dev_area/sourcecode/daqdataformats/include/daqdataformats/TimeSliceHeader.hpp Pages: 1 -->
<svg width="1101pt" height="283pt"
 viewBox="0.00 0.00 1101.12 283.00" xmlns="http://www.w3.org/2000/svg" xmlns:xlink="http://www.w3.org/1999/xlink">
<g id="graph0" class="graph" transform="scale(1 1) rotate(0) translate(4 279)">
<title>/github/workspace/dev_area/sourcecode/daqdataformats/include/daqdataformats/TimeSliceHeader.hpp</title>
<!-- Node1 -->
<g id="Node000001" class="node">
<title>Node1</title>
<g id="a_Node000001"><a xlink:title=" ">
<polygon fill="#999999" stroke="#666666" points="465,-275 248.75,-275 248.75,-233.25 465,-233.25 465,-275"/>
<text text-anchor="start" x="256.75" y="-261.5" font-family="Helvetica,sans-Serif" font-size="10.00">/github/workspace/dev</text>
<text text-anchor="start" x="256.75" y="-250.25" font-family="Helvetica,sans-Serif" font-size="10.00">_area/sourcecode/daqdataformats</text>
<text text-anchor="middle" x="356.88" y="-239" font-family="Helvetica,sans-Serif" font-size="10.00">/include/daqdataformats/TimeSliceHeader.hpp</text>
</a>
</g>
</g>
<!-- Node2 -->
<g id="Node000002" class="node">
<title>Node2</title>
<g id="a_Node000002"><a xlink:href="TimeSlice_8hpp.html" target="_top" xlink:title=" ">
<polygon fill="white" stroke="#666666" points="449.25,-197.25 264.5,-197.25 264.5,-155.5 449.25,-155.5 449.25,-197.25"/>
<text text-anchor="start" x="272.5" y="-183.75" font-family="Helvetica,sans-Serif" font-size="10.00">/github/workspace/dev</text>
<text text-anchor="start" x="272.5" y="-172.5" font-family="Helvetica,sans-Serif" font-size="10.00">_area/sourcecode/daqdataformats</text>
<text text-anchor="middle" x="356.88" y="-161.25" font-family="Helvetica,sans-Serif" font-size="10.00">/include/daqdataformats/TimeSlice.hpp</text>
</a>
</g>
</g>
<!-- Node1&#45;&gt;Node2 -->
<g id="edge1_Node000001_Node000002" class="edge">
<title>Node1&#45;&gt;Node2</title>
<g id="a_edge1_Node000001_Node000002"><a xlink:title=" ">
<path fill="none" stroke="#63b8ff" d="M356.88,-221.5C356.88,-213.46 356.88,-205.04 356.88,-197.73"/>
<polygon fill="#63b8ff" stroke="#63b8ff" points="353.38,-221.31 356.88,-231.31 360.38,-221.31 353.38,-221.31"/>
</a>
</g>
</g>
<!-- Node3 -->
<g id="Node000003" class="node">
<title>Node3</title>
<g id="a_Node000003"><a xlink:href="time__slice_8cpp.html" target="_top" xlink:title=" ">
<polygon fill="white" stroke="#666666" points="163.75,-119.5 0,-119.5 0,-77.75 163.75,-77.75 163.75,-119.5"/>
<text text-anchor="start" x="8" y="-106" font-family="Helvetica,sans-Serif" font-size="10.00">/github/workspace/dev</text>
<text text-anchor="start" x="8" y="-94.75" font-family="Helvetica,sans-Serif" font-size="10.00">_area/sourcecode/daqdataformats</text>
<text text-anchor="middle" x="81.88" y="-83.5" font-family="Helvetica,sans-Serif" font-size="10.00">/pybindsrc/time_slice.cpp</text>
</a>
</g>
</g>
<!-- Node1&#45;&gt;Node3 -->
<g id="edge12_Node000001_Node000003" class="edge">
<title>Node1&#45;&gt;Node3</title>
<g id="a_edge12_Node000001_Node000003"><a xlink:title=" ">
<path fill="none" stroke="#63b8ff" d="M310.58,-227.59C293.39,-218.09 273.73,-207.2 255.88,-197.25 208.07,-170.61 152.99,-139.67 117.83,-119.88"/>
<polygon fill="#63b8ff" stroke="#63b8ff" points="308.61,-230.5 319.06,-232.27 312,-224.37 308.61,-230.5"/>
</a>
</g>
</g>
<!-- Node13 -->
<g id="Node000013" class="node">
<title>Node13</title>
<g id="a_Node000013"><a xlink:href="HDF5FileLayout_8hpp.html" target="_top" xlink:title=" ">
<polygon fill="white" stroke="#666666" points="740.88,-197.25 562.88,-197.25 562.88,-155.5 740.88,-155.5 740.88,-197.25"/>
<text text-anchor="start" x="570.88" y="-183.75" font-family="Helvetica,sans-Serif" font-size="10.00">/github/workspace/dev</text>
<text text-anchor="start" x="570.88" y="-172.5" font-family="Helvetica,sans-Serif" font-size="10.00">_area/sourcecode/hdf5libs</text>
<text text-anchor="middle" x="651.88" y="-161.25" font-family="Helvetica,sans-Serif" font-size="10.00">/include/hdf5libs/HDF5FileLayout.hpp</text>
</a>
</g>
</g>
<!-- Node1&#45;&gt;Node13 -->
<g id="edge13_Node000001_Node000013" class="edge">
<title>Node1&#45;&gt;Node13</title>
<g id="a_edge13_Node000001_Node000013"><a xlink:title=" ">
<path fill="none" stroke="#63b8ff" d="M447.04,-229.97C487.12,-219.68 533.88,-207.67 572.6,-197.73"/>
<polygon fill="#63b8ff" stroke="#63b8ff" points="446.21,-226.57 437.4,-232.45 447.95,-233.35 446.21,-226.57"/>
</a>
</g>
</g>
<!-- Node2&#45;&gt;Node3 -->
<g id="edge2_Node000002_Node000003" class="edge">
<title>Node2&#45;&gt;Node3</title>
<g id="a_edge2_Node000002_Node000003"><a xlink:title=" ">
<path fill="none" stroke="#63b8ff" d="M272.34,-152.09C235.09,-141.83 191.71,-129.88 155.77,-119.98"/>
<polygon fill="#63b8ff" stroke="#63b8ff" points="271.15,-155.39 281.72,-154.67 273.01,-148.64 271.15,-155.39"/>
</a>
</g>
</g>
<!-- Node4 -->
<g id="Node000004" class="node">
<title>Node4</title>
<g id="a_Node000004"><a xlink:href="DataStore_8hpp.html" target="_top" xlink:title=" ">
<polygon fill="white" stroke="#666666" points="344,-119.5 181.75,-119.5 181.75,-77.75 344,-77.75 344,-119.5"/>
<text text-anchor="start" x="189.75" y="-106" font-family="Helvetica,sans-Serif" font-size="10.00">/github/workspace/dev</text>
<text text-anchor="start" x="189.75" y="-94.75" font-family="Helvetica,sans-Serif" font-size="10.00">_area/sourcecode/dfmodules</text>
<text text-anchor="middle" x="262.88" y="-83.5" font-family="Helvetica,sans-Serif" font-size="10.00">/include/dfmodules/DataStore.hpp</text>
</a>
</g>
</g>
<!-- Node2&#45;&gt;Node4 -->
<g id="edge3_Node000002_Node000004" class="edge">
<title>Node2&#45;&gt;Node4</title>
<g id="a_edge3_Node000002_Node000004"><a xlink:title=" ">
<path fill="none" stroke="#63b8ff" d="M322.8,-147.91C311.35,-138.69 298.79,-128.56 288.13,-119.98"/>
<polygon fill="#63b8ff" stroke="#63b8ff" points="320.52,-150.58 330.51,-154.13 324.92,-145.13 320.52,-150.58"/>
</a>
</g>
</g>
<!-- Node5 -->
<g id="Node000005" class="node">
<title>Node5</title>
<g id="a_Node000005"><a xlink:href="TPBundleHandler_8hpp.html" target="_top" xlink:title=" ">
<polygon fill="white" stroke="#666666" points="539.88,-119.5 361.88,-119.5 361.88,-77.75 539.88,-77.75 539.88,-119.5"/>
<text text-anchor="start" x="369.88" y="-106" font-family="Helvetica,sans-Serif" font-size="10.00">/github/workspace/dev</text>
<text text-anchor="start" x="369.88" y="-94.75" font-family="Helvetica,sans-Serif" font-size="10.00">_area/sourcecode/dfmodules</text>
<text text-anchor="middle" x="450.88" y="-83.5" font-family="Helvetica,sans-Serif" font-size="10.00">/src/dfmodules/TPBundleHandler.hpp</text>
</a>
</g>
</g>
<!-- Node2&#45;&gt;Node5 -->
<g id="edge4_Node000002_Node000005" class="edge">
<title>Node2&#45;&gt;Node5</title>
<g id="a_edge4_Node000002_Node000005"><a xlink:title=" ">
<path fill="none" stroke="#63b8ff" d="M390.95,-147.91C402.4,-138.69 414.96,-128.56 425.62,-119.98"/>
<polygon fill="#63b8ff" stroke="#63b8ff" points="388.83,-145.13 383.24,-154.13 393.23,-150.58 388.83,-145.13"/>
</a>
</g>
</g>
<!-- Node7 -->
<g id="Node000007" class="node">
<title>Node7</title>
<g id="a_Node000007"><a xlink:href="HDF5RawDataFile_8hpp.html" target="_top" xlink:title=" ">
<polygon fill="white" stroke="#666666" points="746.12,-119.5 557.62,-119.5 557.62,-77.75 746.12,-77.75 746.12,-119.5"/>
<text text-anchor="start" x="565.62" y="-106" font-family="Helvetica,sans-Serif" font-size="10.00">/github/workspace/dev</text>
<text text-anchor="start" x="565.62" y="-94.75" font-family="Helvetica,sans-Serif" font-size="10.00">_area/sourcecode/hdf5libs</text>
<text text-anchor="middle" x="651.88" y="-83.5" font-family="Helvetica,sans-Serif" font-size="10.00">/include/hdf5libs/HDF5RawDataFile.hpp</text>
</a>
</g>
</g>
<!-- Node2&#45;&gt;Node7 -->
<g id="edge6_Node000002_Node000007" class="edge">
<title>Node2&#45;&gt;Node7</title>
<g id="a_edge6_Node000002_Node000007"><a xlink:title=" ">
<path fill="none" stroke="#63b8ff" d="M447.04,-152.22C487.12,-141.93 533.88,-129.92 572.6,-119.98"/>
<polygon fill="#63b8ff" stroke="#63b8ff" points="446.21,-148.82 437.4,-154.7 447.95,-155.6 446.21,-148.82"/>
</a>
</g>
</g>
<!-- Node6 -->
<g id="Node000006" class="node">
<title>Node6</title>
<g id="a_Node000006"><a xlink:href="TPBundleHandler_8cpp.html" target="_top" xlink:title=" ">
<polygon fill="white" stroke="#666666" points="326.5,-41.75 185.25,-41.75 185.25,0 326.5,0 326.5,-41.75"/>
<text text-anchor="start" x="193.25" y="-28.25" font-family="Helvetica,sans-Serif" font-size="10.00">/github/workspace/dev</text>
<text text-anchor="start" x="193.25" y="-17" font-family="Helvetica,sans-Serif" font-size="10.00">_area/sourcecode/dfmodules</text>
<text text-anchor="middle" x="255.88" y="-5.75" font-family="Helvetica,sans-Serif" font-size="10.00">/src/TPBundleHandler.cpp</text>
</a>
</g>
</g>
<!-- Node5&#45;&gt;Node6 -->
<g id="edge5_Node000005_Node000006" class="edge">
<title>Node5&#45;&gt;Node6</title>
<g id="a_edge5_Node000005_Node000006"><a xlink:title=" ">
<path fill="none" stroke="#63b8ff" d="M388.2,-73.28C362.41,-63.26 332.89,-51.79 308.28,-42.23"/>
<polygon fill="#63b8ff" stroke="#63b8ff" points="386.62,-76.42 397.21,-76.78 389.15,-69.89 386.62,-76.42"/>
</a>
</g>
</g>
<!-- Node8 -->
<g id="Node000008" class="node">
<title>Node8</title>
<g id="a_Node000008"><a xlink:href="hdf5rawdatafile_8cpp.html" target="_top" xlink:title=" ">
<polygon fill="white" stroke="#666666" points="491.12,-41.75 344.62,-41.75 344.62,0 491.12,0 491.12,-41.75"/>
<text text-anchor="start" x="352.62" y="-28.25" font-family="Helvetica,sans-Serif" font-size="10.00">/github/workspace/dev</text>
<text text-anchor="start" x="352.62" y="-17" font-family="Helvetica,sans-Serif" font-size="10.00">_area/sourcecode/hdf5libs</text>
<text text-anchor="middle" x="417.88" y="-5.75" font-family="Helvetica,sans-Serif" font-size="10.00">/pybindsrc/hdf5rawdatafile.cpp</text>
</a>
</g>
</g>
<!-- Node7&#45;&gt;Node8 -->
<g id="edge7_Node000007_Node000008" class="edge">
<title>Node7&#45;&gt;Node8</title>
<g id="a_edge7_Node000007_Node000008"><a xlink:title=" ">
<path fill="none" stroke="#63b8ff" d="M578.31,-73.81C546.98,-63.67 510.81,-51.96 480.76,-42.23"/>
<polygon fill="#63b8ff" stroke="#63b8ff" points="577.14,-77.11 587.73,-76.86 579.29,-70.45 577.14,-77.11"/>
</a>
</g>
</g>
<!-- Node9 -->
<g id="Node000009" class="node">
<title>Node9</title>
<g id="a_Node000009"><a xlink:href="HDF5RawDataFile_8cpp.html" target="_top" xlink:title=" ">
<polygon fill="white" stroke="#666666" points="644.12,-41.75 509.62,-41.75 509.62,0 644.12,0 644.12,-41.75"/>
<text text-anchor="start" x="517.62" y="-28.25" font-family="Helvetica,sans-Serif" font-size="10.00">/github/workspace/dev</text>
<text text-anchor="start" x="517.62" y="-17" font-family="Helvetica,sans-Serif" font-size="10.00">_area/sourcecode/hdf5libs</text>
<text text-anchor="middle" x="576.88" y="-5.75" font-family="Helvetica,sans-Serif" font-size="10.00">/src/HDF5RawDataFile.cpp</text>
</a>
</g>
</g>
<!-- Node7&#45;&gt;Node9 -->
<g id="edge8_Node000007_Node000009" class="edge">
<title>Node7&#45;&gt;Node9</title>
<g id="a_edge8_Node000007_Node000009"><a xlink:title=" ">
<path fill="none" stroke="#63b8ff" d="M623.87,-69.34C614.95,-60.34 605.27,-50.56 597.03,-42.23"/>
<polygon fill="#63b8ff" stroke="#63b8ff" points="621.19,-71.61 630.71,-76.25 626.16,-66.68 621.19,-71.61"/>
</a>
</g>
</g>
<!-- Node10 -->
<g id="Node000010" class="node">
<title>Node10</title>
<g id="a_Node000010"><a xlink:href="copy__tpstream_8cxx.html" target="_top" xlink:title=" ">
<polygon fill="white" stroke="#666666" points="791.12,-41.75 662.62,-41.75 662.62,0 791.12,0 791.12,-41.75"/>
<text text-anchor="start" x="670.62" y="-28.25" font-family="Helvetica,sans-Serif" font-size="10.00">/github/workspace/dev</text>
<text text-anchor="start" x="670.62" y="-17" font-family="Helvetica,sans-Serif" font-size="10.00">_area/sourcecode/trgtools</text>
<text text-anchor="middle" x="726.88" y="-5.75" font-family="Helvetica,sans-Serif" font-size="10.00">/apps/copy_tpstream.cxx</text>
</a>
</g>
</g>
<!-- Node7&#45;&gt;Node10 -->
<g id="edge9_Node000007_Node000010" class="edge">
<title>Node7&#45;&gt;Node10</title>
<g id="a_edge9_Node000007_Node000010"><a xlink:title=" ">
<path fill="none" stroke="#63b8ff" d="M679.88,-69.34C688.8,-60.34 698.48,-50.56 706.72,-42.23"/>
<polygon fill="#63b8ff" stroke="#63b8ff" points="677.59,-66.68 673.04,-76.25 682.56,-71.61 677.59,-66.68"/>
</a>
</g>
</g>
<!-- Node11 -->
<g id="Node000011" class="node">
<title>Node11</title>
<g id="a_Node000011"><a xlink:href="process__tpstream_8cxx.html" target="_top" xlink:title=" ">
<polygon fill="white" stroke="#666666" points="946.62,-41.75 809.12,-41.75 809.12,0 946.62,0 946.62,-41.75"/>
<text text-anchor="start" x="817.12" y="-28.25" font-family="Helvetica,sans-Serif" font-size="10.00">/github/workspace/dev</text>
<text text-anchor="start" x="817.12" y="-17" font-family="Helvetica,sans-Serif" font-size="10.00">_area/sourcecode/trgtools</text>
<text text-anchor="middle" x="877.88" y="-5.75" font-family="Helvetica,sans-Serif" font-size="10.00">/apps/process_tpstream.cxx</text>
</a>
</g>
</g>
<!-- Node7&#45;&gt;Node11 -->
<g id="edge10_Node000007_Node000011" class="edge">
<title>Node7&#45;&gt;Node11</title>
<g id="a_edge10_Node000007_Node000011"><a xlink:title=" ">
<path fill="none" stroke="#63b8ff" d="M723.32,-73.68C753.49,-63.57 788.24,-51.92 817.14,-42.23"/>
<polygon fill="#63b8ff" stroke="#63b8ff" points="722.24,-70.35 713.87,-76.84 724.47,-76.98 722.24,-70.35"/>
</a>
</g>
</g>
<!-- Node12 -->
<g id="Node000012" class="node">
<title>Node12</title>
<g id="a_Node000012"><a xlink:href="tapipe_8cxx.html" target="_top" xlink:title=" ">
<polygon fill="white" stroke="#666666" points="1093.12,-41.75 964.62,-41.75 964.62,0 1093.12,0 1093.12,-41.75"/>
<text text-anchor="start" x="972.62" y="-28.25" font-family="Helvetica,sans-Serif" font-size="10.00">/github/workspace/dev</text>
<text text-anchor="start" x="972.62" y="-17" font-family="Helvetica,sans-Serif" font-size="10.00">_area/sourcecode/trgtools</text>
<text text-anchor="middle" x="1028.88" y="-5.75" font-family="Helvetica,sans-Serif" font-size="10.00">/apps/tapipe.cxx</text>
</a>
</g>
</g>
<!-- Node7&#45;&gt;Node12 -->
<g id="edge11_Node000007_Node000012" class="edge">
<title>Node7&#45;&gt;Node12</title>
<g id="a_edge11_Node000007_Node000012"><a xlink:title=" ">
<path fill="none" stroke="#63b8ff" d="M757.55,-77.28C846.01,-61.16 870.8,-60.91 955.88,-41.75 958.69,-41.12 961.57,-40.44 964.47,-39.74"/>
<polygon fill="#63b8ff" stroke="#63b8ff" points="757.13,-73.8 747.93,-79.05 758.4,-80.68 757.13,-73.8"/>
</a>
</g>
</g>
<!-- Node13&#45;&gt;Node7 -->
<g id="edge14_Node000013_Node000007" class="edge">
<title>Node13&#45;&gt;Node7</title>
<g id="a_edge14_Node000013_Node000007"><a xlink:title=" ">
<path fill="none" stroke="#63b8ff" d="M651.88,-143.75C651.88,-135.71 651.88,-127.29 651.88,-119.98"/>
<polygon fill="#63b8ff" stroke="#63b8ff" points="648.38,-143.56 651.88,-153.56 655.38,-143.56 648.38,-143.56"/>
</a>
</g>
</g>
<!-- Node14 -->
<g id="Node000014" class="node">
<title>Node14</title>
<g id="a_Node000014"><a xlink:href="HDF5FileLayout_8cpp.html" target="_top" xlink:title=" ">
<polygon fill="white" stroke="#666666" points="893.88,-119.5 763.88,-119.5 763.88,-77.75 893.88,-77.75 893.88,-119.5"/>
<text text-anchor="start" x="771.88" y="-106" font-family="Helvetica,sans-Serif" font-size="10.00">/github/workspace/dev</text>
<text text-anchor="start" x="771.88" y="-94.75" font-family="Helvetica,sans-Serif" font-size="10.00">_area/sourcecode/hdf5libs</text>
<text text-anchor="middle" x="828.88" y="-83.5" font-family="Helvetica,sans-Serif" font-size="10.00">/src/HDF5FileLayout.cpp</text>
</a>
</g>
</g>
<!-- Node13&#45;&gt;Node14 -->
<g id="edge15_Node000013_Node000014" class="edge">
<title>Node13&#45;&gt;Node14</title>
<g id="a_edge15_Node000013_Node000014"><a xlink:title=" ">
<path fill="none" stroke="#63b8ff" d="M709.71,-150.63C732.89,-140.7 759.27,-129.41 781.31,-119.98"/>
<polygon fill="#63b8ff" stroke="#63b8ff" points="708.52,-147.33 700.7,-154.48 711.27,-153.76 708.52,-147.33"/>
</a>
</g>
</g>
</g>
</svg>
