<?xml version="1.0" encoding="UTF-8" standalone="no"?>
<!DOCTYPE svg PUBLIC "-//W3C//DTD SVG 1.1//EN"
 "http://www.w3.org/Graphics/SVG/1.1/DTD/svg11.dtd">
<!-- Generated by graphviz version 9.0.0 (20230911.1827)
 -->
<!-- Title: /github/workspace/dev_area/sourcecode/daqdataformats/include/daqdataformats/TimeSlice.hpp Pages: 1 -->
<svg width="1228pt" height="205pt"
 viewBox="0.00 0.00 1228.12 205.25" xmlns="http://www.w3.org/2000/svg" xmlns:xlink="http://www.w3.org/1999/xlink">
<g id="graph0" class="graph" transform="scale(1 1) rotate(0) translate(4 201.25)">
<title>/github/workspace/dev_area/sourcecode/daqdataformats/include/daqdataformats/TimeSlice.hpp</title>
<!-- Node1 -->
<g id="Node000001" class="node">
<title>Node1</title>
<g id="a_Node000001"><a xlink:title=" ">
<polygon fill="#999999" stroke="#666666" points="449.25,-197.25 264.5,-197.25 264.5,-155.5 449.25,-155.5 449.25,-197.25"/>
<text text-anchor="start" x="272.5" y="-183.75" font-family="Helvetica,sans-Serif" font-size="10.00">/github/workspace/dev</text>
<text text-anchor="start" x="272.5" y="-172.5" font-family="Helvetica,sans-Serif" font-size="10.00">_area/sourcecode/daqdataformats</text>
<text text-anchor="middle" x="356.88" y="-161.25" font-family="Helvetica,sans-Serif" font-size="10.00">/include/daqdataformats/TimeSlice.hpp</text>
</a>
</g>
</g>
<!-- Node2 -->
<g id="Node000002" class="node">
<title>Node2</title>
<g id="a_Node000002"><a xlink:href="time__slice_8cpp.html" target="_top" xlink:title=" ">
<polygon fill="white" stroke="#666666" points="163.75,-119.5 0,-119.5 0,-77.75 163.75,-77.75 163.75,-119.5"/>
<text text-anchor="start" x="8" y="-106" font-family="Helvetica,sans-Serif" font-size="10.00">/github/workspace/dev</text>
<text text-anchor="start" x="8" y="-94.75" font-family="Helvetica,sans-Serif" font-size="10.00">_area/sourcecode/daqdataformats</text>
<text text-anchor="middle" x="81.88" y="-83.5" font-family="Helvetica,sans-Serif" font-size="10.00">/pybindsrc/time_slice.cpp</text>
</a>
</g>
</g>
<!-- Node1&#45;&gt;Node2 -->
<g id="edge1_Node000001_Node000002" class="edge">
<title>Node1&#45;&gt;Node2</title>
<g id="a_edge1_Node000001_Node000002"><a xlink:title=" ">
<path fill="none" stroke="#63b8ff" d="M272.34,-152.09C235.09,-141.83 191.71,-129.88 155.77,-119.98"/>
<polygon fill="#63b8ff" stroke="#63b8ff" points="271.15,-155.39 281.72,-154.67 273.01,-148.64 271.15,-155.39"/>
</a>
</g>
</g>
<!-- Node3 -->
<g id="Node000003" class="node">
<title>Node3</title>
<g id="a_Node000003"><a xlink:href="DataStore_8hpp.html" target="_top" xlink:title=" ">
<polygon fill="white" stroke="#666666" points="344,-119.5 181.75,-119.5 181.75,-77.75 344,-77.75 344,-119.5"/>
<text text-anchor="start" x="189.75" y="-106" font-family="Helvetica,sans-Serif" font-size="10.00">/github/workspace/dev</text>
<text text-anchor="start" x="189.75" y="-94.75" font-family="Helvetica,sans-Serif" font-size="10.00">_area/sourcecode/dfmodules</text>
<text text-anchor="middle" x="262.88" y="-83.5" font-family="Helvetica,sans-Serif" font-size="10.00">/include/dfmodules/DataStore.hpp</text>
</a>
</g>
</g>
<!-- Node1&#45;&gt;Node3 -->
<g id="edge2_Node000001_Node000003" class="edge">
<title>Node1&#45;&gt;Node3</title>
<g id="a_edge2_Node000001_Node000003"><a xlink:title=" ">
<path fill="none" stroke="#63b8ff" d="M322.8,-147.91C311.35,-138.69 298.79,-128.56 288.13,-119.98"/>
<polygon fill="#63b8ff" stroke="#63b8ff" points="320.52,-150.58 330.51,-154.13 324.92,-145.13 320.52,-150.58"/>
</a>
</g>
</g>
<!-- Node4 -->
<g id="Node000004" class="node">
<title>Node4</title>
<g id="a_Node000004"><a xlink:href="TPBundleHandler_8hpp.html" target="_top" xlink:title=" ">
<polygon fill="white" stroke="#666666" points="539.88,-119.5 361.88,-119.5 361.88,-77.75 539.88,-77.75 539.88,-119.5"/>
<text text-anchor="start" x="369.88" y="-106" font-family="Helvetica,sans-Serif" font-size="10.00">/github/workspace/dev</text>
<text text-anchor="start" x="369.88" y="-94.75" font-family="Helvetica,sans-Serif" font-size="10.00">_area/sourcecode/dfmodules</text>
<text text-anchor="middle" x="450.88" y="-83.5" font-family="Helvetica,sans-Serif" font-size="10.00">/src/dfmodules/TPBundleHandler.hpp</text>
</a>
</g>
</g>
<!-- Node1&#45;&gt;Node4 -->
<g id="edge3_Node000001_Node000004" class="edge">
<title>Node1&#45;&gt;Node4</title>
<g id="a_edge3_Node000001_Node000004"><a xlink:title=" ">
<path fill="none" stroke="#63b8ff" d="M390.95,-147.91C402.4,-138.69 414.96,-128.56 425.62,-119.98"/>
<polygon fill="#63b8ff" stroke="#63b8ff" points="388.83,-145.13 383.24,-154.13 393.23,-150.58 388.83,-145.13"/>
</a>
</g>
</g>
<!-- Node6 -->
<g id="Node000006" class="node">
<title>Node6</title>
<g id="a_Node000006"><a xlink:href="HDF5RawDataFile_8hpp.html" target="_top" xlink:title=" ">
<polygon fill="white" stroke="#666666" points="881.12,-119.5 692.62,-119.5 692.62,-77.75 881.12,-77.75 881.12,-119.5"/>
<text text-anchor="start" x="700.62" y="-106" font-family="Helvetica,sans-Serif" font-size="10.00">/github/workspace/dev</text>
<text text-anchor="start" x="700.62" y="-94.75" font-family="Helvetica,sans-Serif" font-size="10.00">_area/sourcecode/hdf5libs</text>
<text text-anchor="middle" x="786.88" y="-83.5" font-family="Helvetica,sans-Serif" font-size="10.00">/include/hdf5libs/HDF5RawDataFile.hpp</text>
</a>
</g>
</g>
<!-- Node1&#45;&gt;Node6 -->
<g id="edge5_Node000001_Node000006" class="edge">
<title>Node1&#45;&gt;Node6</title>
<g id="a_edge5_Node000001_Node000006"><a xlink:title=" ">
<path fill="none" stroke="#63b8ff" d="M460.78,-157.07C531.35,-144.64 623.93,-128.33 692.41,-116.27"/>
<polygon fill="#63b8ff" stroke="#63b8ff" points="460.38,-153.59 451.14,-158.77 461.6,-160.48 460.38,-153.59"/>
</a>
</g>
</g>
<!-- Node5 -->
<g id="Node000005" class="node">
<title>Node5</title>
<g id="a_Node000005"><a xlink:href="TPBundleHandler_8cpp.html" target="_top" xlink:title=" ">
<polygon fill="white" stroke="#666666" points="453.5,-41.75 312.25,-41.75 312.25,0 453.5,0 453.5,-41.75"/>
<text text-anchor="start" x="320.25" y="-28.25" font-family="Helvetica,sans-Serif" font-size="10.00">/github/workspace/dev</text>
<text text-anchor="start" x="320.25" y="-17" font-family="Helvetica,sans-Serif" font-size="10.00">_area/sourcecode/dfmodules</text>
<text text-anchor="middle" x="382.88" y="-5.75" font-family="Helvetica,sans-Serif" font-size="10.00">/src/TPBundleHandler.cpp</text>
</a>
</g>
</g>
<!-- Node4&#45;&gt;Node5 -->
<g id="edge4_Node000004_Node000005" class="edge">
<title>Node4&#45;&gt;Node5</title>
<g id="a_edge4_Node000004_Node000005"><a xlink:title=" ">
<path fill="none" stroke="#63b8ff" d="M424.99,-68.79C417.04,-59.94 408.47,-50.39 401.15,-42.23"/>
<polygon fill="#63b8ff" stroke="#63b8ff" points="422.36,-71.1 431.64,-76.2 427.57,-66.42 422.36,-71.1"/>
</a>
</g>
</g>
<!-- Node7 -->
<g id="Node000007" class="node">
<title>Node7</title>
<g id="a_Node000007"><a xlink:href="hdf5rawdatafile_8cpp.html" target="_top" xlink:title=" ">
<polygon fill="white" stroke="#666666" points="618.12,-41.75 471.62,-41.75 471.62,0 618.12,0 618.12,-41.75"/>
<text text-anchor="start" x="479.62" y="-28.25" font-family="Helvetica,sans-Serif" font-size="10.00">/github/workspace/dev</text>
<text text-anchor="start" x="479.62" y="-17" font-family="Helvetica,sans-Serif" font-size="10.00">_area/sourcecode/hdf5libs</text>
<text text-anchor="middle" x="544.88" y="-5.75" font-family="Helvetica,sans-Serif" font-size="10.00">/pybindsrc/hdf5rawdatafile.cpp</text>
</a>
</g>
</g>
<!-- Node6&#45;&gt;Node7 -->
<g id="edge6_Node000006_Node000007" class="edge">
<title>Node6&#45;&gt;Node7</title>
<g id="a_edge6_Node000006_Node000007"><a xlink:title=" ">
<path fill="none" stroke="#63b8ff" d="M711.22,-73.94C678.72,-63.77 641.13,-52 609.91,-42.23"/>
<polygon fill="#63b8ff" stroke="#63b8ff" points="709.99,-77.23 720.58,-76.87 712.08,-70.55 709.99,-77.23"/>
</a>
</g>
</g>
<!-- Node8 -->
<g id="Node000008" class="node">
<title>Node8</title>
<g id="a_Node000008"><a xlink:href="HDF5RawDataFile_8cpp.html" target="_top" xlink:title=" ">
<polygon fill="white" stroke="#666666" points="771.12,-41.75 636.62,-41.75 636.62,0 771.12,0 771.12,-41.75"/>
<text text-anchor="start" x="644.62" y="-28.25" font-family="Helvetica,sans-Serif" font-size="10.00">/github/workspace/dev</text>
<text text-anchor="start" x="644.62" y="-17" font-family="Helvetica,sans-Serif" font-size="10.00">_area/sourcecode/hdf5libs</text>
<text text-anchor="middle" x="703.88" y="-5.75" font-family="Helvetica,sans-Serif" font-size="10.00">/src/HDF5RawDataFile.cpp</text>
</a>
</g>
</g>
<!-- Node6&#45;&gt;Node8 -->
<g id="edge7_Node000006_Node000008" class="edge">
<title>Node6&#45;&gt;Node8</title>
<g id="a_edge7_Node000006_Node000008"><a xlink:title=" ">
<path fill="none" stroke="#63b8ff" d="M756.18,-69.61C746.24,-60.53 735.4,-50.64 726.18,-42.23"/>
<polygon fill="#63b8ff" stroke="#63b8ff" points="753.77,-72.15 763.51,-76.31 758.49,-66.98 753.77,-72.15"/>
</a>
</g>
</g>
<!-- Node9 -->
<g id="Node000009" class="node">
<title>Node9</title>
<g id="a_Node000009"><a xlink:href="copy__tpstream_8cxx.html" target="_top" xlink:title=" ">
<polygon fill="white" stroke="#666666" points="918.12,-41.75 789.62,-41.75 789.62,0 918.12,0 918.12,-41.75"/>
<text text-anchor="start" x="797.62" y="-28.25" font-family="Helvetica,sans-Serif" font-size="10.00">/github/workspace/dev</text>
<text text-anchor="start" x="797.62" y="-17" font-family="Helvetica,sans-Serif" font-size="10.00">_area/sourcecode/trgtools</text>
<text text-anchor="middle" x="853.88" y="-5.75" font-family="Helvetica,sans-Serif" font-size="10.00">/apps/copy_tpstream.cxx</text>
</a>
</g>
</g>
<!-- Node6&#45;&gt;Node9 -->
<g id="edge8_Node000006_Node000009" class="edge">
<title>Node6&#45;&gt;Node9</title>
<g id="a_edge8_Node000006_Node000009"><a xlink:title=" ">
<path fill="none" stroke="#63b8ff" d="M812.38,-68.79C820.21,-59.94 828.66,-50.39 835.87,-42.23"/>
<polygon fill="#63b8ff" stroke="#63b8ff" points="809.84,-66.38 805.83,-76.19 815.08,-71.02 809.84,-66.38"/>
</a>
</g>
</g>
<!-- Node10 -->
<g id="Node000010" class="node">
<title>Node10</title>
<g id="a_Node000010"><a xlink:href="process__tpstream_8cxx.html" target="_top" xlink:title=" ">
<polygon fill="white" stroke="#666666" points="1073.62,-41.75 936.12,-41.75 936.12,0 1073.62,0 1073.62,-41.75"/>
<text text-anchor="start" x="944.12" y="-28.25" font-family="Helvetica,sans-Serif" font-size="10.00">/github/workspace/dev</text>
<text text-anchor="start" x="944.12" y="-17" font-family="Helvetica,sans-Serif" font-size="10.00">_area/sourcecode/trgtools</text>
<text text-anchor="middle" x="1004.88" y="-5.75" font-family="Helvetica,sans-Serif" font-size="10.00">/apps/process_tpstream.cxx</text>
</a>
</g>
</g>
<!-- Node6&#45;&gt;Node10 -->
<g id="edge9_Node000006_Node000010" class="edge">
<title>Node6&#45;&gt;Node10</title>
<g id="a_edge9_Node000006_Node000010"><a xlink:title=" ">
<path fill="none" stroke="#63b8ff" d="M855.8,-73.68C884.89,-63.57 918.41,-51.92 946.29,-42.23"/>
<polygon fill="#63b8ff" stroke="#63b8ff" points="855.02,-70.24 846.72,-76.83 857.32,-76.85 855.02,-70.24"/>
</a>
</g>
</g>
<!-- Node11 -->
<g id="Node000011" class="node">
<title>Node11</title>
<g id="a_Node000011"><a xlink:href="tapipe_8cxx.html" target="_top" xlink:title=" ">
<polygon fill="white" stroke="#666666" points="1220.12,-41.75 1091.62,-41.75 1091.62,0 1220.12,0 1220.12,-41.75"/>
<text text-anchor="start" x="1099.62" y="-28.25" font-family="Helvetica,sans-Serif" font-size="10.00">/github/workspace/dev</text>
<text text-anchor="start" x="1099.62" y="-17" font-family="Helvetica,sans-Serif" font-size="10.00">_area/sourcecode/trgtools</text>
<text text-anchor="middle" x="1155.88" y="-5.75" font-family="Helvetica,sans-Serif" font-size="10.00">/apps/tapipe.cxx</text>
</a>
</g>
</g>
<!-- Node6&#45;&gt;Node11 -->
<g id="edge10_Node000006_Node000011" class="edge">
<title>Node6&#45;&gt;Node11</title>
<g id="a_edge10_Node000006_Node000011"><a xlink:title=" ">
<path fill="none" stroke="#63b8ff" d="M892.72,-79.74C949.35,-69.65 1020.17,-56.18 1082.88,-41.75 1085.69,-41.1 1088.56,-40.42 1091.46,-39.71"/>
<polygon fill="#63b8ff" stroke="#63b8ff" points="892.31,-76.26 883.08,-81.45 893.53,-83.15 892.31,-76.26"/>
</a>
</g>
</g>
</g>
</svg>
