<?xml version="1.0" encoding="UTF-8" standalone="no"?>
<!DOCTYPE svg PUBLIC "-//W3C//DTD SVG 1.1//EN"
 "http://www.w3.org/Graphics/SVG/1.1/DTD/svg11.dtd">
<!-- Generated by graphviz version 9.0.0 (20230911.1827)
 -->
<!-- Title: /github/workspace/dev_area/sourcecode/utilities/include/utilities/TimestampEstimatorBase.hpp Pages: 1 -->
<svg width="581pt" height="228pt"
 viewBox="0.00 0.00 581.25 227.75" xmlns="http://www.w3.org/2000/svg" xmlns:xlink="http://www.w3.org/1999/xlink">
<g id="graph0" class="graph" transform="scale(1 1) rotate(0) translate(4 223.75)">
<title>/github/workspace/dev_area/sourcecode/utilities/include/utilities/TimestampEstimatorBase.hpp</title>
<!-- Node1 -->
<g id="Node000001" class="node">
<title>Node1</title>
<g id="a_Node000001"><a xlink:title=" ">
<polygon fill="#999999" stroke="#666666" points="389.5,-219.75 213,-219.75 213,-166.75 389.5,-166.75 389.5,-219.75"/>
<text text-anchor="start" x="221" y="-206.25" font-family="Helvetica,sans-Serif" font-size="10.00">/github/workspace/dev</text>
<text text-anchor="start" x="221" y="-195" font-family="Helvetica,sans-Serif" font-size="10.00">_area/sourcecode/utilities</text>
<text text-anchor="start" x="221" y="-183.75" font-family="Helvetica,sans-Serif" font-size="10.00">/include/utilities/TimestampEstimator</text>
<text text-anchor="middle" x="301.25" y="-172.5" font-family="Helvetica,sans-Serif" font-size="10.00">Base.hpp</text>
</a>
</g>
</g>
<!-- Node2 -->
<g id="Node000002" class="node">
<title>Node2</title>
<g id="a_Node000002"><a xlink:href="TimestampEstimator_8hpp.html" target="_top" xlink:title=" ">
<polygon fill="white" stroke="#666666" points="194.5,-125.12 0,-125.12 0,-83.38 194.5,-83.38 194.5,-125.12"/>
<text text-anchor="start" x="8" y="-111.62" font-family="Helvetica,sans-Serif" font-size="10.00">/github/workspace/dev</text>
<text text-anchor="start" x="8" y="-100.38" font-family="Helvetica,sans-Serif" font-size="10.00">_area/sourcecode/utilities</text>
<text text-anchor="middle" x="97.25" y="-89.12" font-family="Helvetica,sans-Serif" font-size="10.00">/include/utilities/TimestampEstimator.hpp</text>
</a>
</g>
</g>
<!-- Node1&#45;&gt;Node2 -->
<g id="edge1_Node000001_Node000002" class="edge">
<title>Node1&#45;&gt;Node2</title>
<g id="a_edge1_Node000001_Node000002"><a xlink:title=" ">
<path fill="none" stroke="#63b8ff" d="M229.74,-161.75C201.65,-149.77 170.15,-136.34 144.92,-125.58"/>
<polygon fill="#63b8ff" stroke="#63b8ff" points="228.36,-164.97 238.93,-165.67 231.1,-158.53 228.36,-164.97"/>
</a>
</g>
</g>
<!-- Node4 -->
<g id="Node000004" class="node">
<title>Node4</title>
<g id="a_Node000004"><a xlink:href="TimestampEstimatorSystem_8hpp.html" target="_top" xlink:title=" ">
<polygon fill="white" stroke="#666666" points="389.5,-130.75 213,-130.75 213,-77.75 389.5,-77.75 389.5,-130.75"/>
<text text-anchor="start" x="221" y="-117.25" font-family="Helvetica,sans-Serif" font-size="10.00">/github/workspace/dev</text>
<text text-anchor="start" x="221" y="-106" font-family="Helvetica,sans-Serif" font-size="10.00">_area/sourcecode/utilities</text>
<text text-anchor="start" x="221" y="-94.75" font-family="Helvetica,sans-Serif" font-size="10.00">/include/utilities/TimestampEstimator</text>
<text text-anchor="middle" x="301.25" y="-83.5" font-family="Helvetica,sans-Serif" font-size="10.00">System.hpp</text>
</a>
</g>
</g>
<!-- Node1&#45;&gt;Node4 -->
<g id="edge3_Node000001_Node000004" class="edge">
<title>Node1&#45;&gt;Node4</title>
<g id="a_edge3_Node000001_Node000004"><a xlink:title=" ">
<path fill="none" stroke="#63b8ff" d="M301.25,-155.36C301.25,-147.16 301.25,-138.64 301.25,-131"/>
<polygon fill="#63b8ff" stroke="#63b8ff" points="297.75,-155.1 301.25,-165.1 304.75,-155.1 297.75,-155.1"/>
</a>
</g>
</g>
<!-- Node6 -->
<g id="Node000006" class="node">
<title>Node6</title>
<g id="a_Node000006"><a xlink:href="TimestampEstimatorBase_8cpp.html" target="_top" xlink:title=" ">
<polygon fill="white" stroke="#666666" points="573.25,-125.12 407.25,-125.12 407.25,-83.38 573.25,-83.38 573.25,-125.12"/>
<text text-anchor="start" x="415.25" y="-111.62" font-family="Helvetica,sans-Serif" font-size="10.00">/github/workspace/dev</text>
<text text-anchor="start" x="415.25" y="-100.38" font-family="Helvetica,sans-Serif" font-size="10.00">_area/sourcecode/utilities</text>
<text text-anchor="middle" x="490.25" y="-89.12" font-family="Helvetica,sans-Serif" font-size="10.00">/src/TimestampEstimatorBase.cpp</text>
</a>
</g>
</g>
<!-- Node1&#45;&gt;Node6 -->
<g id="edge5_Node000001_Node000006" class="edge">
<title>Node1&#45;&gt;Node6</title>
<g id="a_edge5_Node000001_Node000006"><a xlink:title=" ">
<path fill="none" stroke="#63b8ff" d="M367.85,-161.59C393.79,-149.65 422.81,-136.29 446.08,-125.58"/>
<polygon fill="#63b8ff" stroke="#63b8ff" points="366.7,-158.27 359.08,-165.63 369.62,-164.63 366.7,-158.27"/>
</a>
</g>
</g>
<!-- Node3 -->
<g id="Node000003" class="node">
<title>Node3</title>
<g id="a_Node000003"><a xlink:href="TimestampEstimator_8cpp.html" target="_top" xlink:title=" ">
<polygon fill="white" stroke="#666666" points="169,-41.75 25.5,-41.75 25.5,0 169,0 169,-41.75"/>
<text text-anchor="start" x="33.5" y="-28.25" font-family="Helvetica,sans-Serif" font-size="10.00">/github/workspace/dev</text>
<text text-anchor="start" x="33.5" y="-17" font-family="Helvetica,sans-Serif" font-size="10.00">_area/sourcecode/utilities</text>
<text text-anchor="middle" x="97.25" y="-5.75" font-family="Helvetica,sans-Serif" font-size="10.00">/src/TimestampEstimator.cpp</text>
</a>
</g>
</g>
<!-- Node2&#45;&gt;Node3 -->
<g id="edge2_Node000002_Node000003" class="edge">
<title>Node2&#45;&gt;Node3</title>
<g id="a_edge2_Node000002_Node000003"><a xlink:title=" ">
<path fill="none" stroke="#63b8ff" d="M97.25,-71.89C97.25,-61.87 97.25,-51.05 97.25,-42.04"/>
<polygon fill="#63b8ff" stroke="#63b8ff" points="93.75,-71.62 97.25,-81.62 100.75,-71.62 93.75,-71.62"/>
</a>
</g>
</g>
<!-- Node5 -->
<g id="Node000005" class="node">
<title>Node5</title>
<g id="a_Node000005"><a xlink:href="TimestampEstimatorSystem_8cpp.html" target="_top" xlink:title=" ">
<polygon fill="white" stroke="#666666" points="389.5,-41.75 213,-41.75 213,0 389.5,0 389.5,-41.75"/>
<text text-anchor="start" x="221" y="-28.25" font-family="Helvetica,sans-Serif" font-size="10.00">/github/workspace/dev</text>
<text text-anchor="start" x="221" y="-17" font-family="Helvetica,sans-Serif" font-size="10.00">_area/sourcecode/utilities</text>
<text text-anchor="middle" x="301.25" y="-5.75" font-family="Helvetica,sans-Serif" font-size="10.00">/src/TimestampEstimatorSystem.cpp</text>
</a>
</g>
</g>
<!-- Node4&#45;&gt;Node5 -->
<g id="edge4_Node000004_Node000005" class="edge">
<title>Node4&#45;&gt;Node5</title>
<g id="a_edge4_Node000004_Node000005"><a xlink:title=" ">
<path fill="none" stroke="#63b8ff" d="M301.25,-66.08C301.25,-57.8 301.25,-49.33 301.25,-42.04"/>
<polygon fill="#63b8ff" stroke="#63b8ff" points="297.75,-65.99 301.25,-75.99 304.75,-65.99 297.75,-65.99"/>
</a>
</g>
</g>
</g>
</svg>
