<?xml version="1.0" encoding="UTF-8" standalone="no"?>
<!DOCTYPE svg PUBLIC "-//W3C//DTD SVG 1.1//EN"
 "http://www.w3.org/Graphics/SVG/1.1/DTD/svg11.dtd">
<!-- Generated by graphviz version 9.0.0 (20230911.1827)
 -->
<!-- Title: /github/workspace/dev_area/build/timinglibs/codegen/include/timinglibs/timingpartitioncontroller/Nljs.hpp Pages: 1 -->
<svg width="284pt" height="194pt"
 viewBox="0.00 0.00 283.88 194.00" xmlns="http://www.w3.org/2000/svg" xmlns:xlink="http://www.w3.org/1999/xlink">
<g id="graph0" class="graph" transform="scale(1 1) rotate(0) translate(4 190)">
<title>/github/workspace/dev_area/build/timinglibs/codegen/include/timinglibs/timingpartitioncontroller/Nljs.hpp</title>
<!-- Node1 -->
<g id="Node000001" class="node">
<title>Node1</title>
<g id="a_Node000001"><a xlink:title=" ">
<polygon fill="#999999" stroke="#666666" points="220.25,-186 86.5,-186 86.5,-121.75 220.25,-121.75 220.25,-186"/>
<text text-anchor="start" x="94.5" y="-172.5" font-family="Helvetica,sans-Serif" font-size="10.00">/github/workspace/dev</text>
<text text-anchor="start" x="94.5" y="-161.25" font-family="Helvetica,sans-Serif" font-size="10.00">_area/build/timinglibs</text>
<text text-anchor="start" x="94.5" y="-150" font-family="Helvetica,sans-Serif" font-size="10.00">/codegen/include/timinglibs</text>
<text text-anchor="start" x="94.5" y="-138.75" font-family="Helvetica,sans-Serif" font-size="10.00">/timingpartitioncontroller</text>
<text text-anchor="middle" x="153.38" y="-127.5" font-family="Helvetica,sans-Serif" font-size="10.00">/Nljs.hpp</text>
</a>
</g>
</g>
<!-- Node2 -->
<g id="Node000002" class="node">
<title>Node2</title>
<g id="a_Node000002"><a xlink:href="timinglibs_2codegen_2include_2timinglibs_2timingpartitioncontroller_2Structs_8hpp.html" target="_top" xlink:title=" ">
<polygon fill="white" stroke="#666666" points="160.75,-85.75 0,-85.75 0,-55.25 160.75,-55.25 160.75,-85.75"/>
<text text-anchor="start" x="8" y="-72.25" font-family="Helvetica,sans-Serif" font-size="10.00">timinglibs/timingpartitioncontroller</text>
<text text-anchor="middle" x="80.38" y="-61" font-family="Helvetica,sans-Serif" font-size="10.00">/Structs.hpp</text>
</a>
</g>
</g>
<!-- Node1&#45;&gt;Node2 -->
<g id="edge1_Node000001_Node000002" class="edge">
<title>Node1&#45;&gt;Node2</title>
<g id="a_edge1_Node000001_Node000002"><a xlink:title=" ">
<path fill="none" stroke="#63b8ff" d="M125.36,-121.65C117.33,-112.69 108.72,-103.09 101.2,-94.71"/>
<polygon fill="#63b8ff" stroke="#63b8ff" points="103.85,-92.42 94.56,-87.32 98.64,-97.1 103.85,-92.42"/>
</a>
</g>
</g>
<!-- Node5 -->
<g id="Node000005" class="node">
<title>Node5</title>
<g id="a_Node000005"><a xlink:title=" ">
<polygon fill="#e0e0e0" stroke="#999999" points="275.88,-80.12 178.88,-80.12 178.88,-60.88 275.88,-60.88 275.88,-80.12"/>
<text text-anchor="middle" x="227.38" y="-66.62" font-family="Helvetica,sans-Serif" font-size="10.00">nlohmann/json.hpp</text>
</a>
</g>
</g>
<!-- Node1&#45;&gt;Node5 -->
<g id="edge4_Node000001_Node000005" class="edge">
<title>Node1&#45;&gt;Node5</title>
<g id="a_edge4_Node000001_Node000005"><a xlink:title=" ">
<path fill="none" stroke="#63b8ff" d="M181.77,-121.65C191.9,-110.51 202.95,-98.36 211.63,-88.82"/>
<polygon fill="#63b8ff" stroke="#63b8ff" points="213.96,-91.45 218.1,-81.7 208.78,-86.74 213.96,-91.45"/>
</a>
</g>
</g>
<!-- Node3 -->
<g id="Node000003" class="node">
<title>Node3</title>
<g id="a_Node000003"><a xlink:title=" ">
<polygon fill="#e0e0e0" stroke="#999999" points="73,-19.25 27.75,-19.25 27.75,0 73,0 73,-19.25"/>
<text text-anchor="middle" x="50.38" y="-5.75" font-family="Helvetica,sans-Serif" font-size="10.00">cstdint</text>
</a>
</g>
</g>
<!-- Node2&#45;&gt;Node3 -->
<g id="edge2_Node000002_Node000003" class="edge">
<title>Node2&#45;&gt;Node3</title>
<g id="a_edge2_Node000002_Node000003"><a xlink:title=" ">
<path fill="none" stroke="#63b8ff" d="M72.96,-54.95C69.09,-47.36 64.32,-37.99 60.15,-29.82"/>
<polygon fill="#63b8ff" stroke="#63b8ff" points="63.35,-28.37 55.69,-21.05 57.11,-31.55 63.35,-28.37"/>
</a>
</g>
</g>
<!-- Node4 -->
<g id="Node000004" class="node">
<title>Node4</title>
<g id="a_Node000004"><a xlink:title=" ">
<polygon fill="#e0e0e0" stroke="#999999" points="131.38,-19.25 91.38,-19.25 91.38,0 131.38,0 131.38,-19.25"/>
<text text-anchor="middle" x="111.38" y="-5.75" font-family="Helvetica,sans-Serif" font-size="10.00">string</text>
</a>
</g>
</g>
<!-- Node2&#45;&gt;Node4 -->
<g id="edge3_Node000002_Node000004" class="edge">
<title>Node2&#45;&gt;Node4</title>
<g id="a_edge3_Node000002_Node000004"><a xlink:title=" ">
<path fill="none" stroke="#63b8ff" d="M88.04,-54.95C92.03,-47.36 96.97,-37.99 101.27,-29.82"/>
<polygon fill="#63b8ff" stroke="#63b8ff" points="104.33,-31.52 105.89,-21.04 98.13,-28.26 104.33,-31.52"/>
</a>
</g>
</g>
</g>
</svg>
