<?xml version="1.0" encoding="UTF-8" standalone="no"?>
<!DOCTYPE svg PUBLIC "-//W3C//DTD SVG 1.1//EN"
 "http://www.w3.org/Graphics/SVG/1.1/DTD/svg11.dtd">
<!-- Generated by graphviz version 9.0.0 (20230911.1827)
 -->
<!-- Title: /github/workspace/dev_area/build/timinglibs/codegen/include/timinglibs/timingfanoutcontrollerinfo/InfoNljs.hpp Pages: 1 -->
<svg width="292pt" height="194pt"
 viewBox="0.00 0.00 292.00 194.00" xmlns="http://www.w3.org/2000/svg" xmlns:xlink="http://www.w3.org/1999/xlink">
<g id="graph0" class="graph" transform="scale(1 1) rotate(0) translate(4 190)">
<title>/github/workspace/dev_area/build/timinglibs/codegen/include/timinglibs/timingfanoutcontrollerinfo/InfoNljs.hpp</title>
<!-- Node1 -->
<g id="Node000001" class="node">
<title>Node1</title>
<g id="a_Node000001"><a xlink:title=" ">
<polygon fill="#999999" stroke="#666666" points="226.38,-186 92.62,-186 92.62,-121.75 226.38,-121.75 226.38,-186"/>
<text text-anchor="start" x="100.62" y="-172.5" font-family="Helvetica,sans-Serif" font-size="10.00">/github/workspace/dev</text>
<text text-anchor="start" x="100.62" y="-161.25" font-family="Helvetica,sans-Serif" font-size="10.00">_area/build/timinglibs</text>
<text text-anchor="start" x="100.62" y="-150" font-family="Helvetica,sans-Serif" font-size="10.00">/codegen/include/timinglibs</text>
<text text-anchor="start" x="100.62" y="-138.75" font-family="Helvetica,sans-Serif" font-size="10.00">/timingfanoutcontrollerinfo</text>
<text text-anchor="middle" x="159.5" y="-127.5" font-family="Helvetica,sans-Serif" font-size="10.00">/InfoNljs.hpp</text>
</a>
</g>
</g>
<!-- Node2 -->
<g id="Node000002" class="node">
<title>Node2</title>
<g id="a_Node000002"><a xlink:href="timinglibs_2codegen_2include_2timinglibs_2timingfanoutcontrollerinfo_2InfoStructs_8hpp.html" target="_top" xlink:title=" ">
<polygon fill="white" stroke="#666666" points="169,-85.75 0,-85.75 0,-55.25 169,-55.25 169,-85.75"/>
<text text-anchor="start" x="8" y="-72.25" font-family="Helvetica,sans-Serif" font-size="10.00">timinglibs/timingfanoutcontrollerinfo</text>
<text text-anchor="middle" x="84.5" y="-61" font-family="Helvetica,sans-Serif" font-size="10.00">/InfoStructs.hpp</text>
</a>
</g>
</g>
<!-- Node1&#45;&gt;Node2 -->
<g id="edge1_Node000001_Node000002" class="edge">
<title>Node1&#45;&gt;Node2</title>
<g id="a_edge1_Node000001_Node000002"><a xlink:title=" ">
<path fill="none" stroke="#63b8ff" d="M130.72,-121.65C122.38,-112.6 113.43,-102.89 105.65,-94.45"/>
<polygon fill="#63b8ff" stroke="#63b8ff" points="108.42,-92.28 99.06,-87.3 103.27,-97.03 108.42,-92.28"/>
</a>
</g>
</g>
<!-- Node5 -->
<g id="Node000005" class="node">
<title>Node5</title>
<g id="a_Node000005"><a xlink:title=" ">
<polygon fill="#e0e0e0" stroke="#999999" points="284,-80.12 187,-80.12 187,-60.88 284,-60.88 284,-80.12"/>
<text text-anchor="middle" x="235.5" y="-66.62" font-family="Helvetica,sans-Serif" font-size="10.00">nlohmann/json.hpp</text>
</a>
</g>
</g>
<!-- Node1&#45;&gt;Node5 -->
<g id="edge4_Node000001_Node000005" class="edge">
<title>Node1&#45;&gt;Node5</title>
<g id="a_edge4_Node000001_Node000005"><a xlink:title=" ">
<path fill="none" stroke="#63b8ff" d="M188.67,-121.65C199.07,-110.51 210.41,-98.36 219.33,-88.82"/>
<polygon fill="#63b8ff" stroke="#63b8ff" points="221.72,-91.38 225.99,-81.68 216.6,-86.6 221.72,-91.38"/>
</a>
</g>
</g>
<!-- Node3 -->
<g id="Node000003" class="node">
<title>Node3</title>
<g id="a_Node000003"><a xlink:title=" ">
<polygon fill="#e0e0e0" stroke="#999999" points="77.12,-19.25 31.88,-19.25 31.88,0 77.12,0 77.12,-19.25"/>
<text text-anchor="middle" x="54.5" y="-5.75" font-family="Helvetica,sans-Serif" font-size="10.00">cstdint</text>
</a>
</g>
</g>
<!-- Node2&#45;&gt;Node3 -->
<g id="edge2_Node000002_Node000003" class="edge">
<title>Node2&#45;&gt;Node3</title>
<g id="a_edge2_Node000002_Node000003"><a xlink:title=" ">
<path fill="none" stroke="#63b8ff" d="M77.08,-54.95C73.22,-47.36 68.44,-37.99 64.28,-29.82"/>
<polygon fill="#63b8ff" stroke="#63b8ff" points="67.47,-28.37 59.81,-21.05 61.23,-31.55 67.47,-28.37"/>
</a>
</g>
</g>
<!-- Node4 -->
<g id="Node000004" class="node">
<title>Node4</title>
<g id="a_Node000004"><a xlink:title=" ">
<polygon fill="#e0e0e0" stroke="#999999" points="135.5,-19.25 95.5,-19.25 95.5,0 135.5,0 135.5,-19.25"/>
<text text-anchor="middle" x="115.5" y="-5.75" font-family="Helvetica,sans-Serif" font-size="10.00">string</text>
</a>
</g>
</g>
<!-- Node2&#45;&gt;Node4 -->
<g id="edge3_Node000002_Node000004" class="edge">
<title>Node2&#45;&gt;Node4</title>
<g id="a_edge3_Node000002_Node000004"><a xlink:title=" ">
<path fill="none" stroke="#63b8ff" d="M92.16,-54.95C96.16,-47.36 101.09,-37.99 105.39,-29.82"/>
<polygon fill="#63b8ff" stroke="#63b8ff" points="108.45,-31.52 110.02,-21.04 102.26,-28.26 108.45,-31.52"/>
</a>
</g>
</g>
</g>
</svg>
