<?xml version="1.0" encoding="UTF-8" standalone="no"?>
<!DOCTYPE svg PUBLIC "-//W3C//DTD SVG 1.1//EN"
 "http://www.w3.org/Graphics/SVG/1.1/DTD/svg11.dtd">
<!-- Generated by graphviz version 9.0.0 (20230911.1827)
 -->
<!-- Title: /github/workspace/dev_area/sourcecode/timing/include/timing/TimingNode.hpp Pages: 1 -->
<svg width="1797pt" height="349pt"
 viewBox="0.00 0.00 1796.62 348.50" xmlns="http://www.w3.org/2000/svg" xmlns:xlink="http://www.w3.org/1999/xlink">
<g id="graph0" class="graph" transform="scale(1 1) rotate(0) translate(4 344.5)">
<title>/github/workspace/dev_area/sourcecode/timing/include/timing/TimingNode.hpp</title>
<!-- Node1 -->
<g id="Node000001" class="node">
<title>Node1</title>
<g id="a_Node000001"><a xlink:title=" ">
<polygon fill="#999999" stroke="#666666" points="299.25,-340.5 146.75,-340.5 146.75,-298.75 299.25,-298.75 299.25,-340.5"/>
<text text-anchor="start" x="154.75" y="-327" font-family="Helvetica,sans-Serif" font-size="10.00">/github/workspace/dev</text>
<text text-anchor="start" x="154.75" y="-315.75" font-family="Helvetica,sans-Serif" font-size="10.00">_area/sourcecode/timing</text>
<text text-anchor="middle" x="223" y="-304.5" font-family="Helvetica,sans-Serif" font-size="10.00">/include/timing/TimingNode.hpp</text>
</a>
</g>
</g>
<!-- Node2 -->
<g id="Node000002" class="node">
<title>Node2</title>
<g id="a_Node000002"><a xlink:title=" ">
<polygon fill="#e0e0e0" stroke="#999999" points="118.62,-262.75 7.38,-262.75 7.38,-243.5 118.62,-243.5 118.62,-262.75"/>
<text text-anchor="middle" x="63" y="-249.25" font-family="Helvetica,sans-Serif" font-size="10.00">uhal/DerivedNode.hpp</text>
</a>
</g>
</g>
<!-- Node1&#45;&gt;Node2 -->
<g id="edge1_Node000001_Node000002" class="edge">
<title>Node1&#45;&gt;Node2</title>
<g id="a_edge1_Node000001_Node000002"><a xlink:title=" ">
<path fill="none" stroke="#63b8ff" d="M172.81,-298.39C147.73,-288.28 118.07,-276.33 95.91,-267.39"/>
<polygon fill="#63b8ff" stroke="#63b8ff" points="97.36,-264.2 86.78,-263.71 94.74,-270.7 97.36,-264.2"/>
</a>
</g>
</g>
<!-- Node3 -->
<g id="Node000003" class="node">
<title>Node3</title>
<g id="a_Node000003"><a xlink:href="InfoCollector_8hpp.html" target="_top" xlink:title=" ">
<polygon fill="white" stroke="#666666" points="185.38,-135.38 54.62,-135.38 54.62,-116.12 185.38,-116.12 185.38,-135.38"/>
<text text-anchor="middle" x="120" y="-121.88" font-family="Helvetica,sans-Serif" font-size="10.00">opmonlib/InfoCollector.hpp</text>
</a>
</g>
</g>
<!-- Node1&#45;&gt;Node3 -->
<g id="edge2_Node000001_Node000003" class="edge">
<title>Node1&#45;&gt;Node3</title>
<g id="a_edge2_Node000001_Node000003"><a xlink:title=" ">
<path fill="none" stroke="#63b8ff" d="M200.61,-298.5C190.52,-288.52 179.09,-275.82 171,-262.75 147.41,-224.63 131.99,-173.87 124.77,-146.41"/>
<polygon fill="#63b8ff" stroke="#63b8ff" points="128.24,-145.86 122.4,-137.03 121.45,-147.58 128.24,-145.86"/>
</a>
</g>
</g>
<!-- Node7 -->
<g id="Node000007" class="node">
<title>Node7</title>
<g id="a_Node000007"><a xlink:title=" ">
<polygon fill="#e0e0e0" stroke="#999999" points="645,-74.5 605,-74.5 605,-55.25 645,-55.25 645,-74.5"/>
<text text-anchor="middle" x="625" y="-61" font-family="Helvetica,sans-Serif" font-size="10.00">string</text>
</a>
</g>
</g>
<!-- Node1&#45;&gt;Node7 -->
<g id="edge46_Node000001_Node000007" class="edge">
<title>Node1&#45;&gt;Node7</title>
<g id="a_edge46_Node000001_Node000007"><a xlink:title=" ">
<path fill="none" stroke="#63b8ff" d="M220.12,-298.55C215.12,-254.61 210.67,-150.64 273,-110.5 299.72,-93.29 512.18,-74.82 593.49,-68.31"/>
<polygon fill="#63b8ff" stroke="#63b8ff" points="593.74,-71.8 603.43,-67.53 593.18,-64.83 593.74,-71.8"/>
</a>
</g>
</g>
<!-- Node9 -->
<g id="Node000009" class="node">
<title>Node9</title>
<g id="a_Node000009"><a xlink:href="Issue_8hpp.html" target="_top" xlink:title=" ">
<polygon fill="white" stroke="#666666" points="664.25,-262.75 589.75,-262.75 589.75,-243.5 664.25,-243.5 664.25,-262.75"/>
<text text-anchor="middle" x="627" y="-249.25" font-family="Helvetica,sans-Serif" font-size="10.00">ers/Issue.hpp</text>
</a>
</g>
</g>
<!-- Node1&#45;&gt;Node9 -->
<g id="edge8_Node000001_Node000009" class="edge">
<title>Node1&#45;&gt;Node9</title>
<g id="a_edge8_Node000001_Node000009"><a xlink:title=" ">
<path fill="none" stroke="#63b8ff" d="M299.46,-306.42C381.48,-293.32 509.25,-272.92 578.47,-261.87"/>
<polygon fill="#63b8ff" stroke="#63b8ff" points="578.65,-265.39 587.97,-260.36 577.55,-258.48 578.65,-265.39"/>
</a>
</g>
</g>
<!-- Node13 -->
<g id="Node000013" class="node">
<title>Node13</title>
<g id="a_Node000013"><a xlink:title=" ">
<polygon fill="#e0e0e0" stroke="#999999" points="316.38,-135.38 281.62,-135.38 281.62,-116.12 316.38,-116.12 316.38,-135.38"/>
<text text-anchor="middle" x="299" y="-121.88" font-family="Helvetica,sans-Serif" font-size="10.00">map</text>
</a>
</g>
</g>
<!-- Node1&#45;&gt;Node13 -->
<g id="edge45_Node000001_Node000013" class="edge">
<title>Node1&#45;&gt;Node13</title>
<g id="a_edge45_Node000001_Node000013"><a xlink:title=" ">
<path fill="none" stroke="#63b8ff" d="M222.56,-298.61C222.74,-270 226.18,-216.49 247,-177 254.06,-163.6 266.02,-151.67 276.69,-142.8"/>
<polygon fill="#63b8ff" stroke="#63b8ff" points="278.67,-145.69 284.39,-136.77 274.36,-140.18 278.67,-145.69"/>
</a>
</g>
</g>
<!-- Node16 -->
<g id="Node000016" class="node">
<title>Node16</title>
<g id="a_Node000016"><a xlink:title=" ">
<polygon fill="#e0e0e0" stroke="#999999" points="577.62,-135.38 532.38,-135.38 532.38,-116.12 577.62,-116.12 577.62,-135.38"/>
<text text-anchor="middle" x="555" y="-121.88" font-family="Helvetica,sans-Serif" font-size="10.00">chrono</text>
</a>
</g>
</g>
<!-- Node1&#45;&gt;Node16 -->
<g id="edge44_Node000001_Node000016" class="edge">
<title>Node1&#45;&gt;Node16</title>
<g id="a_edge44_Node000001_Node000016"><a xlink:title=" ">
<path fill="none" stroke="#63b8ff" d="M230.71,-298.3C243.7,-267 272.99,-207.43 318,-177 380.45,-134.78 471.62,-127.05 520.69,-126.21"/>
<polygon fill="#63b8ff" stroke="#63b8ff" points="520.44,-129.71 530.41,-126.13 520.39,-122.71 520.44,-129.71"/>
</a>
</g>
</g>
<!-- Node33 -->
<g id="Node000033" class="node">
<title>Node33</title>
<g id="a_Node000033"><a xlink:title=" ">
<polygon fill="#e0e0e0" stroke="#999999" points="731.88,-262.75 682.12,-262.75 682.12,-243.5 731.88,-243.5 731.88,-262.75"/>
<text text-anchor="middle" x="707" y="-249.25" font-family="Helvetica,sans-Serif" font-size="10.00">typeinfo</text>
</a>
</g>
</g>
<!-- Node1&#45;&gt;Node33 -->
<g id="edge47_Node000001_Node000033" class="edge">
<title>Node1&#45;&gt;Node33</title>
<g id="a_edge47_Node000001_Node000033"><a xlink:title=" ">
<path fill="none" stroke="#63b8ff" d="M299.49,-312.06C387.02,-303.9 534.78,-288.1 670.8,-262.95"/>
<polygon fill="#63b8ff" stroke="#63b8ff" points="671.15,-266.44 680.34,-261.16 669.87,-259.56 671.15,-266.44"/>
</a>
</g>
</g>
<!-- Node4 -->
<g id="Node000004" class="node">
<title>Node4</title>
<g id="a_Node000004"><a xlink:title=" ">
<polygon fill="#e0e0e0" stroke="#999999" points="297.5,-74.5 200.5,-74.5 200.5,-55.25 297.5,-55.25 297.5,-74.5"/>
<text text-anchor="middle" x="249" y="-61" font-family="Helvetica,sans-Serif" font-size="10.00">nlohmann/json.hpp</text>
</a>
</g>
</g>
<!-- Node3&#45;&gt;Node4 -->
<g id="edge3_Node000003_Node000004" class="edge">
<title>Node3&#45;&gt;Node4</title>
<g id="a_edge3_Node000003_Node000004"><a xlink:title=" ">
<path fill="none" stroke="#63b8ff" d="M139.87,-115.68C160.96,-106.06 194.52,-90.74 218.86,-79.63"/>
<polygon fill="#63b8ff" stroke="#63b8ff" points="220.29,-82.82 227.94,-75.49 217.39,-76.46 220.29,-82.82"/>
</a>
</g>
</g>
<!-- Node5 -->
<g id="Node000005" class="node">
<title>Node5</title>
<g id="a_Node000005"><a xlink:title=" ">
<polygon fill="#e0e0e0" stroke="#999999" points="40,-74.5 0,-74.5 0,-55.25 40,-55.25 40,-74.5"/>
<text text-anchor="middle" x="20" y="-61" font-family="Helvetica,sans-Serif" font-size="10.00">ctime</text>
</a>
</g>
</g>
<!-- Node3&#45;&gt;Node5 -->
<g id="edge4_Node000003_Node000005" class="edge">
<title>Node3&#45;&gt;Node5</title>
<g id="a_edge4_Node000003_Node000005"><a xlink:title=" ">
<path fill="none" stroke="#63b8ff" d="M104.81,-115.81C88.95,-106.47 63.82,-91.67 45.02,-80.61"/>
<polygon fill="#63b8ff" stroke="#63b8ff" points="47.03,-77.73 36.64,-75.67 43.48,-83.76 47.03,-77.73"/>
</a>
</g>
</g>
<!-- Node6 -->
<g id="Node000006" class="node">
<title>Node6</title>
<g id="a_Node000006"><a xlink:title=" ">
<polygon fill="#e0e0e0" stroke="#999999" points="812.75,-19.25 759.25,-19.25 759.25,0 812.75,0 812.75,-19.25"/>
<text text-anchor="middle" x="786" y="-5.75" font-family="Helvetica,sans-Serif" font-size="10.00">iostream</text>
</a>
</g>
</g>
<!-- Node3&#45;&gt;Node6 -->
<g id="edge5_Node000003_Node000006" class="edge">
<title>Node3&#45;&gt;Node6</title>
<g id="a_edge5_Node000003_Node000006"><a xlink:title=" ">
<path fill="none" stroke="#63b8ff" d="M170.14,-115.63C179.72,-113.91 189.67,-112.14 199,-110.5 405.77,-74.26 653.85,-32.67 747.61,-17.02"/>
<polygon fill="#63b8ff" stroke="#63b8ff" points="747.99,-20.51 757.28,-15.41 746.84,-13.6 747.99,-20.51"/>
</a>
</g>
</g>
<!-- Node3&#45;&gt;Node7 -->
<g id="edge6_Node000003_Node000007" class="edge">
<title>Node3&#45;&gt;Node7</title>
<g id="a_edge6_Node000003_Node000007"><a xlink:title=" ">
<path fill="none" stroke="#63b8ff" d="M167.11,-115.66C177.59,-113.81 188.65,-111.97 199,-110.5 345.84,-89.59 522.47,-74.18 593.33,-68.38"/>
<polygon fill="#63b8ff" stroke="#63b8ff" points="593.34,-71.89 603.03,-67.6 592.78,-64.92 593.34,-71.89"/>
</a>
</g>
</g>
<!-- Node8 -->
<g id="Node000008" class="node">
<title>Node8</title>
<g id="a_Node000008"><a xlink:href="JSONTags_8hpp.html" target="_top" xlink:title=" ">
<polygon fill="white" stroke="#666666" points="182.38,-74.5 57.63,-74.5 57.63,-55.25 182.38,-55.25 182.38,-74.5"/>
<text text-anchor="middle" x="120" y="-61" font-family="Helvetica,sans-Serif" font-size="10.00">opmonlib/JSONTags.hpp</text>
</a>
</g>
</g>
<!-- Node3&#45;&gt;Node8 -->
<g id="edge7_Node000003_Node000008" class="edge">
<title>Node3&#45;&gt;Node8</title>
<g id="a_edge7_Node000003_Node000008"><a xlink:title=" ">
<path fill="none" stroke="#63b8ff" d="M120,-115.81C120,-108.03 120,-96.45 120,-86.41"/>
<polygon fill="#63b8ff" stroke="#63b8ff" points="123.5,-86.41 120,-76.41 116.5,-86.41 123.5,-86.41"/>
</a>
</g>
</g>
<!-- Node9&#45;&gt;Node6 -->
<g id="edge14_Node000009_Node000006" class="edge">
<title>Node9&#45;&gt;Node6</title>
<g id="a_edge14_Node000009_Node000006"><a xlink:title=" ">
<path fill="none" stroke="#63b8ff" d="M664.61,-244.78C667.44,-244.32 670.26,-243.88 673,-243.5 715.44,-237.54 1028.15,-239.18 1057,-207.5 1086.03,-175.62 1081.12,-146.23 1057,-110.5 1004.82,-33.19 885.39,-15.5 823.99,-11.6"/>
<polygon fill="#63b8ff" stroke="#63b8ff" points="824.56,-8.13 814.39,-11.09 824.19,-15.12 824.56,-8.13"/>
</a>
</g>
</g>
<!-- Node9&#45;&gt;Node7 -->
<g id="edge13_Node000009_Node000007" class="edge">
<title>Node9&#45;&gt;Node7</title>
<g id="a_edge13_Node000009_Node000007"><a xlink:title=" ">
<path fill="none" stroke="#63b8ff" d="M657.53,-243C684.77,-234.17 721.6,-220.29 730,-207.5 737.44,-196.17 736.96,-188.63 730,-177 712.65,-147.99 686.61,-165.2 663,-141 647.56,-125.17 637.1,-101.82 631.12,-85.36"/>
<polygon fill="#63b8ff" stroke="#63b8ff" points="634.56,-84.59 628.04,-76.23 627.92,-86.83 634.56,-84.59"/>
</a>
</g>
</g>
<!-- Node10 -->
<g id="Node000010" class="node">
<title>Node10</title>
<g id="a_Node000010"><a xlink:title=" ">
<polygon fill="#e0e0e0" stroke="#999999" points="985.62,-201.88 940.38,-201.88 940.38,-182.62 985.62,-182.62 985.62,-201.88"/>
<text text-anchor="middle" x="963" y="-188.38" font-family="Helvetica,sans-Serif" font-size="10.00">math.h</text>
</a>
</g>
</g>
<!-- Node9&#45;&gt;Node10 -->
<g id="edge9_Node000009_Node000010" class="edge">
<title>Node9&#45;&gt;Node10</title>
<g id="a_edge9_Node000009_Node000010"><a xlink:title=" ">
<path fill="none" stroke="#63b8ff" d="M664.63,-244.92C667.46,-244.42 670.27,-243.94 673,-243.5 787.7,-224.79 820.45,-240.12 932,-207.5 932.99,-207.21 934,-206.89 935.01,-206.55"/>
<polygon fill="#63b8ff" stroke="#63b8ff" points="936.24,-209.83 944.23,-202.87 933.65,-203.32 936.24,-209.83"/>
</a>
</g>
</g>
<!-- Node11 -->
<g id="Node000011" class="node">
<title>Node11</title>
<g id="a_Node000011"><a xlink:title=" ">
<polygon fill="#e0e0e0" stroke="#999999" points="1048.25,-201.88 1003.75,-201.88 1003.75,-182.62 1048.25,-182.62 1048.25,-201.88"/>
<text text-anchor="middle" x="1026" y="-188.38" font-family="Helvetica,sans-Serif" font-size="10.00">stdio.h</text>
</a>
</g>
</g>
<!-- Node9&#45;&gt;Node11 -->
<g id="edge10_Node000009_Node000011" class="edge">
<title>Node9&#45;&gt;Node11</title>
<g id="a_edge10_Node000009_Node000011"><a xlink:title=" ">
<path fill="none" stroke="#63b8ff" d="M664.62,-244.84C667.45,-244.36 670.27,-243.91 673,-243.5 815.42,-222.22 856.26,-246.06 995,-207.5 996.17,-207.17 997.35,-206.81 998.53,-206.41"/>
<polygon fill="#63b8ff" stroke="#63b8ff" points="999.59,-209.76 1007.58,-202.81 997,-203.26 999.59,-209.76"/>
</a>
</g>
</g>
<!-- Node12 -->
<g id="Node000012" class="node">
<title>Node12</title>
<g id="a_Node000012"><a xlink:title=" ">
<polygon fill="#e0e0e0" stroke="#999999" points="374.75,-201.88 327.25,-201.88 327.25,-182.62 374.75,-182.62 374.75,-201.88"/>
<text text-anchor="middle" x="351" y="-188.38" font-family="Helvetica,sans-Serif" font-size="10.00">string.h</text>
</a>
</g>
</g>
<!-- Node9&#45;&gt;Node12 -->
<g id="edge11_Node000009_Node000012" class="edge">
<title>Node9&#45;&gt;Node12</title>
<g id="a_edge11_Node000009_Node000012"><a xlink:title=" ">
<path fill="none" stroke="#63b8ff" d="M589.55,-248.09C541.08,-242.22 454.38,-229.57 383,-207.5 382.01,-207.19 381.01,-206.86 380,-206.52"/>
<polygon fill="#63b8ff" stroke="#63b8ff" points="381.32,-203.27 370.73,-202.86 378.75,-209.79 381.32,-203.27"/>
</a>
</g>
</g>
<!-- Node9&#45;&gt;Node13 -->
<g id="edge12_Node000009_Node000013" class="edge">
<title>Node9&#45;&gt;Node13</title>
<g id="a_edge12_Node000009_Node000013"><a xlink:title=" ">
<path fill="none" stroke="#63b8ff" d="M589.37,-251.81C515.86,-250.4 356.97,-243.2 318,-207.5 301.43,-192.32 298,-165.66 297.85,-147.14"/>
<polygon fill="#63b8ff" stroke="#63b8ff" points="301.34,-147.47 298.11,-137.38 294.34,-147.28 301.34,-147.47"/>
</a>
</g>
</g>
<!-- Node14 -->
<g id="Node000014" class="node">
<title>Node14</title>
<g id="a_Node000014"><a xlink:title=" ">
<polygon fill="#e0e0e0" stroke="#999999" points="443.62,-201.88 392.38,-201.88 392.38,-182.62 443.62,-182.62 443.62,-201.88"/>
<text text-anchor="middle" x="418" y="-188.38" font-family="Helvetica,sans-Serif" font-size="10.00">sstream</text>
</a>
</g>
</g>
<!-- Node9&#45;&gt;Node14 -->
<g id="edge15_Node000009_Node000014" class="edge">
<title>Node9&#45;&gt;Node14</title>
<g id="a_edge15_Node000009_Node000014"><a xlink:title=" ">
<path fill="none" stroke="#63b8ff" d="M589.58,-244.08C554.05,-236.07 499.35,-222.8 453,-207.5 451.85,-207.12 450.68,-206.72 449.5,-206.31"/>
<polygon fill="#63b8ff" stroke="#63b8ff" points="450.93,-203.1 440.34,-202.84 448.46,-209.65 450.93,-203.1"/>
</a>
</g>
</g>
<!-- Node15 -->
<g id="Node000015" class="node">
<title>Node15</title>
<g id="a_Node000015"><a xlink:title=" ">
<polygon fill="#e0e0e0" stroke="#999999" points="512.25,-201.88 461.75,-201.88 461.75,-182.62 512.25,-182.62 512.25,-201.88"/>
<text text-anchor="middle" x="487" y="-188.38" font-family="Helvetica,sans-Serif" font-size="10.00">memory</text>
</a>
</g>
</g>
<!-- Node9&#45;&gt;Node15 -->
<g id="edge16_Node000009_Node000015" class="edge">
<title>Node9&#45;&gt;Node15</title>
<g id="a_edge16_Node000009_Node000015"><a xlink:title=" ">
<path fill="none" stroke="#63b8ff" d="M605.43,-243.05C582.24,-233.3 545.14,-217.7 518.65,-206.56"/>
<polygon fill="#63b8ff" stroke="#63b8ff" points="520.33,-203.47 509.76,-202.82 517.62,-209.92 520.33,-203.47"/>
</a>
</g>
</g>
<!-- Node9&#45;&gt;Node16 -->
<g id="edge17_Node000009_Node000016" class="edge">
<title>Node9&#45;&gt;Node16</title>
<g id="a_edge17_Node000009_Node000016"><a xlink:title=" ">
<path fill="none" stroke="#63b8ff" d="M621.82,-243.11C610.15,-222.78 581.56,-173 565.83,-145.6"/>
<polygon fill="#63b8ff" stroke="#63b8ff" points="568.9,-143.93 560.88,-137 562.83,-147.41 568.9,-143.93"/>
</a>
</g>
</g>
<!-- Node17 -->
<g id="Node000017" class="node">
<title>Node17</title>
<g id="a_Node000017"><a xlink:title=" ">
<polygon fill="#e0e0e0" stroke="#999999" points="559.4,-201.88 530.6,-201.88 530.6,-182.62 559.4,-182.62 559.4,-201.88"/>
<text text-anchor="middle" x="545" y="-188.38" font-family="Helvetica,sans-Serif" font-size="10.00">list</text>
</a>
</g>
</g>
<!-- Node9&#45;&gt;Node17 -->
<g id="edge18_Node000009_Node000017" class="edge">
<title>Node9&#45;&gt;Node17</title>
<g id="a_edge18_Node000009_Node000017"><a xlink:title=" ">
<path fill="none" stroke="#63b8ff" d="M614.55,-243.18C601.9,-234.11 582.07,-219.87 566.81,-208.91"/>
<polygon fill="#63b8ff" stroke="#63b8ff" points="568.97,-206.15 558.8,-203.16 564.88,-211.83 568.97,-206.15"/>
</a>
</g>
</g>
<!-- Node18 -->
<g id="Node000018" class="node">
<title>Node18</title>
<g id="a_Node000018"><a xlink:href="IssueFactory_8hpp.html" target="_top" xlink:title=" ">
<polygon fill="white" stroke="#666666" points="721.38,-201.88 614.62,-201.88 614.62,-182.62 721.38,-182.62 721.38,-201.88"/>
<text text-anchor="middle" x="668" y="-188.38" font-family="Helvetica,sans-Serif" font-size="10.00">ers/IssueFactory.hpp</text>
</a>
</g>
</g>
<!-- Node9&#45;&gt;Node18 -->
<g id="edge19_Node000009_Node000018" class="edge">
<title>Node9&#45;&gt;Node18</title>
<g id="a_edge19_Node000009_Node000018"><a xlink:title=" ">
<path fill="none" stroke="#63b8ff" d="M633.23,-243.18C639.07,-234.8 647.97,-222.01 655.31,-211.47"/>
<polygon fill="#63b8ff" stroke="#63b8ff" points="658.01,-213.72 660.85,-203.52 652.26,-209.72 658.01,-213.72"/>
</a>
</g>
</g>
<!-- Node20 -->
<g id="Node000020" class="node">
<title>Node20</title>
<g id="a_Node000020"><a xlink:href="Severity_8hpp.html" target="_top" xlink:title=" ">
<polygon fill="white" stroke="#666666" points="757.88,-135.38 672.12,-135.38 672.12,-116.12 757.88,-116.12 757.88,-135.38"/>
<text text-anchor="middle" x="715" y="-121.88" font-family="Helvetica,sans-Serif" font-size="10.00">ers/Severity.hpp</text>
</a>
</g>
</g>
<!-- Node9&#45;&gt;Node20 -->
<g id="edge36_Node000009_Node000020" class="edge">
<title>Node9&#45;&gt;Node20</title>
<g id="a_edge36_Node000009_Node000020"><a xlink:title=" ">
<path fill="none" stroke="#63b8ff" d="M664.44,-244.94C700.5,-237.17 751.27,-223.7 763,-207.5 778.44,-186.18 755.32,-159.64 736.13,-142.94"/>
<polygon fill="#63b8ff" stroke="#63b8ff" points="738.59,-140.43 728.65,-136.77 734.14,-145.83 738.59,-140.43"/>
</a>
</g>
</g>
<!-- Node21 -->
<g id="Node000021" class="node">
<title>Node21</title>
<g id="a_Node000021"><a xlink:href="LocalContext_8hpp.html" target="_top" xlink:title=" ">
<polygon fill="white" stroke="#666666" points="922.75,-201.88 815.25,-201.88 815.25,-182.62 922.75,-182.62 922.75,-201.88"/>
<text text-anchor="middle" x="869" y="-188.38" font-family="Helvetica,sans-Serif" font-size="10.00">ers/LocalContext.hpp</text>
</a>
</g>
</g>
<!-- Node9&#45;&gt;Node21 -->
<g id="edge28_Node000009_Node000021" class="edge">
<title>Node9&#45;&gt;Node21</title>
<g id="a_edge28_Node000009_Node000021"><a xlink:title=" ">
<path fill="none" stroke="#63b8ff" d="M664.28,-243.05C706.29,-232.83 774.72,-216.19 820.77,-204.98"/>
<polygon fill="#63b8ff" stroke="#63b8ff" points="821.32,-208.45 830.2,-202.69 819.66,-201.65 821.32,-208.45"/>
</a>
</g>
</g>
<!-- Node26 -->
<g id="Node000026" class="node">
<title>Node26</title>
<g id="a_Node000026"><a xlink:href="IssueDeclarationMacro_8hpp.html" target="_top" xlink:title=" ">
<polygon fill="white" stroke="#666666" points="1457.88,-207.5 1318.12,-207.5 1318.12,-177 1457.88,-177 1457.88,-207.5"/>
<text text-anchor="start" x="1326.12" y="-194" font-family="Helvetica,sans-Serif" font-size="10.00">ers/internal/IssueDeclaration</text>
<text text-anchor="middle" x="1388" y="-182.75" font-family="Helvetica,sans-Serif" font-size="10.00">Macro.hpp</text>
</a>
</g>
</g>
<!-- Node9&#45;&gt;Node26 -->
<g id="edge37_Node000009_Node000026" class="edge">
<title>Node9&#45;&gt;Node26</title>
<g id="a_edge37_Node000009_Node000026"><a xlink:title=" ">
<path fill="none" stroke="#63b8ff" d="M664.6,-244.71C667.44,-244.26 670.26,-243.85 673,-243.5 793.46,-228.03 1145.89,-206.94 1306.53,-197.79"/>
<polygon fill="#63b8ff" stroke="#63b8ff" points="1306.46,-201.3 1316.24,-197.24 1306.06,-194.31 1306.46,-201.3"/>
</a>
</g>
</g>
<!-- Node18&#45;&gt;Node7 -->
<g id="edge21_Node000018_Node000007" class="edge">
<title>Node18&#45;&gt;Node7</title>
<g id="a_edge21_Node000018_Node000007"><a xlink:title=" ">
<path fill="none" stroke="#63b8ff" d="M658.56,-182.27C649.43,-172.93 636.12,-157.4 630,-141 623.36,-123.2 622.65,-101.4 623.27,-85.88"/>
<polygon fill="#63b8ff" stroke="#63b8ff" points="626.76,-86.26 623.91,-76.05 619.77,-85.81 626.76,-86.26"/>
</a>
</g>
</g>
<!-- Node18&#45;&gt;Node13 -->
<g id="edge23_Node000018_Node000013" class="edge">
<title>Node18&#45;&gt;Node13</title>
<g id="a_edge23_Node000018_Node000013"><a xlink:title=" ">
<path fill="none" stroke="#63b8ff" d="M615.91,-182.15C537.13,-168.37 390.27,-142.7 328.05,-131.83"/>
<polygon fill="#63b8ff" stroke="#63b8ff" points="328.73,-128.39 318.27,-130.12 327.52,-135.29 328.73,-128.39"/>
</a>
</g>
</g>
<!-- Node18&#45;&gt;Node16 -->
<g id="edge20_Node000018_Node000016" class="edge">
<title>Node18&#45;&gt;Node16</title>
<g id="a_edge20_Node000018_Node000016"><a xlink:title=" ">
<path fill="none" stroke="#63b8ff" d="M652.29,-182.28C633.76,-171.7 602.69,-153.97 580.65,-141.39"/>
<polygon fill="#63b8ff" stroke="#63b8ff" points="582.68,-138.52 572.26,-136.6 579.21,-144.6 582.68,-138.52"/>
</a>
</g>
</g>
<!-- Node19 -->
<g id="Node000019" class="node">
<title>Node19</title>
<g id="a_Node000019"><a xlink:title=" ">
<polygon fill="#e0e0e0" stroke="#999999" points="786.5,-74.5 743.5,-74.5 743.5,-55.25 786.5,-55.25 786.5,-74.5"/>
<text text-anchor="middle" x="765" y="-61" font-family="Helvetica,sans-Serif" font-size="10.00">vector</text>
</a>
</g>
</g>
<!-- Node18&#45;&gt;Node19 -->
<g id="edge22_Node000018_Node000019" class="edge">
<title>Node18&#45;&gt;Node19</title>
<g id="a_edge22_Node000018_Node000019"><a xlink:title=" ">
<path fill="none" stroke="#63b8ff" d="M707.06,-182.15C728.76,-174.88 753.94,-162.27 767,-141 777.23,-124.34 774.8,-101.45 771.03,-85.33"/>
<polygon fill="#63b8ff" stroke="#63b8ff" points="774.49,-84.71 768.46,-76 767.73,-86.57 774.49,-84.71"/>
</a>
</g>
</g>
<!-- Node18&#45;&gt;Node20 -->
<g id="edge24_Node000018_Node000020" class="edge">
<title>Node18&#45;&gt;Node20</title>
<g id="a_edge24_Node000018_Node000020"><a xlink:title=" ">
<path fill="none" stroke="#63b8ff" d="M674.54,-182.28C681.55,-172.65 692.88,-157.1 701.78,-144.9"/>
<polygon fill="#63b8ff" stroke="#63b8ff" points="704.57,-147.01 707.63,-136.87 698.91,-142.89 704.57,-147.01"/>
</a>
</g>
</g>
<!-- Node20&#45;&gt;Node6 -->
<g id="edge27_Node000020_Node000006" class="edge">
<title>Node20&#45;&gt;Node6</title>
<g id="a_edge27_Node000020_Node000006"><a xlink:title=" ">
<path fill="none" stroke="#63b8ff" d="M715.74,-115.96C717.26,-102.09 721.69,-74.7 734,-55.25 741.23,-43.82 752.29,-33.75 762.36,-26.07"/>
<polygon fill="#63b8ff" stroke="#63b8ff" points="764.23,-29.04 770.32,-20.37 760.15,-23.35 764.23,-29.04"/>
</a>
</g>
</g>
<!-- Node20&#45;&gt;Node7 -->
<g id="edge25_Node000020_Node000007" class="edge">
<title>Node20&#45;&gt;Node7</title>
<g id="a_edge25_Node000020_Node000007"><a xlink:title=" ">
<path fill="none" stroke="#63b8ff" d="M701.33,-115.81C687.19,-106.56 664.86,-91.95 647.99,-80.92"/>
<polygon fill="#63b8ff" stroke="#63b8ff" points="650.35,-78.28 640.06,-75.73 646.52,-84.13 650.35,-78.28"/>
</a>
</g>
</g>
<!-- Node20&#45;&gt;Node19 -->
<g id="edge26_Node000020_Node000019" class="edge">
<title>Node20&#45;&gt;Node19</title>
<g id="a_edge26_Node000020_Node000019"><a xlink:title=" ">
<path fill="none" stroke="#63b8ff" d="M722.59,-115.81C729.86,-107.25 741.03,-94.1 750.08,-83.45"/>
<polygon fill="#63b8ff" stroke="#63b8ff" points="752.55,-85.94 756.35,-76.05 747.21,-81.41 752.55,-85.94"/>
</a>
</g>
</g>
<!-- Node22 -->
<g id="Node000022" class="node">
<title>Node22</title>
<g id="a_Node000022"><a xlink:title=" ">
<polygon fill="#e0e0e0" stroke="#999999" points="980.38,-135.38 915.62,-135.38 915.62,-116.12 980.38,-116.12 980.38,-135.38"/>
<text text-anchor="middle" x="948" y="-121.88" font-family="Helvetica,sans-Serif" font-size="10.00">sys/types.h</text>
</a>
</g>
</g>
<!-- Node21&#45;&gt;Node22 -->
<g id="edge29_Node000021_Node000022" class="edge">
<title>Node21&#45;&gt;Node22</title>
<g id="a_edge29_Node000021_Node000022"><a xlink:title=" ">
<path fill="none" stroke="#63b8ff" d="M879.98,-182.28C892.41,-172.13 912.91,-155.4 928.16,-142.95"/>
<polygon fill="#63b8ff" stroke="#63b8ff" points="930.15,-145.84 935.68,-136.81 925.72,-140.42 930.15,-145.84"/>
</a>
</g>
</g>
<!-- Node23 -->
<g id="Node000023" class="node">
<title>Node23</title>
<g id="a_Node000023"><a xlink:title=" ">
<polygon fill="#e0e0e0" stroke="#999999" points="1047.88,-135.38 998.12,-135.38 998.12,-116.12 1047.88,-116.12 1047.88,-135.38"/>
<text text-anchor="middle" x="1023" y="-121.88" font-family="Helvetica,sans-Serif" font-size="10.00">unistd.h</text>
</a>
</g>
</g>
<!-- Node21&#45;&gt;Node23 -->
<g id="edge30_Node000021_Node000023" class="edge">
<title>Node21&#45;&gt;Node23</title>
<g id="a_edge30_Node000021_Node000023"><a xlink:title=" ">
<path fill="none" stroke="#63b8ff" d="M890.74,-182.15C916.88,-171.2 960.98,-152.73 991.01,-140.15"/>
<polygon fill="#63b8ff" stroke="#63b8ff" points="992.11,-143.48 999.98,-136.39 989.4,-137.03 992.11,-143.48"/>
</a>
</g>
</g>
<!-- Node24 -->
<g id="Node000024" class="node">
<title>Node24</title>
<g id="a_Node000024"><a xlink:href="Context_8hpp.html" target="_top" xlink:title=" ">
<polygon fill="white" stroke="#666666" points="897.75,-135.38 814.25,-135.38 814.25,-116.12 897.75,-116.12 897.75,-135.38"/>
<text text-anchor="middle" x="856" y="-121.88" font-family="Helvetica,sans-Serif" font-size="10.00">ers/Context.hpp</text>
</a>
</g>
</g>
<!-- Node21&#45;&gt;Node24 -->
<g id="edge31_Node000021_Node000024" class="edge">
<title>Node21&#45;&gt;Node24</title>
<g id="a_edge31_Node000021_Node000024"><a xlink:title=" ">
<path fill="none" stroke="#63b8ff" d="M867.19,-182.28C865.35,-173.14 862.43,-158.64 860.03,-146.75"/>
<polygon fill="#63b8ff" stroke="#63b8ff" points="863.5,-146.24 858.09,-137.13 856.64,-147.62 863.5,-146.24"/>
</a>
</g>
</g>
<!-- Node24&#45;&gt;Node7 -->
<g id="edge32_Node000024_Node000007" class="edge">
<title>Node24&#45;&gt;Node7</title>
<g id="a_edge32_Node000024_Node000007"><a xlink:title=" ">
<path fill="none" stroke="#63b8ff" d="M820.41,-115.68C775.64,-104.27 699.46,-84.85 656.64,-73.94"/>
<polygon fill="#63b8ff" stroke="#63b8ff" points="657.52,-70.55 646.96,-71.47 655.79,-77.33 657.52,-70.55"/>
</a>
</g>
</g>
<!-- Node24&#45;&gt;Node19 -->
<g id="edge33_Node000024_Node000019" class="edge">
<title>Node24&#45;&gt;Node19</title>
<g id="a_edge33_Node000024_Node000019"><a xlink:title=" ">
<path fill="none" stroke="#63b8ff" d="M842.18,-115.81C827.88,-106.56 805.3,-91.95 788.25,-80.92"/>
<polygon fill="#63b8ff" stroke="#63b8ff" points="790.52,-78.22 780.22,-75.72 786.72,-84.09 790.52,-78.22"/>
</a>
</g>
</g>
<!-- Node25 -->
<g id="Node000025" class="node">
<title>Node25</title>
<g id="a_Node000025"><a xlink:href="ers_2include_2ers_2Configuration_8hpp.html" target="_top" xlink:title=" ">
<polygon fill="white" stroke="#666666" points="911.38,-74.5 804.62,-74.5 804.62,-55.25 911.38,-55.25 911.38,-74.5"/>
<text text-anchor="middle" x="858" y="-61" font-family="Helvetica,sans-Serif" font-size="10.00">ers/Configuration.hpp</text>
</a>
</g>
</g>
<!-- Node24&#45;&gt;Node25 -->
<g id="edge34_Node000024_Node000025" class="edge">
<title>Node24&#45;&gt;Node25</title>
<g id="a_edge34_Node000024_Node000025"><a xlink:title=" ">
<path fill="none" stroke="#63b8ff" d="M856.3,-115.81C856.57,-107.94 856.97,-96.2 857.31,-86.07"/>
<polygon fill="#63b8ff" stroke="#63b8ff" points="860.8,-86.53 857.64,-76.41 853.8,-86.29 860.8,-86.53"/>
</a>
</g>
</g>
<!-- Node25&#45;&gt;Node6 -->
<g id="edge35_Node000025_Node000006" class="edge">
<title>Node25&#45;&gt;Node6</title>
<g id="a_edge35_Node000025_Node000006"><a xlink:title=" ">
<path fill="none" stroke="#63b8ff" d="M845.79,-54.84C835.17,-46.99 819.56,-35.45 806.96,-26.12"/>
<polygon fill="#63b8ff" stroke="#63b8ff" points="809.37,-23.56 799.25,-20.42 805.21,-29.19 809.37,-23.56"/>
</a>
</g>
</g>
<!-- Node27 -->
<g id="Node000027" class="node">
<title>Node27</title>
<g id="a_Node000027"><a xlink:title=" ">
<polygon fill="#e0e0e0" stroke="#999999" points="1203.62,-141 1104.38,-141 1104.38,-110.5 1203.62,-110.5 1203.62,-141"/>
<text text-anchor="start" x="1112.38" y="-127.5" font-family="Helvetica,sans-Serif" font-size="10.00">boost/preprocessor</text>
<text text-anchor="middle" x="1154" y="-116.25" font-family="Helvetica,sans-Serif" font-size="10.00">/if.hpp</text>
</a>
</g>
</g>
<!-- Node26&#45;&gt;Node27 -->
<g id="edge38_Node000026_Node000027" class="edge">
<title>Node26&#45;&gt;Node27</title>
<g id="a_edge38_Node000026_Node000027"><a xlink:title=" ">
<path fill="none" stroke="#63b8ff" d="M1334.61,-176.53C1298.88,-166.69 1251.79,-153.7 1214.65,-143.47"/>
<polygon fill="#63b8ff" stroke="#63b8ff" points="1215.99,-140.21 1205.42,-140.92 1214.13,-146.95 1215.99,-140.21"/>
</a>
</g>
</g>
<!-- Node28 -->
<g id="Node000028" class="node">
<title>Node28</title>
<g id="a_Node000028"><a xlink:title=" ">
<polygon fill="#e0e0e0" stroke="#999999" points="1320.62,-141 1221.38,-141 1221.38,-110.5 1320.62,-110.5 1320.62,-141"/>
<text text-anchor="start" x="1229.38" y="-127.5" font-family="Helvetica,sans-Serif" font-size="10.00">boost/preprocessor</text>
<text text-anchor="middle" x="1271" y="-116.25" font-family="Helvetica,sans-Serif" font-size="10.00">/seq.hpp</text>
</a>
</g>
</g>
<!-- Node26&#45;&gt;Node28 -->
<g id="edge39_Node000026_Node000028" class="edge">
<title>Node26&#45;&gt;Node28</title>
<g id="a_edge39_Node000026_Node000028"><a xlink:title=" ">
<path fill="none" stroke="#63b8ff" d="M1361.45,-176.61C1345.44,-167.79 1324.83,-156.43 1307.33,-146.78"/>
<polygon fill="#63b8ff" stroke="#63b8ff" points="1309.22,-143.82 1298.77,-142.06 1305.84,-149.95 1309.22,-143.82"/>
</a>
</g>
</g>
<!-- Node29 -->
<g id="Node000029" class="node">
<title>Node29</title>
<g id="a_Node000029"><a xlink:title=" ">
<polygon fill="#e0e0e0" stroke="#999999" points="1437.62,-141 1338.38,-141 1338.38,-110.5 1437.62,-110.5 1437.62,-141"/>
<text text-anchor="start" x="1346.38" y="-127.5" font-family="Helvetica,sans-Serif" font-size="10.00">boost/preprocessor</text>
<text text-anchor="middle" x="1388" y="-116.25" font-family="Helvetica,sans-Serif" font-size="10.00">/tuple.hpp</text>
</a>
</g>
</g>
<!-- Node26&#45;&gt;Node29 -->
<g id="edge40_Node000026_Node000029" class="edge">
<title>Node26&#45;&gt;Node29</title>
<g id="a_edge40_Node000026_Node000029"><a xlink:title=" ">
<path fill="none" stroke="#63b8ff" d="M1388,-176.61C1388,-169.52 1388,-160.79 1388,-152.63"/>
<polygon fill="#63b8ff" stroke="#63b8ff" points="1391.5,-152.84 1388,-142.84 1384.5,-152.84 1391.5,-152.84"/>
</a>
</g>
</g>
<!-- Node30 -->
<g id="Node000030" class="node">
<title>Node30</title>
<g id="a_Node000030"><a xlink:title=" ">
<polygon fill="#e0e0e0" stroke="#999999" points="1554.62,-141 1455.38,-141 1455.38,-110.5 1554.62,-110.5 1554.62,-141"/>
<text text-anchor="start" x="1463.38" y="-127.5" font-family="Helvetica,sans-Serif" font-size="10.00">boost/preprocessor</text>
<text text-anchor="middle" x="1505" y="-116.25" font-family="Helvetica,sans-Serif" font-size="10.00">/logical.hpp</text>
</a>
</g>
</g>
<!-- Node26&#45;&gt;Node30 -->
<g id="edge41_Node000026_Node000030" class="edge">
<title>Node26&#45;&gt;Node30</title>
<g id="a_edge41_Node000026_Node000030"><a xlink:title=" ">
<path fill="none" stroke="#63b8ff" d="M1414.55,-176.61C1430.56,-167.79 1451.17,-156.43 1468.67,-146.78"/>
<polygon fill="#63b8ff" stroke="#63b8ff" points="1470.16,-149.95 1477.23,-142.06 1466.78,-143.82 1470.16,-149.95"/>
</a>
</g>
</g>
<!-- Node31 -->
<g id="Node000031" class="node">
<title>Node31</title>
<g id="a_Node000031"><a xlink:title=" ">
<polygon fill="#e0e0e0" stroke="#999999" points="1671.62,-141 1572.38,-141 1572.38,-110.5 1671.62,-110.5 1671.62,-141"/>
<text text-anchor="start" x="1580.38" y="-127.5" font-family="Helvetica,sans-Serif" font-size="10.00">boost/preprocessor</text>
<text text-anchor="middle" x="1622" y="-116.25" font-family="Helvetica,sans-Serif" font-size="10.00">/stringize.hpp</text>
</a>
</g>
</g>
<!-- Node26&#45;&gt;Node31 -->
<g id="edge42_Node000026_Node000031" class="edge">
<title>Node26&#45;&gt;Node31</title>
<g id="a_edge42_Node000026_Node000031"><a xlink:title=" ">
<path fill="none" stroke="#63b8ff" d="M1441.39,-176.53C1477.12,-166.69 1524.21,-153.7 1561.35,-143.47"/>
<polygon fill="#63b8ff" stroke="#63b8ff" points="1561.87,-146.95 1570.58,-140.92 1560.01,-140.21 1561.87,-146.95"/>
</a>
</g>
</g>
<!-- Node32 -->
<g id="Node000032" class="node">
<title>Node32</title>
<g id="a_Node000032"><a xlink:title=" ">
<polygon fill="#e0e0e0" stroke="#999999" points="1788.62,-141 1689.38,-141 1689.38,-110.5 1788.62,-110.5 1788.62,-141"/>
<text text-anchor="start" x="1697.38" y="-127.5" font-family="Helvetica,sans-Serif" font-size="10.00">boost/preprocessor</text>
<text text-anchor="middle" x="1739" y="-116.25" font-family="Helvetica,sans-Serif" font-size="10.00">/comparison.hpp</text>
</a>
</g>
</g>
<!-- Node26&#45;&gt;Node32 -->
<g id="edge43_Node000026_Node000032" class="edge">
<title>Node26&#45;&gt;Node32</title>
<g id="a_edge43_Node000026_Node000032"><a xlink:title=" ">
<path fill="none" stroke="#63b8ff" d="M1458.12,-180.66C1515.09,-171.73 1597.74,-158.03 1678.24,-141.5"/>
<polygon fill="#63b8ff" stroke="#63b8ff" points="1678.5,-145.02 1687.58,-139.56 1677.08,-138.17 1678.5,-145.02"/>
</a>
</g>
</g>
</g>
</svg>
