<?xml version="1.0" encoding="UTF-8" standalone="no"?>
<!DOCTYPE svg PUBLIC "-//W3C//DTD SVG 1.1//EN"
 "http://www.w3.org/Graphics/SVG/1.1/DTD/svg11.dtd">
<!-- Generated by graphviz version 9.0.0 (20230911.1827)
 -->
<!-- Title: /github/workspace/dev_area/build/timinglibs/codegen/include/timinglibs/timingmastercontroller/Structs.hpp Pages: 1 -->
<svg width="273pt" height="306pt"
 viewBox="0.00 0.00 273.38 305.50" xmlns="http://www.w3.org/2000/svg" xmlns:xlink="http://www.w3.org/1999/xlink">
<g id="graph0" class="graph" transform="scale(1 1) rotate(0) translate(4 301.5)">
<title>/github/workspace/dev_area/build/timinglibs/codegen/include/timinglibs/timingmastercontroller/Structs.hpp</title>
<!-- Node1 -->
<g id="Node000001" class="node">
<title>Node1</title>
<g id="a_Node000001"><a xlink:title=" ">
<polygon fill="#999999" stroke="#666666" points="265.38,-297.5 97.88,-297.5 97.88,-244.5 265.38,-244.5 265.38,-297.5"/>
<text text-anchor="start" x="105.88" y="-284" font-family="Helvetica,sans-Serif" font-size="10.00">/github/workspace/dev</text>
<text text-anchor="start" x="105.88" y="-272.75" font-family="Helvetica,sans-Serif" font-size="10.00">_area/build/timinglibs</text>
<text text-anchor="start" x="105.88" y="-261.5" font-family="Helvetica,sans-Serif" font-size="10.00">/codegen/include/timinglibs</text>
<text text-anchor="middle" x="181.62" y="-250.25" font-family="Helvetica,sans-Serif" font-size="10.00">/timingmastercontroller/Structs.hpp</text>
</a>
</g>
</g>
<!-- Node2 -->
<g id="Node000002" class="node">
<title>Node2</title>
<g id="a_Node000002"><a xlink:href="timinglibs_2codegen_2include_2timinglibs_2timingmastercontroller_2Nljs_8hpp.html" target="_top" xlink:title=" ">
<polygon fill="white" stroke="#666666" points="153.25,-208.5 0,-208.5 0,-155.5 153.25,-155.5 153.25,-208.5"/>
<text text-anchor="start" x="8" y="-195" font-family="Helvetica,sans-Serif" font-size="10.00">/github/workspace/dev</text>
<text text-anchor="start" x="8" y="-183.75" font-family="Helvetica,sans-Serif" font-size="10.00">_area/build/timinglibs</text>
<text text-anchor="start" x="8" y="-172.5" font-family="Helvetica,sans-Serif" font-size="10.00">/codegen/include/timinglibs</text>
<text text-anchor="middle" x="76.62" y="-161.25" font-family="Helvetica,sans-Serif" font-size="10.00">/timingmastercontroller/Nljs.hpp</text>
</a>
</g>
</g>
<!-- Node1&#45;&gt;Node2 -->
<g id="edge1_Node000001_Node000002" class="edge">
<title>Node1&#45;&gt;Node2</title>
<g id="a_edge1_Node000001_Node000002"><a xlink:title=" ">
<path fill="none" stroke="#63b8ff" d="M141.66,-236.88C130.48,-227.62 118.5,-217.7 107.91,-208.92"/>
<polygon fill="#63b8ff" stroke="#63b8ff" points="139.31,-239.48 149.24,-243.17 143.77,-234.09 139.31,-239.48"/>
</a>
</g>
</g>
<!-- Node3 -->
<g id="Node000003" class="node">
<title>Node3</title>
<g id="a_Node000003"><a xlink:href="sourcecode_2timinglibs_2src_2TimingMasterController_8cpp.html" target="_top" xlink:title=" ">
<polygon fill="white" stroke="#666666" points="225.62,-41.75 71.62,-41.75 71.62,0 225.62,0 225.62,-41.75"/>
<text text-anchor="start" x="79.62" y="-28.25" font-family="Helvetica,sans-Serif" font-size="10.00">/github/workspace/dev</text>
<text text-anchor="start" x="79.62" y="-17" font-family="Helvetica,sans-Serif" font-size="10.00">_area/sourcecode/timinglibs</text>
<text text-anchor="middle" x="148.62" y="-5.75" font-family="Helvetica,sans-Serif" font-size="10.00">/src/TimingMasterController.cpp</text>
</a>
</g>
</g>
<!-- Node1&#45;&gt;Node3 -->
<g id="edge5_Node000001_Node000003" class="edge">
<title>Node1&#45;&gt;Node3</title>
<g id="a_edge5_Node000001_Node000003"><a xlink:title=" ">
<path fill="none" stroke="#63b8ff" d="M206.66,-234.44C231.47,-194.42 262.11,-128.38 234.62,-77.75 226.39,-62.57 212.04,-50.87 197.41,-42.2"/>
<polygon fill="#63b8ff" stroke="#63b8ff" points="203.78,-232.45 201.33,-242.76 209.67,-236.22 203.78,-232.45"/>
</a>
</g>
</g>
<!-- Node4 -->
<g id="Node000004" class="node">
<title>Node4</title>
<g id="a_Node000004"><a xlink:href="sourcecode_2timinglibs_2src_2TimingMasterController_8hpp.html" target="_top" xlink:title=" ">
<polygon fill="white" stroke="#666666" points="225.62,-119.5 71.62,-119.5 71.62,-77.75 225.62,-77.75 225.62,-119.5"/>
<text text-anchor="start" x="79.62" y="-106" font-family="Helvetica,sans-Serif" font-size="10.00">/github/workspace/dev</text>
<text text-anchor="start" x="79.62" y="-94.75" font-family="Helvetica,sans-Serif" font-size="10.00">_area/sourcecode/timinglibs</text>
<text text-anchor="middle" x="148.62" y="-83.5" font-family="Helvetica,sans-Serif" font-size="10.00">/src/TimingMasterController.hpp</text>
</a>
</g>
</g>
<!-- Node1&#45;&gt;Node4 -->
<g id="edge6_Node000001_Node000004" class="edge">
<title>Node1&#45;&gt;Node4</title>
<g id="a_edge6_Node000001_Node000004"><a xlink:title=" ">
<path fill="none" stroke="#63b8ff" d="M176.31,-233.32C172.86,-210.78 168,-181.37 162.62,-155.5 160.16,-143.65 156.9,-130.52 154.14,-119.97"/>
<polygon fill="#63b8ff" stroke="#63b8ff" points="172.81,-233.56 177.76,-242.93 179.73,-232.52 172.81,-233.56"/>
</a>
</g>
</g>
<!-- Node2&#45;&gt;Node3 -->
<g id="edge2_Node000002_Node000003" class="edge">
<title>Node2&#45;&gt;Node3</title>
<g id="a_edge2_Node000002_Node000003"><a xlink:title=" ">
<path fill="none" stroke="#63b8ff" d="M61.25,-144.35C55.05,-123.67 51.63,-98.01 62.62,-77.75 70.86,-62.57 85.21,-50.87 99.84,-42.2"/>
<polygon fill="#63b8ff" stroke="#63b8ff" points="57.93,-145.45 64.43,-153.82 64.57,-143.23 57.93,-145.45"/>
</a>
</g>
</g>
<!-- Node2&#45;&gt;Node4 -->
<g id="edge3_Node000002_Node000004" class="edge">
<title>Node2&#45;&gt;Node4</title>
<g id="a_edge3_Node000002_Node000004"><a xlink:title=" ">
<path fill="none" stroke="#63b8ff" d="M107,-146.67C115.1,-137.51 123.6,-127.91 130.78,-119.79"/>
<polygon fill="#63b8ff" stroke="#63b8ff" points="104.41,-144.31 100.41,-154.12 109.66,-148.95 104.41,-144.31"/>
</a>
</g>
</g>
<!-- Node4&#45;&gt;Node3 -->
<g id="edge4_Node000004_Node000003" class="edge">
<title>Node4&#45;&gt;Node3</title>
<g id="a_edge4_Node000004_Node000003"><a xlink:title=" ">
<path fill="none" stroke="#63b8ff" d="M148.62,-66C148.62,-57.96 148.62,-49.54 148.62,-42.23"/>
<polygon fill="#63b8ff" stroke="#63b8ff" points="145.13,-65.81 148.63,-75.81 152.13,-65.81 145.13,-65.81"/>
</a>
</g>
</g>
</g>
</svg>
