<?xml version="1.0" encoding="UTF-8" standalone="no"?>
<!DOCTYPE svg PUBLIC "-//W3C//DTD SVG 1.1//EN"
 "http://www.w3.org/Graphics/SVG/1.1/DTD/svg11.dtd">
<!-- Generated by graphviz version 9.0.0 (20230911.1827)
 -->
<!-- Title: /github/workspace/dev_area/build/timinglibs/codegen/include/timinglibs/timingendpointcontrollerinfo/InfoNljs.hpp Pages: 1 -->
<svg width="302pt" height="194pt"
 viewBox="0.00 0.00 301.88 194.00" xmlns="http://www.w3.org/2000/svg" xmlns:xlink="http://www.w3.org/1999/xlink">
<g id="graph0" class="graph" transform="scale(1 1) rotate(0) translate(4 190)">
<title>/github/workspace/dev_area/build/timinglibs/codegen/include/timinglibs/timingendpointcontrollerinfo/InfoNljs.hpp</title>
<!-- Node1 -->
<g id="Node000001" class="node">
<title>Node1</title>
<g id="a_Node000001"><a xlink:title=" ">
<polygon fill="#999999" stroke="#666666" points="236.12,-186 98.62,-186 98.62,-121.75 236.12,-121.75 236.12,-186"/>
<text text-anchor="start" x="106.62" y="-172.5" font-family="Helvetica,sans-Serif" font-size="10.00">/github/workspace/dev</text>
<text text-anchor="start" x="106.62" y="-161.25" font-family="Helvetica,sans-Serif" font-size="10.00">_area/build/timinglibs</text>
<text text-anchor="start" x="106.62" y="-150" font-family="Helvetica,sans-Serif" font-size="10.00">/codegen/include/timinglibs</text>
<text text-anchor="start" x="106.62" y="-138.75" font-family="Helvetica,sans-Serif" font-size="10.00">/timingendpointcontrollerinfo</text>
<text text-anchor="middle" x="167.38" y="-127.5" font-family="Helvetica,sans-Serif" font-size="10.00">/InfoNljs.hpp</text>
</a>
</g>
</g>
<!-- Node2 -->
<g id="Node000002" class="node">
<title>Node2</title>
<g id="a_Node000002"><a xlink:href="timinglibs_2codegen_2include_2timinglibs_2timingendpointcontrollerinfo_2InfoStructs_8hpp.html" target="_top" xlink:title=" ">
<polygon fill="white" stroke="#666666" points="178.75,-85.75 0,-85.75 0,-55.25 178.75,-55.25 178.75,-85.75"/>
<text text-anchor="start" x="8" y="-72.25" font-family="Helvetica,sans-Serif" font-size="10.00">timinglibs/timingendpointcontrollerinfo</text>
<text text-anchor="middle" x="89.38" y="-61" font-family="Helvetica,sans-Serif" font-size="10.00">/InfoStructs.hpp</text>
</a>
</g>
</g>
<!-- Node1&#45;&gt;Node2 -->
<g id="edge1_Node000001_Node000002" class="edge">
<title>Node1&#45;&gt;Node2</title>
<g id="a_edge1_Node000001_Node000002"><a xlink:title=" ">
<path fill="none" stroke="#63b8ff" d="M137.44,-121.65C128.77,-112.6 119.46,-102.89 111.37,-94.45"/>
<polygon fill="#63b8ff" stroke="#63b8ff" points="113.95,-92.08 104.5,-87.28 108.9,-96.92 113.95,-92.08"/>
</a>
</g>
</g>
<!-- Node5 -->
<g id="Node000005" class="node">
<title>Node5</title>
<g id="a_Node000005"><a xlink:title=" ">
<polygon fill="#e0e0e0" stroke="#999999" points="293.88,-80.12 196.88,-80.12 196.88,-60.88 293.88,-60.88 293.88,-80.12"/>
<text text-anchor="middle" x="245.38" y="-66.62" font-family="Helvetica,sans-Serif" font-size="10.00">nlohmann/json.hpp</text>
</a>
</g>
</g>
<!-- Node1&#45;&gt;Node5 -->
<g id="edge4_Node000001_Node000005" class="edge">
<title>Node1&#45;&gt;Node5</title>
<g id="a_edge4_Node000001_Node000005"><a xlink:title=" ">
<path fill="none" stroke="#63b8ff" d="M197.31,-121.65C207.99,-110.51 219.63,-98.36 228.78,-88.82"/>
<polygon fill="#63b8ff" stroke="#63b8ff" points="231.23,-91.31 235.63,-81.67 226.18,-86.47 231.23,-91.31"/>
</a>
</g>
</g>
<!-- Node3 -->
<g id="Node000003" class="node">
<title>Node3</title>
<g id="a_Node000003"><a xlink:title=" ">
<polygon fill="#e0e0e0" stroke="#999999" points="82,-19.25 36.75,-19.25 36.75,0 82,0 82,-19.25"/>
<text text-anchor="middle" x="59.38" y="-5.75" font-family="Helvetica,sans-Serif" font-size="10.00">cstdint</text>
</a>
</g>
</g>
<!-- Node2&#45;&gt;Node3 -->
<g id="edge2_Node000002_Node000003" class="edge">
<title>Node2&#45;&gt;Node3</title>
<g id="a_edge2_Node000002_Node000003"><a xlink:title=" ">
<path fill="none" stroke="#63b8ff" d="M81.96,-54.95C78.09,-47.36 73.32,-37.99 69.15,-29.82"/>
<polygon fill="#63b8ff" stroke="#63b8ff" points="72.35,-28.37 64.69,-21.05 66.11,-31.55 72.35,-28.37"/>
</a>
</g>
</g>
<!-- Node4 -->
<g id="Node000004" class="node">
<title>Node4</title>
<g id="a_Node000004"><a xlink:title=" ">
<polygon fill="#e0e0e0" stroke="#999999" points="140.38,-19.25 100.38,-19.25 100.38,0 140.38,0 140.38,-19.25"/>
<text text-anchor="middle" x="120.38" y="-5.75" font-family="Helvetica,sans-Serif" font-size="10.00">string</text>
</a>
</g>
</g>
<!-- Node2&#45;&gt;Node4 -->
<g id="edge3_Node000002_Node000004" class="edge">
<title>Node2&#45;&gt;Node4</title>
<g id="a_edge3_Node000002_Node000004"><a xlink:title=" ">
<path fill="none" stroke="#63b8ff" d="M97.04,-54.95C101.03,-47.36 105.97,-37.99 110.27,-29.82"/>
<polygon fill="#63b8ff" stroke="#63b8ff" points="113.33,-31.52 114.89,-21.04 107.13,-28.26 113.33,-31.52"/>
</a>
</g>
</g>
</g>
</svg>
