<?xml version="1.0" encoding="UTF-8" standalone="no"?>
<!DOCTYPE svg PUBLIC "-//W3C//DTD SVG 1.1//EN"
 "http://www.w3.org/Graphics/SVG/1.1/DTD/svg11.dtd">
<!-- Generated by graphviz version 9.0.0 (20230911.1827)
 -->
<!-- Title: /github/workspace/dev_area/build/timinglibs/codegen/include/timinglibs/timinghardwaremanagerpdiinfo/InfoNljs.hpp Pages: 1 -->
<svg width="268pt" height="194pt"
 viewBox="0.00 0.00 267.62 194.00" xmlns="http://www.w3.org/2000/svg" xmlns:xlink="http://www.w3.org/1999/xlink">
<g id="graph0" class="graph" transform="scale(1 1) rotate(0) translate(4 190)">
<title>/github/workspace/dev_area/build/timinglibs/codegen/include/timinglibs/timinghardwaremanagerpdiinfo/InfoNljs.hpp</title>
<!-- Node1 -->
<g id="Node000001" class="node">
<title>Node1</title>
<g id="a_Node000001"><a xlink:title=" ">
<polygon fill="#999999" stroke="#666666" points="233.62,-186 82.62,-186 82.62,-121.75 233.62,-121.75 233.62,-186"/>
<text text-anchor="start" x="90.62" y="-172.5" font-family="Helvetica,sans-Serif" font-size="10.00">/github/workspace/dev</text>
<text text-anchor="start" x="90.62" y="-161.25" font-family="Helvetica,sans-Serif" font-size="10.00">_area/build/timinglibs</text>
<text text-anchor="start" x="90.62" y="-150" font-family="Helvetica,sans-Serif" font-size="10.00">/codegen/include/timinglibs</text>
<text text-anchor="start" x="90.62" y="-138.75" font-family="Helvetica,sans-Serif" font-size="10.00">/timinghardwaremanagerpdiinfo</text>
<text text-anchor="middle" x="158.12" y="-127.5" font-family="Helvetica,sans-Serif" font-size="10.00">/InfoNljs.hpp</text>
</a>
</g>
</g>
<!-- Node2 -->
<g id="Node000002" class="node">
<title>Node2</title>
<g id="a_Node000002"><a xlink:href="timinglibs_2codegen_2include_2timinglibs_2timinghardwaremanagerpdiinfo_2InfoStructs_8hpp.html" target="_top" xlink:title=" ">
<polygon fill="white" stroke="#666666" points="192.25,-85.75 0,-85.75 0,-55.25 192.25,-55.25 192.25,-85.75"/>
<text text-anchor="start" x="8" y="-72.25" font-family="Helvetica,sans-Serif" font-size="10.00">timinglibs/timinghardwaremanagerpdiinfo</text>
<text text-anchor="middle" x="96.12" y="-61" font-family="Helvetica,sans-Serif" font-size="10.00">/InfoStructs.hpp</text>
</a>
</g>
</g>
<!-- Node1&#45;&gt;Node2 -->
<g id="edge1_Node000001_Node000002" class="edge">
<title>Node1&#45;&gt;Node2</title>
<g id="a_edge1_Node000001_Node000002"><a xlink:title=" ">
<path fill="none" stroke="#63b8ff" d="M134.33,-121.65C127.66,-112.88 120.51,-103.5 114.22,-95.25"/>
<polygon fill="#63b8ff" stroke="#63b8ff" points="117.08,-93.23 108.23,-87.39 111.51,-97.47 117.08,-93.23"/>
</a>
</g>
</g>
<!-- Node4 -->
<g id="Node000004" class="node">
<title>Node4</title>
<g id="a_Node000004"><a xlink:title=" ">
<polygon fill="#e0e0e0" stroke="#999999" points="259.62,-19.25 162.62,-19.25 162.62,0 259.62,0 259.62,-19.25"/>
<text text-anchor="middle" x="211.12" y="-5.75" font-family="Helvetica,sans-Serif" font-size="10.00">nlohmann/json.hpp</text>
</a>
</g>
</g>
<!-- Node1&#45;&gt;Node4 -->
<g id="edge5_Node000001_Node000004" class="edge">
<title>Node1&#45;&gt;Node4</title>
<g id="a_edge5_Node000001_Node000004"><a xlink:title=" ">
<path fill="none" stroke="#63b8ff" d="M182.39,-121.27C189.52,-110.52 196.6,-98.1 201.12,-85.75 207.63,-67.99 209.98,-46.49 210.79,-31.05"/>
<polygon fill="#63b8ff" stroke="#63b8ff" points="214.29,-31.34 211.12,-21.23 207.29,-31.11 214.29,-31.34"/>
</a>
</g>
</g>
<!-- Node3 -->
<g id="Node000003" class="node">
<title>Node3</title>
<g id="a_Node000003"><a xlink:title=" ">
<polygon fill="#e0e0e0" stroke="#999999" points="67.75,-19.25 22.5,-19.25 22.5,0 67.75,0 67.75,-19.25"/>
<text text-anchor="middle" x="45.12" y="-5.75" font-family="Helvetica,sans-Serif" font-size="10.00">cstdint</text>
</a>
</g>
</g>
<!-- Node2&#45;&gt;Node3 -->
<g id="edge2_Node000002_Node000003" class="edge">
<title>Node2&#45;&gt;Node3</title>
<g id="a_edge2_Node000002_Node000003"><a xlink:title=" ">
<path fill="none" stroke="#63b8ff" d="M83.52,-54.95C76.5,-46.84 67.71,-36.7 60.32,-28.16"/>
<polygon fill="#63b8ff" stroke="#63b8ff" points="63.17,-26.11 53.98,-20.85 57.88,-30.7 63.17,-26.11"/>
</a>
</g>
</g>
<!-- Node2&#45;&gt;Node4 -->
<g id="edge3_Node000002_Node000004" class="edge">
<title>Node2&#45;&gt;Node4</title>
<g id="a_edge3_Node000002_Node000004"><a xlink:title=" ">
<path fill="none" stroke="#63b8ff" d="M124.85,-54.8C142.87,-45.57 165.96,-33.75 183.73,-24.65"/>
<polygon fill="#63b8ff" stroke="#63b8ff" points="184.84,-28.02 192.14,-20.34 181.65,-21.79 184.84,-28.02"/>
</a>
</g>
</g>
<!-- Node5 -->
<g id="Node000005" class="node">
<title>Node5</title>
<g id="a_Node000005"><a xlink:title=" ">
<polygon fill="#e0e0e0" stroke="#999999" points="126.12,-19.25 86.12,-19.25 86.12,0 126.12,0 126.12,-19.25"/>
<text text-anchor="middle" x="106.12" y="-5.75" font-family="Helvetica,sans-Serif" font-size="10.00">string</text>
</a>
</g>
</g>
<!-- Node2&#45;&gt;Node5 -->
<g id="edge4_Node000002_Node000005" class="edge">
<title>Node2&#45;&gt;Node5</title>
<g id="a_edge4_Node000002_Node000005"><a xlink:title=" ">
<path fill="none" stroke="#63b8ff" d="M98.6,-54.95C99.83,-47.71 101.33,-38.84 102.67,-30.94"/>
<polygon fill="#63b8ff" stroke="#63b8ff" points="106.11,-31.64 104.33,-21.19 99.2,-30.47 106.11,-31.64"/>
</a>
</g>
</g>
</g>
</svg>
