<?xml version="1.0" encoding="UTF-8" standalone="no"?>
<!DOCTYPE svg PUBLIC "-//W3C//DTD SVG 1.1//EN"
 "http://www.w3.org/Graphics/SVG/1.1/DTD/svg11.dtd">
<!-- Generated by graphviz version 9.0.0 (20230911.1827)
 -->
<!-- Title: /github/workspace/dev_area/build/timinglibs/codegen/include/timinglibs/timinghardwaremanagerpdi/Nljs.hpp Pages: 1 -->
<svg width="300pt" height="194pt"
 viewBox="0.00 0.00 299.75 194.00" xmlns="http://www.w3.org/2000/svg" xmlns:xlink="http://www.w3.org/1999/xlink">
<g id="graph0" class="graph" transform="scale(1 1) rotate(0) translate(4 190)">
<title>/github/workspace/dev_area/build/timinglibs/codegen/include/timinglibs/timinghardwaremanagerpdi/Nljs.hpp</title>
<!-- Node1 -->
<g id="Node000001" class="node">
<title>Node1</title>
<g id="a_Node000001"><a xlink:title=" ">
<polygon fill="#999999" stroke="#666666" points="232.88,-186 97.62,-186 97.62,-121.75 232.88,-121.75 232.88,-186"/>
<text text-anchor="start" x="105.62" y="-172.5" font-family="Helvetica,sans-Serif" font-size="10.00">/github/workspace/dev</text>
<text text-anchor="start" x="105.62" y="-161.25" font-family="Helvetica,sans-Serif" font-size="10.00">_area/build/timinglibs</text>
<text text-anchor="start" x="105.62" y="-150" font-family="Helvetica,sans-Serif" font-size="10.00">/codegen/include/timinglibs</text>
<text text-anchor="start" x="105.62" y="-138.75" font-family="Helvetica,sans-Serif" font-size="10.00">/timinghardwaremanagerpdi</text>
<text text-anchor="middle" x="165.25" y="-127.5" font-family="Helvetica,sans-Serif" font-size="10.00">/Nljs.hpp</text>
</a>
</g>
</g>
<!-- Node2 -->
<g id="Node000002" class="node">
<title>Node2</title>
<g id="a_Node000002"><a xlink:href="timinglibs_2codegen_2include_2timinglibs_2timinghardwaremanagerpdi_2Structs_8hpp.html" target="_top" xlink:title=" ">
<polygon fill="white" stroke="#666666" points="176.5,-85.75 0,-85.75 0,-55.25 176.5,-55.25 176.5,-85.75"/>
<text text-anchor="start" x="8" y="-72.25" font-family="Helvetica,sans-Serif" font-size="10.00">timinglibs/timinghardwaremanagerpdi</text>
<text text-anchor="middle" x="88.25" y="-61" font-family="Helvetica,sans-Serif" font-size="10.00">/Structs.hpp</text>
</a>
</g>
</g>
<!-- Node1&#45;&gt;Node2 -->
<g id="edge1_Node000001_Node000002" class="edge">
<title>Node1&#45;&gt;Node2</title>
<g id="a_edge1_Node000001_Node000002"><a xlink:title=" ">
<path fill="none" stroke="#63b8ff" d="M135.7,-121.65C127.14,-112.6 117.95,-102.89 109.96,-94.45"/>
<polygon fill="#63b8ff" stroke="#63b8ff" points="112.61,-92.15 103.19,-87.29 107.52,-96.96 112.61,-92.15"/>
</a>
</g>
</g>
<!-- Node6 -->
<g id="Node000006" class="node">
<title>Node6</title>
<g id="a_Node000006"><a xlink:title=" ">
<polygon fill="#e0e0e0" stroke="#999999" points="291.75,-80.12 194.75,-80.12 194.75,-60.88 291.75,-60.88 291.75,-80.12"/>
<text text-anchor="middle" x="243.25" y="-66.62" font-family="Helvetica,sans-Serif" font-size="10.00">nlohmann/json.hpp</text>
</a>
</g>
</g>
<!-- Node1&#45;&gt;Node6 -->
<g id="edge5_Node000001_Node000006" class="edge">
<title>Node1&#45;&gt;Node6</title>
<g id="a_edge5_Node000001_Node000006"><a xlink:title=" ">
<path fill="none" stroke="#63b8ff" d="M195.18,-121.65C205.86,-110.51 217.5,-98.36 226.65,-88.82"/>
<polygon fill="#63b8ff" stroke="#63b8ff" points="229.11,-91.31 233.5,-81.67 224.05,-86.47 229.11,-91.31"/>
</a>
</g>
</g>
<!-- Node3 -->
<g id="Node000003" class="node">
<title>Node3</title>
<g id="a_Node000003"><a xlink:title=" ">
<polygon fill="#e0e0e0" stroke="#999999" points="48.88,-19.25 3.62,-19.25 3.62,0 48.88,0 48.88,-19.25"/>
<text text-anchor="middle" x="26.25" y="-5.75" font-family="Helvetica,sans-Serif" font-size="10.00">cstdint</text>
</a>
</g>
</g>
<!-- Node2&#45;&gt;Node3 -->
<g id="edge2_Node000002_Node000003" class="edge">
<title>Node2&#45;&gt;Node3</title>
<g id="a_edge2_Node000002_Node000003"><a xlink:title=" ">
<path fill="none" stroke="#63b8ff" d="M72.92,-54.95C64.21,-46.67 53.25,-36.27 44.15,-27.62"/>
<polygon fill="#63b8ff" stroke="#63b8ff" points="46.57,-25.09 36.91,-20.74 41.75,-30.17 46.57,-25.09"/>
</a>
</g>
</g>
<!-- Node4 -->
<g id="Node000004" class="node">
<title>Node4</title>
<g id="a_Node000004"><a xlink:title=" ">
<polygon fill="#e0e0e0" stroke="#999999" points="109.75,-19.25 66.75,-19.25 66.75,0 109.75,0 109.75,-19.25"/>
<text text-anchor="middle" x="88.25" y="-5.75" font-family="Helvetica,sans-Serif" font-size="10.00">vector</text>
</a>
</g>
</g>
<!-- Node2&#45;&gt;Node4 -->
<g id="edge3_Node000002_Node000004" class="edge">
<title>Node2&#45;&gt;Node4</title>
<g id="a_edge3_Node000002_Node000004"><a xlink:title=" ">
<path fill="none" stroke="#63b8ff" d="M88.25,-54.95C88.25,-47.71 88.25,-38.84 88.25,-30.94"/>
<polygon fill="#63b8ff" stroke="#63b8ff" points="91.75,-31.21 88.25,-21.21 84.75,-31.21 91.75,-31.21"/>
</a>
</g>
</g>
<!-- Node5 -->
<g id="Node000005" class="node">
<title>Node5</title>
<g id="a_Node000005"><a xlink:title=" ">
<polygon fill="#e0e0e0" stroke="#999999" points="168.25,-19.25 128.25,-19.25 128.25,0 168.25,0 168.25,-19.25"/>
<text text-anchor="middle" x="148.25" y="-5.75" font-family="Helvetica,sans-Serif" font-size="10.00">string</text>
</a>
</g>
</g>
<!-- Node2&#45;&gt;Node5 -->
<g id="edge4_Node000002_Node000005" class="edge">
<title>Node2&#45;&gt;Node5</title>
<g id="a_edge4_Node000002_Node000005"><a xlink:title=" ">
<path fill="none" stroke="#63b8ff" d="M103.08,-54.95C111.51,-46.67 122.12,-36.27 130.93,-27.62"/>
<polygon fill="#63b8ff" stroke="#63b8ff" points="133.23,-30.26 137.92,-20.76 128.33,-25.27 133.23,-30.26"/>
</a>
</g>
</g>
</g>
</svg>
