<?xml version="1.0" encoding="UTF-8" standalone="no"?>
<!DOCTYPE svg PUBLIC "-//W3C//DTD SVG 1.1//EN"
 "http://www.w3.org/Graphics/SVG/1.1/DTD/svg11.dtd">
<!-- Generated by graphviz version 9.0.0 (20230911.1827)
 -->
<!-- Title: /github/workspace/dev_area/sourcecode/timing/src/TimingNode.cpp Pages: 1 -->
<svg width="1978pt" height="404pt"
 viewBox="0.00 0.00 1978.07 403.75" xmlns="http://www.w3.org/2000/svg" xmlns:xlink="http://www.w3.org/1999/xlink">
<g id="graph0" class="graph" transform="scale(1 1) rotate(0) translate(4 399.75)">
<title>/github/workspace/dev_area/sourcecode/timing/src/TimingNode.cpp</title>
<!-- Node1 -->
<g id="Node000001" class="node">
<title>Node1</title>
<g id="a_Node000001"><a xlink:title=" ">
<polygon fill="#999999" stroke="#666666" points="582.82,-395.75 460.32,-395.75 460.32,-354 582.82,-354 582.82,-395.75"/>
<text text-anchor="start" x="468.32" y="-382.25" font-family="Helvetica,sans-Serif" font-size="10.00">/github/workspace/dev</text>
<text text-anchor="start" x="468.32" y="-371" font-family="Helvetica,sans-Serif" font-size="10.00">_area/sourcecode/timing</text>
<text text-anchor="middle" x="521.57" y="-359.75" font-family="Helvetica,sans-Serif" font-size="10.00">/src/TimingNode.cpp</text>
</a>
</g>
</g>
<!-- Node2 -->
<g id="Node000002" class="node">
<title>Node2</title>
<g id="a_Node000002"><a xlink:href="TimingNode_8hpp.html" target="_top" xlink:title=" ">
<polygon fill="white" stroke="#666666" points="579.44,-318 463.69,-318 463.69,-298.75 579.44,-298.75 579.44,-318"/>
<text text-anchor="middle" x="521.57" y="-304.5" font-family="Helvetica,sans-Serif" font-size="10.00">timing/TimingNode.hpp</text>
</a>
</g>
</g>
<!-- Node1&#45;&gt;Node2 -->
<g id="edge1_Node000001_Node000002" class="edge">
<title>Node1&#45;&gt;Node2</title>
<g id="a_edge1_Node000001_Node000002"><a xlink:title=" ">
<path fill="none" stroke="#63b8ff" d="M521.57,-353.82C521.57,-346.15 521.57,-337.39 521.57,-329.7"/>
<polygon fill="#63b8ff" stroke="#63b8ff" points="525.07,-329.96 521.57,-319.96 518.07,-329.96 525.07,-329.96"/>
</a>
</g>
</g>
<!-- Node8 -->
<g id="Node000008" class="node">
<title>Node8</title>
<g id="a_Node000008"><a xlink:title=" ">
<polygon fill="#e0e0e0" stroke="#999999" points="847.57,-74.5 807.57,-74.5 807.57,-55.25 847.57,-55.25 847.57,-74.5"/>
<text text-anchor="middle" x="827.57" y="-61" font-family="Helvetica,sans-Serif" font-size="10.00">string</text>
</a>
</g>
</g>
<!-- Node1&#45;&gt;Node8 -->
<g id="edge50_Node000001_Node000008" class="edge">
<title>Node1&#45;&gt;Node8</title>
<g id="a_edge50_Node000001_Node000008"><a xlink:title=" ">
<path fill="none" stroke="#63b8ff" d="M583.14,-373.83C818.03,-372.86 1644.57,-361.78 1644.57,-254.12 1644.57,-254.12 1644.57,-254.12 1644.57,-191.25 1644.57,-147.32 1625.96,-131.85 1587.57,-110.5 1523.16,-74.69 994.18,-67.41 858.95,-66.12"/>
<polygon fill="#63b8ff" stroke="#63b8ff" points="859.35,-62.63 849.32,-66.04 859.29,-69.63 859.35,-62.63"/>
</a>
</g>
</g>
<!-- Node14 -->
<g id="Node000014" class="node">
<title>Node14</title>
<g id="a_Node000014"><a xlink:title=" ">
<polygon fill="#e0e0e0" stroke="#999999" points="47.94,-135.38 13.19,-135.38 13.19,-116.12 47.94,-116.12 47.94,-135.38"/>
<text text-anchor="middle" x="30.57" y="-121.88" font-family="Helvetica,sans-Serif" font-size="10.00">map</text>
</a>
</g>
</g>
<!-- Node1&#45;&gt;Node14 -->
<g id="edge49_Node000001_Node000014" class="edge">
<title>Node1&#45;&gt;Node14</title>
<g id="a_edge49_Node000001_Node000014"><a xlink:title=" ">
<path fill="none" stroke="#63b8ff" d="M460.08,-369.06C338.69,-358.24 74.87,-327.66 15.57,-262.75 -13.71,-230.7 6.45,-175.11 20.39,-145.91"/>
<polygon fill="#63b8ff" stroke="#63b8ff" points="23.43,-147.66 24.8,-137.15 17.18,-144.51 23.43,-147.66"/>
</a>
</g>
</g>
<!-- Node3 -->
<g id="Node000003" class="node">
<title>Node3</title>
<g id="a_Node000003"><a xlink:title=" ">
<polygon fill="#e0e0e0" stroke="#999999" points="151.19,-262.75 39.94,-262.75 39.94,-243.5 151.19,-243.5 151.19,-262.75"/>
<text text-anchor="middle" x="95.57" y="-249.25" font-family="Helvetica,sans-Serif" font-size="10.00">uhal/DerivedNode.hpp</text>
</a>
</g>
</g>
<!-- Node2&#45;&gt;Node3 -->
<g id="edge2_Node000002_Node000003" class="edge">
<title>Node2&#45;&gt;Node3</title>
<g id="a_edge2_Node000002_Node000003"><a xlink:title=" ">
<path fill="none" stroke="#63b8ff" d="M463.23,-300.08C384.77,-290.28 245.57,-272.88 162.8,-262.53"/>
<polygon fill="#63b8ff" stroke="#63b8ff" points="163.37,-259.07 153.01,-261.31 162.5,-266.02 163.37,-259.07"/>
</a>
</g>
</g>
<!-- Node4 -->
<g id="Node000004" class="node">
<title>Node4</title>
<g id="a_Node000004"><a xlink:href="InfoCollector_8hpp.html" target="_top" xlink:title=" ">
<polygon fill="white" stroke="#666666" points="1802.94,-135.38 1672.19,-135.38 1672.19,-116.12 1802.94,-116.12 1802.94,-135.38"/>
<text text-anchor="middle" x="1737.57" y="-121.88" font-family="Helvetica,sans-Serif" font-size="10.00">opmonlib/InfoCollector.hpp</text>
</a>
</g>
</g>
<!-- Node2&#45;&gt;Node4 -->
<g id="edge3_Node000002_Node000004" class="edge">
<title>Node2&#45;&gt;Node4</title>
<g id="a_edge3_Node000002_Node000004"><a xlink:title=" ">
<path fill="none" stroke="#63b8ff" d="M579.82,-304.84C773.1,-295.98 1391.82,-263.81 1582.57,-207.5 1633.07,-192.59 1686.33,-160.79 1715.4,-141.85"/>
<polygon fill="#63b8ff" stroke="#63b8ff" points="1716.97,-145.01 1723.37,-136.57 1713.1,-139.17 1716.97,-145.01"/>
</a>
</g>
</g>
<!-- Node2&#45;&gt;Node8 -->
<g id="edge47_Node000002_Node000008" class="edge">
<title>Node2&#45;&gt;Node8</title>
<g id="a_edge47_Node000002_Node000008"><a xlink:title=" ">
<path fill="none" stroke="#63b8ff" d="M579.84,-305.16C650,-299.26 766.6,-278.58 832.57,-207.5 862.29,-175.47 858.1,-153.14 848.57,-110.5 846.59,-101.63 842.64,-92.44 838.69,-84.73"/>
<polygon fill="#63b8ff" stroke="#63b8ff" points="841.78,-83.07 833.88,-76.01 835.65,-86.45 841.78,-83.07"/>
</a>
</g>
</g>
<!-- Node10 -->
<g id="Node000010" class="node">
<title>Node10</title>
<g id="a_Node000010"><a xlink:href="Issue_8hpp.html" target="_top" xlink:title=" ">
<polygon fill="white" stroke="#666666" points="558.82,-262.75 484.32,-262.75 484.32,-243.5 558.82,-243.5 558.82,-262.75"/>
<text text-anchor="middle" x="521.57" y="-249.25" font-family="Helvetica,sans-Serif" font-size="10.00">ers/Issue.hpp</text>
</a>
</g>
</g>
<!-- Node2&#45;&gt;Node10 -->
<g id="edge9_Node000002_Node000010" class="edge">
<title>Node2&#45;&gt;Node10</title>
<g id="a_edge9_Node000002_Node000010"><a xlink:title=" ">
<path fill="none" stroke="#63b8ff" d="M521.57,-298.58C521.57,-292.07 521.57,-282.92 521.57,-274.62"/>
<polygon fill="#63b8ff" stroke="#63b8ff" points="525.07,-274.62 521.57,-264.62 518.07,-274.62 525.07,-274.62"/>
</a>
</g>
</g>
<!-- Node2&#45;&gt;Node14 -->
<g id="edge46_Node000002_Node000014" class="edge">
<title>Node2&#45;&gt;Node14</title>
<g id="a_edge46_Node000002_Node000014"><a xlink:title=" ">
<path fill="none" stroke="#63b8ff" d="M463.65,-306.4C340.05,-303.72 59.28,-294.19 30.57,-262.75 1.6,-231.03 13.81,-175.71 23.29,-146.35"/>
<polygon fill="#63b8ff" stroke="#63b8ff" points="26.48,-147.85 26.45,-137.25 19.87,-145.55 26.48,-147.85"/>
</a>
</g>
</g>
<!-- Node17 -->
<g id="Node000017" class="node">
<title>Node17</title>
<g id="a_Node000017"><a xlink:title=" ">
<polygon fill="#e0e0e0" stroke="#999999" points="148.19,-135.38 102.94,-135.38 102.94,-116.12 148.19,-116.12 148.19,-135.38"/>
<text text-anchor="middle" x="125.57" y="-121.88" font-family="Helvetica,sans-Serif" font-size="10.00">chrono</text>
</a>
</g>
</g>
<!-- Node2&#45;&gt;Node17 -->
<g id="edge45_Node000002_Node000017" class="edge">
<title>Node2&#45;&gt;Node17</title>
<g id="a_edge45_Node000002_Node000017"><a xlink:title=" ">
<path fill="none" stroke="#63b8ff" d="M463.5,-301.41C363.61,-289.82 165.97,-260.61 124.57,-207.5 111.19,-190.34 114.4,-164.31 119,-146.47"/>
<polygon fill="#63b8ff" stroke="#63b8ff" points="122.3,-147.67 121.79,-137.09 115.59,-145.68 122.3,-147.67"/>
</a>
</g>
</g>
<!-- Node34 -->
<g id="Node000034" class="node">
<title>Node34</title>
<g id="a_Node000034"><a xlink:title=" ">
<polygon fill="#e0e0e0" stroke="#999999" points="943.44,-262.75 893.69,-262.75 893.69,-243.5 943.44,-243.5 943.44,-262.75"/>
<text text-anchor="middle" x="918.57" y="-249.25" font-family="Helvetica,sans-Serif" font-size="10.00">typeinfo</text>
</a>
</g>
</g>
<!-- Node2&#45;&gt;Node34 -->
<g id="edge48_Node000002_Node000034" class="edge">
<title>Node2&#45;&gt;Node34</title>
<g id="a_edge48_Node000002_Node000034"><a xlink:title=" ">
<path fill="none" stroke="#63b8ff" d="M579.79,-301.81C650.84,-294.63 774.49,-280.88 879.57,-262.75 880.55,-262.58 881.55,-262.4 882.56,-262.22"/>
<polygon fill="#63b8ff" stroke="#63b8ff" points="882.86,-265.73 891.98,-260.34 881.49,-258.86 882.86,-265.73"/>
</a>
</g>
</g>
<!-- Node5 -->
<g id="Node000005" class="node">
<title>Node5</title>
<g id="a_Node000005"><a xlink:title=" ">
<polygon fill="#e0e0e0" stroke="#999999" points="1970.07,-74.5 1873.07,-74.5 1873.07,-55.25 1970.07,-55.25 1970.07,-74.5"/>
<text text-anchor="middle" x="1921.57" y="-61" font-family="Helvetica,sans-Serif" font-size="10.00">nlohmann/json.hpp</text>
</a>
</g>
</g>
<!-- Node4&#45;&gt;Node5 -->
<g id="edge4_Node000004_Node000005" class="edge">
<title>Node4&#45;&gt;Node5</title>
<g id="a_edge4_Node000004_Node000005"><a xlink:title=" ">
<path fill="none" stroke="#63b8ff" d="M1765.92,-115.68C1797.12,-105.7 1847.47,-89.58 1882.43,-78.4"/>
<polygon fill="#63b8ff" stroke="#63b8ff" points="1883.29,-81.8 1891.75,-75.42 1881.16,-75.13 1883.29,-81.8"/>
</a>
</g>
</g>
<!-- Node6 -->
<g id="Node000006" class="node">
<title>Node6</title>
<g id="a_Node000006"><a xlink:title=" ">
<polygon fill="#e0e0e0" stroke="#999999" points="1712.57,-74.5 1672.57,-74.5 1672.57,-55.25 1712.57,-55.25 1712.57,-74.5"/>
<text text-anchor="middle" x="1692.57" y="-61" font-family="Helvetica,sans-Serif" font-size="10.00">ctime</text>
</a>
</g>
</g>
<!-- Node4&#45;&gt;Node6 -->
<g id="edge5_Node000004_Node000006" class="edge">
<title>Node4&#45;&gt;Node6</title>
<g id="a_edge5_Node000004_Node000006"><a xlink:title=" ">
<path fill="none" stroke="#63b8ff" d="M1730.73,-115.81C1724.26,-107.34 1714.35,-94.37 1706.25,-83.77"/>
<polygon fill="#63b8ff" stroke="#63b8ff" points="1709.24,-81.92 1700.39,-76.1 1703.68,-86.17 1709.24,-81.92"/>
</a>
</g>
</g>
<!-- Node7 -->
<g id="Node000007" class="node">
<title>Node7</title>
<g id="a_Node000007"><a xlink:title=" ">
<polygon fill="#e0e0e0" stroke="#999999" points="1197.32,-19.25 1143.82,-19.25 1143.82,0 1197.32,0 1197.32,-19.25"/>
<text text-anchor="middle" x="1170.57" y="-5.75" font-family="Helvetica,sans-Serif" font-size="10.00">iostream</text>
</a>
</g>
</g>
<!-- Node4&#45;&gt;Node7 -->
<g id="edge6_Node000004_Node000007" class="edge">
<title>Node4&#45;&gt;Node7</title>
<g id="a_edge6_Node000004_Node000007"><a xlink:title=" ">
<path fill="none" stroke="#63b8ff" d="M1724.14,-115.75C1698.3,-98.63 1642.34,-62.4 1620.57,-55.25 1544.39,-30.22 1303.29,-16.72 1208.94,-12.29"/>
<polygon fill="#63b8ff" stroke="#63b8ff" points="1209.33,-8.8 1199.18,-11.84 1209.01,-15.8 1209.33,-8.8"/>
</a>
</g>
</g>
<!-- Node4&#45;&gt;Node8 -->
<g id="edge7_Node000004_Node000008" class="edge">
<title>Node4&#45;&gt;Node8</title>
<g id="a_edge7_Node000004_Node000008"><a xlink:title=" ">
<path fill="none" stroke="#63b8ff" d="M1692.59,-115.64C1681.51,-113.67 1669.64,-111.79 1658.57,-110.5 1348.38,-74.34 969.58,-67.43 859.16,-66.15"/>
<polygon fill="#63b8ff" stroke="#63b8ff" points="859.44,-62.66 849.41,-66.05 859.37,-69.66 859.44,-62.66"/>
</a>
</g>
</g>
<!-- Node9 -->
<g id="Node000009" class="node">
<title>Node9</title>
<g id="a_Node000009"><a xlink:href="JSONTags_8hpp.html" target="_top" xlink:title=" ">
<polygon fill="white" stroke="#666666" points="1854.94,-74.5 1730.19,-74.5 1730.19,-55.25 1854.94,-55.25 1854.94,-74.5"/>
<text text-anchor="middle" x="1792.57" y="-61" font-family="Helvetica,sans-Serif" font-size="10.00">opmonlib/JSONTags.hpp</text>
</a>
</g>
</g>
<!-- Node4&#45;&gt;Node9 -->
<g id="edge8_Node000004_Node000009" class="edge">
<title>Node4&#45;&gt;Node9</title>
<g id="a_edge8_Node000004_Node000009"><a xlink:title=" ">
<path fill="none" stroke="#63b8ff" d="M1745.92,-115.81C1754,-107.16 1766.45,-93.84 1776.45,-83.12"/>
<polygon fill="#63b8ff" stroke="#63b8ff" points="1778.83,-85.7 1783.1,-76.01 1773.72,-80.93 1778.83,-85.7"/>
</a>
</g>
</g>
<!-- Node10&#45;&gt;Node7 -->
<g id="edge15_Node000010_Node000007" class="edge">
<title>Node10&#45;&gt;Node7</title>
<g id="a_edge15_Node000010_Node000007"><a xlink:title=" ">
<path fill="none" stroke="#63b8ff" d="M559.31,-251.26C741.16,-246.67 1520.95,-222.33 1587.57,-141 1690.37,-15.5 1330.33,-8.7 1209.07,-9.86"/>
<polygon fill="#63b8ff" stroke="#63b8ff" points="1209.25,-6.36 1199.29,-9.98 1209.33,-13.36 1209.25,-6.36"/>
</a>
</g>
</g>
<!-- Node10&#45;&gt;Node8 -->
<g id="edge14_Node000010_Node000008" class="edge">
<title>Node10&#45;&gt;Node8</title>
<g id="a_edge14_Node000010_Node000008"><a xlink:title=" ">
<path fill="none" stroke="#63b8ff" d="M559.24,-251.66C629.07,-249.95 774.57,-242.22 808.57,-207.5 840.31,-175.09 836.4,-116.71 831.57,-86.01"/>
<polygon fill="#63b8ff" stroke="#63b8ff" points="835.02,-85.41 829.82,-76.19 828.13,-86.65 835.02,-85.41"/>
</a>
</g>
</g>
<!-- Node11 -->
<g id="Node000011" class="node">
<title>Node11</title>
<g id="a_Node000011"><a xlink:title=" ">
<polygon fill="#e0e0e0" stroke="#999999" points="323.19,-201.88 277.94,-201.88 277.94,-182.62 323.19,-182.62 323.19,-201.88"/>
<text text-anchor="middle" x="300.57" y="-188.38" font-family="Helvetica,sans-Serif" font-size="10.00">math.h</text>
</a>
</g>
</g>
<!-- Node10&#45;&gt;Node11 -->
<g id="edge10_Node000010_Node000011" class="edge">
<title>Node10&#45;&gt;Node11</title>
<g id="a_edge10_Node000010_Node000011"><a xlink:title=" ">
<path fill="none" stroke="#63b8ff" d="M484.05,-245.42C445.49,-238.03 384,-224.85 332.57,-207.5 331.61,-207.18 330.64,-206.84 329.67,-206.48"/>
<polygon fill="#63b8ff" stroke="#63b8ff" points="331.27,-203.35 320.69,-202.85 328.65,-209.84 331.27,-203.35"/>
</a>
</g>
</g>
<!-- Node12 -->
<g id="Node000012" class="node">
<title>Node12</title>
<g id="a_Node000012"><a xlink:title=" ">
<polygon fill="#e0e0e0" stroke="#999999" points="385.82,-201.88 341.32,-201.88 341.32,-182.62 385.82,-182.62 385.82,-201.88"/>
<text text-anchor="middle" x="363.57" y="-188.38" font-family="Helvetica,sans-Serif" font-size="10.00">stdio.h</text>
</a>
</g>
</g>
<!-- Node10&#45;&gt;Node12 -->
<g id="edge11_Node000010_Node000012" class="edge">
<title>Node10&#45;&gt;Node12</title>
<g id="a_edge11_Node000010_Node000012"><a xlink:title=" ">
<path fill="none" stroke="#63b8ff" d="M493.29,-243.03C467.37,-234.49 428.04,-221.04 394.57,-207.5 393.95,-207.25 393.33,-206.99 392.7,-206.73"/>
<polygon fill="#63b8ff" stroke="#63b8ff" points="394.42,-203.67 383.85,-202.88 391.62,-210.08 394.42,-203.67"/>
</a>
</g>
</g>
<!-- Node13 -->
<g id="Node000013" class="node">
<title>Node13</title>
<g id="a_Node000013"><a xlink:title=" ">
<polygon fill="#e0e0e0" stroke="#999999" points="451.32,-201.88 403.82,-201.88 403.82,-182.62 451.32,-182.62 451.32,-201.88"/>
<text text-anchor="middle" x="427.57" y="-188.38" font-family="Helvetica,sans-Serif" font-size="10.00">string.h</text>
</a>
</g>
</g>
<!-- Node10&#45;&gt;Node13 -->
<g id="edge12_Node000010_Node000013" class="edge">
<title>Node10&#45;&gt;Node13</title>
<g id="a_edge12_Node000010_Node000013"><a xlink:title=" ">
<path fill="none" stroke="#63b8ff" d="M507.29,-243.18C492.52,-233.93 469.2,-219.32 451.58,-208.29"/>
<polygon fill="#63b8ff" stroke="#63b8ff" points="453.59,-205.42 443.26,-203.08 449.88,-211.35 453.59,-205.42"/>
</a>
</g>
</g>
<!-- Node10&#45;&gt;Node14 -->
<g id="edge13_Node000010_Node000014" class="edge">
<title>Node10&#45;&gt;Node14</title>
<g id="a_edge13_Node000010_Node000014"><a xlink:title=" ">
<path fill="none" stroke="#63b8ff" d="M483.96,-250.71C397.8,-247.03 188.63,-235.41 124.57,-207.5 91.83,-193.24 62.04,-163.53 45.13,-144.4"/>
<polygon fill="#63b8ff" stroke="#63b8ff" points="47.85,-142.2 38.69,-136.88 42.53,-146.75 47.85,-142.2"/>
</a>
</g>
</g>
<!-- Node15 -->
<g id="Node000015" class="node">
<title>Node15</title>
<g id="a_Node000015"><a xlink:title=" ">
<polygon fill="#e0e0e0" stroke="#999999" points="520.19,-201.88 468.94,-201.88 468.94,-182.62 520.19,-182.62 520.19,-201.88"/>
<text text-anchor="middle" x="494.57" y="-188.38" font-family="Helvetica,sans-Serif" font-size="10.00">sstream</text>
</a>
</g>
</g>
<!-- Node10&#45;&gt;Node15 -->
<g id="edge16_Node000010_Node000015" class="edge">
<title>Node10&#45;&gt;Node15</title>
<g id="a_edge16_Node000010_Node000015"><a xlink:title=" ">
<path fill="none" stroke="#63b8ff" d="M517.47,-243.18C513.74,-235.06 508.12,-222.79 503.38,-212.45"/>
<polygon fill="#63b8ff" stroke="#63b8ff" points="506.69,-211.28 499.34,-203.65 500.33,-214.2 506.69,-211.28"/>
</a>
</g>
</g>
<!-- Node16 -->
<g id="Node000016" class="node">
<title>Node16</title>
<g id="a_Node000016"><a xlink:title=" ">
<polygon fill="#e0e0e0" stroke="#999999" points="626.82,-201.88 576.32,-201.88 576.32,-182.62 626.82,-182.62 626.82,-201.88"/>
<text text-anchor="middle" x="601.57" y="-188.38" font-family="Helvetica,sans-Serif" font-size="10.00">memory</text>
</a>
</g>
</g>
<!-- Node10&#45;&gt;Node16 -->
<g id="edge17_Node000010_Node000016" class="edge">
<title>Node10&#45;&gt;Node16</title>
<g id="a_edge17_Node000010_Node000016"><a xlink:title=" ">
<path fill="none" stroke="#63b8ff" d="M533.72,-243.18C546.05,-234.11 565.4,-219.87 580.29,-208.91"/>
<polygon fill="#63b8ff" stroke="#63b8ff" points="582.11,-211.92 588.08,-203.17 577.96,-206.28 582.11,-211.92"/>
</a>
</g>
</g>
<!-- Node10&#45;&gt;Node17 -->
<g id="edge18_Node000010_Node000017" class="edge">
<title>Node10&#45;&gt;Node17</title>
<g id="a_edge18_Node000010_Node000017"><a xlink:title=" ">
<path fill="none" stroke="#63b8ff" d="M484,-252.94C398.72,-253.97 194.04,-251.67 144.57,-207.5 127.72,-192.46 124.38,-165.55 124.33,-146.95"/>
<polygon fill="#63b8ff" stroke="#63b8ff" points="127.82,-147.27 124.64,-137.16 120.82,-147.05 127.82,-147.27"/>
</a>
</g>
</g>
<!-- Node18 -->
<g id="Node000018" class="node">
<title>Node18</title>
<g id="a_Node000018"><a xlink:title=" ">
<polygon fill="#e0e0e0" stroke="#999999" points="673.97,-201.88 645.17,-201.88 645.17,-182.62 673.97,-182.62 673.97,-201.88"/>
<text text-anchor="middle" x="659.57" y="-188.38" font-family="Helvetica,sans-Serif" font-size="10.00">list</text>
</a>
</g>
</g>
<!-- Node10&#45;&gt;Node18 -->
<g id="edge19_Node000010_Node000018" class="edge">
<title>Node10&#45;&gt;Node18</title>
<g id="a_edge19_Node000010_Node000018"><a xlink:title=" ">
<path fill="none" stroke="#63b8ff" d="M548.35,-243.04C569.78,-235.47 600.65,-223.89 635.41,-207.1"/>
<polygon fill="#63b8ff" stroke="#63b8ff" points="636.53,-210.46 643.95,-202.9 633.43,-204.17 636.53,-210.46"/>
</a>
</g>
</g>
<!-- Node19 -->
<g id="Node000019" class="node">
<title>Node19</title>
<g id="a_Node000019"><a xlink:href="IssueFactory_8hpp.html" target="_top" xlink:title=" ">
<polygon fill="white" stroke="#666666" points="259.94,-201.88 153.19,-201.88 153.19,-182.62 259.94,-182.62 259.94,-201.88"/>
<text text-anchor="middle" x="206.57" y="-188.38" font-family="Helvetica,sans-Serif" font-size="10.00">ers/IssueFactory.hpp</text>
</a>
</g>
</g>
<!-- Node10&#45;&gt;Node19 -->
<g id="edge20_Node000010_Node000019" class="edge">
<title>Node10&#45;&gt;Node19</title>
<g id="a_edge20_Node000010_Node000019"><a xlink:title=" ">
<path fill="none" stroke="#63b8ff" d="M484.16,-246.14C434.69,-238.09 344.84,-222.98 268.57,-207.5 264.31,-206.63 259.89,-205.7 255.46,-204.73"/>
<polygon fill="#63b8ff" stroke="#63b8ff" points="256.54,-201.39 246.01,-202.63 255.01,-208.22 256.54,-201.39"/>
</a>
</g>
</g>
<!-- Node21 -->
<g id="Node000021" class="node">
<title>Node21</title>
<g id="a_Node000021"><a xlink:href="Severity_8hpp.html" target="_top" xlink:title=" ">
<polygon fill="white" stroke="#666666" points="509.44,-135.38 423.69,-135.38 423.69,-116.12 509.44,-116.12 509.44,-135.38"/>
<text text-anchor="middle" x="466.57" y="-121.88" font-family="Helvetica,sans-Serif" font-size="10.00">ers/Severity.hpp</text>
</a>
</g>
</g>
<!-- Node10&#45;&gt;Node21 -->
<g id="edge37_Node000010_Node000021" class="edge">
<title>Node10&#45;&gt;Node21</title>
<g id="a_edge37_Node000010_Node000021"><a xlink:title=" ">
<path fill="none" stroke="#63b8ff" d="M525.41,-243.28C531.13,-228.68 540.15,-198.98 529.57,-177 522.31,-161.93 508.1,-149.98 495,-141.52"/>
<polygon fill="#63b8ff" stroke="#63b8ff" points="497.02,-138.65 486.64,-136.51 493.42,-144.65 497.02,-138.65"/>
</a>
</g>
</g>
<!-- Node22 -->
<g id="Node000022" class="node">
<title>Node22</title>
<g id="a_Node000022"><a xlink:href="LocalContext_8hpp.html" target="_top" xlink:title=" ">
<polygon fill="white" stroke="#666666" points="799.32,-201.88 691.82,-201.88 691.82,-182.62 799.32,-182.62 799.32,-201.88"/>
<text text-anchor="middle" x="745.57" y="-188.38" font-family="Helvetica,sans-Serif" font-size="10.00">ers/LocalContext.hpp</text>
</a>
</g>
</g>
<!-- Node10&#45;&gt;Node22 -->
<g id="edge29_Node000010_Node000022" class="edge">
<title>Node10&#45;&gt;Node22</title>
<g id="a_edge29_Node000010_Node000022"><a xlink:title=" ">
<path fill="none" stroke="#63b8ff" d="M556.08,-243.05C594.72,-232.9 657.5,-216.4 700.11,-205.2"/>
<polygon fill="#63b8ff" stroke="#63b8ff" points="700.77,-208.64 709.56,-202.72 698.99,-201.87 700.77,-208.64"/>
</a>
</g>
</g>
<!-- Node27 -->
<g id="Node000027" class="node">
<title>Node27</title>
<g id="a_Node000027"><a xlink:href="IssueDeclarationMacro_8hpp.html" target="_top" xlink:title=" ">
<polygon fill="white" stroke="#666666" points="1247.44,-207.5 1107.69,-207.5 1107.69,-177 1247.44,-177 1247.44,-207.5"/>
<text text-anchor="start" x="1115.69" y="-194" font-family="Helvetica,sans-Serif" font-size="10.00">ers/internal/IssueDeclaration</text>
<text text-anchor="middle" x="1177.57" y="-182.75" font-family="Helvetica,sans-Serif" font-size="10.00">Macro.hpp</text>
</a>
</g>
</g>
<!-- Node10&#45;&gt;Node27 -->
<g id="edge38_Node000010_Node000027" class="edge">
<title>Node10&#45;&gt;Node27</title>
<g id="a_edge38_Node000010_Node000027"><a xlink:title=" ">
<path fill="none" stroke="#63b8ff" d="M559.19,-248.75C662.64,-239.46 953.1,-213.4 1096.04,-200.57"/>
<polygon fill="#63b8ff" stroke="#63b8ff" points="1096.17,-204.07 1105.81,-199.69 1095.54,-197.1 1096.17,-204.07"/>
</a>
</g>
</g>
<!-- Node19&#45;&gt;Node8 -->
<g id="edge22_Node000019_Node000008" class="edge">
<title>Node19&#45;&gt;Node8</title>
<g id="a_edge22_Node000019_Node000008"><a xlink:title=" ">
<path fill="none" stroke="#63b8ff" d="M242.81,-182.13C251.23,-180.23 260.18,-178.39 268.57,-177 423.72,-151.34 475.06,-200.66 620.57,-141 640.61,-132.78 639.23,-120.25 658.57,-110.5 703.48,-87.84 761.08,-75.82 796.12,-70.15"/>
<polygon fill="#63b8ff" stroke="#63b8ff" points="796.23,-73.68 805.58,-68.7 795.17,-66.76 796.23,-73.68"/>
</a>
</g>
</g>
<!-- Node19&#45;&gt;Node14 -->
<g id="edge24_Node000019_Node000014" class="edge">
<title>Node19&#45;&gt;Node14</title>
<g id="a_edge24_Node000019_Node000014"><a xlink:title=" ">
<path fill="none" stroke="#63b8ff" d="M181.73,-182.15C149.38,-170.29 92.96,-149.61 58.95,-137.15"/>
<polygon fill="#63b8ff" stroke="#63b8ff" points="60.36,-133.94 49.77,-133.79 57.95,-140.51 60.36,-133.94"/>
</a>
</g>
</g>
<!-- Node19&#45;&gt;Node17 -->
<g id="edge21_Node000019_Node000017" class="edge">
<title>Node19&#45;&gt;Node17</title>
<g id="a_edge21_Node000019_Node000017"><a xlink:title=" ">
<path fill="none" stroke="#63b8ff" d="M195.31,-182.28C182.56,-172.13 161.55,-155.4 145.91,-142.95"/>
<polygon fill="#63b8ff" stroke="#63b8ff" points="148.18,-140.28 138.18,-136.79 143.82,-145.76 148.18,-140.28"/>
</a>
</g>
</g>
<!-- Node20 -->
<g id="Node000020" class="node">
<title>Node20</title>
<g id="a_Node000020"><a xlink:title=" ">
<polygon fill="#e0e0e0" stroke="#999999" points="538.07,-74.5 495.07,-74.5 495.07,-55.25 538.07,-55.25 538.07,-74.5"/>
<text text-anchor="middle" x="516.57" y="-61" font-family="Helvetica,sans-Serif" font-size="10.00">vector</text>
</a>
</g>
</g>
<!-- Node19&#45;&gt;Node20 -->
<g id="edge23_Node000019_Node000020" class="edge">
<title>Node19&#45;&gt;Node20</title>
<g id="a_edge23_Node000019_Node000020"><a xlink:title=" ">
<path fill="none" stroke="#63b8ff" d="M229.11,-182.13C283.4,-160.18 421.52,-104.32 484.45,-78.87"/>
<polygon fill="#63b8ff" stroke="#63b8ff" points="485.58,-82.19 493.53,-75.19 482.95,-75.7 485.58,-82.19"/>
</a>
</g>
</g>
<!-- Node19&#45;&gt;Node21 -->
<g id="edge25_Node000019_Node000021" class="edge">
<title>Node19&#45;&gt;Node21</title>
<g id="a_edge25_Node000019_Node000021"><a xlink:title=" ">
<path fill="none" stroke="#63b8ff" d="M243.27,-182.15C289.34,-170.72 368.44,-151.09 419.08,-138.53"/>
<polygon fill="#63b8ff" stroke="#63b8ff" points="419.72,-141.98 428.59,-136.17 418.04,-135.18 419.72,-141.98"/>
</a>
</g>
</g>
<!-- Node21&#45;&gt;Node7 -->
<g id="edge28_Node000021_Node000007" class="edge">
<title>Node21&#45;&gt;Node7</title>
<g id="a_edge28_Node000021_Node000007"><a xlink:title=" ">
<path fill="none" stroke="#63b8ff" d="M466.02,-115.79C465.64,-100.63 467.35,-70.12 485.57,-55.25 535.81,-14.25 995.79,-10.71 1132.45,-10.57"/>
<polygon fill="#63b8ff" stroke="#63b8ff" points="1132.05,-14.07 1142.04,-10.57 1132.04,-7.07 1132.05,-14.07"/>
</a>
</g>
</g>
<!-- Node21&#45;&gt;Node8 -->
<g id="edge26_Node000021_Node000008" class="edge">
<title>Node21&#45;&gt;Node8</title>
<g id="a_edge26_Node000021_Node000008"><a xlink:title=" ">
<path fill="none" stroke="#63b8ff" d="M497.21,-115.67C504.19,-113.8 511.6,-111.95 518.57,-110.5 618.92,-89.59 739.64,-75.22 795.87,-69.14"/>
<polygon fill="#63b8ff" stroke="#63b8ff" points="796.09,-72.63 805.67,-68.1 795.35,-65.67 796.09,-72.63"/>
</a>
</g>
</g>
<!-- Node21&#45;&gt;Node20 -->
<g id="edge27_Node000021_Node000020" class="edge">
<title>Node21&#45;&gt;Node20</title>
<g id="a_edge27_Node000021_Node000020"><a xlink:title=" ">
<path fill="none" stroke="#63b8ff" d="M474.16,-115.81C481.43,-107.25 492.6,-94.1 501.65,-83.45"/>
<polygon fill="#63b8ff" stroke="#63b8ff" points="504.12,-85.94 507.92,-76.05 498.78,-81.41 504.12,-85.94"/>
</a>
</g>
</g>
<!-- Node23 -->
<g id="Node000023" class="node">
<title>Node23</title>
<g id="a_Node000023"><a xlink:title=" ">
<polygon fill="#e0e0e0" stroke="#999999" points="799.94,-135.38 735.19,-135.38 735.19,-116.12 799.94,-116.12 799.94,-135.38"/>
<text text-anchor="middle" x="767.57" y="-121.88" font-family="Helvetica,sans-Serif" font-size="10.00">sys/types.h</text>
</a>
</g>
</g>
<!-- Node22&#45;&gt;Node23 -->
<g id="edge30_Node000022_Node000023" class="edge">
<title>Node22&#45;&gt;Node23</title>
<g id="a_edge30_Node000022_Node000023"><a xlink:title=" ">
<path fill="none" stroke="#63b8ff" d="M748.63,-182.28C751.78,-173.04 756.8,-158.33 760.87,-146.38"/>
<polygon fill="#63b8ff" stroke="#63b8ff" points="764.13,-147.67 764.05,-137.07 757.51,-145.41 764.13,-147.67"/>
</a>
</g>
</g>
<!-- Node24 -->
<g id="Node000024" class="node">
<title>Node24</title>
<g id="a_Node000024"><a xlink:title=" ">
<polygon fill="#e0e0e0" stroke="#999999" points="717.44,-135.38 667.69,-135.38 667.69,-116.12 717.44,-116.12 717.44,-135.38"/>
<text text-anchor="middle" x="692.57" y="-121.88" font-family="Helvetica,sans-Serif" font-size="10.00">unistd.h</text>
</a>
</g>
</g>
<!-- Node22&#45;&gt;Node24 -->
<g id="edge31_Node000022_Node000024" class="edge">
<title>Node22&#45;&gt;Node24</title>
<g id="a_edge31_Node000022_Node000024"><a xlink:title=" ">
<path fill="none" stroke="#63b8ff" d="M738.2,-182.28C730.21,-172.56 717.25,-156.79 707.18,-144.53"/>
<polygon fill="#63b8ff" stroke="#63b8ff" points="709.89,-142.32 700.84,-136.81 704.48,-146.76 709.89,-142.32"/>
</a>
</g>
</g>
<!-- Node25 -->
<g id="Node000025" class="node">
<title>Node25</title>
<g id="a_Node000025"><a xlink:href="Context_8hpp.html" target="_top" xlink:title=" ">
<polygon fill="white" stroke="#666666" points="611.32,-135.38 527.82,-135.38 527.82,-116.12 611.32,-116.12 611.32,-135.38"/>
<text text-anchor="middle" x="569.57" y="-121.88" font-family="Helvetica,sans-Serif" font-size="10.00">ers/Context.hpp</text>
</a>
</g>
</g>
<!-- Node22&#45;&gt;Node25 -->
<g id="edge32_Node000022_Node000025" class="edge">
<title>Node22&#45;&gt;Node25</title>
<g id="a_edge32_Node000022_Node000025"><a xlink:title=" ">
<path fill="none" stroke="#63b8ff" d="M720.73,-182.15C690.46,-171.05 639.12,-152.24 604.79,-139.66"/>
<polygon fill="#63b8ff" stroke="#63b8ff" points="606.3,-136.48 595.71,-136.33 603.89,-143.06 606.3,-136.48"/>
</a>
</g>
</g>
<!-- Node25&#45;&gt;Node8 -->
<g id="edge33_Node000025_Node000008" class="edge">
<title>Node25&#45;&gt;Node8</title>
<g id="a_edge33_Node000025_Node000008"><a xlink:title=" ">
<path fill="none" stroke="#63b8ff" d="M604.48,-115.68C611.45,-113.92 618.74,-112.12 625.57,-110.5 685.71,-96.21 756.28,-80.96 796.08,-72.51"/>
<polygon fill="#63b8ff" stroke="#63b8ff" points="796.62,-75.97 805.68,-70.47 795.17,-69.12 796.62,-75.97"/>
</a>
</g>
</g>
<!-- Node25&#45;&gt;Node20 -->
<g id="edge34_Node000025_Node000020" class="edge">
<title>Node25&#45;&gt;Node20</title>
<g id="a_edge34_Node000025_Node000020"><a xlink:title=" ">
<path fill="none" stroke="#63b8ff" d="M561.52,-115.81C553.81,-107.25 541.98,-94.1 532.39,-83.45"/>
<polygon fill="#63b8ff" stroke="#63b8ff" points="535,-81.12 525.71,-76.03 529.8,-85.8 535,-81.12"/>
</a>
</g>
</g>
<!-- Node26 -->
<g id="Node000026" class="node">
<title>Node26</title>
<g id="a_Node000026"><a xlink:href="ers_2include_2ers_2Configuration_8hpp.html" target="_top" xlink:title=" ">
<polygon fill="white" stroke="#666666" points="725.94,-74.5 619.19,-74.5 619.19,-55.25 725.94,-55.25 725.94,-74.5"/>
<text text-anchor="middle" x="672.57" y="-61" font-family="Helvetica,sans-Serif" font-size="10.00">ers/Configuration.hpp</text>
</a>
</g>
</g>
<!-- Node25&#45;&gt;Node26 -->
<g id="edge35_Node000025_Node000026" class="edge">
<title>Node25&#45;&gt;Node26</title>
<g id="a_edge35_Node000025_Node000026"><a xlink:title=" ">
<path fill="none" stroke="#63b8ff" d="M585.21,-115.81C601.55,-106.47 627.43,-91.67 646.8,-80.61"/>
<polygon fill="#63b8ff" stroke="#63b8ff" points="648.52,-83.65 655.46,-75.65 645.04,-77.58 648.52,-83.65"/>
</a>
</g>
</g>
<!-- Node26&#45;&gt;Node7 -->
<g id="edge36_Node000026_Node000007" class="edge">
<title>Node26&#45;&gt;Node7</title>
<g id="a_edge36_Node000026_Node000007"><a xlink:title=" ">
<path fill="none" stroke="#63b8ff" d="M726.34,-58.13C827.57,-47.3 1044.17,-24.14 1132.19,-14.73"/>
<polygon fill="#63b8ff" stroke="#63b8ff" points="1132.42,-18.22 1141.99,-13.68 1131.67,-11.26 1132.42,-18.22"/>
</a>
</g>
</g>
<!-- Node28 -->
<g id="Node000028" class="node">
<title>Node28</title>
<g id="a_Node000028"><a xlink:title=" ">
<polygon fill="#e0e0e0" stroke="#999999" points="1461.19,-141 1361.94,-141 1361.94,-110.5 1461.19,-110.5 1461.19,-141"/>
<text text-anchor="start" x="1369.94" y="-127.5" font-family="Helvetica,sans-Serif" font-size="10.00">boost/preprocessor</text>
<text text-anchor="middle" x="1411.57" y="-116.25" font-family="Helvetica,sans-Serif" font-size="10.00">/if.hpp</text>
</a>
</g>
</g>
<!-- Node27&#45;&gt;Node28 -->
<g id="edge39_Node000027_Node000028" class="edge">
<title>Node27&#45;&gt;Node28</title>
<g id="a_edge39_Node000027_Node000028"><a xlink:title=" ">
<path fill="none" stroke="#63b8ff" d="M1230.96,-176.53C1266.69,-166.69 1313.78,-153.7 1350.92,-143.47"/>
<polygon fill="#63b8ff" stroke="#63b8ff" points="1351.44,-146.95 1360.15,-140.92 1349.58,-140.21 1351.44,-146.95"/>
</a>
</g>
</g>
<!-- Node29 -->
<g id="Node000029" class="node">
<title>Node29</title>
<g id="a_Node000029"><a xlink:title=" ">
<polygon fill="#e0e0e0" stroke="#999999" points="1578.19,-141 1478.94,-141 1478.94,-110.5 1578.19,-110.5 1578.19,-141"/>
<text text-anchor="start" x="1486.94" y="-127.5" font-family="Helvetica,sans-Serif" font-size="10.00">boost/preprocessor</text>
<text text-anchor="middle" x="1528.57" y="-116.25" font-family="Helvetica,sans-Serif" font-size="10.00">/seq.hpp</text>
</a>
</g>
</g>
<!-- Node27&#45;&gt;Node29 -->
<g id="edge40_Node000027_Node000029" class="edge">
<title>Node27&#45;&gt;Node29</title>
<g id="a_edge40_Node000027_Node000029"><a xlink:title=" ">
<path fill="none" stroke="#63b8ff" d="M1247.69,-180.66C1304.65,-171.73 1387.31,-158.03 1467.81,-141.5"/>
<polygon fill="#63b8ff" stroke="#63b8ff" points="1468.07,-145.02 1477.15,-139.56 1466.65,-138.17 1468.07,-145.02"/>
</a>
</g>
</g>
<!-- Node30 -->
<g id="Node000030" class="node">
<title>Node30</title>
<g id="a_Node000030"><a xlink:title=" ">
<polygon fill="#e0e0e0" stroke="#999999" points="1227.19,-141 1127.94,-141 1127.94,-110.5 1227.19,-110.5 1227.19,-141"/>
<text text-anchor="start" x="1135.94" y="-127.5" font-family="Helvetica,sans-Serif" font-size="10.00">boost/preprocessor</text>
<text text-anchor="middle" x="1177.57" y="-116.25" font-family="Helvetica,sans-Serif" font-size="10.00">/tuple.hpp</text>
</a>
</g>
</g>
<!-- Node27&#45;&gt;Node30 -->
<g id="edge41_Node000027_Node000030" class="edge">
<title>Node27&#45;&gt;Node30</title>
<g id="a_edge41_Node000027_Node000030"><a xlink:title=" ">
<path fill="none" stroke="#63b8ff" d="M1177.57,-176.61C1177.57,-169.52 1177.57,-160.79 1177.57,-152.63"/>
<polygon fill="#63b8ff" stroke="#63b8ff" points="1181.07,-152.84 1177.57,-142.84 1174.07,-152.84 1181.07,-152.84"/>
</a>
</g>
</g>
<!-- Node31 -->
<g id="Node000031" class="node">
<title>Node31</title>
<g id="a_Node000031"><a xlink:title=" ">
<polygon fill="#e0e0e0" stroke="#999999" points="993.19,-141 893.94,-141 893.94,-110.5 993.19,-110.5 993.19,-141"/>
<text text-anchor="start" x="901.94" y="-127.5" font-family="Helvetica,sans-Serif" font-size="10.00">boost/preprocessor</text>
<text text-anchor="middle" x="943.57" y="-116.25" font-family="Helvetica,sans-Serif" font-size="10.00">/logical.hpp</text>
</a>
</g>
</g>
<!-- Node27&#45;&gt;Node31 -->
<g id="edge42_Node000027_Node000031" class="edge">
<title>Node27&#45;&gt;Node31</title>
<g id="a_edge42_Node000027_Node000031"><a xlink:title=" ">
<path fill="none" stroke="#63b8ff" d="M1124.18,-176.53C1088.45,-166.69 1041.36,-153.7 1004.22,-143.47"/>
<polygon fill="#63b8ff" stroke="#63b8ff" points="1005.56,-140.21 994.99,-140.92 1003.7,-146.95 1005.56,-140.21"/>
</a>
</g>
</g>
<!-- Node32 -->
<g id="Node000032" class="node">
<title>Node32</title>
<g id="a_Node000032"><a xlink:title=" ">
<polygon fill="#e0e0e0" stroke="#999999" points="1110.19,-141 1010.94,-141 1010.94,-110.5 1110.19,-110.5 1110.19,-141"/>
<text text-anchor="start" x="1018.94" y="-127.5" font-family="Helvetica,sans-Serif" font-size="10.00">boost/preprocessor</text>
<text text-anchor="middle" x="1060.57" y="-116.25" font-family="Helvetica,sans-Serif" font-size="10.00">/stringize.hpp</text>
</a>
</g>
</g>
<!-- Node27&#45;&gt;Node32 -->
<g id="edge43_Node000027_Node000032" class="edge">
<title>Node27&#45;&gt;Node32</title>
<g id="a_edge43_Node000027_Node000032"><a xlink:title=" ">
<path fill="none" stroke="#63b8ff" d="M1151.02,-176.61C1135.01,-167.79 1114.4,-156.43 1096.9,-146.78"/>
<polygon fill="#63b8ff" stroke="#63b8ff" points="1098.78,-143.82 1088.34,-142.06 1095.41,-149.95 1098.78,-143.82"/>
</a>
</g>
</g>
<!-- Node33 -->
<g id="Node000033" class="node">
<title>Node33</title>
<g id="a_Node000033"><a xlink:title=" ">
<polygon fill="#e0e0e0" stroke="#999999" points="1344.19,-141 1244.94,-141 1244.94,-110.5 1344.19,-110.5 1344.19,-141"/>
<text text-anchor="start" x="1252.94" y="-127.5" font-family="Helvetica,sans-Serif" font-size="10.00">boost/preprocessor</text>
<text text-anchor="middle" x="1294.57" y="-116.25" font-family="Helvetica,sans-Serif" font-size="10.00">/comparison.hpp</text>
</a>
</g>
</g>
<!-- Node27&#45;&gt;Node33 -->
<g id="edge44_Node000027_Node000033" class="edge">
<title>Node27&#45;&gt;Node33</title>
<g id="a_edge44_Node000027_Node000033"><a xlink:title=" ">
<path fill="none" stroke="#63b8ff" d="M1204.12,-176.61C1220.12,-167.79 1240.73,-156.43 1258.24,-146.78"/>
<polygon fill="#63b8ff" stroke="#63b8ff" points="1259.73,-149.95 1266.8,-142.06 1256.35,-143.82 1259.73,-149.95"/>
</a>
</g>
</g>
</g>
</svg>
