<?xml version="1.0" encoding="UTF-8" standalone="no"?>
<!DOCTYPE svg PUBLIC "-//W3C//DTD SVG 1.1//EN"
 "http://www.w3.org/Graphics/SVG/1.1/DTD/svg11.dtd">
<!-- Generated by graphviz version 9.0.0 (20230911.1827)
 -->
<!-- Title: /github/workspace/dev_area/build/timing/codegen/include/timing/timingfirmware/Nljs.hpp Pages: 1 -->
<svg width="1749pt" height="539pt"
 viewBox="0.00 0.00 1748.50 538.75" xmlns="http://www.w3.org/2000/svg" xmlns:xlink="http://www.w3.org/1999/xlink">
<g id="graph0" class="graph" transform="scale(1 1) rotate(0) translate(4 534.75)">
<title>/github/workspace/dev_area/build/timing/codegen/include/timing/timingfirmware/Nljs.hpp</title>
<!-- Node1 -->
<g id="Node000001" class="node">
<title>Node1</title>
<g id="a_Node000001"><a xlink:title=" ">
<polygon fill="#999999" stroke="#666666" points="1147,-530.75 1002,-530.75 1002,-477.75 1147,-477.75 1147,-530.75"/>
<text text-anchor="start" x="1010" y="-517.25" font-family="Helvetica,sans-Serif" font-size="10.00">/github/workspace/dev</text>
<text text-anchor="start" x="1010" y="-506" font-family="Helvetica,sans-Serif" font-size="10.00">_area/build/timing/codegen</text>
<text text-anchor="start" x="1010" y="-494.75" font-family="Helvetica,sans-Serif" font-size="10.00">/include/timing/timingfirmware</text>
<text text-anchor="middle" x="1074.5" y="-483.5" font-family="Helvetica,sans-Serif" font-size="10.00">/Nljs.hpp</text>
</a>
</g>
</g>
<!-- Node2 -->
<g id="Node000002" class="node">
<title>Node2</title>
<g id="a_Node000002"><a xlink:href="MasterNode_8hpp.html" target="_top" xlink:title=" ">
<polygon fill="white" stroke="#666666" points="897.12,-364 743.88,-364 743.88,-322.25 897.12,-322.25 897.12,-364"/>
<text text-anchor="start" x="751.88" y="-350.5" font-family="Helvetica,sans-Serif" font-size="10.00">/github/workspace/dev</text>
<text text-anchor="start" x="751.88" y="-339.25" font-family="Helvetica,sans-Serif" font-size="10.00">_area/sourcecode/timing</text>
<text text-anchor="middle" x="820.5" y="-328" font-family="Helvetica,sans-Serif" font-size="10.00">/include/timing/MasterNode.hpp</text>
</a>
</g>
</g>
<!-- Node1&#45;&gt;Node2 -->
<g id="edge1_Node000001_Node000002" class="edge">
<title>Node1&#45;&gt;Node2</title>
<g id="a_edge1_Node000001_Node000002"><a xlink:title=" ">
<path fill="none" stroke="#63b8ff" d="M1019.16,-471.54C1003.05,-462.11 985.48,-451.66 969.5,-441.75 927.71,-415.84 880.35,-384.46 850.46,-364.39"/>
<polygon fill="#63b8ff" stroke="#63b8ff" points="1017.27,-474.48 1027.67,-476.49 1020.79,-468.44 1017.27,-474.48"/>
</a>
</g>
</g>
<!-- Node6 -->
<g id="Node000006" class="node">
<title>Node6</title>
<g id="a_Node000006"><a xlink:href="MasterNodeInterface_8hpp.html" target="_top" xlink:title=" ">
<polygon fill="white" stroke="#666666" points="1170.25,-441.75 978.75,-441.75 978.75,-400 1170.25,-400 1170.25,-441.75"/>
<text text-anchor="start" x="986.75" y="-428.25" font-family="Helvetica,sans-Serif" font-size="10.00">/github/workspace/dev</text>
<text text-anchor="start" x="986.75" y="-417" font-family="Helvetica,sans-Serif" font-size="10.00">_area/sourcecode/timing</text>
<text text-anchor="middle" x="1074.5" y="-405.75" font-family="Helvetica,sans-Serif" font-size="10.00">/include/timing/MasterNodeInterface.hpp</text>
</a>
</g>
</g>
<!-- Node1&#45;&gt;Node6 -->
<g id="edge5_Node000001_Node000006" class="edge">
<title>Node1&#45;&gt;Node6</title>
<g id="a_edge5_Node000001_Node000006"><a xlink:title=" ">
<path fill="none" stroke="#63b8ff" d="M1074.5,-466.08C1074.5,-457.8 1074.5,-449.33 1074.5,-442.04"/>
<polygon fill="#63b8ff" stroke="#63b8ff" points="1071,-465.99 1074.5,-475.99 1078,-465.99 1071,-465.99"/>
</a>
</g>
</g>
<!-- Node15 -->
<g id="Node000015" class="node">
<title>Node15</title>
<g id="a_Node000015"><a xlink:href="sourcecode_2timinglibs_2src_2TimingHardwareManager_8cpp.html" target="_top" xlink:title=" ">
<polygon fill="white" stroke="#666666" points="1712.62,-41.75 1550.38,-41.75 1550.38,0 1712.62,0 1712.62,-41.75"/>
<text text-anchor="start" x="1558.38" y="-28.25" font-family="Helvetica,sans-Serif" font-size="10.00">/github/workspace/dev</text>
<text text-anchor="start" x="1558.38" y="-17" font-family="Helvetica,sans-Serif" font-size="10.00">_area/sourcecode/timinglibs</text>
<text text-anchor="middle" x="1631.5" y="-5.75" font-family="Helvetica,sans-Serif" font-size="10.00">/src/TimingHardwareManager.cpp</text>
</a>
</g>
</g>
<!-- Node1&#45;&gt;Node15 -->
<g id="edge44_Node000001_Node000015" class="edge">
<title>Node1&#45;&gt;Node15</title>
<g id="a_edge44_Node000001_Node000015"><a xlink:title=" ">
<path fill="none" stroke="#63b8ff" d="M1158.83,-500.69C1338.04,-492.95 1740.5,-462.41 1740.5,-344.12 1740.5,-344.12 1740.5,-344.12 1740.5,-175.38 1740.5,-118.99 1691.01,-68.9 1658.72,-42.22"/>
<polygon fill="#63b8ff" stroke="#63b8ff" points="1158.72,-497.19 1148.87,-501.1 1159.01,-504.19 1158.72,-497.19"/>
</a>
</g>
</g>
<!-- Node3 -->
<g id="Node000003" class="node">
<title>Node3</title>
<g id="a_Node000003"><a xlink:href="definitions_8cpp.html" target="_top" xlink:title=" ">
<polygon fill="white" stroke="#666666" points="854.88,-280.62 730.12,-280.62 730.12,-238.88 854.88,-238.88 854.88,-280.62"/>
<text text-anchor="start" x="738.12" y="-267.12" font-family="Helvetica,sans-Serif" font-size="10.00">/github/workspace/dev</text>
<text text-anchor="start" x="738.12" y="-255.88" font-family="Helvetica,sans-Serif" font-size="10.00">_area/sourcecode/timing</text>
<text text-anchor="middle" x="792.5" y="-244.62" font-family="Helvetica,sans-Serif" font-size="10.00">/pybindsrc/definitions.cpp</text>
</a>
</g>
</g>
<!-- Node2&#45;&gt;Node3 -->
<g id="edge2_Node000002_Node000003" class="edge">
<title>Node2&#45;&gt;Node3</title>
<g id="a_edge2_Node000002_Node000003"><a xlink:title=" ">
<path fill="none" stroke="#63b8ff" d="M809.93,-311.42C806.42,-301.21 802.6,-290.12 799.44,-280.92"/>
<polygon fill="#63b8ff" stroke="#63b8ff" points="806.52,-312.26 813.09,-320.58 813.14,-309.98 806.52,-312.26"/>
</a>
</g>
</g>
<!-- Node4 -->
<g id="Node000004" class="node">
<title>Node4</title>
<g id="a_Node000004"><a xlink:href="master_8cpp.html" target="_top" xlink:title=" ">
<polygon fill="white" stroke="#666666" points="995.75,-280.62 873.25,-280.62 873.25,-238.88 995.75,-238.88 995.75,-280.62"/>
<text text-anchor="start" x="881.25" y="-267.12" font-family="Helvetica,sans-Serif" font-size="10.00">/github/workspace/dev</text>
<text text-anchor="start" x="881.25" y="-255.88" font-family="Helvetica,sans-Serif" font-size="10.00">_area/sourcecode/timing</text>
<text text-anchor="middle" x="934.5" y="-244.62" font-family="Helvetica,sans-Serif" font-size="10.00">/pybindsrc/master.cpp</text>
</a>
</g>
</g>
<!-- Node2&#45;&gt;Node4 -->
<g id="edge3_Node000002_Node000004" class="edge">
<title>Node2&#45;&gt;Node4</title>
<g id="a_edge3_Node000002_Node000004"><a xlink:title=" ">
<path fill="none" stroke="#63b8ff" d="M858.33,-315.12C873.87,-304.03 891.57,-291.39 905.99,-281.1"/>
<polygon fill="#63b8ff" stroke="#63b8ff" points="856.31,-312.26 850.2,-320.92 860.38,-317.96 856.31,-312.26"/>
</a>
</g>
</g>
<!-- Node5 -->
<g id="Node000005" class="node">
<title>Node5</title>
<g id="a_Node000005"><a xlink:href="MasterNode_8cpp.html" target="_top" xlink:title=" ">
<polygon fill="white" stroke="#666666" points="711.75,-280.62 589.25,-280.62 589.25,-238.88 711.75,-238.88 711.75,-280.62"/>
<text text-anchor="start" x="597.25" y="-267.12" font-family="Helvetica,sans-Serif" font-size="10.00">/github/workspace/dev</text>
<text text-anchor="start" x="597.25" y="-255.88" font-family="Helvetica,sans-Serif" font-size="10.00">_area/sourcecode/timing</text>
<text text-anchor="middle" x="650.5" y="-244.62" font-family="Helvetica,sans-Serif" font-size="10.00">/src/MasterNode.cpp</text>
</a>
</g>
</g>
<!-- Node2&#45;&gt;Node5 -->
<g id="edge4_Node000002_Node000005" class="edge">
<title>Node2&#45;&gt;Node5</title>
<g id="a_edge4_Node000002_Node000005"><a xlink:title=" ">
<path fill="none" stroke="#63b8ff" d="M767.67,-316.84C743.66,-305.34 715.63,-291.93 693.01,-281.1"/>
<polygon fill="#63b8ff" stroke="#63b8ff" points="766.14,-319.99 776.68,-321.15 769.17,-313.67 766.14,-319.99"/>
</a>
</g>
</g>
<!-- Node6&#45;&gt;Node2 -->
<g id="edge38_Node000006_Node000002" class="edge">
<title>Node6&#45;&gt;Node2</title>
<g id="a_edge38_Node000006_Node000002"><a xlink:title=" ">
<path fill="none" stroke="#63b8ff" d="M995.53,-396.32C961.33,-386.12 921.67,-374.3 888.76,-364.48"/>
<polygon fill="#63b8ff" stroke="#63b8ff" points="994.4,-399.64 1004.98,-399.14 996.4,-392.93 994.4,-399.64"/>
</a>
</g>
</g>
<!-- Node7 -->
<g id="Node000007" class="node">
<title>Node7</title>
<g id="a_Node000007"><a xlink:href="MasterDesignInterface_8hpp.html" target="_top" xlink:title=" ">
<polygon fill="white" stroke="#666666" points="1491.62,-364 1293.38,-364 1293.38,-322.25 1491.62,-322.25 1491.62,-364"/>
<text text-anchor="start" x="1301.38" y="-350.5" font-family="Helvetica,sans-Serif" font-size="10.00">/github/workspace/dev</text>
<text text-anchor="start" x="1301.38" y="-339.25" font-family="Helvetica,sans-Serif" font-size="10.00">_area/sourcecode/timing</text>
<text text-anchor="middle" x="1392.5" y="-328" font-family="Helvetica,sans-Serif" font-size="10.00">/include/timing/MasterDesignInterface.hpp</text>
</a>
</g>
</g>
<!-- Node6&#45;&gt;Node7 -->
<g id="edge6_Node000006_Node000007" class="edge">
<title>Node6&#45;&gt;Node7</title>
<g id="a_edge6_Node000006_Node000007"><a xlink:title=" ">
<path fill="none" stroke="#63b8ff" d="M1170.87,-396.92C1214.25,-386.58 1265.04,-374.49 1307.05,-364.48"/>
<polygon fill="#63b8ff" stroke="#63b8ff" points="1170.11,-393.5 1161.19,-399.22 1171.73,-400.31 1170.11,-393.5"/>
</a>
</g>
</g>
<!-- Node31 -->
<g id="Node000031" class="node">
<title>Node31</title>
<g id="a_Node000031"><a xlink:href="PDIMasterNode_8hpp.html" target="_top" xlink:title=" ">
<polygon fill="white" stroke="#666666" points="1247.38,-364 1077.62,-364 1077.62,-322.25 1247.38,-322.25 1247.38,-364"/>
<text text-anchor="start" x="1085.62" y="-350.5" font-family="Helvetica,sans-Serif" font-size="10.00">/github/workspace/dev</text>
<text text-anchor="start" x="1085.62" y="-339.25" font-family="Helvetica,sans-Serif" font-size="10.00">_area/sourcecode/timing</text>
<text text-anchor="middle" x="1162.5" y="-328" font-family="Helvetica,sans-Serif" font-size="10.00">/include/timing/PDIMasterNode.hpp</text>
</a>
</g>
</g>
<!-- Node6&#45;&gt;Node31 -->
<g id="edge39_Node000006_Node000031" class="edge">
<title>Node6&#45;&gt;Node31</title>
<g id="a_edge39_Node000006_Node000031"><a xlink:title=" ">
<path fill="none" stroke="#63b8ff" d="M1106.72,-392.14C1117.36,-382.98 1128.98,-372.98 1138.85,-364.48"/>
<polygon fill="#63b8ff" stroke="#63b8ff" points="1104.53,-389.41 1099.23,-398.59 1109.09,-394.72 1104.53,-389.41"/>
</a>
</g>
</g>
<!-- Node33 -->
<g id="Node000033" class="node">
<title>Node33</title>
<g id="a_Node000033"><a xlink:href="MasterNodeInterface_8cpp.html" target="_top" xlink:title=" ">
<polygon fill="white" stroke="#666666" points="1060,-364 915,-364 915,-322.25 1060,-322.25 1060,-364"/>
<text text-anchor="start" x="923" y="-350.5" font-family="Helvetica,sans-Serif" font-size="10.00">/github/workspace/dev</text>
<text text-anchor="start" x="923" y="-339.25" font-family="Helvetica,sans-Serif" font-size="10.00">_area/sourcecode/timing</text>
<text text-anchor="middle" x="987.5" y="-328" font-family="Helvetica,sans-Serif" font-size="10.00">/src/MasterNodeInterface.cpp</text>
</a>
</g>
</g>
<!-- Node6&#45;&gt;Node33 -->
<g id="edge43_Node000006_Node000033" class="edge">
<title>Node6&#45;&gt;Node33</title>
<g id="a_edge43_Node000006_Node000033"><a xlink:title=" ">
<path fill="none" stroke="#63b8ff" d="M1042.64,-392.14C1032.13,-382.98 1020.64,-372.98 1010.88,-364.48"/>
<polygon fill="#63b8ff" stroke="#63b8ff" points="1040.2,-394.65 1050.04,-398.58 1044.8,-389.38 1040.2,-394.65"/>
</a>
</g>
</g>
<!-- Node8 -->
<g id="Node000008" class="node">
<title>Node8</title>
<g id="a_Node000008"><a xlink:href="MasterDesign_8hpp.html" target="_top" xlink:title=" ">
<polygon fill="white" stroke="#666666" points="1315.5,-280.62 1155.5,-280.62 1155.5,-238.88 1315.5,-238.88 1315.5,-280.62"/>
<text text-anchor="start" x="1163.5" y="-267.12" font-family="Helvetica,sans-Serif" font-size="10.00">/github/workspace/dev</text>
<text text-anchor="start" x="1163.5" y="-255.88" font-family="Helvetica,sans-Serif" font-size="10.00">_area/sourcecode/timing</text>
<text text-anchor="middle" x="1235.5" y="-244.62" font-family="Helvetica,sans-Serif" font-size="10.00">/include/timing/MasterDesign.hpp</text>
</a>
</g>
</g>
<!-- Node7&#45;&gt;Node8 -->
<g id="edge7_Node000007_Node000008" class="edge">
<title>Node7&#45;&gt;Node8</title>
<g id="a_edge7_Node000007_Node000008"><a xlink:title=" ">
<path fill="none" stroke="#63b8ff" d="M1343.12,-316.53C1321.07,-305.1 1295.46,-291.83 1274.76,-281.1"/>
<polygon fill="#63b8ff" stroke="#63b8ff" points="1341.45,-319.61 1351.94,-321.1 1344.68,-313.39 1341.45,-319.61"/>
</a>
</g>
</g>
<!-- Node28 -->
<g id="Node000028" class="node">
<title>Node28</title>
<g id="a_Node000028"><a xlink:href="OverlordDesignInterface_8hpp.html" target="_top" xlink:title=" ">
<polygon fill="white" stroke="#666666" points="1522.88,-286.25 1374.12,-286.25 1374.12,-233.25 1522.88,-233.25 1522.88,-286.25"/>
<text text-anchor="start" x="1382.12" y="-272.75" font-family="Helvetica,sans-Serif" font-size="10.00">/github/workspace/dev</text>
<text text-anchor="start" x="1382.12" y="-261.5" font-family="Helvetica,sans-Serif" font-size="10.00">_area/sourcecode/timing</text>
<text text-anchor="start" x="1382.12" y="-250.25" font-family="Helvetica,sans-Serif" font-size="10.00">/include/timing/OverlordDesign</text>
<text text-anchor="middle" x="1448.5" y="-239" font-family="Helvetica,sans-Serif" font-size="10.00">Interface.hpp</text>
</a>
</g>
</g>
<!-- Node7&#45;&gt;Node28 -->
<g id="edge33_Node000007_Node000028" class="edge">
<title>Node7&#45;&gt;Node28</title>
<g id="a_edge33_Node000007_Node000028"><a xlink:title=" ">
<path fill="none" stroke="#63b8ff" d="M1412.74,-312.72C1418.65,-304.13 1425.05,-294.82 1430.79,-286.48"/>
<polygon fill="#63b8ff" stroke="#63b8ff" points="1409.99,-310.54 1407.2,-320.76 1415.75,-314.51 1409.99,-310.54"/>
</a>
</g>
</g>
<!-- Node30 -->
<g id="Node000030" class="node">
<title>Node30</title>
<g id="a_Node000030"><a xlink:href="sourcecode_2timinglibs_2src_2TimingHardwareManager_8hpp.html" target="_top" xlink:title=" ">
<polygon fill="white" stroke="#666666" points="1712.62,-197.25 1550.38,-197.25 1550.38,-155.5 1712.62,-155.5 1712.62,-197.25"/>
<text text-anchor="start" x="1558.38" y="-183.75" font-family="Helvetica,sans-Serif" font-size="10.00">/github/workspace/dev</text>
<text text-anchor="start" x="1558.38" y="-172.5" font-family="Helvetica,sans-Serif" font-size="10.00">_area/sourcecode/timinglibs</text>
<text text-anchor="middle" x="1631.5" y="-161.25" font-family="Helvetica,sans-Serif" font-size="10.00">/src/TimingHardwareManager.hpp</text>
</a>
</g>
</g>
<!-- Node7&#45;&gt;Node30 -->
<g id="edge36_Node000007_Node000030" class="edge">
<title>Node7&#45;&gt;Node30</title>
<g id="a_edge36_Node000007_Node000030"><a xlink:title=" ">
<path fill="none" stroke="#63b8ff" d="M1470.94,-317.64C1491.59,-309.35 1513.19,-298.91 1531.5,-286.25 1567.39,-261.43 1599.71,-221.56 1617.38,-197.58"/>
<polygon fill="#63b8ff" stroke="#63b8ff" points="1469.73,-314.36 1461.67,-321.23 1472.26,-320.88 1469.73,-314.36"/>
</a>
</g>
</g>
<!-- Node9 -->
<g id="Node000009" class="node">
<title>Node9</title>
<g id="a_Node000009"><a xlink:href="BoreasDesign_8hpp.html" target="_top" xlink:title=" ">
<polygon fill="white" stroke="#666666" points="992.88,-197.25 832.12,-197.25 832.12,-155.5 992.88,-155.5 992.88,-197.25"/>
<text text-anchor="start" x="840.12" y="-183.75" font-family="Helvetica,sans-Serif" font-size="10.00">/github/workspace/dev</text>
<text text-anchor="start" x="840.12" y="-172.5" font-family="Helvetica,sans-Serif" font-size="10.00">_area/sourcecode/timing</text>
<text text-anchor="middle" x="912.5" y="-161.25" font-family="Helvetica,sans-Serif" font-size="10.00">/include/timing/BoreasDesign.hpp</text>
</a>
</g>
</g>
<!-- Node8&#45;&gt;Node9 -->
<g id="edge8_Node000008_Node000009" class="edge">
<title>Node8&#45;&gt;Node9</title>
<g id="a_edge8_Node000008_Node000009"><a xlink:title=" ">
<path fill="none" stroke="#63b8ff" d="M1154.77,-235.45C1151.99,-234.7 1149.22,-233.96 1146.5,-233.25 1095.7,-219.91 1038.34,-206.2 993.13,-195.69"/>
<polygon fill="#63b8ff" stroke="#63b8ff" points="1153.59,-238.76 1164.16,-238.01 1155.43,-232 1153.59,-238.76"/>
</a>
</g>
</g>
<!-- Node12 -->
<g id="Node000012" class="node">
<title>Node12</title>
<g id="a_Node000012"><a xlink:href="MasterMuxDesign_8hpp.html" target="_top" xlink:title=" ">
<polygon fill="white" stroke="#666666" points="591.5,-197.25 413.5,-197.25 413.5,-155.5 591.5,-155.5 591.5,-197.25"/>
<text text-anchor="start" x="421.5" y="-183.75" font-family="Helvetica,sans-Serif" font-size="10.00">/github/workspace/dev</text>
<text text-anchor="start" x="421.5" y="-172.5" font-family="Helvetica,sans-Serif" font-size="10.00">_area/sourcecode/timing</text>
<text text-anchor="middle" x="502.5" y="-161.25" font-family="Helvetica,sans-Serif" font-size="10.00">/include/timing/MasterMuxDesign.hpp</text>
</a>
</g>
</g>
<!-- Node8&#45;&gt;Node12 -->
<g id="edge11_Node000008_Node000012" class="edge">
<title>Node8&#45;&gt;Node12</title>
<g id="a_edge11_Node000008_Node000012"><a xlink:title=" ">
<path fill="none" stroke="#63b8ff" d="M1159.69,-235.89C1155.25,-234.9 1150.83,-234.01 1146.5,-233.25 920.09,-193.37 858.95,-222.91 630.5,-197.25 617.99,-195.84 604.82,-194.1 591.89,-192.24"/>
<polygon fill="#63b8ff" stroke="#63b8ff" points="1158.72,-239.25 1169.26,-238.15 1160.33,-232.44 1158.72,-239.25"/>
</a>
</g>
</g>
<!-- Node23 -->
<g id="Node000023" class="node">
<title>Node23</title>
<g id="a_Node000023"><a xlink:href="OuroborosDesign_8hpp.html" target="_top" xlink:title=" ">
<polygon fill="white" stroke="#666666" points="814,-197.25 639,-197.25 639,-155.5 814,-155.5 814,-197.25"/>
<text text-anchor="start" x="647" y="-183.75" font-family="Helvetica,sans-Serif" font-size="10.00">/github/workspace/dev</text>
<text text-anchor="start" x="647" y="-172.5" font-family="Helvetica,sans-Serif" font-size="10.00">_area/sourcecode/timing</text>
<text text-anchor="middle" x="726.5" y="-161.25" font-family="Helvetica,sans-Serif" font-size="10.00">/include/timing/OuroborosDesign.hpp</text>
</a>
</g>
</g>
<!-- Node8&#45;&gt;Node23 -->
<g id="edge26_Node000008_Node000023" class="edge">
<title>Node8&#45;&gt;Node23</title>
<g id="a_edge26_Node000008_Node000023"><a xlink:title=" ">
<path fill="none" stroke="#63b8ff" d="M1158.14,-235.75C1154.22,-234.85 1150.32,-234 1146.5,-233.25 1004.79,-205.26 966.18,-219.77 823.5,-197.25 820.53,-196.78 817.51,-196.28 814.46,-195.76"/>
<polygon fill="#63b8ff" stroke="#63b8ff" points="1157.2,-239.12 1167.75,-238.08 1158.86,-232.32 1157.2,-239.12"/>
</a>
</g>
</g>
<!-- Node25 -->
<g id="Node000025" class="node">
<title>Node25</title>
<g id="a_Node000025"><a xlink:href="OverlordDesign_8hpp.html" target="_top" xlink:title=" ">
<polygon fill="white" stroke="#666666" points="1318.88,-197.25 1152.12,-197.25 1152.12,-155.5 1318.88,-155.5 1318.88,-197.25"/>
<text text-anchor="start" x="1160.12" y="-183.75" font-family="Helvetica,sans-Serif" font-size="10.00">/github/workspace/dev</text>
<text text-anchor="start" x="1160.12" y="-172.5" font-family="Helvetica,sans-Serif" font-size="10.00">_area/sourcecode/timing</text>
<text text-anchor="middle" x="1235.5" y="-161.25" font-family="Helvetica,sans-Serif" font-size="10.00">/include/timing/OverlordDesign.hpp</text>
</a>
</g>
</g>
<!-- Node8&#45;&gt;Node25 -->
<g id="edge29_Node000008_Node000025" class="edge">
<title>Node8&#45;&gt;Node25</title>
<g id="a_edge29_Node000008_Node000025"><a xlink:title=" ">
<path fill="none" stroke="#63b8ff" d="M1235.5,-227.39C1235.5,-217.37 1235.5,-206.55 1235.5,-197.54"/>
<polygon fill="#63b8ff" stroke="#63b8ff" points="1232,-227.12 1235.5,-237.12 1239,-227.12 1232,-227.12"/>
</a>
</g>
</g>
<!-- Node27 -->
<g id="Node000027" class="node">
<title>Node27</title>
<g id="a_Node000027"><a xlink:href="MasterDesign_8cpp.html" target="_top" xlink:title=" ">
<polygon fill="white" stroke="#666666" points="1133.75,-197.25 1011.25,-197.25 1011.25,-155.5 1133.75,-155.5 1133.75,-197.25"/>
<text text-anchor="start" x="1019.25" y="-183.75" font-family="Helvetica,sans-Serif" font-size="10.00">/github/workspace/dev</text>
<text text-anchor="start" x="1019.25" y="-172.5" font-family="Helvetica,sans-Serif" font-size="10.00">_area/sourcecode/timing</text>
<text text-anchor="middle" x="1072.5" y="-161.25" font-family="Helvetica,sans-Serif" font-size="10.00">/src/MasterDesign.cpp</text>
</a>
</g>
</g>
<!-- Node8&#45;&gt;Node27 -->
<g id="edge32_Node000008_Node000027" class="edge">
<title>Node8&#45;&gt;Node27</title>
<g id="a_edge32_Node000008_Node000027"><a xlink:title=" ">
<path fill="none" stroke="#63b8ff" d="M1184.54,-233.31C1161.59,-221.85 1134.85,-208.5 1113.26,-197.72"/>
<polygon fill="#63b8ff" stroke="#63b8ff" points="1182.92,-236.41 1193.43,-237.75 1186.05,-230.15 1182.92,-236.41"/>
</a>
</g>
</g>
<!-- Node10 -->
<g id="Node000010" class="node">
<title>Node10</title>
<g id="a_Node000010"><a xlink:href="top__designs_8cpp.html" target="_top" xlink:title=" ">
<polygon fill="white" stroke="#666666" points="793.38,-41.75 659.62,-41.75 659.62,0 793.38,0 793.38,-41.75"/>
<text text-anchor="start" x="667.62" y="-28.25" font-family="Helvetica,sans-Serif" font-size="10.00">/github/workspace/dev</text>
<text text-anchor="start" x="667.62" y="-17" font-family="Helvetica,sans-Serif" font-size="10.00">_area/sourcecode/timing</text>
<text text-anchor="middle" x="726.5" y="-5.75" font-family="Helvetica,sans-Serif" font-size="10.00">/pybindsrc/top_designs.cpp</text>
</a>
</g>
</g>
<!-- Node9&#45;&gt;Node10 -->
<g id="edge9_Node000009_Node000010" class="edge">
<title>Node9&#45;&gt;Node10</title>
<g id="a_edge9_Node000009_Node000010"><a xlink:title=" ">
<path fill="none" stroke="#63b8ff" d="M913.39,-143.92C912.32,-122.81 907.49,-95.68 891.5,-77.75 866.75,-49.98 827.69,-36 793.79,-28.96"/>
<polygon fill="#63b8ff" stroke="#63b8ff" points="909.89,-143.8 913.61,-153.72 916.88,-143.64 909.89,-143.8"/>
</a>
</g>
</g>
<!-- Node11 -->
<g id="Node000011" class="node">
<title>Node11</title>
<g id="a_Node000011"><a xlink:href="BoreasDesign_8cpp.html" target="_top" xlink:title=" ">
<polygon fill="white" stroke="#666666" points="1060.75,-119.5 938.25,-119.5 938.25,-77.75 1060.75,-77.75 1060.75,-119.5"/>
<text text-anchor="start" x="946.25" y="-106" font-family="Helvetica,sans-Serif" font-size="10.00">/github/workspace/dev</text>
<text text-anchor="start" x="946.25" y="-94.75" font-family="Helvetica,sans-Serif" font-size="10.00">_area/sourcecode/timing</text>
<text text-anchor="middle" x="999.5" y="-83.5" font-family="Helvetica,sans-Serif" font-size="10.00">/src/BoreasDesign.cpp</text>
</a>
</g>
</g>
<!-- Node9&#45;&gt;Node11 -->
<g id="edge10_Node000009_Node000011" class="edge">
<title>Node9&#45;&gt;Node11</title>
<g id="a_edge10_Node000009_Node000011"><a xlink:title=" ">
<path fill="none" stroke="#63b8ff" d="M944.36,-147.64C954.87,-138.48 966.36,-128.48 976.12,-119.98"/>
<polygon fill="#63b8ff" stroke="#63b8ff" points="942.2,-144.88 936.96,-154.08 946.8,-150.15 942.2,-144.88"/>
</a>
</g>
</g>
<!-- Node13 -->
<g id="Node000013" class="node">
<title>Node13</title>
<g id="a_Node000013"><a xlink:href="FanoutDesign_8hpp.html" target="_top" xlink:title=" ">
<polygon fill="white" stroke="#666666" points="1276.5,-119.5 1116.5,-119.5 1116.5,-77.75 1276.5,-77.75 1276.5,-119.5"/>
<text text-anchor="start" x="1124.5" y="-106" font-family="Helvetica,sans-Serif" font-size="10.00">/github/workspace/dev</text>
<text text-anchor="start" x="1124.5" y="-94.75" font-family="Helvetica,sans-Serif" font-size="10.00">_area/sourcecode/timing</text>
<text text-anchor="middle" x="1196.5" y="-83.5" font-family="Helvetica,sans-Serif" font-size="10.00">/include/timing/FanoutDesign.hpp</text>
</a>
</g>
</g>
<!-- Node12&#45;&gt;Node13 -->
<g id="edge12_Node000012_Node000013" class="edge">
<title>Node12&#45;&gt;Node13</title>
<g id="a_edge12_Node000012_Node000013"><a xlink:title=" ">
<path fill="none" stroke="#63b8ff" d="M603.15,-159.05C612.39,-157.76 621.61,-156.55 630.5,-155.5 824.91,-132.47 875.11,-142.65 1069.5,-119.5 1084.57,-117.71 1100.59,-115.46 1116,-113.13"/>
<polygon fill="#63b8ff" stroke="#63b8ff" points="602.81,-155.56 593.4,-160.44 603.8,-162.49 602.81,-155.56"/>
</a>
</g>
</g>
<!-- Node16 -->
<g id="Node000016" class="node">
<title>Node16</title>
<g id="a_Node000016"><a xlink:href="GaiaDesign_8hpp.html" target="_top" xlink:title=" ">
<polygon fill="white" stroke="#666666" points="548.62,-119.5 398.38,-119.5 398.38,-77.75 548.62,-77.75 548.62,-119.5"/>
<text text-anchor="start" x="406.38" y="-106" font-family="Helvetica,sans-Serif" font-size="10.00">/github/workspace/dev</text>
<text text-anchor="start" x="406.38" y="-94.75" font-family="Helvetica,sans-Serif" font-size="10.00">_area/sourcecode/timing</text>
<text text-anchor="middle" x="473.5" y="-83.5" font-family="Helvetica,sans-Serif" font-size="10.00">/include/timing/GaiaDesign.hpp</text>
</a>
</g>
</g>
<!-- Node12&#45;&gt;Node16 -->
<g id="edge16_Node000012_Node000016" class="edge">
<title>Node12&#45;&gt;Node16</title>
<g id="a_edge16_Node000012_Node000016"><a xlink:title=" ">
<path fill="none" stroke="#63b8ff" d="M490.71,-144.59C487.54,-136.3 484.19,-127.54 481.29,-119.98"/>
<polygon fill="#63b8ff" stroke="#63b8ff" points="487.34,-145.57 494.19,-153.66 493.88,-143.07 487.34,-145.57"/>
</a>
</g>
</g>
<!-- Node18 -->
<g id="Node000018" class="node">
<title>Node18</title>
<g id="a_Node000018"><a xlink:href="KerberosDesign_8hpp.html" target="_top" xlink:title=" ">
<polygon fill="white" stroke="#666666" points="169,-119.5 0,-119.5 0,-77.75 169,-77.75 169,-119.5"/>
<text text-anchor="start" x="8" y="-106" font-family="Helvetica,sans-Serif" font-size="10.00">/github/workspace/dev</text>
<text text-anchor="start" x="8" y="-94.75" font-family="Helvetica,sans-Serif" font-size="10.00">_area/sourcecode/timing</text>
<text text-anchor="middle" x="84.5" y="-83.5" font-family="Helvetica,sans-Serif" font-size="10.00">/include/timing/KerberosDesign.hpp</text>
</a>
</g>
</g>
<!-- Node12&#45;&gt;Node18 -->
<g id="edge19_Node000012_Node000018" class="edge">
<title>Node12&#45;&gt;Node18</title>
<g id="a_edge19_Node000012_Node000018"><a xlink:title=" ">
<path fill="none" stroke="#63b8ff" d="M401.66,-159.11C337.39,-148.48 252.41,-133.94 177.5,-119.5 174.74,-118.97 171.94,-118.42 169.12,-117.86"/>
<polygon fill="#63b8ff" stroke="#63b8ff" points="401.08,-162.56 411.51,-160.74 402.21,-155.66 401.08,-162.56"/>
</a>
</g>
</g>
<!-- Node20 -->
<g id="Node000020" class="node">
<title>Node20</title>
<g id="a_Node000020"><a xlink:href="OuroborosMuxDesign_8hpp.html" target="_top" xlink:title=" ">
<polygon fill="white" stroke="#666666" points="380,-119.5 187,-119.5 187,-77.75 380,-77.75 380,-119.5"/>
<text text-anchor="start" x="195" y="-106" font-family="Helvetica,sans-Serif" font-size="10.00">/github/workspace/dev</text>
<text text-anchor="start" x="195" y="-94.75" font-family="Helvetica,sans-Serif" font-size="10.00">_area/sourcecode/timing</text>
<text text-anchor="middle" x="283.5" y="-83.5" font-family="Helvetica,sans-Serif" font-size="10.00">/include/timing/OuroborosMuxDesign.hpp</text>
</a>
</g>
</g>
<!-- Node12&#45;&gt;Node20 -->
<g id="edge22_Node000012_Node000020" class="edge">
<title>Node12&#45;&gt;Node20</title>
<g id="a_edge22_Node000012_Node000020"><a xlink:title=" ">
<path fill="none" stroke="#63b8ff" d="M433.26,-151.43C404.03,-141.32 370.36,-129.67 342.35,-119.98"/>
<polygon fill="#63b8ff" stroke="#63b8ff" points="431.79,-154.62 442.38,-154.58 434.08,-148 431.79,-154.62"/>
</a>
</g>
</g>
<!-- Node22 -->
<g id="Node000022" class="node">
<title>Node22</title>
<g id="a_Node000022"><a xlink:href="MasterMuxDesign_8cpp.html" target="_top" xlink:title=" ">
<polygon fill="white" stroke="#666666" points="698.25,-119.5 566.75,-119.5 566.75,-77.75 698.25,-77.75 698.25,-119.5"/>
<text text-anchor="start" x="574.75" y="-106" font-family="Helvetica,sans-Serif" font-size="10.00">/github/workspace/dev</text>
<text text-anchor="start" x="574.75" y="-94.75" font-family="Helvetica,sans-Serif" font-size="10.00">_area/sourcecode/timing</text>
<text text-anchor="middle" x="632.5" y="-83.5" font-family="Helvetica,sans-Serif" font-size="10.00">/src/MasterMuxDesign.cpp</text>
</a>
</g>
</g>
<!-- Node12&#45;&gt;Node22 -->
<g id="edge25_Node000012_Node000022" class="edge">
<title>Node12&#45;&gt;Node22</title>
<g id="a_edge25_Node000012_Node000022"><a xlink:title=" ">
<path fill="none" stroke="#63b8ff" d="M546.82,-149.55C563.39,-139.89 581.96,-129.07 597.57,-119.98"/>
<polygon fill="#63b8ff" stroke="#63b8ff" points="545.52,-146.25 538.65,-154.31 549.05,-152.3 545.52,-146.25"/>
</a>
</g>
</g>
<!-- Node13&#45;&gt;Node10 -->
<g id="edge13_Node000013_Node000010" class="edge">
<title>Node13&#45;&gt;Node10</title>
<g id="a_edge13_Node000013_Node000010"><a xlink:title=" ">
<path fill="none" stroke="#63b8ff" d="M1105,-78.2C1104.17,-78.05 1103.33,-77.9 1102.5,-77.75 994.84,-58.39 868.97,-40.68 793.6,-30.59"/>
<polygon fill="#63b8ff" stroke="#63b8ff" points="1104.1,-81.59 1114.57,-80 1105.39,-74.71 1104.1,-81.59"/>
</a>
</g>
</g>
<!-- Node14 -->
<g id="Node000014" class="node">
<title>Node14</title>
<g id="a_Node000014"><a xlink:href="FanoutDesign_8cpp.html" target="_top" xlink:title=" ">
<polygon fill="white" stroke="#666666" points="1257.75,-41.75 1135.25,-41.75 1135.25,0 1257.75,0 1257.75,-41.75"/>
<text text-anchor="start" x="1143.25" y="-28.25" font-family="Helvetica,sans-Serif" font-size="10.00">/github/workspace/dev</text>
<text text-anchor="start" x="1143.25" y="-17" font-family="Helvetica,sans-Serif" font-size="10.00">_area/sourcecode/timing</text>
<text text-anchor="middle" x="1196.5" y="-5.75" font-family="Helvetica,sans-Serif" font-size="10.00">/src/FanoutDesign.cpp</text>
</a>
</g>
</g>
<!-- Node13&#45;&gt;Node14 -->
<g id="edge14_Node000013_Node000014" class="edge">
<title>Node13&#45;&gt;Node14</title>
<g id="a_edge14_Node000013_Node000014"><a xlink:title=" ">
<path fill="none" stroke="#63b8ff" d="M1196.5,-66C1196.5,-57.96 1196.5,-49.54 1196.5,-42.23"/>
<polygon fill="#63b8ff" stroke="#63b8ff" points="1193,-65.81 1196.5,-75.81 1200,-65.81 1193,-65.81"/>
</a>
</g>
</g>
<!-- Node13&#45;&gt;Node15 -->
<g id="edge15_Node000013_Node000015" class="edge">
<title>Node13&#45;&gt;Node15</title>
<g id="a_edge15_Node000013_Node000015"><a xlink:title=" ">
<path fill="none" stroke="#63b8ff" d="M1288.29,-77.26C1383.61,-59.17 1482.57,-43.68 1550.16,-33.61"/>
<polygon fill="#63b8ff" stroke="#63b8ff" points="1287.64,-73.83 1278.47,-79.14 1288.95,-80.7 1287.64,-73.83"/>
</a>
</g>
</g>
<!-- Node16&#45;&gt;Node10 -->
<g id="edge17_Node000016_Node000010" class="edge">
<title>Node16&#45;&gt;Node10</title>
<g id="a_edge17_Node000016_Node000010"><a xlink:title=" ">
<path fill="none" stroke="#63b8ff" d="M552.24,-74.05C586.6,-63.76 626.47,-51.83 659.39,-41.97"/>
<polygon fill="#63b8ff" stroke="#63b8ff" points="551.33,-70.67 542.75,-76.89 553.33,-77.38 551.33,-70.67"/>
</a>
</g>
</g>
<!-- Node17 -->
<g id="Node000017" class="node">
<title>Node17</title>
<g id="a_Node000017"><a xlink:href="GaiaDesign_8cpp.html" target="_top" xlink:title=" ">
<polygon fill="white" stroke="#666666" points="534.75,-41.75 412.25,-41.75 412.25,0 534.75,0 534.75,-41.75"/>
<text text-anchor="start" x="420.25" y="-28.25" font-family="Helvetica,sans-Serif" font-size="10.00">/github/workspace/dev</text>
<text text-anchor="start" x="420.25" y="-17" font-family="Helvetica,sans-Serif" font-size="10.00">_area/sourcecode/timing</text>
<text text-anchor="middle" x="473.5" y="-5.75" font-family="Helvetica,sans-Serif" font-size="10.00">/src/GaiaDesign.cpp</text>
</a>
</g>
</g>
<!-- Node16&#45;&gt;Node17 -->
<g id="edge18_Node000016_Node000017" class="edge">
<title>Node16&#45;&gt;Node17</title>
<g id="a_edge18_Node000016_Node000017"><a xlink:title=" ">
<path fill="none" stroke="#63b8ff" d="M473.5,-66C473.5,-57.96 473.5,-49.54 473.5,-42.23"/>
<polygon fill="#63b8ff" stroke="#63b8ff" points="470,-65.81 473.5,-75.81 477,-65.81 470,-65.81"/>
</a>
</g>
</g>
<!-- Node18&#45;&gt;Node10 -->
<g id="edge20_Node000018_Node000010" class="edge">
<title>Node18&#45;&gt;Node10</title>
<g id="a_edge20_Node000018_Node000010"><a xlink:title=" ">
<path fill="none" stroke="#63b8ff" d="M180.57,-77.35C340.95,-52.89 384.57,-58.2 543.5,-41.75 581.8,-37.79 624.59,-33.15 659.16,-29.35"/>
<polygon fill="#63b8ff" stroke="#63b8ff" points="180.17,-73.87 170.82,-78.86 181.24,-80.79 180.17,-73.87"/>
</a>
</g>
</g>
<!-- Node19 -->
<g id="Node000019" class="node">
<title>Node19</title>
<g id="a_Node000019"><a xlink:href="KerberosDesign_8cpp.html" target="_top" xlink:title=" ">
<polygon fill="white" stroke="#666666" points="145.75,-41.75 23.25,-41.75 23.25,0 145.75,0 145.75,-41.75"/>
<text text-anchor="start" x="31.25" y="-28.25" font-family="Helvetica,sans-Serif" font-size="10.00">/github/workspace/dev</text>
<text text-anchor="start" x="31.25" y="-17" font-family="Helvetica,sans-Serif" font-size="10.00">_area/sourcecode/timing</text>
<text text-anchor="middle" x="84.5" y="-5.75" font-family="Helvetica,sans-Serif" font-size="10.00">/src/KerberosDesign.cpp</text>
</a>
</g>
</g>
<!-- Node18&#45;&gt;Node19 -->
<g id="edge21_Node000018_Node000019" class="edge">
<title>Node18&#45;&gt;Node19</title>
<g id="a_edge21_Node000018_Node000019"><a xlink:title=" ">
<path fill="none" stroke="#63b8ff" d="M84.5,-66C84.5,-57.96 84.5,-49.54 84.5,-42.23"/>
<polygon fill="#63b8ff" stroke="#63b8ff" points="81,-65.81 84.5,-75.81 88,-65.81 81,-65.81"/>
</a>
</g>
</g>
<!-- Node20&#45;&gt;Node10 -->
<g id="edge23_Node000020_Node000010" class="edge">
<title>Node20&#45;&gt;Node10</title>
<g id="a_edge23_Node000020_Node000010"><a xlink:title=" ">
<path fill="none" stroke="#63b8ff" d="M391.4,-77.43C490.72,-59.97 593.68,-43.15 659.29,-32.59"/>
<polygon fill="#63b8ff" stroke="#63b8ff" points="390.98,-73.95 381.74,-79.14 392.19,-80.85 390.98,-73.95"/>
</a>
</g>
</g>
<!-- Node21 -->
<g id="Node000021" class="node">
<title>Node21</title>
<g id="a_Node000021"><a xlink:href="OuroborosMuxDesign_8cpp.html" target="_top" xlink:title=" ">
<polygon fill="white" stroke="#666666" points="356.75,-41.75 210.25,-41.75 210.25,0 356.75,0 356.75,-41.75"/>
<text text-anchor="start" x="218.25" y="-28.25" font-family="Helvetica,sans-Serif" font-size="10.00">/github/workspace/dev</text>
<text text-anchor="start" x="218.25" y="-17" font-family="Helvetica,sans-Serif" font-size="10.00">_area/sourcecode/timing</text>
<text text-anchor="middle" x="283.5" y="-5.75" font-family="Helvetica,sans-Serif" font-size="10.00">/src/OuroborosMuxDesign.cpp</text>
</a>
</g>
</g>
<!-- Node20&#45;&gt;Node21 -->
<g id="edge24_Node000020_Node000021" class="edge">
<title>Node20&#45;&gt;Node21</title>
<g id="a_edge24_Node000020_Node000021"><a xlink:title=" ">
<path fill="none" stroke="#63b8ff" d="M283.5,-66C283.5,-57.96 283.5,-49.54 283.5,-42.23"/>
<polygon fill="#63b8ff" stroke="#63b8ff" points="280,-65.81 283.5,-75.81 287,-65.81 280,-65.81"/>
</a>
</g>
</g>
<!-- Node23&#45;&gt;Node10 -->
<g id="edge27_Node000023_Node000010" class="edge">
<title>Node23&#45;&gt;Node10</title>
<g id="a_edge27_Node000023_Node000010"><a xlink:title=" ">
<path fill="none" stroke="#63b8ff" d="M726.5,-144.01C726.5,-113.46 726.5,-67.92 726.5,-41.95"/>
<polygon fill="#63b8ff" stroke="#63b8ff" points="723,-143.79 726.5,-153.79 730,-143.79 723,-143.79"/>
</a>
</g>
</g>
<!-- Node24 -->
<g id="Node000024" class="node">
<title>Node24</title>
<g id="a_Node000024"><a xlink:href="OuroborosDesign_8cpp.html" target="_top" xlink:title=" ">
<polygon fill="white" stroke="#666666" points="882.75,-119.5 754.25,-119.5 754.25,-77.75 882.75,-77.75 882.75,-119.5"/>
<text text-anchor="start" x="762.25" y="-106" font-family="Helvetica,sans-Serif" font-size="10.00">/github/workspace/dev</text>
<text text-anchor="start" x="762.25" y="-94.75" font-family="Helvetica,sans-Serif" font-size="10.00">_area/sourcecode/timing</text>
<text text-anchor="middle" x="818.5" y="-83.5" font-family="Helvetica,sans-Serif" font-size="10.00">/src/OuroborosDesign.cpp</text>
</a>
</g>
</g>
<!-- Node23&#45;&gt;Node24 -->
<g id="edge28_Node000023_Node000024" class="edge">
<title>Node23&#45;&gt;Node24</title>
<g id="a_edge28_Node000023_Node000024"><a xlink:title=" ">
<path fill="none" stroke="#63b8ff" d="M759.85,-147.91C771.06,-138.69 783.35,-128.56 793.78,-119.98"/>
<polygon fill="#63b8ff" stroke="#63b8ff" points="757.82,-145.05 752.32,-154.11 762.27,-150.46 757.82,-145.05"/>
</a>
</g>
</g>
<!-- Node25&#45;&gt;Node10 -->
<g id="edge30_Node000025_Node000010" class="edge">
<title>Node25&#45;&gt;Node10</title>
<g id="a_edge30_Node000025_Node000010"><a xlink:title=" ">
<path fill="none" stroke="#63b8ff" d="M1164.7,-150.75C1145.26,-142.36 1124.79,-131.89 1107.5,-119.5 1087.11,-104.88 1091.56,-89.71 1069.5,-77.75 1023.09,-52.58 879.85,-35.71 793.85,-27.56"/>
<polygon fill="#63b8ff" stroke="#63b8ff" points="1163.09,-153.87 1173.67,-154.5 1165.79,-147.41 1163.09,-153.87"/>
</a>
</g>
</g>
<!-- Node26 -->
<g id="Node000026" class="node">
<title>Node26</title>
<g id="a_Node000026"><a xlink:href="OverlordDesign_8cpp.html" target="_top" xlink:title=" ">
<polygon fill="white" stroke="#666666" points="1416.75,-119.5 1294.25,-119.5 1294.25,-77.75 1416.75,-77.75 1416.75,-119.5"/>
<text text-anchor="start" x="1302.25" y="-106" font-family="Helvetica,sans-Serif" font-size="10.00">/github/workspace/dev</text>
<text text-anchor="start" x="1302.25" y="-94.75" font-family="Helvetica,sans-Serif" font-size="10.00">_area/sourcecode/timing</text>
<text text-anchor="middle" x="1355.5" y="-83.5" font-family="Helvetica,sans-Serif" font-size="10.00">/src/OverlordDesign.cpp</text>
</a>
</g>
</g>
<!-- Node25&#45;&gt;Node26 -->
<g id="edge31_Node000025_Node000026" class="edge">
<title>Node25&#45;&gt;Node26</title>
<g id="a_edge31_Node000025_Node000026"><a xlink:title=" ">
<path fill="none" stroke="#63b8ff" d="M1277.27,-149.01C1292.35,-139.49 1309.12,-128.9 1323.25,-119.98"/>
<polygon fill="#63b8ff" stroke="#63b8ff" points="1275.53,-145.97 1268.94,-154.27 1279.26,-151.89 1275.53,-145.97"/>
</a>
</g>
</g>
<!-- Node28&#45;&gt;Node25 -->
<g id="edge34_Node000028_Node000025" class="edge">
<title>Node28&#45;&gt;Node25</title>
<g id="a_edge34_Node000028_Node000025"><a xlink:title=" ">
<path fill="none" stroke="#63b8ff" d="M1369.9,-228.72C1342.86,-218.39 1313.23,-207.07 1288.69,-197.69"/>
<polygon fill="#63b8ff" stroke="#63b8ff" points="1368.52,-231.94 1379.11,-232.24 1371.01,-225.4 1368.52,-231.94"/>
</a>
</g>
</g>
<!-- Node29 -->
<g id="Node000029" class="node">
<title>Node29</title>
<g id="a_Node000029"><a xlink:href="OverlordDesignInterface_8cpp.html" target="_top" xlink:title=" ">
<polygon fill="white" stroke="#666666" points="1532.75,-197.25 1374.25,-197.25 1374.25,-155.5 1532.75,-155.5 1532.75,-197.25"/>
<text text-anchor="start" x="1382.25" y="-183.75" font-family="Helvetica,sans-Serif" font-size="10.00">/github/workspace/dev</text>
<text text-anchor="start" x="1382.25" y="-172.5" font-family="Helvetica,sans-Serif" font-size="10.00">_area/sourcecode/timing</text>
<text text-anchor="middle" x="1453.5" y="-161.25" font-family="Helvetica,sans-Serif" font-size="10.00">/src/OverlordDesignInterface.cpp</text>
</a>
</g>
</g>
<!-- Node28&#45;&gt;Node29 -->
<g id="edge35_Node000028_Node000029" class="edge">
<title>Node28&#45;&gt;Node29</title>
<g id="a_edge35_Node000028_Node000029"><a xlink:title=" ">
<path fill="none" stroke="#63b8ff" d="M1450.78,-221.58C1451.29,-213.3 1451.81,-204.83 1452.26,-197.54"/>
<polygon fill="#63b8ff" stroke="#63b8ff" points="1447.29,-221.3 1450.17,-231.49 1454.28,-221.73 1447.29,-221.3"/>
</a>
</g>
</g>
<!-- Node30&#45;&gt;Node15 -->
<g id="edge37_Node000030_Node000015" class="edge">
<title>Node30&#45;&gt;Node15</title>
<g id="a_edge37_Node000030_Node000015"><a xlink:title=" ">
<path fill="none" stroke="#63b8ff" d="M1631.5,-144.01C1631.5,-113.46 1631.5,-67.92 1631.5,-41.95"/>
<polygon fill="#63b8ff" stroke="#63b8ff" points="1628,-143.79 1631.5,-153.79 1635,-143.79 1628,-143.79"/>
</a>
</g>
</g>
<!-- Node31&#45;&gt;Node4 -->
<g id="edge40_Node000031_Node000004" class="edge">
<title>Node31&#45;&gt;Node4</title>
<g id="a_edge40_Node000031_Node000004"><a xlink:title=" ">
<path fill="none" stroke="#63b8ff" d="M1093.87,-318.01C1066.1,-308.22 1033.75,-296.75 1004.5,-286.25 999.87,-284.59 995.08,-282.86 990.27,-281.12"/>
<polygon fill="#63b8ff" stroke="#63b8ff" points="1092.65,-321.29 1103.24,-321.32 1094.98,-314.69 1092.65,-321.29"/>
</a>
</g>
</g>
<!-- Node31&#45;&gt;Node26 -->
<g id="edge41_Node000031_Node000026" class="edge">
<title>Node31&#45;&gt;Node26</title>
<g id="a_edge41_Node000031_Node000026"><a xlink:title=" ">
<path fill="none" stroke="#63b8ff" d="M1258.78,-327.23C1283.43,-318.96 1307.69,-306.14 1324.5,-286.25 1365.2,-238.09 1362.29,-157.19 1358.29,-119.75"/>
<polygon fill="#63b8ff" stroke="#63b8ff" points="1257.81,-323.86 1249.29,-330.15 1259.87,-330.55 1257.81,-323.86"/>
</a>
</g>
</g>
<!-- Node32 -->
<g id="Node000032" class="node">
<title>Node32</title>
<g id="a_Node000032"><a xlink:href="PDIMasterNode_8cpp.html" target="_top" xlink:title=" ">
<polygon fill="white" stroke="#666666" points="1137.12,-280.62 1013.88,-280.62 1013.88,-238.88 1137.12,-238.88 1137.12,-280.62"/>
<text text-anchor="start" x="1021.88" y="-267.12" font-family="Helvetica,sans-Serif" font-size="10.00">/github/workspace/dev</text>
<text text-anchor="start" x="1021.88" y="-255.88" font-family="Helvetica,sans-Serif" font-size="10.00">_area/sourcecode/timing</text>
<text text-anchor="middle" x="1075.5" y="-244.62" font-family="Helvetica,sans-Serif" font-size="10.00">/src/PDIMasterNode.cpp</text>
</a>
</g>
</g>
<!-- Node31&#45;&gt;Node32 -->
<g id="edge42_Node000031_Node000032" class="edge">
<title>Node31&#45;&gt;Node32</title>
<g id="a_edge42_Node000031_Node000032"><a xlink:title=" ">
<path fill="none" stroke="#63b8ff" d="M1132.78,-314.32C1121.05,-303.36 1107.84,-291 1097.06,-280.92"/>
<polygon fill="#63b8ff" stroke="#63b8ff" points="1130.19,-316.7 1139.89,-320.98 1134.98,-311.59 1130.19,-316.7"/>
</a>
</g>
</g>
</g>
</svg>
