<?xml version="1.0" encoding="UTF-8" standalone="no"?>
<!DOCTYPE svg PUBLIC "-//W3C//DTD SVG 1.1//EN"
 "http://www.w3.org/Graphics/SVG/1.1/DTD/svg11.dtd">
<!-- Generated by graphviz version 9.0.0 (20230911.1827)
 -->
<!-- Title: /github/workspace/dev_area/build/timinglibs/codegen/include/timinglibs/timingmastercontroller/Structs.hpp Pages: 1 -->
<svg width="288pt" height="183pt"
 viewBox="0.00 0.00 287.62 182.75" xmlns="http://www.w3.org/2000/svg" xmlns:xlink="http://www.w3.org/1999/xlink">
<g id="graph0" class="graph" transform="scale(1 1) rotate(0) translate(4 178.75)">
<title>/github/workspace/dev_area/build/timinglibs/codegen/include/timinglibs/timingmastercontroller/Structs.hpp</title>
<!-- Node1 -->
<g id="Node000001" class="node">
<title>Node1</title>
<g id="a_Node000001"><a xlink:title=" ">
<polygon fill="#999999" stroke="#666666" points="212.38,-174.75 44.88,-174.75 44.88,-121.75 212.38,-121.75 212.38,-174.75"/>
<text text-anchor="start" x="52.88" y="-161.25" font-family="Helvetica,sans-Serif" font-size="10.00">/github/workspace/dev</text>
<text text-anchor="start" x="52.88" y="-150" font-family="Helvetica,sans-Serif" font-size="10.00">_area/build/timinglibs</text>
<text text-anchor="start" x="52.88" y="-138.75" font-family="Helvetica,sans-Serif" font-size="10.00">/codegen/include/timinglibs</text>
<text text-anchor="middle" x="128.62" y="-127.5" font-family="Helvetica,sans-Serif" font-size="10.00">/timingmastercontroller/Structs.hpp</text>
</a>
</g>
</g>
<!-- Node2 -->
<g id="Node000002" class="node">
<title>Node2</title>
<g id="a_Node000002"><a xlink:title=" ">
<polygon fill="#e0e0e0" stroke="#999999" points="45.25,-19.25 0,-19.25 0,0 45.25,0 45.25,-19.25"/>
<text text-anchor="middle" x="22.62" y="-5.75" font-family="Helvetica,sans-Serif" font-size="10.00">cstdint</text>
</a>
</g>
</g>
<!-- Node1&#45;&gt;Node2 -->
<g id="edge1_Node000001_Node000002" class="edge">
<title>Node1&#45;&gt;Node2</title>
<g id="a_edge1_Node000001_Node000002"><a xlink:title=" ">
<path fill="none" stroke="#63b8ff" d="M99.54,-121.43C88.56,-110.94 76.38,-98.33 66.62,-85.75 52.76,-67.87 40.07,-45.22 31.92,-29.49"/>
<polygon fill="#63b8ff" stroke="#63b8ff" points="35.15,-28.12 27.51,-20.77 28.9,-31.28 35.15,-28.12"/>
</a>
</g>
</g>
<!-- Node3 -->
<g id="Node000003" class="node">
<title>Node3</title>
<g id="a_Node000003"><a xlink:href="timinglibs_2codegen_2include_2timinglibs_2timingcmd_2Structs_8hpp.html" target="_top" xlink:title=" ">
<polygon fill="white" stroke="#666666" points="181.25,-85.75 76,-85.75 76,-55.25 181.25,-55.25 181.25,-85.75"/>
<text text-anchor="start" x="84" y="-72.25" font-family="Helvetica,sans-Serif" font-size="10.00">timinglibs/timingcmd</text>
<text text-anchor="middle" x="128.62" y="-61" font-family="Helvetica,sans-Serif" font-size="10.00">/Structs.hpp</text>
</a>
</g>
</g>
<!-- Node1&#45;&gt;Node3 -->
<g id="edge2_Node000001_Node000003" class="edge">
<title>Node1&#45;&gt;Node3</title>
<g id="a_edge2_Node000001_Node000003"><a xlink:title=" ">
<path fill="none" stroke="#63b8ff" d="M128.62,-121.6C128.62,-113.83 128.62,-105.29 128.62,-97.49"/>
<polygon fill="#63b8ff" stroke="#63b8ff" points="132.13,-97.59 128.63,-87.59 125.13,-97.59 132.13,-97.59"/>
</a>
</g>
</g>
<!-- Node6 -->
<g id="Node000006" class="node">
<title>Node6</title>
<g id="a_Node000006"><a xlink:title=" ">
<polygon fill="#e0e0e0" stroke="#999999" points="279.62,-19.25 239.62,-19.25 239.62,0 279.62,0 279.62,-19.25"/>
<text text-anchor="middle" x="259.62" y="-5.75" font-family="Helvetica,sans-Serif" font-size="10.00">string</text>
</a>
</g>
</g>
<!-- Node1&#45;&gt;Node6 -->
<g id="edge7_Node000001_Node000006" class="edge">
<title>Node1&#45;&gt;Node6</title>
<g id="a_edge7_Node000001_Node000006"><a xlink:title=" ">
<path fill="none" stroke="#63b8ff" d="M155.14,-121.48C166.23,-110.57 179.17,-97.66 190.62,-85.75 209.34,-66.31 230.22,-43.39 244.06,-28.03"/>
<polygon fill="#63b8ff" stroke="#63b8ff" points="246.59,-30.44 250.67,-20.66 241.39,-25.77 246.59,-30.44"/>
</a>
</g>
</g>
<!-- Node3&#45;&gt;Node2 -->
<g id="edge3_Node000003_Node000002" class="edge">
<title>Node3&#45;&gt;Node2</title>
<g id="a_edge3_Node000003_Node000002"><a xlink:title=" ">
<path fill="none" stroke="#63b8ff" d="M102.15,-54.8C85.85,-45.74 65.05,-34.19 48.8,-25.16"/>
<polygon fill="#63b8ff" stroke="#63b8ff" points="50.65,-22.18 40.2,-20.39 47.25,-28.3 50.65,-22.18"/>
</a>
</g>
</g>
<!-- Node4 -->
<g id="Node000004" class="node">
<title>Node4</title>
<g id="a_Node000004"><a xlink:title=" ">
<polygon fill="#e0e0e0" stroke="#999999" points="160.12,-19.25 63.12,-19.25 63.12,0 160.12,0 160.12,-19.25"/>
<text text-anchor="middle" x="111.62" y="-5.75" font-family="Helvetica,sans-Serif" font-size="10.00">nlohmann/json.hpp</text>
</a>
</g>
</g>
<!-- Node3&#45;&gt;Node4 -->
<g id="edge4_Node000003_Node000004" class="edge">
<title>Node3&#45;&gt;Node4</title>
<g id="a_edge4_Node000003_Node000004"><a xlink:title=" ">
<path fill="none" stroke="#63b8ff" d="M124.42,-54.95C122.31,-47.62 119.71,-38.62 117.41,-30.66"/>
<polygon fill="#63b8ff" stroke="#63b8ff" points="120.8,-29.79 114.67,-21.16 114.08,-31.73 120.8,-29.79"/>
</a>
</g>
</g>
<!-- Node5 -->
<g id="Node000005" class="node">
<title>Node5</title>
<g id="a_Node000005"><a xlink:title=" ">
<polygon fill="#e0e0e0" stroke="#999999" points="221.12,-19.25 178.12,-19.25 178.12,0 221.12,0 221.12,-19.25"/>
<text text-anchor="middle" x="199.62" y="-5.75" font-family="Helvetica,sans-Serif" font-size="10.00">vector</text>
</a>
</g>
</g>
<!-- Node3&#45;&gt;Node5 -->
<g id="edge5_Node000003_Node000005" class="edge">
<title>Node3&#45;&gt;Node5</title>
<g id="a_edge5_Node000003_Node000005"><a xlink:title=" ">
<path fill="none" stroke="#63b8ff" d="M146.18,-54.95C156.47,-46.41 169.49,-35.62 180.1,-26.81"/>
<polygon fill="#63b8ff" stroke="#63b8ff" points="182.05,-29.74 187.51,-20.67 177.58,-24.36 182.05,-29.74"/>
</a>
</g>
</g>
<!-- Node3&#45;&gt;Node6 -->
<g id="edge6_Node000003_Node000006" class="edge">
<title>Node3&#45;&gt;Node6</title>
<g id="a_edge6_Node000003_Node000006"><a xlink:title=" ">
<path fill="none" stroke="#63b8ff" d="M161.34,-54.8C182.16,-45.44 208.92,-33.41 229.26,-24.27"/>
<polygon fill="#63b8ff" stroke="#63b8ff" points="230.47,-27.57 238.15,-20.27 227.6,-21.18 230.47,-27.57"/>
</a>
</g>
</g>
</g>
</svg>
