<?xml version="1.0" encoding="UTF-8" standalone="no"?>
<!DOCTYPE svg PUBLIC "-//W3C//DTD SVG 1.1//EN"
 "http://www.w3.org/Graphics/SVG/1.1/DTD/svg11.dtd">
<!-- Generated by graphviz version 9.0.0 (20230911.1827)
 -->
<!-- Title: /github/workspace/dev_area/build/timinglibs/codegen/include/timinglibs/timingpartitioncontrollerinfo/InfoNljs.hpp Pages: 1 -->
<svg width="300pt" height="194pt"
 viewBox="0.00 0.00 299.75 194.00" xmlns="http://www.w3.org/2000/svg" xmlns:xlink="http://www.w3.org/1999/xlink">
<g id="graph0" class="graph" transform="scale(1 1) rotate(0) translate(4 190)">
<title>/github/workspace/dev_area/build/timinglibs/codegen/include/timinglibs/timingpartitioncontrollerinfo/InfoNljs.hpp</title>
<!-- Node1 -->
<g id="Node000001" class="node">
<title>Node1</title>
<g id="a_Node000001"><a xlink:title=" ">
<polygon fill="#999999" stroke="#666666" points="232.88,-186 97.62,-186 97.62,-121.75 232.88,-121.75 232.88,-186"/>
<text text-anchor="start" x="105.62" y="-172.5" font-family="Helvetica,sans-Serif" font-size="10.00">/github/workspace/dev</text>
<text text-anchor="start" x="105.62" y="-161.25" font-family="Helvetica,sans-Serif" font-size="10.00">_area/build/timinglibs</text>
<text text-anchor="start" x="105.62" y="-150" font-family="Helvetica,sans-Serif" font-size="10.00">/codegen/include/timinglibs</text>
<text text-anchor="start" x="105.62" y="-138.75" font-family="Helvetica,sans-Serif" font-size="10.00">/timingpartitioncontrollerinfo</text>
<text text-anchor="middle" x="165.25" y="-127.5" font-family="Helvetica,sans-Serif" font-size="10.00">/InfoNljs.hpp</text>
</a>
</g>
</g>
<!-- Node2 -->
<g id="Node000002" class="node">
<title>Node2</title>
<g id="a_Node000002"><a xlink:href="timinglibs_2codegen_2include_2timinglibs_2timingpartitioncontrollerinfo_2InfoStructs_8hpp.html" target="_top" xlink:title=" ">
<polygon fill="white" stroke="#666666" points="176.5,-85.75 0,-85.75 0,-55.25 176.5,-55.25 176.5,-85.75"/>
<text text-anchor="start" x="8" y="-72.25" font-family="Helvetica,sans-Serif" font-size="10.00">timinglibs/timingpartitioncontrollerinfo</text>
<text text-anchor="middle" x="88.25" y="-61" font-family="Helvetica,sans-Serif" font-size="10.00">/InfoStructs.hpp</text>
</a>
</g>
</g>
<!-- Node1&#45;&gt;Node2 -->
<g id="edge1_Node000001_Node000002" class="edge">
<title>Node1&#45;&gt;Node2</title>
<g id="a_edge1_Node000001_Node000002"><a xlink:title=" ">
<path fill="none" stroke="#63b8ff" d="M135.7,-121.65C127.14,-112.6 117.95,-102.89 109.96,-94.45"/>
<polygon fill="#63b8ff" stroke="#63b8ff" points="112.61,-92.15 103.19,-87.29 107.52,-96.96 112.61,-92.15"/>
</a>
</g>
</g>
<!-- Node5 -->
<g id="Node000005" class="node">
<title>Node5</title>
<g id="a_Node000005"><a xlink:title=" ">
<polygon fill="#e0e0e0" stroke="#999999" points="291.75,-80.12 194.75,-80.12 194.75,-60.88 291.75,-60.88 291.75,-80.12"/>
<text text-anchor="middle" x="243.25" y="-66.62" font-family="Helvetica,sans-Serif" font-size="10.00">nlohmann/json.hpp</text>
</a>
</g>
</g>
<!-- Node1&#45;&gt;Node5 -->
<g id="edge4_Node000001_Node000005" class="edge">
<title>Node1&#45;&gt;Node5</title>
<g id="a_edge4_Node000001_Node000005"><a xlink:title=" ">
<path fill="none" stroke="#63b8ff" d="M195.18,-121.65C205.86,-110.51 217.5,-98.36 226.65,-88.82"/>
<polygon fill="#63b8ff" stroke="#63b8ff" points="229.11,-91.31 233.5,-81.67 224.05,-86.47 229.11,-91.31"/>
</a>
</g>
</g>
<!-- Node3 -->
<g id="Node000003" class="node">
<title>Node3</title>
<g id="a_Node000003"><a xlink:title=" ">
<polygon fill="#e0e0e0" stroke="#999999" points="80.88,-19.25 35.62,-19.25 35.62,0 80.88,0 80.88,-19.25"/>
<text text-anchor="middle" x="58.25" y="-5.75" font-family="Helvetica,sans-Serif" font-size="10.00">cstdint</text>
</a>
</g>
</g>
<!-- Node2&#45;&gt;Node3 -->
<g id="edge2_Node000002_Node000003" class="edge">
<title>Node2&#45;&gt;Node3</title>
<g id="a_edge2_Node000002_Node000003"><a xlink:title=" ">
<path fill="none" stroke="#63b8ff" d="M80.83,-54.95C76.97,-47.36 72.19,-37.99 68.03,-29.82"/>
<polygon fill="#63b8ff" stroke="#63b8ff" points="71.22,-28.37 63.56,-21.05 64.98,-31.55 71.22,-28.37"/>
</a>
</g>
</g>
<!-- Node4 -->
<g id="Node000004" class="node">
<title>Node4</title>
<g id="a_Node000004"><a xlink:title=" ">
<polygon fill="#e0e0e0" stroke="#999999" points="139.25,-19.25 99.25,-19.25 99.25,0 139.25,0 139.25,-19.25"/>
<text text-anchor="middle" x="119.25" y="-5.75" font-family="Helvetica,sans-Serif" font-size="10.00">string</text>
</a>
</g>
</g>
<!-- Node2&#45;&gt;Node4 -->
<g id="edge3_Node000002_Node000004" class="edge">
<title>Node2&#45;&gt;Node4</title>
<g id="a_edge3_Node000002_Node000004"><a xlink:title=" ">
<path fill="none" stroke="#63b8ff" d="M95.91,-54.95C99.91,-47.36 104.84,-37.99 109.14,-29.82"/>
<polygon fill="#63b8ff" stroke="#63b8ff" points="112.2,-31.52 113.77,-21.04 106.01,-28.26 112.2,-31.52"/>
</a>
</g>
</g>
</g>
</svg>
