<?xml version="1.0" encoding="UTF-8" standalone="no"?>
<!DOCTYPE svg PUBLIC "-//W3C//DTD SVG 1.1//EN"
 "http://www.w3.org/Graphics/SVG/1.1/DTD/svg11.dtd">
<!-- Generated by graphviz version 9.0.0 (20230911.1827)
 -->
<!-- Title: /github/workspace/dev_area/build/timinglibs/codegen/include/timinglibs/timingcmd/Nljs.hpp Pages: 1 -->
<svg width="557pt" height="306pt"
 viewBox="0.00 0.00 556.68 305.50" xmlns="http://www.w3.org/2000/svg" xmlns:xlink="http://www.w3.org/1999/xlink">
<g id="graph0" class="graph" transform="scale(1 1) rotate(0) translate(4 301.5)">
<title>/github/workspace/dev_area/build/timinglibs/codegen/include/timinglibs/timingcmd/Nljs.hpp</title>
<!-- Node1 -->
<g id="Node000001" class="node">
<title>Node1</title>
<g id="a_Node000001"><a xlink:title=" ">
<polygon fill="#999999" stroke="#666666" points="368.62,-297.5 234.88,-297.5 234.88,-244.5 368.62,-244.5 368.62,-297.5"/>
<text text-anchor="start" x="242.88" y="-284" font-family="Helvetica,sans-Serif" font-size="10.00">/github/workspace/dev</text>
<text text-anchor="start" x="242.88" y="-272.75" font-family="Helvetica,sans-Serif" font-size="10.00">_area/build/timinglibs</text>
<text text-anchor="start" x="242.88" y="-261.5" font-family="Helvetica,sans-Serif" font-size="10.00">/codegen/include/timinglibs</text>
<text text-anchor="middle" x="301.75" y="-250.25" font-family="Helvetica,sans-Serif" font-size="10.00">/timingcmd/Nljs.hpp</text>
</a>
</g>
</g>
<!-- Node2 -->
<g id="Node000002" class="node">
<title>Node2</title>
<g id="a_Node000002"><a xlink:href="msgp_8hpp.html" target="_top" xlink:title=" ">
<polygon fill="white" stroke="#666666" points="221.62,-208.5 87.88,-208.5 87.88,-155.5 221.62,-155.5 221.62,-208.5"/>
<text text-anchor="start" x="95.88" y="-195" font-family="Helvetica,sans-Serif" font-size="10.00">/github/workspace/dev</text>
<text text-anchor="start" x="95.88" y="-183.75" font-family="Helvetica,sans-Serif" font-size="10.00">_area/build/timinglibs</text>
<text text-anchor="start" x="95.88" y="-172.5" font-family="Helvetica,sans-Serif" font-size="10.00">/codegen/include/timinglibs</text>
<text text-anchor="middle" x="154.75" y="-161.25" font-family="Helvetica,sans-Serif" font-size="10.00">/timingcmd/msgp.hpp</text>
</a>
</g>
</g>
<!-- Node1&#45;&gt;Node2 -->
<g id="edge1_Node000001_Node000002" class="edge">
<title>Node1&#45;&gt;Node2</title>
<g id="a_edge1_Node000001_Node000002"><a xlink:title=" ">
<path fill="none" stroke="#63b8ff" d="M248.57,-238.53C232.15,-228.81 214.26,-218.22 198.54,-208.92"/>
<polygon fill="#63b8ff" stroke="#63b8ff" points="246.35,-241.28 256.74,-243.36 249.92,-235.26 246.35,-241.28"/>
</a>
</g>
</g>
<!-- Node3 -->
<g id="Node000003" class="node">
<title>Node3</title>
<g id="a_Node000003"><a xlink:href="sourcecode_2timinglibs_2src_2TimingController_8cpp.html" target="_top" xlink:title=" ">
<polygon fill="white" stroke="#666666" points="137.5,-119.5 0,-119.5 0,-77.75 137.5,-77.75 137.5,-119.5"/>
<text text-anchor="start" x="8" y="-106" font-family="Helvetica,sans-Serif" font-size="10.00">/github/workspace/dev</text>
<text text-anchor="start" x="8" y="-94.75" font-family="Helvetica,sans-Serif" font-size="10.00">_area/sourcecode/timinglibs</text>
<text text-anchor="middle" x="68.75" y="-83.5" font-family="Helvetica,sans-Serif" font-size="10.00">/src/TimingController.cpp</text>
</a>
</g>
</g>
<!-- Node1&#45;&gt;Node3 -->
<g id="edge9_Node000001_Node000003" class="edge">
<title>Node1&#45;&gt;Node3</title>
<g id="a_edge9_Node000001_Node000003"><a xlink:title=" ">
<path fill="none" stroke="#63b8ff" d="M223.51,-258.05C167.01,-247.72 97.5,-230.92 78.75,-208.5 58.04,-183.75 60.43,-143.86 64.37,-119.85"/>
<polygon fill="#63b8ff" stroke="#63b8ff" points="222.66,-261.46 233.12,-259.77 223.89,-254.57 222.66,-261.46"/>
</a>
</g>
</g>
<!-- Node4 -->
<g id="Node000004" class="node">
<title>Node4</title>
<g id="a_Node000004"><a xlink:href="sourcecode_2timinglibs_2src_2TimingHardwareManager_8hpp.html" target="_top" xlink:title=" ">
<polygon fill="white" stroke="#666666" points="321.88,-119.5 159.62,-119.5 159.62,-77.75 321.88,-77.75 321.88,-119.5"/>
<text text-anchor="start" x="167.62" y="-106" font-family="Helvetica,sans-Serif" font-size="10.00">/github/workspace/dev</text>
<text text-anchor="start" x="167.62" y="-94.75" font-family="Helvetica,sans-Serif" font-size="10.00">_area/sourcecode/timinglibs</text>
<text text-anchor="middle" x="240.75" y="-83.5" font-family="Helvetica,sans-Serif" font-size="10.00">/src/TimingHardwareManager.hpp</text>
</a>
</g>
</g>
<!-- Node1&#45;&gt;Node4 -->
<g id="edge10_Node000001_Node000004" class="edge">
<title>Node1&#45;&gt;Node4</title>
<g id="a_edge10_Node000001_Node000004"><a xlink:title=" ">
<path fill="none" stroke="#63b8ff" d="M280.58,-234.02C276.28,-225.8 272.06,-216.99 268.75,-208.5 257.04,-178.5 248.79,-141.94 244.41,-119.74"/>
<polygon fill="#63b8ff" stroke="#63b8ff" points="277.45,-235.58 285.29,-242.69 283.6,-232.24 277.45,-235.58"/>
</a>
</g>
</g>
<!-- Node6 -->
<g id="Node000006" class="node">
<title>Node6</title>
<g id="a_Node000006"><a xlink:href="timinglibs_2codegen_2include_2timinglibs_2timingmastercontroller_2Nljs_8hpp.html" target="_top" xlink:title=" ">
<polygon fill="white" stroke="#666666" points="431.38,-208.5 278.12,-208.5 278.12,-155.5 431.38,-155.5 431.38,-208.5"/>
<text text-anchor="start" x="286.12" y="-195" font-family="Helvetica,sans-Serif" font-size="10.00">/github/workspace/dev</text>
<text text-anchor="start" x="286.12" y="-183.75" font-family="Helvetica,sans-Serif" font-size="10.00">_area/build/timinglibs</text>
<text text-anchor="start" x="286.12" y="-172.5" font-family="Helvetica,sans-Serif" font-size="10.00">/codegen/include/timinglibs</text>
<text text-anchor="middle" x="354.75" y="-161.25" font-family="Helvetica,sans-Serif" font-size="10.00">/timingmastercontroller/Nljs.hpp</text>
</a>
</g>
</g>
<!-- Node1&#45;&gt;Node6 -->
<g id="edge5_Node000001_Node000006" class="edge">
<title>Node1&#45;&gt;Node6</title>
<g id="a_edge5_Node000001_Node000006"><a xlink:title=" ">
<path fill="none" stroke="#63b8ff" d="M323.19,-234.8C328.5,-226.09 334.09,-216.92 339.06,-208.75"/>
<polygon fill="#63b8ff" stroke="#63b8ff" points="320.37,-232.71 318.15,-243.08 326.34,-236.36 320.37,-232.71"/>
</a>
</g>
</g>
<!-- Node7 -->
<g id="Node000007" class="node">
<title>Node7</title>
<g id="a_Node000007"><a xlink:href="sourcecode_2timinglibs_2src_2TimingMasterController_8cpp.html" target="_top" xlink:title=" ">
<polygon fill="white" stroke="#666666" points="533.75,-41.75 379.75,-41.75 379.75,0 533.75,0 533.75,-41.75"/>
<text text-anchor="start" x="387.75" y="-28.25" font-family="Helvetica,sans-Serif" font-size="10.00">/github/workspace/dev</text>
<text text-anchor="start" x="387.75" y="-17" font-family="Helvetica,sans-Serif" font-size="10.00">_area/sourcecode/timinglibs</text>
<text text-anchor="middle" x="456.75" y="-5.75" font-family="Helvetica,sans-Serif" font-size="10.00">/src/TimingMasterController.cpp</text>
</a>
</g>
</g>
<!-- Node1&#45;&gt;Node7 -->
<g id="edge11_Node000001_Node000007" class="edge">
<title>Node1&#45;&gt;Node7</title>
<g id="a_edge11_Node000001_Node000007"><a xlink:title=" ">
<path fill="none" stroke="#63b8ff" d="M379.69,-248.93C439.73,-227.7 516.73,-188.02 542.75,-119.5 549.34,-102.15 551.6,-94.06 542.75,-77.75 534.51,-62.57 520.17,-50.87 505.53,-42.2"/>
<polygon fill="#63b8ff" stroke="#63b8ff" points="378.84,-245.53 370.51,-252.07 381.11,-252.15 378.84,-245.53"/>
</a>
</g>
</g>
<!-- Node8 -->
<g id="Node000008" class="node">
<title>Node8</title>
<g id="a_Node000008"><a xlink:href="sourcecode_2timinglibs_2src_2TimingMasterController_8hpp.html" target="_top" xlink:title=" ">
<polygon fill="white" stroke="#666666" points="533.75,-119.5 379.75,-119.5 379.75,-77.75 533.75,-77.75 533.75,-119.5"/>
<text text-anchor="start" x="387.75" y="-106" font-family="Helvetica,sans-Serif" font-size="10.00">/github/workspace/dev</text>
<text text-anchor="start" x="387.75" y="-94.75" font-family="Helvetica,sans-Serif" font-size="10.00">_area/sourcecode/timinglibs</text>
<text text-anchor="middle" x="456.75" y="-83.5" font-family="Helvetica,sans-Serif" font-size="10.00">/src/TimingMasterController.hpp</text>
</a>
</g>
</g>
<!-- Node1&#45;&gt;Node8 -->
<g id="edge12_Node000001_Node000008" class="edge">
<title>Node1&#45;&gt;Node8</title>
<g id="a_edge12_Node000001_Node000008"><a xlink:title=" ">
<path fill="none" stroke="#63b8ff" d="M379.56,-251.29C402.54,-242.06 425.58,-228.45 440.75,-208.5 460.29,-182.8 461.01,-143.58 459.23,-119.9"/>
<polygon fill="#63b8ff" stroke="#63b8ff" points="378.59,-247.92 370.45,-254.7 381.04,-254.47 378.59,-247.92"/>
</a>
</g>
</g>
<!-- Node2&#45;&gt;Node3 -->
<g id="edge2_Node000002_Node000003" class="edge">
<title>Node2&#45;&gt;Node3</title>
<g id="a_edge2_Node000002_Node000003"><a xlink:title=" ">
<path fill="none" stroke="#63b8ff" d="M119.37,-147.52C109.42,-138.11 98.91,-128.16 90.06,-119.79"/>
<polygon fill="#63b8ff" stroke="#63b8ff" points="116.77,-149.88 126.44,-154.21 121.58,-144.8 116.77,-149.88"/>
</a>
</g>
</g>
<!-- Node2&#45;&gt;Node4 -->
<g id="edge3_Node000002_Node000004" class="edge">
<title>Node2&#45;&gt;Node4</title>
<g id="a_edge3_Node000002_Node000004"><a xlink:title=" ">
<path fill="none" stroke="#63b8ff" d="M190.13,-147.52C200.08,-138.11 210.59,-128.16 219.44,-119.79"/>
<polygon fill="#63b8ff" stroke="#63b8ff" points="187.92,-144.8 183.06,-154.21 192.73,-149.88 187.92,-144.8"/>
</a>
</g>
</g>
<!-- Node5 -->
<g id="Node000005" class="node">
<title>Node5</title>
<g id="a_Node000005"><a xlink:href="sourcecode_2timinglibs_2src_2TimingHardwareManager_8cpp.html" target="_top" xlink:title=" ">
<polygon fill="white" stroke="#666666" points="321.88,-41.75 159.62,-41.75 159.62,0 321.88,0 321.88,-41.75"/>
<text text-anchor="start" x="167.62" y="-28.25" font-family="Helvetica,sans-Serif" font-size="10.00">/github/workspace/dev</text>
<text text-anchor="start" x="167.62" y="-17" font-family="Helvetica,sans-Serif" font-size="10.00">_area/sourcecode/timinglibs</text>
<text text-anchor="middle" x="240.75" y="-5.75" font-family="Helvetica,sans-Serif" font-size="10.00">/src/TimingHardwareManager.cpp</text>
</a>
</g>
</g>
<!-- Node4&#45;&gt;Node5 -->
<g id="edge4_Node000004_Node000005" class="edge">
<title>Node4&#45;&gt;Node5</title>
<g id="a_edge4_Node000004_Node000005"><a xlink:title=" ">
<path fill="none" stroke="#63b8ff" d="M240.75,-66C240.75,-57.96 240.75,-49.54 240.75,-42.23"/>
<polygon fill="#63b8ff" stroke="#63b8ff" points="237.25,-65.81 240.75,-75.81 244.25,-65.81 237.25,-65.81"/>
</a>
</g>
</g>
<!-- Node6&#45;&gt;Node7 -->
<g id="edge6_Node000006_Node000007" class="edge">
<title>Node6&#45;&gt;Node7</title>
<g id="a_edge6_Node000006_Node000007"><a xlink:title=" ">
<path fill="none" stroke="#63b8ff" d="M353.3,-143.83C354.16,-122.92 358.17,-97.19 370.75,-77.75 380.42,-62.8 395.66,-51 410.64,-42.18"/>
<polygon fill="#63b8ff" stroke="#63b8ff" points="349.8,-143.62 353.14,-153.67 356.8,-143.73 349.8,-143.62"/>
</a>
</g>
</g>
<!-- Node6&#45;&gt;Node8 -->
<g id="edge7_Node000006_Node000008" class="edge">
<title>Node6&#45;&gt;Node8</title>
<g id="a_edge7_Node000006_Node000008"><a xlink:title=" ">
<path fill="none" stroke="#63b8ff" d="M396.2,-147.93C408.08,-138.45 420.67,-128.41 431.28,-119.94"/>
<polygon fill="#63b8ff" stroke="#63b8ff" points="394.12,-145.11 388.49,-154.08 398.49,-150.58 394.12,-145.11"/>
</a>
</g>
</g>
<!-- Node8&#45;&gt;Node7 -->
<g id="edge8_Node000008_Node000007" class="edge">
<title>Node8&#45;&gt;Node7</title>
<g id="a_edge8_Node000008_Node000007"><a xlink:title=" ">
<path fill="none" stroke="#63b8ff" d="M456.75,-66C456.75,-57.96 456.75,-49.54 456.75,-42.23"/>
<polygon fill="#63b8ff" stroke="#63b8ff" points="453.25,-65.81 456.75,-75.81 460.25,-65.81 453.25,-65.81"/>
</a>
</g>
</g>
</g>
</svg>
