<?xml version="1.0" encoding="UTF-8" standalone="no"?>
<!DOCTYPE svg PUBLIC "-//W3C//DTD SVG 1.1//EN"
 "http://www.w3.org/Graphics/SVG/1.1/DTD/svg11.dtd">
<!-- Generated by graphviz version 9.0.0 (20230911.1827)
 -->
<!-- Title: /github/workspace/dev_area/build/timinglibs/codegen/include/timinglibs/timingfanoutcontroller/Nljs.hpp Pages: 1 -->
<svg width="276pt" height="183pt"
 viewBox="0.00 0.00 276.12 182.75" xmlns="http://www.w3.org/2000/svg" xmlns:xlink="http://www.w3.org/1999/xlink">
<g id="graph0" class="graph" transform="scale(1 1) rotate(0) translate(4 178.75)">
<title>/github/workspace/dev_area/build/timinglibs/codegen/include/timinglibs/timingfanoutcontroller/Nljs.hpp</title>
<!-- Node1 -->
<g id="Node000001" class="node">
<title>Node1</title>
<g id="a_Node000001"><a xlink:title=" ">
<polygon fill="#999999" stroke="#666666" points="222.75,-174.75 72.5,-174.75 72.5,-121.75 222.75,-121.75 222.75,-174.75"/>
<text text-anchor="start" x="80.5" y="-161.25" font-family="Helvetica,sans-Serif" font-size="10.00">/github/workspace/dev</text>
<text text-anchor="start" x="80.5" y="-150" font-family="Helvetica,sans-Serif" font-size="10.00">_area/build/timinglibs</text>
<text text-anchor="start" x="80.5" y="-138.75" font-family="Helvetica,sans-Serif" font-size="10.00">/codegen/include/timinglibs</text>
<text text-anchor="middle" x="147.62" y="-127.5" font-family="Helvetica,sans-Serif" font-size="10.00">/timingfanoutcontroller/Nljs.hpp</text>
</a>
</g>
</g>
<!-- Node2 -->
<g id="Node000002" class="node">
<title>Node2</title>
<g id="a_Node000002"><a xlink:href="timinglibs_2codegen_2include_2timinglibs_2timingfanoutcontroller_2Structs_8hpp.html" target="_top" xlink:title=" ">
<polygon fill="white" stroke="#666666" points="153.25,-85.75 0,-85.75 0,-55.25 153.25,-55.25 153.25,-85.75"/>
<text text-anchor="start" x="8" y="-72.25" font-family="Helvetica,sans-Serif" font-size="10.00">timinglibs/timingfanoutcontroller</text>
<text text-anchor="middle" x="76.62" y="-61" font-family="Helvetica,sans-Serif" font-size="10.00">/Structs.hpp</text>
</a>
</g>
</g>
<!-- Node1&#45;&gt;Node2 -->
<g id="edge1_Node000001_Node000002" class="edge">
<title>Node1&#45;&gt;Node2</title>
<g id="a_edge1_Node000001_Node000002"><a xlink:title=" ">
<path fill="none" stroke="#63b8ff" d="M123.59,-121.6C115.35,-112.81 106.18,-103.04 98.15,-94.47"/>
<polygon fill="#63b8ff" stroke="#63b8ff" points="100.71,-92.08 91.32,-87.18 95.6,-96.87 100.71,-92.08"/>
</a>
</g>
</g>
<!-- Node5 -->
<g id="Node000005" class="node">
<title>Node5</title>
<g id="a_Node000005"><a xlink:title=" ">
<polygon fill="#e0e0e0" stroke="#999999" points="268.12,-80.12 171.12,-80.12 171.12,-60.88 268.12,-60.88 268.12,-80.12"/>
<text text-anchor="middle" x="219.62" y="-66.62" font-family="Helvetica,sans-Serif" font-size="10.00">nlohmann/json.hpp</text>
</a>
</g>
</g>
<!-- Node1&#45;&gt;Node5 -->
<g id="edge4_Node000001_Node000005" class="edge">
<title>Node1&#45;&gt;Node5</title>
<g id="a_edge4_Node000001_Node000005"><a xlink:title=" ">
<path fill="none" stroke="#63b8ff" d="M172,-121.6C182.37,-110.69 194.18,-98.27 203.45,-88.52"/>
<polygon fill="#63b8ff" stroke="#63b8ff" points="205.73,-91.2 210.08,-81.54 200.66,-86.37 205.73,-91.2"/>
</a>
</g>
</g>
<!-- Node3 -->
<g id="Node000003" class="node">
<title>Node3</title>
<g id="a_Node000003"><a xlink:title=" ">
<polygon fill="#e0e0e0" stroke="#999999" points="69.25,-19.25 24,-19.25 24,0 69.25,0 69.25,-19.25"/>
<text text-anchor="middle" x="46.62" y="-5.75" font-family="Helvetica,sans-Serif" font-size="10.00">cstdint</text>
</a>
</g>
</g>
<!-- Node2&#45;&gt;Node3 -->
<g id="edge2_Node000002_Node000003" class="edge">
<title>Node2&#45;&gt;Node3</title>
<g id="a_edge2_Node000002_Node000003"><a xlink:title=" ">
<path fill="none" stroke="#63b8ff" d="M69.21,-54.95C65.34,-47.36 60.57,-37.99 56.4,-29.82"/>
<polygon fill="#63b8ff" stroke="#63b8ff" points="59.6,-28.37 51.94,-21.05 53.36,-31.55 59.6,-28.37"/>
</a>
</g>
</g>
<!-- Node4 -->
<g id="Node000004" class="node">
<title>Node4</title>
<g id="a_Node000004"><a xlink:title=" ">
<polygon fill="#e0e0e0" stroke="#999999" points="127.62,-19.25 87.62,-19.25 87.62,0 127.62,0 127.62,-19.25"/>
<text text-anchor="middle" x="107.62" y="-5.75" font-family="Helvetica,sans-Serif" font-size="10.00">string</text>
</a>
</g>
</g>
<!-- Node2&#45;&gt;Node4 -->
<g id="edge3_Node000002_Node000004" class="edge">
<title>Node2&#45;&gt;Node4</title>
<g id="a_edge3_Node000002_Node000004"><a xlink:title=" ">
<path fill="none" stroke="#63b8ff" d="M84.29,-54.95C88.28,-47.36 93.22,-37.99 97.52,-29.82"/>
<polygon fill="#63b8ff" stroke="#63b8ff" points="100.58,-31.52 102.14,-21.04 94.38,-28.26 100.58,-31.52"/>
</a>
</g>
</g>
</g>
</svg>
