<?xml version="1.0" encoding="UTF-8" standalone="no"?>
<!DOCTYPE svg PUBLIC "-//W3C//DTD SVG 1.1//EN"
 "http://www.w3.org/Graphics/SVG/1.1/DTD/svg11.dtd">
<!-- Generated by graphviz version 9.0.0 (20230911.1827)
 -->
<!-- Title: /github/workspace/dev_area/build/timing/codegen/include/timing/timingfirmware/Structs.hpp Pages: 1 -->
<svg width="1639pt" height="628pt"
 viewBox="0.00 0.00 1639.25 627.75" xmlns="http://www.w3.org/2000/svg" xmlns:xlink="http://www.w3.org/1999/xlink">
<g id="graph0" class="graph" transform="scale(1 1) rotate(0) translate(4 623.75)">
<title>/github/workspace/dev_area/build/timing/codegen/include/timing/timingfirmware/Structs.hpp</title>
<!-- Node1 -->
<g id="Node000001" class="node">
<title>Node1</title>
<g id="a_Node000001"><a xlink:title=" ">
<polygon fill="#999999" stroke="#666666" points="1002.5,-619.75 857.5,-619.75 857.5,-566.75 1002.5,-566.75 1002.5,-619.75"/>
<text text-anchor="start" x="865.5" y="-606.25" font-family="Helvetica,sans-Serif" font-size="10.00">/github/workspace/dev</text>
<text text-anchor="start" x="865.5" y="-595" font-family="Helvetica,sans-Serif" font-size="10.00">_area/build/timing/codegen</text>
<text text-anchor="start" x="865.5" y="-583.75" font-family="Helvetica,sans-Serif" font-size="10.00">/include/timing/timingfirmware</text>
<text text-anchor="middle" x="930" y="-572.5" font-family="Helvetica,sans-Serif" font-size="10.00">/Structs.hpp</text>
</a>
</g>
</g>
<!-- Node2 -->
<g id="Node000002" class="node">
<title>Node2</title>
<g id="a_Node000002"><a xlink:href="timing_2codegen_2include_2timing_2timingfirmware_2Nljs_8hpp.html" target="_top" xlink:title=" ">
<polygon fill="white" stroke="#666666" points="1053.5,-530.75 908.5,-530.75 908.5,-477.75 1053.5,-477.75 1053.5,-530.75"/>
<text text-anchor="start" x="916.5" y="-517.25" font-family="Helvetica,sans-Serif" font-size="10.00">/github/workspace/dev</text>
<text text-anchor="start" x="916.5" y="-506" font-family="Helvetica,sans-Serif" font-size="10.00">_area/build/timing/codegen</text>
<text text-anchor="start" x="916.5" y="-494.75" font-family="Helvetica,sans-Serif" font-size="10.00">/include/timing/timingfirmware</text>
<text text-anchor="middle" x="981" y="-483.5" font-family="Helvetica,sans-Serif" font-size="10.00">/Nljs.hpp</text>
</a>
</g>
</g>
<!-- Node1&#45;&gt;Node2 -->
<g id="edge1_Node000001_Node000002" class="edge">
<title>Node1&#45;&gt;Node2</title>
<g id="a_edge1_Node000001_Node000002"><a xlink:title=" ">
<path fill="none" stroke="#63b8ff" d="M950.8,-556.77C955.85,-548.14 961.17,-539.08 965.91,-531"/>
<polygon fill="#63b8ff" stroke="#63b8ff" points="947.83,-554.91 945.79,-565.31 953.87,-558.45 947.83,-554.91"/>
</a>
</g>
</g>
<!-- Node3 -->
<g id="Node000003" class="node">
<title>Node3</title>
<g id="a_Node000003"><a xlink:href="MasterNode_8hpp.html" target="_top" xlink:title=" ">
<polygon fill="white" stroke="#666666" points="1362.62,-364 1209.38,-364 1209.38,-322.25 1362.62,-322.25 1362.62,-364"/>
<text text-anchor="start" x="1217.38" y="-350.5" font-family="Helvetica,sans-Serif" font-size="10.00">/github/workspace/dev</text>
<text text-anchor="start" x="1217.38" y="-339.25" font-family="Helvetica,sans-Serif" font-size="10.00">_area/sourcecode/timing</text>
<text text-anchor="middle" x="1286" y="-328" font-family="Helvetica,sans-Serif" font-size="10.00">/include/timing/MasterNode.hpp</text>
</a>
</g>
</g>
<!-- Node1&#45;&gt;Node3 -->
<g id="edge46_Node000001_Node000003" class="edge">
<title>Node1&#45;&gt;Node3</title>
<g id="a_edge46_Node000001_Node000003"><a xlink:title=" ">
<path fill="none" stroke="#63b8ff" d="M1004.46,-561.65C1023.73,-552.64 1044.08,-542.12 1062,-530.75 1143.42,-479.1 1227.71,-400.98 1265.5,-364.38"/>
<polygon fill="#63b8ff" stroke="#63b8ff" points="1003.2,-558.38 995.57,-565.73 1006.12,-564.74 1003.2,-558.38"/>
</a>
</g>
</g>
<!-- Node7 -->
<g id="Node000007" class="node">
<title>Node7</title>
<g id="a_Node000007"><a xlink:href="MasterNodeInterface_8hpp.html" target="_top" xlink:title=" ">
<polygon fill="white" stroke="#666666" points="1026.75,-441.75 835.25,-441.75 835.25,-400 1026.75,-400 1026.75,-441.75"/>
<text text-anchor="start" x="843.25" y="-428.25" font-family="Helvetica,sans-Serif" font-size="10.00">/github/workspace/dev</text>
<text text-anchor="start" x="843.25" y="-417" font-family="Helvetica,sans-Serif" font-size="10.00">_area/sourcecode/timing</text>
<text text-anchor="middle" x="931" y="-405.75" font-family="Helvetica,sans-Serif" font-size="10.00">/include/timing/MasterNodeInterface.hpp</text>
</a>
</g>
</g>
<!-- Node1&#45;&gt;Node7 -->
<g id="edge47_Node000001_Node000007" class="edge">
<title>Node1&#45;&gt;Node7</title>
<g id="a_edge47_Node000001_Node000007"><a xlink:title=" ">
<path fill="none" stroke="#63b8ff" d="M908.33,-556.15C904.47,-548.06 901.04,-539.32 899,-530.75 893.55,-507.83 892.94,-500.51 899,-477.75 902.36,-465.11 909.34,-452.35 915.92,-442.23"/>
<polygon fill="#63b8ff" stroke="#63b8ff" points="905.19,-557.7 912.87,-565 911.42,-554.51 905.19,-557.7"/>
</a>
</g>
</g>
<!-- Node16 -->
<g id="Node000016" class="node">
<title>Node16</title>
<g id="a_Node000016"><a xlink:href="sourcecode_2timinglibs_2src_2TimingHardwareManager_8cpp.html" target="_top" xlink:title=" ">
<polygon fill="white" stroke="#666666" points="190.12,-41.75 27.88,-41.75 27.88,0 190.12,0 190.12,-41.75"/>
<text text-anchor="start" x="35.88" y="-28.25" font-family="Helvetica,sans-Serif" font-size="10.00">/github/workspace/dev</text>
<text text-anchor="start" x="35.88" y="-17" font-family="Helvetica,sans-Serif" font-size="10.00">_area/sourcecode/timinglibs</text>
<text text-anchor="middle" x="109" y="-5.75" font-family="Helvetica,sans-Serif" font-size="10.00">/src/TimingHardwareManager.cpp</text>
</a>
</g>
</g>
<!-- Node1&#45;&gt;Node16 -->
<g id="edge48_Node000001_Node000016" class="edge">
<title>Node1&#45;&gt;Node16</title>
<g id="a_edge48_Node000001_Node000016"><a xlink:title=" ">
<path fill="none" stroke="#63b8ff" d="M845.76,-585.66C616.78,-566.63 0,-507.43 0,-421.88 0,-421.88 0,-421.88 0,-175.38 0,-118.99 49.49,-68.9 81.78,-42.22"/>
<polygon fill="#63b8ff" stroke="#63b8ff" points="845.26,-589.13 855.52,-586.47 845.84,-582.16 845.26,-589.13"/>
</a>
</g>
</g>
<!-- Node2&#45;&gt;Node3 -->
<g id="edge2_Node000002_Node000003" class="edge">
<title>Node2&#45;&gt;Node3</title>
<g id="a_edge2_Node000002_Node000003"><a xlink:title=" ">
<path fill="none" stroke="#63b8ff" d="M1040.57,-472.17C1101.61,-440.32 1194.77,-391.72 1247,-364.47"/>
<polygon fill="#63b8ff" stroke="#63b8ff" points="1039.27,-468.9 1032.02,-476.63 1042.51,-475.11 1039.27,-468.9"/>
</a>
</g>
</g>
<!-- Node2&#45;&gt;Node7 -->
<g id="edge6_Node000002_Node000007" class="edge">
<title>Node2&#45;&gt;Node7</title>
<g id="a_edge6_Node000002_Node000007"><a xlink:title=" ">
<path fill="none" stroke="#63b8ff" d="M959.21,-467.78C953.79,-458.97 948.18,-449.83 943.39,-442.04"/>
<polygon fill="#63b8ff" stroke="#63b8ff" points="956.17,-469.52 964.39,-476.21 962.13,-465.86 956.17,-469.52"/>
</a>
</g>
</g>
<!-- Node2&#45;&gt;Node16 -->
<g id="edge45_Node000002_Node000016" class="edge">
<title>Node2&#45;&gt;Node16</title>
<g id="a_edge45_Node000002_Node000016"><a xlink:title=" ">
<path fill="none" stroke="#63b8ff" d="M896.96,-503.28C698.63,-501.09 218,-481.59 218,-344.12 218,-344.12 218,-344.12 218,-258.75 218,-212.09 217.33,-198.41 199,-155.5 191.25,-137.35 184.19,-135.76 173,-119.5 154.84,-93.12 134.72,-62.12 121.97,-42.25"/>
<polygon fill="#63b8ff" stroke="#63b8ff" points="896.64,-506.78 906.67,-503.37 896.71,-499.78 896.64,-506.78"/>
</a>
</g>
</g>
<!-- Node4 -->
<g id="Node000004" class="node">
<title>Node4</title>
<g id="a_Node000004"><a xlink:href="definitions_8cpp.html" target="_top" xlink:title=" ">
<polygon fill="white" stroke="#666666" points="1490.38,-280.62 1365.62,-280.62 1365.62,-238.88 1490.38,-238.88 1490.38,-280.62"/>
<text text-anchor="start" x="1373.62" y="-267.12" font-family="Helvetica,sans-Serif" font-size="10.00">/github/workspace/dev</text>
<text text-anchor="start" x="1373.62" y="-255.88" font-family="Helvetica,sans-Serif" font-size="10.00">_area/sourcecode/timing</text>
<text text-anchor="middle" x="1428" y="-244.62" font-family="Helvetica,sans-Serif" font-size="10.00">/pybindsrc/definitions.cpp</text>
</a>
</g>
</g>
<!-- Node3&#45;&gt;Node4 -->
<g id="edge3_Node000003_Node000004" class="edge">
<title>Node3&#45;&gt;Node4</title>
<g id="a_edge3_Node000003_Node000004"><a xlink:title=" ">
<path fill="none" stroke="#63b8ff" d="M1331.21,-316.22C1351.02,-304.86 1373.93,-291.73 1392.49,-281.1"/>
<polygon fill="#63b8ff" stroke="#63b8ff" points="1329.72,-313.04 1322.78,-321.05 1333.2,-319.11 1329.72,-313.04"/>
</a>
</g>
</g>
<!-- Node5 -->
<g id="Node000005" class="node">
<title>Node5</title>
<g id="a_Node000005"><a xlink:href="master_8cpp.html" target="_top" xlink:title=" ">
<polygon fill="white" stroke="#666666" points="1347.25,-280.62 1224.75,-280.62 1224.75,-238.88 1347.25,-238.88 1347.25,-280.62"/>
<text text-anchor="start" x="1232.75" y="-267.12" font-family="Helvetica,sans-Serif" font-size="10.00">/github/workspace/dev</text>
<text text-anchor="start" x="1232.75" y="-255.88" font-family="Helvetica,sans-Serif" font-size="10.00">_area/sourcecode/timing</text>
<text text-anchor="middle" x="1286" y="-244.62" font-family="Helvetica,sans-Serif" font-size="10.00">/pybindsrc/master.cpp</text>
</a>
</g>
</g>
<!-- Node3&#45;&gt;Node5 -->
<g id="edge4_Node000003_Node000005" class="edge">
<title>Node3&#45;&gt;Node5</title>
<g id="a_edge4_Node000003_Node000005"><a xlink:title=" ">
<path fill="none" stroke="#63b8ff" d="M1286,-310.77C1286,-300.74 1286,-289.92 1286,-280.92"/>
<polygon fill="#63b8ff" stroke="#63b8ff" points="1282.5,-310.5 1286,-320.5 1289.5,-310.5 1282.5,-310.5"/>
</a>
</g>
</g>
<!-- Node6 -->
<g id="Node000006" class="node">
<title>Node6</title>
<g id="a_Node000006"><a xlink:href="MasterNode_8cpp.html" target="_top" xlink:title=" ">
<polygon fill="white" stroke="#666666" points="1631.25,-280.62 1508.75,-280.62 1508.75,-238.88 1631.25,-238.88 1631.25,-280.62"/>
<text text-anchor="start" x="1516.75" y="-267.12" font-family="Helvetica,sans-Serif" font-size="10.00">/github/workspace/dev</text>
<text text-anchor="start" x="1516.75" y="-255.88" font-family="Helvetica,sans-Serif" font-size="10.00">_area/sourcecode/timing</text>
<text text-anchor="middle" x="1570" y="-244.62" font-family="Helvetica,sans-Serif" font-size="10.00">/src/MasterNode.cpp</text>
</a>
</g>
</g>
<!-- Node3&#45;&gt;Node6 -->
<g id="edge5_Node000003_Node000006" class="edge">
<title>Node3&#45;&gt;Node6</title>
<g id="a_edge5_Node000003_Node000006"><a xlink:title=" ">
<path fill="none" stroke="#63b8ff" d="M1373.57,-321.01C1412.24,-311.21 1458.11,-298.93 1499,-286.25 1504.25,-284.62 1509.7,-282.84 1515.12,-281"/>
<polygon fill="#63b8ff" stroke="#63b8ff" points="1373.18,-317.5 1364.33,-323.33 1374.89,-324.28 1373.18,-317.5"/>
</a>
</g>
</g>
<!-- Node7&#45;&gt;Node3 -->
<g id="edge39_Node000007_Node000003" class="edge">
<title>Node7&#45;&gt;Node3</title>
<g id="a_edge39_Node000007_Node000003"><a xlink:title=" ">
<path fill="none" stroke="#63b8ff" d="M1038,-398.22C1087.37,-388.08 1146.72,-375.69 1200,-364 1202.99,-363.34 1206.04,-362.67 1209.13,-361.98"/>
<polygon fill="#63b8ff" stroke="#63b8ff" points="1037.55,-394.74 1028.46,-400.18 1038.96,-401.6 1037.55,-394.74"/>
</a>
</g>
</g>
<!-- Node8 -->
<g id="Node000008" class="node">
<title>Node8</title>
<g id="a_Node000008"><a xlink:href="MasterDesignInterface_8hpp.html" target="_top" xlink:title=" ">
<polygon fill="white" stroke="#666666" points="1003.12,-364 804.88,-364 804.88,-322.25 1003.12,-322.25 1003.12,-364"/>
<text text-anchor="start" x="812.88" y="-350.5" font-family="Helvetica,sans-Serif" font-size="10.00">/github/workspace/dev</text>
<text text-anchor="start" x="812.88" y="-339.25" font-family="Helvetica,sans-Serif" font-size="10.00">_area/sourcecode/timing</text>
<text text-anchor="middle" x="904" y="-328" font-family="Helvetica,sans-Serif" font-size="10.00">/include/timing/MasterDesignInterface.hpp</text>
</a>
</g>
</g>
<!-- Node7&#45;&gt;Node8 -->
<g id="edge7_Node000007_Node000008" class="edge">
<title>Node7&#45;&gt;Node8</title>
<g id="a_edge7_Node000007_Node000008"><a xlink:title=" ">
<path fill="none" stroke="#63b8ff" d="M919.93,-388.81C917,-380.61 913.92,-371.96 911.26,-364.48"/>
<polygon fill="#63b8ff" stroke="#63b8ff" points="916.6,-389.91 923.26,-398.15 923.2,-387.56 916.6,-389.91"/>
</a>
</g>
</g>
<!-- Node32 -->
<g id="Node000032" class="node">
<title>Node32</title>
<g id="a_Node000032"><a xlink:href="PDIMasterNode_8hpp.html" target="_top" xlink:title=" ">
<polygon fill="white" stroke="#666666" points="1190.88,-364 1021.12,-364 1021.12,-322.25 1190.88,-322.25 1190.88,-364"/>
<text text-anchor="start" x="1029.12" y="-350.5" font-family="Helvetica,sans-Serif" font-size="10.00">/github/workspace/dev</text>
<text text-anchor="start" x="1029.12" y="-339.25" font-family="Helvetica,sans-Serif" font-size="10.00">_area/sourcecode/timing</text>
<text text-anchor="middle" x="1106" y="-328" font-family="Helvetica,sans-Serif" font-size="10.00">/include/timing/PDIMasterNode.hpp</text>
</a>
</g>
</g>
<!-- Node7&#45;&gt;Node32 -->
<g id="edge40_Node000007_Node000032" class="edge">
<title>Node7&#45;&gt;Node32</title>
<g id="a_edge40_Node000007_Node000032"><a xlink:title=" ">
<path fill="none" stroke="#63b8ff" d="M988.18,-395.13C1011.1,-385.2 1037.18,-373.91 1058.97,-364.48"/>
<polygon fill="#63b8ff" stroke="#63b8ff" points="987.07,-391.79 979.29,-398.97 989.85,-398.21 987.07,-391.79"/>
</a>
</g>
</g>
<!-- Node34 -->
<g id="Node000034" class="node">
<title>Node34</title>
<g id="a_Node000034"><a xlink:href="MasterNodeInterface_8cpp.html" target="_top" xlink:title=" ">
<polygon fill="white" stroke="#666666" points="786.5,-364 641.5,-364 641.5,-322.25 786.5,-322.25 786.5,-364"/>
<text text-anchor="start" x="649.5" y="-350.5" font-family="Helvetica,sans-Serif" font-size="10.00">/github/workspace/dev</text>
<text text-anchor="start" x="649.5" y="-339.25" font-family="Helvetica,sans-Serif" font-size="10.00">_area/sourcecode/timing</text>
<text text-anchor="middle" x="714" y="-328" font-family="Helvetica,sans-Serif" font-size="10.00">/src/MasterNodeInterface.cpp</text>
</a>
</g>
</g>
<!-- Node7&#45;&gt;Node34 -->
<g id="edge44_Node000007_Node000034" class="edge">
<title>Node7&#45;&gt;Node34</title>
<g id="a_edge44_Node000007_Node000034"><a xlink:title=" ">
<path fill="none" stroke="#63b8ff" d="M862.01,-395.79C833.14,-385.71 799.94,-374.13 772.31,-364.48"/>
<polygon fill="#63b8ff" stroke="#63b8ff" points="860.82,-399.09 871.42,-399.08 863.13,-392.48 860.82,-399.09"/>
</a>
</g>
</g>
<!-- Node9 -->
<g id="Node000009" class="node">
<title>Node9</title>
<g id="a_Node000009"><a xlink:href="MasterDesign_8hpp.html" target="_top" xlink:title=" ">
<polygon fill="white" stroke="#666666" points="1065,-280.62 905,-280.62 905,-238.88 1065,-238.88 1065,-280.62"/>
<text text-anchor="start" x="913" y="-267.12" font-family="Helvetica,sans-Serif" font-size="10.00">/github/workspace/dev</text>
<text text-anchor="start" x="913" y="-255.88" font-family="Helvetica,sans-Serif" font-size="10.00">_area/sourcecode/timing</text>
<text text-anchor="middle" x="985" y="-244.62" font-family="Helvetica,sans-Serif" font-size="10.00">/include/timing/MasterDesign.hpp</text>
</a>
</g>
</g>
<!-- Node8&#45;&gt;Node9 -->
<g id="edge8_Node000008_Node000009" class="edge">
<title>Node8&#45;&gt;Node9</title>
<g id="a_edge8_Node000008_Node000009"><a xlink:title=" ">
<path fill="none" stroke="#63b8ff" d="M931.99,-314C942.83,-303.12 954.99,-290.9 964.93,-280.92"/>
<polygon fill="#63b8ff" stroke="#63b8ff" points="929.66,-311.38 925.09,-320.94 934.63,-316.32 929.66,-311.38"/>
</a>
</g>
</g>
<!-- Node29 -->
<g id="Node000029" class="node">
<title>Node29</title>
<g id="a_Node000029"><a xlink:href="OverlordDesignInterface_8hpp.html" target="_top" xlink:title=" ">
<polygon fill="white" stroke="#666666" points="849.38,-286.25 700.62,-286.25 700.62,-233.25 849.38,-233.25 849.38,-286.25"/>
<text text-anchor="start" x="708.62" y="-272.75" font-family="Helvetica,sans-Serif" font-size="10.00">/github/workspace/dev</text>
<text text-anchor="start" x="708.62" y="-261.5" font-family="Helvetica,sans-Serif" font-size="10.00">_area/sourcecode/timing</text>
<text text-anchor="start" x="708.62" y="-250.25" font-family="Helvetica,sans-Serif" font-size="10.00">/include/timing/OverlordDesign</text>
<text text-anchor="middle" x="775" y="-239" font-family="Helvetica,sans-Serif" font-size="10.00">Interface.hpp</text>
</a>
</g>
</g>
<!-- Node8&#45;&gt;Node29 -->
<g id="edge34_Node000008_Node000029" class="edge">
<title>Node8&#45;&gt;Node29</title>
<g id="a_edge34_Node000008_Node000029"><a xlink:title=" ">
<path fill="none" stroke="#63b8ff" d="M862.34,-315.85C847.52,-306.5 830.85,-295.98 816.07,-286.66"/>
<polygon fill="#63b8ff" stroke="#63b8ff" points="860.18,-318.62 870.5,-320.99 863.91,-312.7 860.18,-318.62"/>
</a>
</g>
</g>
<!-- Node31 -->
<g id="Node000031" class="node">
<title>Node31</title>
<g id="a_Node000031"><a xlink:href="sourcecode_2timinglibs_2src_2TimingHardwareManager_8hpp.html" target="_top" xlink:title=" ">
<polygon fill="white" stroke="#666666" points="190.12,-197.25 27.88,-197.25 27.88,-155.5 190.12,-155.5 190.12,-197.25"/>
<text text-anchor="start" x="35.88" y="-183.75" font-family="Helvetica,sans-Serif" font-size="10.00">/github/workspace/dev</text>
<text text-anchor="start" x="35.88" y="-172.5" font-family="Helvetica,sans-Serif" font-size="10.00">_area/sourcecode/timinglibs</text>
<text text-anchor="middle" x="109" y="-161.25" font-family="Helvetica,sans-Serif" font-size="10.00">/src/TimingHardwareManager.hpp</text>
</a>
</g>
</g>
<!-- Node8&#45;&gt;Node31 -->
<g id="edge37_Node000008_Node000031" class="edge">
<title>Node8&#45;&gt;Node31</title>
<g id="a_edge37_Node000008_Node000031"><a xlink:title=" ">
<path fill="none" stroke="#63b8ff" d="M794.81,-319.5C633.31,-286.03 334.4,-224.08 190.54,-194.27"/>
<polygon fill="#63b8ff" stroke="#63b8ff" points="793.74,-322.85 804.24,-321.45 795.16,-315.99 793.74,-322.85"/>
</a>
</g>
</g>
<!-- Node10 -->
<g id="Node000010" class="node">
<title>Node10</title>
<g id="a_Node000010"><a xlink:href="BoreasDesign_8hpp.html" target="_top" xlink:title=" ">
<polygon fill="white" stroke="#666666" points="1584.38,-197.25 1423.62,-197.25 1423.62,-155.5 1584.38,-155.5 1584.38,-197.25"/>
<text text-anchor="start" x="1431.62" y="-183.75" font-family="Helvetica,sans-Serif" font-size="10.00">/github/workspace/dev</text>
<text text-anchor="start" x="1431.62" y="-172.5" font-family="Helvetica,sans-Serif" font-size="10.00">_area/sourcecode/timing</text>
<text text-anchor="middle" x="1504" y="-161.25" font-family="Helvetica,sans-Serif" font-size="10.00">/include/timing/BoreasDesign.hpp</text>
</a>
</g>
</g>
<!-- Node9&#45;&gt;Node10 -->
<g id="edge9_Node000009_Node000010" class="edge">
<title>Node9&#45;&gt;Node10</title>
<g id="a_edge9_Node000009_Node000010"><a xlink:title=" ">
<path fill="none" stroke="#63b8ff" d="M1062.36,-235.72C1066.28,-234.83 1070.18,-233.99 1074,-233.25 1223.59,-204.15 1264.61,-221.9 1415,-197.25 1417.81,-196.79 1420.67,-196.29 1423.55,-195.77"/>
<polygon fill="#63b8ff" stroke="#63b8ff" points="1061.64,-232.29 1052.75,-238.04 1063.29,-239.1 1061.64,-232.29"/>
</a>
</g>
</g>
<!-- Node13 -->
<g id="Node000013" class="node">
<title>Node13</title>
<g id="a_Node000013"><a xlink:href="MasterMuxDesign_8hpp.html" target="_top" xlink:title=" ">
<polygon fill="white" stroke="#666666" points="849,-197.25 671,-197.25 671,-155.5 849,-155.5 849,-197.25"/>
<text text-anchor="start" x="679" y="-183.75" font-family="Helvetica,sans-Serif" font-size="10.00">/github/workspace/dev</text>
<text text-anchor="start" x="679" y="-172.5" font-family="Helvetica,sans-Serif" font-size="10.00">_area/sourcecode/timing</text>
<text text-anchor="middle" x="760" y="-161.25" font-family="Helvetica,sans-Serif" font-size="10.00">/include/timing/MasterMuxDesign.hpp</text>
</a>
</g>
</g>
<!-- Node9&#45;&gt;Node13 -->
<g id="edge12_Node000009_Node000013" class="edge">
<title>Node9&#45;&gt;Node13</title>
<g id="a_edge12_Node000009_Node000013"><a xlink:title=" ">
<path fill="none" stroke="#63b8ff" d="M918.06,-234.54C885.64,-222.81 847.14,-208.89 816.26,-197.72"/>
<polygon fill="#63b8ff" stroke="#63b8ff" points="916.79,-237.8 927.38,-237.91 919.17,-231.22 916.79,-237.8"/>
</a>
</g>
</g>
<!-- Node24 -->
<g id="Node000024" class="node">
<title>Node24</title>
<g id="a_Node000024"><a xlink:href="OuroborosDesign_8hpp.html" target="_top" xlink:title=" ">
<polygon fill="white" stroke="#666666" points="1405.5,-197.25 1230.5,-197.25 1230.5,-155.5 1405.5,-155.5 1405.5,-197.25"/>
<text text-anchor="start" x="1238.5" y="-183.75" font-family="Helvetica,sans-Serif" font-size="10.00">/github/workspace/dev</text>
<text text-anchor="start" x="1238.5" y="-172.5" font-family="Helvetica,sans-Serif" font-size="10.00">_area/sourcecode/timing</text>
<text text-anchor="middle" x="1318" y="-161.25" font-family="Helvetica,sans-Serif" font-size="10.00">/include/timing/OuroborosDesign.hpp</text>
</a>
</g>
</g>
<!-- Node9&#45;&gt;Node24 -->
<g id="edge27_Node000009_Node000024" class="edge">
<title>Node9&#45;&gt;Node24</title>
<g id="a_edge27_Node000009_Node000024"><a xlink:title=" ">
<path fill="none" stroke="#63b8ff" d="M1065.2,-235.56C1068.17,-234.77 1071.11,-233.99 1074,-233.25 1125.55,-219.97 1183.64,-206.61 1230.2,-196.28"/>
<polygon fill="#63b8ff" stroke="#63b8ff" points="1064.58,-232.1 1055.84,-238.09 1066.41,-238.85 1064.58,-232.1"/>
</a>
</g>
</g>
<!-- Node26 -->
<g id="Node000026" class="node">
<title>Node26</title>
<g id="a_Node000026"><a xlink:href="OverlordDesign_8hpp.html" target="_top" xlink:title=" ">
<polygon fill="white" stroke="#666666" points="1071.38,-197.25 904.62,-197.25 904.62,-155.5 1071.38,-155.5 1071.38,-197.25"/>
<text text-anchor="start" x="912.62" y="-183.75" font-family="Helvetica,sans-Serif" font-size="10.00">/github/workspace/dev</text>
<text text-anchor="start" x="912.62" y="-172.5" font-family="Helvetica,sans-Serif" font-size="10.00">_area/sourcecode/timing</text>
<text text-anchor="middle" x="988" y="-161.25" font-family="Helvetica,sans-Serif" font-size="10.00">/include/timing/OverlordDesign.hpp</text>
</a>
</g>
</g>
<!-- Node9&#45;&gt;Node26 -->
<g id="edge30_Node000009_Node000026" class="edge">
<title>Node9&#45;&gt;Node26</title>
<g id="a_edge30_Node000009_Node000026"><a xlink:title=" ">
<path fill="none" stroke="#63b8ff" d="M986.16,-227.39C986.53,-217.37 986.92,-206.55 987.26,-197.54"/>
<polygon fill="#63b8ff" stroke="#63b8ff" points="982.67,-227 985.8,-237.12 989.66,-227.26 982.67,-227"/>
</a>
</g>
</g>
<!-- Node28 -->
<g id="Node000028" class="node">
<title>Node28</title>
<g id="a_Node000028"><a xlink:href="MasterDesign_8cpp.html" target="_top" xlink:title=" ">
<polygon fill="white" stroke="#666666" points="1212.25,-197.25 1089.75,-197.25 1089.75,-155.5 1212.25,-155.5 1212.25,-197.25"/>
<text text-anchor="start" x="1097.75" y="-183.75" font-family="Helvetica,sans-Serif" font-size="10.00">/github/workspace/dev</text>
<text text-anchor="start" x="1097.75" y="-172.5" font-family="Helvetica,sans-Serif" font-size="10.00">_area/sourcecode/timing</text>
<text text-anchor="middle" x="1151" y="-161.25" font-family="Helvetica,sans-Serif" font-size="10.00">/src/MasterDesign.cpp</text>
</a>
</g>
</g>
<!-- Node9&#45;&gt;Node28 -->
<g id="edge33_Node000009_Node000028" class="edge">
<title>Node9&#45;&gt;Node28</title>
<g id="a_edge33_Node000009_Node000028"><a xlink:title=" ">
<path fill="none" stroke="#63b8ff" d="M1036.58,-233.46C1060.03,-221.97 1087.4,-208.55 1109.49,-197.72"/>
<polygon fill="#63b8ff" stroke="#63b8ff" points="1035.26,-230.21 1027.82,-237.76 1038.34,-236.5 1035.26,-230.21"/>
</a>
</g>
</g>
<!-- Node11 -->
<g id="Node000011" class="node">
<title>Node11</title>
<g id="a_Node000011"><a xlink:href="top__designs_8cpp.html" target="_top" xlink:title=" ">
<polygon fill="white" stroke="#666666" points="1176.88,-41.75 1043.12,-41.75 1043.12,0 1176.88,0 1176.88,-41.75"/>
<text text-anchor="start" x="1051.12" y="-28.25" font-family="Helvetica,sans-Serif" font-size="10.00">/github/workspace/dev</text>
<text text-anchor="start" x="1051.12" y="-17" font-family="Helvetica,sans-Serif" font-size="10.00">_area/sourcecode/timing</text>
<text text-anchor="middle" x="1110" y="-5.75" font-family="Helvetica,sans-Serif" font-size="10.00">/pybindsrc/top_designs.cpp</text>
</a>
</g>
</g>
<!-- Node10&#45;&gt;Node11 -->
<g id="edge10_Node000010_Node000011" class="edge">
<title>Node10&#45;&gt;Node11</title>
<g id="a_edge10_Node000010_Node000011"><a xlink:title=" ">
<path fill="none" stroke="#63b8ff" d="M1546.77,-147.9C1555.76,-139.91 1564.01,-130.36 1569,-119.5 1576.74,-102.64 1581.3,-91.64 1569,-77.75 1543.45,-48.9 1298.04,-31.9 1176.93,-25.2"/>
<polygon fill="#63b8ff" stroke="#63b8ff" points="1544.71,-145.07 1539.19,-154.11 1549.14,-150.48 1544.71,-145.07"/>
</a>
</g>
</g>
<!-- Node12 -->
<g id="Node000012" class="node">
<title>Node12</title>
<g id="a_Node000012"><a xlink:href="BoreasDesign_8cpp.html" target="_top" xlink:title=" ">
<polygon fill="white" stroke="#666666" points="1560.25,-119.5 1437.75,-119.5 1437.75,-77.75 1560.25,-77.75 1560.25,-119.5"/>
<text text-anchor="start" x="1445.75" y="-106" font-family="Helvetica,sans-Serif" font-size="10.00">/github/workspace/dev</text>
<text text-anchor="start" x="1445.75" y="-94.75" font-family="Helvetica,sans-Serif" font-size="10.00">_area/sourcecode/timing</text>
<text text-anchor="middle" x="1499" y="-83.5" font-family="Helvetica,sans-Serif" font-size="10.00">/src/BoreasDesign.cpp</text>
</a>
</g>
</g>
<!-- Node10&#45;&gt;Node12 -->
<g id="edge11_Node000010_Node000012" class="edge">
<title>Node10&#45;&gt;Node12</title>
<g id="a_edge11_Node000010_Node000012"><a xlink:title=" ">
<path fill="none" stroke="#63b8ff" d="M1501.91,-143.75C1501.38,-135.71 1500.83,-127.29 1500.34,-119.98"/>
<polygon fill="#63b8ff" stroke="#63b8ff" points="1498.41,-143.82 1502.56,-153.57 1505.39,-143.36 1498.41,-143.82"/>
</a>
</g>
</g>
<!-- Node14 -->
<g id="Node000014" class="node">
<title>Node14</title>
<g id="a_Node000014"><a xlink:href="FanoutDesign_8hpp.html" target="_top" xlink:title=" ">
<polygon fill="white" stroke="#666666" points="342,-119.5 182,-119.5 182,-77.75 342,-77.75 342,-119.5"/>
<text text-anchor="start" x="190" y="-106" font-family="Helvetica,sans-Serif" font-size="10.00">/github/workspace/dev</text>
<text text-anchor="start" x="190" y="-94.75" font-family="Helvetica,sans-Serif" font-size="10.00">_area/sourcecode/timing</text>
<text text-anchor="middle" x="262" y="-83.5" font-family="Helvetica,sans-Serif" font-size="10.00">/include/timing/FanoutDesign.hpp</text>
</a>
</g>
</g>
<!-- Node13&#45;&gt;Node14 -->
<g id="edge13_Node000013_Node000014" class="edge">
<title>Node13&#45;&gt;Node14</title>
<g id="a_edge13_Node000013_Node000014"><a xlink:title=" ">
<path fill="none" stroke="#63b8ff" d="M659.27,-155.14C522.59,-134.11 484.58,-142.08 351,-119.5 348.19,-119.02 345.34,-118.52 342.46,-117.99"/>
<polygon fill="#63b8ff" stroke="#63b8ff" points="658.68,-158.59 669.1,-156.68 659.76,-151.68 658.68,-158.59"/>
</a>
</g>
</g>
<!-- Node17 -->
<g id="Node000017" class="node">
<title>Node17</title>
<g id="a_Node000017"><a xlink:href="GaiaDesign_8hpp.html" target="_top" xlink:title=" ">
<polygon fill="white" stroke="#666666" points="1058.12,-119.5 907.88,-119.5 907.88,-77.75 1058.12,-77.75 1058.12,-119.5"/>
<text text-anchor="start" x="915.88" y="-106" font-family="Helvetica,sans-Serif" font-size="10.00">/github/workspace/dev</text>
<text text-anchor="start" x="915.88" y="-94.75" font-family="Helvetica,sans-Serif" font-size="10.00">_area/sourcecode/timing</text>
<text text-anchor="middle" x="983" y="-83.5" font-family="Helvetica,sans-Serif" font-size="10.00">/include/timing/GaiaDesign.hpp</text>
</a>
</g>
</g>
<!-- Node13&#45;&gt;Node17 -->
<g id="edge17_Node000013_Node000017" class="edge">
<title>Node13&#45;&gt;Node17</title>
<g id="a_edge17_Node000013_Node000017"><a xlink:title=" ">
<path fill="none" stroke="#63b8ff" d="M830.5,-151.43C860.27,-141.32 894.56,-129.67 923.08,-119.98"/>
<polygon fill="#63b8ff" stroke="#63b8ff" points="829.54,-148.06 821.19,-154.59 831.79,-154.69 829.54,-148.06"/>
</a>
</g>
</g>
<!-- Node19 -->
<g id="Node000019" class="node">
<title>Node19</title>
<g id="a_Node000019"><a xlink:href="KerberosDesign_8hpp.html" target="_top" xlink:title=" ">
<polygon fill="white" stroke="#666666" points="889.5,-119.5 720.5,-119.5 720.5,-77.75 889.5,-77.75 889.5,-119.5"/>
<text text-anchor="start" x="728.5" y="-106" font-family="Helvetica,sans-Serif" font-size="10.00">/github/workspace/dev</text>
<text text-anchor="start" x="728.5" y="-94.75" font-family="Helvetica,sans-Serif" font-size="10.00">_area/sourcecode/timing</text>
<text text-anchor="middle" x="805" y="-83.5" font-family="Helvetica,sans-Serif" font-size="10.00">/include/timing/KerberosDesign.hpp</text>
</a>
</g>
</g>
<!-- Node13&#45;&gt;Node19 -->
<g id="edge20_Node000013_Node000019" class="edge">
<title>Node13&#45;&gt;Node19</title>
<g id="a_edge20_Node000013_Node000019"><a xlink:title=" ">
<path fill="none" stroke="#63b8ff" d="M777.79,-145.43C782.86,-136.89 788.26,-127.8 792.91,-119.98"/>
<polygon fill="#63b8ff" stroke="#63b8ff" points="774.93,-143.39 772.83,-153.77 780.95,-146.96 774.93,-143.39"/>
</a>
</g>
</g>
<!-- Node21 -->
<g id="Node000021" class="node">
<title>Node21</title>
<g id="a_Node000021"><a xlink:href="OuroborosMuxDesign_8hpp.html" target="_top" xlink:title=" ">
<polygon fill="white" stroke="#666666" points="553.5,-119.5 360.5,-119.5 360.5,-77.75 553.5,-77.75 553.5,-119.5"/>
<text text-anchor="start" x="368.5" y="-106" font-family="Helvetica,sans-Serif" font-size="10.00">/github/workspace/dev</text>
<text text-anchor="start" x="368.5" y="-94.75" font-family="Helvetica,sans-Serif" font-size="10.00">_area/sourcecode/timing</text>
<text text-anchor="middle" x="457" y="-83.5" font-family="Helvetica,sans-Serif" font-size="10.00">/include/timing/OuroborosMuxDesign.hpp</text>
</a>
</g>
</g>
<!-- Node13&#45;&gt;Node21 -->
<g id="edge23_Node000013_Node000021" class="edge">
<title>Node13&#45;&gt;Node21</title>
<g id="a_edge23_Node000013_Node000021"><a xlink:title=" ">
<path fill="none" stroke="#63b8ff" d="M667.65,-152.29C626.43,-141.98 578.28,-129.94 538.42,-119.98"/>
<polygon fill="#63b8ff" stroke="#63b8ff" points="666.78,-155.68 677.33,-154.71 668.48,-148.89 666.78,-155.68"/>
</a>
</g>
</g>
<!-- Node23 -->
<g id="Node000023" class="node">
<title>Node23</title>
<g id="a_Node000023"><a xlink:href="MasterMuxDesign_8cpp.html" target="_top" xlink:title=" ">
<polygon fill="white" stroke="#666666" points="702.75,-119.5 571.25,-119.5 571.25,-77.75 702.75,-77.75 702.75,-119.5"/>
<text text-anchor="start" x="579.25" y="-106" font-family="Helvetica,sans-Serif" font-size="10.00">/github/workspace/dev</text>
<text text-anchor="start" x="579.25" y="-94.75" font-family="Helvetica,sans-Serif" font-size="10.00">_area/sourcecode/timing</text>
<text text-anchor="middle" x="637" y="-83.5" font-family="Helvetica,sans-Serif" font-size="10.00">/src/MasterMuxDesign.cpp</text>
</a>
</g>
</g>
<!-- Node13&#45;&gt;Node23 -->
<g id="edge26_Node000013_Node000023" class="edge">
<title>Node13&#45;&gt;Node23</title>
<g id="a_edge26_Node000013_Node000023"><a xlink:title=" ">
<path fill="none" stroke="#63b8ff" d="M717.62,-149.28C702.06,-139.69 684.68,-128.99 670.05,-119.98"/>
<polygon fill="#63b8ff" stroke="#63b8ff" points="715.4,-152.02 725.75,-154.28 719.07,-146.06 715.4,-152.02"/>
</a>
</g>
</g>
<!-- Node14&#45;&gt;Node11 -->
<g id="edge14_Node000014_Node000011" class="edge">
<title>Node14&#45;&gt;Node11</title>
<g id="a_edge14_Node000014_Node000011"><a xlink:title=" ">
<path fill="none" stroke="#63b8ff" d="M353.66,-77.52C654.18,-37.73 737.3,-87.87 1034,-41.75 1036.96,-41.29 1039.98,-40.76 1043.02,-40.18"/>
<polygon fill="#63b8ff" stroke="#63b8ff" points="353.36,-74.03 343.92,-78.83 354.3,-80.96 353.36,-74.03"/>
</a>
</g>
</g>
<!-- Node15 -->
<g id="Node000015" class="node">
<title>Node15</title>
<g id="a_Node000015"><a xlink:href="FanoutDesign_8cpp.html" target="_top" xlink:title=" ">
<polygon fill="white" stroke="#666666" points="330.25,-41.75 207.75,-41.75 207.75,0 330.25,0 330.25,-41.75"/>
<text text-anchor="start" x="215.75" y="-28.25" font-family="Helvetica,sans-Serif" font-size="10.00">/github/workspace/dev</text>
<text text-anchor="start" x="215.75" y="-17" font-family="Helvetica,sans-Serif" font-size="10.00">_area/sourcecode/timing</text>
<text text-anchor="middle" x="269" y="-5.75" font-family="Helvetica,sans-Serif" font-size="10.00">/src/FanoutDesign.cpp</text>
</a>
</g>
</g>
<!-- Node14&#45;&gt;Node15 -->
<g id="edge15_Node000014_Node000015" class="edge">
<title>Node14&#45;&gt;Node15</title>
<g id="a_edge15_Node000014_Node000015"><a xlink:title=" ">
<path fill="none" stroke="#63b8ff" d="M264.92,-66C265.67,-57.96 266.44,-49.54 267.12,-42.23"/>
<polygon fill="#63b8ff" stroke="#63b8ff" points="261.45,-65.54 264.02,-75.82 268.42,-66.18 261.45,-65.54"/>
</a>
</g>
</g>
<!-- Node14&#45;&gt;Node16 -->
<g id="edge16_Node000014_Node000016" class="edge">
<title>Node14&#45;&gt;Node16</title>
<g id="a_edge16_Node000014_Node000016"><a xlink:title=" ">
<path fill="none" stroke="#63b8ff" d="M210.92,-72.34C191.15,-62.55 168.82,-51.49 150.11,-42.23"/>
<polygon fill="#63b8ff" stroke="#63b8ff" points="209.13,-75.35 219.64,-76.65 212.23,-69.08 209.13,-75.35"/>
</a>
</g>
</g>
<!-- Node17&#45;&gt;Node11 -->
<g id="edge18_Node000017_Node000011" class="edge">
<title>Node17&#45;&gt;Node11</title>
<g id="a_edge18_Node000017_Node000011"><a xlink:title=" ">
<path fill="none" stroke="#63b8ff" d="M1026.76,-71.53C1042.83,-61.94 1060.77,-51.24 1075.87,-42.23"/>
<polygon fill="#63b8ff" stroke="#63b8ff" points="1025.13,-68.42 1018.33,-76.55 1028.71,-74.43 1025.13,-68.42"/>
</a>
</g>
</g>
<!-- Node18 -->
<g id="Node000018" class="node">
<title>Node18</title>
<g id="a_Node000018"><a xlink:href="GaiaDesign_8cpp.html" target="_top" xlink:title=" ">
<polygon fill="white" stroke="#666666" points="1025.25,-41.75 902.75,-41.75 902.75,0 1025.25,0 1025.25,-41.75"/>
<text text-anchor="start" x="910.75" y="-28.25" font-family="Helvetica,sans-Serif" font-size="10.00">/github/workspace/dev</text>
<text text-anchor="start" x="910.75" y="-17" font-family="Helvetica,sans-Serif" font-size="10.00">_area/sourcecode/timing</text>
<text text-anchor="middle" x="964" y="-5.75" font-family="Helvetica,sans-Serif" font-size="10.00">/src/GaiaDesign.cpp</text>
</a>
</g>
</g>
<!-- Node17&#45;&gt;Node18 -->
<g id="edge19_Node000017_Node000018" class="edge">
<title>Node17&#45;&gt;Node18</title>
<g id="a_edge19_Node000017_Node000018"><a xlink:title=" ">
<path fill="none" stroke="#63b8ff" d="M975.14,-66.28C973.1,-58.16 970.96,-49.62 969.11,-42.23"/>
<polygon fill="#63b8ff" stroke="#63b8ff" points="971.71,-67.01 977.54,-75.86 978.5,-65.31 971.71,-67.01"/>
</a>
</g>
</g>
<!-- Node19&#45;&gt;Node11 -->
<g id="edge21_Node000019_Node000011" class="edge">
<title>Node19&#45;&gt;Node11</title>
<g id="a_edge21_Node000019_Node000011"><a xlink:title=" ">
<path fill="none" stroke="#63b8ff" d="M900.99,-74.58C942.01,-64.63 990.39,-52.77 1034,-41.75 1036.91,-41.01 1039.88,-40.26 1042.88,-39.49"/>
<polygon fill="#63b8ff" stroke="#63b8ff" points="900.28,-71.15 891.38,-76.9 901.92,-77.95 900.28,-71.15"/>
</a>
</g>
</g>
<!-- Node20 -->
<g id="Node000020" class="node">
<title>Node20</title>
<g id="a_Node000020"><a xlink:href="KerberosDesign_8cpp.html" target="_top" xlink:title=" ">
<polygon fill="white" stroke="#666666" points="866.25,-41.75 743.75,-41.75 743.75,0 866.25,0 866.25,-41.75"/>
<text text-anchor="start" x="751.75" y="-28.25" font-family="Helvetica,sans-Serif" font-size="10.00">/github/workspace/dev</text>
<text text-anchor="start" x="751.75" y="-17" font-family="Helvetica,sans-Serif" font-size="10.00">_area/sourcecode/timing</text>
<text text-anchor="middle" x="805" y="-5.75" font-family="Helvetica,sans-Serif" font-size="10.00">/src/KerberosDesign.cpp</text>
</a>
</g>
</g>
<!-- Node19&#45;&gt;Node20 -->
<g id="edge22_Node000019_Node000020" class="edge">
<title>Node19&#45;&gt;Node20</title>
<g id="a_edge22_Node000019_Node000020"><a xlink:title=" ">
<path fill="none" stroke="#63b8ff" d="M805,-66C805,-57.96 805,-49.54 805,-42.23"/>
<polygon fill="#63b8ff" stroke="#63b8ff" points="801.5,-65.81 805,-75.81 808.5,-65.81 801.5,-65.81"/>
</a>
</g>
</g>
<!-- Node21&#45;&gt;Node11 -->
<g id="edge24_Node000021_Node000011" class="edge">
<title>Node21&#45;&gt;Node11</title>
<g id="a_edge24_Node000021_Node000011"><a xlink:title=" ">
<path fill="none" stroke="#63b8ff" d="M565.19,-77.41C772.58,-51.05 830.15,-75.89 1034,-41.75 1036.96,-41.25 1039.97,-40.7 1043,-40.09"/>
<polygon fill="#63b8ff" stroke="#63b8ff" points="564.87,-73.92 555.41,-78.68 565.78,-80.86 564.87,-73.92"/>
</a>
</g>
</g>
<!-- Node22 -->
<g id="Node000022" class="node">
<title>Node22</title>
<g id="a_Node000022"><a xlink:href="OuroborosMuxDesign_8cpp.html" target="_top" xlink:title=" ">
<polygon fill="white" stroke="#666666" points="530.25,-41.75 383.75,-41.75 383.75,0 530.25,0 530.25,-41.75"/>
<text text-anchor="start" x="391.75" y="-28.25" font-family="Helvetica,sans-Serif" font-size="10.00">/github/workspace/dev</text>
<text text-anchor="start" x="391.75" y="-17" font-family="Helvetica,sans-Serif" font-size="10.00">_area/sourcecode/timing</text>
<text text-anchor="middle" x="457" y="-5.75" font-family="Helvetica,sans-Serif" font-size="10.00">/src/OuroborosMuxDesign.cpp</text>
</a>
</g>
</g>
<!-- Node21&#45;&gt;Node22 -->
<g id="edge25_Node000021_Node000022" class="edge">
<title>Node21&#45;&gt;Node22</title>
<g id="a_edge25_Node000021_Node000022"><a xlink:title=" ">
<path fill="none" stroke="#63b8ff" d="M457,-66C457,-57.96 457,-49.54 457,-42.23"/>
<polygon fill="#63b8ff" stroke="#63b8ff" points="453.5,-65.81 457,-75.81 460.5,-65.81 453.5,-65.81"/>
</a>
</g>
</g>
<!-- Node24&#45;&gt;Node11 -->
<g id="edge28_Node000024_Node000011" class="edge">
<title>Node24&#45;&gt;Node11</title>
<g id="a_edge28_Node000024_Node000011"><a xlink:title=" ">
<path fill="none" stroke="#63b8ff" d="M1366.48,-148.35C1376.36,-140.42 1385.43,-130.78 1391,-119.5 1399.22,-102.86 1402.77,-92.09 1391,-77.75 1364.45,-45.41 1251.42,-31.44 1177.06,-25.67"/>
<polygon fill="#63b8ff" stroke="#63b8ff" points="1364.45,-145.5 1358.47,-154.25 1368.6,-151.13 1364.45,-145.5"/>
</a>
</g>
</g>
<!-- Node25 -->
<g id="Node000025" class="node">
<title>Node25</title>
<g id="a_Node000025"><a xlink:href="OuroborosDesign_8cpp.html" target="_top" xlink:title=" ">
<polygon fill="white" stroke="#666666" points="1382.25,-119.5 1253.75,-119.5 1253.75,-77.75 1382.25,-77.75 1382.25,-119.5"/>
<text text-anchor="start" x="1261.75" y="-106" font-family="Helvetica,sans-Serif" font-size="10.00">/github/workspace/dev</text>
<text text-anchor="start" x="1261.75" y="-94.75" font-family="Helvetica,sans-Serif" font-size="10.00">_area/sourcecode/timing</text>
<text text-anchor="middle" x="1318" y="-83.5" font-family="Helvetica,sans-Serif" font-size="10.00">/src/OuroborosDesign.cpp</text>
</a>
</g>
</g>
<!-- Node24&#45;&gt;Node25 -->
<g id="edge29_Node000024_Node000025" class="edge">
<title>Node24&#45;&gt;Node25</title>
<g id="a_edge29_Node000024_Node000025"><a xlink:title=" ">
<path fill="none" stroke="#63b8ff" d="M1318,-143.75C1318,-135.71 1318,-127.29 1318,-119.98"/>
<polygon fill="#63b8ff" stroke="#63b8ff" points="1314.5,-143.56 1318,-153.56 1321.5,-143.56 1314.5,-143.56"/>
</a>
</g>
</g>
<!-- Node26&#45;&gt;Node11 -->
<g id="edge31_Node000026_Node000011" class="edge">
<title>Node26&#45;&gt;Node11</title>
<g id="a_edge31_Node000026_Node000011"><a xlink:title=" ">
<path fill="none" stroke="#63b8ff" d="M1082.8,-153.93C1140.09,-140.53 1202.87,-124.82 1207,-119.5 1218.38,-104.85 1216.29,-93.81 1207,-77.75 1198.05,-62.27 1183.01,-50.7 1167.41,-42.23"/>
<polygon fill="#63b8ff" stroke="#63b8ff" points="1082.23,-150.47 1073.29,-156.15 1083.82,-157.29 1082.23,-150.47"/>
</a>
</g>
</g>
<!-- Node27 -->
<g id="Node000027" class="node">
<title>Node27</title>
<g id="a_Node000027"><a xlink:href="OverlordDesign_8cpp.html" target="_top" xlink:title=" ">
<polygon fill="white" stroke="#666666" points="1198.25,-119.5 1075.75,-119.5 1075.75,-77.75 1198.25,-77.75 1198.25,-119.5"/>
<text text-anchor="start" x="1083.75" y="-106" font-family="Helvetica,sans-Serif" font-size="10.00">/github/workspace/dev</text>
<text text-anchor="start" x="1083.75" y="-94.75" font-family="Helvetica,sans-Serif" font-size="10.00">_area/sourcecode/timing</text>
<text text-anchor="middle" x="1137" y="-83.5" font-family="Helvetica,sans-Serif" font-size="10.00">/src/OverlordDesign.cpp</text>
</a>
</g>
</g>
<!-- Node26&#45;&gt;Node27 -->
<g id="edge32_Node000026_Node000027" class="edge">
<title>Node26&#45;&gt;Node27</title>
<g id="a_edge32_Node000026_Node000027"><a xlink:title=" ">
<path fill="none" stroke="#63b8ff" d="M1038.01,-149.95C1057.2,-140.2 1078.82,-129.2 1096.96,-119.98"/>
<polygon fill="#63b8ff" stroke="#63b8ff" points="1036.61,-146.74 1029.28,-154.39 1039.78,-152.98 1036.61,-146.74"/>
</a>
</g>
</g>
<!-- Node29&#45;&gt;Node26 -->
<g id="edge35_Node000029_Node000026" class="edge">
<title>Node29&#45;&gt;Node26</title>
<g id="a_edge35_Node000029_Node000026"><a xlink:title=" ">
<path fill="none" stroke="#63b8ff" d="M853.6,-228.72C880.64,-218.39 910.27,-207.07 934.81,-197.69"/>
<polygon fill="#63b8ff" stroke="#63b8ff" points="852.49,-225.4 844.39,-232.24 854.98,-231.94 852.49,-225.4"/>
</a>
</g>
</g>
<!-- Node30 -->
<g id="Node000030" class="node">
<title>Node30</title>
<g id="a_Node000030"><a xlink:href="OverlordDesignInterface_8cpp.html" target="_top" xlink:title=" ">
<polygon fill="white" stroke="#666666" points="653.25,-197.25 494.75,-197.25 494.75,-155.5 653.25,-155.5 653.25,-197.25"/>
<text text-anchor="start" x="502.75" y="-183.75" font-family="Helvetica,sans-Serif" font-size="10.00">/github/workspace/dev</text>
<text text-anchor="start" x="502.75" y="-172.5" font-family="Helvetica,sans-Serif" font-size="10.00">_area/sourcecode/timing</text>
<text text-anchor="middle" x="574" y="-161.25" font-family="Helvetica,sans-Serif" font-size="10.00">/src/OverlordDesignInterface.cpp</text>
</a>
</g>
</g>
<!-- Node29&#45;&gt;Node30 -->
<g id="edge36_Node000029_Node000030" class="edge">
<title>Node29&#45;&gt;Node30</title>
<g id="a_edge36_Node000029_Node000030"><a xlink:title=" ">
<path fill="none" stroke="#63b8ff" d="M700.49,-228.59C675.06,-218.29 647.25,-207.03 624.19,-197.69"/>
<polygon fill="#63b8ff" stroke="#63b8ff" points="698.86,-231.7 709.45,-232.21 701.49,-225.21 698.86,-231.7"/>
</a>
</g>
</g>
<!-- Node31&#45;&gt;Node16 -->
<g id="edge38_Node000031_Node000016" class="edge">
<title>Node31&#45;&gt;Node16</title>
<g id="a_edge38_Node000031_Node000016"><a xlink:title=" ">
<path fill="none" stroke="#63b8ff" d="M109,-144.01C109,-113.46 109,-67.92 109,-41.95"/>
<polygon fill="#63b8ff" stroke="#63b8ff" points="105.5,-143.79 109,-153.79 112.5,-143.79 105.5,-143.79"/>
</a>
</g>
</g>
<!-- Node32&#45;&gt;Node5 -->
<g id="edge41_Node000032_Node000005" class="edge">
<title>Node32&#45;&gt;Node5</title>
<g id="a_edge41_Node000032_Node000005"><a xlink:title=" ">
<path fill="none" stroke="#63b8ff" d="M1161.25,-317.15C1186.82,-305.59 1216.82,-292.02 1240.99,-281.1"/>
<polygon fill="#63b8ff" stroke="#63b8ff" points="1160.01,-313.87 1152.34,-321.18 1162.89,-320.25 1160.01,-313.87"/>
</a>
</g>
</g>
<!-- Node32&#45;&gt;Node27 -->
<g id="edge42_Node000032_Node000027" class="edge">
<title>Node32&#45;&gt;Node27</title>
<g id="a_edge42_Node000032_Node000027"><a xlink:title=" ">
<path fill="none" stroke="#63b8ff" d="M1009.89,-319.29C956.42,-306.13 899.82,-291.23 896,-286.25 860.58,-240.18 859.39,-200.63 896,-155.5 944.94,-95.19 991.6,-138.12 1067,-119.5 1069.82,-118.8 1072.7,-118.07 1075.6,-117.32"/>
<polygon fill="#63b8ff" stroke="#63b8ff" points="1008.87,-322.64 1019.41,-321.62 1010.53,-315.84 1008.87,-322.64"/>
</a>
</g>
</g>
<!-- Node33 -->
<g id="Node000033" class="node">
<title>Node33</title>
<g id="a_Node000033"><a xlink:href="PDIMasterNode_8cpp.html" target="_top" xlink:title=" ">
<polygon fill="white" stroke="#666666" points="1206.62,-280.62 1083.38,-280.62 1083.38,-238.88 1206.62,-238.88 1206.62,-280.62"/>
<text text-anchor="start" x="1091.38" y="-267.12" font-family="Helvetica,sans-Serif" font-size="10.00">/github/workspace/dev</text>
<text text-anchor="start" x="1091.38" y="-255.88" font-family="Helvetica,sans-Serif" font-size="10.00">_area/sourcecode/timing</text>
<text text-anchor="middle" x="1145" y="-244.62" font-family="Helvetica,sans-Serif" font-size="10.00">/src/PDIMasterNode.cpp</text>
</a>
</g>
</g>
<!-- Node32&#45;&gt;Node33 -->
<g id="edge43_Node000032_Node000033" class="edge">
<title>Node32&#45;&gt;Node33</title>
<g id="a_edge43_Node000032_Node000033"><a xlink:title=" ">
<path fill="none" stroke="#63b8ff" d="M1120.56,-311.74C1125.49,-301.45 1130.88,-290.21 1135.34,-280.92"/>
<polygon fill="#63b8ff" stroke="#63b8ff" points="1117.46,-310.11 1116.29,-320.64 1123.77,-313.14 1117.46,-310.11"/>
</a>
</g>
</g>
</g>
</svg>
