<?xml version="1.0" encoding="UTF-8" standalone="no"?>
<!DOCTYPE svg PUBLIC "-//W3C//DTD SVG 1.1//EN"
 "http://www.w3.org/Graphics/SVG/1.1/DTD/svg11.dtd">
<!-- Generated by graphviz version 9.0.0 (20230911.1827)
 -->
<!-- Title: /github/workspace/dev_area/sourcecode/timing/include/timing/TopDesign.hpp Pages: 1 -->
<svg width="1889pt" height="450pt"
 viewBox="0.00 0.00 1889.12 449.75" xmlns="http://www.w3.org/2000/svg" xmlns:xlink="http://www.w3.org/1999/xlink">
<g id="graph0" class="graph" transform="scale(1 1) rotate(0) translate(4 445.75)">
<title>/github/workspace/dev_area/sourcecode/timing/include/timing/TopDesign.hpp</title>
<!-- Node1 -->
<g id="Node000001" class="node">
<title>Node1</title>
<g id="a_Node000001"><a xlink:title=" ">
<polygon fill="#999999" stroke="#666666" points="599.25,-441.75 452.75,-441.75 452.75,-400 599.25,-400 599.25,-441.75"/>
<text text-anchor="start" x="460.75" y="-428.25" font-family="Helvetica,sans-Serif" font-size="10.00">/github/workspace/dev</text>
<text text-anchor="start" x="460.75" y="-417" font-family="Helvetica,sans-Serif" font-size="10.00">_area/sourcecode/timing</text>
<text text-anchor="middle" x="526" y="-405.75" font-family="Helvetica,sans-Serif" font-size="10.00">/include/timing/TopDesign.hpp</text>
</a>
</g>
</g>
<!-- Node2 -->
<g id="Node000002" class="node">
<title>Node2</title>
<g id="a_Node000002"><a xlink:href="CRTDesign_8hpp.html" target="_top" xlink:title=" ">
<polygon fill="white" stroke="#666666" points="446.75,-364 297.25,-364 297.25,-322.25 446.75,-322.25 446.75,-364"/>
<text text-anchor="start" x="305.25" y="-350.5" font-family="Helvetica,sans-Serif" font-size="10.00">/github/workspace/dev</text>
<text text-anchor="start" x="305.25" y="-339.25" font-family="Helvetica,sans-Serif" font-size="10.00">_area/sourcecode/timing</text>
<text text-anchor="middle" x="372" y="-328" font-family="Helvetica,sans-Serif" font-size="10.00">/include/timing/CRTDesign.hpp</text>
</a>
</g>
</g>
<!-- Node1&#45;&gt;Node2 -->
<g id="edge1_Node000001_Node000002" class="edge">
<title>Node1&#45;&gt;Node2</title>
<g id="a_edge1_Node000001_Node000002"><a xlink:title=" ">
<path fill="none" stroke="#63b8ff" d="M474.59,-394.59C454.69,-384.8 432.21,-373.74 413.38,-364.48"/>
<polygon fill="#63b8ff" stroke="#63b8ff" points="472.85,-397.63 483.37,-398.91 475.94,-391.35 472.85,-397.63"/>
</a>
</g>
</g>
<!-- Node5 -->
<g id="Node000005" class="node">
<title>Node5</title>
<g id="a_Node000005"><a xlink:href="EndpointDesign_8hpp.html" target="_top" xlink:title=" ">
<polygon fill="white" stroke="#666666" points="277.75,-197.25 110.25,-197.25 110.25,-155.5 277.75,-155.5 277.75,-197.25"/>
<text text-anchor="start" x="118.25" y="-183.75" font-family="Helvetica,sans-Serif" font-size="10.00">/github/workspace/dev</text>
<text text-anchor="start" x="118.25" y="-172.5" font-family="Helvetica,sans-Serif" font-size="10.00">_area/sourcecode/timing</text>
<text text-anchor="middle" x="194" y="-161.25" font-family="Helvetica,sans-Serif" font-size="10.00">/include/timing/EndpointDesign.hpp</text>
</a>
</g>
</g>
<!-- Node1&#45;&gt;Node5 -->
<g id="edge4_Node000001_Node000005" class="edge">
<title>Node1&#45;&gt;Node5</title>
<g id="a_edge4_Node000001_Node000005"><a xlink:title=" ">
<path fill="none" stroke="#63b8ff" d="M441.11,-411.88C393.64,-404.56 334.8,-390.61 288,-364 246.26,-340.27 234.75,-329.05 213,-286.25 198.49,-257.68 194.82,-220.05 194.03,-197.34"/>
<polygon fill="#63b8ff" stroke="#63b8ff" points="440.4,-415.31 450.8,-413.29 441.41,-408.38 440.4,-415.31"/>
</a>
</g>
</g>
<!-- Node9 -->
<g id="Node000009" class="node">
<title>Node9</title>
<g id="a_Node000009"><a xlink:href="MasterDesign_8hpp.html" target="_top" xlink:title=" ">
<polygon fill="white" stroke="#666666" points="887,-280.62 727,-280.62 727,-238.88 887,-238.88 887,-280.62"/>
<text text-anchor="start" x="735" y="-267.12" font-family="Helvetica,sans-Serif" font-size="10.00">/github/workspace/dev</text>
<text text-anchor="start" x="735" y="-255.88" font-family="Helvetica,sans-Serif" font-size="10.00">_area/sourcecode/timing</text>
<text text-anchor="middle" x="807" y="-244.62" font-family="Helvetica,sans-Serif" font-size="10.00">/include/timing/MasterDesign.hpp</text>
</a>
</g>
</g>
<!-- Node1&#45;&gt;Node9 -->
<g id="edge10_Node000001_Node000009" class="edge">
<title>Node1&#45;&gt;Node9</title>
<g id="a_edge10_Node000001_Node000009"><a xlink:title=" ">
<path fill="none" stroke="#63b8ff" d="M571.84,-393.92C627.62,-362.33 720.62,-309.67 771.34,-280.94"/>
<polygon fill="#63b8ff" stroke="#63b8ff" points="570.17,-390.84 563.19,-398.81 573.62,-396.93 570.17,-390.84"/>
</a>
</g>
</g>
<!-- Node28 -->
<g id="Node000028" class="node">
<title>Node28</title>
<g id="a_Node000028"><a xlink:href="MasterDesignInterface_8hpp.html" target="_top" xlink:title=" ">
<polygon fill="white" stroke="#666666" points="1008.12,-364 809.88,-364 809.88,-322.25 1008.12,-322.25 1008.12,-364"/>
<text text-anchor="start" x="817.88" y="-350.5" font-family="Helvetica,sans-Serif" font-size="10.00">/github/workspace/dev</text>
<text text-anchor="start" x="817.88" y="-339.25" font-family="Helvetica,sans-Serif" font-size="10.00">_area/sourcecode/timing</text>
<text text-anchor="middle" x="909" y="-328" font-family="Helvetica,sans-Serif" font-size="10.00">/include/timing/MasterDesignInterface.hpp</text>
</a>
</g>
</g>
<!-- Node1&#45;&gt;Node28 -->
<g id="edge36_Node000001_Node000028" class="edge">
<title>Node1&#45;&gt;Node28</title>
<g id="a_edge36_Node000001_Node000028"><a xlink:title=" ">
<path fill="none" stroke="#63b8ff" d="M610.49,-403.16C669.2,-391.55 747.68,-376.03 809.44,-363.82"/>
<polygon fill="#63b8ff" stroke="#63b8ff" points="610.01,-399.69 600.88,-405.07 611.37,-406.56 610.01,-399.69"/>
</a>
</g>
</g>
<!-- Node3 -->
<g id="Node000003" class="node">
<title>Node3</title>
<g id="a_Node000003"><a xlink:href="top__designs_8cpp.html" target="_top" xlink:title=" ">
<polygon fill="white" stroke="#666666" points="785.88,-41.75 652.12,-41.75 652.12,0 785.88,0 785.88,-41.75"/>
<text text-anchor="start" x="660.12" y="-28.25" font-family="Helvetica,sans-Serif" font-size="10.00">/github/workspace/dev</text>
<text text-anchor="start" x="660.12" y="-17" font-family="Helvetica,sans-Serif" font-size="10.00">_area/sourcecode/timing</text>
<text text-anchor="middle" x="719" y="-5.75" font-family="Helvetica,sans-Serif" font-size="10.00">/pybindsrc/top_designs.cpp</text>
</a>
</g>
</g>
<!-- Node2&#45;&gt;Node3 -->
<g id="edge2_Node000002_Node000003" class="edge">
<title>Node2&#45;&gt;Node3</title>
<g id="a_edge2_Node000002_Node000003"><a xlink:title=" ">
<path fill="none" stroke="#63b8ff" d="M366.24,-310.86C357.86,-254.44 349.91,-136.06 417,-77.75 451.31,-47.93 573.88,-33.05 651.92,-26.43"/>
<polygon fill="#63b8ff" stroke="#63b8ff" points="362.73,-311.1 367.77,-320.42 369.64,-309.99 362.73,-311.1"/>
</a>
</g>
</g>
<!-- Node4 -->
<g id="Node000004" class="node">
<title>Node4</title>
<g id="a_Node000004"><a xlink:href="CRTDesign_8cpp.html" target="_top" xlink:title=" ">
<polygon fill="white" stroke="#666666" points="344.25,-280.62 221.75,-280.62 221.75,-238.88 344.25,-238.88 344.25,-280.62"/>
<text text-anchor="start" x="229.75" y="-267.12" font-family="Helvetica,sans-Serif" font-size="10.00">/github/workspace/dev</text>
<text text-anchor="start" x="229.75" y="-255.88" font-family="Helvetica,sans-Serif" font-size="10.00">_area/sourcecode/timing</text>
<text text-anchor="middle" x="283" y="-244.62" font-family="Helvetica,sans-Serif" font-size="10.00">/src/CRTDesign.cpp</text>
</a>
</g>
</g>
<!-- Node2&#45;&gt;Node4 -->
<g id="edge3_Node000002_Node000004" class="edge">
<title>Node2&#45;&gt;Node4</title>
<g id="a_edge3_Node000002_Node000004"><a xlink:title=" ">
<path fill="none" stroke="#63b8ff" d="M341.59,-314.32C329.6,-303.36 316.08,-291 305.06,-280.92"/>
<polygon fill="#63b8ff" stroke="#63b8ff" points="339.14,-316.82 348.88,-320.99 343.86,-311.66 339.14,-316.82"/>
</a>
</g>
</g>
<!-- Node5&#45;&gt;Node3 -->
<g id="edge8_Node000005_Node000003" class="edge">
<title>Node5&#45;&gt;Node3</title>
<g id="a_edge8_Node000005_Node000003"><a xlink:title=" ">
<path fill="none" stroke="#63b8ff" d="M191.22,-143.91C191.15,-122.15 195.1,-94.23 213,-77.75 244.67,-48.58 521.34,-31.44 651.65,-24.92"/>
<polygon fill="#63b8ff" stroke="#63b8ff" points="187.71,-143.88 191.55,-153.75 194.71,-143.64 187.71,-143.88"/>
</a>
</g>
</g>
<!-- Node6 -->
<g id="Node000006" class="node">
<title>Node6</title>
<g id="a_Node000006"><a xlink:href="ChronosDesign_8hpp.html" target="_top" xlink:title=" ">
<polygon fill="white" stroke="#666666" points="166,-119.5 0,-119.5 0,-77.75 166,-77.75 166,-119.5"/>
<text text-anchor="start" x="8" y="-106" font-family="Helvetica,sans-Serif" font-size="10.00">/github/workspace/dev</text>
<text text-anchor="start" x="8" y="-94.75" font-family="Helvetica,sans-Serif" font-size="10.00">_area/sourcecode/timing</text>
<text text-anchor="middle" x="83" y="-83.5" font-family="Helvetica,sans-Serif" font-size="10.00">/include/timing/ChronosDesign.hpp</text>
</a>
</g>
</g>
<!-- Node5&#45;&gt;Node6 -->
<g id="edge5_Node000005_Node000006" class="edge">
<title>Node5&#45;&gt;Node6</title>
<g id="a_edge5_Node000005_Node000006"><a xlink:title=" ">
<path fill="none" stroke="#63b8ff" d="M154.96,-148.73C141.12,-139.29 125.78,-128.82 112.83,-119.98"/>
<polygon fill="#63b8ff" stroke="#63b8ff" points="152.77,-151.48 163,-154.22 156.72,-145.69 152.77,-151.48"/>
</a>
</g>
</g>
<!-- Node8 -->
<g id="Node000008" class="node">
<title>Node8</title>
<g id="a_Node000008"><a xlink:href="EndpointDesign_8cpp.html" target="_top" xlink:title=" ">
<polygon fill="white" stroke="#666666" points="344.25,-119.5 221.75,-119.5 221.75,-77.75 344.25,-77.75 344.25,-119.5"/>
<text text-anchor="start" x="229.75" y="-106" font-family="Helvetica,sans-Serif" font-size="10.00">/github/workspace/dev</text>
<text text-anchor="start" x="229.75" y="-94.75" font-family="Helvetica,sans-Serif" font-size="10.00">_area/sourcecode/timing</text>
<text text-anchor="middle" x="283" y="-83.5" font-family="Helvetica,sans-Serif" font-size="10.00">/src/EndpointDesign.cpp</text>
</a>
</g>
</g>
<!-- Node5&#45;&gt;Node8 -->
<g id="edge9_Node000005_Node000008" class="edge">
<title>Node5&#45;&gt;Node8</title>
<g id="a_edge9_Node000005_Node000008"><a xlink:title=" ">
<path fill="none" stroke="#63b8ff" d="M226.59,-147.64C237.34,-138.48 249.1,-128.48 259.08,-119.98"/>
<polygon fill="#63b8ff" stroke="#63b8ff" points="224.35,-144.95 219,-154.09 228.89,-150.28 224.35,-144.95"/>
</a>
</g>
</g>
<!-- Node6&#45;&gt;Node3 -->
<g id="edge6_Node000006_Node000003" class="edge">
<title>Node6&#45;&gt;Node3</title>
<g id="a_edge6_Node000006_Node000003"><a xlink:title=" ">
<path fill="none" stroke="#63b8ff" d="M177.46,-78.15C178.31,-78.01 179.16,-77.88 180,-77.75 349,-51.74 549.71,-34.5 651.93,-26.69"/>
<polygon fill="#63b8ff" stroke="#63b8ff" points="177.02,-74.67 167.73,-79.77 178.17,-81.58 177.02,-74.67"/>
</a>
</g>
</g>
<!-- Node7 -->
<g id="Node000007" class="node">
<title>Node7</title>
<g id="a_Node000007"><a xlink:href="ChronosDesign_8cpp.html" target="_top" xlink:title=" ">
<polygon fill="white" stroke="#666666" points="144.25,-41.75 21.75,-41.75 21.75,0 144.25,0 144.25,-41.75"/>
<text text-anchor="start" x="29.75" y="-28.25" font-family="Helvetica,sans-Serif" font-size="10.00">/github/workspace/dev</text>
<text text-anchor="start" x="29.75" y="-17" font-family="Helvetica,sans-Serif" font-size="10.00">_area/sourcecode/timing</text>
<text text-anchor="middle" x="83" y="-5.75" font-family="Helvetica,sans-Serif" font-size="10.00">/src/ChronosDesign.cpp</text>
</a>
</g>
</g>
<!-- Node6&#45;&gt;Node7 -->
<g id="edge7_Node000006_Node000007" class="edge">
<title>Node6&#45;&gt;Node7</title>
<g id="a_edge7_Node000006_Node000007"><a xlink:title=" ">
<path fill="none" stroke="#63b8ff" d="M83,-66C83,-57.96 83,-49.54 83,-42.23"/>
<polygon fill="#63b8ff" stroke="#63b8ff" points="79.5,-65.81 83,-75.81 86.5,-65.81 79.5,-65.81"/>
</a>
</g>
</g>
<!-- Node10 -->
<g id="Node000010" class="node">
<title>Node10</title>
<g id="a_Node000010"><a xlink:href="BoreasDesign_8hpp.html" target="_top" xlink:title=" ">
<polygon fill="white" stroke="#666666" points="701.38,-197.25 540.62,-197.25 540.62,-155.5 701.38,-155.5 701.38,-197.25"/>
<text text-anchor="start" x="548.62" y="-183.75" font-family="Helvetica,sans-Serif" font-size="10.00">/github/workspace/dev</text>
<text text-anchor="start" x="548.62" y="-172.5" font-family="Helvetica,sans-Serif" font-size="10.00">_area/sourcecode/timing</text>
<text text-anchor="middle" x="621" y="-161.25" font-family="Helvetica,sans-Serif" font-size="10.00">/include/timing/BoreasDesign.hpp</text>
</a>
</g>
</g>
<!-- Node9&#45;&gt;Node10 -->
<g id="edge11_Node000009_Node000010" class="edge">
<title>Node9&#45;&gt;Node10</title>
<g id="a_edge11_Node000009_Node000010"><a xlink:title=" ">
<path fill="none" stroke="#63b8ff" d="M750.26,-233.93C723.76,-222.33 692.59,-208.7 667.51,-197.72"/>
<polygon fill="#63b8ff" stroke="#63b8ff" points="748.59,-237.02 759.16,-237.82 751.4,-230.6 748.59,-237.02"/>
</a>
</g>
</g>
<!-- Node12 -->
<g id="Node000012" class="node">
<title>Node12</title>
<g id="a_Node000012"><a xlink:href="MasterMuxDesign_8hpp.html" target="_top" xlink:title=" ">
<polygon fill="white" stroke="#666666" points="1155,-197.25 977,-197.25 977,-155.5 1155,-155.5 1155,-197.25"/>
<text text-anchor="start" x="985" y="-183.75" font-family="Helvetica,sans-Serif" font-size="10.00">/github/workspace/dev</text>
<text text-anchor="start" x="985" y="-172.5" font-family="Helvetica,sans-Serif" font-size="10.00">_area/sourcecode/timing</text>
<text text-anchor="middle" x="1066" y="-161.25" font-family="Helvetica,sans-Serif" font-size="10.00">/include/timing/MasterMuxDesign.hpp</text>
</a>
</g>
</g>
<!-- Node9&#45;&gt;Node12 -->
<g id="edge14_Node000009_Node000012" class="edge">
<title>Node9&#45;&gt;Node12</title>
<g id="a_edge14_Node000009_Node000012"><a xlink:title=" ">
<path fill="none" stroke="#63b8ff" d="M882.6,-235C920.22,-223.18 965.22,-209.04 1001.24,-197.72"/>
<polygon fill="#63b8ff" stroke="#63b8ff" points="881.62,-231.64 873.13,-237.97 883.72,-238.31 881.62,-231.64"/>
</a>
</g>
</g>
<!-- Node23 -->
<g id="Node000023" class="node">
<title>Node23</title>
<g id="a_Node000023"><a xlink:href="OuroborosDesign_8hpp.html" target="_top" xlink:title=" ">
<polygon fill="white" stroke="#666666" points="894.5,-197.25 719.5,-197.25 719.5,-155.5 894.5,-155.5 894.5,-197.25"/>
<text text-anchor="start" x="727.5" y="-183.75" font-family="Helvetica,sans-Serif" font-size="10.00">/github/workspace/dev</text>
<text text-anchor="start" x="727.5" y="-172.5" font-family="Helvetica,sans-Serif" font-size="10.00">_area/sourcecode/timing</text>
<text text-anchor="middle" x="807" y="-161.25" font-family="Helvetica,sans-Serif" font-size="10.00">/include/timing/OuroborosDesign.hpp</text>
</a>
</g>
</g>
<!-- Node9&#45;&gt;Node23 -->
<g id="edge29_Node000009_Node000023" class="edge">
<title>Node9&#45;&gt;Node23</title>
<g id="a_edge29_Node000009_Node000023"><a xlink:title=" ">
<path fill="none" stroke="#63b8ff" d="M807,-227.39C807,-217.37 807,-206.55 807,-197.54"/>
<polygon fill="#63b8ff" stroke="#63b8ff" points="803.5,-227.12 807,-237.12 810.5,-227.12 803.5,-227.12"/>
</a>
</g>
</g>
<!-- Node25 -->
<g id="Node000025" class="node">
<title>Node25</title>
<g id="a_Node000025"><a xlink:href="OverlordDesign_8hpp.html" target="_top" xlink:title=" ">
<polygon fill="white" stroke="#666666" points="1371.38,-197.25 1204.62,-197.25 1204.62,-155.5 1371.38,-155.5 1371.38,-197.25"/>
<text text-anchor="start" x="1212.62" y="-183.75" font-family="Helvetica,sans-Serif" font-size="10.00">/github/workspace/dev</text>
<text text-anchor="start" x="1212.62" y="-172.5" font-family="Helvetica,sans-Serif" font-size="10.00">_area/sourcecode/timing</text>
<text text-anchor="middle" x="1288" y="-161.25" font-family="Helvetica,sans-Serif" font-size="10.00">/include/timing/OverlordDesign.hpp</text>
</a>
</g>
</g>
<!-- Node9&#45;&gt;Node25 -->
<g id="edge32_Node000009_Node000025" class="edge">
<title>Node9&#45;&gt;Node25</title>
<g id="a_edge32_Node000009_Node000025"><a xlink:title=" ">
<path fill="none" stroke="#63b8ff" d="M898.57,-243.26C986.72,-228.35 1118.89,-205.98 1204.3,-191.54"/>
<polygon fill="#63b8ff" stroke="#63b8ff" points="898.01,-239.8 888.73,-244.92 899.17,-246.71 898.01,-239.8"/>
</a>
</g>
</g>
<!-- Node27 -->
<g id="Node000027" class="node">
<title>Node27</title>
<g id="a_Node000027"><a xlink:href="MasterDesign_8cpp.html" target="_top" xlink:title=" ">
<polygon fill="white" stroke="#666666" points="522.25,-197.25 399.75,-197.25 399.75,-155.5 522.25,-155.5 522.25,-197.25"/>
<text text-anchor="start" x="407.75" y="-183.75" font-family="Helvetica,sans-Serif" font-size="10.00">/github/workspace/dev</text>
<text text-anchor="start" x="407.75" y="-172.5" font-family="Helvetica,sans-Serif" font-size="10.00">_area/sourcecode/timing</text>
<text text-anchor="middle" x="461" y="-161.25" font-family="Helvetica,sans-Serif" font-size="10.00">/src/MasterDesign.cpp</text>
</a>
</g>
</g>
<!-- Node9&#45;&gt;Node27 -->
<g id="edge35_Node000009_Node000027" class="edge">
<title>Node9&#45;&gt;Node27</title>
<g id="a_edge35_Node000009_Node000027"><a xlink:title=" ">
<path fill="none" stroke="#63b8ff" d="M715.51,-239.56C661.87,-227.99 592.9,-212.57 532,-197.25 528.9,-196.47 525.72,-195.65 522.52,-194.81"/>
<polygon fill="#63b8ff" stroke="#63b8ff" points="714.72,-242.97 725.23,-241.65 716.19,-236.13 714.72,-242.97"/>
</a>
</g>
</g>
<!-- Node10&#45;&gt;Node3 -->
<g id="edge12_Node000010_Node000003" class="edge">
<title>Node10&#45;&gt;Node3</title>
<g id="a_edge12_Node000010_Node000003"><a xlink:title=" ">
<path fill="none" stroke="#63b8ff" d="M529.24,-153.91C483.14,-142.2 435.63,-128.34 429,-119.5 417.86,-104.66 417.19,-92.06 429,-77.75 456.71,-44.19 575.18,-30.57 651.86,-25.2"/>
<polygon fill="#63b8ff" stroke="#63b8ff" points="528.25,-157.27 538.8,-156.31 529.96,-150.48 528.25,-157.27"/>
</a>
</g>
</g>
<!-- Node11 -->
<g id="Node000011" class="node">
<title>Node11</title>
<g id="a_Node000011"><a xlink:href="BoreasDesign_8cpp.html" target="_top" xlink:title=" ">
<polygon fill="white" stroke="#666666" points="560.25,-119.5 437.75,-119.5 437.75,-77.75 560.25,-77.75 560.25,-119.5"/>
<text text-anchor="start" x="445.75" y="-106" font-family="Helvetica,sans-Serif" font-size="10.00">/github/workspace/dev</text>
<text text-anchor="start" x="445.75" y="-94.75" font-family="Helvetica,sans-Serif" font-size="10.00">_area/sourcecode/timing</text>
<text text-anchor="middle" x="499" y="-83.5" font-family="Helvetica,sans-Serif" font-size="10.00">/src/BoreasDesign.cpp</text>
</a>
</g>
</g>
<!-- Node10&#45;&gt;Node11 -->
<g id="edge13_Node000010_Node000011" class="edge">
<title>Node10&#45;&gt;Node11</title>
<g id="a_edge13_Node000010_Node000011"><a xlink:title=" ">
<path fill="none" stroke="#63b8ff" d="M578.53,-149.01C563.2,-139.49 546.15,-128.9 531.78,-119.98"/>
<polygon fill="#63b8ff" stroke="#63b8ff" points="576.68,-151.98 587.02,-154.28 580.37,-146.03 576.68,-151.98"/>
</a>
</g>
</g>
<!-- Node13 -->
<g id="Node000013" class="node">
<title>Node13</title>
<g id="a_Node000013"><a xlink:href="FanoutDesign_8hpp.html" target="_top" xlink:title=" ">
<polygon fill="white" stroke="#666666" points="1676,-119.5 1516,-119.5 1516,-77.75 1676,-77.75 1676,-119.5"/>
<text text-anchor="start" x="1524" y="-106" font-family="Helvetica,sans-Serif" font-size="10.00">/github/workspace/dev</text>
<text text-anchor="start" x="1524" y="-94.75" font-family="Helvetica,sans-Serif" font-size="10.00">_area/sourcecode/timing</text>
<text text-anchor="middle" x="1596" y="-83.5" font-family="Helvetica,sans-Serif" font-size="10.00">/include/timing/FanoutDesign.hpp</text>
</a>
</g>
</g>
<!-- Node12&#45;&gt;Node13 -->
<g id="edge15_Node000012_Node000013" class="edge">
<title>Node12&#45;&gt;Node13</title>
<g id="a_edge15_Node000012_Node000013"><a xlink:title=" ">
<path fill="none" stroke="#63b8ff" d="M1166.63,-159.62C1176.55,-158.18 1186.46,-156.78 1196,-155.5 1333.91,-136.98 1369.8,-142.69 1507,-119.5 1509.81,-119.02 1512.66,-118.52 1515.54,-117.99"/>
<polygon fill="#63b8ff" stroke="#63b8ff" points="1166.33,-156.12 1156.95,-161.04 1167.35,-163.05 1166.33,-156.12"/>
</a>
</g>
</g>
<!-- Node16 -->
<g id="Node000016" class="node">
<title>Node16</title>
<g id="a_Node000016"><a xlink:href="GaiaDesign_8hpp.html" target="_top" xlink:title=" ">
<polygon fill="white" stroke="#666666" points="1498.12,-119.5 1347.88,-119.5 1347.88,-77.75 1498.12,-77.75 1498.12,-119.5"/>
<text text-anchor="start" x="1355.88" y="-106" font-family="Helvetica,sans-Serif" font-size="10.00">/github/workspace/dev</text>
<text text-anchor="start" x="1355.88" y="-94.75" font-family="Helvetica,sans-Serif" font-size="10.00">_area/sourcecode/timing</text>
<text text-anchor="middle" x="1423" y="-83.5" font-family="Helvetica,sans-Serif" font-size="10.00">/include/timing/GaiaDesign.hpp</text>
</a>
</g>
</g>
<!-- Node12&#45;&gt;Node16 -->
<g id="edge19_Node000012_Node000016" class="edge">
<title>Node12&#45;&gt;Node16</title>
<g id="a_edge19_Node000012_Node000016"><a xlink:title=" ">
<path fill="none" stroke="#63b8ff" d="M1166.12,-154.13C1223.68,-141.92 1294.82,-126.82 1347.63,-115.62"/>
<polygon fill="#63b8ff" stroke="#63b8ff" points="1165.7,-150.64 1156.65,-156.14 1167.15,-157.49 1165.7,-150.64"/>
</a>
</g>
</g>
<!-- Node18 -->
<g id="Node000018" class="node">
<title>Node18</title>
<g id="a_Node000018"><a xlink:href="KerberosDesign_8hpp.html" target="_top" xlink:title=" ">
<polygon fill="white" stroke="#666666" points="1080.5,-119.5 911.5,-119.5 911.5,-77.75 1080.5,-77.75 1080.5,-119.5"/>
<text text-anchor="start" x="919.5" y="-106" font-family="Helvetica,sans-Serif" font-size="10.00">/github/workspace/dev</text>
<text text-anchor="start" x="919.5" y="-94.75" font-family="Helvetica,sans-Serif" font-size="10.00">_area/sourcecode/timing</text>
<text text-anchor="middle" x="996" y="-83.5" font-family="Helvetica,sans-Serif" font-size="10.00">/include/timing/KerberosDesign.hpp</text>
</a>
</g>
</g>
<!-- Node12&#45;&gt;Node18 -->
<g id="edge22_Node000012_Node000018" class="edge">
<title>Node12&#45;&gt;Node18</title>
<g id="a_edge22_Node000012_Node000018"><a xlink:title=" ">
<path fill="none" stroke="#63b8ff" d="M1039.61,-146.81C1031.36,-137.89 1022.43,-128.22 1014.81,-119.98"/>
<polygon fill="#63b8ff" stroke="#63b8ff" points="1036.86,-148.99 1046.21,-153.96 1042,-144.24 1036.86,-148.99"/>
</a>
</g>
</g>
<!-- Node20 -->
<g id="Node000020" class="node">
<title>Node20</title>
<g id="a_Node000020"><a xlink:href="OuroborosMuxDesign_8hpp.html" target="_top" xlink:title=" ">
<polygon fill="white" stroke="#666666" points="1291.5,-119.5 1098.5,-119.5 1098.5,-77.75 1291.5,-77.75 1291.5,-119.5"/>
<text text-anchor="start" x="1106.5" y="-106" font-family="Helvetica,sans-Serif" font-size="10.00">/github/workspace/dev</text>
<text text-anchor="start" x="1106.5" y="-94.75" font-family="Helvetica,sans-Serif" font-size="10.00">_area/sourcecode/timing</text>
<text text-anchor="middle" x="1195" y="-83.5" font-family="Helvetica,sans-Serif" font-size="10.00">/include/timing/OuroborosMuxDesign.hpp</text>
</a>
</g>
</g>
<!-- Node12&#45;&gt;Node20 -->
<g id="edge25_Node000012_Node000020" class="edge">
<title>Node12&#45;&gt;Node20</title>
<g id="a_edge25_Node000012_Node000020"><a xlink:title=" ">
<path fill="none" stroke="#63b8ff" d="M1110.44,-149.28C1126.77,-139.69 1145,-128.99 1160.33,-119.98"/>
<polygon fill="#63b8ff" stroke="#63b8ff" points="1108.73,-146.23 1101.87,-154.31 1112.27,-152.26 1108.73,-146.23"/>
</a>
</g>
</g>
<!-- Node22 -->
<g id="Node000022" class="node">
<title>Node22</title>
<g id="a_Node000022"><a xlink:href="MasterMuxDesign_8cpp.html" target="_top" xlink:title=" ">
<polygon fill="white" stroke="#666666" points="893.75,-119.5 762.25,-119.5 762.25,-77.75 893.75,-77.75 893.75,-119.5"/>
<text text-anchor="start" x="770.25" y="-106" font-family="Helvetica,sans-Serif" font-size="10.00">/github/workspace/dev</text>
<text text-anchor="start" x="770.25" y="-94.75" font-family="Helvetica,sans-Serif" font-size="10.00">_area/sourcecode/timing</text>
<text text-anchor="middle" x="828" y="-83.5" font-family="Helvetica,sans-Serif" font-size="10.00">/src/MasterMuxDesign.cpp</text>
</a>
</g>
</g>
<!-- Node12&#45;&gt;Node22 -->
<g id="edge28_Node000012_Node000022" class="edge">
<title>Node12&#45;&gt;Node22</title>
<g id="a_edge28_Node000012_Node000022"><a xlink:title=" ">
<path fill="none" stroke="#63b8ff" d="M991.59,-151.69C959.63,-141.52 922.66,-129.75 891.96,-119.98"/>
<polygon fill="#63b8ff" stroke="#63b8ff" points="990.19,-154.92 1000.78,-154.62 992.31,-148.25 990.19,-154.92"/>
</a>
</g>
</g>
<!-- Node13&#45;&gt;Node3 -->
<g id="edge16_Node000013_Node000003" class="edge">
<title>Node13&#45;&gt;Node3</title>
<g id="a_edge16_Node000013_Node000003"><a xlink:title=" ">
<path fill="none" stroke="#63b8ff" d="M1504.45,-77.5C1248.91,-42.02 1180.26,-61.83 926,-41.75 879.21,-38.06 826.56,-32.99 786.07,-28.89"/>
<polygon fill="#63b8ff" stroke="#63b8ff" points="1503.69,-80.93 1514.08,-78.86 1504.66,-74 1503.69,-80.93"/>
</a>
</g>
</g>
<!-- Node14 -->
<g id="Node000014" class="node">
<title>Node14</title>
<g id="a_Node000014"><a xlink:href="FanoutDesign_8cpp.html" target="_top" xlink:title=" ">
<polygon fill="white" stroke="#666666" points="1657.25,-41.75 1534.75,-41.75 1534.75,0 1657.25,0 1657.25,-41.75"/>
<text text-anchor="start" x="1542.75" y="-28.25" font-family="Helvetica,sans-Serif" font-size="10.00">/github/workspace/dev</text>
<text text-anchor="start" x="1542.75" y="-17" font-family="Helvetica,sans-Serif" font-size="10.00">_area/sourcecode/timing</text>
<text text-anchor="middle" x="1596" y="-5.75" font-family="Helvetica,sans-Serif" font-size="10.00">/src/FanoutDesign.cpp</text>
</a>
</g>
</g>
<!-- Node13&#45;&gt;Node14 -->
<g id="edge17_Node000013_Node000014" class="edge">
<title>Node13&#45;&gt;Node14</title>
<g id="a_edge17_Node000013_Node000014"><a xlink:title=" ">
<path fill="none" stroke="#63b8ff" d="M1596,-66C1596,-57.96 1596,-49.54 1596,-42.23"/>
<polygon fill="#63b8ff" stroke="#63b8ff" points="1592.5,-65.81 1596,-75.81 1599.5,-65.81 1592.5,-65.81"/>
</a>
</g>
</g>
<!-- Node15 -->
<g id="Node000015" class="node">
<title>Node15</title>
<g id="a_Node000015"><a xlink:href="sourcecode_2timinglibs_2src_2TimingHardwareManager_8cpp.html" target="_top" xlink:title=" ">
<polygon fill="white" stroke="#666666" points="1881.12,-41.75 1718.88,-41.75 1718.88,0 1881.12,0 1881.12,-41.75"/>
<text text-anchor="start" x="1726.88" y="-28.25" font-family="Helvetica,sans-Serif" font-size="10.00">/github/workspace/dev</text>
<text text-anchor="start" x="1726.88" y="-17" font-family="Helvetica,sans-Serif" font-size="10.00">_area/sourcecode/timinglibs</text>
<text text-anchor="middle" x="1800" y="-5.75" font-family="Helvetica,sans-Serif" font-size="10.00">/src/TimingHardwareManager.cpp</text>
</a>
</g>
</g>
<!-- Node13&#45;&gt;Node15 -->
<g id="edge18_Node000013_Node000015" class="edge">
<title>Node13&#45;&gt;Node15</title>
<g id="a_edge18_Node000013_Node000015"><a xlink:title=" ">
<path fill="none" stroke="#63b8ff" d="M1661.21,-73.41C1688.27,-63.36 1719.32,-51.83 1745.18,-42.23"/>
<polygon fill="#63b8ff" stroke="#63b8ff" points="1660.24,-70.04 1652.09,-76.8 1662.68,-76.6 1660.24,-70.04"/>
</a>
</g>
</g>
<!-- Node16&#45;&gt;Node3 -->
<g id="edge20_Node000016_Node000003" class="edge">
<title>Node16&#45;&gt;Node3</title>
<g id="a_edge20_Node000016_Node000003"><a xlink:title=" ">
<path fill="none" stroke="#63b8ff" d="M1336.06,-78.07C1335.37,-77.96 1334.68,-77.86 1334,-77.75 1154.11,-49.85 1107.27,-58.45 926,-41.75 879.26,-37.44 826.61,-32.39 786.11,-28.45"/>
<polygon fill="#63b8ff" stroke="#63b8ff" points="1335.44,-81.52 1345.89,-79.77 1336.63,-74.62 1335.44,-81.52"/>
</a>
</g>
</g>
<!-- Node17 -->
<g id="Node000017" class="node">
<title>Node17</title>
<g id="a_Node000017"><a xlink:href="GaiaDesign_8cpp.html" target="_top" xlink:title=" ">
<polygon fill="white" stroke="#666666" points="1484.25,-41.75 1361.75,-41.75 1361.75,0 1484.25,0 1484.25,-41.75"/>
<text text-anchor="start" x="1369.75" y="-28.25" font-family="Helvetica,sans-Serif" font-size="10.00">/github/workspace/dev</text>
<text text-anchor="start" x="1369.75" y="-17" font-family="Helvetica,sans-Serif" font-size="10.00">_area/sourcecode/timing</text>
<text text-anchor="middle" x="1423" y="-5.75" font-family="Helvetica,sans-Serif" font-size="10.00">/src/GaiaDesign.cpp</text>
</a>
</g>
</g>
<!-- Node16&#45;&gt;Node17 -->
<g id="edge21_Node000016_Node000017" class="edge">
<title>Node16&#45;&gt;Node17</title>
<g id="a_edge21_Node000016_Node000017"><a xlink:title=" ">
<path fill="none" stroke="#63b8ff" d="M1423,-66C1423,-57.96 1423,-49.54 1423,-42.23"/>
<polygon fill="#63b8ff" stroke="#63b8ff" points="1419.5,-65.81 1423,-75.81 1426.5,-65.81 1419.5,-65.81"/>
</a>
</g>
</g>
<!-- Node18&#45;&gt;Node3 -->
<g id="edge23_Node000018_Node000003" class="edge">
<title>Node18&#45;&gt;Node3</title>
<g id="a_edge23_Node000018_Node000003"><a xlink:title=" ">
<path fill="none" stroke="#63b8ff" d="M910.69,-74.3C870.71,-63.36 823.75,-50.52 786.32,-40.29"/>
<polygon fill="#63b8ff" stroke="#63b8ff" points="909.74,-77.66 920.31,-76.93 911.59,-70.91 909.74,-77.66"/>
</a>
</g>
</g>
<!-- Node19 -->
<g id="Node000019" class="node">
<title>Node19</title>
<g id="a_Node000019"><a xlink:href="KerberosDesign_8cpp.html" target="_top" xlink:title=" ">
<polygon fill="white" stroke="#666666" points="1057.25,-41.75 934.75,-41.75 934.75,0 1057.25,0 1057.25,-41.75"/>
<text text-anchor="start" x="942.75" y="-28.25" font-family="Helvetica,sans-Serif" font-size="10.00">/github/workspace/dev</text>
<text text-anchor="start" x="942.75" y="-17" font-family="Helvetica,sans-Serif" font-size="10.00">_area/sourcecode/timing</text>
<text text-anchor="middle" x="996" y="-5.75" font-family="Helvetica,sans-Serif" font-size="10.00">/src/KerberosDesign.cpp</text>
</a>
</g>
</g>
<!-- Node18&#45;&gt;Node19 -->
<g id="edge24_Node000018_Node000019" class="edge">
<title>Node18&#45;&gt;Node19</title>
<g id="a_edge24_Node000018_Node000019"><a xlink:title=" ">
<path fill="none" stroke="#63b8ff" d="M996,-66C996,-57.96 996,-49.54 996,-42.23"/>
<polygon fill="#63b8ff" stroke="#63b8ff" points="992.5,-65.81 996,-75.81 999.5,-65.81 992.5,-65.81"/>
</a>
</g>
</g>
<!-- Node20&#45;&gt;Node3 -->
<g id="edge26_Node000020_Node000003" class="edge">
<title>Node20&#45;&gt;Node3</title>
<g id="a_edge26_Node000020_Node000003"><a xlink:title=" ">
<path fill="none" stroke="#63b8ff" d="M1087,-77.27C976.14,-58.6 858.15,-41.4 786.14,-31.21"/>
<polygon fill="#63b8ff" stroke="#63b8ff" points="1086.12,-80.67 1096.56,-78.88 1087.28,-73.76 1086.12,-80.67"/>
</a>
</g>
</g>
<!-- Node21 -->
<g id="Node000021" class="node">
<title>Node21</title>
<g id="a_Node000021"><a xlink:href="OuroborosMuxDesign_8cpp.html" target="_top" xlink:title=" ">
<polygon fill="white" stroke="#666666" points="1268.25,-41.75 1121.75,-41.75 1121.75,0 1268.25,0 1268.25,-41.75"/>
<text text-anchor="start" x="1129.75" y="-28.25" font-family="Helvetica,sans-Serif" font-size="10.00">/github/workspace/dev</text>
<text text-anchor="start" x="1129.75" y="-17" font-family="Helvetica,sans-Serif" font-size="10.00">_area/sourcecode/timing</text>
<text text-anchor="middle" x="1195" y="-5.75" font-family="Helvetica,sans-Serif" font-size="10.00">/src/OuroborosMuxDesign.cpp</text>
</a>
</g>
</g>
<!-- Node20&#45;&gt;Node21 -->
<g id="edge27_Node000020_Node000021" class="edge">
<title>Node20&#45;&gt;Node21</title>
<g id="a_edge27_Node000020_Node000021"><a xlink:title=" ">
<path fill="none" stroke="#63b8ff" d="M1195,-66C1195,-57.96 1195,-49.54 1195,-42.23"/>
<polygon fill="#63b8ff" stroke="#63b8ff" points="1191.5,-65.81 1195,-75.81 1198.5,-65.81 1191.5,-65.81"/>
</a>
</g>
</g>
<!-- Node23&#45;&gt;Node3 -->
<g id="edge30_Node000023_Node000003" class="edge">
<title>Node23&#45;&gt;Node3</title>
<g id="a_edge30_Node000023_Node000003"><a xlink:title=" ">
<path fill="none" stroke="#63b8ff" d="M708.06,-153.32C661.13,-141.86 613.77,-128.43 607,-119.5 595.78,-104.72 597.24,-93.53 607,-77.75 617.29,-61.12 634.19,-49.28 651.77,-40.91"/>
<polygon fill="#63b8ff" stroke="#63b8ff" points="706.99,-156.66 717.53,-155.6 708.63,-149.85 706.99,-156.66"/>
</a>
</g>
</g>
<!-- Node24 -->
<g id="Node000024" class="node">
<title>Node24</title>
<g id="a_Node000024"><a xlink:href="OuroborosDesign_8cpp.html" target="_top" xlink:title=" ">
<polygon fill="white" stroke="#666666" points="744.25,-119.5 615.75,-119.5 615.75,-77.75 744.25,-77.75 744.25,-119.5"/>
<text text-anchor="start" x="623.75" y="-106" font-family="Helvetica,sans-Serif" font-size="10.00">/github/workspace/dev</text>
<text text-anchor="start" x="623.75" y="-94.75" font-family="Helvetica,sans-Serif" font-size="10.00">_area/sourcecode/timing</text>
<text text-anchor="middle" x="680" y="-83.5" font-family="Helvetica,sans-Serif" font-size="10.00">/src/OuroborosDesign.cpp</text>
</a>
</g>
</g>
<!-- Node23&#45;&gt;Node24 -->
<g id="edge31_Node000023_Node000024" class="edge">
<title>Node23&#45;&gt;Node24</title>
<g id="a_edge31_Node000023_Node000024"><a xlink:title=" ">
<path fill="none" stroke="#63b8ff" d="M763.24,-149.28C747.17,-139.69 729.23,-128.99 714.13,-119.98"/>
<polygon fill="#63b8ff" stroke="#63b8ff" points="761.29,-152.18 771.67,-154.3 764.87,-146.17 761.29,-152.18"/>
</a>
</g>
</g>
<!-- Node25&#45;&gt;Node3 -->
<g id="edge33_Node000025_Node000003" class="edge">
<title>Node25&#45;&gt;Node3</title>
<g id="a_edge33_Node000025_Node000003"><a xlink:title=" ">
<path fill="none" stroke="#63b8ff" d="M1303.41,-144.55C1311.66,-123.2 1317.16,-95.53 1301,-77.75 1301,-77.75 939.53,-43.05 786.33,-28.34"/>
<polygon fill="#63b8ff" stroke="#63b8ff" points="1300.23,-143.09 1299.54,-153.66 1306.68,-145.83 1300.23,-143.09"/>
</a>
</g>
</g>
<!-- Node26 -->
<g id="Node000026" class="node">
<title>Node26</title>
<g id="a_Node000026"><a xlink:href="OverlordDesign_8cpp.html" target="_top" xlink:title=" ">
<polygon fill="white" stroke="#666666" points="1816.25,-119.5 1693.75,-119.5 1693.75,-77.75 1816.25,-77.75 1816.25,-119.5"/>
<text text-anchor="start" x="1701.75" y="-106" font-family="Helvetica,sans-Serif" font-size="10.00">/github/workspace/dev</text>
<text text-anchor="start" x="1701.75" y="-94.75" font-family="Helvetica,sans-Serif" font-size="10.00">_area/sourcecode/timing</text>
<text text-anchor="middle" x="1755" y="-83.5" font-family="Helvetica,sans-Serif" font-size="10.00">/src/OverlordDesign.cpp</text>
</a>
</g>
</g>
<!-- Node25&#45;&gt;Node26 -->
<g id="edge34_Node000025_Node000026" class="edge">
<title>Node25&#45;&gt;Node26</title>
<g id="a_edge34_Node000025_Node000026"><a xlink:title=" ">
<path fill="none" stroke="#63b8ff" d="M1382.96,-155.28C1517.21,-133.91 1555.1,-145.46 1685,-119.5 1687.73,-118.96 1690.5,-118.36 1693.29,-117.72"/>
<polygon fill="#63b8ff" stroke="#63b8ff" points="1382.63,-151.78 1373.33,-156.84 1383.76,-158.69 1382.63,-151.78"/>
</a>
</g>
</g>
<!-- Node28&#45;&gt;Node9 -->
<g id="edge37_Node000028_Node000009" class="edge">
<title>Node28&#45;&gt;Node9</title>
<g id="a_edge37_Node000028_Node000009"><a xlink:title=" ">
<path fill="none" stroke="#63b8ff" d="M874.76,-314.81C860.95,-303.79 845.29,-291.3 832.5,-281.1"/>
<polygon fill="#63b8ff" stroke="#63b8ff" points="872.34,-317.36 882.34,-320.86 876.71,-311.88 872.34,-317.36"/>
</a>
</g>
</g>
<!-- Node29 -->
<g id="Node000029" class="node">
<title>Node29</title>
<g id="a_Node000029"><a xlink:href="OverlordDesignInterface_8hpp.html" target="_top" xlink:title=" ">
<polygon fill="white" stroke="#666666" points="1362.38,-286.25 1213.62,-286.25 1213.62,-233.25 1362.38,-233.25 1362.38,-286.25"/>
<text text-anchor="start" x="1221.62" y="-272.75" font-family="Helvetica,sans-Serif" font-size="10.00">/github/workspace/dev</text>
<text text-anchor="start" x="1221.62" y="-261.5" font-family="Helvetica,sans-Serif" font-size="10.00">_area/sourcecode/timing</text>
<text text-anchor="start" x="1221.62" y="-250.25" font-family="Helvetica,sans-Serif" font-size="10.00">/include/timing/OverlordDesign</text>
<text text-anchor="middle" x="1288" y="-239" font-family="Helvetica,sans-Serif" font-size="10.00">Interface.hpp</text>
</a>
</g>
</g>
<!-- Node28&#45;&gt;Node29 -->
<g id="edge38_Node000028_Node000029" class="edge">
<title>Node28&#45;&gt;Node29</title>
<g id="a_edge38_Node000028_Node000029"><a xlink:title=" ">
<path fill="none" stroke="#63b8ff" d="M1014.85,-319.4C1077.97,-305.85 1156.57,-288.97 1213.23,-276.8"/>
<polygon fill="#63b8ff" stroke="#63b8ff" points="1014.18,-315.96 1005.14,-321.48 1015.65,-322.81 1014.18,-315.96"/>
</a>
</g>
</g>
<!-- Node31 -->
<g id="Node000031" class="node">
<title>Node31</title>
<g id="a_Node000031"><a xlink:href="sourcecode_2timinglibs_2src_2TimingHardwareManager_8hpp.html" target="_top" xlink:title=" ">
<polygon fill="white" stroke="#666666" points="1734.12,-280.62 1571.88,-280.62 1571.88,-238.88 1734.12,-238.88 1734.12,-280.62"/>
<text text-anchor="start" x="1579.88" y="-267.12" font-family="Helvetica,sans-Serif" font-size="10.00">/github/workspace/dev</text>
<text text-anchor="start" x="1579.88" y="-255.88" font-family="Helvetica,sans-Serif" font-size="10.00">_area/sourcecode/timinglibs</text>
<text text-anchor="middle" x="1653" y="-244.62" font-family="Helvetica,sans-Serif" font-size="10.00">/src/TimingHardwareManager.hpp</text>
</a>
</g>
</g>
<!-- Node28&#45;&gt;Node31 -->
<g id="edge41_Node000028_Node000031" class="edge">
<title>Node28&#45;&gt;Node31</title>
<g id="a_edge41_Node000028_Node000031"><a xlink:title=" ">
<path fill="none" stroke="#63b8ff" d="M1019.68,-330.02C1170.59,-313.51 1437.45,-284.33 1571.44,-269.67"/>
<polygon fill="#63b8ff" stroke="#63b8ff" points="1019.63,-326.5 1010.07,-331.07 1020.39,-333.46 1019.63,-326.5"/>
</a>
</g>
</g>
<!-- Node29&#45;&gt;Node25 -->
<g id="edge39_Node000029_Node000025" class="edge">
<title>Node29&#45;&gt;Node25</title>
<g id="a_edge39_Node000029_Node000025"><a xlink:title=" ">
<path fill="none" stroke="#63b8ff" d="M1288,-221.58C1288,-213.3 1288,-204.83 1288,-197.54"/>
<polygon fill="#63b8ff" stroke="#63b8ff" points="1284.5,-221.49 1288,-231.49 1291.5,-221.49 1284.5,-221.49"/>
</a>
</g>
</g>
<!-- Node30 -->
<g id="Node000030" class="node">
<title>Node30</title>
<g id="a_Node000030"><a xlink:href="OverlordDesignInterface_8cpp.html" target="_top" xlink:title=" ">
<polygon fill="white" stroke="#666666" points="1548.25,-197.25 1389.75,-197.25 1389.75,-155.5 1548.25,-155.5 1548.25,-197.25"/>
<text text-anchor="start" x="1397.75" y="-183.75" font-family="Helvetica,sans-Serif" font-size="10.00">/github/workspace/dev</text>
<text text-anchor="start" x="1397.75" y="-172.5" font-family="Helvetica,sans-Serif" font-size="10.00">_area/sourcecode/timing</text>
<text text-anchor="middle" x="1469" y="-161.25" font-family="Helvetica,sans-Serif" font-size="10.00">/src/OverlordDesignInterface.cpp</text>
</a>
</g>
</g>
<!-- Node29&#45;&gt;Node30 -->
<g id="edge40_Node000029_Node000030" class="edge">
<title>Node29&#45;&gt;Node30</title>
<g id="a_edge40_Node000029_Node000030"><a xlink:title=" ">
<path fill="none" stroke="#63b8ff" d="M1356.01,-228.17C1378.66,-217.99 1403.32,-206.9 1423.8,-197.69"/>
<polygon fill="#63b8ff" stroke="#63b8ff" points="1354.83,-224.87 1347.15,-232.16 1357.7,-231.25 1354.83,-224.87"/>
</a>
</g>
</g>
<!-- Node31&#45;&gt;Node15 -->
<g id="edge42_Node000031_Node000015" class="edge">
<title>Node31&#45;&gt;Node15</title>
<g id="a_edge42_Node000031_Node000015"><a xlink:title=" ">
<path fill="none" stroke="#63b8ff" d="M1705.33,-233.06C1746.32,-209.73 1800.4,-171.08 1825,-119.5 1837.05,-94.23 1824.27,-62.42 1812.99,-42.11"/>
<polygon fill="#63b8ff" stroke="#63b8ff" points="1703.85,-229.88 1696.8,-237.79 1707.24,-236 1703.85,-229.88"/>
</a>
</g>
</g>
</g>
</svg>
