<?xml version="1.0" encoding="UTF-8" standalone="no"?>
<!DOCTYPE svg PUBLIC "-//W3C//DTD SVG 1.1//EN"
 "http://www.w3.org/Graphics/SVG/1.1/DTD/svg11.dtd">
<!-- Generated by graphviz version 9.0.0 (20230911.1827)
 -->
<!-- Title: /github/workspace/dev_area/sourcecode/detchannelmaps/include/detchannelmaps/TPCChannelMap.hpp Pages: 1 -->
<svg width="590pt" height="306pt"
 viewBox="0.00 0.00 589.62 305.50" xmlns="http://www.w3.org/2000/svg" xmlns:xlink="http://www.w3.org/1999/xlink">
<g id="graph0" class="graph" transform="scale(1 1) rotate(0) translate(4 301.5)">
<title>/github/workspace/dev_area/sourcecode/detchannelmaps/include/detchannelmaps/TPCChannelMap.hpp</title>
<!-- Node1 -->
<g id="Node000001" class="node">
<title>Node1</title>
<g id="a_Node000001"><a xlink:title=" ">
<polygon fill="#999999" stroke="#666666" points="462.12,-297.5 243.62,-297.5 243.62,-255.75 462.12,-255.75 462.12,-297.5"/>
<text text-anchor="start" x="251.62" y="-284" font-family="Helvetica,sans-Serif" font-size="10.00">/github/workspace/dev</text>
<text text-anchor="start" x="251.62" y="-272.75" font-family="Helvetica,sans-Serif" font-size="10.00">_area/sourcecode/detchannelmaps</text>
<text text-anchor="middle" x="352.88" y="-261.5" font-family="Helvetica,sans-Serif" font-size="10.00">/include/detchannelmaps/TPCChannelMap.hpp</text>
</a>
</g>
</g>
<!-- Node2 -->
<g id="Node000002" class="node">
<title>Node2</title>
<g id="a_Node000002"><a xlink:href="channelmap_8cpp.html" target="_top" xlink:title=" ">
<polygon fill="white" stroke="#666666" points="187.62,-214.12 20.12,-214.12 20.12,-172.38 187.62,-172.38 187.62,-214.12"/>
<text text-anchor="start" x="28.12" y="-200.62" font-family="Helvetica,sans-Serif" font-size="10.00">/github/workspace/dev</text>
<text text-anchor="start" x="28.12" y="-189.38" font-family="Helvetica,sans-Serif" font-size="10.00">_area/sourcecode/detchannelmaps</text>
<text text-anchor="middle" x="103.88" y="-178.12" font-family="Helvetica,sans-Serif" font-size="10.00">/pybindsrc/channelmap.cpp</text>
</a>
</g>
</g>
<!-- Node1&#45;&gt;Node2 -->
<g id="edge1_Node000001_Node000002" class="edge">
<title>Node1&#45;&gt;Node2</title>
<g id="a_edge1_Node000001_Node000002"><a xlink:title=" ">
<path fill="none" stroke="#63b8ff" d="M280.2,-251.87C244.03,-240.05 200.76,-225.91 166.14,-214.6"/>
<polygon fill="#63b8ff" stroke="#63b8ff" points="278.65,-255.05 289.25,-254.83 280.83,-248.4 278.65,-255.05"/>
</a>
</g>
</g>
<!-- Node3 -->
<g id="Node000003" class="node">
<title>Node3</title>
<g id="a_Node000003"><a xlink:href="RegisterToChannelNumber_8hpp.html" target="_top" xlink:title=" ">
<polygon fill="white" stroke="#666666" points="376.12,-219.75 205.62,-219.75 205.62,-166.75 376.12,-166.75 376.12,-219.75"/>
<text text-anchor="start" x="213.62" y="-206.25" font-family="Helvetica,sans-Serif" font-size="10.00">/github/workspace/dev</text>
<text text-anchor="start" x="213.62" y="-195" font-family="Helvetica,sans-Serif" font-size="10.00">_area/sourcecode/fdreadoutlibs</text>
<text text-anchor="start" x="213.62" y="-183.75" font-family="Helvetica,sans-Serif" font-size="10.00">/include/fdreadoutlibs/wibeth</text>
<text text-anchor="middle" x="290.88" y="-172.5" font-family="Helvetica,sans-Serif" font-size="10.00">/tpg/RegisterToChannelNumber.hpp</text>
</a>
</g>
</g>
<!-- Node1&#45;&gt;Node3 -->
<g id="edge2_Node000001_Node000003" class="edge">
<title>Node1&#45;&gt;Node3</title>
<g id="a_edge2_Node000001_Node000003"><a xlink:title=" ">
<path fill="none" stroke="#63b8ff" d="M330.68,-246.49C324.08,-237.83 316.9,-228.41 310.48,-219.98"/>
<polygon fill="#63b8ff" stroke="#63b8ff" points="327.79,-248.47 336.63,-254.31 333.36,-244.23 327.79,-248.47"/>
</a>
</g>
</g>
<!-- Node6 -->
<g id="Node000006" class="node">
<title>Node6</title>
<g id="a_Node000006"><a xlink:href="WIBEthFrameProcessor_8cpp.html" target="_top" xlink:title=" ">
<polygon fill="white" stroke="#666666" points="434.88,-41.75 244.88,-41.75 244.88,0 434.88,0 434.88,-41.75"/>
<text text-anchor="start" x="252.88" y="-28.25" font-family="Helvetica,sans-Serif" font-size="10.00">/github/workspace/dev</text>
<text text-anchor="start" x="252.88" y="-17" font-family="Helvetica,sans-Serif" font-size="10.00">_area/sourcecode/fdreadoutlibs</text>
<text text-anchor="middle" x="339.88" y="-5.75" font-family="Helvetica,sans-Serif" font-size="10.00">/src/wibeth/WIBEthFrameProcessor.cpp</text>
</a>
</g>
</g>
<!-- Node1&#45;&gt;Node6 -->
<g id="edge7_Node000001_Node000006" class="edge">
<title>Node1&#45;&gt;Node6</title>
<g id="a_edge7_Node000001_Node000006"><a xlink:title=" ">
<path fill="none" stroke="#63b8ff" d="M372.89,-245.59C377.49,-237.49 381.9,-228.53 384.88,-219.75 405.22,-159.77 421.4,-136.14 396.88,-77.75 391.03,-63.82 379.82,-51.63 368.89,-42.21"/>
<polygon fill="#63b8ff" stroke="#63b8ff" points="369.98,-243.64 367.83,-254.01 375.98,-247.24 369.98,-243.64"/>
</a>
</g>
</g>
<!-- Node8 -->
<g id="Node000008" class="node">
<title>Node8</title>
<g id="a_Node000008"><a xlink:href="process__tpstream_8cxx.html" target="_top" xlink:title=" ">
<polygon fill="white" stroke="#666666" points="581.62,-214.12 444.12,-214.12 444.12,-172.38 581.62,-172.38 581.62,-214.12"/>
<text text-anchor="start" x="452.12" y="-200.62" font-family="Helvetica,sans-Serif" font-size="10.00">/github/workspace/dev</text>
<text text-anchor="start" x="452.12" y="-189.38" font-family="Helvetica,sans-Serif" font-size="10.00">_area/sourcecode/trgtools</text>
<text text-anchor="middle" x="512.88" y="-178.12" font-family="Helvetica,sans-Serif" font-size="10.00">/apps/process_tpstream.cxx</text>
</a>
</g>
</g>
<!-- Node1&#45;&gt;Node8 -->
<g id="edge8_Node000001_Node000008" class="edge">
<title>Node1&#45;&gt;Node8</title>
<g id="a_edge8_Node000001_Node000008"><a xlink:title=" ">
<path fill="none" stroke="#63b8ff" d="M402.9,-250.18C425.43,-238.72 451.67,-225.38 472.87,-214.6"/>
<polygon fill="#63b8ff" stroke="#63b8ff" points="401.51,-246.96 394.19,-254.61 404.69,-253.2 401.51,-246.96"/>
</a>
</g>
</g>
<!-- Node4 -->
<g id="Node000004" class="node">
<title>Node4</title>
<g id="a_Node000004"><a xlink:href="WIBEthFrameProcessor_8hpp.html" target="_top" xlink:title=" ">
<polygon fill="white" stroke="#666666" points="151.75,-130.75 0,-130.75 0,-77.75 151.75,-77.75 151.75,-130.75"/>
<text text-anchor="start" x="8" y="-117.25" font-family="Helvetica,sans-Serif" font-size="10.00">/github/workspace/dev</text>
<text text-anchor="start" x="8" y="-106" font-family="Helvetica,sans-Serif" font-size="10.00">_area/sourcecode/fdreadoutlibs</text>
<text text-anchor="start" x="8" y="-94.75" font-family="Helvetica,sans-Serif" font-size="10.00">/include/fdreadoutlibs/wibeth</text>
<text text-anchor="middle" x="75.88" y="-83.5" font-family="Helvetica,sans-Serif" font-size="10.00">/WIBEthFrameProcessor.hpp</text>
</a>
</g>
</g>
<!-- Node3&#45;&gt;Node4 -->
<g id="edge3_Node000003_Node000004" class="edge">
<title>Node3&#45;&gt;Node4</title>
<g id="a_edge3_Node000003_Node000004"><a xlink:title=" ">
<path fill="none" stroke="#63b8ff" d="M216.16,-162.02C191.26,-151.94 163.76,-140.81 139.76,-131.1"/>
<polygon fill="#63b8ff" stroke="#63b8ff" points="214.67,-165.19 225.26,-165.7 217.3,-158.7 214.67,-165.19"/>
</a>
</g>
</g>
<!-- Node7 -->
<g id="Node000007" class="node">
<title>Node7</title>
<g id="a_Node000007"><a xlink:href="RegisterToChannelNumber_8cpp.html" target="_top" xlink:title=" ">
<polygon fill="white" stroke="#666666" points="388.12,-125.12 169.62,-125.12 169.62,-83.38 388.12,-83.38 388.12,-125.12"/>
<text text-anchor="start" x="177.62" y="-111.62" font-family="Helvetica,sans-Serif" font-size="10.00">/github/workspace/dev</text>
<text text-anchor="start" x="177.62" y="-100.38" font-family="Helvetica,sans-Serif" font-size="10.00">_area/sourcecode/fdreadoutlibs</text>
<text text-anchor="middle" x="278.88" y="-89.12" font-family="Helvetica,sans-Serif" font-size="10.00">/src/wibeth/tpg/RegisterToChannelNumber.cpp</text>
</a>
</g>
</g>
<!-- Node3&#45;&gt;Node7 -->
<g id="edge6_Node000003_Node000007" class="edge">
<title>Node3&#45;&gt;Node7</title>
<g id="a_edge6_Node000003_Node000007"><a xlink:title=" ">
<path fill="none" stroke="#63b8ff" d="M285.79,-155.38C284.38,-145.13 282.89,-134.37 281.66,-125.46"/>
<polygon fill="#63b8ff" stroke="#63b8ff" points="282.3,-155.69 287.13,-165.12 289.23,-154.73 282.3,-155.69"/>
</a>
</g>
</g>
<!-- Node5 -->
<g id="Node000005" class="node">
<title>Node5</title>
<g id="a_Node000005"><a xlink:href="FDReadoutlibs_8cpp.html" target="_top" xlink:title=" ">
<polygon fill="white" stroke="#666666" points="151.75,-41.75 0,-41.75 0,0 151.75,0 151.75,-41.75"/>
<text text-anchor="start" x="8" y="-28.25" font-family="Helvetica,sans-Serif" font-size="10.00">/github/workspace/dev</text>
<text text-anchor="start" x="8" y="-17" font-family="Helvetica,sans-Serif" font-size="10.00">_area/sourcecode/fdreadoutlibs</text>
<text text-anchor="middle" x="75.88" y="-5.75" font-family="Helvetica,sans-Serif" font-size="10.00">/src/FDReadoutlibs.cpp</text>
</a>
</g>
</g>
<!-- Node4&#45;&gt;Node5 -->
<g id="edge4_Node000004_Node000005" class="edge">
<title>Node4&#45;&gt;Node5</title>
<g id="a_edge4_Node000004_Node000005"><a xlink:title=" ">
<path fill="none" stroke="#63b8ff" d="M75.88,-66.08C75.88,-57.8 75.88,-49.33 75.88,-42.04"/>
<polygon fill="#63b8ff" stroke="#63b8ff" points="72.38,-65.99 75.88,-75.99 79.38,-65.99 72.38,-65.99"/>
</a>
</g>
</g>
<!-- Node4&#45;&gt;Node6 -->
<g id="edge5_Node000004_Node000006" class="edge">
<title>Node4&#45;&gt;Node6</title>
<g id="a_edge5_Node000004_Node000006"><a xlink:title=" ">
<path fill="none" stroke="#63b8ff" d="M162.79,-76.46C199,-65.3 240.35,-52.55 273.98,-42.19"/>
<polygon fill="#63b8ff" stroke="#63b8ff" points="162.21,-72.98 153.68,-79.27 164.27,-79.67 162.21,-72.98"/>
</a>
</g>
</g>
</g>
</svg>
