<?xml version="1.0" encoding="UTF-8" standalone="no"?>
<!DOCTYPE svg PUBLIC "-//W3C//DTD SVG 1.1//EN"
 "http://www.w3.org/Graphics/SVG/1.1/DTD/svg11.dtd">
<!-- Generated by graphviz version 9.0.0 (20230911.1827)
 -->
<!-- Title: /github/workspace/dev_area/sourcecode/fdreadoutlibs/include/fdreadoutlibs/wibeth/tpg/TPGConstants_wibeth.hpp Pages: 1 -->
<svg width="1459pt" height="406pt"
 viewBox="0.00 0.00 1458.88 405.75" xmlns="http://www.w3.org/2000/svg" xmlns:xlink="http://www.w3.org/1999/xlink">
<g id="graph0" class="graph" transform="scale(1 1) rotate(0) translate(4 401.75)">
<title>/github/workspace/dev_area/sourcecode/fdreadoutlibs/include/fdreadoutlibs/wibeth/tpg/TPGConstants_wibeth.hpp</title>
<!-- Node1 -->
<g id="Node000001" class="node">
<title>Node1</title>
<g id="a_Node000001"><a xlink:title=" ">
<polygon fill="#999999" stroke="#666666" points="702.38,-397.75 550.62,-397.75 550.62,-344.75 702.38,-344.75 702.38,-397.75"/>
<text text-anchor="start" x="558.62" y="-384.25" font-family="Helvetica,sans-Serif" font-size="10.00">/github/workspace/dev</text>
<text text-anchor="start" x="558.62" y="-373" font-family="Helvetica,sans-Serif" font-size="10.00">_area/sourcecode/fdreadoutlibs</text>
<text text-anchor="start" x="558.62" y="-361.75" font-family="Helvetica,sans-Serif" font-size="10.00">/include/fdreadoutlibs/wibeth</text>
<text text-anchor="middle" x="626.5" y="-350.5" font-family="Helvetica,sans-Serif" font-size="10.00">/tpg/TPGConstants_wibeth.hpp</text>
</a>
</g>
</g>
<!-- Node2 -->
<g id="Node000002" class="node">
<title>Node2</title>
<g id="a_Node000002"><a xlink:href="FrameExpand_8hpp.html" target="_top" xlink:title=" ">
<polygon fill="white" stroke="#666666" points="702.38,-308.75 550.62,-308.75 550.62,-255.75 702.38,-255.75 702.38,-308.75"/>
<text text-anchor="start" x="558.62" y="-295.25" font-family="Helvetica,sans-Serif" font-size="10.00">/github/workspace/dev</text>
<text text-anchor="start" x="558.62" y="-284" font-family="Helvetica,sans-Serif" font-size="10.00">_area/sourcecode/fdreadoutlibs</text>
<text text-anchor="start" x="558.62" y="-272.75" font-family="Helvetica,sans-Serif" font-size="10.00">/include/fdreadoutlibs/wibeth</text>
<text text-anchor="middle" x="626.5" y="-261.5" font-family="Helvetica,sans-Serif" font-size="10.00">/tpg/FrameExpand.hpp</text>
</a>
</g>
</g>
<!-- Node1&#45;&gt;Node2 -->
<g id="edge1_Node000001_Node000002" class="edge">
<title>Node1&#45;&gt;Node2</title>
<g id="a_edge1_Node000001_Node000002"><a xlink:title=" ">
<path fill="none" stroke="#63b8ff" d="M626.5,-333.36C626.5,-325.16 626.5,-316.64 626.5,-309"/>
<polygon fill="#63b8ff" stroke="#63b8ff" points="623,-333.1 626.5,-343.1 630,-333.1 623,-333.1"/>
</a>
</g>
</g>
<!-- Node3 -->
<g id="Node000003" class="node">
<title>Node3</title>
<g id="a_Node000003"><a xlink:href="ProcessAVX2_8hpp.html" target="_top" xlink:title=" ">
<polygon fill="white" stroke="#666666" points="187.38,-130.75 35.62,-130.75 35.62,-77.75 187.38,-77.75 187.38,-130.75"/>
<text text-anchor="start" x="43.62" y="-117.25" font-family="Helvetica,sans-Serif" font-size="10.00">/github/workspace/dev</text>
<text text-anchor="start" x="43.62" y="-106" font-family="Helvetica,sans-Serif" font-size="10.00">_area/sourcecode/fdreadoutlibs</text>
<text text-anchor="start" x="43.62" y="-94.75" font-family="Helvetica,sans-Serif" font-size="10.00">/include/fdreadoutlibs/wibeth</text>
<text text-anchor="middle" x="111.5" y="-83.5" font-family="Helvetica,sans-Serif" font-size="10.00">/tpg/ProcessAVX2.hpp</text>
</a>
</g>
</g>
<!-- Node1&#45;&gt;Node3 -->
<g id="edge30_Node000001_Node000003" class="edge">
<title>Node1&#45;&gt;Node3</title>
<g id="a_edge30_Node000001_Node000003"><a xlink:title=" ">
<path fill="none" stroke="#63b8ff" d="M539.06,-361.33C483.66,-353.12 411.73,-337.63 353.5,-308.75 261.04,-262.9 173.87,-174.64 134.08,-130.99"/>
<polygon fill="#63b8ff" stroke="#63b8ff" points="538.37,-364.77 548.77,-362.71 539.36,-357.84 538.37,-364.77"/>
</a>
</g>
</g>
<!-- Node4 -->
<g id="Node000004" class="node">
<title>Node4</title>
<g id="a_Node000004"><a xlink:href="WIBEthFrameProcessor_8cpp.html" target="_top" xlink:title=" ">
<polygon fill="white" stroke="#666666" points="371.5,-41.75 181.5,-41.75 181.5,0 371.5,0 371.5,-41.75"/>
<text text-anchor="start" x="189.5" y="-28.25" font-family="Helvetica,sans-Serif" font-size="10.00">/github/workspace/dev</text>
<text text-anchor="start" x="189.5" y="-17" font-family="Helvetica,sans-Serif" font-size="10.00">_area/sourcecode/fdreadoutlibs</text>
<text text-anchor="middle" x="276.5" y="-5.75" font-family="Helvetica,sans-Serif" font-size="10.00">/src/wibeth/WIBEthFrameProcessor.cpp</text>
</a>
</g>
</g>
<!-- Node1&#45;&gt;Node4 -->
<g id="edge40_Node000001_Node000004" class="edge">
<title>Node1&#45;&gt;Node4</title>
<g id="a_edge40_Node000001_Node000004"><a xlink:title=" ">
<path fill="none" stroke="#63b8ff" d="M539.04,-368.24C396.48,-359.45 120.46,-317.88 26.5,-130.75 15.93,-109.7 11.77,-96.13 26.5,-77.75 31.59,-71.39 112.73,-54.01 181.21,-40.31"/>
<polygon fill="#63b8ff" stroke="#63b8ff" points="538.63,-371.72 548.81,-368.8 539.03,-364.73 538.63,-371.72"/>
</a>
</g>
</g>
<!-- Node6 -->
<g id="Node000006" class="node">
<title>Node6</title>
<g id="a_Node000006"><a xlink:href="ProcessAVX2FIR_8hpp.html" target="_top" xlink:title=" ">
<polygon fill="white" stroke="#666666" points="1431.38,-130.75 1279.62,-130.75 1279.62,-77.75 1431.38,-77.75 1431.38,-130.75"/>
<text text-anchor="start" x="1287.62" y="-117.25" font-family="Helvetica,sans-Serif" font-size="10.00">/github/workspace/dev</text>
<text text-anchor="start" x="1287.62" y="-106" font-family="Helvetica,sans-Serif" font-size="10.00">_area/sourcecode/fdreadoutlibs</text>
<text text-anchor="start" x="1287.62" y="-94.75" font-family="Helvetica,sans-Serif" font-size="10.00">/include/fdreadoutlibs/wibeth</text>
<text text-anchor="middle" x="1355.5" y="-83.5" font-family="Helvetica,sans-Serif" font-size="10.00">/tpg/ProcessAVX2FIR.hpp</text>
</a>
</g>
</g>
<!-- Node1&#45;&gt;Node6 -->
<g id="edge31_Node000001_Node000006" class="edge">
<title>Node1&#45;&gt;Node6</title>
<g id="a_edge31_Node000001_Node000006"><a xlink:title=" ">
<path fill="none" stroke="#63b8ff" d="M713.88,-370.74C860.31,-370.04 1147.5,-361.7 1231.5,-308.75 1297.65,-267.05 1333.71,-176.01 1348.06,-131.2"/>
<polygon fill="#63b8ff" stroke="#63b8ff" points="714.23,-367.24 704.24,-370.77 714.25,-374.24 714.23,-367.24"/>
</a>
</g>
</g>
<!-- Node8 -->
<g id="Node000008" class="node">
<title>Node8</title>
<g id="a_Node000008"><a xlink:href="ProcessAbsRSAVX2_8hpp.html" target="_top" xlink:title=" ">
<polygon fill="white" stroke="#666666" points="751.38,-130.75 599.62,-130.75 599.62,-77.75 751.38,-77.75 751.38,-130.75"/>
<text text-anchor="start" x="607.62" y="-117.25" font-family="Helvetica,sans-Serif" font-size="10.00">/github/workspace/dev</text>
<text text-anchor="start" x="607.62" y="-106" font-family="Helvetica,sans-Serif" font-size="10.00">_area/sourcecode/fdreadoutlibs</text>
<text text-anchor="start" x="607.62" y="-94.75" font-family="Helvetica,sans-Serif" font-size="10.00">/include/fdreadoutlibs/wibeth</text>
<text text-anchor="middle" x="675.5" y="-83.5" font-family="Helvetica,sans-Serif" font-size="10.00">/tpg/ProcessAbsRSAVX2.hpp</text>
</a>
</g>
</g>
<!-- Node1&#45;&gt;Node8 -->
<g id="edge32_Node000001_Node000008" class="edge">
<title>Node1&#45;&gt;Node8</title>
<g id="a_edge32_Node000001_Node000008"><a xlink:title=" ">
<path fill="none" stroke="#63b8ff" d="M557.84,-339.27C481.98,-300.8 377.05,-232.22 429.5,-166.75 475.34,-109.53 519.56,-149.3 590.5,-130.75 593.48,-129.97 596.52,-129.16 599.58,-128.32"/>
<polygon fill="#63b8ff" stroke="#63b8ff" points="555.99,-342.26 566.5,-343.59 559.12,-336 555.99,-342.26"/>
</a>
</g>
</g>
<!-- Node10 -->
<g id="Node000010" class="node">
<title>Node10</title>
<g id="a_Node000010"><a xlink:href="ProcessNaive_8hpp.html" target="_top" xlink:title=" ">
<polygon fill="white" stroke="#666666" points="1091.38,-130.75 939.62,-130.75 939.62,-77.75 1091.38,-77.75 1091.38,-130.75"/>
<text text-anchor="start" x="947.62" y="-117.25" font-family="Helvetica,sans-Serif" font-size="10.00">/github/workspace/dev</text>
<text text-anchor="start" x="947.62" y="-106" font-family="Helvetica,sans-Serif" font-size="10.00">_area/sourcecode/fdreadoutlibs</text>
<text text-anchor="start" x="947.62" y="-94.75" font-family="Helvetica,sans-Serif" font-size="10.00">/include/fdreadoutlibs/wibeth</text>
<text text-anchor="middle" x="1015.5" y="-83.5" font-family="Helvetica,sans-Serif" font-size="10.00">/tpg/ProcessNaive.hpp</text>
</a>
</g>
</g>
<!-- Node1&#45;&gt;Node10 -->
<g id="edge33_Node000001_Node000010" class="edge">
<title>Node1&#45;&gt;Node10</title>
<g id="a_edge33_Node000001_Node000010"><a xlink:title=" ">
<path fill="none" stroke="#63b8ff" d="M713.72,-347.34C742.52,-337.74 773.96,-324.98 800.5,-308.75 882.27,-258.74 959.01,-173.59 994.65,-131.05"/>
<polygon fill="#63b8ff" stroke="#63b8ff" points="712.7,-343.99 704.26,-350.4 714.86,-350.65 712.7,-343.99"/>
</a>
</g>
</g>
<!-- Node11 -->
<g id="Node000011" class="node">
<title>Node11</title>
<g id="a_Node000011"><a xlink:href="ProcessNaiveFIR_8hpp.html" target="_top" xlink:title=" ">
<polygon fill="white" stroke="#666666" points="395.38,-130.75 243.62,-130.75 243.62,-77.75 395.38,-77.75 395.38,-130.75"/>
<text text-anchor="start" x="251.62" y="-117.25" font-family="Helvetica,sans-Serif" font-size="10.00">/github/workspace/dev</text>
<text text-anchor="start" x="251.62" y="-106" font-family="Helvetica,sans-Serif" font-size="10.00">_area/sourcecode/fdreadoutlibs</text>
<text text-anchor="start" x="251.62" y="-94.75" font-family="Helvetica,sans-Serif" font-size="10.00">/include/fdreadoutlibs/wibeth</text>
<text text-anchor="middle" x="319.5" y="-83.5" font-family="Helvetica,sans-Serif" font-size="10.00">/tpg/ProcessNaiveFIR.hpp</text>
</a>
</g>
</g>
<!-- Node1&#45;&gt;Node11 -->
<g id="edge34_Node000001_Node000011" class="edge">
<title>Node1&#45;&gt;Node11</title>
<g id="a_edge34_Node000001_Node000011"><a xlink:title=" ">
<path fill="none" stroke="#63b8ff" d="M538.93,-366.05C491.33,-359.48 434.41,-344.05 395.5,-308.75 343.13,-261.24 326.7,-174.16 321.66,-130.96"/>
<polygon fill="#63b8ff" stroke="#63b8ff" points="538.33,-369.51 548.69,-367.28 539.2,-362.56 538.33,-369.51"/>
</a>
</g>
</g>
<!-- Node12 -->
<g id="Node000012" class="node">
<title>Node12</title>
<g id="a_Node000012"><a xlink:href="ProcessNaiveRS_8hpp.html" target="_top" xlink:title=" ">
<polygon fill="white" stroke="#666666" points="921.38,-130.75 769.62,-130.75 769.62,-77.75 921.38,-77.75 921.38,-130.75"/>
<text text-anchor="start" x="777.62" y="-117.25" font-family="Helvetica,sans-Serif" font-size="10.00">/github/workspace/dev</text>
<text text-anchor="start" x="777.62" y="-106" font-family="Helvetica,sans-Serif" font-size="10.00">_area/sourcecode/fdreadoutlibs</text>
<text text-anchor="start" x="777.62" y="-94.75" font-family="Helvetica,sans-Serif" font-size="10.00">/include/fdreadoutlibs/wibeth</text>
<text text-anchor="middle" x="845.5" y="-83.5" font-family="Helvetica,sans-Serif" font-size="10.00">/tpg/ProcessNaiveRS.hpp</text>
</a>
</g>
</g>
<!-- Node1&#45;&gt;Node12 -->
<g id="edge35_Node000001_Node000012" class="edge">
<title>Node1&#45;&gt;Node12</title>
<g id="a_edge35_Node000001_Node000012"><a xlink:title=" ">
<path fill="none" stroke="#63b8ff" d="M701.87,-339.24C751.01,-314.65 811.41,-275.17 841.5,-219.75 856.4,-192.31 854.53,-155.46 850.85,-131.06"/>
<polygon fill="#63b8ff" stroke="#63b8ff" points="700.39,-336.06 692.93,-343.59 703.45,-342.36 700.39,-336.06"/>
</a>
</g>
</g>
<!-- Node13 -->
<g id="Node000013" class="node">
<title>Node13</title>
<g id="a_Node000013"><a xlink:href="ProcessStandardRSAVX2_8hpp.html" target="_top" xlink:title=" ">
<polygon fill="white" stroke="#666666" points="581.25,-130.75 413.75,-130.75 413.75,-77.75 581.25,-77.75 581.25,-130.75"/>
<text text-anchor="start" x="421.75" y="-117.25" font-family="Helvetica,sans-Serif" font-size="10.00">/github/workspace/dev</text>
<text text-anchor="start" x="421.75" y="-106" font-family="Helvetica,sans-Serif" font-size="10.00">_area/sourcecode/fdreadoutlibs</text>
<text text-anchor="start" x="421.75" y="-94.75" font-family="Helvetica,sans-Serif" font-size="10.00">/include/fdreadoutlibs/wibeth</text>
<text text-anchor="middle" x="497.5" y="-83.5" font-family="Helvetica,sans-Serif" font-size="10.00">/tpg/ProcessStandardRSAVX2.hpp</text>
</a>
</g>
</g>
<!-- Node1&#45;&gt;Node13 -->
<g id="edge36_Node000001_Node000013" class="edge">
<title>Node1&#45;&gt;Node13</title>
<g id="a_edge36_Node000001_Node000013"><a xlink:title=" ">
<path fill="none" stroke="#63b8ff" d="M539.39,-360.18C503.25,-351.83 463.54,-336.58 436.5,-308.75 391.79,-262.73 381,-223.73 410.5,-166.75 418.07,-152.13 430.89,-140.24 444.4,-130.96"/>
<polygon fill="#63b8ff" stroke="#63b8ff" points="538.48,-363.57 548.99,-362.24 539.95,-356.72 538.48,-363.57"/>
</a>
</g>
</g>
<!-- Node19 -->
<g id="Node000019" class="node">
<title>Node19</title>
<g id="a_Node000019"><a xlink:href="RegisterToChannelNumber_8cpp.html" target="_top" xlink:title=" ">
<polygon fill="white" stroke="#666666" points="1232.75,-214.12 1014.25,-214.12 1014.25,-172.38 1232.75,-172.38 1232.75,-214.12"/>
<text text-anchor="start" x="1022.25" y="-200.62" font-family="Helvetica,sans-Serif" font-size="10.00">/github/workspace/dev</text>
<text text-anchor="start" x="1022.25" y="-189.38" font-family="Helvetica,sans-Serif" font-size="10.00">_area/sourcecode/fdreadoutlibs</text>
<text text-anchor="middle" x="1123.5" y="-178.12" font-family="Helvetica,sans-Serif" font-size="10.00">/src/wibeth/tpg/RegisterToChannelNumber.cpp</text>
</a>
</g>
</g>
<!-- Node1&#45;&gt;Node19 -->
<g id="edge41_Node000001_Node000019" class="edge">
<title>Node1&#45;&gt;Node19</title>
<g id="a_edge41_Node000001_Node000019"><a xlink:title=" ">
<path fill="none" stroke="#63b8ff" d="M713.92,-363.08C808.79,-354.05 953.06,-336.29 1000.5,-308.75 1026.73,-293.52 1021.77,-276.92 1043.5,-255.75 1059.06,-240.59 1078.32,-225.69 1094.04,-214.35"/>
<polygon fill="#63b8ff" stroke="#63b8ff" points="713.75,-359.58 704.12,-364 714.4,-366.55 713.75,-359.58"/>
</a>
</g>
</g>
<!-- Node20 -->
<g id="Node000020" class="node">
<title>Node20</title>
<g id="a_Node000020"><a xlink:href="RegisterToChannelNumber_8hpp.html" target="_top" xlink:title=" ">
<polygon fill="white" stroke="#666666" points="1222.75,-308.75 1052.25,-308.75 1052.25,-255.75 1222.75,-255.75 1222.75,-308.75"/>
<text text-anchor="start" x="1060.25" y="-295.25" font-family="Helvetica,sans-Serif" font-size="10.00">/github/workspace/dev</text>
<text text-anchor="start" x="1060.25" y="-284" font-family="Helvetica,sans-Serif" font-size="10.00">_area/sourcecode/fdreadoutlibs</text>
<text text-anchor="start" x="1060.25" y="-272.75" font-family="Helvetica,sans-Serif" font-size="10.00">/include/fdreadoutlibs/wibeth</text>
<text text-anchor="middle" x="1137.5" y="-261.5" font-family="Helvetica,sans-Serif" font-size="10.00">/tpg/RegisterToChannelNumber.hpp</text>
</a>
</g>
</g>
<!-- Node1&#45;&gt;Node20 -->
<g id="edge37_Node000001_Node000020" class="edge">
<title>Node1&#45;&gt;Node20</title>
<g id="a_edge37_Node000001_Node000020"><a xlink:title=" ">
<path fill="none" stroke="#63b8ff" d="M714.1,-359.86C797.82,-349.29 927.37,-331.29 1038.5,-308.75 1042.85,-307.87 1047.29,-306.91 1051.77,-305.91"/>
<polygon fill="#63b8ff" stroke="#63b8ff" points="713.84,-356.36 704.35,-361.08 714.71,-363.31 713.84,-356.36"/>
</a>
</g>
</g>
<!-- Node2&#45;&gt;Node3 -->
<g id="edge2_Node000002_Node000003" class="edge">
<title>Node2&#45;&gt;Node3</title>
<g id="a_edge2_Node000002_Node000003"><a xlink:title=" ">
<path fill="none" stroke="#63b8ff" d="M538.9,-270.83C476.65,-261.71 391.79,-245.75 320.5,-219.75 257.73,-196.85 190.98,-157.28 150.25,-131.18"/>
<polygon fill="#63b8ff" stroke="#63b8ff" points="538.36,-274.29 548.75,-272.24 539.35,-267.36 538.36,-274.29"/>
</a>
</g>
</g>
<!-- Node2&#45;&gt;Node4 -->
<g id="edge27_Node000002_Node000004" class="edge">
<title>Node2&#45;&gt;Node4</title>
<g id="a_edge27_Node000002_Node000004"><a xlink:title=" ">
<path fill="none" stroke="#63b8ff" d="M538.9,-270.51C484.6,-261.65 414.41,-246.1 356.5,-219.75 348.86,-216.27 238.3,-138.23 234.5,-130.75 223.83,-109.75 227.04,-100.09 234.5,-77.75 238.92,-64.51 247.84,-51.89 256.33,-42.01"/>
<polygon fill="#63b8ff" stroke="#63b8ff" points="538.31,-273.96 548.74,-272.07 539.4,-267.05 538.31,-273.96"/>
</a>
</g>
</g>
<!-- Node2&#45;&gt;Node6 -->
<g id="edge5_Node000002_Node000006" class="edge">
<title>Node2&#45;&gt;Node6</title>
<g id="a_edge5_Node000002_Node000006"><a xlink:title=" ">
<path fill="none" stroke="#63b8ff" d="M713.88,-264.14C763.85,-253.39 827.36,-238.1 882.5,-219.75 938.98,-200.95 948.15,-182.68 1005.5,-166.75 1120.02,-134.94 1154.33,-155.9 1270.5,-130.75 1273.36,-130.13 1276.27,-129.46 1279.19,-128.76"/>
<polygon fill="#63b8ff" stroke="#63b8ff" points="713.32,-260.68 704.27,-266.18 714.78,-267.53 713.32,-260.68"/>
</a>
</g>
</g>
<!-- Node2&#45;&gt;Node8 -->
<g id="edge7_Node000002_Node000008" class="edge">
<title>Node2&#45;&gt;Node8</title>
<g id="a_edge7_Node000002_Node000008"><a xlink:title=" ">
<path fill="none" stroke="#63b8ff" d="M629.91,-244.07C632.67,-221.35 637.46,-191.92 645.5,-166.75 649.37,-154.64 655.24,-141.91 660.77,-131.19"/>
<polygon fill="#63b8ff" stroke="#63b8ff" points="626.46,-243.45 628.82,-253.78 633.42,-244.23 626.46,-243.45"/>
</a>
</g>
</g>
<!-- Node2&#45;&gt;Node10 -->
<g id="edge10_Node000002_Node000010" class="edge">
<title>Node2&#45;&gt;Node10</title>
<g id="a_edge10_Node000002_Node000010"><a xlink:title=" ">
<path fill="none" stroke="#63b8ff" d="M713.71,-266.44C754.4,-257.05 802.37,-242.3 841.5,-219.75 870.91,-202.8 868.91,-186.53 896.5,-166.75 915.21,-153.34 937.25,-141.1 957.24,-131.14"/>
<polygon fill="#63b8ff" stroke="#63b8ff" points="713.19,-262.97 704.19,-268.56 714.72,-269.8 713.19,-262.97"/>
</a>
</g>
</g>
<!-- Node2&#45;&gt;Node11 -->
<g id="edge11_Node000002_Node000011" class="edge">
<title>Node2&#45;&gt;Node11</title>
<g id="a_edge11_Node000002_Node000011"><a xlink:title=" ">
<path fill="none" stroke="#63b8ff" d="M539.54,-267.65C499.73,-258.55 453.33,-243.69 416.5,-219.75 381.11,-196.75 351.67,-157.01 334.82,-130.92"/>
<polygon fill="#63b8ff" stroke="#63b8ff" points="538.59,-271.02 549.11,-269.74 540.09,-264.19 538.59,-271.02"/>
</a>
</g>
</g>
<!-- Node2&#45;&gt;Node12 -->
<g id="edge12_Node000002_Node000012" class="edge">
<title>Node2&#45;&gt;Node12</title>
<g id="a_edge12_Node000002_Node000012"><a xlink:title=" ">
<path fill="none" stroke="#63b8ff" d="M713.53,-271.43C749.55,-263.13 789,-247.84 815.5,-219.75 838.2,-195.68 844.21,-156.6 845.55,-130.91"/>
<polygon fill="#63b8ff" stroke="#63b8ff" points="713.01,-267.96 703.96,-273.48 714.47,-274.81 713.01,-267.96"/>
</a>
</g>
</g>
<!-- Node2&#45;&gt;Node13 -->
<g id="edge13_Node000002_Node000013" class="edge">
<title>Node2&#45;&gt;Node13</title>
<g id="a_edge13_Node000002_Node000013"><a xlink:title=" ">
<path fill="none" stroke="#63b8ff" d="M539.16,-276.74C498.98,-269.76 454.72,-254.05 429.5,-219.75 415.54,-200.77 419.94,-188.28 429.5,-166.75 435.64,-152.93 446.58,-140.9 457.92,-131.23"/>
<polygon fill="#63b8ff" stroke="#63b8ff" points="538.45,-280.17 548.87,-278.26 539.53,-273.26 538.45,-280.17"/>
</a>
</g>
</g>
<!-- Node15 -->
<g id="Node000015" class="node">
<title>Node15</title>
<g id="a_Node000015"><a xlink:href="ProcessingInfo_8hpp.html" target="_top" xlink:title=" ">
<polygon fill="white" stroke="#666666" points="806.38,-219.75 654.62,-219.75 654.62,-166.75 806.38,-166.75 806.38,-219.75"/>
<text text-anchor="start" x="662.62" y="-206.25" font-family="Helvetica,sans-Serif" font-size="10.00">/github/workspace/dev</text>
<text text-anchor="start" x="662.62" y="-195" font-family="Helvetica,sans-Serif" font-size="10.00">_area/sourcecode/fdreadoutlibs</text>
<text text-anchor="start" x="662.62" y="-183.75" font-family="Helvetica,sans-Serif" font-size="10.00">/include/fdreadoutlibs/wibeth</text>
<text text-anchor="middle" x="730.5" y="-172.5" font-family="Helvetica,sans-Serif" font-size="10.00">/tpg/ProcessingInfo.hpp</text>
</a>
</g>
</g>
<!-- Node2&#45;&gt;Node15 -->
<g id="edge16_Node000002_Node000015" class="edge">
<title>Node2&#45;&gt;Node15</title>
<g id="a_edge16_Node000002_Node000015"><a xlink:title=" ">
<path fill="none" stroke="#63b8ff" d="M666.09,-248.13C677.16,-238.87 689.02,-228.95 699.52,-220.17"/>
<polygon fill="#63b8ff" stroke="#63b8ff" points="664.01,-245.31 658.58,-254.41 668.5,-250.68 664.01,-245.31"/>
</a>
</g>
</g>
<!-- Node18 -->
<g id="Node000018" class="node">
<title>Node18</title>
<g id="a_Node000018"><a xlink:href="FrameExpand_8cpp.html" target="_top" xlink:title=" ">
<polygon fill="white" stroke="#666666" points="598.88,-214.12 438.12,-214.12 438.12,-172.38 598.88,-172.38 598.88,-214.12"/>
<text text-anchor="start" x="446.12" y="-200.62" font-family="Helvetica,sans-Serif" font-size="10.00">/github/workspace/dev</text>
<text text-anchor="start" x="446.12" y="-189.38" font-family="Helvetica,sans-Serif" font-size="10.00">_area/sourcecode/fdreadoutlibs</text>
<text text-anchor="middle" x="518.5" y="-178.12" font-family="Helvetica,sans-Serif" font-size="10.00">/src/wibeth/tpg/FrameExpand.cpp</text>
</a>
</g>
</g>
<!-- Node2&#45;&gt;Node18 -->
<g id="edge28_Node000002_Node000018" class="edge">
<title>Node2&#45;&gt;Node18</title>
<g id="a_edge28_Node000002_Node000018"><a xlink:title=" ">
<path fill="none" stroke="#63b8ff" d="M585.74,-248.42C571.53,-236.97 556,-224.46 543.46,-214.36"/>
<polygon fill="#63b8ff" stroke="#63b8ff" points="583.23,-250.89 593.21,-254.43 587.62,-245.43 583.23,-250.89"/>
</a>
</g>
</g>
<!-- Node2&#45;&gt;Node19 -->
<g id="edge29_Node000002_Node000019" class="edge">
<title>Node2&#45;&gt;Node19</title>
<g id="a_edge29_Node000002_Node000019"><a xlink:title=" ">
<path fill="none" stroke="#63b8ff" d="M714.04,-265.93C797.6,-251.3 923.78,-229.21 1013.96,-213.42"/>
<polygon fill="#63b8ff" stroke="#63b8ff" points="713.53,-262.46 704.29,-267.63 714.74,-269.36 713.53,-262.46"/>
</a>
</g>
</g>
<!-- Node3&#45;&gt;Node4 -->
<g id="edge3_Node000003_Node000004" class="edge">
<title>Node3&#45;&gt;Node4</title>
<g id="a_edge3_Node000003_Node000004"><a xlink:title=" ">
<path fill="none" stroke="#63b8ff" d="M174.34,-72.26C194.75,-62.19 216.88,-51.28 235.3,-42.19"/>
<polygon fill="#63b8ff" stroke="#63b8ff" points="172.94,-69.05 165.52,-76.61 176.03,-75.33 172.94,-69.05"/>
</a>
</g>
</g>
<!-- Node5 -->
<g id="Node000005" class="node">
<title>Node5</title>
<g id="a_Node000005"><a xlink:href="ProcessAVX2_8cpp.html" target="_top" xlink:title=" ">
<polygon fill="white" stroke="#666666" points="163,-41.75 0,-41.75 0,0 163,0 163,-41.75"/>
<text text-anchor="start" x="8" y="-28.25" font-family="Helvetica,sans-Serif" font-size="10.00">/github/workspace/dev</text>
<text text-anchor="start" x="8" y="-17" font-family="Helvetica,sans-Serif" font-size="10.00">_area/sourcecode/fdreadoutlibs</text>
<text text-anchor="middle" x="81.5" y="-5.75" font-family="Helvetica,sans-Serif" font-size="10.00">/src/wibeth/tpg/ProcessAVX2.cpp</text>
</a>
</g>
</g>
<!-- Node3&#45;&gt;Node5 -->
<g id="edge4_Node000003_Node000005" class="edge">
<title>Node3&#45;&gt;Node5</title>
<g id="a_edge4_Node000003_Node000005"><a xlink:title=" ">
<path fill="none" stroke="#63b8ff" d="M98.11,-66.93C94.96,-58.38 91.71,-49.58 88.93,-42.04"/>
<polygon fill="#63b8ff" stroke="#63b8ff" points="94.74,-67.91 101.48,-76.08 101.31,-65.49 94.74,-67.91"/>
</a>
</g>
</g>
<!-- Node7 -->
<g id="Node000007" class="node">
<title>Node7</title>
<g id="a_Node000007"><a xlink:href="ProcessAVX2FIR_8cpp.html" target="_top" xlink:title=" ">
<polygon fill="white" stroke="#666666" points="1450.88,-41.75 1272.12,-41.75 1272.12,0 1450.88,0 1450.88,-41.75"/>
<text text-anchor="start" x="1280.12" y="-28.25" font-family="Helvetica,sans-Serif" font-size="10.00">/github/workspace/dev</text>
<text text-anchor="start" x="1280.12" y="-17" font-family="Helvetica,sans-Serif" font-size="10.00">_area/sourcecode/fdreadoutlibs</text>
<text text-anchor="middle" x="1361.5" y="-5.75" font-family="Helvetica,sans-Serif" font-size="10.00">/src/wibeth/tpg/ProcessAVX2FIR.cpp</text>
</a>
</g>
</g>
<!-- Node6&#45;&gt;Node7 -->
<g id="edge6_Node000006_Node000007" class="edge">
<title>Node6&#45;&gt;Node7</title>
<g id="a_edge6_Node000006_Node000007"><a xlink:title=" ">
<path fill="none" stroke="#63b8ff" d="M1358.24,-66.08C1358.85,-57.8 1359.48,-49.33 1360.01,-42.04"/>
<polygon fill="#63b8ff" stroke="#63b8ff" points="1354.75,-65.76 1357.51,-75.99 1361.74,-66.28 1354.75,-65.76"/>
</a>
</g>
</g>
<!-- Node8&#45;&gt;Node4 -->
<g id="edge8_Node000008_Node000004" class="edge">
<title>Node8&#45;&gt;Node4</title>
<g id="a_edge8_Node000008_Node000004"><a xlink:title=" ">
<path fill="none" stroke="#63b8ff" d="M587.96,-77.27C496.34,-56.27 470.13,-58 380.5,-41.75 377.7,-41.24 374.85,-40.72 371.98,-40.19"/>
<polygon fill="#63b8ff" stroke="#63b8ff" points="587.16,-80.67 597.69,-79.53 588.74,-73.85 587.16,-80.67"/>
</a>
</g>
</g>
<!-- Node9 -->
<g id="Node000009" class="node">
<title>Node9</title>
<g id="a_Node000009"><a xlink:href="ProcessAbsRSAVX2_8cpp.html" target="_top" xlink:title=" ">
<polygon fill="white" stroke="#666666" points="817.38,-41.75 623.62,-41.75 623.62,0 817.38,0 817.38,-41.75"/>
<text text-anchor="start" x="631.62" y="-28.25" font-family="Helvetica,sans-Serif" font-size="10.00">/github/workspace/dev</text>
<text text-anchor="start" x="631.62" y="-17" font-family="Helvetica,sans-Serif" font-size="10.00">_area/sourcecode/fdreadoutlibs</text>
<text text-anchor="middle" x="720.5" y="-5.75" font-family="Helvetica,sans-Serif" font-size="10.00">/src/wibeth/tpg/ProcessAbsRSAVX2.cpp</text>
</a>
</g>
</g>
<!-- Node8&#45;&gt;Node9 -->
<g id="edge9_Node000008_Node000009" class="edge">
<title>Node8&#45;&gt;Node9</title>
<g id="a_edge9_Node000008_Node000009"><a xlink:title=" ">
<path fill="none" stroke="#63b8ff" d="M695.27,-67.5C700.09,-58.78 705.09,-49.74 709.35,-42.04"/>
<polygon fill="#63b8ff" stroke="#63b8ff" points="692.25,-65.73 690.47,-76.18 698.37,-69.12 692.25,-65.73"/>
</a>
</g>
</g>
<!-- Node13&#45;&gt;Node4 -->
<g id="edge14_Node000013_Node000004" class="edge">
<title>Node13&#45;&gt;Node4</title>
<g id="a_edge14_Node000013_Node000004"><a xlink:title=" ">
<path fill="none" stroke="#63b8ff" d="M416.32,-73.36C388.16,-62.99 357.26,-51.61 331.68,-42.19"/>
<polygon fill="#63b8ff" stroke="#63b8ff" points="414.95,-76.58 425.55,-76.76 417.37,-70.02 414.95,-76.58"/>
</a>
</g>
</g>
<!-- Node14 -->
<g id="Node000014" class="node">
<title>Node14</title>
<g id="a_Node000014"><a xlink:href="ProcessStandardRSAVX2_8cpp.html" target="_top" xlink:title=" ">
<polygon fill="white" stroke="#666666" points="605.25,-41.75 389.75,-41.75 389.75,0 605.25,0 605.25,-41.75"/>
<text text-anchor="start" x="397.75" y="-28.25" font-family="Helvetica,sans-Serif" font-size="10.00">/github/workspace/dev</text>
<text text-anchor="start" x="397.75" y="-17" font-family="Helvetica,sans-Serif" font-size="10.00">_area/sourcecode/fdreadoutlibs</text>
<text text-anchor="middle" x="497.5" y="-5.75" font-family="Helvetica,sans-Serif" font-size="10.00">/src/wibeth/tpg/ProcessStandardRSAVX2.cpp</text>
</a>
</g>
</g>
<!-- Node13&#45;&gt;Node14 -->
<g id="edge15_Node000013_Node000014" class="edge">
<title>Node13&#45;&gt;Node14</title>
<g id="a_edge15_Node000013_Node000014"><a xlink:title=" ">
<path fill="none" stroke="#63b8ff" d="M497.5,-66.08C497.5,-57.8 497.5,-49.33 497.5,-42.04"/>
<polygon fill="#63b8ff" stroke="#63b8ff" points="494,-65.99 497.5,-75.99 501,-65.99 494,-65.99"/>
</a>
</g>
</g>
<!-- Node15&#45;&gt;Node3 -->
<g id="edge20_Node000015_Node000003" class="edge">
<title>Node15&#45;&gt;Node3</title>
<g id="a_edge20_Node000015_Node000003"><a xlink:title=" ">
<path fill="none" stroke="#63b8ff" d="M643.34,-172.97C631.34,-170.67 619.14,-168.51 607.5,-166.75 442.83,-141.81 399.17,-155.69 234.5,-130.75 219.3,-128.45 203.14,-125.48 187.71,-122.39"/>
<polygon fill="#63b8ff" stroke="#63b8ff" points="642.32,-176.33 652.81,-174.82 643.67,-169.46 642.32,-176.33"/>
</a>
</g>
</g>
<!-- Node15&#45;&gt;Node6 -->
<g id="edge21_Node000015_Node000006" class="edge">
<title>Node15&#45;&gt;Node6</title>
<g id="a_edge21_Node000015_Node000006"><a xlink:title=" ">
<path fill="none" stroke="#63b8ff" d="M817.89,-177.88C843.21,-173.97 870.92,-169.94 896.5,-166.75 1062.2,-146.06 1106.63,-162.9 1270.5,-130.75 1273.37,-130.19 1276.29,-129.57 1279.22,-128.9"/>
<polygon fill="#63b8ff" stroke="#63b8ff" points="817.66,-174.37 808.31,-179.37 818.73,-181.29 817.66,-174.37"/>
</a>
</g>
</g>
<!-- Node15&#45;&gt;Node8 -->
<g id="edge22_Node000015_Node000008" class="edge">
<title>Node15&#45;&gt;Node8</title>
<g id="a_edge22_Node000015_Node000008"><a xlink:title=" ">
<path fill="none" stroke="#63b8ff" d="M708.25,-157.05C702.74,-148.34 696.94,-139.17 691.78,-131"/>
<polygon fill="#63b8ff" stroke="#63b8ff" points="705.18,-158.76 713.49,-165.34 711.1,-155.02 705.18,-158.76"/>
</a>
</g>
</g>
<!-- Node15&#45;&gt;Node10 -->
<g id="edge23_Node000015_Node000010" class="edge">
<title>Node15&#45;&gt;Node10</title>
<g id="a_edge23_Node000015_Node000010"><a xlink:title=" ">
<path fill="none" stroke="#63b8ff" d="M817.66,-165.64C856.53,-153.78 901.92,-139.92 939.41,-128.48"/>
<polygon fill="#63b8ff" stroke="#63b8ff" points="816.86,-162.23 808.32,-168.49 818.91,-168.92 816.86,-162.23"/>
</a>
</g>
</g>
<!-- Node15&#45;&gt;Node11 -->
<g id="edge24_Node000015_Node000011" class="edge">
<title>Node15&#45;&gt;Node11</title>
<g id="a_edge24_Node000015_Node000011"><a xlink:title=" ">
<path fill="none" stroke="#63b8ff" d="M643.2,-173.83C631.21,-171.39 619.06,-168.97 607.5,-166.75 517.52,-149.45 493.64,-151.95 404.5,-130.75 401.65,-130.07 398.76,-129.36 395.84,-128.61"/>
<polygon fill="#63b8ff" stroke="#63b8ff" points="642.15,-177.18 652.65,-175.76 643.55,-170.33 642.15,-177.18"/>
</a>
</g>
</g>
<!-- Node15&#45;&gt;Node12 -->
<g id="edge25_Node000015_Node000012" class="edge">
<title>Node15&#45;&gt;Node12</title>
<g id="a_edge25_Node000015_Node000012"><a xlink:title=" ">
<path fill="none" stroke="#63b8ff" d="M773.55,-159.68C785.99,-150.27 799.41,-140.12 811.24,-131.17"/>
<polygon fill="#63b8ff" stroke="#63b8ff" points="771.76,-156.65 765.9,-165.47 775.99,-162.23 771.76,-156.65"/>
</a>
</g>
</g>
<!-- Node15&#45;&gt;Node13 -->
<g id="edge26_Node000015_Node000013" class="edge">
<title>Node15&#45;&gt;Node13</title>
<g id="a_edge26_Node000015_Node000013"><a xlink:title=" ">
<path fill="none" stroke="#63b8ff" d="M650.26,-162.29C623.08,-152.14 592.98,-140.9 566.73,-131.1"/>
<polygon fill="#63b8ff" stroke="#63b8ff" points="648.9,-165.52 659.49,-165.74 651.35,-158.96 648.9,-165.52"/>
</a>
</g>
</g>
<!-- Node16 -->
<g id="Node000016" class="node">
<title>Node16</title>
<g id="a_Node000016"><a xlink:href="WIBEthFrameProcessor_8hpp.html" target="_top" xlink:title=" ">
<polygon fill="white" stroke="#666666" points="1261.38,-130.75 1109.62,-130.75 1109.62,-77.75 1261.38,-77.75 1261.38,-130.75"/>
<text text-anchor="start" x="1117.62" y="-117.25" font-family="Helvetica,sans-Serif" font-size="10.00">/github/workspace/dev</text>
<text text-anchor="start" x="1117.62" y="-106" font-family="Helvetica,sans-Serif" font-size="10.00">_area/sourcecode/fdreadoutlibs</text>
<text text-anchor="start" x="1117.62" y="-94.75" font-family="Helvetica,sans-Serif" font-size="10.00">/include/fdreadoutlibs/wibeth</text>
<text text-anchor="middle" x="1185.5" y="-83.5" font-family="Helvetica,sans-Serif" font-size="10.00">/WIBEthFrameProcessor.hpp</text>
</a>
</g>
</g>
<!-- Node15&#45;&gt;Node16 -->
<g id="edge17_Node000015_Node000016" class="edge">
<title>Node15&#45;&gt;Node16</title>
<g id="a_edge17_Node000015_Node000016"><a xlink:title=" ">
<path fill="none" stroke="#63b8ff" d="M817.89,-179.03C909.8,-164.9 1048.21,-142.89 1100.5,-130.75 1103.35,-130.09 1106.25,-129.38 1109.17,-128.65"/>
<polygon fill="#63b8ff" stroke="#63b8ff" points="817.5,-175.55 808.14,-180.53 818.56,-182.47 817.5,-175.55"/>
</a>
</g>
</g>
<!-- Node16&#45;&gt;Node4 -->
<g id="edge19_Node000016_Node000004" class="edge">
<title>Node16&#45;&gt;Node4</title>
<g id="a_edge19_Node000016_Node000004"><a xlink:title=" ">
<path fill="none" stroke="#63b8ff" d="M1097.94,-77.5C782.71,-24.63 694.89,-79.47 380.5,-41.75 377.67,-41.41 374.8,-41.04 371.91,-40.64"/>
<polygon fill="#63b8ff" stroke="#63b8ff" points="1097.31,-80.95 1107.76,-79.18 1098.49,-74.05 1097.31,-80.95"/>
</a>
</g>
</g>
<!-- Node17 -->
<g id="Node000017" class="node">
<title>Node17</title>
<g id="a_Node000017"><a xlink:href="FDReadoutlibs_8cpp.html" target="_top" xlink:title=" ">
<polygon fill="white" stroke="#666666" points="1254.38,-41.75 1102.62,-41.75 1102.62,0 1254.38,0 1254.38,-41.75"/>
<text text-anchor="start" x="1110.62" y="-28.25" font-family="Helvetica,sans-Serif" font-size="10.00">/github/workspace/dev</text>
<text text-anchor="start" x="1110.62" y="-17" font-family="Helvetica,sans-Serif" font-size="10.00">_area/sourcecode/fdreadoutlibs</text>
<text text-anchor="middle" x="1178.5" y="-5.75" font-family="Helvetica,sans-Serif" font-size="10.00">/src/FDReadoutlibs.cpp</text>
</a>
</g>
</g>
<!-- Node16&#45;&gt;Node17 -->
<g id="edge18_Node000016_Node000017" class="edge">
<title>Node16&#45;&gt;Node17</title>
<g id="a_edge18_Node000016_Node000017"><a xlink:title=" ">
<path fill="none" stroke="#63b8ff" d="M1182.3,-66.08C1181.59,-57.8 1180.86,-49.33 1180.23,-42.04"/>
<polygon fill="#63b8ff" stroke="#63b8ff" points="1178.81,-66.33 1183.16,-75.99 1185.79,-65.73 1178.81,-66.33"/>
</a>
</g>
</g>
<!-- Node20&#45;&gt;Node16 -->
<g id="edge38_Node000020_Node000016" class="edge">
<title>Node20&#45;&gt;Node16</title>
<g id="a_edge38_Node000020_Node000016"><a xlink:title=" ">
<path fill="none" stroke="#63b8ff" d="M1213.99,-249.06C1225,-241.1 1234.84,-231.42 1241.5,-219.75 1253.17,-199.29 1250,-188.72 1241.5,-166.75 1236.34,-153.42 1226.8,-141.2 1217.03,-131.23"/>
<polygon fill="#63b8ff" stroke="#63b8ff" points="1212.18,-246.07 1205.77,-254.51 1216.04,-251.9 1212.18,-246.07"/>
</a>
</g>
</g>
<!-- Node20&#45;&gt;Node19 -->
<g id="edge39_Node000020_Node000019" class="edge">
<title>Node20&#45;&gt;Node19</title>
<g id="a_edge39_Node000020_Node000019"><a xlink:title=" ">
<path fill="none" stroke="#63b8ff" d="M1131.57,-244.38C1129.92,-234.13 1128.19,-223.37 1126.75,-214.46"/>
<polygon fill="#63b8ff" stroke="#63b8ff" points="1128.09,-244.81 1133.13,-254.12 1135,-243.69 1128.09,-244.81"/>
</a>
</g>
</g>
</g>
</svg>
