<?xml version="1.0" encoding="UTF-8" standalone="no"?>
<!DOCTYPE svg PUBLIC "-//W3C//DTD SVG 1.1//EN"
 "http://www.w3.org/Graphics/SVG/1.1/DTD/svg11.dtd">
<!-- Generated by graphviz version 9.0.0 (20230911.1827)
 -->
<!-- Title: /github/workspace/dev_area/sourcecode/trigger/include/trigger/TriggerCandidate_serialization.hpp Pages: 1 -->
<svg width="1565pt" height="548pt"
 viewBox="0.00 0.00 1565.06 548.00" xmlns="http://www.w3.org/2000/svg" xmlns:xlink="http://www.w3.org/1999/xlink">
<g id="graph0" class="graph" transform="scale(1 1) rotate(0) translate(4 544)">
<title>/github/workspace/dev_area/sourcecode/trigger/include/trigger/TriggerCandidate_serialization.hpp</title>
<!-- Node1 -->
<g id="Node000001" class="node">
<title>Node1</title>
<g id="a_Node000001"><a xlink:title=" ">
<polygon fill="#999999" stroke="#666666" points="518.56,-540 362.31,-540 362.31,-487 518.56,-487 518.56,-540"/>
<text text-anchor="start" x="370.31" y="-526.5" font-family="Helvetica,sans-Serif" font-size="10.00">/github/workspace/dev</text>
<text text-anchor="start" x="370.31" y="-515.25" font-family="Helvetica,sans-Serif" font-size="10.00">_area/sourcecode/trigger</text>
<text text-anchor="start" x="370.31" y="-504" font-family="Helvetica,sans-Serif" font-size="10.00">/include/trigger/TriggerCandidate</text>
<text text-anchor="middle" x="440.43" y="-492.75" font-family="Helvetica,sans-Serif" font-size="10.00">_serialization.hpp</text>
</a>
</g>
</g>
<!-- Node2 -->
<g id="Node000002" class="node">
<title>Node2</title>
<g id="a_Node000002"><a xlink:href="Serialization_8hpp.html" target="_top" xlink:title=" ">
<polygon fill="white" stroke="#666666" points="419.68,-318 279.18,-318 279.18,-298.75 419.68,-298.75 419.68,-318"/>
<text text-anchor="middle" x="349.43" y="-304.5" font-family="Helvetica,sans-Serif" font-size="10.00">serialization/Serialization.hpp</text>
</a>
</g>
</g>
<!-- Node1&#45;&gt;Node2 -->
<g id="edge1_Node000001_Node000002" class="edge">
<title>Node1&#45;&gt;Node2</title>
<g id="a_edge1_Node000001_Node000002"><a xlink:title=" ">
<path fill="none" stroke="#63b8ff" d="M406.87,-486.79C395.92,-476.76 384.71,-464.44 377.43,-451 356.11,-411.63 350.91,-358.24 349.72,-329.57"/>
<polygon fill="#63b8ff" stroke="#63b8ff" points="353.22,-329.69 349.45,-319.79 346.23,-329.88 353.22,-329.69"/>
</a>
</g>
</g>
<!-- Node33 -->
<g id="Node000033" class="node">
<title>Node33</title>
<g id="a_Node000033"><a xlink:href="TriggerActivity__serialization_8hpp.html" target="_top" xlink:title=" ">
<polygon fill="white" stroke="#666666" points="494.56,-451 386.31,-451 386.31,-420.5 494.56,-420.5 494.56,-451"/>
<text text-anchor="start" x="394.31" y="-437.5" font-family="Helvetica,sans-Serif" font-size="10.00">trigger/TriggerActivity</text>
<text text-anchor="middle" x="440.43" y="-426.25" font-family="Helvetica,sans-Serif" font-size="10.00">_serialization.hpp</text>
</a>
</g>
</g>
<!-- Node1&#45;&gt;Node33 -->
<g id="edge44_Node000001_Node000033" class="edge">
<title>Node1&#45;&gt;Node33</title>
<g id="a_edge44_Node000001_Node000033"><a xlink:title=" ">
<path fill="none" stroke="#63b8ff" d="M440.43,-486.85C440.43,-479.08 440.43,-470.54 440.43,-462.74"/>
<polygon fill="#63b8ff" stroke="#63b8ff" points="443.93,-462.84 440.43,-452.84 436.93,-462.84 443.93,-462.84"/>
</a>
</g>
</g>
<!-- Node40 -->
<g id="Node000040" class="node">
<title>Node40</title>
<g id="a_Node000040"><a xlink:title=" ">
<polygon fill="#e0e0e0" stroke="#999999" points="668.18,-445.38 512.68,-445.38 512.68,-426.12 668.18,-426.12 668.18,-445.38"/>
<text text-anchor="middle" x="590.43" y="-431.88" font-family="Helvetica,sans-Serif" font-size="10.00">triggeralgs/TriggerCandidate.hpp</text>
</a>
</g>
</g>
<!-- Node1&#45;&gt;Node40 -->
<g id="edge53_Node000001_Node000040" class="edge">
<title>Node1&#45;&gt;Node40</title>
<g id="a_edge53_Node000001_Node000040"><a xlink:title=" ">
<path fill="none" stroke="#63b8ff" d="M491.64,-486.64C515.27,-474.71 542.41,-461 562.27,-450.98"/>
<polygon fill="#63b8ff" stroke="#63b8ff" points="563.77,-454.13 571.12,-446.5 560.62,-447.89 563.77,-454.13"/>
</a>
</g>
</g>
<!-- Node3 -->
<g id="Node000003" class="node">
<title>Node3</title>
<g id="a_Node000003"><a xlink:href="Issue_8hpp.html" target="_top" xlink:title=" ">
<polygon fill="white" stroke="#666666" points="516.68,-262.75 442.18,-262.75 442.18,-243.5 516.68,-243.5 516.68,-262.75"/>
<text text-anchor="middle" x="479.43" y="-249.25" font-family="Helvetica,sans-Serif" font-size="10.00">ers/Issue.hpp</text>
</a>
</g>
</g>
<!-- Node2&#45;&gt;Node3 -->
<g id="edge2_Node000002_Node000003" class="edge">
<title>Node2&#45;&gt;Node3</title>
<g id="a_edge2_Node000002_Node000003"><a xlink:title=" ">
<path fill="none" stroke="#63b8ff" d="M371.49,-298.34C392.12,-289.89 423.22,-277.15 446.74,-267.52"/>
<polygon fill="#63b8ff" stroke="#63b8ff" points="447.95,-270.81 455.87,-263.78 445.29,-264.33 447.95,-270.81"/>
</a>
</g>
</g>
<!-- Node8 -->
<g id="Node000008" class="node">
<title>Node8</title>
<g id="a_Node000008"><a xlink:title=" ">
<polygon fill="#e0e0e0" stroke="#999999" points="517.43,-74.5 477.43,-74.5 477.43,-55.25 517.43,-55.25 517.43,-74.5"/>
<text text-anchor="middle" x="497.43" y="-61" font-family="Helvetica,sans-Serif" font-size="10.00">string</text>
</a>
</g>
</g>
<!-- Node2&#45;&gt;Node8 -->
<g id="edge42_Node000002_Node000008" class="edge">
<title>Node2&#45;&gt;Node8</title>
<g id="a_edge42_Node000002_Node000008"><a xlink:title=" ">
<path fill="none" stroke="#63b8ff" d="M420.04,-301.66C646.62,-282.59 1344.36,-218 1407.43,-141 1416.02,-130.51 1416.78,-120.32 1407.43,-110.5 1376.51,-78.02 685.89,-68.06 528.96,-66.22"/>
<polygon fill="#63b8ff" stroke="#63b8ff" points="529.36,-62.72 519.32,-66.11 529.28,-69.72 529.36,-62.72"/>
</a>
</g>
</g>
<!-- Node15 -->
<g id="Node000015" class="node">
<title>Node15</title>
<g id="a_Node000015"><a xlink:title=" ">
<polygon fill="#e0e0e0" stroke="#999999" points="284.93,-74.5 241.93,-74.5 241.93,-55.25 284.93,-55.25 284.93,-74.5"/>
<text text-anchor="middle" x="263.43" y="-61" font-family="Helvetica,sans-Serif" font-size="10.00">vector</text>
</a>
</g>
</g>
<!-- Node2&#45;&gt;Node15 -->
<g id="edge43_Node000002_Node000015" class="edge">
<title>Node2&#45;&gt;Node15</title>
<g id="a_edge43_Node000002_Node000015"><a xlink:title=" ">
<path fill="none" stroke="#63b8ff" d="M278.94,-308.29C191.74,-307.74 50.7,-300.78 17.43,-262.75 -34.92,-202.89 43.93,-152.54 111.43,-110.5 148.55,-87.39 198.18,-75.77 230.48,-70.29"/>
<polygon fill="#63b8ff" stroke="#63b8ff" points="230.71,-73.79 240.04,-68.77 229.61,-66.88 230.71,-73.79"/>
</a>
</g>
</g>
<!-- Node29 -->
<g id="Node000029" class="node">
<title>Node29</title>
<g id="a_Node000029"><a xlink:title=" ">
<polygon fill="#e0e0e0" stroke="#999999" points="144.06,-262.75 26.81,-262.75 26.81,-243.5 144.06,-243.5 144.06,-262.75"/>
<text text-anchor="middle" x="85.43" y="-249.25" font-family="Helvetica,sans-Serif" font-size="10.00">boost/preprocessor.hpp</text>
</a>
</g>
</g>
<!-- Node2&#45;&gt;Node29 -->
<g id="edge38_Node000002_Node000029" class="edge">
<title>Node2&#45;&gt;Node29</title>
<g id="a_edge38_Node000002_Node000029"><a xlink:title=" ">
<path fill="none" stroke="#63b8ff" d="M304.35,-298.28C259.36,-289.21 190.12,-275.24 141.58,-265.45"/>
<polygon fill="#63b8ff" stroke="#63b8ff" points="142.31,-262.03 131.81,-263.48 140.93,-268.89 142.31,-262.03"/>
</a>
</g>
</g>
<!-- Node30 -->
<g id="Node000030" class="node">
<title>Node30</title>
<g id="a_Node000030"><a xlink:title=" ">
<polygon fill="#e0e0e0" stroke="#999999" points="236.31,-262.75 162.56,-262.75 162.56,-243.5 236.31,-243.5 236.31,-262.75"/>
<text text-anchor="middle" x="199.43" y="-249.25" font-family="Helvetica,sans-Serif" font-size="10.00">msgpack.hpp</text>
</a>
</g>
</g>
<!-- Node2&#45;&gt;Node30 -->
<g id="edge39_Node000002_Node000030" class="edge">
<title>Node2&#45;&gt;Node30</title>
<g id="a_edge39_Node000002_Node000030"><a xlink:title=" ">
<path fill="none" stroke="#63b8ff" d="M323.99,-298.34C299.75,-289.74 263,-276.69 235.69,-267"/>
<polygon fill="#63b8ff" stroke="#63b8ff" points="237.03,-263.76 226.43,-263.71 234.68,-270.35 237.03,-263.76"/>
</a>
</g>
</g>
<!-- Node31 -->
<g id="Node000031" class="node">
<title>Node31</title>
<g id="a_Node000031"><a xlink:title=" ">
<polygon fill="#e0e0e0" stroke="#999999" points="350.93,-262.75 253.93,-262.75 253.93,-243.5 350.93,-243.5 350.93,-262.75"/>
<text text-anchor="middle" x="302.43" y="-249.25" font-family="Helvetica,sans-Serif" font-size="10.00">nlohmann/json.hpp</text>
</a>
</g>
</g>
<!-- Node2&#45;&gt;Node31 -->
<g id="edge40_Node000002_Node000031" class="edge">
<title>Node2&#45;&gt;Node31</title>
<g id="a_edge40_Node000002_Node000031"><a xlink:title=" ">
<path fill="none" stroke="#63b8ff" d="M341.67,-298.58C335.25,-291.3 325.92,-280.73 317.97,-271.73"/>
<polygon fill="#63b8ff" stroke="#63b8ff" points="320.61,-269.43 311.37,-264.24 315.36,-274.06 320.61,-269.43"/>
</a>
</g>
</g>
<!-- Node32 -->
<g id="Node000032" class="node">
<title>Node32</title>
<g id="a_Node000032"><a xlink:title=" ">
<polygon fill="#e0e0e0" stroke="#999999" points="424.31,-262.75 368.56,-262.75 368.56,-243.5 424.31,-243.5 424.31,-262.75"/>
<text text-anchor="middle" x="396.43" y="-249.25" font-family="Helvetica,sans-Serif" font-size="10.00">algorithm</text>
</a>
</g>
</g>
<!-- Node2&#45;&gt;Node32 -->
<g id="edge41_Node000002_Node000032" class="edge">
<title>Node2&#45;&gt;Node32</title>
<g id="a_edge41_Node000002_Node000032"><a xlink:title=" ">
<path fill="none" stroke="#63b8ff" d="M357.2,-298.58C363.62,-291.3 372.95,-280.73 380.9,-271.73"/>
<polygon fill="#63b8ff" stroke="#63b8ff" points="383.51,-274.06 387.5,-264.24 378.26,-269.43 383.51,-274.06"/>
</a>
</g>
</g>
<!-- Node4 -->
<g id="Node000004" class="node">
<title>Node4</title>
<g id="a_Node000004"><a xlink:title=" ">
<polygon fill="#e0e0e0" stroke="#999999" points="759.06,-201.88 713.81,-201.88 713.81,-182.62 759.06,-182.62 759.06,-201.88"/>
<text text-anchor="middle" x="736.43" y="-188.38" font-family="Helvetica,sans-Serif" font-size="10.00">math.h</text>
</a>
</g>
</g>
<!-- Node3&#45;&gt;Node4 -->
<g id="edge3_Node000003_Node000004" class="edge">
<title>Node3&#45;&gt;Node4</title>
<g id="a_edge3_Node000003_Node000004"><a xlink:title=" ">
<path fill="none" stroke="#63b8ff" d="M516.88,-246.49C561.03,-239.41 636.39,-225.89 699.43,-207.5 701,-207.04 702.6,-206.55 704.21,-206.02"/>
<polygon fill="#63b8ff" stroke="#63b8ff" points="705.04,-209.44 713.3,-202.81 702.71,-202.84 705.04,-209.44"/>
</a>
</g>
</g>
<!-- Node5 -->
<g id="Node000005" class="node">
<title>Node5</title>
<g id="a_Node000005"><a xlink:title=" ">
<polygon fill="#e0e0e0" stroke="#999999" points="821.68,-201.88 777.18,-201.88 777.18,-182.62 821.68,-182.62 821.68,-201.88"/>
<text text-anchor="middle" x="799.43" y="-188.38" font-family="Helvetica,sans-Serif" font-size="10.00">stdio.h</text>
</a>
</g>
</g>
<!-- Node3&#45;&gt;Node5 -->
<g id="edge4_Node000003_Node000005" class="edge">
<title>Node3&#45;&gt;Node5</title>
<g id="a_edge4_Node000003_Node000005"><a xlink:title=" ">
<path fill="none" stroke="#63b8ff" d="M517.12,-249.65C573,-245.25 680.68,-233.88 768.43,-207.5 769.43,-207.2 770.43,-206.88 771.43,-206.53"/>
<polygon fill="#63b8ff" stroke="#63b8ff" points="772.68,-209.8 780.65,-202.83 770.07,-203.31 772.68,-209.8"/>
</a>
</g>
</g>
<!-- Node6 -->
<g id="Node000006" class="node">
<title>Node6</title>
<g id="a_Node000006"><a xlink:title=" ">
<polygon fill="#e0e0e0" stroke="#999999" points="107.18,-201.88 59.68,-201.88 59.68,-182.62 107.18,-182.62 107.18,-201.88"/>
<text text-anchor="middle" x="83.43" y="-188.38" font-family="Helvetica,sans-Serif" font-size="10.00">string.h</text>
</a>
</g>
</g>
<!-- Node3&#45;&gt;Node6 -->
<g id="edge5_Node000003_Node000006" class="edge">
<title>Node3&#45;&gt;Node6</title>
<g id="a_edge5_Node000003_Node000006"><a xlink:title=" ">
<path fill="none" stroke="#63b8ff" d="M441.82,-244.85C438.98,-244.37 436.17,-243.91 433.43,-243.5 295.42,-222.62 257.12,-240.25 121.43,-207.5 119.55,-207.05 117.63,-206.52 115.71,-205.96"/>
<polygon fill="#63b8ff" stroke="#63b8ff" points="116.88,-202.66 106.29,-202.8 114.66,-209.29 116.88,-202.66"/>
</a>
</g>
</g>
<!-- Node7 -->
<g id="Node000007" class="node">
<title>Node7</title>
<g id="a_Node000007"><a xlink:title=" ">
<polygon fill="#e0e0e0" stroke="#999999" points="154.81,-135.38 120.06,-135.38 120.06,-116.12 154.81,-116.12 154.81,-135.38"/>
<text text-anchor="middle" x="137.43" y="-121.88" font-family="Helvetica,sans-Serif" font-size="10.00">map</text>
</a>
</g>
</g>
<!-- Node3&#45;&gt;Node7 -->
<g id="edge6_Node000003_Node000007" class="edge">
<title>Node3&#45;&gt;Node7</title>
<g id="a_edge6_Node000003_Node000007"><a xlink:title=" ">
<path fill="none" stroke="#63b8ff" d="M441.8,-244.93C438.97,-244.43 436.16,-243.95 433.43,-243.5 377.18,-234.24 225.96,-240.44 179.43,-207.5 159.01,-193.05 147.79,-165.59 142.19,-146.73"/>
<polygon fill="#63b8ff" stroke="#63b8ff" points="145.63,-146.04 139.68,-137.28 138.87,-147.84 145.63,-146.04"/>
</a>
</g>
</g>
<!-- Node3&#45;&gt;Node8 -->
<g id="edge7_Node000003_Node000008" class="edge">
<title>Node3&#45;&gt;Node8</title>
<g id="a_edge7_Node000003_Node000008"><a xlink:title=" ">
<path fill="none" stroke="#63b8ff" d="M517.06,-248.58C566.21,-243.07 648.18,-230.62 666.43,-207.5 693.15,-173.66 692.74,-144.65 666.43,-110.5 649.77,-88.86 572.99,-75.59 528.87,-69.62"/>
<polygon fill="#63b8ff" stroke="#63b8ff" points="529.5,-66.17 519.13,-68.35 528.6,-73.11 529.5,-66.17"/>
</a>
</g>
</g>
<!-- Node9 -->
<g id="Node000009" class="node">
<title>Node9</title>
<g id="a_Node000009"><a xlink:title=" ">
<polygon fill="#e0e0e0" stroke="#999999" points="351.18,-19.25 297.68,-19.25 297.68,0 351.18,0 351.18,-19.25"/>
<text text-anchor="middle" x="324.43" y="-5.75" font-family="Helvetica,sans-Serif" font-size="10.00">iostream</text>
</a>
</g>
</g>
<!-- Node3&#45;&gt;Node9 -->
<g id="edge8_Node000003_Node000009" class="edge">
<title>Node3&#45;&gt;Node9</title>
<g id="a_edge8_Node000003_Node000009"><a xlink:title=" ">
<path fill="none" stroke="#63b8ff" d="M441.82,-244.78C438.99,-244.32 436.17,-243.88 433.43,-243.5 391.11,-237.56 79.21,-239.11 50.43,-207.5 -30.39,-118.73 193.82,-45.91 286.45,-20.4"/>
<polygon fill="#63b8ff" stroke="#63b8ff" points="287.13,-23.84 295.86,-17.85 285.3,-17.09 287.13,-23.84"/>
</a>
</g>
</g>
<!-- Node10 -->
<g id="Node000010" class="node">
<title>Node10</title>
<g id="a_Node000010"><a xlink:title=" ">
<polygon fill="#e0e0e0" stroke="#999999" points="253.06,-201.88 201.81,-201.88 201.81,-182.62 253.06,-182.62 253.06,-201.88"/>
<text text-anchor="middle" x="227.43" y="-188.38" font-family="Helvetica,sans-Serif" font-size="10.00">sstream</text>
</a>
</g>
</g>
<!-- Node3&#45;&gt;Node10 -->
<g id="edge9_Node000003_Node000010" class="edge">
<title>Node3&#45;&gt;Node10</title>
<g id="a_edge9_Node000003_Node000010"><a xlink:title=" ">
<path fill="none" stroke="#63b8ff" d="M442.08,-244.83C384.63,-233.56 279.41,-212.65 262.43,-207.5 261.09,-207.09 259.73,-206.65 258.36,-206.19"/>
<polygon fill="#63b8ff" stroke="#63b8ff" points="259.95,-203.05 249.35,-202.86 257.52,-209.61 259.95,-203.05"/>
</a>
</g>
</g>
<!-- Node11 -->
<g id="Node000011" class="node">
<title>Node11</title>
<g id="a_Node000011"><a xlink:title=" ">
<polygon fill="#e0e0e0" stroke="#999999" points="321.68,-201.88 271.18,-201.88 271.18,-182.62 321.68,-182.62 321.68,-201.88"/>
<text text-anchor="middle" x="296.43" y="-188.38" font-family="Helvetica,sans-Serif" font-size="10.00">memory</text>
</a>
</g>
</g>
<!-- Node3&#45;&gt;Node11 -->
<g id="edge10_Node000003_Node000011" class="edge">
<title>Node3&#45;&gt;Node11</title>
<g id="a_edge10_Node000003_Node000011"><a xlink:title=" ">
<path fill="none" stroke="#63b8ff" d="M446.23,-243.08C416.04,-234.62 370.4,-221.27 331.43,-207.5 330.46,-207.16 329.47,-206.8 328.48,-206.43"/>
<polygon fill="#63b8ff" stroke="#63b8ff" points="329.79,-203.19 319.2,-202.86 327.27,-209.72 329.79,-203.19"/>
</a>
</g>
</g>
<!-- Node12 -->
<g id="Node000012" class="node">
<title>Node12</title>
<g id="a_Node000012"><a xlink:title=" ">
<polygon fill="#e0e0e0" stroke="#999999" points="221.06,-135.38 175.81,-135.38 175.81,-116.12 221.06,-116.12 221.06,-135.38"/>
<text text-anchor="middle" x="198.43" y="-121.88" font-family="Helvetica,sans-Serif" font-size="10.00">chrono</text>
</a>
</g>
</g>
<!-- Node3&#45;&gt;Node12 -->
<g id="edge11_Node000003_Node000012" class="edge">
<title>Node3&#45;&gt;Node12</title>
<g id="a_edge11_Node000003_Node000012"><a xlink:title=" ">
<path fill="none" stroke="#63b8ff" d="M441.8,-244.95C438.97,-244.45 436.16,-243.96 433.43,-243.5 380.04,-234.51 227.78,-248.52 192.43,-207.5 178.06,-190.81 183.52,-164.31 189.93,-146.25"/>
<polygon fill="#63b8ff" stroke="#63b8ff" points="193.09,-147.78 193.52,-137.2 186.58,-145.2 193.09,-147.78"/>
</a>
</g>
</g>
<!-- Node13 -->
<g id="Node000013" class="node">
<title>Node13</title>
<g id="a_Node000013"><a xlink:title=" ">
<polygon fill="#e0e0e0" stroke="#999999" points="493.83,-201.88 465.03,-201.88 465.03,-182.62 493.83,-182.62 493.83,-201.88"/>
<text text-anchor="middle" x="479.43" y="-188.38" font-family="Helvetica,sans-Serif" font-size="10.00">list</text>
</a>
</g>
</g>
<!-- Node3&#45;&gt;Node13 -->
<g id="edge12_Node000003_Node000013" class="edge">
<title>Node3&#45;&gt;Node13</title>
<g id="a_edge12_Node000003_Node000013"><a xlink:title=" ">
<path fill="none" stroke="#63b8ff" d="M479.43,-243.18C479.43,-235.4 479.43,-223.83 479.43,-213.78"/>
<polygon fill="#63b8ff" stroke="#63b8ff" points="482.93,-213.79 479.43,-203.79 475.93,-213.79 482.93,-213.79"/>
</a>
</g>
</g>
<!-- Node14 -->
<g id="Node000014" class="node">
<title>Node14</title>
<g id="a_Node000014"><a xlink:href="IssueFactory_8hpp.html" target="_top" xlink:title=" ">
<polygon fill="white" stroke="#666666" points="446.81,-201.88 340.06,-201.88 340.06,-182.62 446.81,-182.62 446.81,-201.88"/>
<text text-anchor="middle" x="393.43" y="-188.38" font-family="Helvetica,sans-Serif" font-size="10.00">ers/IssueFactory.hpp</text>
</a>
</g>
</g>
<!-- Node3&#45;&gt;Node14 -->
<g id="edge13_Node000003_Node000014" class="edge">
<title>Node3&#45;&gt;Node14</title>
<g id="a_edge13_Node000003_Node000014"><a xlink:title=" ">
<path fill="none" stroke="#63b8ff" d="M466.37,-243.18C452.99,-234.02 431.92,-219.59 415.86,-208.6"/>
<polygon fill="#63b8ff" stroke="#63b8ff" points="418.1,-205.89 407.87,-203.13 414.14,-211.67 418.1,-205.89"/>
</a>
</g>
</g>
<!-- Node16 -->
<g id="Node000016" class="node">
<title>Node16</title>
<g id="a_Node000016"><a xlink:href="Severity_8hpp.html" target="_top" xlink:title=" ">
<polygon fill="white" stroke="#666666" points="367.31,-135.38 281.56,-135.38 281.56,-116.12 367.31,-116.12 367.31,-135.38"/>
<text text-anchor="middle" x="324.43" y="-121.88" font-family="Helvetica,sans-Serif" font-size="10.00">ers/Severity.hpp</text>
</a>
</g>
</g>
<!-- Node3&#45;&gt;Node16 -->
<g id="edge30_Node000003_Node000016" class="edge">
<title>Node3&#45;&gt;Node16</title>
<g id="a_edge30_Node000003_Node000016"><a xlink:title=" ">
<path fill="none" stroke="#63b8ff" d="M486.72,-243.37C498.25,-228.38 517.91,-197.45 502.43,-177 501.39,-175.62 421.07,-153.32 368.69,-138.9"/>
<polygon fill="#63b8ff" stroke="#63b8ff" points="369.69,-135.54 359.12,-136.26 367.83,-142.29 369.69,-135.54"/>
</a>
</g>
</g>
<!-- Node17 -->
<g id="Node000017" class="node">
<title>Node17</title>
<g id="a_Node000017"><a xlink:href="LocalContext_8hpp.html" target="_top" xlink:title=" ">
<polygon fill="white" stroke="#666666" points="657.18,-201.88 549.68,-201.88 549.68,-182.62 657.18,-182.62 657.18,-201.88"/>
<text text-anchor="middle" x="603.43" y="-188.38" font-family="Helvetica,sans-Serif" font-size="10.00">ers/LocalContext.hpp</text>
</a>
</g>
</g>
<!-- Node3&#45;&gt;Node17 -->
<g id="edge22_Node000003_Node000017" class="edge">
<title>Node3&#45;&gt;Node17</title>
<g id="a_edge22_Node000003_Node000017"><a xlink:title=" ">
<path fill="none" stroke="#63b8ff" d="M498.54,-243.05C518.71,-233.48 550.77,-218.25 574.14,-207.16"/>
<polygon fill="#63b8ff" stroke="#63b8ff" points="575.61,-210.33 583.15,-202.88 572.61,-204.01 575.61,-210.33"/>
</a>
</g>
</g>
<!-- Node22 -->
<g id="Node000022" class="node">
<title>Node22</title>
<g id="a_Node000022"><a xlink:href="IssueDeclarationMacro_8hpp.html" target="_top" xlink:title=" ">
<polygon fill="white" stroke="#666666" points="1067.31,-207.5 927.56,-207.5 927.56,-177 1067.31,-177 1067.31,-207.5"/>
<text text-anchor="start" x="935.56" y="-194" font-family="Helvetica,sans-Serif" font-size="10.00">ers/internal/IssueDeclaration</text>
<text text-anchor="middle" x="997.43" y="-182.75" font-family="Helvetica,sans-Serif" font-size="10.00">Macro.hpp</text>
</a>
</g>
</g>
<!-- Node3&#45;&gt;Node22 -->
<g id="edge31_Node000003_Node000022" class="edge">
<title>Node3&#45;&gt;Node22</title>
<g id="a_edge31_Node000003_Node000022"><a xlink:title=" ">
<path fill="none" stroke="#63b8ff" d="M517.1,-247.84C600.5,-238.37 802.3,-215.43 916.02,-202.5"/>
<polygon fill="#63b8ff" stroke="#63b8ff" points="916.37,-205.99 925.91,-201.38 915.58,-199.03 916.37,-205.99"/>
</a>
</g>
</g>
<!-- Node14&#45;&gt;Node7 -->
<g id="edge17_Node000014_Node000007" class="edge">
<title>Node14&#45;&gt;Node7</title>
<g id="a_edge17_Node000014_Node000007"><a xlink:title=" ">
<path fill="none" stroke="#63b8ff" d="M353.45,-182.17C345.81,-180.44 337.88,-178.66 330.43,-177 257.6,-160.77 236.88,-165.63 166.43,-141 165.79,-140.77 165.14,-140.54 164.49,-140.29"/>
<polygon fill="#63b8ff" stroke="#63b8ff" points="165.96,-137.12 155.4,-136.35 163.17,-143.54 165.96,-137.12"/>
</a>
</g>
</g>
<!-- Node14&#45;&gt;Node8 -->
<g id="edge15_Node000014_Node000008" class="edge">
<title>Node14&#45;&gt;Node8</title>
<g id="a_edge15_Node000014_Node000008"><a xlink:title=" ">
<path fill="none" stroke="#63b8ff" d="M419.52,-182.16C438.6,-174.19 463.65,-160.77 478.43,-141 490.39,-125.02 494.87,-102.33 496.52,-86.08"/>
<polygon fill="#63b8ff" stroke="#63b8ff" points="500.01,-86.41 497.22,-76.18 493.03,-85.91 500.01,-86.41"/>
</a>
</g>
</g>
<!-- Node14&#45;&gt;Node12 -->
<g id="edge14_Node000014_Node000012" class="edge">
<title>Node14&#45;&gt;Node12</title>
<g id="a_edge14_Node000014_Node000012"><a xlink:title=" ">
<path fill="none" stroke="#63b8ff" d="M365,-182.15C334.05,-172.21 283.14,-155.73 239.43,-141 237.05,-140.2 234.6,-139.36 232.13,-138.52"/>
<polygon fill="#63b8ff" stroke="#63b8ff" points="233.42,-135.26 222.82,-135.31 231.14,-141.88 233.42,-135.26"/>
</a>
</g>
</g>
<!-- Node14&#45;&gt;Node15 -->
<g id="edge16_Node000014_Node000015" class="edge">
<title>Node14&#45;&gt;Node15</title>
<g id="a_edge16_Node000014_Node000015"><a xlink:title=" ">
<path fill="none" stroke="#63b8ff" d="M362.15,-182.21C330.19,-172.31 283.7,-155.87 272.43,-141 260.55,-125.31 259.5,-102.26 260.66,-85.83"/>
<polygon fill="#63b8ff" stroke="#63b8ff" points="264.1,-86.61 261.68,-76.3 257.14,-85.87 264.1,-86.61"/>
</a>
</g>
</g>
<!-- Node14&#45;&gt;Node16 -->
<g id="edge18_Node000014_Node000016" class="edge">
<title>Node14&#45;&gt;Node16</title>
<g id="a_edge18_Node000014_Node000016"><a xlink:title=" ">
<path fill="none" stroke="#63b8ff" d="M383.84,-182.28C373.13,-172.27 355.56,-155.85 342.3,-143.45"/>
<polygon fill="#63b8ff" stroke="#63b8ff" points="344.75,-140.95 335.05,-136.68 339.97,-146.06 344.75,-140.95"/>
</a>
</g>
</g>
<!-- Node16&#45;&gt;Node8 -->
<g id="edge19_Node000016_Node000008" class="edge">
<title>Node16&#45;&gt;Node8</title>
<g id="a_edge19_Node000016_Node000008"><a xlink:title=" ">
<path fill="none" stroke="#63b8ff" d="M351.09,-115.68C382.12,-105.12 433.3,-87.7 466.18,-76.51"/>
<polygon fill="#63b8ff" stroke="#63b8ff" points="467.21,-79.86 475.55,-73.32 464.96,-73.23 467.21,-79.86"/>
</a>
</g>
</g>
<!-- Node16&#45;&gt;Node9 -->
<g id="edge21_Node000016_Node000009" class="edge">
<title>Node16&#45;&gt;Node9</title>
<g id="a_edge21_Node000016_Node000009"><a xlink:title=" ">
<path fill="none" stroke="#63b8ff" d="M324.43,-115.79C324.43,-97.63 324.43,-56.04 324.43,-30.95"/>
<polygon fill="#63b8ff" stroke="#63b8ff" points="327.93,-31.05 324.43,-21.05 320.93,-31.05 327.93,-31.05"/>
</a>
</g>
</g>
<!-- Node16&#45;&gt;Node15 -->
<g id="edge20_Node000016_Node000015" class="edge">
<title>Node16&#45;&gt;Node15</title>
<g id="a_edge20_Node000016_Node000015"><a xlink:title=" ">
<path fill="none" stroke="#63b8ff" d="M315.17,-115.81C306.12,-107.08 292.13,-93.57 280.97,-82.8"/>
<polygon fill="#63b8ff" stroke="#63b8ff" points="283.5,-80.38 273.87,-75.95 278.64,-85.42 283.5,-80.38"/>
</a>
</g>
</g>
<!-- Node18 -->
<g id="Node000018" class="node">
<title>Node18</title>
<g id="a_Node000018"><a xlink:title=" ">
<polygon fill="#e0e0e0" stroke="#999999" points="589.81,-135.38 525.06,-135.38 525.06,-116.12 589.81,-116.12 589.81,-135.38"/>
<text text-anchor="middle" x="557.43" y="-121.88" font-family="Helvetica,sans-Serif" font-size="10.00">sys/types.h</text>
</a>
</g>
</g>
<!-- Node17&#45;&gt;Node18 -->
<g id="edge23_Node000017_Node000018" class="edge">
<title>Node17&#45;&gt;Node18</title>
<g id="a_edge23_Node000017_Node000018"><a xlink:title=" ">
<path fill="none" stroke="#63b8ff" d="M597.04,-182.28C590.17,-172.65 579.08,-157.1 570.38,-144.9"/>
<polygon fill="#63b8ff" stroke="#63b8ff" points="573.31,-142.98 564.65,-136.87 567.61,-147.05 573.31,-142.98"/>
</a>
</g>
</g>
<!-- Node19 -->
<g id="Node000019" class="node">
<title>Node19</title>
<g id="a_Node000019"><a xlink:title=" ">
<polygon fill="#e0e0e0" stroke="#999999" points="657.31,-135.38 607.56,-135.38 607.56,-116.12 657.31,-116.12 657.31,-135.38"/>
<text text-anchor="middle" x="632.43" y="-121.88" font-family="Helvetica,sans-Serif" font-size="10.00">unistd.h</text>
</a>
</g>
</g>
<!-- Node17&#45;&gt;Node19 -->
<g id="edge24_Node000017_Node000019" class="edge">
<title>Node17&#45;&gt;Node19</title>
<g id="a_edge24_Node000017_Node000019"><a xlink:title=" ">
<path fill="none" stroke="#63b8ff" d="M607.47,-182.28C611.66,-172.94 618.37,-158.03 623.78,-146.01"/>
<polygon fill="#63b8ff" stroke="#63b8ff" points="626.91,-147.58 627.82,-137.02 620.52,-144.71 626.91,-147.58"/>
</a>
</g>
</g>
<!-- Node20 -->
<g id="Node000020" class="node">
<title>Node20</title>
<g id="a_Node000020"><a xlink:href="Context_8hpp.html" target="_top" xlink:title=" ">
<polygon fill="white" stroke="#666666" points="469.18,-135.38 385.68,-135.38 385.68,-116.12 469.18,-116.12 469.18,-135.38"/>
<text text-anchor="middle" x="427.43" y="-121.88" font-family="Helvetica,sans-Serif" font-size="10.00">ers/Context.hpp</text>
</a>
</g>
</g>
<!-- Node17&#45;&gt;Node20 -->
<g id="edge25_Node000017_Node000020" class="edge">
<title>Node17&#45;&gt;Node20</title>
<g id="a_edge25_Node000017_Node000020"><a xlink:title=" ">
<path fill="none" stroke="#63b8ff" d="M578.59,-182.15C548.32,-171.05 496.99,-152.24 462.65,-139.66"/>
<polygon fill="#63b8ff" stroke="#63b8ff" points="464.17,-136.48 453.57,-136.33 461.76,-143.06 464.17,-136.48"/>
</a>
</g>
</g>
<!-- Node20&#45;&gt;Node8 -->
<g id="edge26_Node000020_Node000008" class="edge">
<title>Node20&#45;&gt;Node8</title>
<g id="a_edge26_Node000020_Node000008"><a xlink:title=" ">
<path fill="none" stroke="#63b8ff" d="M438.07,-115.81C448.65,-106.9 465.15,-93.03 478.06,-82.17"/>
<polygon fill="#63b8ff" stroke="#63b8ff" points="480.14,-84.99 485.54,-75.88 475.64,-79.63 480.14,-84.99"/>
</a>
</g>
</g>
<!-- Node20&#45;&gt;Node15 -->
<g id="edge27_Node000020_Node000015" class="edge">
<title>Node20&#45;&gt;Node15</title>
<g id="a_edge27_Node000020_Node000015"><a xlink:title=" ">
<path fill="none" stroke="#63b8ff" d="M402.17,-115.68C373.68,-105.45 327.27,-88.79 296.06,-77.59"/>
<polygon fill="#63b8ff" stroke="#63b8ff" points="297.33,-74.33 286.74,-74.24 294.97,-80.91 297.33,-74.33"/>
</a>
</g>
</g>
<!-- Node21 -->
<g id="Node000021" class="node">
<title>Node21</title>
<g id="a_Node000021"><a xlink:href="ers_2include_2ers_2Configuration_8hpp.html" target="_top" xlink:title=" ">
<polygon fill="white" stroke="#666666" points="459.81,-74.5 353.06,-74.5 353.06,-55.25 459.81,-55.25 459.81,-74.5"/>
<text text-anchor="middle" x="406.43" y="-61" font-family="Helvetica,sans-Serif" font-size="10.00">ers/Configuration.hpp</text>
</a>
</g>
</g>
<!-- Node20&#45;&gt;Node21 -->
<g id="edge28_Node000020_Node000021" class="edge">
<title>Node20&#45;&gt;Node21</title>
<g id="a_edge28_Node000020_Node000021"><a xlink:title=" ">
<path fill="none" stroke="#63b8ff" d="M424.24,-115.81C421.41,-107.85 417.16,-95.94 413.52,-85.74"/>
<polygon fill="#63b8ff" stroke="#63b8ff" points="416.82,-84.57 410.16,-76.33 410.22,-86.92 416.82,-84.57"/>
</a>
</g>
</g>
<!-- Node21&#45;&gt;Node9 -->
<g id="edge29_Node000021_Node000009" class="edge">
<title>Node21&#45;&gt;Node9</title>
<g id="a_edge29_Node000021_Node000009"><a xlink:title=" ">
<path fill="none" stroke="#63b8ff" d="M392.52,-54.84C380.27,-46.89 362.18,-35.14 347.72,-25.75"/>
<polygon fill="#63b8ff" stroke="#63b8ff" points="349.97,-23.04 339.68,-20.53 346.16,-28.91 349.97,-23.04"/>
</a>
</g>
</g>
<!-- Node23 -->
<g id="Node000023" class="node">
<title>Node23</title>
<g id="a_Node000023"><a xlink:title=" ">
<polygon fill="#e0e0e0" stroke="#999999" points="813.06,-141 713.81,-141 713.81,-110.5 813.06,-110.5 813.06,-141"/>
<text text-anchor="start" x="721.81" y="-127.5" font-family="Helvetica,sans-Serif" font-size="10.00">boost/preprocessor</text>
<text text-anchor="middle" x="763.43" y="-116.25" font-family="Helvetica,sans-Serif" font-size="10.00">/if.hpp</text>
</a>
</g>
</g>
<!-- Node22&#45;&gt;Node23 -->
<g id="edge32_Node000022_Node000023" class="edge">
<title>Node22&#45;&gt;Node23</title>
<g id="a_edge32_Node000022_Node000023"><a xlink:title=" ">
<path fill="none" stroke="#63b8ff" d="M944.04,-176.53C908.32,-166.69 861.22,-153.7 824.08,-143.47"/>
<polygon fill="#63b8ff" stroke="#63b8ff" points="825.42,-140.21 814.85,-140.92 823.56,-146.95 825.42,-140.21"/>
</a>
</g>
</g>
<!-- Node24 -->
<g id="Node000024" class="node">
<title>Node24</title>
<g id="a_Node000024"><a xlink:title=" ">
<polygon fill="#e0e0e0" stroke="#999999" points="930.06,-141 830.81,-141 830.81,-110.5 930.06,-110.5 930.06,-141"/>
<text text-anchor="start" x="838.81" y="-127.5" font-family="Helvetica,sans-Serif" font-size="10.00">boost/preprocessor</text>
<text text-anchor="middle" x="880.43" y="-116.25" font-family="Helvetica,sans-Serif" font-size="10.00">/seq.hpp</text>
</a>
</g>
</g>
<!-- Node22&#45;&gt;Node24 -->
<g id="edge33_Node000022_Node000024" class="edge">
<title>Node22&#45;&gt;Node24</title>
<g id="a_edge33_Node000022_Node000024"><a xlink:title=" ">
<path fill="none" stroke="#63b8ff" d="M970.88,-176.61C954.88,-167.79 934.27,-156.43 916.77,-146.78"/>
<polygon fill="#63b8ff" stroke="#63b8ff" points="918.65,-143.82 908.2,-142.06 915.27,-149.95 918.65,-143.82"/>
</a>
</g>
</g>
<!-- Node25 -->
<g id="Node000025" class="node">
<title>Node25</title>
<g id="a_Node000025"><a xlink:title=" ">
<polygon fill="#e0e0e0" stroke="#999999" points="1047.06,-141 947.81,-141 947.81,-110.5 1047.06,-110.5 1047.06,-141"/>
<text text-anchor="start" x="955.81" y="-127.5" font-family="Helvetica,sans-Serif" font-size="10.00">boost/preprocessor</text>
<text text-anchor="middle" x="997.43" y="-116.25" font-family="Helvetica,sans-Serif" font-size="10.00">/tuple.hpp</text>
</a>
</g>
</g>
<!-- Node22&#45;&gt;Node25 -->
<g id="edge34_Node000022_Node000025" class="edge">
<title>Node22&#45;&gt;Node25</title>
<g id="a_edge34_Node000022_Node000025"><a xlink:title=" ">
<path fill="none" stroke="#63b8ff" d="M997.43,-176.61C997.43,-169.52 997.43,-160.79 997.43,-152.63"/>
<polygon fill="#63b8ff" stroke="#63b8ff" points="1000.93,-152.84 997.43,-142.84 993.93,-152.84 1000.93,-152.84"/>
</a>
</g>
</g>
<!-- Node26 -->
<g id="Node000026" class="node">
<title>Node26</title>
<g id="a_Node000026"><a xlink:title=" ">
<polygon fill="#e0e0e0" stroke="#999999" points="1164.06,-141 1064.81,-141 1064.81,-110.5 1164.06,-110.5 1164.06,-141"/>
<text text-anchor="start" x="1072.81" y="-127.5" font-family="Helvetica,sans-Serif" font-size="10.00">boost/preprocessor</text>
<text text-anchor="middle" x="1114.43" y="-116.25" font-family="Helvetica,sans-Serif" font-size="10.00">/logical.hpp</text>
</a>
</g>
</g>
<!-- Node22&#45;&gt;Node26 -->
<g id="edge35_Node000022_Node000026" class="edge">
<title>Node22&#45;&gt;Node26</title>
<g id="a_edge35_Node000022_Node000026"><a xlink:title=" ">
<path fill="none" stroke="#63b8ff" d="M1023.98,-176.61C1039.99,-167.79 1060.6,-156.43 1078.1,-146.78"/>
<polygon fill="#63b8ff" stroke="#63b8ff" points="1079.6,-149.95 1086.66,-142.06 1076.22,-143.82 1079.6,-149.95"/>
</a>
</g>
</g>
<!-- Node27 -->
<g id="Node000027" class="node">
<title>Node27</title>
<g id="a_Node000027"><a xlink:title=" ">
<polygon fill="#e0e0e0" stroke="#999999" points="1281.06,-141 1181.81,-141 1181.81,-110.5 1281.06,-110.5 1281.06,-141"/>
<text text-anchor="start" x="1189.81" y="-127.5" font-family="Helvetica,sans-Serif" font-size="10.00">boost/preprocessor</text>
<text text-anchor="middle" x="1231.43" y="-116.25" font-family="Helvetica,sans-Serif" font-size="10.00">/stringize.hpp</text>
</a>
</g>
</g>
<!-- Node22&#45;&gt;Node27 -->
<g id="edge36_Node000022_Node000027" class="edge">
<title>Node22&#45;&gt;Node27</title>
<g id="a_edge36_Node000022_Node000027"><a xlink:title=" ">
<path fill="none" stroke="#63b8ff" d="M1050.82,-176.53C1086.55,-166.69 1133.65,-153.7 1170.79,-143.47"/>
<polygon fill="#63b8ff" stroke="#63b8ff" points="1171.3,-146.95 1180.01,-140.92 1169.44,-140.21 1171.3,-146.95"/>
</a>
</g>
</g>
<!-- Node28 -->
<g id="Node000028" class="node">
<title>Node28</title>
<g id="a_Node000028"><a xlink:title=" ">
<polygon fill="#e0e0e0" stroke="#999999" points="1398.06,-141 1298.81,-141 1298.81,-110.5 1398.06,-110.5 1398.06,-141"/>
<text text-anchor="start" x="1306.81" y="-127.5" font-family="Helvetica,sans-Serif" font-size="10.00">boost/preprocessor</text>
<text text-anchor="middle" x="1348.43" y="-116.25" font-family="Helvetica,sans-Serif" font-size="10.00">/comparison.hpp</text>
</a>
</g>
</g>
<!-- Node22&#45;&gt;Node28 -->
<g id="edge37_Node000022_Node000028" class="edge">
<title>Node22&#45;&gt;Node28</title>
<g id="a_edge37_Node000022_Node000028"><a xlink:title=" ">
<path fill="none" stroke="#63b8ff" d="M1067.55,-180.66C1124.52,-171.73 1207.17,-158.03 1287.67,-141.5"/>
<polygon fill="#63b8ff" stroke="#63b8ff" points="1287.93,-145.02 1297.02,-139.56 1286.51,-138.17 1287.93,-145.02"/>
</a>
</g>
</g>
<!-- Node33&#45;&gt;Node2 -->
<g id="edge45_Node000033_Node000002" class="edge">
<title>Node33&#45;&gt;Node2</title>
<g id="a_edge45_Node000033_Node000002"><a xlink:title=" ">
<path fill="none" stroke="#63b8ff" d="M421.96,-420.04C411,-410.67 397.36,-397.82 387.43,-384.5 374.49,-367.13 363.8,-344.69 357.09,-328.87"/>
<polygon fill="#63b8ff" stroke="#63b8ff" points="360.35,-327.6 353.33,-319.66 353.87,-330.25 360.35,-327.6"/>
</a>
</g>
</g>
<!-- Node34 -->
<g id="Node000034" class="node">
<title>Node34</title>
<g id="a_Node000034"><a xlink:href="TriggerPrimitive__serialization_8hpp.html" target="_top" xlink:title=" ">
<polygon fill="white" stroke="#666666" points="672.56,-384.5 558.31,-384.5 558.31,-354 672.56,-354 672.56,-384.5"/>
<text text-anchor="start" x="566.31" y="-371" font-family="Helvetica,sans-Serif" font-size="10.00">trigger/TriggerPrimitive</text>
<text text-anchor="middle" x="615.43" y="-359.75" font-family="Helvetica,sans-Serif" font-size="10.00">_serialization.hpp</text>
</a>
</g>
</g>
<!-- Node33&#45;&gt;Node34 -->
<g id="edge46_Node000033_Node000034" class="edge">
<title>Node33&#45;&gt;Node34</title>
<g id="a_edge46_Node000033_Node000034"><a xlink:title=" ">
<path fill="none" stroke="#63b8ff" d="M480.14,-420.11C505.23,-410.87 537.87,-398.84 564.8,-388.91"/>
<polygon fill="#63b8ff" stroke="#63b8ff" points="565.99,-392.21 574.16,-385.46 563.56,-385.64 565.99,-392.21"/>
</a>
</g>
</g>
<!-- Node39 -->
<g id="Node000039" class="node">
<title>Node39</title>
<g id="a_Node000039"><a xlink:title=" ">
<polygon fill="#e0e0e0" stroke="#999999" points="540.56,-378.88 396.31,-378.88 396.31,-359.62 540.56,-359.62 540.56,-378.88"/>
<text text-anchor="middle" x="468.43" y="-365.38" font-family="Helvetica,sans-Serif" font-size="10.00">triggeralgs/TriggerActivity.hpp</text>
</a>
</g>
</g>
<!-- Node33&#45;&gt;Node39 -->
<g id="edge52_Node000033_Node000039" class="edge">
<title>Node33&#45;&gt;Node39</title>
<g id="a_edge52_Node000033_Node000039"><a xlink:title=" ">
<path fill="none" stroke="#63b8ff" d="M446.79,-420.11C450.73,-411.03 455.84,-399.26 460.11,-389.43"/>
<polygon fill="#63b8ff" stroke="#63b8ff" points="463.23,-391.03 464,-380.46 456.81,-388.24 463.23,-391.03"/>
</a>
</g>
</g>
<!-- Node34&#45;&gt;Node2 -->
<g id="edge47_Node000034_Node000002" class="edge">
<title>Node34&#45;&gt;Node2</title>
<g id="a_edge47_Node000034_Node000002"><a xlink:title=" ">
<path fill="none" stroke="#63b8ff" d="M558.04,-355.55C511.44,-345.23 446.29,-330.81 401.25,-320.84"/>
<polygon fill="#63b8ff" stroke="#63b8ff" points="402.26,-317.48 391.74,-318.74 400.74,-324.32 402.26,-317.48"/>
</a>
</g>
</g>
<!-- Node35 -->
<g id="Node000035" class="node">
<title>Node35</title>
<g id="a_Node000035"><a xlink:title=" ">
<polygon fill="#e0e0e0" stroke="#999999" points="690.56,-318 540.31,-318 540.31,-298.75 690.56,-298.75 690.56,-318"/>
<text text-anchor="middle" x="615.43" y="-304.5" font-family="Helvetica,sans-Serif" font-size="10.00">triggeralgs/TriggerPrimitive.hpp</text>
</a>
</g>
</g>
<!-- Node34&#45;&gt;Node35 -->
<g id="edge48_Node000034_Node000035" class="edge">
<title>Node34&#45;&gt;Node35</title>
<g id="a_edge48_Node000034_Node000035"><a xlink:title=" ">
<path fill="none" stroke="#63b8ff" d="M615.43,-353.7C615.43,-346.46 615.43,-337.59 615.43,-329.69"/>
<polygon fill="#63b8ff" stroke="#63b8ff" points="618.93,-329.96 615.43,-319.96 611.93,-329.96 618.93,-329.96"/>
</a>
</g>
</g>
<!-- Node36 -->
<g id="Node000036" class="node">
<title>Node36</title>
<g id="a_Node000036"><a xlink:href="trgdataformats_2include_2trgdataformats_2Types_8hpp.html" target="_top" xlink:title=" ">
<polygon fill="white" stroke="#666666" points="1537.56,-318 1411.31,-318 1411.31,-298.75 1537.56,-298.75 1537.56,-318"/>
<text text-anchor="middle" x="1474.43" y="-304.5" font-family="Helvetica,sans-Serif" font-size="10.00">trgdataformats/Types.hpp</text>
</a>
</g>
</g>
<!-- Node34&#45;&gt;Node36 -->
<g id="edge49_Node000034_Node000036" class="edge">
<title>Node34&#45;&gt;Node36</title>
<g id="a_edge49_Node000034_Node000036"><a xlink:title=" ">
<path fill="none" stroke="#63b8ff" d="M672.79,-364.32C823.54,-353.99 1230.87,-326.07 1399.63,-314.5"/>
<polygon fill="#63b8ff" stroke="#63b8ff" points="1399.63,-318.01 1409.37,-313.83 1399.15,-311.03 1399.63,-318.01"/>
</a>
</g>
</g>
<!-- Node37 -->
<g id="Node000037" class="node">
<title>Node37</title>
<g id="a_Node000037"><a xlink:title=" ">
<polygon fill="#e0e0e0" stroke="#999999" points="1557.06,-262.75 1511.81,-262.75 1511.81,-243.5 1557.06,-243.5 1557.06,-262.75"/>
<text text-anchor="middle" x="1534.43" y="-249.25" font-family="Helvetica,sans-Serif" font-size="10.00">cstdint</text>
</a>
</g>
</g>
<!-- Node36&#45;&gt;Node37 -->
<g id="edge50_Node000036_Node000037" class="edge">
<title>Node36&#45;&gt;Node37</title>
<g id="a_edge50_Node000036_Node000037"><a xlink:title=" ">
<path fill="none" stroke="#63b8ff" d="M1484.61,-298.34C1493.2,-290.72 1505.7,-279.62 1516.04,-270.45"/>
<polygon fill="#63b8ff" stroke="#63b8ff" points="1518.12,-273.29 1523.27,-264.03 1513.47,-268.05 1518.12,-273.29"/>
</a>
</g>
</g>
<!-- Node38 -->
<g id="Node000038" class="node">
<title>Node38</title>
<g id="a_Node000038"><a xlink:title=" ">
<polygon fill="#e0e0e0" stroke="#999999" points="1494.06,-262.75 1454.81,-262.75 1454.81,-243.5 1494.06,-243.5 1494.06,-262.75"/>
<text text-anchor="middle" x="1474.43" y="-249.25" font-family="Helvetica,sans-Serif" font-size="10.00">limits</text>
</a>
</g>
</g>
<!-- Node36&#45;&gt;Node38 -->
<g id="edge51_Node000036_Node000038" class="edge">
<title>Node36&#45;&gt;Node38</title>
<g id="a_edge51_Node000036_Node000038"><a xlink:title=" ">
<path fill="none" stroke="#63b8ff" d="M1474.43,-298.58C1474.43,-292.07 1474.43,-282.92 1474.43,-274.62"/>
<polygon fill="#63b8ff" stroke="#63b8ff" points="1477.93,-274.62 1474.43,-264.62 1470.93,-274.62 1477.93,-274.62"/>
</a>
</g>
</g>
</g>
</svg>
