<?xml version="1.0" encoding="UTF-8" standalone="no"?>
<!DOCTYPE svg PUBLIC "-//W3C//DTD SVG 1.1//EN"
 "http://www.w3.org/Graphics/SVG/1.1/DTD/svg11.dtd">
<!-- Generated by graphviz version 9.0.0 (20230911.1827)
 -->
<!-- Title: /github/workspace/dev_area/sourcecode/trgdataformats/include/trgdataformats/TriggerPrimitive.hpp Pages: 1 -->
<svg width="1399pt" height="306pt"
 viewBox="0.00 0.00 1399.25 305.50" xmlns="http://www.w3.org/2000/svg" xmlns:xlink="http://www.w3.org/1999/xlink">
<g id="graph0" class="graph" transform="scale(1 1) rotate(0) translate(4 301.5)">
<title>/github/workspace/dev_area/sourcecode/trgdataformats/include/trgdataformats/TriggerPrimitive.hpp</title>
<!-- Node1 -->
<g id="Node000001" class="node">
<title>Node1</title>
<g id="a_Node000001"><a xlink:title=" ">
<polygon fill="#999999" stroke="#666666" points="926.5,-297.5 721.5,-297.5 721.5,-255.75 926.5,-255.75 926.5,-297.5"/>
<text text-anchor="start" x="729.5" y="-284" font-family="Helvetica,sans-Serif" font-size="10.00">/github/workspace/dev</text>
<text text-anchor="start" x="729.5" y="-272.75" font-family="Helvetica,sans-Serif" font-size="10.00">_area/sourcecode/trgdataformats</text>
<text text-anchor="middle" x="824" y="-261.5" font-family="Helvetica,sans-Serif" font-size="10.00">/include/trgdataformats/TriggerPrimitive.hpp</text>
</a>
</g>
</g>
<!-- Node2 -->
<g id="Node000002" class="node">
<title>Node2</title>
<g id="a_Node000002"><a xlink:href="TPBundleHandler_8hpp.html" target="_top" xlink:title=" ">
<polygon fill="white" stroke="#666666" points="178,-125.12 0,-125.12 0,-83.38 178,-83.38 178,-125.12"/>
<text text-anchor="start" x="8" y="-111.62" font-family="Helvetica,sans-Serif" font-size="10.00">/github/workspace/dev</text>
<text text-anchor="start" x="8" y="-100.38" font-family="Helvetica,sans-Serif" font-size="10.00">_area/sourcecode/dfmodules</text>
<text text-anchor="middle" x="89" y="-89.12" font-family="Helvetica,sans-Serif" font-size="10.00">/src/dfmodules/TPBundleHandler.hpp</text>
</a>
</g>
</g>
<!-- Node1&#45;&gt;Node2 -->
<g id="edge1_Node000001_Node000002" class="edge">
<title>Node1&#45;&gt;Node2</title>
<g id="a_edge1_Node000001_Node000002"><a xlink:title=" ">
<path fill="none" stroke="#63b8ff" d="M710,-268.77C578.93,-259.98 372.3,-243.02 298,-219.75 228.51,-197.99 155.78,-152.03 117.12,-125.43"/>
<polygon fill="#63b8ff" stroke="#63b8ff" points="709.54,-272.25 719.75,-269.42 710,-265.27 709.54,-272.25"/>
</a>
</g>
</g>
<!-- Node4 -->
<g id="Node000004" class="node">
<title>Node4</title>
<g id="a_Node000004"><a xlink:href="TriggerObjectOverlay_8hpp.html" target="_top" xlink:title=" ">
<polygon fill="white" stroke="#666666" points="912.62,-219.75 735.38,-219.75 735.38,-166.75 912.62,-166.75 912.62,-219.75"/>
<text text-anchor="start" x="743.38" y="-206.25" font-family="Helvetica,sans-Serif" font-size="10.00">/github/workspace/dev</text>
<text text-anchor="start" x="743.38" y="-195" font-family="Helvetica,sans-Serif" font-size="10.00">_area/sourcecode/trgdataformats</text>
<text text-anchor="start" x="743.38" y="-183.75" font-family="Helvetica,sans-Serif" font-size="10.00">/include/trgdataformats/TriggerObject</text>
<text text-anchor="middle" x="824" y="-172.5" font-family="Helvetica,sans-Serif" font-size="10.00">Overlay.hpp</text>
</a>
</g>
</g>
<!-- Node1&#45;&gt;Node4 -->
<g id="edge3_Node000001_Node000004" class="edge">
<title>Node1&#45;&gt;Node4</title>
<g id="a_edge3_Node000001_Node000004"><a xlink:title=" ">
<path fill="none" stroke="#63b8ff" d="M824,-244.27C824,-236.24 824,-227.69 824,-219.98"/>
<polygon fill="#63b8ff" stroke="#63b8ff" points="820.5,-244 824,-254 827.5,-244 820.5,-244"/>
</a>
</g>
</g>
<!-- Node7 -->
<g id="Node000007" class="node">
<title>Node7</title>
<g id="a_Node000007"><a xlink:href="trigger__primitive_8cpp.html" target="_top" xlink:title=" ">
<polygon fill="white" stroke="#666666" points="1089.62,-214.12 930.38,-214.12 930.38,-172.38 1089.62,-172.38 1089.62,-214.12"/>
<text text-anchor="start" x="938.38" y="-200.62" font-family="Helvetica,sans-Serif" font-size="10.00">/github/workspace/dev</text>
<text text-anchor="start" x="938.38" y="-189.38" font-family="Helvetica,sans-Serif" font-size="10.00">_area/sourcecode/trgdataformats</text>
<text text-anchor="middle" x="1010" y="-178.12" font-family="Helvetica,sans-Serif" font-size="10.00">/pybindsrc/trigger_primitive.cpp</text>
</a>
</g>
</g>
<!-- Node1&#45;&gt;Node7 -->
<g id="edge6_Node000001_Node000007" class="edge">
<title>Node1&#45;&gt;Node7</title>
<g id="a_edge6_Node000001_Node000007"><a xlink:title=" ">
<path fill="none" stroke="#63b8ff" d="M880.74,-250.8C907.24,-239.21 938.41,-225.57 963.49,-214.6"/>
<polygon fill="#63b8ff" stroke="#63b8ff" points="879.6,-247.48 871.84,-254.69 882.41,-253.89 879.6,-247.48"/>
</a>
</g>
</g>
<!-- Node8 -->
<g id="Node000008" class="node">
<title>Node8</title>
<g id="a_Node000008"><a xlink:href="process__tpstream_8cxx.html" target="_top" xlink:title=" ">
<polygon fill="white" stroke="#666666" points="1244.75,-214.12 1107.25,-214.12 1107.25,-172.38 1244.75,-172.38 1244.75,-214.12"/>
<text text-anchor="start" x="1115.25" y="-200.62" font-family="Helvetica,sans-Serif" font-size="10.00">/github/workspace/dev</text>
<text text-anchor="start" x="1115.25" y="-189.38" font-family="Helvetica,sans-Serif" font-size="10.00">_area/sourcecode/trgtools</text>
<text text-anchor="middle" x="1176" y="-178.12" font-family="Helvetica,sans-Serif" font-size="10.00">/apps/process_tpstream.cxx</text>
</a>
</g>
</g>
<!-- Node1&#45;&gt;Node8 -->
<g id="edge7_Node000001_Node000008" class="edge">
<title>Node1&#45;&gt;Node8</title>
<g id="a_edge7_Node000001_Node000008"><a xlink:title=" ">
<path fill="none" stroke="#63b8ff" d="M937.99,-255.63C987.75,-246.08 1046.59,-233.7 1099,-219.75 1104.85,-218.19 1110.91,-216.44 1116.94,-214.6"/>
<polygon fill="#63b8ff" stroke="#63b8ff" points="937.52,-252.15 928.35,-257.46 938.83,-259.03 937.52,-252.15"/>
</a>
</g>
</g>
<!-- Node9 -->
<g id="Node000009" class="node">
<title>Node9</title>
<g id="a_Node000009"><a xlink:href="tapipe_8cxx.html" target="_top" xlink:title=" ">
<polygon fill="white" stroke="#666666" points="1391.25,-214.12 1262.75,-214.12 1262.75,-172.38 1391.25,-172.38 1391.25,-214.12"/>
<text text-anchor="start" x="1270.75" y="-200.62" font-family="Helvetica,sans-Serif" font-size="10.00">/github/workspace/dev</text>
<text text-anchor="start" x="1270.75" y="-189.38" font-family="Helvetica,sans-Serif" font-size="10.00">_area/sourcecode/trgtools</text>
<text text-anchor="middle" x="1327" y="-178.12" font-family="Helvetica,sans-Serif" font-size="10.00">/apps/tapipe.cxx</text>
</a>
</g>
</g>
<!-- Node1&#45;&gt;Node9 -->
<g id="edge8_Node000001_Node000009" class="edge">
<title>Node1&#45;&gt;Node9</title>
<g id="a_edge8_Node000001_Node000009"><a xlink:title=" ">
<path fill="none" stroke="#63b8ff" d="M938,-267.28C1025.34,-259.33 1148.38,-244.77 1254,-219.75 1260.14,-218.3 1266.49,-216.52 1272.75,-214.58"/>
<polygon fill="#63b8ff" stroke="#63b8ff" points="937.88,-263.78 928.23,-268.15 938.5,-270.75 937.88,-263.78"/>
</a>
</g>
</g>
<!-- Node10 -->
<g id="Node000010" class="node">
<title>Node10</title>
<g id="a_Node000010"><a xlink:href="TPSet_8hpp.html" target="_top" xlink:title=" ">
<polygon fill="white" stroke="#666666" points="435.25,-214.12 306.75,-214.12 306.75,-172.38 435.25,-172.38 435.25,-214.12"/>
<text text-anchor="start" x="314.75" y="-200.62" font-family="Helvetica,sans-Serif" font-size="10.00">/github/workspace/dev</text>
<text text-anchor="start" x="314.75" y="-189.38" font-family="Helvetica,sans-Serif" font-size="10.00">_area/sourcecode/trigger</text>
<text text-anchor="middle" x="371" y="-178.12" font-family="Helvetica,sans-Serif" font-size="10.00">/include/trigger/TPSet.hpp</text>
</a>
</g>
</g>
<!-- Node1&#45;&gt;Node10 -->
<g id="edge9_Node000001_Node000010" class="edge">
<title>Node1&#45;&gt;Node10</title>
<g id="a_edge9_Node000001_Node000010"><a xlink:title=" ">
<path fill="none" stroke="#63b8ff" d="M709.98,-255.14C623.22,-239.56 506.96,-218.67 435.6,-205.86"/>
<polygon fill="#63b8ff" stroke="#63b8ff" points="709.26,-258.57 719.72,-256.89 710.49,-251.68 709.26,-258.57"/>
</a>
</g>
</g>
<!-- Node14 -->
<g id="Node000014" class="node">
<title>Node14</title>
<g id="a_Node000014"><a xlink:href="TriggerPrimitiveTypeAdapter_8hpp.html" target="_top" xlink:title=" ">
<polygon fill="white" stroke="#666666" points="717.5,-219.75 566.5,-219.75 566.5,-166.75 717.5,-166.75 717.5,-219.75"/>
<text text-anchor="start" x="574.5" y="-206.25" font-family="Helvetica,sans-Serif" font-size="10.00">/github/workspace/dev</text>
<text text-anchor="start" x="574.5" y="-195" font-family="Helvetica,sans-Serif" font-size="10.00">_area/sourcecode/trigger</text>
<text text-anchor="start" x="574.5" y="-183.75" font-family="Helvetica,sans-Serif" font-size="10.00">/include/trigger/TriggerPrimitive</text>
<text text-anchor="middle" x="642" y="-172.5" font-family="Helvetica,sans-Serif" font-size="10.00">TypeAdapter.hpp</text>
</a>
</g>
</g>
<!-- Node1&#45;&gt;Node14 -->
<g id="edge14_Node000001_Node000014" class="edge">
<title>Node1&#45;&gt;Node14</title>
<g id="a_edge14_Node000001_Node000014"><a xlink:title=" ">
<path fill="none" stroke="#63b8ff" d="M768.2,-250.68C746.56,-241 721.78,-229.92 699.94,-220.16"/>
<polygon fill="#63b8ff" stroke="#63b8ff" points="766.6,-253.8 777.16,-254.68 769.46,-247.41 766.6,-253.8"/>
</a>
</g>
</g>
<!-- Node3 -->
<g id="Node000003" class="node">
<title>Node3</title>
<g id="a_Node000003"><a xlink:href="TPBundleHandler_8cpp.html" target="_top" xlink:title=" ">
<polygon fill="white" stroke="#666666" points="159.62,-41.75 18.38,-41.75 18.38,0 159.62,0 159.62,-41.75"/>
<text text-anchor="start" x="26.38" y="-28.25" font-family="Helvetica,sans-Serif" font-size="10.00">/github/workspace/dev</text>
<text text-anchor="start" x="26.38" y="-17" font-family="Helvetica,sans-Serif" font-size="10.00">_area/sourcecode/dfmodules</text>
<text text-anchor="middle" x="89" y="-5.75" font-family="Helvetica,sans-Serif" font-size="10.00">/src/TPBundleHandler.cpp</text>
</a>
</g>
</g>
<!-- Node2&#45;&gt;Node3 -->
<g id="edge2_Node000002_Node000003" class="edge">
<title>Node2&#45;&gt;Node3</title>
<g id="a_edge2_Node000002_Node000003"><a xlink:title=" ">
<path fill="none" stroke="#63b8ff" d="M89,-71.89C89,-61.87 89,-51.05 89,-42.04"/>
<polygon fill="#63b8ff" stroke="#63b8ff" points="85.5,-71.62 89,-81.62 92.5,-71.62 85.5,-71.62"/>
</a>
</g>
</g>
<!-- Node5 -->
<g id="Node000005" class="node">
<title>Node5</title>
<g id="a_Node000005"><a xlink:href="trigger__activity_8cpp.html" target="_top" xlink:title=" ">
<polygon fill="white" stroke="#666666" points="1091.62,-125.12 932.38,-125.12 932.38,-83.38 1091.62,-83.38 1091.62,-125.12"/>
<text text-anchor="start" x="940.38" y="-111.62" font-family="Helvetica,sans-Serif" font-size="10.00">/github/workspace/dev</text>
<text text-anchor="start" x="940.38" y="-100.38" font-family="Helvetica,sans-Serif" font-size="10.00">_area/sourcecode/trgdataformats</text>
<text text-anchor="middle" x="1012" y="-89.12" font-family="Helvetica,sans-Serif" font-size="10.00">/pybindsrc/trigger_activity.cpp</text>
</a>
</g>
</g>
<!-- Node4&#45;&gt;Node5 -->
<g id="edge4_Node000004_Node000005" class="edge">
<title>Node4&#45;&gt;Node5</title>
<g id="a_edge4_Node000004_Node000005"><a xlink:title=" ">
<path fill="none" stroke="#63b8ff" d="M890.59,-161.44C916.3,-149.54 945.02,-136.25 968.07,-125.58"/>
<polygon fill="#63b8ff" stroke="#63b8ff" points="889.13,-158.25 881.53,-165.63 892.07,-164.61 889.13,-158.25"/>
</a>
</g>
</g>
<!-- Node6 -->
<g id="Node000006" class="node">
<title>Node6</title>
<g id="a_Node000006"><a xlink:href="trigger__candidate_8cpp.html" target="_top" xlink:title=" ">
<polygon fill="white" stroke="#666666" points="1268.62,-125.12 1109.38,-125.12 1109.38,-83.38 1268.62,-83.38 1268.62,-125.12"/>
<text text-anchor="start" x="1117.38" y="-111.62" font-family="Helvetica,sans-Serif" font-size="10.00">/github/workspace/dev</text>
<text text-anchor="start" x="1117.38" y="-100.38" font-family="Helvetica,sans-Serif" font-size="10.00">_area/sourcecode/trgdataformats</text>
<text text-anchor="middle" x="1189" y="-89.12" font-family="Helvetica,sans-Serif" font-size="10.00">/pybindsrc/trigger_candidate.cpp</text>
</a>
</g>
</g>
<!-- Node4&#45;&gt;Node6 -->
<g id="edge5_Node000004_Node000006" class="edge">
<title>Node4&#45;&gt;Node6</title>
<g id="a_edge5_Node000004_Node000006"><a xlink:title=" ">
<path fill="none" stroke="#63b8ff" d="M923.93,-166.14C1002.42,-148.48 1025.15,-149.29 1101,-130.75 1107.49,-129.16 1114.22,-127.41 1120.93,-125.59"/>
<polygon fill="#63b8ff" stroke="#63b8ff" points="923.46,-162.65 914.49,-168.29 925.02,-169.48 923.46,-162.65"/>
</a>
</g>
</g>
<!-- Node10&#45;&gt;Node2 -->
<g id="edge10_Node000010_Node000002" class="edge">
<title>Node10&#45;&gt;Node2</title>
<g id="a_edge10_Node000010_Node000002"><a xlink:title=" ">
<path fill="none" stroke="#63b8ff" d="M295.41,-168.93C251.58,-155.41 196.92,-138.54 154.86,-125.57"/>
<polygon fill="#63b8ff" stroke="#63b8ff" points="294.27,-172.24 304.86,-171.84 296.33,-165.55 294.27,-172.24"/>
</a>
</g>
</g>
<!-- Node11 -->
<g id="Node000011" class="node">
<title>Node11</title>
<g id="a_Node000011"><a xlink:href="TPRequestHandler_8hpp.html" target="_top" xlink:title=" ">
<polygon fill="white" stroke="#666666" points="362,-125.12 196,-125.12 196,-83.38 362,-83.38 362,-125.12"/>
<text text-anchor="start" x="204" y="-111.62" font-family="Helvetica,sans-Serif" font-size="10.00">/github/workspace/dev</text>
<text text-anchor="start" x="204" y="-100.38" font-family="Helvetica,sans-Serif" font-size="10.00">_area/sourcecode/trigger</text>
<text text-anchor="middle" x="279" y="-89.12" font-family="Helvetica,sans-Serif" font-size="10.00">/src/trigger/TPRequestHandler.hpp</text>
</a>
</g>
</g>
<!-- Node10&#45;&gt;Node11 -->
<g id="edge11_Node000010_Node000011" class="edge">
<title>Node10&#45;&gt;Node11</title>
<g id="a_edge11_Node000010_Node000011"><a xlink:title=" ">
<path fill="none" stroke="#63b8ff" d="M341.3,-164.16C328.03,-151.61 312.68,-137.1 300.54,-125.62"/>
<polygon fill="#63b8ff" stroke="#63b8ff" points="338.89,-166.7 348.56,-171.03 343.7,-161.62 338.89,-166.7"/>
</a>
</g>
</g>
<!-- Node13 -->
<g id="Node000013" class="node">
<title>Node13</title>
<g id="a_Node000013"><a xlink:href="TPSetSourceModel_8hpp.html" target="_top" xlink:title=" ">
<polygon fill="white" stroke="#666666" points="548.12,-125.12 379.88,-125.12 379.88,-83.38 548.12,-83.38 548.12,-125.12"/>
<text text-anchor="start" x="387.88" y="-111.62" font-family="Helvetica,sans-Serif" font-size="10.00">/github/workspace/dev</text>
<text text-anchor="start" x="387.88" y="-100.38" font-family="Helvetica,sans-Serif" font-size="10.00">_area/sourcecode/trigger</text>
<text text-anchor="middle" x="464" y="-89.12" font-family="Helvetica,sans-Serif" font-size="10.00">/src/trigger/TPSetSourceModel.hpp</text>
</a>
</g>
</g>
<!-- Node10&#45;&gt;Node13 -->
<g id="edge13_Node000010_Node000013" class="edge">
<title>Node10&#45;&gt;Node13</title>
<g id="a_edge13_Node000010_Node000013"><a xlink:title=" ">
<path fill="none" stroke="#63b8ff" d="M400.64,-164.52C414.14,-151.89 429.84,-137.21 442.22,-125.62"/>
<polygon fill="#63b8ff" stroke="#63b8ff" points="398.59,-161.65 393.68,-171.04 403.37,-166.76 398.59,-161.65"/>
</a>
</g>
</g>
<!-- Node12 -->
<g id="Node000012" class="node">
<title>Node12</title>
<g id="a_Node000012"><a xlink:href="TPRequestHandler_8cpp.html" target="_top" xlink:title=" ">
<polygon fill="white" stroke="#666666" points="347,-41.75 211,-41.75 211,0 347,0 347,-41.75"/>
<text text-anchor="start" x="219" y="-28.25" font-family="Helvetica,sans-Serif" font-size="10.00">/github/workspace/dev</text>
<text text-anchor="start" x="219" y="-17" font-family="Helvetica,sans-Serif" font-size="10.00">_area/sourcecode/trigger</text>
<text text-anchor="middle" x="279" y="-5.75" font-family="Helvetica,sans-Serif" font-size="10.00">/src/TPRequestHandler.cpp</text>
</a>
</g>
</g>
<!-- Node11&#45;&gt;Node12 -->
<g id="edge12_Node000011_Node000012" class="edge">
<title>Node11&#45;&gt;Node12</title>
<g id="a_edge12_Node000011_Node000012"><a xlink:title=" ">
<path fill="none" stroke="#63b8ff" d="M279,-71.89C279,-61.87 279,-51.05 279,-42.04"/>
<polygon fill="#63b8ff" stroke="#63b8ff" points="275.5,-71.62 279,-81.62 282.5,-71.62 275.5,-71.62"/>
</a>
</g>
</g>
<!-- Node14&#45;&gt;Node11 -->
<g id="edge21_Node000014_Node000011" class="edge">
<title>Node14&#45;&gt;Node11</title>
<g id="a_edge21_Node000014_Node000011"><a xlink:title=" ">
<path fill="none" stroke="#63b8ff" d="M555.02,-173.61C501.75,-161.92 432.26,-146.18 371,-130.75 364.57,-129.13 357.91,-127.39 351.23,-125.62"/>
<polygon fill="#63b8ff" stroke="#63b8ff" points="554.14,-177 564.66,-175.71 555.63,-170.16 554.14,-177"/>
</a>
</g>
</g>
<!-- Node14&#45;&gt;Node13 -->
<g id="edge22_Node000014_Node000013" class="edge">
<title>Node14&#45;&gt;Node13</title>
<g id="a_edge22_Node000014_Node000013"><a xlink:title=" ">
<path fill="none" stroke="#63b8ff" d="M578.82,-161.37C554.44,-149.46 527.23,-136.16 505.42,-125.5"/>
<polygon fill="#63b8ff" stroke="#63b8ff" points="577.2,-164.47 587.72,-165.72 580.27,-158.18 577.2,-164.47"/>
</a>
</g>
</g>
<!-- Node15 -->
<g id="Node000015" class="node">
<title>Node15</title>
<g id="a_Node000015"><a xlink:href="WIBEthFrameProcessor_8hpp.html" target="_top" xlink:title=" ">
<polygon fill="white" stroke="#666666" points="717.88,-130.75 566.12,-130.75 566.12,-77.75 717.88,-77.75 717.88,-130.75"/>
<text text-anchor="start" x="574.12" y="-117.25" font-family="Helvetica,sans-Serif" font-size="10.00">/github/workspace/dev</text>
<text text-anchor="start" x="574.12" y="-106" font-family="Helvetica,sans-Serif" font-size="10.00">_area/sourcecode/fdreadoutlibs</text>
<text text-anchor="start" x="574.12" y="-94.75" font-family="Helvetica,sans-Serif" font-size="10.00">/include/fdreadoutlibs/wibeth</text>
<text text-anchor="middle" x="642" y="-83.5" font-family="Helvetica,sans-Serif" font-size="10.00">/WIBEthFrameProcessor.hpp</text>
</a>
</g>
</g>
<!-- Node14&#45;&gt;Node15 -->
<g id="edge15_Node000014_Node000015" class="edge">
<title>Node14&#45;&gt;Node15</title>
<g id="a_edge15_Node000014_Node000015"><a xlink:title=" ">
<path fill="none" stroke="#63b8ff" d="M642,-155.36C642,-147.16 642,-138.64 642,-131"/>
<polygon fill="#63b8ff" stroke="#63b8ff" points="638.5,-155.1 642,-165.1 645.5,-155.1 638.5,-155.1"/>
</a>
</g>
</g>
<!-- Node17 -->
<g id="Node000017" class="node">
<title>Node17</title>
<g id="a_Node000017"><a xlink:href="WIBEthFrameProcessor_8cpp.html" target="_top" xlink:title=" ">
<polygon fill="white" stroke="#666666" points="802,-41.75 612,-41.75 612,0 802,0 802,-41.75"/>
<text text-anchor="start" x="620" y="-28.25" font-family="Helvetica,sans-Serif" font-size="10.00">/github/workspace/dev</text>
<text text-anchor="start" x="620" y="-17" font-family="Helvetica,sans-Serif" font-size="10.00">_area/sourcecode/fdreadoutlibs</text>
<text text-anchor="middle" x="707" y="-5.75" font-family="Helvetica,sans-Serif" font-size="10.00">/src/wibeth/WIBEthFrameProcessor.cpp</text>
</a>
</g>
</g>
<!-- Node14&#45;&gt;Node17 -->
<g id="edge18_Node000014_Node000017" class="edge">
<title>Node14&#45;&gt;Node17</title>
<g id="a_edge18_Node000014_Node000017"><a xlink:title=" ">
<path fill="none" stroke="#63b8ff" d="M703.02,-159.36C712.69,-151.33 721.35,-141.8 727,-130.75 741.51,-102.34 728.79,-64.99 718.06,-42.25"/>
<polygon fill="#63b8ff" stroke="#63b8ff" points="700.94,-156.54 695.11,-165.39 705.18,-162.11 700.94,-156.54"/>
</a>
</g>
</g>
<!-- Node18 -->
<g id="Node000018" class="node">
<title>Node18</title>
<g id="a_Node000018"><a xlink:href="TPProcessor_8hpp.html" target="_top" xlink:title=" ">
<polygon fill="white" stroke="#666666" points="914.25,-125.12 773.75,-125.12 773.75,-83.38 914.25,-83.38 914.25,-125.12"/>
<text text-anchor="start" x="781.75" y="-111.62" font-family="Helvetica,sans-Serif" font-size="10.00">/github/workspace/dev</text>
<text text-anchor="start" x="781.75" y="-100.38" font-family="Helvetica,sans-Serif" font-size="10.00">_area/sourcecode/trigger</text>
<text text-anchor="middle" x="844" y="-89.12" font-family="Helvetica,sans-Serif" font-size="10.00">/src/trigger/TPProcessor.hpp</text>
</a>
</g>
</g>
<!-- Node14&#45;&gt;Node18 -->
<g id="edge19_Node000014_Node000018" class="edge">
<title>Node14&#45;&gt;Node18</title>
<g id="a_edge19_Node000014_Node000018"><a xlink:title=" ">
<path fill="none" stroke="#63b8ff" d="M712.81,-161.75C740.63,-149.77 771.81,-136.34 796.79,-125.58"/>
<polygon fill="#63b8ff" stroke="#63b8ff" points="711.52,-158.5 703.72,-165.67 714.29,-164.93 711.52,-158.5"/>
</a>
</g>
</g>
<!-- Node16 -->
<g id="Node000016" class="node">
<title>Node16</title>
<g id="a_Node000016"><a xlink:href="FDReadoutlibs_8cpp.html" target="_top" xlink:title=" ">
<polygon fill="white" stroke="#666666" points="593.88,-41.75 442.12,-41.75 442.12,0 593.88,0 593.88,-41.75"/>
<text text-anchor="start" x="450.12" y="-28.25" font-family="Helvetica,sans-Serif" font-size="10.00">/github/workspace/dev</text>
<text text-anchor="start" x="450.12" y="-17" font-family="Helvetica,sans-Serif" font-size="10.00">_area/sourcecode/fdreadoutlibs</text>
<text text-anchor="middle" x="518" y="-5.75" font-family="Helvetica,sans-Serif" font-size="10.00">/src/FDReadoutlibs.cpp</text>
</a>
</g>
</g>
<!-- Node15&#45;&gt;Node16 -->
<g id="edge16_Node000015_Node000016" class="edge">
<title>Node15&#45;&gt;Node16</title>
<g id="a_edge16_Node000015_Node000016"><a xlink:title=" ">
<path fill="none" stroke="#63b8ff" d="M592.88,-71.01C578.07,-61.3 562.24,-50.91 548.96,-42.19"/>
<polygon fill="#63b8ff" stroke="#63b8ff" points="590.88,-73.89 601.16,-76.45 594.72,-68.04 590.88,-73.89"/>
</a>
</g>
</g>
<!-- Node15&#45;&gt;Node17 -->
<g id="edge17_Node000015_Node000017" class="edge">
<title>Node15&#45;&gt;Node17</title>
<g id="a_edge17_Node000015_Node000017"><a xlink:title=" ">
<path fill="none" stroke="#63b8ff" d="M669.65,-68.64C676.89,-59.56 684.47,-50.08 690.89,-42.04"/>
<polygon fill="#63b8ff" stroke="#63b8ff" points="667.02,-66.32 663.51,-76.32 672.49,-70.69 667.02,-66.32"/>
</a>
</g>
</g>
<!-- Node19 -->
<g id="Node000019" class="node">
<title>Node19</title>
<g id="a_Node000019"><a xlink:href="TPProcessor_8cpp.html" target="_top" xlink:title=" ">
<polygon fill="white" stroke="#666666" points="943.62,-41.75 820.38,-41.75 820.38,0 943.62,0 943.62,-41.75"/>
<text text-anchor="start" x="828.38" y="-28.25" font-family="Helvetica,sans-Serif" font-size="10.00">/github/workspace/dev</text>
<text text-anchor="start" x="828.38" y="-17" font-family="Helvetica,sans-Serif" font-size="10.00">_area/sourcecode/trigger</text>
<text text-anchor="middle" x="882" y="-5.75" font-family="Helvetica,sans-Serif" font-size="10.00">/src/TPProcessor.cpp</text>
</a>
</g>
</g>
<!-- Node18&#45;&gt;Node19 -->
<g id="edge20_Node000018_Node000019" class="edge">
<title>Node18&#45;&gt;Node19</title>
<g id="a_edge20_Node000018_Node000019"><a xlink:title=" ">
<path fill="none" stroke="#63b8ff" d="M858.19,-72.87C862.99,-62.58 868.24,-51.34 872.58,-42.04"/>
<polygon fill="#63b8ff" stroke="#63b8ff" points="855.09,-71.22 854.03,-81.76 861.44,-74.18 855.09,-71.22"/>
</a>
</g>
</g>
</g>
</svg>
