<?xml version="1.0" encoding="UTF-8" standalone="no"?>
<!DOCTYPE svg PUBLIC "-//W3C//DTD SVG 1.1//EN"
 "http://www.w3.org/Graphics/SVG/1.1/DTD/svg11.dtd">
<!-- Generated by graphviz version 9.0.0 (20230911.1827)
 -->
<!-- Title: /github/workspace/dev_area/build/trigger/codegen/include/trigger/customtriggercandidatemakerinfo/InfoNljs.hpp Pages: 1 -->
<svg width="314pt" height="183pt"
 viewBox="0.00 0.00 313.50 182.75" xmlns="http://www.w3.org/2000/svg" xmlns:xlink="http://www.w3.org/1999/xlink">
<g id="graph0" class="graph" transform="scale(1 1) rotate(0) translate(4 178.75)">
<title>/github/workspace/dev_area/build/trigger/codegen/include/trigger/customtriggercandidatemakerinfo/InfoNljs.hpp</title>
<!-- Node1 -->
<g id="Node000001" class="node">
<title>Node1</title>
<g id="a_Node000001"><a xlink:title=" ">
<polygon fill="#999999" stroke="#666666" points="289.38,-174.75 62.62,-174.75 62.62,-121.75 289.38,-121.75 289.38,-174.75"/>
<text text-anchor="start" x="70.62" y="-161.25" font-family="Helvetica,sans-Serif" font-size="10.00">/github/workspace/dev</text>
<text text-anchor="start" x="70.62" y="-150" font-family="Helvetica,sans-Serif" font-size="10.00">_area/build/trigger/codegen</text>
<text text-anchor="start" x="70.62" y="-138.75" font-family="Helvetica,sans-Serif" font-size="10.00">/include/trigger/customtriggercandidatemakerinfo</text>
<text text-anchor="middle" x="176" y="-127.5" font-family="Helvetica,sans-Serif" font-size="10.00">/InfoNljs.hpp</text>
</a>
</g>
</g>
<!-- Node2 -->
<g id="Node000002" class="node">
<title>Node2</title>
<g id="a_Node000002"><a xlink:href="trigger_2codegen_2include_2trigger_2customtriggercandidatemakerinfo_2InfoStructs_8hpp.html" target="_top" xlink:title=" ">
<polygon fill="white" stroke="#666666" points="190,-85.75 0,-85.75 0,-55.25 190,-55.25 190,-85.75"/>
<text text-anchor="start" x="8" y="-72.25" font-family="Helvetica,sans-Serif" font-size="10.00">trigger/customtriggercandidatemakerinfo</text>
<text text-anchor="middle" x="95" y="-61" font-family="Helvetica,sans-Serif" font-size="10.00">/InfoStructs.hpp</text>
</a>
</g>
</g>
<!-- Node1&#45;&gt;Node2 -->
<g id="edge1_Node000001_Node000002" class="edge">
<title>Node1&#45;&gt;Node2</title>
<g id="a_edge1_Node000001_Node000002"><a xlink:title=" ">
<path fill="none" stroke="#63b8ff" d="M148.58,-121.6C138.98,-112.63 128.28,-102.62 118.98,-93.93"/>
<polygon fill="#63b8ff" stroke="#63b8ff" points="121.38,-91.38 111.69,-87.11 116.6,-96.49 121.38,-91.38"/>
</a>
</g>
</g>
<!-- Node4 -->
<g id="Node000004" class="node">
<title>Node4</title>
<g id="a_Node000004"><a xlink:title=" ">
<polygon fill="#e0e0e0" stroke="#999999" points="305.5,-80.12 208.5,-80.12 208.5,-60.88 305.5,-60.88 305.5,-80.12"/>
<text text-anchor="middle" x="257" y="-66.62" font-family="Helvetica,sans-Serif" font-size="10.00">nlohmann/json.hpp</text>
</a>
</g>
</g>
<!-- Node1&#45;&gt;Node4 -->
<g id="edge3_Node000001_Node000004" class="edge">
<title>Node1&#45;&gt;Node4</title>
<g id="a_edge3_Node000001_Node000004"><a xlink:title=" ">
<path fill="none" stroke="#63b8ff" d="M203.42,-121.6C215.21,-110.58 228.65,-98.01 239.12,-88.22"/>
<polygon fill="#63b8ff" stroke="#63b8ff" points="241.42,-90.86 246.33,-81.47 236.64,-85.75 241.42,-90.86"/>
</a>
</g>
</g>
<!-- Node3 -->
<g id="Node000003" class="node">
<title>Node3</title>
<g id="a_Node000003"><a xlink:title=" ">
<polygon fill="#e0e0e0" stroke="#999999" points="117.62,-19.25 72.38,-19.25 72.38,0 117.62,0 117.62,-19.25"/>
<text text-anchor="middle" x="95" y="-5.75" font-family="Helvetica,sans-Serif" font-size="10.00">cstdint</text>
</a>
</g>
</g>
<!-- Node2&#45;&gt;Node3 -->
<g id="edge2_Node000002_Node000003" class="edge">
<title>Node2&#45;&gt;Node3</title>
<g id="a_edge2_Node000002_Node000003"><a xlink:title=" ">
<path fill="none" stroke="#63b8ff" d="M95,-54.95C95,-47.71 95,-38.84 95,-30.94"/>
<polygon fill="#63b8ff" stroke="#63b8ff" points="98.5,-31.21 95,-21.21 91.5,-31.21 98.5,-31.21"/>
</a>
</g>
</g>
</g>
</svg>
