<?xml version="1.0" encoding="UTF-8" standalone="no"?>
<!DOCTYPE svg PUBLIC "-//W3C//DTD SVG 1.1//EN"
 "http://www.w3.org/Graphics/SVG/1.1/DTD/svg11.dtd">
<!-- Generated by graphviz version 9.0.0 (20230911.1827)
 -->
<!-- Title: /github/workspace/dev_area/build/trigger/codegen/include/trigger/faketpcreatorheartbeatmakerinfo/InfoNljs.hpp Pages: 1 -->
<svg width="310pt" height="183pt"
 viewBox="0.00 0.00 309.62 182.75" xmlns="http://www.w3.org/2000/svg" xmlns:xlink="http://www.w3.org/1999/xlink">
<g id="graph0" class="graph" transform="scale(1 1) rotate(0) translate(4 178.75)">
<title>/github/workspace/dev_area/build/trigger/codegen/include/trigger/faketpcreatorheartbeatmakerinfo/InfoNljs.hpp</title>
<!-- Node1 -->
<g id="Node000001" class="node">
<title>Node1</title>
<g id="a_Node000001"><a xlink:title=" ">
<polygon fill="#999999" stroke="#666666" points="284.62,-174.75 61.62,-174.75 61.62,-121.75 284.62,-121.75 284.62,-174.75"/>
<text text-anchor="start" x="69.62" y="-161.25" font-family="Helvetica,sans-Serif" font-size="10.00">/github/workspace/dev</text>
<text text-anchor="start" x="69.62" y="-150" font-family="Helvetica,sans-Serif" font-size="10.00">_area/build/trigger/codegen</text>
<text text-anchor="start" x="69.62" y="-138.75" font-family="Helvetica,sans-Serif" font-size="10.00">/include/trigger/faketpcreatorheartbeatmakerinfo</text>
<text text-anchor="middle" x="173.12" y="-127.5" font-family="Helvetica,sans-Serif" font-size="10.00">/InfoNljs.hpp</text>
</a>
</g>
</g>
<!-- Node2 -->
<g id="Node000002" class="node">
<title>Node2</title>
<g id="a_Node000002"><a xlink:href="trigger_2codegen_2include_2trigger_2faketpcreatorheartbeatmakerinfo_2InfoStructs_8hpp.html" target="_top" xlink:title=" ">
<polygon fill="white" stroke="#666666" points="186.25,-85.75 0,-85.75 0,-55.25 186.25,-55.25 186.25,-85.75"/>
<text text-anchor="start" x="8" y="-72.25" font-family="Helvetica,sans-Serif" font-size="10.00">trigger/faketpcreatorheartbeatmakerinfo</text>
<text text-anchor="middle" x="93.12" y="-61" font-family="Helvetica,sans-Serif" font-size="10.00">/InfoStructs.hpp</text>
</a>
</g>
</g>
<!-- Node1&#45;&gt;Node2 -->
<g id="edge1_Node000001_Node000002" class="edge">
<title>Node1&#45;&gt;Node2</title>
<g id="a_edge1_Node000001_Node000002"><a xlink:title=" ">
<path fill="none" stroke="#63b8ff" d="M146.04,-121.6C136.56,-112.63 125.99,-102.62 116.81,-93.93"/>
<polygon fill="#63b8ff" stroke="#63b8ff" points="119.28,-91.45 109.61,-87.11 114.47,-96.53 119.28,-91.45"/>
</a>
</g>
</g>
<!-- Node4 -->
<g id="Node000004" class="node">
<title>Node4</title>
<g id="a_Node000004"><a xlink:title=" ">
<polygon fill="#e0e0e0" stroke="#999999" points="301.62,-80.12 204.62,-80.12 204.62,-60.88 301.62,-60.88 301.62,-80.12"/>
<text text-anchor="middle" x="253.12" y="-66.62" font-family="Helvetica,sans-Serif" font-size="10.00">nlohmann/json.hpp</text>
</a>
</g>
</g>
<!-- Node1&#45;&gt;Node4 -->
<g id="edge3_Node000001_Node000004" class="edge">
<title>Node1&#45;&gt;Node4</title>
<g id="a_edge3_Node000001_Node000004"><a xlink:title=" ">
<path fill="none" stroke="#63b8ff" d="M200.21,-121.6C211.85,-110.58 225.12,-98.01 235.46,-88.22"/>
<polygon fill="#63b8ff" stroke="#63b8ff" points="237.73,-90.9 242.58,-81.48 232.92,-85.82 237.73,-90.9"/>
</a>
</g>
</g>
<!-- Node3 -->
<g id="Node000003" class="node">
<title>Node3</title>
<g id="a_Node000003"><a xlink:title=" ">
<polygon fill="#e0e0e0" stroke="#999999" points="115.75,-19.25 70.5,-19.25 70.5,0 115.75,0 115.75,-19.25"/>
<text text-anchor="middle" x="93.12" y="-5.75" font-family="Helvetica,sans-Serif" font-size="10.00">cstdint</text>
</a>
</g>
</g>
<!-- Node2&#45;&gt;Node3 -->
<g id="edge2_Node000002_Node000003" class="edge">
<title>Node2&#45;&gt;Node3</title>
<g id="a_edge2_Node000002_Node000003"><a xlink:title=" ">
<path fill="none" stroke="#63b8ff" d="M93.12,-54.95C93.12,-47.71 93.12,-38.84 93.12,-30.94"/>
<polygon fill="#63b8ff" stroke="#63b8ff" points="96.63,-31.21 93.13,-21.21 89.63,-31.21 96.63,-31.21"/>
</a>
</g>
</g>
</g>
</svg>
