<?xml version="1.0" encoding="UTF-8" standalone="no"?>
<!DOCTYPE svg PUBLIC "-//W3C//DTD SVG 1.1//EN"
 "http://www.w3.org/Graphics/SVG/1.1/DTD/svg11.dtd">
<!-- Generated by graphviz version 9.0.0 (20230911.1827)
 -->
<!-- Title: /github/workspace/dev_area/build/trigger/codegen/include/trigger/timingtriggercandidatemakerinfo/InfoNljs.hpp Pages: 1 -->
<svg width="308pt" height="183pt"
 viewBox="0.00 0.00 307.50 182.75" xmlns="http://www.w3.org/2000/svg" xmlns:xlink="http://www.w3.org/1999/xlink">
<g id="graph0" class="graph" transform="scale(1 1) rotate(0) translate(4 178.75)">
<title>/github/workspace/dev_area/build/trigger/codegen/include/trigger/timingtriggercandidatemakerinfo/InfoNljs.hpp</title>
<!-- Node1 -->
<g id="Node000001" class="node">
<title>Node1</title>
<g id="a_Node000001"><a xlink:title=" ">
<polygon fill="#999999" stroke="#666666" points="281.38,-174.75 60.62,-174.75 60.62,-121.75 281.38,-121.75 281.38,-174.75"/>
<text text-anchor="start" x="68.62" y="-161.25" font-family="Helvetica,sans-Serif" font-size="10.00">/github/workspace/dev</text>
<text text-anchor="start" x="68.62" y="-150" font-family="Helvetica,sans-Serif" font-size="10.00">_area/build/trigger/codegen</text>
<text text-anchor="start" x="68.62" y="-138.75" font-family="Helvetica,sans-Serif" font-size="10.00">/include/trigger/timingtriggercandidatemakerinfo</text>
<text text-anchor="middle" x="171" y="-127.5" font-family="Helvetica,sans-Serif" font-size="10.00">/InfoNljs.hpp</text>
</a>
</g>
</g>
<!-- Node2 -->
<g id="Node000002" class="node">
<title>Node2</title>
<g id="a_Node000002"><a xlink:href="trigger_2codegen_2include_2trigger_2timingtriggercandidatemakerinfo_2InfoStructs_8hpp.html" target="_top" xlink:title=" ">
<polygon fill="white" stroke="#666666" points="184,-85.75 0,-85.75 0,-55.25 184,-55.25 184,-85.75"/>
<text text-anchor="start" x="8" y="-72.25" font-family="Helvetica,sans-Serif" font-size="10.00">trigger/timingtriggercandidatemakerinfo</text>
<text text-anchor="middle" x="92" y="-61" font-family="Helvetica,sans-Serif" font-size="10.00">/InfoStructs.hpp</text>
</a>
</g>
</g>
<!-- Node1&#45;&gt;Node2 -->
<g id="edge1_Node000001_Node000002" class="edge">
<title>Node1&#45;&gt;Node2</title>
<g id="a_edge1_Node000001_Node000002"><a xlink:title=" ">
<path fill="none" stroke="#63b8ff" d="M144.25,-121.6C134.89,-112.63 124.46,-102.62 115.39,-93.93"/>
<polygon fill="#63b8ff" stroke="#63b8ff" points="117.93,-91.51 108.29,-87.12 113.09,-96.57 117.93,-91.51"/>
</a>
</g>
</g>
<!-- Node4 -->
<g id="Node000004" class="node">
<title>Node4</title>
<g id="a_Node000004"><a xlink:title=" ">
<polygon fill="#e0e0e0" stroke="#999999" points="299.5,-80.12 202.5,-80.12 202.5,-60.88 299.5,-60.88 299.5,-80.12"/>
<text text-anchor="middle" x="251" y="-66.62" font-family="Helvetica,sans-Serif" font-size="10.00">nlohmann/json.hpp</text>
</a>
</g>
</g>
<!-- Node1&#45;&gt;Node4 -->
<g id="edge3_Node000001_Node000004" class="edge">
<title>Node1&#45;&gt;Node4</title>
<g id="a_edge3_Node000001_Node000004"><a xlink:title=" ">
<path fill="none" stroke="#63b8ff" d="M198.08,-121.6C209.72,-110.58 223,-98.01 233.34,-88.22"/>
<polygon fill="#63b8ff" stroke="#63b8ff" points="235.6,-90.9 240.46,-81.48 230.79,-85.82 235.6,-90.9"/>
</a>
</g>
</g>
<!-- Node3 -->
<g id="Node000003" class="node">
<title>Node3</title>
<g id="a_Node000003"><a xlink:title=" ">
<polygon fill="#e0e0e0" stroke="#999999" points="114.62,-19.25 69.38,-19.25 69.38,0 114.62,0 114.62,-19.25"/>
<text text-anchor="middle" x="92" y="-5.75" font-family="Helvetica,sans-Serif" font-size="10.00">cstdint</text>
</a>
</g>
</g>
<!-- Node2&#45;&gt;Node3 -->
<g id="edge2_Node000002_Node000003" class="edge">
<title>Node2&#45;&gt;Node3</title>
<g id="a_edge2_Node000002_Node000003"><a xlink:title=" ">
<path fill="none" stroke="#63b8ff" d="M92,-54.95C92,-47.71 92,-38.84 92,-30.94"/>
<polygon fill="#63b8ff" stroke="#63b8ff" points="95.5,-31.21 92,-21.21 88.5,-31.21 95.5,-31.21"/>
</a>
</g>
</g>
</g>
</svg>
