<?xml version="1.0" encoding="UTF-8" standalone="no"?>
<!DOCTYPE svg PUBLIC "-//W3C//DTD SVG 1.1//EN"
 "http://www.w3.org/Graphics/SVG/1.1/DTD/svg11.dtd">
<!-- Generated by graphviz version 9.0.0 (20230911.1827)
 -->
<!-- Title: /github/workspace/dev_area/sourcecode/trgdataformats/include/trgdataformats/TriggerActivityData.hpp Pages: 1 -->
<svg width="344pt" height="228pt"
 viewBox="0.00 0.00 344.25 227.75" xmlns="http://www.w3.org/2000/svg" xmlns:xlink="http://www.w3.org/1999/xlink">
<g id="graph0" class="graph" transform="scale(1 1) rotate(0) translate(4 223.75)">
<title>/github/workspace/dev_area/sourcecode/trgdataformats/include/trgdataformats/TriggerActivityData.hpp</title>
<!-- Node1 -->
<g id="Node000001" class="node">
<title>Node1</title>
<g id="a_Node000001"><a xlink:title=" ">
<polygon fill="#999999" stroke="#666666" points="258.12,-219.75 77.12,-219.75 77.12,-166.75 258.12,-166.75 258.12,-219.75"/>
<text text-anchor="start" x="85.12" y="-206.25" font-family="Helvetica,sans-Serif" font-size="10.00">/github/workspace/dev</text>
<text text-anchor="start" x="85.12" y="-195" font-family="Helvetica,sans-Serif" font-size="10.00">_area/sourcecode/trgdataformats</text>
<text text-anchor="start" x="85.12" y="-183.75" font-family="Helvetica,sans-Serif" font-size="10.00">/include/trgdataformats/TriggerActivity</text>
<text text-anchor="middle" x="167.62" y="-172.5" font-family="Helvetica,sans-Serif" font-size="10.00">Data.hpp</text>
</a>
</g>
</g>
<!-- Node2 -->
<g id="Node000002" class="node">
<title>Node2</title>
<g id="a_Node000002"><a xlink:href="TriggerObjectOverlay_8hpp.html" target="_top" xlink:title=" ">
<polygon fill="white" stroke="#666666" points="256.25,-130.75 79,-130.75 79,-77.75 256.25,-77.75 256.25,-130.75"/>
<text text-anchor="start" x="87" y="-117.25" font-family="Helvetica,sans-Serif" font-size="10.00">/github/workspace/dev</text>
<text text-anchor="start" x="87" y="-106" font-family="Helvetica,sans-Serif" font-size="10.00">_area/sourcecode/trgdataformats</text>
<text text-anchor="start" x="87" y="-94.75" font-family="Helvetica,sans-Serif" font-size="10.00">/include/trgdataformats/TriggerObject</text>
<text text-anchor="middle" x="167.62" y="-83.5" font-family="Helvetica,sans-Serif" font-size="10.00">Overlay.hpp</text>
</a>
</g>
</g>
<!-- Node1&#45;&gt;Node2 -->
<g id="edge1_Node000001_Node000002" class="edge">
<title>Node1&#45;&gt;Node2</title>
<g id="a_edge1_Node000001_Node000002"><a xlink:title=" ">
<path fill="none" stroke="#63b8ff" d="M167.62,-155.36C167.62,-147.16 167.62,-138.64 167.62,-131"/>
<polygon fill="#63b8ff" stroke="#63b8ff" points="164.13,-155.1 167.63,-165.1 171.13,-155.1 164.13,-155.1"/>
</a>
</g>
</g>
<!-- Node3 -->
<g id="Node000003" class="node">
<title>Node3</title>
<g id="a_Node000003"><a xlink:href="trigger__activity_8cpp.html" target="_top" xlink:title=" ">
<polygon fill="white" stroke="#666666" points="159.25,-41.75 0,-41.75 0,0 159.25,0 159.25,-41.75"/>
<text text-anchor="start" x="8" y="-28.25" font-family="Helvetica,sans-Serif" font-size="10.00">/github/workspace/dev</text>
<text text-anchor="start" x="8" y="-17" font-family="Helvetica,sans-Serif" font-size="10.00">_area/sourcecode/trgdataformats</text>
<text text-anchor="middle" x="79.62" y="-5.75" font-family="Helvetica,sans-Serif" font-size="10.00">/pybindsrc/trigger_activity.cpp</text>
</a>
</g>
</g>
<!-- Node2&#45;&gt;Node3 -->
<g id="edge2_Node000002_Node000003" class="edge">
<title>Node2&#45;&gt;Node3</title>
<g id="a_edge2_Node000002_Node000003"><a xlink:title=" ">
<path fill="none" stroke="#63b8ff" d="M131.42,-69.77C121.24,-60.36 110.49,-50.41 101.43,-42.04"/>
<polygon fill="#63b8ff" stroke="#63b8ff" points="128.95,-72.26 138.67,-76.47 133.7,-67.12 128.95,-72.26"/>
</a>
</g>
</g>
<!-- Node4 -->
<g id="Node000004" class="node">
<title>Node4</title>
<g id="a_Node000004"><a xlink:href="trigger__candidate_8cpp.html" target="_top" xlink:title=" ">
<polygon fill="white" stroke="#666666" points="336.25,-41.75 177,-41.75 177,0 336.25,0 336.25,-41.75"/>
<text text-anchor="start" x="185" y="-28.25" font-family="Helvetica,sans-Serif" font-size="10.00">/github/workspace/dev</text>
<text text-anchor="start" x="185" y="-17" font-family="Helvetica,sans-Serif" font-size="10.00">_area/sourcecode/trgdataformats</text>
<text text-anchor="middle" x="256.62" y="-5.75" font-family="Helvetica,sans-Serif" font-size="10.00">/pybindsrc/trigger_candidate.cpp</text>
</a>
</g>
</g>
<!-- Node2&#45;&gt;Node4 -->
<g id="edge3_Node000002_Node000004" class="edge">
<title>Node2&#45;&gt;Node4</title>
<g id="a_edge3_Node000002_Node000004"><a xlink:title=" ">
<path fill="none" stroke="#63b8ff" d="M204.24,-69.77C214.54,-60.36 225.41,-50.41 234.57,-42.04"/>
<polygon fill="#63b8ff" stroke="#63b8ff" points="201.92,-67.15 196.9,-76.48 206.64,-72.32 201.92,-67.15"/>
</a>
</g>
</g>
</g>
</svg>
