<?xml version="1.0" encoding="UTF-8" standalone="no"?>
<!DOCTYPE svg PUBLIC "-//W3C//DTD SVG 1.1//EN"
 "http://www.w3.org/Graphics/SVG/1.1/DTD/svg11.dtd">
<!-- Generated by graphviz version 9.0.0 (20230911.1827)
 -->
<!-- Title: /github/workspace/dev_area/build/trigger/codegen/include/trigger/moduleleveltriggerinfo/InfoNljs.hpp Pages: 1 -->
<svg width="264pt" height="183pt"
 viewBox="0.00 0.00 263.75 182.75" xmlns="http://www.w3.org/2000/svg" xmlns:xlink="http://www.w3.org/1999/xlink">
<g id="graph0" class="graph" transform="scale(1 1) rotate(0) translate(4 178.75)">
<title>/github/workspace/dev_area/build/trigger/codegen/include/trigger/moduleleveltriggerinfo/InfoNljs.hpp</title>
<!-- Node1 -->
<g id="Node000001" class="node">
<title>Node1</title>
<g id="a_Node000001"><a xlink:title=" ">
<polygon fill="#999999" stroke="#666666" points="226.88,-174.75 49.62,-174.75 49.62,-121.75 226.88,-121.75 226.88,-174.75"/>
<text text-anchor="start" x="57.62" y="-161.25" font-family="Helvetica,sans-Serif" font-size="10.00">/github/workspace/dev</text>
<text text-anchor="start" x="57.62" y="-150" font-family="Helvetica,sans-Serif" font-size="10.00">_area/build/trigger/codegen</text>
<text text-anchor="start" x="57.62" y="-138.75" font-family="Helvetica,sans-Serif" font-size="10.00">/include/trigger/moduleleveltriggerinfo</text>
<text text-anchor="middle" x="138.25" y="-127.5" font-family="Helvetica,sans-Serif" font-size="10.00">/InfoNljs.hpp</text>
</a>
</g>
</g>
<!-- Node2 -->
<g id="Node000002" class="node">
<title>Node2</title>
<g id="a_Node000002"><a xlink:href="trigger_2codegen_2include_2trigger_2moduleleveltriggerinfo_2InfoStructs_8hpp.html" target="_top" xlink:title=" ">
<polygon fill="white" stroke="#666666" points="140.5,-85.75 0,-85.75 0,-55.25 140.5,-55.25 140.5,-85.75"/>
<text text-anchor="start" x="8" y="-72.25" font-family="Helvetica,sans-Serif" font-size="10.00">trigger/moduleleveltriggerinfo</text>
<text text-anchor="middle" x="70.25" y="-61" font-family="Helvetica,sans-Serif" font-size="10.00">/InfoStructs.hpp</text>
</a>
</g>
</g>
<!-- Node1&#45;&gt;Node2 -->
<g id="edge1_Node000001_Node000002" class="edge">
<title>Node1&#45;&gt;Node2</title>
<g id="a_edge1_Node000001_Node000002"><a xlink:title=" ">
<path fill="none" stroke="#63b8ff" d="M115.23,-121.6C107.34,-112.81 98.56,-103.04 90.87,-94.47"/>
<polygon fill="#63b8ff" stroke="#63b8ff" points="93.63,-92.3 84.34,-87.2 88.42,-96.98 93.63,-92.3"/>
</a>
</g>
</g>
<!-- Node4 -->
<g id="Node000004" class="node">
<title>Node4</title>
<g id="a_Node000004"><a xlink:title=" ">
<polygon fill="#e0e0e0" stroke="#999999" points="255.75,-80.12 158.75,-80.12 158.75,-60.88 255.75,-60.88 255.75,-80.12"/>
<text text-anchor="middle" x="207.25" y="-66.62" font-family="Helvetica,sans-Serif" font-size="10.00">nlohmann/json.hpp</text>
</a>
</g>
</g>
<!-- Node1&#45;&gt;Node4 -->
<g id="edge3_Node000001_Node000004" class="edge">
<title>Node1&#45;&gt;Node4</title>
<g id="a_edge3_Node000001_Node000004"><a xlink:title=" ">
<path fill="none" stroke="#63b8ff" d="M161.61,-121.6C171.45,-110.81 182.64,-98.52 191.47,-88.82"/>
<polygon fill="#63b8ff" stroke="#63b8ff" points="193.94,-91.31 198.09,-81.56 188.77,-86.6 193.94,-91.31"/>
</a>
</g>
</g>
<!-- Node3 -->
<g id="Node000003" class="node">
<title>Node3</title>
<g id="a_Node000003"><a xlink:title=" ">
<polygon fill="#e0e0e0" stroke="#999999" points="92.88,-19.25 47.62,-19.25 47.62,0 92.88,0 92.88,-19.25"/>
<text text-anchor="middle" x="70.25" y="-5.75" font-family="Helvetica,sans-Serif" font-size="10.00">cstdint</text>
</a>
</g>
</g>
<!-- Node2&#45;&gt;Node3 -->
<g id="edge2_Node000002_Node000003" class="edge">
<title>Node2&#45;&gt;Node3</title>
<g id="a_edge2_Node000002_Node000003"><a xlink:title=" ">
<path fill="none" stroke="#63b8ff" d="M70.25,-54.95C70.25,-47.71 70.25,-38.84 70.25,-30.94"/>
<polygon fill="#63b8ff" stroke="#63b8ff" points="73.75,-31.21 70.25,-21.21 66.75,-31.21 73.75,-31.21"/>
</a>
</g>
</g>
</g>
</svg>
