<?xml version="1.0" encoding="UTF-8" standalone="no"?>
<!DOCTYPE svg PUBLIC "-//W3C//DTD SVG 1.1//EN"
 "http://www.w3.org/Graphics/SVG/1.1/DTD/svg11.dtd">
<!-- Generated by graphviz version 9.0.0 (20230911.1827)
 -->
<!-- Title: /github/workspace/dev_area/sourcecode/trgdataformats/include/trgdataformats/TriggerCandidateData.hpp Pages: 1 -->
<svg width="503pt" height="228pt"
 viewBox="0.00 0.00 502.88 227.75" xmlns="http://www.w3.org/2000/svg" xmlns:xlink="http://www.w3.org/1999/xlink">
<g id="graph0" class="graph" transform="scale(1 1) rotate(0) translate(4 223.75)">
<title>/github/workspace/dev_area/sourcecode/trgdataformats/include/trgdataformats/TriggerCandidateData.hpp</title>
<!-- Node1 -->
<g id="Node000001" class="node">
<title>Node1</title>
<g id="a_Node000001"><a xlink:title=" ">
<polygon fill="#999999" stroke="#666666" points="431.75,-219.75 239.5,-219.75 239.5,-166.75 431.75,-166.75 431.75,-219.75"/>
<text text-anchor="start" x="247.5" y="-206.25" font-family="Helvetica,sans-Serif" font-size="10.00">/github/workspace/dev</text>
<text text-anchor="start" x="247.5" y="-195" font-family="Helvetica,sans-Serif" font-size="10.00">_area/sourcecode/trgdataformats</text>
<text text-anchor="start" x="247.5" y="-183.75" font-family="Helvetica,sans-Serif" font-size="10.00">/include/trgdataformats/TriggerCandidate</text>
<text text-anchor="middle" x="335.62" y="-172.5" font-family="Helvetica,sans-Serif" font-size="10.00">Data.hpp</text>
</a>
</g>
</g>
<!-- Node2 -->
<g id="Node000002" class="node">
<title>Node2</title>
<g id="a_Node000002"><a xlink:href="TriggerObjectOverlay_8hpp.html" target="_top" xlink:title=" ">
<polygon fill="white" stroke="#666666" points="336.25,-130.75 159,-130.75 159,-77.75 336.25,-77.75 336.25,-130.75"/>
<text text-anchor="start" x="167" y="-117.25" font-family="Helvetica,sans-Serif" font-size="10.00">/github/workspace/dev</text>
<text text-anchor="start" x="167" y="-106" font-family="Helvetica,sans-Serif" font-size="10.00">_area/sourcecode/trgdataformats</text>
<text text-anchor="start" x="167" y="-94.75" font-family="Helvetica,sans-Serif" font-size="10.00">/include/trgdataformats/TriggerObject</text>
<text text-anchor="middle" x="247.62" y="-83.5" font-family="Helvetica,sans-Serif" font-size="10.00">Overlay.hpp</text>
</a>
</g>
</g>
<!-- Node1&#45;&gt;Node2 -->
<g id="edge1_Node000001_Node000002" class="edge">
<title>Node1&#45;&gt;Node2</title>
<g id="a_edge1_Node000001_Node000002"><a xlink:title=" ">
<path fill="none" stroke="#63b8ff" d="M301.72,-158.74C292.41,-149.53 282.46,-139.69 273.67,-131"/>
<polygon fill="#63b8ff" stroke="#63b8ff" points="299.05,-161.01 308.62,-165.55 303.97,-156.03 299.05,-161.01"/>
</a>
</g>
</g>
<!-- Node5 -->
<g id="Node000005" class="node">
<title>Node5</title>
<g id="a_Node000005"><a xlink:href="TCProcessor_8hpp.html" target="_top" xlink:title=" ">
<polygon fill="white" stroke="#666666" points="494.88,-125.12 354.38,-125.12 354.38,-83.38 494.88,-83.38 494.88,-125.12"/>
<text text-anchor="start" x="362.38" y="-111.62" font-family="Helvetica,sans-Serif" font-size="10.00">/github/workspace/dev</text>
<text text-anchor="start" x="362.38" y="-100.38" font-family="Helvetica,sans-Serif" font-size="10.00">_area/sourcecode/trigger</text>
<text text-anchor="middle" x="424.62" y="-89.12" font-family="Helvetica,sans-Serif" font-size="10.00">/src/trigger/TCProcessor.hpp</text>
</a>
</g>
</g>
<!-- Node1&#45;&gt;Node5 -->
<g id="edge4_Node000001_Node000005" class="edge">
<title>Node1&#45;&gt;Node5</title>
<g id="a_edge4_Node000001_Node000005"><a xlink:title=" ">
<path fill="none" stroke="#63b8ff" d="M369.98,-158.67C381.44,-147.46 393.85,-135.33 403.95,-125.46"/>
<polygon fill="#63b8ff" stroke="#63b8ff" points="367.63,-156.07 362.93,-165.56 372.53,-161.07 367.63,-156.07"/>
</a>
</g>
</g>
<!-- Node3 -->
<g id="Node000003" class="node">
<title>Node3</title>
<g id="a_Node000003"><a xlink:href="trigger__activity_8cpp.html" target="_top" xlink:title=" ">
<polygon fill="white" stroke="#666666" points="159.25,-41.75 0,-41.75 0,0 159.25,0 159.25,-41.75"/>
<text text-anchor="start" x="8" y="-28.25" font-family="Helvetica,sans-Serif" font-size="10.00">/github/workspace/dev</text>
<text text-anchor="start" x="8" y="-17" font-family="Helvetica,sans-Serif" font-size="10.00">_area/sourcecode/trgdataformats</text>
<text text-anchor="middle" x="79.62" y="-5.75" font-family="Helvetica,sans-Serif" font-size="10.00">/pybindsrc/trigger_activity.cpp</text>
</a>
</g>
</g>
<!-- Node2&#45;&gt;Node3 -->
<g id="edge2_Node000002_Node000003" class="edge">
<title>Node2&#45;&gt;Node3</title>
<g id="a_edge2_Node000002_Node000003"><a xlink:title=" ">
<path fill="none" stroke="#63b8ff" d="M183.65,-72.26C162.86,-62.19 140.33,-51.28 121.57,-42.19"/>
<polygon fill="#63b8ff" stroke="#63b8ff" points="182.12,-75.41 192.64,-76.62 185.17,-69.11 182.12,-75.41"/>
</a>
</g>
</g>
<!-- Node4 -->
<g id="Node000004" class="node">
<title>Node4</title>
<g id="a_Node000004"><a xlink:href="trigger__candidate_8cpp.html" target="_top" xlink:title=" ">
<polygon fill="white" stroke="#666666" points="336.25,-41.75 177,-41.75 177,0 336.25,0 336.25,-41.75"/>
<text text-anchor="start" x="185" y="-28.25" font-family="Helvetica,sans-Serif" font-size="10.00">/github/workspace/dev</text>
<text text-anchor="start" x="185" y="-17" font-family="Helvetica,sans-Serif" font-size="10.00">_area/sourcecode/trgdataformats</text>
<text text-anchor="middle" x="256.62" y="-5.75" font-family="Helvetica,sans-Serif" font-size="10.00">/pybindsrc/trigger_candidate.cpp</text>
</a>
</g>
</g>
<!-- Node2&#45;&gt;Node4 -->
<g id="edge3_Node000002_Node000004" class="edge">
<title>Node2&#45;&gt;Node4</title>
<g id="a_edge3_Node000002_Node000004"><a xlink:title=" ">
<path fill="none" stroke="#63b8ff" d="M251.74,-66.08C252.65,-57.8 253.59,-49.33 254.39,-42.04"/>
<polygon fill="#63b8ff" stroke="#63b8ff" points="248.26,-65.67 250.64,-76 255.22,-66.44 248.26,-65.67"/>
</a>
</g>
</g>
<!-- Node6 -->
<g id="Node000006" class="node">
<title>Node6</title>
<g id="a_Node000006"><a xlink:href="TCProcessor_8cpp.html" target="_top" xlink:title=" ">
<polygon fill="white" stroke="#666666" points="486.25,-41.75 363,-41.75 363,0 486.25,0 486.25,-41.75"/>
<text text-anchor="start" x="371" y="-28.25" font-family="Helvetica,sans-Serif" font-size="10.00">/github/workspace/dev</text>
<text text-anchor="start" x="371" y="-17" font-family="Helvetica,sans-Serif" font-size="10.00">_area/sourcecode/trigger</text>
<text text-anchor="middle" x="424.62" y="-5.75" font-family="Helvetica,sans-Serif" font-size="10.00">/src/TCProcessor.cpp</text>
</a>
</g>
</g>
<!-- Node5&#45;&gt;Node6 -->
<g id="edge5_Node000005_Node000006" class="edge">
<title>Node5&#45;&gt;Node6</title>
<g id="a_edge5_Node000005_Node000006"><a xlink:title=" ">
<path fill="none" stroke="#63b8ff" d="M424.62,-71.89C424.62,-61.87 424.62,-51.05 424.62,-42.04"/>
<polygon fill="#63b8ff" stroke="#63b8ff" points="421.13,-71.62 424.63,-81.62 428.13,-71.62 421.13,-71.62"/>
</a>
</g>
</g>
</g>
</svg>
