<?xml version="1.0" encoding="UTF-8" standalone="no"?>
<!DOCTYPE svg PUBLIC "-//W3C//DTD SVG 1.1//EN"
 "http://www.w3.org/Graphics/SVG/1.1/DTD/svg11.dtd">
<!-- Generated by graphviz version 9.0.0 (20230911.1827)
 -->
<!-- Title: /github/workspace/dev_area/sourcecode/timing/include/timing/TriggerReceiverNode.hpp Pages: 1 -->
<svg width="628pt" height="306pt"
 viewBox="0.00 0.00 628.38 305.50" xmlns="http://www.w3.org/2000/svg" xmlns:xlink="http://www.w3.org/1999/xlink">
<g id="graph0" class="graph" transform="scale(1 1) rotate(0) translate(4 301.5)">
<title>/github/workspace/dev_area/sourcecode/timing/include/timing/TriggerReceiverNode.hpp</title>
<!-- Node1 -->
<g id="Node000001" class="node">
<title>Node1</title>
<g id="a_Node000001"><a xlink:title=" ">
<polygon fill="#999999" stroke="#666666" points="394,-297.5 243.75,-297.5 243.75,-244.5 394,-244.5 394,-297.5"/>
<text text-anchor="start" x="251.75" y="-284" font-family="Helvetica,sans-Serif" font-size="10.00">/github/workspace/dev</text>
<text text-anchor="start" x="251.75" y="-272.75" font-family="Helvetica,sans-Serif" font-size="10.00">_area/sourcecode/timing</text>
<text text-anchor="start" x="251.75" y="-261.5" font-family="Helvetica,sans-Serif" font-size="10.00">/include/timing/TriggerReceiver</text>
<text text-anchor="middle" x="318.88" y="-250.25" font-family="Helvetica,sans-Serif" font-size="10.00">Node.hpp</text>
</a>
</g>
</g>
<!-- Node2 -->
<g id="Node000002" class="node">
<title>Node2</title>
<g id="a_Node000002"><a xlink:href="OverlordDesign_8hpp.html" target="_top" xlink:title=" ">
<polygon fill="white" stroke="#666666" points="223.25,-119.5 56.5,-119.5 56.5,-77.75 223.25,-77.75 223.25,-119.5"/>
<text text-anchor="start" x="64.5" y="-106" font-family="Helvetica,sans-Serif" font-size="10.00">/github/workspace/dev</text>
<text text-anchor="start" x="64.5" y="-94.75" font-family="Helvetica,sans-Serif" font-size="10.00">_area/sourcecode/timing</text>
<text text-anchor="middle" x="139.88" y="-83.5" font-family="Helvetica,sans-Serif" font-size="10.00">/include/timing/OverlordDesign.hpp</text>
</a>
</g>
</g>
<!-- Node1&#45;&gt;Node2 -->
<g id="edge1_Node000001_Node000002" class="edge">
<title>Node1&#45;&gt;Node2</title>
<g id="a_edge1_Node000001_Node000002"><a xlink:title=" ">
<path fill="none" stroke="#63b8ff" d="M232.8,-254.5C205.44,-245.44 177.48,-231.12 158.88,-208.5 138.15,-183.31 136.57,-143.56 137.85,-119.7"/>
<polygon fill="#63b8ff" stroke="#63b8ff" points="231.6,-257.79 242.19,-257.39 233.66,-251.1 231.6,-257.79"/>
</a>
</g>
</g>
<!-- Node5 -->
<g id="Node000005" class="node">
<title>Node5</title>
<g id="a_Node000005"><a xlink:href="OverlordDesignInterface_8hpp.html" target="_top" xlink:title=" ">
<polygon fill="white" stroke="#666666" points="316.25,-208.5 167.5,-208.5 167.5,-155.5 316.25,-155.5 316.25,-208.5"/>
<text text-anchor="start" x="175.5" y="-195" font-family="Helvetica,sans-Serif" font-size="10.00">/github/workspace/dev</text>
<text text-anchor="start" x="175.5" y="-183.75" font-family="Helvetica,sans-Serif" font-size="10.00">_area/sourcecode/timing</text>
<text text-anchor="start" x="175.5" y="-172.5" font-family="Helvetica,sans-Serif" font-size="10.00">/include/timing/OverlordDesign</text>
<text text-anchor="middle" x="241.88" y="-161.25" font-family="Helvetica,sans-Serif" font-size="10.00">Interface.hpp</text>
</a>
</g>
</g>
<!-- Node1&#45;&gt;Node5 -->
<g id="edge4_Node000001_Node000005" class="edge">
<title>Node1&#45;&gt;Node5</title>
<g id="a_edge4_Node000001_Node000005"><a xlink:title=" ">
<path fill="none" stroke="#63b8ff" d="M288.72,-235.93C280.71,-226.88 272.2,-217.27 264.67,-208.75"/>
<polygon fill="#63b8ff" stroke="#63b8ff" points="285.94,-238.07 295.19,-243.23 291.18,-233.43 285.94,-238.07"/>
</a>
</g>
</g>
<!-- Node7 -->
<g id="Node000007" class="node">
<title>Node7</title>
<g id="a_Node000007"><a xlink:href="master_8cpp.html" target="_top" xlink:title=" ">
<polygon fill="white" stroke="#666666" points="457.12,-202.88 334.62,-202.88 334.62,-161.12 457.12,-161.12 457.12,-202.88"/>
<text text-anchor="start" x="342.62" y="-189.38" font-family="Helvetica,sans-Serif" font-size="10.00">/github/workspace/dev</text>
<text text-anchor="start" x="342.62" y="-178.12" font-family="Helvetica,sans-Serif" font-size="10.00">_area/sourcecode/timing</text>
<text text-anchor="middle" x="395.88" y="-166.88" font-family="Helvetica,sans-Serif" font-size="10.00">/pybindsrc/master.cpp</text>
</a>
</g>
</g>
<!-- Node1&#45;&gt;Node7 -->
<g id="edge7_Node000001_Node000007" class="edge">
<title>Node1&#45;&gt;Node7</title>
<g id="a_edge7_Node000001_Node000007"><a xlink:title=" ">
<path fill="none" stroke="#63b8ff" d="M349.18,-235.76C358.93,-224.74 369.42,-212.89 377.99,-203.21"/>
<polygon fill="#63b8ff" stroke="#63b8ff" points="346.57,-233.43 342.56,-243.23 351.81,-238.07 346.57,-233.43"/>
</a>
</g>
</g>
<!-- Node8 -->
<g id="Node000008" class="node">
<title>Node8</title>
<g id="a_Node000008"><a xlink:href="TriggerReceiverNode_8cpp.html" target="_top" xlink:title=" ">
<polygon fill="white" stroke="#666666" points="620.38,-202.88 475.38,-202.88 475.38,-161.12 620.38,-161.12 620.38,-202.88"/>
<text text-anchor="start" x="483.38" y="-189.38" font-family="Helvetica,sans-Serif" font-size="10.00">/github/workspace/dev</text>
<text text-anchor="start" x="483.38" y="-178.12" font-family="Helvetica,sans-Serif" font-size="10.00">_area/sourcecode/timing</text>
<text text-anchor="middle" x="547.88" y="-166.88" font-family="Helvetica,sans-Serif" font-size="10.00">/src/TriggerReceiverNode.cpp</text>
</a>
</g>
</g>
<!-- Node1&#45;&gt;Node8 -->
<g id="edge8_Node000001_Node000008" class="edge">
<title>Node1&#45;&gt;Node8</title>
<g id="a_edge8_Node000001_Node000008"><a xlink:title=" ">
<path fill="none" stroke="#63b8ff" d="M397.9,-239.98C429.75,-227.88 465.66,-214.23 494.36,-203.33"/>
<polygon fill="#63b8ff" stroke="#63b8ff" points="396.79,-236.65 388.69,-243.48 399.28,-243.2 396.79,-236.65"/>
</a>
</g>
</g>
<!-- Node3 -->
<g id="Node000003" class="node">
<title>Node3</title>
<g id="a_Node000003"><a xlink:href="top__designs_8cpp.html" target="_top" xlink:title=" ">
<polygon fill="white" stroke="#666666" points="133.75,-41.75 0,-41.75 0,0 133.75,0 133.75,-41.75"/>
<text text-anchor="start" x="8" y="-28.25" font-family="Helvetica,sans-Serif" font-size="10.00">/github/workspace/dev</text>
<text text-anchor="start" x="8" y="-17" font-family="Helvetica,sans-Serif" font-size="10.00">_area/sourcecode/timing</text>
<text text-anchor="middle" x="66.88" y="-5.75" font-family="Helvetica,sans-Serif" font-size="10.00">/pybindsrc/top_designs.cpp</text>
</a>
</g>
</g>
<!-- Node2&#45;&gt;Node3 -->
<g id="edge2_Node000002_Node000003" class="edge">
<title>Node2&#45;&gt;Node3</title>
<g id="a_edge2_Node000002_Node000003"><a xlink:title=" ">
<path fill="none" stroke="#63b8ff" d="M112.35,-69.06C103.75,-60.14 94.44,-50.47 86.49,-42.23"/>
<polygon fill="#63b8ff" stroke="#63b8ff" points="109.8,-71.46 119.26,-76.24 114.84,-66.61 109.8,-71.46"/>
</a>
</g>
</g>
<!-- Node4 -->
<g id="Node000004" class="node">
<title>Node4</title>
<g id="a_Node000004"><a xlink:href="OverlordDesign_8cpp.html" target="_top" xlink:title=" ">
<polygon fill="white" stroke="#666666" points="274.12,-41.75 151.62,-41.75 151.62,0 274.12,0 274.12,-41.75"/>
<text text-anchor="start" x="159.62" y="-28.25" font-family="Helvetica,sans-Serif" font-size="10.00">/github/workspace/dev</text>
<text text-anchor="start" x="159.62" y="-17" font-family="Helvetica,sans-Serif" font-size="10.00">_area/sourcecode/timing</text>
<text text-anchor="middle" x="212.88" y="-5.75" font-family="Helvetica,sans-Serif" font-size="10.00">/src/OverlordDesign.cpp</text>
</a>
</g>
</g>
<!-- Node2&#45;&gt;Node4 -->
<g id="edge3_Node000002_Node000004" class="edge">
<title>Node2&#45;&gt;Node4</title>
<g id="a_edge3_Node000002_Node000004"><a xlink:title=" ">
<path fill="none" stroke="#63b8ff" d="M167.4,-69.06C176,-60.14 185.31,-50.47 193.26,-42.23"/>
<polygon fill="#63b8ff" stroke="#63b8ff" points="164.91,-66.61 160.49,-76.24 169.95,-71.46 164.91,-66.61"/>
</a>
</g>
</g>
<!-- Node5&#45;&gt;Node2 -->
<g id="edge5_Node000005_Node000002" class="edge">
<title>Node5&#45;&gt;Node2</title>
<g id="a_edge5_Node000005_Node000002"><a xlink:title=" ">
<path fill="none" stroke="#63b8ff" d="M200.42,-147.93C188.55,-138.45 175.95,-128.41 165.34,-119.94"/>
<polygon fill="#63b8ff" stroke="#63b8ff" points="198.14,-150.58 208.14,-154.08 202.5,-145.11 198.14,-150.58"/>
</a>
</g>
</g>
<!-- Node6 -->
<g id="Node000006" class="node">
<title>Node6</title>
<g id="a_Node000006"><a xlink:href="OverlordDesignInterface_8cpp.html" target="_top" xlink:title=" ">
<polygon fill="white" stroke="#666666" points="400.12,-119.5 241.62,-119.5 241.62,-77.75 400.12,-77.75 400.12,-119.5"/>
<text text-anchor="start" x="249.62" y="-106" font-family="Helvetica,sans-Serif" font-size="10.00">/github/workspace/dev</text>
<text text-anchor="start" x="249.62" y="-94.75" font-family="Helvetica,sans-Serif" font-size="10.00">_area/sourcecode/timing</text>
<text text-anchor="middle" x="320.88" y="-83.5" font-family="Helvetica,sans-Serif" font-size="10.00">/src/OverlordDesignInterface.cpp</text>
</a>
</g>
</g>
<!-- Node5&#45;&gt;Node6 -->
<g id="edge6_Node000005_Node000006" class="edge">
<title>Node5&#45;&gt;Node6</title>
<g id="a_edge6_Node000005_Node000006"><a xlink:title=" ">
<path fill="none" stroke="#63b8ff" d="M274.65,-147.24C283.71,-137.91 293.25,-128.08 301.3,-119.79"/>
<polygon fill="#63b8ff" stroke="#63b8ff" points="272.38,-144.55 267.93,-154.17 277.4,-149.43 272.38,-144.55"/>
</a>
</g>
</g>
</g>
</svg>
