<?xml version="1.0" encoding="UTF-8" standalone="no"?>
<!DOCTYPE svg PUBLIC "-//W3C//DTD SVG 1.1//EN"
 "http://www.w3.org/Graphics/SVG/1.1/DTD/svg11.dtd">
<!-- Generated by graphviz version 9.0.0 (20230911.1827)
 -->
<!-- Title: /github/workspace/dev_area/build/trigger/codegen/include/trigger/triggerzipperinfo/InfoNljs.hpp Pages: 1 -->
<svg width="238pt" height="183pt"
 viewBox="0.00 0.00 237.62 182.75" xmlns="http://www.w3.org/2000/svg" xmlns:xlink="http://www.w3.org/1999/xlink">
<g id="graph0" class="graph" transform="scale(1 1) rotate(0) translate(4 178.75)">
<title>/github/workspace/dev_area/build/trigger/codegen/include/trigger/triggerzipperinfo/InfoNljs.hpp</title>
<!-- Node1 -->
<g id="Node000001" class="node">
<title>Node1</title>
<g id="a_Node000001"><a xlink:title=" ">
<polygon fill="#999999" stroke="#666666" points="194.62,-174.75 43.62,-174.75 43.62,-121.75 194.62,-121.75 194.62,-174.75"/>
<text text-anchor="start" x="51.62" y="-161.25" font-family="Helvetica,sans-Serif" font-size="10.00">/github/workspace/dev</text>
<text text-anchor="start" x="51.62" y="-150" font-family="Helvetica,sans-Serif" font-size="10.00">_area/build/trigger/codegen</text>
<text text-anchor="start" x="51.62" y="-138.75" font-family="Helvetica,sans-Serif" font-size="10.00">/include/trigger/triggerzipperinfo</text>
<text text-anchor="middle" x="119.12" y="-127.5" font-family="Helvetica,sans-Serif" font-size="10.00">/InfoNljs.hpp</text>
</a>
</g>
</g>
<!-- Node2 -->
<g id="Node000002" class="node">
<title>Node2</title>
<g id="a_Node000002"><a xlink:href="trigger_2codegen_2include_2trigger_2triggerzipperinfo_2InfoStructs_8hpp.html" target="_top" xlink:title=" ">
<polygon fill="white" stroke="#666666" points="114.25,-85.75 0,-85.75 0,-55.25 114.25,-55.25 114.25,-85.75"/>
<text text-anchor="start" x="8" y="-72.25" font-family="Helvetica,sans-Serif" font-size="10.00">trigger/triggerzipperinfo</text>
<text text-anchor="middle" x="57.13" y="-61" font-family="Helvetica,sans-Serif" font-size="10.00">/InfoStructs.hpp</text>
</a>
</g>
</g>
<!-- Node1&#45;&gt;Node2 -->
<g id="edge1_Node000001_Node000002" class="edge">
<title>Node1&#45;&gt;Node2</title>
<g id="a_edge1_Node000001_Node000002"><a xlink:title=" ">
<path fill="none" stroke="#63b8ff" d="M98.13,-121.6C91.01,-112.9 83.1,-103.24 76.15,-94.74"/>
<polygon fill="#63b8ff" stroke="#63b8ff" points="79.05,-92.76 70.01,-87.24 73.64,-97.2 79.05,-92.76"/>
</a>
</g>
</g>
<!-- Node4 -->
<g id="Node000004" class="node">
<title>Node4</title>
<g id="a_Node000004"><a xlink:title=" ">
<polygon fill="#e0e0e0" stroke="#999999" points="229.62,-80.12 132.62,-80.12 132.62,-60.88 229.62,-60.88 229.62,-80.12"/>
<text text-anchor="middle" x="181.12" y="-66.62" font-family="Helvetica,sans-Serif" font-size="10.00">nlohmann/json.hpp</text>
</a>
</g>
</g>
<!-- Node1&#45;&gt;Node4 -->
<g id="edge3_Node000001_Node000004" class="edge">
<title>Node1&#45;&gt;Node4</title>
<g id="a_edge3_Node000001_Node000004"><a xlink:title=" ">
<path fill="none" stroke="#63b8ff" d="M140.12,-121.6C148.86,-110.92 158.8,-98.77 166.7,-89.12"/>
<polygon fill="#63b8ff" stroke="#63b8ff" points="169.22,-91.57 172.85,-81.61 163.81,-87.13 169.22,-91.57"/>
</a>
</g>
</g>
<!-- Node3 -->
<g id="Node000003" class="node">
<title>Node3</title>
<g id="a_Node000003"><a xlink:title=" ">
<polygon fill="#e0e0e0" stroke="#999999" points="79.75,-19.25 34.5,-19.25 34.5,0 79.75,0 79.75,-19.25"/>
<text text-anchor="middle" x="57.13" y="-5.75" font-family="Helvetica,sans-Serif" font-size="10.00">cstdint</text>
</a>
</g>
</g>
<!-- Node2&#45;&gt;Node3 -->
<g id="edge2_Node000002_Node000003" class="edge">
<title>Node2&#45;&gt;Node3</title>
<g id="a_edge2_Node000002_Node000003"><a xlink:title=" ">
<path fill="none" stroke="#63b8ff" d="M57.13,-54.95C57.13,-47.71 57.13,-38.84 57.13,-30.94"/>
<polygon fill="#63b8ff" stroke="#63b8ff" points="60.63,-31.21 57.13,-21.21 53.63,-31.21 60.63,-31.21"/>
</a>
</g>
</g>
</g>
</svg>
