<?xml version="1.0" encoding="UTF-8" standalone="no"?>
<!DOCTYPE svg PUBLIC "-//W3C//DTD SVG 1.1//EN"
 "http://www.w3.org/Graphics/SVG/1.1/DTD/svg11.dtd">
<!-- Generated by graphviz version 9.0.0 (20230911.1827)
 -->
<!-- Title: /github/workspace/dev_area/sourcecode/utilities/include/utilities/Issues.hpp Pages: 1 -->
<svg width="746pt" height="217pt"
 viewBox="0.00 0.00 745.88 216.50" xmlns="http://www.w3.org/2000/svg" xmlns:xlink="http://www.w3.org/1999/xlink">
<g id="graph0" class="graph" transform="scale(1 1) rotate(0) translate(4 212.5)">
<title>/github/workspace/dev_area/sourcecode/utilities/include/utilities/Issues.hpp</title>
<!-- Node1 -->
<g id="Node000001" class="node">
<title>Node1</title>
<g id="a_Node000001"><a xlink:title=" ">
<polygon fill="#999999" stroke="#666666" points="537.5,-208.5 403.75,-208.5 403.75,-166.75 537.5,-166.75 537.5,-208.5"/>
<text text-anchor="start" x="411.75" y="-195" font-family="Helvetica,sans-Serif" font-size="10.00">/github/workspace/dev</text>
<text text-anchor="start" x="411.75" y="-183.75" font-family="Helvetica,sans-Serif" font-size="10.00">_area/sourcecode/utilities</text>
<text text-anchor="middle" x="470.62" y="-172.5" font-family="Helvetica,sans-Serif" font-size="10.00">/include/utilities/Issues.hpp</text>
</a>
</g>
</g>
<!-- Node2 -->
<g id="Node000002" class="node">
<title>Node2</title>
<g id="a_Node000002"><a xlink:href="Resolver_8hpp.html" target="_top" xlink:title=" ">
<polygon fill="white" stroke="#666666" points="293,-125.12 150.25,-125.12 150.25,-83.38 293,-83.38 293,-125.12"/>
<text text-anchor="start" x="158.25" y="-111.62" font-family="Helvetica,sans-Serif" font-size="10.00">/github/workspace/dev</text>
<text text-anchor="start" x="158.25" y="-100.38" font-family="Helvetica,sans-Serif" font-size="10.00">_area/sourcecode/utilities</text>
<text text-anchor="middle" x="221.62" y="-89.12" font-family="Helvetica,sans-Serif" font-size="10.00">/include/utilities/Resolver.hpp</text>
</a>
</g>
</g>
<!-- Node1&#45;&gt;Node2 -->
<g id="edge1_Node000001_Node000002" class="edge">
<title>Node1&#45;&gt;Node2</title>
<g id="a_edge1_Node000001_Node000002"><a xlink:title=" ">
<path fill="none" stroke="#63b8ff" d="M397.95,-162.87C361.78,-151.05 318.51,-136.91 283.89,-125.6"/>
<polygon fill="#63b8ff" stroke="#63b8ff" points="396.4,-166.05 407,-165.83 398.58,-159.4 396.4,-166.05"/>
</a>
</g>
</g>
<!-- Node5 -->
<g id="Node000005" class="node">
<title>Node5</title>
<g id="a_Node000005"><a xlink:href="TimestampEstimator_8hpp.html" target="_top" xlink:title=" ">
<polygon fill="white" stroke="#666666" points="505.88,-125.12 311.38,-125.12 311.38,-83.38 505.88,-83.38 505.88,-125.12"/>
<text text-anchor="start" x="319.38" y="-111.62" font-family="Helvetica,sans-Serif" font-size="10.00">/github/workspace/dev</text>
<text text-anchor="start" x="319.38" y="-100.38" font-family="Helvetica,sans-Serif" font-size="10.00">_area/sourcecode/utilities</text>
<text text-anchor="middle" x="408.62" y="-89.12" font-family="Helvetica,sans-Serif" font-size="10.00">/include/utilities/TimestampEstimator.hpp</text>
</a>
</g>
</g>
<!-- Node1&#45;&gt;Node5 -->
<g id="edge4_Node000001_Node000005" class="edge">
<title>Node1&#45;&gt;Node5</title>
<g id="a_edge4_Node000001_Node000005"><a xlink:title=" ">
<path fill="none" stroke="#63b8ff" d="M448.46,-157.54C440.36,-146.9 431.37,-135.11 423.99,-125.42"/>
<polygon fill="#63b8ff" stroke="#63b8ff" points="445.54,-159.47 454.38,-165.31 451.11,-155.23 445.54,-159.47"/>
</a>
</g>
</g>
<!-- Node6 -->
<g id="Node000006" class="node">
<title>Node6</title>
<g id="a_Node000006"><a xlink:href="TimestampEstimator_8cpp.html" target="_top" xlink:title=" ">
<polygon fill="white" stroke="#666666" points="519.38,-41.75 375.88,-41.75 375.88,0 519.38,0 519.38,-41.75"/>
<text text-anchor="start" x="383.88" y="-28.25" font-family="Helvetica,sans-Serif" font-size="10.00">/github/workspace/dev</text>
<text text-anchor="start" x="383.88" y="-17" font-family="Helvetica,sans-Serif" font-size="10.00">_area/sourcecode/utilities</text>
<text text-anchor="middle" x="447.62" y="-5.75" font-family="Helvetica,sans-Serif" font-size="10.00">/src/TimestampEstimator.cpp</text>
</a>
</g>
</g>
<!-- Node1&#45;&gt;Node6 -->
<g id="edge8_Node000001_Node000006" class="edge">
<title>Node1&#45;&gt;Node6</title>
<g id="a_edge8_Node000001_Node000006"><a xlink:title=" ">
<path fill="none" stroke="#63b8ff" d="M499.19,-157.78C505.49,-149.67 511.28,-140.41 514.62,-130.75 522.34,-108.49 524.61,-99.08 514.62,-77.75 507.88,-63.35 495.4,-51.36 483.02,-42.23"/>
<polygon fill="#63b8ff" stroke="#63b8ff" points="496.68,-155.33 492.94,-165.24 502.04,-159.82 496.68,-155.33"/>
</a>
</g>
</g>
<!-- Node7 -->
<g id="Node000007" class="node">
<title>Node7</title>
<g id="a_Node000007"><a xlink:href="TimestampEstimatorSystem_8hpp.html" target="_top" xlink:title=" ">
<polygon fill="white" stroke="#666666" points="737.88,-130.75 561.38,-130.75 561.38,-77.75 737.88,-77.75 737.88,-130.75"/>
<text text-anchor="start" x="569.38" y="-117.25" font-family="Helvetica,sans-Serif" font-size="10.00">/github/workspace/dev</text>
<text text-anchor="start" x="569.38" y="-106" font-family="Helvetica,sans-Serif" font-size="10.00">_area/sourcecode/utilities</text>
<text text-anchor="start" x="569.38" y="-94.75" font-family="Helvetica,sans-Serif" font-size="10.00">/include/utilities/TimestampEstimator</text>
<text text-anchor="middle" x="649.62" y="-83.5" font-family="Helvetica,sans-Serif" font-size="10.00">System.hpp</text>
</a>
</g>
</g>
<!-- Node1&#45;&gt;Node7 -->
<g id="edge6_Node000001_Node000007" class="edge">
<title>Node1&#45;&gt;Node7</title>
<g id="a_edge6_Node000001_Node000007"><a xlink:title=" ">
<path fill="none" stroke="#63b8ff" d="M525.8,-161.54C547.01,-151.9 571.26,-140.88 592.64,-131.16"/>
<polygon fill="#63b8ff" stroke="#63b8ff" points="524.37,-158.35 516.71,-165.67 527.26,-164.72 524.37,-158.35"/>
</a>
</g>
</g>
<!-- Node3 -->
<g id="Node000003" class="node">
<title>Node3</title>
<g id="a_Node000003"><a xlink:href="NetworkManager_8cpp.html" target="_top" xlink:title=" ">
<polygon fill="white" stroke="#666666" points="165.25,-41.75 0,-41.75 0,0 165.25,0 165.25,-41.75"/>
<text text-anchor="start" x="8" y="-28.25" font-family="Helvetica,sans-Serif" font-size="10.00">/github/workspace/dev</text>
<text text-anchor="start" x="8" y="-17" font-family="Helvetica,sans-Serif" font-size="10.00">_area/sourcecode/iomanager</text>
<text text-anchor="middle" x="82.62" y="-5.75" font-family="Helvetica,sans-Serif" font-size="10.00">/src/network/NetworkManager.cpp</text>
</a>
</g>
</g>
<!-- Node2&#45;&gt;Node3 -->
<g id="edge2_Node000002_Node000003" class="edge">
<title>Node2&#45;&gt;Node3</title>
<g id="a_edge2_Node000002_Node000003"><a xlink:title=" ">
<path fill="none" stroke="#63b8ff" d="M177.11,-77.19C157.77,-65.87 135.46,-52.81 117.38,-42.22"/>
<polygon fill="#63b8ff" stroke="#63b8ff" points="175.2,-80.13 185.6,-82.16 178.74,-74.09 175.2,-80.13"/>
</a>
</g>
</g>
<!-- Node4 -->
<g id="Node000004" class="node">
<title>Node4</title>
<g id="a_Node000004"><a xlink:href="Resolver_8cpp.html" target="_top" xlink:title=" ">
<polygon fill="white" stroke="#666666" points="310.12,-41.75 183.12,-41.75 183.12,0 310.12,0 310.12,-41.75"/>
<text text-anchor="start" x="191.12" y="-28.25" font-family="Helvetica,sans-Serif" font-size="10.00">/github/workspace/dev</text>
<text text-anchor="start" x="191.12" y="-17" font-family="Helvetica,sans-Serif" font-size="10.00">_area/sourcecode/utilities</text>
<text text-anchor="middle" x="246.62" y="-5.75" font-family="Helvetica,sans-Serif" font-size="10.00">/src/Resolver.cpp</text>
</a>
</g>
</g>
<!-- Node2&#45;&gt;Node4 -->
<g id="edge3_Node000002_Node000004" class="edge">
<title>Node2&#45;&gt;Node4</title>
<g id="a_edge3_Node000002_Node000004"><a xlink:title=" ">
<path fill="none" stroke="#63b8ff" d="M231.16,-72.22C234.27,-62.1 237.63,-51.14 240.43,-42.04"/>
<polygon fill="#63b8ff" stroke="#63b8ff" points="227.84,-71.1 228.25,-81.69 234.53,-73.16 227.84,-71.1"/>
</a>
</g>
</g>
<!-- Node5&#45;&gt;Node6 -->
<g id="edge5_Node000005_Node000006" class="edge">
<title>Node5&#45;&gt;Node6</title>
<g id="a_edge5_Node000005_Node000006"><a xlink:title=" ">
<path fill="none" stroke="#63b8ff" d="M423.19,-72.87C428.12,-62.58 433.5,-51.34 437.96,-42.04"/>
<polygon fill="#63b8ff" stroke="#63b8ff" points="420.09,-71.24 418.92,-81.77 426.4,-74.26 420.09,-71.24"/>
</a>
</g>
</g>
<!-- Node8 -->
<g id="Node000008" class="node">
<title>Node8</title>
<g id="a_Node000008"><a xlink:href="TimestampEstimatorSystem_8cpp.html" target="_top" xlink:title=" ">
<polygon fill="white" stroke="#666666" points="737.88,-41.75 561.38,-41.75 561.38,0 737.88,0 737.88,-41.75"/>
<text text-anchor="start" x="569.38" y="-28.25" font-family="Helvetica,sans-Serif" font-size="10.00">/github/workspace/dev</text>
<text text-anchor="start" x="569.38" y="-17" font-family="Helvetica,sans-Serif" font-size="10.00">_area/sourcecode/utilities</text>
<text text-anchor="middle" x="649.62" y="-5.75" font-family="Helvetica,sans-Serif" font-size="10.00">/src/TimestampEstimatorSystem.cpp</text>
</a>
</g>
</g>
<!-- Node7&#45;&gt;Node8 -->
<g id="edge7_Node000007_Node000008" class="edge">
<title>Node7&#45;&gt;Node8</title>
<g id="a_edge7_Node000007_Node000008"><a xlink:title=" ">
<path fill="none" stroke="#63b8ff" d="M649.62,-66.08C649.62,-57.8 649.62,-49.33 649.62,-42.04"/>
<polygon fill="#63b8ff" stroke="#63b8ff" points="646.13,-65.99 649.63,-75.99 653.13,-65.99 646.13,-65.99"/>
</a>
</g>
</g>
</g>
</svg>
