<?xml version="1.0" encoding="UTF-8" standalone="no"?>
<!DOCTYPE svg PUBLIC "-//W3C//DTD SVG 1.1//EN"
 "http://www.w3.org/Graphics/SVG/1.1/DTD/svg11.dtd">
<!-- Generated by graphviz version 9.0.0 (20230911.1827)
 -->
<!-- Title: /github/workspace/dev_area/sourcecode/fddetdataformats/include/fddetdataformats/WIBEthFrame.hpp Pages: 1 -->
<svg width="2133pt" height="484pt"
 viewBox="0.00 0.00 2132.75 483.50" xmlns="http://www.w3.org/2000/svg" xmlns:xlink="http://www.w3.org/1999/xlink">
<g id="graph0" class="graph" transform="scale(1 1) rotate(0) translate(4 479.5)">
<title>/github/workspace/dev_area/sourcecode/fddetdataformats/include/fddetdataformats/WIBEthFrame.hpp</title>
<!-- Node1 -->
<g id="Node000001" class="node">
<title>Node1</title>
<g id="a_Node000001"><a xlink:title=" ">
<polygon fill="#999999" stroke="#666666" points="1647.38,-475.5 1439.38,-475.5 1439.38,-433.75 1647.38,-433.75 1647.38,-475.5"/>
<text text-anchor="start" x="1447.38" y="-462" font-family="Helvetica,sans-Serif" font-size="10.00">/github/workspace/dev</text>
<text text-anchor="start" x="1447.38" y="-450.75" font-family="Helvetica,sans-Serif" font-size="10.00">_area/sourcecode/fddetdataformats</text>
<text text-anchor="middle" x="1543.38" y="-439.5" font-family="Helvetica,sans-Serif" font-size="10.00">/include/fddetdataformats/WIBEthFrame.hpp</text>
</a>
</g>
</g>
<!-- Node2 -->
<g id="Node000002" class="node">
<title>Node2</title>
<g id="a_Node000002"><a xlink:href="wibeth_8cpp.html" target="_top" xlink:title=" ">
<polygon fill="white" stroke="#666666" points="1114.25,-392.12 944.5,-392.12 944.5,-350.38 1114.25,-350.38 1114.25,-392.12"/>
<text text-anchor="start" x="952.5" y="-378.62" font-family="Helvetica,sans-Serif" font-size="10.00">/github/workspace/dev</text>
<text text-anchor="start" x="952.5" y="-367.38" font-family="Helvetica,sans-Serif" font-size="10.00">_area/sourcecode/fddetdataformats</text>
<text text-anchor="middle" x="1029.38" y="-356.12" font-family="Helvetica,sans-Serif" font-size="10.00">/pybindsrc/wibeth.cpp</text>
</a>
</g>
</g>
<!-- Node1&#45;&gt;Node2 -->
<g id="edge1_Node000001_Node000002" class="edge">
<title>Node1&#45;&gt;Node2</title>
<g id="a_edge1_Node000001_Node000002"><a xlink:title=" ">
<path fill="none" stroke="#63b8ff" d="M1427.89,-441.78C1344.29,-432.31 1228.82,-417.38 1128.38,-397.75 1120.62,-396.24 1112.58,-394.48 1104.57,-392.6"/>
<polygon fill="#63b8ff" stroke="#63b8ff" points="1427.38,-445.25 1437.71,-442.89 1428.16,-438.29 1427.38,-445.25"/>
</a>
</g>
</g>
<!-- Node3 -->
<g id="Node000003" class="node">
<title>Node3</title>
<g id="a_Node000003"><a xlink:href="DUNEWIBEthTypeAdapter_8hpp.html" target="_top" xlink:title=" ">
<polygon fill="white" stroke="#666666" points="1363.88,-397.75 1170.88,-397.75 1170.88,-344.75 1363.88,-344.75 1363.88,-397.75"/>
<text text-anchor="start" x="1178.88" y="-384.25" font-family="Helvetica,sans-Serif" font-size="10.00">/github/workspace/dev</text>
<text text-anchor="start" x="1178.88" y="-373" font-family="Helvetica,sans-Serif" font-size="10.00">_area/sourcecode/fdreadoutlibs</text>
<text text-anchor="start" x="1178.88" y="-361.75" font-family="Helvetica,sans-Serif" font-size="10.00">/include/fdreadoutlibs/DUNEWIBEthType</text>
<text text-anchor="middle" x="1267.38" y="-350.5" font-family="Helvetica,sans-Serif" font-size="10.00">Adapter.hpp</text>
</a>
</g>
</g>
<!-- Node1&#45;&gt;Node3 -->
<g id="edge2_Node000001_Node000003" class="edge">
<title>Node1&#45;&gt;Node3</title>
<g id="a_edge2_Node000001_Node000003"><a xlink:title=" ">
<path fill="none" stroke="#63b8ff" d="M1463.66,-430.12C1429.81,-420.14 1390.22,-408.47 1355.5,-398.23"/>
<polygon fill="#63b8ff" stroke="#63b8ff" points="1462.41,-433.4 1472.99,-432.87 1464.39,-426.69 1462.41,-433.4"/>
</a>
</g>
</g>
<!-- Node5 -->
<g id="Node000005" class="node">
<title>Node5</title>
<g id="a_Node000005"><a xlink:href="FrameExpand_8hpp.html" target="_top" xlink:title=" ">
<polygon fill="white" stroke="#666666" points="991.25,-308.75 839.5,-308.75 839.5,-255.75 991.25,-255.75 991.25,-308.75"/>
<text text-anchor="start" x="847.5" y="-295.25" font-family="Helvetica,sans-Serif" font-size="10.00">/github/workspace/dev</text>
<text text-anchor="start" x="847.5" y="-284" font-family="Helvetica,sans-Serif" font-size="10.00">_area/sourcecode/fdreadoutlibs</text>
<text text-anchor="start" x="847.5" y="-272.75" font-family="Helvetica,sans-Serif" font-size="10.00">/include/fdreadoutlibs/wibeth</text>
<text text-anchor="middle" x="915.38" y="-261.5" font-family="Helvetica,sans-Serif" font-size="10.00">/tpg/FrameExpand.hpp</text>
</a>
</g>
</g>
<!-- Node1&#45;&gt;Node5 -->
<g id="edge34_Node000001_Node000005" class="edge">
<title>Node1&#45;&gt;Node5</title>
<g id="a_edge34_Node000001_Node000005"><a xlink:title=" ">
<path fill="none" stroke="#63b8ff" d="M1427.88,-446.64C1332.17,-439.06 1205.01,-424.33 1161.38,-397.75 1136.62,-382.67 1147,-361.55 1123.38,-344.75 1084.55,-317.14 1033.31,-301.8 991.4,-293.35"/>
<polygon fill="#63b8ff" stroke="#63b8ff" points="1427.34,-450.11 1437.58,-447.39 1427.88,-443.13 1427.34,-450.11"/>
</a>
</g>
</g>
<!-- Node7 -->
<g id="Node000007" class="node">
<title>Node7</title>
<g id="a_Node000007"><a xlink:href="WIBEthFrameProcessor_8cpp.html" target="_top" xlink:title=" ">
<polygon fill="white" stroke="#666666" points="1362.38,-41.75 1172.38,-41.75 1172.38,0 1362.38,0 1362.38,-41.75"/>
<text text-anchor="start" x="1180.38" y="-28.25" font-family="Helvetica,sans-Serif" font-size="10.00">/github/workspace/dev</text>
<text text-anchor="start" x="1180.38" y="-17" font-family="Helvetica,sans-Serif" font-size="10.00">_area/sourcecode/fdreadoutlibs</text>
<text text-anchor="middle" x="1267.38" y="-5.75" font-family="Helvetica,sans-Serif" font-size="10.00">/src/wibeth/WIBEthFrameProcessor.cpp</text>
</a>
</g>
</g>
<!-- Node1&#45;&gt;Node7 -->
<g id="edge38_Node000001_Node000007" class="edge">
<title>Node1&#45;&gt;Node7</title>
<g id="a_edge38_Node000001_Node000007"><a xlink:title=" ">
<path fill="none" stroke="#63b8ff" d="M1551.79,-422.54C1569.66,-348.73 1601.86,-162.75 1499.38,-77.75 1488.37,-68.63 1421.82,-53.1 1362.8,-40.73"/>
<polygon fill="#63b8ff" stroke="#63b8ff" points="1548.47,-421.37 1549.44,-431.92 1555.26,-423.07 1548.47,-421.37"/>
</a>
</g>
</g>
<!-- Node23 -->
<g id="Node000023" class="node">
<title>Node23</title>
<g id="a_Node000023"><a xlink:href="RegisterToChannelNumber_8hpp.html" target="_top" xlink:title=" ">
<polygon fill="white" stroke="#666666" points="1551.62,-308.75 1381.12,-308.75 1381.12,-255.75 1551.62,-255.75 1551.62,-308.75"/>
<text text-anchor="start" x="1389.12" y="-295.25" font-family="Helvetica,sans-Serif" font-size="10.00">/github/workspace/dev</text>
<text text-anchor="start" x="1389.12" y="-284" font-family="Helvetica,sans-Serif" font-size="10.00">_area/sourcecode/fdreadoutlibs</text>
<text text-anchor="start" x="1389.12" y="-272.75" font-family="Helvetica,sans-Serif" font-size="10.00">/include/fdreadoutlibs/wibeth</text>
<text text-anchor="middle" x="1466.38" y="-261.5" font-family="Helvetica,sans-Serif" font-size="10.00">/tpg/RegisterToChannelNumber.hpp</text>
</a>
</g>
</g>
<!-- Node1&#45;&gt;Node23 -->
<g id="edge35_Node000001_Node000023" class="edge">
<title>Node1&#45;&gt;Node23</title>
<g id="a_edge35_Node000001_Node000023"><a xlink:title=" ">
<path fill="none" stroke="#63b8ff" d="M1529.6,-423.14C1514.89,-390.59 1491.84,-339.59 1478.01,-308.99"/>
<polygon fill="#63b8ff" stroke="#63b8ff" points="1526.31,-424.36 1533.62,-432.03 1532.69,-421.48 1526.31,-424.36"/>
</a>
</g>
</g>
<!-- Node24 -->
<g id="Node000024" class="node">
<title>Node24</title>
<g id="a_Node000024"><a xlink:href="WIBtoWIBEth_8hpp.html" target="_top" xlink:title=" ">
<polygon fill="white" stroke="#666666" points="1783.5,-392.12 1597.25,-392.12 1597.25,-350.38 1783.5,-350.38 1783.5,-392.12"/>
<text text-anchor="start" x="1605.25" y="-378.62" font-family="Helvetica,sans-Serif" font-size="10.00">/github/workspace/dev</text>
<text text-anchor="start" x="1605.25" y="-367.38" font-family="Helvetica,sans-Serif" font-size="10.00">_area/sourcecode/rawdatautils</text>
<text text-anchor="middle" x="1690.38" y="-356.12" font-family="Helvetica,sans-Serif" font-size="10.00">/include/rawdatautils/WIBtoWIBEth.hpp</text>
</a>
</g>
</g>
<!-- Node1&#45;&gt;Node24 -->
<g id="edge39_Node000001_Node000024" class="edge">
<title>Node1&#45;&gt;Node24</title>
<g id="a_edge39_Node000001_Node000024"><a xlink:title=" ">
<path fill="none" stroke="#63b8ff" d="M1589.89,-427.87C1610.47,-416.48 1634.32,-403.28 1653.62,-392.6"/>
<polygon fill="#63b8ff" stroke="#63b8ff" points="1588.47,-424.66 1581.41,-432.57 1591.86,-430.79 1588.47,-424.66"/>
</a>
</g>
</g>
<!-- Node26 -->
<g id="Node000026" class="node">
<title>Node26</title>
<g id="a_Node000026"><a xlink:href="WIBEthUnpacker_8cpp.html" target="_top" xlink:title=" ">
<polygon fill="white" stroke="#666666" points="1957.5,-392.12 1801.25,-392.12 1801.25,-350.38 1957.5,-350.38 1957.5,-392.12"/>
<text text-anchor="start" x="1809.25" y="-378.62" font-family="Helvetica,sans-Serif" font-size="10.00">/github/workspace/dev</text>
<text text-anchor="start" x="1809.25" y="-367.38" font-family="Helvetica,sans-Serif" font-size="10.00">_area/sourcecode/rawdatautils</text>
<text text-anchor="middle" x="1879.38" y="-356.12" font-family="Helvetica,sans-Serif" font-size="10.00">/pybindsrc/WIBEthUnpacker.cpp</text>
</a>
</g>
</g>
<!-- Node1&#45;&gt;Node26 -->
<g id="edge41_Node000001_Node000026" class="edge">
<title>Node1&#45;&gt;Node26</title>
<g id="a_edge41_Node000001_Node000026"><a xlink:title=" ">
<path fill="none" stroke="#63b8ff" d="M1651.67,-430.91C1695.51,-421.31 1746.5,-409.61 1792.38,-397.75 1798.62,-396.14 1805.1,-394.38 1811.58,-392.58"/>
<polygon fill="#63b8ff" stroke="#63b8ff" points="1651.19,-427.44 1642.17,-432.99 1652.68,-434.27 1651.19,-427.44"/>
</a>
</g>
</g>
<!-- Node27 -->
<g id="Node000027" class="node">
<title>Node27</title>
<g id="a_Node000027"><a xlink:href="unpack_8cpp.html" target="_top" xlink:title=" ">
<polygon fill="white" stroke="#666666" points="2124.75,-392.12 1976,-392.12 1976,-350.38 2124.75,-350.38 2124.75,-392.12"/>
<text text-anchor="start" x="1984" y="-378.62" font-family="Helvetica,sans-Serif" font-size="10.00">/github/workspace/dev</text>
<text text-anchor="start" x="1984" y="-367.38" font-family="Helvetica,sans-Serif" font-size="10.00">_area/sourcecode/rawdatautils</text>
<text text-anchor="middle" x="2050.38" y="-356.12" font-family="Helvetica,sans-Serif" font-size="10.00">/pybindsrc/unpack.cpp</text>
</a>
</g>
</g>
<!-- Node1&#45;&gt;Node27 -->
<g id="edge42_Node000001_Node000027" class="edge">
<title>Node1&#45;&gt;Node27</title>
<g id="a_edge42_Node000001_Node000027"><a xlink:title=" ">
<path fill="none" stroke="#63b8ff" d="M1658.94,-443.5C1744.46,-434.77 1863.48,-420.01 1966.38,-397.75 1973.23,-396.27 1980.33,-394.49 1987.37,-392.58"/>
<polygon fill="#63b8ff" stroke="#63b8ff" points="1658.73,-440.01 1649.13,-444.49 1659.43,-446.97 1658.73,-440.01"/>
</a>
</g>
</g>
<!-- Node4 -->
<g id="Node000004" class="node">
<title>Node4</title>
<g id="a_Node000004"><a xlink:href="CreateSource_8hpp.html" target="_top" xlink:title=" ">
<polygon fill="white" stroke="#666666" points="1239.5,-303.12 1107.25,-303.12 1107.25,-261.38 1239.5,-261.38 1239.5,-303.12"/>
<text text-anchor="start" x="1115.25" y="-289.62" font-family="Helvetica,sans-Serif" font-size="10.00">/github/workspace/dev</text>
<text text-anchor="start" x="1115.25" y="-278.38" font-family="Helvetica,sans-Serif" font-size="10.00">_area/sourcecode/dpdklibs</text>
<text text-anchor="middle" x="1173.38" y="-267.12" font-family="Helvetica,sans-Serif" font-size="10.00">/src/CreateSource.hpp</text>
</a>
</g>
</g>
<!-- Node3&#45;&gt;Node4 -->
<g id="edge3_Node000003_Node000004" class="edge">
<title>Node3&#45;&gt;Node4</title>
<g id="a_edge3_Node000003_Node000004"><a xlink:title=" ">
<path fill="none" stroke="#63b8ff" d="M1231.2,-336.77C1219.02,-325.49 1205.81,-313.27 1195.1,-303.36"/>
<polygon fill="#63b8ff" stroke="#63b8ff" points="1228.6,-339.13 1238.32,-343.35 1233.35,-333.99 1228.6,-339.13"/>
</a>
</g>
</g>
<!-- Node3&#45;&gt;Node5 -->
<g id="edge4_Node000003_Node000005" class="edge">
<title>Node3&#45;&gt;Node5</title>
<g id="a_edge4_Node000003_Node000005"><a xlink:title=" ">
<path fill="none" stroke="#63b8ff" d="M1159.66,-343.63C1105.38,-330.21 1040.85,-314.26 991.74,-302.13"/>
<polygon fill="#63b8ff" stroke="#63b8ff" points="1158.71,-347 1169.25,-346 1160.39,-340.2 1158.71,-347"/>
</a>
</g>
</g>
<!-- Node3&#45;&gt;Node7 -->
<g id="edge33_Node000003_Node000007" class="edge">
<title>Node3&#45;&gt;Node7</title>
<g id="a_edge33_Node000003_Node000007"><a xlink:title=" ">
<path fill="none" stroke="#63b8ff" d="M1267.38,-332.94C1267.38,-259.57 1267.38,-98.73 1267.38,-42.1"/>
<polygon fill="#63b8ff" stroke="#63b8ff" points="1263.88,-332.84 1267.38,-342.84 1270.88,-332.84 1263.88,-332.84"/>
</a>
</g>
</g>
<!-- Node6 -->
<g id="Node000006" class="node">
<title>Node6</title>
<g id="a_Node000006"><a xlink:href="ProcessAVX2_8hpp.html" target="_top" xlink:title=" ">
<polygon fill="white" stroke="#666666" points="1031.25,-130.75 879.5,-130.75 879.5,-77.75 1031.25,-77.75 1031.25,-130.75"/>
<text text-anchor="start" x="887.5" y="-117.25" font-family="Helvetica,sans-Serif" font-size="10.00">/github/workspace/dev</text>
<text text-anchor="start" x="887.5" y="-106" font-family="Helvetica,sans-Serif" font-size="10.00">_area/sourcecode/fdreadoutlibs</text>
<text text-anchor="start" x="887.5" y="-94.75" font-family="Helvetica,sans-Serif" font-size="10.00">/include/fdreadoutlibs/wibeth</text>
<text text-anchor="middle" x="955.38" y="-83.5" font-family="Helvetica,sans-Serif" font-size="10.00">/tpg/ProcessAVX2.hpp</text>
</a>
</g>
</g>
<!-- Node5&#45;&gt;Node6 -->
<g id="edge5_Node000005_Node000006" class="edge">
<title>Node5&#45;&gt;Node6</title>
<g id="a_edge5_Node000005_Node000006"><a xlink:title=" ">
<path fill="none" stroke="#63b8ff" d="M979.25,-248.78C989.37,-240.72 998.44,-231.07 1004.38,-219.75 1015.32,-198.89 1012.15,-188.99 1004.38,-166.75 999.78,-153.61 991.07,-141.17 982.25,-130.97"/>
<polygon fill="#63b8ff" stroke="#63b8ff" points="977.35,-245.83 971.36,-254.57 981.49,-251.48 977.35,-245.83"/>
</a>
</g>
</g>
<!-- Node5&#45;&gt;Node7 -->
<g id="edge30_Node000005_Node000007" class="edge">
<title>Node5&#45;&gt;Node7</title>
<g id="a_edge30_Node000005_Node000007"><a xlink:title=" ">
<path fill="none" stroke="#63b8ff" d="M1002.19,-254.9C1066.88,-231.42 1153.5,-191.28 1210.38,-130.75 1235.07,-104.47 1252,-65.44 1260.66,-41.95"/>
<polygon fill="#63b8ff" stroke="#63b8ff" points="1001.27,-251.52 993.03,-258.17 1003.62,-258.11 1001.27,-251.52"/>
</a>
</g>
</g>
<!-- Node9 -->
<g id="Node000009" class="node">
<title>Node9</title>
<g id="a_Node000009"><a xlink:href="ProcessAVX2FIR_8hpp.html" target="_top" xlink:title=" ">
<polygon fill="white" stroke="#666666" points="165.25,-130.75 13.5,-130.75 13.5,-77.75 165.25,-77.75 165.25,-130.75"/>
<text text-anchor="start" x="21.5" y="-117.25" font-family="Helvetica,sans-Serif" font-size="10.00">/github/workspace/dev</text>
<text text-anchor="start" x="21.5" y="-106" font-family="Helvetica,sans-Serif" font-size="10.00">_area/sourcecode/fdreadoutlibs</text>
<text text-anchor="start" x="21.5" y="-94.75" font-family="Helvetica,sans-Serif" font-size="10.00">/include/fdreadoutlibs/wibeth</text>
<text text-anchor="middle" x="89.38" y="-83.5" font-family="Helvetica,sans-Serif" font-size="10.00">/tpg/ProcessAVX2FIR.hpp</text>
</a>
</g>
</g>
<!-- Node5&#45;&gt;Node9 -->
<g id="edge8_Node000005_Node000009" class="edge">
<title>Node5&#45;&gt;Node9</title>
<g id="a_edge8_Node000005_Node000009"><a xlink:title=" ">
<path fill="none" stroke="#63b8ff" d="M827.86,-278.8C718.9,-274.08 527.82,-260.24 369.38,-219.75 286.43,-198.56 195.6,-157.93 140.55,-131.21"/>
<polygon fill="#63b8ff" stroke="#63b8ff" points="827.47,-282.29 837.61,-279.21 827.76,-275.3 827.47,-282.29"/>
</a>
</g>
</g>
<!-- Node11 -->
<g id="Node000011" class="node">
<title>Node11</title>
<g id="a_Node000011"><a xlink:href="ProcessAbsRSAVX2_8hpp.html" target="_top" xlink:title=" ">
<polygon fill="white" stroke="#666666" points="1201.25,-130.75 1049.5,-130.75 1049.5,-77.75 1201.25,-77.75 1201.25,-130.75"/>
<text text-anchor="start" x="1057.5" y="-117.25" font-family="Helvetica,sans-Serif" font-size="10.00">/github/workspace/dev</text>
<text text-anchor="start" x="1057.5" y="-106" font-family="Helvetica,sans-Serif" font-size="10.00">_area/sourcecode/fdreadoutlibs</text>
<text text-anchor="start" x="1057.5" y="-94.75" font-family="Helvetica,sans-Serif" font-size="10.00">/include/fdreadoutlibs/wibeth</text>
<text text-anchor="middle" x="1125.38" y="-83.5" font-family="Helvetica,sans-Serif" font-size="10.00">/tpg/ProcessAbsRSAVX2.hpp</text>
</a>
</g>
</g>
<!-- Node5&#45;&gt;Node11 -->
<g id="edge10_Node000005_Node000011" class="edge">
<title>Node5&#45;&gt;Node11</title>
<g id="a_edge10_Node000005_Node000011"><a xlink:title=" ">
<path fill="none" stroke="#63b8ff" d="M977.98,-249.69C993.13,-240.88 1008.84,-230.69 1022.38,-219.75 1055.23,-193.19 1086.76,-155.8 1106.09,-131.06"/>
<polygon fill="#63b8ff" stroke="#63b8ff" points="976.42,-246.55 969.45,-254.53 979.88,-252.64 976.42,-246.55"/>
</a>
</g>
</g>
<!-- Node13 -->
<g id="Node000013" class="node">
<title>Node13</title>
<g id="a_Node000013"><a xlink:href="ProcessNaive_8hpp.html" target="_top" xlink:title=" ">
<polygon fill="white" stroke="#666666" points="335.25,-130.75 183.5,-130.75 183.5,-77.75 335.25,-77.75 335.25,-130.75"/>
<text text-anchor="start" x="191.5" y="-117.25" font-family="Helvetica,sans-Serif" font-size="10.00">/github/workspace/dev</text>
<text text-anchor="start" x="191.5" y="-106" font-family="Helvetica,sans-Serif" font-size="10.00">_area/sourcecode/fdreadoutlibs</text>
<text text-anchor="start" x="191.5" y="-94.75" font-family="Helvetica,sans-Serif" font-size="10.00">/include/fdreadoutlibs/wibeth</text>
<text text-anchor="middle" x="259.38" y="-83.5" font-family="Helvetica,sans-Serif" font-size="10.00">/tpg/ProcessNaive.hpp</text>
</a>
</g>
</g>
<!-- Node5&#45;&gt;Node13 -->
<g id="edge13_Node000005_Node000013" class="edge">
<title>Node5&#45;&gt;Node13</title>
<g id="a_edge13_Node000005_Node000013"><a xlink:title=" ">
<path fill="none" stroke="#63b8ff" d="M827.71,-275.74C742.77,-268.66 611.06,-253.04 501.38,-219.75 429.1,-197.81 351.07,-157.59 303.72,-131.14"/>
<polygon fill="#63b8ff" stroke="#63b8ff" points="827.36,-279.22 837.61,-276.54 827.93,-272.25 827.36,-279.22"/>
</a>
</g>
</g>
<!-- Node14 -->
<g id="Node000014" class="node">
<title>Node14</title>
<g id="a_Node000014"><a xlink:href="ProcessNaiveFIR_8hpp.html" target="_top" xlink:title=" ">
<polygon fill="white" stroke="#666666" points="505.25,-130.75 353.5,-130.75 353.5,-77.75 505.25,-77.75 505.25,-130.75"/>
<text text-anchor="start" x="361.5" y="-117.25" font-family="Helvetica,sans-Serif" font-size="10.00">/github/workspace/dev</text>
<text text-anchor="start" x="361.5" y="-106" font-family="Helvetica,sans-Serif" font-size="10.00">_area/sourcecode/fdreadoutlibs</text>
<text text-anchor="start" x="361.5" y="-94.75" font-family="Helvetica,sans-Serif" font-size="10.00">/include/fdreadoutlibs/wibeth</text>
<text text-anchor="middle" x="429.38" y="-83.5" font-family="Helvetica,sans-Serif" font-size="10.00">/tpg/ProcessNaiveFIR.hpp</text>
</a>
</g>
</g>
<!-- Node5&#45;&gt;Node14 -->
<g id="edge14_Node000005_Node000014" class="edge">
<title>Node5&#45;&gt;Node14</title>
<g id="a_edge14_Node000005_Node000014"><a xlink:title=" ">
<path fill="none" stroke="#63b8ff" d="M827.99,-274.55C761.54,-267.11 668.97,-251.63 593.38,-219.75 541.38,-197.82 489.32,-157.6 458.22,-131.14"/>
<polygon fill="#63b8ff" stroke="#63b8ff" points="827.43,-278.01 837.75,-275.6 828.18,-271.05 827.43,-278.01"/>
</a>
</g>
</g>
<!-- Node15 -->
<g id="Node000015" class="node">
<title>Node15</title>
<g id="a_Node000015"><a xlink:href="ProcessNaiveRS_8hpp.html" target="_top" xlink:title=" ">
<polygon fill="white" stroke="#666666" points="675.25,-130.75 523.5,-130.75 523.5,-77.75 675.25,-77.75 675.25,-130.75"/>
<text text-anchor="start" x="531.5" y="-117.25" font-family="Helvetica,sans-Serif" font-size="10.00">/github/workspace/dev</text>
<text text-anchor="start" x="531.5" y="-106" font-family="Helvetica,sans-Serif" font-size="10.00">_area/sourcecode/fdreadoutlibs</text>
<text text-anchor="start" x="531.5" y="-94.75" font-family="Helvetica,sans-Serif" font-size="10.00">/include/fdreadoutlibs/wibeth</text>
<text text-anchor="middle" x="599.38" y="-83.5" font-family="Helvetica,sans-Serif" font-size="10.00">/tpg/ProcessNaiveRS.hpp</text>
</a>
</g>
</g>
<!-- Node5&#45;&gt;Node15 -->
<g id="edge15_Node000005_Node000015" class="edge">
<title>Node5&#45;&gt;Node15</title>
<g id="a_edge15_Node000005_Node000015"><a xlink:title=" ">
<path fill="none" stroke="#63b8ff" d="M827.96,-274C751,-265.74 646.85,-249.38 618.38,-219.75 595.9,-196.36 594.18,-157.1 596,-131.19"/>
<polygon fill="#63b8ff" stroke="#63b8ff" points="827.29,-277.45 837.6,-275 828.02,-270.48 827.29,-277.45"/>
</a>
</g>
</g>
<!-- Node16 -->
<g id="Node000016" class="node">
<title>Node16</title>
<g id="a_Node000016"><a xlink:href="ProcessStandardRSAVX2_8hpp.html" target="_top" xlink:title=" ">
<polygon fill="white" stroke="#666666" points="861.12,-130.75 693.62,-130.75 693.62,-77.75 861.12,-77.75 861.12,-130.75"/>
<text text-anchor="start" x="701.62" y="-117.25" font-family="Helvetica,sans-Serif" font-size="10.00">/github/workspace/dev</text>
<text text-anchor="start" x="701.62" y="-106" font-family="Helvetica,sans-Serif" font-size="10.00">_area/sourcecode/fdreadoutlibs</text>
<text text-anchor="start" x="701.62" y="-94.75" font-family="Helvetica,sans-Serif" font-size="10.00">/include/fdreadoutlibs/wibeth</text>
<text text-anchor="middle" x="777.38" y="-83.5" font-family="Helvetica,sans-Serif" font-size="10.00">/tpg/ProcessStandardRSAVX2.hpp</text>
</a>
</g>
</g>
<!-- Node5&#45;&gt;Node16 -->
<g id="edge16_Node000005_Node000016" class="edge">
<title>Node5&#45;&gt;Node16</title>
<g id="a_edge16_Node000005_Node000016"><a xlink:title=" ">
<path fill="none" stroke="#63b8ff" d="M858.17,-248.84C846.61,-240.44 835.28,-230.65 826.38,-219.75 804.75,-193.3 791.16,-155.88 783.91,-131.11"/>
<polygon fill="#63b8ff" stroke="#63b8ff" points="855.99,-251.58 866.2,-254.4 859.97,-245.83 855.99,-251.58"/>
</a>
</g>
</g>
<!-- Node18 -->
<g id="Node000018" class="node">
<title>Node18</title>
<g id="a_Node000018"><a xlink:href="ProcessingInfo_8hpp.html" target="_top" xlink:title=" ">
<polygon fill="white" stroke="#666666" points="779.25,-219.75 627.5,-219.75 627.5,-166.75 779.25,-166.75 779.25,-219.75"/>
<text text-anchor="start" x="635.5" y="-206.25" font-family="Helvetica,sans-Serif" font-size="10.00">/github/workspace/dev</text>
<text text-anchor="start" x="635.5" y="-195" font-family="Helvetica,sans-Serif" font-size="10.00">_area/sourcecode/fdreadoutlibs</text>
<text text-anchor="start" x="635.5" y="-183.75" font-family="Helvetica,sans-Serif" font-size="10.00">/include/fdreadoutlibs/wibeth</text>
<text text-anchor="middle" x="703.38" y="-172.5" font-family="Helvetica,sans-Serif" font-size="10.00">/tpg/ProcessingInfo.hpp</text>
</a>
</g>
</g>
<!-- Node5&#45;&gt;Node18 -->
<g id="edge19_Node000005_Node000018" class="edge">
<title>Node5&#45;&gt;Node18</title>
<g id="a_edge19_Node000005_Node000018"><a xlink:title=" ">
<path fill="none" stroke="#63b8ff" d="M841.71,-251.02C817.15,-240.94 790.04,-229.81 766.37,-220.1"/>
<polygon fill="#63b8ff" stroke="#63b8ff" points="840.07,-254.13 850.65,-254.69 842.73,-247.66 840.07,-254.13"/>
</a>
</g>
</g>
<!-- Node21 -->
<g id="Node000021" class="node">
<title>Node21</title>
<g id="a_Node000021"><a xlink:href="FrameExpand_8cpp.html" target="_top" xlink:title=" ">
<polygon fill="white" stroke="#666666" points="995.75,-214.12 835,-214.12 835,-172.38 995.75,-172.38 995.75,-214.12"/>
<text text-anchor="start" x="843" y="-200.62" font-family="Helvetica,sans-Serif" font-size="10.00">/github/workspace/dev</text>
<text text-anchor="start" x="843" y="-189.38" font-family="Helvetica,sans-Serif" font-size="10.00">_area/sourcecode/fdreadoutlibs</text>
<text text-anchor="middle" x="915.38" y="-178.12" font-family="Helvetica,sans-Serif" font-size="10.00">/src/wibeth/tpg/FrameExpand.cpp</text>
</a>
</g>
</g>
<!-- Node5&#45;&gt;Node21 -->
<g id="edge31_Node000005_Node000021" class="edge">
<title>Node5&#45;&gt;Node21</title>
<g id="a_edge31_Node000005_Node000021"><a xlink:title=" ">
<path fill="none" stroke="#63b8ff" d="M915.38,-244.38C915.38,-234.13 915.38,-223.37 915.38,-214.46"/>
<polygon fill="#63b8ff" stroke="#63b8ff" points="911.88,-244.1 915.38,-254.1 918.88,-244.1 911.88,-244.1"/>
</a>
</g>
</g>
<!-- Node22 -->
<g id="Node000022" class="node">
<title>Node22</title>
<g id="a_Node000022"><a xlink:href="RegisterToChannelNumber_8cpp.html" target="_top" xlink:title=" ">
<polygon fill="white" stroke="#666666" points="1513.62,-214.12 1295.12,-214.12 1295.12,-172.38 1513.62,-172.38 1513.62,-214.12"/>
<text text-anchor="start" x="1303.12" y="-200.62" font-family="Helvetica,sans-Serif" font-size="10.00">/github/workspace/dev</text>
<text text-anchor="start" x="1303.12" y="-189.38" font-family="Helvetica,sans-Serif" font-size="10.00">_area/sourcecode/fdreadoutlibs</text>
<text text-anchor="middle" x="1404.38" y="-178.12" font-family="Helvetica,sans-Serif" font-size="10.00">/src/wibeth/tpg/RegisterToChannelNumber.cpp</text>
</a>
</g>
</g>
<!-- Node5&#45;&gt;Node22 -->
<g id="edge32_Node000005_Node000022" class="edge">
<title>Node5&#45;&gt;Node22</title>
<g id="a_edge32_Node000005_Node000022"><a xlink:title=" ">
<path fill="none" stroke="#63b8ff" d="M1002.76,-265.7C1084.42,-251.17 1206.66,-229.43 1294.81,-213.74"/>
<polygon fill="#63b8ff" stroke="#63b8ff" points="1002.24,-262.24 993,-267.44 1003.46,-269.13 1002.24,-262.24"/>
</a>
</g>
</g>
<!-- Node6&#45;&gt;Node7 -->
<g id="edge6_Node000006_Node000007" class="edge">
<title>Node6&#45;&gt;Node7</title>
<g id="a_edge6_Node000006_Node000007"><a xlink:title=" ">
<path fill="none" stroke="#63b8ff" d="M1042.24,-77.29C1093.19,-63.51 1140.79,-51.72 1180.34,-42.22"/>
<polygon fill="#63b8ff" stroke="#63b8ff" points="1041.51,-73.86 1032.78,-79.86 1043.35,-80.62 1041.51,-73.86"/>
</a>
</g>
</g>
<!-- Node8 -->
<g id="Node000008" class="node">
<title>Node8</title>
<g id="a_Node000008"><a xlink:href="ProcessAVX2_8cpp.html" target="_top" xlink:title=" ">
<polygon fill="white" stroke="#666666" points="942.88,-41.75 779.88,-41.75 779.88,0 942.88,0 942.88,-41.75"/>
<text text-anchor="start" x="787.88" y="-28.25" font-family="Helvetica,sans-Serif" font-size="10.00">/github/workspace/dev</text>
<text text-anchor="start" x="787.88" y="-17" font-family="Helvetica,sans-Serif" font-size="10.00">_area/sourcecode/fdreadoutlibs</text>
<text text-anchor="middle" x="861.38" y="-5.75" font-family="Helvetica,sans-Serif" font-size="10.00">/src/wibeth/tpg/ProcessAVX2.cpp</text>
</a>
</g>
</g>
<!-- Node6&#45;&gt;Node8 -->
<g id="edge7_Node000006_Node000008" class="edge">
<title>Node6&#45;&gt;Node8</title>
<g id="a_edge7_Node000006_Node000008"><a xlink:title=" ">
<path fill="none" stroke="#63b8ff" d="M916.85,-69.9C906,-60.51 894.53,-50.57 884.85,-42.19"/>
<polygon fill="#63b8ff" stroke="#63b8ff" points="914.38,-72.39 924.23,-76.29 918.96,-67.1 914.38,-72.39"/>
</a>
</g>
</g>
<!-- Node10 -->
<g id="Node000010" class="node">
<title>Node10</title>
<g id="a_Node000010"><a xlink:href="ProcessAVX2FIR_8cpp.html" target="_top" xlink:title=" ">
<polygon fill="white" stroke="#666666" points="178.75,-41.75 0,-41.75 0,0 178.75,0 178.75,-41.75"/>
<text text-anchor="start" x="8" y="-28.25" font-family="Helvetica,sans-Serif" font-size="10.00">/github/workspace/dev</text>
<text text-anchor="start" x="8" y="-17" font-family="Helvetica,sans-Serif" font-size="10.00">_area/sourcecode/fdreadoutlibs</text>
<text text-anchor="middle" x="89.38" y="-5.75" font-family="Helvetica,sans-Serif" font-size="10.00">/src/wibeth/tpg/ProcessAVX2FIR.cpp</text>
</a>
</g>
</g>
<!-- Node9&#45;&gt;Node10 -->
<g id="edge9_Node000009_Node000010" class="edge">
<title>Node9&#45;&gt;Node10</title>
<g id="a_edge9_Node000009_Node000010"><a xlink:title=" ">
<path fill="none" stroke="#63b8ff" d="M89.38,-66.08C89.38,-57.8 89.38,-49.33 89.38,-42.04"/>
<polygon fill="#63b8ff" stroke="#63b8ff" points="85.88,-65.99 89.38,-75.99 92.88,-65.99 85.88,-65.99"/>
</a>
</g>
</g>
<!-- Node11&#45;&gt;Node7 -->
<g id="edge11_Node000011_Node000007" class="edge">
<title>Node11&#45;&gt;Node7</title>
<g id="a_edge11_Node000011_Node000007"><a xlink:title=" ">
<path fill="none" stroke="#63b8ff" d="M1180.66,-71.57C1197.89,-61.69 1216.43,-51.07 1231.92,-42.19"/>
<polygon fill="#63b8ff" stroke="#63b8ff" points="1178.94,-68.52 1172.01,-76.53 1182.42,-74.59 1178.94,-68.52"/>
</a>
</g>
</g>
<!-- Node12 -->
<g id="Node000012" class="node">
<title>Node12</title>
<g id="a_Node000012"><a xlink:href="ProcessAbsRSAVX2_8cpp.html" target="_top" xlink:title=" ">
<polygon fill="white" stroke="#666666" points="1154.25,-41.75 960.5,-41.75 960.5,0 1154.25,0 1154.25,-41.75"/>
<text text-anchor="start" x="968.5" y="-28.25" font-family="Helvetica,sans-Serif" font-size="10.00">/github/workspace/dev</text>
<text text-anchor="start" x="968.5" y="-17" font-family="Helvetica,sans-Serif" font-size="10.00">_area/sourcecode/fdreadoutlibs</text>
<text text-anchor="middle" x="1057.38" y="-5.75" font-family="Helvetica,sans-Serif" font-size="10.00">/src/wibeth/tpg/ProcessAbsRSAVX2.cpp</text>
</a>
</g>
</g>
<!-- Node11&#45;&gt;Node12 -->
<g id="edge12_Node000011_Node000012" class="edge">
<title>Node11&#45;&gt;Node12</title>
<g id="a_edge12_Node000011_Node000012"><a xlink:title=" ">
<path fill="none" stroke="#63b8ff" d="M1096.69,-68.92C1089.03,-59.76 1081.01,-50.16 1074.23,-42.04"/>
<polygon fill="#63b8ff" stroke="#63b8ff" points="1093.79,-70.91 1102.89,-76.34 1099.16,-66.42 1093.79,-70.91"/>
</a>
</g>
</g>
<!-- Node16&#45;&gt;Node7 -->
<g id="edge17_Node000016_Node000007" class="edge">
<title>Node16&#45;&gt;Node7</title>
<g id="a_edge17_Node000016_Node000007"><a xlink:title=" ">
<path fill="none" stroke="#63b8ff" d="M872.46,-77.47C1001.06,-52.85 1037.3,-61.52 1163.38,-41.75 1166.19,-41.31 1169.05,-40.85 1171.93,-40.37"/>
<polygon fill="#63b8ff" stroke="#63b8ff" points="872.03,-73.99 862.88,-79.33 873.36,-80.86 872.03,-73.99"/>
</a>
</g>
</g>
<!-- Node17 -->
<g id="Node000017" class="node">
<title>Node17</title>
<g id="a_Node000017"><a xlink:href="ProcessStandardRSAVX2_8cpp.html" target="_top" xlink:title=" ">
<polygon fill="white" stroke="#666666" points="762.12,-41.75 546.62,-41.75 546.62,0 762.12,0 762.12,-41.75"/>
<text text-anchor="start" x="554.62" y="-28.25" font-family="Helvetica,sans-Serif" font-size="10.00">/github/workspace/dev</text>
<text text-anchor="start" x="554.62" y="-17" font-family="Helvetica,sans-Serif" font-size="10.00">_area/sourcecode/fdreadoutlibs</text>
<text text-anchor="middle" x="654.38" y="-5.75" font-family="Helvetica,sans-Serif" font-size="10.00">/src/wibeth/tpg/ProcessStandardRSAVX2.cpp</text>
</a>
</g>
</g>
<!-- Node16&#45;&gt;Node17 -->
<g id="edge18_Node000016_Node000017" class="edge">
<title>Node16&#45;&gt;Node17</title>
<g id="a_edge18_Node000016_Node000017"><a xlink:title=" ">
<path fill="none" stroke="#63b8ff" d="M728.65,-71.01C713.96,-61.3 698.26,-50.91 685.09,-42.19"/>
<polygon fill="#63b8ff" stroke="#63b8ff" points="726.59,-73.84 736.86,-76.44 730.45,-68.01 726.59,-73.84"/>
</a>
</g>
</g>
<!-- Node18&#45;&gt;Node6 -->
<g id="edge23_Node000018_Node000006" class="edge">
<title>Node18&#45;&gt;Node6</title>
<g id="a_edge23_Node000018_Node000006"><a xlink:title=" ">
<path fill="none" stroke="#63b8ff" d="M789.38,-162.56C818.98,-152.34 851.86,-140.99 880.5,-131.1"/>
<polygon fill="#63b8ff" stroke="#63b8ff" points="788.38,-159.2 780.07,-165.77 790.67,-165.82 788.38,-159.2"/>
</a>
</g>
</g>
<!-- Node18&#45;&gt;Node9 -->
<g id="edge24_Node000018_Node000009" class="edge">
<title>Node18&#45;&gt;Node9</title>
<g id="a_edge24_Node000018_Node000009"><a xlink:title=" ">
<path fill="none" stroke="#63b8ff" d="M616.15,-186.83C510.67,-179.19 328.14,-162.5 174.38,-130.75 171.51,-130.16 168.6,-129.51 165.67,-128.83"/>
<polygon fill="#63b8ff" stroke="#63b8ff" points="615.64,-190.3 625.86,-187.52 616.14,-183.32 615.64,-190.3"/>
</a>
</g>
</g>
<!-- Node18&#45;&gt;Node11 -->
<g id="edge25_Node000018_Node000011" class="edge">
<title>Node18&#45;&gt;Node11</title>
<g id="a_edge25_Node000018_Node000011"><a xlink:title=" ">
<path fill="none" stroke="#63b8ff" d="M790.66,-173.73C802.65,-171.31 814.81,-168.92 826.38,-166.75 921.17,-148.96 946.45,-152.65 1040.38,-130.75 1043.23,-130.09 1046.12,-129.38 1049.04,-128.64"/>
<polygon fill="#63b8ff" stroke="#63b8ff" points="790.31,-170.23 781.21,-175.65 791.71,-177.09 790.31,-170.23"/>
</a>
</g>
</g>
<!-- Node18&#45;&gt;Node13 -->
<g id="edge26_Node000018_Node000013" class="edge">
<title>Node18&#45;&gt;Node13</title>
<g id="a_edge26_Node000018_Node000013"><a xlink:title=" ">
<path fill="none" stroke="#63b8ff" d="M616.22,-180.36C543.14,-169.66 436.31,-152.33 344.38,-130.75 341.53,-130.08 338.63,-129.37 335.71,-128.63"/>
<polygon fill="#63b8ff" stroke="#63b8ff" points="615.3,-183.76 625.7,-181.73 616.3,-176.83 615.3,-183.76"/>
</a>
</g>
</g>
<!-- Node18&#45;&gt;Node14 -->
<g id="edge27_Node000018_Node000014" class="edge">
<title>Node18&#45;&gt;Node14</title>
<g id="a_edge27_Node000018_Node000014"><a xlink:title=" ">
<path fill="none" stroke="#63b8ff" d="M616.17,-164.56C580.53,-153.24 539.68,-140.27 505.29,-129.35"/>
<polygon fill="#63b8ff" stroke="#63b8ff" points="615.02,-167.87 625.61,-167.56 617.14,-161.2 615.02,-167.87"/>
</a>
</g>
</g>
<!-- Node18&#45;&gt;Node15 -->
<g id="edge28_Node000018_Node000015" class="edge">
<title>Node18&#45;&gt;Node15</title>
<g id="a_edge28_Node000018_Node000015"><a xlink:title=" ">
<path fill="none" stroke="#63b8ff" d="M663.79,-159.13C652.72,-149.87 640.85,-139.95 630.36,-131.17"/>
<polygon fill="#63b8ff" stroke="#63b8ff" points="661.38,-161.68 671.29,-165.41 665.87,-156.31 661.38,-161.68"/>
</a>
</g>
</g>
<!-- Node18&#45;&gt;Node16 -->
<g id="edge29_Node000018_Node000016" class="edge">
<title>Node18&#45;&gt;Node16</title>
<g id="a_edge29_Node000018_Node000016"><a xlink:title=" ">
<path fill="none" stroke="#63b8ff" d="M732.6,-157.9C740.22,-148.93 748.3,-139.43 755.47,-131"/>
<polygon fill="#63b8ff" stroke="#63b8ff" points="729.97,-155.58 726.16,-165.46 735.3,-160.12 729.97,-155.58"/>
</a>
</g>
</g>
<!-- Node19 -->
<g id="Node000019" class="node">
<title>Node19</title>
<g id="a_Node000019"><a xlink:href="WIBEthFrameProcessor_8hpp.html" target="_top" xlink:title=" ">
<polygon fill="white" stroke="#666666" points="1490.25,-130.75 1338.5,-130.75 1338.5,-77.75 1490.25,-77.75 1490.25,-130.75"/>
<text text-anchor="start" x="1346.5" y="-117.25" font-family="Helvetica,sans-Serif" font-size="10.00">/github/workspace/dev</text>
<text text-anchor="start" x="1346.5" y="-106" font-family="Helvetica,sans-Serif" font-size="10.00">_area/sourcecode/fdreadoutlibs</text>
<text text-anchor="start" x="1346.5" y="-94.75" font-family="Helvetica,sans-Serif" font-size="10.00">/include/fdreadoutlibs/wibeth</text>
<text text-anchor="middle" x="1414.38" y="-83.5" font-family="Helvetica,sans-Serif" font-size="10.00">/WIBEthFrameProcessor.hpp</text>
</a>
</g>
</g>
<!-- Node18&#45;&gt;Node19 -->
<g id="edge20_Node000018_Node000019" class="edge">
<title>Node18&#45;&gt;Node19</title>
<g id="a_edge20_Node000018_Node000019"><a xlink:title=" ">
<path fill="none" stroke="#63b8ff" d="M790.53,-172.94C802.53,-170.64 814.73,-168.5 826.38,-166.75 995.89,-141.31 1039.98,-149.38 1210.38,-130.75 1252.77,-126.11 1300.04,-120.25 1338.39,-115.31"/>
<polygon fill="#63b8ff" stroke="#63b8ff" points="790.2,-169.43 781.06,-174.79 791.55,-176.3 790.2,-169.43"/>
</a>
</g>
</g>
<!-- Node19&#45;&gt;Node7 -->
<g id="edge22_Node000019_Node000007" class="edge">
<title>Node19&#45;&gt;Node7</title>
<g id="a_edge22_Node000019_Node000007"><a xlink:title=" ">
<path fill="none" stroke="#63b8ff" d="M1357.39,-71.71C1339.48,-61.79 1320.19,-51.11 1304.08,-42.19"/>
<polygon fill="#63b8ff" stroke="#63b8ff" points="1355.69,-74.76 1366.13,-76.55 1359.08,-68.64 1355.69,-74.76"/>
</a>
</g>
</g>
<!-- Node20 -->
<g id="Node000020" class="node">
<title>Node20</title>
<g id="a_Node000020"><a xlink:href="FDReadoutlibs_8cpp.html" target="_top" xlink:title=" ">
<polygon fill="white" stroke="#666666" points="1532.25,-41.75 1380.5,-41.75 1380.5,0 1532.25,0 1532.25,-41.75"/>
<text text-anchor="start" x="1388.5" y="-28.25" font-family="Helvetica,sans-Serif" font-size="10.00">/github/workspace/dev</text>
<text text-anchor="start" x="1388.5" y="-17" font-family="Helvetica,sans-Serif" font-size="10.00">_area/sourcecode/fdreadoutlibs</text>
<text text-anchor="middle" x="1456.38" y="-5.75" font-family="Helvetica,sans-Serif" font-size="10.00">/src/FDReadoutlibs.cpp</text>
</a>
</g>
</g>
<!-- Node19&#45;&gt;Node20 -->
<g id="edge21_Node000019_Node000020" class="edge">
<title>Node19&#45;&gt;Node20</title>
<g id="a_edge21_Node000019_Node000020"><a xlink:title=" ">
<path fill="none" stroke="#63b8ff" d="M1432.83,-67.5C1437.33,-58.78 1441.99,-49.74 1445.97,-42.04"/>
<polygon fill="#63b8ff" stroke="#63b8ff" points="1429.83,-65.67 1428.36,-76.16 1436.05,-68.88 1429.83,-65.67"/>
</a>
</g>
</g>
<!-- Node23&#45;&gt;Node19 -->
<g id="edge36_Node000023_Node000019" class="edge">
<title>Node23&#45;&gt;Node19</title>
<g id="a_edge36_Node000023_Node000019"><a xlink:title=" ">
<path fill="none" stroke="#63b8ff" d="M1505.56,-246.87C1512.43,-238.73 1518.59,-229.54 1522.38,-219.75 1530.88,-197.78 1534.21,-187.11 1522.38,-166.75 1513.65,-151.73 1499.73,-140.08 1484.75,-131.16"/>
<polygon fill="#63b8ff" stroke="#63b8ff" points="1503.07,-244.4 1498.92,-254.15 1508.25,-249.12 1503.07,-244.4"/>
</a>
</g>
</g>
<!-- Node23&#45;&gt;Node22 -->
<g id="edge37_Node000023_Node000022" class="edge">
<title>Node23&#45;&gt;Node22</title>
<g id="a_edge37_Node000023_Node000022"><a xlink:title=" ">
<path fill="none" stroke="#63b8ff" d="M1441.51,-246.36C1433.79,-235.52 1425.54,-223.95 1418.78,-214.46"/>
<polygon fill="#63b8ff" stroke="#63b8ff" points="1438.58,-248.27 1447.23,-254.39 1444.28,-244.21 1438.58,-248.27"/>
</a>
</g>
</g>
<!-- Node25 -->
<g id="Node000025" class="node">
<title>Node25</title>
<g id="a_Node000025"><a xlink:href="file__conversion_8cpp.html" target="_top" xlink:title=" ">
<polygon fill="white" stroke="#666666" points="1764.75,-303.12 1616,-303.12 1616,-261.38 1764.75,-261.38 1764.75,-303.12"/>
<text text-anchor="start" x="1624" y="-289.62" font-family="Helvetica,sans-Serif" font-size="10.00">/github/workspace/dev</text>
<text text-anchor="start" x="1624" y="-278.38" font-family="Helvetica,sans-Serif" font-size="10.00">_area/sourcecode/rawdatautils</text>
<text text-anchor="middle" x="1690.38" y="-267.12" font-family="Helvetica,sans-Serif" font-size="10.00">/pybindsrc/file_conversion.cpp</text>
</a>
</g>
</g>
<!-- Node24&#45;&gt;Node25 -->
<g id="edge40_Node000024_Node000025" class="edge">
<title>Node24&#45;&gt;Node25</title>
<g id="a_edge40_Node000024_Node000025"><a xlink:title=" ">
<path fill="none" stroke="#63b8ff" d="M1690.38,-338.89C1690.38,-327.15 1690.38,-314.12 1690.38,-303.62"/>
<polygon fill="#63b8ff" stroke="#63b8ff" points="1686.88,-338.56 1690.38,-348.56 1693.88,-338.56 1686.88,-338.56"/>
</a>
</g>
</g>
</g>
</svg>
