<?xml version="1.0" encoding="UTF-8" standalone="no"?>
<!DOCTYPE svg PUBLIC "-//W3C//DTD SVG 1.1//EN"
 "http://www.w3.org/Graphics/SVG/1.1/DTD/svg11.dtd">
<!-- Generated by graphviz version 9.0.0 (20230911.1827)
 -->
<!-- Title: /github/workspace/dev_area/sourcecode/utilities/include/utilities/WorkerThread.hpp Pages: 1 -->
<svg width="1343pt" height="306pt"
 viewBox="0.00 0.00 1343.12 305.50" xmlns="http://www.w3.org/2000/svg" xmlns:xlink="http://www.w3.org/1999/xlink">
<g id="graph0" class="graph" transform="scale(1 1) rotate(0) translate(4 301.5)">
<title>/github/workspace/dev_area/sourcecode/utilities/include/utilities/WorkerThread.hpp</title>
<!-- Node1 -->
<g id="Node000001" class="node">
<title>Node1</title>
<g id="a_Node000001"><a xlink:title=" ">
<polygon fill="#999999" stroke="#666666" points="769.25,-297.5 604,-297.5 604,-255.75 769.25,-255.75 769.25,-297.5"/>
<text text-anchor="start" x="612" y="-284" font-family="Helvetica,sans-Serif" font-size="10.00">/github/workspace/dev</text>
<text text-anchor="start" x="612" y="-272.75" font-family="Helvetica,sans-Serif" font-size="10.00">_area/sourcecode/utilities</text>
<text text-anchor="middle" x="686.62" y="-261.5" font-family="Helvetica,sans-Serif" font-size="10.00">/include/utilities/WorkerThread.hpp</text>
</a>
</g>
</g>
<!-- Node2 -->
<g id="Node000002" class="node">
<title>Node2</title>
<g id="a_Node000002"><a xlink:href="TriggerInhibitAgent_8hpp.html" target="_top" xlink:title=" ">
<polygon fill="white" stroke="#666666" points="183.25,-214.12 0,-214.12 0,-172.38 183.25,-172.38 183.25,-214.12"/>
<text text-anchor="start" x="8" y="-200.62" font-family="Helvetica,sans-Serif" font-size="10.00">/github/workspace/dev</text>
<text text-anchor="start" x="8" y="-189.38" font-family="Helvetica,sans-Serif" font-size="10.00">_area/sourcecode/dfmodules</text>
<text text-anchor="middle" x="91.62" y="-178.12" font-family="Helvetica,sans-Serif" font-size="10.00">/src/dfmodules/TriggerInhibitAgent.hpp</text>
</a>
</g>
</g>
<!-- Node1&#45;&gt;Node2 -->
<g id="edge1_Node000001_Node000002" class="edge">
<title>Node1&#45;&gt;Node2</title>
<g id="a_edge1_Node000001_Node000002"><a xlink:title=" ">
<path fill="none" stroke="#63b8ff" d="M592.27,-268.75C492.44,-260.6 330.6,-244.85 192.62,-219.75 184.44,-218.26 175.94,-216.48 167.49,-214.57"/>
<polygon fill="#63b8ff" stroke="#63b8ff" points="591.77,-272.23 602.02,-269.54 592.33,-265.25 591.77,-272.23"/>
</a>
</g>
</g>
<!-- Node4 -->
<g id="Node000004" class="node">
<title>Node4</title>
<g id="a_Node000004"><a xlink:href="sourcecode_2hsilibs_2include_2hsilibs_2HSIEventSender_8hpp.html" target="_top" xlink:title=" ">
<polygon fill="white" stroke="#666666" points="375.75,-214.12 201.5,-214.12 201.5,-172.38 375.75,-172.38 375.75,-214.12"/>
<text text-anchor="start" x="209.5" y="-200.62" font-family="Helvetica,sans-Serif" font-size="10.00">/github/workspace/dev</text>
<text text-anchor="start" x="209.5" y="-189.38" font-family="Helvetica,sans-Serif" font-size="10.00">_area/sourcecode/hsilibs</text>
<text text-anchor="middle" x="288.62" y="-178.12" font-family="Helvetica,sans-Serif" font-size="10.00">/include/hsilibs/HSIEventSender.hpp</text>
</a>
</g>
</g>
<!-- Node1&#45;&gt;Node4 -->
<g id="edge3_Node000001_Node000004" class="edge">
<title>Node1&#45;&gt;Node4</title>
<g id="a_edge3_Node000001_Node000004"><a xlink:title=" ">
<path fill="none" stroke="#63b8ff" d="M592.68,-259.47C534.1,-249.02 457.26,-234.64 389.62,-219.75 382.38,-218.16 374.87,-216.42 367.36,-214.62"/>
<polygon fill="#63b8ff" stroke="#63b8ff" points="591.82,-262.88 602.28,-261.18 593.05,-255.98 591.82,-262.88"/>
</a>
</g>
</g>
<!-- Node6 -->
<g id="Node000006" class="node">
<title>Node6</title>
<g id="a_Node000006"><a xlink:href="RecorderConcept_8hpp.html" target="_top" xlink:title=" ">
<polygon fill="white" stroke="#666666" points="575.38,-219.75 431.88,-219.75 431.88,-166.75 575.38,-166.75 575.38,-219.75"/>
<text text-anchor="start" x="439.88" y="-206.25" font-family="Helvetica,sans-Serif" font-size="10.00">/github/workspace/dev</text>
<text text-anchor="start" x="439.88" y="-195" font-family="Helvetica,sans-Serif" font-size="10.00">_area/sourcecode/readoutlibs</text>
<text text-anchor="start" x="439.88" y="-183.75" font-family="Helvetica,sans-Serif" font-size="10.00">/include/readoutlibs/concepts</text>
<text text-anchor="middle" x="503.62" y="-172.5" font-family="Helvetica,sans-Serif" font-size="10.00">/RecorderConcept.hpp</text>
</a>
</g>
</g>
<!-- Node1&#45;&gt;Node6 -->
<g id="edge5_Node000001_Node000006" class="edge">
<title>Node1&#45;&gt;Node6</title>
<g id="a_edge5_Node000001_Node000006"><a xlink:title=" ">
<path fill="none" stroke="#63b8ff" d="M630.52,-250.68C608.76,-241 583.85,-229.92 561.89,-220.16"/>
<polygon fill="#63b8ff" stroke="#63b8ff" points="628.98,-253.82 639.54,-254.69 631.82,-247.42 628.98,-253.82"/>
</a>
</g>
</g>
<!-- Node7 -->
<g id="Node000007" class="node">
<title>Node7</title>
<g id="a_Node000007"><a xlink:href="RecorderModel_8hpp.html" target="_top" xlink:title=" ">
<polygon fill="white" stroke="#666666" points="486.38,-130.75 342.88,-130.75 342.88,-77.75 486.38,-77.75 486.38,-130.75"/>
<text text-anchor="start" x="350.88" y="-117.25" font-family="Helvetica,sans-Serif" font-size="10.00">/github/workspace/dev</text>
<text text-anchor="start" x="350.88" y="-106" font-family="Helvetica,sans-Serif" font-size="10.00">_area/sourcecode/readoutlibs</text>
<text text-anchor="start" x="350.88" y="-94.75" font-family="Helvetica,sans-Serif" font-size="10.00">/include/readoutlibs/models</text>
<text text-anchor="middle" x="414.62" y="-83.5" font-family="Helvetica,sans-Serif" font-size="10.00">/RecorderModel.hpp</text>
</a>
</g>
</g>
<!-- Node1&#45;&gt;Node7 -->
<g id="edge9_Node000001_Node000007" class="edge">
<title>Node1&#45;&gt;Node7</title>
<g id="a_edge9_Node000001_Node000007"><a xlink:title=" ">
<path fill="none" stroke="#63b8ff" d="M592.18,-267.54C525.71,-259.73 444.79,-245.23 422.62,-219.75 401.57,-195.55 403.83,-156.5 408.41,-130.85"/>
<polygon fill="#63b8ff" stroke="#63b8ff" points="591.72,-271.01 602.05,-268.66 592.51,-264.05 591.72,-271.01"/>
</a>
</g>
</g>
<!-- Node9 -->
<g id="Node000009" class="node">
<title>Node9</title>
<g id="a_Node000009"><a xlink:href="sourcecode_2timinglibs_2include_2timinglibs_2TimingController_8hpp.html" target="_top" xlink:title=" ">
<polygon fill="white" stroke="#666666" points="779.38,-214.12 593.88,-214.12 593.88,-172.38 779.38,-172.38 779.38,-214.12"/>
<text text-anchor="start" x="601.88" y="-200.62" font-family="Helvetica,sans-Serif" font-size="10.00">/github/workspace/dev</text>
<text text-anchor="start" x="601.88" y="-189.38" font-family="Helvetica,sans-Serif" font-size="10.00">_area/sourcecode/timinglibs</text>
<text text-anchor="middle" x="686.62" y="-178.12" font-family="Helvetica,sans-Serif" font-size="10.00">/include/timinglibs/TimingController.hpp</text>
</a>
</g>
</g>
<!-- Node1&#45;&gt;Node9 -->
<g id="edge10_Node000001_Node000009" class="edge">
<title>Node1&#45;&gt;Node9</title>
<g id="a_edge10_Node000001_Node000009"><a xlink:title=" ">
<path fill="none" stroke="#63b8ff" d="M686.62,-244.27C686.62,-234.24 686.62,-223.42 686.62,-214.42"/>
<polygon fill="#63b8ff" stroke="#63b8ff" points="683.13,-244 686.63,-254 690.13,-244 683.13,-244"/>
</a>
</g>
</g>
<!-- Node11 -->
<g id="Node000011" class="node">
<title>Node11</title>
<g id="a_Node000011"><a xlink:href="sourcecode_2timinglibs_2src_2TimingMasterController_8hpp.html" target="_top" xlink:title=" ">
<polygon fill="white" stroke="#666666" points="873.62,-125.12 719.62,-125.12 719.62,-83.38 873.62,-83.38 873.62,-125.12"/>
<text text-anchor="start" x="727.62" y="-111.62" font-family="Helvetica,sans-Serif" font-size="10.00">/github/workspace/dev</text>
<text text-anchor="start" x="727.62" y="-100.38" font-family="Helvetica,sans-Serif" font-size="10.00">_area/sourcecode/timinglibs</text>
<text text-anchor="middle" x="796.62" y="-89.12" font-family="Helvetica,sans-Serif" font-size="10.00">/src/TimingMasterController.hpp</text>
</a>
</g>
</g>
<!-- Node1&#45;&gt;Node11 -->
<g id="edge16_Node000001_Node000011" class="edge">
<title>Node1&#45;&gt;Node11</title>
<g id="a_edge16_Node000001_Node000011"><a xlink:title=" ">
<path fill="none" stroke="#63b8ff" d="M756.33,-249.79C768.99,-242.01 780.68,-232.15 788.62,-219.75 807,-191.06 804.4,-149.61 800.64,-125.25"/>
<polygon fill="#63b8ff" stroke="#63b8ff" points="754.81,-246.63 747.82,-254.59 758.25,-252.72 754.81,-246.63"/>
</a>
</g>
</g>
<!-- Node13 -->
<g id="Node000013" class="node">
<title>Node13</title>
<g id="a_Node000013"><a xlink:href="sourcecode_2timinglibs_2src_2TimingHardwareManager_8hpp.html" target="_top" xlink:title=" ">
<polygon fill="white" stroke="#666666" points="997.75,-214.12 835.5,-214.12 835.5,-172.38 997.75,-172.38 997.75,-214.12"/>
<text text-anchor="start" x="843.5" y="-200.62" font-family="Helvetica,sans-Serif" font-size="10.00">/github/workspace/dev</text>
<text text-anchor="start" x="843.5" y="-189.38" font-family="Helvetica,sans-Serif" font-size="10.00">_area/sourcecode/timinglibs</text>
<text text-anchor="middle" x="916.62" y="-178.12" font-family="Helvetica,sans-Serif" font-size="10.00">/src/TimingHardwareManager.hpp</text>
</a>
</g>
</g>
<!-- Node1&#45;&gt;Node13 -->
<g id="edge14_Node000001_Node000013" class="edge">
<title>Node1&#45;&gt;Node13</title>
<g id="a_edge14_Node000001_Node000013"><a xlink:title=" ">
<path fill="none" stroke="#63b8ff" d="M754.62,-251.57C787.85,-239.81 827.41,-225.82 859.11,-214.6"/>
<polygon fill="#63b8ff" stroke="#63b8ff" points="753.76,-248.16 745.5,-254.8 756.09,-254.76 753.76,-248.16"/>
</a>
</g>
</g>
<!-- Node15 -->
<g id="Node000015" class="node">
<title>Node15</title>
<g id="a_Node000015"><a xlink:href="TriggerGenericMaker_8hpp.html" target="_top" xlink:title=" ">
<polygon fill="white" stroke="#666666" points="1189.75,-214.12 1015.5,-214.12 1015.5,-172.38 1189.75,-172.38 1189.75,-214.12"/>
<text text-anchor="start" x="1023.5" y="-200.62" font-family="Helvetica,sans-Serif" font-size="10.00">/github/workspace/dev</text>
<text text-anchor="start" x="1023.5" y="-189.38" font-family="Helvetica,sans-Serif" font-size="10.00">_area/sourcecode/trigger</text>
<text text-anchor="middle" x="1102.62" y="-178.12" font-family="Helvetica,sans-Serif" font-size="10.00">/src/trigger/TriggerGenericMaker.hpp</text>
</a>
</g>
</g>
<!-- Node1&#45;&gt;Node15 -->
<g id="edge17_Node000001_Node000015" class="edge">
<title>Node1&#45;&gt;Node15</title>
<g id="a_edge17_Node000001_Node000015"><a xlink:title=" ">
<path fill="none" stroke="#63b8ff" d="M780.83,-261.38C844.79,-251.17 931.15,-236.33 1006.62,-219.75 1013.78,-218.18 1021.21,-216.42 1028.62,-214.59"/>
<polygon fill="#63b8ff" stroke="#63b8ff" points="780.38,-257.91 771.05,-262.93 781.47,-264.82 780.38,-257.91"/>
</a>
</g>
</g>
<!-- Node16 -->
<g id="Node000016" class="node">
<title>Node16</title>
<g id="a_Node000016"><a xlink:href="WorkerThread_8cpp.html" target="_top" xlink:title=" ">
<polygon fill="white" stroke="#666666" points="1335.12,-214.12 1208.12,-214.12 1208.12,-172.38 1335.12,-172.38 1335.12,-214.12"/>
<text text-anchor="start" x="1216.12" y="-200.62" font-family="Helvetica,sans-Serif" font-size="10.00">/github/workspace/dev</text>
<text text-anchor="start" x="1216.12" y="-189.38" font-family="Helvetica,sans-Serif" font-size="10.00">_area/sourcecode/utilities</text>
<text text-anchor="middle" x="1271.62" y="-178.12" font-family="Helvetica,sans-Serif" font-size="10.00">/src/WorkerThread.cpp</text>
</a>
</g>
</g>
<!-- Node1&#45;&gt;Node16 -->
<g id="edge18_Node000001_Node000016" class="edge">
<title>Node1&#45;&gt;Node16</title>
<g id="a_edge18_Node000001_Node000016"><a xlink:title=" ">
<path fill="none" stroke="#63b8ff" d="M780.96,-271.76C884.49,-266.03 1055.09,-252.21 1198.62,-219.75 1204.91,-218.33 1211.4,-216.54 1217.81,-214.58"/>
<polygon fill="#63b8ff" stroke="#63b8ff" points="780.91,-268.25 771.11,-272.28 781.29,-275.24 780.91,-268.25"/>
</a>
</g>
</g>
<!-- Node3 -->
<g id="Node000003" class="node">
<title>Node3</title>
<g id="a_Node000003"><a xlink:href="TriggerInhibitAgent_8cpp.html" target="_top" xlink:title=" ">
<polygon fill="white" stroke="#666666" points="162.25,-125.12 21,-125.12 21,-83.38 162.25,-83.38 162.25,-125.12"/>
<text text-anchor="start" x="29" y="-111.62" font-family="Helvetica,sans-Serif" font-size="10.00">/github/workspace/dev</text>
<text text-anchor="start" x="29" y="-100.38" font-family="Helvetica,sans-Serif" font-size="10.00">_area/sourcecode/dfmodules</text>
<text text-anchor="middle" x="91.62" y="-89.12" font-family="Helvetica,sans-Serif" font-size="10.00">/src/TriggerInhibitAgent.cpp</text>
</a>
</g>
</g>
<!-- Node2&#45;&gt;Node3 -->
<g id="edge2_Node000002_Node000003" class="edge">
<title>Node2&#45;&gt;Node3</title>
<g id="a_edge2_Node000002_Node000003"><a xlink:title=" ">
<path fill="none" stroke="#63b8ff" d="M91.62,-160.89C91.62,-149.15 91.62,-136.12 91.62,-125.62"/>
<polygon fill="#63b8ff" stroke="#63b8ff" points="88.13,-160.56 91.63,-170.56 95.13,-160.56 88.13,-160.56"/>
</a>
</g>
</g>
<!-- Node5 -->
<g id="Node000005" class="node">
<title>Node5</title>
<g id="a_Node000005"><a xlink:href="sourcecode_2hsilibs_2src_2HSIEventSender_8cpp.html" target="_top" xlink:title=" ">
<polygon fill="white" stroke="#666666" points="324.75,-125.12 198.5,-125.12 198.5,-83.38 324.75,-83.38 324.75,-125.12"/>
<text text-anchor="start" x="206.5" y="-111.62" font-family="Helvetica,sans-Serif" font-size="10.00">/github/workspace/dev</text>
<text text-anchor="start" x="206.5" y="-100.38" font-family="Helvetica,sans-Serif" font-size="10.00">_area/sourcecode/hsilibs</text>
<text text-anchor="middle" x="261.62" y="-89.12" font-family="Helvetica,sans-Serif" font-size="10.00">/src/HSIEventSender.cpp</text>
</a>
</g>
</g>
<!-- Node4&#45;&gt;Node5 -->
<g id="edge4_Node000004_Node000005" class="edge">
<title>Node4&#45;&gt;Node5</title>
<g id="a_edge4_Node000004_Node000005"><a xlink:title=" ">
<path fill="none" stroke="#63b8ff" d="M279.01,-161.26C275.33,-149.42 271.24,-136.23 267.95,-125.62"/>
<polygon fill="#63b8ff" stroke="#63b8ff" points="275.61,-162.11 281.91,-170.63 282.29,-160.04 275.61,-162.11"/>
</a>
</g>
</g>
<!-- Node6&#45;&gt;Node7 -->
<g id="edge6_Node000006_Node000007" class="edge">
<title>Node6&#45;&gt;Node7</title>
<g id="a_edge6_Node000006_Node000007"><a xlink:title=" ">
<path fill="none" stroke="#63b8ff" d="M469.34,-158.74C459.92,-149.53 449.86,-139.69 440.97,-131"/>
<polygon fill="#63b8ff" stroke="#63b8ff" points="466.72,-161.07 476.32,-165.56 471.62,-156.07 466.72,-161.07"/>
</a>
</g>
</g>
<!-- Node8 -->
<g id="Node000008" class="node">
<title>Node8</title>
<g id="a_Node000008"><a xlink:href="Readoutlibs_8cpp.html" target="_top" xlink:title=" ">
<polygon fill="white" stroke="#666666" points="536.38,-41.75 392.88,-41.75 392.88,0 536.38,0 536.38,-41.75"/>
<text text-anchor="start" x="400.88" y="-28.25" font-family="Helvetica,sans-Serif" font-size="10.00">/github/workspace/dev</text>
<text text-anchor="start" x="400.88" y="-17" font-family="Helvetica,sans-Serif" font-size="10.00">_area/sourcecode/readoutlibs</text>
<text text-anchor="middle" x="464.62" y="-5.75" font-family="Helvetica,sans-Serif" font-size="10.00">/src/Readoutlibs.cpp</text>
</a>
</g>
</g>
<!-- Node6&#45;&gt;Node8 -->
<g id="edge8_Node000006_Node000008" class="edge">
<title>Node6&#45;&gt;Node8</title>
<g id="a_edge8_Node000006_Node000008"><a xlink:title=" ">
<path fill="none" stroke="#63b8ff" d="M505.07,-155.43C504.99,-132.62 503.1,-102.97 495.62,-77.75 491.91,-65.2 485.03,-52.35 478.69,-42.14"/>
<polygon fill="#63b8ff" stroke="#63b8ff" points="501.58,-155.13 504.98,-165.16 508.58,-155.19 501.58,-155.13"/>
</a>
</g>
</g>
<!-- Node7&#45;&gt;Node8 -->
<g id="edge7_Node000007_Node000008" class="edge">
<title>Node7&#45;&gt;Node8</title>
<g id="a_edge7_Node000007_Node000008"><a xlink:title=" ">
<path fill="none" stroke="#63b8ff" d="M436.42,-67.78C441.83,-58.97 447.45,-49.83 452.23,-42.04"/>
<polygon fill="#63b8ff" stroke="#63b8ff" points="433.49,-65.86 431.24,-76.21 439.45,-69.52 433.49,-65.86"/>
</a>
</g>
</g>
<!-- Node10 -->
<g id="Node000010" class="node">
<title>Node10</title>
<g id="a_Node000010"><a xlink:href="sourcecode_2timinglibs_2src_2TimingController_8cpp.html" target="_top" xlink:title=" ">
<polygon fill="white" stroke="#666666" points="701.38,-125.12 563.88,-125.12 563.88,-83.38 701.38,-83.38 701.38,-125.12"/>
<text text-anchor="start" x="571.88" y="-111.62" font-family="Helvetica,sans-Serif" font-size="10.00">/github/workspace/dev</text>
<text text-anchor="start" x="571.88" y="-100.38" font-family="Helvetica,sans-Serif" font-size="10.00">_area/sourcecode/timinglibs</text>
<text text-anchor="middle" x="632.62" y="-89.12" font-family="Helvetica,sans-Serif" font-size="10.00">/src/TimingController.cpp</text>
</a>
</g>
</g>
<!-- Node9&#45;&gt;Node10 -->
<g id="edge11_Node000009_Node000010" class="edge">
<title>Node9&#45;&gt;Node10</title>
<g id="a_edge11_Node000009_Node000010"><a xlink:title=" ">
<path fill="none" stroke="#63b8ff" d="M668.07,-162.36C660.55,-150.24 652.06,-136.55 645.27,-125.62"/>
<polygon fill="#63b8ff" stroke="#63b8ff" points="665.05,-164.14 673.3,-170.79 671,-160.44 665.05,-164.14"/>
</a>
</g>
</g>
<!-- Node9&#45;&gt;Node11 -->
<g id="edge12_Node000009_Node000011" class="edge">
<title>Node9&#45;&gt;Node11</title>
<g id="a_edge12_Node000009_Node000011"><a xlink:title=" ">
<path fill="none" stroke="#63b8ff" d="M720.79,-165.23C736.95,-152.45 755.94,-137.43 770.87,-125.62"/>
<polygon fill="#63b8ff" stroke="#63b8ff" points="719,-162.18 713.32,-171.13 723.34,-167.67 719,-162.18"/>
</a>
</g>
</g>
<!-- Node12 -->
<g id="Node000012" class="node">
<title>Node12</title>
<g id="a_Node000012"><a xlink:href="sourcecode_2timinglibs_2src_2TimingMasterController_8cpp.html" target="_top" xlink:title=" ">
<polygon fill="white" stroke="#666666" points="873.62,-41.75 719.62,-41.75 719.62,0 873.62,0 873.62,-41.75"/>
<text text-anchor="start" x="727.62" y="-28.25" font-family="Helvetica,sans-Serif" font-size="10.00">/github/workspace/dev</text>
<text text-anchor="start" x="727.62" y="-17" font-family="Helvetica,sans-Serif" font-size="10.00">_area/sourcecode/timinglibs</text>
<text text-anchor="middle" x="796.62" y="-5.75" font-family="Helvetica,sans-Serif" font-size="10.00">/src/TimingMasterController.cpp</text>
</a>
</g>
</g>
<!-- Node11&#45;&gt;Node12 -->
<g id="edge13_Node000011_Node000012" class="edge">
<title>Node11&#45;&gt;Node12</title>
<g id="a_edge13_Node000011_Node000012"><a xlink:title=" ">
<path fill="none" stroke="#63b8ff" d="M796.62,-71.89C796.62,-61.87 796.62,-51.05 796.62,-42.04"/>
<polygon fill="#63b8ff" stroke="#63b8ff" points="793.13,-71.62 796.63,-81.62 800.13,-71.62 793.13,-71.62"/>
</a>
</g>
</g>
<!-- Node14 -->
<g id="Node000014" class="node">
<title>Node14</title>
<g id="a_Node000014"><a xlink:href="sourcecode_2timinglibs_2src_2TimingHardwareManager_8cpp.html" target="_top" xlink:title=" ">
<polygon fill="white" stroke="#666666" points="1053.75,-125.12 891.5,-125.12 891.5,-83.38 1053.75,-83.38 1053.75,-125.12"/>
<text text-anchor="start" x="899.5" y="-111.62" font-family="Helvetica,sans-Serif" font-size="10.00">/github/workspace/dev</text>
<text text-anchor="start" x="899.5" y="-100.38" font-family="Helvetica,sans-Serif" font-size="10.00">_area/sourcecode/timinglibs</text>
<text text-anchor="middle" x="972.62" y="-89.12" font-family="Helvetica,sans-Serif" font-size="10.00">/src/TimingHardwareManager.cpp</text>
</a>
</g>
</g>
<!-- Node13&#45;&gt;Node14 -->
<g id="edge15_Node000013_Node000014" class="edge">
<title>Node13&#45;&gt;Node14</title>
<g id="a_edge15_Node000013_Node000014"><a xlink:title=" ">
<path fill="none" stroke="#63b8ff" d="M935.63,-162.72C943.49,-150.51 952.4,-136.66 959.51,-125.62"/>
<polygon fill="#63b8ff" stroke="#63b8ff" points="932.9,-160.5 930.43,-170.8 938.79,-164.28 932.9,-160.5"/>
</a>
</g>
</g>
</g>
</svg>
